<?xml version="1.0" encoding="UTF-8"?>
<svg width="15px" height="16px" viewBox="0 0 15 16" version="1.1" xmlns="http://www.w3.org/2000/svg" xmlns:xlink="http://www.w3.org/1999/xlink">
    <g id="Page-1" stroke="none" stroke-width="1" fill="none" fill-rule="evenodd">
        <g id="iqblog_articlepage_1280" transform="translate(-899.000000, -2278.000000)" fill="#FFFFFF" fill-rule="nonzero">
            <g id="04_trade" transform="translate(1.000000, 2157.000000)">
                <g id="btn" transform="translate(708.000000, 105.000000)">
                    <g id="icon_trade" transform="translate(190.000000, 16.000000)">
                        <polygon id="Rectangle-4" points="0.0134887695 12.0171814 2.01119995 10.0262756 2.01119995 14.9963379 0.0134887695 14.9963379"></polygon>
                        <polygon id="Rectangle-4" points="8.00048828 10.1061096 10 8.02798462 10 15.0049744 8.00048828 15.0049744"></polygon>
                        <polygon id="Rectangle-4" transform="translate(5.003632, 11.532791) scale(-1, 1) translate(-5.003632, -11.532791) " points="4.0067749 10.028595 6.00048828 8.06704712 6.00048828 14.9985352 4.0067749 14.9985352"></polygon>
                        <polygon id="Rectangle-4" points="12 6.03189087 14.0121155 4.03027344 14.0121155 14.9985352 12 14.9985352"></polygon>
                        <polygon id="Path-38" points="0 9.52648926 3.99707031 5.50146484 7.01190186 8.49810791 14.0266724 1.49255371 12.4366825 0.068943246 7.01190186 5.50146484 3.99707031 2.45471191 0 6.52111816"></polygon>
                        <polygon id="Path-5" points="14.0072632 4 14.0072632 0.0167236328 10.0021362 0.0167236328"></polygon>
                    </g>
                </g>
            </g>
        </g>
    </g>
</svg>
