<svg xmlns="http://www.w3.org/2000/svg" class="Logo__svg" width="200px" height="200px" viewBox="0 0 200 200"><g id="coinrate" stroke="none" fill="#000000" stroke-width="1px"><circle fill="#0057ff" cx="100" cy="100" r="100" stroke="none" stroke-width="1px"></circle><path d="M93,147.261147 C83.3828634,145.617415 75.0972303,141.237116 68.260479,134.180822 C59.3772455,124.879452 55,113.319178 55,99.5 C55,85.6808219 59.3772455,74.1205479 68.260479,64.9520548 C75.3330692,57.5465558 83.956226,53.0890857 94,51.5796447 L94,36 L110,36 L110,51.6772382 C115.141515,52.5673063 120.037281,54.3347109 124.649701,56.9794521 C131.601796,60.9657534 137.008982,66.2808219 141,73.0575342 L121.04491,84.8835616 C117.568862,78.3726027 110.359281,74.2534247 101.991018,74.2534247 C94.7814371,74.2534247 88.988024,76.6452055 84.4820359,81.2958904 C80.1047904,85.9465753 77.9161677,91.9260274 77.9161677,99.5 C77.9161677,107.073973 80.1047904,113.186301 84.4820359,117.836986 C88.988024,122.487671 94.7814371,124.746575 101.991018,124.746575 C110.359281,124.746575 117.568862,120.760274 121.04491,113.983562 L141,125.942466 C134.280413,137.653004 122.56532,145.472282 109,147.485825 L109,162 L93,162 L93,147.261147 Z" id="Combined-Shape" fill="#ffffff" transform="translate(98.000000, 99.000000) rotate(-345.000000) translate(-98.000000, -99.000000) " stroke="none" stroke-width="1px"></path></g></svg>