
<svg id="icon_icon__call" viewBox="0 0 63 63.6" width="18px" height="18px" fill="#fff">
      <title>call_02</title><path class="cls-1" d="M0 46.2v16.3a1.11 1.11 0 0 0 1.1 1.1h6.6a1.11 1.11 0 0 0 1.1-1.1V40.2a1.09 1.09 0 0 0-1.8-.8l-6.6 6a.91.91 0 0 0-.4.8zM32 46.2v16.3a1.11 1.11 0 0 0 1.1 1.1h6.6a1.11 1.11 0 0 0 1.1-1.1V40.2a1.09 1.09 0 0 0-1.8-.8l-6.6 6a.91.91 0 0 0-.4.8zM15.9 36.6v25.9a1.11 1.11 0 0 0 1.1 1.1h6.7a1.11 1.11 0 0 0 1.1-1.1V42.8a1.14 1.14 0 0 0-.3-.8l-6.7-6.2a1.15 1.15 0 0 0-1.9.8zM56.8 23.8v38.6a1.11 1.11 0 0 1-1.1 1.1H49a1.11 1.11 0 0 1-1.1-1.1V30a1.14 1.14 0 0 1 .3-.8l6.7-6.2a1.15 1.15 0 0 1 1.9.8z"></path><path class="cls-1" d="M0 34.3v-7.1a1.14 1.14 0 0 1 .3-.8L13.9 13a1.09 1.09 0 0 1 1.5 0l13.5 14.5a1.09 1.09 0 0 0 1.5 0L50.6 7.8a1.09 1.09 0 0 0 0-1.5l-5-4.4a1.09 1.09 0 0 1 .7-1.9h15.6A1.11 1.11 0 0 1 63 1.1V16a1.09 1.09 0 0 1-1.8.8l-4.6-4.3a1.09 1.09 0 0 0-1.5 0L30.6 37.1a1.09 1.09 0 0 1-1.5 0L14.4 22.8 1.8 35a1 1 0 0 1-1.8-.7z"></path>
    </svg>
