<svg width="80" height="80" xmlns="http://www.w3.org/2000/svg">
  <g fill="none" fill-rule="evenodd">
    <circle fill="#FFF" cx="40" cy="40" r="40"/>
    <path d="M47.961993 39.910722c.00045 8.829925.00045 17.65985 0 26.489774 0 .37579.004962.751805-.01376 1.126918-.049398.984586-.472782 1.73436-1.420376 2.105413-.942857.369023-1.76797.129248-2.473083-.56594-.882857-.87045-1.758721-1.748346-2.636616-2.623985-2.98015-2.971128-5.947444-5.955564-8.948572-8.905488-.746842-.734211-1.098947-1.530903-1.089022-2.591955.038797-4.095113.0203-8.190903.013534-12.286466-.003384-1.949775-.85218-2.799249-2.829474-2.811203-2.630075-.01579-5.260601-.026391-7.890451.005639-1.110451.013533-2.050602-.262331-2.491805-1.343233-.451579-1.106166-.01985-2.00346.807745-2.82564 8.263534-8.208947 16.51376-16.431654 24.751128-24.666992.815413-.815414 1.688797-1.291353 2.814135-.84812 1.14767.451804 1.412256 1.439323 1.411128 2.574812-.008797 9.055488-.004963 18.110977-.004512 27.166466" fill="#C80000"/>
  </g>
</svg>
