<svg width="80" height="80" viewBox="0 0 80 80" xmlns="http://www.w3.org/2000/svg" xmlns:xlink="http://www.w3.org/1999/xlink">
  <title>
    ada-cardano
  </title>
  <defs>
    <path id="a" d="M.118128.18375h3.533237v3.536485H.118128V.18375z"/>
  </defs>
  <g fill="none" fill-rule="evenodd">
    <circle fill="#FFF" cx="40" cy="40" r="40"/>
    <path d="M45.17557 44.558375c2.368207.036042 4.236635 1.976458 4.207016 4.36875-.029618 2.357708-2.017553 4.34125-4.309747 4.300208-2.41875-.043333-4.34103-2.005-4.31679-4.405.02464-2.430625 1.96349-4.30125 4.41952-4.263958m4.96785-.371292c-2.47674.014792-4.30561-1.72979-4.33792-4.137916-.03211-2.389792 1.9434-4.404167 4.32072-4.405834 2.38125-.001666 4.28406 1.892917 4.29939 4.281042.01636 2.526042-1.71288 4.2475-4.2822 4.262708m-5.03682-8.742687c-2.45458.014375-4.36816-1.865625-4.37893-4.302084-.01057-2.3975 1.96246-4.392916 4.33626-4.385416 2.32719.0075 4.22814 1.940208 4.26936 4.34104.03831 2.225-2.01217 4.333543-4.2267 4.34646m-10.29127.013646c-2.37277-.0175-4.23146-1.910625-4.23146-4.309584 0-2.38979 1.9024-4.352083 4.21903-4.351666 2.4146.000416 4.34889 1.950625 4.41517 4.308958.05716 2.025208-2.38002 4.65-4.40275 4.352292m-.69994 4.593395c-.01802 2.420834-1.99187 4.372917-4.37209 4.324167-2.35164-.048333-4.244096-1.993333-4.244096-4.3625 0-2.353958 1.941956-4.315625 4.280545-4.323958 2.412322-.008334 4.353655 1.94479 4.335636 4.36229m.796316 4.52596c2.357024-.005625 4.304985 1.913125 4.330254 4.265417.02527 2.36479-1.99291 4.435-4.31451 4.425833-2.354535-.009167-4.35096-2.047292-4.32362-4.41375.02734-2.374583 1.93802-4.271875 4.30788-4.2775m22.66656 4.138084c.01139 1.47625-1.07743 2.581874-2.53038 2.569583-1.398672-.01146-2.49372-1.098126-2.51505-2.495417-.02175-1.43875 1.09794-2.570833 2.5397-2.567708 1.399717.003124 2.49496 1.093125 2.50573 2.49354m-17.689-23.72406c-1.41525-.022293-2.46576-1.10146-2.46017-2.527085.0056-1.475 1.12156-2.600833 2.54592-2.568333 1.2742.029167 2.67226 1.260208 2.61323 2.372292-.09424 1.772708-1.21994 2.698958-2.69898 2.723125M22.4042 48.759937c.02796-1.374375 1.16919-2.488958 2.535146-2.47625 1.413594.013126 2.56083 1.195 2.528105 2.605-.03127 1.349792-1.20916 2.506667-2.54943 2.50396-1.37921-.002918-2.5426-1.22146-2.51381-2.63271m19.95348 8.823646c-.02174 1.396875-1.13377 2.524375-2.4991 2.53396-1.42126.01-2.6151-1.157085-2.54757-2.582293.05551-1.171667 1.00826-2.580833 2.585684-2.513542 1.37134.058334 2.48233 1.184792 2.460995 2.561875m-17.45124-28.83902c1.37465.00729 2.50656 1.123333 2.525823 2.49.02009 1.410416-1.125694 2.54875-2.563105 2.546458-1.434925-.00208-2.536802-1.13937-2.50615-2.58687.029413-1.39437 1.13274-2.45729 2.54343-2.44958m30.08748 4.99065c-1.397852-.01396-2.46804-1.10333-2.46804-2.51271-.000206-1.43875 1.161528-2.62687 2.529968-2.58708 1.42291.04125 2.511328 1.205 2.47508 2.64646-.03521 1.40375-1.135014 2.46729-2.53701 2.45334M51.23614 18.086c1.14413.002292 2.100195.953958 2.120906 2.111042.02112 1.19375-.95938 2.244375-2.09916 2.249375-1.18721.005208-2.15985-.96771-2.17517-2.176042-.014918-1.190833.966622-2.186667 2.15342-2.184375m.0972 39.456187c1.185967.013542 2.15094 1.0225 2.12484 2.22146-.026096 1.1975-1.03249 2.14479-2.23399 2.102082-1.150966-.04063-2.063535-.99605-2.06374-2.16105-.00021-1.205.975946-2.17625 2.17289-2.1625M62.5531 42.12387c-1.194667-.00063-2.165644-.99146-2.14866-2.192298.016776-1.17479 1.051754-2.189583 2.203547-2.160208 1.091313.027916 2.098536 1.060207 2.110963 2.16375.013257 1.186874-.97864 2.189374-2.16585 2.18875m-45.123086-4.22789c1.17582.0075 2.168336 1.04125 2.131676 2.21979-.036246 1.161042-1.094628 2.166667-2.24352 2.131875-1.119483-.03417-2.056907-1.03188-2.056907-2.18938.000207-1.21958.953372-2.17 2.16875-2.16229M28.59953 22.48094c-1.174784-.022708-2.134784-1.04729-2.09709-2.238125.037283-1.17875.961037-2.085208 2.130642-2.090833 1.20523-.005835 2.156945.959582 2.145346 2.17604-.011598 1.215-.984233 2.175833-2.1789 2.152916m-2.017408 37.23369c.004557-1.340834.845463-2.166043 2.180764-2.140418 1.295327.024792 2.102473.864167 2.06892 2.15146-.02672 1.021874-1.203367 2.238957-2.152596 2.186457-.95855-.052917-2.19319-.874167-2.097088-2.1975m-10.695787-35.46398c.964763.00521 1.77481.841876 1.750783 1.808126-.025062 1.002295-.812324 1.777295-1.79055 1.763336-.987754-.01417-1.759897-.80459-1.74664-1.78834.01284-.97313.829513-1.78813 1.786407-1.78313m.09366 31.59424c-1.044298.02166-1.764454-.67042-1.788894-1.71917-.02382-1.02292.71042-1.80875 1.70231-1.82167.9834-.0125 1.792.75729 1.82369 1.73604.03106.96333-.7593 1.78437-1.73712 1.80479m48.12145-.07294c-.92707.02458-1.76114-.80229-1.79035-1.77459-.02858-.95083.79347-1.79979 1.74664-1.804166.96911-.004584 1.78661.80021 1.79324 1.76521.00662.978123-.77422 1.7875-1.74954 1.81354m-.04763-28.05785c-1.00163.022917-1.76591-.72125-1.78641-1.739375-.02071-1.02042.71063-1.78625 1.71785-1.79896 1.00432-.01271 1.78578.73229 1.81064 1.72604.02382.963332-.7709 1.79021-1.74209 1.81229M39.97563 66.27132c.96518.075418 1.693822.92396 1.636243 1.90521-.058204.996458-.8639 1.698333-1.877337 1.635833-.99148-.061043-1.69942-.875-1.63687-1.881876.05986-.96791.92686-1.73354 1.87795-1.65916" fill="#226CD2"/>
    <g transform="translate(38.032 10.025)">
      <mask id="b" fill="#fff">
        <use xlink:href="#a"/>
      </mask>
      <path d="M1.921326.18402c1.004116.016668 1.74312.7825 1.729864 1.793126-.012635.960416-.845256 1.763125-1.807534 1.742708-.968285-.020625-1.75099-.846667-1.724894-1.82C.146102.882354.897532.166938 1.921326.18402" fill="#226CD2" mask="url(#b)"/>
    </g>
    <path d="M70.571806 41.321167c-.767793-.005417-1.371133-.6-1.38294-1.362917-.011597-.7475.600234-1.384792 1.3498-1.405833.78457-.022084 1.450667.6425 1.430784 1.427708-.01947.763125-.627366 1.346458-1.397644 1.341042M24.592652 11.90773c.74646-.015418 1.379625.589166 1.410486 1.346666.02941.73-.588634 1.406667-1.32163 1.446875-.763237.04188-1.468687-.63645-1.46848-1.41229.000207-.74271.622187-1.36562 1.379624-1.38125M10.76134 40.09782c-.01429.7375-.660297 1.37646-1.38915 1.374584-.80549-.002292-1.406137-.6475-1.37072-1.47271.03376-.789582.615353-1.324374 1.415457-1.301665.760958.02166 1.35912.64458 1.344414 1.39979m45.94428 26.60056c.00663.79625-.55446 1.39479-1.32101 1.40937-.80362.015-1.46205-.63146-1.44259-1.41667.01823-.73104.67231-1.36959 1.40469-1.37125.76407-.00146 1.35249.59521 1.35892 1.37854m-.08041-53.47747c.00704.74562-.60272 1.36437-1.3672 1.3875-.7564.02291-1.40323-.56896-1.43554-1.31334-.03459-.79479.60314-1.44104 1.41173-1.43021.7649.01 1.38398.61354 1.39102 1.35604M24.75396 68.15527c-.79472.013542-1.39288-.55854-1.40593-1.344583-.01284-.779375.574965-1.387916 1.355806-1.40375.787262-.01604 1.383146.559792 1.398266 1.351667.015535.793542-.553423 1.383125-1.348142 1.396667" fill="#226CD2"/>
  </g>
</svg>
