<svg width="80" height="80" viewBox="0 0 80 80" xmlns="http://www.w3.org/2000/svg">
  <title>
    adk-aidoskuneen
  </title>
  <g fill="none" fill-rule="evenodd">
    <path d="M79.8 40c0 22-18 39.8-40 39.8S0 61.8 0 39.8 18 0 40 0s39.8 18 39.8 40" fill="#48D127"/>
    <path d="M76.5 40C76.5 60 60 76.4 40 76.4 19.5 76.5 3 60 3 40 3.2 19.5 19.6 3 40 3c20 0 36.5 16.4 36.5 36.7" fill="#297800"/>
    <path d="M74.5 40C74.5 59 59 74.4 40 74.4 20.7 74.5 5.2 59 5.2 40 5.3 20.7 20.8 5.2 40 5.2c19 0 34.5 15.5 34.5 34.6" fill="#1E3A0E"/>
    <path d="M72.8 40c0 18-14.7 32.8-33 32.8C22 72.8 7 58 7 39.8 7 22 21.7 7 40 7c18 0 32.8 14.7 32.8 33" fill="#7FA96F"/>
    <path d="M70 40c0 16.5-13.5 30-30 30C23.2 70 9.7 56.4 9.7 40c0-16.7 13.5-30.2 30-30.2 16.7 0 30 13.5 30 30" fill="#C7D0A6"/>
    <path d="M45.5 59.2c-1 0-1.5-.4-2.3-.7-.2-.7-1-.6-1.2-1.2.2-.2.3-.4.2-.7l.7-.6h.8c.3 0 .6 0 1 .2.2 0 .5 0 .8.4.2.3.2.6 0 1-.4.4-1 .2-1.5 0l1.3.3s.2 0 .3.2c.2.4 0 .7 0 1z" fill="#686F49"/>
    <path d="M43 56.2c-.2.4-.5.4-.8.4H41l-.4-.3-.3-.4c0-.3 0-.6.4-.5.4 0 1 .2 1.3.4 0-.3.3-.3.5-.2.2 0 .3 0 .3.2v.2" fill="#4D5936"/>
    <path d="M42 55.3c-1-.3-2-.6-2-1.7 0 0-.2 0 0-.2h.3c.2-.4.3-.7 0-1-.3-.2-.3-.5-.3-.8 0-1 0-1 1-.6.8-.3 1.3.2 2 .4.2.2.5.2.8.3.3 0 .6 0 1 .4 0 .6 0 1-.6 1.3h-1L43 53c0 .2.2.2.3.3.2.5 0 .8-.5 1-.2 0-.3 0 0 0h.2s.2 0 .3.2l.3.3v.2c0 .4 0 .6-.4.8h-.8l-.5-.5" fill="#515D39"/>
    <path d="M41.3 50.7c-.4-.6-1.4-.5-1.7-1.2v-.2c.4-.3.6-.6 1-.6 1.2.7 2.8.7 3.8 1.8 0 .5 0 1-.5 1-1 .2-2-.3-2.7-.8" fill="#4D5A37"/>
    <path d="M41.3 50.7c1 .2 1.7.7 2.6.7.6 0 1.6-.5 2.2.4 0 .3 0 .5-.3.7-.7.2-1 0-1.5-.4h-1c0-.2-.4 0-.6-.2l-2-.8.3-.3" fill="#A4A884"/>
    <path d="M42.3 55.6H45c.2 0 .4.3.5.4v.5h-1c-.2 0-.4 0-.6-.2h-1c-.2-.2-.3-.3-.5-.3H42v-.4h.3" fill="#ABAE89"/>
    <path d="M45.5 59v-.8c1.5-.7 3.3-.5 4.8-1.4 0 0 .3 0 .4-.2.5 0 1 0 1 .5 0 1-.5 1.2-1 1.5h-.3c-1.7.2-3.2 1-5 .6" fill="#7F7F65"/>
    <path d="M46.8 60.5H46c-.4-.5-.7-1 .3-1s1.8 0 2.7-.3c.5-.2 1-.2 1.4-.7.4-.2 1-.8 1.5-.4.4.6.2 1-.3 1.5l-.4.2c-.7.5-1.5.2-2.3.4-.8 0-1.5.4-2.2.5" fill="#7E7F65"/>
    <path d="M50.7 57c-1.6 1-3.4 1.3-5.2 1.2h-.3c.3-1 1.3-.6 2-1 1 0 2.2-1 3.5-.3" fill="#DDDCD0"/>
    <path d="M47.2 57.6c-.6.5-1.5 0-2 .6-.8 0-1.5-.5-2.4-1.3 1 0 1.8.7 2.7.5.3-.3.8-.4 1.2-.2.2 0 .4 0 .5.3" fill="#919D6C"/>
    <path d="M46.8 57.5h-1.3v-1c.4-.3 1-.3 1.3 0 .3.3.3.7 0 1" fill="#7C805E"/>
    <path d="M14.4 30.4c.7-.7 1.5-1.2 1.8-2.2 0-.5.6-1 1.3-1 .2.5-.5 1 0 1.8 1-1.6 2-3 3.3-4.2.4 0 .6.4.6.7v.4c-.2 0-.2 0-.3.2v.2l-.2.3c0 .3-.3.5-.4.7-.7 1-1.5 1.7-1.8 2.8 0 .2-.2.3-.3.4l-2.4 3c-.4.4-.6 1-1.3 1-.6-.6-.4-1.2 0-1.8.3-.4.6-.6.7-1 0-.3.2-.6.4-.8l-.5.6c-.5.2-.8 1.2-1.4 1-.7-.5 0-1.3.2-1.8 0-.2 0-.3.2-.4" fill="#547044"/>
    <path d="M16 35.8c-.4.2-.7 0-1-.3-.3-.8.4-1.3.7-1.8 1-1 1.7-2.2 2.6-3.4.6-1 1-2 2-3 .3 0 .5-.3.8-.3.3 0 .4 0 .6.3v.7c-.2 0-.2 0-.3.2 0 0 0 .2-.2.2v.2s-.2 0-.2.2v.2c0 .2 0 .5-.2.7-.3.8-.8 1.4-1.2 2l-2.2 3c-.3.5-.5 1-1.2 1" fill="#587246"/>
    <path d="M17 37.5c-.5.6-.6 0-.8-.4l-.2-.4c.8-1.7 2-3.2 3-4.7 1-1 1.2-2.4 2.5-3 .4.3.4.8.5 1.2 0 .5-.3 1-.5 1.4l-.3.3c-.2.2-.5.5-.7 1 0 0-.2 0-.2.2-.5.6-1 1-1.3 1.7 0 0 0 .2-.2.3 0 .2-.2.3-.3.5 0 0 0 .3-.2.4-.4.5-.7 1-1.3 1.3" fill="#566F45"/>
    <path d="M18.3 30.3c-.4 1.3-1.3 2.2-2 3.2-.5.7-1.2 1-1.3 2-.4-.2-.3-.6-.3-1 1.3-1.3 2-3 3.6-4.2" fill="#CBD6B6"/>
    <path d="M19.3 32L16 36.6v-.8c1-1.4 2-3 3.2-4.3.2 0 .2.3 0 .5" fill="#CBD5B8"/>
    <path d="M22 32.7c-.5.4-.8.8-1 1.2-1 1.6-1.3 3.4-2.7 4.8-.2.2-.3.5-.7.6l-.3-.4v-1.2c.2-.7.6-1.3 1-2 .2 0 0-.4.3-.6l1.6-2.3 1-1.4h.5c.5.2.3.7.2 1" fill="#536C42"/>
    <path d="M21.5 34.5c.2.8-.2 1.6-.6 2.3-.6 1.2-1 2.4-1.7 3.5 0 .3 0 .7-.5.7s-.5-.6-.4-1c0-.3 0-.6.2-1 .3-1.2 1-2.4 1.7-3.6.3-.5.6-1 1.2-1" fill="#566E44"/>
    <path d="M21.2 37.2c.7 1.3 0 2.6-.3 4v.4c-.7 0-.6 1.4-1.4.8-.6-.4 0-1 .2-1.5.5-1.4.7-2.7 1.4-3.8" fill="#536D43"/>
    <path d="M21.5 34.5c-1.3 1.3-2 3-3 4.6l-.2-.2c.8-1.7 1.3-3.5 2.6-5 .3 0 .5.3.5.7" fill="#B8CA96"/>
    <path d="M21.2 41.4c.5 1 1 2 .3 3-.6.3-.6-.3-1-.5 0-1 .5-1.5.4-2.3 0 0 0-.3.2-.3" fill="#4B663D"/>
    <path d="M18.3 35.8c-.2.8-.5 1.4-1 2l-.3-.3c.5-.6.5-1.4 1.3-1.7" fill="#B8CA96"/>
    <path d="M23.4 44.3v-.7c0-.3-.2-.6 0-1 0-.6.6-1.2.4-2 0-.6.3-1 .4-1.5l.2-.3c.8-1.3 1-2.8 1.5-4.2 0-.8.3-1.5.6-2.3l.2-.3c0-.3.2-.5.3-.7.2 0 .3-.2.4-.4.4-.7.8-1.3 1.5-1.6 1.2-.2.8.5.6 1-1.2 2.3-2.4 4.4-2.6 6.7.5-1.3.4-3 1.6-4.3.4 0 .7-.4 1 0 .4 1.5-.8 2.8-.5 4.3-.5 1.8.2 3.8-.3 5.6 0 2.3.7 4.4 1.5 6.5 0 .4.3.6.3.8 0 .5-.5.6-1 .7-.3 0-.4-.4-.4-.6 0-1.8-.8-3.3-1.2-5.3-.3 2.5 1 4.3.8 6.4 0 .2-.2.3-.3.4H28c-.3-.3 0-1-.7-1v-.2c-.4-.4-.5-1-.6-1.4-.2-2-.4-4 .2-5.8 0-.6 0-1.2-.2-1.8 0-.3-.2 0 0 0V43c-.5 1.6-.3 3.3-.2 5 .2.7 0 1.3-.4 2 0 .6 0 1.2-.5 1.7-.5 1-.8 2-2.2 2 .3-.8.5-1.6 1-2.3 1-1.2 1-2.5 1-4-.3 0-.2-.3-.3-.5v-1c0 .3.2.7-.2.8-.7 1.2-.5-.4-1-.3 0-.4-.2-1 .2-1.3.5-.6.2-1.4.6-2 .4-1 1-2 .7-3 0 0-.3.2 0 0 .4 0 0 1.5-.8 2.4-.4.4-.5 1-.7 1.4 0 .2 0 .7-.6.3" fill="#3D572D"/>
    <path d="M24.7 42.6c.5-.8.7-1.7.8-2.7.4 1 .2 2.2-.7 3v-.4" fill="#A4B192"/>
    <path d="M21.6 44.6c.2 0 .4-.2.5-.3 0 .4 1 1-.2 1.3 0-.2-.2-.3-.3-.4v-.6" fill="#496137"/>
    <path d="M39.7 49.4l-.4-.3s0-.2-.3-.2c-1.8-.6-2.7-2-3.6-3.6l-.2-.3c-.3-.4-.3-1-.7-1-.7-.6-1-1.3-1-2l-.3-.7c-.3-.6-.4-1.3-.4-2l-.3-1v-3.7c.4-.8 0-2 1-2.5 1.2 0 1 1 1 1.7-.6 2 .2 4 .8 5.8.6 1.3 1.2 2.6 2.2 3.6.4 1 1 1.5 1.7 2 .6.7 1.2 1.3 2 1.8v.2h.3l.2.8c0 .4-.4.6-.7.8h-.5c-1-.5-1.5-1.3-2.2-2l2 2v.2c0 .5-.2.7-.6.6" fill="#354B29"/>
    <path d="M33.5 32.4c-.6.6 0 1.5-.6 2.2h-.2v-.2c0 1.4-.2 2.7 0 4-.2 2.2.8 4 1.7 6 0 .8.4 1.7 1 2.3.8.8 0 1-.4 1.2-.7-.3-.8-1-1.2-1.6-.5-.7-.8-1.4-1.2-2.2-1.5-1.4-1.5-3.4-2-5.2-.4-2.4 0-4.8 1-7 .2-.2.3-.3.3-.5.5-.8.6-2 1.3-2.7.4-.5.8-.8 1.4-.6.2 0 .3.3.3.4 0 1.5-1 2.5-1.5 3.8" fill="#436032"/>
    <path d="M34.5 44.3c-1.2-1.5-2-3-2.2-5 0-.2 0-.4.2-.6h.4c0 .2 0 .5.2.7 0 .7 0 1.3.4 2l.2.4c0 .8.6 1.4.7 2v.5" fill="#AABB91"/>
    <path d="M29.7 32.6l-1 .3c-.4-1.2.6-1.8.8-2.7.8-1 1.5-2.2 3-1.8.3 0 .5.3.6.5 0 1-.5 1.8-.8 2.6-1 1.4-1.4 3-1.5 4.6-.4 2 .2 4 1 6 .2.8.5 1.5.5 2.4.3 1 1 1.8 1.5 2.7.3.4.5.8 0 1.2-.7.5-.8-.2-1.2-.3-1.5-1.5-1.7-3.4-2.2-5 .2 1.7 1.2 3.4 2 5.3 0 .4-.3.6-.4 1-.7.3-1 0-1.2-.5-1-1.7-1.3-3.4-1.5-5.2 0-.5 0-1-.3-1.5-.6-1.6-.3-3.3-.2-5 0-2.4 1-4.5 2.3-6.5-.5.4-.3 1.6-1.3 1.8" fill="#446631"/>
    <path d="M32.2 44.6c-.8-2.4-2.2-4.7-2-7.4 0-.4 0-.8.4-1 .5 1-.2 2 .3 2.8.5 1.8 1 3.6 1.6 5.2l-.4.4" fill="#A4B980"/>
    <path d="M32.2 48.5c-1.4-1.8-1.8-3.8-2-6 .8 2 1 4 2.3 5.7 0 0 0 .2-.3.3" fill="#9AB07A"/>
    <path d="M21.3 26c-.2-.5-.3-1-.5-1.2v-.3l2.2-2c.4-.2 1-.4 1.2-1 .3 0 .5 0 .6-.2l.3-.3c.3-.2.6-.2.7-.4.2-.2.4-.2.6 0h.7c.7 1.4-.7 1.6-1.3 2.2-1.4 1-2.8 2.3-4.4 3" fill="#475C36"/>
    <path d="M42 17.7c-.5-.5-1-.2-1.7-.3-.4-.7-1.2 0-1.6-.6 0-.3.4-.3.6-.3h2.3c.5.4 2.3-.7 1.7 1.3-.5.3-1 .3-1.4 0" fill="#4C5938"/>
    <path d="M46 15.4c1.2 0 2.3 0 3.3.4.7 0 1.3 0 2 .5.8 1 .7 1.2-.6 1.7-1.4-.5-2.8-1.2-4.3-1.3-.5 0-1-.2-1.2-.7.2-.4.7-.2 1-.6" fill="#86866D"/>
    <path d="M43.2 17.7c0-.6 0-1-.7-1-.4 0-.7 0-1-.3h.8c.4-.2 1-.6 1.4 0 .2.5.7.3 1.2.3h.3c.2 0 .3 0 .5.2 0 0 .2 0 .2.3 0 .2 0 .4-.2.5h-.3v.2c.3 0 .6 0 .8.4v1H46c-1 0-1.5-.2-2-.6-.4-.3-.7-.7-.8-1" fill="#69704C"/>
    <path d="M45.2 16.8H45c0-.3 0-.6.2-.8 1.3.5 2.8.3 4 1l1.5.7c0 .4-.2.5-.5.6-1.5 0-3-.6-4.4-1.3-.2 0-.4 0-.6-.2" fill="#E3E1D3"/>
    <path d="M21.6 27.8l-.4-.7c.2-1.2 1.3-1.8 2.2-2.5l1.4-1c0-.2.2-.3.3-.3.2 0 .2 0 .3-.2 0 0 .2 0 .3-.2.2 0 .4-.3.6-.5.2 0 .4-.3.5-.4 1-.7 1.6-1.8 3-1.7 1-.5 2.2-1.3 3.5-1.7 0 0 .2 0 .3-.2.2-.2.4-.2.6 0 2-.8 3.8-.7 5.7-.7.3.3 1 0 1.2.3h.3l.2.2c0 .7-.2 1-.8 1-.7.2-1.5.2-2 .7h-2c-.3-.3-.5-.5 0-.7 0-.2.2 0 .3 0 0-.3-.2 0-.3 0-4.3.5-7.7 2.7-10.8 5.5l-3 2.4c-.4.4-.8.7-1.4.6" fill="#3E552F"/>
    <path d="M29.6 20.3l-3 2s0 .2-.2.3l-.7.4h-.4v-.4c.6-.7 2-.8 1.7-2 .8 0 1.4-1 2.2-.7.2 0 .4 0 .4.3" fill="#AEBE96"/>
    <path d="M29.2 20c-.4 0-.7.3-1 .6-.4.4-.8.3-1.2 0 .5-1 1.5-.8 2.3-1.2.3 0 0 .4 0 .5" fill="#536D3E"/>
    <path d="M50.3 14.7H52c.4.5.3 1 0 1.4-.2.3-.4.3-.7.3-.6-.2-1.2-.3-1.6-1 0-.4.3-.5.6-.6" fill="#717753"/>
    <path d="M49.7 15.4l1.6.7c0 .4 0 .6-.4.4-.7 0-1.2 0-1.7-.6l.4-.4" fill="#D2D2BA"/>
    <path d="M25.7 51.7v-2c.3 0 .4 0 .5.2.3.6.4 1.3 0 2 0 0-.3.2-.5 0v-.3" fill="#C7D2B5"/>
    <path d="M26 52.4V52c0-.7 0-1.5.2-2.2.8-.6 1 .2 1.2.6 0 1-.5 1.6-1.3 2" fill="#3D552E"/>
    <path d="M52.3 62c-1 0-2 1-3 .8-.2-.2-.3-.4-.2-.7h.2c0-.2.2-.2.4-.3l.2-.2c.2 0 .3 0 .5-.2h.3c0-.2.3-.2.5-.3h.4l.5-.4h.3c.3 0 .4 0 .5.4 0 .5 0 1-.5 1" fill="#707555"/>
    <path d="M49.4 60.5h.3c.4-.6 1-.7 1.6-1 .4-.2.8-.3 1 0 .4.6 0 1-.4 1.3-.2.2-.5 0-.7.3-.2.4-.7 0-1 .4 0 .2-.3.2-.6.2-.7-.2-.4-.6-.3-1" fill="#707555"/>
    <path d="M49.4 60.5c.3.3 0 .7.3 1v.2l-.7.4h-.7c-.3 0-.5-.3-.5-.6s.3-.5.5-.6c.4 0 .7-.2 1-.3" fill="#8C8A76"/>
    <path d="M51.3 59.5c-.4.5-1 .7-1.6 1-.2-.4-.5-.3-.7-.4.7-.3 1.5-.4 2.3-.5" fill="#CDCDBC"/>
    <path d="M52.6 62.3c.6.3.7.8.3 1.3l-2 .4-.3-.3c-.3-.4 0-.5.3-.7.5-.3 1-.3 1.6-.7" fill="#68704B"/>
    <path d="M29 36.8v5.5c0 .2 0 .3-.3.3-.3-2-.4-3.8 0-5.8h.3" fill="#CBD8BB"/>
    <path d="M43.2 17.7c.7 0 .7.4.7 1h-.3c0 .2-.3.2-.4.2-.8-.2-1.5-.5-2-1 0-.3.4-.3.6-.3H43" fill="#B4B792"/>
    <path d="M52 52.7c0-.5.3-.8.6-1h.3c-.2.5.3 1.3-.7 1.3l-.2-.3" fill="#5C6645"/>
    <path d="M51.3 47.2c-.4-.2-.3-.6-.3-1l.6-.3c.3.3.3.7 0 1.2h-.3" fill="#797E5E"/>
    <path d="M52 48.8h-.6c-.4-.4-.3-1 0-1.3 0 0 0-.2.3-.3.5.4.2 1 .3 1.6" fill="#666D4B"/>
    <path d="M52.3 51.4c-1 0-.4-.6-.3-1 .2-.2.4-.2.6 0v.7c0 .2-.2.3-.3.4" fill="#6B7453"/>
    <path d="M51.7 50c0-.4 0-.8.3-1.2l.4.6v.7c-.3.3-.5.3-.7 0" fill="#5E6745"/>
    <path d="M53 64h.6c0 .4-.2.7-.4 1h-.6c-1.2-.7 0-.7.3-1" fill="#5C6842"/>
    <path d="M50 51.7c1 0 1.2 0 .7 1.3l.3.3c.6 1.5-.7 1.2-1.3 1.5-.2 0-.4 0-.5.2-1 0-2.2.6-3.3.2-.4-.2-.5-.3-.6-.6 0-.4.2-.7.5-.8.8-.3 1.8 0 3-.2-1.8 0-3.3.2-4.8 0-.2 0-.4-.3-.3-.6.5 0 .6-.4.5-1 .5 0 .8.4 1.3.3 1.3-.2 2.7 0 4-.6h.2" fill="#7D7E63"/>
    <path d="M45.8 54l-.3.6c-1 1-1.8-.3-2.6 0-.5 0-.8-.3-1.2-.4.4-.5 1.4.2 1.4-.8.4-.3.7.2 1 0 .7 0 1.2 0 1.6.6" fill="#686F4A"/>
    <path d="M45 56c-.5-.2-1.2.2-1.8-.4l.4-.7c.6-.4 1.3 0 2 0l.3.4c0 .6-.3.8-1 .5" fill="#686F4A"/>
    <path d="M45.5 55.3c-.7 0-1.3-.5-2-.4 0-.2-.2-.2-.3-.3H43c0-.5.5-.4.8-.3.5.3 1 .2 1.7.2l.3.3s-.2 0-.3.3" fill="#A7A987"/>
    <path d="M44.2 53.6l-1-.2-1.3-.6c.7-.3 1.3.4 2 .2 0 0 0 .2.2.3v.2" fill="#A1A57F"/>
    <path d="M45.2 50.7c1.6.5 3 .7 4.6 0 .3-.3.6-.6.8-.3.2.3 0 .6-.2.8-.2.2-.4.3-.4.5-1.2.5-2.5 1-3.8.3-.7-.7-1.7 0-2.3-.6.3-.2.2-.6 0-1 .6-.3 1 0 1.2.3" fill="#7C7C60"/>
    <path d="M45.2 50.7l-1-.2c-1.4-.5-2.8-.8-4-1.7 0-.3 0-.4.5-.4h.2c1.3.2 2.3 1 3.6 1.4.3 0 .5.3.6.7v.2" fill="#959E72"/>
    <path d="M46.2 52c1.3 0 2.6 0 3.8-.3-1.2 1-2.7 1-4.2.6 0-.2.2-.2.4-.3" fill="#D1D0C2"/>
    <path d="M45 56c.5 0 .8-.2.8-.7 1.2-.4 2.4-.3 3.6-.7.8-.3 1.4 0 2 .5v1.2c-.2.4-.5.5-.7.7-1.2 0-2.3.7-3.5.6h-.4v-1c.6-.4 1.4-.4 2-.6h-.2c-1 .2-2 .7-3 .3-.2 0-.3-.3-.5-.4" fill="#818168"/>
    <path d="M49 56c-.6.6-1.4.5-2.2.6h-1.3v-.3c1.2 0 2.3-.5 3.6-.4z" fill="#D3D2C4"/>
    <path d="M25.4 22.6V23.2l-.3.3c-1.4 1-2.7 2.2-3.8 3.6l-.6.5c-.2 0-.3-.2-.3-.4l.3-.4c0-.2 0-.3.3-.5v.2c0-.2 0-.3.2-.4 1.2-1.3 3-2 4.2-3.2" fill="#A9B791"/>
    <path d="M20.3 27c0 .2.2.3.3.5-1 1-1.4 2-2.3 2.8 0-1.4 1-2.2 2-3.2" fill="#CDD5B9"/>
    <path d="M15.3 31.6c.2-.7.4-1.3 1.2-1.6 0 .8-.6 1.3-1 1.7h-.2" fill="#C5D1B2"/>
    <path d="M21.6 27.8l1.2-.7c.2 0 .3 0 .4.3 0 .7-.7 1-1 1.5l-.5.2h-.2c-1 1-1.4 2-2.2 3v-.5l1.2-2.2v-.6c.2 0 .3-.2.4-.3 0 0 0-.2.2-.3 0 0 .2 0 .3-.2z" fill="#B8C5A2"/>
    <path d="M21.8 28.7c.3-.6.8-1 1.3-1.3 3-3 6-5.8 10-7.4 1-.4 2-.7 3.3-.4h2.5c1-.4 2-.5 3 .3 0 .3 0 .7-.5 1-2 .3-3.8 0-5.7 0-1 0-2 .2-2.6 1-2.6 1.4-5 3-7 5.3-1 1-1.6 2.2-2.3 3.4-.3.5-.6 1-1.2 1.3l-.3.3-.3.4c-.2-.4 0-.8-.4-1 0-1 1-1.7 1.3-2.6l-.4.4c0 .2-.2.4-.3.5 0 0-.2.3-.5.3-.5-.3-.2-.8-.3-1.2l.3-.3" fill="#3C532C"/>
    <path d="M23 28.7c0 1.2-1 2-1.4 3h-.4c0-.6.5-1 .6-1.4 0-.2.2-.4.4-.6l.3-.3c.2-.2.2-.6.6-.7z" fill="#B1BE9E"/>
    <path d="M20.2 33c-.3 1-.7 1.7-1.6 2.2.3-1 .7-1.8 1.6-2.3M21.2 31.6c0 .7-.4 1-1 1.3 0-.7.4-1 1-1.4" fill="#C6D0B5"/>
    <path d="M27 30.7h.5c0 .2 0 .4-.2.6 0 .2 0 .5-.3.7-.6.7-.8 1.7-1 2.7-.5 1.5-.8 3-1.6 4.4-.3.6-.3 1.2-.6 1.7-.6-.2-.3 1-1 .6 0-.7-.3-1.5 0-2.2.6-.7 1-1.5 1-2.4v-.3l.4-.7-.5.5v.2h-.3c0-.7.5-1.3.4-2 0 0 0-.3.3-.3.5-.4.7-.8.8-1.2.4-1 1-1.7 2-2" fill="#394C2B"/>
    <path d="M23.7 36c.2-.5.4-1 1-1.5-.2 1-.4 1.5-1 2v-.4" fill="#A7B298"/>
    <path d="M29 36.8h-.3c-.2-1.5.6-2.8 1-4.2.5-1 1-2 1.6-2.8h.3c-.8 2.4-2.2 4.5-2.6 7" fill="#B2C496"/>
    <path d="M29.3 30.3h.5c-.3 1-1 1.7-1 2.6-.6.8-1 1.7-1.2 2.8 0 .7-.3 1.5-1.2 2 1-2.6 1.4-5.2 3-7.5" fill="#A9B994"/>
    <path d="M26.5 48.2c0-1.8-.5-3.5.2-5.2 0-.2.2-.2.3 0 .2.7-.3 1.4-.3 2 0 1.5.2 2.8.4 4-.8.2-.3-.6-.5-.8" fill="#9AA78C"/>
    <path d="M24.4 39c.4-1.5 1-3 1.6-4.5h.3c-.5 1.6-.6 3.3-2 4.6" fill="#9FAC8C"/>
    <path d="M26.5 48.2c.3.2 0 .8.6 1 .5.3.3.8.4 1.2-.4-.2-.6-.8-1.2-.6h-.4c.2-.6.7-1 .7-1.6" fill="#8CA164"/>
    <path d="M26.3 34.5H26c-.2-1 .2-2 1-2.6l-.7 2.5" fill="#ACB99A"/>
    <path d="M28.3 29.4c.3 0 .5 0 .6.2-.8.4-1 1.4-1.7 1.7 0-.2 0-.4.2-.7l.8-1.2" fill="#B4C4A0"/>
    <path d="M23.8 40.7c-.2-.7.3-1 .6-1.6 0 .7 0 1.3-.6 1.7" fill="#9FAC8C"/>
    <path d="M41 47.2c-1-.5-1.4-1.2-2-2V45c.5-.2 1.2 0 1.7-.5 1.4.4 2.2 1.8 3.5 2.3l.7.4.4.4.3.3c.2.2.4.5 0 1h-.6-.5c-1.2-.4-2.3-1-3.2-1.8H41" fill="#525E3B"/>
    <path d="M33.5 32.4c-.3-.2-.2-.4 0-.7l1.4-3c0-.5.4-.7.8-.2-1.2 2.4-.8 5-1 7.7h-.5c-.6-.7-.3-1.5-.2-2.3 0-.7.7-1.5-.5-1.6" fill="#96A783"/>
    <path d="M44.5 50c-1.3-.2-2.5-.6-3.6-1.5 0-.4.3-.6.7-.7 1.2 0 2 1 3.2 1.3 0 .5 0 1-.5 1" fill="#5C6640"/>
    <path d="M44.8 49.2c-1.2-.2-2-1-3-1.4-.3-.2-.4-.4-.5-.6 1.2.2 2.2 1.2 3.5 1.3l.4.2h.5c.5-.4 1-.3 1.6 0 .5.5 0 .7-.5 1-.7 0-1.4 0-2-.5" fill="#9FA47D"/>
    <path d="M37.4 43.3c-1.3-.8-1.8-2.2-2.3-3.6 0 0 .2 0 .2-.2l.4-.2c1 1 1.6 2.4 2 3.8 0 .2-.2.2-.2.3" fill="#758760"/>
    <path d="M34 34c.3.6-.2 1.5.5 2.2.5.6.5 1.5.8 2.2v1.4H35c-.7-2-1.6-3.8-1-6" fill="#758760"/>
    <path d="M40.7 48.4l-.4.4c-1-.8-2-1.8-2.7-3l3 2.6" fill="#6B7B54"/>
    <path d="M32.8 38.7h-.3c0-1.7-.2-3.4 0-5.3.6.4.3.8.4 1.2v3.8c0 .2 0 .3-.2.3" fill="#C4D0B7"/>
    <path d="M39 45v.3c-.6-.6-1.5-1-1.6-2 1 0 1.6.6 1.6 1.6" fill="#657652"/>
    <path d="M36 44h.4c0 .3.5.5.2.7-.3 0-.4-.2-.5-.4V44z" fill="#667752"/>
    <path d="M35.8 43.6h-.3c-.2-.3-.5-.5-.2-.7.2-.3.4 0 .4.3v.3z" fill="#667A53"/>
    <path d="M31 39c-.3.3-.4 0-.4 0v-3c0-1.5.3-3.2 1.6-4.4v.5c-1.3 2.2-1.4 4.6-1.3 7" fill="#B7C9A1"/>
    <path d="M33 29c.2 0 .3-.4.5 0-.5 1-.6 2-1.3 2.6 0-1 .5-1.7.8-2.5" fill="#AABB98"/>
    <path d="M50.3 18c.5.5.5 1 0 1.3l-.4.2c-1.5-.6-3-.5-4.2-1.8V17c1.6 0 3 1 4.5 1" fill="#84846B"/>
    <path d="M46 19.3v-1c1.5 0 2.7.8 4 1.2.3 1 0 1.6-1 1.4-1-.2-2-.7-2.7-1.2-.2 0-.2-.3-.2-.5" fill="#888670"/>
    <path d="M49.7 19.6L46 18.4l-1.6-.6h1.4c1.4.6 3 .6 4.2 1.5 0 .2 0 .2-.3.3" fill="#D1D1B4"/>
    <path d="M44 18.7c.6 0 1.2.2 1.8.6 0 .3-.2.4-.4.5-.5 0-1-.2-1.3-.4 0 0 0-.2-.2-.3v-.3z" fill="#AFB18E"/>
    <path d="M36.3 19.6c-3 0-5.6 1.6-8 3.4-1.2 1-2.7 2-3.7 3.5-.4.4-1 .8-1.5 1 0-.2 0-.3-.2-.4 2.3-2 4.6-4 7.2-6 2.2-1.4 4.8-2 7.5-2-.3.5-1 .2-1.2.6" fill="#A3B38A"/>
    <path d="M41.6 20c-1-.3-2-.5-2.8-.4 0-.3 0-.5.4-.5h1.4c1 .2 1.8-.3 2.6.3.7.4 1.7.2 2 1.2 0 .3-.2.5-.4.6-1.2 0-2.3-.3-3.2-1" fill="#A7AD85"/>
    <path d="M43.2 19.6c-.8-.3-1.8 0-2.6-.6.7 0 .7-.5.7-1 .8 0 1.5.6 2.2.7.2 0 .3.2.4.3 0 .7 0 1-.8.6" fill="#535F3B"/>
    <path d="M49.8 38.8c0 .4-.2 1 .5 1v2c0 .3 0 .4-.2.6v.3c-.5.4-1 .7-1.6.8-.6-.2-1-.2-1.6 0H46V43c0-.6 0-1 .3-1.6l.4-.2h2-2.3c-.6-.2-1-.5-1.2-1 0-.6.2-1 .5-1.5 1.5.2 2.6-1 4-1.2v.3c.2.3.2.6 0 1" fill="#85836D"/>
    <path d="M50.6 46.2h-.3c-.8 0-1-.4-.5-1 0-.2 0-.2.3-.2-.2-.2-.2.2-.3.2-1.6 1-2.6-.4-4-.8v-.6c0-.2 0-.3.3-.3 1.4 0 3 .5 4-1.2.2-.2.2-.5.4-.6.8.7.6 1.7 1 2.6-.4.4 0 1-.4 1.4l-.4.5" fill="#7F8065"/>
    <path d="M46.8 49.4c1.2.3 2.2-.2 3.2-.7.8.3 1 .7.2 1.2-.7.4-1.5.4-2.3.4H45l-.7-.3c0-.2.4-.5.3-.8.7 0 1.4 0 2 .2" fill="#7C7C60"/>
    <path d="M44.2 53.6v-.3h5.4c-1.2 1-2.6.6-3.8.7-.5 0-1-.2-1.6-.4" fill="#C8C8B5"/>
    <path d="M49.4 54.6c-1 .8-2.4.7-3.6.7h-.3c0-.2.2-.3.3-.4 1.2 0 2.4-.6 3.6-.4" fill="#C7C6B7"/>
    <path d="M32.5 21.8c.6-.8 1.5-1.2 2.6-1.2h6.3v.3l-1 .8H40c-2-.2-3.8-.2-5.6.3H33c-.2 0-.4 0-.5-.2" fill="#75875B"/>
    <path d="M32.5 21.8h.7c0 1-.6 1-1 1.4-2 1-3.7 2.4-5.3 4-.4.3-.7.7-1.3.7v-1c2-2.2 4.2-3.8 6.8-5.2" fill="#A2B587"/>
    <path d="M41.3 21v-.4c.3 0 .3-.3.3-.6 1.2 0 2.2.7 3.3 1 0-.2 0-.2.3 0h.3v.5c.2.3 0 .6 0 .8-.3.2-.5.2-.8 0h-.6c-1-.5-2.2-.4-3-1.4" fill="#606943"/>
    <path d="M25.7 28c2-2.7 5-4.2 7.5-6 0-.2.2-.2.4 0 .2 0 .4.2.4.6 0 .5-.5.7-1 .7 0 0-.3-.3-.3 0-.2.4-.5.6-.8.6-1.5.3-2.5 1.3-3.4 2.4 0 .2 0 .3-.3.4-1.3.7-2.3 1.8-3.5 2.7l1-1.6" fill="#3D5A2E"/>
    <path d="M27 30.7l-2.2 2c.2-1 1-1.8 2-2" fill="#ABB798"/>
    <path d="M34.3 24.5h.6c2-1.4 4.5-1.5 7-1.2l.2.2c.3.5 0 .7-.2 1-1.7.4-3.5-.2-5.2.5l-1.7.7h-.3-.2l-2.3.8c-.5-.6.4-.6.4-1l1.7-1" fill="#37482A"/>
    <path d="M31 25.8c-.5.8-1.2 1-2 1.3 0 0-.2 0 0 0v-.2c.6-.4 1-1 2-1z" fill="#426132"/>
    <path d="M35.8 28.4c.5 0 1 0 1.3.3.3.3 0 .6 0 1 0 0 0 .2-.2.3-.7 1-.6 2.4-.6 3.6.4 3.3 1 6.7 3.2 9.4l.3.3.2.3c0 .2.2.3.3.4l.3.4v.2c-.3 1-1 1-1.6.3-.4-.7-1-1.3-1.6-1.7l-2-4c-.2 0 0-.4-.3-.6 0-.8-.5-1.6-.3-2.5-.3-2.7-.8-5.4 1-7.8" fill="#314327"/>
    <path d="M44.2 46.8v.4c-1.5-.5-2.3-1.8-3.6-2.6l-.3-.3c0-.2-.2-.3-.3-.4 0-.2-.2-.3-.3-.4 0-.3 0-.4.4-.5 1.6 1.2 3.2 2 4.2 3.8" fill="#9EA57C"/>
    <path d="M45.5 47.8c1 0 2 .4 3.3.6-.5.6-1 .4-1.3.4h-1.8c0-.4 0-.7-.2-1" fill="#8B8C70"/>
    <path d="M34.7 36.2c.2.8.6 1.7.4 2.6-.4-.8-.6-1.7-.5-2.6h.2" fill="#98A884"/>
    <path d="M37.8 28.7c.5.2 1.2 0 1.2 1 0 .7-.8 1.2-1 2-.4 2 .8 4 1.5 6l.7 1 .3.6c.2.2.4.5.4.8 0 .5-.3.7-.6.8H40c-.2 0-.4-.3-.5-.4 0 .2.3.3.4.4 0 0 0 .2.2.3v.3c.7.7 1 1.4-.2 1.8-.8 0-1-.5-1.3-1 0-.3-.3-.5-.4-.7-.8-1.2-1.2-2.7-1.5-4 0-.4 0-.7-.2-1-.2-.7 0-1.3-.5-2-.2-1.6 0-3 .8-4.6.2-.4.5-.8 1-1" fill="#2F3D25"/>
    <path d="M39.3 25.8c-1.4-.2-2.7.6-4.2.3.4-1 1.4-1 2.2-1.3 1.3-.4 2.7-.5 4-.2.2 0 .4 0 .6.2.4.6.4 1-.3 1.4-.7.3-1.5.4-2.2-.2" fill="#3B492C"/>
    <path d="M43 28.3c-1-.4-2-.8-3-1-.2-.3-.6-.2-1-.2-.3 0-.3-.3 0-.6 1.7-.7 3.2-.2 4.7.6 0 0 .2 0 .2.2.4.4 1.2 1 .7 1.5-.5.6-1.3.2-1.8-.4" fill="#54603D"/>
    <path d="M43.6 27.4c-1.5-.7-3-1-4.6-1l.3-.6h2.3c1 0 1.8.2 2.3 1 0 .4-.2.5-.4.6" fill="#969F74"/>
    <path d="M37.7 31.3c.2-.7.7-1.2 1.3-1.6h.6c-.7 1.2-1 2.5-1.8 3.6-.5-.6-.3-1.3 0-2" fill="#99A48B"/>
    <path d="M37 24.8c-.5.5-1.4.6-2 1.3l-.2.2c0-.2-.2-.3-.3-.4l.3-.3c.5-.2 1-.6 1.6-.7.2-.2.5-.2.7 0" fill="#9AA88B"/>
    <path d="M37.8 28.7c-.3.4-.6 1-1 1-.2-.4.3-.6.3-1h.8" fill="#9CA791"/>
    <path d="M46 19.6c0 .3.3.3.4.4.3.3.4.6 0 1-.5.4-.8 0-1.2-.4-.5-.7-1.4-.4-2-1 .5 0 .7-.2.7-.6.5 0 1 .5 1.5.6h.6" fill="#727753"/>
    <path d="M45.2 20.6c.4 0 .8.3 1.3.4.6 0 1.2.2 1.3 1 0 0-.2.3-.4.3-.8 0-1.4-.5-2-1 0 0 0-.2-.3-.3 0-.2 0-.3.2-.4" fill="#D2D1BC"/>
    <path d="M46.5 30.8c.7-.7 1.3-.6 1.7.3.2.7.5 1.3.6 2-.2 1 .2 2-.2 3 0 0-.2.2.2.2.6 0 .6.2.5 1-.2.5-.7 1-1.2 1.2l-1.3.2c-.3 0-.4-.3-.5-.5v-.8c.7-.3 0-.5 0-.8 0-.2 0-.4.2-.6 1.2-1.2 1.3-2 .3-4-.2-.3-.4-.6-.2-1" fill="#888571"/>
    <path d="M48.4 22.2c0-.2-.4-.3-.6-.3-.3-.6-1-.5-1.3-1v-1l2.2 1.2c.2.2.7 0 .6.6 0 .4-.5.5-1 .4" fill="#898771"/>
    <path d="M48 38c.7 0 .8-.6 1.3-1l.4.5c-.3 0-.5.2-.6.4-.8 1-2 1.4-3.2.8h-.2l-.2-.4v-.2c.2-.2.3-.3.6-.3.2 0 .4 0 .4.2s.3.2.4.2c.4-.3 1 0 1.3-.3" fill="#D1D1B4"/>
    <path d="M45.8 38.8l-.3 1.3c0 .2-.3.2-.4.2l-.5-.3-1-1.3c0-.2-.2-.2-.3-.2 0 0 .2 0 .2.2.5 1 1.6 1.2 2 2.2l-.8 1.3-.4.2-.6-.3c-.8-.6-2-1-2.2-2v-1c-1-.7-.5-1.3.2-2 0-.4-.5-.8-.4-1.3.2-.5.6-.6 1-.7h.5l.6.4c.7 1 1.7 1.6 2.2 2.7 0 .2.2.3.3.4z" fill="#616A44"/>
    <path d="M44.2 42.2h.3c.6 0 1.2.3 1.6.8v.3c0 .2 0 .2-.2.3-.8.3-1.4-.2-2-.6-1.4-.7-2.5-1.6-3-3l-.6-.6V39h.5c.4.2.8.5 1 1 .4 1 1.3 1.4 2.2 2 0 0 0 .2.2.2" fill="#ABAF89"/>
    <path d="M46 43c-.5 0-1-.2-1.5-.7 0-.6 0-1 .7-1.3.6-.3 1 0 1.3.4 0 .6 0 1-.4 1.6" fill="#737655"/>
    <path d="M45.8 43.6c0-.2.2-.3.3-.3h.8c.5-.2 1-.2 1.6 0 .7 0 1-.7 1.6-1-.5 1.2-1.5 1.8-2.8 1.6-.5 0-1-.3-1.4-.4" fill="#DFDFD3"/>
    <path d="M46.5 41.4c-.5 0-1-.2-1.3-.4-.5-1-1.7-1.4-2-2.6.6.5 1 1 1.7 1.3 0 0 0 .2.2.3h.3c0 .6.7.6 1 1v.4z" fill="#B8BA9A"/>
    <path d="M46.5 41.3V41h2.3c-.7.7-1.5.3-2.3.3" fill="#E6E5DD"/>
    <path d="M43.8 42.7l2 1v.6c0 .3 0 .5-.3.7-1 .4-2 0-2.4-1 0-.7.3-1 .8-1.3" fill="#6C724D"/>
    <path d="M43.8 42.7c-.2.4-.2.8-.6 1 0 1 1.3 1.2 2 2 0 .7 0 1.3-1 1L40 43.4V43c1.2-.6.2-1 0-1.6 0-.3 0-.5.3-.7.3 0 .3-.4.4-.7 1 1 2 2 3 2.7" fill="#55603D"/>
    <path d="M45 45.6c-1.2 0-1.7-1.3-2.5-2-.2 0 0-.3 0-.2.3 0 .5.2.7.3.6.7 1.3 1.2 2.3 1.3 0 .2-.2.4-.4.6" fill="#B4B692"/>
    <path d="M40.6 22.5c-2.2 0-4 .8-6.4 1.5.7-1 1.7-1 2.5-1.7-1-.3-2 .2-2.8.3-.3-.2-.4-.4-.5-.6 0-.2 0-.2.3 0 2-.8 4.3-1 6.5-.4.3.3.5.5.3 1" fill="#334427"/>
    <path d="M40.6 22.5l-.3-1h.4c.6-.5 1.2 0 1.8 0l.6.4c.3 0 .5 0 .7.3 0 .3 0 .6-.2 1-1-.5-2-.2-3-.8" fill="#4E5A37"/>
    <path d="M43.5 22.3H43l-.4-.3c-.7-.2-1.3-.5-2-.5-.4-1 .5-.4.7-.6l3.2 1v.3c0 .2 0 .3-.3.4-.3 0-.5-.3-.7-.4" fill="#A4AA81"/>
    <path d="M46.8 23h-.6c-.3-.3-.8-.2-.7-.7v-1c.8 0 1.3.7 2 1h.2c.3.4 1 .6.7 1-.4.6-1 0-1.3 0 0-.2 0-.3-.2-.3" fill="#828267"/>
    <path d="M45.5 22.3l.7.6h-.4c-.7.5-1.2 0-1.6-.5l.3-.3h.9" fill="#CACAB0"/>
    <path d="M47 25.5c.5.5.3 1-.2 1.3-1.5 0-2.5-1.3-4-1.6l-.2-.2c-.3 0-.6-.2-.7-.4-.2-.2-.2-.3 0-.4.2 0 .2-.4.2-.7h1.6c.5 0 1 .5 1.6.7 0 0 .2 0 .3.2.4.3 1 .5 1.3 1" fill="#6D724F"/>
    <path d="M44.2 22.5l1.6.6c0 .2.2.2.3.2.2 0 .3.2.5.3.2 0 .5.3.8.5 1 .6.8.6-.2 1.5-.4-.4-1-.6-1.5-1-.6-.5-1.3-.7-2-1v-.3-1l.7.3" fill="#727655"/>
    <path d="M34.3 24.5c-.5.6-1 1-1.8 1 .4-.8 1-1 1.8-1" fill="#A0B676"/>
    <path d="M42 24.2v.3c-.2.3-.5 0-.7.3-1.4-.5-2.8 0-4.2 0h-.6c1.8-1 3.6-.6 5.5-.6" fill="#84916C"/>
    <path d="M40 43v.3l-.3.3c-1.6-1.2-2.4-3-3-4.6-.4-1.8-1-3.6-1-5.5 1 0 .3 1 .8 1 .5.5.2 1.2.5 1.7-.2.3-.2.7 0 1 .6 1.3 1 2.8 1.7 4 0 .3.2.4.3.5 0 .6.5 1 1 1.3" fill="#6E7F59"/>
    <path d="M36.5 34.6c-.6-.2-.3-.8-.7-1-.2-1.5-.3-3 1-4-.5 1.7-.8 3.3-.3 5" fill="#A4B196"/>
    <path d="M40.6 39h-.3c0 .2-.2.2-.3 0-1.3-1.6-1.8-3.7-2.5-5.7-.2-.6-.3-1.4.2-2 0 .6-.2 1.4.3 2 .2 0 .4 0 .4.2.7 2 1.8 3.6 2.2 5.6" fill="#7C8B67"/>
    <path d="M40.3 40.7c0 .3 0 .6-.3.7 0-.2-.2-.3-.3-.4-.3-.5-.8-.8-.8-1.6l1.3 1.3" fill="#798861"/>
    <path d="M40.6 39c-1.3-1.7-1.7-3.8-2.6-5.8-.2-1.5.4-2.6 1.7-3.4 1-.3 1.3.2 1.3 1 0 1.2 0 2.3 1 3l.5.6c0 .2.2.3.3.5 0 0 0 .3-.2.5l-1.3.3c-1.2-1-1.2-2.3-1.5-3.5 0 2 1 3.4 2 5 .3.3.6.6.4 1-.4.4-.7-.4-1-.3-.2.5.2.7.5 1 .2.4.4.8 0 1-.5-.2-1-.5-1-1" fill="#3F4D2F"/>
    <path d="M41.6 30.4l1 .2c1-.2 1.4.6 2 1 .3 0 .4.2.5.3.4.2.7.5.5 1-.2.4-.5.5-1 .5-.6 0-.8-.6-1-1-.2 0-.2-.2-.2-.3v.2c0 .2.3.4.4.6 0 0 0 .2.2.3 0 .2.2.3.3.4l.4.4v.2c.2 0 .2.3.3.4v1.2c0 .4-.2.6-.5.8H44s0-.2-.2-.3c0 0 0-.2-.2-.3 0-.2-.2-.3-.3-.5l-.3-.7s0-.2-.2-.3l-.3-.4-.2-.2v-.5c-.2 0-.2-.2 0-.3-.4-.5-.2-1-.7-1.4-.2-.4-.3-.8 0-1.2" fill="#5F6843"/>
    <path d="M42.2 33v.3c.2 0 .2.2.3.3v.3c.2 0 .3 0 .4.2 0 0 0 .3.2.4l.5 1s0 .2.2.2v.4s0 .2.2.3c.7.4 1.4.7 1.7 1.6l-.5.4c-1-.6-1.7-1.7-2.5-2.6-.2 0-.3-.2-.4-.3V35c0-.2-.2-.3-.3-.5 0-.2-.3-.4-.4-.6 0-.4-.2-.8.2-1" fill="#BEC09E"/>
    <path d="M45.5 28.4c-.4-.7-1-1-1.6-1.3-.7-.6-1.7-.6-2.4-1.2.6-.3 0-.6 0-1 .3-.2.6-.2 1 0 1.3.8 3 1 3.8 2.6.2.4 0 .8 0 1.2-.4.4-.8.5-1-.2" fill="#696F4A"/>
    <path d="M46.4 27.4c-1-1.2-2.6-1.7-3.8-2.6 1.6.2 2.8 1.3 4.2 2 0 .2-.2.4-.4.6" fill="#B1B492"/>
    <path d="M46 38c-.7-.4-1.5-.7-1.8-1.5.3 0 .5-.3.6-.6 0-.2 0-.2.2-.3h.2s0 .2.2.2c.3.3 1 .6 1 1.2v1H46" fill="#707552"/>
    <path d="M46.8 31.6c1 1 1.3 2.6.7 3.8-.2.5-.6.5-1 .4-.4 0-.5-.4-.3-.7.8-.5 1-1.3.6-2.2-.2-.4-.4-.8 0-1.2z" fill="#CDCCC0"/>
    <path d="M46 35.2l.5.6v.7c-.8.4-1-.3-1.3-.7h-.5c-.6-.4 0-.8 0-1.2.6-.3 1 0 1.2.4v.2" fill="#707552"/>
    <path d="M45.2 35.8c.4.2.7.7 1.3.7l.2.2c.3.2 1 0 1 .5-.3.6-1 0-1.3 0-.5-.4-1.2-.5-1.2-1.4" fill="#C6C5B0"/>
    <path d="M42 37.3c-1.6-1.5-2.3-3.3-2.3-5.4.4 1.2.8 2.6 1.6 3.8 0 .5.8 1 .6 1.5" fill="#9FA985"/>
    <path d="M43.5 23.5c1 0 1.6.3 2 1-.8 0-1.4-.5-2-1" fill="#AAAD89"/>
    <path d="M45.5 24.5c.6 0 1.3.2 1.6 1-.6 0-1.2-.4-1.5-1" fill="#A5A48B"/>
    <path d="M46.8 31.6c0 .8.7 1.4.7 2.3 0 1-.4 1.4-1.4 1.2-.4-.6-1.5-.8-1.5-2 .4 0 .7-.2 1-.3.6-.7-.4-1-.3-1.4.6-1 1-.3 1.6 0" fill="#7C7C60"/>
    <path d="M44.5 33.3c.4.8 1.4 1 1.6 2-.5 0-.7-.6-1.2-.7 0-.2-.2-.3-.3-.3 0-.2-.2-.3-.3-.3 0-.2-.2-.3-.3-.4h-.2s0-.2-.3-.3c0-.4-.4-.6-.3-1 .6 0 .8.7 1.3 1" fill="#C3C4A3"/>
    <path d="M45.2 31.6l1 1c0 .2.5.5 0 .8l-.7-.5-.7-1 .4-.4" fill="#C2C3A1"/>
  </g>
</svg>
