<svg width="80" height="80" viewBox="0 0 80 80" xmlns="http://www.w3.org/2000/svg">
  <title>
    adst-adshares
  </title>
  <defs>
    <linearGradient x1="50%" y1="0%" x2="50%" y2="100%" id="a">
      <stop stop-color="#9AD8FD" offset="0%"/>
      <stop stop-color="#61B0FB" offset="100%"/>
    </linearGradient>
  </defs>
  <g fill="none" fill-rule="evenodd">
    <circle fill="#040833" cx="40" cy="40" r="40"/>
    <path d="M30.833855 47.476692c.350382 1.01.659924 2.05154 1.069847 3.051154.82481 2.011923 2.101527 3.721154 3.630153 5.246154.73435.733077.712214.848846-.212596 1.357692-5.01031 2.755-12.76222 2.316154-17.47672-2.324615-2.25306-2.218077-3.90802-4.721923-4.5126-7.838846-1.22252-6.30115.93931-12.15384 6.37099-15.79615 2.80419-1.88038 5.90076-2.68654 9.21526-2.55654 5.20534.20423 9.1958 2.65962 12.06679 6.98654 1.63588 2.46539 2.41565 5.21346 2.34885 8.17962-.05458 2.44423 2.19046 4.60116 4.52481 4.42923 2.07977-.15384 3.85992-1.85769 4.03244-4.04.02519-.31846.01679-.64038.01679-.96077.00038-7.43423-.00038-14.86807-.001147-22.30269 0-.1923-.006107-.385.0042-.57653.04122-.77808.1958-.93846.98893-.94231 1.780914-.00846 3.56145-.00154 5.342365-.00038 1.144652.00039 2.28931-.00346 3.43397.00385 1.04313.00654 1.12328.08346 1.12404 1.16808.003436 4.1977-.00229 8.39539-.00305 12.59346-.00038 3.36424.00916 6.72885.00191 10.09347-.01412 6.398077-2.94199 11.083077-8.41374 14.145-1.21832.68154-2.67901 1.07423-4.07252 1.258077-3.53168.466925-7.01412.181925-10.15153-1.72692-4.721756-2.873077-7.55496-6.96-7.674428-12.67577-.02214-1.05423-.21794-2.02923-.768704-2.93-.951146-1.556153-2.353818-2.20923-4.12252-2.013076-1.648855.18269-3.149237 1.563844-3.556488 3.217305-.77672 3.15269 1.59122 6.083075 4.729005 5.63346.7-.100385 1.36603-.441923 2.06565-.67846zm19.22729-7.489846c-1.835115-1.056923-3.519847-.853846-5.06794.121923-.774808-1.71308-1.36374-3.41462-2.27519-4.91693-.894656-1.47423-2.117175-2.74654-3.237404-4.16.91756-.77423 2.00497-1.215 3.10726-1.57923 1.97634-.6527 4.01565-.94231 6.10077-.84693.1584.00692.31794.01307.47519.03269.86603.10884.96222.21307.99657 1.0723.00764.19192.00535.38423.00535.57654-.00114 2.88192-.00038 5.76423-.00801 8.64654-.00076.30115-.053814.60269-.096562 1.05307z" fill="url(#a)"/>
  </g>
</svg>
