<svg width="80" height="80" viewBox="0 0 80 80" xmlns="http://www.w3.org/2000/svg">
  <title>
    adt-adtoken
  </title>
  <defs>
    <linearGradient x1=".171202%" y1="24.666734%" x2="99.828221%" y2="75.333774%" id="a">
      <stop stop-color="#0071BC" offset="0%"/>
      <stop stop-color="#662D91" offset="100%"/>
    </linearGradient>
  </defs>
  <g fill="none" fill-rule="evenodd">
    <circle fill="#F5F5F5" cx="40" cy="40" r="40"/>
    <path d="M58.138444 15.637585L31.856024.503015c-1.151187-.663065-2.569507-.663065-3.720693 0L1.8664 15.637585c-1.150845.66295-1.859892 1.887922-1.860173 3.2137V49.1256c.00028 1.325777.709328 2.55075 1.860173 3.2137l26.27585 15.13457c1.151186.663065 2.569506.663065 3.720692 0L58.13879 52.3393c1.150844-.66295 1.85989-1.887923 1.860172-3.2137V18.851285c-.000352-1.325847-.70954-2.550837-1.860518-3.2137z" stroke="url(#a)" stroke-width=".910893" transform="translate(10 6)"/>
    <path d="M55.408184 17.236327L31.840114 3.662892c-1.138238-.655607-2.540607-.655607-3.678846 0L4.594928 17.236327c-1.135833.65471-1.836283 1.863268-1.838386 3.171953v27.15515c.00013 1.310658.700843 2.521775 1.838386 3.177473l23.56807 13.573435c1.138238.655607 2.540607.655607 3.678846 0L55.41026 50.739523c1.137542-.655698 1.838256-1.866816 1.838386-3.177473V20.40828c-.002532-1.309112-.70383-2.517768-1.840462-3.171953z" fill="url(#a)" fill-rule="nonzero" transform="translate(10 6)"/>
    <path d="M22.992508 24.732258c.566686-.561665 1.131527-1.123904 1.694524-1.686718.566686.563504 1.132104 1.127584 1.696254 1.692238-.562997.563504-1.127262 1.126433-1.692796 1.688787-.566455-.563504-1.13245-1.128273-1.697982-1.694307m5.103632.00207c.562996-.563505 1.12726-1.126434 1.692794-1.688788.564842.561664 1.128415 1.123903 1.69072 1.686718-.562996.563504-1.127262 1.126433-1.692795 1.688787-.56462-.561664-1.12819-1.123903-1.69072-1.686717m20.43077-.00552c.56299-.563505 1.12657-1.125744 1.69072-1.686718.56668.563504 1.1321 1.127583 1.69625 1.692238-.563.563504-1.12657 1.126433-1.69072 1.688787-.56484-.565574-1.13026-1.130343-1.69626-1.694307m5.09256.010695c.56484-.565344 1.13152-1.13069 1.70005-1.696033.56484.561664 1.1291 1.124593 1.69279 1.688788l-1.70005 1.696032c-.56484-.562814-1.12911-1.125743-1.6928-1.688787m-28.0741 2.537837c.56484-.561663 1.1291-1.123902 1.69279-1.686716.56484.561664 1.12841 1.123903 1.69072 1.686717-.563.56351-1.12726 1.12644-1.6928 1.68879-.56484-.56189-1.12841-1.12482-1.69072-1.68879m5.11816.00345c.56116-.55798 1.11989-1.11757 1.6762-1.67878.55747.56167 1.1162 1.12149 1.6762 1.67947-.55931.55615-1.11804 1.11298-1.67619 1.67051-.55931-.5566-1.11804-1.11367-1.67619-1.67119m15.32888-.01104c.55954-.55994 1.12046-1.1178 1.67827-1.68154.55931.56121 1.11989 1.12241 1.68173 1.68361-.56184.55799-1.12242 1.11689-1.68173 1.67672-.55573-.5627-1.11873-1.11884-1.67827-1.67878m5.0853.0038c.56299-.5635 1.12657-1.12574 1.69072-1.68671.56484.56166 1.1291 1.12459 1.69279 1.68879-.56299.56351-1.12657 1.12644-1.69072 1.68879-.563-.5658-1.1298-1.12747-1.69279-1.69086m-28.08519 2.55026l1.69798-1.69396c.56484.56351 1.12841 1.12644 1.69072 1.68879-.56484.56535-1.13026 1.12942-1.69625 1.69224-.56461-.5619-1.12876-1.12425-1.69245-1.68706m5.1019-.00172c.56484-.56166 1.12969-1.1239 1.69453-1.68671.56484.56167 1.12842 1.12391 1.69072 1.68672-.56299.56351-1.12726 1.12644-1.69279 1.68879-.56461-.5619-1.12876-1.12482-1.69245-1.68879m5.10916-.00931c.55746-.55798 1.11562-1.11539 1.67447-1.67222.563.56166 1.1253 1.12332 1.68691 1.68499-.55747.55614-1.11562 1.1124-1.67447 1.66877-.563-.55983-1.1253-1.12034-1.68691-1.68154m10.24357 0c.55746-.55798 1.11504-1.11539 1.67274-1.672224.56115.557986 1.12115 1.11666 1.68 1.67602-.56127.55442-1.11701 1.11436-1.67827 1.66878-.55436-.55994-1.11701-1.11436-1.67447-1.67257m5.07977.00552c.56484-.565346 1.13026-1.129425 1.69625-1.69224.56484.561666 1.12911 1.124595 1.6928 1.68879-.56484.56534-1.13026 1.12999-1.69625 1.69396-.563-.56512-1.1298-1.12678-1.6928-1.69052m5.10086 0c.563-.563504 1.12657-1.125743 1.69072-1.68672.56484.56166 1.12911 1.12459 1.6928 1.68878-.563.56351-1.12657 1.12644-1.69072 1.68879-.56231-.56546-1.12876-1.12712-1.6928-1.69086m-15.326107.17285l1.672735-1.668772c.587894.54338 1.16438 1.0978 1.72565 1.66878-.563.56903-1.138218 1.1246-1.72565 1.66671-.5577-.556143-1.115278-1.11171-1.67274-1.66671M25.5509 32.36855c.562995-.557986 1.12657-1.11666 1.69072-1.676025.557462.559827 1.11562 1.117926 1.674465 1.6743-.559306.559824-1.11873 1.119073-1.67827 1.677747-.562765-.557982-1.12507-1.116656-1.686915-1.67602m10.205187-.010695c.557465-.558215 1.11493-1.11229 1.67274-1.670504.557463.556146 1.11435 1.112405 1.670662 1.66878-.55574.556143-1.11493 1.112287-1.67067 1.668776-.55747-.55523-1.11505-1.11091-1.67274-1.66705m5.14202 0c.55331-.55994 1.11493-1.11057 1.66893-1.67051.57199.54717 1.11873 1.11608 1.68346 1.6705-.56127.55441-1.11873 1.11608-1.68 1.67222-.55574-.55994-1.11562-1.11402-1.67239-1.67223m10.20518.00172c.55573-.55994 1.1132-1.11609 1.66893-1.67603.56484.55798 1.12783 1.11666 1.68899 1.67602-.56484.55799-1.12842 1.11666-1.69072 1.67602-.55401-.56167-1.11389-1.11609-1.66721-1.67603m-23.00161 2.54302c.55746-.55799 1.11689-1.1154 1.67827-1.67223.55931.56167 1.12046 1.12276 1.68346 1.68327-.55747.55798-1.11562 1.11482-1.67447 1.6705-.563-.55936-1.12542-1.11988-1.68727-1.68154m10.20346-.00379c.55562-.55615 1.11193-1.11114 1.66893-1.66498.58674.54165 1.16196 1.09722 1.72565 1.6667-.56115.57086-1.13568 1.12586-1.72358 1.66498-.5577-.55591-1.1147-1.11148-1.67101-1.66671m10.24738.00379c.55562-.55615 1.11193-1.11057 1.66893-1.66326.55746.55614 1.11562 1.11056 1.67447 1.66326-.55954.552-1.11701 1.10884-1.67447 1.66153-.554-.55649-1.1132-1.10711-1.66893-1.66153M30.65451 37.4473c.55746-.557984 1.11562-1.114243 1.67446-1.668777.55562.5543 1.11135 1.109293 1.6672 1.66498-.55562.55614-1.11251 1.11298-1.67066 1.6705-.55585-.556146-1.11286-1.111715-1.67101-1.66671m15.34167 0c.55746-.556146 1.11562-1.112405 1.67447-1.66878.55746.5543 1.11377 1.11056 1.66893 1.668775-.55562.556144-1.11193 1.1124-1.66894 1.66878-.55574-.55822-1.11701-1.11229-1.67447-1.66878m-17.89002 2.5413c.55746-.557986 1.11562-1.114245 1.67446-1.66878.55562.556145 1.11193 1.112404 1.66893 1.66878-.55562.55615-1.11193 1.11241-1.66894 1.66878-.56-.55637-1.118158-1.11263-1.67447-1.66877m5.09741 0c.55746-.55614 1.11504-1.11171 1.672737-1.6667.55562.55615 1.11159 1.11172 1.6679 1.66671-.55331.55615-1.10905 1.11172-1.6672 1.66671-.55815-.55614-1.11596-1.11171-1.67343-1.66671m10.2415 0c.55747-.55994 1.12046-1.11436 1.67827-1.6743.55954.55615 1.11701 1.11781 1.6762 1.6743-.55931.55615-1.11804 1.11425-1.676196 1.6743-.55608-.55994-1.12046-1.11435-1.67827-1.67429m4.95597 0c.57199-.536138 1.08242-1.145068 1.69625-1.636006.52842.56546 1.11493 1.076062 1.65095 1.636-.53567.55614-1.11319 1.069506-1.64541 1.63048-.6249-.47438-1.12392-1.0978-1.70178-1.63048m-17.7465 2.541297l1.67067-1.66671c.557468.55821 1.11493 1.11229 1.670667 1.6705-.55562.55614-1.111355 1.11113-1.667205 1.66498-.55746-.55638-1.1155-1.11264-1.67412-1.66878m15.3434 0c.555736-.55615 1.117004-1.11056 1.67274-1.66878.557463.55614 1.11435 1.1124 1.67066 1.66877-.55954.55442-1.10974 1.11781-1.67446 1.66498-.55574-.55615-1.1132-1.10884-1.66894-1.66499m-17.89625 2.54474c.561155-.56166 1.123575-1.12218 1.68726-1.68154.55931.55615 1.11747 1.11298 1.67447 1.6705-.56115.56167-1.12231 1.12276-1.68346 1.68327-.56139-.55615-1.12081-1.11356-1.67827-1.67223m10.19619.0038c.55931-.55799 1.11873-1.1154 1.67827-1.67223.59228.54165 1.16922 1.09791 1.73083 1.66878-.563.575-1.14064 1.13425-1.73291 1.67775-.55931-.55822-1.11804-1.11632-1.6762-1.6743m10.25464-.00207c.55573-.55615 1.114926-1.10884 1.66893-1.66326.55931.5543 1.11804 1.10815 1.676197 1.66153-.557465.5543-1.1162 1.10872-1.6762 1.66325-.55585-.554535-1.11216-1.10838-1.66893-1.66153m-23.00332 2.53233c.563-.557987 1.125997-1.11666 1.68899-1.67602.55931.55798 1.118736 1.11723 1.678275 1.677742-.55954.55615-1.11781 1.11482-1.674812 1.676027-.56473-.55821-1.127724-1.12125-1.69245-1.67774m10.197925.0107c.561153-.55982 1.12173-1.11849 1.68173-1.67602.561153.55799 1.122305 1.11666 1.68346 1.67602-.55931.55983-1.11931 1.11965-1.68 1.67948-.563-.55798-1.124727-1.1178-1.68519-1.67947m5.139945 0c.56127-.56166 1.12599-1.11988 1.68553-1.68154.56126.55821 1.12253 1.11988 1.68553 1.67602-.563.56167-1.12542 1.12391-1.68726 1.68672-.56139-.55959-1.12265-1.11999-1.68381-1.681195m10.21452-.001727c.55331-.55994 1.11493-1.11781 1.66893-1.67947.56299.55982 1.12726 1.119644 1.69279 1.67947-.563.55982-1.12657 1.11907-1.69072 1.677744-.55608-.55994-1.11597-1.117805-1.67101-1.677744M38.29061 49.9861c.561153-.557983 1.122306-1.117232 1.68346-1.677746.59412.54338 1.171642 1.10401 1.740172 1.676024-.566686.576154-1.146052 1.13782-1.738098 1.684993-.563-.56166-1.124844-1.12275-1.685535-1.68326m-15.2981.16905l1.69279-1.68879c.56668.56351 1.1321 1.12759 1.69625 1.69224-.563.56351-1.12657 1.12644-1.69072 1.68879-.56669-.56511-1.1328-1.12919-1.69833-1.69223m5.1019-.00172c.56484-.56166 1.1291-1.1239 1.69279-1.68672.56484.56167 1.1291 1.1246 1.69279 1.68879-.563.56351-1.12657 1.12575-1.69072 1.68672-.56507-.56166-1.13003-1.12459-1.69487-1.68878m5.0981.00897c.5668-.56166 1.13152-1.12712 1.69798-1.68879.56115.55983 1.12299 1.11965 1.68553 1.67948-.56484.56719-1.12968 1.13253-1.69453 1.69603-.563-.56143-1.126-1.12367-1.68899-1.68671m10.24184.00207c.56299-.56339 1.1298-1.12333 1.68899-1.68672.563.56167 1.12657 1.12218 1.69072 1.68154-.56484.56351-1.12911 1.12701-1.6928 1.69052-.56277-.56189-1.12507-1.12367-1.68692-1.68533m5.09256-.00552c.563-.56339 1.1298-1.12713 1.6928-1.69052.56484.56535 1.13026 1.13 1.69625 1.69397l-1.6928 1.68878c-.566-.5635-1.13141-1.12758-1.69626-1.69223m5.10086 0c.563-.56339 1.1298-1.12712 1.6928-1.69051.56299.56351 1.12657 1.12644 1.69072 1.68879-.563.5635-1.12726 1.12643-1.6928 1.68879-.56415-.56189-1.12772-1.12425-1.69072-1.68706m-28.08414 2.53921c.56484-.56166 1.12911-1.1239 1.6928-1.68671.56484.56166 1.12911 1.12459 1.69279 1.688788-.563.56351-1.12657 1.12575-1.69072 1.68672-.56508-.56166-1.13003-1.12459-1.69487-1.68878m5.10536.00173c.56115-.5635 1.12415-1.125164 1.68899-1.68499.56484.559826 1.12841 1.12149 1.69072 1.68499-.563.56167-1.126 1.12713-1.68899 1.68879-.56472-.56166-1.12772-1.12678-1.69072-1.68879m15.32888.0038c.563-.563504 1.12784-1.12701 1.69453-1.69051.56484.565343 1.13026 1.12885 1.69625 1.69051-.56669.56351-1.13211 1.12816-1.69626 1.69397-.56669-.56327-1.13153-1.12793-1.69453-1.69396m5.09983 0c.56299-.56339 1.12979-1.127125 1.69279-1.69051.56299.56351 1.12657 1.126434 1.69072 1.68879-.563.5635-1.12726 1.12643-1.6928 1.68879-.56461-.56236-1.12818-1.12471-1.69072-1.687067M22.998 55.237783c.563-.563506 1.127267-1.126435 1.6928-1.68879l1.6928 1.688783-1.6928 1.688785c-.56484-.56051-1.129105-1.12344-1.692794-1.68878m5.09637.00517c.56484-.56166 1.12911-1.1239 1.692797-1.68671.564844.56166 1.12911 1.12459 1.692797 1.68878-.562995.56351-1.12657 1.12575-1.69072 1.68672-.56507-.56166-1.13003-1.12459-1.69487-1.68879m20.43251.00552c.56484-.56534 1.13026-1.12999 1.69625-1.69396.563.56351 1.12657 1.12644 1.69072 1.68879-.56484.56535-1.130255 1.12942-1.69625 1.69224-.56484-.56166-1.128412-1.12402-1.69072-1.68706m5.092567-.01069c.562998-.5635 1.12726-1.12643 1.692796-1.68879l1.70006 1.69603c-.563.56351-1.12727 1.12644-1.6928 1.68879-.56853-.5642-1.13522-1.12954-1.70006-1.69603" fill-rule="nonzero" fill="#FFF"/>
  </g>
</svg>
