<svg width="80" height="80" viewBox="0 0 80 80" xmlns="http://www.w3.org/2000/svg">
  <title>
    adx-adex
  </title>
  <g fill="none" fill-rule="evenodd">
    <circle fill="#FFF" cx="40" cy="40" r="40"/>
    <path d="M60.246 27.537c-.016-.396-.306-.545-.506-.745-2.085-2.105-4.203-4.18-6.254-6.316-.564-.588-.84-.5-1.363.032-3.742 3.8-7.535 7.55-11.265 11.363-.632.647-.937.56-1.514-.028-3.714-3.776-7.483-7.498-11.187-11.284-.63-.643-.946-.578-1.522.023-1.952 2.03-3.935 4.03-5.962 5.98-.667.644-.78.994-.04 1.718 3.758 3.68 7.43 7.448 11.173 11.14.63.622.592.94-.014 1.538-3.79 3.75-7.543 7.542-11.306 11.323-.32.32-.788.56-.22 1.136 2.232 2.26 4.428 4.553 6.614 6.856.416.438.69.39 1.062-.027.907-1.014 1.817-2.03 2.772-3 2.86-2.9 5.767-5.756 8.598-8.687.666-.69.994-.62 1.618.027 3.7 3.83 7.576 7.485 11.13 11.454.607.676.963.595 1.543-.026 1.987-2.134 4-4.248 6.07-6.3.64-.636.577-.96-.025-1.555-3.74-3.698-7.414-7.464-11.173-11.142-.74-.725-.61-1.057.044-1.7 3.714-3.67 7.385-7.385 11.07-11.086.232-.234.452-.478.656-.695" fill="#1B75BC"/>
    <path d="M51.873 61.722c-.127-.163-.205-.284-.303-.387-1.81-1.893-3.633-3.774-5.42-5.69-.406-.43-.624-.303-.953.054-1.505 1.62-3.045 3.21-4.535 4.845-.428.47-.674.473-1.104 0-1.463-1.608-2.982-3.167-4.454-4.768-.393-.428-.644-.557-1.11-.055-1.732 1.867-3.497 3.702-5.277 5.52-.402.412-.288.644.058.99 3.612 3.614 7.217 7.235 10.806 10.87.408.413.65.416 1.058.002 3.59-3.637 7.2-7.252 10.8-10.878.15-.152.278-.32.435-.504M51.88 18.963c-.18-.204-.314-.374-.466-.526-3.576-3.6-7.162-7.192-10.725-10.805-.428-.434-.68-.488-1.14-.023-3.56 3.615-7.138 7.213-10.733 10.794-.46.457-.432.715.013 1.15 1.722 1.682 3.426 3.385 5.095 5.12.463.48.714.522 1.196.008 1.42-1.514 2.925-2.945 4.348-4.454.48-.506.748-.578 1.266-.023 1.44 1.544 2.953 3.018 4.436 4.522.284.29.484.607.948.125 1.774-1.84 3.598-3.632 5.4-5.445.123-.125.224-.273.363-.444" fill="#3C3C3B"/>
  </g>
</svg>
