<svg width="80" height="80" viewBox="0 0 80 80" xmlns="http://www.w3.org/2000/svg">
  <title>
    ae-aeternity
  </title>
  <g fill="none" fill-rule="evenodd">
    <circle fill="#FFF" cx="40" cy="40" r="40"/>
    <g fill="#F3386C">
      <path d="M68.946218 45.965995c-.492838.877626-.931353 1.792678-1.48821 2.626317-1.97048 2.94993-4.669868 4.946407-8.051266 5.856848-4.787685 1.289036-9.123755.318822-12.911877-2.990903-2.156944-1.884645-3.925677-4.112412-5.55546-6.458574-1.81895-2.618692-3.568034-5.287844-5.405326-7.892967-1.46-2.070174-3.09538-3.985682-5.11293-5.542192-4.25179-3.280016-9.8814-2.472716-13.47136.832574-1.8393 1.69344-2.96411 3.796606-3.42891 6.2734-.75118 4.002622 1.14428 8.562717 4.46672 10.851145 1.91013 1.315553 3.995546 2.03328 6.29179 2.06441 2.33974.03175 4.406376-.795505 6.262183-2.213844 1.93965-1.48238 3.469956-3.35372 4.91799-5.30488.07703-.10376.159564-.20318.28393-.36095.416333.6184.8069 1.19795 1.19677 1.77795.098427.14642.193275.295233.292052.441386.52751.77945.52515.777145-.04795 1.499485-1.455633 1.834805-3.027074 3.546958-4.92262 4.931863-2.853974 2.08525-6.02096 2.93095-9.51118 2.519274-4.28681-.505595-7.688383-2.567344-10.189955-6.11448-1.85572-2.631283-2.73441-5.60214-2.53214-8.84003.38489-6.16299 3.475894-10.49933 9.04166-12.79716 5.03738-2.079666 9.808733-1.248155 14.06122 2.27051 2.39188 1.979095 4.291706 4.406315 6.04926 6.953526 1.71895 2.49125 3.36716 5.033674 5.11467 7.503907 1.54856 2.188836 3.26236 4.242604 5.46472 5.803726 1.52821 1.08329 3.196247 1.80199 5.08917 1.88225 4.39686.186505 7.746204-1.66222 10.147426-5.3689.089782-.138705.270917-.30339.412664-.306497 1.13345-.02501 2.26769-.013926 3.40175-.013926.045066.038844.09013.07778.135197.11671"/>
      <path d="M44.15944 37.36117c-.647422-.957-1.276767-1.875775-1.8862-2.808032-.05511-.08425-.02856-.292927.039302-.380636 2.014323-2.605478 4.190655-5.03323 7.139912-6.59586 2.716245-1.439092 5.59284-1.848728 8.587074-1.27396 4.858778.932612 8.39013 3.68096 10.564367 8.187844 1.106638 2.293838 1.437904 4.749083 1.283843 7.282636-.01965.323434-.124018.484486-.502707.4836-5.37039-.013747-10.74087-.012416-16.11126-.002218-.34463.00062-.45493-.094893-.44463-.449278.02402-.8269.03013-1.655927-.00183-2.482205-.01589-.40928.13206-.4875.49992-.48652 4.133275.01153 8.266637.00772 12.4.00603.199127-.00009.39834-.01889.65939-.03219-.04795-.2923-.067163-.54-.130394-.77555-1.1545-4.30016-3.86-7.07848-8.082795-8.22278-3.52725-.95567-6.66166.01481-9.422533 2.36665-1.63825 1.39546-2.998775 3.046686-4.274845 4.77622-.0931.1262-.192666.24752-.316596.406267"/>
    </g>
  </g>
</svg>
