<svg width="80" height="80" viewBox="0 0 80 80" xmlns="http://www.w3.org/2000/svg">
  <title>
    aeon-aeon
  </title>
  <g fill="none" fill-rule="evenodd">
    <circle fill="#0A1432" cx="40" cy="40" r="40"/>
    <path d="M32.376074 68.775223c-2.740735-.502564-4.560327-2.204918-5.82766-4.58001-.440315-.82516-.7466-1.722707-1.113962-2.587198 1.032326-.067182 2.077293-.054174 3.09439-.217462 2.598328-.416865 5.121114-1.128016 7.578104-2.091673 3.169475-1.243097 6.147502-2.851947 9.034602-4.642142.287553-.178132.51403-.45543.768838-.68697.08331-.020508.16647-.041168.249628-.061674l.189164-.100544c1.566156-.327187 3.132616-.654527 4.698773-.981868-.90667 1.58467-1.75379 3.207446-2.73296 4.74544-1.89346 2.97361-4.12915 5.666402-6.87354 7.896877-1.86818 1.5181-3.8978 2.73793-6.29173 3.23407-.28648.05953-.9781.21914-1.71419.21914-.2708 0-.9711-.12978-1.05943-.146m-1.43404-41.62375c1.24099-2.57787 2.77516-4.97301 4.50002-7.24648 1.82432-2.40433 3.87237-4.58751 6.3554-6.32292 1.7471-1.22091 3.61619-2.14922 5.77405-2.37892 2.71789-.28924 4.9184.67932 6.65895 2.75186 1.09493 1.304 1.80132 2.82409 2.33743 4.43034-1.13102.09059-2.27254.11293-3.39123.28495-2.96051.45512-5.79979 1.35175-8.55088 2.53516-2.81993 1.21325-5.51695 2.65851-8.08482 4.34434-.17774.11661-.30232.31494-.45173.47532-.08361.01989-.16753.03979-.25115.05968l-.19084.09488c-1.39451.30638-2.78856.61474-4.18413.91668-.16967.03657-.3471.03765-.52103.05509" fill="#5BBBD4"/>
    <path d="M36.089264 26.025076c.14926-.16038.273997-.35856.451737-.475325 2.56787-1.68582 5.26474-3.13092 8.08483-4.34418 2.75094-1.18357 5.59037-2.08019 8.55088-2.53532 1.11869-.17201 2.26006-.19435 3.39123-.28479 1.39923.01026 2.77958.15365 4.12519.56501 4.15489 1.27034 5.90427 4.55277 5.66652 8.49157-.04706.77772-.25282 1.54565-.38533 2.31817-.403-.2092-.80965-.41151-1.20824-.62851-2.83577-1.54411-5.88066-2.48313-9.03749-3.0388-1.73887-.30622-3.50348-.52812-5.2655-.62377-2.42668-.13161-4.86585-.21195-7.29238-.11921-2.11537.0808-4.22023.43401-6.33057.66019-.24795.02663-.50047.01102-.75086.015m9.82117 27.94468c-.25481.23154-.48144.50884-.76884.68697-2.8871 1.7902-5.86528 3.39905-9.0346 4.64215-2.45699.96366-4.97977 1.67496-7.57826 2.09168-1.01694.16328-2.06206.15028-3.09423.21746-1.40045-.0049-2.7817-.14997-4.12732-.56317-4.10722-1.26054-5.91234-4.52078-5.67002-8.49814.04722-.77634.25557-1.54274.3896-2.31388.85672.43692 1.70232.89801 2.57259 1.306 2.4937 1.16903 5.12782 1.87467 7.82317 2.39284 3.82835.73579 7.69584.9029 11.57064.73304 2.39394-.10498 4.77752-.4487 7.16627-.67963.24857-.02418.50063-.01117.75102-.015302" fill="#2589A0"/>
    <path d="M8.999937 42.598633c0-.444855.279-1.985224.390347-2.319894.800622-2.40665 2.361535-4.2695 4.244627-5.88475 3.51107-3.0114 7.61398-4.93805 11.94544-6.42507 1.31434-.45119 2.6494-.84206 3.9748-1.26048.18063-.01805.36489-.01916.54124-.05715 1.44909-.31219 2.89676-.63119 4.34491-.94813l.19818-.09816c.08699-.02058.17398-.04132.26097-.0619.26002-.00396.52226.01203.77975-.01552 2.19135-.23399 4.37733-.59937 6.57406-.68296 2.51986-.09594 5.05284-.01283 7.57286.12332 1.82979.09894 3.66227.32865 5.46802.64527 3.27825.57483 6.44025 1.54622 9.38494 3.14359.41407.22464.83637.43377 1.25487.65018.58932.47477 1.19461.93103 1.76447 1.42812 1.47297 1.28485 2.58929 2.80955 3.08909 4.73493.05536.2134.21147 1.49145.21147 1.923 0 1.22691-.27362 1.84781-.40237 2.23456-.8011 2.40459-2.36992 4.259523-4.25064 5.87351-3.38264 2.90296-7.32565 4.79573-11.49072 6.26185-1.4581.51325-2.94689.939102-4.42177 1.405012-1.62655.33863-3.2531.6771-4.87949 1.01573-.06564.03467-.13096.06918-.19644.10385-.08635.02137-.17271.042744-.25923.0638-.26002.00443-.52178-.009024-.77974.01583-2.48079.23905-4.95589.59462-7.44206.70306-4.02383.175885-8.04007.00285-12.01551-.75831-2.79917-.535884-5.5346-1.266016-8.12421-2.4752-.90375-.42206-1.78187-.89921-2.67154-1.35103-.32487-.260265-.64594-.525594-.97539-.779684-1.89496-1.46185-3.38138-3.20818-3.93273-5.61372-.01993-.0866-.15817-1.141428-.15817-1.59372" fill="#144451"/>
    <path d="M42.358863 42.373277c-.59596 1.509974.112138 2.486755 1.56708 2.827282 1.298838.30411 2.617445.2411 3.931624.09926 1.582423-.17082 3.08719-.62787 4.619158-1.33409-.278842 1.46802-.542342 2.85593-.82324 4.33504-1.377127.23366-2.742393.51277-4.120786.68723-1.85905.23556-3.72364.31092-5.58459-.0695-1.65724-.33895-2.98644-1.13177-3.86963-2.60707-.03717-.06238-.10993-.10322-.20609-.19029-.24389.20406-.47797.40812-.72059.60142-2.57522 2.05076-5.46106 3.02058-8.76241 2.46823-2.85627-.47763-4.39236-2.66327-3.99204-5.54074.41391-2.9753 2.30396-4.54813 4.98989-5.38354 1.80496-.56137 3.66923-.6828 5.54757-.66554.91545.00839 1.83105.00142 2.71218.00142.63249-1.62665-.29102-2.52491-1.57072-2.80765-1.64854-.36396-3.31115-.2761-4.94229.06854-1.20204.25409-2.36961.67203-3.58509 1.02633.25163-1.32617.5145-2.71251.79651-4.19937 1.37222-.23145 2.73685-.50945 4.11461-.68248 1.88578-.23715 3.7763-.3152 5.66208.08374 1.62797.34449 2.92618 1.14048 3.79623 2.5838.04049.06712.07781.13631.10486.18396.83526-.58639 1.57736-1.17531 2.38194-1.65974 2.22345-1.33836 4.6288-1.83705 7.20212-1.3971 2.85722.48839 4.39599 2.66643 3.99188 5.54042-.41787 2.97166-2.30507 4.54876-4.99037 5.38448-1.36479.42475-2.77355.62612-4.20319.64259-1.34297.01567-2.6864.00332-4.04677.00332m.58979-3.36744c1.28001 0 2.48791.04686 3.68995-.01646.80789-.04259 1.61152-.22006 2.30333-.71177.83921-.59668 1.0317-1.43462.84427-2.37293-.1618-.81072-.75191-1.27884-1.52675-1.40929-1.44498-.24285-2.77355.0296-3.8429 1.12417-.90359.92501-1.30327 2.06928-1.46791 3.38627m-5.90629 1.9838c-1.27401 0-2.48174-.04512-3.68426.01536-.83732.04227-1.6653.23161-2.368656.75736-.798568.59683-.959736 1.42528-.775634 2.32638.17224.84253.79493 1.27567 1.601248 1.43398 1.71243.33657 3.42819-.405757 4.35708-1.88533.49584-.7895.77689-1.65863.87021-2.64776" fill="#FCFCFC"/>
    <path d="M37.042315 40.989588c-.093316.98913-.374372 1.85826-.870214 2.647916-.92889 1.47942-2.64464 2.22174-4.35708 1.88517-.80616-.15831-1.429-.59145-1.60108-1.433824-.1841-.901267-.02309-1.72971.77548-2.326544.70335-.525594 1.5315-.715092 2.36866-.757203 1.20252-.060633 2.41025-.015515 3.68426-.015515m5.90634-1.983752c.16465-1.316992.56433-2.461266 1.46792-3.38628 1.06934-1.094564 2.39791-1.367018 3.84289-1.124168.77485.130448 1.36495.598575 1.52675 1.409288.18743.93831-.00506 1.776253-.84427 2.372928-.6918.491715-1.49543.669182-2.30333.711768-1.20204.063325-2.40993.016464-3.68995.016464" fill="#154552"/>
  </g>
</svg>
