<svg width="80" height="80" xmlns="http://www.w3.org/2000/svg">
  <g fill="none" fill-rule="evenodd">
    <circle fill="#1D094C" cx="40" cy="40" r="40"/>
    <path d="M36.658713 68.903883c-1.970977-.943324-3.756005-2.243249-5.26758-3.83605-.797557-.868344-1.501268-1.820773-2.099118-2.84103-.607629-1.08593-1.081594-2.24343-1.411265-3.446539-.313498-1.234099-.477875-2.502312-.489507-3.776692.024661-1.264652.331786-7.395776 3.664661-10.344853.811736-.641395 2.12856-.401441 2.71031.493097.413612.647018.451283 1.470047.09855 2.153177l-.042058.079726c-.89461 1.711388-4.613853 8.363445-.367728 15.706264 1.070588 1.654455 2.422206 3.18069 3.87486 4.681318l.004397.004461c.250927.268465.263268.685278.028677.968542-.17145.209913-.46133.275191-.704199.158579zm.768052-56.516054c-2.093956 2.010796-3.935846 4.213148-4.974412 6.647402-1.03786 2.35837-1.31451 4.989253-.79042 7.516722.451464 2.530565 1.59164 4.59684 3.358016 6.32171 1.746779 1.760561 4.110294 3.208912 6.611455 4.762207 2.48453 1.570364 5.218067 3.272635 7.476721 5.86605 2.276434 2.572659 3.640956 6.103966 3.793228 9.431692.200162 3.3092-.571713 6.780278-2.334074 9.535569-1.73311 2.781672-4.195463 4.82428-6.777875 6.384558-.336058.204634-.770688.112779-.99828-.210979-.227591-.323757-.171677-.770638.128427-1.026419 2.178934-1.88597 4.057721-4.080077 5.165206-6.535572 1.092944-2.413744 1.42162-5.111901.94078-7.72302-.433875-2.60224-1.586765-4.789752-3.419-6.494351-1.798684-1.747371-4.17061-3.142475-6.695191-4.63612-2.50661-1.514499-5.270927-3.114542-7.648589-5.629007-1.200695-1.29078-2.18172-2.774981-2.903014-4.391997-.683872-1.614242-1.09839-3.33265-1.226589-5.084893-.23161-3.38301.553074-6.96388 2.411978-9.732458 1.832905-2.786134 4.367714-4.779278 7.038736-6.20629.172374-.092253.373818-.111204.55997-.052682.186153.058522.341748.189718.432522.364698.151764.298303.090767.662494-.149595.89318zm5.96547-1.234003c1.971225.943079 3.756368 2.243106 5.267772 3.836244.797672.86814 1.501392 1.820487 2.099118 2.84074.607585 1.08603 1.081487 2.243629 1.411074 3.446829.313607 1.234122.478143 2.50236.489985 3.77679-.024949 1.264651-.331691 7.395484-3.664566 10.345434-.811736.640716-2.128368.400568-2.710691-.49368-.413376-.647078-.451112-1.469943-.098743-2.153176l.04225-.080114c.89461-1.711291 4.614044-8.363445.368397-15.70607-1.071162-1.654358-2.42297-3.181271-3.875338-4.68093l-.00478-.004947c-.25039-.268555-.26244-.684961-.028007-.96796.171336-.209572.46068-.275031.70353-.15916z" fill="#FFF"/>
  </g>
</svg>
