<svg width="80" height="80" xmlns="http://www.w3.org/2000/svg">
  <g fill="none" fill-rule="evenodd">
    <circle fill="#FFF" cx="40" cy="40" r="40"/>
    <g fill-rule="nonzero">
      <path d="M55.331027 15.021081c-.134973.220595-.41919.287784-.642162.156378-4.404757-2.606702-9.440379-3.983189-14.593135-3.983189-4.718703 0-9.37973 1.165406-13.512757 3.375514-.228324.121892-.510162.042216-.636216-.184325l-1.57627-2.835027c-.129027-.232486-.044595-.529189.18908-.654648C29.309785 8.345568 34.670055 7 40.09573 7c5.922756 0 11.71054 1.586973 16.774108 4.594432.22773.135568.299675.435244.16054.661784l-1.699351 2.764865z" fill="#004651"/>
      <path d="M67.948324 31.644757c-1.074432-3.646649-2.832648-6.996595-5.231838-9.970757-.162324-.201568-.136756-.494703.062433-.66l1.954432-1.62919c.20454-.170053.511946-.141513.679622.064812 2.709567 3.35054 4.691946 7.128594 5.899567 11.244378.075514.255081-.076702.523838-.333567.594595l-2.452703.68081c-.249135.068973-.503621-.076108-.577946-.324648z" fill="#00BFEC"/>
      <path d="M61.023676 64.617405l-2.095946-2.475297c-.167081-.197405-.141514-.489946.053513-.660595 6.118973-5.354324 9.669297-13.007945 9.800108-21.130702.004757-.259243.211081-.467352.470325-.467352h3.243513c.265784 0 .484.218811.481027.484595-.136756 9.346432-4.221621 18.152973-11.27173 24.302865-.199783.17481-.508973.149243-.68081-.053514zM40.09573 72.766324c-7.467514 0-14.747135-2.559135-20.557514-7.217189-.207513-.165892-.236648-.473297-.067189-.678432l2.067405-2.50146c.164703-.199189.45665-.22654.658217-.06481 5.062378 4.045621 11.398973 6.267621 17.89908 6.267621 4.497514 0 8.792271-1.007243 12.77546-2.993784.232487-.115351.510757-.027946.630865.202162l1.49481 2.880811c.123082.23546.030325.529784-.208107.648703-4.528433 2.262432-9.597352 3.456378-14.693027 3.456378z" fill="#004651"/>
      <path d="M13.318757 57.501297c-.221784.14627-.524433.084433-.667135-.13973-3.332108-5.21935-5.08973-11.252108-5.08973-17.478108 0-8.732216 3.39454-16.896594 9.569405-23.044702.187892-.187298.496487-.18254.681406.008324l1.770108 1.829568c.180162.186108.174216.480432-.009514.663567-5.495243 5.485135-8.515783 12.761784-8.515783 20.543243 0 5.545784 1.562 10.918541 4.521297 15.568865.139135.218217.080865.506-.135568.648703l-2.124486 1.40027z" fill="#00BFEC"/>
      <path d="M40.09573 61.292432c-11.804487 0-21.408379-9.603891-21.408379-21.408972 0-11.805082 9.603892-21.408974 21.408379-21.408974 11.805675 0 21.410162 9.603892 21.410162 21.408974 0 11.80508-9.604487 21.408972-21.410162 21.408972zm0-38.623675c-9.491514 0-17.214703 7.722594-17.214703 17.214703 0 9.492108 7.72319 17.215297 17.214703 17.215297 9.492702 0 17.215297-7.722595 17.215297-17.215297 0-9.492109-7.72319-17.214703-17.215297-17.214703z" fill="#004651"/>
    </g>
  </g>
</svg>
