<svg width="80" height="80" viewBox="0 0 80 80" xmlns="http://www.w3.org/2000/svg">
  <title>
    air-airtoken
  </title>
  <defs>
    <linearGradient x1="0%" y1="50%" x2="97.219786%" y2="50%" id="a">
      <stop stop-color="#5A51A2" offset="0%"/>
      <stop stop-color="#00A7DB" offset="100%"/>
    </linearGradient>
  </defs>
  <g fill="none" fill-rule="evenodd">
    <circle fill="#FFF" cx="40" cy="40" r="36"/>
    <path d="M70.727497 40.072918c.08158-16.671473-13.182273-30.733568-30.61189-30.77918C22.538997 9.247393 9.380243 23.28889 9.292047 39.87429c-.08893 16.82155 13.42334 30.759318 30.569263 30.82847 17.37964.06915 30.88603-13.930413 30.866187-30.62984m9.272278.042667C79.89541 62.069817 62.220315 80.002207 39.98699 80 17.77424 79.997793-.06034 62.039655-.000074 39.887532.060194 18.114275 17.460412-.065298 40.104583.000177 62.684077.06565 79.97993 18.24007 79.999775 40.115587zM37.44411 22.312727c-9.063486.94982-16.669358 8.43491-17.855413 17.74182-1.193394 9.36727 3.980184 18.353453 13.08844 21.899635 8.798533 3.425454 19.05835.59709 24.737615-7.241455 5.201468-7.179636 4.585688-16.620363 1.180184-21.81018 1.693945 5.114908 1.651376 9.96509-.789725 14.613817-2.44256 4.65018-6.28844 7.68291-11.42018 8.952727-9.00624 2.22837-18.16146-2.53381-21.2455-11.29745-3.13835-8.91927 1.56771-19.93382 12.30459-22.85891zm7.658055-6.223418c-.578348 7.60436-4.408073 13.12436-10.594495 17.15418.486605 1.01163 1.173578 1.38254 2.098348 1.49672 3.258716.40218 6.489542.296 9.682202-.47709.549725-.13309.975413-.07418 1.372477.29891 1.05835.99636 2.245872 1.88873 3.150092 3.006542 2.87559 3.553454 3.81578 7.530182 2.2855 11.94109-.27303.787637-.54019 1.577455-.82936 2.42473.16734-.055275.252472-.057456.29358-.100366 5.09431-5.310544 6.45431-12.90327 3.52073-19.625453-.64954-1.486544-.64954-1.486544.540915-2.67709.050642-.049454.099817-.10182.146055-.15491.59156-.681453.55853-.836362-.084404-1.464-3.052475-2.98109-6.107153-5.95927-9.12587-8.974544-.841834-.841454-1.561834-1.803636-2.45578-2.848727zm6.304808 34.03905c-6.485138 1.72582-12.257615.69163-16.555597-4.34546-5.153027-6.039276-4.83156-12.57673-.411743-19.110548-4.94312 1.887272-8.28624 7.69818-8.040367 14.09018.20844 5.409456 4.147523 10.93164 10.157798 12.826183 5.597064 1.763637 11.604404.052364 14.84991-3.460363zM41.35501 22.69549c.10642.01091.212843.022546.319265.033455.998165-.924363 1.233762-2.204363 1.553762-3.463272.22899-.90182-.50202-1.25891-.91523-1.785455-.38899-.497454-.866055-.927273-1.30422-1.38691-.095413.056728-.190092.112728-.285504.168728.210642 2.144728.421284 4.288728.631926 6.433455z" fill="url(#a)"/>
  </g>
</svg>
