<svg width="80" height="80" viewBox="0 0 80 80" xmlns="http://www.w3.org/2000/svg" xmlns:xlink="http://www.w3.org/1999/xlink">
  <title>
    alis-alis
  </title>
  <defs>
    <path id="a" d="M21.782335 9.4071v9.40024H.213967V.006857h21.568368v9.40024z"/>
    <path id="c" d="M0 .17323v27.528926h21.58414V.17323H0z"/>
    <path id="e" d="M.214012.22844h13.08743v16.296675H.214012V.22844z"/>
  </defs>
  <g fill="none" fill-rule="evenodd">
    <circle fill="#FFF" cx="40" cy="40" r="40"/>
    <path d="M45.29765 42.9711c-.091056-.229128-.181884-.458256-.27294-.687384 1.873056-1.652294 3.961432-3.008945 5.977733-4.462615 1.19365-.86055 2.317708-1.82087 3.5762-2.59013.331683-.20275.516052-.5461.668788-.90091.0583-.09702.13964-.16743.23995-.21605 1.08181 2.53876 2.18712 5.06721 3.24068 7.61766 2.72486 6.59679 5.42689 13.20344 8.13796 19.8062-.27836.22294-.53751.08853-.79689-.04266-1.12225-1.45459-2.69005-2.40871-4.01769-3.63486-3.27344-3.02408-6.57015-6.02958-9.95611-8.92133-2.29375-1.95894-4.51724-3.9961-6.79767-5.96789" fill="#464975"/>
    <path d="M55.285638 33.353853c-2.407406-5.851835-4.81278-11.704358-7.24097-17.547247-.499332-1.201606-1.08723-2.365138-1.63446-3.5461-.165616.155503-.35857.28486-.461148.49977-2.11097 5.145412-4.01046 10.375458-6.069916 15.540825-.035247.10964-.06733.22042-.089473.33395-.05648.225-.11636.44908-.06416.68486.0366.11927.1141.19427.23363.22431 1.00296.31399 2.01224.60987 2.99983.96996 3.53327 1.28853 7.06496 2.58234 10.61428 3.82477.57954.20276 1.20043.48854 1.84504.15436l.06914-.37913c-.06575-.25413-.10303-.52041-.20176-.76032" fill="#5C619D"/>
    <path d="M33.541532 23.681973c-1.255782-.941973-2.372385-2.08601-3.83739-2.724083-1.812953 4.430963-3.62568 8.861927-5.438635 13.29289.073657-.00046.147088.002293.22052.008027.732953.558257 1.276568-.144724 1.872602-.3289 4.33807-1.341283 8.58554-2.966283 12.93401-4.276145.22729-.0961.38093-.285322.55333-.45069.07704-.14977.15386-.29931.23091-.44931-2.25512-1.588533-4.32972-3.417432-6.53536-5.07179" fill="#676DB1"/>
    <path d="M53.469927 34.005436c-4.147832-1.43899-8.29092-2.892202-12.424745-4.37202-.401497-.143577-.719397-.551145-1.19297-.215136l-.064394.074312.044963.087614c.18031.320184.39992.624312.53503.962844 1.55968 3.91055 3.1067 7.826147 4.65688 11.740597.11049-.01835.24537-.001606.32762-.06032 3.19391-2.291744 6.38827-4.583488 9.56342-6.902065.23927-.17477.33824-.547248.50295-.827982-.65048-.159863-1.31814-.269037-1.94874-.487844" fill="#676DB0"/>
    <path d="M40.076956 28.75383c-.35247-.107568-.774753-.123624-1.046787-.336926-3.04411-2.387615-6.06563-4.805276-9.09144-7.217202-.08699-.069266-.15681-.16055-.23476-.241743 1.2063-2.75161 2.4126-5.50299 3.61868-8.25459.26457-.0922.45075.04426.62427.21903 1.04498 2.56926 2.12723 5.125 3.12047 7.71651 1.00724 2.62775 2.01404 5.25573 3.01202 7.88715.00158.07591.00068.15183-.00249.22775" fill="#777ECC"/>
    <path d="M34.427426 42.28571c-.399916.456652-.762778.954817-1.20585 1.363074-2.346175 2.163074-4.70184 4.315826-7.074903 6.448854-3.04908 2.740825-6.117138 5.46009-9.178193 8.187156-.96093.855733-1.92615 1.70665-3.024 2.679128-.03999-.49587-.060552-.755275-.081565-1.01468-.065297-.076146-.131046-.076604-.197246-.001375l-.5077 1.347936c.00022.00023.00068.00046.0009.000688-.11546.45276.30073.29886.47154.425 4.35231.01331 8.70484.03372 13.05738.02111.19792-.00069.39517-.17936.59242-.32569.04835-.02729.0958-.05825.14144-.09725h.00022c2.46863-6.34312 4.93727-12.68601 7.40591-19.02913-.13195-.13348-.26503-.14839-.40037-.00481" fill="#454975"/>
    <g transform="translate(45.084 42.964)">
      <mask id="b" fill="#fff">
        <use xlink:href="#a"/>
      </mask>
      <path d="M20.972787 18.35617c-.201766-.35321-.328745-.795642-.617498-1.044037-1.24675-1.072018-2.57913-2.042202-3.81051-3.130963-4.40631-3.8961-8.77308-7.838303-13.18142-11.73211C2.36877 1.57039 1.26663.817638.21396.006858c1.048822 2.756422 2.08115 5.519266 3.15053 8.26743 1.16473 2.992432 3.87693 9.726148 4.012494 10.122937-.004066 0 .077498.05023.12359.070413.248536.138073.496846.318578.746285.319954 4.31367.026605 8.62734.022477 12.94124.01032.19837-.000687.3963-.1461.59422-.22431-.27-.072478-.53978-.144955-.80955-.217432" fill="#51568D" mask="url(#b)"/>
    </g>
    <path d="M39.84593 29.203142c-.150025.076606-.300276.152982-.450527.229587-.489615.14862-.981037.29105-1.468393.44678-2.727113.87156-5.455808 1.7383-8.178854 2.6227-1.758728.57133-3.508418 1.17018-5.26195 1.75642.493683.46559.95709.9711 1.486695 1.39036 2.80891 2.22408 5.63476 4.4266 8.45451 6.63669.13353.0016.26707.00321.4006.00504l1.65254-4.316976c.17285-.21009 1.62113-4.09266 2.1957-5.550687-.00022 0-.00022.00023-.00022.00023s0-.00023.00023-.00023c.04948-.0633.06711-.13486.05265-.21445.02508-.186005.072528-.36628.13059-.54426-.0436.181424-.08721.362846-.13059.54427.36806-.876147.73589-1.752294 1.10395-2.62844.00045-.054588.007-.108716.019207-.161698-.00181-.07179-.00407-.14358-.0061-.21537" fill="#5C619E"/>
    <g transform="translate(13 34.02)">
      <mask id="d" fill="#fff">
        <use xlink:href="#c"/>
      </mask>
      <path d="M-.000045 27.65468l.630376.047476c-.15702-.141972-.31428-.283716-.47131-.42546l-.15906.377983zm19.39594-21.32615C16.870775 4.177154 14.09531 2.3533 11.567252.205136c-.105515-.04977-.20606-.041514-.301858.026146-.164485.426606-1.62452 3.966744-2.071657 5.041744-.066652.156192-.635347 1.543807-.853155 2.081422l-.005648.022247c-.042025.088074-.07795.1789-.11071.270872-.295985.723852-.592194 1.447705-.887725 2.171558l-.00091.001147c.00022-.000458.00045-.000688.0009-.000917-.00023.00023-.00046.000688-.00046.000917.00361-.001605.00655-.00344.01039-.005046-.03819.084174-.07343.169265-.10642.255275-.94896 2.28028-1.89791 4.56032-2.84664 6.8406-.00136.00276-.00249.00551-.00384.00803l.00067-.00023c0 .00023 0 .00046-.00023.00046.00181-.00046.00384-.00092.00565-.00137l.00926-.00183c-.666525 1.6039-1.333053 3.2078-1.99958 4.81147-.00542.01354-.01152.02684-.016944.04037l.00045-.00046c0 .00023-.000227.00023-.000227.00046.00497-.00573.01039-.01124.01536-.0172-.000226.00069-.00045.00138-.00068.0023-.579086 1.39174-1.1584 2.78372-1.737714 4.17546l.09874.00161h.03593c-.035476.34679-.27249.762157.179394.96766.407828.18532.7072-.162614.96477-.427292.686867-.7055 1.44535-1.32637 2.17672-1.9805 5.17338-4.62729 10.31649-9.28876 15.55584-13.840133.75239-.65344 1.82154-1.15642 1.90717-2.39954-.54136-.86055-1.45054-1.29312-2.18824-1.92179z" fill="#51568D" mask="url(#d)"/>
    </g>
    <g transform="translate(33.11 12)">
      <mask id="f" fill="#fff">
        <use xlink:href="#e"/>
      </mask>
      <path d="M.885058.231766C.660924.232454.437694.538646.214012.702638c.139406.073623.279037.147247.418443.2211.140988.430964.262092.869955.426126 1.291514 1.51313 3.88899 3.01655 7.78188 4.56515 11.656193.36716.91835.89383 1.770872 1.34684 2.65367.76504-1.941514 1.54228-3.877982 2.29218-5.82546 1.28064-3.327063 2.5441-6.66078 3.8148-9.991742l.00023-.00023c.07434-.14931.14912-.298853.22369-.448165C9.16265.243234 5.02386.21938.88506.231766" fill="#838AE1" mask="url(#f)"/>
    </g>
  </g>
</svg>
