<svg width="80" height="80" xmlns="http://www.w3.org/2000/svg">
  <defs>
    <linearGradient x1="100%" y1="50%" x2="0%" y2="50%" id="a">
      <stop stop-color="#5C00CF" offset="0%"/>
      <stop stop-color="#04B7FF" offset="100%"/>
    </linearGradient>
  </defs>
  <g fill="none" fill-rule="evenodd">
    <circle fill="#FFF" cx="40" cy="40" r="40"/>
    <path d="M50.01951 20.682358c-.539948-.061554-.891755.243163-.975965.912036-.422795 3.362105-1.77075 6.293214-3.966844 8.838434-.439614.509467-.439498.986277-.038626 1.339626.382661.337139.907065.276172 1.310373-.224485.585184-.726668 1.171645-1.459328 1.679346-2.24156 1.510809-2.328135 2.382728-4.899316 2.71586-7.625557.019834-.567497-.265392-.94622-.724145-.998494M32.933977 32.466466c-7.043325-.004346-12.814903-5.851057-12.81038-12.97678.00464-7.125253 5.806608-12.994048 12.825807-12.973608 7.062464.020674 12.814323 5.88665 12.805624 13.059949-.008468 7.094828-5.777146 12.894786-12.821051 12.89044m.109033-27.616582c-8.07021-.00834-14.540415 6.552117-14.544938 14.747756-.004524 7.98666 6.476815 14.586235 14.328843 14.589994 8.125772.003876 14.590292-6.500078 14.590872-14.679976.00058-8.076054-6.445961-14.649551-14.374777-14.657774m29.287181 15.009361c-4.625335 6.61191-10.607209 11.423711-18.201037 14.104609-.090474.031834-.18292.05756-.385212.120759.274091-.570082.34879-1.042663-.148935-1.392136-.419083-.29438-.795828-.116177-1.168166.154003-1.928267 1.398832-4.04305 2.412832-6.389356 2.77781-9.783891 1.521588-16.83348-4.320542-18.855933-12.14709-.107526-.416078-.11669-.739825.19974-1.115964.641789-.763084.462115-1.913466-.309934-2.499289-.777733-.590286-1.924323-.429-2.480858.348886-.596783.834036-.407367 1.916403.407368 2.550976.207627.161638.415139.421247.470931.670635.917969 4.098877 2.974176 7.482127 6.165723 10.161967.102305.085988.219574.153768.329768.229889l-.09001.140846c-.192085-.056268-.388113-.101259-.575442-.170214-7.35233-2.708855-13.184109-7.416578-17.727902-13.822328-.24602-.346771-.288938-.616835-.027838-.989566C8.2117 12.320029 14.257485 7.502002 21.934711 4.861045c.157055-.054037.322345-.083874.547371-.1412-.0515.134504-.069827.204986-.103581.266892-.218067.400103-.164594.767431.1748 1.05582.34566.29344.697003.19312 1.070732-.0121 1.202847-.660415 2.370316-1.426671 3.640207-1.915111C36.178068.687927 46.196265 5.94306 48.632465 15.272048c.091519.350412.096159.631048-.13664.973942-.574397.846018-.276875 1.983597.58101 2.499994.838049.504299 1.946478.233648 2.441883-.596394.535308-.897118.258549-2.032699-.666147-2.525838-.346471-.184662-.495754-.413141-.594-.781762-1.031642-3.866638-3.115455-7.03997-6.191705-9.5503-.146615-.119585-.28917-.244103-.385097-.4727.319677.10866.641441.211799.958798.327154 4.745853 1.7234 8.907912 4.39866 12.567027 7.897383 1.90414 1.820665 3.603205 3.8173 5.103458 5.99108.206236.298962.23767.51217.01914.82464m3.087848-1.814323c-4.471877-6.90206-10.386243-12.062747-17.931237-15.230557C41.488458.29593 35.22971-.432501 28.790708.233437c-4.191058.433463-8.191076 1.5553-12.00098 3.371502C11.96697 5.903825 7.77858 9.079975 4.2829 13.142436 2.86686 14.78819 1.666448 16.624948.379854 18.383825c-.50631.692132-.49935 1.409873-.021459 2.127262.442977.664997.847445 1.357952 1.316404 2.002979C9.432177 33.182916 19.804037 38.7504 32.921334 38.958439c6.29517.004699 12.242246-1.385557 17.795641-4.377397 6.081628-3.276588 10.9647-7.88129 14.71974-13.730702.632858-.985807.616387-1.825365-.018675-2.805416m-29.230692.904283c1.562425-1.380036 1.960745-3.685852 1.02213-5.571126-.940355-1.888446-3.004914-2.91854-5.039895-2.479907-1.823525.393172-3.059083 1.511133-3.544745 3.32428-.50109 1.870826-.020995 3.525859 1.43321 4.834825.263187.23682.434045.437928.365493.837443-.406787 2.368663-.786084 4.742377-1.176865 7.113859-.15601.947042.215051 1.408464 1.17269 1.420915.86925.011277 1.738734.00235 2.607985.00188.907993-.00047 1.816218.011982 2.723863-.003994.924-.01621 1.285202-.476575 1.13534-1.400828-.368742-2.276097-.71417-4.55654-1.121073-6.825588-.098942-.551638.000928-.879967.421867-1.251759M21.107566 8.22315c.30425-.385536.364682-.794684-.011368-1.152497-.365378-.347946-.768685-.310355-1.14079.023846-.100798.09057-.206236.18337-.281168.294732-.931887 1.38497-1.947058 2.722717-2.763068 4.175115-.911473 1.622494-1.374285 3.43341-1.637937 5.234105-.020067.734892.515125 1.187386 1.08465.89606.240918-.123108.462928-.47916.511877-.761674.424187-2.443726 1.272327-4.710307 2.685702-6.741362.47673-.685084 1.034309-1.312373 1.552102-1.968325" transform="translate(7 21)" fill="url(#a)"/>
  </g>
</svg>
