<svg width="80" height="80" viewBox="0 0 80 80" xmlns="http://www.w3.org/2000/svg">
  <title>
    amp-synereo
  </title>
  <g fill="none" fill-rule="evenodd">
    <circle fill="#154F62" cx="40" cy="40" r="40"/>
    <g stroke="#FFF" fill-rule="nonzero" fill="#FFF">
      <path d="M64.838 27.585h-.004c-6.257-.003-11.328-5.075-11.33-11.336v-.007c0-2.84-2.3-5.143-5.138-5.143-2.836 0-5.136 2.305-5.136 5.144v.01c-.003 6.182-4.98 11.237-11.157 11.332-.065-.002-.13-.006-.196-.006-2.837 0-5.135 2.306-5.135 5.145 0 2.838 2.3 5.142 5.136 5.142h.01c6.127.005 11.116 4.877 11.32 10.96-.01.133-.016.265-.017.4v.01c-.002 4.2-2.29 7.87-5.685 9.828-1.713.98-3.652 1.496-5.626 1.493-.112 0-.222.003-.33.01-6.12-.164-11.03-5.178-11.03-11.34h-.008l-.015.002v-.003c0-2.84-2.288-5.14-5.124-5.14-2.837 0-5.133 2.3-5.133 5.14s2.304 5.14 5.14 5.14h.007c6.256.004 11.328 5.07 11.33 11.33v-.01.017c0 2.84 2.3 5.146 5.137 5.146 2.843 0 5.15-2.303 5.16-5.15v-.004c-.005-3.004 1.185-5.887 3.306-8.013 2.12-2.126 5-3.32 8-3.32v.003c2.845 0 5.152-2.305 5.16-5.15 0-2.84-2.308-5.142-5.144-5.142h-.015c-6.116-.003-11.108-4.907-11.31-10.982.008-.12.016-.243.016-.367l.002-.01c.005-6.26 5.08-11.335 11.336-11.335 6.258 0 11.336 5.08 11.337 11.345h-.01l-.006-.003v.003c0 2.84 2.31 5.14 5.145 5.14 2.834 0 5.14-2.3 5.14-5.14s-2.295-5.14-5.132-5.14"/>
      <path d="M26.477 16.146v.005c-.003 6.263-5.082 11.338-11.34 11.34h-.006c-2.835 0-5.13 2.303-5.13 5.142 0 2.84 2.292 5.14 5.128 5.14 6.267.005 11.354 5.104 11.354 11.317h-.003c0 2.85 2.298 5.154 5.134 5.154 2.837 0 5.136-2.294 5.136-5.132 0-2.84-2.3-5.137-5.137-5.137l-.01.002c-6.255-.005-11.326-5.083-11.326-11.346 0-6.262 5.075-11.345 11.335-11.345v-.007l-.004-.013h.003c2.837 0 5.137-2.292 5.137-5.13 0-2.84-2.297-5.135-5.134-5.135-2.836 0-5.136 2.307-5.136 5.146z"/>
    </g>
  </g>
</svg>
