<svg width="80" height="80" xmlns="http://www.w3.org/2000/svg" xmlns:xlink="http://www.w3.org/1999/xlink">
  <defs>
    <path id="a" d="M.120506.387169h18.32761v8.48607H.120507z"/>
  </defs>
  <g fill="none" fill-rule="evenodd">
    <circle fill="#FFF" cx="40" cy="40" r="40"/>
    <path d="M68.7671 42.293535c-.093 2.919296-.849 5.720282-1.866 8.452254-.057.154788-.158.290845-.337.339155-.94-1.327043-1.663-2.673803-1.611-4.413944.093-3.097746-.012-6.202394-.034-9.304085-.003-.358873-.001-.719718-.001-1.140704-3.171-1.340845-6.296-2.661972-9.422-3.982112-.06-.023662-.122-.038451-.186-.04831-.523-.877465-1.042-1.756902-1.571-2.631409-1.999-3.296901-4.002-6.59183-6.003-9.88676-1.296-2.181831-2.594-4.360704-3.883-6.545493-.181-.307606-.455-.577747-.459-.969155 7.007.969155 12.94 3.98507 17.795 9.062535.228.237606.485.448592.729.672394 1.97 2.431268 3.747 4.983803 4.847 7.926761.565 1.510423 1.026 3.057324 1.534 4.589437.603 2.599859.552 5.24507.468 7.879436m-18.308 5.318028c.689 1.283662 1.371 2.552536 2.054 3.822395l2.6 4.56676-2.6-4.56676c-.683-1.26986-1.365-2.538733-2.054-3.822395m2.741 18.194085c-2.685 1.382253-5.548 2.227183-8.524 2.73-.159.027606-.31.095634-.466.145915-5.563.740423-10.908-.066056-16.065-2.207464-2.868-1.367465-5.552-3.009014-7.879-5.177043-.235-.217887-.563-.37169-.624-.736479 4.537.771972 9.074 1.545916 13.612 2.313944 1.774.300704 3.55.59155 5.325.885352.202.12324.403.121268.603-.003943 2.038-.15479 4.038-.566902 6.053-.869578 4.897-.736479 9.787-1.511408 14.681-2.26662.131-.020704.268-.006901.401-.009859-2.028 2.190704-4.468 3.832254-7.117 5.195775m-39.142-29.51831v12.987465c-.078.698028-.275 1.342817-.853 1.813098-1.633-4.092535-2.265-8.337887-2-12.721267.126-2.086197.571-4.117183 1.061-6.141268.815-2.29324 1.711-4.547042 3.038-6.617465 1.11-1.734225 2.4-3.317605 3.88-4.752112.75-.725634 1.517-1.434507 2.276-2.152254 1.914-1.498591 3.923-2.879859 6.139-3.88352 2.401-1.087466 4.825-2.20648 7.559-2.258733 0 .003943-.004.00493-.004.009859.005-.000986.008-.00493.012-.005916-.006.35-.231.606338-.401.88338-3.831 6.216198-7.613 12.460986-11.305 18.758029-3.143 1.36352-6.287 2.729014-9.402 4.080704m60.805 1.204789c-.295-2.968592-.931-5.842536-1.934-8.647465-1.532-4.284789-3.85-8.119014-6.91-11.502676-2.329-2.576197-5.01-4.746197-8.096-6.406479-.132-.20507-.348-.294789-.554-.406197-2.263-1.217606-4.59-2.291268-7.064-3.023803-3.437-1.017465-6.927-1.68986-10.543-1.456197-.189-.078873-.377-.092676-.563.007887-.233-.010845-.467-.035493-.7-.030563-4.575.097605-8.91 1.193943-13.041 3.098732-2.295 1.058873-4.519 2.24-6.436 3.909155-2.613 1.761831-4.771 3.995916-6.721 6.426197-1.404 1.749014-2.725 3.560141-3.596 5.644366-1.004 1.572536-1.613 3.31662-2.15 5.074507-1.999 6.539578-2.083 13.11169-.179 19.685775.79 2.728028 1.81 5.372254 3.358 7.788733.049.380563-.324.635915-.317 1.01352.214.19324.479.168592.734.182395.135.062113.269.124225.404.185352.075.145916.136.299718.225.43676 2.882 4.410987 6.647 7.94155 11.205 10.60648 2.786 1.628732 5.728 2.977464 8.944 3.621267 1.83.658592 3.747.920845 5.667 1.078592 3.296.27014 6.594.325352 9.848-.438733.436-.007887.859-.071971 1.288-.165633 3.649-.788733 7.04-2.219296 10.233-4.092536 2.917-1.712535 5.568-3.769155 7.783-6.331549 1.356-1.345775 2.578-2.792113 3.481-4.479014.449-.099578.897-.198169 1.345-.297747.219.029578.378-.045352.457-.269154-.202-.420986-.409-.848874-.615-1.275775 2.184-3.477324 3.356-7.307606 4.065-11.298592.045-.120281.116-.239577.132-.364788.355-2.748733.526-5.492536.25-8.272817" fill="#5D9999"/>
    <path d="M39.1992 6.057296c.186-.10155.374-.08676.562-.007888.167.827184.753 1.439437 1.151 2.146338.767 1.358592 1.459 2.764508 2.482 3.967324.004.391409.278.66155.459.969155 1.289 2.18479 2.587 4.364648 3.883 6.544507-.376.110423-.59.423944-.848.675352-1.258 1.231409-2.504 2.473662-3.765 3.702113-.254.24648-.447.594507-.873.610282-.861-1.509437-1.721-3.018873-2.665-4.67324-.524.942536-.964 1.74507-1.414 2.542676-1.818 3.220986-3.474 6.53169-5.421 9.682676-3.097-.003943-6.193-.0069-9.289-.010845 3.691-6.296056 7.472-12.540845 11.303-18.757042.172-.278028.398-.535352.402-.88831l-.012.00986c.098-.034508.182-.080846.18-.202113.504-.412113.746-1.007606 1.05-1.543944.908-1.607042 2.065-3.07014 2.815-4.766901" fill="#558D8D"/>
    <path d="M57.9233 10.935803c3.086 1.660282 5.767 3.830282 8.096 6.406479 3.06 3.384648 5.378 7.216901 6.91 11.502676 1.003 2.80493 1.639 5.678873 1.934 8.64845.276 2.779296.104 5.523099-.25 8.271831-.016.125212-.087.243522-.132.363803-.85-.305633-.928-1.15352-1.226-1.804225-1.401-3.057324-2.742-6.14324-4.112-9.215352-.16-.356902-.311-.762113-.845-.696057-.507-1.531126-.969-3.079014-1.533-4.589436-1.1-2.941972-2.878-5.494507-4.847-7.92676.218-.03155.488.053239.596-.274085-.014-.075916-.015-.179437-.054-.265212-1.172-2.588028-2.392-5.156338-3.5-7.771971-.369-.868592-1.012-1.647465-1.037-2.650141" fill="#95C6C6"/>
    <path d="M9.7339 57.654197c-1.548-2.416479-2.567-5.060704-3.357-7.788732-1.905-6.574085-1.821-13.146197.178-19.685775.537-1.757887 1.146-3.501972 2.151-5.074507 1.013 2.006338 1.907 4.066902 2.809 6.123521.166.377606.26.842958.751.99676-.49 2.024085-.935 4.055071-1.061 6.141268-.265 4.38338.367 8.627747 2.001 12.721268.052.617183-.434 1.00662-.675 1.493662-.855 1.731268-1.726 3.455634-2.797 5.072535" fill="#439B9B"/>
    <path d="M65.748 63.749718c-2.215 2.56338-4.866 4.62-7.783 6.33155-3.193 1.873239-6.584 3.303802-10.233 4.092535-.429.093662-.852.157746-1.288.165634.029-.440705-.12-.82817-.3-1.227465-.664-1.469014-1.292-2.952817-1.934-4.430704.156-.050282.307-.11831.466-.145916 2.976-.50183 5.839-1.347746 8.524-2.73 2.649-1.363521 5.09-3.00507 7.117-5.195775 1.334-.28 2.677-.497887 4.037-.601408-.035.310563.136.56493.214.845915.281 1.012536 1.077 1.817043 1.18 2.895634" fill="#6FB2B2"/>
    <path d="M70.4165 57.42793c.206.427887.412.854788.615 1.275774-.08.223803-.238.299718-.457.269155-1.234-.392394-2.521-.523521-3.787-.757183-1.752-.32338-3.529-.518591-5.258-.968169.001-4.586479-.002-9.172958.011-13.760422.001-.509719-.079-.9731-.345-1.41479-1.054-1.752957-2.118-3.499013-3.139-5.269717-.869-1.510423-1.859-2.955775-2.56-4.558874 3.126 1.321127 6.251 2.642254 9.422 3.982113 0 .421972-.002.78183 0 1.140704.022 3.102676.128 6.206338.035 9.30507-.053 1.739156.671 3.086902 1.61 4.412958 1.322 2.093099 2.449 4.299578 3.853 6.34338" fill="#558D8D"/>
    <path d="M57.9233 10.935803c.025 1.002676.668 1.78155 1.037 2.65014 1.108 2.615634 2.328 5.183944 3.5 7.771972.039.085775.04.189296.054.265212-.108.327324-.378.242535-.596.274084-.244-.222817-.501-.433803-.729-.671408-4.855-5.077465-10.788-8.09338-17.795-9.062535-1.023-1.203803-1.715-2.608733-2.482-3.967324-.398-.706902-.984-1.319155-1.151-2.146338 3.617-.233662 7.106.437746 10.543 1.456197 2.474.732535 4.802 1.806197 7.064 3.023803.206.110422.423.201126.555.406197" fill="#8DC2C2"/>
    <path d="M39.1992 6.057296c-.75 1.69676-1.907 3.159859-2.815 4.766901-.304.536338-.546 1.131831-1.05 1.543944-.1.033521-.196.07-.18.202113l.012-.00986c-2.737.050282-5.163 1.171268-7.567 2.259719-2.216 1.003662-4.225 2.38493-6.139 3.884507-.617-1.971831-1.618-3.782958-2.438-5.67 1.917-1.669155 4.142-2.850282 6.436-3.909155 4.131-1.904789 8.466-3.001127 13.041-3.098733.233-.00493.467.019719.7.030564" fill="#6FB2B2"/>
    <path d="M30.9287 73.701352c-3.215-.644789-6.158-1.993521-8.944-3.62324-4.558-2.664929-8.323-6.194506-11.204-10.606478-.09-.13507-.151-.290845-.226-.435775 3.046.411127 6.062.994789 9.087 1.525211.061.36479.39.518592.624.73648 2.328 2.167041 5.012 3.80859 7.88 5.177042-.042.330281-.047.645774.109.96521.391.802536.793 1.601128 1.118 2.429297.503 1.283662 1.323 2.443098 1.556 3.832253" fill="#439B9B"/>
    <path d="M61.5293 57.247901c1.729.449578 3.506.643803 5.258.967184 1.266.234647 2.554.365774 3.787.758168-.448.099578-.897.19817-1.345.297747-1.646.10845-3.261.423944-4.875.737465-1.361.102535-2.703.321408-4.037.601408-.134.002958-.27-.010845-.401.010845-4.894.755212-9.784 1.529155-14.681 2.265634-2.016.302676-4.015.714789-6.053.869578.32-.331268.62-.68324.961-.990845 2.492-2.250846 4.992-4.491831 7.49-6.735775.286.344084.683.198169 1.031.201127 2.138.013802 4.277.010845 6.416.010845 2.129.466338 4.279.798591 6.449 1.00662" fill="#2F6363"/>
    <path d="M19.0225 13.034817c.82 1.887042 1.821 3.698169 2.438 5.67-.759.71676-1.526 1.424648-2.276 2.152253-1.48 1.434507-2.77 3.016902-3.881 4.751127-1.326 2.070423-2.222 4.324226-3.038 6.617465-.491-.153803-.585-.619155-.751-.99676-.902-2.05662-1.795-4.117184-2.809-6.123522.871-2.08324 2.192-3.895352 3.595-5.644366 1.951-2.430282 4.108-4.664366 6.722-6.426197" fill="#56A4A4"/>
    <path d="M19.6416 60.560873c-3.025-.530422-6.041-1.114084-9.086-1.525211-.135-.061127-.27-.12324-.405-.185352.115-.200141.317-.208028.516-.245493 2.056-.390423 4.111-.78676 6.165-1.182113 2.301-.289859 4.568-.766056 6.845-1.190986h7.269c.331.365775.645.74831.996 1.094366 2.195 2.162113 4.348 4.36662 6.637 6.434085-1.774-.294789-3.551-.585634-5.325-.885352-4.538-.769014-9.075-1.542958-13.612-2.313944" fill="#2F6363"/>
    <g transform="translate(28 66.087423)">
      <mask id="b" fill="#fff">
        <use xlink:href="#a"/>
      </mask>
      <path d="M2.9287 7.61393c-.233-1.389155-1.053-2.548592-1.556-3.832254-.325-.828169-.727-1.62676-1.118-2.429296-.156-.319436-.151-.63493-.109-.96521 5.156 2.141408 10.501 2.946901 16.065 2.206479.641 1.477887 1.27 2.96169 1.933 4.430704.181.400282.329.78676.301 1.227465-3.255.76507-6.553.708873-9.849.439718-1.92-.15676-3.837-.42-5.667-1.077605" fill="#56A4A4" mask="url(#b)"/>
    </g>
    <path d="M70.4165 57.42793c-1.404-2.043803-2.531-4.250282-3.853-6.34338.179-.047325.28-.183381.338-.33817 1.016-2.732958 1.772-5.533943 1.866-8.45324.084-2.63338.134-5.279577-.469-7.879436.534-.066056.685.339155.845.69507 1.37 3.0731 2.71 6.158029 4.111 9.216339.299.650704.376 1.497605 1.226 1.804225-.709 3.991972-1.88 7.822253-4.064 11.298592" fill="#8DC2C2"/>
    <path d="M16.832 57.423099c-2.055.394366-4.109.79169-6.166 1.181126-.199.037465-.401.045352-.515.245493-.255-.012817-.52.010845-.734-.181408-.007-.378592.366-.633944.317-1.014507 1.071-1.615916 1.942-3.340282 2.797-5.07155.24-.487042.727-.877464.675-1.494647.577-.469296.774-1.11507.852-1.813099.509-.072958.527-.551127.7-.873521.572-1.064789 1.065-2.172958 1.867-3.103662.247.387465.209.819296.209 1.247183-.002 3.626197-.002 7.252394-.002 10.878592" fill="#5D9999"/>
    <path d="M64.354 60.008268c1.615-.312536 3.229-.629015 4.875-.737465-.903 1.686901-2.125 3.134225-3.481 4.479014-.103-1.078592-.899-1.883099-1.18-2.895634-.078-.280986-.249-.536338-.214-.845915" fill="#8DC2C2"/>
    <path d="M48.1846 44.205718c-.618-1.16338-1.122-2.11183-1.561-2.937042h-14.197c-.594 1.04507-1.137 2.001409-1.669 2.937042h17.427zm-10.973-11.97c-.894 1.790423-1.789 3.57986-2.731 5.465916h10.037c-.956-1.877183-1.866-3.664648-2.775-5.452113-.655-1.444366-1.402-2.839436-2.278-4.362676-.812 1.567606-1.532 2.958733-2.253 4.348873zm-4.462-.018732c1.948-3.150986 3.603-6.46169 5.421-9.682676.451-.797606.891-1.600141 1.415-2.543662.943 1.654366 1.804 3.163803 2.665 4.674225 1.387 2.517043 2.773 5.036057 4.161 7.55507 2.87 5.180987 5.74 10.361973 8.61 15.540987.175.399295.242.809436.238 1.248169-.017 1.98169-.002 3.96338-.019 5.944084-.003.349014.136.72662-.128 1.048028l-2.6-4.56676c-.682-1.26986-1.364-2.538733-2.054-3.82338h-21.484c-.806 1.375352-1.808 2.617605-2.501 4.05014-1.056 1.368451-1.942 2.845352-2.823 4.326197-.309-.263239-.162-.617183-.165-.925774-.015-1.677042-.004-3.356057-.009-5.034085-.001-.394366-.008-.78676.169-1.154507 3.017-5.456056 6.033-10.911126 9.046-16.369155.045-.08183.04-.191267.058-.286901z" fill="#FEFEFE"/>
    <path d="M14.0581 49.274901V36.287437c3.115-1.35169 6.259-2.717183 9.403-4.080705 3.096.002958 6.192.005916 9.289.00986-.019.09662-.014.20507-.059.286901-3.012 5.458028-6.029 10.914085-9.046 16.37014-.3-.307605-.161-.691126-.162-1.039154-.009-4.722535-.003-9.44507-.013-14.16662-.001-.326338.139-.708873-.245-1.031268-.128.205071-.244.362817-.333.534367-1.122 2.137464-2.236 4.278873-3.36 6.414366-.693 1.317183-1.389 2.631408-2.103 3.935775-.314.573802-.799 1.068732-.804 1.77662-.802.929718-1.296 2.037887-1.867 3.102675-.173.322395-.191.80155-.7.874507" fill="#437878"/>
    <path d="M47.7358 19.677225c2.001 3.295916 4.004 6.590845 6.003 9.887747.53.873521 1.048 1.753943 1.571 2.630422l-.063.064085c-2.946-.013803-5.891-.02662-8.836-.039437-1.387-2.519014-2.774-5.038028-4.16-7.55507.425-.015775.619-.364789.872-.611268 1.261-1.22845 2.508-2.469718 3.766-3.701127.258-.251408.471-.565915.847-.675352" fill="#5D9999"/>
    <path d="M35.1543 12.570648c-.016-.133099.08-.169578.18-.202113.002.121268-.082.167606-.18.202113" fill="#FEFEFE"/>
    <path d="M55.3101 32.195591c.064.00986.126.024648.187.04831.7 1.603099 1.69 3.048451 2.56 4.558874 1.02 1.770704 2.084 3.51676 3.138 5.269718.266.44169.346.90507.345 1.414789-.013 4.586479-.009 9.173943-.011 13.760422-2.17-.208028-4.32-.540281-6.449-1.005634.011-.079859.022-.160704.033-.240563.263-.322394.125-.699014.128-1.048028.017-1.98169.001-3.96338.018-5.944085.004-.439718-.062-.849859-.237-1.248169.267-.167605.263-.433803.263-.7-.014-4.934507-.026-9.869014-.038-14.802535l.063-.063099z" fill="#5D9999"/>
    <path d="M39.1826 63.755535c-.2.126197-.401.12817-.604.00493-2.289-2.067465-4.442-4.271972-6.637-6.434085-.351-.346056-.665-.728591-.996-1.094366-1.462-1.550845-2.784-3.234789-4.472-4.57169.693-1.43155 1.695-2.673803 2.501-4.049155h21.484c.69 1.284648 1.372 2.553521 2.054 3.82338-.266.28986-.513.600423-.802.86662-1.353 1.249155-2.717 2.486479-4.078 3.727746-2.497 2.243944-4.997 4.485916-7.489 6.735775-.341.308592-.642.659578-.961.990845" fill="#183333"/>
    <path d="M47.6328 56.029014c1.36-1.241267 2.725-2.478591 4.078-3.727746.289-.266198.536-.576761.802-.86662l2.6 4.56676c-.011.07986-.022.160705-.033.240564-2.138-.000986-4.277.002958-6.416-.011831-.348-.002958-.744.143943-1.031-.201127" fill="#437878"/>
    <path d="M16.625 45.297521c.005-.707887.49-1.202817.804-1.77662.714-1.304366 1.41-2.618591 2.103-3.935774 1.124-2.135493 2.238-4.276902 3.36-6.414366.089-.17155.205-.329296.334-.534367.383.322395.243.70493.244 1.031268.01 4.72155.004 9.444085.013 14.16662.001.348028-.138.731549.163 1.039155-.178.367746-.171.759154-.169 1.154507.004 1.678028-.007 3.356056.009 5.033098.003.309578-.145.662535.164.92676.009.080846.018.162677.026.244508-2.276.423944-4.543.901127-6.844 1.190986.001-3.626197 0-7.25338.002-10.878592 0-.427887.038-.859718-.209-1.247183" fill="#558D8D"/>
    <path d="M23.6763 56.232113c-.008-.081831-.017-.163662-.026-.244507.881-1.480845 1.767-2.957747 2.823-4.327183 1.688 1.3369 3.01 3.020845 4.473 4.57169h-7.27zm31.5703-23.97293c.013 4.933521.025 9.868028.038 14.802535.001.265212.004.532395-.263.7-2.87-5.18-5.74-10.360986-8.61-15.541972 2.944.013803 5.89.025634 8.835.039437" fill="#437878"/>
    <path d="M48.1846 44.205718h-17.427c.532-.935633 1.075-1.891971 1.669-2.937042h14.197c.439.825211.943 1.773662 1.561 2.937042m-6.4424-11.956197c.91 1.786479 1.819 3.57493 2.775 5.452113h-10.037c.943-1.886057 1.837-3.675493 2.731-5.465916 1.51.00493 3.021.00986 4.531.013803" fill="#183333"/>
    <path d="M41.7422 32.249521c-1.51-.003944-3.021-.008873-4.531-.013803.721-1.39014 1.442-2.781267 2.254-4.348873.875 1.52324 1.623 2.91831 2.277 4.362676" fill="#5D9999"/>
  </g>
</svg>
