<svg width="80" height="80" viewBox="0 0 80 80" xmlns="http://www.w3.org/2000/svg">
  <title>
    Group 30
  </title>
  <defs>
    <linearGradient x1="69.051%" y1="-9.573%" x2="40.62%" y2="82.12%" id="a">
      <stop stop-color="#2CF4E1" offset="0%"/>
      <stop stop-color="#2CB2E1" offset="100%"/>
    </linearGradient>
    <linearGradient x1="138648.64%" y1="17806.868%" x2="187288%" y2="36335.553%" id="b">
      <stop stop-color="#2CF4E1" offset="0%"/>
      <stop stop-color="#2CB2E1" offset="100%"/>
    </linearGradient>
    <linearGradient x1="21.268%" y1="17.873%" x2="69.071%" y2="85.277%" id="c">
      <stop stop-color="#2CE5E1" offset="0%"/>
      <stop stop-color="#2CB2E1" offset="100%"/>
    </linearGradient>
    <linearGradient x1="0%" y1="142368.16%" x2="0%" y2="-19748%" id="e">
      <stop stop-color="#2CF4E1" offset="0%"/>
      <stop stop-color="#2CB2E1" offset="100%"/>
    </linearGradient>
    <linearGradient x1="5130.352%" y1="0%" x2="201922%" y2="0%" id="d">
      <stop stop-color="#2CF4E1" offset="0%"/>
      <stop stop-color="#2CB2E1" offset="100%"/>
    </linearGradient>
  </defs>
  <g fill="none" fill-rule="evenodd">
    <circle fill="#000" cx="40" cy="40" r="40"/>
    <g transform="translate(13 17)" fill-rule="nonzero">
      <ellipse fill="url(#a)" cx="28.907" cy="18.005" rx="15.624" ry="15.472"/>
      <path d="M39.878 13.365c1.11 1.48 1.71 3.275 1.707 5.118 0 2.234-.93 4.298-2.515 5.97l.965 3.565h2.928l3.083-3.463.827-5.066.173-3.02-3.05-3.412-4.118.307" fill="url(#b)"/>
      <path d="M5.945 28.426l.534 2.098s6.304 12.81 20.498 17.57c0 0 13.298-5.46 19.034-14.72L37.71 26.53s-3.79 2.987-9.423 2.987c-5.632 0-13.28-3.327-13.28-10.184 0-6.858 7.922-9.366 7.922-9.366l-3.377-.818h-8.63L5.446 22.218l.5 6.208z" fill="url(#c)"/>
      <path d="M53.643 14.662c-.24-.24-7.236-7.574-26.407-14.108l-.12-.05C8.545 6.813.552 14.66.552 14.66c.724 4.18 2.55 8.836 4.203 12.452.138.307 2.343 4.162 3.98 6.26-.965-2.098-2.016-3.923-2.016-7.062 0-8.852 6.925-16.05 15.59-16.358.206 0 .43 0 .637.017L20.88 7.925s8.32-1.382 18.998 5.015c0 0 .155.323 0 1.278 0 0 5.03 2.15 5.46 6.33.432 4.178-2.236 6.566-4.39 6.907 0 0 1.12-1.723-.603-2.644-.362-.203-.793-.29-1.224-.272-3.29 0-3.668 3.72-3.668 3.72-.034.187-.034.375-.034.562 0 0-.55 5.442 9.233 5.34 0 0 4.962-5.562 6.27-10.56.483-1.842.828-3.224 1.052-4.247.55-1.45 1.085-2.95 1.602-4.504l.07-.188z" fill="#000"/>
      <g fill="#282828">
        <path d="M35.625 14.593c.138-.068.586-.29 1.103-.818 1.033.136 2.05.46 2.05.46-1.878-1.126-4.444-1.79-7.287-1.774 0 0 1.086 1.537 4.1 2.168l.035-.034"/>
        <path d="M27.03 1.322c1.825.564 15.088 4.93 25.7 13.613l1.188-.342-.086-.068c-10.37-8.7-23.478-13.22-26.2-14.09L27.374.35 27.03.248l-.604.188c-2.72.87-15.83 5.39-26.2 14.09l-.12.102 1.154.375C11.87 6.27 25.203 1.886 27.03 1.323z"/>
      </g>
      <path d="M53.83 14.277c-10.37-8.7-23.478-13.22-26.2-14.09l-.258-.085L27.027 0l-.603.188c-2.72.87-15.83 5.39-26.2 14.09L0 14.464l.052.29c.017.067 1.138 6.67 4.96 14.123 2.257 4.384 4.996 8.188 8.13 11.343 3.843 3.857 8.32 6.705 13.3 8.478l.292.103.293.103.31-.12.293-.1c4.978-1.775 9.44-4.624 13.298-8.478 3.135-3.14 5.874-6.96 8.13-11.344 3.825-7.436 4.962-14.056 4.962-14.123l.05-.29-.24-.17zM48.112 28.4c-2.205 4.283-4.877 8.02-7.942 11.09-3.807 3.803-8.216 6.6-13.143 8.324-4.927-1.724-9.337-4.504-13.143-8.308-3.066-3.07-5.736-6.79-7.94-11.07-3.326-6.448-4.566-12.23-4.824-13.562 10.628-8.82 24.064-13.22 25.907-13.8 1.826.58 15.28 4.98 25.907 13.8-.258 1.314-1.515 7.096-4.822 13.527z" stroke="url(#d)" fill="url(#e)" transform="translate(.002 .025)"/>
    </g>
  </g>
</svg>
