<svg width="80" height="80" viewBox="0 0 80 80" xmlns="http://www.w3.org/2000/svg">
  <title>
    appc-appcoins
  </title>
  <defs>
    <linearGradient x1="6.009%" y1="7.443%" y2="100%" id="a">
      <stop stop-color="#FC9D48" offset="0%"/>
      <stop stop-color="#FF578C" offset="100%"/>
    </linearGradient>
  </defs>
  <g fill="none" fill-rule="evenodd">
    <circle fill="#FFF" cx="40.5" cy="40.5" r="38.5"/>
    <path d="M54.52331 39.587629l5.12242 13.93501c.279696.693831.42114 1.527266.560456 2.363844 0 .695925-.138254 1.528313-.560457 2.225294-.441613.57624-.960356 1.090714-1.54205 1.529361-.704026.417765-1.404862.555266-2.246077.555266-2.105698.14066-4.069952-1.2512-4.630407-3.198326l-1.966381-5.98099H31.160326l-1.964254 5.842434c-.560456 2.085682-2.52471 3.477542-4.630408 3.336882-1.263417 0-2.385393-.416717-3.368052-1.2512-.840151-.833427-1.403798-1.947126-1.403798-3.058721.14038-.974087.281824-1.80857.563647-2.363844l5.235868-13.93501h-2.187143c-1.079382 0-1.962887-.927835-1.962887-2.061856 0-1.13402.883505-2.061856 1.962887-2.061856h3.736564l.61977-1.649484h-4.356334c-1.079382 0-1.962887-.927835-1.962887-2.061856 0-1.13402.883505-2.061855 1.962887-2.061855h5.905755l3.954082-10.523596c.560455-1.528314 1.544177-2.781617 2.66509-3.754656 1.123038-.974087 2.667216-1.391851 4.21033-1.391851 1.542051 0 3.087293.417765 4.208204 1.391851 1.264482.97304 2.106761 2.3649 2.667217 3.754656l3.868407 10.523596h6.533286c1.079381 0 1.962886.927835 1.962886 2.061855s-.883505 2.061856-1.962886 2.061856H52.40112l.60634 1.649484h4.411097c1.079381 0 1.962886.927836 1.962886 2.061856s-.883505 2.061856-1.962886 2.061856H54.52331zM80 40c0 22.09158-17.909474 40-40 40C17.908421 80 0 62.09158 0 40S17.908421 0 40 0c22.090526 0 40 17.90842 40 40zm-4.948454-.412371c0-19.585468-15.878447-35.463918-35.463917-35.463918-19.586513 0-35.463918 15.877402-35.463918 35.463918 0 19.586515 15.877405 35.463917 35.463918 35.463917 19.58547 0 35.463917-15.877402 35.463917-35.463917zm-35.12267-16.494846l-6.114443 18.14433h12.371134l-6.25669-18.14433z" fill="url(#a)"/>
  </g>
</svg>
