<svg width="80" height="80" xmlns="http://www.w3.org/2000/svg">
  <defs>
    <linearGradient x1="95.205735%" y1="15.994431%" x2="15.821872%" y2="75.015719%" id="a">
      <stop stop-color="#01C1D2" offset="0%"/>
      <stop stop-color="#009EB5" offset="22.487436%"/>
      <stop stop-color="#007BB7" offset="58.417837%"/>
      <stop stop-color="#384D78" offset="86.791684%"/>
      <stop stop-color="#483B6B" offset="100%"/>
    </linearGradient>
  </defs>
  <g fill="none" fill-rule="evenodd">
    <circle fill="#2C83BB" cx="40" cy="40" r="40"/>
    <g transform="translate(15 15)">
      <path d="M1.249544 5.145063C7.254137 1.71502 14.871116 0 24.10048 0s16.846342 1.71502 22.850935 5.145063c.800647.457359 1.271315 1.326842 1.21449 2.243574l-1.236588 19.948959c-.508035 8.195764-4.893026 15.666203-11.818284 20.134089l-9.68931 6.251134c-.80372.518528-1.838765.518528-2.642487 0l-9.689308-6.251134c-6.92526-4.467886-11.31025-11.938325-11.818285-20.13409L.035055 7.388638c-.056826-.916732.413842-1.786215 1.21449-2.243574z" transform="translate(.883002 .933333)" fill="url(#a)"/>
      <path d="M1.70934 5.345185C7.853597 1.83536 15.614905.087843 24.98348.087843c9.368576 0 17.129884 1.747518 23.274142 5.257342 1.080874.617434 1.716276 1.791237 1.63956 3.028825l-1.236585 19.94896c-.524621 8.463339-5.052772 16.177673-12.204127 20.791426l-9.68931 6.251134c-1.085023.700011-2.482334.700011-3.567358 0l-9.689308-6.251135C6.359139 44.500642 1.830988 36.786308 1.306366 28.32297L.06978 8.37401c-.076715-1.237588.558687-2.41139 1.63956-3.028825z" stroke="#FFF" stroke-width="1.699779"/>
      <path d="M1.975717 5.355835L24.00441 44.997703c.324416.583805 1.063137.795442 1.64998.472706.201848-.111007.367738-.276913.478254-.4783L47.991171 5.160784" stroke="#FFF" stroke-width="1.214128"/>
      <path d="M3.675497 37.972217L24.566838.820174c.19642-.349303.64029-.474064.99141-.27866.120331.066965.219088.166528.284793.287117l20.326938 37.306272" stroke="#FFF" stroke-width="1.214128"/>
      <ellipse fill="#FFF" fill-rule="nonzero" cx="37.913908" cy="23.157648" rx="2.671082" ry="2.657255"/>
      <ellipse fill="#FFF" fill-rule="nonzero" cx="25.044151" cy="45.985883" rx="2.671082" ry="2.657255"/>
      <ellipse fill="#FFF" fill-rule="nonzero" cx="11.567329" cy="23.157648" rx="2.671082" ry="2.657255"/>
      <path d="M6.225166 42.013846c1.797251.421715 8.126544 1.947035 18.987877 4.575959l18.892918-4.952157" stroke="#FFF" stroke-width="1.214128"/>
      <path d="M24.983444 13.686506c-.767934 0-1.439876.675662-1.439876 1.447847v5.308775l-7.67934 4.82616.823273 1.812202 6.856067-2.294818v5.308774l-1.919835 1.447848v1.447848l3.359711-.965232 3.359711.965232v-1.447848l-1.919835-1.447848v-5.308774l6.738457 2.41596.940883-1.933345-7.67934-4.826159v-5.308775c0-.772185-.671942-1.447847-1.439876-1.447847z" fill="#FFF" fill-rule="nonzero"/>
    </g>
  </g>
</svg>
