<svg width="80" height="80" viewBox="0 0 80 80" xmlns="http://www.w3.org/2000/svg">
  <title>
    art-maecenas
  </title>
  <g fill="none" fill-rule="evenodd">
    <circle fill="#4D4D4F" cx="40" cy="40" r="40"/>
    <path d="M63.899797 57.914264H47.25176c-.02942-.08057-.058838-.161357-.088258-.242143.291318-.14614.569364-.33107.87705-.42857.417844-.13243.86179-.18621 1.288923-.294 2.42411-.61285 3.547576-1.94464 3.52966-4.38985-.030527-4.14021-.132278-8.27978-.20815-12.41935-.078967-4.31764-.156386-8.63528-.251943-12.95271-.0146-.66021-.122987-1.31871-.443724-2.03635-.71248 1.38622-1.43071 2.76965-2.136332 4.15886-2.682028 5.28129-5.34105 10.57372-8.05648 15.83872-.491944.95422-.562064 1.73186.052867 2.67022.90625 1.383647 1.66872 2.856 2.48649 4.293647.187575.32936.351704.671143.526672 1.00693-.072553.07414-.145328.14786-.218323.222-.237788-.13393-.518046-.226286-.706507-.408215-1.379834-1.33157-3.092793-1.843716-4.97541-2.056716-.45412-.05143-1.049364-.374783-1.265696-.745283-3.98865-6.8325-7.93505-13.68771-11.87481-20.546783-.66647-1.16014-1.26017-2.3595-1.88749-3.54086-.15064.021218-.30127.042218-.45191.063218 0 1.548.01106 3.096-.00199 4.643786-.03208 3.78107-.06194 7.56214-.1179 11.342783-.04336 2.925218-.15042 5.84957-.17409 8.77457-.00686.848148.12232 1.707.28269 2.54422.38577 2.01557 1.67602 3.18043 3.73626 3.59057.7242.144 1.43558.347788 2.15292.52436-.01924.113785-.03827.22757-.05729.341356H16.09312c-.030965-.06129-.062154-.12236-.093122-.18343.32494-.15386.635723-.397075.97703-.44786 3.567485-.529286 4.89069-3.044786 5.157457-6.152357.085383-.99493.144443-1.99393.165678-2.992073.119668-5.63593.218986-11.2725.33777-16.90843.026322-1.24779.143778-2.49429.14599-3.74143.003982-2.25836-.983004-3.51022-3.21025-4.158-.881694-.2565-1.77069-.48986-2.656146-.73393.0146-.13693.028976-.27407.043575-.411216.321622-.0405.643023-.11486.964645-.115713 2.653494-.007284 5.308536.04457 7.96026-.02314.92328-.02357 1.413677.32078 1.824442 1.04743 2.37102 4.19357 4.76372 8.37578 7.15354 12.55928 1.7656 3.09086 3.53696 6.178714 5.31097 9.26507.11834.20636.28136.3885.49703.68143.19598-.327212.34993-.552.47159-.792212 3.64512-7.209 7.30153-14.41264 10.91015-21.63857.41607-.83336.91797-1.134 1.85917-1.11686 2.83686.051646 5.67528.013075 8.51325.01929.3068.000645.61338.0645.98632.36386-.32207.166712-.62799.3825-.96996.48857-.52314.162-1.07525.233783-1.60811.369212-2.44822.621643-3.5697 1.826786-3.55399 4.2435.02765 4.28036.20925 8.559643.31543 12.839786.07188 2.88835.12188 5.77735.18757 8.665922.03074 1.3545.01637 2.713286.12719 4.062.17165 2.0895 1.36921 3.346715 3.61327 3.931286.81113.211283 1.62603.409283 2.43937.61307-.02124.103713-.04225.20743-.06349.31114" fill="#C29D47"/>
  </g>
</svg>
