<svg width="80" height="80" viewBox="0 0 80 80" xmlns="http://www.w3.org/2000/svg">
  <title>
    ary-block-array
  </title>
  <g fill="none" fill-rule="evenodd">
    <circle fill="#000" cx="40" cy="40" r="40"/>
    <g fill="#FFF" fill-rule="nonzero">
      <path d="M63.26087 54.625l-22.173913 7.8c-.57971.216667-1.195653.216667-1.73913 0l-22.246378-7.8c-1.050724-.361111-1.73913-1.372222-1.73913-2.455556v3.141667c0 1.119445.688406 2.094445 1.73913 2.455556l22.173913 7.8c.57971.216666 1.195652.216666 1.73913 0l22.173914-7.8c1.050724-.361111 1.73913-1.372223 1.73913-2.455556v-3.141667C65 53.28889 64.311594 54.26389 63.26087 54.625z"/>
      <path d="M63.26087 49.063889l-22.173913 7.8c-.57971.216667-1.195653.216667-1.73913 0l-22.246378-7.8c-1.050724-.397222-1.73913-1.372222-1.73913-2.491667V49.75c0 1.119444.688406 2.094444 1.73913 2.455556l22.173913 7.8c.57971.216666 1.195652.216666 1.73913 0l22.173914-7.8c1.050724-.361112 1.73913-1.372223 1.73913-2.455556v-3.141667C65 47.691667 64.311594 48.666667 63.26087 49.06389z"/>
      <path d="M63.26087 43.466667l-22.173913 7.8c-.57971.216666-1.195653.216666-1.73913 0l-22.246378-7.8c-1.050724-.361111-1.73913-1.372223-1.73913-2.455556v3.141667c0 1.119444.688406 2.094444 1.73913 2.455555l22.210145 7.836111c.57971.216667 1.195652.216667 1.73913 0l22.173914-7.8c1.050724-.36111 1.73913-1.372222 1.73913-2.455555v-3.141667c.036232 1.047222-.652174 2.058334-1.702898 2.419445z"/>
      <path d="M15.289855 24.797222v13.794445c0 1.119444.688406 2.094444 1.73913 2.455555l22.173914 7.8c.57971.216667 1.195652.216667 1.73913 0l22.246377-7.8c1.050724-.36111 1.73913-1.372222 1.73913-2.455555V24.797222c0-1.119444-.688406-2.094444-1.73913-2.455555L40.97826 14.505556c-.57971-.216667-1.195652-.216667-1.73913 0l-22.210145 7.83611c-1.050725.361112-1.73913 1.336112-1.73913 2.455556z"/>
    </g>
  </g>
</svg>
