<svg width="80" height="80" viewBox="0 0 80 80" xmlns="http://www.w3.org/2000/svg">
  <title>
    ast-airswap
  </title>
  <defs>
    <linearGradient x1="0%" y1="50%" y2="50%" id="a">
      <stop stop-color="#0006F8" offset="0%"/>
      <stop stop-color="#00A6FB" offset="100%"/>
    </linearGradient>
  </defs>
  <g fill="none" fill-rule="evenodd">
    <circle fill="#FFF" cx="40" cy="40" r="40"/>
    <path d="M48.222478 59.437275c-2.564475 2.555664-5.13631 5.103947-7.689743 7.670435-.3612.363127-.59186.43152-.984714.023864-1.29119-1.340075-2.62312-2.641033-3.93713-3.959212-.12367-.12424-.23115-.264718-.45223-.520088 4.69806-.574212 9.10682-1.74601 13.3632-3.564348-.09938.11686-.19115.241346-.29936.34935m-17.0444 1.59249c-.007116.08414-.014232.168526-.02135.252665.12956.14663.252007.3004.390157.43817 2.624103 2.6152 5.250414 5.22868 7.876234 7.84241.58327.58061.58474.5816 1.157704.00935 2.085737-2.0833 4.15307-4.1853 6.25942-6.2472 3.36368-3.292985 6.786743-6.52742 9.62359-10.313433.11067-.147612.20931-.30408.313597-.45637-.042206-.061012-.084166-.122025-.12637-.182793-7.73465 5.116495-16.02386 8.597934-25.472983 8.657225M66.95804 41.3641c-6.024836 4.94969-12.90605 7.98854-20.591867 9.15886-2.093344.318596-4.224722.385514-5.307097.479002-10.620326-.07479-19.230738-2.986692-26.865762-8.78737-.439232-.33385-.84043-.718626-1.283096-1.047555-.421074-.312693-.259613-.541492.030182-.826384 1.79545-1.76397 3.585258-3.533842 5.369913-5.308882 5.078892-5.05105 10.155575-10.10456 15.231032-15.15906 1.986603-1.97825 3.978113-3.95183 5.942878-5.95173.402915-.41011.64167-.45071 1.072314-.0182 4.37563 4.39467 8.76991 8.77089 13.164925 13.14612 4.42397 4.40377 8.855302 8.80041 13.282463 13.20098.584497.58135.581552.59857-.045886 1.11423m2.80985-.82983c-.40022-.3491-.75946-.74495-1.13612-1.12087L40.58696 11.43642c-.58229-.580855-.58327-.58061-1.158933-.00689-3.8142 3.80053-7.62398 7.605486-11.44309 11.40085-5.88055 5.843975-11.76331 11.68574-17.660548 17.51323-.43531.430044-.44169.698453.03656 1.057397 2.09162 1.570597 4.0743 3.31267 6.27708 4.704655 7.10819 4.49135 14.9243 6.64354 22.26045 6.702093 5.445-.002952 9.73082-.653185 13.929774-1.91527 4.244107-1.275865 8.215105-3.142424 11.857537-5.65897 1.762327-1.217557 3.384294-2.639065 5.07227-3.965363.31507-.24774.3266-.45735.009814-.73388m-26.34408-2.02081c4.951786.459074 9.654264 1.76889 14.105226 3.967084.009323.08562.018893.171235.028463.25685-1.06986.49056-2.109296 1.070925-3.2167 1.45201-2.141438.737327-4.313304 1.390758-6.492285 2.008024-.396534.11243-.956003.007626-1.325546-.201-3.794076-2.143086-7.760657-3.866707-11.97679-4.970848-1.87201-.49032-3.77641-.855908-5.76277-1.299975 4.85339-1.25323 9.705304-1.66974 14.6404-1.212142m-11.60062-1.34721c-3.19584.516644-11.23844 3.04746-11.74785 3.90361.199984.014763.37764.034444.55554.040103 1.44824.046253 2.91071-.02288 4.34177.158438 2.749736.348368 5.51567.68714 8.212894 1.30342 4.629106 1.057398 8.959832 2.93183 13.06162 5.33693.30108.176642.738103.270376 1.076974.20887 4.78002-.866485 9.21773-2.630454 13.33743-5.204815.15042-.09398.283905-.21527.572963-.43718-9.271956-5.36079-19.02977-6.98723-29.41134-5.30937" fill="url(#a)"/>
  </g>
</svg>
