<svg width="80" height="80" xmlns="http://www.w3.org/2000/svg" xmlns:xlink="http://www.w3.org/1999/xlink">
  <defs>
    <path id="a" d="M0 0h49.794385v53.818147H0z"/>
  </defs>
  <g fill="none" fill-rule="evenodd">
    <circle fill="#000" cx="40" cy="40" r="40"/>
    <g transform="translate(15 11)">
      <mask id="b" fill="#fff">
        <use xlink:href="#a"/>
      </mask>
      <path d="M25.147941 42.092232c.741979-.034147 1.680214-.037588 2.609893-.127853 3.52139-.342529 6.96631-.989735 10.099733-2.733882 3.433422-1.911176 5.204278-4.789853 4.795722-8.719147-.198663-1.910118-.524064-3.871059-1.199466-5.658088-3.249465-8.601353-13.80508-12.994677-22.99893-9.68956C11.124679 17.798586 6.645535 24.56235 7.199545 32.27191c.275936 3.841941 2.73369 6.090618 6.038236 7.578794 3.713903 1.672941 7.676738 2.178794 11.91016 2.24153M23.748476 6.977408c0-1.757118.021123-3.467118-.008556-5.176324-.01631-.93097.174866-1.834411 1.247059-1.800264.956417.03044 1.166577.890735 1.147058 1.781205-.037433 1.710795-.010962 3.422912-.010962 5.067795 2.169786.428029 4.24385.704117 6.240107 1.2555 6.498396 1.794705 11.248396 5.726647 14.174064 11.761411 2.665508 5.498206 3.47754 11.368589 3.208289 17.377147-.30214 6.744706-4.253744 10.990589-10.175669 13.70303-3.139037 1.437618-6.475133 2.201559-9.901871 2.581941-6.903744.765794-13.614706.078618-19.956685-2.869941C2.629225 47.366232-.764893 41.39579.145 33.708997c.412834-3.487765.775668-7.057588 1.835294-10.379118C5.095 13.566732 12.118797 8.332174 22.318262 7.152115c.433422-.05003.866043-.105618 1.430214-.174706" fill="#FFF" mask="url(#b)"/>
    </g>
  </g>
</svg>
