<svg width="80" height="80" viewBox="0 0 80 80" xmlns="http://www.w3.org/2000/svg">
  <title>
    atn-atn
  </title>
  <defs>
    <linearGradient x1="0%" y1="50%" y2="50%" id="a">
      <stop stop-color="#676565" offset="0%"/>
      <stop offset="100%"/>
    </linearGradient>
  </defs>
  <g fill="none" fill-rule="evenodd">
    <circle fill="#FFF" cx="40" cy="40" r="40"/>
    <path d="M9.375023 30.719177c-.048372.711515.311396 1.191287.9 1.502604.564186.298752 1.130233.232208 1.638838-.15496.754883-.574704 1.489302-1.176862 2.250697-1.74249 2.816977-2.092897 5.779535-3.964055 8.8-5.746333 3.253256-1.919554 6.581163-3.702064 9.943488-5.421287.344652-.176366.692326-.345985 1.04-.516534.693024-.339936 1.353489-.303173 1.948373.20894.73372.632406 1.471395 1.26202 2.173953 1.927931.914419.866475.701163 2.18201-.434651 2.74345-1.614186.797372-3.246512 1.558911-4.856512 2.364892-3.482093 1.74342-6.871628 3.654831-10.194418 5.68537-2.562326 1.565427-5.080698 3.197397-7.546047 4.911734-2.894418 2.012623-5.724418 4.111103-8.447442 6.35105-1.285581 1.057266-2.547907 2.143152-3.815349 3.222291-.70372.599134-1.340465.690807-2.06907.251287-.440464-.265713-.740697-.661722-.70372-1.1864.04279-.614026.15279-1.22549.266744-1.831605.335581-1.784371.683023-3.566648 1.034651-5.347762.254419-1.289243.529768-2.574297.783489-3.863772.402558-2.047525.791627-4.097842 1.19372-6.1456.253024-1.289707.523954-2.575925.778838-3.865168.359535-1.820203.708604-3.6425 1.067442-5.462703.51186-2.598727 1.030465-5.196292 1.54279-7.79502.448372-2.276475.891628-4.554113 1.337907-6.831054.15628-.796673.32721-1.590322.470698-2.389089.224186-1.24806 1.650232-1.767386 2.706744-.989327C17.14293 4.987607 23.12014 9.348137 29.09014 13.717974c.406511.297356.818604.5875 1.21907.892534 1.056976.804817 1.002092 2.138268-.127908 2.84699-.721395.452783-1.463488.872758-2.196511 1.307159-.183256.108658-.368838.212896-.550698.324114-.673256.412297-1.319767.356688-1.950465-.098654-1.696047-1.224326-3.393489-2.446792-5.090698-3.66949-1.618604-1.166158-3.237442-2.331851-4.856511-3.497312-.078605-.05654-.161163-.107495-.24-.163569-1.059768-.751302-2.291396.003025-2.491163 1.01143-.195349.985372-.387675 1.971674-.579768 2.957976-.31372 1.611495-.630697 3.222525-.93814 4.835183-.401627 2.106857-.791394 4.21604-1.19465 6.322664-.210698 1.100311-.443256 2.196668-.657442 3.296282-.040465.20801-.041163.423698-.060233.635896zm39.482651-1.218347c-.016279.854143-.579302 1.468633-1.45093 1.62243-1.56.27502-3.124651.530728-4.673953.857867-2.780465.587034-5.528838 1.304366-8.243256 2.151297-2.437907.760609-4.834651 1.63197-7.196977 2.600589-1.06907.437891-1.979767.005351-2.324186-1.090074-.202093-.642644.014419-1.294827.617442-1.72062.94814-.669633 1.903488-1.32996 2.871628-1.970742 3.149767-2.084752 6.425116-3.955678 9.780698-5.685604 1.186046-.611232 2.397674-1.172208 3.596279-1.75901.653953-.319925 1.279302-.27246 1.855116.167758 1.522093 1.163831 3.039302 2.333945 4.551395 3.510341.421396.327837.629303.775035.616744 1.315768zm.04121 9.606986c.167907-.014891.300465-.036065.433023-.036297.151628 0 .303256.018614.535814.034668-.476047 1.308555-1.015814 2.539164-1.512558 3.78606-.499535 1.253178-1.015349 2.500074-1.575814 3.877034-.726977-1.665242-1.404186-3.215777-2.126512-4.869851-.751395 1.621732-1.363953 3.202282-2.076046 4.774455h-1.013954c-.018604-.016752-.036744-.026525-.044418-.041648-.00814-.016288-.014419-.041184-.007907-.05654 1.02907-2.398629 2.05907-4.796792 3.090465-7.19449.027442-.063753.069767-.121223.15907-.273624.703023 1.611263 1.372093 3.145277 2.057674 4.71652.246744-.156357.283953-.399733.366977-.597505.478837-1.141728.941395-2.290203 1.412093-3.435188.094418-.229649.200465-.454644.302093-.683594zm-14.475256 7.56807h-1.27814c-.144883-.594247-.289767-1.188495-.441628-1.810663H29.852c-.401163.583544-.825814 1.201292-1.244419 1.809965h-1.147907c-.005813-.279208.161396-.45348.285582-.634267 1.456977-2.122911 2.92-4.241401 4.383953-6.359426.116512-.168688.25186-.324346.446744-.573074.647908 2.555218 1.217908 5.027604 1.847675 7.567465zm-1.933023-2.901203c-.088838-.426257-.162791-.77992-.236047-1.133584-.073953-.357386-.146977-.715005-.222558-1.082396-.47814.732223-.945349 1.447926-1.444884 2.212723.666047.028153 1.253256.028851 1.903489.003257zm6.843534-3.355125c-.480697 2.137802-.941395 4.187188-1.41279 6.283341h-1.197907c.397907-2.117559.948605-4.134836 1.34186-6.259143-.656279-.005352-1.244883-.010238-1.894883-.01559.092325-.38996.165814-.701276.243255-1.02888h5.07186c-.08372.352034-.156976.660326-.242557 1.020272h-1.908838z" transform="translate(17 13)" fill="url(#a)"/>
  </g>
</svg>
