<?xml version="1.0" encoding="UTF-8"?>
<svg width="105px" height="105px" viewBox="0 0 105 105" version="1.1" xmlns="http://www.w3.org/2000/svg" xmlns:xlink="http://www.w3.org/1999/xlink">
    <!-- Generator: Sketch 49.2 (51160) - http://www.bohemiancoding.com/sketch -->
    <title>Group</title>
    <desc>Created with Sketch.</desc>
    <defs></defs>
    <g id="Page-1" stroke="none" stroke-width="1" fill="none" fill-rule="evenodd">
        <g id="Group">
            <circle id="Oval" fill="#0057FF" cx="52.5" cy="52.5" r="52.5"></circle>
            <path d="M40.832,65.2 L35.432,65.2 L33.92,60.664 L23.876,60.664 L22.364,65.2 L17,65.2 L25.82,40 L31.976,40 L40.832,65.2 Z M28.916,45.724 L25.46,56.02 L32.372,56.02 L28.916,45.724 Z M52.676,65.704 C49.868,65.704 47.564,64.912 45.764,63.328 C43.964,61.744 43.064,59.62 43.064,56.956 L43.064,40 L47.996,40 L47.996,56.56 C47.996,59.188 49.472,60.844 52.676,60.844 C55.88,60.844 57.356,59.188 57.356,56.56 L57.356,40 L62.324,40 L62.324,56.956 C62.324,59.62 61.424,61.744 59.624,63.328 C57.824,64.912 55.52,65.704 52.676,65.704 Z M66.788,40 L76.796,40 C80.252,40 83.132,41.224 85.436,43.636 C87.776,46.048 88.928,49.036 88.928,52.6 C88.928,56.164 87.776,59.152 85.436,61.564 C83.132,63.976 80.252,65.2 76.796,65.2 L66.788,65.2 L66.788,40 Z M71.756,60.448 L76.796,60.448 C78.992,60.448 80.756,59.728 82.124,58.288 C83.492,56.812 84.176,54.94 84.176,52.6 C84.176,50.26 83.492,48.388 82.124,46.948 C80.756,45.472 78.992,44.752 76.796,44.752 L71.756,44.752 L71.756,60.448 Z" id="AUD" fill="#FFFFFF"></path>
        </g>
    </g>
</svg>