<svg width="80" height="80" viewBox="0 0 80 80" xmlns="http://www.w3.org/2000/svg" xmlns:xlink="http://www.w3.org/1999/xlink">
  <title>
    aur-auroracoin
  </title>
  <defs>
    <path id="a" d="M0 .102695v79.613617h79.912598V.102695H0z"/>
  </defs>
  <g fill="none" fill-rule="evenodd">
    <g transform="translate(0 .18)">
      <mask id="b" fill="#fff">
        <use xlink:href="#a"/>
      </mask>
      <path d="M32.872028 40.27461c0-2.920284.0484-5.563972-.024768-8.20454-.0279-1.0017.322562-1.485105 1.213096-1.92851 6.732527-3.352907 13.43459-6.76624 20.144057-10.165106.363843-.184114.707473-.407943 1.102064-.637163-1.056513-1.975316-2.052385-3.83716-3.082135-5.76227-6.460926 3.268088-12.806264 6.478017-19.39388 9.8105v-8.37674H26.39516v51.211916h6.476868v-1.59915c0-5.106098.040712-10.21248-.030462-15.31773-.016513-1.19092.30235-1.832907 1.41096-2.381276 6.572812-3.24908 13.102065-6.584967 19.645552-9.892768.454093-.22922.90363-.467234 1.429467-.739574-1.067047-1.999434-2.078008-3.894186-3.104342-5.817023-6.444982 3.26383-12.765552 6.464398-19.351174 9.799433m7.094943 39.441702C17.955018 79.71234.048683 61.90837 0 39.978156-.0484 17.985248 17.86363.105248 39.94733.102696c22.09082-.00284 39.999148 17.85617 39.96527 39.855317-.033594 21.92766-17.952456 39.762553-39.945623 39.758298" fill="#016C5E" mask="url(#b)"/>
    </g>
    <path d="M32.872028 40.455886c6.585623-3.335035 12.906193-6.535602 19.351175-9.799432 1.026334 1.922837 2.037295 3.81759 3.104342 5.81702-.525837.272342-.975374.510356-1.429467.739576-6.543487 3.3078-13.07274 6.643688-19.64555 9.892766-1.108613.548368-1.427475 1.190354-1.410962 2.381276.071174 5.105248.030462 10.21163.030462 15.31773v1.59915H26.39516V15.192057h6.435303v8.376737c6.587615-3.332482 12.932953-6.54241 19.39388-9.810496 1.02975 1.925106 2.02562 3.78695 3.082134 5.76227-.39459.22922-.73822.45305-1.102064.637162-6.709466 3.398866-13.41153 6.8122-20.144057 10.165107-.890534.443404-1.240997.926808-1.213096 1.92851.073167 2.640568.02477 5.284256.02477 8.20454" fill="#FBFCFC"/>
  </g>
</svg>
