<svg width="81" height="80" viewBox="0 0 81 80" xmlns="http://www.w3.org/2000/svg">
  <title>
    aura-aurora-dao
  </title>
  <defs>
    <radialGradient cx="100.292981%" cy="16.681608%" fx="100.292981%" fy="16.681608%" r="261.852343%" gradientTransform="matrix(1 0 0 .46895 0 .088588)" id="a">
      <stop stop-color="#785AC8" offset="0%"/>
      <stop stop-color="#47A1EE" offset="49%"/>
      <stop stop-color="#18DFC6" offset="100%"/>
    </radialGradient>
    <linearGradient x1="37.329751%" y1="89.031206%" x2="63.437871%" y2="41.243596%" id="b">
      <stop stop-color="#47A1EE" offset="0%"/>
      <stop stop-color="#18DFC6" offset="100%"/>
    </linearGradient>
    <radialGradient cx="89.492031%" cy="-10.892146%" fx="89.492031%" fy="-10.892146%" r="160.829823%" gradientTransform="matrix(1 0 0 .58984 0 -.044675)" id="c">
      <stop stop-color="#18DFC6" offset="0%"/>
      <stop stop-color="#47A1EE" offset="51%"/>
      <stop stop-color="#785AC8" offset="100%"/>
    </radialGradient>
  </defs>
  <g fill="none">
    <path d="M60.730054 5.166461c-12.869772-6.885797-28.10272-6.885797-40.972492 0-5.90779 3.290546-10.849281 8.209267-14.293074 14.227212C1.984208 25.56011.189208 32.613596.276413 39.780322.18834 47.015739 1.98207 54.139339 5.464488 60.384179c3.427133 6.075341 8.369093 11.053537 14.293074 14.397877 12.852686 6.960076 28.119807 6.960076 40.972492 0 5.949737-3.329391 10.914284-8.30974 14.352197-14.397877 3.481025-6.245448 5.274652-13.368634 5.188076-20.603857.085678-7.166526-1.709213-14.219586-5.188076-20.386649-3.45758-6.028282-8.420916-10.948395-14.352197-14.227212z" fill="#FFF"/>
    <path d="M45.813544 26.585294c1.26145 3.122172 4.300395 6.619005 7.511357 10.381222 4.372069 5.120362 9.417866 11.021267 10.550303 17.015837.015417.092777.080424.166435.164939.186888.084514.020453.17205-.016289.222097-.093223 4.673096-6.821946 2.752253-11.27104.745402-15.938688-2.006852-4.667647-4.300396-10.084615 2.06419-16.188461-.539959-1.431054-1.172264-2.818685-1.892175-4.152489-2.396614-4.34053-5.659528-8.037998-9.546877-10.818326-7.15299 4.933032-12.72917 12.551132-9.819236 19.60724z" fill="url(#a)" transform="translate(5 5)"/>
    <path d="M1.20411 39.339366c.559052 1.63914 5.217814 13.362896 25.587353 13.706335 7.58303.124887 14.047957 3.418779 16.871884 8.601584 1.161077 2.065967 1.664863 4.490946 1.433465 6.9.005551.086461.06484.157485.143346.17172.235846-.007725.464703-.088996.659394-.234163 2.307879-1.561086 4.056706-5.104751 2.522899-9.647512-1.433466-4.91742-5.97755-9.366515-12.671832-12.800905h-.086008c-1.734492-.967873-3.597997-1.888914-5.533175-2.71629-.516047-.218551-.98909-.468325-1.433465-.702488h-.143346c-6.221239-3.777828-9.833571-9.007466-10.736654-15.61086v-.093665c-.688063-6.978054 1.791831-15.454751 6.651278-22.69819.61639-.889819 1.275784-1.732805 1.935178-2.52896-3.190042.731662-6.269033 1.950976-9.145507 3.62172-4.926824 2.853339-9.067834 7.08285-11.998103 12.254525C2.394704 22.970107.909867 29.11483.960422 35.358597c.071673 1.311312.129011 2.7319.243689 3.98077z" fill="url(#b)" transform="translate(5 5)"/>
    <path d="M35.549934.842986c-.903083 0-1.806166.156109-2.694914.296607-6.149566 5.214027-11.883426 16.51629-10.808327 25.554977.673729 5.63552 3.91336 9.756788 9.64722 12.238914 18.104664 7.80543 21.272622 17.43733 21.501976 22.479638.0585 1.04447.00074 2.092812-.172016 3.122172-.021373.094196.012811.19299.085951.2484.07314.05541.170083.055956.243746.001374 1.407812-.922301 2.745244-1.96639 3.999368-3.122172 5.432833-5.854073.659394-12.34819-7.167325-21.574208-3.468986-4.058824-6.737286-7.883484-8.285428-11.645702-2.551568-6.244344-1.333123-15.876244 9.532542-24.056334-3.899676-1.96575-8.087692-3.165424-12.370803-3.543666h-1.433465c-.67373-.062443-1.433466-.046832-2.078525 0z" fill="url(#c)" transform="translate(5 5)"/>
  </g>
</svg>
