<svg width="80" height="80" viewBox="0 0 80 80" xmlns="http://www.w3.org/2000/svg" xmlns:xlink="http://www.w3.org/1999/xlink">
  <title>
    avt-aventus
  </title>
  <defs>
    <path id="a" d="M.000066.024157h61.536442v21.759405H.000066z"/>
    <path id="c" d="M32.10593.027166v21.75711H.07466V.027166h32.03127z"/>
  </defs>
  <g fill="none" fill-rule="evenodd">
    <circle fill="#0E0B16" cx="40" cy="40" r="40"/>
    <g transform="translate(8 26.192)">
      <mask id="b" fill="#fff">
        <use xlink:href="#a"/>
      </mask>
      <path d="M61.536508 21.747518c-6.41567.00647-12.831338.002804-19.246566.03602-.61087.003235-.926455-.310373-1.288828-.66302-3.0592-2.976687-6.12215-5.949922-9.18444-8.92402-.372966-.381333-.74527-.76245-1.117573-1.143784-2.80518-2.832824-5.61699-5.659177-8.40871-8.504294-.49898-.508373-.68303-.02459-.928.218058C15.61055 8.466635 9.86446 14.1724 4.11748 19.877518c-.58902.619882-1.17782 1.23955-1.76684 1.85943-.78345-.02847-1.56712-.056725-2.35057-.085195.488384-.52153.96066-1.058373 1.467805-1.561784C8.067597 13.53893 14.67968 6.99975 21.261528.43167c.538924-.537706.79073-.548706 1.33098-.001726C25.654135 3.52914 28.76277 6.58412 31.85397 9.65312c.45131.404845.903944.81055 1.35658 1.21604 2.962316 2.97949 5.918233 5.96502 8.901296 8.92445.191337.189806.59255.24847.896.248904 5.576606.006254 11.152993-.005608 16.72938-.01359.599833.572864 1.199668 1.145727 1.799282 1.71859" fill="#F2F0F3" mask="url(#b)"/>
    </g>
    <g transform="translate(39.78 26.192)">
      <mask id="d" fill="#fff">
        <use xlink:href="#c"/>
      </mask>
      <path d="M29.757197 21.747518c-.599614-.572863-1.199448-1.145726-1.799062-1.71859-5.77324-5.775-11.550896-11.545685-17.313324-17.330822-.58593-.588177-.80904-.043353-1.11492.25494-2.703 2.635256-5.40005 5.276766-8.09865 7.91612-.45263-.405492-.90527-.811197-1.35658-1.21604C3.16454 6.630496 6.27472 3.627496 9.32509.56734c.689655-.69192 1.058648-.742822 1.785158-.01488 6.623338 6.63688 13.292138 13.230626 19.941518 19.842705.378262.37594.704.802137 1.054234 1.204823-.5632.061687-1.125296.132863-1.6896.17945-.217158.01812-.439172-.019626-.6592-.03192" fill="#5F5EEC" mask="url(#d)"/>
    </g>
    <path d="M10.350742 47.928522c.5888-.619883 1.17782-1.239765 1.767062-1.859863.427917.05003.855614.14386 1.28331.14472 5.030842.00798 10.062125-.01596 15.092745.01876.81809.0056 1.35812-.28147 1.90587-.82716 2.74803-2.73792 5.52938-5.44371 8.29925-8.16071.37252.38112.74482.76245 1.11757 1.14378-3.08436 3.11731-6.16453 6.23937-9.26654 9.34029-.17368.173626-.52877.245234-.79934.24502-6.46665-.004963-12.9333-.02653-19.39995-.044864" fill="#5F5EEC"/>
  </g>
</svg>
