<svg width="80" height="80" viewBox="0 0 80 80" xmlns="http://www.w3.org/2000/svg">
  <title>
    axp-axpire
  </title>
  <defs>
    <linearGradient x1="0%" y1="50%" y2="50%" id="a">
      <stop stop-color="#31147E" offset="0%"/>
      <stop stop-color="#0070BF" offset="100%"/>
    </linearGradient>
  </defs>
  <g fill="none" fill-rule="evenodd">
    <circle fill="url(#a)" cx="40" cy="40" r="40"/>
    <g fill="#FFF" fill-rule="nonzero">
      <path d="M34.100673 14h1.485c5.895.183199 11.702596 2.56391 16.009616 6.631793 2.059615 1.93231 3.784326 4.225784 5.076346 6.745202.180865.340226.211153.763328.047596 1.11664-.244039.550468-.889616.894184-1.476346.740646-.395481-.089855-.661154-.41874-.948462-.67958-2.502692-2.331858-5.31952-4.32-8.3475-5.895509-6.11827-3.19202-13.097596-4.704717-19.977404-4.2537-.560769.082004-1.153557-.24252-1.347404-.787754-.259615-.605428.016443-1.389693.631731-1.643554C28.046442 14.765073 31.06577 14.114281 34.100673 14z"/>
      <path d="M56.91048 17.282746c.477693-.211114 1.072212-.070662 1.408847.33063 2.140961 2.477545 3.782596 5.393894 4.795961 8.516996 1.259135 3.856768 1.538654 8.02672.84375 12.023941-.850673 4.94462-3.250384 9.603102-6.773365 13.148433-.46125.45887-1.259135.428336-1.716923-.01832-.430962-.37512-.532212-1.04336-.257885-1.540613 2.873943-6.067367 4.098462-12.904168 3.569712-19.602262-.297692-3.854152-1.18298-7.65945-2.603942-11.249273-.251827-.627238.11423-1.380097.733846-1.609532zm-23.56096 3.18853c.336634-.07328.706153-.095961 1.020288.074152.61875.307948.883557 1.159386.547788 1.767431-.134134.263458-.376442.444912-.632596.57664-5.252885 2.885816-9.794423 7.058385-13.17375 12.031793-2.528654 3.71021-4.406538 7.869694-5.508173 12.23244-.10125.507722-.535673.924717-1.049712.981422-.661153.113408-1.369038-.372505-1.442596-1.057319-.35048-3.77651.192116-7.634152 1.555096-11.169014 1.53952-4.002456 4.134808-7.583554 7.441443-10.287044 3.22875-2.649402 7.142019-4.432536 11.242211-5.1505z"/>
      <path d="M21.085288 38.996155c.680193-.197157 1.463366.271309 1.568077.987528 1.429616 7.873183 5.392212 15.240388 11.115 20.783457 1.851058 1.797965 3.884712 3.403135 6.057693 4.787593.302019.187561.53048.502488.582404.860162.103846.610662-.276058 1.27454-.870577 1.455121-.456923.150049-.918173-.053215-1.362116-.152665-5.310865-1.391438-10.116346-4.645396-13.390096-9.084912-2.739808-3.671825-4.442885-8.122681-4.82625-12.702649-.16875-1.973312-.105577-3.96756.196442-5.92517.073558-.48504.452597-.902908.929423-1.008465z"/>
      <path d="M65.307308 47.993829c.741634-.226818 1.569807.38559 1.61048 1.156769.047597.526042-.318461.941292-.567692 1.363521-2.897308 4.566883-7.329808 8.117448-12.404423 9.916285-3.567115 1.28239-7.430192 1.727302-11.191154 1.264943-2.807308-.341098-5.554038-1.178578-8.080096-2.458352-.383365-.18756-.667212-.577512-.694038-1.01021-.052789-.54.250096-1.107043.752019-1.319903.28298-.130856.602307-.103813.90173-.060194 7.161924.92559 14.566154-.295735 21.09202-3.3979 2.879134-1.36701 5.588654-3.097803 8.038557-5.145266.159231-.136963.339231-.252989.542597-.309693z"/>
    </g>
  </g>
</svg>
