<svg width="80" height="80" viewBox="0 0 80 80" xmlns="http://www.w3.org/2000/svg">
  <title>
    b2b-b2b
  </title>
  <g fill="none" fill-rule="evenodd">
    <circle fill="#213040" cx="40" cy="40" r="40"/>
    <g fill="#00A275" fill-rule="nonzero">
      <path d="M19.642838 36.934955l-1.454005 1.444227h-4.158536v-3.3765h5.61254v1.932273zm0 8.037681h-5.61254v-3.3765h4.158535l1.454005 1.444091v1.93241zm-8.85158-13.186909v16.403864h10.223479l1.867277-1.852637v-3.907363l-2.458765-2.441864 2.458765-2.441863v-3.907228l-1.867277-1.852772-10.223478-.000137zm15.490435-.000136v5.415h3.239177v-2.198046h5.612677v3.031364l-2.56064 2.543046h-2.212724l-4.078352 4.050272v3.562228h12.090892v-3.216819h-7.477895l3.39968-3.376636h2.21286l1.865355-1.8525v-6.10541l-1.86563-1.8525h-10.2254zm39.625538 1.852636l-2.806407 2.787137-2.806133-2.787273v-1.852227l-3.239313-.000137v3.562228l4.671624 4.639909-4.671624 4.639772v3.562228h3.239176v-1.852637l2.806132-2.787273 2.806408 2.787273v1.852637h3.239176V44.6275l-4.671487-4.639773 4.671624-4.639909v-3.56209h-3.239176v1.8525zm-15.243844 3.296728l-1.454005 1.444227h-4.158535v-3.3765h5.61254v1.932273zm0 8.037681h-5.61254v-3.3765h4.158535l1.454005 1.444091v1.93241zm-8.85158-13.186909v16.403864h10.223479l1.867277-1.852637v-3.907363l-2.458627-2.441864 2.458764-2.441863v-3.907228l-1.867277-1.852772-10.223615-.000137z"/>
      <path d="M65.11611 31v2.313l-2.015423 2.001273L61.085675 33.313V31h-4.821144v4.673182l4.344165 4.314545L56.26453 44.302v4.67359l4.821419-.000135v-2.312728l2.015011-2.001272 2.015286 2.001272v2.312864h4.821556V44.302l-4.344165-4.314136 4.344165-4.314546V31H65.11611zm.39556 2.475545v-2.082818h4.030573v4.118182l-4.507826 4.476818 4.507826 4.477091v4.117773H65.51167v-2.082818l-2.410847-2.394546-2.410572 2.394546v2.082818h-4.030298v-4.117637l4.507826-4.47709-4.507826-4.477091v-4.118046h4.030435v2.082818l2.410572 2.394273 2.41071-2.394273zM25.490573 31v6.986182h4.821556v-2.197773h4.030023v1.92l-2.096842 2.082955h-2.213272l-4.541602 4.5105v4.673454H39.16357V44.18691h-6.359176l1.817574-1.805045h2.21286l2.328742-2.312728V33.313L36.83524 31H25.490572zm.39556.392727H36.67103l2.097117 2.082818v6.43091l-2.097255 2.082681h-2.21286l-2.608558 2.5905h6.918673v4.003091H25.886133v-4.117773l4.310114-4.280863h2.21286l2.328605-2.313v-2.47541h-4.821145v2.197774h-4.030434v-6.200728zM10 31v17.975455h11.342334l2.330938-2.312728v-4.558636l-2.131167-2.116364 2.131167-2.116363v-4.558637L21.342334 31H10zm.39556.392727h10.782976l2.099038 2.082955v4.232863l-2.29469 2.279319 2.29469 2.279045v4.232727l-2.099038 2.083091H10.39556v-17.19zm4.030435 4.002955v2.5905h3.59904l1.222242-1.21391v-1.37659h-4.821282zm.395561.392727h4.030298v.821046l-.990618.984h-3.03968v-1.805046zm-.39556 6.200727v2.5905h4.82128v-1.376454l-1.222242-1.214046h-3.599039zm.39556.392728h3.03968l.990618.983863v.821182h-4.030298v-1.805045zM41.020412 31v17.975455h11.342471l2.330801-2.312728v-4.558636l-2.13103-2.116364 2.13103-2.1165v-4.5585L52.362884 31H41.020411zm.395835.392727h10.782838l2.099039 2.082955v4.232863l-2.294829 2.279319 2.294829 2.279045v4.232727l-2.09904 2.083091H41.416248v-17.19zm4.03016 4.002955v2.5905h3.599176l1.222106-1.21391v-1.37659h-4.821282zm.395698.392727h4.03016v.821046l-.990343.984h-3.039817v-1.805046zm-.395698 6.200727v2.5905h4.821282v-1.376454l-1.222105-1.214046h-3.599177zm.395698.392728h3.039817l.990343.983863v.821182h-4.03016v-1.805045z"/>
    </g>
  </g>
</svg>
