<svg width="80" height="80" xmlns="http://www.w3.org/2000/svg">
  <g fill="none" fill-rule="evenodd">
    <circle fill="#FFF" cx="40" cy="40" r="40"/>
    <path d="M56.829932 38.44003c.134723-.154212.286286-.308422.43785-.462633.488371-.53117 1.027264-1.09661 1.532475-1.644914 2.037687-2.15895 3.165993-4.969012 3.165993-7.91615 0-.205615.033681-1.045207.033681-1.165148C61.764166 20.500182 56.122635 15 49.453841 15H28.453876v8.532993H20V62h29.790649c6.618273 0 12.209282-5.928545 12.209282-12.9537.01684-5.020416-3.06495-8.567262-5.17-10.60627zm-24.16596-10.623406l16.722508.017135L38.878077 38.55997l10.39052 10.623405H32.663973V27.816624zm17.126677 29.88261H24.210097V27.79949h4.243778v25.650382h20.814722c1.71772 0 3.250195-1.045206 3.90697-2.65585.656775-1.610646.303127-3.44404-.90938-4.677726l-7.426613-7.57346 7.544495-7.693401c1.212508-1.233686 1.566156-3.06708.90938-4.677725-.656774-1.610646-2.18925-2.655852-3.90697-2.655852H32.680814v-4.249362h16.789868c4.445863 0 8.18443 3.649654 8.335993 8.087496 0 .18848-.03368.925264-.03368.942399v.085672c0 2.501641-1.24619 4.197959-2.004007 4.986147-.522052.548305-1.060944 1.130879-1.549316 1.644914-.825179.873861-1.532475 1.62778-1.869283 1.97047l-1.515635 1.507839 1.498795 1.524972c.202084.205615.45469.445498.757817.736785 1.7514 1.644914 4.698469 4.386438 4.698469 8.25884.01684 4.626322-3.721726 8.687204-7.999185 8.687204z" fill="#6356AB" fill-rule="nonzero"/>
  </g>
</svg>
