<svg width="80" height="80" xmlns="http://www.w3.org/2000/svg">
  <g fill="none" fill-rule="evenodd">
    <circle fill="#FFF" cx="40" cy="40" r="40"/>
    <path d="M34.969955 20.41971v-6.696404c.800082-.133731 1.552776-.33652 2.313184-.373789 3.577224-.175384 7.11698-.010961 10.57298 1.090673 3.685224 1.173981 6.979224 2.990308 9.890816 5.532289 3.996 3.48577 6.721347 7.764057 8.16502 12.838154.990735 3.484673 1.238694 7.026346.794571 10.640365-.623755 5.077385-2.524775 9.607788-5.76698 13.540789-4.117224 4.996269-9.359632 8.205807-15.774611 9.480634-2.476286.492173-4.976817.653308-7.460817.425308-5.115673-.469154-9.812571-2.159423-13.933102-5.28675-4.852285-3.68198-8.168326-8.417365-9.804857-14.279596-.65902-2.363308-1.033714-4.771558-.95547-7.236808.052899-1.702327 1.157144-2.97825 2.801389-3.199673 1.64204-.221423 3.162857.818827 3.576122 2.480596.116816.47025.191755.961327.200571 1.443635.082653 4.57973 1.664082 8.620154 4.54702 12.136615 3.029511 3.695135 6.909797 6.140654 11.63094 7.050462 6.691591 1.289077 12.680081-.264173 17.815591-4.790193 3.330368-2.934403 5.51351-6.585692 6.353266-10.923173 1.23098-6.359884-.144368-12.141-4.332123-17.173442-2.984326-3.58552-6.813918-5.816192-11.371959-6.799442-2.79698-.603981-5.61049-.57-8.417388-.015346-.235836.047134-.477183.065769-.844163.115096" fill="#0097DD"/>
    <path d="M26.479722 35.181394h6.693796c0 1.589423-.025347 3.128423.012123 4.664135.017633.72675.051796 1.482.25898 2.170385 1.470122 4.886653 7.494979 6.550615 11.147142 3.046211 2.022245-1.941289 2.690082-4.281577 1.869062-6.923308-.80449-2.590211-2.680164-4.131404-5.343796-4.692634-.435307-.090981-.898164-.072347-1.347796-.073443-5.091429-.004384-10.181755-.003288-15.272082-.003288h-1.417225c-1.075591-2.140789-2.131346-4.243212-3.26204-6.498.52898-.040558.879428-.092077 1.229877-.092077 6.363184-.003289 12.72747.047135 19.090653-.013154 5.753755-.054808 11.21547 4.00973 12.768245 9.659308 2.20849 8.03152-2.897265 15.358211-10.132163 16.80952-7.893918 1.583941-14.700123-3.446309-16.131674-10.712712-.179632-.910904-.14106-1.868943-.15649-2.806154-.024244-1.464462-.006612-2.93002-.006612-4.534789m6.607838-10.362161h-6.476695c-.038571-.357347-.10249-.668654-.101387-.981058.006612-3.504404.015428-7.009904.041877-10.514308.012123-1.645327.876123-2.742577 2.474082-3.209538 1.497673-.43627 3.264245.41873 3.799837 1.888673.177428.48998.306367 1.028192.310775 1.545577.035265 3.58552.030857 7.17323.036367 10.75875 0 .11948-.03747.23677-.084857.511904m-8.47833-6.783439c.006612 2.38852.015428 4.515058-.007715 6.613096-1.019388.29377-5.520122.317885-6.736775.033981 1.774285-2.608846 3.92547-4.743058 6.74449-6.647077" fill="#0097DD"/>
  </g>
</svg>
