<svg width="80" height="80" viewBox="0 0 80 80" xmlns="http://www.w3.org/2000/svg">
  <title>
    bcc-bitconnect
  </title>
  <g fill-rule="nonzero" fill="none">
    <circle fill="#F7931C" cx="40" cy="40" r="40"/>
    <path d="M18.378 48.302c-.022-7.533 5.283-13.852 12.868-15.274.65-.12.833-.337.817-.973-.043-1.69-.04-3.382 0-5.072.013-.61-.18-.97-.703-1.31-1.822-1.19-2.566-3.347-1.9-5.29.703-2.053 2.57-3.33 4.72-3.227 1.927.09 3.687 1.523 4.208 3.425.523 1.912-.206 3.99-1.9 5.067-.6.38-.787.764-.767 1.443.052 1.69.032 3.38.01 5.072-.008.49.065.753.647.83 1.107.144 2.19.442 3.216.883.385.165.592.064.85-.22 3.588-3.953 7.186-7.897 10.795-11.832.372-.405.264-.684.094-1.103-.88-2.168-.365-4.51 1.296-6.06 1.514-1.412 4.02-1.815 5.83-.938 2.13 1.034 3.3 3.012 3.154 5.337-.195 3.11-3.218 5.453-6.29 4.815-.62-.13-.983.02-1.386.466-3.34 3.692-6.692 7.37-10.06 11.036-.406.442-.464.68.044 1.12 5.51 4.804 7.01 12.045 3.87 18.64-.237.498-.184.785.198 1.15.92.872 1.808 1.775 2.688 2.686.35.362.677.46 1.196.328 2.027-.512 4.125.4 5.136 2.155 1.028 1.786.762 4.034-.654 5.53-1.385 1.474-3.646 1.9-5.404 1.023-1.92-.96-2.98-3.014-2.524-5.12.13-.605-.008-.95-.413-1.334-.744-.706-1.47-1.432-2.168-2.184-.407-.44-.66-.447-1.127-.01-4.745 4.424-10.25 5.57-16.326 3.41-6.04-2.142-9.996-8.014-10.014-14.468" fill="#FEFDFC"/>
  </g>
</svg>
