<svg width="80" height="80" xmlns="http://www.w3.org/2000/svg">
  <g fill="none">
    <path d="M78.723 49.83C73.42 71.085 51.89 84.022 30.628 78.722c-21.253-5.3-34.19-26.83-28.888-48.087C7.038 9.376 28.57-3.56 49.826 1.74c21.26 5.3 34.197 26.83 28.897 48.09z" fill="#3CC13F"/>
    <path d="M52.72854 25.795617c-1.95584-4.967614-6.856262-5.415394-12.56467-4.306646l-2.031876-7.085314-4.31231 1.236863 1.976715 6.897769c-1.1341.325682-2.28618.680222-3.432429 1.034859l-1.989455-6.945838-4.311443 1.236362 2.029145 7.084582c-.927626.287304-1.83953.567841-2.73405.824485l-.00667-.021552-5.949617 1.702962 1.32041 4.607018s3.167262-.974141 3.131873-.899438c1.747668-.50095 2.606064.349837 3.023031 1.176044l2.315236 8.074107c.118924-.03402.277756-.074914.463944-.100426l-.455872.130407 3.242292 11.307814c.080938.57219.008357 1.542474-1.211587 1.89347.069605.03256-3.136836.89884-3.136836.89884l.620885 5.395405 5.613034-1.60794c1.043059-.29737 2.077395-.575847 3.087277-.85868l2.058654 7.165694 4.307478-1.235229-2.032644-7.090644c1.19057-.317872 2.338231-.634064 3.455108-.955577l2.02617 7.057431 4.313675-1.236496-2.049422-7.153704c7.132239-2.4966 11.683759-5.779136 10.361052-12.76813-1.062881-5.630966-4.34354-7.337234-8.744101-7.14523 2.135842-1.990612 3.057467-4.684311 1.619101-8.315634l-.002098.002366zm-1.63849 17.054055c1.536464 5.355233-7.808465 7.37534-10.731472 8.216544l-2.7222-9.494987c2.924508-.838605 11.850438-4.30844 13.453172 1.277577l.0005.000866zm-5.84833-12.821605c1.395521 4.873113-6.415353 6.498282-8.851044 7.195542l-2.469323-8.610992c2.434325-.697627 9.862648-3.665394 11.319501 1.41595l.000866-.0005z" fill="#FFF"/>
  </g>
</svg>
