<svg width="80" height="80" viewBox="0 0 80 80" xmlns="http://www.w3.org/2000/svg">
  <title>
    bcn-bytecoin
  </title>
  <g fill="none">
    <circle fill="#F04086" cx="39.996296" cy="39.996296" r="39.996296"/>
    <path d="M58.592593 41.885185c-1.57284-1.74074-3.839507-2.820988-6.8-3.24074v-.062963C54.385185 38.162962 56.422223 37.1 57.807407 35.4c1.406053-1.686155 2.169692-3.815684 2.155556-6.01111 0-3.651853-1.177778-6.133334-3.61111-8.085186-2.433335-1.951852-6.08889-2.592593-11.040742-2.592593h-18.7037v17.40741H15.86667v6.666668h29.318518c2.307408 0 4.04074.162963 5.185185 1.085185 1.144446.922224 1.72963 2.114816 1.72963 3.87778s-.577777 3.266666-1.72963 4.21111c-1.15185.944445-2.885184 1.566667-5.185184 1.566667H35.12593v-5.18519h-8.51852v11.851853h19.31852c4.91111 0 8.666667-1.281482 11.27037-3.274075 2.6037-1.992592 3.82592-4.937036 3.82592-8.548148.032424-2.389988-.834815-4.70483-2.42963-6.485185zM44.11111 36.1h-8.985184V25.35926h8.985185c4.61852 0 6.92593 1.803703 6.92593 5.37037 0 3.566666-2.307407 5.37037-6.925926 5.37037z" fill="#FFF"/>
  </g>
</svg>
