<svg width="80" height="80" viewBox="0 0 80 80" xmlns="http://www.w3.org/2000/svg">
  <title>
    bco-bridgecoin
  </title>
  <g fill="none" fill-rule="evenodd">
    <circle fill="#FFF" cx="40" cy="40" r="40"/>
    <path d="M40 23.5V13m0 56.5V59" stroke="#2A78BA" stroke-width=".621" stroke-linecap="square"/>
    <path d="M23.24476 31.42487l-9.215568-5.984455m51.197604-.170985l-9.386227 6.15544M23.41542 50.57513l-9.556887 6.15544m41.982037-5.984456l9.215568 5.984456m-9.287314-6.15544V31.852332l-16.183563-9.3614-16.18339 9.3614V50.57513l16.18339 9.3614z" stroke="#2A78BA" stroke-width=".683078"/>
    <path d="M29.772455 31.382124c0 3.541088-2.86536 6.411917-6.3997 6.411917-3.534342 0-6.3997-2.87082-6.3997-6.41191s2.865358-6.41191 6.3997-6.41191c3.53434 0 6.3997 2.87083 6.3997 6.41192" fill="#2A78BA"/>
    <path d="M26.52994 31.382124c0 1.746948-1.413566 3.163213-3.157186 3.163213-1.74362 0-3.157185-1.416265-3.157185-3.163213 0-1.746948 1.41356-3.163212 3.15718-3.163212s3.15718 1.416264 3.15718 3.163212" fill="#FFF"/>
    <path d="M46.113024 21.935233c0 3.541088-2.86536 6.411917-6.3997 6.411917-3.534342 0-6.3997-2.87083-6.3997-6.411917 0-3.541088 2.865358-6.411917 6.3997-6.411917 3.53434 0 6.3997 2.87083 6.3997 6.411917" fill="#2A78BA"/>
    <path d="M42.87051 21.935233c0 1.746948-1.413567 3.163213-3.157187 3.163213s-3.157185-1.416265-3.157185-3.163213c0-1.746948 1.413566-3.163212 3.157185-3.163212 1.74362 0 3.157186 1.41627 3.157186 3.16322" fill="#FFF"/>
    <path d="M49.398204 41.21373c0 5.429783-4.393437 9.831607-9.812875 9.831607s-9.81288-4.401824-9.81288-9.831606 4.39343-9.8316 9.81287-9.8316c5.41943 0 9.81287 4.40183 9.81287 9.83161" fill="#094171"/>
    <path d="M42.742515 41.21373c0 1.74695-1.413566 3.163213-3.157186 3.163213-1.74362 0-3.15719-1.416264-3.15719-3.163212 0-1.74694 1.41356-3.16321 3.15718-3.16321s3.15718 1.41627 3.15718 3.16322" fill="#FFF"/>
    <path d="M62.15494 31.382124c0 3.541088-2.86536 6.411917-6.3997 6.411917-3.534342 0-6.3997-2.87082-6.3997-6.41191s2.865358-6.41191 6.3997-6.41191c3.53434 0 6.3997 2.87083 6.3997 6.41192" fill="#2A78BA"/>
    <path d="M58.912425 31.382124c0 1.746948-1.413566 3.163213-3.157185 3.163213-1.74362 0-3.157186-1.416265-3.157186-3.163213 0-1.746948 1.413566-3.163212 3.157186-3.163212 1.74362 0 3.157185 1.416264 3.157185 3.163212" fill="#FFF"/>
    <path d="M62.15494 50.57513c0 3.541088-2.86536 6.411917-6.3997 6.411917-3.534342 0-6.3997-2.87083-6.3997-6.411917 0-3.54109 2.865358-6.411918 6.3997-6.411918 3.53434 0 6.3997 2.87083 6.3997 6.411918" fill="#2A78BA"/>
    <path d="M58.912425 50.57513c0 1.746948-1.413566 3.163212-3.157185 3.163212-1.74362 0-3.157186-1.416264-3.157186-3.163213 0-1.74695 1.413566-3.16322 3.157186-3.16322 1.74362 0 3.157185 1.41626 3.157185 3.16321" fill="#FFF"/>
    <path d="M46.113024 59.893782c0 3.54109-2.86536 6.411918-6.3997 6.411918-3.534342 0-6.3997-2.87083-6.3997-6.411918s2.865358-6.411917 6.3997-6.411917c3.53434 0 6.3997 2.87083 6.3997 6.411917" fill="#2A78BA"/>
    <path d="M42.87051 59.893782c0 1.74695-1.413567 3.163213-3.157187 3.163213s-3.157185-1.416264-3.157185-3.163213c0-1.746948 1.413566-3.163212 3.157185-3.163212 1.74362 0 3.157186 1.416264 3.157186 3.163212" fill="#FFF"/>
    <path d="M29.772455 50.57513c0 3.541088-2.86536 6.411917-6.3997 6.411917-3.534342 0-6.3997-2.87083-6.3997-6.411917 0-3.54109 2.865358-6.411918 6.3997-6.411918 3.53434 0 6.3997 2.87083 6.3997 6.411918" fill="#2A78BA"/>
    <path d="M26.52994 50.57513c0 1.746948-1.413566 3.163212-3.157186 3.163212-1.74362 0-3.157185-1.416264-3.157185-3.163213 0-1.74695 1.41356-3.16322 3.15718-3.16322s3.15718 1.41626 3.15718 3.16321" fill="#FFF"/>
    <path d="M16.802395 25.397668c0 1.605373-1.298883 2.906736-2.901197 2.906736C12.298883 28.304404 11 27.00304 11 25.397668s1.298883-2.906735 2.901198-2.906735c1.602314 0 2.901197 1.301362 2.901197 2.906735m51.15494 0c0 1.605373-1.298883 2.906736-2.901197 2.906736-1.602315 0-2.901198-1.301363-2.901198-2.906736s1.298883-2.906735 2.901198-2.906735c1.602314 0 2.901197 1.301362 2.901197 2.906735M42.90237 71.093264C42.90237 72.698637 41.60349 74 40.001174 74c-1.602314 0-2.901197-1.301363-2.901197-2.906736s1.298883-2.906736 2.901197-2.906736c1.602315 0 2.901198 1.301363 2.901198 2.906736M67.957335 56.73057c0 1.605373-1.298883 2.906736-2.901197 2.906736-1.602315 0-2.901198-1.301363-2.901198-2.906736s1.298883-2.906736 2.901198-2.906736c1.602314 0 2.901197 1.301363 2.901197 2.906736m-51.15494 0c0 1.605373-1.298883 2.906736-2.901197 2.906736C12.298883 59.637306 11 58.335943 11 56.73057s1.298883-2.906736 2.901198-2.906736c1.602314 0 2.901197 1.301363 2.901197 2.906736m26-45.823834c0 1.605373-1.298883 2.906735-2.901197 2.906735C38.298883 13.81347 37 12.51211 37 10.90674 37 9.301363 38.298883 8 39.901198 8c1.602314 0 2.901197 1.301363 2.901197 2.906736" fill="#2A78BA"/>
  </g>
</svg>
