<svg width="80" height="80" viewBox="0 0 80 80" xmlns="http://www.w3.org/2000/svg">
  <title>
    bcpt-blockmasoncreditprotocol
  </title>
  <g fill="none" fill-rule="evenodd">
    <circle fill="#464646" cx="40" cy="40" r="40"/>
    <path d="M63.825853 34.075776c.258935 3.711808.521487 7.423414.775238 11.135493.1322 1.93421.24905 3.86943.37279 5.80418-2.03615.10297-4.0723.20607-6.10818.30917-1.69631.02085-3.39304.05641-5.0897.056-.81603-.0002-1.63213-.06836-2.44822-.10567 3.96665-5.50931 7.93227-11.01923 11.90307-16.52564.17422-.24157.39564-.4498.59502-.67355" fill="#8B531E"/>
    <path d="M23.707483 50.876208c.183356.036977.380014.04359.548158.115317C28.395 52.75846 32.53129 54.53228 36.6682 56.30475c-.000068 0 .00041-.000742.00041-.000742-.100478.098988-.189018.21471-.303275.2944-2.838676 1.98077-5.680013 3.957692-8.52094 5.935357-.12142-.071795-.27756-.1166-.359414-.219298-2.42517-3.04359-4.84297-6.092915-7.26194-9.141363 1.13889-.732524 2.27777-1.465182 3.41658-2.197706.02415-.03448.04823-.069028.07231-.10344l-.00443.00425z" fill="#D3B28F"/>
    <path d="M58.865368 51.324487c2.03622-.10297 4.072374-.206073 6.108527-.309042.003206.100473.05232.244265.003206.295277-3.57292 3.706883-7.15361 7.406545-10.73349 11.106613-1.00157-3.584616-2.00327-7.169096-3.00477-10.753374 2.54229-.11309 5.08445-.22624 7.62654-.33947" fill="#A93409"/>
    <path d="M36.668622 56.304035s-.000477.000742-.00041.000742c2.48138-.825978 4.964735-1.64649 7.443657-2.479757 2.36241-.79413 4.72019-1.601687 7.08008-2.40317-.00478.040215-.00955.080566-.01426.12085-1.16856 1.701483-2.33704 3.403035-3.50553 5.104655-1.88977 2.751687-3.77947 5.50344-5.66917 8.255263l-.69284-1.07699.00252.002226c-.0689-.090688-.13779-.181376-.20669-.271997l.00143.002497c-.06883-.11336-.13752-.226654-.206348-.33988l.001634.002902c-.04618-.091228-.092428-.18232-.138676-.27355l.00225.005332-.072374-.07193.00423.003172c-.046387-.091566-.09284-.182997-.13929-.274494l.00327.006545c-.02442-.02429-.04891-.04851-.07333-.07267l.004026.00459-.070805-.14048.002936.00641c-.02408-.04709-.048226-.09419-.072373-.14122l.00389.00601c-.02428-.02436-.048565-.04858-.07292-.07287l.00464.005534c-.023532-.05371-.047-.10742-.07053-.16113-1.182946-1.91552-2.36603-3.83104-3.549044-5.74656" fill="#E49656"/>
    <path d="M42.003008 64.902598c1.8897-2.751755 3.7794-5.503576 5.6691-8.255263 1.168554-1.70162 2.33704-3.403104 3.505525-5.104656.020327.04035.040723.08076.06105.12112 1.001638 3.58448 2.003343 7.16896 3.004912 10.7535-.094748.10256-.175512.27618-.286017.29723-3.986903.7612-7.97667 1.50803-11.96596 2.25688.00382-.02294.00757-.04589.01139-.06883" fill="#AB7F33"/>
    <path d="M63.825853 34.075776c-.199386.223752-.420805.431984-.59502.67355-3.970806 5.50641-7.936426 11.016328-11.903002 16.52564-.02073.002294-.04161.00405-.06248.005196.57961-1.94946 1.14796-3.902227 1.74127-5.847503 1.05334-3.45338 2.10614-6.90716 3.21242-10.34393.09277-.28833.57033-.60898.89898-.64447 2.1309-.23057 4.26992-.38914 6.40744-.55709.09448-.00743.2.12253.30041.18859" fill="#481407"/>
    <path d="M36.668622 56.304035c1.183015 1.91552 2.366098 3.83104 3.549113 5.746694.023466.05371.04693.10735.070464.16099l-.00464-.00554c.02435.02429.04863.04851.07292.07287 0 0-.00389-.00601-.00382-.00601.02408.0471.04822.09413.0723.14123l-.00294-.00641c.02367.04683.04727.09366.0708.14048l-.00403-.00459c.02442.024156.04891.04838.07333.07267l-.003276-.006543c.046452.091497.092905.18293.13929.274493 0 0-.00423-.00317-.00416-.00317.024077.023957.048157.04798.072304.07193l-.00225-.00533c.046247.09123.092495.18232.138676.27355l-.00164-.0029c.06883.113226.13752.22652.206346.33988l-.001432-.002495c.0689.09062.13779.18131.20669.271996l-.002523-.002224c.18097.38381.36194.76761.54284 1.15142-4.66951-.81444-9.33895-1.62888-14.00846-2.44332 2.84079-1.977595 5.68213-3.95452 8.52081-5.935355.114253-.079622.20273-.195344.30327-.294332" fill="#864F45"/>
    <path d="M53.22685 25.526768c-4.350956-3.449663-8.70191-6.899325-13.05232-10.349595-.068555-.054386-.12974-.117882-.19434-.177126.093725.012146.197477.00243.279605.03961 6.486835 2.9361 12.972033 5.875707 19.455116 8.819904.04373.01991.05573.10824.08254.16465-.12496.03988-.24768.08961-.37517.11815-2.0648.46309-4.13022.92342-6.19543 1.38442" fill="#D5D5D5"/>
    <path d="M59.951644 24.460162c.039018-.103036.09461-.199933.142497-.299663.05635.09116.12763.17645.16685.27435 1.19646 2.98637 2.39168 5.97328 3.57524 8.96464.04168.10533-.02762.36889-.06193.37193-2.46289.21606-4.92749.41315-7.39202.61181.27333-.76073 3.10566-8.69859 3.56937-9.92308" fill="#A0846A"/>
    <path d="M23.639638 50.975378c-1.13888.732523-2.277694 1.465182-3.416575 2.197706-.096794-.053037-.256276-.085763-.281446-.161944-1.644884-4.985357-3.27906-9.97409-4.912074-14.963292-.023192-.070918-.02026-.150203-.029536-.225574.049932.037787.114938.065722.147612.11471 2.8427 4.2695 5.68294 8.540486 8.52182 12.812348.02346.03529.02578.084278.03806.126856l.00443-.00425c-.02408.034547-.04816.06896-.07231.10344" fill="#E27544"/>
    <path d="M57.133902 32.10077c-.27326.760796-.54652 1.521727-.819782 2.282455-.395293-1.08077-.806207-2.156342-1.182538-3.243522-.646248-1.86714-1.27094-3.741565-1.904706-5.612955 2.06521-.460932 4.13056-.921323 6.19536-1.384346.12756-.02861.250274-.07834.37524-.118218-.392224 1.209514-1.300477 4.107962-1.300477 4.107962-.0234.069096-.20805.53954-.24393.606815-.28309.83388-.56617 1.66775-.84919 2.50156l.00191-.00384c-.09059.28806-.18124.57605-.2719.8641" fill="#8F8F8F"/>
  </g>
</svg>
