<svg width="80" height="80" viewBox="0 0 80 80" xmlns="http://www.w3.org/2000/svg">
  <title>
    bcy-bitcrystals
  </title>
  <g fill="none" fill-rule="evenodd">
    <circle fill="#FFF" cx="40" cy="40" r="40"/>
    <path fill="#7BB2CD" d="M61.485565 28.090574l1.209677-2.224265-3.629032.80882v-4.04412l-3.629033 3.6397 1.008065-5.86397-3.629032 1.11213-1.209678-5.56066-3.024193 6.875-1.00807-6.47059-4.23387 3.6397-1.20968-7.48162-3.0242 6.268383-3.22581-4.04412-1.00807 6.268384-4.23387-4.44853-.60484 4.24632-3.225806-2.42647-1.41129 3.639705-2.01613-1.01103v3.235296l-5.241934-3.23529v4.44853h-3.02419l2.419357 2.628675-2.41936 2.42647 25.60484 7.279413 23.58872-8.69484"/>
    <path d="M61.485565 28.090574l1.209677-2.224265-3.629032.80882v-4.04412l-3.629033 3.6397 1.008065-5.86397-3.629032 1.11213-1.209678-5.56066-3.024193 6.875-1.00807-6.47059-4.23387 3.6397-1.20968-7.48162-3.0242 6.268383-3.22581-4.04412-1.00807 6.268384-4.23387-4.44853-.60484 4.24632-3.225806-2.42647-1.41129 3.639705-2.01613-1.01103v3.235296l-5.241934-3.23529v4.44853h-3.02419l2.419357 2.628675-2.41936 2.42647 25.60484 7.279413 23.58872-8.69484"/>
    <path fill="#497FAA" d="M23.380726 32.033588l-3.024194-4.14522 4.83871 1.314338-1.008065-3.336397 5.846775 3.23529-.201613-4.85294 4.43548 4.85294.40322-4.65074 3.2258 2.93198 1.81451-5.35846 2.419355 7.077202 1.814516-4.85294 3.024194 7.48162 2.419356-6.57169.701614 3.577424 3.12903-1.25206-.80645 2.42647 4.83871-1.617646-2.28871 4.2536-14.243548 7.27213L18.3404 33.55013"/>
    <path fill="#644D82" d="M18.34008 57.814596l22.37984 8.897867v-28.91625L15.114273 30.5168"/>
    <path stroke="#3F3D3D" stroke-width=".806452" d="M15.114597 30.517044l3.225806 27.297794 22.379033 8.89706V37.796455z"/>
    <path fill="#AAA187" d="M40.719597 37.796213v28.91625l19.153226-10.515515 4.435484-27.095588"/>
    <path d="M64.308145 29.101603L59.87266 56.19719 40.719436 66.711898v-28.91544"/>
  </g>
</svg>
