<svg width="80" height="80" viewBox="0 0 80 80" xmlns="http://www.w3.org/2000/svg" xmlns:xlink="http://www.w3.org/1999/xlink">
  <title>
    bdg-bitdegree
  </title>
  <defs>
    <path d="M.46164.453835v37.423026l19.527212 12.804873 19.52787-12.804873V.453835H.461638zm4.33967 4.269152h30.375082v30.869848l-15.18754 9.959203L4.80131 35.592835V23.77633h5.449836v9.18581c0 .250481.09246.466747.27869.649443.184917.181405.403933.273076.659015.273076H22.22754c1.226885 0 2.309508-.210456 3.245902-.632012.93836-.420266 1.718688-.97352 2.344262-1.656532.624918-.682367 1.099016-1.450595 1.42295-2.304684.323935-.853443.486558-1.712696.486558-2.577113 0-1.344076-.300983-2.45381-.90295-3.330494-.602624-.876038-1.260984-1.553886-1.979017-2.031608.162623-.091025.376393-.262101.641967-.511937.266885-.25048.533115-.563582.799344-.939303.265574-.375722.491804-.830848.676722-1.366671.185574-.534532.277377-1.143304.277377-1.825671 0-.683658-.133115-1.417671-.398033-2.202684-.267541-.785658-.700984-1.514506-1.302295-2.185253-.601967-.672038-1.400656-1.229164-2.396066-1.673316-.99541-.444152-2.233442-.666228-3.714754-.666228H11.188853c-.255083 0-.474099.091025-.659017.273721-.18623.181406-.278688.397671-.278688.648798v8.604797H4.80131V4.722988zm10.13705 9.526671h6.14623c1.201966 0 2.08131.222076 2.63672.664937.554755.444797.834099 1.099405.834099 1.963823 0 .865709-.279344 1.520316-.834098 1.963177-.55541.444797-1.434755.666873-2.636722.666873H14.93836v-5.25881zm0 9.526671h6.422295c1.22623 0 2.14623.273722 2.761311.819873.611148.546152.918033 1.25176.918033 2.118114 0 .864418-.293115 1.564216-.88459 2.099393-.59082.534531-1.523279.801797-2.794754.801797H14.93836V23.77633z" id="a"/>
  </defs>
  <g fill="none" fill-rule="evenodd">
    <circle fill="#000" cx="40" cy="40" r="40"/>
    <g transform="translate(20 18)">
      <mask id="b" fill="#fff">
        <use xlink:href="#a"/>
      </mask>
      <path fill="#FFF" mask="url(#b)" d="M-1.311475 52.427354h42.601311V-1.291139H-1.311475z"/>
    </g>
  </g>
</svg>
