<svg width="80" height="80" viewBox="0 0 80 80" xmlns="http://www.w3.org/2000/svg">
  <title>
    bdl-bitdeal
  </title>
  <g fill="none" fill-rule="evenodd">
    <circle fill="#E84B35" cx="40" cy="40" r="40"/>
    <path d="M49.239405 10.564457c2.01009 2.038526 3.893012 3.948943 5.776807 5.858182.823032.83425 1.639508 1.67557 2.477106 2.49479.299497.29292.43395.60044.433512 1.0312-.01107 10.58668.022433 21.17366-.025055 31.76005-.021122 4.71435-1.734338 8.80584-4.894488 12.26123-2.980685 3.25887-6.683453 5.18815-11.015366 5.74983-9.6988 1.2572-18.3686-5.23401-20.291-14.543-2.07739-10.06054 4.10875-19.73853 14.05957-21.94983 4.105547-.91239 8.088-.40909 11.89681 1.43661.48639.23572.652166.52172.64867 1.06363-.02316 3.70835-.01209 7.417-.01209 11.27248-.176114-.28054-.28391-.45302-.39258-.624918-2.118176-3.356314-5.160916-5.040295-9.0717-4.735135-5.100464.398036-8.304897 4.487323-8.77643 8.587814-.582822 5.066684 2.90887 9.760983 7.75427 10.67602 5.57622 1.05302 10.540046-2.86113 11.297818-8.03543.095414-.65204.136056-1.31823.136347-1.977936.0051-13.11671.000438-26.23327-.002184-39.349977v-.975625" fill="#FFF"/>
    <path d="M48.056993 33.615985c-5.30411-2.54285-10.677705-2.849042-16.05596-.59248-5.35262 2.245797-8.92647 6.283783-10.957536 11.796854-.013256-.10305-.038165-.20625-.038165-.30929.00102-8.25509.01005-16.51003-.00539-24.76497-.00102-.61371.165917-1.0486.601905-1.48275 2.508862-2.49863 4.987425-5.02821 7.477642-7.54614.15149-.15332.31406-.29529.60758-.56993v22.50575c.59214-.271257 1.04649-.49165 1.51015-.690078 5.264192-2.25317 10.559562-2.316856 15.86397-.17189 1.11743.45199 1.12835.150514.99579 1.824912" fill="#FFF"/>
  </g>
</svg>
