<svg width="80" height="80" xmlns="http://www.w3.org/2000/svg" xmlns:xlink="http://www.w3.org/1999/xlink">
  <defs>
    <path id="a" d="M.530484.7829H26.9895V17H.530484z"/>
    <path id="c" d="M0 .809083h28.8981V15.72872H0z"/>
    <path id="e" d="M.3985.3781H15v19.578H.3985z"/>
  </defs>
  <g fill="none" fill-rule="evenodd">
    <circle fill="#FFF" cx="40" cy="40" r="40"/>
    <path d="M51.4997 43.7509c-.258.783-.588 1.535-1.007 2.246-.038.064-.063.136-.095.204-.423.592-.818 1.203-1.304 1.753-1.025 1.158-2.214 2.097-3.584 2.811-.072.037-.162.053-.202.138.027.185.089.357.162.525-.073-.168-.135-.34-.162-.525-.437.171-.869.353-1.31.51-2.089.742-4.225.889-6.397.463-2.114-.413-3.978-1.343-5.607-2.749-.063-.054-.132-.102-.197-.153-.651-.655-1.287-1.321-1.812-2.087-1.121-1.635-1.827-3.424-2.077-5.396-.166-1.312-.108-2.612.118-3.909.206-.985.51-1.938.95-2.844.186-.383.384-.758.578-1.137-.051-.002-.103.003-.151-.008.048.011.1.006.151.008.286-.392.56-.793.86-1.174 1.435-1.825 3.247-3.134 5.428-3.93 1.191-.434 2.419-.655 3.685-.708.876-.037 1.738.048 2.599.178 1.124.21 2.199.568 3.225 1.072.731.359 1.405.811 2.065 1.286.728.618 1.423 1.266 2.021 2.016.805 1.011 1.442 2.113 1.895 3.323.02.053.052.102.078.153.266.866.505 1.737.61 2.642.209 1.803.047 3.567-.52 5.292m13.384-5.824c-.07-.792-.181-1.578-.333-2.358 0-.033.006-.068 0-.1-.383-1.895-.944-3.732-1.736-5.5-1.213-2.707-2.85-5.122-4.916-7.248-.812-.837-1.662-1.633-2.61-2.316-.061-.042-.12-.087-.182-.125-.345-.207-.606-.531-.974-.708-.042-.039-.079-.086-.127-.118-.743-.502-1.512-.964-2.304-1.383-1.897-1.004-3.891-1.752-5.981-2.239-.602-.14-1.201-.3-1.823-.335-.195-.09-.407-.074-.612-.105-1.222-.184-2.45-.22-3.683-.207-.999.01-1.991.079-2.981.212-1.449.194-2.866.519-4.257.965-1.708.549-3.337 1.272-4.884 2.181-.176.104-.251.085-.358-.108-1.192-2.149-3.047-3.267-5.476-3.425-.938-.061-1.849.157-2.718.521-3.068 1.287-4.658 4.795-3.603 7.945.548 1.636 1.59 2.855 3.098 3.68.14.077.187.138.09.286-.142.217-.277.44-.397.671-.309.594-.638 1.18-.881 1.806-.017.034-.034.068-.051.103.745.247 1.489.497 2.234.741-.745-.244-1.489-.494-2.234-.741-.074.159-.153.316-.221.479-1.24 2.967-1.882 6.061-1.942 9.275-.028 1.53.098 3.051.351 4.56.097.579.189 1.159.372 1.719.006.058.005.117.019.173.304 1.231.7 2.433 1.19 3.602 1.099 2.625 2.597 4.999 4.505 7.111.646.716 1.315 1.411 2.071 2.016.02.026.037.057.062.078 2.726 2.353 5.801 4.081 9.257 5.102 3.115.92 6.291 1.261 9.535.93 2.115-.215 4.173-.663 6.169-1.393.487-.177.985-.332 1.437-.597.032-.005.068-.002.096-.015 1.348-.593 2.631-1.301 3.851-2.123 1.755-1.183 3.341-2.561 4.742-4.146.465-.527.935-1.052 1.319-1.646.083-.104.171-.205.249-.313 2.097-2.897 3.499-6.1 4.225-9.6.256-1.233.399-2.482.487-3.738.084-1.193.029-2.38-.075-3.569" fill="#6DB4EB"/>
    <g transform="translate(23 48.1907)">
      <mask id="b" fill="#fff">
        <use xlink:href="#a"/>
      </mask>
      <path d="M26.9895 14.8859c-.452.266-.95.419-1.437.598-1.996.729-4.054 1.177-6.169 1.393-3.244.33-6.419-.011-9.535-.931-3.456-1.021-6.531-2.748-9.257-5.102-.025-.021-.041-.051-.061-.078-.001-.074.044-.123.093-.171 1.117-1.096 2.158-2.263 3.185-3.442.554-.635 1.086-1.289 1.615-1.944.523-.65 1.04-1.305 1.543-1.97.422-.559.811-1.143 1.233-1.701.193-.256.323-.564.597-.755.066.051.134.1.197.154 1.629 1.405 3.493 2.335 5.607 2.749 2.173.425 4.308.279 6.397-.464.441-.156.873-.339 1.31-.51.056.37.247.688.388 1.026.648 1.57 1.303 3.137 1.919 4.721.83 2.128 1.618 4.272 2.375 6.427" fill="#0DABF5" mask="url(#b)"/>
    </g>
    <path d="M17.1848 30.0214c.017-.034.034-.068.051-.103.11.004.211-.02.317-.055.688-.229 1.38-.445 2.067-.675.741-.25 1.485-.491 2.214-.773 1.122-.434 2.24-.876 3.347-1.351 1.275-.546 2.537-1.121 3.776-1.743.879-.44 1.749-.899 2.613-1.365.675-.365 1.342-.747 2.003-1.136 1.094-.646 2.176-1.312 3.237-2.012.53-.35 1.077-.676 1.584-1.055 1.212-.902 2.455-1.764 3.634-2.712.63-.507 1.266-1.006 1.87-1.544.622.035 1.221.194 1.823.335 2.09.487 4.084 1.235 5.981 2.238.792.42 1.561.881 2.304 1.383.048.032.085.079.127.119-.001.084-.047.143-.111.187-.185.129-.37.258-.558.384-.769.514-1.544 1.021-2.309 1.542-.855.584-1.699 1.184-2.553 1.77-1.082.743-2.171 1.472-3.25 2.218-.942.65-1.877 1.31-2.806 1.979-.141.101-.325.15-.42.315-.861-.131-1.723-.216-2.599-.179-1.266.053-2.494.274-3.685.709-2.181.796-3.993 2.104-5.428 3.929-.3.381-.574.783-.86 1.174-.051-.002-.103.004-.151-.007-1.264-.282-2.516-.613-3.766-.951-1.347-.365-2.69-.747-4.021-1.17-.733-.232-1.465-.47-2.197-.71-.745-.244-1.489-.494-2.234-.741" fill="#79C2EA"/>
    <g transform="translate(15 14.1907)">
      <mask id="d" fill="#fff">
        <use xlink:href="#c"/>
      </mask>
      <path d="M28.8981 1.3063c-.604.539-1.241 1.037-1.871 1.544-1.178.948-2.421 1.81-3.633 2.713-.508.378-1.055.705-1.584 1.055-1.061.7-2.143 1.366-3.238 2.011-.661.39-1.327.771-2.003 1.136-.864.467-1.734.925-2.612 1.366-1.24.622-2.501 1.196-3.777 1.743-1.106.474-2.224.917-3.346 1.35-.729.282-1.474.524-2.215.773-.687.231-1.379.447-2.066.675-.107.035-.208.06-.318.056.244-.627.572-1.212.882-1.806.119-.231.254-.454.397-.671.097-.148.05-.21-.091-.286-1.507-.826-2.549-2.044-3.098-3.68-1.055-3.15.535-6.659 3.603-7.945.87-.365 1.781-.582 2.719-.521 2.428.158 4.284 1.276 5.475 3.425.108.193.182.211.359.108 1.546-.909 3.176-1.632 4.883-2.181 1.391-.446 2.808-.771 4.257-.966.99-.132 1.983-.201 2.982-.211 1.233-.013 2.461.022 3.682.207.205.031.418.015.613.105" fill="#72CDF8" mask="url(#d)"/>
    </g>
    <g transform="translate(50 35.1907)">
      <mask id="f" fill="#fff">
        <use xlink:href="#e"/>
      </mask>
      <path d="M14.5505.3781c.152.78.264 1.566.333 2.358.104 1.189.16 2.376.076 3.569-.088 1.257-.232 2.505-.489 3.739-.725 3.5-2.127 6.702-4.224 9.599-.078.108-.166.209-.249.313-.886-.846-1.769-1.694-2.658-2.535-.761-.72-1.528-1.434-2.295-2.147-1.172-1.089-2.345-2.178-3.521-3.263-.369-.341-.75-.668-1.125-1.001.031-.068.056-.14.094-.204.419-.711.749-1.463 1.007-2.246.567-1.724.73-3.489.52-5.292-.105-.905-.344-1.776-.61-2.642.328-.028.651.053.978.049 2.081-.024 4.163.042 6.245-.037.803-.031 1.607-.059 2.412-.075.341-.007.686-.018 1.028-.046.825-.068 1.65-.129 2.478-.139" fill="#29B7F8" mask="url(#f)"/>
    </g>
    <path d="M31.7966 48.9736c-.274.191-.404.5-.597.755-.422.558-.811 1.142-1.234 1.701-.502.665-1.019 1.32-1.543 1.97-.528.655-1.061 1.309-1.614 1.944-1.027 1.179-2.068 2.346-3.185 3.443-.049.047-.095.096-.094.17-.755-.605-1.424-1.3-2.071-2.016-1.908-2.112-3.406-4.486-4.505-7.111-.49-1.169-.886-2.371-1.19-3.602-.014-.056-.013-.115-.019-.172.066-.035.136-.064.198-.106 1.178-.794 2.36-1.581 3.529-2.388 1.293-.892 2.577-1.798 3.859-2.706 1.493-1.057 2.982-2.123 4.47-3.188.071-.051.135-.098.225-.086-.226 1.298-.284 2.598-.118 3.91.25 1.971.956 3.76 2.077 5.395.525.766 1.161 1.432 1.812 2.087" fill="#13A0F5"/>
    <path d="M64.5505 35.5688c-.828.01-1.653.071-2.478.139-.342.028-.687.039-1.028.046-.805.016-1.609.044-2.412.075-2.082.079-4.164.013-6.245.037-.327.004-.65-.077-.978-.049-.026-.051-.058-.1-.078-.153-.452-1.21-1.09-2.312-1.895-3.322-.598-.751-1.293-1.398-2.021-2.017.586-.802 1.178-1.599 1.795-2.379.269-.339.498-.714.771-1.047.609-.743 1.182-1.514 1.794-2.254.602-.728 1.186-1.47 1.787-2.197.569-.687 1.15-1.362 1.726-2.043.949.683 1.798 1.479 2.611 2.316 2.065 2.126 3.702 4.541 4.915 7.248.793 1.768 1.353 3.605 1.736 5.5.006.032 0 .067 0 .1" fill="#69BEED"/>
    <path d="M28.0261 37.5815c-.091-.012-.154.035-.226.086-1.488 1.065-2.976 2.131-4.47 3.188-1.282.908-2.565 1.814-3.858 2.706-1.169.807-2.352 1.594-3.529 2.388-.062.042-.132.071-.198.106-.183-.56-.276-1.141-.373-1.719-.253-1.509-.378-3.03-.35-4.561.059-3.214.702-6.307 1.941-9.275.068-.162.148-.32.222-.479.744.247 1.488.497 2.234.741.732.24 1.463.478 2.197.71 1.331.422 2.674.805 4.021 1.17 1.25.338 2.502.668 3.765.951.049.011.101.005.151.007-.193.379-.392.755-.577 1.137-.441.907-.744 1.859-.95 2.844" fill="#42BBF5"/>
    <path d="M50.3981 46.2006c.375.333.756.661 1.125 1.001 1.176 1.085 2.349 2.174 3.521 3.264.767.713 1.534 1.426 2.295 2.146.89.841 1.772 1.69 2.658 2.535-.383.594-.853 1.119-1.319 1.646-1.401 1.586-2.987 2.964-4.741 4.146-1.22.823-2.504 1.531-3.851 2.123-.029.013-.064.011-.097.015-.757-2.155-1.545-4.299-2.374-6.427-.617-1.584-1.272-3.151-1.92-4.721-.14-.338-.332-.656-.388-1.026.041-.085.131-.1.203-.138 1.37-.713 2.559-1.652 3.583-2.811.487-.549.882-1.16 1.305-1.753" fill="#6ACAF8"/>
    <path d="M55.2883 20.4047c-.576.681-1.157 1.356-1.726 2.043-.601.728-1.185 1.469-1.787 2.197-.612.74-1.185 1.511-1.794 2.254-.273.333-.502.708-.771 1.047-.616.78-1.209 1.577-1.795 2.379-.659-.475-1.334-.926-2.065-1.286-1.025-.504-2.1-.862-3.224-1.072.094-.164.279-.213.42-.314.929-.669 1.864-1.329 2.805-1.979 1.079-.746 2.169-1.476 3.25-2.218.854-.586 1.698-1.187 2.554-1.77.764-.522 1.539-1.029 2.309-1.543.187-.125.373-.254.558-.383.064-.044.11-.104.111-.188.367.177.628.501.973.708.063.038.121.083.182.125" fill="#6DB4EB"/>
  </g>
</svg>
