<svg width="80" height="80" viewBox="0 0 80 80" xmlns="http://www.w3.org/2000/svg">
  <title>
    bet-daocasino
  </title>
  <g fill="none" fill-rule="evenodd">
    <circle fill="#0C0C0C" cx="40" cy="40" r="40"/>
    <g transform="translate(15 18)" fill-rule="nonzero" fill="#EE9828">
      <ellipse cx="1.4092" cy="12.216286" rx="1.4092" ry="2.664095"/>
      <ellipse cx="1.4092" cy="30.590476" rx="1.4092" ry="2.664095"/>
      <ellipse cx="9.38496" cy="20.742857" rx="1.6536" ry="3.134476"/>
      <path d="M48.84568 5.335524L26.45968 0c-1.052983.030818-1.882742.913976-1.85536 1.974762v38.94838c-.007577.518128-.198206 1.016577-.53768 1.405906-.36712.335238-.82784.547904-1.31872.610762.56655.30479 1.20975.434516 1.84912.372952 1.56312-.25981 4.368-.970095 4.368-.970095h-.03432l19.6976-4.688096c2.09352-.477712 3.10544-1.63114 3.10544-3.51476V8.43438c.01456-1.819713-.7956-2.63581-2.88808-3.098856zM32.72568 37.774c-1.07432 0-1.94584-1.652095-1.94584-3.68343 0-2.031332.87152-3.683427 1.94688-3.683427 1.07432 0 1.94688 1.652095 1.94688 3.683428 0 2.032383-.8736 3.68343-1.94688 3.68343h-.00104zm0-25.37438c-1.07432 0-1.94584-1.652096-1.94584-3.68343 0-2.03238.87152-3.683428 1.94688-3.683428 1.07432 0 1.94688 1.652095 1.94688 3.683428 0 2.031334-.8736 3.68343-1.94688 3.68343h-.00104zM47.45 33.260856c-.78208 0-1.39568-1.194286-1.39568-2.663048 0-1.46981.62816-2.664096 1.39568-2.664096s1.39568 1.194286 1.39568 2.664096c0 1.46876-.60736 2.663047-1.39568 2.663047zm0-18.373143c-.78208 0-1.39568-1.194285-1.39568-2.664095 0-1.468763.62816-2.664096 1.39568-2.664096s1.39568 1.194285 1.39568 2.664095c0 1.46876-.60736 2.65676-1.39568 2.65676v.007334z"/>
      <ellipse cx="18.86144" cy="8.71619" rx="1.9396" ry="3.683429"/>
      <ellipse cx="18.86144" cy="34.090571" rx="1.9396" ry="3.683429"/>
    </g>
  </g>
</svg>
