<svg width="80" height="80" xmlns="http://www.w3.org/2000/svg"><g fill="none" fill-rule="evenodd"><circle fill="#FFF" cx="40" cy="40" r="40"/><path d="M52.861 60.959v-14.97c-1.056-.31-16.824-.4-18.689-.129-.346.942-.445 6.568-.146 8.374 1.037.32 10.553.37 12.098.026l.082-1.79c-.64-.038-1.14-.091-1.642-.093-2.361-.01-4.723.006-7.085-.01-1.495-.011-1.69-.222-1.714-1.714-.008-.51-.016-1.02.003-1.53.044-1.213.267-1.464 1.523-1.476 2.833-.027 5.668-.01 8.501-.01 1.229 0 2.457-.026 3.684.017 1.136.04 1.421.31 1.433 1.438.03 2.918.03 5.838-.002 8.756-.014 1.182-.329 1.422-1.74 1.426-4.676.014-9.352.005-14.028.005-1.37 0-2.74.016-4.11-.007-.553-.01-1.105-.103-1.778-.17-.097-.56-.253-1.042-.254-1.524-.018-4.958-.018-9.916-.004-14.874.003-1.452.262-1.705 1.743-1.706 8.407-.008 16.815-.007 25.222.007.544.001 1.088.142 1.725.23.08.655.204 1.192.204 1.73.013 6.951.013 13.901-.002 20.851 0 .586-.128 1.172-.21 1.872-.644.09-1.187.231-1.73.232-10.627.011-21.255.01-31.883-.002-.551-.001-1.102-.118-1.541-.168-.668-.758-.503-1.53-.503-2.253-.01-12.279-.008-24.558-.008-36.837V16.512c0-.325-.01-.65.008-.973.068-1.196.343-1.473 1.523-1.529.377-.017.755-.007 1.133-.007l30.749.001c2.36 0 2.467.104 2.469 2.431.003 6.672.01 13.345-.001 20.017-.002.72-.118 1.44-.19 2.267-.76.087-1.354.214-1.948.215-8.171.011-16.343.01-24.515-.004-.643-.001-1.286-.122-2.032-.198-.085-.61-.21-1.097-.211-1.586-.015-4.912-.015-9.824-.007-14.735.003-1.52.238-1.756 1.829-1.76 6.046-.012 12.092-.006 18.138-.007.094 0 .189.001.283.005 1.393.057 1.669.302 1.68 1.644.018 2.317.002 4.633 0 6.95 0 .556.027 1.114-.008 1.668-.064 1.012-.341 1.277-1.392 1.37-.328.03-.66.018-.991.018-3.543.001-7.085.002-10.628 0-.33 0-.66-.012-.991-.028-.74-.036-1.12-.425-1.13-1.15-.01-.74-.034-1.483-.004-2.223.045-1.135.304-1.388 1.447-1.396 2.36-.017 4.72-.01 7.08-.012h1.8v-1.932H33.982v8.374c1.007.34 17.225.42 18.85.08V18.895H27.177c-.36 1.17-.39 40.706-.028 42.063H52.86z" fill="#240D5C"/></g></svg>