<svg width="80" height="80" viewBox="0 0 80 80" xmlns="http://www.w3.org/2000/svg" xmlns:xlink="http://www.w3.org/1999/xlink">
  <title>
    bitb-bean-cash
  </title>
  <defs>
    <linearGradient x1="16.648684%" y1="3.201467%" x2="93.874511%" y2="100%" id="a">
      <stop stop-color="#A4E063" offset="0%"/>
      <stop stop-color="#128000" offset="100%"/>
    </linearGradient>
    <path id="b" d="M.176983.179788H5.98197v5.76307H.176983z"/>
    <linearGradient x1="60.374746%" y1="77.158286%" x2="11.045876%" y2="0%" id="d">
      <stop stop-color="#FDDD20" offset="0%"/>
      <stop stop-color="#F9B80E" offset="100%"/>
    </linearGradient>
  </defs>
  <g fill="none" fill-rule="evenodd">
    <circle fill="#FFF" cx="40" cy="40" r="40"/>
    <path d="M20.346134 29.272411c.01741 1.838172-.687225 3.298058-2.489128 4.143543-.226326-.167314-.414854-.285485-.57704-.432685-.167682-.152458-.30948-.333258-.51267-.556343-.386907.024457-.787788.049828-1.351083.085485-.26252-.669485-.554132-1.412571-.845744-2.155657.058872-.347657-.214643-.859428.450132-.908343.153938-.266742.307648-.533257.461586-.8-.00733-1.437257.450361-1.921142 1.841533-1.9376.528476-.006171 1.05718-.000914 1.624828-.000914.274203-.211657.566502-.437714.85903-.663543.0969-.588114.193798-1.175771.290697-1.763885-.088881-.128-.177533-.256-.315207-.4544.685163-.1536.801075.129828.719524.613485.249234-.013714.498925-.027657.802678-.0448.114309-.203657.235719-.421028.357128-.6384.518626.467657.065745.9632.030238 1.526629.221057.237943.47533.511771.843225.907657.559172-.600686 1.032211-1.108571 1.493568-1.603886.238467.998629.238467.998629-.533286 2.126629v.933943c-.743577 1.1376-2.137727.9264-3.15001 1.623085M10.43979 19.84384c-.50236-.021714-1.105744.111314-1.13163-.784914 2.006467-.202743 3.684212-.867886 4.227348-3.1136.494344.335771.253128.776.305128 1.138743a6483.173902 6483.173902 0 0 0-.896828 1.6608c.061392.540571.12141 1.069028.1757 1.545371-.746784.413029-1.244793.159086-1.759753-.114286-.28497-.151314-.611859-.224-.919965-.332114m-6.15318-4.125029c-1.06749-.720457-1.538467-1.697142-1.494714-2.926171.39103-1.715429 1.486925-2.568457 3.32548-2.562743 0-.282743.011683-.500571-.001832-.7168-.119348-1.913143.591242-3.425143 2.260282-4.395428 1.732722-1.007315 3.41711-.746972 5.013074.377142 1.901551 2.022629 1.690573 4.343315.58964 5.9344-1.069093 1.545372-2.831366 2.235886-4.671067 1.805486-.327348-.076571-.655612-.149257-.98296-.223771-.597198 2.562285-1.85207 3.008-4.037903 2.707885m19.584528 6.231315c.101022.064914.201815.1296.302608.194514-.120493-.018971-.241216-.037943-.361709-.056914.0197-.045715.0394-.091657.059101-.1376m-1.566185-2.403429c.957762.105372 1.499295.861943 1.563436 2.192457-.555964-.779657-1.040229-1.458743-1.563436-2.192457m1.736159 19.917486c.242132-.374172.483348-.668572.639348-1.002743.462731-.991314.94608-1.978514 1.323824-3.002971.915154-2.480915 1.402854-5.050515 1.647277-7.688915.238238-2.573485.31933-5.128228-.056123-7.688685-.239383-1.171658-.446925-2.351086-.727771-3.512686-.245797-1.016229-.503049-2.040229-.883542-3.010743-.531454-1.354743-1.182713-2.662857-1.78266-3.990857-.831314-1.7472-2.169798-3.095314-3.611824-4.312229-1.377886-1.162514-2.858855-2.2192-4.619067-2.779885C13.4858 1.22624 10.87847.782126 8.154997 1.43401c-1.997762.477943-3.579982 1.573715-4.660528 3.375772-1.516247 2.527771-1.838784 5.316571-1.922397 8.170286-.0197.1488-.077427.304228-.053145.445485.51496 3.022857 1.869022 5.595429 4.19711 7.6176.704176.611429 1.40904 1.269257 2.422238 1.350857.392863.071543.785956.142172 1.17859.214858.399278.074057.798097.150171 1.197146.225371-.0126.042057-.02497.083657-.037569.125486-.511295.109943-1.02259.219657-1.674079.359771.342925.207086.509692.307886.858344.5184-2.149868.319772-3.150926 1.68-3.768511 3.322057-.988917 2.631086-1.113304 5.354743-.474873 8.093257.124159.533486.42333 1.026286.64164 1.538058 1.080316 2.858971 3.248281 4.463771 6.117902 5.224.651031.172342 1.345586.173257 2.009445.3056 2.442397.4864 4.718943-.067658 6.927454-1.064915.119119-.053714.194485-.203657.40111-.4304-.335366-.187885-.629498-.352457-.962344-.538971.275578-.5904.464335-.9952.725939-1.555657.186238.4128.284969.614857.369727.822628.625145 1.535315 1.229903 3.079543 1.882766 4.602972.17089.398628.489533.734628.72548 1.078171.645304-.0736 1.207683.136 1.882767-.274514-1.12682-.724343-2.152617-1.389714-2.598855-2.577143-.41852-1.113371-.879418-2.218514-.990978-3.373714.296652-.354515.530309-.633143.728458-.870172.895454.1072.563066.813029.763278 1.325029" fill="url(#a)" transform="translate(18 12)"/>
    <path d="M32.508962 56.5032c-1.671788.374857-2.331982-.881143-3.218502-1.894857-.296652 2.147885 1.232423 4.101714 3.218502 4.304914V56.5032zM21.56743 43.833714c1.278009-1.274057 1.209515-2.877257 1.654608-4.378971-.944247-.445943-1.722185-1.077943-2.895507-.780115.162644.884115.311313 1.692343.459983 2.5008-.079947.032229-.159895.064457-.239842.096915-.327119-.521372-.654467-1.042515-1.01778-1.621258-.320704.203886-.62881.399315-.872087.553829.178907.727771.33926 1.379657.54451 2.215086.13859.123885.414397.370285.648512.579428.377286-.080457.661339-.141028.890414-.189943.28955.358172.517938.641372.82719 1.024229zm27.875894 20.115429c.403172-.474286.227243-.828343.088423-1.171658-.782061-1.933485-1.542361-3.876342-2.378484-5.786285-.166996-.381257-.585974-.714057-.968529-.924343-.513586-.282057-1.104828-.423086-1.807859-.677029v2.722286c.778167.167314 1.253956-.482514 1.902925-.841143.32941 2.608229.847348 5.047772 3.163524 6.678172zm1.616124-22.206172c-.767401-.7248-1.5797-1.408686-2.290062-2.185828-.769004-.8416-1.829163-1.8544-2.441022-2.129829-.240529 3.901257-.577727 7.7824-1.801445 11.456 2.209427 2.229486 5.486344 1.374171 6.965251-.627886.555736-.752457 1.033128-1.565943 1.507771-2.373943.550467-.937371 1.058784-1.899657 1.512582-2.719314 1.125903-.384 2.082061-.647543 2.982096-1.038628.652635-.283429 1.293815-.664458 1.830767-1.127772 1.425075-1.229486 1.783119-2.901028 1.018467-4.583086-.984335 0-2.010361.009372-3.036159-.002057-2.184229-.024457-4.181762-.668114-6.058114-1.771657-1.623683-.954743-2.961022-2.236343-4.285533-3.543314-.303066-.298972-.64874-.554972-1.050309-.894629.17341 2.105372.3317 4.024915.491366 5.9616 1.25029 1.327086 2.538379 2.672915 3.79852 4.044343.38118.414857.685163.900572 1.024652 1.3536-.056124.061029-.112476.1216-.168828.1824zM19.572187 24.98c-.0197.1488-.077657.304228-.053604.445714.51519 3.022629 1.869251 5.595429 4.197569 7.617371.703947.611658 1.40904 1.269486 2.422008 1.350858.392864.071542.785956.142171 1.17859.214857.399278.074057.798098.1504 1.197375.2256-.012599.041828-.025198.083428-.037797.125257-.511066.109943-1.022361.219657-1.67385.359771.342925.207086.509462.307886.858343.5184-2.150097.319772-3.151154 1.68-3.76851 3.322057-.989146 2.631086-1.113534 5.354743-.475102 8.093258.124387.533485.42333 1.026285.641639 1.538057 1.080546 2.8592 3.248282 4.463771 6.118132 5.224.650801.172571 1.345357.173485 2.009445.3056 2.442396.486628 4.718713-.067657 6.927224-1.064915.119348-.053714.194714-.203657.40111-.430171-.335365-.188114-.629268-.352686-.962114-.5392.275348-.5904.464106-.994971.725938-1.555657.18601.4128.28497.614857.369498.822628.625374 1.535315 1.229903 3.079543 1.882996 4.602972.17089.398857.489304.734628.72548 1.078171.645075-.0736 1.207454.136 1.882766-.274285-1.126819-.724572-2.152846-1.389943-2.598854-2.577372-.41852-1.113371-.879419-2.218514-.990978-3.373714.296652-.354286.530079-.633143.728229-.869943.895454.106971.563066.8128.763277 1.3248.242362-.374171.483577-.668571.639348-1.002743.46296-.991314.94608-1.978286 1.324053-3.002743.915154-2.481143 1.402855-5.050743 1.647049-7.689143.238238-2.573485.31956-5.128228-.056124-7.688685-.239383-1.171657-.446696-2.351086-.72777-3.512457-.245798-1.016229-.50282-2.040458-.883313-3.010972-.531683-1.354743-1.182714-2.662857-1.782661-3.990857-.831313-1.7472-2.169798-3.095314-3.611824-4.312-1.378114-1.162743-2.859084-2.219429-4.619295-2.779886-2.484775-1.248228-5.091877-1.692343-7.815348-1.040685-1.997991.477942-3.579982 1.573942-4.660758 3.375771-1.516247 2.527771-1.838555 5.3168-1.922167 8.170286zm15.489128 32.653714c.1237.079771.313145.131429.36148.243429.766255 1.776685 1.516246 3.560685 2.264176 5.345142.055436.132572.066432.283658.105374.460572-.654696.407543-1.216616.2432-1.655753-.237029-.483806-.5296-.887665-1.133028-1.315348-1.712228-.338115-.457372-.659736-.926857-.998996-1.405257-.347277.058514-.666378.112457-.966237.162971-.950203-1.254857-2.89986-1.1232-3.551348-2.709486-.34453-.8384-.770608-1.6464-1.069093-2.499657-.286344-.818514-.652405-1.542171-1.439507-1.970743-2.816933-1.533943-3.968493-4.068114-4.307982-7.098285-.054749-.487772-.141797-.971886-.208458-1.419886-.894308-.374629-1.739595-.698972-2.55808-1.080457-.74518-.3472-1.121092-.989715-1.277092-1.784-.063225-.321829-.161956-.643886-.293903-.944229-.259542-.590628-.192881-1.127086.271683-1.56.52756-.491428 1.079172-.963428 1.660793-1.388571.51244-.3744 1.062678-.317943 1.601004.026971.3246.208229.68333.3632 1.026714.542172-.02955-.104458-.059101-.208915-.088881-.313143.91607-.949715 1.831912-1.898972 2.851066-2.955657-.244423-.201829-.650573-.581486-1.100018-.900572-2.106572-1.496457-3.675048-3.416686-4.58356-5.8368-.495717-1.320457-.787788-2.689828-.80726-4.1168-.023365-1.714286-.026343-3.412343.423331-5.094171.944247-3.530743 3.289745-5.636343 6.693798-6.689829 3.2311-1.000228 6.261304-.315428 9.135277 1.2336 4.272018 2.301714 7.441727 5.626057 9.203542 10.1952.259313.672.526414 1.353143.672106 2.054629.256564 1.234514.84941 2.281143 1.66148 3.204571 1.462414 1.663314 3.062731 3.186514 4.916176 4.416229 2.934678 1.947428 6.071172 2.519771 9.526996 1.204571.057497.32.133321.562743.140193.807086.035736 1.255771.06185 2.512.076512 3.768.018326 1.578971-.941956 2.766171-2.340917 3.073828-1.172405.257829-2.28777.805029-3.40222 1.285029-1.066344.4592-1.777163 1.264914-2.104053 2.402514-.556194 1.936457-1.929269 3.285715-3.510573 4.350857-1.449127.976229-3.098925.928458-4.682749.141486-.338343-.168-.65103-.386971-1.092-.652571-.575207.789943-1.20333 1.541714-1.70363 2.370514-.509691.845029-.345903 1.483657.446238 2.378286.04948-.210286.087507-.387429.133551-.562286.047648-.180571.102855-.358857.191736-.666971.295048.175314.566273.280914.76282.4656.410501.385371.858343.610971 1.43355.575085.696387-.0432 1.17607.311086 1.448211.914515 1.025569 2.277257 2.064881 4.549257 3.02608 6.853714.316352.758628.355524 1.605943-.054062 2.390857-1.795947-.466057-3.027454-2.335771-4.097234-6.187657-.350713.115886-.699594.2192-1.039541.346971-.316124.118629-.622168.263086-.981128.417143a3467.3736 3467.3736 0 0 1-.25748-1.110171c-1.788159.009828-2.331066-.3616-3.041199-2.023315-.266185-.622857-.54726-1.239314-.879418-1.989714-1.420035.297829-2.769516.666286-4.143736.845029-1.346731.175314-2.718432.158171-4.066995.224685.308563.376458.308563.376458 3.046696.363658.02955.192914.060934.3984.092317.603885h-1.108952v2.406629c.81711 1.0848 1.580159 2.126171 2.379401 3.138971.191736.242515.504423.389715.761445.581029-.009392.0992-.018555.1984-.027718.2976l.218537-.219429c-.04925-.039314-.09873-.078628-.14821-.117943-.553904-1.464457-1.112618-2.927085-1.65415-4.396114-.047648-.129371.014202-.2992.025198-.450057z" fill="#3F3F39"/>
    <path d="M36.64775 62.519611c-.257022-.191085-.56971-.338285-.761445-.581028-.799242-1.0128-1.56252-2.054172-2.379401-3.138743v-2.406857h1.108952c.14844.413714.29688.8272.445321 1.240686-.010995.151085-.072617.320685-.02497.450057.541534 1.469028 1.100248 2.931657 1.65415 4.396343l-.042607.039542z" fill="#F9B80E"/>
    <path d="M62.04755 57.854651c1.205393.626743 7.196388 6.9696 7.730591 8.175086-.987084-.490971-1.489216-1.250057-2.11482-1.846628-.68837-.656-1.337568-1.353372-1.996616-2.039772-.632705-.658971-1.279154-1.306971-1.87704-1.996571-.573145-.661486-1.371013-1.160229-1.742114-2.292115m-10.697385 1.326675c.32918.092114.506713.086857.587806.172343 2.378484 2.5072 4.748722 5.0224 7.111859 7.543542.050396.053943.006414.195658.006414.315658-.99785-.472229-7.080934-6.752-7.70608-8.031543m15.64128-7.002675c-2.572282-2.2928-4.944352-4.780571-7.251137-7.331885-.101709-.112229-.092317-.324572-.148898-.546286.999453.388343 6.948757 6.6224 7.400035 7.878171" fill="#3F3F39"/>
    <g transform="translate(39.762115 61.911086)">
      <mask id="c" fill="#fff">
        <use xlink:href="#b"/>
      </mask>
      <path d="M5.98197 5.942903C3.909071 4.273417 2.026763 2.42016.176983.203703c.415313 0 .607736-.0592.679436.008686C2.72338 1.97513 4.448772 3.867474 5.98197 5.942903" fill="#3F3F39" mask="url(#c)"/>
    </g>
    <path d="M52.803806 51.77552c.1883-.215086.283366-.323886.449216-.513371 1.509833 1.400914 2.89207 2.859885 4.21704 4.372571l-.174555.2448c-.201128-.086171-.448987-.124114-.595366-.266286-1.282132-1.242057-2.546167-2.502857-3.896335-3.837714" fill="#3F3F39"/>
    <path d="M33.22823 29.560686c-.33926-.453257-.643472-.938743-1.024653-1.353829-1.26014-1.3712-2.548229-2.717257-3.79852-4.044343-.159665-1.936685-.317727-3.856228-.491365-5.961371.401568.339657.747471.595657 1.050308.8944 1.324511 1.3072 2.66185 2.5888 4.285533 3.543543 1.876353 1.103314 3.873886 1.7472 6.058115 1.771428 1.026026.011657 2.051823.002057 3.036158.002057.764652 1.682286.406608 3.3536-1.018238 4.583086-.53718.463543-1.178361.844343-1.830995 1.127772-.900036.391314-1.856194.654628-2.982097 1.038857-.453798.819657-.961886 1.781714-1.512582 2.719085-.474643.808-.952035 1.621486-1.50777 2.373943-1.478908 2.002057-4.755595 2.8576-6.965252.627886 1.223718-3.673371 1.561146-7.554514 1.801445-11.455771.61186.275428 1.672018 1.288228 2.441251 2.129828.710132.776914 1.522432 1.4608 2.290062 2.185829l.473727.441371c.016493.092572.032987.1856.04948.278172.063683-.057372.127366-.114743.191049-.171886l-.11408-.2352-.431577-.494857z" fill="url(#d)" transform="translate(18 12)"/>
    <path d="M49.4433 63.949189c-2.315947-1.6304-2.834114-4.069943-3.163524-6.678172-.648969.358629-1.124757 1.008229-1.902925.840914v-2.722057c.70303.253943 1.294273.394972 1.80786.677029.382554.210286.801532.543086.968528.924343.836123 1.909943 1.596652 3.8528 2.378484 5.786285.13882.343315.31475.697372-.088423 1.171658m-27.87578-20.11552c-.30925-.382858-.537867-.666058-.827189-1.024229-.229075.048914-.513127.109486-.890643.190171-.233885-.209142-.509692-.455771-.64851-.579657-.205252-.835428-.365375-1.487085-.544283-2.214857.243278-.154743.551383-.350171.872088-.554057.363313.578743.690432 1.100114 1.01755 1.621257.080177-.032457.160124-.064686.240071-.096914a38351.024503 38351.024503 0 0 0-.459982-2.5008c1.173322-.297829 1.95126.334171 2.895507.780114-.445322 1.501943-.3766 3.104914-1.654608 4.378972" fill="#F9B80E"/>
    <path d="M32.508962 56.5032v2.410057c-1.98608-.2032-3.515154-2.157028-3.218502-4.304914.88652 1.013714 1.546714 2.269714 3.218502 1.894857" fill="#46870D"/>
    <path d="M37.80767 38.046286c.0969-.587886.193798-1.175772.290696-1.763657.134467.054171.268934.108114.40363.162285l-.002978-.0032c.649886.963429 1.3 1.926857 1.963172 2.909029-.859718.407771-2.012194.370286-2.603207 1.370743-.111788 2.670628-.649427 3.421943-2.516387 3.384914-.232282-.360457-.49274-.764343-.725252-1.1248-.344757.160457-.64874.301943-.870255.405029-.831084-.554743-.788018-1.243658-.726397-1.938286a1439.33907 1439.33907 0 0 1 .461357-.8c.208917-.257372.417833-.514743.586432-.722057.909656-.068115 1.750361-.0576 2.5606-.209372 1.068634-.200228 1.238149-.5136 1.17859-1.670628" fill="#F9B80E"/>
    <path d="M33.020578 41.448411c-.061621.694629-.104687 1.383543.726625 1.938286.221516-.103086.525498-.244571.870256-.405028.232282.360457.49274.764114.725251 1.1248 1.866731.037028 2.4046-.714515 2.516159-3.384915.591013-1.000685 1.743489-.9632 2.603207-1.370743-.662943-.9824-1.313058-1.9456-1.963172-2.909028.250837-.013943.501445-.027886.806573-.045029.114079-.203657.235489-.421028.356898-.6384.518626.467657.065745.9632.030238 1.526629.221057.237943.47533.511771.843225.907657.559172-.600686 1.032211-1.108571 1.493568-1.603886.238467.998629.238467.998629-.533286 2.126629v.933943c-.743577 1.1376-2.137727.9264-3.150009 1.623085.01741 1.838172-.687225 3.298058-2.489128 4.143543-.226097-.167314-.414854-.285485-.57704-.432685-.167682-.152458-.30948-.333258-.512669-.556343-.386907.024457-.787789.050057-1.350855.085485a93878.52362 93878.52362 0 0 1-.845973-2.155657c.058872-.347657-.214643-.859428.450132-.908343m-4.580811-9.604571c-.502132-.021714-1.105744.111314-1.13163-.784914 2.006467-.202743 3.684212-.867886 4.227349-3.1136.494343.335771.253127.776.305127 1.138971-.300775.556572-.601321 1.113143-.896828 1.660572.061392.540571.12141 1.069028.1757 1.545371-.746784.413029-1.244792.159086-1.759753-.114286-.284969-.151314-.611859-.224-.919965-.332114" fill="#3F3F39"/>
    <path d="M37.80767 38.046286c.05956 1.157028-.109956 1.4704-1.17859 1.670628-.810238.151772-1.650943.141257-2.560599.209372-.1686.207314-.377515.464685-.586432.722057-.007101-1.437257.45059-1.921143 1.841533-1.9376.528705-.006172 1.057181-.000914 1.625058-.000914.273973-.211658.566502-.437715.85903-.663543m4.06072-4.307132c-.555965-.779657-1.04023-1.458743-1.563437-2.192457.957762.105372 1.499295.861943 1.563436 2.192457m-3.366324 2.705783c-.134696-.054171-.269163-.108343-.403859-.162286-.088652-.128228-.177533-.256228-.315207-.454628.686767-.154057.801762.1312.719066.616914m13.031315 5.739406l-.473727-.441372c.056123-.0608.112476-.121371.168599-.1824l.431577.495086c-.043066.042057-.084987.085029-.12645.128686" fill="#3F3F39"/>
    <path d="M23.013785 26.621509c.958678-.025829 1.776247-.9184 1.729745-1.888-.04467-.928915-.79008-1.634743-1.704318-1.613258-.994643.023315-1.760211.856458-1.718749 1.870629.037798.923429.797181 1.654629 1.693322 1.630629m1.263119-5.542858c.784123 1.932572 1.589092 2.574629 2.881762 2.336 1.09956-.202971 2.001427-1.305371 2.00074-2.445942-.000458-1.1488-.810467-2.1424-1.92377-2.359543-1.214098-.236572-2.189957.565257-2.958732 2.469485m-3.484916 3.714058c.39103-1.715429 1.486925-2.568686 3.32548-2.562743 0-.282743.011683-.500572-.001833-.717029-.119348-1.913143.591243-3.424914 2.260053-4.3952 1.732952-1.007543 3.41734-.7472 5.013304.377143 1.901322 2.022629 1.690344 4.343314.589639 5.9344-1.069322 1.545143-2.831366 2.235886-4.671295 1.805486-.327348-.076572-.655384-.149486-.982732-.223772-.597427 2.562286-1.85207 3.007772-4.038132 2.707657-1.06726-.720457-1.538238-1.697142-1.494484-2.925942" fill="#FDFDFD"/>
    <path d="M22.894941 26.60171c-.89614.024-1.655524-.7072-1.693321-1.630628-.041463-1.014172.724106-1.847314 1.718749-1.870629.914238-.021486 1.659647.684343 1.704317 1.613257.046502.9696-.771066 1.862172-1.729745 1.888m4.578279-3.296131c-1.307638.03502-2.41572-1.031937-2.470874-2.379392-.060502-1.479867 1.056606-2.695578 2.507976-2.729598 1.334045-.031352 2.421737.998585 2.486918 2.354044.067856 1.414828-1.12513 2.717257-2.52402 2.754946" fill="#3F3F39"/>
    <path d="M28.523315 31.853394c.999105 1.13981 1.924805 1.594645 2.7771 1.364501 1.278442-.345214-.267334-2.924804-.442505-2.598266-.11678.217692-.894979.628947-2.334595 1.233765z" fill="#E44"/>
  </g>
</svg>
