<svg width="80" height="80" viewBox="0 0 80 80" xmlns="http://www.w3.org/2000/svg">
  <title>
    bts-bitshares
  </title>
  <g fill="none" fill-rule="evenodd">
    <circle fill="#FFF" cx="40" cy="40" r="40"/>
    <path d="M33.940077 47.6062L21 34.6831v15.5322h11.925646c.13903-.934384.48564-1.82586 1.01443-2.6091zm-1.01443 5.1552H21c.276723 4.04586 1.862305 7.89238 4.517928 10.9602l8.42215-8.5044c-.53653-.72209-.885105-1.565945-1.014432-2.4558zm18.809477-15.3159c-3.040294-2.701322-6.908018-4.293106-10.971294-4.5153V44.827c.91293.147077 1.78364.48805 2.55335.9999l8.417945-8.3814zm-6.453366 17.6487l8.42215 8.4108c2.610064-3.027356 4.16315-6.820526 4.424805-10.8069H46.142988c-.142947.843137-.434433 1.65429-.86093 2.3958l-.0003.0003zm.86123-4.8789h11.925646c-.27696-4.045805-1.86251-7.892252-4.517928-10.9602l-8.42245 8.4411c.530152.749608.87763 1.612537 1.014732 2.52v-.0009zm-18.8266 15.2727c3.04156 2.7011 6.910715 4.291786 10.974898 4.512V58.0732c-.91305-.146642-1.78385-.48765-2.55335-.9999l-8.42155 8.4147zm13.447442-7.4145v11.91c4.06418-.271047 7.92371-1.880082 10.9746-4.5753l-8.362973-8.352c-.795222.508158-1.683527.853633-2.61343 1.0164l.001803.0009zM21 30.832c3.196193 3.192 13.21734 13.293 14.90856 14.949.720297-.444893 1.509698-.766992 2.335865-.9531v-19.449L21.03004 10C21 10 21 30.2611 21 30.832z" fill-rule="nonzero" fill="#35BAEB"/>
  </g>
</svg>
