<svg width="80" height="80" viewBox="0 0 80 80" xmlns="http://www.w3.org/2000/svg">
  <title>
    bix-bibox-token
  </title>
  <g fill="none" fill-rule="evenodd">
    <circle fill="#FFF" cx="40" cy="40" r="40"/>
    <path stroke="#000" stroke-width="1.604278" d="M63.647104 54.59077V27.730021L40.217226 14.299647 16.787348 27.730021v26.86075l23.429878 13.430373z"/>
    <path d="M43.408537 14.128342c0 1.727808-1.41064 3.128342-3.150915 3.128342-1.740274 0-3.150915-1.400534-3.150915-3.128342 0-1.727807 1.41064-3.128342 3.150915-3.128342 1.740274 0 3.150915 1.400535 3.150915 3.128342m-.040397 25.989305c0 1.727808-1.41064 3.128342-3.150914 3.128342-1.740275 0-3.150915-1.400534-3.150915-3.128342 0-1.727807 1.41064-3.128342 3.150915-3.128342 1.740274 0 3.150914 1.400535 3.150914 3.128342m.040397 27.593583c0 1.727807-1.41064 3.128342-3.150915 3.128342-1.740274 0-3.150915-1.400535-3.150915-3.128342 0-1.727807 1.41064-3.128342 3.150915-3.128342 1.740274 0 3.150915 1.400535 3.150915 3.128342M20.30183 54.716577c0 1.727808-1.410641 3.128343-3.150915 3.128343C15.41064 57.84492 14 56.444385 14 54.716577c0-1.727807 1.41064-3.128342 3.150915-3.128342 1.740274 0 3.150914 1.400535 3.150914 3.128343m.000001-26.951872c0 1.727807-1.410641 3.128342-3.150915 3.128342C15.41064 30.893048 14 29.492513 14 27.764706c0-1.727808 1.41064-3.128342 3.150915-3.128342 1.740274 0 3.150914 1.400534 3.150914 3.128342m46.536586 26.951871c0 1.727808-1.41064 3.128343-3.150915 3.128343-1.740274 0-3.150915-1.400535-3.150915-3.128343 0-1.727807 1.41064-3.128342 3.150915-3.128342 1.740274 0 3.150915 1.400535 3.150915 3.128343m0-26.951872c0 1.727807-1.41064 3.128342-3.150915 3.128342-1.740274 0-3.150915-1.400535-3.150915-3.128342 0-1.727808 1.41064-3.128342 3.150915-3.128342 1.740274 0 3.150915 1.400534 3.150915 3.128342" fill="#000"/>
    <path d="M40.338415 40.037433L17.070122 54.796791" stroke="#000" stroke-width="1.604278"/>
    <path d="M40.3 13.5V39" stroke="#000" stroke-width="1.604" stroke-linecap="square"/>
    <path d="M40.661585 40.037433l23.268293 14.759358" stroke="#000" stroke-width="1.604278"/>
  </g>
</svg>
