<svg width="80" height="80" xmlns="http://www.w3.org/2000/svg"><g fill="none" fill-rule="evenodd"><circle fill="#FFF" cx="40" cy="40" r="40"/><g fill-rule="nonzero"><path d="M26.923 33.077h26.154v-4.615H26.923v4.615zm0 9.23h26.154v-4.615H26.923v4.616zm0 9.231h26.154v-4.615H26.923v4.615z" fill="#0DA9FF"/><path d="M41.812 65.518c12.933-1.116 23.12-12.078 23.12-25.4 0-13.323-10.187-24.286-23.12-25.401v7.775h-4.346v-7.775c-12.932 1.115-23.12 12.077-23.12 25.4 0 13.323 10.188 24.285 23.12 25.4v-7.775h4.346v7.776zm-2.174-55.284c16.37 0 29.64 13.38 29.64 29.883C69.277 56.622 56.008 70 39.638 70 23.27 70 10 56.622 10 40.117c0-16.502 13.27-29.883 29.638-29.883z" fill="#000"/></g></g></svg>