<svg width="80" height="80" xmlns="http://www.w3.org/2000/svg">
  <defs>
    <linearGradient x1="0%" y1="0%" y2="100%" id="a">
      <stop stop-color="#EA4433" offset="0%"/>
      <stop stop-color="#DF1F5D" offset="100%"/>
    </linearGradient>
  </defs>
  <g fill="none" fill-rule="evenodd">
    <circle fill="#0F1A24" cx="40" cy="40" r="40"/>
    <path d="M25.621723 20.860783c-2.617518.071767-4.5863 1.803169-4.934255 4.37361-.259058 1.914463.457245 3.47319 1.803757 4.80995 6.483468 6.436877 12.956038 12.88476 19.436236 19.325202 2.882026 2.86433 5.735095 5.758888 8.671143 8.567571 2.358615 2.256248 6.049109 1.839595 7.8935-.786803 1.440545-2.051176 1.045263-4.897526-.969602-6.907162-3.921529-3.911696-7.846172-7.820138-11.771748-11.72796-5.3381-5.31356-10.678067-10.625258-16.0171-15.938042-1.135872-1.130294-2.489235-1.742872-4.111931-1.716366m2.800944 22.800687c-.466275.562357-.857977 1.11123-1.325965 1.584924-1.691357 1.712029-3.438605 3.36996-5.108944 5.10152-2.702683 2.801558-1.782588 7.234696 1.79442 8.529607 2.020474.731313 3.910173.283194 5.480407-1.172457 1.0585-.981025 2.012845-2.073345 3.00658-3.108467 1.382167 1.406824 2.644302 2.691504 3.983344 4.054462-.41303.423628-.879929.9663-1.412214 1.435655-1.27599 1.125335-2.457325 2.425826-3.90052 3.281918-4.563114 2.70685-10.477103 1.478436-13.690276-2.673834-3.2865-4.246823-2.929049-10.190174.85751-14.007634 2.023588-2.039864 4.055894-4.071512 6.113732-6.076655.454288-.442384.500682-.700622.019461-1.166721-1.989181-1.92733-3.949717-3.884577-5.897642-5.853604-3.35827-3.394916-4.242403-7.884632-2.395985-12.033801 3.052351-6.859585 12.125023-8.419399 17.417986-3.067391 5.678438 5.741844 11.444993 11.397351 17.174495 17.08882.144631.143689.306388.270018.691707.606999.355895-.454785.66524-.939175 1.060367-1.339862 1.690267-1.713579 3.41385-3.394452 5.110034-5.10245 1.83552-1.848433 2.278599-4.405238 1.144437-6.461997-1.50687-2.732581-5.196127-3.48358-7.725845-1.526488-.773597.598473-1.445531 1.330716-2.141908 2.023588-.457246.45494-.874947.94925-1.282218 1.394889-1.310241-1.323122-2.516796-2.541615-3.789673-3.82707.119099-.126329.348734-.391852.601254-.63366 1.232399-1.181137 2.363758-2.500693 3.728644-3.504505 3.4727-2.554015 7.30612-2.90479 11.142187-.983505 3.803996 1.90532 5.797692 5.12198 5.869774 9.415614.051376 3.059331-1.12482 5.619391-3.288524 7.761248-2.059863 2.03909-4.097462 4.100499-6.170557 6.126102-.4026.393247-.369595.627615.006383.996836 2.068425 2.030874 4.12346 4.075233 6.17118 6.126877 2.975442 2.981054 4.01884 6.557015 2.88857 10.586057-1.10536 3.940068-3.785936 6.495168-7.79995 7.436667-3.742813.877948-7.13767-.007905-9.892352-2.71677-5.887989-5.789896-11.71168-11.64474-17.562928-17.471682-.215312-.214371-.442767-.416498-.87697-.82323" fill="url(#a)"/>
  </g>
</svg>
