<svg width="80" height="80" viewBox="0 0 80 80" xmlns="http://www.w3.org/2000/svg">
  <title>
    blk-blackcoin
  </title>
  <defs>
    <linearGradient x1="26.089%" y1="16.244%" x2="74.249%" y2="84.234%" id="a">
      <stop stop-color="#DEB354" offset="0%"/>
      <stop stop-color="#C89550" offset="100%"/>
    </linearGradient>
  </defs>
  <g fill-rule="nonzero" fill="none">
    <circle fill="url(#a)" cx="40.966" cy="38.817" r="31.772"/>
    <path d="M44.992 35.4c2.574-3.347 1.766-9.646-1.352-11.8-3.117-2.154-6.4-1.076-7.034-.47-.635.607-.606 14.735-.606 14.735s6.417.883 8.992-2.465m.478 6.014c-2.41-1.048-9.47-.772-9.47-.772s-.11 3.567.146 10.244c.256 6.676 2.538 6.64 4.91 6.73 2.373.092 6.898-.073 8.387-5.83 1.49-5.756-1.563-9.323-3.973-10.37" fill="#000"/>
    <path d="M40 0C17.91 0 0 17.91 0 40s17.91 40 40 40 40-17.908 40-40S62.092 0 40 0m16.248 28.79c.11 6.676-5.71 8.552-5.71 8.552s2.37-2.293 2.26-8.166c-.11-5.872-4.523-8.772-4.523-8.772s7.863 1.71 7.973 8.386m-26.17 31.365l-8.056.387v-.736s4.93-.497 4.93-9.14V28.578c0-7.32-4.93-8.59-4.93-8.59v-.66l8.055.385v40.442m12.874.414c-3.503.027-10.004-.452-10.004-.452v-40.35c4.285-.055 5.784-.634 9.315-.138 3.532.497 6.567 3.946 7.394 7.394.828 3.448-.054 6.73-1.186 8.524-1.132 1.793-3.614 3.035-3.614 3.035s3.752 1.27 5.077 2.372c1.326 1.103 3.89 4.11 2.897 10.65-.993 6.537-6.373 8.937-9.877 8.964m9.312-1.49s3.82-3.256 3.652-9.856c-.168-6.6-3.652-9.704-3.652-9.704s7.185 1.766 7.268 9.628c.082 7.862-7.268 9.932-7.268 9.932" fill="#000"/>
  </g>
</svg>
