<svg width="80" height="80" viewBox="0 0 80 80" xmlns="http://www.w3.org/2000/svg">
  <title>
    block-blocknet
  </title>
  <defs>
    <path id="a" d="M0 .33h31.062V49.6H0z"/>
  </defs>
  <g fill="none" fill-rule="evenodd">
    <circle fill="#0C0C11" cx="40" cy="40" r="40"/>
    <path d="M42.494 24.237c2.603 4.538 4.86 8.83 7.475 12.888 1.386 2.15 1.342 3.714-.02 5.846-2.62 4.102-4.9 8.424-7.442 12.864 2.53 0 4.765-.034 6.997.02.782.017 1.162-.305 1.53-.95 2.618-4.613 5.268-9.21 7.93-13.797.396-.682.538-1.228.087-1.998-2.717-4.634-5.377-9.3-8.04-13.965-.313-.55-.602-.94-1.34-.926-2.29.046-4.585.017-7.178.017m13.23 40.398h-28.21c-.07-.666.413-1.095.7-1.596 4.086-7.12 8.153-14.25 12.31-21.33.73-1.24.705-2.142-.006-3.38-3.958-6.89-7.83-13.827-11.694-20.77-.37-.662-1.017-1.242-.913-2.125h27.815c3.135 5.538 6.24 11.092 9.418 16.604 1.44 2.497 4.49 7.796 4.49 7.997 0 .2-1.798 3.31-2.605 4.714-3.798 6.61-7.54 13.254-11.303 19.885" fill="#FFF"/>
    <path d="M14.154 32.683c2.926-4.978 5.77-10.005 8.86-15.38 1.667 2.988 3.204 5.72 4.717 8.464.405.733-.188 1.267-.5 1.816-2.028 3.583-4.038 7.18-6.158 10.71-.736 1.227-.795 2.19-.03 3.45 2.105 3.46 4.02 7.036 6.108 10.508.638 1.064.605 1.85-.037 2.882-1.428 2.294-2.725 4.67-4.082 7.027-.838-.468-1.053-1.21-1.41-1.826-3.457-5.98-6.89-11.975-10.346-17.956-.356-.616-1.244-2.143-1.244-2.343 0-.2 2.787-5.08 4.124-7.352" fill="#989898"/>
  </g>
</svg>
