<svg width="80" height="80" viewBox="0 0 80 80" xmlns="http://www.w3.org/2000/svg" xmlns:xlink="http://www.w3.org/1999/xlink">
  <title>
    blt-bloom
  </title>
  <defs>
    <path id="a" d="M.160735.009614h25.890032v19.778588H.160735z"/>
    <path id="c" d="M.08387.105772h19.748825v25.899992H.08387z"/>
  </defs>
  <g fill="none" fill-rule="evenodd">
    <circle fill="#FFF" cx="40" cy="40" r="40"/>
    <g transform="translate(45.809798 30.008991)">
      <mask id="b" fill="#fff">
        <use xlink:href="#a"/>
      </mask>
      <path d="M11.013736 19.78784c-3.652242-.033567-6.16558-1.032852-8.179274-3.170305-1.49653-1.588933-2.356196-3.48551-2.611642-5.65985-.463493-3.947712 1.704945-7.958317 5.274559-9.789602C7.19347.297904 8.995062-.076689 10.875223.026227c1.560715.08558 3.027735.625614 4.45547 1.235366 3.163297 1.351193 5.995527 3.210329 8.411481 5.665014.782386.794928 1.455032 1.697753 2.181164 2.54838.177983.2086.163597.37275-.005717.60422-2.824853 3.864161-6.413833 6.78068-10.808807 8.67744-1.529914.660289-3.141164 1.045027-4.095078 1.031194" fill="#7079D0" mask="url(#b)"/>
    </g>
    <g transform="translate(29.948127 45.870663)">
      <mask id="d" fill="#fff">
        <use xlink:href="#c"/>
      </mask>
      <path d="M19.83111 10.192562c.034674 1.986951-.502962 3.787436-1.296415 5.513591-1.546697 3.364704-3.768807 6.234006-6.527262 8.69109-.582456.51864-1.223747.97125-1.828334 1.465913-.244934.2003-.438963.181672-.691828-.005717-2.001706-1.483804-3.714766-3.25238-5.160023-5.273637-1.822432-2.549303-3.240945-5.300565-4.017429-8.356519-.248254-.977337-.267066-1.966663-.1754-2.965395.148103-1.613833.60846-3.13268 1.486017-4.492542C3.09428 2.484712 5.127894.937277 7.817923.362568c3.742248-.799539 6.917164.279977 9.484357 3.07034 1.75622 1.90875 2.545245 4.225291 2.52883 6.759654" fill="#7179D0" mask="url(#d)"/>
    </g>
    <path d="M49.773833 23.776664c.035596 2.152023-.542248 4.116657-1.765626 5.858674-1.647953 2.34679-3.897544 3.810675-6.758547 4.171989-3.825798.483412-6.912553-.903009-9.247723-3.944023-1.259897-1.640577-1.810629-3.53623-1.94619-5.59585-.140727-2.13487.593705-4.036058 1.407077-5.921568 1.263216-2.928876 3.021464-5.543101 5.255931-7.815009.8569-.87147 1.846963-1.611435 2.77487-2.413372.239585-.207123.433614-.108265.653649.051828 1.934202 1.408553 3.629003 3.065544 5.114467 4.936484 1.514236 1.907273 2.784645 3.964495 3.653902 6.2471.542616 1.425153.918501 2.893096.85819 4.423747" fill="#7179D0"/>
    <path d="M33.91467 40.677146c-.186836 3.201475-1.920922 6.188818-5.447562 8.015493-2.826513 1.464438-5.765718 1.415562-8.704553.363527-3.791862-1.35728-6.935424-3.695032-9.673407-6.6003-.713222-.756749-1.317625-1.615308-1.985475-2.416138-.169314-.202882-.109741-.326455.025637-.514582 1.92129-2.670479 4.364172-4.761084 7.153429-6.470824 1.61328-.988588 3.32136-1.76747 5.10045-2.411897 4.788564-1.734824 10.074005.300266 12.41231 4.711839.752692 1.419988 1.119724 2.935147 1.11917 5.322882" fill="#737BCF"/>
  </g>
</svg>
