<svg width="80" height="80" xmlns="http://www.w3.org/2000/svg" xmlns:xlink="http://www.w3.org/1999/xlink">
  <defs>
    <linearGradient x1="81.499023%" y1="12.695313%" x2="21.787109%" y2="91.84082%" id="a">
      <stop stop-color="#00B6FF" offset="0%"/>
      <stop stop-color="#005CFF" offset="100%"/>
    </linearGradient>
    <path id="b" d="M0 .000308h41.694V50H0z"/>
  </defs>
  <g fill="none" fill-rule="evenodd">
    <circle fill="url(#a)" cx="40" cy="40" r="40"/>
    <g transform="translate(17 15)">
      <mask id="c" fill="#fff">
        <use xlink:href="#b"/>
      </mask>
      <path d="M36.2347 24.0247c.983.553 1.896.971 2.704 1.538 1.913 1.347 2.632 3.42 2.688 5.581.094 3.666.148 7.367-.249 11.003-.475 4.34-3.437 7.016-7.814 7.44-2.937.286-5.903.281-9.023.414v-6.039c1.39 0 2.736.001 4.083-.001.949-.001 1.901.022 2.848-.02 2.075-.093 3.387-1.222 3.453-3.312.111-3.437.109-6.885-.012-10.323-.071-2.012-1.287-3.027-3.41-3.128-1.539-.074-3.085-.01-4.628-.028-.517-.006-1.033-.072-1.655-.119v-5.588c1.163 0 2.213.005 3.263-.002.711-.006 1.431.031 2.133-.057 2.059-.257 3.089-1.117 3.193-3.153.15-2.958.168-5.938-.02-8.893-.145-2.281-1.355-3.204-3.672-3.238-2.671-.039-5.342-.038-8.012-.005-2.551.032-3.499 1.004-3.518 3.617-.031 4.452-.023 8.903-.028 13.354-.008 8.131-.014 16.262-.02 24.393-.001.699-.001 1.397-.001 2.253-2.291.321-4.379.116-6.725.155v-18.331c-2.93 2.283-5.476 4.268-8.147 6.349-1.362-1.3-2.4-2.768-3.563-4.348 3.835-3.073 7.606-6.094 11.586-9.282-3.964-3.186-7.769-6.245-11.689-9.395 1.203-1.518 2.296-2.897 3.523-4.443 2.689 2.118 5.31 4.183 8.191 6.453.046-.906.094-1.468.099-2.031.017-1.958-.042-3.918.04-5.874.236-5.643 3.352-8.437 8.737-8.812 3.544-.247 7.123-.152 10.678-.008 2.514.103 4.882.777 6.773 2.697 1.236 1.255 1.936 2.741 2.198 4.38.62 3.884.679 7.804.032 11.69-.323 1.937-1.344 3.537-3.145 4.524-.295.162-.564.371-.891.589" fill="#FFF" mask="url(#c)"/>
    </g>
  </g>
</svg>
