<svg width="80" height="80" xmlns="http://www.w3.org/2000/svg" xmlns:xlink="http://www.w3.org/1999/xlink">
  <defs>
    <path id="a" d="M.000382 0h49.992566v60H.000382z"/>
    <linearGradient x1="26.332925%" y1="8.984033%" x2="82.553189%" y2="84.767592%" id="b">
      <stop stop-color="#00ADFF" offset="0%"/>
      <stop stop-color="#0678E1" offset="100%"/>
    </linearGradient>
  </defs>
  <g fill="none" fill-rule="evenodd">
    <circle fill="#FFF" cx="40" cy="40" r="40"/>
    <g transform="translate(15 10)">
      <mask id="c" fill="#fff">
        <use xlink:href="#a"/>
      </mask>
      <path d="M24.7471 0c.558.305 1.157.492 1.566.879 2.509 2.373 5.508 3.994 8.704 5.063 3.248 1.086 6.667 1.659 10.012 2.454.766.182 1.53.381 2.303.523 1.796.329 2.515 1.608 2.525 3.207.049 7.694.337 15.408-.113 23.077-.287 4.891-2.685 9.285-5.873 13.082-4.679 5.572-10.859 8.923-17.514 11.475-.924.355-2.232.302-3.167-.063-5.679-2.218-11.153-4.946-15.431-9.362-4.741-4.893-7.912-10.609-7.753-17.78.142-6.393.017-12.791.036-19.187.011-3.589.898-4.588 4.429-4.951 3.864-.396 7.589-1.363 11.233-2.659 2.929-1.043 5.617-2.508 7.806-4.781.337-.35.766-.61 1.237-.977" fill="url(#b)" mask="url(#c)"/>
    </g>
    <path d="M42.4771 50.7764c-.681.113-1.386.107-2.08.116-1.369.016-2.738.005-4.256.005v-9.735c2.099 0 4.065-.099 6.017.024 2.773.175 4.149 1.64 4.286 4.309.158 3.062-1.136 4.809-3.967 5.281zm-6.398-22.535c1.998-.598 4.093-.42 6.11-.098 2.146.342 3.056 1.847 2.947 4.148-.095 2.032-1.558 3.664-3.689 4.082-.389.076-.797.066-1.197.069-1.288.007-2.576.002-4.171.002v-8.203zm11.167 10.015c.835-.707 1.488-1.152 2.01-1.72 3.929-4.268 1.945-11.213-3.65-12.611-1.625-.406-3.34-.574-5.02-.613-3.795-.089-7.593-.04-11.39-.02-.66.003-1.321.139-1.946.21v3.682c.951.258 1.78.484 2.578.701.084.436.188.724.189 1.014.011 6.594.031 13.189-.01 19.784-.006.845-.34 1.689-.498 2.425-.971.289-1.695.503-2.293.681v3.745c5.368 0 10.552.053 15.733-.037 1.26-.022 2.55-.403 3.761-.813 3.742-1.269 5.955-4.072 6.157-7.618.251-4.419-1.151-6.709-5.621-8.81z" fill="#FDFEFE"/>
  </g>
</svg>
