<svg width="80" height="80" viewBox="0 0 80 80" xmlns="http://www.w3.org/2000/svg" xmlns:xlink="http://www.w3.org/1999/xlink">
  <title>
    blz-bluzelle
  </title>
  <defs>
    <path id="a" d="M.762644 1.11H11.64378v11.028056H.762644z"/>
    <path id="c" d="M0 .039889h10.880744v11.028889H0z"/>
  </defs>
  <g fill="none" fill-rule="evenodd">
    <circle fill="#FFF" cx="40" cy="40" r="40"/>
    <path d="M46.869096 40.781444h8.991115V39.487h-8.981076c.034577.43.030115.858889-.010039 1.294444m-14.663961-1.292888h-8.9755v1.293333h8.985538c-.039038-.434445-.044615-.863333-.010038-1.293333" fill="#F3B32E"/>
    <path d="M44.772842 34.766889c1.296077 1.313333 1.976462 3.002222 2.110308 4.72h.310077l6.703462-6.792222-6.980078-7.071111-6.702346 6.79111v.224445c1.719924.155556 3.327193.874445 4.558577 2.127778M34.313323 45.365333c-1.2615-1.278889-1.937423-2.912222-2.094692-4.584444h-.261l-6.703462 6.786667 6.984539 7.072222L38.936592 47.852v-.348889c-1.744461-.15-3.370692-.868889-4.623269-2.137778" fill="#183274"/>
    <path d="M47.19423 40.781444h-.325691c-.15727 1.672223-.833193 3.305556-2.094693 4.584445-1.236961 1.253333-2.838654 1.966667-4.558577 2.132222v.354445l6.702346 6.787777 6.980077-7.072222-6.703461-6.786667zm-12.880907-6.014555c1.252577-1.268889 2.878808-1.987778 4.62327-2.136667v-.215555l-6.697885-6.791111-6.984539 7.07111 6.703462 6.792223h.2465c.13273-1.717778.813115-3.406667 2.109192-4.72M55.824296 51.018c-3.0015 0-5.440846 2.467778-5.440846 5.513333 0 3.046667 2.439346 5.513334 5.440846 5.513334 3.007077 0 5.441962-2.466667 5.441962-5.513334 0-3.045555-2.434885-5.513333-5.441962-5.513333M23.196508 28.982889c3.007077 0 5.441961-2.466667 5.441961-5.513333 0-3.042223-2.434884-5.50889-5.441961-5.50889-3.0015 0-5.440846 2.466667-5.440846 5.50889 0 3.046666 2.439346 5.513333 5.440846 5.513333" fill="#3F76B4"/>
    <path d="M23.196508 51.018c-3.0015 0-5.440846 2.467778-5.440846 5.513333 0 3.046667 2.439346 5.513334 5.440846 5.513334 3.007077 0 5.441961-2.466667 5.441961-5.513334 0-3.045555-2.434884-5.513333-5.441961-5.513333m32.627788-22.035111c3.007077 0 5.441962-2.466667 5.441962-5.513333 0-3.042223-2.434885-5.50889-5.441962-5.50889-3.0015 0-5.440846 2.466667-5.440846 5.50889 0 3.046666 2.439346 5.513333 5.440846 5.513333" fill="#183274"/>
    <path d="M40.214935 32.641222v-9.104444h-1.277116v9.094444c.203-.014444 1.055154-.014444 1.277116.01M38.93938 47.501778v9.094444h1.277116v-9.098889c-.227538.01889-1.07523.01889-1.277115.004445m-3.275885 11.978111c-2.124808 2.152222-2.124808 5.643333 0 7.795555 2.123692 2.152223 5.57023 2.152223 7.693923 0 2.124808-2.152222 2.124808-5.643333 0-7.795555-2.123692-2.152222-5.57023-2.152222-7.693923 0" fill="#FB7903"/>
    <g transform="translate(33.307692 10.001)">
      <mask id="b" fill="#fff">
        <use xlink:href="#a"/>
      </mask>
      <path d="M10.050173 10.520556c2.124808-2.152223 2.124808-5.643334 0-7.796667-2.124808-2.152222-5.57023-2.152222-7.693923 0-2.124808 2.153333-2.124808 5.644444 0 7.796667 2.123692 2.156666 5.569115 2.156666 7.693923 0" fill="#FB7903" mask="url(#b)"/>
    </g>
    <g transform="translate(11 34.445444)">
      <mask id="d" fill="#fff">
        <use xlink:href="#c"/>
      </mask>
      <path d="M9.287138 1.658222c-2.123692-2.157778-5.57023-2.157778-7.693923 0-2.124807 2.152222-2.124807 5.643334 0 7.795556 2.123693 2.153333 5.570231 2.153333 7.693923 0 2.124808-2.152222 2.124808-5.643334 0-7.795556" fill="#F3B32E" mask="url(#d)"/>
    </g>
    <path d="M66.428035 36.103667c-2.124808-2.157778-5.570231-2.157778-7.693924 0-2.124807 2.152222-2.124807 5.643333 0 7.795555 2.123693 2.153334 5.569116 2.153334 7.693924 0 2.124807-2.152222 2.124807-5.643333 0-7.795555m-23.036374.063444c-1.065192-1.073333-2.454961-1.613333-3.850307-1.613333-1.38977 0-2.784.54-3.843616 1.613333-2.124807 2.156667-2.124807 5.643333 0 7.801111 1.059616 1.073334 2.453847 1.612222 3.843616 1.612222 1.395346 0 2.785115-.538888 3.850307-1.612222 2.123693-2.157778 2.123693-5.644444 0-7.80111" fill="#F3B32E"/>
  </g>
</svg>
