<svg width="80" height="80" viewBox="0 0 80 80" xmlns="http://www.w3.org/2000/svg">
  <title>
    bnb-binance
  </title>
  <g fill="none" fill-rule="evenodd">
    <circle fill="#010101" cx="40" cy="40" r="40"/>
    <g fill-rule="nonzero" fill="#F3BA2F">
      <path d="M27.71 35.135L39.457 23.52l11.75 11.62 6.835-6.758L39.457 10l-18.58 18.376M16.013 33.11l6.834 6.835-6.76 6.76-6.833-6.835zM27.71 44.68l11.746 11.617 11.75-11.622 6.84 6.756-.005.004-18.584 18.382-18.58-18.375-.01-.01M69.66 39.873l-6.836 6.834-6.76-6.76 6.835-6.833z"/>
      <path d="M46.388 39.905h.003l-6.934-6.86-5.125 5.07-.588.582-1.215 1.2-.01.01.01.01 6.93 6.854 6.934-6.858.004-.004"/>
    </g>
  </g>
</svg>
