<svg width="80" height="80" xmlns="http://www.w3.org/2000/svg">
  <defs>
    <linearGradient x1="34.370278%" y1="17.049618%" x2="65.368835%" y2="82.398855%" id="a">
      <stop stop-color="#596378" offset="0%"/>
      <stop stop-color="#465168" offset="100%"/>
    </linearGradient>
    <linearGradient x1="3.063158%" y1="11.595238%" x2="82.252632%" y2="89.206349%" id="b">
      <stop stop-color="#FFB648" offset="0%"/>
      <stop stop-color="#FF8E1E" offset="96.1%"/>
    </linearGradient>
  </defs>
  <g fill="none" fill-rule="evenodd">
    <circle fill="#FFF" cx="40" cy="40" r="40"/>
    <g fill-rule="nonzero">
      <path d="M53.433333 39.707547c-1.283333-.80566-2.916666-.690566-4.2-.115094 0-.115094-.116666-.345283-.233333-.460377l-5.133333-8.74717L49 21.637736c.116667-.115095.116667-.345283.233333-.460377 1.283334.690566 2.8.690566 4.2-.115095 2.1-1.150943 2.8-3.798113 1.633334-5.869811-1.166667-2.071698-3.85-2.762264-5.95-1.61132-1.283334.80566-2.1 2.071697-2.216667 3.567924H36.166667l-5.133334-8.74717C30.916667 8.286792 30.8 8.171698 30.8 8.056604c1.166667-.80566 1.983333-2.071698 1.983333-3.567925 0-2.41698-1.983333-4.25849-4.316666-4.25849-2.333334 0-4.316667 1.956603-4.316667 4.25849 0 1.496227.816667 2.877359 1.983333 3.567925-.116666.115094-.233333.230188-.233333.345283l-5.133333 8.74717h-10.85C9.8 15.767925 9.1 14.386793 7.7 13.581132c-2.1-1.150943-4.783333-.460377-5.95 1.61132-1.166667 2.071699-.466667 4.718869 1.633333 5.869812 1.283334.80566 2.916667.690566 4.2.115095 0 .115094.116667.345282.233334.460377L12.95 30.384906l-5.25 8.74717c-.116667.115094-.116667.345283-.233333.460377-1.283334-.690566-2.8-.690566-4.2.115094-2.1 1.150944-2.8 3.798113-1.633334 5.869812 1.166667 2.071698 3.85 2.762264 5.95 1.61132 1.283334-.80566 2.1-2.071698 2.216667-3.567924h10.733333l5.133334 8.74717c.116666.115094.233333.230188.233333.345283-1.166667.80566-1.983333 2.071698-1.983333 3.567924 0 2.416981 1.983333 4.25849 4.316666 4.25849 2.333334 0 4.316667-1.956603 4.316667-4.25849 0-1.496226-.816667-2.877358-1.983333-3.567924.116666-.115095.233333-.23019.233333-.345284l5.133333-8.74717h10.733334c.116666 1.381133.816666 2.762265 2.216666 3.567925 2.1 1.150944 4.783334.460378 5.95-1.61132 1.4-2.071699.7-4.718868-1.4-5.869812z" fill="url(#a)" transform="translate(12 10)"/>
      <path d="M33.95 27.507547c0-2.416981-1.983333-4.373585-4.433333-4.373585h-5.6c-.583334 0-1.05.460378-1.05 1.03585V36.6c0 .575472.466666 1.03585 1.05 1.03585h5.6c2.45 0 4.433333-1.956605 4.433333-4.373586 0-1.035849-.35-2.071698-1.05-2.762264.583333-.920755 1.05-1.84151 1.05-2.992453z" fill="url(#b)" transform="translate(12 10)"/>
    </g>
  </g>
</svg>
