<svg width="80" height="80" xmlns="http://www.w3.org/2000/svg">
  <g fill="none" fill-rule="evenodd">
    <circle fill="#FFF" cx="40" cy="40" r="40"/>
    <path d="M49.578464 44.004167c-.39704.361666-.7252.864444-.92232 1.365-1.15752 2.932777-3.18416 5.154444-5.64816 7.058889-3.74528 2.893333-7.42392 5.873333-11.20392 8.72111-2.65832 2.002778-5.44208 3.841112-8.15304 5.776112-.154.110555-.15512.43111-.28952.845.80304-.108334 1.44648-.132222 2.05688-.286667 3.87184-.976667 7.77392-1.861667 11.59536-3.007222 5.53616-1.659445 10.80576-3.921111 15.5512-7.299445 3.26312-2.322777 5.36144-5.381666 6.1124-9.245.7364-3.789444 1.22024-7.627222 1.9068-12.027777-4.41056 2.413333-7.7812 5.162222-11.00568 8.1zM60.280624 28.5925c-4.04544 2.546111-7.34104 5.431667-10.18752 8.825-.2072.957778-.40712 1.885-.65072 3.011667 3.72848-2.73389 7.20944-5.287778 10.83824-7.94889V28.5925zm.1316-3.308889c-.1512-1.043333-.30296-2.085-.48664-3.347222-4.36744 2.685555-7.79688 5.836111-10.4636 9.483333v3.486667c3.31352-4.05 6.97592-6.870556 10.95024-9.622778z" fill="#3A891B"/>
    <path d="M24.099864 67.432722c-.87248.821667-.98504.234445-1.14856-.546666-1.09032-5.220556-2.4612-10.397223-3.26648-15.659445-.99064-6.472222-.94808-12.967778.4004-19.465555 1.8004-8.677223 6.88184-14.78 14.55552-18.82389 3.25024-1.712777 6.83144-2.808888 10.75088-4.381666.30016 3.048889.61264 5.574444.7868 8.109444.51016 7.436667.9352 14.87889 1.4532 22.314445.28392 4.07-1.42744 7.338889-3.962 10.313333-1.66712 1.956111-17.08 16.137778-19.56976 18.14" fill="#4ABA23"/>
  </g>
</svg>
