<svg width="80" height="80" xmlns="http://www.w3.org/2000/svg" xmlns:xlink="http://www.w3.org/1999/xlink">
  <defs>
    <path id="a" d="M0 48.623226V.01042h53.979737v48.612806z"/>
  </defs>
  <g fill="none" fill-rule="evenodd">
    <circle fill="#585AFA" cx="40" cy="40" r="40"/>
    <path d="M52.804124 64v-1.526762c-6.386483-.135445-11.677644-4.58768-12.901522-10.475256-.026306-.079082-.07282-.150771-.129262.003575-1.296346 5.764667-6.572892 10.296132-12.855814 10.46987V64h25.886598zm.575023-27.583066c1.00801-.644142 1.848818-1.387232 2.44297-2.157204-.24421-.582288-.548315-1.119492-.89953-1.590798-.873555 2.871882-3.687704 4.087904-6.417003 5.267278-2.116813.914594-4.11613 1.778482-5.223403 3.37007-.110417.159074-.357174.223987-.566752.148568-.208916-.075221-.3094-.265075-.230154-.435347 1.245957-2.680055 4.772213-7.342799 10.203462-8.20427-.06076-.356672-.154013-.70866-.275329-1.054037-2.595964.562805-4.668823 1.482085-6.300831 2.796364-.206879.186007-.421906.372655-.645184.559894-3.183139 2.669943-4.588813 5.53122-4.910692 10.359105 3.004017-5.229346 10.112704-7.576503 14.391962-7.820565.240748-.012874.452108.13012.469577.321208.01752.191037-.164403.357067-.40627.370928-4.379948.249735-11.013303 2.747186-13.727425 7.561162 1.43776-1.133797 3.40769-1.851237 5.755573-2.070094 3.499007-.32698 7.149838.554666 9.10785 2.160804.884964-.846821 1.55322-1.915804 1.916199-3.022719-.898104.543025-2.121346.937777-3.37102 1.050634-.01691.00153-.033767.00222-.05037.00222-.220223 0-.410141-.130664-.43581-.307496-.0274-.190396.145457-.362345.386458-.384196 1.758417-.15878 3.18599-.898317 3.741283-1.573781.059283-.509977.047416-1.013838-.044513-1.493726-2.929863 3.115106-8.265312 3.34516-12.138962 2.53336-.234432-.049276-.374032-.23918-.311897-.424298.062338-.185168.303086-.295756.537059-.246381 1.081401.226602 5.613172 1.020102 9.0969-.714826.303749-.531581.53324-1.083238.695962-1.64338-1.310944.878637-3.673494 1.451898-7.133693 1.737493-.015534.001233-.030966.001924-.046143.001924-.222056 0-.412688-.132636-.436217-.31085-.025211-.190594.149836-.361161.391092-.381187 4.546388-.37527 7.070744-1.248923 7.510068-2.597878.087957-1.062423-.035294-2.11661-.319994-3.085313-.595323.64937-1.343845 1.267863-2.202885 1.816758-.081285.05199-.178918.077244-.275838.077244-.12809 0-.254905-.044097-.341742-.12874-.152434-.149062-.123302-.367475.065242-.487928" fill="#FFF" fill-rule="nonzero"/>
    <path d="M28.030928 31.048185c1.46918.319268 2.780126.748715 3.945788 1.295234-.834033-1.050065-1.380719-2.07216-1.631896-3.05745-.047152-.184956.105287-.365058.340495-.402059.234955-.036661.464118.082743.51122.267651.38528 1.511123 1.539555 3.134414 3.434366 4.83297.222009.178645.436864.363893.643861.55657 2.14226 1.789991 3.506908 3.652673 4.290968 6.085716v-4.876089c0-2.709143 0-7.243385-2.103319-9.832493-.129165-.158978-.069922-.370157.132238-.47174.202262-.101389.470617-.05487.599783.103963.606683.74682 1.048737 1.633245 1.371298 2.58401v-4.721724c0-.188648.194453-.341557.434295-.341557.239843 0 .434346.15291.434346.341557v4.721723c.32251-.950764.764614-1.837189 1.371248-2.58401.129266-.158978.397722-.20535.599883-.103962.20206.101583.261353.312762.132188.47174-2.103319 2.589108-2.103319 7.12335-2.103319 9.832493v4.876138c.78401-2.433092 2.148607-4.295774 4.290917-6.085716.206896-.19258.42165-.37778.64351-.55628 1.895111-1.698798 3.049539-3.322186 3.434768-4.833309.047202-.184908.27571-.304166.51117-.26765.235207.037.387697.217102.340494.402059-.251177.98524-.797862 2.007384-1.632046 3.057595 1.165762-.546568 2.476709-.976112 3.945888-1.29538-.84839-1.814075-2.46492-3.388808-4.21102-4.379584.573134 4.01608-3.34535 7.26373-5.369225 8.182543-.068411.031029-.143069.045742-.21672.045742-.150172 0-.296062-.06128-.376614-.170779-.119896-.163446-.048714-.372245.159039-.466641 1.677335-.761583 4.201246-2.935132 4.835134-5.597708-.013602-.018792-.025844-.038507-.034911-.059824-.312939-.73099-.8897-1.369916-1.599302-2.026807-1.363036.806741-2.301248 2.715941-2.262962 4.578283.82557-.566817 1.520211-1.983008 1.732598-2.734442.05209-.184277.284526-.2997.518172-.2593.2342.040838.381804.22327.329664.407353-.008564.030883-.954685 3.091877-2.86889 3.4733-.035162.006992-.07103.01044-.106646.01044-.088613 0-.176016-.021269-.249918-.062155-.103574-.057347-.170172-.147276-.182363-.24648-.276164-2.243764.809802-4.630337 2.517463-5.6805-.13662-.119597-.276365-.240604-.418477-.363747-1.55492-1.346753-3.28102-2.843406-4.164069-5.220267-.88315 2.376813-2.609098 3.873514-4.164018 5.22017-.142163.123192-.281857.244198-.418478.363796 1.707612 1.050162 2.793577 3.436735 2.517514 5.680548-.012241.099204-.078839.189133-.182463.24648-.073852.040886-.161407.062154-.249868.062154-.035666 0-.071484-.003447-.106697-.01044-1.914155-.381422-2.860326-3.442416-2.86889-3.473299-.05209-.184083.095564-.366515.329664-.407352.235056-.040546.466133.075022.518172.2593.212387.751433.907029 2.167624 1.732649 2.734441.038286-1.862342-.899976-3.771542-2.262962-4.578332-.709603.65694-1.286363 1.295914-1.599251 2.026856-.009169.021366-.02141.04108-.035062.059872.633937 2.662528 3.157798 4.836077 4.835234 5.59766.207753.094396.278884.303195.158988.466641-.08045.109499-.226391.170779-.376513.170779-.073752 0-.14836-.014713-.21677-.045742-2.023926-.918813-5.94246-4.166464-5.369226-8.182543-1.746099.990873-3.36263 2.565557-4.21112 4.379584" fill="#FFF" fill-rule="nonzero"/>
    <path d="M32.959605 43.839154c2.348095.218857 4.318134.936343 5.756 2.070285-2.71408-4.814108-9.34751-7.3116-13.727574-7.561285-.241868-.01391-.42374-.179939-.406272-.370976.017419-.191086.227608-.332404.469579-.321158 4.279273.244062 11.387934 2.591161 14.391961 7.820391-.32188-4.82782-1.727508-7.689037-4.910607-10.358921-.223431-.187387-.438612-.374084-.645593-.560238-1.632014-1.314077-3.704779-2.233354-6.3006-2.796058-.121315.345376-.214569.697362-.275329 1.054083 5.431319.861468 8.957638 5.524097 10.203599 8.204192.079247.17027-.021136.360174-.230155.435345-.208967.075222-.456081.010359-.566753-.148567-1.107278-1.591533-3.106703-2.455467-5.223421-3.370058-2.72936-1.17937-5.54362-2.39534-6.417077-5.26726-.351216.471353-.655321 1.008507-.899532 1.590743.594103.770019 1.434912 1.513155 2.443029 2.157246.188544.120502.217676.338914.065241.487926-.086683.084692-.213602.12874-.341743.12874-.09687 0-.194452-.025206-.275838-.077244-.859145-.548893-1.607618-1.167384-2.202944-1.816654-.284599.968603-.407901 2.022785-.319944 3.085204.439274 1.34895 2.963537 2.222602 7.510144 2.597918.241156.019977.416305.190544.391095.381137-.023632.178213-.214213.31085-.436219.31085-.015228 0-.03066-.000691-.046194-.001875-3.46021-.285594-5.82277-.858903-7.133718-1.737536.162722.560139.392215 1.111695.695913 1.643275 3.48374 1.73502 8.015476.941572 9.096932.714971.233465-.04967.474773.060967.536959.246331.062237.185118-.077363.37507-.311847.424346-3.873103.8116-9.208928.581843-12.138902-2.533647-.09193.480035-.103797.983992-.044463 1.493967.555243.675511 1.982822 1.415047 3.741245 1.573825.241003.021802.41386.19375.38646.384195-.025618.176832-.215588.307445-.435811.307445-.016604 0-.033462-.00069-.05037-.00222-1.24968-.112856-2.472875-.507607-3.371032-1.05063.36293 1.10696 1.031238 2.17594 1.916205 3.022758 1.957917-1.606133 5.609524-2.487183 9.107576-2.160846" fill="#FFF" fill-rule="nonzero"/>
    <g transform="translate(13 10)">
      <mask id="b" fill="#fff">
        <use xlink:href="#a"/>
      </mask>
      <path d="M53.391452 31.692907C49.129706 17.562595 31.851024 4.720455 26.963264.0104 22.075454 4.720455 4.79682 17.562595.535076 31.692907c-.48752 1.616476-.692983 3.42472-.399478 5.189132.691413 6.594567 6.457508 11.741187 13.46839 11.741187 6.480152 0 11.969105-4.594994 13.29793-10.468083a.431233.431233 0 0 1 .013526-.032434c-.002026-.000244-.004053-.000538-.006079-.000782-.00537-.000636-.01074-.001174-.016058-.002006-.008156-.001174-.01626-.00269-.024366-.004256-.005268-.001027-.010537-.002006-.015805-.00318-.002837-.000685-.005825-.001125-.008763-.00186-.005167-.001222-.010182-.002885-.015299-.004304-.005268-.001468-.010486-.002935-.015703-.0045-.001419-.00049-.002938-.000832-.004407-.001322-.001419-.00039-.002888-.000733-.004357-.001222-.004559-.001517-.008915-.003327-.013323-.004942-.005622-.002054-.011093-.00406-.016564-.006261a.556779.556779 0 0 1-.019149-.008219.551002.551002 0 0 1-.018033-.008659c-.002736-.00137-.005674-.002593-.00841-.004011-.002887-.001517-.00542-.003278-.008256-.004843a.430338.430338 0 0 1-.017325-.010225c-.00547-.003375-.010891-.0068-.016109-.01042a.395664.395664 0 0 1-.01474-.010567.40869.40869 0 0 1-.01611-.012621.354427.354427 0 0 1-.012107-.010616c-.00542-.004892-.010637-.009784-.015652-.01492a.290384.290384 0 0 1-.01003-.010616.323289.323289 0 0 1-.014387-.016829c-.001621-.002006-.003445-.003816-.005066-.00587-.310018-.404768-1.794157-.930662-3.414968-.83874-1.382268.080523-3.264112.617766-4.379015 2.721294-.070007.132036-.232311.211483-.403227.211679-.056077 0-.113015-.00861-.168028-.026711-.222687-.073283-.327698-.274688-.234794-.450117 1.353597-2.553742 3.789372-3.065009 5.120832-3.14245.881324-.051121 1.720502.047013 2.423364.229633-1.723087-1.605127-4.163674-2.07985-5.63211-2.216436-3.194155-.296751-6.626904.523399-8.362502 1.966501.381546.29049.793334.541011 1.23045.739873.035105.015996.066006.035467.093107.057237 2.494537.062177 5.357145-.426 6.81322-1.414778-1.35765-.187512-2.914937-.136097-4.92479.777883-.208908.095101-.476122.038451-.596584-.12602-.120563-.164616-.049086-.374974.159771-.470026 2.65983-1.2099 4.683918-1.045282 6.313239-.724022.141686.027885.256373.109729.30546.218087.049086.108359.026138.228997-.061042.321212-1.862139 1.969975-7.555846 2.59009-10.865651 1.760155.381191.51293.921749 1.062893 1.636413 1.5701 1.136634.595214 3.402608-.028814 4.675356-.607885.208858-.094807.47592-.03855.596533.12597.120614.16447.049086.374975-.159771.470076-.846422.385004-2.205388.840257-3.490599.92572 1.419299.625007 3.2515 1.037798 5.54878.969994.237174-.008072.443802.14094.452718.330946.009067.190056-.179021.349635-.420147.356875-.176994.005185-.351506.00773-.523486.00773-3.245622 0-5.600448-.909529-7.194968-2.022419-.028317-.01536-.056482-.031064-.08409-.04755-.040221-.023922-.07325-.052492-.099692-.083752-1.159075-.85146-1.887467-1.803059-2.240797-2.5511-.064182-.135901-.013272-.289169.127452-.382753.140623-.093585.34097-.107821.500285-.035272.486608.221365 1.111863.38383 1.817916.489204-1.775314-1.250258-2.980436-3.237013-3.238835-5.184876-.009423-.030771-.01302-.062031-.01155-.092998-.102884-.877632-.01236-1.744892.306777-2.530603.052683-.129688.19746-.222783.369337-.237264.17051-.015067.338336.05215.424807.170047.379621.518067.813343.95703 1.284552 1.32951-.295987-.76169-.466599-1.537177-.53068-2.303955-.00471-.019715-.009523-.039527-.013677-.059487-.008105-.03899-.007142-.07744.000963-.114278-.160531-2.555405.849562-4.992717 2.32281-6.462872.109216-.10924.291023-.155225.460976-.118094.16975.03762.294163.151996.315388.29.102681.66747.309462 1.245953.598914 1.755655.006636-.138347.01778-.276254.033686-.413671.00066-.010616.002128-.02133.004053-.032092.072084-.59585.229221-1.180987.456062-1.74729.002077-.011006.004812-.022062.008308-.03307.008155-.02539.019908-.049213.034294-.071619 1.004269-2.406051 3.258997-4.458017 5.564634-5.506772.150096-.068342.337576-.06032.477237.02084.13971.080963.20521.219408.167217.352716-.125273.437984-.186821.87132-.195433 1.296928.570191-.735371 1.340629-1.404113 2.141612-2.099174 1.80059-1.562517 3.841396-3.333533 4.401304-6.489436.000202-.000978.000557-.001957.00076-.002984.001469-.007876.003495-.015557.005622-.023237.001064-.003523.001824-.007143.002938-.010665.002432-.007485.00542-.014872.00851-.02221.00142-.003424.002685-.007044.004205-.01042.003495-.007534.007497-.014823.0116-.022112.001622-.002886.00309-.005821.004762-.008708.00542-.008903.0115-.017611.017882-.026172.000608-.000832.001115-.001663.001722-.002495.0656-.086149.178059-.149207.314122-.164177.00998-.001125.019858-.001516.029787-.002054.00152-.000098.002988-.000245.004559-.000294.01089-.000538.021731-.000587.032572-.00044.00471 0 .009371 0 .014082.000146.007599.000294.015096.000881.022695.001468.005724.00044.011448.000538.017273.001174.00233.000245.00456.000734.00689.001028.004154.000538.008206.001271.01236.001858.01074.001615.021377.003278.031812.00543a.050865.050865 0 0 0 .00228.000539c.097666.020742.180135.066678.237276.127584a.011474.011474 0 0 1 .001064.001223c.00775.008317.015095.016878.021833.025683.002127.00274.0039.005626.005876.008464.004914.00675.009777.013502.014032.020546.002229.003718.004103.007534.00618.0113.003596.006507.007244.013063.010384.019716.001723.003718.00304.00768.00466.011447.002888.007045.005776.014187.008106.021378.001165.003571.001976.00729.002989.01091.002127.007631.004153.015263.005673.02309.000152.001027.000507.001957.000659.002984.559908 3.155903 2.600713 4.92692 4.401304 6.489485.800983.69511 1.57147 1.363803 2.14156 2.099174-.00856-.425656-.070007-.858944-.195332-1.296977-.038043-.133308.027507-.271753.167218-.352716.139813-.08116.32704-.089182.477237-.02084 2.305486 1.048706 4.560112 3.100623 5.56438 5.506625.014488.022455.026291.046328.034447.071766.003495.011105.00623.022161.008358.033266.226334.56508.383268 1.148896.455505 1.743425 0 .00005.00005.000147.00005.000245.002331.012034.00375.02397.00451.035858.015905.13732.027.275129.033635.413378.289554-.509702.496233-1.088234.598914-1.755704.021225-.138005.145688-.25238.315439-.29.169852-.037473.351608.00905.460975.118094 1.473197 1.470106 2.483291 3.907271 2.322862 6.462579.008105.036983.009169.075484.001013.114571-.004154.01996-.009017.039772-.013728.059536-.064132.766778-.234693 1.542313-.53068 2.304053.471158-.372578.904982-.81154 1.284603-1.329657.086268-.117898.251611-.185114.424806-.170047.171828.01448.316655.107576.369338.237264.319087.785612.40961 1.652678.306777 2.530163.00157.031162-.002178.062716-.011651.09378-.258602 1.947765-1.463623 3.934276-3.238784 5.184534.706103-.105375 1.331358-.26779 1.818017-.489204.159467-.07255.359763-.058313.500285.035272.140623.093584.191584.246852.127452.382753-.353229.747797-1.08157 1.699103-2.240342 2.550415-.026493.031554-.059774.060368-.1003.084437-.028215.016877-.056989.032923-.086065.048675-1.59452 1.112254-3.94889 2.021097-7.192892 2.021293-.172283 0-.346238-.002544-.523536-.00773-.241075-.00724-.429163-.166818-.420096-.356874.008966-.18981.215392-.338724.452719-.330946 2.299052.067902 4.131355-.34484 5.550298-.969896-1.285717-.08517-2.64529-.540668-3.492067-.925818-.208858-.095101-.280486-.305606-.159873-.470076.120563-.16452.387625-.220777.596584-.12597 1.274319.579805 3.544142 1.204322 4.679611.605586.712588-.506571 1.251625-1.055703 1.632056-1.5678-3.309754.829444-9.003664.210014-10.865549-1.760157-.087231-.092215-.110128-.212852-.061092-.32121.049137-.10836.163773-.190203.30546-.218088 1.629067-.320722 3.653256-.48573 6.313086.724022.208857.095052.280486.30541.159872.470027-.120613.16447-.387827.22112-.596583.126019-2.009702-.914322-3.566736-.965395-4.924689-.777883 1.456075.988632 4.318683 1.476857 6.813321 1.414728.02705-.02177.0579-.04119.093006-.057187.437065-.198862.848853-.449383 1.23045-.739873-1.735801-1.443298-5.169208-2.263595-8.362807-1.966306-1.468384.13639-3.90892.611114-5.631906 2.216436.702912-.182815 1.542293-.280754 2.423516-.229828 1.331409.077441 3.767184.588708 5.12078 3.14245.092905.175429-.012157.376834-.234743.450117-.054911.0181-.112001.02671-.168078.02671-.170966 0-.33322-.079642-.403278-.211678-1.114852-2.103528-2.996696-2.640771-4.379015-2.721294-1.619899-.092607-3.104848.433972-3.414968.83874-.00152.002006-.003343.003815-.004964.005772-.00466.005822-.009524.011545-.01464.017122a.373031.373031 0 0 1-.009574.010176c-.005269.005332-.010689.010469-.016312.015557a.7294.7294 0 0 1-.011347.009881c-.00547.0046-.011195.008953-.01702.013307a.368173.368173 0 0 1-.013678.009882c-.005623.003864-.011347.007534-.017223.011153-.005319.003278-.010689.006458-.01621.009491-.005623.003229-.011398.006262-.017325.009246-.00005.000049-.000101.000098-.000202.000098-.005775.002886-.01155.005675-.017477.008365-.003445.001566-.006737.003376-.010283.004843 0 .00005-.00005.00005-.000101.00005-.001014.00044-.001976.000733-.00299.001174-.002076.000831-.004204.001565-.00628.002397-.005269.002103-.010639.004109-.016008.006066-.00456.001663-.008916.003473-.013526.00499-.002583.00088-.005167.001418-.00775.00225-.000456.000147-.000861.000244-.001266.000391-.005066.001566-.010233.002984-.015299.004403-.005217.001419-.010232.003082-.0155.004354-.002939.000734-.006029.001223-.009018.001908-.005065.001125-.010232.002104-.015298.003082-.008257.001565-.016514.00313-.024771.004354-.005218.000783-.010537.00132-.015805.001957-.00537.000636-.010638.001467-.016007.001956.003799.008904.007244.018248.010486.027738 1.249497 5.97362 6.714894 10.471605 13.268954 10.471605 5.994153 0 11.075117-3.763592 12.85575-8.976255 1.151932-2.595031.964553-5.534413.234844-7.954064" fill="#F2F2F2" fill-rule="nonzero" mask="url(#b)"/>
    </g>
    <path d="M31.859087 37.366175c1.17285.497172 2.36779 1.003972 3.408954 1.64875-1.645323-2.220158-4.411409-4.764656-8.065542-5.373134-.017734.35828-.000254.719785.057304 1.082397.004003.025227.004054.050069.000963.074333 1.172647 1.115086 2.856375 1.82919 4.598321 2.567654m20.602779-2.641987c.05756-.362612.07499-.724117.057306-1.082397-3.653784.608526-6.420216 3.15312-8.065564 5.373134 1.04113-.644922 2.236038-1.151578 3.409006-1.64875 1.74187-.738416 3.425676-1.452568 4.598188-2.567606-.002989-.024312-.002989-.049202.001065-.07438" fill="#FFF" fill-rule="nonzero"/>
  </g>
</svg>
