<svg width="80" height="80" viewBox="0 0 80 80" xmlns="http://www.w3.org/2000/svg">
  <title>
    bpt-blockport
  </title>
  <defs>
    <linearGradient x1="154.319624%" y1="-53.419059%" x2="-11.173073%" y2="110.614031%" id="a">
      <stop stop-color="#069AFF" offset="0%"/>
      <stop stop-color="#0168FF" offset="100%"/>
    </linearGradient>
  </defs>
  <g fill="none" fill-rule="evenodd">
    <circle fill="#FFF" cx="40" cy="40" r="40"/>
    <g fill-rule="nonzero">
      <path d="M30.944643 54.665179c-9.587845.006716-18.235551-5.763103-21.91035-14.61876-3.674797-8.855658-1.65292-19.052993 5.122753-25.836582 6.775671-6.78359 16.970638-8.817374 25.830581-5.15292 8.859943 3.664453 14.639857 12.305416 14.644337 21.893262-.009132 13.082846-10.604495 23.690589-23.687321 23.715zm0-39.64125c-6.44856-.006719-12.26568 3.873221-14.737059 9.829415-2.471379 5.956194-1.10992 12.814712 3.449109 17.375326 4.55903 4.560615 11.417073 5.924457 17.374126 3.45515 5.957053-2.469309 9.839014-8.28508 9.834538-14.733641-.009132-8.791674-7.129055-15.919023-15.920714-15.937322v.011072z" fill="url(#a)" transform="translate(9 9)"/>
      <path d="M67.833571 53.318929c.055358-.11625.121786-.215893.177143-.332143 3.56032-7.4969 3.931371-16.116416 1.028477-23.891542-2.902895-7.775126-8.832035-14.042424-16.43437-17.371673v-.044285c-.31-.138393-.625535-.238036-.935535-.365357-.409643-.171608-.824822-.332143-1.24-.481608-.553572-.204821-1.107143-.3875-1.699465-.553571-.404107-.121786-.808214-.2325-1.212321-.337679-.605238-.155-1.210476-.289702-1.815714-.404107-.370893-.071964-.741786-.132857-1.107143-.188214-.627381-.095952-1.254762-.171607-1.882143-.226964-.343214-.027679-.691964-.055357-1.035179-.071965-.656904-.036904-1.311964-.051666-1.965178-.044285-.34875 0-.6975 0-1.040714.027678-.636608.027679-1.267679.071965-1.893215.138393-.381964.03875-.758393.088572-1.134821.143929-.553572.083035-1.156964.177143-1.727143.293393-.431786.088571-.863571.182678-1.295357.287857-.431786.105178-1.001964.254643-1.494643.404107-.492679.149464-.979821.31-1.466964.481607-.487143.171607-.835893.304464-1.245536.470536-.553571.215893-1.073929.453928-1.605357.6975-.34875.160535-.691964.326607-1.029643.50375-.553571.287857-1.107143.597857-1.660714.918928-.298929.177143-.592322.359822-.885715.553572-.54988.369047-1.08869.738095-1.616428 1.107143-.280476.206666-.557262.417023-.830357.631071-.512977.394881-1.016727.81006-1.51125 1.245536-.282322.249107-.553572.509285-.830357.769464-.442858.428095-.874643.870952-1.295358 1.328571-.282321.31-.553571.625536-.830357.946608-.381964.453928-.752857.918928-1.107143 1.395-.265714.354285-.520357.714107-.769464 1.107142-.188214.276786-.398571.553572-.58125.819286-.182678.265714-.276786.492679-.420714.73625-.199286.332143-.393036.669822-.553572 1.013036-.337678.614464-.65875 1.234464-.952142 1.86-.105179.110714-.182679.243571-.221429.370893-.03875.127321-.11625.315535-.182679.470535-.295238.682739-.562797 1.371012-.802678 2.064822-.099643.291548-.195595.583095-.287857.874643-.210357.675357-.394881 1.35256-.553572 2.031607-.08119.335833-.156845.671666-.226964 1.0075-.129167.634762-.238036 1.269524-.326607 1.904286-.055357.3875-.105179.769464-.143929 1.156964-.060893.592321-.099643 1.179107-.127321 1.771428 0 .42625-.033214.846965-.033214 1.273215 0 .553571 0 1.107143.044285 1.660714 0 .437321.049822.874643.088572 1.311964.049821.553572.127321 1.107143.204821 1.660715.03875.398571.132857.846964.188214 1.267678.105179.553572.238036 1.107143.376429 1.660714.121786.409643.19375.791608.304464 1.190179.166072.553571.359822 1.140357.553572 1.705.127321.359821.254643.719643.393035 1.073929.226965.553571.481608 1.140357.741786 1.699464.155.332143.31.664286.476072.990893.282321.553571.586785 1.107143.896785 1.621964.19375.332143.3875.65875.592322.979821.315535.492679.653214.974286.996428 1.450358.249107.34875.50375.691964.769465 1.029642.265714.337679.686428.824822 1.040714 1.228929.354286.404107.65875.747321 1.0075 1.107143.34875.359821.65875.653214 1.001964.974286.343214.321071.846964.786071 1.295357 1.1625.31.260178.631072.514821.957679.763928.50375.393036 1.013036.769464 1.544464 1.107143.138393.094107.260179.199286.398572.293393 6.887143 4.619525 15.350856 6.254669 23.463095 4.532943 8.112238-1.721726 15.18216-6.653698 19.599226-13.672407h.033214c.105179-.166072.188215-.343215.293393-.514822.226964-.370893.437322-.758393.653214-1.145893.321072-.525893.62-1.073928.89125-1.633035zm-39.580357 12.67125a28.52553 28.52553 0 0 1-4.428571-2.496608c-.492679-.337678-.96875-.691964-1.43375-1.057321-.293393-.226964-.586786-.459464-.869107-.6975-.415179-.34875-.808215-.714107-1.195715-1.079464-.3875-.365357-.62-.586786-.918928-.896786-.298929-.31-.631072-.680893-.93-1.024107-.298929-.343214-.642143-.741786-.946607-1.107143-.304465-.365357-.476072-.631071-.708572-.952143-.315535-.442857-.631071-.885714-.918928-1.339643-.188215-.298928-.365357-.597857-.553572-.902321-.287857-.492679-.553571-.990893-.830357-1.494643-.155-.298929-.293393-.603393-.437321-.907857-.215893-.548036-.448393-1.062857-.65875-1.594286-.127322-.321071-.238036-.647678-.354286-.96875-.188214-.525893-.365357-1.051786-.520357-1.58875-.105179-.359821-.19375-.714107-.282322-1.068393-.127321-.520357-.249107-1.040714-.34875-1.561071-.071964-.409643-.132857-.769464-.204821-1.151429-.0775-.514821-.143929-1.029643-.19375-1.55-.03875-.393035-.060893-.786071-.083036-1.179107 0-.525893-.044285-1.051786-.044285-1.577678 0-.381965 0-.763929.033214-1.140358 0-.553571.060893-1.107142.11625-1.660714.033214-.343214.083036-.691964.127321-1.035178.083036-.597858.182679-1.195715.304465-1.788036.060892-.298929.127321-.597857.199285-.89125.155-.638452.339524-1.273214.553572-1.904286.08119-.258333.166071-.516666.254643-.775.225119-.653214.474226-1.299047.747321-1.9375.110714-.260178.221429-.514821.343214-.769464.276786-.597857.553572-1.173572.89125-1.74375.171607-.304464.337679-.608929.520357-.913393.298929-.498214.614465-.979821.941072-1.455893.226964-.332143.459464-.65875.6975-.979821.335833-.446548.682738-.882024 1.040714-1.306429.247262-.302619.49637-.58494.747322-.846964.398571-.428095.804523-.850655 1.217857-1.267679a22.10267 22.10267 0 0 1 .747321-.691964c.450238-.402262.911548-.789762 1.383929-1.1625.247262-.195595.498214-.380119.752857-.553571.490833-.369048.990893-.712262 1.500178-1.029643.269405-.173453.540655-.339524.81375-.498215.505596-.298928 1.018572-.583095 1.538929-.8525.31-.15869.62369-.311845.941071-.459464.490834-.22881.985358-.444702 1.483572-.647678.369048-.15131.751012-.295239 1.145893-.431786.446547-.15869.89863-.30631 1.35625-.442857.457619-.136548.917083-.260179 1.378393-.370893a32.591005 32.591005 0 0 1 1.190178-.265714c.527738-.107024 1.059167-.19744 1.594286-.27125.346905-.047977.695655-.092262 1.04625-.132858.583095-.059047 1.168036-.101488 1.754821-.127321h.952143c.605238 0 1.212322.014762 1.82125.044286l.946607.066428c.597857.051667 1.19387.123631 1.788036.215893.335833.051667.671667.10887 1.0075.171607.564643.107024 1.129286.2325 1.693929.376429.365357.094107.730714.19375 1.107142.304464.531429.15869 1.061012.332143 1.58875.520357.376429.138393.747322.282322 1.107143.437322 7.294296 2.951335 13.037423 8.796362 15.860028 16.14143 2.822605 7.345069 2.471733 15.531933-.968956 22.60857-.254643.553571-.553572 1.040714-.819286 1.55-.19375.343214-.381964.691964-.586786 1.029643-7.522635 12.199005-22.91938 16.936648-35.99875 11.076964v.005536z" fill="#003E89"/>
    </g>
  </g>
</svg>
