<svg width="80" height="80" viewBox="0 0 80 80" xmlns="http://www.w3.org/2000/svg">
  <title>
    bq-bitqy
  </title>
  <g fill="none" fill-rule="evenodd">
    <circle fill="#000" cx="40" cy="40" r="40"/>
    <g fill="#FFF">
      <path d="M24.90234 39.850854c-.000336 5.44285 4.343748 9.854668 9.66998 9.82036 5.303663-.034137 9.6112-4.379473 9.61398-9.698234.002862-5.508478-4.266106-9.88027-9.641096-9.873272-5.3296.006827-9.642526 4.368207-9.642863 9.751146m.0112 10.565748v3.246712h-4.913514v-36.66328c1.396127.025603 2.576506.53442 3.524548 1.545225.90602.966083 1.358484 2.129823 1.35259 3.477222-.010527 2.416067-.002948 4.83222-.002948 7.36461 3.429642-2.925823 7.2512-4.369916 11.70139-3.675478 4.41179.68855 7.799662 2.9568 10.107283 6.83258 3.487326 5.857104 2.35739 13.33761-2.693306 17.99351-4.927158 4.541965-13.110316 5.244084-19.076042-.121103"/>
      <path d="M40.80469 53.59678c.196464-.119736.296674-.19023.404548-.245105 1.556884-.792497 2.94139-1.820712 4.124716-3.118527.262905-.288375.556042-.434397.95082-.457525 4.174148-.24519 7.934148-3.676842 8.6416-7.87112.929348-5.51027-2.350484-10.377225-7.773978-11.432238-.80817-.157202-1.386442-.465035-1.925474-1.072764-.999747-1.127297-2.211453-2.007442-3.5056-2.766485-.10779-.06324-.212716-.131513-.3936-.24374 2.457937-.690256 4.85482-.852152 7.285726-.289655 2.415074.558827 4.49777 1.768994 6.446906 3.422007V26.26672h4.925558v36.669c-1.388548-.039173-2.554106-.54543-3.501558-1.535155-.931285-.972742-1.377348-2.157647-1.378106-3.512556-.001515-2.401987-.00042-4.804058-.00042-7.32339-4.244548 3.629306-8.938274 4.71692-14.301138 3.03216"/>
    </g>
  </g>
</svg>
