<svg width="80" height="80" xmlns="http://www.w3.org/2000/svg">
  <defs>
    <linearGradient x1="0%" y1="50%" y2="50%" id="a">
      <stop stop-color="#FB9C34" offset="0%"/>
      <stop stop-color="#FF5687" offset="100%"/>
    </linearGradient>
  </defs>
  <g fill="none" fill-rule="evenodd">
    <circle fill="url(#a)" cx="40" cy="40" r="40"/>
    <path d="M43.770946 28.727826c-2.324568-.201739-4.549153 0-6.648762.529565-.674875.176522-1.12479.78174-1.12479 1.462609v7.413913c0 1.084348 1.099794 1.815652 2.099608 1.386957 1.249767-.529566 2.599516-.832174 4.049246-.806957 5.224027.075652 9.598213 4.312174 9.848166 9.582609.274949 5.8-4.2992 10.591304-9.998138 10.591304-5.174036 0-9.44824-3.984348-9.948147-9.07826-.024996-.327827-.049991-.655653-.049991-1.008696V12.513043c0-.832173-.674874-1.513043-1.49972-1.513043H23.49972C22.674874 11 22 11.68087 22 12.513044v36.313043c0 7.464348 4.02425 13.970435 9.998138 17.475652C34.947588 68.016522 38.346956 69 41.996276 69c11.422873 0 20.62116-9.65826 19.97128-21.333913-.549897-9.910435-8.37344-18.055652-18.19661-18.93826z" fill="#FFF"/>
  </g>
</svg>
