<svg width="80" height="80" xmlns="http://www.w3.org/2000/svg">
  <g fill="none" fill-rule="evenodd">
    <circle fill="#0E51B5" cx="40" cy="40" r="40"/>
    <circle fill="#000" cx="40" cy="40" r="31"/>
    <path d="M41.299096 37.090408c-.16992 1.10952-.74232 1.79784-1.71216 1.93176-.76824.10512-1.54944.11736-2.44944.18v-5.07024c1.06776-.00648 2.11752-.18216 3.11472.3276.95328.48744 1.25856 1.24704 1.04688 2.63088zm1.21392 4.23c.74016-.55656 1.37664-1.24848 1.57968-2.142.35712-1.5696.414-3.17016.04176-4.7664-.37296-1.60128-1.78416-3.06144-3.42072-3.17232-2.16648-.1476-4.34664-.0972-6.52032-.126-.04536 0-.09144.06696-.19224.14544v17.48448h3.03696v-6.27264h1.87704c.90144 2.124 1.78128 4.1976 2.6568 6.26184h3.43008c-1.0548-2.38896-2.06928-4.6872-3.09168-7.002.26064-.17712.43776-.28656.60264-.4104zm-14.8608 4.40496c-.80496.07488-1.62288.0144-2.51568.0144v-4.76568c.98424.06264 1.85976.06048 2.71584.1872 1.17432.17424 1.77336.99 1.75104 2.22192-.02232 1.23336-.8136 2.23704-1.9512 2.34216zm-2.51784-11.65104c.66888 0 1.26792-.02232 1.86552.00432.94248.0432 1.6416.56736 1.836 1.33488.24984.98928-.15912 2.05344-.95544 2.53008-.8388.5004-1.73952.36216-2.74608.31104v-4.18032zm5.2884 5.6448c-.25704-.11664-.51408-.23472-.81432-.37224.34992-.23616.64008-.39312.8856-.60336 1.40688-1.20744 1.48968-2.79576 1.29312-4.4784-.18072-1.55088-1.55808-2.86704-2.88072-2.98872-2.27448-.21024-4.56984-.19512-6.90624-.27648v17.79264c1.638 0 3.20544.03672 4.77072-.0144.86976-.0288 1.7568-.11664 2.59488-.33336 1.07208-.27864 1.8828-.96048 2.484-1.93032.78984-1.27368.76392-2.63952.61488-4.03344-.13968-1.30968-.84888-2.21976-2.04192-2.76192zm22.66128-1.6236c1.36368-2.29392 2.73168-4.59504 4.14936-6.9804h-3.39696c-1.38744 2.40552-2.75256 4.77288-4.11768 7.13952-.072-.02376-.14328-.0468-.21528-.07056v-7.06824h-3.04704v17.61336h3.0492c0-1.12248.09648-2.18736-.02088-3.22776-.19728-1.73592.99072-2.80152 1.73088-4.2372 1.20312 2.59632 2.33784 5.04432 3.46392 7.47432h3.32064c-1.66392-3.60216-3.28536-7.11144-4.91616-10.64304z" fill="#FFF"/>
  </g>
</svg>
