<svg width="80" height="80" viewBox="0 0 80 80" xmlns="http://www.w3.org/2000/svg">
  <title>
    btcd-bitcoindark
  </title>
  <g fill="none" fill-rule="evenodd">
    <circle fill="#FFF" cx="40" cy="40" r="40"/>
    <g fill-rule="nonzero">
      <path d="M43.235 49.454c15.24-4.622 9.8-20.158 0-20.748 2.49 0 4.523-7.015 4.523-15.7 23.927 1.67 35.17 40.447-.72 52.575.23-3.146-1.08-11.93-3.802-16.126" stroke="#000" stroke-width=".25" fill="#000"/>
      <path d="M10 44.864c17.863 0 32.318-14.226 32.318-31.827H25.635c.032 8.62-6.95 15.667-15.602 15.7H10v16.127zm21.862-2.917c-4.522 4-7.047 6.064-19.436 8.03 7.31 0 13.208 7.21 13.208 16.127h16.684c0-2.688-.557-16.16-10.456-24.157z" fill="#F60"/>
    </g>
  </g>
</svg>
