<svg width="80" height="80" viewBox="0 0 80 80" xmlns="http://www.w3.org/2000/svg">
  <title>
    btcz-bitcoinz
  </title>
  <defs>
    <linearGradient x1="0%" y1="50%" y2="50%" id="a">
      <stop stop-color="#FDDA3E" offset="0%"/>
      <stop stop-color="#FFA700" offset="100%"/>
    </linearGradient>
  </defs>
  <g fill="none" fill-rule="evenodd">
    <path d="M60.079486 65.164496v-.004103c1.226895 0 2.453961.012479 3.680685-.005812.529165-.007863.75152-.214017.84591-.66718.13362-.642393-.025696-1.31453-.378929-1.481025-.147837-.069744-.331306-.082222-.499529-.088034-.398972-.013334-.7988-.00718-1.198116-.008718-.627665-.002735-1.2591.03624-1.882312-.018462-.808394-.07094-1.109208-.727863-.689508-1.417094.088566-.145299.198202-.278632.304754-.412136.959486-1.201197 1.921884-2.400171 2.880343-3.602223.390407-.489743.785439-.976239 1.156145-1.480512.430322-.585129.394176-1.24735.152463-1.871795-.22938-.592308-.81439-.41436-1.276917-.417778-1.911606-.013675-3.823554-.006325-5.735332-.006496-.285224 0-.571477-.014359-.855674.004103-.605054.039145-.817987.248889-.865953.831282-.011649.141538-.006852.284786-.00274.427008.021412.753505.218586.972308.969078.992308.798459.021368 1.597945-.001026 2.396746.01265.28197.004615.576445.017094.84214.100341.526596.164616.742956.680342.510493 1.155727-.07349.150427-.193918.27983-.302698.41094-1.309122 1.577436-2.610706 3.161368-3.935417 4.725812-.43546.51436-.766082 1.015385-.696189 1.747522.082227.86359.21122 1.060854 1.070836 1.070427 1.16985.013162 2.339871.003248 3.509721.003248m-13.96848-26.89829c.770364-.735898 1.441713-1.384445 1.861242-2.249573 1.298502-2.678804.787152-6.075727-1.311691-8.343761-1.320257-1.426325-2.940129-2.252479-4.92334-2.153675-.70424.035042-1.403512.22752-2.097988.379829-1.230492.269743-1.489336.108205-1.761884-1.14718-.102613-.472137-.19666-.948034-.335075-1.410256-.158287-.529231-.521285-.812137-1.003683-.72906-.728394.1253-1.453705.288376-2.163769.49282-.550064.158462-.7397.538633-.640685 1.117436.076745.447864.16668.894188.267751 1.337265.299958 1.315898.166853 1.535556-1.13576 1.821368-1.585781.347692-3.17516.679316-4.75666 1.044786-1.523083.351795-2.207965 1.413334-1.883511 2.894188.68728 3.137094 1.384154 6.271966 2.079315 9.40718.959657 4.327692 1.914175 8.65658 2.893704 12.979829.09045.399316.281628.81265.536531 1.131795.624583.781538 1.485568.871965 2.410107.663077 1.638373-.370257 3.275032-.749744 4.917516-1.100855 1.027838-.219487 1.341157-.000171 1.56968 1.014017.118714.526667.206594 1.06188.354432 1.58.167023.584957.579186.822906 1.169679.704957.614132-.122735 1.22638-.258461 1.833147-.413333.743298-.189744.964112-.566838.80651-1.306667-.082912-.388889-.1612-.778803-.24-1.168718-.290707-1.439829-.19666-1.62547 1.223126-1.929914 1.600514-.343077 2.999572-1.097778 4.271863-2.072992 1.372677-1.052307 2.311264-2.40017 2.632634-4.158974.231092-1.263932-.046938-2.440684-.43152-3.599316-.832035-2.505983-2.565653-4.038291-5.170707-4.568035-.277002-.05641-.551949-.122735-.970964-.216239m-6.180899 35.22735c.884625 0 1.771991.042394 2.653362-.011965.879657-.054188 1.76668-.14376 2.627323-.326496 1.670407-.35453 3.338073-.736923 4.980386-1.201368 1.128736-.319145 1.934732-1.509401 1.852848-2.603931-.08788-1.175214-.722399-2.153162-1.957688-2.532992-.63863-.196068-1.237002-.115897-1.845995.06906-1.611307.489402-3.247624.838975-4.924711 1.038633-2.537217.30188-5.070835.290427-7.585097-.097436-4.887366-.753504-9.320085-2.620513-13.187152-5.718462-6.855503-5.492137-10.406852-12.675555-10.802055-21.409914-.104326-2.30735.16137-4.611111.697045-6.860342 1.649336-6.926325 5.347837-12.522564 11.145353-16.67983 6.127794-4.394187 12.996146-5.927692 20.433233-4.96547 3.16317.409232 6.165653 1.419488 8.986895 2.907351 3.158887 1.665983 5.921542 3.839487 8.25559 6.554188 4.507066 5.24188 6.754774 11.330427 6.885652 18.211795.018844.993675.000857 2.002051-.146295 2.98171-.240171 1.597777-.602484 3.177093-.909465 4.764786-.175417.908034-.073833 1.762051.553148 2.48923.733533.850428 1.704668 1.020342 2.731135.8 1.006766-.215897 1.664068-.921367 1.891563-1.896239.360942-1.546324.63863-3.113333.91272-4.678461.465438-2.656752.402226-5.335214.109293-7.995214-.229722-2.085983-.668266-4.139829-1.28925-6.162564-1.419787-4.624615-3.757945-8.72-6.948695-12.331453-2.200599-2.490598-4.723254-4.620855-7.565224-6.3653-4.705268-2.888033-9.821842-4.526837-15.320429-4.90735-3.053533-.211453-6.0985-.016239-9.10698.628547-8.23606 1.7653-14.931392 5.984103-19.997602 12.677607-4.73833 6.25983-6.964797 13.359317-6.730792 21.21983.056188 1.88376.235374 3.752478.618072 5.590427 1.221242 5.864102 3.768566 11.104102 7.78998 15.55282 6.721712 7.43624 15.141412 11.211966 25.193832 11.258804M.000857 39.937658C-.066124 17.99065 18.05396.020222 40.207966.171846c21.877002.149744 40.00394 18.133675 39.65242 40.508376-.3421 21.76735-18.336617 39.320855-40.182784 39.210086C17.954946 79.780222-.136874 62.012872.000857 39.937658" fill="#444"/>
    <path d="M39.93009 73.493487c-10.05242-.046667-18.47212-3.822393-25.193833-11.258632-4.021242-4.44889-6.568737-9.68889-7.789807-15.552992-.38287-1.837949-.562056-3.706666-.618244-5.590256-.234005-7.860513 1.992462-14.960171 6.730792-21.22C18.125208 13.178273 24.82054 8.95947 33.0566 7.194c3.00848-.644786 6.053447-.83983 9.10698-.628547 5.498587.380513 10.61516 2.019316 15.320429 4.90735 2.84214 1.744445 5.364625 3.874872 7.565224 6.36547 3.19075 3.611283 5.528908 7.706667 6.948694 12.331283.620985 2.022906 1.05953 4.076752 1.28925 6.162564.292934 2.66.356146 5.338461-.109293 7.995213-.27409 1.565129-.551777 3.132137-.91272 4.678462-.227494.974872-.884796 1.680342-1.891562 1.89641-1.026467.220171-1.997602.050427-2.731135-.80017-.62698-.72718-.728566-1.581197-.553148-2.48906.30698-1.587693.669293-3.16718.909465-4.764787.147152-.979658.165139-1.988034.146295-2.98171-.130878-6.881538-2.378586-12.969914-6.885653-18.211794-2.334047-2.714701-5.096702-4.888376-8.255589-6.554188-2.821242-1.488034-5.823726-2.49812-8.986895-2.90735-7.437088-.962223-14.305439.571281-20.433233 4.965298-5.797516 4.157265-9.496017 9.753505-11.145353 16.67983-.535675 2.24923-.801371 4.553162-.697045 6.860512.395203 8.734188 3.946552 15.917778 10.802055 21.409744 3.867066 3.097949 8.299786 4.964957 13.187152 5.718632 2.514261.387693 5.04788.399317 7.585097.097265 1.677087-.199658 3.313404-.54923 4.92471-1.038461.608994-.184957 1.207538-.2653 1.845996-.069231 1.23529.37983 1.869808 1.357949 1.957688 2.533162.081884 1.09436-.724112 2.284616-1.852848 2.603761-1.642142.464445-3.309979.846838-4.980386 1.201539-.860642.182735-1.747494.272136-2.627323.326495-.88137.054188-1.768566.011795-2.653362.011795zm6.180916-35.227419c.419015.093676.693962.16.970964.21624 2.605054.529914 4.338672 2.062222 5.170707 4.568205.384582 1.158632.662612 2.335384.43152 3.599316-.32137 1.758633-1.259957 3.106667-2.632634 4.158804-1.272291.975213-2.671349 1.729914-4.271863 2.073162-1.419786.304444-1.513833.489914-1.223126 1.929744.0788.390085.157088.78.24 1.168888.157602.739659-.063212 1.116753-.80651 1.306667-.606766.154872-1.219015.290598-1.833147.413333-.590493.11795-1.002656-.12-1.16968-.704957-.147837-.51829-.235717-1.053333-.35426-1.58-.228523-1.014188-.542013-1.233504-1.56985-1.014017-1.642485.351111-3.279144.730427-4.917517 1.100684-.92454.20906-1.785524.118632-2.410107-.663077-.254903-.318975-.44591-.732308-.53653-1.131795-.97953-4.323248-1.934048-8.651966-2.893705-12.979658-.69516-3.135385-1.392035-6.270086-2.079315-9.40718-.324454-1.481025.360428-2.542393 1.883512-2.894359 1.581499-.365299 3.170878-.696923 4.75666-1.044615 1.302612-.285812 1.435717-.50547 1.13576-1.821368-.101071-.443247-.191007-.889401-.26758-1.337264-.099187-.578804.090449-.958975.640513-1.117436.710064-.204445 1.435375-.367693 2.163769-.49282.482398-.083078.845396.199828 1.003683.729059.138415.462222.232462.93812.335075 1.410256.272548 1.255214.531392 1.416923 1.761884 1.14718.694476-.152308 1.393747-.344786 2.097987-.38 1.983212-.098804 3.603084.72735 4.92334 2.153846 2.098844 2.268034 2.610194 5.664957 1.311692 8.34376-.419528.865129-1.090878 1.513676-1.861242 2.249402z" fill="url(#a)"/>
    <path d="M60.079486 65.164496c-1.16985 0-2.339871.009914-3.509722-.003248-.859614-.009573-.988608-.206838-1.070835-1.070427-.069893-.732137.260728-1.233163.696189-1.747522 1.32471-1.564444 2.626295-3.148376 3.935417-4.725812.10878-.13111.229208-.260513.302698-.41094.232463-.475385.016103-.991111-.510492-1.155727-.265696-.083247-.560171-.095726-.842141-.100341-.798801-.013676-1.598287.008718-2.396746-.01265-.750492-.02-.947666-.238803-.969079-.992308-.004111-.142222-.008908-.28547.002741-.427008.047966-.582393.2609-.792137.865953-.831282.284197-.018462.57045-.004103.855674-.004103 1.911778.000171 3.823726-.00718 5.735332.006496.462527.003419 1.047538-.17453 1.276917.417778.241713.624444.277859 1.286666-.152463 1.871795-.370706.504273-.765738.990769-1.156145 1.480512-.958458 1.202052-1.920857 2.401026-2.880343 3.602223-.106552.133504-.216188.266837-.304754.412136-.4197.689231-.118886 1.346154.689508 1.417094.623212.054701 1.254646.015727 1.882312.018462.399315.001538.799144-.004615 1.198116.008718.168223.005812.351692.01829.499529.088034.353233.166496.512548.838632.37893 1.481026-.09439.453162-.316746.659316-.84591.66718-1.226724.01829-2.45379.005811-3.680686.005811v.004103z" fill="#00ACCC"/>
    <path d="M45.967212 45.019248c.090107 1.19077-.700129 2.361538-1.892934 2.668718-1.7588.453333-3.536274.843077-5.3194 1.190085-1.022013.198804-2.086852-.518632-2.373105-1.529914-.184668-.652479-.318458-1.325983-.401713-1.998975-.137216-1.107008.468865-2.065812 1.548265-2.333675 1.791007-.444444 3.592634-.86171 5.408823-1.184102 1.086252-.19282 1.925139.377607 2.499871 1.287692.36968.58564.588608 1.230085.530193 1.90017M33.605824 34.881624c.005654-1.290427.58227-2.11829 1.586981-2.374872 1.512634-.386325 3.036403-.746154 4.573876-1.01094.927452-.159658 1.730707.220513 2.267923 1.042564.465953.713333.697387 1.507863.617559 2.343932-.108437 1.134871-.786467 1.902735-1.866553 2.193846-1.479743.398803-2.982783.717265-4.486338 1.018974-.838715.168205-1.893962-.439829-2.201285-1.287863-.25833-.712479-.380642-1.473846-.492163-1.925641" fill="#444"/>
  </g>
</svg>
