<svg width="80" height="80" xmlns="http://www.w3.org/2000/svg">
  <g fill="none" fill-rule="evenodd">
    <circle fill="#377385" cx="40" cy="40" r="40"/>
    <g fill="#FFF">
      <path d="M32.152514 42.999746a84193.168867 84193.168867 0 0 1 6.426132-3.679111v-2.197436c-2.024088-.502497-3.62138-1.572769-4.631768-3.414708-.78348-1.428564-1.009226-2.945755-.691326-4.531185.650719-3.245674 3.494586-5.493426 6.832873-5.427161 3.223923.063963 5.957072 2.435859 6.502542 5.621188.323038 1.8865-.106575 3.598869-1.230497 5.122966-1.125912 1.526564-2.692376 2.390477-4.566299 2.692698-.024862.161799-.051547.267034-.056022.37342-.070442 1.721906-.071105 1.723879 1.440332 2.590258 1.600276.917188 3.202375 1.831252 4.80547 2.743342.187458.10655.386519.193205.62221.309786 1.195358-1.773208 2.81337-2.894289 4.931436-3.165269 1.573094-.201097 3.07243.093067 4.448121.932645 2.818508 1.720097 3.920718 5.085805 2.805912 8.09503-1.170995 3.160829-4.47232 4.915456-7.707183 4.245735-1.871602-.38756-3.339447-1.381866-4.379502-2.983903-1.023647-1.576386-1.225525-3.307007-.92105-5.144836a463919.190496 463919.190496 0 0 0-7.119613-4.081963c-2.218343 1.26989-4.454089 2.549645-6.710553 3.841238.44337 2.040571.191768 3.922796-1.000442 5.61083-.950718 1.346184-2.234254 2.248902-3.849613 2.675597-3.147017.831355-6.497403-.718229-7.878232-3.652638-1.39989-2.974859-.441713-6.532127 2.276022-8.39166 1.578232-1.079645 3.325193-1.432511 5.2021-1.059914 1.745138.346289 2.337348.747661 4.44895 2.87505"/>
      <path d="M56.523055 36.414688c.350221-1.797708.698619-3.586208 1.064089-5.462678 2.922596.68781 5.479392 2.175074 7.610055 4.34686 3.194088 3.255704 4.817072 7.209741 4.684806 11.741583-.27779 9.50008-8.169613 16.2509-16.983812 15.882249-10.284033-.42982-16.134862-9.228772-15.723315-16.476826 1.825194.246809 3.653702.292685 5.560277-.023842.10011 3.583248 1.44779 6.556134 4.33674 8.737785 1.95315 1.475097 4.17895 2.178362 6.639447 2.133638 4.856851-.088628 9.122487-3.529809 10.226188-8.206843 1.014365-4.297694-.786795-10.422037-7.414475-12.671926m-27.297397-5.70822c.11569 2.5554.99663 4.779144 2.619115 6.750819-3.206022-1.664356-6.470883-1.930074-9.791104-.473722-2.644807 1.16005-4.523702 3.106732-5.602376 5.76342-2.141437 5.274077.337458 11.305023 5.585635 13.634167 5.115083 2.269786 11.630884.33741 14.36768-5.843825.60663 2.253342 1.467513 4.299668 2.790994 6.115463-3.390331 4.909537-11.270055 8.098648-18.765414 5.172624-8.002376-3.123832-12.17569-11.684198-9.737072-19.810305 2.4121-8.037316 10.590663-12.800675 18.532541-11.308641"/>
      <path d="M55.206718 36.141949c-3.43906-.156372-4.4221.02894-7.185746 1.379728 3.3242-4.491886 3.735415-9.07799.337956-13.565107-2.5679-3.391524-6.18232-4.66059-10.410331-3.945158-2.356243.398742-4.344034 1.5606-5.951768 3.322956-1.583205 1.73539-2.456685 3.79898-2.730498 6.068437h-5.651436c.079392-2.26847.71221-4.422497 1.779447-6.449749 1.661768-3.156882 4.111492-5.55147 7.33558-7.11355 6.415857-3.108705 13.958785-1.809711 18.92884 3.225614 5.248177 5.317322 5.550663 12.63312 3.547956 17.076829"/>
    </g>
  </g>
</svg>
