<svg width="82" height="82" viewBox="0 0 82 82" xmlns="http://www.w3.org/2000/svg">
  <title>
    btg-bitcoin-gold
  </title>
  <g fill="none" fill-rule="evenodd">
    <path d="M81 40.999666c-.002248 22.089455-17.91183 39.99834-40.00657 39.99892C18.907454 80.997556.996406 63.089596 1 41.00095.997938 18.910277 18.90873.99937 40.996328 1 63.088238.999554 80.99915 18.909266 81 40.999666z" stroke="#001B70" stroke-width="1.290323" fill="#FFF" fill-rule="nonzero"/>
    <path d="M77.636675 40.8248c-.00207 20.330225-16.484686 36.812827-36.819006 36.81336-20.32626-.00095-36.81023-16.4827-36.80692-36.81218-.0019-20.331344 16.48183-36.815806 36.80958-36.815227 20.33171-.00041 36.81556 16.48295 36.81634 36.814046z" fill="#ECA900" fill-rule="nonzero"/>
    <path d="M66.685506 40.72524c-.00146 14.337168-11.62524 25.960938-25.965296 25.961314-14.33437-.00067-25.959102-11.623838-25.95677-25.960482-.001338-14.337958 11.62323-25.96304 25.95865-25.96263 14.33822-.00029 25.962864 11.624015 25.963416 25.961797z" fill="#FFF" fill-rule="nonzero"/>
    <path d="M62.712037 40.89123c-.001227 12.050695-9.77126 21.82072-21.824384 21.821037-12.048343-.000563-21.819178-9.770084-21.817216-21.820337-.001126-12.05136 9.76957-21.822487 21.818796-21.822144 12.05158-.000243 21.82234 9.770232 21.822804 21.821444z" stroke="#001B70" stroke-width="2.580645" fill="#FFF" fill-rule="nonzero"/>
    <path d="M62.706117 40.88596c-.001227 12.050695-9.77126 21.82072-21.824384 21.821037-12.048343-.000563-21.819178-9.770083-21.817217-21.820337-.001125-12.05136 9.76957-21.822487 21.818797-21.822144 12.05158-.000243 21.82234 9.770233 21.822803 21.821444z" stroke="#001B70" stroke-width=".860215" fill="#FFF" fill-rule="nonzero"/>
    <path d="M45.24114 25.723354c5.145.45075 9.22036 2.032436 9.674483 6.75355.33786 3.453478-1.107686 5.527252-3.418205 6.703712 3.80389.913778 6.18739 3.1746 5.716627 8.241345-.581602 6.29162-5.272033 7.97972-11.9734 8.36504l-.00157 6.61065-3.98565.00033.001513-6.52184c-1.03307.00077-2.09083-.00845-3.185034-.03027l.000486 6.55212-3.981375-.000734-.002816-6.622172c-.93203-.00676-1.88281-.021966-2.84726-.02317l-5.18649.000043.79126-4.758676s2.94958.045085 2.898554.00029c1.1277-.00166 1.42658-.81228 1.497666-1.3204l.001147-10.44896c.145562-.000976.287445-.00053.42066-.000446-.165258-.023376-.309987-.02715-.421237-.02817l-.000622-7.459216c-.153122-.80841-.67791-1.74564-2.29252-1.74619.04895-.05458-2.894047.001616-2.894047.001616l-.00075-4.256474 5.49766.02176c.82684-.00031 1.67387-.01675 2.53681-.034134l.00177-6.54713 3.9828.00038.000217 6.41748c1.064666-.021764 2.134674-.04234 3.183536-.04251l.000235-6.37521 3.985178-.00021.00037 6.54761zm4.098867 20.91369c-.000534-5.162147-8.47194-4.384956-11.173644-4.384884l-.001156 8.773438c2.702654-.002327 11.175825.561064 11.1748-4.388555zm-1.855282-12.378547c.00012-4.69613-7.068926-3.980504-9.318623-3.98062l.00019 7.957288c2.250173 0 9.31796.525813 9.318433-3.976668z" fill="#07256B"/>
  </g>
</svg>
