<svg width="80" height="80" viewBox="0 0 80 80" xmlns="http://www.w3.org/2000/svg">
  <title>
    btm-bytom
  </title>
  <g fill="none" fill-rule="evenodd">
    <circle fill="#F9F9F9" cx="40" cy="40" r="40"/>
    <g fill-rule="nonzero" opacity=".8">
      <g fill="#040000">
        <path d="M31.873 21.37l14.69 14.778L34.102 13l-10.42 10.575M48.468 58.94l-14.69-14.778L46.24 67.31l10.413-10.574M21.5 48.503l9.417-20.087L16.5 42.926l-3.32 3.335 10.51 10.476M58.85 31.8L44.152 46.587l23.01-12.536L56.65 23.57"/>
      </g>
      <g fill="#323333">
        <path d="M51.833 30.84L37.417 16.34 34.102 13l12.46 23.148M28.508 49.465l17.73 17.845-12.46-23.148M36.188 33.725l-5.27-5.31-9.42 20.088M49.424 51.89l17.738-17.84-23.01 12.536"/>
      </g>
      <g fill="#555">
        <path d="M17.606 17.447L13.18 34.05l9.014-4.872M62.74 62.863l4.422-16.602-9.015 4.867M17.606 62.857l16.496 4.453-4.836-9.075M62.74 17.447L46.24 13l4.836 9.07"/>
      </g>
      <g fill="#323333">
        <path d="M23.684 23.575L34.102 13l-16.496 4.447 4.588 11.73M56.65 56.736L46.24 67.31l16.5-4.447-4.593-11.736M23.69 56.736L13.18 46.26l4.426 16.597 11.66-4.622M56.65 23.57l10.512 10.48-4.42-16.603-11.666 4.622"/>
      </g>
      <g fill="#040000">
        <path d="M22.194 29.178L13.18 34.05l2.092 2.098M58.147 51.127l9.015-4.866-2.092-2.098M34.102 67.31l2.086-2.105-6.922-6.97M46.24 13l-2.087 2.105 6.923 6.964"/>
      </g>
    </g>
  </g>
</svg>
