<svg width="80" height="80" xmlns="http://www.w3.org/2000/svg">
  <g fill="none" fill-rule="evenodd">
    <circle fill="#FFF" cx="40" cy="40" r="40"/>
    <path d="M27.7108 43.6899h-9.6856v-1.165c-.002-5.633-.0618-11.2666.0102-16.8986.072-5.641 2.6264-9.9816 7.5586-12.6432 9.233-4.9828 20.4472.9908 21.2838 11.545.2154 2.7172.079 5.4624.1032 8.1948.0034.395.0004.79.0004 1.3374.4486 0 .8018-.0002 1.155 0 2.4666.0014 4.9336-.0316 7.3994.0108 8.0528.1386 14.3662 6.6574 14.2802 14.7144-.0822 7.7034-6.5276 14.1276-14.2184 14.1482-5.7662.0152-11.5326.0032-17.2988.0032h-.965v-9.6408h1.205c5.533-.0002 11.066.006 16.5988-.0034 2.2112-.0038 3.9682-1.1922 4.6684-3.113 1.0986-3.0148-.9814-6.2144-4.1936-6.4134-.93-.0576-1.8658-.0228-2.799-.0232-4.7662-.0016-9.5326-.0008-14.299-.0008h-1.264c0-.4544 0-.8384-.0002-1.2224-.0026-5.5328-.0162-11.0658-.002-16.5986.0048-1.8964-.7352-3.3814-2.3624-4.339-3.2508-1.9128-7.1454.4216-7.1652 4.299-.0278 5.4994-.0088 10.9992-.0098 16.4988v1.3098" fill="#000"/>
    <path fill="#FF015B" d="M18 62.9212h9.8v-9.8H18z"/>
  </g>
</svg>
