<svg width="80" height="80" viewBox="0 0 80 80" xmlns="http://www.w3.org/2000/svg">
  <title>
    btx-bitcore
  </title>
  <g fill="none">
    <path d="M78.802824 49.67677C73.456988 71.103926 51.753078 84.14571 30.31933 78.80278 8.89466 73.459853-4.14684 51.755472 1.197986 30.326302 6.53878 8.895115 28.244708-4.145658 49.672406 1.197268c21.43173 5.342927 34.47323 27.047308 29.13042 48.479503z" fill="#F836A2"/>
    <path d="M57.72 34.578c.79-5.28-3.23-8.118-8.728-10.012l1.783-7.152-4.353-1.085-1.737 6.962c-1.145-.285-2.32-.554-3.49-.82l1.75-7.01-4.352-1.085-1.785 7.15c-.947-.215-1.877-.428-2.78-.653l.005-.022-6.004-1.5-1.16 4.65s3.23.74 3.162.787c1.764.44 2.082 1.606 2.03 2.53l-2.032 8.15c.12.03.278.074.452.145l-.46-.115-2.846 11.414c-.216.536-.764 1.34-1.996 1.034.044.063-3.166-.79-3.166-.79l-2.16 4.983 5.665 1.414c1.052.264 2.087.54 3.103.8l-1.8 7.235 4.348 1.084 1.785-7.157c1.19.32 2.342.62 3.47.9L34.65 63.54l4.354 1.086 1.802-7.22c7.425 1.404 13.008.837 15.357-5.877 1.895-5.408-.093-8.526-4-10.56 2.845-.656 4.99-2.528 5.56-6.392l-.003.001zm-9.946 13.95c-1.347 5.406-10.45 2.483-13.402 1.75l2.39-9.584c2.952.736 12.417 2.194 11.012 7.833v.001zM49.12 34.5c-1.228 4.918-8.805 2.42-11.263 1.806l2.167-8.692c2.457.613 10.374 1.757 9.095 6.886h.001z" fill="#FFF"/>
  </g>
</svg>
