<svg width="80" height="80" viewBox="0 0 80 80" xmlns="http://www.w3.org/2000/svg">
  <title>
    burst-burst
  </title>
  <g fill="none" fill-rule="evenodd">
    <circle fill="#0B599A" cx="40" cy="40" r="40"/>
    <path d="M27.784905 42.103573l-1.444606 6.0132L9 42.693065h11.078035l1.445235-6.600845 12.983832.008625L37.744252 19h12.525786c8.602198 0 11.69904 3.180922 10.472132 9.661035l-.283133 1.500528c-.819197 4.320486-2.98988 7.019095-6.948074 8.39889l-.022022.120117c4.190367 1.380412 5.33548 4.49912 4.49552 8.939722l-.64617 3.419308C56.111378 57.520324 51.150898 61 42.850708 61h-13.05556l3.57628-18.89581-5.58652-.000617zm13.888598-.003696l-2.441232 12.89801h4.754115c2.792316 0 4.494258-1.020062 5.083803-4.140618l.69336-3.658927c.737403-3.897924-.619746-5.09847-4.39233-5.09847h-3.697712zm3.23652-17.100845l-2.101473 11.10058h3.2447c3.093695 0 5.183843-1.08043 5.820577-4.4406l.442316-2.34011c.567524-2.999208-.464337-4.320486-3.407658-4.320486l-3.998462.000616z" fill="#FFF" fill-rule="nonzero"/>
  </g>
</svg>
