<svg width="80" height="80" viewBox="0 0 80 80" xmlns="http://www.w3.org/2000/svg" xmlns:xlink="http://www.w3.org/1999/xlink">
  <title>
    bwk-bulwark
  </title>
  <defs>
    <path id="a" d="M.000064 0h47.783808v55.793618H.000064z"/>
  </defs>
  <g fill="none" fill-rule="evenodd">
    <circle fill="#161616" cx="40" cy="40" r="40"/>
    <g transform="translate(16 12)">
      <mask id="b" fill="#fff">
        <use xlink:href="#a"/>
      </mask>
      <path d="M36.255863 7.270513c-.10909.009973-.218438.01969-.32753.029407-.066737.309917-.144256.61779-.19816.929753-.29955 1.736767-1.697198 2.728913-3.431871 2.416183-.545968-.098448-1.08629-.229882-1.627123-.354667-1.936172-.448-2.648728-1.328913-2.68184-3.304-.012578-.754338-.029262-1.50842-.045176-2.306995-1.296257-.399672-2.473156-.775306-3.659551-1.117443-.23384-.067507-.521583-.063416-.756193.004347-1.184085.341881-2.35893.71547-3.668021 1.118721 0 .903927.023101 1.747763-.005134 2.590064-.052363 1.574393-.838588 2.551452-2.350716 2.934247-.66199.167488-1.330653.317333-2.004193.429589-1.735957.28946-3.139508-.735672-3.412877-2.464-.049283-.31273-.10986-.623416-.176342-.995982-.588834.494283-.588834.494283-.607059 1.316384-.051594 2.294465-.741818 3.14495-2.956492 3.628493-.33292.07262-.670973.141662-1.010053.165698-1.310118.09359-2.330952-.516018-2.876407-1.705315-.15093-.32884-.275936-.669698-.416599-1.01337-.718203.208147-.809326.670978-.77724 1.221005.034652.594265.06417 1.189808.06494 1.78484.010781 8.390283.03491 16.780566-.002566 25.17085-.004364.996493.357048 1.527086 1.161754 2.038502 4.359786 2.770082 8.684663 5.59463 13.02186 8.4 2.076322 1.343233 4.1529 2.685954 6.261562 4.0499.399401-.24369.766974-.45337 1.119658-.685809 6.096257-4.015635 12.176342-8.056073 18.300064-12.029516.999016-.64822 1.2883-1.386703 1.281626-2.521534-.049284-8.560329-.038503-17.120913-.049284-25.681754-.000513-.381771.015915-.774538-.06802-1.140968-.04415-.193315-.288-.341114-.537755-.614977-.196877.4278-.338567.723142-.469732 1.022831-.51722 1.181882-1.413305 1.802996-2.713926 1.73242-.5914-.032219-1.185882-.15189-1.762139-.2979-1.381219-.350063-2.172064-1.289533-2.306053-2.714081-.043636-.464877.007187-.93896-.040813-1.403069-.022588-.217607-.177626-.421662-.272599-.631854m-28.555636.811105c.101647-.719306.154524-1.268055.261048-1.806064.2074-1.046612.836535-1.76336 1.842224-2.11189.685091-.237808 1.385583-.445699 2.094033-.599635 1.778053-.386374 3.243465.64106 3.526331 2.433827.05108.324237.104214.647707.15324.953278.644792.116859.875552-.152657.879915-.678904.005904-.681717-.009754-1.363945.015915-2.044895.05031-1.32968.698181-2.288584 1.956449-2.720475C20.004142.966294 21.597125.462294 23.21244.064668c.5837-.143707 1.278802-.024803 1.881754.131434 1.322181.342904 2.623059.77096 3.923422 1.192366 1.668193.540566 2.333519 1.46546 2.354824 3.214758.006673.553863.017198 1.108237.002053 1.661589-.014888.531105.24231.772237.870417.824146.060064-.32884.122952-.638503.172492-.95021.309818-1.951818 1.801669-2.937315 3.729626-2.44968.496941.125552.985668.28358 1.476706.431634 1.417412.427543 2.222887 1.38747 2.376128 2.845005.043123.410155.057497.823379.103187 1.509954.244107-.522667.350888-.794484.492578-1.046612.698438-1.243763 1.868406-1.738813 3.253476-1.364712.618353.167233 1.232085.356968 1.837347.566904 1.257498.436493 1.944899 1.330447 2.061433 2.650667.026182.29611.013605.596054.013605.89421 0 9.459397-.025925 18.918794.022331 28.37768.008728 1.724749-.620663 2.862648-2.07709 3.785242-6.638632 4.206904-13.24723 8.461881-19.834011 12.748822-1.444107.940237-2.700064.94305-4.1357-.003836-6.55983-4.327598-13.140707-8.624256-19.744685-12.884858-1.395337-.899836-2.00291-1.994265-1.992129-3.686795C.0595 29.1816.02382 19.850056.022024 10.51877c0-.468457-.024385-.941005.024898-1.405114.126802-1.191343.682524-2.090667 1.863016-2.515653.44201-.15905.887358-.310685 1.335786-.450302 2.244963-.698849 3.308406-.261077 4.454503 1.933918" fill="#00B0FF" mask="url(#b)"/>
    </g>
  </g>
</svg>
