<svg width="80" height="80" xmlns="http://www.w3.org/2000/svg">
  <g fill="none" fill-rule="evenodd">
    <circle fill="#EC2324" cx="40" cy="40" r="40"/>
    <path d="M35.702266 25.512784c0 2.216079.022463 4.432942-.008276 6.648628-.018522 1.318823.543054 1.850196 1.893596 1.826666 3.47074-.060392 6.945419.049804 10.414187-.046274 4.623843-.128235 8.189557-3.799216 8.216355-8.308628.026404-4.404705-3.600788-8.412549-8.023645-8.607843-3.530246-.156078-7.073498-.016078-10.61005-.051372-1.34069-.013334-1.899901.59647-1.886896 1.890196.022069 2.216078.005911 4.432549.004729 6.648627m7.282365 37.435687c1.510541 0 3.021477.011372 4.531625-.001569 4.741675-.041569 8.489852-3.543922 8.69596-8.115686.211232-4.682745-3.287093-8.573334-8.16-8.812942-3.472314-.17098-6.959605-.022745-10.439408-.074117-1.346207-.019608-1.914483.566274-1.910542 1.866667.013793 4.443529.01537 8.88745.003547 13.331372-.003547 1.33804.65064 1.852941 1.959409 1.81451 1.771822-.052157 3.54601-.012941 5.319409-.008235M40.001379 4.820235c18.74798-.86902 38.247882 16.906667 35.113695 39.778824-2.080788 15.183137-13.411232 27.421176-28.55606 30.08353-12.156058 2.137254-22.891428-.97451-31.786403-9.748628-1.056946-1.042353-1.493596-2.140392-1.488473-3.633334.047685-13.983529.076453-27.967843-.022857-41.95098-.01537-2.124706.75665-3.574118 2.204532-4.936078 6.913103-6.503922 15.04867-9.862353 24.535566-9.593334" fill="#FFF"/>
  </g>
</svg>
