<?xml version="1.0" encoding="UTF-8"?>
<svg width="105px" height="105px" viewBox="0 0 105 105" version="1.1" xmlns="http://www.w3.org/2000/svg" xmlns:xlink="http://www.w3.org/1999/xlink">
    <!-- Generator: Sketch 49.2 (51160) - http://www.bohemiancoding.com/sketch -->
    <title>Group</title>
    <desc>Created with Sketch.</desc>
    <defs></defs>
    <g id="Page-1" stroke="none" stroke-width="1" fill="none" fill-rule="evenodd">
        <g id="Group">
            <circle id="Oval" fill="#0057FF" cx="52.5" cy="52.5" r="52.5"></circle>
            <path d="M29.104,65.208 C25.324,65.208 22.192,63.948 19.708,61.428 C17.224,58.908 16,55.812 16,52.104 C16,48.396 17.224,45.264 19.708,42.78 C22.192,40.26 25.324,39 29.104,39 C33.676,39 37.78,41.304 39.94,44.94 L35.656,47.424 C34.396,45.156 31.984,43.824 29.104,43.824 C26.656,43.824 24.676,44.58 23.164,46.128 C21.688,47.676 20.932,49.656 20.932,52.104 C20.932,54.516 21.688,56.496 23.164,58.044 C24.676,59.592 26.656,60.348 29.104,60.348 C31.984,60.348 34.468,58.98 35.656,56.784 L39.94,59.268 C37.78,62.904 33.712,65.208 29.104,65.208 Z M64.888,64.704 L59.488,64.704 L57.976,60.168 L47.932,60.168 L46.42,64.704 L41.056,64.704 L49.876,39.504 L56.032,39.504 L64.888,64.704 Z M52.972,45.228 L49.516,55.524 L56.428,55.524 L52.972,45.228 Z M67.336,39.504 L77.344,39.504 C80.8,39.504 83.68,40.728 85.984,43.14 C88.324,45.552 89.476,48.54 89.476,52.104 C89.476,55.668 88.324,58.656 85.984,61.068 C83.68,63.48 80.8,64.704 77.344,64.704 L67.336,64.704 L67.336,39.504 Z M72.304,59.952 L77.344,59.952 C79.54,59.952 81.304,59.232 82.672,57.792 C84.04,56.316 84.724,54.444 84.724,52.104 C84.724,49.764 84.04,47.892 82.672,46.452 C81.304,44.976 79.54,44.256 77.344,44.256 L72.304,44.256 L72.304,59.952 Z" id="CAD" fill="#FFFFFF"></path>
        </g>
    </g>
</svg>