<svg width="80" height="80" xmlns="http://www.w3.org/2000/svg">
  <defs>
    <linearGradient x1=".005894%" y1="50%" x2="99.999638%" y2="50%" id="a">
      <stop stop-color="#16E0DA" offset="0%"/>
      <stop stop-color="#19C3ED" offset="61%"/>
      <stop stop-color="#0D9FD3" offset="100%"/>
    </linearGradient>
  </defs>
  <g fill="none" fill-rule="evenodd">
    <circle fill="#FFF" cx="40" cy="40" r="40"/>
    <path d="M44.888197 36.390476c-3.030965 6.968519-10.527054 10.851228-17.956152 9.300652-7.429098-1.550575-12.75308-8.109045-12.75308-15.710176 0-7.60113 5.323982-14.1596 12.75308-15.710176 7.429098-1.550575 14.925187 2.332134 17.956152 9.300653l12.836065-3.809524C52.785495 6.436907 39.027146-1.431415 25.060375 1.081614 11.093605 3.594642.929402 15.767327.929402 29.980952c0 14.213626 10.164202 26.38631 24.130973 28.89934C39.027146 61.393318 52.785495 53.524997 57.724262 40.2l-12.836065-3.809524z" transform="translate(10 10)" fill="url(#a)" fill-rule="nonzero"/>
  </g>
</svg>
