<svg width="80" height="80" viewBox="0 0 80 80" xmlns="http://www.w3.org/2000/svg">
  <title>
    can-canyacoin
  </title>
  <g fill="none" fill-rule="evenodd">
    <circle fill="#00CEFF" cx="40" cy="40" r="40"/>
    <path d="M48.517983 54.735262l-.024562.028c-.174561.189875-.355263.368375-.541228.541626-.392105.406875-.772807.825125-1.14035 1.255625-.406141.553874-.832457 1.092-1.277194 1.612625-3.464912 4.057375-8.066667 7.104124-13.309649 8.6415 2.383333.67375 4.957895 1.01675 7.72193 1.03075.058772 0 .11579.00175.174561.00175.28772 0 .570176-.00875.854386-.016626 2.942105-.079625 5.65965-.569624 8.15-1.47875 2.72807-.996624 5.10965-2.44125 7.14386-4.3365 2.03421-1.8935 3.670175-4.186 4.91228-6.878374 1.10351-2.39575 1.832457-5.049625 2.189474-7.959875-4.555263.755125-8.73772 2.620625-12.261403 5.313-.90965.69475-1.775439 1.4455-2.592106 2.24525m-8.396754 3.317562c-2.630702 0-4.863158-.510125-6.697368-1.532125-1.836842-1.021125-3.324562-2.38-4.46579-4.074875-1.142105-1.694-1.972807-3.59975-2.492982-5.719-.521053-2.118375-.78158-4.298875-.78158-6.5415 0-2.342375.260527-4.610375.78158-6.804.291228-1.22325.681579-2.37125 1.16579-3.448375.093859-.209125.191227-.4165.292982-.620375l.017543-.034125c.095614-.19075.192983-.37975.294737-.56525.029825-.056875.063158-.112875.095614-.16975.079825-.1435.161404-.287.245614-.427.12193-.20475.249123-.406.380702-.60375 1.141228-1.719375 2.628948-3.089625 4.46579-4.111625 1.83421-1.021125 4.066666-1.533 6.697368-1.533.122807 0 .242982.004375.364912.007875 1.30614.03675 2.562281.2695 3.764913.702625 1.314912.47425 2.492982 1.134 3.53421 1.980125 1.042983.84875 1.910526 1.83225 2.60614 2.954l.020176.03325c1.37807 2.247 3.76579 3.667125 6.39386 3.667125h6.236842c-.348246-3.089625-1.191228-5.831-2.529825-8.224125-.677193-1.2075-1.445614-2.316125-2.30614-3.327625-.84386-.9905-1.772807-1.88825-2.792106-2.690625-2.058771-1.61875-4.391228-2.8525-6.995614-3.700375-2.604386-.847-5.371052-1.2705-8.297368-1.2705-4.069298 0-7.728947.72275-10.97807 2.167375-1.614912.71925-3.1 1.5785-4.464035 2.569l-.011404-.000875c-.076316.056-.15.114625-.225438.170625-.091228.06825-.179825.1365-.271053.20475-.18772.14525-.372807.293125-.55614.443625-.08772.070875-.175439.14175-.260527.214375-.185965.1575-.369298.3185-.55.48125-.076315.069125-.153508.135625-.22807.20475-.250877.231875-.497368.468125-.736842.7105l-.054386.0525c-.296491.301875-.58421.611625-.864912.931-.228947.261625-.449123.53025-.667544.800625-.075439.093625-.150877.1855-.224561.279125-1.8 2.295125-3.21579 4.91225-4.242106 7.854-1.192105 3.41425-1.785965 7.1155-1.785965 11.102875 0 3.887625.59386 7.513625 1.785965 10.878 1.190351 3.3635 2.901755 6.292125 5.13421 8.784125 1.142983 1.27575 2.421054 2.408875 3.830703 3.40375 5.900877-.072625 11.358772-1.990625 15.82807-5.207125-.150877.004375-.302632.00875-.457895.00875" fill="#FFF"/>
  </g>
</svg>
