<svg width="80" height="80" xmlns="http://www.w3.org/2000/svg">
  <defs>
    <linearGradient x1=".329341%" y1="49.670659%" x2="99.670659%" y2="49.670659%" id="a">
      <stop stop-color="#B2803C" offset="0%"/>
      <stop stop-color="#F9F3C2" offset="51.319356%"/>
      <stop stop-color="#B48740" offset="100%"/>
    </linearGradient>
    <radialGradient fx="50%" fy="50%" r="58.955078%" id="b">
      <stop stop-color="#F5F5F5" offset="0%"/>
      <stop stop-color="#F4F4F4" offset="1.105682%"/>
      <stop stop-color="#8B868A" offset="100%"/>
    </radialGradient>
    <filter x="-.9%" y="-.9%" width="103.7%" height="101.9%" filterUnits="objectBoundingBox" id="c">
      <feOffset dx="1" in="SourceAlpha" result="shadowOffsetOuter1"/>
      <feColorMatrix values="0 0 0 0 1 0 0 0 0 1 0 0 0 0 1 0 0 0 0.5 0" in="shadowOffsetOuter1" result="shadowMatrixOuter1"/>
      <feMerge>
        <feMergeNode in="shadowMatrixOuter1"/>
        <feMergeNode in="SourceGraphic"/>
      </feMerge>
    </filter>
    <linearGradient x1="50%" y1="0%" x2="50%" y2="100%" id="d">
      <stop stop-color="#1F4C0B" offset="0%"/>
      <stop stop-color="#195308" offset="100%"/>
    </linearGradient>
  </defs>
  <g fill="none" fill-rule="evenodd">
    <circle fill="url(#a)" cx="40" cy="40" r="40"/>
    <circle stroke="#8C7A61" fill="url(#b)" cx="40" cy="40" r="32"/>
    <path d="M20.272835 38.967642c-.568608-.186437-1.100508-.169633-1.674057-.068127.324919.391215 1.34661.43086 1.674057.068127m4.625158-.207057c.013385-.017032.02677-.034006.040097-.051038-.214276-.53436-2.36968-2.70957-2.824314-2.818823.099325.299734.178257.631082.489791.69283.302687.05998.439238.230581.569643.451765.352436.597646.81787 1.093557 1.375736 1.505677.110183.081399.232372.146791.349047.219589m2.334063-.931272c.022175.006892.044407.013728.066581.02062.036421-.051665.076864-.100994.108517-.155335.390696-.6709.620713-1.402178.82327-2.144507.119662-.438323.21106-.890202.388686-1.305114.149419-.34895.246332-.691006.257476-1.066101.017924-.60374.117479-1.187886.455783-1.709886.041362-.063798.052564-.146848.09404-.269032-.092087.034633-.13431.038222-.157231.06095-.361743.358462-.67006.755487-.832462 1.242227-.031768.095127.015453.216456.027345.325595.017808.162627.074106.332032.045727.486171-.038891.210817-.129887.415424-.219561.61331-.388858.858589-.71504 1.735633-.856245 2.672317-.061813.410411-.13431.819228-.201926 1.228785M6.65392 7.211142c.120466.138076.261039.263677.357836.416506.345888.545981.647368 1.121696 1.02037 1.648082.576881.814102 1.197192 1.598013 1.802222 2.392405.275055.361197.557521.716925.881808 1.133032.206637.009114.49094.057703.670864.31631.135575.19481.261326.396456.389317.596393.08979.140297.175902.28293.305273.491525.112653-.170146.196123-.296146.316531-.477911.122592.179259.21445.274556.260464.388082.149305.368544.282926.743297.420166 1.11657.050266.136765.030045.350829.221802.35174.11409.00057.228869-.137563.37846-.236563.45561.142803.889851.753095.925583 1.357803.009651.163595.036938.326108.060377.52576.194055-.095354.335431-.164791.519663-.255304.099728.149411.200662.281563.280915.42505.13885.248355.255696.509013.3996.754235.095477.162627.211405.300589.438779.324228.091226.009512.202155.144398.244206.246474.115066.279741.192907.574235.296196.859045.059745.16462.140285.321835.21824.49762.115181-.062203.187047-.100994.264773-.143032.26707.194583.325666.493633.421085.765342.087664.249836.134943.513342.2106.767677.103404.348038.167343.390703.522766.354475.23668-.024095.375185.109424.42459.302013.07715.300645.124314.610633.160678.919367.05492.466576.049749.45712.516102.60636.109034.034918.23312.151804.269024.257925.09358.276607.139538.568765.209566.853462.036134.146905.055838.307936.133276.4316.06773.108229.194745.216286.315613.246988.177913.045285.299355.130671.363006.286633.10375.253937.19015.514823.28304.773089.1053.29267.2052.574063.614222.564038.080713-.001994.215253.162.239323.268519.062215.27524.088181.560335.106507.842924.01643.25388.003447.509639.003447.81h.648287c.054172.211443.127761.413943.155393.622424.084447.637291.253858 1.23186.618473 1.78274.16223.245108.197157.584943.245987.888722.04952.30748.017464.628576.074623.933835.032056.1714.133622.378627.271322.472386.36404.247956.438261.5944.463308.985045.030275.472158.071004.943804.11541 1.414936.007641.081627.04481.165817.086918.238159.28126.482867.566885.96317.8532 1.44319.031825.053373.076691.099113.14488.185696.089445-.358064-.01057-.655975-.07422-.951323-.264543-1.226905-.679194-2.407101-1.141813-3.572601-.079851-.201133-.110758-.421405-.178947-.690893.178947.054399.273849.083222.437745.133007-.050496-.182564-.070373-.319273-.12489-.440659-.346002-.770582-.700736-1.537234-1.05007-2.306335-.105645-.232462-.203247-.468513-.32199-.743525.244437-.036057.456013-.067273.721418-.106406-.043028-.192303-.065203-.36712-.121788-.530202-.20227-.582266-.4212-1.158779-.622378-1.741386-.05739-.166272-.076117-.345703-.123798-.572582.26506-.04107.488987-.075703.764617-.118424-.078185-.12731-.136379-.208823-.181187-.297114-.226628-.446924-.478877-.884108-.664717-1.34738-.144192-.35943-.072154-.441342.309006-.571785.094845-.3915.041247-.782544-.169698-1.131152-.203247-.335905-.276032-.652557-.09743-1.019278.100992-.207342.055494-.42562-.044866-.630912-.083298-.170316-.171766-.339095-.240127-.515335-.058768-.151405-.091628-.312266.064225-.470506.113458.022158.238002.046424.409539.079917-.092605-.369114-.18584-.701373-.25765-1.038133-.06612-.310272-.173489-.621113-.078357-.965449.129198-.0225.249836-.042721.370187-.064709.116215-.021304.232085-.044544.40207-.077354-.06365-.186152-.100819-.327988-.159759-.460196-.115755-.259633-.252134-.510437-.362662-.77212-.050668-.119963-.074393-.25576-.08594-.386545-.038777-.437184.011432-.504797.465721-.677335.155681-.187861.06796-.398678.025334-.594627-.050208-.230468-.132817-.454842-.212553-.677962-.071579-.200165-.033492-.360798.157634-.459855.241506-.125202.273906-.313006.21238-.55162-.078012-.302753-.14758-.607841-.211346-.913899-.017866-.085841-.002757-.178519-.002757-.266126.17412-.041184.312395-.07388.512425-.121215.002413-.196234.017579-.397538.004596-.59702-.02091-.321208-.059802-.641335-.092087-.961803-.019992-.197943.067212-.314146.253455-.391899.398968-.166557.448315-.250974.429874-.690835-.013097-.312722-.049806-.624646-.058768-.937367-.004998-.174646.025105-.35026.03734-.499956.404599-.175272.445386-.247443.422005-.645323-.016372-.278886-.114549-.5625.035847-.845487.061755-.021304.122132-.05024.185783-.062487.182221-.03509.313372-.139956.30826-.321323-.01959-.685823.334857-1.22571.615772-1.81652.3186-.670157.450268-1.425303.699702-2.130835.249319-.705247.537645-1.397278.823385-2.089196.059802-.144797.183198-.263791.277296-.39469a67.915297 67.915297 0 0 0 .098464.035146c-.007698.144.00563.292842-.026426.43126-.412526 1.782569-.371566 3.556423.100762 5.320765.05285.19743.173374.376063.245183.569734.075083.2025.144708.409386.189115.620032.08795.417247.152578.839278.235991 1.25755.027632.138361.053023.292614.131955.402494.21129.294152.167343.610405.134311.93133-.013557.13181-.030102.263506-.03958.395658-.014362.200335.065489.35419.253397.436329.228523.099911.296426.277462.27563.507645-.02476.273703-.05871.547291-.064915.82145-.002643.116544.026196.254335.091455.347582.145168.207342.172226.428013.103232.650962-.094442.30526-.22163.60055-.336638.89943-.023266.060437-.054804.11774-.103577.22107.146145.031899.268736.065677.393568.084247.172858.02569.317566.086639.36766.267437.048542.175215-.018843.31312-.159875.424253-.189689.149468-.241678.358234-.233808.585.00764.217082.095706.385177.363983.453531-.024817.13557-.039926.263165-.072498.38626-.06773.255987-.156945.506962-.215023.764943-.076807.340975-.007756.428525.346346.502348.03625.007576.070717.02398.100303.034234.132472.412405.014878.933608-.439986 1.950608.048198.043234.098981.09638.157175.139727.302917.225912.38972.535728.178257.838994-.161597.231665-.160736.425222-.018383.650791.174409.276494.168837.577766.078588.877728-.08462.281279-.183428.558456-.280858.835747-.08594.244367-.055895.453475.123683.657342.306192.347582.32492.634728.095075 1.041664-.102715.181823-.228696.351285-.323885.536583-.17033.331462-.107885.524278.207612.709405.382481.22443.401439.37407.082551.699721-.359157.366779-.456472.821279-.441191 1.309158.0027.088064.036766.205292.099785.255817.1998.160063.154245.351.104151.54507-.052047.201588-.124774.398164-.172168.600664-.021485.091937-.00362.192874-.00362.289709l.090192.034006c.076577-.126854.178258-.245392.224388-.382329.090765-.26886.155738-.546721.221802-.823101.071291-.298196.21824-.497108.560738-.495855.155451.00057.251675-.093987.260751-.24898.018153-.311697.0459-.62459.034755-.935716-.01505-.41867.089043-.748538.51932-.912645.235072-.089602.31228-.273304.318714-.518867.007813-.29888.05354-.596792.086113-.928538.205832.03093.359847.054057.535002.080316.259085-.50417.149937-1.158323.636166-1.580468.164356.11586.300045.2115.471581.33243.41781-.57412.400634-1.327272.89077-1.886183.105358.1301.189115.233544.316762.391158.098349-.18883.192504-.343652.262072-.508671.143503-.340348.271092-.687304.410803-1.029304.093236-.228247.26862-.33636.518974-.322519.311362.017203.49502-.156304.626572-.41138.111677-.216455.228581-.430348.362317-.681208.206924.110677.376622.201531.587624.314373.080598-.13631.163953-.257696.22726-.388709.094844-.196405.169065-.40255.264082-.598842.117996-.243911.28574-.422772.547985-.550936.268622-.131298.496398-.349975.730207-.54433.256442-.213208.484047-.463443.753645-.657284.185897-.133633.428725-.186437.633465-.29814.20543-.1121.406896-.238272.588658-.38438.189804-.1526.364787-.310841.627147-.24243.141721-.261057.156715-.237588.504268-.455867.72699-.45655 1.441283-.93355 2.151842-1.415221.608017-.41212 1.200868-.846228 1.806588-1.26171.1296-.088917.28597-.1395.429932-.20774.019417.015038.038891.030133.058308.045171-.027517.079633-.037053.172652-.085653.236507-.212783.279797-.422407.564151-.659662.822987-.639153.697443-1.239013 1.420918-1.6821 2.261278-.215138.40802-.383055.825608-.372887 1.29788.002183.101165-.020221.211728-.06325.303152-.127474.27057-.301193.51243-.269425.847538.011892.125203-.152463.27262-.249491.400215-.074394.09786-.16941.180399-.254949.27-.27632.289196-.28172.330038-.061928.6975-.067672.085557-.139366.192133-.22703.283614-.14465.151006-.31228.281905-.445614.441513-.081288.097348-.165103.23343-.16292.350601.005745.313519-.16378.51545-.373634.70314-.127819.114322-.271493.211841-.39443.330778-.105357.101962-.191355.223633-.28212.331974.0756.113298.127876.191678.211518.317051-.09404.11717-.189057.25143-.300504.370652-.168721.180456-.376276.331462-.515757.530544-.119892.171228-.160334.39543-.24909.59024-.104265.228874-.207325.460824-.340142.67352-.104668.167411-.266381.29905-.37823.463044-.071923.105494-.140113.241234-.138562.362563.003505.269886-.132644.446184-.3213.603285-.1026.085443-.212955.161658-.314808.247842-.191872.162456-.28821.351968-.27.621683.009938.14776-.064685.343254-.170847.447551-.201293.197886-.45676.34069-.681894.516247-.138044.107658-.261555.233658-.385295.345645.269253.400273.25696.551849-.087836.829994-.175673.141722-.380069.253937-.584234.353962-.282869.138589-.44125.337785-.549135.644298-.102657.291531-.323655.549398-.523685.797354-.141663.175671-.339798.30543-.50375.46481-.11432.11119-.213473.237874-.336352.376804.11679.050696.201179.087323.303722.131867-.07112.23719-.26845.362848-.442284.498532-.337959.263905-.69884.49967-1.02893.772462-.286027.23645-.276548.273588-.102427.597247.119087.221297.104323.365126-.101164.524278-.1485.115006-.322391.20102-.492893.283956-.317164.154139-.650068.27917-.95603.451823-.137585.077696-.283558.224202-.325724.36826-.105874.36148-.354274.573037-.652825.756569-.284132.174702-.58389.330607-.843492.53607-.155048.122639-.245757.324968-.365936.491126-.171076.236563-.321644.49181-.518687.704791-.3294.355956-.69166.681892-1.033123 1.027196-.083068.08402-.139137.19424-.207613.292386l.044923.079007c.150913-.048817.318715-.070633.449636-.151348.519377-.320013 1.04806-.631254 1.534405-.996722.678389-.509753 1.313291-1.076127 1.984615-1.595677.274308-.212355.599744-.35852.892723-.548772.131725-.0855.280742-.183589.352264-.313633.17079-.310215.424934-.44026.76295-.472614.179407-.017146.369097-.03902.529373-.112101.175902-.080146.346462-.20045.47813-.341203.252134-.269316.536668-.38307.898066-.289766.305043.078722.542413.014924.76772-.233601.125808-.13876.35772-.199025.553384-.25462.171996-.048874.367373-.01726.539024-.066874.166193-.047905.35324-.120417.463366-.24226.178946-.198.37576-.314259.636338-.338069.345657-.031557.67816-.076272.9423-.35117.073417-.076444.252479-.08721.377713-.074792.58722.058215 1.143766-.019709 1.665785-.303778.167055-.090855.337787-.108456.520755-.027057.220883.09826.403506.042892.607385-.102361.184864-.131696.429587-.226994.655985-.246589.694417-.059924 1.397107-.140696 2.088594-.09507 1.372864.09057 2.738949.277804 4.110664.391785 1.096085.091026 2.196593.12919 3.294632.199083.21485.013728.427346.065506.640876.099683.006032.026488.012007.052975.018039.079405-.069511.048304-.133794.127823-.209337.140184-.846478.139215-1.571457.582664-2.34245.909626-.649437.275412-1.298643.55202-1.940669.843779-.151717.068981-.26707.21264-.412238.300646-.183083.110905-.379149.20079-.57039.298196-.1512.076955-.344048.11643-.447912.233829-.34313.387683-.78593.473696-1.266587.49893-.18498.00974-.368177.052918-.575847.084532.015108.205291.02654.361253.04004.544899-.475832.246702-1.057136-.033779-1.509932.268576a1099.04327 1099.04327 0 0 0-.09111.461506c-.46578.182791-.967117-.078152-1.400496.130101-.035732.189912-.065087.345987-.100877.53607-.198364.017373-.385123.045455-.57217.047278-.27741.002677-.554994-.013443-.83252-.021304-.222146-.006322-.329571.103102-.35479.320469-.017867.154424-.06279.305715-.106047.506563-.567-.053544-1.09574-.103443-1.600756-.151063-.040672.027057-.06279.033892-.071176.048474-.228926.397994-.590898.467146-1.009628.411551-.23691-.0315-.47543-.055709-.714006-.068354-.126613-.006722-.25495.018285-.39828.030304.015224.166727.026886.294208.042282.46293-.192217.02945-.366166.065677-.54201.080886-.294875.025633-.594288.017146-.885026.063968-.155451.025007-.293898.14269-.445615.205178-.101968.041924-.214966.088746-.321013.084474-.429874-.017373-.858715-.058101-1.28836-.081057-.207038-.011107-.41511-.001936-.62525-.001936-.099096.32417-.338018.353221-.58165.354019-.287004.001025-.574123-.020279-.861185-.021133-.126842-.000342-.253742.025747-.380585.039816a251.690186 251.690186 0 0 1-.009306.092108c.15051.028936.29993.075019.451647.083905.726012.042664 1.456391.040898 2.178095.119563 1.081896.117968 2.15799.288627 3.23598.44083.102312.014468.200603.057303.31159.090113.063766.41702.381218.575146.729058.670842.338994.09319.690166.142576 1.035479.21355.111561.022956.22657.041013.331008.083279.143215.05793.217207.161203.210198.33283-.01258.309075.046704.379252.356687.441683.30849.062088.620828.10498.930983.159266.430507.075303.758758.29569.975907.676651.220308.386545.542527.656545.962061.813874.235647.088348.35933.270512.493756.480645.21215.33152.4779.63974.76565.911165.658686.621285 1.347933 1.210557 2.016441 1.821702.1485.135798.26259.308507.392534.46424a43.902417 43.902417 0 0 1-.058021.084362c-.129945-.03731-.260579-.07257-.38972-.1125-.72877-.22483-1.44944-.48093-2.188206-.666285-.534887-.134146-1.09798-.153627-1.640163-.264418-.390237-.079804-.77197-.211557-1.147615-.34707-.262245-.094556-.496628-.159493-.764617-.000797-.107081.063399-.27787.050525-.413215.030133-.17797-.026658-.350828-.091025-.523455-.14662-.232603-.074848-.455381-.068867-.656503.078266-.206463.15112-.41172.123436-.618127.012132-.142813-.077012-.272298-.184386-.422062-.240949-.254432-.096209-.521272-.159607-.78076-.243285-.23513-.07576-.469397-.155164-.700449-.242373-.16918-.063855-.32647-.165817-.499557-.2115-.846134-.223405-1.584383-.647658-2.291323-1.146418-.220137-.155278-.49094-.241291-.741868-.351456-.045326-.01988-.107139-.00279-.162288-.00279-.080712.16798.016947.255417.126958.309588.35795.17624.536783.48805.715672.822133.118168.220785.323713.395601.506624.610291.190723.771892.410514 1.583658.585727 2.404766.084447.395601.093294.80829.11857 1.214316.008388.133861-.038949.271196-.060778.40688-.029585.010766-.059113.021475-.08864.032298-.10013-.126342-.222435-.241064-.296828-.380792-.49433-.92831-1.238209-1.633272-2.057975-2.267373-.177108-.136994-.397762-.218962-.599802-.323715-.058653-.030475-.14063-.035716-.180383-.080203-.506049-.566715-1.270551-.796443-1.785332-1.355354-.149706-.16257-.36743-.262082-.545343-.40124-.095304-.074564-.194457-.159323-.253914-.261229-.291945-.500183-.570275-1.008284-.855268-1.51257-.20095-.35567-.396728-.714702-.61135-1.062113-.084331-.136481-.213701-.24562-.322563-.367234-.033492.010708-.066983.02136-.100532.032126-.009709.141836-.041362.28612-.025621.425165.100244.885816.20813 1.770778.318887 2.655342.161368 1.289164.31228 2.579924.495479 3.86607.18314 1.285632.400748 2.56648.602674 3.849436.055953.355785.117249.711057.160909 1.068323.016717.137278-.009134.279626-.015511.418785-.293151.176354-.570045.146905-.835392.012076-.06635-.033608-.122649-.148956-.127646-.230127-.112366-1.830987-.422866-3.635374-.748532-5.43674-.198939-1.100507-.447511-2.192184-.64553-3.292861-.087032-.483665-.098694-.980317-.154877-1.469905-.020221-.175785-.05153-.358405-.284649-.483836-.083412.102703-.184749.19743-.24886.31255-.160793.288684-.334857.531343-.69252.628178-.175386.047506-.336352.217253-.460264.367063-.266554.32212-.504154.66771-.755081 1.002703-.180383.240892-.38702.44043-.703494.50269-.079334.015721-.174466.091708-.208934.16479-.083298.176355-.228466.221355-.39575.229273-.239095.011506-.4347.09507-.622552.249095-.093638.076728-.263968.096494-.39466.085215-.173661-.015038-.301595.024892-.451417.114722-.23398.140297-.49094.258607-.753472.333512-.747785.21321-1.371945.610348-1.90798 1.161684-.232258.238956-.478533.46498-.72699.687588-.110987.099456-.243.1759-.365477.262823a125.12253 125.12253 0 0 0-.077955-.025462c0-.119791-.019532-.243455.003102-.35886.175328-.894133.559877-1.709944.985615-2.506956.16516-.30919.361857-.602716.558498-.893905.083757-.12395.189804-.243342.311074-.329924.22502-.160861.387651-.343937.474913-.617583.041534-.130158.199743-.247215.332962-.319784.213587-.11643.41241-.219475.507428-.46931.038661-.101735.157978-.193273.262761-.246247.220366-.111418.451532-.205235.685226-.286633.48508-.16895.918287-.413203 1.295253-.765684.299068-.27957.624906-.530943.936325-.79764.070373-.060208.130462-.132208.18136-.244765-.083528.022443-.16987.037709-.25018.068468-.935292.357494-1.898446.65119-2.75716 1.185323-.077956.048475-.180383.085899-.27.083108-.35732-.011279-.667762.136936-.99406.243911-.20296.066532-.43177.109367-.642083.08983-.496168-.046254-.949998.02979-1.367579.306626-.25311.167753-.53661.15505-.829187.147247-.290566-.007633-.590668.01498-.8721.08305-.31343.075874-.608936.22238-.915013.33021-.332502.11717-.660523.22893-1.031515.189-.178487-.019197-.373863.063-.553902.122297-.308144.101506-.607672.228873-.915644.331063-.302803.100424-.603364.160006-.914094-.012304-.25041-.138873-.524891-.042095-.748417.064481-1.096545.522911-2.296264.63-3.458355.89157-.320668.07217-.622781.223747-.935464.333399-.09967.034917-.205775.052063-.30039.075246-.1431-.255019.006377-.39076.132128-.508443.431426-.403803.862679-.80943 1.317313-1.18669.469168-.389392.966485-.74529 1.449153-1.11879.074049-.057305.15729-.119507.198766-.198798.152636-.291703.400921-.450114.706136-.538975.25225-.07348.434585-.225911.560164-.455354.246562-.450513.62686-.729342 1.1286-.851696.157404-.03845.323196-.07143.462677-.147418.212553-.11569.447166-.232234.597331-.41064.229213-.272278.496169-.44493.836656-.503145.485885-.08305.942357-.232405 1.366774-.486342.491228-.29381 1.0449-.332088 1.601617-.378626.541207-.045228 1.078507-.138874 1.616381-.218735.098004-.014582.190609-.064936.29769-.102987-.066007-.23212-.245988-.276721-.402932-.305146-.403162-.072968-.80977-.137335-1.21793-.170031-.379551-.030418-.707573-.080886-.995783-.397367-.149075-.163652-.484392-.182108-.742443-.221184-.319921-.048474-.653055-.020164-.968898-.082595-.224157-.044316-.428495-.185126-.642714-.280652-.213645-.095354-.430334-.184272-.642313-.283044-.158783-.073994-.359158-.122354-.458483-.246816-.20589-.258152-.461126-.420836-.755598-.54319-.149821-.06226-.304985-.11364-.449866-.185526-.222549-.110335-.384262-.264873-.419247-.53493-.03533-.272734-.130921-.324228-.418098-.376405-.241621-.043918-.49163-.093816-.710272-.198057-.292404-.139386-.533336-.349576-.45676-.78169-.197502-.031386-.38024-.084076-.563093-.084532-.377024-.001025-.67075-.093075-.809828-.48879-.07267-.206659-.2565-.326906-.473534-.378114-.327562-.077298-.533394-.289254-.732102-.551165-.202845-.267437-.467675-.493063-.725898-.713336-.233234-.198968-.535806-.312095-.592162-.684227-.01752-.115747-.224387-.215886-.359789-.29871-.211347-.12919-.439698-.220727-.472672-.522455-.009077-.082937-.1458-.167411-.240875-.222209-.13971-.08043-.297172-.129816-.442455-.201531-.209968-.103671-.353987-.256785-.470317-.47233-.141951-.26288-.338879-.50679-.551777-.719886-.666842-.66748-1.353217-1.315765-2.029998-1.973563-.181934-.17681-.356515-.360968-.534427-.541766.011834-.022386.023668-.044772.03556-.067215.17728.045968.356859.084589.53144.139044 1.157093.36114 2.293564.799861 3.496155.994956.735262.119222 1.481496.170487 2.220377.270057.201983.027228.393568.124576.59285.17926.218586.05998.443318.098715.660294.16348.204856.061235.402588.145596.60434.217254.176937.062886.35192.16126.53328.175785.472959.037993.896916.172082 1.263082.478082.245126.204835.528339.29757.852281.256785.244839-.030817.433379.075474.627837.218335.193365.142063.428036.22893.644897.339437.26058.132778.546492.232063.776624.404715.39035.292899.759274.593316 1.257395.710487.221688.052177.427807.209848.61629.351912.43941.331234.893125.600892 1.459493.681778.218586.031272.4401.186665.615773.33676.289934.247614.585268.445955.977515.495455.129887.016405.259315.10988.368808.193956.165045.12674.328022.216911.616979.12805-.145168-.111873-.246274-.198683-.35617-.27279-.339454-.229045-.689305-.443507-1.02106-.682747-.209106-.150722-.39374-.32645-.357721-.63433.009766-.083107-.075772-.192531-.143675-.26624-.180497-.19595-.372772-.381532-.564932-.566601-.275917-.265728-.513689-.547576-.668048-.911222-.091513-.21543-.28913-.398734-.470547-.56193-.370015-.33283-.730494-.654835-.920413-1.141747-.083987-.215373-.29792-.390418-.477843-.557316-.296942-.275298-.548157-.558684-.67655-.964197-.067099-.212012-.297518-.380848-.473765-.549114-.178027-.16986-.397302-.298936-.56562-.476544-.108345-.114437-.157348-.284126-.237658-.438095.128853-.079348.207383-.127766.317508-.195607-.079334-.094386-.149821-.189-.23128-.273076-.211922-.21862-.449809-.416564-.635132-.65495-.101566-.130614-.171651-.329924-.161311-.492322.02252-.354247-.10731-.628861-.33572-.874424-.175097-.188374-.365935-.362678-.536955-.554469-.215827-.242088-.231625-.335848-.049289-.603114.143617-.210474.1215-.387512-.026425-.568082-.126613-.154538-.26236-.301728-.391213-.454557-.194917-.231152-.39736-.444589-.402415-.789608-.002355-.158639-.146604-.323145-.247826-.470563-.145283-.2115-.317508-.404658-.464917-.614848-.25696-.366209-.220308-.505538.165045-.711911.057217-.030646.109609-.070178.19193-.123608-.052621-.097006-.08393-.19988-.150453-.269772-.523398-.550538-.733424-1.234994-.8478-1.955279-.273562-1.722588-.518917-3.449734-.812413-5.168848-.107943-.632392-.324632-1.246044-.480887-1.870917-.074911-.299336-.124603-.604823-.185668-.90752.040614-.018113.08123-.036227.121844-.054284" filter="url(#c)" transform="translate(13 13)" fill="url(#d)"/>
  </g>
</svg>
