<svg width="80" height="80" viewBox="0 0 80 80" xmlns="http://www.w3.org/2000/svg" xmlns:xlink="http://www.w3.org/1999/xlink">
  <title>
    capp-cappacity
  </title>
  <defs>
    <path id="a" d="M.270048.232301H30.01381v32.081634H.270048z"/>
    <path id="c" d="M.00007.072789h28.166263v33.448338H.00007z"/>
  </defs>
  <g fill="none" fill-rule="evenodd">
    <circle fill="#FFF" cx="40" cy="40" r="40"/>
    <g transform="translate(39.52381 22.885101)">
      <mask id="b" fill="#fff">
        <use xlink:href="#a"/>
      </mask>
      <path d="M15.275286 4.003428c-.090953-.007183-.182857-.014366-.274286-.02155-2.334762 5.806818-4.669524 11.614114-7.07381 17.593804h14.42762c-2.393334-5.94138-4.736667-11.756817-7.079524-17.572254M3.731 32.313935H.270048C4.669095 21.50433 8.982428 10.905907 13.325762.232301h3.64619c4.32381 10.626677 8.634762 21.225099 13.041905 32.05769h-3.427143c-1.029047-2.52031-2.075238-5.08276-3.128095-7.661492H6.814333C5.789571 27.183287 4.771476 29.720358 3.731 32.313935" fill="#F72A96" mask="url(#b)"/>
    </g>
    <g transform="translate(10 22.406228)">
      <mask id="d" fill="#fff">
        <use xlink:href="#c"/>
      </mask>
      <path d="M25.587286 25.989983c.755238.489408 1.502857.974507 2.375238 1.540056-.311905.413747-.52.734592-.771429 1.016648-4.605238 5.158902-11.13238 6.112338-17.10238 3.749099C3.787761 29.802293.544904 24.8608.05919 18.14125c-.380476-5.26138 1.054762-9.952423 4.907143-13.713972 5.03619-4.91755 13.511429-5.811127 19.362857-1.958113 1.330477.876338 2.43 2.106085 3.837143 3.351634-1.037143.686704-1.799524 1.192873-2.419047 1.603268-1.402381-1.096141-2.544286-2.246874-3.902381-3.005409-6.248095-3.487155-16.064286-.920873-18.25 8.69538-1.179524 5.18955-.19619 9.960085 3.580952 13.84231 5.026667 5.165127 13.084286 4.884028 17.882857-.490366.128096-.143662.28619-.25955.528572-.476" fill="#2A4771" mask="url(#d)"/>
    </g>
  </g>
</svg>
