<svg width="80" height="80" xmlns="http://www.w3.org/2000/svg" xmlns:xlink="http://www.w3.org/1999/xlink">
  <defs>
    <linearGradient x1="16.313477%" y1="12.165527%" x2="84.155273%" y2="87.353516%" id="a">
      <stop stop-color="#24CBFF" offset="0%"/>
      <stop stop-color="#2F67FF" offset="100%"/>
    </linearGradient>
    <path id="b" d="M.0001.0007H42.702V50H.0001z"/>
    <path id="d" d="M0 .0005h42.7019v49.93H0z"/>
    <path id="f" d="M.0008.4135h21.475V34H.0008z"/>
  </defs>
  <g fill="none" fill-rule="evenodd">
    <circle fill="url(#a)" cx="40" cy="40" r="40"/>
    <g transform="translate(19 16)">
      <mask id="c" fill="#fff">
        <use xlink:href="#b"/>
      </mask>
      <path d="M32.7861 10.5647c-3.83-2.211-7.628-4.403-11.429-6.597-3.822 2.207-7.619 4.399-11.428 6.597-3.308-3.52-6.591-7.013-9.929-10.564v.309c0 5.255 0 10.509.001 15.764 0 .114.012.227.018.34-.006.128-.017.255-.018.383v20.893c.153.089.299.175.446.26 5.127 2.962 10.255 5.923 15.383 8.884 1.734 1.002 3.467 2.003 5.206 2.998.126.072.248.274.439.099.139-.072.281-.137.415-.215 6.114-3.528 12.227-7.058 18.339-10.588.834-.481 1.667-.966 2.473-1.435V.0137c-3.334 3.548-6.623 7.047-9.916 10.551" fill="#ECECEC" mask="url(#c)"/>
    </g>
    <g transform="translate(19 16)">
      <mask id="e" fill="#fff">
        <use xlink:href="#d"/>
      </mask>
      <path d="M3.1909 14.4895c1.275-.736 2.508-1.447 3.78-2.181-1.262-1.342-2.488-2.644-3.712-3.946-.023.018-.046.037-.068.055v6.072zm36.288-.025v-6.356c-1.325 1.413-2.58 2.751-3.867 4.122 1.302.752 2.563 1.481 3.867 2.234zm-39.459 1.949c-.007-.113-.019-.226-.019-.34-.001-5.254-.001-10.509-.001-15.764v-.309c3.338 3.551 6.621 7.045 9.929 10.564 3.809-2.198 7.606-4.389 11.429-6.596 3.8 2.193 7.598 4.385 11.428 6.596 3.294-3.504 6.582-7.003 9.916-10.551v37.68c-.806.468-1.638.953-2.472 1.435-6.113 3.529-12.226 7.059-18.339 10.588-.135.077-.277.143-.415.214-.038-.171-.108-.342-.108-.513-.007-5.504-.006-11.008-.006-16.511.006-.02.012-.04.017-.059.048-.05.104-.094.141-.151 1.281-2.018 2.561-4.037 3.838-6.058.057-.089.083-.198.124-.298h-.014c.037-.032.074-.063.111-.094.008-.012.018-.024.021-.037.002-.007-.007-.025-.012-.025-.112-.006-.225-.012-.337-.012-2.715-.001-5.429-.002-8.144-.002-.91-.522-1.82-1.043-2.73-1.566-1.18-.679-2.358-1.359-3.537-2.039-1.044-.602-2.087-1.205-3.131-1.808-1.153-.667-2.307-1.334-3.46-2.002-1.215-.703-2.428-1.41-3.646-2.106-.181-.103-.389-.158-.583-.236z" fill="#ECECEC" mask="url(#e)"/>
    </g>
    <g transform="translate(19 32)">
      <mask id="g" fill="#fff">
        <use xlink:href="#f"/>
      </mask>
      <path d="M21.3618 16.9065c0 5.503 0 11.007.006 16.511 0 .171.07.342.108.513-.192.175-.314-.027-.44-.099-1.738-.994-3.472-1.996-5.206-2.998-5.128-2.961-10.256-5.922-15.383-8.884-.147-.085-.293-.171-.446-.26v-.397c0-6.832 0-13.664.001-20.496 0-.127.011-.255.018-.383.195.078.403.133.583.236 1.218.696 2.431 1.403 3.646 2.106 1.154.668 2.307 1.335 3.46 2.002 1.044.603 2.087 1.206 3.131 1.808 1.179.68 2.357 1.36 3.537 2.039.91.523 1.82 1.044 2.73 1.566l-.003.084c.053.029.105.058.157.087l-.012-.009c.049.121.081.254.149.364.681 1.083 1.364 2.164 2.053 3.242.633.991 1.274 1.979 1.911 2.968" fill="#CBCBCB" mask="url(#g)"/>
    </g>
    <path d="M58.479 30.4641c-1.304-.753-2.565-1.481-3.867-2.234 1.286-1.371 2.542-2.709 3.867-4.122v6.356z" fill="#393939"/>
    <path d="M22.1909 30.4895v-6.072c.022-.018.045-.037.068-.055 1.224 1.302 2.45 2.604 3.712 3.946-1.272.734-2.505 1.445-3.78 2.181" fill="#3B3B3B"/>
    <path d="M36.104 42.2546l.003-.084c2.715 0 5.429.001 8.144.001.112 0 .225.007.337.013.005 0 .014.018.012.025-.003.013-.014.024-.021.037l-.111.093h.013c-.117.04-.244.062-.35.123-1.258.722-2.513 1.449-3.769 2.174-.872-.505-1.74-1.016-2.617-1.512-.492-.277-.997-.529-1.496-.792l.012.008c-.052-.028-.104-.057-.157-.086" fill="#696969"/>
    <path d="M36.249 42.3322c.499.263 1.004.515 1.496.792.877.497 1.745 1.008 2.617 1.513.006 1.403.012 2.807.017 4.21-.005.02-.011.039-.017.059-.637-.989-1.278-1.976-1.911-2.968-.689-1.078-1.372-2.159-2.053-3.242-.068-.11-.1-.242-.149-.364" fill="#020202"/>
    <path d="M40.3794 48.8474c-.006-1.403-.012-2.807-.017-4.21 1.256-.726 2.511-1.453 3.769-2.175.105-.06.233-.082.35-.122-.04.1-.067.209-.123.298-1.277 2.021-2.558 4.04-3.839 6.058-.036.057-.093.101-.14.151m4.0888-6.5073c.037-.031.074-.062.111-.094-.037.032-.074.063-.111.094" fill="#3A3A3A"/>
    <path d="M36.104 42.2546c.053.029.105.058.157.086-.052-.028-.104-.057-.157-.086" fill="#020202"/>
  </g>
</svg>
