<svg width="80" height="80" viewBox="0 0 80 80" xmlns="http://www.w3.org/2000/svg" xmlns:xlink="http://www.w3.org/1999/xlink">
  <title>
    cat-bitclave
  </title>
  <defs>
    <path id="a" d="M.199359.198824h40.900176V53.76591H.19936z"/>
    <path id="c" d="M0 .112586h53.931513v51.678858H0z"/>
  </defs>
  <g fill="none" fill-rule="evenodd">
    <circle fill="#000" cx="40" cy="40" r="40"/>
    <g transform="translate(19.66242 7.14877)">
      <mask id="b" fill="#fff">
        <use xlink:href="#a"/>
      </mask>
      <path d="M20.664355 16.822765c8.805784.013903 15.879784 7.238288 15.855364 16.191952-.02442 8.950187-7.127657 16.09532-15.971962 16.065775-8.695032-.028503-15.799988-7.26714-15.80102-16.097406-.001031-8.928984 7.135223-16.174225 15.917618-16.160321zM.202483 3.273219v1.299305C.201795 13.956508.195603 23.34084.202827 32.725171c.004471 5.641444 1.817083 10.618984 5.77456 14.611096 5.80242 5.853476 12.79628 7.874385 20.660675 5.38353 8.042905-2.547166 12.877797-8.302273 14.205784-16.701177 1.98665-12.563074-7.86749-23.9777-20.387924-23.809812-5.516942.07369-10.259656 2.154385-14.210598 6.056122-.360115.355589-.72367.707006-1.276051 1.245776-.102153-.5777-.218752-.931898-.21944-1.286444-.011006-5.579225.01307-11.158102-.023044-16.736979-.003096-.445267-.006192-.843262-.009975-1.288529L.202483 3.273219z" fill="#FFF" mask="url(#b)"/>
    </g>
    <g transform="translate(9 20.009733)">
      <mask id="d" fill="#fff">
        <use xlink:href="#c"/>
      </mask>
      <path d="M7.399823.251623c0 2.467914.017541 4.935829-.018573 7.403048-.005503.379225-.238013.765054-.401389 1.13107-5.956853 13.354197-.787643 28.611123 12.003822 35.418395 9.231936 4.913236 20.969541 3.66746 29.065414-3.089064.529681-.442486 1.036662-.912433 1.546739-1.378208 1.47726-1.349706 2.756063-1.479359 3.744573-.372968.951707 1.065722.7787 2.50476-.697529 3.764786-1.744853 1.488743-3.51172 3.011203-5.467758 4.178075-14.00251 8.353369-31.451044 4.748823-41.129426-8.41107-8.023644-10.910615-8.06595-26.428235-.09665-37.356577.35805-.490803.756688-.951712 1.136407-1.426524l.31437.139037z" fill="#FFF" mask="url(#d)"/>
    </g>
    <path d="M28.00542 15.954115v-4.79401c1.462472-.903744 3.120306-1.376819 4.771261-1.744573 10.743593-2.393182 20.280612.066043 28.553962 7.422861.426841.37992.847835.79147 1.172523 1.258636.625987.902006.50526 2.111284-.210153 2.879118-.730892.783476-1.853542.929465-2.820382.313877-.382128-.243315-.703032-.587086-1.046637-.890882-8.55642-7.572326-18.141249-9.24008-28.735911-5.113797-.472242.184225-.94242.37401-1.684663.66877" fill="#FFF"/>
  </g>
</svg>
