<svg width="80" height="80" viewBox="0 0 80 80" xmlns="http://www.w3.org/2000/svg" xmlns:xlink="http://www.w3.org/1999/xlink">
  <title>
    cdt-blox
  </title>
  <defs>
    <path d="M.000014 16.849213c.004002-1.664998.896246-3.202474 2.342731-4.035125L23.431644.67226c.72379-.416655 1.531576-.624916 2.339228-.624916.807787 0 1.615575.20826 2.339364.624916l.003922.002428L49.199 12.814088c1.449878.834526 2.34288 2.377056 2.34288 4.046377v24.27907c0 1.66932-.893002 3.211851-2.34288 4.046512L28.10672 57.329628c-1.445414.832098-3.226144.832098-4.671558 0l-.00744-.004316-21.084976-12.1394-.007169-.004047C.893685 44.35164.004011 42.818876.000014 41.158997V16.849213z" id="a"/>
  </defs>
  <g fill="none" fill-rule="evenodd">
    <circle fill="#FFF" cx="40" cy="40" r="40"/>
    <g transform="translate(14 11)">
      <mask id="b" fill="#fff">
        <use xlink:href="#a"/>
      </mask>
      <path d="M37.485017 6.069821l-4.685625 2.697675 11.713996 6.744051c1.449742.834795 2.34288 2.377326 2.34288 4.046647v13.488372l4.685625-2.697675V14.162845L37.485017 6.06982zM.000014 16.86052v26.976744L23.42814 57.325636v-5.39535l-16.399622-9.44186-1.171507-.674553c-.724872-.41733-1.171373-1.188596-1.171373-2.023121V19.558194L.000014 16.860519zm51.54188 26.976744l-25.771008 14.83721v-29.67442l-2.34234-1.348701L.000014 14.162845 25.770886-.674365l9.371386 5.39535-4.685625 2.697674-2.34288-1.348838-1.173538-.675632c-.723518-.416656-1.615033-.416656-2.338687 0l-1.169884.673474-11.717648 6.746344-1.171102.67415c-.52076.299846-.52076 1.049395 0 1.349241l1.171101.674149 16.392588 9.437814 2.35005 1.353019v22.929827c0 .599559.650882.9744 1.171643.674554l1.171102-.674149 11.713996-6.744186 1.171507-.674553c.724872-.41733 1.171373-1.188596 1.171373-2.023121V35.74424l4.685625-2.697674v10.790697z" fill="#047FFF" fill-rule="nonzero" mask="url(#b)"/>
    </g>
  </g>
</svg>
