<svg width="80" height="80" viewBox="0 0 80 80" xmlns="http://www.w3.org/2000/svg">
  <title>
    cfi-cofoundit
  </title>
  <g fill="none" fill-rule="evenodd">
    <circle fill="#0099E5" cx="40" cy="40" r="40"/>
    <g fill-rule="nonzero" fill="#FFF">
      <path d="M39.15 40.38L47 48.274c2.095 2.104 4.878 3.263 7.837 3.263 2.96 0 5.742-1.16 7.835-3.263 4.33-4.354 4.33-11.436.002-15.79-2.095-2.107-4.877-3.266-7.837-3.266S49.095 30.377 47 32.483l-7.85 7.895zm15.687 15.067c-4.008 0-7.775-1.57-10.608-4.417L33.637 40.38l10.59-10.65c2.833-2.848 6.6-4.417 10.61-4.417 4.007 0 7.775 1.57 10.607 4.416 5.84 5.87 5.84 15.43 0 21.3-2.832 2.848-6.6 4.417-10.608 4.417z"/>
      <path d="M25.99 55.447c-4.01 0-7.777-1.57-10.61-4.417-5.84-5.87-5.84-15.43 0-21.3 2.833-2.848 6.6-4.417 10.61-4.417 4.007 0 7.774 1.57 10.606 4.416l.5.503-2.772 2.754-.5-.503c-2.094-2.106-4.876-3.265-7.837-3.265-2.96 0-5.742 1.158-7.836 3.264-4.33 4.355-4.33 11.436 0 15.79 2.095 2.105 4.878 3.264 7.837 3.264 2.96 0 5.742-1.16 7.837-3.263l.5-.504 2.773 2.754-.5.506c-2.834 2.848-6.6 4.417-10.608 4.417"/>
    </g>
  </g>
</svg>
