<svg width="80" height="80" xmlns="http://www.w3.org/2000/svg" xmlns:xlink="http://www.w3.org/1999/xlink">
  <defs>
    <path id="a" d="M.000013.99H80v80.009554H.000013z"/>
  </defs>
  <g fill="none" fill-rule="evenodd">
    <path d="M78.3751 39.9912c.02-21.111-17.101-38.091-37.826-38.363-21.362-.28-38.452 16.867-38.914 37.422-.489 21.755 16.935 38.973 37.639 39.329 21.706.372 39.161-17.198 39.101-38.388" fill="#000"/>
    <path d="M51.2554 46.4278c1.446 2.768 2.884 5.521 4.399 8.422 1.4-2.825 2.748-5.547 4.038-8.149 3.914 3.914 7.836 7.837 11.833 11.833-1.154 1.972-2.63 4.01-4.332 5.886-5.078 5.597-11.273 9.325-18.615 11.137-3.193.788-6.44 1.156-9.722 1.017-9.033-.385-16.933-3.586-23.615-9.7-4.089-3.741-7.142-8.21-9.219-13.349-.194-.48-.215-.832.13-1.29 4.815-6.379 9.604-12.778 14.401-19.171.14-.186.3-.356.478-.565 1.383 2.647 2.735 5.235 4.161 7.965 1.036-2.088 2.015-4.061 3.034-6.115 1.871 3.739 3.691 7.374 5.511 11.009.523 1.046 1.032 2.099 1.578 3.133.196.371.179.666-.01 1.036-.822 1.611-1.591 3.25-2.429 4.853-.258.491-.204.844.045 1.318 2.487 4.729 4.946 9.474 7.414 14.214.012.023.035.04.107.122.662-1.325 1.315-2.621 1.957-3.921 1.716-3.481 3.419-6.968 5.153-10.44.224-.449.269-.788.006-1.246-.542-.941-1.007-1.928-1.469-2.829 1.727-1.728 3.416-3.418 5.166-5.17" fill="#01ADEE"/>
    <path d="M55.525 25.1187c-.08-.098-.159-.196-.297-.366-.52 1.044-1.004 2.01-1.483 2.977-1.225 2.472-2.447 4.946-3.672 7.417-.07.142-.166.271-.249.406-.123-.14-.238-.286-.368-.418-4.257-4.29-8.51-8.584-12.774-12.867-3.609-3.624-7.23-7.235-10.849-10.848-.203-.203-.439-.372-.66-.556l.005.029c-.067-.095-.133-.191-.2-.286-.359-.405-.371.084-.432.203-.772 1.515-1.525 3.039-2.276 4.564-1.548 3.14-3.079 6.288-4.647 9.419-.228.456-.217.794.026 1.233.691 1.255 1.333 2.537 2.025 3.869-4.923 6.565-9.862 13.151-14.921 19.897-.258-1.082-.512-1.983-.682-2.9-.721-3.871-.875-7.766-.342-11.671.762-5.591 2.686-10.759 5.826-15.45 3.658-5.463 8.439-9.676 14.337-12.592 4.237-2.095 8.719-3.321 13.444-3.644 9.035-.617 17.24 1.731 24.469 7.151 8.12 6.089 12.93 14.239 14.426 24.294.536 3.599.514 7.21-.136 10.804-.216-.195-.442-.38-.646-.586-2.927-2.976-5.842-5.962-8.777-8.93-3.498-3.536-7.011-7.058-10.521-10.584-.144-.145-.323-.255-.486-.382l.008.01c-.049-.064-.099-.129-.148-.193" fill="#292929"/>
    <path d="M25.1729 10.8633c.221.185.457.354.66.556 3.619 3.613 7.24 7.224 10.849 10.848 4.264 4.283 8.517 8.577 12.774 12.867.13.132.245.279.368.418-.59 1.247-1.165 2.501-1.778 3.736-.185.37-.194.643.017 1.021.646 1.158 1.231 2.35 1.801 3.453-1.73 1.731-3.418 3.42-5.169 5.172-1.511-2.893-3.052-5.842-4.685-8.967-1.038 2.083-2.003 4.016-3.01 6.037-.143-.246-.268-.436-.369-.639-2.215-4.421-4.421-8.848-6.651-13.263-.243-.48-.241-.862.002-1.338.809-1.585 1.555-3.202 2.368-4.784.223-.434.195-.76-.022-1.174-2.312-4.399-4.607-8.807-6.9-13.217-.117-.225-.172-.483-.255-.726m30.4917 14.438c.163.127.342.238.487.383 3.51 3.525 7.022 7.047 10.52 10.584 2.935 2.968 5.85 5.953 8.778 8.929.203.207.43.391.646.586-.403 2.911-1.259 5.694-2.382 8.4-.22.531-.47 1.049-.674 1.503-3.961-3.961-7.885-7.885-11.906-11.905.491-1.006 1.047-2.203 1.657-3.371.237-.452.223-.792-.018-1.248-2.326-4.416-4.625-8.847-6.925-13.277-.093-.178-.123-.388-.183-.584" fill="#02ADEE"/>
    <path d="M40.3492 62.4883c-.673-1.278-1.292-2.445-1.903-3.616-.603-1.155-1.215-2.305-1.785-3.475-.108-.223-.139-.58-.036-.794 1.082-2.252 2.199-4.487 3.309-6.726.034-.068.094-.122.195-.251.523 1 1.026 1.96 1.527 2.921.701 1.343 1.411 2.682 2.088 4.037.112.226.187.582.089.786-1.12 2.341-2.276 4.664-3.484 7.118" fill="#04ADEE"/>
    <path d="M55.5723 47.2544c-.756-1.449-1.466-2.809-2.176-4.17-.503-.964-1.018-1.922-1.498-2.897-.102-.207-.175-.528-.087-.713 1.123-2.341 2.278-4.667 3.492-7.134.44.816.83 1.522 1.204 2.236.837 1.598 1.678 3.195 2.487 4.807.113.224.159.586.057.798-1.124 2.335-2.283 4.654-3.479 7.073M24.9185 18.0542c1.254 2.4 2.489 4.751 3.704 7.112.08.157.075.425-.003.586-1.127 2.315-2.273 4.621-3.452 7.005-.133-.152-.25-.245-.314-.366-1.147-2.189-2.297-4.377-3.416-6.579-.114-.222-.142-.588-.038-.805 1.086-2.277 2.207-4.536 3.322-6.799.021-.042.08-.065.197-.154" fill="#03ADEE"/>
    <path d="M24.9776 10.6065c.067.096.134.191.201.286-.067-.095-.134-.19-.201-.286M55.525 25.1187c.049.064.099.129.148.193-.049-.064-.099-.129-.148-.193" fill="#02ADEE"/>
    <g transform="translate(0 -.9903)">
      <mask id="b" fill="#fff">
        <use xlink:href="#a"/>
      </mask>
      <path d="M24.9185 19.0445c-.117.089-.176.112-.197.154-1.115 2.263-2.236 4.522-3.322 6.799-.104.217-.076.583.038.805 1.119 2.202 2.269 4.39 3.416 6.579.064.121.181.214.314.366 1.179-2.384 2.325-4.69 3.452-7.005.078-.161.083-.429.003-.586-1.215-2.361-2.45-4.712-3.704-7.112m30.654 29.2c1.196-2.419 2.355-4.738 3.478-7.073.102-.212.056-.574-.056-.798-.809-1.612-1.65-3.208-2.488-4.807-.374-.713-.763-1.419-1.203-2.236-1.214 2.467-2.369 4.793-3.492 7.134-.088.185-.015.506.086.713.48.975.996 1.933 1.499 2.897.71 1.361 1.42 2.721 2.176 4.17m-15.223 15.234c1.208-2.454 2.364-4.777 3.484-7.118.097-.204.023-.56-.09-.786-.676-1.355-1.387-2.694-2.087-4.037-.501-.961-1.005-1.921-1.528-2.921-.101.129-.161.183-.194.251-1.11 2.239-2.227 4.474-3.309 6.726-.103.214-.073.571.036.794.57 1.17 1.181 2.321 1.784 3.475.612 1.171 1.231 2.338 1.904 3.616m10.906-16.06c-1.751 1.751-3.44 3.441-5.166 5.169.462.902.927 1.888 1.469 2.83.263.457.218.796-.006 1.246-1.734 3.472-3.437 6.959-5.154 10.439-.641 1.301-1.294 2.597-1.956 3.922-.072-.083-.095-.1-.107-.123-2.468-4.74-4.927-9.484-7.415-14.214-.249-.473-.302-.826-.044-1.318.838-1.603 1.607-3.242 2.429-4.853.189-.369.206-.664.01-1.035-.546-1.034-1.055-2.087-1.578-3.133-1.82-3.636-3.64-7.271-5.511-11.009-1.019 2.053-1.998 4.026-3.034 6.114-1.426-2.73-2.778-5.318-4.161-7.965-.178.209-.339.38-.478.566-4.797 6.392-9.586 12.791-14.401 19.171-.345.457-.324.809-.13 1.29 2.077 5.139 5.13 9.607 9.219 13.348 6.682 6.115 14.582 9.316 23.615 9.7 3.282.14 6.529-.229 9.722-1.017 7.341-1.811 13.537-5.539 18.614-11.137 1.703-1.876 3.179-3.913 4.333-5.885-3.997-3.997-7.919-7.919-11.834-11.833-1.289 2.601-2.637 5.323-4.037 8.148-1.515-2.9-2.953-5.654-4.399-8.421m4.417-21.117l-.008-.01c.06.196.09.406.183.585 2.3 4.429 4.599 8.86 6.925 13.276.241.456.255.796.018 1.248-.61 1.168-1.166 2.365-1.657 3.371 4.021 4.02 7.945 7.944 11.906 11.905.204-.454.454-.972.674-1.503 1.123-2.706 1.979-5.489 2.382-8.4.65-3.594.671-7.204.136-10.803-1.497-10.055-6.306-18.206-14.427-24.294-7.229-5.42-15.433-7.768-24.469-7.152-4.724.323-9.206 1.55-13.443 3.645-5.898 2.915-10.68 7.128-14.337 12.592-3.14 4.69-5.064 9.858-5.827 15.449-.533 3.906-.379 7.801.342 11.671.171.917.425 1.819.682 2.901 5.06-6.747 9.999-13.333 14.922-19.898-.693-1.331-1.334-2.614-2.026-3.869-.242-.438-.253-.777-.025-1.233 1.567-3.131 3.099-6.279 4.646-9.419.751-1.525 1.504-3.048 2.276-4.563.061-.119.074-.609.432-.204.067.096.134.191.201.286l-.006-.029c.084.243.138.501.255.726 2.293 4.41 4.589 8.818 6.9 13.217.217.415.246.74.023 1.174-.813 1.582-1.559 3.199-2.369 4.784-.243.476-.244.858-.001 1.338 2.23 4.415 4.435 8.842 6.65 13.264.101.202.226.392.369.638 1.008-2.021 1.972-3.954 3.011-6.037 1.633 3.125 3.173 6.074 4.684 8.967 1.752-1.752 3.44-3.441 5.169-5.172-.57-1.103-1.154-2.294-1.8-3.453-.211-.378-.202-.651-.018-1.021.614-1.235 1.188-2.489 1.778-3.736.084-.135.179-.264.249-.405 1.226-2.471 2.448-4.945 3.672-7.417.479-.968.963-1.933 1.484-2.977.138.17.217.268.296.365.05.065.099.129.148.193m24.328 14.68c.062 22.087-18.132 40.4-40.757 40.012-21.581-.37-39.743-18.317-39.233-40.994.482-21.425 18.295-39.298 40.562-39.006 21.602.284 39.448 17.983 39.428 39.988" fill="#FCFDFD" mask="url(#b)"/>
    </g>
  </g>
</svg>
