<?xml version="1.0" encoding="UTF-8"?>
<svg width="105px" height="105px" viewBox="0 0 105 105" version="1.1" xmlns="http://www.w3.org/2000/svg" xmlns:xlink="http://www.w3.org/1999/xlink">
    <!-- Generator: Sketch 49.2 (51160) - http://www.bohemiancoding.com/sketch -->
    <title>Group</title>
    <desc>Created with Sketch.</desc>
    <defs></defs>
    <g id="Page-1" stroke="none" stroke-width="1" fill="none" fill-rule="evenodd">
        <g id="Group">
            <circle id="Oval" fill="#0057FF" cx="52.5" cy="52.5" r="52.5"></circle>
            <path d="M32.104,65.208 C28.324,65.208 25.192,63.948 22.708,61.428 C20.224,58.908 19,55.812 19,52.104 C19,48.396 20.224,45.264 22.708,42.78 C25.192,40.26 28.324,39 32.104,39 C36.676,39 40.78,41.304 42.94,44.94 L38.656,47.424 C37.396,45.156 34.984,43.824 32.104,43.824 C29.656,43.824 27.676,44.58 26.164,46.128 C24.688,47.676 23.932,49.656 23.932,52.104 C23.932,54.516 24.688,56.496 26.164,58.044 C27.676,59.592 29.656,60.348 32.104,60.348 C34.984,60.348 37.468,58.98 38.656,56.784 L42.94,59.268 C40.78,62.904 36.712,65.208 32.104,65.208 Z M60.616,49.512 L60.616,39.504 L65.548,39.504 L65.548,64.704 L60.616,64.704 L60.616,54.264 L51.256,54.264 L51.256,64.704 L46.288,64.704 L46.288,39.504 L51.256,39.504 L51.256,49.512 L60.616,49.512 Z M85.276,39.504 L85.276,44.256 L75.196,44.256 L75.196,50.232 L84.988,50.232 L84.988,54.984 L75.196,54.984 L75.196,64.704 L70.228,64.704 L70.228,39.504 L85.276,39.504 Z" id="CHF" fill="#FFFFFF"></path>
        </g>
    </g>
</svg>