<svg width="80" height="80" xmlns="http://www.w3.org/2000/svg" xmlns:xlink="http://www.w3.org/1999/xlink"><defs><path id="a" d="M0 .38h63.424v47.541H0z"/><path id="c" d="M.154.49h22.45v10.354H.155z"/></defs><g fill="none" fill-rule="evenodd"><circle fill="#D91D4C" cx="40" cy="40" r="40"/><g transform="translate(8 9.297)"><mask id="b" fill="#fff"><use xlink:href="#a"/></mask><path d="M37.07 32.21c2.268 2.248 4.063 4.266 6.1 5.993 3.68 3.123 9.303 2.004 11.54-2.147 1.676-3.109 1.11-6.868-1.397-9.286-2.606-2.513-6.595-2.996-9.527-.77-2.3 1.744-4.275 3.923-6.716 6.21m-5.699 5.328c-2.116 2.313-3.793 4.468-5.79 6.263-4.802 4.32-10.385 5.262-16.276 2.736C3.541 44.066.351 39.425.026 33.125c-.34-6.618 2.652-11.6 8.462-14.596 2.228-1.15 4.862-1.502 7.519-2.278.223-1.188.408-2.633.775-4.029C18.388 6.102 22.277 2.089 28.388.784c6.059-1.292 11.352.514 15.32 5.474a8.247 8.247 0 0 1 1.565 3.285c.382 1.755-.47 3.153-1.967 3.913-1.522.77-3.035.567-4.322-.702-.636-.626-1.087-1.439-1.703-2.09-2.859-3.022-7.157-3.338-10.349-.796-3.077 2.452-3.753 6.976-1.532 10.37.369.565.876 1.041 1.22 1.617 1.08 1.801.903 3.648-.418 4.96-1.248 1.24-3.207 1.382-4.958.317-.574-.35-1.07-.828-1.637-1.19-3.48-2.208-7.827-1.516-10.264 1.619-2.36 3.033-2.107 7.537.57 10.199 2.887 2.872 7.591 3.066 10.647.125 5.027-4.838 9.874-9.865 14.808-14.802.953-.955 1.894-1.938 2.944-2.777 6.005-4.796 14.177-4.644 19.807.324 5.78 5.1 6.975 13.324 2.906 19.985-4.893 8.009-16.068 9.642-23.116 3.323-2.08-1.865-4.003-3.907-6.538-6.4" fill="#FFF" mask="url(#b)"/></g><g transform="translate(28.21 58.775)"><mask id="d" fill="#fff"><use xlink:href="#c"/></mask><path d="M11.487 10.83c-3.433.142-6.462-.904-9.15-2.899C.03 6.22-.45 4.035.907 2.11c1.27-1.8 3.381-2.2 5.633-.69 3.288 2.204 6.386 2.195 9.681.045 2.309-1.506 4.42-1.177 5.658.57 1.327 1.872.812 4.25-1.36 5.867-2.689 2.002-5.699 3.078-9.032 2.929" fill="#FFF" mask="url(#d)"/></g><path d="M39.811 28.987c-2.185.08-4.022-1.566-4.055-3.633-.032-2.057 1.779-3.921 3.833-3.948 2.075-.026 3.865 1.782 3.859 3.896-.006 1.995-1.601 3.61-3.637 3.685" fill="#FFF"/></g></svg>