<svg width="80" height="80" viewBox="0 0 80 80" xmlns="http://www.w3.org/2000/svg">
  <title>
    chsb-swissborg
  </title>
  <g fill="none" fill-rule="evenodd">
    <circle fill="#FFF" cx="40" cy="40" r="40"/>
    <path d="M21.788877 26.469996c-.034138-.414995-.070593-.65847-.07152-.901947-.004943-1.161395.036919-2.324497-.01483-3.483567-.02595-.582326.211936-.893882.672724-1.16124 2.578748-1.495904 5.149927-3.00499 7.723114-4.510663 1.042528-.60993 2.074707-1.238471 3.131602-1.822038.239276-.131973.6443-.251385.83291-.139107 1.206578.718177 2.374073 1.502727 3.691716 2.354273-5.360008 3.244588-10.598139 6.415203-15.965716 9.664289m.191854 28.853914c5.223146 2.82122 10.269732 5.54691 15.472642 8.357118-.82009.529754-1.546569.90784-2.163992 1.418984-.991707.820994-1.856284.798508-3.01065.181133-3.240504-1.73302-6.569212-3.299331-9.854049-4.94985-.189382-.095064-.420008-.34986-.424488-.535492-.035528-1.414642-.019463-2.830679-.019463-4.471893m18.649504-39.831733l-.216724.037375c-.244991-.145155-5.658601-3.846765-5.897105-4.064497-.378301-.34552-.776065-.399487-1.224496-.175086-.023171.02745-.047423.02838-.072756.003102-.333813.201914-12.574602 7.223326-12.738805 7.29094-.087431.048696-.174862.097546-.262293.146241-.015447.020626-.026878.053348-.04696.060016-1.092885.369557-1.139072 1.212883-1.10478 2.199038.064415 1.852123.004943 3.708433.02765 5.562572.005407.434535-.109056.715385-.486121.950642-.889139.554877-5.54831 3.848936-5.902358 4.036738-.555943.294807-.71752.72438-.701455 1.325625.031666 1.184968.021935 11.651952-.004017 15.698926-.003861.593181.20483.95855.674423 1.269331.76726.507733 4.933667 3.388193 5.019862 3.442006.412285.249989.864114.45485 1.220789.768577.1883.165936.292105.520604.29535.791685.024406 1.977117.044024 3.955475-.002009 5.931973-.016992.732599.136553 1.242037.891919 1.446588.086658.023417 12.473577 6.363872 12.577845 6.412257.211317.085604.416764.215871.63565.245337.289017.038925.65496.1084.873537-.024658 1.832187-1.113786 5.854008-3.649193 6.054821-3.766278.101025-.015043.201895-.030396.302765-.045749a1.919015 1.919015 0 0 1 .028268-.131663l-.085268-.136316c.013439-.282246.038463-.564336.038463-.846427.003244-6.337043.003707-12.67393.004634-19.010818-.203439-.022797-.406878-.045129-.610317-.06777-.095772 0-.19139.000155-.287008.00031-.693114-.171209-.474691.37793-.475309.662657-.01004 5.334605-.003553 10.66952-.000618 16.004278-.195406-.0473-9.962642-5.20325-14.649927-7.735866-.109829-.05924-.208073-.140192-.399772-.27139.181967-.160974.310333-.299305.461406-.40445 2.259301-1.57546 4.528488-3.136652 6.776822-4.727465.380772-.269374.704853-.30923 1.129341-.153064 1.201325.442134 2.21435.102973 3.065333-.818668.743935-.805952.937488-2.126925.451057-3.105327-.502959-1.011122-1.769471-1.761556-2.762569-1.636406-1.32722.167021-2.38396.948936-2.531016 2.123358-.109675.874653-.622984 1.274294-1.245195 1.69146-2.22331 1.491407-7.55165 5.099503-7.993748 5.409663-.287163.201294-.537716.20238-.84187-.006823-1.845626-1.269177-3.714577-2.504236-5.543057-3.797294-.241902-.171054-.408577-.602022-.420935-.920091-.04387-1.134877-.002008-4.439637-.021471-4.953727-.013748-.363043.136089-.513316.498943-.509284 2.67622.027914 5.352439.037685 8.028195.08793.235723.004343.505122.217888.693268.401968.579577.566353 1.236236.898535 2.06065.907065 1.377887.014267 2.585854-.862712 2.885683-2.090327.395448-1.618882-.465577-2.945283-1.629983-3.48124-1.217854-.560615-2.813082-.112899-3.559488 1.030353-.266927.408946-.549146.530219-.998659.527273-2.471235-.016129-4.942626-.010546-7.414016-.015043-.150764-.000155-.301683-.022332-.545902-.041562 0-1.58678-.002009-3.150144.00108-4.713663.001082-.5037.23109-.832315.668245-1.121385 1.739658-1.149765 3.454293-2.3383 5.163211-3.534123.418927-.292946.755984-.302717 1.185415-.013492 4.908797 3.308326 9.82717 6.60285 14.744927 9.897995.104113.06963.232325.103128.34926.153374.506512.400417.964057.83061.997732 1.542428.003089.064823.079861.126235.122341.189198l.056073.234481c.192008.276663.38417.553326.576179.82999l.304309.277128c.456618.487572 1.022138.67615 1.678179.615978.000309-1.973395.000463-3.946636.000618-5.920032-.194943.02931-.389732.058465-.584675.08762-.053138-.011165-.099789.001706-.139797.038616-.126512.050556-.253024.101112-.37969.151668l-.046188-.004497-.036919.02807a177.339322 177.339322 0 0 0-.21487.147635c-.18104.008375-.362235.01675-.54343.025279-.057155-.042648-.11431-.08545-.171464-.128252-1.52865-1.041829-12.220244-8.200331-13.885447-9.303417-.103187-.06839-.192626-.157251-.362854-.29822 1.36831-.829523 14.418838-8.77087 14.488505-8.822512.184902-.01985.370113-.039546.55517-.059396.010813.518278-.002008 12.019802-.000463 15.506936.000154.205791.020544.411583.031512.617374-.124504.445545.094228.611016.500179.586824.270943-.016284.539569-.073043.809122-.111658-.011431-.409102.00587-13.817647.003398-19.486605-.000154-.230759-.025951-.461363-.039699-.692123.057618-.053657.115236-.107315.172854-.160818.008959-.033962.00108-.063427-.02348-.088395" fill="#88BA65"/>
    <path d="M59.014342 59.842312c-.00726.203775-.356675.457642-.601358.581085-2.178667 1.099054-4.370155 2.17283-6.556545 3.25653-1.380667.684524-2.765813 1.361139-4.134894 2.068615-.386643.199898-.68122.192454-1.048862-.052262-.99804-.664209-2.02404-1.28639-3.158634-2.00038 5.207236-2.81238 10.29769-5.561642 15.528097-8.386273 0 1.617952.024252 3.076637-.027805 4.532685m.23665-33.346123c-5.376072-3.253428-10.656836-6.44901-16.009739-9.688482 1.276862-.828903 2.4527-1.610508 3.65387-2.350395.164976-.101578.504195-.07692.683228.026984 3.77961 2.193764 7.550105 4.403192 11.310715 6.629369.17548.103903.342464.388476.346325.592096.028577 1.545685.015602 3.09199.015602 4.790428m9.693244 6.480802c.171463-.661417-.05978-1.07331-.649399-1.45853-1.980634-1.293834-3.909366-2.66738-5.873008-3.988042-.383244-.257899-.535398-.537818-.529374-1.007401.02626-2.012786-.029658-4.027589.031513-6.038824.023325-.770748-.209464-1.186829-.884968-1.564604-4.398423-2.459727-8.780163-4.95016-13.14043-7.477503-.62453-.362112-1.019976-.28907-1.566033.09708-1.677561 1.18714-3.394513 2.318294-5.096326 3.471006l-.605991.481989c.02456.024968.032438.054433.02348.088396-.057619.053657-.115082.10716-.1727.160818.013593.23076.03939.461519.039545.692123.002471 5.668957.002626 11.33776.000926 17.006716 0 .205017-.024251.410033-.037227.615049-.000463.212615-.000927.425075-.001545.637845.011431.408946.023016.817893.034447 1.226994l.180114-.006358h1.06261v-16.81116c5.114398 3.07586 10.094715 6.071235 15.165244 9.120732-1.190512.796957-2.27583 1.528936-3.366399 2.252695-3.558097 2.361097-7.125309 4.708546-10.66904 7.091198-.488285.32815-.874.432209-1.377423.091032-.200967-.136315-.48365-.151513-.729106-.22192-.076154-.00093-.152309-.002016-.228309-.002946l-.056382.024813c-.000154 1.97324-.000309 3.946481-.000618 5.919877.066732-.003567.133464-.007134.200041-.0107 1.389008-.131819 2.393846-1.078584 2.615203-2.51292.054374-.352033.141187-.597525.463415-.811846 5.16661-3.435802 10.322097-6.888663 15.48052-10.336716.213171-.142519.431594-.276818.668708-.428487 2.027284 1.383626 4.048544 2.758102 6.060536 4.14638.149374.102973.32748.303027.329642.460278.023635 1.698594.014675 3.397653.014675 5.134706-.596414.03877-1.126252.073043-1.65609.10747-.119251 0-.238194-.000154-.357446-.000154h-5.67065c-.223212.001395-.446269.00279-.66948.004187-.224139-.229209-.47361-.438722-.667935-.691193-.759537-.98693-2.094943-1.408128-3.243594-1.001043-1.237626.438567-1.990984 1.529867-1.96596 2.847583.024098 1.25646.849903 2.375674 2.051228 2.698396 1.09335.293722 2.08861.093203 2.91596-.73508.197878-.198193.407805-.384134.61217-.575658.000618-.00031.001236-.000465.001854-.000775.277586.022796.555016.064358.832602.064978 2.317073.004808 4.633992.002016 6.951065.001551h.80078c.026415.225487.063797.397626.064106.570075.00417 1.654085-.005716 3.308326.007106 4.962257.002935.360716-.063025.61815-.39452.838983-1.821992 1.214123-3.634407 2.44329-5.430757 3.694942-.401317.27961-.695894.276042-1.09474.003101-2.870235-1.964246-5.757926-3.902283-8.6243-5.871802-.190618-.130888-.325626-.439652-.362082-.684369-.220894-1.481481-1.293235-2.516021-2.731829-2.587978-1.34622-.067305-2.53457.83185-2.881667 2.217026-.260593 1.039813.029968 1.951064.784716 2.689867.805878.788582 1.794496 1.031438 2.845675.65816.506203-.179738.839552-.10747 1.252146.18439 2.271659 1.606476 4.56139 3.187209 6.84417 4.777712.122651.085449.238968.179738.427578.322411-1.126098.612257-2.180675 1.189466-3.238805 1.76016-3.806642 2.053108-7.613748 4.104819-11.423016 6.153274-.155244.083433-.331187.128561-.497399.191369-.00139-4.277578-.000463-8.555155-.005252-12.832733-.00139-1.133016-.020235-2.265877-.031048-3.398893v-.590235c-.246382.058-.431903.101887-.617578.145465-.20869-.010856-.41769-.021867-.626536-.032567-.000927 6.336888-.00139 12.67393-.004634 19.010818 0 .282091-.025025.564337-.038464.846428l.085268.136315c-.010967.043578-.02039.087466-.028113.131664.072601.055983.145357.111812.218114.167641.443024.272476.885894.544952 1.328764.817583.06704.041562.134081.083278.201122.124995.051593-.00822.089902.010545.115081.056604l.149837.113984c1.29648.782225 2.612269 1.534829 3.880634 2.360786.536326.34924.948456.381342 1.52865.084364 4.413253-2.257968 8.841489-4.48585 13.277294-6.69838.44256-.220524.567528-.479818.562276-.948936-.02348-2.063497.001236-4.127615-.019463-6.191267-.004789-.482455.11709-.783155.551309-1.067417 2.06482-1.351834 4.10091-2.748022 6.134991-4.14669.202358-.138952.320683-.401037.477935-.605898.00896-.282401.025643-.564647.025797-.847049.0017-4.682181.002008-9.364363-.000309-14.046545-.000309-.410497-.021471-.82115-.032902-1.231647" fill="#335259"/>
  </g>
</svg>
