<svg width="80" height="80" viewBox="0 0 80 80" xmlns="http://www.w3.org/2000/svg">
  <title>
    clam-clamcoin
  </title>
  <defs>
    <linearGradient x1="21.909%" y1="12.438%" x2="78.145%" y2="78.964%" id="a">
      <stop stop-color="#FFF" offset="0%"/>
      <stop stop-color="#D5AC51" offset="16%"/>
      <stop stop-color="#D2A644" offset="18%"/>
      <stop stop-color="#CC9B2E" offset="26%"/>
      <stop stop-color="#E6DE5F" offset="29%"/>
      <stop stop-color="#9D9A62" offset="45%"/>
      <stop stop-color="#787864" offset="63%"/>
      <stop stop-color="#517E69" stop-opacity=".96" offset="70%"/>
      <stop stop-color="#4F99CA" offset="89%"/>
    </linearGradient>
  </defs>
  <g fill="none" fill-rule="evenodd">
    <circle fill="#464646" cx="40" cy="40" r="40"/>
    <path d="M34.29 24.4c1.04-9.575 1.124-19.072 1.124-21.752v-.274c.533-.23 1.586-.443 3.395.05 2.072.566 3.665 2.664 4.407 3.813v.733c-.036 4.07-1.313 14.13-3.525 21.675-1.933 6.59-6.154 15.362-6.998 17.11-.42-.094-.85-.162-1.28-.203.337-2.225 1.894-12.128 2.877-21.152zm-.732 21.588c.436.138.86.308 1.273.506 1.094-1.428 6.115-8.1 9.254-14.13 3.702-7.112 7.147-16.55 7.614-18.38l.19-.75c-.41-1.272-1.393-3.64-3.302-4.882-1.317-.912-2.877-1.407-4.478-1.422v.036c-.037 4.12-1.333 14.296-3.562 21.92-1.903 6.482-5.97 15.007-6.99 17.102h.003-.002zm2.07.942c.52.318 1.01.685 1.462 1.096 1.332-1.332 6.95-6.892 10.68-11.59 4.304-5.42 8.586-13.032 9.285-14.68l.364-.86c-.1-1.09-.405-2.826-1.334-4.112-.91-1.166-2.134-2.05-3.53-2.544-.585 2.264-4.15 11.77-7.662 18.544-3.113 5.944-8.006 12.488-9.27 14.145h.003zM19.72 27.91c2.496 8.167 6.207 16.316 7.04 18.114.437-.14.882-.25 1.334-.332-.334-1.945-2.03-12.175-3.083-21.796-1.148-10.512-1.618-19.424-1.665-21.232v-.18c-.82-.216-2.562-.512-4.818.527-1.625.81-2.91 2.17-3.624 3.84.033.246.066.523.106.832.332 2.668 1.928 11.123 4.71 20.227zm6.174-4.114c1.057 9.637 2.763 19.894 3.08 21.765.428-.043.858-.065 1.29-.065h.23c.334-2.02 1.91-12.065 2.903-21.2 1.036-9.526 1.116-18.98 1.116-21.644V2.22C33.67 1.468 31.718 0 29.326 0c-2.392 0-4.3 1.468-5.134 2.218v.416c.087 1.802.553 10.68 1.702 21.166v-.003zm4.37 22.59c-4.883 0-7.112 2.912-7.772 3.997 4.13 3.027 6.754 4.367 7.807 4.367 1.052 0 4.044-1.622 7.72-4.236-.677-1.14-2.91-4.122-7.757-4.122v-.004zm27.58-24.23c-.772 1.77-5.07 9.403-9.384 14.837-3.755 4.73-9.38 10.323-10.75 11.655.38.413.72.86 1.02 1.332 2.932-2.143 5.727-4.466 8.37-6.956 7.05-6.66 12.66-13.237 12.854-16.557.14-1.715-.67-3.37-2.11-4.312zM11.58 35.87c3.566 4.37 7.487 8.434 11.724 12.155.302-.274.622-.53.957-.762-3.812-4.64-7.113-9.678-9.846-15.026-4.61-8.97-6.362-15.177-7.112-17.828l-.103-.397v-.018c-1.034.276-3.637 1.138-4.666 3.026-.458.872-.696 1.842-.693 2.825.16.46.364 1.016.62 1.665 1.606 4.068 4.676 8.913 9.12 14.36zm-.693.567c-4.33-5.328-7.39-10.084-9.076-14.15-.632.557-1.945 2.038-1.798 4.662.19 3.443 5.138 8.887 14.184 16.72 2.906 2.517 5.438 4.562 7.594 6.173.266-.42.567-.814.9-1.182-4.265-3.743-8.213-7.83-11.805-12.223h.003zm-2.722-22.27c.74 2.623 2.475 8.77 7.046 17.65 2.72 5.325 6.01 10.34 9.814 14.952.29-.164.59-.31.897-.44-.9-1.942-4.574-10.048-7.057-18.17C16.065 19 14.46 10.473 14.12 7.78v-.104c-1.487-.075-2.953.368-4.15 1.252-1.395 1.03-1.962 2.697-2.195 3.81.07.28.16.612.273 1.018l.117.41z" transform="translate(10 13)" fill-rule="nonzero" fill="url(#a)"/>
  </g>
</svg>
