<svg width="80" height="80" viewBox="0 0 80 80" xmlns="http://www.w3.org/2000/svg">
  <title>
    cloak-cloakcoin
  </title>
  <g fill="none" fill-rule="evenodd">
    <circle fill="#141414" cx="40" cy="40" r="39"/>
    <g fill-rule="nonzero" fill="#F13D20">
      <path d="M40 0C17.944 0 0 17.944 0 40s17.944 40 40 40 40-17.944 40-40S62.056 0 40 0zm0 73.728C21.402 73.728 6.272 58.598 6.272 40 6.272 21.403 21.402 6.272 40 6.272c18.597 0 33.728 15.13 33.728 33.728S58.6 73.728 40 73.728z"/>
      <path d="M40 22.044c-9.9 0-17.956 8.055-17.956 17.956 0 5.36 2.363 10.174 6.098 13.466 1.865-.967 3.846-1.69 5.895-2.155C29.98 49.164 27.21 44.9 27.21 40c0-7.052 5.738-12.79 12.79-12.79 7.052 0 12.79 5.738 12.79 12.79 0 4.9-2.77 9.162-6.827 11.31 2.05.464 4.03 1.19 5.895 2.156 3.735-3.292 6.098-8.106 6.098-13.466 0-9.9-8.055-17.956-17.956-17.956"/>
      <path d="M40 10.608c-16.208 0-29.393 13.184-29.393 29.392 0 8.39 3.538 15.963 9.194 21.323.946-1.7 2.193-3.26 3.693-4.63-4.308-4.26-6.983-10.17-6.983-16.693 0-12.952 10.538-23.49 23.49-23.49 12.952 0 23.49 10.538 23.49 23.49 0 6.523-2.676 12.432-6.984 16.693 1.5 1.37 2.748 2.93 3.693 4.63 5.654-5.36 9.193-12.933 9.193-21.323 0-16.208-13.186-29.392-29.393-29.392"/>
    </g>
  </g>
</svg>
