<svg width="80" height="80" viewBox="0 0 80 80" xmlns="http://www.w3.org/2000/svg">
  <title>
    cmp-compcoin
  </title>
  <defs>
    <linearGradient x1="92.581864%" y1="47.263229%" x2="8.988178%" y2="60.439848%" id="a">
      <stop stop-color="#1E7D2A" offset="0%"/>
      <stop stop-color="#61AD3F" offset="100%"/>
    </linearGradient>
  </defs>
  <g fill="none" fill-rule="evenodd">
    <circle fill="#0B1A0C" cx="40" cy="40" r="40"/>
    <path d="M41.253445 31.414748c1.437008 2.702243 3.119407 2.41219 5.128175.988924 1.995517-1.414432 4.10784-2.677212 6.237832-3.884044 1.822762-1.033095 2.14717-2.252196 1.007574-4.00674-1.690742-2.602123-3.283327-5.268538-4.95591-7.883422-2.044105-3.194987-4.209433-3.720614-7.43534-1.729514-9.174668 5.663127-18.334122 11.351284-27.481797 17.0576-3.00506 1.874785-3.54345 4.211887-1.65148 7.264056 5.72202 9.23258 11.46956 18.448965 17.23968 27.651117 1.73687 2.770462 4.09115 3.361363 6.89204 1.641174 9.3965-5.7711 18.77042-11.57901 28.11539-17.43256 2.80138-1.75455 3.23866-4.03177 1.50179-6.91953-1.47382-2.45047-3.08554-4.81899-4.49801-7.30185-1.1823-2.07748-2.52115-2.20018-4.39839-.91678-2.08828 1.42719-4.28943 2.68997-6.44936 4.01165-1.30352.79752-2.55157 1.55136-1.75258 3.47964.12024.29005-.50894 1.09346-.96635 1.38695-3.16162 2.03036-6.38556 3.96355-9.55405 5.98311-1.11064.7082-1.92779.67188-2.6512-.49962-1.97442-3.19597-4.04551-6.33648-5.89821-9.60067-.30527-.53839.0211-2.00239.52415-2.34054 3.51841-2.36017 7.1605-4.53728 11.04602-6.94898" fill="#295832"/>
    <path d="M31.7321 17.797536c-3.690126 2.290423-7.149067 4.35805-10.49055 6.599534-.477754.321144-.787712 1.711525-.497797 2.22284 1.759534 3.10004 3.726483 6.082626 5.60161 9.11788.687034 1.112585 1.463094 1.147076 2.517882.47449 3.009152-1.918007 6.070974-3.753982 9.073602-5.682244.434406-.27873 1.03195-1.041738.917754-1.317204-.75881-1.831313.42649-2.547245 1.66445-3.30466 2.05132-1.255213 4.14178-2.454492 6.12505-3.809916 1.78284-1.218856 3.05437-1.10233 4.17721.870678 1.34144 2.35801 2.87212 4.607415 4.27182 6.93466 1.64954 2.742543 1.23424 4.905255-1.42627 6.57157-8.87504 5.559194-17.77758 11.07504-26.70157 16.55593-2.66004 1.633687-4.89593 1.0725-6.54546-1.558643-5.47996-8.7394-10.93847-17.49233-16.37275-26.26063-1.79682-2.89868-1.28551-5.11826 1.56843-6.89877 8.68765-5.41937 17.38651-10.82149 26.09981-16.19983C34.77901.22225 36.83545.72144 38.77677 3.75576c1.588474 2.48339 3.100974 5.01572 4.706695 7.486993 1.082287 1.666313.774194 2.82411-.95691 3.805254-2.02288 1.14615-4.02898 2.34543-5.92415 3.68873-1.90775 1.3517-3.50555 1.62716-4.87029-.93919" stroke="#FFF" fill="url(#a)" stroke-linecap="round" stroke-linejoin="round" transform="translate(11 9)"/>
    <path d="M42.54213 26.52533c1.364747 2.566356 2.962544 2.29089 4.870298.939195 1.89517-1.343305 3.90127-2.542584 5.924153-3.688728 1.73111-.981145 2.0392-2.13894.95691-3.805255-1.60572-2.47127-3.11822-5.0036-4.70669-7.48699-1.94131-3.034323-3.99775-3.533518-7.06144-1.642544-8.7133 5.378348-17.41216 10.780467-26.09983 16.19983-2.85394 1.78051-3.36525 4.000086-1.56843 6.898772 5.43428 8.768305 10.8928 17.52123 16.37276 26.260636 1.64954 2.631144 3.88543 3.19233 6.54547 1.558644 8.92398-5.48089 17.82652-10.996737 26.70156-16.555932 2.66051-1.666314 3.07581-3.829026 1.42627-6.571568-1.3997-2.327246-2.93038-4.576653-4.27182-6.93466-1.12284-1.97301-2.39436-2.089535-4.1772-.87068-1.98326 1.355425-4.07373 2.554704-6.12504 3.809916-1.23796.757415-2.42326 1.473348-1.66445 3.30466.1142.275467-.48334 1.038476-.91775 1.317204-3.00262 1.928263-6.06445 3.764238-9.0736 5.682246-1.05479.672585-1.83084.638094-2.51788-.47449-1.87513-3.035256-3.84207-6.01784-5.60161-9.117883-.28991-.511313.02004-1.901695.4978-2.22284 3.341487-2.241482 6.800427-4.30911 10.49055-6.599532m-.252623 1.11119c-3.660763 2.28996-6.99339 4.3753-10.574916 6.61585 2.2014 3.61182 4.28021 7.02182 6.54826 10.74271 3.35034-2.1147 6.53475-4.11428 9.70098-6.14275.233517-.14962.474026-.50246.47822-.76394.050806-3.27856 2.804535-4.13805 4.93229-5.53729 1.48966-.97974 3.038516-1.8686 4.54915-2.81711 1.55958-.97928 2.85441-.59474 3.793603.85623 1.770254 2.73276 3.539576 5.4725 5.14856 8.30128 1.423473 2.5039.68377 5.36716-1.78051 6.91322-9.00136 5.64729-18.026952 11.25682-27.08471 16.81322-2.781695 1.70686-5.54288 1.0669-7.271653-1.67424-5.66826-8.98551-11.28712-18.00224-16.86962-27.04089-1.58521-2.56682-.94292-5.47669 1.647204-7.10479C24.566 21.10086 33.661974 15.4615 42.790574 9.87573c2.59199-1.586147 5.26182-.97835 6.93093 1.5083 1.9003 2.832036 3.62627 5.781527 5.43568 8.675087 1.08649 1.73716.6106 3.11356-1.01097 4.15576-2.15246 1.38432-4.386483 2.645593-6.50352 4.080254-1.98979 1.34843-3.80059 1.92127-5.35318-.6586" fill="#FFF"/>
  </g>
</svg>
