<svg width="80" height="80" xmlns="http://www.w3.org/2000/svg">
  <defs>
    <linearGradient x1="23.697496%" y1="13.207621%" x2="79.643536%" y2="87.730098%" id="a">
      <stop stop-color="#9D7533" offset="0%"/>
      <stop stop-color="#D6B964" offset="48.01698%"/>
      <stop stop-color="#9D7533" offset="100%"/>
    </linearGradient>
  </defs>
  <g fill="none" fill-rule="evenodd">
    <circle fill="#000" cx="40" cy="40" r="40"/>
    <path d="M57.725228 25.01232c-.122777-1.159459-.311227-2.319017-.572327-3.45516-.578904-2.518904-1.502519-4.91136-2.77842-7.167302-1.125817-1.990591-2.455034-3.829524-4.033092-5.482022-.651653-.682462-1.322739-1.358249-2.057306-1.946847-1.206938-.966747-2.421749-1.94047-3.725354-2.765822-2.129756-1.348185-4.438694-2.336953-6.863632-3.049409C35.465386.490798 33.18435.132378 30.872423.026157c-1.949876-.08958-3.893175.055501-5.829299.368284-2.783103.449495-5.417518 1.336826-7.94321 2.554975-1.894467.913737-3.63616 2.08316-5.279594 3.393282-.497086.396384-.691216.85086-.242264 1.45849.499477.676186 1.05526 1.313908 1.622505 1.935787.413374.453182.74822.466733 1.271117.103032.581993-.404854 1.132195-.855843 1.717677-1.255217 2.10514-1.435872 4.373518-2.516612 6.82925-3.229068 2.191842-.635928 4.417866-.950106 6.692324-.948113.660721.000597 1.327024.018533 1.980969.103928 1.223082.15973 2.455632.303018 3.654299.581822 2.288309.5322 4.444474 1.421424 6.470687 2.624129 1.869653 1.109836 3.550756 2.44168 5.056264 4.014562 1.713293 1.789808 3.096523 3.78857 4.205 6.004754 1.386918 2.772997 2.1461 5.70921 2.334251 8.77795.163337 2.66588-.119388 5.299075-.84937 7.89321-1.020482 3.626648-2.854856 6.783972-5.367293 9.543815-2.194134 2.410193-4.821673 4.254406-7.80668 5.589837-3.013808 1.348384-6.180289 2.00195-9.461674 2.06343-1.230756.023118-2.47068-.136412-3.69755-.286377-2.391952-.292256-4.65136-1.042377-6.825862-2.072996-1.724055-.817082-3.284674-1.883972-4.792873-3.037153-.686931-.525125-.979821-.528413-1.563509.115487-.520505.57425-1.00324 1.186263-1.464051 1.810036-.330261.447103-.367931 1.035302.242862 1.516882 2.020932 1.59321 4.191646 2.926748 6.556193 3.95378 3.594206 1.561124 7.34298 2.335658 11.264955 2.381992 1.186608-.08968 2.387069-.095658 3.556536-.288967 1.704622-.281894 3.411437-.611716 5.07221-1.08094 1.880316-.531203 3.675326-1.325964 5.360814-2.329182 1.06433-.633437 2.148292-1.255615 3.124426-2.010918 1.689574-1.307131 3.275406-2.751971 4.609406-4.42659.994271-1.248143 1.944196-2.547203 2.768155-3.91153 1.169567-1.936883 2.043054-4.022335 2.675075-6.203944.66431-2.292711 1.018787-4.637736 1.100206-7.01385.042255-1.233296-.058897-2.478548-.189147-3.708456M9.135677 40.03437c-1.420203-.048128-2.833031-.27163-4.085413-1.017865-.648464-.38622-1.189797-.88444-1.25577-1.729224-.042254-.542363.129653-1.062904.636107-1.272057.56844-.234562 1.177839-.432655 1.785344-.497822 1.509096-.161822 2.968464.158833 4.353587.737965 1.681602.70279 3.334004 1.47573 5.120842 2.272683-1.20624.647587-2.312625 1.1198-3.499134 1.302847-1.00623.155345-2.039367.23795-3.055563.203473m11.264955.501708c.164433-.11459.415866-.149865.625443-.146078.826251.014747 1.652004.089182 2.477856.087189 1.33968-.003388 2.585484-.354833 3.620017-1.236484.47556-.405054.968162-.839801 1.030646-1.631872-1.738206 1.375089-3.612144 1.759217-5.700742.952.218148-.34447.4351-.635132.598436-.953296 1.109076-2.160683 1.49046-4.446918 1.217502-6.861295-.289103-2.557765-1.277993-4.728413-3.254278-6.442192-2.19852-1.906491-4.749822-2.877623-7.628794-2.957438-1.26733-.035174-2.539643.11499-3.810062.174377-.30475.01425-.610694.002093-1.019484.002093.301958-1.06101.61767-1.997367.821766-2.957338.10713-.5038.31332-.614207.78888-.622477 2.233996-.038662 4.467594-.109708 6.700893-.18474 1.405952-.047232 2.709258-.407047 3.93214-1.152185 1.811454-1.103659 2.867114-2.591943 2.747427-4.77714-.01166-.213038-.092182-.42239-.160646-.719729-.219543.203374-.337436.347559-.486223.444612-.729086.475402-1.436148.99714-2.20709 1.393225-1.485577.763373-3.13788.710263-4.746333.79785-.870299.047331-1.74867-.048327-2.623254-.083103-.810107-.032185-1.620911-.055602-2.429722-.108712-.558972-.036669-1.114158-.13133-1.67303-.174477-.658032-.051018-1.318056-.099943-1.977382-.102633-.688825-.00279-1.33141.475302-1.51687 1.081338-.473666 1.547772-.94843 3.095345-1.408842 4.647103-.788282 2.656612-1.57776 5.312826-2.329866 7.979701-.07554.267644.009767.69183.189846.88743.162838.17687.582292.240442.844787.175873.473567-.116385.91644-.361011 1.36848-.5603 1.478203-.651373 3.026564-1.071572 4.633523-1.141223 2.029103-.087887 4.014058.251501 5.911217.993551 1.497536.585708 2.675773 1.555445 3.390408 3.029381.62664 1.292484.645275 2.644754.362152 4.015858-.185062.896199-.582392 1.704014-1.11685 2.47815-.995865-.640314-1.944494-1.291887-2.932088-1.877396-2.91186-1.726036-5.98865-2.825509-9.453701-2.404014-1.662368.202377-3.1319.768954-4.277949 2.051473-.799144.894306-1.16588 2.946577-.71035 4.02064.702378 1.656584 2.024718 2.729752 3.585934 3.38262 3.002846 1.255815 6.15976 1.603772 9.40487 1.154277 2.604917-.36081 5.03703-1.13963 7.211333-2.654619" transform="translate(11 12)" fill="url(#a)"/>
  </g>
</svg>
