<svg width="80" height="80" viewBox="0 0 80 80" xmlns="http://www.w3.org/2000/svg">
  <title>
    cnd-cindicator
  </title>
  <defs>
    <filter x="-37.2%" y="-30.2%" width="174.4%" height="160.4%" filterUnits="objectBoundingBox" id="a">
      <feMorphology radius=".15" operator="dilate" in="SourceAlpha" result="shadowSpreadOuter1"/>
      <feOffset in="shadowSpreadOuter1" result="shadowOffsetOuter1"/>
      <feMorphology radius="1" in="SourceAlpha" result="shadowInner"/>
      <feOffset in="shadowInner" result="shadowInner"/>
      <feComposite in="shadowOffsetOuter1" in2="shadowInner" operator="out" result="shadowOffsetOuter1"/>
      <feGaussianBlur stdDeviation="5" in="shadowOffsetOuter1" result="shadowBlurOuter1"/>
      <feColorMatrix values="0 0 0 0 0 0 0 0 0 0.928158967 0 0 0 0 1 0 0 0 1 0" in="shadowBlurOuter1" result="shadowMatrixOuter1"/>
      <feMerge>
        <feMergeNode in="shadowMatrixOuter1"/>
        <feMergeNode in="SourceGraphic"/>
      </feMerge>
    </filter>
  </defs>
  <g fill="none" fill-rule="evenodd">
    <circle fill="#110B17" cx="40" cy="40" r="40"/>
    <g filter="url(#a)" transform="translate(16 14)" stroke-width=".3" stroke="#FFF">
      <path d="M24.234188 49.030335l4.505767 2.301338-3.79242.419874zm2.096015-6.245648l-6.505508-5.305406 8.502588 1.33144zM9.59716 23.44134l-5.032855.34634 3.04932-5.56326z"/>
      <path d="M2.504332 17.261627l5.113164.963773L6.6042 15.571594zm5.192263-5.17231l-.342038-4.229374-.750357 7.71165z"/>
      <path d="M7.696595 12.089316l3.449898-1.470905-2.678013 4.1681-1.86428.78509zm-5.192262 5.17231l2.05731 6.53537 1.91629-4.607824z"/>
      <path d="M2.504333 17.261627l5.113163.963773-1.139564.963772z"/>
      <path d="M4.562612 23.790623L7.617496 18.2254l-1.139564.963772zm1.96273 10.005635l4.410703-4.830383 3.264606-.175008v4.45708zm0 0l7.23748 2.032697.43783-2.581008zM14.7737 44.476436l5.559215 2.103044 5.969712-3.814402-8.16466-2.836658z"/>
      <path d="M12.649383 45.995628l2.141007-1.540026 4.13591 3.464385-1.674393 2.682484zm2.07642-1.594195l4.200497 3.518554 1.410002-1.339526z"/>
      <path d="M24.234188 49.030335l-3.893774-2.456982-1.414114 1.346634 6.021234 3.83156zm-2.735583 1.186333l1.04716 2.224863-5.293858-1.83906z"/>
      <path d="M21.498605 50.216668l-2.572305-2.29668-1.674393 2.682483z"/>
      <path d="M21.498605 50.216668l-2.572305-2.29668 6.021235 3.831558z"/>
      <path d="M21.498605 50.216668l1.04716 2.224863 2.40298-.69341zM6.525343 33.796258l-3.54351.902005.43057.842688z"/>
      <path d="M6.525343 33.796258l-3.11802 1.741507 8.04444 4.037697 2.297755-3.754595z"/>
      <path d="M6.43826 43.82616l3.675828-3.26021-6.706764-5.030636z"/>
      <path d="M11.455634 39.575707l-1.341546.990244-6.706764-5.03063z"/>
      <path d="M11.455634 39.575707l-1.341546.990244 2.53457 5.44194z"/>
      <path d="M6.43826 43.82616l3.675828-3.26021 2.538923 5.427963zm28.471694 1.617726l-10.698504 3.62297 2.086097-6.308396zm0 0L32.95206 42.04274l-6.654513.71572zm0 0l-.594576 4.30364 8.3023-4.6164zm0 0L32.95206 42.04274l9.665617 3.088385z"/>
      <path d="M26.300208 42.764098l-2.088758 6.30276-3.881437-2.494486zm2.430796 8.567576l5.58534-1.585372-2.782268-.679445z"/>
      <path d="M34.909954 45.443886l-.59361 4.302416-2.782268-.679445zm0 0l-10.698505 3.62297h7.32262zm-6.17895 5.887788l-4.562612-2.264817h7.365684zm-2.4008-8.546987l-6.50551-5.305406-1.6831 2.44228z"/>
      <path d="M13.748067 35.821357l6.076628 1.657924-1.6831 2.44228z"/>
      <path d="M14.777327 44.469573l-1.029986-8.660226 4.39426 4.11221z"/>
      <path d="M14.777327 44.469573l-1.029986-8.660226-2.29581 3.765134zm0 0l-2.130847 1.533654-1.194958-6.428746 3.325805 4.8951zm0 0l-2.130847 1.533654-1.194958-6.428746 3.325805 4.8951zM2.981832 24.401927L.122882 26.64836l2.85895 8.049903 4.274032-6.358154z"/>
      <path d="M6.525343 33.796258l-3.54351.902005 4.27403-6.358154zm0 0l4.410702-4.830383-3.68018-.625766z"/>
      <path d="M2.981832 24.401927l7.96413 4.570076-3.690098-.631894z"/>
      <path d="M4.556806 23.785965l-1.574974.615962 7.96413 4.570076 3.043757-3.980587L9.5899 23.44183z"/>
      <path d="M2.981832 24.401927l1.57715-.615962L2.50627 17.26702zm23.34837 18.38276l1.99708-3.97397 5.861586-1.418695z"/>
      <path d="M34.179434 37.39717l-1.247208 4.665914-6.6296.700524zm-16.167737-6.104956l-.953548 3.052355-2.86089-5.55175z"/>
      <path d="M18.011697 31.292214L13.986333 24.9973l.210932 3.795528z"/>
      <path d="M10.939673 28.972983l3.04787-3.985243.209722 3.805088z"/>
      <path d="M14.78265 21.099315s-.386548 1.900092-.52201 2.567037c-.135702.666944-.271163 1.333643-.271163 1.333643l-4.414572-1.556693 5.207744-2.343987z"/>
      <path d="M14.78265 21.10299s-.386548 1.900094-.52201 2.566793c-.135702.666945-.276726 1.33879-.276726 1.33879l3.40176-4.085247-2.603025.179665zm0 0l.70875-2.722436 1.894274 2.542772z"/>
      <path d="M14.78265 21.10299l.70875-2.722436-5.895692 5.062748z"/>
      <path d="M9.404853 22.38418l7.183054-9.445313-1.096507 5.441687-5.895692 5.062748z"/>
      <path d="M17.735212 13.994556l-1.16956-.966224-1.074252 5.352222 1.883147 2.578313z"/>
      <path d="M17.735212 13.994556l4.85724-2.748174-6.0268 1.78195zM14.197265 33.24623l2.860884 1.09834-2.86089-5.551742z"/>
      <path d="M14.197265 33.24623l2.860884 1.09834-3.29848 1.482915zm5.618722 4.240404L17.05815 34.34457l-3.298472 1.482915zm-8.532824-22.710667l5.289746-1.731948-7.16371 9.34065z"/>
      <path d="M11.283163 14.775967H8.476705l.932502 7.608704z"/>
      <path d="M6.598153 15.575025l1.878552-.799058 1.11465 8.660717zm1.09312-3.479335l7.52364-3.216335-.775512-1.832442zm3.59189 2.680277H8.476705l2.669304-4.156576z"/>
      <path d="M11.283163 14.775967l5.286602-1.718957-5.428594-2.44056z"/>
      <path d="M15.191934 8.865384l1.37783 4.191626-5.43343-2.439335zm0 0l-.750598-1.811853 2.57279-5.78606z"/>
      <path d="M7.353347 7.869257l7.085086-.810334 2.573757-5.78337z"/>
      <path d="M7.691274 12.09569l1.910724-2.441297 4.837403-2.60748z"/>
      <path d="M14.441337 7.055982L9.599095 9.654638l-2.24865-1.786852z"/>
      <path d="M7.69587 12.11922l1.903225-2.464582-2.24623-1.787342zm27.571604-7.752585l-8.74158.65665 6.25273 4.15633z"/>
      <path d="M35.57081 1.607922l-.303336 2.758713-8.74158.65665-2.47724-2.51581z"/>
      <path d="M35.571294 1.60743L28.4446.0652l-4.395945 2.442275zm3.43635 11.20349l-1.66665-4.027648-5.416984 5.633363zm-6.232408-3.641355L26.53533 5.020343l-.622395 4.930633 4.50988.797833z"/>
      <path d="M31.918447 14.423744l5.42303-5.62356-.203917-5.39242z"/>
      <path d="M31.918447 14.423744l.855096-5.252708 2.49248-4.812244 1.871537-.951027z"/>
      <path d="M32.775237 9.169566l-2.352423 1.579244 1.499987 3.67714zm-10.175287 2.08515L19.054746 9.1828l6.860366.76548z"/>
      <path d="M22.59995 11.254716L19.054746 9.1828l-2.48111 3.849454z"/>
      <path d="M16.564927 13.045245l2.48982-3.862444-1.025392-2.75405-2.851935 2.41678zm22.442718-.234325l-1.67149-4.037697 2.80259 2.350604z"/>
      <path d="M40.135357 11.126033l-2.79388-2.343006 4.409976-.41399z"/>
      <path d="M39.04804 3.971273l-1.70729 4.814205-.20319-5.377713z"/>
      <path d="M39.045864 3.97397l-1.7085 4.812734 4.41409-.417668zm.002176-.002697l-3.483036-2.367028L37.13756 3.40801z"/>
      <path d="M35.267474 4.366635l.301642-2.758958 1.568444 1.800087zM23.149292 5.550762l2.76824 4.403156-6.861818-.76842-1.0266-2.75332z"/>
      <path d="M23.149292 5.550762l2.767997 4.4034.6207-4.93578-2.48595-2.511887z"/>
      <path d="M23.149292 5.550762l-5.123807.883866.833568-2.444972 5.19299-1.48316z"/>
      <path d="M17.011706 1.274082l1.847347 2.715574 5.19299-1.48316zm-.000484 0l1.84783 2.715574-.848322 2.51826zm-.000242-.000736L15.186613 8.84798l2.824117-2.340064zm23.43642 35.39266l2.171728 8.468306-6.418183-5.061277-.203675-4.021765z"/>
      <path d="M34.179434 37.39717l-1.247208 4.665914 3.26872-1.99005-.203676-4.021764z"/>
      <path d="M32.94166 42.048867l9.677468 3.085445-6.418183-5.061277zm7.50574-5.38286l-4.18574-1.62949-.26439 1.014753zm-6.267966.731163l2.08271-2.36384-.264874 1.01794z"/>
      <path d="M31.924736 14.411978l7.082667-1.599097 2.74405-4.45487-2.710185-4.3833-3.46804-2.36188L28.446296.06422l-4.394253 2.44154-7.034047-1.234374-9.65739 6.596155-.753018 7.70357L2.510623 17.256l.47266 7.147408-2.860158 2.2457 2.857498 8.045245.430572.84318L6.43536 43.8171l6.211842 2.171184 4.6047 4.617136 5.295794 1.82852 2.395722-.68165 3.802337-.43115 5.56986-1.574096 8.304236-4.620813-2.17269-8.463642-4.18066-1.62361-2.082953 2.350605-5.85457 1.417227-8.519036-1.3307-2.749854-3.133244.958385-3.06608-4.028265-6.28217 3.38749-4.07373.36042-6.925582 4.848532-2.74425L25.9139 9.94069l4.51375.805434z"/>
    </g>
  </g>
</svg>
