<svg width="80" height="80" viewBox="0 0 80 80" xmlns="http://www.w3.org/2000/svg">
  <title>
    cnx-cryptonex
  </title>
  <defs>
    <linearGradient x1="100.379319%" y1="7.421866%" x2="-65.409926%" y2="99.072463%" id="a">
      <stop stop-color="#314477" offset="0%"/>
      <stop stop-color="#228CC1" offset="100%"/>
    </linearGradient>
    <linearGradient x1="118882%" y1="185227.058%" x2="7837%" y2="10263.4262%" id="b">
      <stop stop-color="#314477" offset="0%"/>
      <stop stop-color="#228CC1" offset="100%"/>
    </linearGradient>
    <linearGradient x1="20407.2653%" y1="109016%" x2="167584.648%" y2="15604%" id="c">
      <stop stop-color="#314477" offset="0%"/>
      <stop stop-color="#228CC1" offset="100%"/>
    </linearGradient>
    <linearGradient x1="141012%" y1="18099.4483%" x2="233347%" y2="163558.106%" id="d">
      <stop stop-color="#314477" offset="0%"/>
      <stop stop-color="#228CC1" offset="100%"/>
    </linearGradient>
    <linearGradient x1="45.690511%" y1="4.285218%" x2="69.827775%" y2="562.578806%" id="e">
      <stop stop-color="#228CC1" offset="0%"/>
      <stop stop-color="#314477" offset="100%"/>
    </linearGradient>
    <linearGradient x1="83825%" y1="105873.874%" x2="389340%" y2="96549.9587%" id="f">
      <stop stop-color="#228CC1" offset="0%"/>
      <stop stop-color="#314477" offset="100%"/>
    </linearGradient>
    <linearGradient x1="107030.81%" y1="163471%" x2="97720.0921%" y2="-142044%" id="g">
      <stop stop-color="#228CC1" offset="0%"/>
      <stop stop-color="#314477" offset="100%"/>
    </linearGradient>
    <linearGradient x1="166297%" y1="17661.7736%" x2="-139218%" y2="26971.993%" id="h">
      <stop stop-color="#228CC1" offset="0%"/>
      <stop stop-color="#314477" offset="100%"/>
    </linearGradient>
  </defs>
  <g fill="none" fill-rule="evenodd">
    <circle fill="#FFF" cx="40" cy="40" r="40"/>
    <g transform="translate(9 9)" fill-rule="nonzero">
      <path d="M58.17171 31.24935c0 7.964462-3.441966 15.533764-9.445211 20.765374-6.003246 5.23161-13.971807 7.58981-21.846947 6.47436l3.817386-27.239733" fill="url(#a)"/>
      <path d="M30.47243 58.847229c-7.891247 0-15.390967-3.473901-20.574484-9.532594-5.183518-6.058693-7.516075-14.101686-6.413853-22.049641l26.989328 3.851553v27.730682h-.00099z" fill="url(#b)"/>
      <path d="M3.821599 30.755401c0-7.964461 3.441966-15.534013 9.444964-20.765373 6.002997-5.23136 13.972054-7.59006 21.846946-6.47461L31.297362 30.7554" fill="url(#c)"/>
      <path d="M31.520632 3.157273c7.891247 0 15.391215 3.4739 20.574484 9.532844 5.18327 6.058943 7.520288 14.101436 6.415092 22.049641l-26.989576-3.851553V3.157273z" fill="url(#d)"/>
      <ellipse fill="#FFF" cx="30.978193" cy="31.302872" rx="15.542126" ry="15.686325"/>
      <path d="M18.878281 31.09704c-2.190072-1.473595-3.776499-3.399872-6.154156-10.248884-2.451008.39491-9.820136 3.851554-12.230504 12.138145l3.572558-.115296 11.22319-1.621654 3.588912-.152312" fill="#000"/>
      <path d="M19.218265 32.187979c-3.160711-1.81098-4.938689-4.001613-6.93721-11.701718C9.71606 20.902428 2.53427 25.528794.009912 34.172529l3.739576-.115296 11.724988-1.695934" fill="url(#e)" transform="translate(.014868 .019758)"/>
      <path d="M30.884524 42.70422c-1.460048 2.21039-3.368617 3.811536-10.153429 6.210254.391279 2.473747 3.816147 9.911496 12.026563 12.343977l-.114237-3.605454-1.606746-11.327567-.150912-3.62196" fill="#000"/>
      <path d="M31.766699 42.573417c-1.794333 3.189786-3.964828 4.98451-11.594149 7.001323.411846 2.584792 4.995683 9.833215 13.55996 12.384994l-.114237-3.774272-1.685052-11.837773" fill="url(#f)" transform="translate(.014868 .019758)"/>
      <path d="M42.983693 30.907213c2.190072 1.473344 3.776499 3.39987 6.153909 10.248882 2.451007-.39516 9.820383-3.851553 12.230751-12.138144l-3.572558.115046-11.22319 1.621904-3.588912.152312z" fill="#000"/>
      <path d="M42.745803 29.772505c3.160464 1.81098 4.93869 4.001614 6.936963 11.701719 2.561031-.415668 9.742821-5.042034 12.27139-13.685769l-3.739823.115296-11.728953 1.700686" fill="url(#g)" transform="translate(.014868 .019758)"/>
      <path d="M31.276051 19.279774c1.4598-2.210141 3.368617-3.811287 10.154668-6.211004-.391527-2.473748-3.816147-9.911497-12.026562-12.343978l.113988 3.605704 1.606995 11.327318.150911 3.62196" fill="#000"/>
      <path d="M30.196627 19.39182c1.79458-3.190037 3.964828-4.98451 11.594396-7.001324-.411846-2.585042-4.995931-9.833215-13.55996-12.385244l.113989 3.774522 1.685052 11.837523.167266 3.774522" fill="url(#h)" transform="translate(.014868 .019758)"/>
    </g>
  </g>
</svg>
