<svg width="80" height="80" viewBox="0 0 80 80" xmlns="http://www.w3.org/2000/svg">
  <title>
    cob-cobinhood
  </title>
  <g fill="none" fill-rule="evenodd">
    <circle fill="#222D34" cx="40" cy="40" r="40"/>
    <g fill-rule="nonzero">
      <path fill="#13BF99" d="M23.913174 41.689635H10.02515l6.943832 11.98731"/>
      <path fill="#71D9C2" d="M30.856647 53.677304H16.96934l6.943834 11.98731"/>
      <path fill="#42CCAD" d="M16.96934 53.677304h13.886947l-6.943473-11.98731"/>
      <path fill="#13BF99" d="M32.93976 54.87625l-6.943473 11.98731h13.886947"/>
      <path fill="#76C5B4" d="M46.827066 54.87625l-6.943833 11.98731H53.77054"/>
      <path fill="#42CCAD" d="M39.883234 66.86392l6.94419-11.98767H32.93976"/>
      <path fill="#13BF99" d="M48.91018 53.677662l6.943473 11.98731 6.943832-11.98731"/>
      <path fill="#71D9C2" d="M55.854012 41.689635l6.943473 11.98731 6.943832-11.98731"/>
      <path fill="#42CCAD" d="M62.797485 53.677304l-6.943473-11.98731-6.943832 11.98731"/>
      <path fill="#13BF99" d="M55.854012 39.29067h13.887305l-6.943832-11.987312"/>
      <path fill="#71D9C2" d="M48.91018 27.303h13.887305l-6.943832-11.98731"/>
      <path fill="#42CCAD" d="M62.797485 27.303H48.91018l6.943832 11.98731"/>
      <path fill="#13BF99" d="M46.827066 26.10477l6.943473-11.988027H39.88323"/>
      <path fill="#71D9C2" d="M32.93976 26.10477l6.943473-11.988027H25.996288"/>
      <path fill="#42CCAD" d="M39.883234 14.116743l-6.943114 11.98731h13.887664"/>
      <path fill="#13BF99" d="M30.856647 27.303l-6.943473-11.98731L16.96934 27.303"/>
      <path fill="#71D9C2" d="M23.913174 39.29067L16.96934 27.303357l-6.94383 11.98731"/>
      <path fill="#42CCAD" d="M16.96934 27.303l6.943474 11.98731L30.856647 27.303"/>
      <path fill="#13BF99" d="M23.913174 41.689635H10.02515l6.943832 11.98731"/>
      <path fill="#71D9C2" d="M30.856647 53.677304H16.96934l6.943834 11.98731"/>
      <path fill="#42CCAD" d="M16.96934 53.677304h13.886947l-6.943473-11.98731"/>
      <path fill="#13BF99" d="M32.93976 54.87625l-6.943473 11.98731h13.886947"/>
      <path fill="#76C5B4" d="M46.827066 54.87625l-6.943833 11.98731H53.77054"/>
      <path fill="#42CCAD" d="M39.883234 66.86392l6.94419-11.98767H32.93976"/>
      <path fill="#13BF99" d="M48.91018 53.677662l6.943473 11.98731 6.943832-11.98731"/>
      <path fill="#71D9C2" d="M55.854012 41.689635l6.943473 11.98731 6.943832-11.98731"/>
      <path fill="#42CCAD" d="M62.797485 53.677304l-6.943473-11.98731-6.943832 11.98731"/>
      <path fill="#13BF99" d="M55.854012 39.29067h13.887305l-6.943832-11.987312"/>
      <path fill="#71D9C2" d="M48.91018 27.303h13.887305l-6.943832-11.98731"/>
      <path fill="#42CCAD" d="M62.797485 27.303H48.91018l6.943832 11.98731"/>
      <path fill="#13BF99" d="M46.827066 26.10477l6.943473-11.988027H39.88323"/>
      <path fill="#71D9C2" d="M32.93976 26.10477l6.943473-11.988027H25.996288"/>
      <path fill="#42CCAD" d="M39.883234 14.116743l-6.943114 11.98731h13.887664"/>
      <path fill="#13BF99" d="M30.856647 27.303l-6.943473-11.98731L16.96934 27.303"/>
      <path fill="#71D9C2" d="M23.913174 39.29067L16.96934 27.303357l-6.94383 11.98731"/>
      <path fill="#42CCAD" d="M16.96934 27.303l6.943474 11.98731L30.856647 27.303"/>
    </g>
  </g>
</svg>
