<svg width="80" height="80" xmlns="http://www.w3.org/2000/svg" xmlns:xlink="http://www.w3.org/1999/xlink"><defs><path id="a" d="M.176.133h11.966V14.63H.176z"/><path id="c" d="M0 .143h11.68V14.6H0z"/><path id="e" d="M.013.008h1.916v14.14H.013z"/></defs><g fill="none" fill-rule="evenodd"><circle fill="#FFF" cx="40" cy="40" r="40"/><g transform="translate(43.191 33.232)"><mask id="b" fill="#fff"><use xlink:href="#a"/></mask><path d="M2.367 3.906v5.66l3.35.323v1.539c-1.185.458-3.688.483-5.31.052C.144 7.795.063 4.088.395.418c1.247-.5 1.852-.36 2.535.562 2.173 2.928 4.338 5.863 6.51 8.793.172.233.367.448.709.6l.19-9.744c.647-.523 1.185-.393 1.803-.136v13.854l-1.668.283L2.56 3.795l-.193.11z" fill="#10ABFD" mask="url(#b)"/></g><path d="M30.238 45.638c2.662.163 5.25-2.228 5.264-5.21.014-2.998-2.454-5.402-5.239-5.374-3.006.03-5.166 2.575-5.204 5.19-.043 3.004 2.606 5.557 5.18 5.394m.127-12.433c3.636-.295 7.127 2.998 7.077 7.286-.051 4.448-3.869 7.295-7.398 7.172-3.693-.13-7.035-3.413-6.945-7.557.072-3.287 2.913-7.232 7.266-6.901" fill="#10ABFD"/><g transform="translate(10 33.047)"><mask id="d" fill="#fff"><use xlink:href="#c"/></mask><path d="M10.858 11.383l.798 1.389c-1.349 1.93-5.905 2.807-8.997.225C-.405 10.439-.868 5.859 1.516 2.732 4.076-.626 9.442-.461 11.68 1.759l-.717 1.473c-.514-.206-.932-.347-1.328-.536-2.52-1.204-5.439-.4-6.886 1.962-1.03 1.68-1.075 3.469-.163 5.195.9 1.707 2.36 2.583 4.311 2.591 1 .005 1.918-.242 2.82-.637.327-.143.67-.25 1.14-.424" fill="#10ABFD" mask="url(#d)"/></g><path d="M57.073 33.75c1.202-.453 7.517-.45 9.578-.004v1.696l-7.59.21v3.824l5.356.156v1.76c-1.782.549-3.565.122-5.36.394l-.199 5.704c-.406.124-.708.277-1.018.297-.446.03-.755-.205-.797-.697-.064-.736-.17-1.473-.174-2.21-.016-2.652-.014-5.305.017-7.958.012-1.045.12-2.088.187-3.172M38.84 33.877c.59-.63 1.186-.49 1.88-.151v13.763c-.617.285-1.221.526-1.88-.125V33.877z" fill="#10ABFD"/><g transform="translate(67.994 33.603)"><mask id="f" fill="#fff"><use xlink:href="#e"/></mask><path d="M.24.008h1.69v13.836c-.74.395-.74.395-1.69.062C-.08 9.35-.045 4.772.24.008" fill="#10ABFD" mask="url(#f)"/></g><path d="M43.536 47.571l-.112-1.709h7.167v1.67c-2.374.428-4.625.301-7.055.039" fill="#10ABFD"/></g></svg>