<svg width="80" height="80" xmlns="http://www.w3.org/2000/svg" xmlns:xlink="http://www.w3.org/1999/xlink">
  <defs>
    <path id="a" d="M0 .137015h49.84881v48.692829H0z"/>
    <linearGradient x1="50%" y1="0%" x2="50%" y2="100%" id="b">
      <stop stop-color="#63D097" offset="0%"/>
      <stop stop-color="#5ED45F" offset="100%"/>
    </linearGradient>
  </defs>
  <g fill="none" fill-rule="evenodd">
    <circle fill="#061421" cx="40" cy="40" r="40"/>
    <g transform="translate(15 16.033177)">
      <mask id="c" fill="#fff">
        <use xlink:href="#a"/>
      </mask>
      <path d="M30.36051 42.993383v-.006125c2.804762 0 5.609864.022458 8.414116-.021948.464966-.007316 1.035034-.185962 1.367857-.491361 1.12517-1.032233 2.189286-2.135243 3.221939-3.261223.27755-.302507.507993-.782298.510544-1.182295.035374-5.385066.034184-10.770302.011054-16.155368-.00153-.358993-.160204-.803055-.40204-1.060646-1.04694-1.11458-2.119218-2.211125-3.255273-3.232809-.359864-.323604-.945408-.553632-1.429591-.557205-5.637585-.040322-11.27568-.033347-16.913606-.020927-.35238.000851-.811564.038452-1.038945.252657-1.29864 1.222107-2.57517 2.471948-3.787755 3.778955-.49813.536958-.265477 1.815722.258503 1.830524 1.642687.046107 3.413775.590212 4.693537-1.107604.277381-.36801.879932-.682768 1.339116-.691785 4.586905-.090344 9.17517-.120118 13.763095-.14717 1.393027-.008167 2.546939 1.18876 2.54796 2.587812.00306 4.279844.00323 8.559688.00153 12.839361-.00068 1.557622-1.064286 2.601764-2.652891 2.602275-4.362925.00102-8.72619-.02297-13.088776.014291-.866496.007486-1.561394-.181708-2.068367-.885913-.682653-.948524-1.62449-1.241673-2.739796-1.15082-.281462.02297-.580272-.053253-.846599.013442-.457313.114503-1.116836.180347-1.293367.492041-.32398.572177-.177721 1.259198.358333 1.780504 1.096089 1.06626 2.1483 2.18033 3.287075 3.19793.358674.320372.932994.549039 1.413436.558056 2.77551.051892 5.55255.02535 8.328911.02535zm-10.941156-11.02483v-.004934c2.492857 0 4.986734-.042875 7.478061.018715 1.185544.029434 2.181463-.09885 3.002721-1.111858.815476-1.006201 1.821259-1.855705 2.707653-2.807121.610034-.654524.511905-1.72606-.12755-1.974122-1.193538-.462948-3.62177.022288-4.457654.981191-.64932.745038-1.370408 1.012667-2.366497.999566-4.220068-.055295-8.441326-.02382-12.662244-.02467-1.964796-.00034-2.942687-1.035635-2.820579-2.975219.019558-.310673.015477-.623389.012245-.934913-.039796-3.762962-.088435-7.525583-.119218-11.288545-.013435-1.637076 1.169728-2.826347 2.783504-2.827708 4.362585-.003743 8.72517.009187 13.087585-.016334.732823-.004253 1.336395.142917 1.792007.740615.806462 1.057924 1.856803 1.504538 3.186905 1.296458.331972-.051892.678911.00017 1.018537-.01208.853061-.030625 1.169048-.33092 1.02364-1.157114-.07211-.409184-.336735-.836403-.629933-1.145545-.955102-1.006542-1.989285-1.938052-2.941496-2.946976-.529932-.561628-1.136395-.811222-1.880272-.811562-5.495578-.003233-10.991327-.025351-16.486735.019395-.528912.004254-1.154762.309993-1.562415.671368-1.079082.957032-2.095068 1.992327-3.066667 3.059948-.309864.340448-.564796.878938-.567857 1.328785-.037245 5.32756-.034183 10.655628.002381 15.983358.002891.426878.234354.939847.52653 1.260899.933334 1.025597 1.90017 2.032139 2.94847 2.936427.4483.386726 1.12483.694337 1.706123.70931 2.80272.072308 5.608163.032666 8.412755.032666zM30.40864 48.818087c-2.862245 0-5.72483-.029433-8.586565.01072-1.841667.02586-3.483674-.42841-4.820068-1.731845-1.460204-1.424062-2.916327-2.85391-4.32534-4.328163-1.120579-1.172427-1.637925-2.640215-1.742007-4.241732-.035714-.548528-.262075-.745038-.783844-.744868-1.936224.00102-3.471598-.84491-4.780102-2.22797-1.129762-1.193523-2.318027-2.331412-3.47789-3.496353-1.261395-1.267025-1.89728-2.790789-1.892858-4.584903.013095-5.301528.046429-10.603226.017177-15.904583-.013946-2.519928.72347-4.653129 2.653571-6.35775 1.081293-.95516 2.056803-2.030268 3.076871-3.054334C7.075476.823098 8.688912.154792 10.55915.15054 16.595374.136928 22.631599.129442 28.667653.148497c1.655272.005104 3.109014.644997 4.302721 1.773188 1.379592 1.303774 2.720748 2.651104 4.032993 4.023104 1.17313 1.226871 1.854422 2.703847 1.938436 4.420889.02398.488128.145748.82024.72619.810541 1.9233-.031986 3.414116.89459 4.715136 2.195643 1.281633 1.281656 2.555783 2.571479 3.802721 3.886823 1.10136 1.161538 1.641837 2.588663 1.64864 4.172996.02466 5.641636.009353 11.283441.012415 16.925417.00119 2.408656-1.254932 4.158705-2.929592 5.714115-1.037925.963836-2.018367 1.989263-3.036905 2.974368-1.217177 1.17736-2.681292 1.772506-4.375 1.77591-3.032143.005954-6.064456.0017-9.096769.0017v-.005104z" fill="url(#b)" mask="url(#c)"/>
    </g>
  </g>
</svg>
