<svg width="80" height="80" viewBox="0 0 80 80" xmlns="http://www.w3.org/2000/svg" xmlns:xlink="http://www.w3.org/1999/xlink">
  <title>
    coss-coss
  </title>
  <defs>
    <path id="a" d="M5.964593.105294V5.91932H.12103V.105295h5.843563z"/>
    <path id="c" d="M4.094348 4.109005H.136025V.116355h3.958323v3.99265z"/>
  </defs>
  <g fill="none" fill-rule="evenodd">
    <circle fill="#181A1F" cx="40" cy="40" r="40"/>
    <path d="M41.404302 58.112717c-2.419445-.02393-4.635945-2.033232-4.619093-4.699976.01709-2.69284 2.08144-4.69514 4.66387-4.70601 2.70207-.01136 4.71466 2.25947 4.70407 4.74614-.01108 2.48087-2.18858 4.70095-4.74885 4.65986" fill="#1991A4"/>
    <path d="M47.837304 47.795465c-.148778-2.178014 1.8785-3.810256 3.699944-3.80929 2.08939.00121 3.819593 1.593812 3.84174 3.777385.02215 2.168346-1.712388 3.826934-3.84535 3.836602-1.83902.008218-3.852575-1.6888-3.696334-3.804697m13.49253-6.552267c-.01998 1.802645-1.43674 3.37011-3.35761 3.342796-1.835407-.026104-3.310907-1.429208-3.33715-3.315725-.024554-1.76349 1.499817-3.40637 3.406243-3.36625 1.675555.03504 3.32174 1.42896 3.288518 3.33917" fill="#1990A4"/>
    <g transform="translate(58.98 31.17)">
      <mask id="b" fill="#fff">
        <use xlink:href="#a"/>
      </mask>
      <path d="M3.04094 5.910948C1.22118 5.875418.149645 4.518238.12148 3.023043.09283 1.4899 1.439774.14819 2.94994.106375 4.625497.059967 5.9397 1.514797 5.964497 3.024977c.02552 1.563597-1.57348 3.018185-2.923555 2.88597" fill="#1990A3" mask="url(#b)"/>
    </g>
    <path d="M64.698328 27.341686c.08763 1.267265-1.16687 2.518578-2.426185 2.467578-1.33563-.0539-2.475778-1.01154-2.467593-2.50021.007704-1.431382 1.227056-2.494164 2.442315-2.47507 1.438907.02248 2.517907 1.163816 2.451463 2.507702" fill="#198FA3"/>
    <path d="M61.812256 21.135445c-.07439 1.24938-.78337 1.95347-1.99839 2.02864-1.022907.063327-2.029444-.99728-1.988277-2.04411.04357-1.09662.78962-2.00882 2.02848-1.98924 1.14255.017885 1.91702.847663 1.95818 2.00471" fill="#198FA2"/>
    <path d="M55.063522 18.95939c-.923722-.000485-1.55374-.625537-1.548926-1.536044.004815-.888028.681537-1.594777 1.530148-1.57979.79613.014017 1.591778.57961 1.596834 1.590183.00361.75726-.80239 1.68372-1.578056 1.52565" fill="#1A8C9F"/>
    <path d="M50.597348 17.264255c-.574407-.009185-1.061907-.53973-1.050592-1.143754.011314-.62263.534925-1.13094 1.15411-1.1203.538297.00919 1.092482.58711 1.091038 1.13771-.002167.67146-.496167 1.13747-1.194556 1.12635m-3.334163-.66621c-.33174-.00531-.612926-.31156-.606667-.6601.00674-.35917.309112-.65284.66637-.64656.310556.00532.6305.33888.629538.65672-.001204.38746-.28624.65624-.68924.64995" fill="#1A8B9E"/>
    <path d="M25.08976 36.586342c-2.322186.028522-4.63739-1.883616-4.651112-4.68644-.01276-2.566195 2.09661-4.67363 4.661704-4.682816 2.592537-.009185 4.700944 2.094384 4.6735 4.72294-.02937 2.806932-2.354445 4.70771-4.684093 4.646316" fill="#D0D0D0"/>
    <path d="M24.85292 47.26509c-2.084576.084113-3.745205-1.840834-3.731-3.75829.015165-2.056677 1.694813-3.82379 3.782758-3.802037 2.085296.021995 3.768796 1.654236 3.759166 3.823066-.010833 2.37621-2.06363 3.87672-3.810925 3.73726m5.8309 5.09139c-.06211 1.90875-1.42398 3.35875-3.31741 3.35681-1.97673-.00194-3.30032-1.35332-3.35617-3.24152-.05995-2.02091 1.41194-3.40299 3.27142-3.44625 1.88861-.04375 3.32703 1.43428 3.40214 3.33095m.782406 4.17533c1.581187.00821 2.835447 1.28732 2.83111 2.88766-.00433 1.63127-1.31637 2.89008-2.989515 2.86808-1.49139-.01934-2.757446-1.32335-2.767557-2.84537-.01156-1.74705 1.41941-2.99498 2.92596-2.910387" fill="#CFCFCF"/>
    <path d="M39.64906 63.03499c-.00024 1.35573-1.09224 2.44655-2.44713 2.44389-1.340684-.002416-2.44111-1.112814-2.436776-2.458875.004333-1.33857 1.117277-2.449692 2.449055-2.445583 1.34164.00411 2.43485 1.10919 2.43485 2.46057" fill="#CCCCCD"/>
    <g transform="translate(41.648 61.866)">
      <mask id="d" fill="#fff">
        <use xlink:href="#c"/>
      </mask>
      <path d="M2.055878 4.108545C.957378 4.085585.093358 3.18257.137656 2.073863.18797.810465 1.084006.08728 2.142304.117253 3.310137.150606 4.07184.931317 4.09399 2.132113c.021184 1.136503-.897483 2.00036-2.038112 1.976432" fill="#CDCDCD" mask="url(#d)"/>
    </g>
    <path d="M47.811207 61.70962c-.00987-.95184.788667-1.541603 1.506556-1.5665.836333-.029245 1.57902.716177 1.597796 1.55659.01805.819383-.74847 1.570847-1.58649 1.556103-.84356-.015227-1.51619-.700223-1.51787-1.546194" fill="#CBCBCC"/>
    <path d="M53.722982 58.587404c-.025038.576227-.52915 1.060848-1.09152 1.049488-.5915-.012085-1.14087-.602574-1.109814-1.192578.031296-.585896.55539-1.03837 1.181315-1.019275.599204.01812 1.047704.52933 1.02002 1.16236" fill="#C8C8C9"/>
    <path d="M55.157796 55.651737c.00313.334038-.30526.687413-.612926.702882-.31248.01595-.720055-.36691-.71789-.67412.00241-.37924.31489-.6879.688038-.67944.352926.00749.63965.29802.642778.65067" fill="#BFBFC0"/>
    <path d="M52.544435 24.762343c2.500334-.1472 4.691315 2.17463 4.71274 4.607402.021427 2.456944-2.091555 4.708436-4.606092 4.73865-2.506352.02973-4.768833-1.987067-4.755352-4.69466.01349-2.685113 2.1556-4.723662 4.64871-4.651392" fill="#DD2031"/>
    <path d="M46.65192 23.11207c.11411 2.0852-1.877055 3.781976-3.78348 3.746204-2.055927-.038674-3.784927-1.722882-3.752427-3.802764.036593-2.324488 1.849852-3.822583 3.837407-3.796962 1.971426.02562 3.800574 1.65182 3.6985 3.853522" fill="#DC2031"/>
    <path d="M34.100156 23.785246c-1.7745.007976-3.327037-1.46063-3.303686-3.334095.02576-2.04749 1.541223-3.3805 3.39926-3.37228 1.773296.00822 3.281296 1.42655 3.275277 3.37664-.00626 2.10309-1.768722 3.38099-3.37085 3.32975m-10.922553-3.60329c-.134574-1.67164 1.441314-2.92609 2.860722-2.9128 1.617296.01523 2.900204 1.41447 2.899 2.9215-.000963 1.31005-1.1505 2.87461-2.877333 2.88477-1.594667.00943-3.013112-1.4077-2.88239-2.89346" fill="#DB2030"/>
    <path d="M22.32396 23.181464c.124946 1.291194-1.253777 2.522203-2.48011 2.44244-1.31324-.08508-2.47337-1.163815-2.391037-2.4932.082333-1.33059.83874-2.322795 2.40524-2.418752 1.340445-.08218 2.471927 1.101455 2.465908 2.469512" fill="#DA2030"/>
    <path d="M15.55994 30.218086c-1.058296-.010152-1.935555-.69007-1.95048-1.993593-.013723-1.21433.992814-2.016554 2.04076-1.993592 1.059017.02321 2.001276.98882 1.964924 2.02864-.044777 1.27887-1.028444 2.00278-2.055203 1.95855" fill="#D92030"/>
    <path d="M16.082083 34.218154c-.005055.873042-.645426 1.55417-1.50174 1.531933-1.053482-.027312-1.522445-.620218-1.577815-1.536526-.049352-.81382.626648-1.58945 1.543148-1.5735.868833.01523 1.541222.69539 1.536407 1.5781" fill="#D71F30"/>
    <path d="M14.400437 38.724402c-.004574-.62191.462704-1.105805 1.057815-1.132876.70898-.031906 1.10861.450298 1.168555 1.164057.042612.505407-.602092 1.094203-1.145203 1.093478-.585723-.00072-1.076593-.5112-1.081167-1.12465" fill="#D42030"/>
    <path d="M17.588254 41.83202c-.01637.373676-.358704.699254-.707297.672425-.339926-.026104-.687555-.41646-.66011-.74107.028407-.33404.35076-.624328.694536-.625778.366167-.00121.68876.331862.67287.694422" fill="#CC1F2F"/>
  </g>
</svg>
