<svg width="80" height="80" viewBox="0 0 80 80" xmlns="http://www.w3.org/2000/svg">
  <title>
    cov-covesting
  </title>
  <g fill="none" fill-rule="evenodd">
    <circle fill="#FFF" cx="40" cy="40" r="40"/>
    <g fill="#0D7AC3" fill-rule="nonzero">
      <path d="M60.377415 36.64014c-.461497-3.2-1.66585-6.29632-3.489388-8.955368-.371428-.54105-.776735-1.070553-1.204354-1.57703-.697959-.840292-1.474693-1.623067-2.296462-2.348132-.495102-.437467-1.012925-.840292-1.54204-1.22023-2.600273-1.864709-5.628164-3.096332-8.757416-3.568362-.63034-.092037-1.283265-.161064-1.947347-.195635-.371428-.023066-.742857-.034513-1.091837-.034513-.7317 0-1.452108.034513-2.161224.11516-.641633.069027-1.294422.172625-1.936055.299176-2.994258.621531-5.86457 1.95692-8.30721 3.844585-.517796.40295-1.013075.828842-1.497116 1.277746-.799157.759764-1.542123 1.577044-2.206218 2.428717-.393986.518108-.787959 1.059172-1.148136 1.634574-1.598435 2.532494-2.634008 5.318024-3.06174 8.299311-.090057.644591-.157558 1.31214-.191365 1.991374-.0225.368417-.0225.748243-.0225 1.105113 0 .748244.03375 1.48494.112558 2.209948.067557.656278.168865 1.323826.292673 1.979826.562846 2.831722 1.677177 5.479235 3.309354 7.850574.382734.552487.776707 1.082017 1.204449 1.588452.697905.840348 1.474558 1.622957 2.296272 2.348244.484027.425878 1.013075.840208 1.542109 1.220034 2.318775 1.669148 4.907755 2.808626 7.67687 3.384209.641633.138157 1.294422.23026 1.947211.29927.69796.080556 1.42966.1152 2.16136.1152.34898 0 .72041-.011548 1.080545-.023096.652925-.034504 1.305714-.103652 1.947347-.195617 2.904082-.437427 5.639456-1.496487 8.115782-3.130992.551565-.368417 1.091973-.759652 1.598368-1.174122.833061-.679095 1.643537-1.438886 2.375102-2.256139.439047-.494887.866802-1.00146 1.249524-1.530852 1.845986-2.497948 3.1517-5.433182 3.759591-8.483478.135102-.65614.22517-1.323687.292653-1.991513.078776-.725009.112517-1.461704.112517-2.209948 0-.35687-.011292-.725287-.022449-1.105113-.033741-.667548-.10136-1.335235-.191428-1.991374zm-2.904082 4.984208c-.05619.564174-.146394 1.139478-.258775 1.703652-.517823 2.61287-1.632245 5.110817-3.208163 7.240209-.337688.448974-.697824.8864-1.069388 1.312278-.630204.702191-1.317007 1.346783-2.026123 1.922365-.438911.35673-.889251.690644-1.373197 1.001322-2.104898 1.392974-4.434966 2.290782-6.922721 2.670609-.540272.080556-1.10313.138156-1.654558.17266-.292789 0-.608027.01141-.911837.01141-.619183 0-1.23823-.034505-1.845986-.103514-.5517-.0576-1.114422-.149704-1.665986-.264765-2.36381-.495026-4.570096-1.461844-6.551184-2.877635-.461551-.333913-.90053-.679235-1.317007-1.047513-.697905-.610087-1.362-1.289183-1.958598-2.002922-.360177-.425878-.697905-.8864-1.024327-1.346782-1.384503-2.025878-2.341333-4.282018-2.814068-6.69927-.112558-.552626-.19136-1.12793-.247673-1.692104-.067497-.621635-.101307-1.254678-.101307-1.887722 0-.310817.011252-.621635.022504-.94386.03381-.575583.090054-1.139618.168857-1.692244.371483-2.543861 1.249456-4.915117 2.61151-7.078998.303918-.48359.641592-.955451.979265-1.392919.574096-.736626 1.20445-1.438803 1.891048-2.083409.405224-.379826.832966-.748257 1.272-1.093509 2.116163-1.634616 4.491293-2.739687 7.080136-3.28057.551565-.115159 1.10313-.195743 1.65483-.253273.607755-.069023 1.226803-.103597 1.845986-.103597.30381 0 .607892.011562.922858.023012.562857.034505 1.114557.092146 1.654966.17262 2.678775.402949 5.256598 1.46194 7.474013 3.050434.450204.322296.900544.679165 1.317007 1.04743.697823.610073 1.36204 1.289252 1.95864 2.002935.360135.437343.709115.886359 1.024353 1.346769 1.553334 2.267548 2.58898 4.903597 2.982993 7.643075.07864.552626.134966 1.128208.168708 1.692243.011156.322226.022449.633044.022449.943861 0 .633044-.033742 1.266087-.101225 1.887722z"/>
      <path d="M15.999612 38.402087c.821708.092104 1.56462-.506435 1.665925-1.346644.43898-3.833182 1.823538-7.51666 4.007252-10.659074.326435-.471917.686667-.943833 1.035578-1.381301.596599-.736752 1.249456-1.450254 1.93611-2.094915.416475-.391388.844203-.782762 1.283197-1.139631 3.050557-2.509315 6.697496-4.178449 10.558448-4.799986.82177-.138115 1.373334-.920821 1.249388-1.76111-.12381-.75976-.75415-1.300817-1.48585-1.300817-.07864 0-.157551.011562-.236327.023124-4.367483.713683-8.509741 2.589787-11.965455 5.444577-.495293.402824-.97928.840292-1.452055 1.28914-.776721.736696-1.50838 1.542581-2.194966 2.382818-.405238.494984-.799224 1.024473-1.170694 1.55392-2.487646 3.568403-4.052264 7.746769-4.547553 12.086386-.090058.840209.49529 1.6 1.317002 1.703513zm40.944334-18.257155c-.472653-.425892-.968028-.851798-1.485715-1.243116-3.624653-2.808668-7.924571-4.569833-12.42706-5.110833-.056314 0-.112559-.011505-.168872-.011505-.754155 0-1.40706.575515-1.48581 1.358282-.090058.840285.495232 1.599993 1.316945 1.70359 3.973505.471916 7.766892 2.025892 10.963695 4.51225.461538.356814.900517.72519 1.305742 1.09351.709238.633085 1.373183 1.32377 1.992367 2.037384.5517.633155 1.497007.702191 2.11619.13817.619048-.564062.686531-1.530963.134967-2.164048-.697688-.817225-1.463266-1.588494-2.26245-2.313684zm-33.79864 39.172355c.472735.426017.979279.851896 1.48581 1.24327C27.951728 63.138921 31.891429 64.854121 36 65.52167c.821633.126608 1.58721-.437427 1.722177-1.277635.135102-.840348-.42762-1.623096-1.249524-1.761252-3.62449-.586992-7.091428-2.106435-10.029238-4.374122-.450286-.345322-.900517-.7136-1.305755-1.093565-.709157-.633044-1.373252-1.323646-1.992354-2.037329-.371483-.425892-.731646-.874797-1.069388-1.346769-2.228707-3.004299-3.703333-6.549704-4.277374-10.25612-.123796-.748254-.754204-1.289313-1.485864-1.289313-.078802 0-.157556.011562-.236363.023124-.821713.138112-1.373253.92088-1.249445 1.761113.652848 4.20146 2.330026 8.230288 4.851468 11.625961.382735.529559.799211 1.035993 1.2157 1.519333.697906.805843 1.463307 1.588591 2.251266 2.302191zm34.464898-4.317635c-.40517 0-.799184.161122-1.10313.48342-.641632.70218-1.328299 1.358278-2.048666 1.97987-.427728.36832-.889265.72519-1.350748 1.070498-3.07298 2.233085-6.675007 3.648946-10.41215 4.09785-.821713.092105-1.418253.863305-1.316945 1.703597.101308.840292.844213 1.45038 1.665925 1.346783 4.243619-.50649 8.329687-2.10649 11.819156-4.650366.529007-.391387 1.04683-.794267 1.530776-1.208667.821769-.690616 1.598503-1.450324 2.318911-2.244592.562857-.621593.540136-1.588485-.067483-2.175561-.292789-.26472-.664217-.402832-1.035646-.402832z"/>
      <path d="M56.660816 62.21779c-4.063537 3.14246-8.881224 5.064756-13.94653 5.55974-.57415.057517-1.148164.09209-1.71102.115103-.968028.034504-1.924899.011492-2.847892-.04608-.574013-.034518-1.148163-.092035-1.710884-.172633-4.941592-.656097-9.612953-2.693551-13.53015-5.870525-.270177-.24171-.596598-.345308-.92302-.345308-.43898 0-.878018.195693-1.181942.575514-.517789.667608-.405232 1.634559.236422 2.164062 4.333683 3.533787 9.522826 5.78994 15.00454 6.51513.630476.080529 1.260817.149607 1.891157.195687 1.01306.069023 2.093741.092035 3.1517.05753.630476-.023012 1.260817-.069092 1.891157-.126608 5.639455-.552515 10.986122-2.693566 15.488707-6.169823.664218-.506435.788027-1.473391.292653-2.1525-.495238-.67917-1.440816-.805777-2.104898-.29929zM12.745252 43.397148c-.078803-.575583-.135116-1.162713-.168871-1.749565-.044993-.633183-.067497-1.289322-.067497-1.945461 0-.322226 0-.656.011198-.966957.022557-.575443.056299-1.162574.112612-1.749426.483986-5.180049 2.363837-10.106574 5.436762-14.262066.495292-.679165.371483-1.634559-.292612-2.152493-.270177-.172625-.585347-.276223-.900531-.276223-.450231 0-.900517.207138-1.204435.610085-3.399415 4.604231-5.493073 10.071988-6.022112 15.815793-.056307.644591-.101308 1.289321-.123864 1.933913-.01125.35687-.0225.7136-.0225 1.07033 0 .725287.0225 1.450435.067557 2.152626.045.644592.101308 1.289183.191365 1.933913.720405 5.605705 2.926615 10.91214 6.371091 15.343861.517782.667548 1.463306.7712 2.11615.24167.652911-.52953.754217-1.496348.236421-2.164035-3.106789-3.994157-5.099142-8.782748-5.740734-13.835965zm9.645238-25.277371c4.018503-3.430247 8.869973-5.617266 14.047877-6.307937.562857-.080584 1.136871-.138115 1.710885-.172689.934285-.069022 1.902449-.080584 2.85932-.04601.562584.023012 1.13687.057516 1.710884.115102 5.301632.517997 10.299456 2.589955 14.47551 5.985628.653061.529503 1.598503.4144 2.11619-.241767.517824-.667603.405443-1.634504-.236326-2.163993-4.62626-3.764061-10.18694-6.066227-16.062721-6.641741-.63034-.05758-1.26068-.103598-1.891157-.126607-.360136-.023066-.720408-.023066-1.069251-.023066-.709116 0-1.418368.023066-2.105034.069084-.63034.046018-1.260545.103599-1.89102.195692-5.740695.771207-11.132463 3.188483-15.58995 6.998556-.641654.54105-.720405 1.507951-.191365 2.164049.52904.65611 1.474566.736695 2.116158.1957zm10.922204 21.579701c-.803829 0-1.455551.666457-1.455551 1.488515v3.674713c0 .822066.651722 1.488515 1.45555 1.488515.803878 0 1.455606-.666449 1.455606-1.488515v-3.674713c0-.822058-.651728-1.488515-1.455605-1.488515zm5.591891-4.605218c-.803883 0-1.455606.666516-1.455606 1.488516v8.279805c0 .822052.651723 1.488515 1.455606 1.488515.803823 0 1.455606-.666463 1.455606-1.488515v-8.279805c0-.822-.651783-1.488515-1.455606-1.488515zm5.591837-5.67513c-.803826 0-1.455606.666516-1.455606 1.488515V44.86247c0 .821982.65178 1.488417 1.455606 1.488417.803877 0 1.455605-.666435 1.455605-1.488417V30.907645c0-.822-.651728-1.488515-1.455605-1.488515z"/>
    </g>
  </g>
</svg>
