<svg width="80" height="80" xmlns="http://www.w3.org/2000/svg">
  <g fill="none" fill-rule="evenodd">
    <path d="M40 79c6.426537 0 15.061852-2.92389 25.905945-8.771668l2.77063-2.442932C75.558858 56.284775 79 47.022975 79 40c0-7.307542-3.583618-16.690355-10.750855-28.148438L65.08905 9.012635C54.476521 3.670878 46.113504 1 40 1 17.90861 1 1 17.90861 1 40s16.90861 39 39 39z" fill="#FFF"/>
    <path d="M41.176675 68.49248v-2.963982c6.668998-.327998 12.398997-2.765984 17.250996-7.437957.756.738996 1.437 1.405992 2.094 2.047988-2.409 4.151976-14.931997 9.527945-19.344996 8.353952M20.44068 38.431655c-1.103.243998-2.092.216998-2.927-.065.126-10.685938 10.134998-20.988879 21.266996-21.149878.294.717996.321 1.93699.063 2.929983-10.564998 1.619991-16.713997 7.679956-18.402996 18.284895M50.220673 54.83456c-5.120999 3.113982-10.499998 3.879977-16.099996 1.70999-5.548999-2.150988-9.076998-6.243964-10.859998-11.891931-.708-.174-1.387-.212-2.168.041.975 4.057976 3.045 7.407957 6.121 10.13494 3.061999 2.712985 6.687998 4.250976 10.826997 4.822973.195.983994.076 1.954988.097 2.913983.02.976994.004 1.952989.004 2.929983v3.004983c-.492 0-.853.04-1.203-.007-6.543999-.861995-12.209997-3.57398-16.864996-8.237953-4.569999-4.578973-7.339998-10.100941-8.159998-16.540904-.173-1.364992-.347-2.748984-.301-4.117976.254-7.611956 2.952-14.224918 8.301998-19.710886 2.891-2.964983 6.287999-5.18497 10.147998-6.674962 4.556998-1.75799 9.269997-2.318986 14.117996-1.65999.229.031.451.115.829.214999v5.694967c4.108999 1.017994 7.774998 2.762984 10.792997 5.670967-.387.857995-4.494998 5.380969-5.489998 6.051965-4.447-3.702979-9.505998-4.827972-14.994997-2.805984-5.522998 2.033989-8.488998 6.282964-9.465997 12.03493h-2.949c-.196-4.013976 3.002-11.103935 9.627998-14.302917 5.853999-2.825983 11.617997-2.433985 17.310996.761996.435-.421997.838-.813995 1.335-1.295993-.415-.310998-.682-.556996-.99-.732995-2.158-1.232993-4.455-2.077988-6.929999-2.410986-.364-.049-.723-.138-1.201-.231999-.192-1.81099-.001-3.623979-.119-5.439969-.566-.321998-1.172999-.348997-1.769999-.310998-2.086.132-4.171999.270999-6.203998.827996-7.021999 1.925988-12.362997 6.029965-15.935996 12.355928-2.127 3.762978-3.141 7.832955-3.167 12.17293-.035 5.951965 1.759 11.263934 5.420999 15.932907 3.595 4.585974 8.269998 7.559957 13.916997 9.016948.163.042.329.069.495.091.065.008.133-.017.271-.038.243-.756996.102-1.546991.075-2.444986-6.606999-1.75399-11.688998-5.537968-14.978997-11.565933-1.545-2.831984-2.497-5.856966-2.626-9.089947.904-.305999 7.563999-.308999 8.448999-.014.975 5.726967 4.012999 9.958942 9.587997 11.96193 5.560999 1.998989 10.623998.749996 15.157997-3.139981 1.933 1.871989 3.837999 3.715978 5.732998 5.550968-2.724 3.612979-9.998997 6.97296-15.136996 6.73096-.205-.963994-.12-1.946988-.045-3.031982 3.762999-.297998 7.234998-1.295992 10.392997-3.593979-.5-.492997-.899-.888995-1.352-1.336992m-2.117999-42.451755c4.56 1.253993 8.364998 3.46698 11.762997 6.571962-.543.952995-1.353 1.543991-2.057 2.341987-2.887998-2.571985-6.056998-4.495974-9.714997-5.637968-.132-1.064993-.113-2.051988.009-3.27598m19.630995-1.024995c-1.06 1.011994-2.123999 2.034988-3.194999 3.050983-1.091 1.034994-2.098 2.162987-3.277999 3.145981-.272-.201998-.46-.333998-.64-.475997-.897-.712996-1.758-1.476991-2.694-2.134987-4.959998-3.48998-10.500997-5.30497-16.549995-5.558968-3.085-.13-6.132999.230998-9.111998 1.050994-5.563999 1.53299-10.349997 4.385974-14.300997 8.58395-3.602999 3.827978-6.057998 8.298952-7.370998 13.397922-.703 2.729985-.9 5.498969-.882 8.304952.027 4.247976.945 8.303952 2.759 12.11293 3.541999 7.433957 9.141998 12.761926 16.874996 15.72991 6.907998 2.651984 13.913996 2.713984 20.914995.381997 4.117999-1.370992 7.768998-3.57598 10.921997-6.574962.258-.243998.555-.447997.839-.674996.24.193999.406.308998.549.446997 1.691 1.64699 3.374999 3.300981 5.069998 4.941972.301.291998.649.534997.965.791995 16.662996-16.789903 13.910997-43.386749-.871-56.520673m-29.978992 62.31164c-8.958998-.682996-16.499996-4.418975-22.512995-11.036936-10.648997-11.721933-11.739997-28.946833-2.716-41.883758 4.556-6.532962 10.671998-11.043936 18.356996-13.194924C41.748675 4.512851 51.775672 6.52484 60.88467 13.135801c1.502-1.375992 2.957-2.657985 4.238-4.122976-8.617-7.661956-24.577996-12.353929-40.058992-6.131965C9.979682 8.941825-1.190315 24.143737.101685 42.87463c1.155 16.750903 12.577997 30.923821 29.008993 35.581794 8.250998 2.338987 16.476996 1.996989 24.572994-.870995 5.021999-1.77999 10.788997-5.458968 12.260997-7.385957-1.382-1.340992-2.771-2.688985-4.194-4.070977-7.085997 5.579968-15.040995 8.222953-23.995993 7.540957" fill="#363B61"/>
  </g>
</svg>
