<svg width="80" height="80" viewBox="0 0 80 80" xmlns="http://www.w3.org/2000/svg" xmlns:xlink="http://www.w3.org/1999/xlink">
  <title>
    cpc-cpchain
  </title>
  <defs>
    <path id="a" d="M0 .09761h78.977266v78.729083H0z"/>
  </defs>
  <g fill="none" fill-rule="evenodd">
    <circle fill="#05295C" cx="40" cy="40" r="40"/>
    <g transform="translate(1 1)">
      <circle fill="#488BC0" cx="39" cy="39" r="38"/>
      <g transform="translate(0 .075708)">
        <mask id="b" fill="#fff">
          <use xlink:href="#a"/>
        </mask>
        <path d="M44.55459 17.204502c.400917-1.34889 1.023868-2.609772 1.035005-4.038702-.72753-.140329-1.372756-.400717-2.150923-.134438.376903 1.409006.746324 2.790987 1.115919 4.17314zm-11.184764-4.002667c.121284 1.420788.670108 2.670928 1.008381 3.988634.409095-1.396186.922769-2.75599 1.119399-4.215932-.771555-.142927-1.400597.018884-2.12778.227298zM8.918282 26.669604c-.05081.199233-.040544.307338.015661.41631.64418 1.245635 1.189002 2.544458 2.02581 3.686146 1.56695 2.138024 3.484005 3.77762 6.13416 4.4512 1.366664.347357 2.724455.187452 4.107825.222274.029756-.742704-.03602-1.382327.2062-1.979851.166701-.411112.192976-.834178.167049-1.266079-.025057-.415963.09292-.81616.311128-1.139436.377773-.560103.535077-1.202152.692903-1.818906.84429-3.298597 1.724775-6.587145 2.60874-9.875173.194542-.72382.459383-1.446081.555958-2.287016-1.599315 1.123671-3.078042 2.248382-4.508568 3.457463.117804.519217.230214 1.045364.358284 1.567353.054117.220542.154172.429476.210899.649498.162698.631307.376729 1.25811.455207 1.900678.121632.99824-.305212 1.432914-1.315681 1.438978-1.535628.009355-3.071952-.021136-4.606883.014552-.576665.01334-.926423-.234401-1.193179-.68432-.096749-.16337-.120588-.372824-.347495-.502932-1.835793.911792-3.818276 1.423733-5.878018 1.749261zm62.421833 33.378193c-.309736-.060116-.55474.110704-.81732.223487-2.504508 1.076028-5.066266 1.177204-7.623326.278406-1.827788-.642222-3.358022-1.748568-4.423304-3.407742-1.086337-1.69209-2.295698-3.288375-3.737013-4.697381-1.00925-.98698-1.976914-2.012594-3.071777-2.91867-1.533366-1.269023-3.149734-2.382646-4.965168-3.208681-1.110524-.505184-2.281777-.528919-3.463645-.462393-.188626.010742-.3863.11798-.552478.22314-.646443.40938-.863258 1.218437-.792262 1.994058.113628 1.242864.965575 1.912285 1.836489 2.547576 1.59827 1.16577 2.957628 2.54931 3.994372 4.219224 1.420956 2.288748 1.966822 4.82593 1.46933 7.448695-.549867 2.900825-2.291348 5.046125-4.912616 6.456171-1.265218.680336-2.57359 1.194356-4.01682 1.42945-1.355876.220888-2.49546-.03257-3.480176-.967577-.710478-.674618-1.20884-1.521616-1.823264-2.274715-.615991-.755004-1.191439-1.55228-2.041994-2.07219-.923116-.564435-1.934281-.924612-3.01853-.802128-.813318.091994-1.61515.320505-2.382355.65175-1.363881.588689-2.725326 1.192103-4.123139 1.691224-1.312374.468976-2.671035.774928-4.069022.948693-1.353092.168222-2.67817.204083-4.028478.002079-.480438-.071897-.983324-.141368-1.604361-.178616 1.166033 1.258283 2.439951 2.189824 3.72518 3.09538 2.228183 1.56995 4.57678 2.92941 7.09869 3.998681 1.818566.770943 3.679416 1.40225 5.587945 1.88214 1.683883.423066 3.387255.75206 5.129084.908327 1.369971.122831 2.737332.273555 4.112002.306991 1.523447.036902 3.031581-.181214 4.545458-.321024 1.595835-.147259 3.159304-.445414 4.707808-.828634 2.07958-.514539 4.105738-1.179456 6.074126-2.042392 1.686145-.739066 3.31713-1.569432 4.875205-2.536489 1.65552-1.027347 3.233954-2.171114 4.716335-3.434594.876482-.746689 1.779936-1.489566 2.51547-2.36411.702822-.835737 1.538239-1.54535 2.177547-2.441377.795046-1.114836 1.716249-2.13993 2.382703-3.346066.046808-.030838.189321-.009182.071691-.130107l-.072387.129414zm-56.72635-4.998482c.57301.211186 1.169165.288453 1.775411.34268 2.438038.21777 4.696846-.42428 6.845855-1.474494 1.77315-.866575 3.2611-2.083971 4.172731-3.889364 1.057278-2.0935 1.020388-4.2809.496621-6.485103-.626083-2.635932-1.949942-4.902331-3.810096-6.870921-.647835-.685706-.630956-.701991-1.524318-.503625-1.978654.439697-3.955916.451998-5.921868-.059943-.584147-.152283-1.150024-.374037-1.724427-.564088-.190017-.131147-.369768-.281177-.571793-.390322-1.742524-.941244-3.09144-2.299143-4.220931-3.899759-1.59775-2.26484-2.591862-4.796305-3.338882-7.437088-.218555-.772848-.400568-1.555919-.63548-2.475506-1.225196 2.201085-2.135088 4.366309-2.851656 6.611052-.840985 2.634373-1.384588 5.32661-1.627156 8.087279-.238044 2.708868-.169137 5.40509.087526 8.10443.078478.826208.3555 1.54535.963139 2.143048.36855.36243.665757.795717 1.006293 1.187772 2.032945 2.341241 4.241638 4.483596 6.974795 6.018553 1.229894.69073 2.480495 1.341267 3.904236 1.555399zm37.423204-20.318246c-2.005451-1.463926-4.109914-2.77089-6.390821-3.761162-2.495635-1.083652-5.0781-1.485062-7.761837-.730404-1.276355.358792-2.451958.92132-3.624082 1.634053.299643.23163.531597.401237.752762.583664 1.312897 1.082439 2.623531 2.167996 3.935036 3.252167 1.997273 1.651377 4.302193 2.40153 6.886572 2.314042.488617-.016459.974624-.099963 1.46324-.12491 1.523622-.077961 2.964414.302486 4.378932.814427 2.69644 1.327928 4.768886 3.31159 6.24883 5.91218.07552.133053.17836.221754.28346.315827 1.625243 1.45613 3.578318 2.23764 5.70923 2.430809 2.042167.1852 3.93434-.422026 5.58777-1.674246.94191-.713425 1.729648-1.580173 2.479104-2.482783 1.163771-1.401903 2.163104-2.901864 2.919694-4.570392.888315-1.959928 1.334126-4.025362 1.634987-6.132029.077086-.53914.113976-1.094565-.01827-1.63665-.33984-1.393762-.72527-2.776435-1.22102-4.122554-.140426-.381313-.205331-.82898-.588499-1.180149-.35289 2.45056-1.15333 4.682136-2.342158 6.766627-1.374322 2.409674-3.142425 4.492779-5.47136 6.040902-1.888865 1.255857-3.953305 1.638384-6.191929 1.073256-1.668744-.421333-3.154257-1.208734-4.59157-2.106666-1.369797-.855834-2.719584-1.742678-4.07807-2.616009zm1.37989-17.473726c-.031147-.042272-.003654-.187452-.12546-.07103l.126852.06947c.002785.313922.007135.61537.102318.932236.19576.651923.387343 1.30939.550911 1.967897 1.144456 4.600883 2.444128 9.161054 3.609987 13.755874.231954.913871.24048 1.83779-.6233 2.5157-.091702.07207-.152257.170994-.10249.343893 1.215799.569285 2.38218 1.31043 3.726224 1.686372 1.991357.557158 3.843507.294518 5.592643-.811655 1.662654-1.051255 2.95293-2.491099 4.127315-4.016007 1.443577-1.87469 2.34825-4.039221 3.003218-6.303368.043676-.151417.08422-.344066-.13851-.532557-1.280183-.02183-2.622661.062541-3.94478-.207202-.09936.394307-.03689.654695.028885.940204.184971.80334.486355 1.573417.622255 2.392002.146864.885112-.383863 1.683428-1.290449 1.700406-1.825874.034302-3.653489.042098-5.478841-.001733-1.127403-.027026-1.676401-.860164-1.385458-1.966857.05777-.219849.151735-.429996.225341-.646033.093269-.273901.154868-.547456-.053769-.839375-.574403 0-1.152634-.017671-1.7293.005197-.50706.02027-.911457-.170993-1.21197-.54763-.424582-.531343-.307996-1.145672-.127723-1.716863.3334-1.057838.488443-2.162798.88814-3.202099.096576-.251206.054814-.444548-.210898-.655215-1.192482-.945747-2.316231-1.97933-3.529246-2.896666-.864824-.65383-1.676575-1.391163-2.651895-1.89496zm14.489018 4.68283c.265363 1.024227.552478 2.043431.784084 3.075109.086134.383565.27389.506223.633566.560969 1.197006.182081 2.394883.339388 3.608594.316.250051-.00485.518547.081252.798005-.128202.068211-.52788.137293-1.092833.215249-1.656748.053246-.383392-.01044-.736293-.20968-1.072736-.217338-.367108-.415012-.74565-.621038-1.119167-.089267-.40089-.337577-.724686-.53125-1.073776-.877004-1.58104-1.910616-3.059691-3.008786-4.493472-.74006-.966364-1.56869-1.858579-2.407237-2.740919-1.347525-1.558517-2.901945-2.89528-4.534844-4.141783-1.092427-.83383-2.200516-1.65103-3.429888-2.283897-1.946636-1.318052-4.075982-2.27558-6.267797-3.095725-3.314346-1.240266-6.73275-2.004279-10.271566-2.299663-2.961108-.246875-5.902031-.149337-8.827815.27009-3.066731.439351-6.041238 1.27145-8.901073 2.465978-1.6503.689518-3.284764 1.423386-4.774628 2.431676-1.186218.60636-2.26716 1.376436-3.328266 2.169555-1.801687 1.346638-3.531161 2.777993-5.003797 4.490353-1.509875 1.463405-2.755604 3.140423-3.939908 4.864043-1.091383 1.58849-1.080943 1.595593-.545692 3.461448.246745 1.297956.615992 2.559184 1.10861 3.80967 2.270467-.264718 4.383978-.885111 6.371507-1.916962.220817-.114688.46443-.27061.528987-.530824.128592-.517139.419535-.987847.439372-1.53461.19576-.706496.397436-1.411432.585888-2.119833.385255-1.448507.71448-2.911393 1.16725-4.342229.182188-.575521.423712-.806111 1.00351-.850635.498013-.03846.8777.109837 1.129143.596311.25527.49427.342101 1.029079.499057 1.546737.279806.921493.426844 1.881967.784084 2.800862.121458-.052147.210899-.070338.27476-.120752 1.515269-1.197128 3.037498-2.385246 4.643773-3.461448.230387-.154189.403526-.351515.390476-.631134-.02036-.44039.209158-.80871.303645-1.214451.526029-1.450066.72753-2.985715 1.201357-4.453799.281894-.874024.744062-1.430662 1.627678-1.646526.4653.00797.930773.015765 1.396073.023561.880833.437446 1.426002 1.106174 1.614628 2.096619.14286.750327.40196 1.478651.619471 2.252193.877353-.133919 1.684927-.359138 2.518778-.369533.25875-.003118.35898-.169954.409442-.36832.328529-1.294838.647313-2.592101.969403-3.888498.182362-.327088.220992-.700779.342798-1.04519.111713-.315481.128244-.693503.418143-.921148 1.559467-1.225712 3.298163-.809403 3.998722.795198.157304.360177.24483.750326.364549 1.12679.260317 1.057317.564659 2.10632.76703 3.174552.15452.815987.480091 1.3035 1.39329 1.183614.105797-.01386.223253.080732.333922.077094.482353-.015765.933731.267838 1.460978.170647.210203-.791733.43015-1.561463.616513-2.33899.20185-.841453.6146-1.510181 1.423392-1.891148.604855-.118154 1.211276-.091127 1.818219-.02131.818537.463433 1.28575 1.147406 1.493343 2.07583.298077 1.332951.688553 2.645114 1.039703 3.966111-.012877.441604.286418.801261.325744 1.228139.029582.321717.234912.502065.48357.674445 2.209043 1.528892 4.321162 3.182695 6.3816 4.903717.161306.134612.290072.362776.59337.296943.065775-.215864.13938-.432941.198022-.654176.405788-1.529585.803399-3.06125 1.214581-4.58945.174183-.647591.653404-1.075681 1.184826-1.097337.57336-.023388 1.114527.38703 1.34561 1.02752.038283.1062.047853.2221.079.331245.224994.788268.451901 1.575843.678113 2.362378 1.451581-.426531 2.056436-.102735 2.405324 1.251872.192975.749461.335837 1.511742.616513 2.237121zm3.439458 36.740716c.885705-.444895 1.570255-1.088849 2.016588-1.981063 1.056234-2.112384 1.957425-4.286617 2.611872-6.555961.846901-2.937206 1.400597-5.926386 1.468113-8.988329.031147-1.412125.007656-2.825982-.02558-4.238454-.01392-.586263-.118326-1.170447-.186189-1.79881-.093095.08801-.1493.117981-.168266.163371-.054987.132187-.107538.267838-.139382.406955-.635306 2.766559-1.869898 5.24501-3.644266 7.456664-.72057.898452-1.485861 1.761908-2.230793 2.64113-.18445.032916-.289899.180868-.42232.288626-.989065.805246-2.080797 1.43153-3.282328 1.866549-2.343376.567899-4.647601.515752-6.889182-.447667-1.522752-.654522-2.832168-1.522136-3.759635-2.984849-.536817-.846997-1.15159-1.684813-1.889736-2.413138-.818537-.807844-1.812997-1.352182-2.738898-2.000467-1.205707-.793638-2.54749-1.159013-3.976624-1.188465-1.2419-.025467-2.485541-.011954-3.727442.017152-1.436965.03361-2.735245-.41423-3.986542-1.056106-1.039355-.741318-2.176154-1.33555-3.116672-2.229498-.825498-.784802-1.777674-1.435513-2.630143-2.194502-.837679-.745476-1.747048-1.362576-2.769002-1.820291-.0616-.055266-.115368-.124737-.186016-.163718-1.125489-.620392-2.365302-.94003-3.594152-1.245982-.922072-.22955-1.882079-.506397-2.852874-.150204-.856645-.10031-1.505872.355673-2.100634.852888-.580494.485261-.704562 1.455783-.347322 2.22482.57597 1.240266 1.373103 2.320106 2.430903 3.20054.146167.212053.278588.435193.440068.634772 2.308227 2.85197 3.65697 6.047311 3.586148 9.768627-.02384 1.25274-.330269 2.418509-.853687 3.551189-.670456 1.450585-1.800296 2.498721-2.980423 3.512035-.786694.457541-1.57826.904342-2.405498 1.288774-1.503784.698526-3.082914 1.119513-4.726253 1.317533-.463386-.002945-.926945 0-1.390157-.010048-1.386328-.030145-2.73246-.312362-4.015427-.80542-1.824483-.701298-3.498447-1.658306-5.056696-2.871026-1.69676-1.320651-3.135639-2.887138-4.66796-4.367002-.228474-.220715-.256837-.637544-.713263-.690903.100055.898798.409965 1.72414.656014 2.562302.912676 3.1082 2.196339 6.058053 3.895187 8.82132 1.323163 2.15223 2.814592 4.177299 4.557117 6.022191.551782.584011 1.20936.86311 1.934108 1.017472 1.638815.34909 3.302339.453557 4.977.351169.575099.048335 1.148806-.08697 1.686493-.202351 1.882427-.40401 3.722396-.974507 5.444736-1.863084.353934.057171.551607-.25623.839418-.367107 1.52832-.588515 3.072126-1.02111 4.733562-.846651.113105.012127.228995-.000693.343667-.00208 1.570778.397946 2.787795 1.327235 3.78939 2.552948.59859.73231 1.15594 1.497535 1.745134 2.238507.789478.993043 1.729996 1.464964 2.995388 1.244596 2.200341-.309763 4.05545-1.313721 5.716015-2.750794 1.61428-1.397226 2.441692-3.189105 2.601432-5.255752.163047-2.113423-.416925-4.078895-1.509874-5.908715-1.0578-1.770743-2.641106-3.025561-4.20388-4.281592-.942779-.757603-1.555986-1.641329-1.855107-2.78527-.261883-1.001533.35724-2.410712 1.265044-2.938419 1.069284-.621605 2.211652-.568418 3.350714-.373864 1.321423.22574 2.494416.841108 3.655055 1.495976.828282.46759 1.518053 1.135106 2.38131 1.5405.247093.242024.474174.508996.744584.721915 1.480989 1.16629 2.77457 2.527307 4.050925 3.900452 1.097474 1.180668 2.112467 2.436353 2.933267 3.8315.66106 1.12419 1.600185 1.963219 2.723412 2.592447 1.86781 1.046057 3.856035 1.476226 5.989557 1.034796 1.249905-.21621 2.432643-.6048 3.480002-1.342134zm-22.6335-49.753542c-.540993-.022348-.881877.295384-1.017603.748595-.33027 1.101842-.591456 2.2243-.89284 3.334978-.16235.59839-.373597 1.185-.358806 1.817173-.236304.194035-.273716.466724-.344015.746169-.476436 1.891496-.966445 3.7797-1.471245 5.663919-.643658 2.402397-1.308894 4.79925-1.95725 7.200434-.127201.470189.010266.710653.54482.746862.530902.036035.997071.242024 1.484644.388763.652185.196287 1.286969.450265 1.92941.679296.780951.448187 1.55268.914044 2.347378 1.336937.370987.197326.660016.558024 1.121661.580545.098141.102042.178881.234575.29686.301275 1.22537.692636 2.36652 1.50845 3.510801 2.322357.270236.192303.51437.46811.88466.499294.144428.23163.401091.318945.61373.458408.533685.34961.86726.273728 1.210405-.259695.241698-.375943.32644-.764013.196282-1.219823-.436588-1.530278-.844813-3.0687-1.25965-4.605215-.09553-.354287-.116064-.732829-.356544-1.037221-.021055-.312882-.090136-.617794-.142861-.924612-.187408-1.090408-.67237-2.089169-.87596-3.181656-.237696-1.274568-.720745-2.511715-1.024042-3.768438-.270236-1.120206-.569531-2.248382-.855776-3.362005-.335314-1.305232-.59772-2.645807-1.111916-3.910326-.132943-.326915-.254053-.694542-.218729-1.073777-.165134-.997894-.543603-1.93342-.862214-2.885405-.20272-.605667-.750673-.819106-1.3912-.596832zM32.196137 25.05738c.236826-.156787.275456-.410592.341231-.659026.37203-1.40173.733795-2.806752 1.139236-4.198954.163568-.561489.197152-1.093526.034976-1.655015-.339318-1.174779-.68751-2.348518-.969404-3.537502-.118674-.499987-.318784-.947134-.543777-1.395147-.005916-.424279-.024535-.834698-.156434-1.25655-.240828-.770944-.534555-1.530799-.627302-2.346266-.073954-.652616-.523592-.967057-1.13419-1.09214-.170006-.247049-.408572-.16545-.617905-.10083-.506365.156615-.809663.524762-.945911 1.02163-.245179.894987-.471738 1.794998-.711522 2.691544-.203417.760202-.480613 1.503598-.522723 2.300009-.120588.049028-.143557.148644-.174705.266451-.572315 2.158467-1.153678 4.314336-1.729995 6.471763-.43015 1.610838-.86987 3.219597-1.278095 4.836152-.234738.929636-.586062 1.834844-.638612 2.806232.251094-.010048-.023143.043658.00174.001733.57649.094245 1.101823-.22314 1.681447-.187279.769467.04747 1.543806.016112 2.316057.01871.033932.042273.067342.1211.102143.12162.877005.015591 1.679011.349955 2.506423.575521.218903.292265.50306.151937.796612.134092.327833-1.281844.626084-2.56005.99533-3.81764.099708-.339908.12233-.661972.13538-.999108zm9.216898 3.801529c.104406-.007276.157478-.06566.168267-.16649.067341-.170993.219251-.316.162524-.525107.148256-1.357552.70143-2.618087 1.020562-3.93458.303993-1.25378.600504-2.542034 1.07607-3.76203.31861-.816852.19402-1.623484-.032191-2.436006-.493837-1.774728-.994287-3.547897-1.451234-5.332153-.202546-.791213-.611989-1.529586-.619471-2.370693-.278414-.997202-.587802-1.987128-.821496-2.994724-.114672-.493923-.337229-.872811-.720918-1.179283-1.311853-.521296-1.836141.11798-2.082538.973467-.117108.4073-.231431.822224-.309735 1.23247-.17018.890828-.624344 1.719462-.584496 2.65343-.052725.062368-.13416.116767-.153824.188144-.271453.982303-.533859 1.96703-.799048 2.950893-.604159 2.241451-1.21058 4.482383-1.81265 6.724701-.498883 1.858406-.991676 3.718544-1.489167 5.577296-.299991 1.12038-.604855 2.239546-.905368 3.359926-.104753.389802-.076564.695927.3468.933447.3247.182081.660363.338002 1.008032.537928.906586-.587822 1.8257-1.161265 2.857051-1.527507.445463-.158173.875264-.359484 1.312375-.541392.22534-.030318.45016-.025987.679156-.073456.636872-.132187 1.274266-.285682 1.932194-.286375.40631-.000693.812795-.001386 1.219105-.001906zm20.342675-9.353184c-.21177.094765-.264842.321544-.304168.491324-.500101 2.167996-1.119573 4.30446-1.686841 6.454785-.133291.50605-.018097.657467.538209.674965.547258.017152 1.095733.002426 1.643513.00156.39587.042271.633218-.072244.718656-.518005.125809-.654522.329921-1.294145.500276-1.94035.085786-.325876.223427-.64205.185145-.990966.536643-1.040513.55126-2.2392 1.008207-3.304313.020707-.048336.018097-.117634.001566-.169435-.365766-1.150524-.562918-2.35025-1.016385-3.475133.06038-.304393-.114498-.558198-.20011-.825342-.087353-.272516-.322613-.262987-.505148-.031358-.227255.288454-.207766.653483-.29825.975027-.245701.871425-.578754 1.731243-.58467 2.65724zm5.261852 3.274862c-.143035-.889963-.305908-1.774555-.705258-2.595393-.008004-.201311-.012528-.402796-.024535-.603934-.01131-.191783-.120936-.339735-.294945-.382527-.200806-.049201-.331139.110878-.384733.273902-.141296.430169-.260666.867787-.3776 1.305405-.270061 1.010196-.64766 1.996656-.686464 3.058305-.215945.09182-.263102.319985-.308518.491152-.501667 1.886125-.982454 3.77762-1.46237 5.66929-.11415.450264-.038282.573962.395348.592846.52046.022695 1.042835.002771 1.56434.001559.463037 0 .926074.000173 1.389111.000173a465.596315 465.596315 0 0 0 .695688-.002079c.739711-.015592 1.486035.106546 2.206605-.045217.080393-.25519.046113-.439524-.009396-.641009-.542211-1.973787-1.06911-3.951732-1.606101-5.927079-.109974-.404528-.124417-.841454-.391172-1.195394zm-48.218886 2.414177c.173661-.004331.347322-.008835.520983-.013166.706476-.00693 1.459238.277886 2.094196-.274075-.395522-1.443829-.780778-2.831526-1.154897-4.222515-.232301-.86363-.397262-1.74649-.7592-2.572178-.09292-.601336-.18793-1.015046-.529857-1.727432-.000348-.141888.003828-.284123-.001914-.425665-.008178-.193342.026623-.426357-.268148-.435366-.235086-.007276-.233171.18572-.277718.350476-.217685.807151-.445462 1.61153-.66976 2.41695-.557176 2.087783-1.11644 4.175046-1.669962 6.263868-.12372.467417-.010963.640316.467214.660759.516284.022175 1.034482-.001906 1.551984-.005717l.69708-.015939zM42.370606.270783c13.825174.945228 26.07261 9.204886 32.28542 21.297256 1.995012 3.882954 3.360807 7.97467 3.929816 12.291777 1.479596 11.223197-1.223978 21.358585-8.306833 30.240022-5.020676 6.295572-11.46544 10.59085-19.177685 12.991169-4.789592 1.490778-9.701165 2.00064-14.683385 1.608758C19.81976 77.394533 6.263428 66.060112 1.648542 50.729781.356527 46.437967-.178202 42.04082.051837 37.566925c.881529-17.140054 12.49331-30.911868 27.64043-35.614274C30.466663 1.091447 33.30057.546936 36.192945.288974c.081784-.007277 1.831443-.187106 3.17131-.191263 1.636728-.004851 2.918999.167008 3.00635.173072z" fill="#05295C" mask="url(#b)"/>
      </g>
      <path d="M71.340741 60.124232c-.66628 1.206136-1.587656 2.23123-2.382528 3.345893-.639309.896026-1.4749 1.605813-2.17772 2.44155-.735536.874544-1.63899 1.617421-2.515298 2.36411-1.482555 1.26348-3.06099 2.407074-4.716509 3.434594-1.558075.967057-3.18906 1.797423-4.87503 2.536489-1.968562.862936-3.994547 1.527853-6.074126 2.042392-1.548679.38322-3.111974.681376-4.707809.828634-1.513876.139636-3.022185.357926-4.545632.320851-1.37467-.033263-2.74203-.183987-4.112002-.306818-1.741654-.156267-3.4452-.48526-5.129084-.908327-1.908354-.47989-3.769205-1.111197-5.58777-1.882313-2.52191-1.069099-4.870681-2.428557-7.09869-3.998682-1.28523-.905382-2.559148-1.836923-3.725355-3.095206.621038.037247 1.123923.106546 1.604362.178443 1.350482.202177 2.675559.166142 4.028477-.001906 1.397987-.173765 2.756648-.479717 4.069023-.948693 1.397812-.499294 2.759257-1.102535 4.123312-1.691397.767205-.331246 1.568864-.559583 2.382355-.651577 1.084249-.122484 2.09524.237693 3.01853.802128.850382.51991 1.426003 1.317186 2.041994 2.07219.614425.752926 1.112612 1.600097 1.82309 2.274542.98489.93518 2.1243 1.188638 3.480177.967577 1.443229-.234921 2.751775-.748941 4.01682-1.42945 2.621442-1.409873 4.362748-3.555173 4.91279-6.455998.497317-2.622765-.048549-5.159947-1.469505-7.448695-1.036744-1.669914-2.395927-3.053454-3.994372-4.219223-.870914-.635292-1.722687-1.304887-1.836489-2.547577-.070995-.77562.14582-1.584678.792262-1.994057.166179-.105334.363853-.212573.552478-.22314 1.181868-.066527 2.353121-.042792 3.463646.462392 1.815608.826035 3.431975 1.939658 4.965167 3.208682 1.094864.906074 2.062527 1.931688 3.071952 2.918669 1.44114 1.409006 2.650502 3.005291 3.736839 4.697381 1.065282 1.659 2.595515 2.76552 4.423304 3.407742 2.557233.898798 5.118817.797622 7.6235-.278406.26258-.112783.507583-.283776.817145-.223487l.000696.000693z" fill="#1C5192"/>
      <path d="M14.613695 55.124987c-1.423566-.214131-2.674342-.864669-3.904236-1.555399-2.733156-1.534783-4.941676-3.677311-6.974795-6.018553-.340361-.391881-.637742-.825168-1.006293-1.187771-.607639-.597698-.88466-1.316667-.963139-2.143049-.256663-2.69934-.32557-5.395561-.087526-8.10443.242742-2.760668.786346-5.452905 1.627156-8.087278.716569-2.244743 1.62646-4.409794 2.85183-6.61088.234739.919415.416752 1.702485.635307 2.475334.747194 2.640783 1.741132 5.172421 3.339055 7.437088 1.129317 1.60079 2.478233 2.958688 4.220932 3.899932.202024.108971.381601.259175.571793.390322-.575273.164237-.484615.63044-.484615 1.056972.000348 5.643302.002436 11.286778-.003306 16.93008-.000522.515753.009918 1.024229.177837 1.517632" fill="#94C5E0"/>
      <path d="M40.02281 69.27562c-1.265219.220195-2.205736-.251553-2.995388-1.24477-.58902-.740972-1.146544-1.506197-1.74496-2.238333-1.00177-1.225886-2.218613-2.155176-3.789564-2.55312.45538-.629229.345755-1.354782.346103-2.058159.002436-9.264136.002436-18.528445-.00087-27.792754-.000174-.453904.073606-.916296-.154172-1.352356-.071865-.13773.01131-.277885.17488-.336616 1.022127.457542 1.931323 1.074643 2.769001 1.820292.85247.758816 1.80482 1.4097 2.630318 2.194502.940517.893947 2.077317 1.48818 3.116497 2.229325-.32992.16493-.227255.497734-.149125.68484.188625.45165.15104.905554.135727 1.357726-.077086 2.267958.160784 4.539554-.152258 6.807686-.16496 1.194182.136597 2.400318.143731 3.599177.032192 5.48409.01479 10.968527.013225 16.452963-.000174.740279.094313 1.495803-.3381 2.173193-.039325.061676-.005046.16978-.005046.256404" fill="#488BC0"/>
      <path d="M14.613695 55.124987c-.167919-.493403-.17836-1.00188-.177837-1.517631.005742-5.643303.003654-11.286779.003306-16.930081 0-.426531-.090658-.892735.484615-1.056972.574229.189877 1.140105.411632 1.724253.563915 1.966126.51194 3.943214.49964 5.922042.060116.893361-.19854.876482-.182255 1.524317.503451 1.860154 1.968764 3.18384 4.235163 3.810097 6.870922.523592 2.204377.560482 4.391603-.496795 6.485276-.911632 1.80522-2.399408 3.022616-4.172731 3.88919-2.14901 1.050216-4.407644 1.692264-6.845681 1.474494-.606247-.054052-1.202575-.131493-1.775586-.34268" fill="#8AC8DF"/>
      <path d="M52.03697 34.806776c1.358486.873331 2.708273 1.760176 4.07807 2.61601 1.437313.897931 2.922826 1.685332 4.59157 2.106666 2.238624.565127 4.303064.1826 6.19193-1.073257 2.328934-1.548123 4.097037-3.631228 5.471359-6.040901 1.188828-2.084491 1.989269-4.316068 2.342158-6.766627.383168.351168.448073.798835.588498 1.180149.495751 1.346118.88118 2.728791 1.22102 4.122552.132247.542086.095357 1.097511.018271 1.636652-.300861 2.106666-.746672 4.1721-1.634987 6.132028-.75659 1.668529-1.755923 3.16849-2.919694 4.570393-.749455.90261-1.537193 1.769357-2.479103 2.482783-1.653432 1.252219-3.545604 1.859445-5.587771 1.674245-2.130912-.193169-4.083987-.97468-5.70923-2.430809-.1051-.094072-.20794-.182774-.28346-.315827-1.479944-2.60059-3.55239-4.584252-6.24883-5.91218.000348-1.036181.01566-2.072537-.006786-3.108372-.008005-.36451.062295-.65764.366984-.873505" fill="#53D5D9"/>
      <path d="M43.982276 40.204295c-.172965 0-.346278-.003118-.519243.00052-.656187.01334-1.44845.773195-1.105478 1.727259.445463 1.239399 2.097676 1.90726 2.948928 1.716517.611467-.136864 1.231982-.38807 1.422522-1.095085.157652-.585224-.11502-1.044325-.508106-1.46254-.610249-.648978-1.361097-.92132-2.238623-.88667m-3.959397 29.071306c-.000174-.086622-.034454-.194728.004872-.256403.432412-.677217.3381-1.432915.338273-2.173193.001566-5.484263.018793-10.968873-.013224-16.452963-.007135-1.19886-.308692-2.404822-.143906-3.599177.313216-2.268132.075346-4.539555.152258-6.807687.015313-.45217.052899-.906074-.135553-1.357726-.07813-.187105-.180795-.51991.149126-.684666 1.251297.641701 2.549577 1.089714 3.986542 1.055932 1.2419-.029106 2.485542-.042445 3.727443-.016978 1.429134.029451 2.770916.394826 3.976623 1.188465-.205157.072416-.272846.24878-.184102.407993.149474.268357.144776.544338.144602.828807-.000696 1.919215-.016357 3.838776.010788 5.757818.006787.482835-.158174.746169-.613033.851849-.863257-.405395-1.553028-1.073084-2.38131-1.5405-1.160639-.654869-2.333632-1.27041-3.655055-1.495976-1.139062-.194555-2.28143-.247742-3.350714.37369-.907804.52788-1.526927 1.93706-1.265044 2.938593.299121 1.143767.912328 2.027666 1.855108 2.78527 1.562773 1.25603 3.14608 2.510848 4.203879 4.281591 1.09295 1.829647 1.67292 3.795292 1.509874 5.908542-.15974 2.06682-.987152 3.8587-2.601431 5.255752-1.660567 1.437246-3.515675 2.441204-5.716016 2.750967" fill="#5997C7"/>
      <path d="M31.858838 31.699512c-.163568.05873-.246744.198886-.174879.336616.227778.43606.153998.898452.154172 1.352356.003306 9.264309.003306 18.528618.00087 27.792754-.000348.703377.109278 1.42893-.346103 2.058158-.114672.001386-.230388.014206-.343668.002252-1.661262-.174631-3.205242.257963-4.733387.846652-.287985.110703-.485485.424278-.839593.367107.222731-1.15728.171399-2.328248.173487-3.49627.002436-1.464445-.019837-2.929583.008004-4.393508.017575-.91699-.013746-1.816827-.356718-2.681323 1.179954-1.013314 2.309967-2.061276 2.980249-3.511862.523419-1.132853.830022-2.298623.853687-3.551188.070822-3.72149-1.27792-6.916831-3.586147-9.7688-.16148-.19958-.293901-.422547-.439895-.634773.30556-.331592.388388-.719142.375685-1.166809-.027145-.96879-.005046-1.938792-.009396-2.908274-.003306-.751366.108581-1.522482-.34941-2.202991.97097-.356367 1.930802-.079347 2.852875.150204 1.22885.305778 2.468837.62559 3.594326 1.245809.070647.03898.124242.108625.185841.16389" fill="#3E84BC"/>
      <path d="M51.423536 48.017673c.45486-.10568.619993-.369014.613033-.85185-.027145-1.91904-.011484-3.838602-.010788-5.757817.000174-.28447.004872-.56045-.144602-.828807-.088744-.159213-.02088-.33575.184102-.408167.926074.648459 1.920535 1.192796 2.739072 2.000467.737972.728325 1.352745 1.56614 1.889562 2.413312.927467 1.462712 2.237057 2.330326 3.759808 2.984848 2.241408.96342 4.545806 1.015393 6.88901.447667.017226.082985.023664.234055.053246.23856.667672.104293.656883.575521.64244 1.088848-.10075 3.583932.191932 7.1741-.173138 10.753875-2.133348.44143-4.121573.011434-5.989558-1.034796-1.123227-.629055-2.062178-1.468257-2.723411-2.592274-.8208-1.39532-1.835794-2.650831-2.933093-3.831673-1.276355-1.372972-2.57011-2.73399-4.0511-3.900279-.270235-.212919-.49749-.47989-.744583-.721914" fill="#74ABD2"/>
      <path d="M49.866627 8.001505c-.606943-.069818-1.213537-.096845-1.818218.021309-.107015-.306298-.370987-.214478-.585192-.215691-1.123922-.006583-2.247671.000173-3.371594-.004158-.68281-.002772-1.371364.056998-2.03834-.15592-.119718-.376464-.207418-.766613-.364548-1.12679-.70056-1.604601-2.439256-2.02091-3.998897-.795198-.289724.227645-.306429.605667-.417969.921147-.121806.344412-.16061.718103-.342971 1.045191-.056205-.147952-.177141-.28395-.31861-.220888-.583452.260388-1.19283.147259-1.790899.155574-1.186566.016285-2.373654.00745-3.560568.002772-.248485-.000866-.477654-.002598-.461471.340255-.4653-.00797-.930774-.015766-1.396073-.023735-.008005-.149338-.03341-.29677-.219251-.309417-.200458-.013513-.402657-.005024-.604159-.005024-2.533046-.000173-5.066092-.005544-7.598965.005024-.449986.001906-.817841-.03898-.819233-.60636 1.489863-1.008289 3.124328-1.742157 4.774802-2.431675 2.85966-1.194528 5.834341-2.026627 8.901072-2.465978 2.925784-.419427 5.866533-.516965 8.827815-.269916 3.538643.29521 6.95722 1.059223 10.271566 2.299489 2.191815.820144 4.321161 1.777673 6.267624 3.095899-.23352.488899-.628346.565993-1.14463.559583-2.398538-.029278-4.797597-.010914-7.196483-.015072-.348017-.000693-.690466-.002426-.994808.199579" fill="#AACFE6"/>
      <path d="M53.416807 17.332998c.97532.503799 1.787244 1.241132 2.651894 1.894961 1.213016.917336 2.336765 1.951092 3.529247 2.896667.265885.21084.307474.404182.210899.655215-.399524 1.0393-.55474 2.14426-.888141 3.202098-.1801.571364-.296685 1.185693.127722 1.716864.300687.376636.70491.5679 1.211972.547803.576839-.023042 1.15507-.00537 1.729473-.00537.208637.291918.146864.565646.053595.839548-.073606.215864-.16757.426184-.225342.64586-.290942 1.106865.25823 1.93983 1.385459 1.96703 1.825352.043831 3.652966.035862 5.478841.00156.906586-.016979 1.437313-.815122 1.290623-1.700407-.136075-.818585-.437284-1.588662-.62243-2.391828-.065774-.285683-.128244-.54607-.028885-.940205 1.32212.269744 2.664771.1852 3.94478.207029.222905.188664.182187.38114.138511.532557-.65497 2.264147-1.55964 4.42885-3.003218 6.303368-1.174385 1.524908-2.46466 2.964753-4.12714 4.016007-1.749311 1.106173-3.601461 1.368814-5.592818.811829-1.344044-.375943-2.510425-1.117261-3.726225-1.686546-.049592-.172726.010789-.271822.102665-.343893.86378-.67791.855254-1.601655.6233-2.5157-1.165859-4.59482-2.465705-9.154817-3.609987-13.755874-.163742-.658333-.355152-1.315974-.550912-1.967724-.095182-.31704-.099707-.618487-.102317-.932408l-.001566.00156z" fill="#5A3E35"/>
      <path d="M18.445038 66.52079c-1.67466.102387-3.338185-.00208-4.977-.35117-.724746-.154361-1.382326-.43346-1.933934-1.017471-1.742524-1.844893-3.234127-3.86996-4.55729-6.02219-1.698848-2.763268-2.982337-5.713121-3.895188-8.821494-.246048-.83799-.555784-1.663331-.656013-2.56213.456425.053187.484963.470189.713436.690904 1.532148 1.479864 2.9712 3.04635 4.66796 4.367002 1.558076 1.21272 3.23204 2.169728 5.056523 2.871026 1.282967.493057 2.629273.775274 4.015427.80542.463386.010047.926771.006929 1.39033.009874-.000522 2.466671-.00348 4.933342-.000174 7.39984.001044.880088-.067167 1.765893.175923 2.630388" fill="#1D6CAE"/>
      <path d="M52.03697 34.806776c-.30469.215864-.37499.508996-.366985.873505.022447 1.035835.007134 2.07219.006786 3.108373-1.414518-.511941-2.85531-.892389-4.378932-.814428-.488616.024947-.974623.108452-1.46324.12491-2.584378.087489-4.8893-.662664-6.886572-2.314042-1.311505-1.08417-2.62214-2.169728-3.935036-3.252166-.221165-.182428-.453119-.352035-.752762-.583665 1.172124-.712732 2.347727-1.27526 3.624082-1.634052 2.683738-.754658 5.266202-.353248 7.761837.730403 2.280907.990272 4.38537 2.297237 6.390821 3.761162" fill="#71CDDC"/>
      <path d="M7.34211 22.01503c-.53525-1.866028-.545691-1.873131.545692-3.461447 1.184304-1.72362 2.430033-3.400638 3.939907-4.864044.178185.37421.455555.540353.89023.530132 4.617323-.107586 9.240041.197846 13.854233-.173939-.094487.405742-.324004.774062-.303645 1.214452.01305.279618-.160089.476945-.390476.631134-1.606275 1.076202-3.128504 2.26432-4.643773 3.461447-.063861.050415-.153302.068605-.27476.120752-.35724-.918894-.504278-1.879368-.784084-2.800861-.156956-.517658-.243786-1.052468-.499057-1.546737-.251443-.486474-.63113-.634772-1.129143-.596485-.579798.044697-.821322.275287-1.00351.85081-.45277 1.430662-.781995 2.89372-1.16725 4.342227-.188452.708402-.390128 1.413338-.585888 2.119834-.555436.352381-1.170383.353767-1.802731.346837-1.793509-.019403-3.58754-.014726-5.381223-.000866-.434848.003292-.85473-.029798-1.264522-.173245" fill="#D7E8F2"/>
      <path d="M26.572137 14.045646c-4.614191.371958-9.23691.066353-13.854233.174112-.4345.010048-.712044-.155922-.890055-.530305 1.472462-1.712187 3.201936-3.143542 5.003623-4.49018 1.06128-.793292 2.142222-1.563369 3.328266-2.169728.001393.56738.369247.608438.81906.60636 2.533046-.010569 5.066092-.005025 7.599139-.004851.201502 0 .403526-.008663.604158.00485.185842.012647.211073.160253.219078.309417-.883443.216037-1.345785.772675-1.627679 1.646526-.473652 1.468257-.675328 3.003733-1.201357 4.453799m23.29449-6.044141c.304341-.202005.64679-.200272.994808-.19958 2.398886.004159 4.797945-.014205 7.196483.015073.516284.00641.91111-.070684 1.14463-.559583 1.229546.632693 2.337634 1.449892 3.429887 2.283723 1.633073 1.246503 3.187494 2.583266 4.535018 4.141783.016879.316-.00435.554386-.448073.539834-.926423-.030492-1.855804.02079-2.781008-.022696-.416404-.019403-.820104.268185-1.170732.139117-.465473-.17134-.91285-.116768-1.365273-.11902-2.578984-.013167-5.158143-.01178-7.737128-.001213-.435022.001733-.856645-.024427-1.265566-.175498-.35115-1.320997-.741625-2.63316-1.039702-3.966111-.207593-.928424-.674807-1.612397-1.493344-2.07583" fill="#BCD9EB"/>
      <path d="M52.399604 14.043532c.409095.150897.830544.17723 1.265566.175498 2.579158-.010741 5.158143-.012127 7.737128.001212.452422.002253.8998-.05232 1.365273.118847.350802.129068.754328-.15852 1.170905-.138943.92503.043485 1.854586-.00797 2.780835.022522.443896.014726.465125-.22366.448072-.539833.838549.882513 1.667179 1.774728 2.407238 2.740918 1.09817 1.433781 2.131782 2.912432 3.008787 4.493472.193671.34909.441982.67306.531249 1.07395-.476784.303006-.991155.41371-1.559293.371785-.48914-.036035-.983324-.019057-1.474899-.004678-.74789.021656-1.488471.017671-2.174588-.342333-.280676-.72538-.423538-1.487834-.616513-2.237294-.348888-1.354434-.953743-1.67823-2.405324-1.251873-.226212-.786535-.45312-1.57411-.678112-2.362204-.031148-.109145-.040718-.22522-.078827-.331245-.231257-.640663-.772425-1.051082-1.345784-1.027693-.531422.021655-1.010643.449918-1.184826 1.097337-.411182 1.5282-.808793 3.060037-1.214581 4.589623-.058641.221061-.132247.438311-.198022.654002-.303298.066007-.432064-.162158-.59337-.296943-2.060439-1.720848-4.172557-3.374824-6.3816-4.903717-.248658-.172206-.453988-.352555-.48357-.674272-.039326-.426877-.33862-.786708-.325744-1.228138" fill="#D7E8F2"/>
      <path d="M14.454303 27.01994c-.586236-.030144-1.153853.017152-1.69589.24497-.818537.343892-1.579304 1.442096-1.423392 2.165916.170529.790174.522374 1.538595 1.118355 2.084838.847423.776487 1.840665 1.326542 2.988427 1.594553.598242.139636 1.194222.206682 1.791769.149164.87857-.084544 1.6985-.36347 2.22157-1.134412.605203-.892042.44755-2.057811-.387344-2.9897-1.228154-1.370719-2.76152-2.096965-4.613495-2.115329m-5.53609-.274594c2.059742-.325529 4.042398-.83747 5.878017-1.74926.226908.129933.250747.339387.34767.502931.266581.449919.616339.69766 1.193004.684147 1.534932-.035515 3.071256-.005024 4.607057-.01438 1.01047-.006236 1.43714-.44091 1.315507-1.43915-.078304-.642395-.292509-1.269198-.455207-1.900505-.056553-.220022-.156782-.42913-.210899-.649498-.12807-.522162-.24048-1.048136-.35811-1.567353 1.430353-1.209081 2.909254-2.333792 4.508569-3.457463-.09675.840935-.36159 1.563195-.556133 2.286843-.883964 3.288028-1.764449 6.576576-2.608566 9.875173-.157826.616927-.31513 1.258802-.693077 1.818905-.218033.32345-.33601.723647-.311128 1.13961.025928.431901-.000348.854967-.167048 1.266079-.24222.597524-.176445 1.237147-.2062 1.97985-1.38337-.034821-2.741161.124911-4.107653-.222273-2.650328-.673752-4.567209-2.313176-6.134332-4.4512-.836808-1.141688-1.38163-2.44051-2.025637-3.68632-.056378-.108971-.066645-.217077-.015834-.416136" fill="#5A3E35"/>
      <path d="M18.445038 66.52079c-.24309-.864496-.174879-1.750301-.175923-2.630389-.003306-2.466498-.000348-4.933169.000174-7.39984 1.643166-.19802 3.222296-.618833 4.72608-1.31736.827238-.384431 1.618978-.831232 2.405672-1.288774.34297.864323.374119 1.76416.356718 2.68115-.027842 1.464098-.005569 2.929063-.008005 4.393508-.002088 1.168195.049245 2.33899-.173487 3.49627-1.722339.888577-3.562134 1.459075-5.444735 1.863083-.537513.115382-1.11122.250687-1.686494.202351" fill="#327BB7"/>
      <path d="M71.047432 45.862185c.744932-.879394 1.510222-1.742677 2.230793-2.641302 1.774368-2.21148 3.00896-4.689932 3.644266-7.456492.031844-.139289.084395-.27494.139382-.407127.018966-.045217.075171-.075188.168266-.163197.067863.628362.172269 1.212373.18619 1.79881.033235 1.412297.056726 2.826328.025579 4.238453-.067516 3.061943-.621212 6.051123-1.468113 8.988156-.654447 2.269517-1.555638 4.44375-2.611872 6.556133-.446333.892215-1.130883 1.53617-2.016588 1.981064-.030625-.444895.358806-.748767.356022-1.21272-.023317-3.65219-.020185-7.30438-.004176-10.956572.002088-.486993-.216467-.676004-.64975-.725206" fill="#94C5E0"/>
      <path d="M40.19393 28.93647c-.657928.000693-1.295322.154189-1.932194.286375-.228996.047643-.453815.043138-.679156.07363-.000174-5.563957-.000696-11.12774.000347-16.691696 0-.534116-.033235-1.05801-.364548-1.511914-.039848-.933967.414315-1.762601.584496-2.65343.078304-.410246.192627-.825169.30991-1.232296.246222-.85566.77051-1.494937 2.082363-.97364-.000522 7.567714-.00087 15.135256-.001218 22.702971" fill="#167970"/>
      <path d="M37.218362 11.092847c.331312.453904.364548.977799.364548 1.512088-.001044 5.563783-.000522 11.127566-.000348 16.691522-.436936.181735-.866912.38322-1.312374.541393-1.03135.36624-1.950465.939684-2.857051 1.527506-.34767-.200098-.683333-.35602-1.008033-.537927-.423364-.23752-.451379-.543818-.3468-.933621.300514-1.120206.605377-2.239373.905368-3.359925.497491-1.858753.990284-3.71889 1.489168-5.577297.60207-2.242144 1.20849-4.483076 1.81265-6.724701.265189-.983862.527768-1.96859.799048-2.950893.019663-.071377.101099-.125776.153824-.188145" fill="#085E53"/>
      <path d="M27.48236 14.90484c.042284-.79641.319306-1.539807.522722-2.300009.239784-.896546.466518-1.796557.711696-2.691544.136075-.496868.439373-.865015.945738-1.02163.209333-.064793.447899-.146218.617906.10083.157652.494616.172094 1.002226.171572 1.517285-.006264 5.469017-.002784 10.938035-.004872 16.40688-.000522.969655.07291 1.944508-.178185 2.899091-.827412-.225565-1.629593-.560103-2.506597-.575522-.034628-.00052-.068211-.079346-.102143-.121618-.012703-.458928.194542-.877489.19141-1.348544-.024188-3.60784-.002785-7.215853-.023144-10.823693-.003654-.649151-.133464-1.297956-.213508-1.945721-.004699-.036902-.086657-.064101-.132595-.095805" fill="#167970"/>
      <path d="M50.965232 12.48524c-.035324.379234.085786.747035.218729 1.073776.514196 1.26452.776601 2.605094 1.111916 3.910327.286245 1.113623.58554 2.241798.855775 3.362004.303472 1.256897.786346 2.49387 1.024042 3.768439.20359 1.092487.688553 2.091248.87596 3.181655.052725.306818.12198.61173.142862.924612-.46269.062022-.384908.412152-.385952.719143-.006264 1.98141-.01218 3.962993-.01827 5.944403-.370291-.03101-.614426-.30699-.884661-.499294-1.144282-.813734-2.285258-1.629548-3.510628-2.322357-.118152-.0667-.198892-.199232-.29686-.301274-.02436-.268011.233695-.464818.18793-.7382.631826.009702 1.263826.035862 1.895304.02564 1.206577-.019403 2.20678-1.194874 1.495432-2.537528-.322612-.608785-.794176-1.097164-1.427046-1.439324-.574055-.310283-1.19631-.460487-1.798903-.67739.17801-.46118.187755-.940378.186885-1.428064-.007134-4.02415-.004002-8.048299-.003828-12.072448 0-.23007-.012007-.46118.008352-.689517.01601-.182081.173835-.200099.32296-.204603" fill="#279A94"/>
      <path d="M71.047432 45.862185c.433282.049202.651837.238213.649749.725206-.016009 3.652191-.019141 7.304382.004176 10.956573.002784.463952-.386647.767824-.356022 1.21272-1.047359.73716-2.230097 1.12575-3.480002 1.34196.36507-3.579774.072387-7.169943.173139-10.753875.014442-.513327.02523-.984728-.64244-1.088849-.029582-.004504-.03602-.155748-.053248-.23856 1.201531-.435019 2.293263-1.061302 3.282329-1.866547.13242-.10776.23787-.255711.422319-.288628" fill="#8AC8DF"/>
      <path d="M50.286006 31.508509c.045938.273382-.212291.470189-.18793.7382-.461645-.022522-.750848-.38322-1.12166-.580547-.794873-.422892-1.566428-.88875-2.347553-1.336936.00087-1.89652.002262-3.793213.002436-5.689732.000522-2.988487.004872-5.977147-.008353-8.965634-.001044-.256577.174183-.584358-.180447-.770077-.01479-.632173.196456-1.218783.35898-1.817.30121-1.11085.562397-2.23331.892665-3.335151.135901-.45321.476785-.770943 1.017604-.748595.189322.460834.185841.943496.18532 1.431182-.00435 5.53104-.001915 11.06208-.001219 16.593119-.831588.371092-1.3517.950425-1.214407 1.916096.068907.483702.345407.875757.645747 1.263654.512282.660932 1.331863.83106 1.958817 1.301421" fill="#167970"/>
      <path d="M46.442534 14.903835c.35463.18572.179403.513327.180447.769904.013225 2.988486.008874 5.977147.008352 8.965807-.000173 1.89652-.001566 3.79304-.002436 5.689732-.642266-.229204-1.277224-.483009-1.92941-.679296-.487398-.146739-.953742-.352728-1.484642-.388763-.534556-.036209-.671848-.276847-.544822-.746862.64853-2.401184 1.313592-4.798037 1.957251-7.200434.504974-1.88422.994808-3.772423 1.471244-5.66392.070474-.279444.107886-.552133.344016-.746168m-18.960174.001005c.045938.031704.127896.058903.132595.095805.080044.647765.209854 1.29657.213508 1.945721.02036 3.60784-.001044 7.215853.023144 10.823693.003132.471055-.204113.889616-.19141 1.348544-.772251-.002599-1.54659.028586-2.316057-.01871-.579624-.035862-1.104956.281524-1.681448.187278l-.001566-.001732c.052377-.971389.4037-1.876597.638439-2.806233.408224-1.616555.847945-3.225314 1.278268-4.836151.576144-2.157428 1.157681-4.313296 1.729822-6.471763.031322-.117807.054117-.217424.174705-.266452" fill="#085E53"/>
      <path d="M48.895815 27.02739c-.000696-5.53104-.003133-11.062252.001218-16.593119.000522-.48786.004002-.970348-.18532-1.431182.6407-.222274 1.18848-.008835 1.3912.596832.318785.951811.69708 1.88751.862388 2.885405-.1493.004505-.306951.022522-.323134.204603-.020185.228338-.008353.459448-.008353.689345-.000174 4.024322-.003132 8.048471.004003 12.07262.00087.487687-.008875.966884-.186886 1.42789-.526724-.036208-1.049447-.032916-1.555116.147606m-18.62693 2.788336c.251095-.954583.177663-1.929436.178185-2.898919.002262-5.469017-.001392-10.938035.004872-16.407052.000696-.51506-.01392-1.02267-.171573-1.517285.610597.125083 1.060236.439524 1.134364 1.09214.092573.815467.386473 1.575322.627302 2.346265.131898.421853.150517.832272.156433 1.25655-.21577.077788-.183927.261428-.183927.429823-.000348 3.52832-.000348 7.05664.000174 10.58496 0 .167876-.034976.352555.181491.430862-.013224.337136-.035671.6592-.135552.999108-.369073 1.25759-.667498 2.535796-.995157 3.81764-.293553.017844-.57771.158173-.796612-.134092" fill="#208C85"/>
      <path d="M41.737492 10.407574c.007483.840935.416925 1.57948.619646 2.370693.456947 1.784257.957396 3.557426 1.45106 5.33198.22621.812696.3508 1.619327.032365 2.43618-.475566 1.219996-.772251 2.508077-1.076245 3.762029-.319132 1.316493-.872132 2.577028-1.020561 3.934581-.148952-.004331-.305212-.021829-.324179-.203737-.020707-.199232-.008352-.40193-.008352-.603241-.000348-5.40561-.000348-10.81122-.000174-16.216829 0-.201311-.010615-.403662.007308-.603414.016357-.18416.169137-.204257.319132-.208242" fill="#279A94"/>
      <path d="M41.737492 10.407574c-.149995.003985-.302775.024081-.319132.208242-.017923.199752-.007308.402103-.007308.603414-.000174 5.40561-.000174 10.81122.000174 16.216829 0 .201311-.012355.404009.008352.603241.018967.181908.175227.199406.324179.203737.056726.209107-.095183.354114-.16235.524934-.09936.012474-.155564.067566-.168267.16649l-1.21928.002078c.000522-7.567715.00087-15.13543.001218-22.702971.38369.306471.60642.68536.720919 1.179283.233694 1.007596.543081 1.997522.821495 2.994723" fill="#208C85"/>
      <path d="M7.34211 22.01503c.409791.143448.829674.176538 1.264522.173246 1.793683-.01386 3.587714-.018537 5.381223.000866.632348.00693 1.247295.005544 1.802731-.346837-.019837.546763-.31078 1.017471-.439372 1.53461-.064557.260214-.30817.416135-.528987.530824-1.987528 1.03185-4.10104 1.652243-6.371507 1.916963-.492618-1.25066-.861865-2.511715-1.10861-3.809671m60.56382.000831c.685942.360178 1.426523.36399 2.174587.342333.491401-.014206.98576-.031357 1.474899.004678.567965.041925 1.082335-.068779 1.559293-.371785.206026.373517.4037.75206.621037 1.119167.199066.336443.262928.689344.20968 1.072736-.077955.563915-.14721 1.128869-.215248 1.656748-.279632.209454-.548128.123351-.798004.128202-1.213712.023388-2.411763-.133919-3.60877-.316-.359501-.054746-.547257-.177404-.633391-.56097-.231606-1.031677-.518894-2.05088-.784084-3.075109" fill="#FEFEFE"/>
      <path d="M30.797367 7.969021c-.016183-.342853.212987-.34112.461471-.340081 1.186914.004504 2.374002.013513 3.560569-.002945.598068-.008316 1.207447.104813 1.790898-.155402.14147-.063234.262406.072937.31861.220889-.321916 1.296397-.6407 2.59366-.969229 3.888324-.050462.19854-.150691.365202-.409442.368494-.834025.010221-1.641425.235614-2.518952.369533-.217337-.773715-.47661-1.50204-.619471-2.252194-.188626-.990445-.733621-1.659346-1.614454-2.096618m11.255847-.322046c.666976.212919 1.355529.153149 2.038513.15592 1.123749.004332 2.247672-.002251 3.371595.004159.21403.001212.478002-.090434.585017.21569-.808792.38114-1.221541 1.049869-1.423392 1.89115-.186363.7777-.40631 1.547256-.616513 2.339162-.527247.097017-.978625-.186586-1.460978-.17082-.11067.003638-.228125-.090954-.333923-.077095-.913198.12006-1.238768-.367627-1.393288-1.183614-.202373-1.068232-.506714-2.117234-.767031-3.174552" fill="#BCD9EB"/>
      <path d="M64.544027 23.912087c.038804-1.061649.416403-2.048283.686464-3.058304.116934-.437619.236304-.87541.3776-1.305406.053594-.163024.183927-.323277.384733-.273902.174009.042792.283634.190744.294945.382527.012007.201138.01653.402623.024535.603934-.347495.187105-.184101.512634-.184797.771463-.010963 3.211627-.006265 6.423254-.005568 9.634708-.463038 0-.926075-.000173-1.389113-.000347-.001218-1.996135.00435-3.992271-.011832-5.988234-.002088-.255537.170702-.579507-.176967-.766439" fill="#167970"/>
      <path d="M25.225849 30.139557c.45799.680682.346103 1.451625.34941 2.203164.00435.96931-.01775 1.939485.009396 2.908101.012528.447667-.070126.835217-.37586 1.166983-1.057799-.880435-1.854933-1.960275-2.430902-3.20054-.35724-.769037-.233172-1.73956.347321-2.22482.594762-.497215 1.24399-.953197 2.100635-.852888" fill="#327BB7"/>
      <path d="M32.073635 25.965758c-.074998-.772156-.05899-1.095778-.05899-1.26348-.000521-3.52832-.000347-7.05664 0-10.58496 0-.168569-.032017-.352209.183754-.429996.224993.448186.425103.895333.543777 1.39532.281895 1.188811.630086 2.362724.969403 3.537502.162177.56149.128593 1.093526-.034975 1.654842-.40544 1.392202-.767205 2.797224-1.139062 4.199127-.06595.248435-.201154.669595-.463907 1.491645" fill="#279A94"/>
      <path d="M63.35043 23.754746c.038457.348916-.099184.66509-.18497.990965-.17053.646206-.374642 1.285829-.500276 1.94035-.085612.445761-.32296.560277-.718657.518005-.00087-2.28563.00435-4.571432-.010962-6.857062-.00174-.255364.17279-.581065-.179925-.765572.005916-.925998.338969-1.785816.58467-2.657241.090658-.321544.07117-.686573.29825-.975027.182536-.231629.41797-.241157.505322.031185.085613.267144.260491.521123.20011.825515-.214727.078307-.182187.261428-.18236.429476-.000349 2.030785-.000175 4.06157-.000349 6.092355 0 .170127-.02297.35013.189148.42705" fill="#167970"/>
      <path d="M67.017544 22.856207c.266756.353941.281199.79104.391172 1.195568.536991 1.975174 1.06389 3.953292 1.606276 5.92708.055334.201484.089614.385644.009222.640835-.720396.151763-1.46672.029798-2.206432.04539-.002262-.312881-.191583-.574829-.187407-.906594.02471-1.944682.012529-3.889884.012006-5.83474-.000174-.400023.068734-.774927.375163-1.067539" fill="#279A94"/>
      <path d="M61.75564 19.581467c.352716.184506.178185.510208.179925.765572.015313 2.28563.010093 4.571432.010963 6.857061-.547954.000693-1.096256.015593-1.643688-.001559-.556306-.017498-.6715-.168914-.538035-.674965.567095-2.150324 1.18674-4.28679 1.686841-6.454958.039327-.169607.092225-.39656.303994-.491151" fill="#085E53"/>
      <path d="M54.790363 35.369651c.005916-1.98141.011833-3.962993.018097-5.944403.001044-.306991-.076564-.65712.385952-.719143.240654.304393.261187.682934.356718 1.037222.414836 1.536515.823061 3.074936 1.259475 4.605215.130159.455809.04559.84388-.196282 1.219822-.342971.533423-.676546.609305-1.210405.259695-.212465-.139463-.469128-.226778-.613555-.458408" fill="#53D5D9"/>
      <path d="M18.101597 25.286393c-.517502.003811-1.0357.027892-1.551984.005717-.478177-.020443-.590934-.193342-.467214-.660759.553522-2.088649 1.112786-4.176085 1.669963-6.263868.484614.01334.333748.38166.33514.633212.011659 2.095233.010963 4.190465.014095 6.285698" fill="#085E53"/>
      <path d="M19.499793 18.188555c.361938.825688.526898 1.708548.7592 2.572177.37412 1.390816.759375 2.778687 1.154897 4.222516-.634958.55196-1.387895.267144-2.09437.274074-.002263-2.155522-.007657-4.311217-.00261-6.466739.000522-.20928-.11328-.47348.182883-.602028" fill="#279A94"/>
      <path d="M64.544027 23.912087c.34767.186932.174879.510902.176967.766439.016182 1.995963.010614 3.992099.011832 5.988234-.521504.001386-1.043879.021137-1.564339-.001559-.433456-.01871-.509498-.14258-.395348-.592673.479916-1.891669.960703-3.783164 1.46237-5.66929.045416-.171166.092573-.39933.308518-.49115" fill="#085E53"/>
      <path d="M18.101597 25.286393c-.003132-2.095233-.002436-4.190465-.014095-6.285698-.001392-.251552.149474-.619872-.33514-.633212.224297-.805246.452074-1.609799.66976-2.41695.044546-.164756.042631-.357752.277717-.350476.294771.009182.25997.242024.268148.435367.005742.141541.001566.283776.001914.425664-.293727.133572-.17453.397945-.174879.606706-.004698 2.734162.00087 5.468325.003654 8.20266l-.697079.015939z" fill="#167970"/>
      <path d="M67.017544 22.856207c-.306429.292612-.375337.667516-.375163 1.06754.000523 1.944855.012703 3.890057-.012006 5.834739-.004176.331765.185145.593712.187407.906594l-.695687.002079c-.000696-3.211627-.005568-6.423081.005394-9.634708.00087-.25883-.162698-.584358.184798-.771463.39935.820664.562222 1.705256.705258 2.59522" fill="#208C85"/>
      <path d="M33.369774 13.27763c.727183-.208587 1.356225-.370225 2.127954-.227298-.196804 1.459941-.710478 2.819573-1.119573 4.215932-.3381-1.317706-.887097-2.56802-1.008381-3.988633M44.55459 17.28021c-.369594-1.382153-.739015-2.764133-1.115918-4.17314.778167-.266278 1.423392-.00589 2.150923.134439-.011137 1.42893-.634088 2.689811-1.035004 4.038701" fill="#5A3E35"/>
      <path d="M63.35043 23.754746c-.212116-.076921-.189147-.256924-.189147-.42705.000174-2.030786 0-4.061571.000348-6.092356.000174-.168048-.032366-.351169.182361-.429476.453293 1.124884.650445 2.32461 1.016386 3.475134.016357.0518.018967.120925-.00174.169434-.456947 1.065114-.471564 2.2638-1.008207 3.304314m-44.551685 1.515656c-.002958-2.734162-.008352-5.468324-.003654-8.20266.000174-.208588-.153998-1.146713.139729-1.280285.38543 1.08781.522026 2.10788.78304 3.017419-.362635-.389803-.400569-.223487-.400917-.014206-.005046 2.155522.000174 4.311044.00261 6.466739a20847.11452 20847.11452 0 0 1-.520808.012993" fill="#208C85"/>
      <path d="M44.053637 41.071528c-.144428.021136-.291291.02183-.423712.066007-.30382.101175-.383167.328647-.229866.603588.31687.568418 1.423392 1.036528 2.022505.855486.337403-.101868.447899-.368493.241524-.65764-.391172-.54763-.968707-.76869-1.610451-.86744m-.071344-.867268c.877526-.03465 1.628374.237693 2.238623.88667.393086.418216.665758.877317.508106 1.46254-.19054.707016-.811055.958222-1.422522 1.095086-.851251.190917-2.503465-.476945-2.948927-1.716518-.342972-.954063.44929-1.713919 1.105304-1.727259.173138-.003464.346451-.00052.519416-.00052m-29.58195-12.310555c-.213161.024774-.416925.032223-.613033.073975-1.511267.321025-1.878077 1.278033-.9306 2.502707.776254 1.003612 1.862765 1.510355 3.083263 1.766412.571967.12006 1.142715.12387 1.712942-.00849 1.115919-.259348 1.50361-1.201284.894928-2.178216-.06073-.097538-.131725-.18953-.2062-.277713-1.03135-1.221555-2.394536-1.746142-3.9413-1.878675m.053942-.873678c1.851976.018364 3.385342.744436 4.613496 2.115329.834894.931715.992546 2.097485.387344 2.989526-.52307.771116-1.343 1.049869-2.22157 1.134586-.597547.057517-1.193527-.009529-1.79177-.149165-1.147762-.26801-2.141004-.818239-2.988253-1.594552-.596154-.546244-.948-1.294665-1.118529-2.085011-.155911-.723647.604855-1.821851 1.423393-2.165917.542037-.227818 1.109654-.275114 1.69589-.244796m37.152604 3.670139c.204808-.020616.412052-.015246.604506-.06566.69708-.182428.895971-.683974.5222-1.314761-.101099-.170647-.231083-.332805-.37725-.466724-.758505-.694195-1.65378-1.024401-2.687567-.951984-.385778.027026-.775035.115728-.938603.5012-.17401.410418-.00522.78359.283808 1.103747.693773.768518 1.57217 1.132853 2.592905 1.194182m-2.711057-3.662759c.50567-.180522 1.028392-.183813 1.554943-.147605.602592.216903 1.225022.367107 1.798903.677564.63287.341986 1.104608.830539 1.42722 1.43915.711174 1.342828-.289029 2.518126-1.495432 2.537703-.631478.010048-1.263652-.015939-1.895478-.02564-.62678-.470363-1.446535-.64049-1.958817-1.301422-.30034-.387897-.57684-.779951-.645747-1.263653-.137293-.965671.382994-1.545005 1.214408-1.916097" fill="#05295C"/>
      <path d="M44.053637 41.071528c.641744.09875 1.21928.319812 1.610451.867441.206375.289147.095879.555772-.241524.65764-.599113.181042-1.705635-.287068-2.022505-.855486-.153301-.274941-.073953-.502413.229866-.603588.13242-.044178.279284-.04487.423712-.066007M14.400343 27.893705c1.546764.132532 2.90995.65712 3.9413 1.878675.074475.088182.14547.180176.2062.277713.608683.976932.22099 1.918868-.894928 2.178217-.570227.13236-1.140975.128548-1.712942.008489-1.220498-.256057-2.30701-.7628-3.083262-1.766412-.947478-1.224674-.580668-2.181682.930599-2.502706.196108-.041753.399872-.049202.613033-.073976" fill="#AACFE6"/>
      <path d="M51.60689 30.690166c-1.020736-.061329-1.899133-.425664-2.592906-1.194182-.289029-.320158-.457817-.693329-.283808-1.103748.163568-.385471.552825-.474173.938603-.5012 1.033786-.072416 1.929062.25779 2.687566.951985.146168.13392.276152.296077.377251.466724.373771.630787.17488 1.132333-.5222 1.31476-.192454.050415-.399698.045045-.604507.065661" fill="#BCD9EB"/>
    </g>
  </g>
</svg>
