<svg width="80" height="80" xmlns="http://www.w3.org/2000/svg">
  <g fill="none" fill-rule="evenodd">
    <circle fill="#000" cx="40" cy="40" r="40"/>
    <path d="M54.389375 42.8455v2.4838c2.889688-.00825 5.779922-.01485 8.66961-.01485 2.318202 0 3.738437-1.2397 4.766562-2.46895H54.389375zm0 4.69755v2.47005l1.446484-.00055c2.317657 0 3.737891-1.2397 4.766563-2.4695h-6.213047zm-28.77875-4.69755H12.175c1.028125 1.22925 2.448906 2.46895 4.766562 2.46895 2.889141 0 5.779375.00715 8.669063.01485v-2.4838zm0 4.6981h-6.213047c1.028672 1.22925 2.448906 2.46895 4.766563 2.46895l1.446484.00055v-2.4695z" fill="#FFF"/>
    <path d="M40 51.9205h-.444063V60l-2.751874-2.93645V51.9205H36.0275v4.3142l-2.488281-2.6543-.599922-3.5673h-6.825v-9.23395c-5.449063-.0066-10.897578-.03135-16.347734-.03135-2.317657 0-3.738438-1.2397-4.766563-2.4695h23.079219c-.214922-5.7783 1.43664-9.94235 4.066015-13.02565-1.037968 3.3242-.61414 6.1204.471407 8.5822C31.828047 26.4511 38.806719 24.5811 36.866406 16c3.890469 1.9635 5.597266 6.21225 4.484375 13.41065 2.582344-2.0724.042657-7.1687 3.89539-11.2651.283829 5.73485 5.6525 9.955 1.888907 15.68985 1.928281.10065 3.299297-1.7809 3.540469-3.75485 1.140234 2.03885 1.785 4.5232.728984 8.19775H75c-1.027578 1.22925-2.44836 2.4695-4.766563 2.4695-5.450156 0-10.898124.02475-16.347187.03135v9.23395h-6.825547l-.599922 3.5673-2.488281 2.6543v-4.3142h-.776562v5.14305L40.444063 60v-8.0795H40zm0-4.78995l-1.659219 3.95395L40 50.28535l1.658672.79915L40 47.13055zm1.140234-.4543c-1.127109 2.4838 4.20875.33275 6.27211 0 .860781-.1386 1.864297-.58135 2.221953-1.37005.547422-1.2056 1.514844-4.17505.197969-3.96275-3.363828.5423-7.564375 2.84845-8.692032 5.3328zm-2.279922 0c-1.127109-2.48435-5.32875-4.7905-8.69203-5.3328-1.316876-.2123-.349454 2.75715.197968 3.96275.357656.78815 1.360625 1.2309 2.221953 1.37005 2.062813.33275 7.399219 2.48435 6.27211 0z" fill="#CC1433"/>
  </g>
</svg>
