<svg width="80" height="80" viewBox="0 0 80 80" xmlns="http://www.w3.org/2000/svg">
  <title>
    crb-creditbit
  </title>
  <g fill="none" fill-rule="evenodd">
    <path d="M76.578433 40.439263C76.8553 20.235393 60.693825 3.65364 40.451983 3.373456 20.230783 3.09364 3.64977 19.230783 3.36 39.472626 3.069493 59.719632 19.223963 76.318342 39.485346 76.59226c20.249585.273917 36.814746-15.872074 37.093087-36.152995m-36.602028 39.50857C17.897143 79.951522-.004793 62.044055.004055 39.96332.012903 17.908756 17.904515.021935 39.960922.018248 62.039447.014563 79.94212 17.92203 79.933272 40.002398c-.008848 22.0553-17.90046 39.94175-39.956867 39.945437" fill="#FFF"/>
    <path d="M50.65751 39.980424c-.001473-5.92295-4.811427-10.721106-10.759077-10.733272-5.88387-.011797-10.712258 4.809585-10.727004 10.711152-.01475 5.921106 4.80811 10.756867 10.73216 10.760553 5.929213.004055 10.75539-4.815484 10.75392-10.738433zm16.948942-10.8494c-3.959447-10.712996-16.13235-20.778618-31.90378-18.575485-14.851242 2.07447-25.98009 15.31723-25.462856 30.2293.531244 15.330506 12.315207 27.74378 27.430046 28.847925 15.587465 1.138802 26.549677-9.345253 29.90083-18.75834-.14673-.01364-.283872-.037973-.421015-.037973-3.969032.000737-7.938433-.003318-11.907465.023226-.230783.001474-.524977.199447-.680922.393732-3.278525 4.080736-7.485714 6.484054-12.706728 7.044054-12.41069 1.331612-22.644055-10.02212-19.864332-22.188757 1.69954-7.43889 6.392996-12.30451 13.827097-14.01548 7.469862-1.719447 13.76553.649954 18.671337 6.573272.283133.342487.55447.476312.994285.4741 3.82488-.016958 7.64977-.009585 11.47465-.009585h.64885zm8.972165 11.308386c-.27834 20.280922-16.84387 36.426913-37.093087 36.152995C19.22378 76.31812 3.069677 59.71941 3.359816 39.472775c.290138-20.241844 16.871152-36.378987 37.09198-36.09917C60.69401 3.65342 76.855484 20.23517 76.578616 40.43941z" fill="#2D3E4F"/>
    <path d="M67.606304 29.13095h-.648848c-3.824885 0-7.64977-.007374-11.474654.009585-.439447.002212-.710784-.131613-.994286-.474102-4.905806-5.923318-11.201474-8.29235-18.671336-6.573272-7.434102 1.71097-12.127558 6.57696-13.827097 14.01549-2.779723 12.16663 7.45364 23.520736 19.864332 22.18875 5.221382-.56 9.42857-2.963313 12.706728-7.04405.155945-.194286.450138-.39226.68092-.393733 3.969402-.026544 7.938435-.02249 11.907836-.023226.13714 0 .27428.02433.42064.03797-3.35115 9.413454-14.313368 19.89751-29.90083 18.75834-15.11447-1.10415-26.8988-13.51742-27.43005-28.84793-.516864-14.9117 10.611616-28.154832 25.46286-30.229305C51.47395 8.3527 63.64722 18.417955 67.6063 29.13095" fill="#FFF"/>
    <path d="M50.65751 39.980424c.001476 5.92295-4.8247 10.742488-10.753916 10.738433-5.924055-.003687-10.746912-4.839447-10.732165-10.760553.01474-5.901567 4.84313-10.72295 10.727-10.711152 5.94765.012166 10.7576 4.810323 10.75908 10.733272" fill="#FFF"/>
  </g>
</svg>
