<svg width="80" height="80" viewBox="0 0 80 80" xmlns="http://www.w3.org/2000/svg" xmlns:xlink="http://www.w3.org/1999/xlink">
  <title>
    crc-crowdcoin
  </title>
  <defs>
    <path id="a" d="M.000012 0H46.97757v55.778588H.000012z"/>
  </defs>
  <g fill="none" fill-rule="evenodd">
    <circle fill="#FBAA00" cx="40" cy="40" r="40"/>
    <g transform="translate(14 12)">
      <mask id="b" fill="#fff">
        <use xlink:href="#a"/>
      </mask>
      <path d="M31.913838.046447h5.435945c.03211.295294.083995.557882.085159.82047.007213 1.646824.017217 3.294118-.006283 4.940707-.006514.449882.130995.72047.529332.934352.441614.237177.83902.559295 1.25597.843295.250822.170588.502342.339529.859263.580705.02094-.321411.045604-.524705.045836-.727764.00256-2.215294-.000232-4.43106.003956-6.646353.000465-.227059.03653-.454353.054213-.656706.485124-.155765 4.7349-.187294 5.465262-.04.02094.233647.064218.494353.06445.755294.004189 4.391765.006748 8.78353-.002559 13.175294-.00093.424706.07911.796941.289213 1.170588.306198.543765.560045 1.117883.826223 1.683765.064683.137412.090742.293647.157752.519059-.212663.042588-.389495.108235-.566326.108706-2.985664.006353-5.971327-.000706-8.95699.011059-.373906.001647-.612862-.172236-.845302-.426118-.950704-1.037882-1.973303-1.992941-3.157144-2.759059-1.862084-1.20447-3.862144-2.081647-6.03345-2.513647-1.798565-.357647-3.60504-.389647-5.43013-.108706-2.744613.422353-5.106014 1.614588-7.230786 3.384-2.178055 1.813883-3.704624 4.097647-4.761426 6.703294-.670565 1.653412-1.018411 3.393412-1.087515 5.19953-.036064.942353-.017218 1.876.044673 2.809882.08097 1.216941.376 2.396235.78062 3.542588.875781 2.481412 2.332549 4.573412 4.162757 6.434353 1.41349 1.436941 3.003113 2.585883 4.85054 3.36447 1.511445.636942 3.076638 1.02 4.724895 1.096942 1.596837.074353 3.172268-.004706 4.716753-.420235 2.374198-.638353 4.511534-1.756 6.396886-3.352706.57889-.490118 1.12544-1.01953 1.711544-1.499765.179391-.147059.440916-.269647.665679-.270823 3.082455-.017647 6.165143-.013177 9.247831-.009177.147282.000235.294332.045647.509787.081412-.05398.192-.074222.341412-.136346.470823-.244772.510589-.52654 1.004471-.745718 1.525883-.10098.240235-.123084.529412-.12355.796235-.00698 4.450588-.004188 8.901177-.006282 13.35153 0 .249176-.022104.498117-.032807.726588-.465812.14847-4.759797.183059-5.496906.047059-.01838-.204471-.055376-.428942-.055841-.653412-.004188-2.235059-.001396-4.470353-.00349-6.705412-.000233-.20447-.020708-.409176-.036995-.710588-.266644.178588-.43859.292235-.608906.40847-.401129.274353-.778292.597412-1.207807.814353-.657535.332-.876015.80306-.846466 1.548236.060495 1.526823.021174 3.057882.01652 4.587059-.000698.228-.036762.456-.054445.66-.491639.161647-4.857287.181882-5.515753.02v-3.631765c-.260361 0-.438356-.042353-.587034.006353-1.539832.503764-3.139693.710117-4.733738.850117-1.715267.150118-3.445426.130589-5.163485-.104-2.512406-.342823-4.928253-1.012235-7.212639-2.140235-2.049153-1.012235-3.937064-2.27247-5.620688-3.826353-1.837886-1.696235-3.505223-3.549412-4.832391-5.69153-1.156619-1.867058-2.096153-3.834352-2.697614-5.960705-.496525-1.755294-.83646-3.530118-.954193-5.359294-.13146-2.042353-.062124-4.062118.227555-6.088236.552599-3.86494 2.00797-7.349176 4.279094-10.479529 1.953757-2.692706 4.317485-4.973647 7.112821-6.768941 1.904431-1.223059 3.93846-2.153177 6.124426-2.767059 2.62409-.736941 5.292154-1.00353 7.99256-.850588 1.794608.101412 3.586425.332235 5.321005.866353.147747.045647.301311.074117.453247.104235.034668.006824.074455-.01247.190327-.034824.02443-.174823.074455-.375058.07655-.576.009073-.823058-.000699-1.646588.005816-2.469647.001629-.208.038624-.415764.066545-.693882" fill="#FFF" mask="url(#b)"/>
    </g>
  </g>
</svg>
