<svg width="80" height="80" viewBox="0 0 80 80" xmlns="http://www.w3.org/2000/svg" xmlns:xlink="http://www.w3.org/1999/xlink">
  <title>
    crea-creativechain
  </title>
  <defs>
    <path id="a" d="M0 .00728h79.991833v79.904966H0z"/>
  </defs>
  <g fill="none" fill-rule="evenodd">
    <g transform="translate(0 .080439)">
      <mask id="b" fill="#fff">
        <use xlink:href="#a"/>
      </mask>
      <path d="M57.448711 21.983763c-2.604961-1.714035-5.16303-3.397193-7.736377-5.090438-.108277.152017-.18696.25535-.258178.363508-.763732 1.15921-1.534138 2.31421-2.28303 3.482895-.162107.252895-.294533.308421-.591174.206754-2.90819-.996666-5.890319-1.32421-8.946652-.941754-4.153678.519737-7.800835 2.158684-10.945247 4.91921-.115566.101404-.271.157369-.448562.257545.24079.177105.319473.240701.403688.29614 1.965488 1.294737 3.937124 2.580263 5.891636 3.891403.29585.19851.48237.17351.766454-.005087 2.723688-1.712018 5.683161-2.326492 8.85866-1.795614 6.770143 1.131578 11.341647 7.489473 10.301208 14.299824-1.036136 6.782456-7.447552 11.474386-14.280658 10.450526-6.981954-1.04614-11.725928-7.64193-10.478859-14.577543.046982-.26114.008694-.422193-.232448-.579036-1.801273-1.17193-3.591657-2.360701-5.386432-3.542543-.288562-.19-.582657-.371667-.954029-.60807-2.461734 7.867543-.982832 14.804649 4.441537 20.91956a383404.632207 383404.632207 0 0 1-2.71877 4.130966c2.593545 1.704386 5.162502 3.392631 7.756487 5.09728.130055-.195526.22674-.339385.32202-.484298.75495-1.147456 1.515258-2.291579 2.260197-3.445614.163074-.252631.29989-.347193.626213-.237368 2.26652.762456 4.598376 1.088245 6.990648.979912 5.254533-.237895 9.765357-2.184474 13.490406-5.896579 7.02033-6.995965 7.82033-18.206491 1.876356-26.138158-.462086-.616666-.968343-1.200526-1.457124-1.80342.904061-1.373247 1.803293-2.739124 2.73203-4.15M39.93161.00736C62.078964.00692 79.973936 17.824553 79.991851 39.892974c.01809 22.334386-18.07763 40.078596-39.968738 40.019123C17.631104 79.851307-.103868 62.048586.000457 39.70078.105308 17.237535 18.471324-.036588 39.931609.00736" fill="#000" mask="url(#b)"/>
    </g>
    <path d="M57.448711 22.064202c-.928737 1.410877-1.827969 2.776754-2.73203 4.15.488781.602895.995038 1.186754 1.457124 1.80342 5.943973 7.931667 5.143973 19.142194-1.876356 26.138159-3.72505 3.712105-8.235873 5.658684-13.490406 5.896579-2.392272.108333-4.724128-.217456-6.990648-.979913-.326323-.109824-.46314-.015263-.626213.237369-.74494 1.154035-1.505247 2.298158-2.260197 3.445614-.09528.144912-.191965.288772-.32202.484298-2.593985-1.70465-5.162942-3.392895-7.756487-5.09728a383404.632207 383404.632207 0 0 0 2.71877-4.130966c-5.424369-6.114912-6.903271-13.052017-4.441537-20.91956.371372.236403.665467.41807.954029.60807 1.794775 1.181841 3.585159 2.370613 5.386432 3.542543.241142.156842.27943.317895.232448.579035-1.247069 6.935614 3.496905 13.531404 10.478859 14.577544 6.833106 1.02386 13.244522-3.66807 14.280658-10.450526 1.04044-6.810351-3.531065-13.168246-10.301207-14.299825-3.1755-.530877-6.134973.083597-8.858661 1.795614-.284084.178597-.470604.203597-.766454.005088-1.954512-1.31114-3.926148-2.596667-5.891636-3.891404-.084215-.055438-.162898-.119035-.403688-.29614.177563-.100175.332996-.15614.448562-.257544 3.144412-2.760526 6.79157-4.399474 10.945247-4.91921 3.056333-.382456 6.038463-.054913 8.946652.941754.29664.101667.429067.04614.591174-.206754.748892-1.168685 1.519298-2.323685 2.28303-3.482895.071218-.108158.149901-.211491.258178-.363509 2.573348 1.693246 5.131416 3.376404 7.736377 5.090439" fill="#FFF"/>
  </g>
</svg>
