<svg width="80" height="80" viewBox="0 0 80 80" xmlns="http://www.w3.org/2000/svg">
  <title>
    credo-credo
  </title>
  <g fill="none" fill-rule="evenodd">
    <circle fill="#000" cx="40" cy="40" r="40"/>
    <path d="M45.144842 19.61897c.05614-.569794.09544-.963622.141755-1.424484h4.858947c0 2.473293.018245 4.87676-.026667 7.27743-.00421.258363-.32.639622-.581052.742967-1.372632.537672-2.773334 1.005517-4.242807 1.525034-.124913-1.689827-.533334-3.11012-2.40421-3.483-2.110878-.420362-4.501054.44969-5.493334 2.286155-.574035 1.06557-.97544 2.349-1.017544 3.550035-.126316 3.70924-.04772 7.42407-.03649 11.1375.002806.4455.094034.888207.127718 1.335103.09263 1.215.655438 1.671673 1.88351 1.26388 3.487718-1.157742 6.986665-2.286155 10.481402-3.42295.37614-.122895.75649-.231826 1.305263-.398016 0 1.70938.02807 3.305638-.029473 4.89631-.009825.25976-.353685.631242-.625965.73738-4.593684 1.783396-9.089123 3.886603-14.078597 4.411707-2.068772.21787-3.305263-.46365-3.917193-2.44536-.414035-1.34907-.67649-2.79869-.689123-4.20781-.042105-4.87257-.08842-9.75491.141755-14.6191.223158-4.75805 3.469474-8.68376 7.687017-9.80938 2.214737-.592135 4.356492-.333773 6.515088.646606m5.003508 30.64984c0 1.643743.02386 3.336363-.02386 5.02619-.007016.276518-.273683.70945-.51649.791846-5.122807 1.74988-10.258246 3.460655-15.607018 5.249638 0-1.892328-.025263-3.61707.026667-5.33762.00701-.262553.31859-.663363.57403-.74995 5.094734-1.712172 10.2007-3.386637 15.306664-5.06669.030877-.009775.077193.026536.24.086587" fill="#FFF"/>
  </g>
</svg>
