<svg width="80" height="80" viewBox="0 0 80 80" xmlns="http://www.w3.org/2000/svg">
  <title>
    crpt-crypterium
  </title>
  <g fill="none" fill-rule="evenodd">
    <circle fill="#000" cx="40" cy="40" r="40"/>
    <g fill="#FFF">
      <path d="M54.189 22.773412l-1.463467 1.47247c-3.6554-3.048706-8.147066-4.62494-12.8478-4.62494-10.654233 0-19.4285 8.30447-20.160233 18.92141h-2.089033c.731733-11.878587 10.4468-21.024705 22.249266-21.024705 5.2234 0 10.2361 1.89247 14.309634 5.255765H54.189z"/>
      <path d="M39.877733 24.98047c4.788974-.000994 9.29065 2.30364 12.116067 6.202824l1.463467-1.470823c-3.214058-4.298387-8.24103-6.828117-13.579534-6.833648-9.401466 0-17.025866 7.675295-17.025866 17.030589 0 9.459059 7.6244 17.132706 17.025866 17.132706 5.327934 0 10.340634-2.523294 13.579534-6.832l-1.463467-1.47247c-2.825416 3.899182-7.327093 6.203817-12.116067 6.202823-8.2516 0-14.936833-6.728236-14.936833-15.032706 0-8.19906 6.685233-14.925647 14.936833-14.925647v-.001647zm15.982167-.629176l-1.463467 1.470824c.522667.527058.9408 1.050823 1.358934 1.576235l1.461833-1.470824c-.418133-.527058-.836267-1.050823-1.3573-1.576235z"/>
      <path d="M17.525567 41.380235c.7301 11.878588 10.445166 21.02306 22.247633 21.02306 5.2234 0 10.340633-1.892471 14.309633-5.255766L52.621 55.676706c-3.6554 3.047059-8.147067 4.624941-12.8478 4.624941-10.654233 0-19.4285-8.30447-20.160233-18.921412h-2.089034.001634zm36.870866 12.718589l1.463467 1.47247c.522667-.527059.939167-1.05247 1.3573-1.577882l-1.461833-1.470824c-.418134.525412-.836267 1.050824-1.358934 1.576236z"/>
      <path d="M39.877733 65.348235c-13.8915 0-25.277466-11.458588-25.277466-25.44047 0-13.980236 11.384333-25.437177 25.277466-25.437177 7.5215 0 14.623234 3.364941 19.4285 9.25153l1.461834-1.47247c-5.221767-6.309883-12.8478-9.882354-20.890334-9.882354-15.039733 0-27.3665 12.298588-27.3665 27.54047 0 15.136471 12.2206 27.542118 27.3665 27.542118 8.147067 0 15.668567-3.574117 20.890334-9.882353l-1.461834-1.470823c-4.805266 5.992-11.907 9.249882-19.4285 9.249882v.001647z"/>
    </g>
  </g>
</svg>
