<svg width="80" height="80" viewBox="0 0 80 80" xmlns="http://www.w3.org/2000/svg" xmlns:xlink="http://www.w3.org/1999/xlink">
  <title>
    crw-crown
  </title>
  <defs>
    <path id="a" d="M0 33.975664V0h59.82085v33.975664z"/>
  </defs>
  <g fill="none" fill-rule="evenodd">
    <circle fill="#0B0E1C" cx="40" cy="40" r="40"/>
    <g transform="translate(10 23)">
      <mask id="b" fill="#fff">
        <use xlink:href="#a"/>
      </mask>
      <path d="M29.928385 28.292235c-2.3725.048183-4.732693.209246-7.058077.661932 2.325384-.45288 4.685577-.613943 7.058077-.662903 3.9325.03128 7.76577.62055 11.499615 1.79423-3.733846-1.17368-7.567115-1.762756-11.499615-1.79326m29.771154-17.92616c-.2502-.250627-.54308.04702-.78616.16184-3.11943 1.47424-6.36327 2.572733-9.76596 3.105853-3.39846.532343-6.60827.103166-9.49808-2.034366-2.09673-1.55059-3.75962-3.49733-5.42443-5.46448-.299615-.35418-.517115-1.00329-1.20269-.49601-1.00673.74509-1.361347 1.52631-.927694 2.17367 1.103077 1.64657 2.530577 3.00036 3.941347 4.36211 3.110192 3.00172 6.803077 4.5698 11.1325 4.3759 1.756346-.07868 3.50577-.33708 5.21904-.78297.267114-.06955.60596-.25801.814806.00447.248465.312415-.05327.615306-.21038.870015-2.658847 4.307896-5.332886 8.606273-7.99423 12.91281-.448463.72585-.95.99319-1.83327.66368-4.309616-1.608103-8.76904-2.397097-13.651347-2.305394-2.68404-.115406-5.59923.2992-8.48904.90712-.64942.136583-1.618843.07033-1.39173 1.264217.281926 1.480847.599426 1.731087 1.97827 1.49328.598656-.10336 1.185387-.276662 1.78423-.378856 4.17135-.710503 8.34981-.749554 12.5275-.06839 2.792887.455407 5.506157 1.20671 8.07654 2.42022 1.34096.633176 1.332117.65377 2.10269-.59607 2.82654-4.585337 5.65231-9.170674 8.48404-13.75271 1.64308-2.65841 3.302887-5.30672 4.93596-7.971347.15058-.24558.47577-.56615.17808-.864574m-49.565 12.04765c-1.16327-1.971224-2.38173-3.909224-3.565385-5.868207-.145578-.240914-.34269-.526903-.154424-.809783.210384-.315717.52596-.108026.795-.05848 1.037692.19059 2.07058.40994 3.111346.582854 4.85981.807458 9.10039-.4556 12.795198-3.77536 2.975384-2.67337 5.27846-5.88005 7.4775-9.18252.792115-1.18961.755576-1.41615-.089616-2.57817-.70923-.975315-.837884-.982504-1.45673.0816-1.8875 3.24496-4.01673 6.294273-6.706923 8.930148-2.649424 2.59585-5.61654 4.292743-9.46577 4.182-3.094423-.089177-6.00154-.90615-8.87577-1.91585-1.34077-.47096-2.62596-1.103163-3.979423-1.68078-.101153.562266.213462.83854.405 1.15037 1.14654 1.868252 2.31173 3.724846 3.460962 5.59135 3.3125 5.379382 6.61827 10.762844 9.9323 16.141256.55327.8976.70788.88089 2.05673.11152.75404-.42996.26096-.8842.04904-1.29414-1.72154-3.32967-3.88827-6.38695-5.78904-9.60782" fill="#0793AF" mask="url(#b)"/>
    </g>
  </g>
</svg>
