<svg width="80" height="80" viewBox="0 0 80 80" xmlns="http://www.w3.org/2000/svg" xmlns:xlink="http://www.w3.org/1999/xlink">
  <title>
    cs-credits
  </title>
  <defs>
    <path id="a" d="M0 .000038h28.910103v55.907568H0z"/>
  </defs>
  <g fill="none" fill-rule="evenodd">
    <circle fill="#000" cx="40" cy="40" r="40"/>
    <g transform="translate(25 11)">
      <mask id="b" fill="#fff">
        <use xlink:href="#a"/>
      </mask>
      <path d="M13.356164 14.59695c-.590934.169436-.970074.251043-1.329484.385778-2.47427.92783-4.139155 2.737539-5.276811 5.06106-1.97723 4.037983-2.034754 8.285846-1.18686 12.594017.570966 2.900513 1.891893 5.42171 4.250639 7.238598 1.031877.795488 2.273172 1.315282 3.542516 2.029641V14.59695zm.015688 29.796787C4.513066 41.723207.050632 36.226352.000239 27.992437c-.024008-3.949675 1.079418-7.55306 3.542992-10.664649 2.464762-3.112547 5.780032-4.75306 9.668172-5.382462.128123-2.475008.724286-4.768376 1.882623-6.890632C16.517877 2.445668 18.568795.627583 21.55627.080027c2.658492-.487248 5.576796 1.309778 6.240943 3.80465.346336 1.30188-.065606 2.396034-1.117213 2.966803-1.019041.55306-2.268656.299624-3.003164-.609299-.76018-.940752-.719533-2.08564.11291-3.166872.114098-.147897.23105-.29364.348238-.442256-1.806795-1.198496-3.296254-.979043-4.466714.675111-1.257934 1.777641-1.618057 3.875009-1.902827 5.968308-.330886 2.430256-.287148 2.42188 2.073024 2.912478 2.311205.480547 4.54159 1.217641 6.290623 2.878257.502984.477675.768262 1.3227.908984 2.045436.187549.962051.217262 1.972205.17495 2.955555-.022106.51477-.200147 1.25306-.559795 1.47371-.714303.437948-1.24272-.140479-1.588582-.783043-.545532-1.014462-1.010245-2.079419-1.624237-3.049128-1.317836-2.080137-3.533484-3.247282-5.845877-3.202052v27.429231c2.220877-.28718 4.102787-.84694 5.791205-1.899213 1.170696-.729436 2.229434-1.642189 3.32977-2.48482.586418-.448958 1.184721-.939078 1.874066-.243625.666049.672.140721 1.27029-.271221 1.785778-2.432435 3.043145-5.70064 4.629812-9.44782 5.220205-1.036631.163453-1.213721.646393-1.359197 1.504103-.582615 3.434188-1.85695 6.513709-4.783098 8.631658-3.035968 2.196923-6.64005 1.886769-8.72805-.781846-.445696-.569573-.77468-1.310018-.92182-2.021026-.261-1.261436.347763-2.268957 1.427419-2.703556.972926-.39176 2.13768-.073948 2.779721.758154.670803.870154.669853 2.015522-.011647 2.99624-.132877.191452-.294754.362324-.442845.54253 1.61473 1.309299 3.345222 1.030495 4.534935-.782804 1.304762-1.98824 1.601418-4.296205 1.902352-6.590051.061566-.469539.066082-.946496.10055-1.474906z" fill="#FFF" mask="url(#b)"/>
    </g>
  </g>
</svg>
