<svg width="80" height="80" viewBox="0 0 80 80" xmlns="http://www.w3.org/2000/svg">
  <title>
    csc-casinocoin
  </title>
  <g fill="none" fill-rule="evenodd">
    <circle fill="#A8191A" cx="40" cy="40" r="40"/>
    <path d="M54.416504 45.427734c-.358075 3.792337-1.7578 6.750478-4.19922 8.874512-2.441417 2.124034-5.688455 3.186035-9.74121 3.186035-2.832045 0-5.326324-.67138-7.48291-2.01416-2.156586-1.34278-3.820795-3.251122-4.992676-5.725093-1.17188-2.47397-1.782226-5.346663-1.831054-8.618164V37.81055c0-3.352882.59407-6.306953 1.782226-8.862305 1.188157-2.55535 2.893055-4.524732 5.114746-5.908203 2.22169-1.38347 4.78921-2.075197 7.702637-2.075197 3.922546 0 7.080066 1.06607 9.472656 3.198242 2.39259 2.132172 3.784173 5.14321 4.1748 9.033203h-6.15234c-.29297-2.555352-1.03759-4.398595-2.233888-5.529786-1.196295-1.13119-2.95002-1.696777-5.26123-1.696777-2.68556 0-4.748528.98062-6.188965 2.941894-1.440437 1.961274-2.17692 4.838036-2.209472 8.63037v3.149416c0 3.841165.687655 6.770823 2.062988 8.789063 1.375332 2.018237 3.389472 3.027342 6.04248 3.027342 2.425143 0 4.24804-.54524 5.46875-1.63574 1.22071-1.0905 1.993814-2.90526 2.319336-5.444337h6.152343z" fill="#FFF"/>
  </g>
</svg>
