<svg width="80" height="80" viewBox="0 0 80 80" xmlns="http://www.w3.org/2000/svg">
  <title>
    csno-bitdice
  </title>
  <g fill="none" fill-rule="evenodd">
    <circle fill="#324E83" cx="40" cy="40" r="40"/>
    <path d="M36.174533 36.624744c3.034667 0 5.681334.228512 8.268667-.05762 3.262667-.360773 5.616-3.44601 5.548-6.720475-.055333-2.65703-1.696667-4.741138-4.306-4.95066-2.597333-.20756-5.225333-.04518-8.003333-.04518-.508 3.97048-.972667 7.595892-1.507334 11.77393m-2.242 18.37393c3.46 0 6.329334.18006 9.165334-.04649 3.297333-.264525 5.582-3.02107 5.800666-6.518156.206667-3.293454-1.425333-5.975358-4.4-6.324346-2.898-.33982-5.87-.07399-8.973333-.07399-.537333 4.37512-1.037333 8.44381-1.592667 12.96298m9.844 5.81494c-.410666 2.09131-.765333 3.89714-1.158666 5.90137h-5.536v-5.73244H32.8492c-.360667 1.739044-.729333 3.518032-1.152667 5.56089h-5.904666c.192-1.896846.364-3.600536.576666-5.697084-1.768-.10607-3.371333-.20232-5.368666-.322142.272666-1.823512.520666-3.47482.788-5.262976 1.36-.125716 2.545333-.23506 4.064-.375835 1.202-9.918334 2.399333-19.79411 3.622-29.880715-1.366667-.154524-2.428667-.274346-3.906-.44131.249333-1.782917.480666-3.43619.762-5.44893h7.478c.487333-2.551606.909333-4.758808 1.36-7.11464h5.924666c-.2 2.273332-.387333 4.399344-.6 6.81869h4.241334c.451333-2.11357.938-4.393453 1.421333-6.66024h5.906c-.245333 2.518215-.462667 4.756846-.674667 6.93262 8.930667 3.140893 9.508 14.805476 1.012667 19.903452 5.006 2.618392 5.826 6.983035 4.772 11.790297-1.493333 6.808216-6.709333 9.288454-13.394667 10.02899" fill="#C5D331"/>
  </g>
</svg>
