<svg width="80" height="80" viewBox="0 0 80 80" xmlns="http://www.w3.org/2000/svg">
  <title>
    ctr-centra
  </title>
  <g fill="none" fill-rule="evenodd">
    <path d="M-.00004 39.850965c0 22.00934 17.84203 39.851776 39.85137 39.851776 22.008934 0 39.850964-17.842432 39.850964-39.851773C79.702294 17.841627 61.860264 0 39.85133 0 17.84199 0-.00004 17.841624-.00004 39.850965m4.754517 0c0-19.383148 15.7133-35.096447 35.096853-35.096447 19.383553 0 35.096447 15.7133 35.096447 35.096447 0 19.383553-15.712894 35.096852-35.096447 35.096852S4.754477 59.234517 4.754477 39.850965" fill="#DEBC65"/>
    <path d="M74.94802 39.851168c0 19.383553-15.7133 35.096852-35.096852 35.096852-19.383148 0-35.096853-15.7133-35.096853-35.096852 0-19.383554 15.713705-35.096853 35.096853-35.096853 19.383553 0 35.096852 15.7133 35.096852 35.096853" fill="#353535"/>
    <path d="M32.098233 17.887553c-2.803248 1.186193-5.32061 2.884873-7.482233 5.047716-2.161624 2.163245-3.85868 4.68223-5.044467 7.487103-1.227614 2.90477-1.850152 5.989847-1.850152 9.169543 0 3.179288.62254 6.264364 1.850156 9.169542 1.185787 2.804872 2.882843 5.324263 5.044467 7.487105 2.161625 2.162843 4.678986 3.861117 7.482234 5.048122 2.903148 1.228427 5.9866 1.85137 9.164265 1.85137 2.752487 0 5.448934-.47147 8.01462-1.40142 2.47878-.89868 4.777258-2.201828 6.831674-3.874112l.879594-.71594-.657868-.92467-5.77137-8.11005-.69523-.977056-.983553.6867c-1.954925 1.36528-4.287514 2.086903-6.745585 2.086903-6.17056 0-11.191472-4.63269-11.191472-10.326497 0-5.694214 5.020915-10.3265 11.191474-10.3265 2.326497 0 4.557157.652996 6.45076 1.888732l.964468.629035.676143-.931168 5.866802-8.07675.682234-.93929-.91005-.720406c-2.034925-1.61259-4.301727-2.868224-6.73787-3.732386-2.52061-.894213-5.1667-1.34741-7.86477-1.34741-3.177666 0-6.261117.622943-9.164265 1.851775" fill="#DEBC65"/>
  </g>
</svg>
