<svg width="80" height="80" viewBox="0 0 80 80" xmlns="http://www.w3.org/2000/svg">
  <title>
    cvc-civic
  </title>
  <g fill-rule="nonzero" fill="none">
    <circle fill="#FFF" cx="40" cy="40" r="40"/>
    <path d="M42.693 42.092c2.242-1.1 3.662-3.383 3.66-5.88 0-3.614-2.922-6.542-6.522-6.542s-6.522 2.928-6.522 6.54c-.003 2.5 1.418 4.782 3.66 5.882v8.08h5.725v-8.08M39.83 60.858c-11.51 0-20.872-9.393-20.872-20.94 0-11.546 9.364-20.937 20.873-20.937 9.393 0 17.355 6.255 19.967 14.83h7.194C64.216 21.33 53.11 12 39.83 12 24.46 12 12 24.5 12 39.92c0 15.418 12.46 27.918 27.83 27.918 13.28 0 24.385-9.33 27.16-21.81h-7.193c-2.614 8.576-10.574 14.83-19.966 14.83" fill="#3AB03E"/>
  </g>
</svg>
