<svg width="80" height="80" viewBox="0 0 80 80" xmlns="http://www.w3.org/2000/svg">
  <title>
    cvcoin-cvcoin
  </title>
  <defs>
    <linearGradient x1="100%" y1="50%" x2="0%" y2="50%" id="a">
      <stop stop-color="#8ACC27" offset="0%"/>
      <stop stop-color="#395923" offset="100%"/>
    </linearGradient>
  </defs>
  <g fill="none" fill-rule="evenodd">
    <circle fill="#170B1D" cx="40" cy="40" r="40"/>
    <path d="M51.012844 40c0 5.503164-4.47711 9.964286-10 9.964286-5.522888 0-10-4.461122-10-9.964286s4.477112-9.964286 10-9.964286c5.52289 0 10 4.461122 10 9.964286" fill="#FFF"/>
    <path d="M52.27349 38.463804c-3.08378 8.681107-11.393557 14.90037-21.162223 14.90037-12.395778 0-22.444445-10.012778-22.444445-22.364285 0-12.351287 10.048667-22.364287 22.444445-22.364287 9.608444 0 17.805333 6.0171 21.006222 14.47545l7.637776-4.227958C55.020376 7.783545 43.978156-.00011 31.111266-.00011c-17.182222 0-31.11111 13.879364-31.11111 31 0 17.120856 13.928888 31 31.11111 31 12.91111 0 23.984445-7.837022 28.692223-18.997022l-7.53-4.539064z" fill="url(#a)" transform="translate(10 9)"/>
    <path d="M41.012956 30.035714c-2.022667 0-3.903778.600293-5.477334 1.62905 1.630222 3.297293 5.032667 5.56738 8.97089 5.56738 2.023777 0 3.905332-.601844 5.47911-1.63215-1.63089-3.295965-5.035333-5.56428-8.972666-5.56428" fill="#C4C4C4"/>
  </g>
</svg>
