<svg width="80" height="80" viewBox="0 0 80 80" xmlns="http://www.w3.org/2000/svg">
  <title>
    cxo-cargox
  </title>
  <defs>
    <radialGradient fx="50%" fy="50%" id="a">
      <stop stop-color="#FFF" offset=".487805%"/>
      <stop stop-color="#FFF" stop-opacity="0" offset="100%"/>
    </radialGradient>
  </defs>
  <g fill="none">
    <circle fill="#7EBF21" cx="40" cy="40" r="40"/>
    <circle fill="#8DDB2E" cx="40" cy="40" r="36"/>
    <circle fill="url(#a)" opacity=".5" cx="40" cy="40" r="36"/>
    <path d="M62.013334 23.36l-.746667-.746667L64.24 19.64h8.973334v1.053333H64.68zm14.893333 5.48H60.293334l-2.986667-2.973333.746667-.746667L60.72 27.786667h16.186667zm-5.8 34.106667H62.92l-5.613333-5.613334.746667-.746666L63.36 61.893333h7.746667zm5.8-13.186667H53.173334L49.4 45.986667l.746667-.746667L53.6 48.706667h23.306667zm-22.4-26.88L53.76 22.133333 60.293334 15.6H70.32v1.053333h-9.6zM62.16 39.093333l-.746666-.746666 3.093333-3.093334h12.4v1.053334h-11.96zM19.706667 28.84H3.093334v-1.053333H19.28l2.933334-2.933334.733333.746667zm5.546667 8.786667h-22.16v-1.053334h21.72l4.773333-4.786666.746667.746666zm-1.866667 14.92L19.28 48.44H3.093334v-1.053333h16.613333L24.12 51.8z" fill="#7EBF21"/>
    <g fill="#FFF">
      <path d="M58.493334 20.226666h3.96v3.96h-3.96z"/>
      <path d="M54.533334 24.173333h3.96v3.96h-3.96zm3.96 27.693333h3.96v3.96h-3.96zm-3.96-7.906666h3.96v3.96h-3.96zm-7.92-7.92h3.96V40h-3.96zm3.96-3.946667h3.96v3.96h-3.96zm7.92 3.946667h3.96V40h-3.96z"/>
      <path d="M54.533334 55.826666v-3.96h-3.96v3.96h-3.96v-3.96h3.96v-7.92h-3.96V40h-3.96v-3.96h3.96v-3.96h-3.96v-3.946667h3.96v3.96h3.96v-7.906667h3.96V20.24l.013333-.013334H43l-6.8 10.84-6.826666-10.853333H17.866667L30.4 39.84 17.573334 59.786666h11.56l7.08-11.16 7.04 11.16h15.24v-3.96h-3.96zm-11.88-7.92v-3.96h-3.96V40h-3.96v-3.96h3.96V40h3.96v3.946666h3.96v3.96h-3.96z"/>
    </g>
  </g>
</svg>
