<svg width="80" height="80" viewBox="0 0 80 80" xmlns="http://www.w3.org/2000/svg">
  <title>
    dadi-dadi
  </title>
  <g fill="none" fill-rule="evenodd">
    <circle fill="#FFF" cx="40" cy="40" r="40"/>
    <g fill="#000" fill-rule="nonzero">
      <path d="M51.44 22.77559v-.003898H40.094233c-2.054085 0-3.71925 1.678416-3.71925 3.748846 0 2.070431 1.665165 3.748847 3.71925 3.748847h11.1998c6.070667 0 10.9939 4.960461 10.9939 11.08041 0 6.118974-4.922266 11.08041-10.9939 11.08041v.005846h-11.1998c-2.054085 0-3.71925 1.678416-3.71925 3.748846 0 2.070431 1.665165 3.748847 3.71925 3.748847H51.44v-.003898c10.113267-.079897 18.288367-8.364872 18.288367-18.577128 0-10.21323-8.1751-18.498205-18.289334-18.577128H51.44zm-24.824 7.493795c2.054085 0 3.71925-1.678416 3.71925-3.748847 0-2.07043-1.665165-3.748846-3.71925-3.748846H15.9266c-2.054085 0-3.71925 1.678416-3.71925 3.748846 0 2.070431 1.665165 3.748847 3.71925 3.748847H26.616z"/>
      <path d="M49.118067 45.101077c2.053818 0 3.718766-1.678198 3.718766-3.74836 0-2.07016-1.664948-3.748358-3.718766-3.748358H27.9529c-2.053818 0-3.718767 1.678197-3.718767 3.748359 0 2.070161 1.664949 3.748359 3.718767 3.748359h21.165167z"/>
    </g>
  </g>
</svg>
