<svg width="80" height="80" viewBox="0 0 80 80" xmlns="http://www.w3.org/2000/svg">
  <title>
    dai-dai
  </title>
  <g fill="none" fill-rule="evenodd">
    <circle fill="#FFF" cx="40" cy="40" r="40"/>
    <path d="M68.925103 39.995517c-.130584-.238334-.301567-.4645-.495347-.6575-9.297936-9.2515-18.599225-18.499667-27.90655-27.741834-.183554-.182333-.444051-.288166-.668675-.429666-.087839.058833-.188249.105-.26167.178-9.452995 9.395666-18.903307 18.793666-28.35781 28.1875-.172491.171333-.381359.616333-.089515.815333.224625.2765.426116.576.677561.826167 9.111532 9.067 18.227757 18.129666 27.343648 27.1925.177352.1765.344982.368166.546641.511833.072752.052.232335-.016333.35219-.029833.236862-.186.495683-.3505.707903-.561167 9.134664-9.075667 18.265641-18.154667 27.392763-27.237667.211381-.2105.372474-.471333.557034-.708666.072584-.117834.23485-.2845.201827-.345" fill="#F3AE4A"/>
    <path d="M39.854547 11.166567c.224625.1415.485122.247333.668677.429666 9.307323 9.242167 18.608612 18.490334 27.906549 27.741834.19378.193.364763.419166.495347.6575.03319.0605-.12941.227-.201827.345-.322855.0645-.659289.090833-.96622.199833-1.936127.687167-3.85985 1.408833-5.79849 2.089167-5.18748 1.8205-10.379151 3.629833-15.57166 5.435666-2.174665.756334-4.356538 1.4925-6.535058 2.237834.00067-4.9985.003688-9.997167-.004023-14.995667-.000503-.322667-.085491-.645167-.131087-.967833-.075936-.0135-.151872-.027167-.227641-.040667-.216746.202833-.438688.400333-.649231.609333-1.877625 1.864-3.75726 3.726167-5.627844 5.597167-.883243.883167-1.892376 1.3495-3.190838 1.326667-3.043492-.053167-6.088492-.012667-9.132989-.023334-.327046-.001166-.655936-.079666-.980133-.141833-.488977-.093833-.705387-.402-.674208-.893667.014081-.2215.012572-.444.018104-.666.32956.008167.659121.016167.988682.024334.140642.762.234682.847666 1.034613.848666 3.124289.003667 6.248578-.011166 9.3727.012.636323.004667 1.111219-.193666 1.55326-.640166 1.839907-1.857334 3.697583-3.6975 5.560288-5.5325.392925-.387167.822058-.741334 1.256723-1.083.534405-.420167.719971-.371.927162.2775.285977.895166.80211 1.623 1.468272 2.275833 1.569352 1.538 3.138202 3.0775 4.671514 4.650833.931017.955334 2.033017 1.3835 3.35344 1.3785 3.319577-.012666 6.638988-.004 9.958566-.004333.195289 0 .392925.016833.585364-.0065.656607-.0795 1.151954-.505667 1.286896-1.100333.143156-.6305-.099908-1.076334-.676555-1.3545-6.630104-6.588-13.259035-13.176834-19.894335-19.759334-.249266-.247166-.561226-.432-.844018-.645833v-8.281833z" fill="#F6B14B"/>
    <path d="M19.251942 40.10725c-.005532.222-.003856.4445-.017937.666-.031347.491667.185064.799833.67404.893667.324365.062166.653255.140666.980301.141833 3.04433.010667 6.08933-.029833 9.132821.023333 1.298463.022834 2.307763-.4435 3.190838-1.326666 1.870584-1.871 3.75022-3.733167 5.627844-5.597167.210543-.209.432653-.4065.649231-.609333.075937.0135.151705.027.227642.040666.045595.322667.130584.645167.131087.967834.007878 4.9985.004693 9.997166.00419 14.995666l.002682.015834c-.258485-.099167-.514791-.204667-.775959-.296334-5.741162-2.013-11.481988-4.0275-17.225162-6.035166-3.225705-1.127667-6.454763-2.245667-9.684491-3.361667-.333416-.115167-.68192-.186667-1.02355-.2785-.291843-.198833-.082976-.643833.089515-.815167 9.454503-9.393833 18.904983-18.791833 28.35781-28.1875.073421-.073.173832-.119333.261837-.178l-.000167 8.281834c-.056827.066166-.113653.132333-.170648.1985-.089179.064666-.188751.119166-.266028.195833-6.61267 6.571833-13.224168 13.144667-19.829966 19.723333-.146676.146-.225462.359334-.33593.541167" fill="#FEB74E"/>
    <path d="M39.851932 50.30305c2.17852-.745333 4.360226-1.4815 6.53489-2.237833C51.5795 46.259383 56.77117 44.45005 61.95865 42.62955c1.938474-.680333 3.862364-1.402 5.798492-2.089167.30693-.108833.643364-.135333.966051-.199833-.18456.237333-.345485.498-.557034.708667-9.126954 9.083-18.258098 18.162-27.392763 27.2375-.21222.210833-.470873.375166-.707902.561333-.070572-.306-.202162-.612-.202832-.918167-.011734-5.870333-.008214-11.740833-.007879-17.611l-.00285-.015833z" fill="#F6C57B"/>
    <path d="M39.854715 50.318833c-.000335 5.870334-.003856 11.740667.008046 17.611.00067.306167.132093.612167.202833.918167-.120023.0135-.27944.081833-.352191.029833-.20166-.143666-.36929-.335333-.54681-.511833-9.11589-9.062833-18.231947-18.1255-27.34348-27.1925-.251277-.250167-.452768-.549667-.67756-.826167.341463.091667.690133.163167 1.02355.278334 3.229728 1.116 6.458785 2.234166 9.68449 3.361666 5.743174 2.007834 11.484 4.022334 17.225162 6.035334.261168.0915.517474.197.77596.296166" fill="#FECB80"/>
    <path d="M39.6839 19.646883c.056827-.066.11382-.132166.170647-.198333.282792.213667.594752.3985.844018.645667 6.6353 6.5825 13.264231 13.171333 19.894335 19.759333-.210711.089667-.421422.1795-.6323.269167-.80848-.006167-1.617128-.011667-2.425775-.018834-2.926989-.025833-5.85381-.060333-8.780798-.069333-.43081-.0015-.72852-.151-1.020196-.446333-1.699937-1.721167-3.406914-3.4355-5.125792-5.138-.8467-.8385-1.724075-1.646834-2.587538-2.468667l-.168468-.1905c.00067-3.763667.005029-7.527167-.005532-11.290833-.00067-.2845-.105942-.568834-.162601-.853334" fill="#F3F2F2"/>
    <path d="M39.6839 19.646883c.056659.2845.16193.568834.162601.853334.01056 3.763666.006202 7.527166.005532 11.290833-.055486.0635-.110971.127-.166624.190333l.000335-.000333c-.207023.181-.424607.351167-.619393.544333-2.34481 2.3265-4.69867 4.644334-7.01733 6.996334-.428797.434833-.851225.599333-1.45419.596333-3.451336-.017667-6.90267.004667-10.354174.0135-.32956-.008167-.659121-.016167-.988682-.024333.1103-.181834.189254-.395.33593-.541 6.60563-6.578834 13.217296-13.151667 19.829966-19.7235.077278-.076667.17685-.131.266029-.195834" fill="#FBFBFA"/>
    <path d="M20.24069 40.131583c3.451336-.008833 6.902839-.031166 10.354174-.013666.602965.003166 1.025226-.161334 1.454023-.596334 2.31866-2.351833 4.67252-4.669666 7.017497-6.996166.194619-.193167.41237-.363334.619394-.544334.010895.6875.209705 1.296167.713098 1.795334 2.289323 2.27 4.564399 4.5545 6.870988 6.807166.323359.315667.76674.588834 1.200734.695167.63666.155833 1.315561.2005 1.975353.193167 2.918942-.032834 5.837381-.101334 8.755988-.156834.055653-.001.111474-.002833.167127-.001.423099.013667.612688-.197666.600116-.6095-.006035-.193833-.005867-.387833-.00855-.581833.21088-.089667.42159-.1795.632302-.269167.576647.278.81971.724.676554 1.3545-.134942.594667-.630289 1.020667-1.286895 1.100334-.19244.023333-.390076.0065-.585365.0065-3.319578.000333-6.639156-.008334-9.958566.004333-1.320422.005-2.42259-.423167-3.35344-1.3785-1.533312-1.573333-3.102329-3.112833-4.671514-4.650833-.666162-.652834-1.182295-1.380667-1.468272-2.275834-.20719-.6485-.392757-.697666-.927161-.2775-.434665.341667-.863798.695834-1.256723 1.083-1.862705 1.835-3.720382 3.675167-5.560289 5.5325-.442208.446334-.916936.644834-1.55326.640167-3.124121-.023167-6.24841-.008333-9.3727-.012-.800098-.001-.89397-.086667-1.034612-.848667" fill="#F3AE4A"/>
    <path d="M59.960667 40.122783c.002682.194.002514.388.008549.581834.012572.411666-.177018.623-.600116.6095-.055653-.001834-.111474-.000167-.167127.001-2.918607.0555-5.837214.123833-8.755989.156833-.659792.007333-1.338693-.037333-1.975352-.193167-.433994-.1065-.877376-.3795-1.200734-.695166-2.30659-2.252667-4.581665-4.537167-6.870989-6.807334-.503393-.499-.702202-1.107833-.713098-1.795166l-.000335.000333c.111641 0 .223283 0 .335092.000167.863463.821833 1.74067 1.63 2.58737 2.468666 1.718879 1.7025 3.426023 3.416834 5.12596 5.138.291676.295167.589387.444834 1.020029.446167 2.926988.009 5.853809.0435 8.780797.069333.808815.007167 1.617463.012667 2.425943.019" fill="#ECA947"/>
  </g>
</svg>
