<svg width="80" height="80" viewBox="0 0 80 80" xmlns="http://www.w3.org/2000/svg"><title>dash-dash</title><g fill-rule="nonzero" fill="none"><circle fill="#2573C2" cx="40" cy="40" r="40"/><g fill="#FFF"><path d="M66.104 29.472c-.054-.896-.317-1.768-.768-2.544-.4-.8-1.112-1.424-1.944-1.744-.848-.423-1.788-.63-2.736-.6H25.152l-2.544 7.624h32.168l-5.08 15.584h-32.16l-2.544 7.624h35.672c1.063-.03 2.114-.233 3.112-.6 1-.568 2.144-1.144 3.112-1.944.945-.745 1.8-1.6 2.544-2.544.616-.926 1.14-1.91 1.568-2.936l4.712-14.816c.43-.975.565-2.053.392-3.104z"/><path d="M35.288 36.464H16.36l-2.544 7.048h19.12"/></g></g></svg>