<svg width="80" height="80" viewBox="0 0 80 80" xmlns="http://www.w3.org/2000/svg">
  <title>
    dat-datum
  </title>
  <g fill="none">
    <path d="M80 40c0 22.091556-17.908444 40-40 40C17.908622 80 0 62.091556 0 40 0 17.908622 17.908622 0 40 0c22.091556 0 40 17.908622 40 40z" fill="#2D9CDB"/>
    <path d="M50.134667 14.016c.981333 0 1.770667.298667 2.368.896.597333.597334.896 1.386667.896 2.368v29.184c0 3.328-.789333 6.357334-2.368 9.088-1.536 2.688-3.648 4.821334-6.336 6.4-2.645333 1.536-5.610667 2.304-8.896 2.304-3.285333 0-6.293333-.768-9.024-2.304-2.688-1.578666-4.8-3.712-6.336-6.4-1.536-2.730666-2.304-5.76-2.304-9.088 0-3.328.704-6.336 2.112-9.024 1.450667-2.730666 3.413333-4.864 5.888-6.4 2.517333-1.536 5.312-2.304 8.384-2.304 2.474667 0 4.778667.512 6.912 1.536 2.133333 1.024 3.946667 2.453334 5.44 4.288V17.28c0-.981333.298667-1.770666.896-2.368.64-.597333 1.429333-.896 2.368-.896zm-14.336 44.48c2.133333 0 4.053333-.512 5.76-1.536 1.749333-1.066666 3.114667-2.517333 4.096-4.352.981333-1.834666 1.472-3.882666 1.472-6.144 0-2.261333-.490667-4.288-1.472-6.08-.981333-1.834666-2.346667-3.264-4.096-4.288-1.706667-1.066666-3.626667-1.6-5.76-1.6s-4.074667.533334-5.824 1.6c-1.706667 1.024-3.072 2.453334-4.096 4.288-.981333 1.792-1.472 3.818667-1.472 6.08 0 2.261334.490667 4.309334 1.472 6.144 1.024 1.834667 2.389333 3.285334 4.096 4.352 1.749333 1.024 3.690667 1.536 5.824 1.536z" fill="#FFF"/>
  </g>
</svg>
