<svg width="80" height="80" xmlns="http://www.w3.org/2000/svg">
  <g fill="none" fill-rule="evenodd">
    <circle fill="#FFF" cx="40" cy="40" r="40"/>
    <path d="M33.58404 40.310717c-.011413 3.072979 2.47581 5.51403 5.455707 5.498822 2.981129-.015142 5.421206-2.439478 5.417899-5.517636-.003307-3.05705-2.467575-5.512916-5.512192-5.471815-3.160376.042675-5.387873 2.671076-5.361414 5.490629m22.49183-11.031274c-.07594.069289-.139364.122321-.197276.180794-2.081907 2.1028-4.161414 4.207959-6.248509 6.305383-.147406.148084-.152594.264964-.08288.44543.59637 1.543111.837744 3.14876.732556 4.79695-.17354 2.718012-1.176265 5.089512-3.011414 7.089853-1.540402 1.679132-3.423346 2.773207-5.622762 3.311853-1.177951.288432-2.374514.372667-3.58022.27565-1.069067-.08594-2.109664-.320094-3.10681-.724096-.195655-.079318-.310636-.050606-.456031.096887-2.849611 2.889367-5.704086 5.773816-8.558236 8.65866-1.801686 1.820988-3.61978 3.625785-5.399417 5.468537-.742023.768277-1.587483.93511-2.5321.6002-1.255319-.444971-2.086252-1.332096-2.429054-2.649902-.111025-.426617-.106874-.85743.01978-1.28385.101945-.342971.298962-.621308.547665-.871982 1.41096-1.422624 2.818612-2.848592 4.227172-4.273642.09397-.095052.185928-.192135.292348-.302198-.065953-.087644-.119196-.161391-.175422-.232712-2.412321-3.061311-4.031258-6.506761-4.88703-10.320814-.28664-1.277688-.468093-2.572157-.552075-3.879015-.082425-1.281883-.076005-2.562849.031583-3.845322.29961-3.571966 1.3-6.927806 3.004734-10.068566 1.268028-2.336168 2.874384-4.409403 4.794877-6.233341 2.084046-1.979364 4.436446-3.550662 7.056744-4.708913 1.613554-.713279 3.284112-1.249696 5.010895-1.600731 2.102594-.42747 4.224773-.603478 6.368288-.471652.436057.026746.87192.061489 1.306874.102525 1.288327.121534 2.503502 1.108365 2.80843 2.579695.164657.794368.090273 1.56094-.39319 2.240854-.599351.843007-1.427108 1.209775-2.443904 1.143632-.721076-.046936-1.440402-.139693-2.161803-.158244-2.325032-.059522-4.588262.309867-6.783657 1.08516-2.693061.950972-5.054021 2.446164-7.086187 4.468268-1.669974 1.661695-3.007912 3.564559-4.002659 5.709902-.75013 1.617513-1.237938 3.314738-1.499287 5.081907-.220039 1.487326-.265888 2.98055-.129831 4.473972.335214 3.681702 1.557393 7.040163 3.664462 10.066076.07192.103245.150194.202033.215953.29007.030869.003016.038975.004852.046952.004393.0083-.000525.019196-.000328.024125-.005244 1.620492-1.63069 3.240661-3.261706 4.86031-4.893247.047018-.047264.088522-.100165.145786-.165455-1.916862-2.775174-2.583074-5.82888-1.914008-9.146437.466731-2.314207 1.587354-4.284394 3.284176-5.904987 1.975551-1.88687 4.33891-2.913162 7.046369-3.083075 2.704993-.169782 5.167834.570702 7.38664 2.173596.092024-.090397.170363-.165389.246498-.242413 4.679118-4.730414 9.35921-9.459845 14.03463-14.193995.39118-.396004.84183-.646874 1.390857-.697678.405317-.037496.807458.00295 1.19118.152017 1.21271.471193 2.02406 1.319051 2.327367 2.610243.205383.87408-.00441 1.637506-.653632 2.282414-1.235408 1.227343-2.454215 2.471664-3.679507 3.709365-.070363.071059-.136965.14592-.211608.225829.05013.077811.088716.142643.132036.204131 2.048768 2.90877 3.401492 6.117443 4.05441 9.62648.368158 1.978839.509728 3.973345.398703 5.985682-.291504 5.282368-2.0262 10.033168-5.161803 14.259679-2.183528 2.943185-4.873022 5.31475-8.039559 7.127282-2.477302 1.41797-5.120233 2.381989-7.920039 2.910016-1.517834.2864-3.049027.418685-4.590467.433238-.528988.004982-1.06271.002556-1.58677-.060178-1.437224-.172141-2.390208-1.359825-2.295525-2.822371.020882-.321995.051037-.643793.089883-.964084.150389-1.242486 1.299416-2.187493 2.533852-2.10175 1.007652.069879 2.015045.068371 3.023217-.016192 2.033917-.170765 3.99786-.637893 5.875875-1.441176 4.722114-2.019613 8.181777-5.389284 10.408625-10.048573.81965-1.714924 1.354929-3.525949 1.63677-5.411703.192608-1.288898.269197-2.581662.204994-3.886161-.142088-2.88812-.86913-5.608951-2.234176-8.151806-.20428-.380468-.433658-.747104-.653826-1.118722-.037549-.063193-.087354-.119044-.144942-.196396" fill="#EB5600"/>
  </g>
</svg>
