<svg width="80" height="80" xmlns="http://www.w3.org/2000/svg" xmlns:xlink="http://www.w3.org/1999/xlink">
  <defs>
    <path id="a" d="M.212898.044974H7.14388v12.360411H.2129z"/>
    <path id="c" d="M.15932.12131h16.985705v12.459932H.15932z"/>
    <path id="e" d="M0 .212312h10.789753v11.963297H0z"/>
  </defs>
  <g fill="none" fill-rule="evenodd">
    <circle fill="#0E1637" cx="40" cy="40" r="40"/>
    <path d="M51.5536 29.448903l7.49889 12.424196c.237418.393466.649154.680864 1.110605.686898.005736 0 .011472 0 .01689.000318.462406.012067.90633-.161325 1.181351-.53129l4.471736-6.00965c.678792-.913006.696-1.517972.390385-1.984797l-4.907374-7.498087c-.294142-.449359-.829527-.679277-1.359175-.583372l-7.428143 1.34331c-.464956.084156-.82666.416332-1.015.848224a.237913.237913 0 0 1-.006055.01302c-.186429.420142-.191846.897446.04589 1.29123m-27.111112 4.398946c-.275978.075898-.629077.128297-.91844.123216-.245384-.004129-.472604.120993-.60167.328682L15.54618 46.165342c-.26833.431574.000319.994304.505429 1.059405l8.010373 1.033048c.312945.040648.560242.28454.603901.596392l.261638 1.877776c.080945.580197.79989.809163 1.203022.382987l7.563901-7.98873c.264505-.279142.252714-.718973-.026132-.983824l-8.55245-8.129095c-.179737-.170851-.434044-.231189-.673374-.165452m9.767264 10.335236l-7.750967 8.186574c-.406.428717-.388154 1.103865.039835 1.510987l3.653044 3.475142c.211923.201338.496505.30804.789055.295338l7.735033-.33027c.146912-.006034.291274-.042555.423527-.106386l5.199286-2.51196c.665088-.321695.81423-1.200722.291912-1.722168l-8.837033-8.819169c-.428626-.427763-1.127495-.417919-1.543692.021912m24.184916-1.268905l-7.722286-12.793844c-.1689-.279142-.595934-.195304-.641824.127344-.526461 3.667588-2.328604 16.894913-2.885022 20.985183-.06533.478257.463044.809797.870319.547804l9.776187-6.286885c.192165-.123534.282351-.347737.249846-.572892-.012429-.082885-.01944-.167676-.01944-.254372 0-.428716.13321-.82504.358198-1.154358.122692-.17879.126198-.41252.014022-.59798" fill="#00E6F5"/>
    <g transform="translate(61.67033 37.203014)">
      <mask id="b" fill="#fff">
        <use xlink:href="#a"/>
      </mask>
      <path d="M.498099 7.463378c0 .15529-.018802.306135-.052264.450946-.067242.28708.056088.58623.281714.777087l4.153374 3.515473c.465593.39442 1.184857.172757 1.345791-.41506l.887846-3.244906c.032187-.118135.038242-.241669.01689-.362027L5.827726.73444c-.126835-.721514-1.059615-.94-1.495252-.349642L.384967 5.734857c-.178462.241987-.230407.566541-.097198.835838.133528.269615.21033.571304.21033.892683" fill="#00E6F5" mask="url(#b)"/>
    </g>
    <g transform="translate(25.340659 17.196257)">
      <mask id="d" fill="#fff">
        <use xlink:href="#c"/>
      </mask>
      <path d="M16.386115.121819L5.878874.537197c-.275022.011115-.520407.175933-.633539.425858L.189456 12.126825c-.133209.294386.202681.57988.469736.396643 2.947803-2.019413 12.04711-8.25644 16.17021-11.083109.600076-.41125.284581-1.347439-.443287-1.31854" fill="#00E6F5" mask="url(#d)"/>
    </g>
    <g transform="translate(11 33.392203)">
      <mask id="f" fill="#fff">
        <use xlink:href="#e"/>
      </mask>
      <path d="M.034067 4.170011l2.689352 7.60765c.166989.471904.807857.541134 1.072362.115911L10.737935.72631c.165077-.265804-.091143-.592581-.390066-.496993L.41553 3.404674c-.320913.102574-.49332.448723-.381462.765337" fill="#00E6F5" mask="url(#f)"/>
    </g>
    <path d="M21.719866 31.47076c.182923-.77677.805308-1.384277 1.591813-1.548142.275022-.05748.513714-.22198.637044-.473493.626527-1.278845 2.517901-5.1465 3.86433-7.984601.467824-.986048-.624297-1.982257-1.570143-1.432548l-8.850099 5.144595c-.16667.096858-.305297.235318-.402176.401723l-4.39366 7.540324c-.521362.894906.359473 1.951453 1.337825 1.604034 2.517582-.893635 5.972407-2.141993 7.239165-2.60056.287132-.103845.47611-.355041.5459-.651332M35.98366 42.824404l9.391857 8.926507c.213197.202925.567252.074946.600076-.216899l2.430264-21.413263c.03888-.33948-.378275-.532244-.613143-.283906L35.970274 42.3236c-.134483.14227-.128428.365838.013385.500804M25.715205 32.532166c-.000637.00254-.001593.005399-.00223.00794-.07489.24802-.007649.515412.180692.694202l8.532692 8.11004c.277253.263582.716715.25215.979627-.025722L46.88871 29.19072c.284582-.300736.020077-.789155-.388154-.717067l-20.248373 3.576446c-.256858.045412-.463044.232777-.536979.482067m22.439946-7.084202c-.522956-1.134986-2.407637-5.223669-3.098857-6.723858-.134164-.290892-.498736-.390608-.763241-.209277l-17.458 11.972297c-.155198.106703-.055132.349007.130659.315345l20.26367-3.664412c.189297-.034297.35055-.168629.399945-.354088.085088-.319473.244429-.607507.460176-.845682.12078-.133379.140857-.327095.065648-.490325m11.940289 21.284014c-.33844 0-.655528-.083203-.935968-.228014-.319-.1645-.705879-.12798-1.008307.066054l-10.862572 6.985216c-.290637.18673-.469099.504933-.477703.849811l-.088275 3.707284c-.006055.25596.082539.504932.24889.699601l4.019846 4.698413c.645012.754223 1.882451.268662 1.838154-.721196l-.079033-1.771392c-.016571-.36679.162528-.715162.470693-.916183l12.522264-8.182763c.582868-.380764.634813-1.213426.103252-1.663102l-4.06956-3.444973c-.27311-.231189-.650429-.317567-.988231-.197844-.216703.077169-.449978.119088-.69345.119088M49.564327 25.264855c.723088.00381 1.41144.403946 1.773143.913324.087.122581.245704.17244.394528.145764l7.265934-1.314095c.378912-.068595.452846-.57829.108989-.751047L46.74591 18.04972c-.339077-.170217-.704286.180378-.545583.524621l2.978077 6.46123c.068517.14894.221803.228331.385923.229284" fill="#00E6F5"/>
  </g>
</svg>
