<svg width="80" height="80" xmlns="http://www.w3.org/2000/svg">
  <g fill="none" fill-rule="evenodd">
    <circle fill="#FFF" cx="40" cy="40" r="40"/>
    <path d="M18.131886 39.770366c.177351-1.50135.212477-3.036025.559947-4.496835.877113-3.689128 2.703656-6.910331 5.299179-9.673914 2.875152-3.061104 6.484848-4.94724 10.44098-6.17924 1.887152-.587827 3.884848-.800833 5.855682-.784686 2.744292.023362 5.475497.262478 8.083417 1.289718 1.844106.726282 3.64069 1.52265 5.260265 2.672883.723524.513963 1.413987 1.073963 2.135788 1.590675.812716.582331 1.162252.546601 1.880954-.123338.774146-.721815 1.555868-1.436073 2.32588-2.162355.41669-.393031.817882-.802896 1.223206-1.207951.293748-.293743.328185-.601914.001033-.889473-.601616-.528392-1.194278-1.069497-1.824132-1.562846-2.222225-1.740467-4.662437-3.132565-7.296874-4.119264-1.784875-.668565-3.65412-1.132712-5.510967-1.583804-1.730808-.420515-3.515682-.42876-5.293325-.511902-1.900238-.089325-3.768106.040197-5.64045.31367-1.562066.228122-3.07351.62871-4.580133 1.096294-2.589324.803582-5.019205 1.963092-7.260026 3.439018-2.905457 1.913276-5.484795 4.22989-7.511417 7.09276-1.709457 2.415215-3.168557 4.973694-4.002623 7.824884-.430463 1.47146-.66257 3.001325-.976636 4.50611-.608847 2.918528-.186304 5.81335.303047 8.686185.223496 1.309987.754516 2.56535 1.094755 3.85919.568556 2.162012 1.692927 4.056736 2.887205 5.898552 1.791073 2.761178 4.065642 5.10768 6.713166 7.057374 2.684026 1.976835 5.587417 3.574724 8.815894 4.510577 1.315152.381006 2.625139.833472 3.970251 1.047853 1.776954.283435 3.586279.365202 5.381484.531484.113642.010994.230384.012025.343682.001031 1.453245-.138798 2.90649-.273816 4.358358-.423264 1.255231-.129178 2.475682-.383755 3.664794-.83897 1.008318-.386159 2.07449-.61806 3.100371-.960932 2.273537-.759264 4.317378-1.954846 6.249298-3.35141 1.508344-1.090798 3.029086-2.167854 4.288795-3.55789.552715-.609473.545828-.897718-.07404-1.411338-1.10061-.912834-2.21155-1.813644-3.31388-2.725104-1.452557-1.200393-1.411232-.883288-2.520451.187583-1.454967 1.40481-3.076954 2.57703-4.828768 3.53762-1.190835.653104-2.535947 1.023116-3.80702 1.532613-2.049695.821791-4.220265 1.01762-6.38498 1.13546-2.352398.128147-4.691364-.105129-6.97041-.758233-.465246-.1333-.916027-.322258-1.38575-.434258-2.628238-.628024-4.850463-2.067877-6.920476-3.682945-2.266305-1.767263-4.091815-3.958822-5.491338-6.511116-1.689483-3.082405-2.57796-6.334528-2.643735-9.860466" fill="#535353"/>
    <path d="M44.443129 29.629212c.165986-.122307.50829-.246331.620556-.479607.455602-.949252.879523-1.918086 1.235947-2.908221.188026-.52427-.004821-.790184-.56339-.934479-.688743-.17762-1.38816-.323975-2.090676-.43357-.554782-.086577-.899842.130896-1.001775.685399-.179418.979484-.306835 1.970306-.401881 2.961472-.01894.199264.158066.547632.32612.61016.557536.207509 1.15192.316073 1.875098.498846m3.54795 18.15977c-.51139.294773-1.012795.555533-1.483205.863705-.513457.336-.581987.598479-.28514 1.14989.458358.851337.962517 1.677938 1.428795 2.525153.2662.48373.643974.549693 1.073749.29649.661192-.388564 1.305854-.806674 1.941907-1.235435.382252-.258012.40808-.613251.105033-.94822-.686675-.759951-1.382304-1.512688-2.097218-2.245497-.168742-.173154-.428398-.2587-.68392-.406086M34.178225 26.066788c.032371.159067.035815.276564.07955.376196.27653.626307.540318 1.259828.848185 1.870675.827523 1.641178 1.269696 1.774135 2.95608.991853.340927-.158037.49245-.336.408424-.718724-.214543-.972957-.382252-1.956908-.61918-2.924368-.143602-.586454-.44286-.790184-1.009006-.661694-.913271.207166-1.84686.39784-2.664053 1.066062M29.91481 43.335126c-.164953.00962-.225218.001718-.278251.018209-1.058596.329129-2.125457.635926-3.170967 1.00319-.487973.17178-.622278.561718-.397748 1.045792.287205.61806.628477 1.21173.951496 1.8133.232795.43254.633643.545914 1.019683.328098 1.016238-.572711 2.003894-1.1973 2.98845-1.82395.110887-.070087.220397-.321915.176662-.423952-.256556-.599165-.538596-1.190429-.860927-1.75627-.076795-.135018-.338861-.165251-.428397-.204417m23.749812-4.275514c.002066.017522.004476.035387.006887.052908.70906-.079018 1.419841-.148073 2.127179-.24049.38053-.049473.685298-.269694.645695-.669252-.069563-.706012-.165987-1.418896-.350914-2.102233-.16461-.609473-.433907-.735902-1.033457-.589203-.969404.236712-1.93433.49816-2.888582.789154-.222464.068024-.565802.3013-.562014.451779.015841.639362.068874 1.297276.248292 1.907435.151178.51362.699761.38513 1.119205.398528.229006.007558.458357.001374.687708.001374m-5.469573-7.646198c.121563.788466.664291 1.16157 1.150887 1.52368.224186.166283.710437.237743.932212.106847.976636-.57649 1.906093-1.233374 2.83865-1.881669.262754-.183116.351946-.472049.10882-.73968-.533774-.587142-1.074092-1.169817-1.638172-1.727755-.337483-.333595-.700106-.315043-1.04551.043632-.651894.677497-1.328927 1.330944-1.970145 2.018405-.181828.19514-.274464.47308-.376742.65654M27.296525 39.74556v.006872h.602304c1.613722-.000344 1.613722-.000344 1.861669-1.541203.138093-.85649.01894-1.127558-.79653-1.3306-.96906-.241522-1.958781-.403682-2.944715-.569277-.502437-.084515-.839232.139141-.895709.675436-.065774.624245-.124317 1.249178-.177695 1.874797-.055788.65654.078517.84.716291.877448.543073.031608 1.089245.006528 1.634385.006528m8.735724 9.934331c-.114331-.16216-.217298-.410209-.403258-.549006-.364-.271755-.777245-.476172-1.16363-.719068-.409456-.256981-.746251-.195484-1.055152.175559-.658092.791558-1.329616 1.572122-1.993218 2.359558-.302013.358331-.266888.692613.132238.937914.656027.40265 1.321007.792245 1.99494 1.16432.588875.325005.77518.269349 1.075815-.325694.426331-.842405.828556-1.696491 1.236292-2.548516.061298-.12746.096079-.267288.175973-.495067m16.067242-7.027175c-.44906.039165-.765536.191018-.953563.564466-.204211.406086-.438728.81011-.55306 1.243337-.056132.21438.053034.62562.217299.718724.966993.544884 1.95947 1.050945 2.970199 1.511657.54996.250797.874702.0773 1.16604-.503657.242436-.483386.466622-.97708.68082-1.473521.280318-.650013.242093-.883632-.431496-1.131681-1.009351-.371387-2.062093-.625276-3.096239-.929325M41.180834 54.689315v-.001717c.315444 0 .631921.017177.945987-.003436.767603-.049129 1.021748-.35146.900186-1.117939-.138438-.875043-.294782-1.748368-.489007-2.61276-.049245-.21919-.23004-.504687-.421166-.579927-.7249-.284466-1.466675-.157006-2.181933.090356-.111577.038479-.240371.19789-.256212.315386-.139815 1.04648-.28204 2.093645-.367444 3.144933-.038225.470675.281351.735558.751417.760982.37192.02027.745219.004122 1.118172.004122m-10.14699-20.968461c.572689-.025423 1.757324-1.362209 1.682596-1.833227-.02445-.154258-.125007-.319853-.23796-.432883-.68702-.688148-1.376795-1.374234-2.088265-2.037301-.478676-.446626-.875391-.44903-1.343736.028859-.417721.425669-.794119.899092-1.139523 1.385914-.435973.615313-.404291.834847.225219 1.254675.784477.522552 1.603735.994258 2.417483 1.472147.166331.09757.373643.126086.484186.161816" fill="#E89402"/>
    <path d="M44.443129 29.629212c-.72318-.182773-1.317563-.291337-1.8751-.498846-.168053-.062528-.34506-.410896-.32612-.61016.095047-.991166.222465-1.981988.401882-2.961472.101934-.554503.446993-.771976 1.001775-.685399.702516.109595 1.401933.25595 2.090675.43357.55857.144295.751417.41021.56339.934479-.356423.990135-.780344 1.95897-1.235946 2.90822-.112265.233277-.45457.357301-.620556.479608m3.547949 18.15977c.255523.147386.515179.232932.68392.406086.714915.73281 1.410544 1.485546 2.09722 2.245496.303046.33497.277218.690209-.105034.948221-.636053.428761-1.280715.846871-1.941907 1.235436-.429775.253202-.80755.18724-1.073749-.29649-.466278-.847216-.970437-1.673817-1.428794-2.525154-.296848-.551411-.228318-.81389.285139-1.14989.47041-.308172.971814-.568932 1.483205-.863705M34.178225 26.066788c.817192-.668221 1.750782-.858896 2.664053-1.066062.566146-.12849.865404.07524 1.009007.661694.236927.96746.404636 1.95141.619179 2.924368.084026.382724-.067497.560687-.408424.718724-1.686384.782282-2.128557.649325-2.95608-.991853-.307867-.610847-.571655-1.244368-.848185-1.870675-.043735-.099632-.047179-.217129-.07955-.376196M29.91481 43.335126c.089537.039166.351603.0694.428398.204418.322331.56584.60437 1.157104.860927 1.75627.043735.102036-.065775.353865-.176662.42395-.984556.62665-1.972212 1.25124-2.98845 1.823951-.38604.217816-.786888.104442-1.019683-.328098-.32302-.60157-.664291-1.19524-.951496-1.8133-.22453-.484074-.090226-.874013.397748-1.045792 1.04551-.367264 2.11237-.674061 3.170967-1.00319.053033-.01649.113298-.008589.278252-.018209m23.749812-4.275514c-.229351 0-.458703.006184-.68771-.001374-.419443-.013399-.968026.115092-1.119204-.398528-.179418-.61016-.23245-1.268073-.248292-1.907435-.003788-.150479.33955-.383755.562013-.45178.954252-.290993 1.91918-.552441 2.888583-.789153.59955-.1467.868848-.02027 1.033457.589203.184927.683337.281351 1.39622.350914 2.102233.039603.399558-.265166.61978-.645695.669251-.707338.092418-1.41812.161473-2.12718.240491-.00241-.017521-.00482-.035386-.006887-.052908m-5.469573-7.646198c.102278-.18346.194914-.4614.376742-.65654.641218-.68746 1.318251-1.340908 1.970145-2.018405.345404-.358675.708027-.377227 1.04551-.043632.56408.557938 1.104398 1.140613 1.638173 1.727754.243125.267632.153933.556565-.108822.739681-.932556.648295-1.862013 1.305178-2.838649 1.88167-.221775.130895-.708026.059435-.932212-.106848-.486596-.36211-1.029324-.735214-1.150887-1.52368M27.296525 39.74556c-.54514 0-1.091312.02508-1.634385-.006527-.637774-.037448-.77208-.220908-.716291-.877448.053377-.62562.11192-1.250552.177695-1.874797.056477-.536295.393272-.759951.895709-.675436.985934.165595 1.975656.327755 2.944715.569276.81547.203043.934623.47411.79653 1.330601-.247947 1.54086-.247947 1.54086-1.861669 1.541203h-.602305v-.006871zm8.735724 9.934332c-.079894.22778-.114676.367607-.175974.495067-.407735.852025-.80996 1.70611-1.23629 2.548516-.300637.595043-.486941.6507-1.075816.325693-.673933-.372073-1.338913-.761669-1.99494-1.164319-.399126-.2453-.434252-.579583-.132238-.937914.663602-.787436 1.335126-1.568 1.993218-2.359558.3089-.371043.645696-.43254 1.055153-.175559.386384.242896.799629.447313 1.163629.719068.18596.138797.288927.386847.403258.549006m16.067242-7.027175c1.034146.304049 2.086888.557938 3.096239.929325.67359.248049.711814.481668.431497 1.13168-.2142.496442-.438385.990136-.680822 1.473522-.291337.580957-.61608.754454-1.16604.503657-1.010728-.460712-2.003205-.966773-2.970198-1.511657-.164265-.093104-.27343-.504343-.217298-.718724.114331-.433227.348848-.837251.55306-1.243337.188026-.373448.504503-.5253.953562-.564466M41.180834 54.689315c-.372953 0-.746251.016148-1.118172-.004122-.470066-.025424-.789642-.290307-.751417-.760982.085404-1.051288.22763-2.098454.367444-3.144933.01584-.117496.144635-.276907.256212-.315386.715258-.247362 1.457033-.374822 2.181933-.090356.191126.07524.371921.360736.421166.579927.194225.864392.35057 1.737717.489007 2.61276.121563.766479-.132583 1.06881-.900186 1.117939-.314066.020613-.630543.003436-.945987.003436v.001717zm-10.14699-20.968461c-.110543-.03573-.317855-.064245-.484186-.161816-.813748-.47789-1.633006-.949595-2.417483-1.472147-.62951-.419828-.661192-.639362-.225219-1.254675.345404-.486822.721802-.960245 1.139523-1.385914.468345-.47789.86506-.475485 1.343736-.02886.71147.663068 1.401245 1.349154 2.088264 2.037302.112954.11303.21351.278625.23796.432883.07473.471018-1.109907 1.807804-1.682595 1.833227" fill="#E89402"/>
  </g>
</svg>
