<svg width="80" height="80" viewBox="0 0 80 80" xmlns="http://www.w3.org/2000/svg">
  <title>
    dbix-dubaicoin
  </title>
  <g fill="none" fill-rule="evenodd">
    <circle fill="#4D4F53" cx="40" cy="40" r="40"/>
    <path d="M28.280273 57V21.453125H38.77832c3.141292 0 5.928536.699863 8.361817 2.09961 2.43328 1.399746 4.317213 3.385403 5.651855 5.95703 1.334642 2.571628 2.001953 5.517562 2.001953 8.83789v1.782228c0 3.369157-.67138 6.331367-2.01416 8.88672-1.34278 2.55535-3.255196 4.52473-5.737304 5.908202C44.560373 56.308275 41.716164 57 38.509768 57H28.280273zm6.176758-30.566406V52.06836h4.028323c3.238948 0 5.72509-1.013174 7.458496-3.03955 1.733406-2.02638 2.616372-4.935692 2.648924-8.72803v-1.977538c0-3.85744-.838207-6.803375-2.514648-8.83789-1.67644-2.034516-4.109685-3.051758-7.299805-3.051758h-4.32129z" fill="#FFF"/>
  </g>
</svg>
