<svg width="80" height="80" viewBox="0 0 80 80" xmlns="http://www.w3.org/2000/svg">
  <title>
    dcn-dentacoin
  </title>
  <g fill="none" fill-rule="evenodd">
    <circle fill="#FFF" cx="40" cy="40" r="40"/>
    <g fill="#000">
      <path d="M39.61402 5.471385c-.642227 2.1535-1.285322 4.307-1.929287 6.4605-3.136393 10.49288-6.262357 20.992714-10.626714 31.06237-3.31629 7.648487-7.379957 14.905903-11.81905 21.957356-.169467.26854-.397157.50144-.60051.754338C6.20783 58.22084 1.41329 44.51248 5.01115 30.948388c4.245297-16.00786 17.89456-25.566513 31.640285-26.71105C53.761245 2.8121 67.642543 12.93042 73.21053 26.30767c5.991215 14.392298 1.755477 30.484453-8.44975 39.925786C51.560818 47.968682 45.396663 26.870813 39.999008 5.454873c-.12775.006083-.257238.011297-.384988.016512"/>
      <path d="M51.081363 74.50592c-8.08475 2.414214-15.98613 2.31775-23.79887-.521428 4.0263-11.276762 8.009144-22.432727 11.99199-33.58869l.42757.010428c3.772536 11.303702 7.544203 22.606535 11.37931 34.09969"/>
    </g>
  </g>
</svg>
