<svg width="80" height="80" viewBox="0 0 80 80" xmlns="http://www.w3.org/2000/svg">
  <title>
    Group 28
  </title>
  <g fill="none" fill-rule="evenodd">
    <circle fill="#081541" cx="40" cy="40" r="40"/>
    <g fill-rule="nonzero">
      <path d="M36.84 43.594h11.12c4.13 0 7.513-3.34 7.513-7.513 0-4.172-3.34-7.467-7.47-7.467h-3.56l-7.602-6.59h11.12c7.776-.044 14.105 6.238 14.105 14.014.045 5.756-3.472 10.94-8.833 13.092l8.788 7.6H52L36.84 43.594z" fill="#2DD9A5"/>
      <path d="M42.29 35.203H31.173c-4.13 0-7.515 3.34-7.515 7.512 0 4.174 3.34 7.513 7.515 7.513h3.558l7.56 6.59H31.173c-7.778 0-14.105-6.284-14.15-14.015-.046-5.8 3.47-10.983 8.832-13.136l-8.787-7.644H27.13l15.16 13.18z" fill="#4971FA"/>
      <path d="M42.29 35.203H31.173c-4.13 0-7.515 3.34-7.515 7.512 0 4.174 3.34 7.513 7.515 7.513h3.558l7.56 6.59H31.173c-7.778 0-14.105-6.284-14.15-14.015-.046-5.8 3.47-10.983 8.832-13.136l-8.787-7.644H27.13l15.16 13.18z" fill="#2873FF"/>
    </g>
  </g>
</svg>
