<svg width="80" height="80" viewBox="0 0 80 80" xmlns="http://www.w3.org/2000/svg">
  <title>
    dct-decent
  </title>
  <g fill="none" fill-rule="evenodd">
    <circle fill="#EEE" cx="40" cy="40" r="40"/>
    <g fill-rule="nonzero">
      <path d="M10 24h15.2c3.39.27 6.832 1.127 9.657 3.1 2.215 1.482 3.946 3.576 5.338 5.834 1.334 2.2 2.347 4.576 3.412 6.915 1.317 2.89 2.747 6 5.487 7.813 2.33 1.586 5.225 1.902 7.968 1.93 4.312.014 8.626-.003 12.938.004v6.222c-4.662 0-9.32.006-13.98-.005-4.29-.05-8.722-1.244-11.986-4.15-1.55-1.343-2.796-3.01-3.862-4.76-1.324-2.253-2.357-4.664-3.433-7.042-1.462-3.253-3.317-6.702-6.684-8.29-4.322-2.084-9.246-1.135-13.86-1.352-.005 6.46-.005 12.92 0 19.377-.012 2.073-.023 4.15.02 6.22H10V24z" fill="#008A6F"/>
      <g fill="#1BB168">
        <path d="M55.312 24.028H70v6.21c-4.436.008-8.868-.006-13.3.004-2.98.07-6.1.756-8.432 2.72-2.197 1.787-3.447 4.4-4.684 6.886-1.066-2.335-2.08-4.706-3.415-6.902 1.48-2.328 3.304-4.49 5.657-5.973 2.806-1.866 6.165-2.664 9.485-2.945M36.712 39.863c1.077 2.375 2.11 4.78 3.436 7.03-1.357 2.11-2.926 4.142-5.006 5.583-3.164 2.332-7.15 3.233-11.02 3.31-2.65.015-5.3-.003-7.95.005-.044-2.068-.033-4.14-.023-6.21 4.495-.188 9.232.61 13.515-1.14 3.624-1.497 5.523-5.195 7.047-8.577"/>
      </g>
    </g>
  </g>
</svg>
