<svg width="80" height="80" viewBox="0 0 80 80" xmlns="http://www.w3.org/2000/svg">
  <title>
    dent-dent
  </title>
  <g fill="none" fill-rule="evenodd">
    <circle fill="#FFF" cx="40" cy="40" r="40"/>
    <g fill-rule="nonzero" fill="#666">
      <path d="M40 10c3.203252 0 5.8 2.67559 5.8 5.976096v48.047808C45.8 67.32441 43.203252 70 40 70s-5.8-2.67559-5.8-5.976096V15.976096C34.2 12.67559 36.796748 10 40 10zm0 1.91235c-2.17821 0-3.944 1.8194-3.944 4.063746v48.047808c0 2.244345 1.76579 4.063745 3.944 4.063745s3.944-1.8194 3.944-4.063748V15.976096c0-2.244345-1.76579-4.063745-3.944-4.063745z"/>
      <path d="M65.980762 55c-1.601626 2.774097-5.217128 3.685153-8.07545 2.0349L16.294687 33.010995c-2.85832-1.650253-3.877075-5.236898-2.27545-8.010995 1.601627-2.774097 5.21713-3.685153 8.07545-2.0349L63.70531 46.989005C66.563635 48.639258 67.58239 52.225903 65.980763 55zm-1.656144-.956175c1.089105-1.886386.396353-4.325305-1.547307-5.447477L21.16669 24.572444c-1.94366-1.122173-4.4022-.502655-5.491306 1.38373-1.089105 1.886387-.396353 4.325306 1.547306 5.447478l41.61062 24.023904c1.94366 1.122173 4.402202.502655 5.491308-1.38373z"/>
      <path d="M65.980762 25c1.601626 2.774097.582872 6.360742-2.27545 8.010995L22.094687 57.0349c-2.858322 1.650253-6.473824.739197-8.07545-2.0349-1.601626-2.774097-.582872-6.360742 2.27545-8.010995L57.90531 22.9651c2.858324-1.650253 6.473826-.739197 8.075452 2.0349zm-1.656144.956175c-1.089106-1.886386-3.547647-2.505904-5.491307-1.38373L17.22269 48.596347c-1.94366 1.122172-2.63641 3.56109-1.547306 5.447477 1.089106 1.886386 3.547647 2.505904 5.491306 1.38373l41.61062-24.0239c1.94366-1.122173 2.636413-3.56109 1.547308-5.447478z"/>
    </g>
  </g>
</svg>
