<svg width="80" height="80" viewBox="0 0 80 80" xmlns="http://www.w3.org/2000/svg" xmlns:xlink="http://www.w3.org/1999/xlink">
  <title>
    dew-dew
  </title>
  <defs>
    <path id="a" d="M.003146.22599h26.519832v47.506737H.003146z"/>
    <path id="c" d="M.00007.243778H10.6422v47.496763H.00007z"/>
  </defs>
  <g fill="none" fill-rule="evenodd">
    <circle fill="#FFC800" cx="40" cy="40" r="40"/>
    <g transform="translate(37.272152 16.03347)">
      <mask id="b" fill="#fff">
        <use xlink:href="#a"/>
      </mask>
      <path d="M26.522978 23.71885c-.161665 3.307589-.573222 6.252713-1.75833 9.07693-.923018 2.199956-2.071797 4.235156-3.551949 6.104302-1.30707 1.650681-2.848462 3.021665-4.517784 4.296649-1.526342 1.165751-3.195406 2.050508-4.94595 2.756497-1.380247.55706-2.85469.895395-4.305 1.260454-1.481709.372843-2.995076.54746-4.53076.515287-1.599518-.03347-2.922158-1.36294-2.891537-2.945125.026987-1.381102 1.363639-2.689556 2.755823-2.75987 1.221955-.061751 2.46-.08666 3.655746-.312908 1.495722-.28281 2.919823-.834422 4.301886-1.507978 2.165475-1.055481 4.040057-2.489255 5.595981-4.29613 1.478595-1.717362 2.691469-3.636065 3.387171-5.816043.349798-1.095438.627197-2.227979.788342-3.36493.177494-1.250335.305684-2.531806.23043-3.786292-.077588-1.29159-.318658-2.599005-.685322-3.841297-.392095-1.327654-.905633-2.645968-1.560336-3.86387-1.105702-2.056995-2.576512-3.82547-4.425664-5.314768-1.433703-1.154335-2.986513-2.053103-4.664918-2.714984-1.183032-.466768-2.45507-.743351-3.71076-.980238-1.006316-.189665-2.047405-.198746-3.074221-.275546C1.500263 5.865704.320345 4.80218.050212 3.620082-.186706 2.581725.498877 1.263152 1.476389.674698 2.57275.014893 3.74696.263455 4.88951.312234c.82493.035286 1.636368.310054 2.461038.430443 2.041178.2976 3.938076 1.016302 5.788526 1.895092 2.923196 1.388108 5.44236 3.327567 7.542183 5.760519 1.71733 1.990054 3.139614 4.201167 4.025526 6.709621.406367 1.150703.830898 2.298033 1.165126 3.47053.197994.694832.255861 1.433254.341494 2.156368.128968 1.086356.227057 2.176345.309576 2.984043" fill="#000" mask="url(#b)"/>
    </g>
    <g transform="translate(23 16.03347)">
      <mask id="d" fill="#fff">
        <use xlink:href="#c"/>
      </mask>
      <path d="M.017516 23.99782C.017256 17.125.042168 10.252178.00013 3.379876-.01051 1.638123 1.391275.180999 3.117687.245864c1.554367.058378 3.112367.002854 4.66829.015048 1.594849.012454 2.897767 1.379546 2.85521 2.972627-.03607 1.356455-1.355595 2.677882-2.722348 2.714725-.540007.01453-1.081051.017643-1.621057.001557-.40507-.011936-.613703.136216-.58438.562248.011937.172281 0 .3456 0 .51866 0 11.303092 0 22.606183.00026 33.909535 0 .21613-.05164.454313.022835.641643.069544.175135.260012.39801.422975.421362.423753.061492.861778.030876 1.293835.025687 1.443563-.017125 2.467266.573405 3.011943 1.963589.407146 1.039135-.069285 2.616649-1.036418 3.18694-.621228.366098-1.267886.583006-2.01938.559395-1.468474-.046184-2.939544-.03321-4.409056-.009081-1.636887.026465-2.992481-1.345038-2.988849-2.984303.014792-6.915892.006228-13.831784.005969-20.747676" fill="#000" mask="url(#d)"/>
    </g>
  </g>
</svg>
