<svg width="80" height="80" viewBox="0 0 80 80" xmlns="http://www.w3.org/2000/svg">
  <title>
    dgb-digibyte
  </title>
  <g fill="none" fill-rule="evenodd">
    <path d="M.000066 40.230093C-.017077 18.054313 17.872374.144395 40.151714.219573c21.867912.073643 39.82154 17.731068 39.78 39.964712-.0411 21.966027-17.903077 39.843726-40.143516 39.73567C17.846878 79.813215.13501 62.16456.000066 40.230095" fill="#1068C6"/>
    <path d="M7.558967 40.19978C7.54512 22.218193 22.051055 7.69567 40.11677 7.756385c17.731867.059835 32.28989 14.377643 32.256043 32.406137-.033187 17.811727-14.516923 32.308165-32.55121 32.220713C22.030177 72.296438 7.66842 57.985863 7.558968 40.19978" fill="#042652"/>
    <path d="M20.742044 30.534247c-.20154-.044494-.402857-.088767-.686374-.151233 1.12088-1.964932 2.198682-3.860165 3.282418-5.751672.411868-.718904 1.067692-.903013 1.85978-.899726 3.954506.017316 7.90923.007233 11.863736.006795h1.113407c.45978-1.17041.89649-2.28186 1.37737-3.50553 1.34308 0 2.7266-.02038 4.10901.00943.5877.01294.72967.28318.50506.90214-.29714.81929-.63516 1.62411-.99011 2.52231h1.86022c.41759-1.055343.8677-2.192877 1.33627-3.376877h4.58044c.344837.712767-.16044 1.224548-.32264 1.784548-.15956.550797-.39187 1.08055-.633843 1.73085.743955.13304 1.41033.24044 2.072087.372824 1.61868.323505 3.167694.82827 4.606375 1.665313 3.227474 1.87704 4.688353 4.97622 3.92396 8.64-1.555384 7.454467-5.571867 13.300385-12.084175 17.36548-3.092526 1.9303-6.46923 3.188604-9.984834 4.103014-.34989.09096-.69956.18367-1.0578.2777-.37956.968765-.777365 1.90575-1.11055 2.864656-.21055.60537-.55978.87715-1.21055.863345-1.31253-.027615-2.626155-.00833-4.05033-.00833.35099-.966792.66769-1.838464 1.02176-2.81315-.65297.059837-1.24418.11397-1.905277.174248-.24308.636054-.48154 1.27759-.73319 1.91386-.17231.435508-.44154.734905-.97187.729864-1.384615-.01381-2.76923-.0046-4.263736-.0046.31077-.8423.58176-1.57655.87912-2.382245-1.621976-.09293-3.205273-.18389-4.932525-.28296 3.22176-7.89392 6.39231-15.66181 9.59736-23.51496.437585 0 .86945.00022 1.30132 0 2.123737-.0011 4.24769-.01841 6.37121.00285 1.124614.011175 1.44769.49819 1.09077 1.5349-.035606.10345-.07319.206027-.11231.307945-1.31868 3.430135-2.637805 6.859833-3.95583 10.29019-.56 1.456876-1.1178 2.91507-1.74483 4.551013.97297-.079564 1.825058-.105207 2.66374-.22444 7.221755-1.02751 13.25758-6.66718 14.68417-13.783235.17363-.86619.14901-1.83912-.054064-2.699176-.4378-1.85293-2.056043-2.98301-4.244175-3.179615-.50835-.02959-1.016705-.084165-1.525056-.084603-7.515386-.005913-15.03077-.00548-22.546155-.003064-.326595.00022-.652968.03397-.97934.052164" fill="#FBFCFC"/>
  </g>
</svg>
