<svg width="80" height="80" viewBox="0 0 80 80" xmlns="http://www.w3.org/2000/svg">
  <title>
    dgd-digixdao
  </title>
  <g fill="none" fill-rule="evenodd">
    <circle fill="#FFF" cx="40.5" cy="40.5" r="37.5"/>
    <g fill-rule="nonzero">
      <g fill="#014655">
        <path d="M22.937 29.48h10.938v3.53H22.937v-3.53m27.417 16.24H24.7v13.063h25.62c3.563 0 6.668-2.966 6.668-6.567-.07-3.637-3-6.532-6.634-6.496"/>
        <path d="M39.98 0C17.89 0 0 17.9 0 40s17.89 40 39.98 40c22.09 0 39.98-17.9 39.98-40 .035-22.1-17.89-40-39.98-40zm1.306 17.83H60.34v3.882H45.52V33.01h10.94v-3.53h-7.764v-3.884h11.997v11.297H41.286V17.83zm-21.878.352h11.997v4.59H19.408v-4.59zm-.353 7.414h15.173V17.83h4.233v19.063H19.056V25.596zm32.18 38.13H19.41v-22.95h31.83c6.174 0 11.22 5.19 11.22 11.475 0 6.285-5.047 11.474-11.222 11.474z"/>
      </g>
      <path fill="#C39145" d="M19.408 18.182h11.997v4.59H19.408"/>
    </g>
  </g>
</svg>
