<svg width="80" height="80" viewBox="0 0 80 80" xmlns="http://www.w3.org/2000/svg">
  <title>
    dice-etheroll
  </title>
  <g fill="none" fill-rule="evenodd">
    <circle fill="#000" cx="40" cy="40" r="40"/>
    <path d="M40.07039 45.137036c-1.018934-.076905-1.946035-.230248-2.714792-.831036-.84426-.659747-.837633-1.58237-.012545-2.26006 1.26793-1.04124 3.986272-1.06408 5.30367-.04428.887336.687015.895857 1.65042.003313 2.335335-.776332.596127-1.709586.713814-2.579646.80004m-.08923-12.68482c-.695385.2419-1.368758.371007-1.932545.688646-5.211834 2.93683-10.40994 5.89672-15.598816 8.87246-1.24284.71242-1.22273 1.50104.05136 2.2307 5.19124 2.97388 10.39053 5.93377 15.59739 8.88061 1.25396.70985 2.55337.69028 3.80876-.02214 5.16923-2.93449 10.33562-5.87341 15.49491-8.82468 1.37799-.78792 1.36213-1.553-.04592-2.36097-3.15385-1.80982-6.31977-3.5989-9.48095-5.3959-1.93799-1.1016-3.86225-2.22767-5.82249-3.28941-.6374-.34514-1.36947-.52085-2.07172-.7793" fill="#FCFCFC"/>
    <path d="M46.818603 29.76319c.02367.60778-.001183 1.236532-.58651 1.55184-.59053.318105-1.241182.18294-1.7813-.19669-1.342722-.943827-2.209468-2.181524-2.208995-3.86387.000474-1.324388.952426-1.879266 2.142722-1.218586 1.46083.810527 2.242604 2.096697 2.434083 3.727306m7.040474-8.027668c-.04213-1.538324.669112-2.144704 1.800236-1.7998 1.533965.467953 3.03361 2.756213 2.826272 4.312947-.154556 1.16265-.937988 1.61779-2.016568 1.11092-1.64639-.77348-2.32142-2.21113-2.60994-3.62407m5.911715 9.16632c0-2.52317-.022485-5.0468.008285-7.56974.01917-1.5861-.643314-2.75971-2.020592-3.54553-4.889468-2.78954-9.78296-5.57209-14.675266-8.35673-.13586-.07714-.2703-.15847-.4116-.22419-.96639-.45024-1.61704-.12515-1.77207.89978-.04048.26637-.0187.54252-.0187.81402-.00095 4.96896.01301 9.93793-.00805 14.90666-.00758 1.75389.71952 3.02165 2.27006 3.89626 4.76828 2.68979 9.51905 5.40942 14.27929 8.11343.3039.17245.61799.33838.94603.457.6994.25285 1.25372-.05966 1.37988-.77464.04686-.26427.02201-.54206.02201-.81356.00118-2.60101.00071-5.20178.00071-7.80278m-21.98013-15.8846c-.15882 1.44837-.91219 2.83894-2.47787 3.68046-1.1458.61617-2.09136.05989-2.09539-1.19412-.00616-1.82544.88497-3.18292 2.46958-4.0552 1.1877-.65392 2.08426-.06386 2.10367 1.56885M26.16272 33.98399c-.008284 1.451166-1.234556 3.35164-2.543905 3.941707-1.16355.524582-2.11077-.016313-2.077634-1.279878.04639-1.75436.8961-3.12839 2.43574-3.99485 1.23172-.69354 2.19338-.06362 2.1858 1.33301m5.8284-9.4511c-.21467 1.61942-.98319 3.0051-2.57869 3.8119-1.13538.57422-2.02674-.0056-2.07266-1.26753-.05278-1.44884 1.21965-3.45954 2.55882-4.04332 1.20166-.52389 2.12805.09671 2.09255 1.49894m7.14722-4.21437V13.096c0-.233044.00971-.46632-.00166-.6989-.0658-1.31693-.76-1.729885-1.93065-1.091577-1.75171.955244-3.47858 1.953605-5.21278 2.939614-3.23006 1.83592-6.45562 3.68023-9.68734 5.513355-1.38319.784193-2.07361 1.9331-2.06935 3.519664.01468 5.164257.00474 10.32898.00782 15.49347.00024.309015-.01704.63178.0632.924252.16.583074.699175.84595 1.28568.64017.32923-.11582.641187-.288276.9458-.461195 4.727576-2.68374 9.44071-5.39241 14.18485-8.04748 1.680478-.940333 2.46154-2.275675 2.4258-4.170323-.04639-2.44533-.01136-4.892294-.01136-7.338557" fill="#FBFBFB"/>
    <path d="M40.07039 45.137036c.87006-.086227 1.803314-.203914 2.579646-.80004.892544-.684917.884023-1.64832-.003314-2.335335-1.317397-1.0198-4.03574-.99696-5.30367.04428-.825087.67769-.831715 1.60032.012546 2.26006.768757.60079 1.695858.75413 2.714793.83104" fill="#31A1E9"/>
    <path d="M53.858982 21.735452c.288758 1.412946.96355 2.850595 2.60994 3.6243 1.07858.506872 1.862013.051504 2.016806-1.111153.2071-1.55674-1.292545-3.845-2.82651-4.31295-1.130887-.34491-1.84213.26147-1.800236 1.7998" fill="#050505"/>
    <path d="M46.818604 29.76319c-.19148-1.63061-.973255-2.91678-2.434083-3.727306-1.19029-.66068-2.14224-.105802-2.14272 1.218587-.00047 1.68235.86627 2.92005 2.209 3.86387.54012.37963 1.19077.5148 1.7813.19669.58533-.3153.61018-.94406.58651-1.55184" fill="#040404"/>
    <path d="M31.991148 24.53289c.035503-1.402226-.890888-2.022822-2.092544-1.49894-1.339172.583776-2.611598 2.59448-2.558817 4.043315.045917 1.261933.937278 1.841747 2.072426 1.267526 1.59574-.80679 2.36426-2.19247 2.578935-3.8119" fill="#050505"/>
    <path d="M26.162627 33.98392c.00781-1.396632-.953846-2.026317-2.1858-1.33301-1.539644.866457-2.389348 2.240717-2.435502 3.99484-.033372 1.263798.913847 1.80446 2.077397 1.279878 1.30935-.590068 2.535858-2.49031 2.543905-3.941707M37.79065 15.01724c-.019407-1.632707-.915975-2.222774-2.103668-1.568853-1.584615.872284-2.47574 2.229765-2.469586 4.0552.004024 1.25401.949586 1.810285 2.095385 1.194117 1.56569-.84152 2.31906-2.232095 2.47787-3.680463" fill="#040404"/>
    <path fill="#31A1E9" d="M21.89349 46.394728l18.040635 22.541094v-12.03636"/>
    <path fill="#71D22A" d="M57.92229 46.394728L39.881658 68.935822v-12.03636"/>
  </g>
</svg>
