<svg width="80" height="80" viewBox="0 0 80 80" xmlns="http://www.w3.org/2000/svg">
  <title>
    dime-dimecoin
  </title>
  <g fill="none" fill-rule="evenodd">
    <circle fill="#FFF" cx="40" cy="40" r="39"/>
    <path d="M53.110032 26.74273c2.604637 2.58029 4.312665 5.661016 5.116466 9.243188.057128.253934.136907.502648.216686.792715H70.73453c-.242944-5.142107-2.782635-11.913606-7.257865-17.021588-3.036806-3.466546-6.606206-6.204814-10.948538-8.0773-.02666.333226-.050713.496225-.050713.659225-.002606 4.376692.00922 8.753586-.01764 13.130078-.003808.585955.288647.915366.650258 1.273683zm5.324934 16.511312c-.06735.22563-.126684.38301-.16076.545406-.787365 3.739148-2.541697 6.946542-5.301683 9.585646-.41112.393245-.50453.814394-.50373 1.339926.005814 4.381912-.004208 8.763824-.006012 13.145736 0 .123053.03989.246306.06254.378592 9.10481-3.544432 17.38216-13.681506 18.23507-24.995306H58.43497zM40.027912 77.294607C19.370216 77.32532 2.696647 60.642177 2.705267 39.98743 2.713687 19.52198 19.17939 2.820772 39.970385 2.705147c20.94915.066243 37.278547 17.029215 37.32425 37.22367.045702 20.122187-16.14699 37.334274-37.266722 37.36579zM39.96818 0C17.669202.124056.009223 18.03652.000003 39.986628c-.00922 22.152855 17.873657 40.046248 40.029913 40.013327 22.651766-.033925 40.01909-18.494604 39.96998-40.076358C79.950586 18.264357 62.436934.07106 39.968178 0zM21.720682 36.17381c.82164-3.72048 2.562142-6.935503 5.321727-9.56738.42575-.406093.46945-.836275.46885-1.344945-.00582-4.20988-.00421-8.419358-.00822-12.629036-.0004-.28826-.02887-.57612-.05032-.977-5.88038 2.669814-10.46405 6.65808-13.81837 12.04469-2.480356 3.98345-3.98854 8.30514-4.43714 13.07568h12.36932c.07216-.28063.118465-.44022.154145-.602017zm25.221926-6.386685c-.596337-.409706-.81202-.833665-.808813-1.54488.025858-5.818394.01363-11.636788.012828-17.455382v-1.15605c-4.142483-.801548-8.18294-.833265-12.285533.01666 0 .488396.0002.852936 0 1.217477-.0004 5.78507-.012428 11.570142.01323 17.355013.003006.705193-.18722 1.138787-.792978 1.551304-7.23321 4.926916-7.288334 15.440775-.101427 20.409444.66028.45648.900217.91457.896208 1.70046-.030468 5.78507-.017238 11.56994-.01303 17.355217.000402.385818.041294.772038.06134 1.12092 3.11518.790106 8.284365.89228 12.222792.00843V69.26308c.0006-5.78487.011225-11.569942-.011025-17.354813-.002806-.760596.1788-1.247788.86073-1.719522 7.21036-4.98814 7.176483-15.43696-.054323-20.401615zM22.796493 47.201557c-.49551-1.268062-.863936-2.585908-1.310136-3.943098H9.177772c.605958 5.66784 2.57898 10.69572 5.90724 15.19587 3.224025 4.35923 7.32301 7.62082 12.339053 9.88695.037083-.31857.078576-.510078.078777-.70198.00401-4.38151-.003007-8.763226.01383-13.144736.001805-.48699-.191027-.803755-.52257-1.123933-1.825492-1.762882-3.271532-3.799972-4.197608-6.169083z" fill="#004AA5"/>
  </g>
</svg>
