<svg width="80" height="80" viewBox="0 0 80 80" xmlns="http://www.w3.org/2000/svg">
  <title>
    divi-divx
  </title>
  <g fill="none" fill-rule="evenodd">
    <circle fill="#FFF" cx="40" cy="40" r="40"/>
    <path d="M42.225225 65.916355h-4.172883a2.816318 2.816318 0 0 1-.292793-.031366c-.789369-.013941-1.589279.041822-2.369279-.055764-1.522522-.190523-2.635135-1.464942-2.693693-2.991457-.037478-.929385-.067928-1.869226-.0691-2.803258a13168.959195 13168.959195 0 0 1 0-19.23943c0-.564602 0-.557631-.56099-.571572-1.663607-.052944-3.296507-.458572-4.78892-1.189613-1.754127-.832767-3.30771-2.029169-4.555855-3.508428-1.1665-1.367433-2.068932-2.93642-2.662072-4.628337-.312703-.88524-.527027-1.803007-.782343-2.706834a3.458925 3.458925 0 0 1-.055045-.371754c.39937.34852.721442.636629 1.054054.910797 1.080991.87246 2.327117 1.394078 3.665766 1.751891 2.082342.551822 4.205676.475148 6.324324.471663a4654.619285 4654.619285 0 0 1 11.391982 0 2.242358 2.242358 0 0 1 .276397.036014V56.60508c.585585 0 1.14072.045307 1.687657-.009294 1.280896-.11057 2.54339-.37586 3.75946-.789977 1.791621-.61939 3.433959-1.60128 4.822883-2.883417 1.581367-1.460883 2.796578-3.268212 3.548648-5.277745.718986-1.88724 1.060688-3.895277 1.006037-5.91205-.066757-3.177335-.954505-6.09328-2.82955-8.686264-.844625-1.141035-1.864647-2.143426-3.022793-2.970547-1.96991-1.44984-4.196306-2.186378-6.578468-2.53606a15.899392 15.899392 0 0 0-2.254505-.153348c-4.69054-.01394-9.382252-.025558-14.072793 0-2.41964.01278-4.643693-.626173-6.714324-1.81811-3.045045-1.754213-5.12973-4.32164-6.362973-7.571001C14.564504 17.052779 14.324414 16.064146 14 15c.674595.34852 1.227387.658702 1.796577.929385 1.873873.896856 3.856666 1.42893 5.883964 1.830888 1.695855.33574 3.408108.403121 5.132072.394989 4.814684-.018588 9.628198-.018588 14.442882-.018588 1.882941-.015926 3.763766.129052 5.621622.433326 4.33919.750478 8.205225 2.481458 11.49036 5.433417 2.918559 2.620866 4.907208 5.83189 6.207208 9.493667.636273 1.75423 1.052436 3.579482 1.239099 5.434579a32.728723 32.728723 0 0 1 .148738 4.377403c-.131857 3.427944-.97552 6.792006-2.478198 9.881686-1.219552 2.552148-2.919774 4.849471-5.009099 6.768246-2.491003 2.280709-5.490996 3.943979-8.754504 4.853713-1.168215.34861-2.358375.620272-3.562703.813212-1.171171.170774-2.366937.160319-3.552162.232346a3.630894 3.630894 0 0 0-.38063.058086z" fill="#C12026" fill-rule="nonzero"/>
  </g>
</svg>
