<svg width="80" height="80" viewBox="0 0 80 80" xmlns="http://www.w3.org/2000/svg">
  <title>
    dmd-diamond
  </title>
  <g fill="none" fill-rule="evenodd">
    <circle fill="#FFF" cx="40.5" cy="40.5" r="33.5"/>
    <path d="M23.3718 56.380864c.104134.08354.208267.167077.3124.251263 2.265695-.64888 4.40462-1.642273 6.59464-2.497732.565292-.220826.57564-.51742.151995-.89496-.615094-.54721-1.112474-1.226525-1.709458-1.76143-.78326-.701332-1.312978-1.707678-2.50824-2.206965-.959185 2.399946-1.90026 4.75456-2.841336 7.109824M48.94318 26.36211c1.50184 1.5147 2.748198 2.80598 4.035304 4.05258.516783.500583.802663.421577 1.12088-.33739.637087-1.51988 1.245714-3.05336 1.79419-4.606266.2115-.599015.70047-1.14169.53942-2.061907-2.456498.968138-4.817917 1.899364-7.489794 2.952983m7.56094 29.829012c-.017463-.1075-.01617-.214998-.05239-.307602-.81301-2.05349-1.6202-4.110216-2.45585-6.155286-.149408-.366532-.404242-.55498-.83565-.213702-1.41905 1.124205-2.523115 2.554718-3.77206 3.84082-.38678.398264.085375.61391.421057.75055 1.520598.620385 3.043134 1.236238 4.568258 1.84691.5239.209816 1.05103.415748 1.587217.589948.285233.093252.492205-.036912.53942-.351638M23.86854 23.473238c-.44305-.00518-.516136.288822-.388072.617795.805896 2.059317 1.62473 4.1141 2.45585 6.163704.24772.61132.63191.58671 1.061378.154125 1.12541-1.132624 2.27281-2.243878 3.37364-3.399816.514196-.540085.420412-.788757-.32792-1.097655-1.04456-.43129-2.096884-.84315-3.147913-1.2576-1.003815-.39567-2.00957-.78422-3.026965-1.18054M46.74022 62.37102c-.105427.652765.119655.918274.752212.722056 2.54058-.78552 4.856077-2.03989 6.976245-3.629708.760622-.57117.697884-.91374-.217967-1.306177-1.803242-.77192-3.654993-1.43051-5.46535-2.18689-.693356-.28947-.99282-.00453-1.09695.59513-.335684 1.93174-.635146 3.86996-.94819 5.80559m11.810974-37.77811c-.95207 2.39606-1.79548 4.54863-2.664763 6.69019-.26971.66442-.0401.9662.61575 1.06916.55753.08678 1.11183.19234 1.66871.28753 1.31557.22536 2.62596.50318 3.95058.65212.90421.10167 1.01869-.09131.76256-.95583-.83047-2.80145-2.27669-5.26097-4.33282-7.74316m-25.27062-6.79251c-.00647-.84509-.2102-.98756-.9566-.72982-.38871.13405-.76773.29724-1.14869.45461-1.95523.80753-3.85226 1.71868-5.52938 3.03587-.9967.78293-.99152.90661.23284 1.43763 1.51219.65665 3.0289 1.30488 4.56244 1.90908 1.61244.63658 1.6215.61197 1.97076-1.18249.02911-.15089.10414-.294.12936-.44554.25484-1.52311.50385-3.04688.73928-4.47934m25.53707 37.52425c1.73145-2.32547 3.21066-4.72218 4.03337-7.47894.32728-1.09636.19663-1.30099-.97082-1.12226-1.77866.27199-3.54116.65018-5.30818.9921-.68559.13211-.96177.45525-.65455 1.19544.73087 1.76143 1.40288 3.54682 2.10853 5.31926.14682.36783.1423.83474.79167 1.09442m-11.83297-38.4354c-.48767.04015-.50902.29141-.44111.65212.37061 1.97513.70694 3.95739 1.08984 5.93057.15265.78746.40295.94288 1.21208.6424 1.88409-.69939 3.75331-1.44152 5.60894-2.21473.73346-.30631.72052-.67413.02652-1.23429-2.11758-1.70897-4.59219-2.73216-7.09848-3.69317-.14165-.05375-.30011-.06346-.39777-.08289M21.5304 55.43216c.904207-2.21798 1.74891-4.25204 2.559982-6.2997.3525-.891076.164284-1.24012-.773558-1.418857-1.812943-.34581-3.63171-.66377-5.454355-.95583-.90486-.1457-1.18686.1755-.86411 1.02901.60022 1.58723 1.24636 3.15374 2.1842 4.58878.66878 1.02383 1.14804 2.18171 2.34783 3.0566M42.626 37.51545c3.12851-1.57363 5.933624-2.99119 8.7465-4.394502.684948-.34063.60798-.735008.14941-1.196088-1.094365-1.100246-2.179027-2.2115-3.28956-3.295556-.71276-.6968-.862167-.67284-1.34273.21759-.858933 1.593056-1.7515 3.172513-2.510827 4.812844-.534247 1.15529-1.34467 2.187538-1.752793 3.855714m-25.33206-3.91853c2.329727-.452013 4.40009-.848982 6.468517-1.25955.57952-.11527.564-.5498.40489-.963605-.75998-1.974483-1.52254-3.94832-2.32779-5.904023-.265185-.64499-.540716-.66701-.989586-.115913-1.24571 1.52441-2.32649 3.15762-3.04507 5.00453-.31757.81725-.64096 1.63515-.89838 2.47183-.15652.50771.10672.78682.38743.76674m20.00901 9.04221c-3.25269 1.35799-5.93168 3.14273-8.8571 4.43401-.68947.30437-.35185.73501-.00776 1.08406 1.08984 1.10608 2.17644 2.21539 3.29474 3.29167.7852.75509.96372.72465 1.4598-.23507.99476-1.92656 1.94748-3.87449 2.93706-5.803.41718-.81272.83694-1.61896 1.17327-2.77166m5.618.0544l-.28135.26227c.43141.86712.86023 1.73553 1.29422 2.602.97277 1.94405 1.95136 3.88615 2.92154 5.83279.24578.49281.57758.81078 1.06526.33934 1.26447-1.22328 2.50048-2.47701 3.73132-3.73461.37255-.38142.29494-.75702-.18433-.99857-.6442-.32573-1.30716-.61391-1.95071-.94029-2.20102-1.11579-4.39751-2.24064-6.59594-3.3629m-9.60285 20.6359c.27101-.26033.27618-.52519.22702-.77775-.40359-2.07097-.82659-4.13871-1.22372-6.21163-.10995-.57764-.41653-.63657-.88998-.45201-2.01668.78746-4.0366 1.56845-6.05392 2.35526-.53942.20982-.55042.53296-.20374.95066.57887.69809 1.39124 1.06981 2.14539 1.50304 1.91449 1.10089 3.83674 2.20503 5.99895 2.63243m4.2248-25.67218c-.48832-1.45965-1.19785-2.52363-1.77349-3.65173-.89256-1.75042-1.74697-3.52026-2.64988-5.26615-.4243-.81984-.64744-.87747-1.25542-.29594-1.19397 1.14428-2.343952 2.33584-3.50882 3.51055-.50385.50771-.39842.8846.24255 1.17407 1.74374.78552 3.3413 1.84367 5.03395 2.72244 1.21014.62816 2.47526 1.14882 3.91112 1.80676m7.54348-10.37041c-2.05484-.34063-9.07636-.25061-10.09893.09585.88674 2.61106 4.36322 9.21706 5.30947 9.937828 1.47726-3.36874 3.38593-6.49074 4.78946-10.03367M27.0572 34.73604c0 3.31498-.01164 6.25113.00518 9.18792.00776 1.32496.14229 1.41627 1.30198.845748 2.63695-1.297757 5.25967-2.625952 7.885627-3.947023.36414-.183267.758036-.343867.966948-.973967-3.25916-1.64033-6.539663-3.290373-10.15973-5.112674m12.87364 18.45484v-.00259c1.39318 0 2.78636.02202 4.17889-.006477 1.009637-.02137 1.13576-.200104.697885-1.095713-1.37895-2.820226-2.793474-5.62297-4.20088-8.4296-.134534-.2681-.23026-.6301-.59246-.65082-.45922-.0272-.55171.41057-.705.71364-.81754 1.61183-1.611795 3.23468-2.42028 4.8504-.578227 1.154642-1.188147 2.293094-1.743737 3.456803-.463745.97008-.35056 1.138453.761916 1.158528 1.34079.02526 2.68222.00583 4.02366.00583m13.17829-13.1751h-.00259c0-1.343733.01811-2.68747-.00582-4.03056-.02135-1.191556-.152-1.269914-1.2593-.71882-2.76954 1.37676-5.52874 2.77489-8.29052 4.16849-.27036.13664-.61833.2545-.60022.62492.0194.424815.3913.545266.7244.706514 1.6202.78487 3.25075 1.54513 4.81662 2.44269 1.06914.61197 2.20231 1.11967 3.3316 1.61766 1.11829.4941 1.26059.39697 1.27999-.78099.02263-1.34309.00582-2.68682.00582-4.02991M40.02268 55.35055c-1.64866 0-3.29797-.00388-4.94663.001946-.447575.00195-.877042.0939-.76256.68644.457278 2.37146.94366 4.73708 1.40288 7.10789.13065.673484.53748.86064 1.176506.98044 2.15639.4015 4.291432.21694 6.441353-.020077.7632-.08419 1.05167-.41187 1.16551-1.14299.34861-2.23222.75738-4.45603 1.15063-6.68177.1203-.68191-.17657-.94224-.835-.9377-1.59692.01295-3.19513.00388-4.7927.00583m-.07762-30.43386c1.6008 0 3.20224.02007 4.80304-.00842.87122-.01554 1.00899-.19881.86023-1.02383-.3926-2.17912-.82854-4.35112-1.19397-6.53542-.13324-.79718-.56853-1.20192-1.30393-1.28934-2.10659-.25061-4.2177-.26227-6.32428.01101-.7962.10361-1.22631.46691-1.34338 1.3813-.26712 2.09234-.69724 4.16396-1.06073 6.244-.19792 1.13068-.15135 1.20191 1.06978 1.21616 1.49731.01878 2.99527.00453 4.49323.00453M24.89563 40.06434h-.00841c0-1.552908.02652-3.105814-.0097-4.658073-.023285-.966842-.17205-1.078227-1.104713-.911798-2.12793.37948-4.24228.84639-6.37991 1.16306-.965007.14311-1.361488.66507-1.430694 1.4998-.172046 2.06579-.130652 4.13676.001293 6.2045.04463.69421.383544 1.13003 1.146753 1.21681.76515.08807 1.51865.27522 2.27863.41575 1.31621.24349 2.62919.51288 3.95187.71882 1.37313.21305 1.54064.05698 1.55228-1.301.01229-1.4493.00259-2.89859.00259-4.34788m30.1752-.0531c0 1.49721-.01358 2.99572.00453 4.49293.01488 1.2466.23867 1.43504 1.48503 1.1663 1.106-.23896 2.2133-.45331 3.3316-.63075 1.11441-.1755 2.20877-.47792 3.30961-.73371.42041-.09714.71211-.2694.79425-.79135.36996-2.36045.3221-4.71118-.01165-7.06773-.07697-.54074-.33245-.80754-.87639-.89885-2.33038-.38855-4.65363-.8166-6.98465-1.20192-.83242-.13859-1.02581.01813-1.04133.86193-.02976 1.60018-.00841 3.2023-.011 4.80313M39.5486 79.97234C18.42582 80.45545.51176 62.10486.011792 41.18725-.54056 18.07174 18.384427-.459524 40.822762.00868 62.13957.452924 79.42754 18.150746 79.98572 38.96474c.60992 22.723075-18.401092 41.863714-40.437126 41.007608" fill="#3E6492"/>
  </g>
</svg>
