<svg width="80" height="80" xmlns="http://www.w3.org/2000/svg" xmlns:xlink="http://www.w3.org/1999/xlink">
  <defs>
    <path id="a" d="M0 .057276h28.670033V43.91108H0z"/>
    <path id="c" d="M.224337.082919h27.772829v43.543473H.224336z"/>
    <path id="e" d="M.192325.057962h15.42927v1.901877H.192325z"/>
    <path id="g" d="M.164847.06982h15.381685v1.699302H.164847z"/>
  </defs>
  <g fill="none" fill-rule="evenodd">
    <circle fill="#FFF" cx="40" cy="40" r="40"/>
    <g transform="translate(23 9.420141)">
      <mask id="b" fill="#fff">
        <use xlink:href="#a"/>
      </mask>
      <path d="M14.68893 41.810919c-1.494777.765807-2.74544 1.442442-4.03377 2.037498-.265151.122735-.748245.055365-.999209-.116856-3.0441-2.089923-5.840417-4.45104-7.81682-7.633574C-.661704 32.071252-.501 27.941871 1.649073 23.87496c2.280936-4.314586 6.056892-7.091434 10.234979-9.345004 2.327165-1.255277 4.877165-2.132795 7.094748-3.54584 2.136863-1.361843 4.091986-3.073762 5.91013-4.853786 1.6342-1.599964 2.330345-3.78396 2.692604-6.073053 1.204676 1.884386 1.364647 3.875583.700302 5.932434-1.639094 5.076229-5.244561 8.344996-9.909655 10.560594-3.457726 1.6421-6.671093 3.586016-9.151626 6.576731-3.791122 4.57059-3.64974 10.206599.462058 14.494482 1.149151 1.198197 2.508417 2.195265 3.780115 3.273912.333396.282707.700791.525482 1.226202.91549" fill="#0E6CB6" mask="url(#b)"/>
    </g>
    <g transform="translate(28.870504 25.588815)">
      <mask id="d" fill="#fff">
        <use xlink:href="#c"/>
      </mask>
      <path d="M.477737 43.626392c-1.330403-6.952776 2.712906-13.524852 8.960345-16.11037 3.275986-1.355719 6.22787-3.22075 8.652388-5.838361 4.688331-5.062265 4.637943-10.836442-.183942-15.775482-1.046417-1.072032-2.308086-1.933627-3.476072-2.885374-.303798-.24743-.6279-.469871-1.096806-.817988 1.498446-.755763 2.81882-1.444646 4.165856-2.076205.20449-.095787.589741-.005634.79741.136454 3.56682 2.44245 6.87167 5.17716 8.678806 9.238193 1.747943 3.928743 1.156245 7.782767-1.041525 11.34551-2.82249 4.575735-7.05977 7.518679-11.894863 9.617667-3.384346 1.469144-6.671338 3.054654-9.408216 5.595586-1.994993 1.852048-3.4499 4.013016-3.901439 6.758996-.036935.224647-.134288.43925-.251942.811374" fill="#45B549" mask="url(#d)"/>
    </g>
    <path d="M41.290508 58.249244c1.765554-.758948 3.309985-1.485068 4.907985-2.06371.382072-.138414 1.018777.101666 1.408432.362325 3.412964 2.283702 4.699827 5.49098 3.946202 9.511345-.2199 1.173454-.553785 2.32535-.963008 3.489249-.723295-5.711462-5.051079-8.405996-9.299611-11.299209" fill="#0E6CB6"/>
    <path d="M29.381213 9.245715c.718892 5.84522 4.82164 8.642401 9.141597 11.480004-.421942.23322-.668993.403482-.940259.513723-.866633.351546-1.761151.639152-2.610417 1.0272-2.034374.929944-2.208533.936804-3.673223-.791774-2.630964-3.105121-3.39095-6.688932-2.591094-10.641193.056504-.278297.146029-.55194.242403-.819458.05308-.147478.152633-.278297.430993-.768502" fill="#45B549"/>
    <g transform="translate(32.05036 67.970341)">
      <mask id="f" fill="#fff">
        <use xlink:href="#e"/>
      </mask>
      <path d="M.2845 1.957071C-.006336.563871.38552.052597 1.539074.058477c4.27177.021803 8.544029.016413 12.815554-.00049.774417-.00294 1.365137.256004 1.253352 1.070807-.04354.317249-.665568.78859-1.02856.79251-4.748994.053406-9.498965.035767-14.294922.035767" fill="#96D3E5" mask="url(#f)"/>
    </g>
    <g transform="translate(32.05036 9.175161)">
      <mask id="h" fill="#fff">
        <use xlink:href="#g"/>
      </mask>
      <path d="M15.480298.170555c.217698 1.091876-.080475 1.605598-1.204676 1.598494-4.266878-.026458-8.534-.01029-12.801367-.01127-.628878 0-1.293468.01274-1.309123-.873597C.14801-.088634.903837.081872 1.479392.080157 5.787361.067908 10.095088.070603 14.402815.076483c.353942.00049.70813.060265 1.077482.094072" fill="#96D3E5" mask="url(#h)"/>
    </g>
    <path d="M32.396132 40.717256c.370576-.036012.72085-.098972 1.071367-.099707 4.223828-.007594 8.4479-.015433 12.671727.004165.547424.00245 1.355352-.244245 1.353396.744494-.001713.978205-.772705.883643-1.415281.884377-4.102014.00539-8.204273-.014698-12.306288.00882-1.031007.00588-1.517525-.37335-1.37492-1.542149m-.009785-2.468099c-.058216-1.140137.3921-1.552683 1.370029-1.548273 4.146532.019108 8.29331.00931 12.439842.0049.668259-.000735 1.280748.11514 1.281482.939987.000489.915-.756072.689619-1.269497.691824-4.268345.018863-8.53718.014209-12.80577.009064-.315784-.00049-.631568-.05904-1.016086-.097502m1.144528-24.722761h12.789382c-.362749 1.10045-.94026 1.622502-2.06813 1.603639-2.885597-.047772-5.772906-.039687-8.658748.00098-1.052532.014698-1.689971-.406422-2.062504-1.604619m.045399 51.910265c.475266-1.187173 1.04128-1.700896 2.328877-1.631811 2.76354.148458 5.540777.085988 8.311166.035277 1.126892-.020578 1.730576.477956 2.091856 1.596534h-12.7319zm12.260669-20.756169c-.415338 1.067868-1.046907 1.549498-2.148604 1.527695-2.47613-.04924-4.95446-.041401-7.43108-.000245-1.072345.017884-1.756014-.42504-2.25354-1.52745h11.833224zm-.054351-10.383057H34.100046c.40213-1.009807.993583-1.552928 2.09308-1.537739 2.524805.034542 5.05059.032582 7.575395.003675.992849-.011514 1.605827.404462 2.014072 1.534064M37.260627 17.6937h5.15895c-2.081094 2.146025-2.755957 2.156314-5.15895 0m5.117098 43.491236H37.74761c1.544432-1.987766 2.595986-1.976253 4.630115 0m-4.142496-12.556421h3.373338c-1.349238 1.606334-2.118274 1.619563-3.373338 0m3.481429-18.396105h-3.272072c1.28515-1.316278 1.466647-1.323872 3.272072 0" fill="#96D3E5"/>
  </g>
</svg>
