<svg width="80" height="80" viewBox="0 0 80 80" xmlns="http://www.w3.org/2000/svg">
  <title>
    dnt-district0x
  </title>
  <g fill="none" fill-rule="evenodd">
    <circle fill="#FFF" cx="40" cy="40" r="40"/>
    <path d="M11.517 55.063c-6.36-15.7 0-31.465 12.722-42.765 16.306-14.412 38.703 5.684 44.32 15.09 6.09 10.217 3.112 31.938-11.64 40.396-14.75 8.525-38.974 3.045-45.403-12.72z" fill="#2C398F" fill-rule="nonzero"/>
    <path d="M43.726 19.606c.068 1.015-1.557.61-3.316 1.218-1.962.677-3.383.068-3.45-.947-.068-1.015 1.285-3.316 3.18-3.384 1.827-.067 3.52 2.098 3.586 3.113z" fill="#04FFCC" fill-rule="nonzero"/>
    <path d="M68.627 27.455c-5.616-9.405-28.013-29.502-44.32-15.09-12.79 11.3-19.083 27.067-12.722 42.765.135.406.338.812.54 1.22.204-.475.543-.95.88-1.355 3.25-3.316 6.903 3.52 14.55 7.443 5.074 2.64 7.984 6.09 8.796 9.135 7.24.88 14.684-.27 20.57-3.654 14.82-8.527 17.797-30.248 11.707-40.465z"/>
    <path d="M27.554 62.438c-7.646-3.992-11.3-10.76-14.548-7.443-.406.406-.677.812-.88 1.354 4.195 8.727 13.94 14.005 24.292 15.29-.947-3.18-3.79-6.63-8.864-9.202zM70.995 33.815c-1.218-.88-2.503-1.42-3.383-1.488-2.368-.136-4.195 3.112-2.977 7.85 1.083 4.262-.27 7.984 2.098 8.12 1.014.067 2.638-.543 4.195-1.693.88-4.398.88-8.932.067-12.79z" fill="#04FFCC" fill-rule="nonzero"/>
    <path d="M43.32 36.32c-8.526-4.873-15.63 7.646-7.173 12.517 3.925 2.233 8.594 1.354 9.54-3.654.475-2.91.204-7.443-2.367-8.864z"/>
    <path d="M47.11 13.178V29.01c-2.37-1.352-5.076-2.164-7.985-2.164-8.864 0-16.037 7.172-16.037 16.036S30.26 58.92 39.125 58.92c3.113 0 5.954-.88 8.39-2.37.677 1.42 2.098 2.37 3.722 2.37 2.233 0 4.128-1.828 4.128-4.13V13.923c-2.098-1.49-4.4-2.842-6.767-3.925-.947.745-1.49 1.895-1.49 3.18zm-1.422 32.006c-.88 5.007-5.616 5.886-9.54 3.653-8.526-4.87-1.354-17.39 7.172-12.518 2.57 1.42 2.842 5.954 2.368 8.864z" fill="#7DF8FB" fill-rule="nonzero"/>
  </g>
</svg>
