<svg width="80" height="80" viewBox="0 0 80 80" xmlns="http://www.w3.org/2000/svg">
  <title>
    Group 24
  </title>
  <g fill="none" fill-rule="evenodd">
    <circle fill="#FFF" cx="40" cy="40" r="28"/>
    <g fill-rule="nonzero" fill="#C2A633">
      <path d="M40.96 26.36h-5.715v11.268h8.99v4.717h-8.99v11.267h5.995c1.54 0 12.646.174 12.63-13.11C53.85 27.22 43.097 26.36 40.96 26.36z"/>
      <path d="M40 0C17.908 0 0 17.908 0 40s17.908 40 40 40 40-17.908 40-40S62.092 0 40 0zm1.572 61.604H27.086V42.346H21.98v-4.718h5.105v-19.26h12.433c2.94 0 22.422-.61 22.422 21.98 0 22.963-20.368 21.256-20.368 21.256z"/>
    </g>
  </g>
</svg>
