<svg width="80" height="80" xmlns="http://www.w3.org/2000/svg">
  <defs>
    <linearGradient x1=".329341%" y1="49.670659%" x2="99.670659%" y2="49.670659%" id="a">
      <stop stop-color="#B2803C" offset="0%"/>
      <stop stop-color="#F9F3C2" offset="51.319356%"/>
      <stop stop-color="#B48740" offset="100%"/>
    </linearGradient>
    <radialGradient cy="69.124003%" fx="50%" fy="69.124003%" r="46.164565%" id="b">
      <stop stop-color="#59A400" offset="0%"/>
      <stop stop-color="#6BD900" offset="100%"/>
    </radialGradient>
  </defs>
  <g fill="none" fill-rule="evenodd">
    <circle fill="url(#a)" cx="40" cy="40" r="40"/>
    <circle fill="#4F2A2A" cx="40.5" cy="40.5" r="32.5"/>
    <path d="M63 32.271829c-.261985.087924-.549191.132776-.781765.271038-1.082132.643566-2.14919 1.313006-3.207573 1.964505.01-.065016.025809-.167916.049411-.32145-.699779.165618-1.229558.569951-1.766911 1.007645a675.563444 675.563444 0 0 1-.058824-.395585c-.848823.285865-1.410073.892735-1.979485 1.554094-.037059-.292018-.06897-.544003-.106765-.841433-.894559.401515-1.283382 1.172446-1.766911 1.934851-.066177-.310996-.117942-.554456-.180295-.847438-.845661.397883-1.19397 1.129152-1.568897 1.932998-.071103-.328789-.125661-.580774-.189853-.877537-.876985.52925-1.158456 1.401598-1.569338 2.312496-.072573-.326194-.124632-.560461-.187206-.841804-.880147.428353-1.08544 1.214555-1.229926 2.08075-.06353-.069094-.095368-.098822-.121544-.132998-.10603-.138707-.210294-.278674-.315294-.418197-.116177.137076-.258603.259473-.343603.41397-.247427.44963-.471839.912159-.723824 1.405899-.080147-.187266-.148897-.347842-.235809-.550898-.694264.537776-1.025735 1.229975-1.111176 2.127751-.114633-.17444-.19831-.301878-.30647-.466458-.608677.572397-.73934 1.279423-1.092354 1.884736-.08625-.06383-.166103.025355-.25272-.038698-.195736.08696-.071986.128698-.18331.32664-.054558.290386-.203087.667067-.712132.647717.169853-.241458.970736-1.355708 1.033089-1.45112.10044-.153682.198676-.304843.292647-.458674.278676-.456227.251985-.519613-.305147-.65869.135956-.269259.274632-.524283.39522-.78776.158677-.34673.321838-.69331.448824-1.052273.1425-.402998.072059-.478171-.356986-.466384-.081029.002224-.162132.000297-.322352.000297.771323-.734012 1.194485-1.555206 1.114705-2.646845-.269779.08303-.505588.15561-.766911.236046.252426-.577735.508603-1.125742.72919-1.687982.085369-.217587.090221-.467274.131766-.702282-.223383.019127-.446986.035289-.669927.059012-.080147.008525-.158456.035214-.33.075024.734485-.8186 1.38022-1.594126 1.02728-2.790963-.337648.178665-.63125.334052-.924706.489365-.017133-.016976-.034192-.033954-.05125-.05093.16169-.309885.33228-.615396.483014-.930618.26772-.559868.47147-1.139679.447574-1.774572-.014632-.388023-.100074-.432949-.44647-.246203-.096986.052266-.189339.113205-.285074.168065-.094044.05397-.189633.105346-.347353.119802.058309-.122916.115367-.246425.175073-.3686.301544-.617174.512942-1.259555.446177-1.957092-.047206-.492998-.148677-.534366-.577206-.29491-.177647.099193-.351397.205355-.544853.318782.154927-.562982.336618-1.085486.433162-1.623559.06375-.355552.020809-.73453-.00331-1.101054-.022205-.335906-.211323-.346137-.450293-.182224-.180662.123805-.359632.250132-.594633.413822.182574-1.03537.245-2.009654-.21397-2.982307-.163088.105643-.280956.182076-.430515.27897-.078456-.819118-.125294-1.625485-.598088-2.362536-.123015.140337-.207426.236639-.32853.3749C41.401324 20.514078 41.151398 18.71126 40.5 17h-.07353c-.246029.7971-.539852 1.58308-.725514 2.394193-.219485.958492-.345368 1.938706-.530147 3.016038-.084118-.171697-.150956-.308328-.254044-.518946-.50831.839283-.567574 1.635568-.64228 2.462694-.146617-.096376-.27044-.177776-.393382-.258658-.385956.560017-.448015 1.28061-.264559 2.920404-.298382-.180148-.587573-.35481-.917573-.554086-.420956 1.131524.028455 2.09061.35419 3.106409-.281838-.161689-.511543-.296763-.744338-.426203-.215514-.119802-.33272-.06346-.382058.19238-.146103.757513.090735 1.43785.392867 2.107068.060147.133221.135883.259399.166177.451705-.305883-.165024-.611765-.330123-.970588-.523616-.26331 1.251994.370808 2.178163.897132 3.242224-.394338-.20995-.687868-.366301-.981618-.522726-.358676.731639-.17728 1.243987.975074 2.782438-.19228-.053748-.31978-.106532-.451691-.122026-.17272-.020165-.348897-.010898-.523603-.014383.013897.165396-.010147.346063.048382.49337.213309.537479.45353 1.06406.685368 1.593978.041911.095782.092573.187784.161764.326936-.289411-.100527-.524926-.182373-.822058-.285569-.066544 1.092158.335882 1.916837 1.108676 2.652925-.144044.006598-.230882.015197-.317574.013863-.415146-.006524-.500588.07888-.349411.474983.18397.482027.42375.942406.639559 1.412126.065367.142265.131397.28416.20044.433393-.580734.116392-.595.149012-.287867.658246.127059.210766.27853.407298.393603.624069.043824.082512.016544.203427.021618.306845-.045074.00734-.090147.01453-.13522.021796-.14706-.317298-.293604-.634967-.441398-.951969-.057206-.122842-.112794-.246796-.17647-.366227-.274118-.513534-.335736-.525766-.761839-.124473-.087647-.84551-.411323-1.545494-1.11603-2.095354-.081323.192973-.149558.354884-.224337.532586-.341471-.630593-.673971-1.244802-1.006545-1.858937-.043823.009637-.087647.019275-.131544.028987-.111764.180593-.22353.361112-.37603.607537-.137425-.885173-.349558-1.67019-1.22647-2.114037-.062794.27645-.117132.515758-.19294.84907-.401324-.906969-.696618-1.784506-1.578236-2.325173a5075.82947 5075.82947 0 0 1-.176544.891103c-.377206-.795988-.72875-1.5214-1.559191-1.945156-.071471.293353-.131471.54-.205589.844399-.47147-.764704-.873014-1.523699-1.760514-1.930404-.03375.30084-.061545.549045-.090515.807257-.29603-.290016-.570294-.60079-.8875-.857595-.317868-.257323-.67875-.46075-1.066985-.718591-.048456.202018-.074633.311441-.092574.386244-.559044-.331829-1.117941-.66351-1.676765-.99519l-.078529.094597c.013088.110239.026103.220626.041103.347916C20.689118 33.70004 19.45397 32.761046 18 32.197694v.14827c.880735 1.209662 1.76147 2.419324 2.631912 3.6149-.015.001261-.112794.009713-.247794.021352.228455.677891.696103 1.145239 1.190367 1.651804-.147132.028393-.245367.047446-.343014.066277.075367.466235.34522.765148 1.642794 1.827726-.245662.063608-.470736.121878-.760074.196829.473015.857372 1.286103 1.16014 2.090735 1.560543-.287867.095709-.5225.173699-.808897.268888.46.822455 1.246618 1.065396 2.065 1.374243-.304044.096153-.541176.171252-.829779.262586.596691.845363 1.509559 1.012611 2.443235 1.342809-.319411.105272-.54147.178517-.809706.266886.5325.836096 1.315221.979028 2.24.992298-.231323.179556-.403308.312925-.640588.497002.63272.447331 1.31272.626368 2.023015.86916-.185809.110313-.335441.199127-.534927.317595.607574.629184 1.328824.877833 2.143898.894069.007058.03551.023161.068427.01419.078583-.312279.349843-.299043.442438.155883.622883.474632.188303.961544.345025 1.444485.516129-.170882.377199-.145735.452224.24581.533253.619484.128254 1.244117.231672 1.866543.345618.004706.038031.009412.076063.014118.114168-.116544.012232-.239338.05397-.348235.030321-.200956-.04374-.39-.150271-.591544-.181556-.100221-.015495-.21706.077545-.326324.121507.006765.033509.013603.066944.020368.100527-.226839-.11061-.445589-.245387-.682721-.324712-.227132-.075914-.473162-.094151-.752794-.145378.021838.165543.036617.277635.052426.397141-.432132-.136927-.853382-.270519-1.344705-.426277.035661.225223.055661.351178.085955.54267-.459558-.36393-.921397-.61243-1.52544-.452225.064926.148567.119779.27393.192867.44103-.583824-.157389-1.097574-.51939-1.728309-.312628.074118.146343.1325.26192.215735.426277-.529706-.13033-1.008235-.361557-1.553161-.12981.085588.154126.15522.279489.256985.462899-.5675-.123139-1.10022-.315816-1.680515-.102084.072794.14308.13125.257768.221691.435544-.333897 0-.634926-.025948-.929117.008006-.242794.028097-.577133-.030247-.65478.388839-.242132.050782-.54294.0986-.833603.182372-.11169.032249-.371544-.002965-.24228.272891-.095734.036327-.18875.085849-.28772.106829-.72875.15472-1.459338.300544-2.187573.457488-.12456.026762-.240736.093261-.360736.141375-.00044.03388-.000955.06776-.00147.101565.263897.067315.524559.155684.792353.19757.603676.094374 1.21103.163987 1.816323.248056.114044.015865.250442-.029876.256691.201944.00206.07584.320883.156648.50206.210618.256764.076433.517132-.002669.756543.29921.14978.188821.639265.112462.977647.136334.14081.00986.285-.029135.470662-.051005-.076176.164802-.130588.282529-.202647.438138.582941.222924 1.09125-.030766 1.607868-.162504.010882.030766.02897.055008.024485.07369-.032132.133666-.068897.26622-.104191.399144.141544.021425.29103.082957.423162.05649.344411-.06902.681323-.176663 1.04647-.275708a4244.730022 4244.730022 0 0 0-.199044.430354c.65397.14145 1.15647-.19794 1.731397-.4457-.072132.177999-.124264.306623-.190735.470906.589412.18052 1.0025-.132701 1.449706-.452224v.475577c.463456-.173254.88478-.33079 1.332867-.498336-.023455.108237-.044558.205947-.074852.345914.582867.037809 1.0325-.189415 1.470294-.590782-.024927.412561.183382.377644.41353.281935.203455-.084662.39941-.188229.604631-.267776.119118-.046112.274706-.250947.367795.047743.004485.01453.229632-.004818.320955-.060271.343162-.208394.673456-.438287 1.01978-.667513.045.407002-.102794.657578-.423603.797545-.132426.057752-.261765.139893-.365735.239383-.048677.046482-.033824.160502-.023236.247537-.124338.241903-.677794.108015-.562867.591969-.240662.134777-.494265.276598-.805368.45074.151176.10631.211397.148716.264853.186302-.283235.18341-.553456.358518-.875662.567208.14603.089481.214339.131441.269339.165099a7029.464336 7029.464336 0 0 1-.723677.587669c.143897.079176.215.11832.284559.156573-.237647.20617-.478383.415082-.752647.65313.134265.081252.203088.122842.345515.209135-.083677.048707-.171618.070503-.20831.126475-.139926.213435-.490514.335387-.314485.695535.005956.012232-.020588.040478-.031764.061384-.299118.555865-.601103 1.110099-.895662 1.66841-.108162.205132-.198677.419679-.297206.629926h.07353c.336985-.243237.677867-.481285 1.009926-.73112.407059-.306252.881618-.456005 1.344191-.64453.235-.09571.412941-.333757.642132-.529029.032574.041738.085589.10972.179706.230264.200147-.26266.38853-.509901.57397-.75336.225295.266589.385295.143747.703163-.578403.046323.079844.087426.150568.182867.314852.192133-.343023.35331-.630964.514192-.918163.046617.029802.123161.078583.199632.127438.14-.24472.279926-.489366.422794-.739127.1875.093188.1875.093188.478603-.592858.298309.07962.462647-.13715.543015-.715107.086544-.024836.221029-.022982.250735-.078287.213309-.398105.401838-.809703.606691-1.212628.055-.108089.140441-.200164.20897-.301655.0325-.048114.065883-.098007.08581-.151977.015367-.041738.030588-.08355.046029-.125289.02397 1.493303.043235 3.216944.02228 4.0629-.018383.742018-.294118 3.113674-.294118 3.113674L41.566176 62s-.385955-3.443204-.441176-4.596376c-.030441-.634892-.032573-1.859678-.02625-2.991276.043676.091482.090368.181112.144559.265774.198382.30981.211985.68145.404853.928245.186323.238345.31647.485882.455735.74239.038015.070057.167132.08985.275368.143006.082132.562018.243456.77449.511985.68397.227573.169028.071397.671664.519559.637191.135662.227447.279264.468237.422868.709028.068529-.044777.136985-.089555.194558-.127142.15331.278378.313677.569729.494265.897628.094559-.125659.136838-.181927.188823-.251021.02625.033138.048898.055972.064927.082809.087868.147454.163309.303731.263456.441845.127868.176367.273088.29958.362206-.04159.199632.276672.381544.528806.592132.820601.091985-.132182.142206-.204464.141103-.202833.434191.258657.817941.591969 1.261103.727265.71228.217438 1.146544.822974 1.78022 1.130486H49.25c-.178677-.335313-.359044-.669662-.535515-1.006087-.230882-.440437-.598235-.867603-.64669-1.328353-.044633-.423534-.30706-.58463-.486104-.855667.291324-.237751.254486-.301137-.501544-.835428.080147-.047818.15375-.091706.293309-.17496a6094.563446 6094.563446 0 0 1-.689338-.567133c.24397-.228632.163897-.326417-.656618-.728377.06897-.05093.124485-.091928.274853-.202908a6006.79175 6006.79175 0 0 0-.772132-.446886c.059264-.448962-.414118-.370972-.586544-.585.093088-.26785-.077795-.426573-.668383-.58893-.069926-.217512-.13978-.434876-.209632-.652166.024411-.016754.048823-.033583.073235-.050411.344265.225444.68397.4586 1.034632.673517.221397.135741.22875.123583.401544-.124992.284412.127068.573971.253616.86103.38565.241176.110833.420882.108312.427573-.264217.422795.374827.868677.599086 1.433824.581813-.008603-.126475-.015662-.230264-.023603-.348213.418897.160354.832353.318633 1.291397.494407v-.471203c.458382.279341.864853.632298 1.478015.450371-.07478-.153534-.140515-.288385-.233456-.47921.585294.226187 1.099706.601088 1.774191.448889a2937.6361 2937.6361 0 0 0-.220882-.436285c.350367.098674.67919.220181 1.01875.27986.482647.08481.560073-.021648.371764-.496631.54103.0685 1.053162.38098 1.620368.123805-.071103-.142784-.129338-.259695-.209926-.42168.447426 0 .857867.015198 1.265735-.010601.103897-.006598.195882-.14916.300294-.218625.072941-.048558.154191-.09682.238015-.113871.214853-.043888.439926-.04841.647353-.112908.10544-.032768.170662-.180445.274264-.240865.105589-.061606.233603-.094448.355883-.11491.735147-.122693 1.471764-.235971 2.206838-.358442.102426-.017126.199338-.067167.298823-.10201.004192-.046557.008383-.09304.012648-.139597a80581.703154 80581.703154 0 0 0-2.740956-.603978c-.342942-.49285-.83978-.378682-1.18875-.56276-.079338-.08392-.149706-.227891-.239486-.241458-.429411-.064868-.864044-.094448-1.314485-.138188.05728-.114687.114706-.229818.192647-.385799-.574338-.200313-1.098162-.045-1.67125.111722.087941-.173773.155-.306326.239412-.473204-.538824-.224407-1.0175-.009341-1.557647.140263.087794-.166359.146838-.278006.229265-.434209-.636103-.21047-1.15706.134926-1.750442.331532.07978-.170659.141397-.302693.212868-.455708-.598897-.16636-1.051618.071244-1.511912.434506.017941-.166137.032133-.297356.056912-.526953-.475882.14916-.89603.28075-1.343015.420865.025736-.114464.04831-.214473.078677-.34925-.553088-.046409-1.001397.138262-1.450956.474983.02022-.42561-.23647-.313072-.449118-.258805-.153088.039069-.294559.125436-.448014.16191-.110442.026245-.23206.005116-.348677.005116-.004044-.04626-.008088-.09252-.012206-.13878.471618-.084144.943456-.167101 1.414853-.252876.168382-.030692.33603-.065832.503088-.103047.287574-.064127.494265-.170437.179633-.522801.402647-.135222.759265-.252504 1.113897-.375494.138676-.04804.27522-.103938.408897-.16495.427794-.195199.440588-.267258.1075-.625404.388162-.088666.786765-.131516 1.145441-.275264.361176-.14486.68272-.390025 1.09397-.634226-.258235-.150865-.40919-.239085-.566544-.331013.66228-.273114 1.304045-.537776 1.94581-.802438-.005074-.045297-.010074-.09052-.015074-.135816a3367.176288 3367.176288 0 0 0-.593015-.461416c.92647.002594 1.704265-.15902 2.254927-.977397-.2775-.094523-.510589-.173847-.826177-.281269.922353-.312405 1.830883-.487883 2.454118-1.326796-.279927-.094967-.5125-.17392-.78581-.266664.399045-.178962.77956-.306103 1.112721-.511458.332427-.204909.617354-.48803.923162-.736828a330.181503 330.181503 0 0 0-.04919-.143822c-.242795-.080585-.485663-.16117-.774854-.257175.787868-.404852 1.603015-.694868 2.092794-1.559432a4795.799093 4795.799093 0 0 0-.783897-.204983c.696397-.49841 1.333897-.989852 1.719118-1.788064-.142133-.039144-.239338-.06598-.32397-.089333.383823-.516277.773382-1.04019 1.209043-1.626302-.210808-.040255-.307353-.058715-.338676-.06472.869265-1.192092 1.750368-2.400346 2.631397-3.6086v-.074134z" fill="url(#b)"/>
  </g>
</svg>
