<svg width="80" height="80" viewBox="0 0 80 80" xmlns="http://www.w3.org/2000/svg">
  <title>
    dovu-dovu
  </title>
  <g fill="none" fill-rule="evenodd">
    <circle fill="#000" cx="40" cy="40" r="40"/>
    <path d="M56.333968 39.981733C56.238758 52.614278 43.249651 60.575 31.993204 55.40775c-4.594376-2.112702-8.038138 4.869638-3.293759 7.046495 21.16018 9.730366 42.936537-11.865343 33.12532-32.861369-.534439-1.140556-1.59613-1.955875-2.842855-2.183095-3.043157-.546219-5.600379 2.584963-4.262036 5.452391 1.02756 2.202698 1.58086 4.616577 1.614094 7.119562zM21.318801 22.26837c-7.59891 7.53836-9.221987 18.779071-4.920429 27.98282.532643 1.14323 1.594334 1.958549 2.842855 2.183986 3.032378.54711 5.60487-2.57516 4.262037-5.45239-6.695305-14.354071 8.270775-29.17773 22.723974-22.542905 2.873394 1.315204 6.049487-1.189564 5.495288-4.228075-.227249-1.237681-1.048219-2.290913-2.20063-2.819311-9.277677-4.268173-20.607777-2.659812-28.203095 4.875875z" fill="#FFF" fill-rule="nonzero"/>
  </g>
</svg>
