<svg width="80" height="80" viewBox="0 0 80 80" xmlns="http://www.w3.org/2000/svg">
  <title>
    dpy-delphy
  </title>
  <g fill="none" fill-rule="evenodd">
    <circle fill="#00479D" cx="40" cy="40" r="40"/>
    <path d="M32.246154 16.274286c1.384615 0 2.353846 1.097143 2.353846 2.46857V60.57143c0 1.371427-1.107692 2.46857-2.353846 2.46857-1.384616 0-2.353846-1.097143-2.353846-2.46857V18.742856c0-1.371428.96923-2.46857 2.353846-2.46857m7.753846 0c1.384615 0 2.353846 1.097143 2.353846 2.46857V60.57143c0 1.371427-1.107692 2.46857-2.353846 2.46857-1.384615 0-2.353846-1.097143-2.353846-2.46857V18.742856c-.138462-1.371428.96923-2.46857 2.353846-2.46857m7.753846 0c1.384615 0 2.353846 1.097143 2.353846 2.46857V60.57143c0 1.371427-1.107692 2.46857-2.353846 2.46857C46.36923 63.04 45.4 61.942857 45.4 60.57143V18.742856c-.138462-1.371428.96923-2.46857 2.353846-2.46857m7.753846 0c1.384616 0 2.353847 1.097143 2.353847 2.46857v15.634287c0 1.371428-1.107696 2.46857-2.35385 2.46857-1.384615 0-2.353846-1.097142-2.353846-2.46857V18.742857c-.13846-1.371428.96923-2.46857 2.353846-2.46857M24.49231 63.04c-1.384616 0-2.353846-1.097143-2.353846-2.46857V45.074285c0-1.37143 1.107692-2.468572 2.353846-2.468572 1.384615 0 2.353846 1.097143 2.353846 2.468572V60.70857c.13846 1.234287-.96923 2.33143-2.353846 2.33143" fill-rule="nonzero" fill="#FFF"/>
  </g>
</svg>
