<svg width="80" height="80" xmlns="http://www.w3.org/2000/svg"><defs><linearGradient x1="103.377%" y1="54.281%" x2="13.284%" y2="34.301%" id="a"><stop stop-color="#F3F5F7" offset="33%"/><stop stop-color="#8099B9" offset="78%"/></linearGradient><linearGradient x1="94.758%" y1="50.667%" x2="-15.829%" y2="48.533%" id="b"><stop stop-color="#F3F5F7" offset="33%"/><stop stop-color="#E4E9EF" offset="37%"/><stop stop-color="#C0CCDC" offset="48%"/><stop stop-color="#A4B6CC" offset="59%"/><stop stop-color="#90A6C2" offset="70%"/><stop stop-color="#849CBB" offset="81%"/><stop stop-color="#8099B9" offset="91%"/></linearGradient><linearGradient x1="79.8%" y1="65.444%" x2="96.963%" y2="75.104%" id="c"><stop stop-color="#1797E5" offset="12%"/><stop stop-color="#1693E1" offset="14%"/><stop stop-color="#0A6FBA" offset="33%"/><stop stop-color="#0358A2" offset="48%"/><stop stop-color="#005099" offset="57%"/><stop stop-color="#0663AD" offset="71%"/><stop stop-color="#1694E2" offset="99%"/><stop stop-color="#1797E5" offset="100%"/></linearGradient><linearGradient x1="17.398%" y1="19.164%" x2="90.637%" y2="88.436%" id="d"><stop stop-color="#1797E5" offset="13%"/><stop stop-color="#1693E1" offset="26%"/><stop stop-color="#1287D4" offset="40%"/><stop stop-color="#0B73BE" offset="54%"/><stop stop-color="#0257A0" offset="69%"/><stop stop-color="#005099" offset="72%"/></linearGradient><linearGradient x1="35270.022%" y1="96762%" x2="24030.692%" y2="52764%" id="e"><stop stop-color="#F3F5F7" offset="33%"/><stop stop-color="#8099B9" offset="78%"/></linearGradient><linearGradient x1="77.46%" y1="59.57%" x2="-20.237%" y2="30.76%" id="f"><stop stop-color="#F7AE2D" offset="17%"/><stop stop-color="#B04211" offset="86%"/></linearGradient><linearGradient x1="14566.568%" y1="61809%" x2="22333.701%" y2="63062%" id="g"><stop stop-color="#F7AE2D" offset="17%"/><stop stop-color="#B04211" offset="86%"/></linearGradient><linearGradient x1="34.269%" y1="186.413%" x2="62.492%" y2="-33.583%" id="h"><stop stop-color="#1797E5" offset="26%"/><stop stop-color="#1694E2" offset="40%"/><stop stop-color="#138BD8" offset="51%"/><stop stop-color="#0E7CC8" offset="61%"/><stop stop-color="#0767B1" offset="70%"/><stop stop-color="#005099" offset="77%"/></linearGradient><linearGradient x1="125.394%" y1="63.718%" x2="29.624%" y2="50.16%" id="i"><stop stop-color="#1797E5" offset="26%"/><stop stop-color="#005099" offset="77%"/></linearGradient><linearGradient x1="76216%" y1="61481.215%" x2="64061%" y2="63674.026%" id="j"><stop stop-color="#1797E5" offset="26%"/><stop stop-color="#005099" offset="77%"/></linearGradient><radialGradient cx="95486.255%" cy="96503.122%" fx="95486.255%" fy="96503.122%" r="57882.711%" gradientTransform="matrix(.69841 0 0 1 287.975 0)" id="k"><stop stop-color="#1797E5" offset="26%"/><stop stop-color="#005099" offset="77%"/></radialGradient><linearGradient x1="7860.145%" y1="14816%" x2="22555.302%" y2="18327%" id="l"><stop stop-color="#F3F5F7" offset="33%"/><stop stop-color="#8099B9" offset="78%"/></linearGradient><linearGradient x1="35926%" y1="0%" x2="58619%" y2="0%" id="m"><stop stop-color="#F3F5F7" offset="33%"/><stop stop-color="#8099B9" offset="78%"/></linearGradient><linearGradient x1="48597%" y1="0%" x2="59943%" y2="0%" id="n"><stop stop-color="#F3F5F7" offset="33%"/><stop stop-color="#8099B9" offset="78%"/></linearGradient><linearGradient x1="39819.394%" y1="9154%" x2="36788.081%" y2="935%" id="o"><stop stop-color="#F3F5F7" offset="33%"/><stop stop-color="#8099B9" offset="78%"/></linearGradient><linearGradient x1="54492.289%" y1="17889%" x2="50233.06%" y2="21784%" id="p"><stop stop-color="#F3F5F7" offset="33%"/><stop stop-color="#8099B9" offset="78%"/></linearGradient><linearGradient x1="71083.454%" y1="75017%" x2="65606.622%" y2="69715%" id="q"><stop stop-color="#F3F5F7" offset="33%"/><stop stop-color="#8099B9" offset="78%"/></linearGradient><linearGradient x1="79077.849%" y1="68941%" x2="71704.719%" y2="66389%" id="r"><stop stop-color="#F3F5F7" offset="33%"/><stop stop-color="#8099B9" offset="78%"/></linearGradient><linearGradient x1="52095%" y1="55530.56%" x2="57572%" y2="55209.735%" id="s"><stop stop-color="#F3F5F7" offset="33%"/><stop stop-color="#8099B9" offset="78%"/></linearGradient><linearGradient x1="46058%" y1="62162.465%" x2="51546%" y2="62359.382%" id="t"><stop stop-color="#F3F5F7" offset="33%"/><stop stop-color="#8099B9" offset="78%"/></linearGradient><linearGradient x1="42868%" y1="18228.118%" x2="46486%" y2="20022.407%" id="u"><stop stop-color="#F3F5F7" offset="33%"/><stop stop-color="#8099B9" offset="78%"/></linearGradient><linearGradient x1="48770%" y1="18471.306%" x2="52587%" y2="20413.002%" id="v"><stop stop-color="#F3F5F7" offset="33%"/><stop stop-color="#8099B9" offset="78%"/></linearGradient><linearGradient x1="55763%" y1="19174.128%" x2="59200%" y2="20989.614%" id="w"><stop stop-color="#F3F5F7" offset="33%"/><stop stop-color="#8099B9" offset="78%"/></linearGradient><linearGradient x1="32560.007%" y1="70717%" x2="37094.461%" y2="70939%" id="x"><stop stop-color="#F3F5F7" offset="33%"/><stop stop-color="#8099B9" offset="78%"/></linearGradient><radialGradient cx="49.998%" cy="50.341%" fx="49.998%" fy="50.341%" r="134.446%" gradientTransform="matrix(1 0 0 .52763 0 .238)" id="y"><stop stop-color="#3FC0E5" offset="17%"/><stop stop-color="#20A1E6" offset="62%"/></radialGradient><linearGradient x1="81407%" y1="37915.97%" x2="76030%" y2="36529.487%" id="z"><stop stop-color="#1797E5" offset="26%"/><stop stop-color="#005099" offset="77%"/></linearGradient><linearGradient x1="98068%" y1="72403.545%" x2="91216%" y2="69236.739%" id="A"><stop stop-color="#1797E5" offset="26%"/><stop stop-color="#005099" offset="77%"/></linearGradient><linearGradient x1="53741%" y1="28832.683%" x2="37889%" y2="26492.488%" id="B"><stop stop-color="#1797E5" offset="26%"/><stop stop-color="#005099" offset="77%"/></linearGradient><linearGradient x1="59233%" y1="16455.549%" x2="41775%" y2="15136.657%" id="C"><stop stop-color="#1797E5" offset="26%"/><stop stop-color="#005099" offset="77%"/></linearGradient><linearGradient x1="62525%" y1="25691.406%" x2="70568%" y2="28954.295%" id="D"><stop stop-color="#1797E5" offset="26%"/><stop stop-color="#005099" offset="77%"/></linearGradient></defs><g fill="none" fill-rule="evenodd"><circle fill="#FFF" cx="40" cy="40" r="40"/><g transform="translate(11 8)"><g fill-rule="nonzero" stroke="#122A44"><path d="M40.593 15.03s.996-.992 1.45-1.983c0 0-1.088-1.262 0-2.524 0 0 .271-1.62-.907-2.523 0 0 2.084-1.62 4.439 1.171 0 0 .724-.54 1.358.361 0 0 6.974 1.802 4.71 14.33" stroke-width=".901" fill="#1797E5"/><g stroke-linejoin="round" stroke-width=".62"><path d="M1.912 1.29s.815.27 1.268-.18c0 0 1.6 3.033.438 6.022L.01 4.714s1.901-.902 1.901-3.424" fill="url(#a)" transform="translate(42.53 12.343)"/><path d="M3.836.65S4.65.653 5.107.025c0 0 3.88 3.053 1.989 9.938L4.436 7.32s1.556-3.146-.6-6.671" fill="url(#b)" transform="translate(42.53 12.343)"/></g><g fill="#1797E5"><path d="M5.795 20.606S.2 22.689 1.014 25.664c0 0 .172.978 1.943.714 0 0 3.901-5.513 2.838-5.772" stroke-width=".991"/><g stroke-width="1.042"><path d="M3.706 40.805s-2.356 2.789-.281 5.83a.524.524 0 0 0 .598.204c.685-.227 2.173-1 3.512-3.602M7.416 48.317c-.191.971-.41 3.174 1.225 4.444a.387.387 0 0 0 .368.06c.45-.16 1.558-.722 2.517-2.562a.385.385 0 0 0-.17-.524L7.97 48.05a.39.39 0 0 0-.554.267"/></g></g></g><g fill="#7DA4B7" fill-rule="nonzero"><path d="M44.578 13.768s-.067 2.264-1.437 2.89l.74.076s.88-1.074.88-2.876M46.571 13.137s1.72 2.703.725 5.407l.543.27s1.177-2.703-.906-5.766"/></g><path d="M3.03 29.827s-4.507 4.39-2.443 6.881c0 0 .586.861 2.182-.15-.002 0 1.4-6.94.26-6.73" stroke="#122A44" stroke-width="1.042" fill="#1797E5" fill-rule="nonzero"/><path d="M13.722 55.771s.638 2.274 2.217 2.988c0 0 2.562.545.978-4.012" fill="#122A44" fill-rule="nonzero"/><g fill="#5DC5F9" fill-rule="nonzero"><path d="M4.727 22.058s-3.26 1.352-2.898 3.786c0 0-.634-.09-.362-1.172 0 0 .18-1.532 3.08-2.974l.724-.36-.453.72M2.463 31.25s-3.17 3.425-1.359 5.228c0 0-.09-3.425 1.902-4.686M4.184 41.614s-1.268 2.254-.091 4.417c0 0 .544-.181.634-.361 0 0-.09.45-.814.72 0 0-1.902-1.892-.09-4.955M8.078 49.455s.09 1.983.997 2.614c0 0 .09 0 .271-.09 0 0-.09.27-.453.36 0 0-1.358-.991-1.087-2.884"/></g><path d="M52.096 39.272s4.437-8.201-.634-15.14l-1.45-2.704s-.18-.45-.633-.36c0 0-1.268-2.163-2.808-2.524 0 0-1.178-1.803-3.353-1.893 0 0-.543-2.525-3.441-2.072 0 0-.634-2.524-3.26-1.442 0 0-.454-1.352-2.084-.901 0 0-.09-2.434-6.34-.541 0 0-18.748-2.614-22.463 8.651 0 0-.169.421.31.531a.03.03 0 0 1 .017.048 4.312 4.312 0 0 0-1.051 2.573s-3.17 2.163-1.629 5.678c0 0-1.086 2.525.181 4.235 0 0-1.81 2.344.182 4.596 0 0-1.268 2.614 1.449 4.056 0 0-1.087 2.703 1.359 3.604 0 0-.091 3.245 2.898 4.146 0 0 .09 1.803 1.992 2.074 0 0-.905 2.525 2.355 3.424 0 0 1.54 3.064 3.804 1.532 0 0 1.449 1.983 4.8 1.532 0 0 2.084 1.802 5.435.901 0 0 2.264 1.082 5.162-.54 0 0 1.721.81 3.26-.541 0 0 2.627.09 3.533-.901 0 0 1.54.54 2.808-.361 0 0 2.898-.63 3.713.63 0 0 1.087 2.074-.996 4.326 0 0 5.072 1.082 5.434-5.226 0 0 .272-3.425-3.804-4.326l5.254-13.065z" stroke="#122A44" stroke-width=".901" fill="url(#c)" fill-rule="nonzero"/><ellipse fill="url(#d)" fill-rule="nonzero" opacity=".604" cx="29.906" cy="36.387" rx="21.194" ry="20.727"/><g fill-rule="nonzero" stroke="#122A44"><path d="M21.77 3.139l1.442 1.668S24.3 1.022 21.763 15.89l-1.45 4.236-18.068-1.668S-.2 18.009.115 15.27L21.771 3.139" stroke-width=".631" fill="url(#e)" stroke-linejoin="round" transform="translate(12.309 20.587)"/><path stroke-width=".901" fill="#C91111" d="M13.693 26.204l.906-5.587 19.564 2.523-.816 5.768L31.9 38.28l-19.564-2.433z"/></g><path fill="#750606" fill-rule="nonzero" d="M13.512 30.62l-.271 1.712 5.978.721 9.056 1.983v-.991l4.41.862.21-1.854-19.383-2.433"/><path d="M30.892 24.04l-13.213-1.891c-.666 1.89-2.536 2.072-2.536 2.072l-1.445 8.895c2.09.567 2.172 2.641 2.172 2.641l13.314 1.802c.666-2.08 2.443-1.712 2.443-1.712l1.359-9.192c-2.471-.851-2.094-2.616-2.094-2.616zm.462 11.446s-1.812-.27-2.446 1.713l-12.679-1.713s-.089-1.984-2.082-2.523l1.18-6.76.271-1.62s1.812-.27 2.445-2.072l12.5 1.802s-.365 1.802 1.99 2.612l-1.18 8.561z" fill="#3D0000" fill-rule="nonzero"/><g fill-rule="nonzero" stroke="#4F1A00"><path stroke-width=".901" fill="url(#f)" d="M15.285 3.11l5.978.99 3.079 4.417-2.717 1.532-.815-1.803-5.888-1.081.363-4.055z" transform="translate(12.357 25.257)"/><path d="M.386 1.262l6.52.81-.632 4.057-6.068-.722-.182.902s-.091-4.146.362-5.047" stroke-width=".631" fill="url(#g)" stroke-linejoin="round" transform="translate(12.357 25.257)"/><path stroke-width=".901" fill="#F7AE2D" d="M18.765 25.303l-.996 7.66 9.6 1.352 1.088-7.75-9.692-1.262z"/></g><g fill="#FFF" fill-rule="nonzero" opacity=".63"><path d="M27.823 27.916l-.272 1.803-3.17 3.425-.362-1.308 3.804-3.92M23.113 26.294l-4.676 4.934-.162 1.352.219.023 6.068-6.128-1.45-.181M25.015 26.565l-6.25 6.128.725-.45 5.797-5.678h-.272"/></g><g fill="#4F1A00" fill-rule="nonzero"><path d="M22.66 29.81l-.996 1.982 2.299.222-.399-2.115s.725-.09.814-.901c0 0 .181-1.172-.996-1.352 0 0-.996-.09-1.268.901.003-.001-.178.901.546 1.262"/><path d="M23.564 27.466s1.177.18 1.177 1.351c0 0 .09.992-.724 1.352l.183 2.523h.362l-.362-2.343s1.012-.543.654-1.843a1.342 1.342 0 0 0-.439-.685 1.605 1.605 0 0 0-.851-.355z"/></g><path d="M23.385 27.556s1.089.18 1.089 1.352c0 0 0 .72-.814 1.081l.362 2.794h.362l-.453-2.704s.59-.23.697-.994a1.335 1.335 0 0 0-.264-1.008 1.348 1.348 0 0 0-.91-.514l-.07-.007z" fill="#FFF" fill-rule="nonzero"/><g fill="#3D0000" fill-rule="nonzero"><path d="M30.993 36.207s-1.077-.122-1.762 1.742l2.124-.21M31.445 23.23s-.724 2.343 1.812 3.155l.453-2.885M14.962 21.067l-.453 2.704s2.264-.09 2.536-2.433M13.06 33.414l-.272 2.072 2.626.361s-.362-1.983-2.354-2.433"/></g><path d="M29 12.686s1.902-1.532 4.8 0l-.178.36s1.811-.27 3.079 2.344c0 0 .544-3.605 2.626 0 0 0 2.718-.36 3.08 1.532 0 0-.453.901.09 1.532 0 0-.362-1.352.544-1.262 0 0 1.54.09 2.627 1.532l.362.27s1.177.18 2.717 2.344c.49.636.93 1.307 1.321 2.008.22.4.462.79.722 1.166.885 1.28 2.831 4.542 2.123 7.64 0 0-.271 4.866-1.358 6.218 0 0 1.628-2.794 1.902-6.218 0 0 .362-4.416-2.446-7.93l-1.54-2.884-.543-.27s-1.177-1.893-2.902-2.344v-.18s-.996-1.532-3.17-1.62l-.09-.36s-.634-2.164-3.353-1.533c0 0-.271-2.523-2.898-1.442 0 0-1.628-.901-2.626-.72 0 0 1.086-1.893-3.08-1.353 0 0-1.67.286-2.148.503l.339.667z" fill="#5DC5F9" fill-rule="nonzero"/><path d="M7.897 17.127s6.52-7.596 14.31-4.711c5.911 2.188 5.525 4.146 5.525 4.146s-4.01.625-5.872 3.154c0 0-3.63-3.945-8.286-.607 0 0-.09-5.277-5.677-1.982" fill="url(#h)" fill-rule="nonzero"/><path d="M34.706 57.746s-.596.762-2.245-.206c0 0-1.468 1.197-4.82.477 0 0-2.264 1.442-4.98-.81 0 0-3.714.81-4.62-2.163 0 0-2.264 2.163-3.352-.901 0 0-2.265.27-2.539-2.614 0 0 .543-.901 0-1.351 0 0-1.812 1.892-1.812-1.262 0 0-4.709-1.442-1.628-3.695 0 0-4.438 0-2.355-3.515 0 0-3.08-1.352-1.45-4.055 0 0-1.901-.901-.905-3.966l.634-.27s-1.72-1.982-.272-3.875l.091-.36s-1.45-3.966.906-4.326l.906-.09s-.815-2.163.814-3.605c0 0-.725-3.515 6.068-7.12h-1.265s-4.71 2.073-5.887 6.67l.362.45s-.766.458-1.03 2.218c-.045.298-.192.583-.443.755-.791.54-2.419 2.317-1.153 5.046 0 0-1.087 2.343.181 4.236 0 0-1.902 2.433.272 4.506 0 0-1.629 2.433 1.449 3.965 0 0-1.359 2.704 1.268 3.515 0 0-.362 3.336 2.808 4.055 0 0-.09 1.802 1.902 2.073l.18.45s-.996 2.163 2.174 2.974c0 0 1.45 3.155 3.623 1.352 0 0 1.268 2.163 4.71 1.62l.453.27s2.083 1.533 4.98.632c0 0 2.265 1.081 5.163-.541 0 0 1.54.81 2.898-.36l-1.086-.18z" fill="#5DC5F9" fill-rule="nonzero"/><path d="M22.841 44.949s-5.072-1.352-4.438-5.767c0 0-1.54-2.073-.905-4.146 0 0 .362-1.442.814-1.352 0 0 1.358-1.802 2.626-1.62 0 0-.09.901.272 1.082 0 0 1.54-2.253 2.99-2.073 0 0-.635 1.712 0 2.523 0 0 1.176-1.982 2.445-1.982 0 0-.182 1.171.09 1.712 0 0 1.449-.45 1.449 4.146 0 0 1.087.36 1.628 1.352l-.18 5.046" stroke="#122A44" stroke-width=".811" fill="#1797E5" fill-rule="nonzero"/><path d="M25.483 34.186s3.065 6.888-.92 9.05l4.256-.632L29 38.37s-.55-.481-1.227-.601c0 0 .23-2.824-.675-3.906" fill="url(#i)" fill-rule="nonzero"/><g fill="#5DC5F9" fill-rule="nonzero"><path d="M18.494 34.045s-1.268 2.433.634 5.046c0 0-.634 3.875 3.985 5.137l-1.177.092s-3.895-1.716-3.17-5.229c0 0-2.083-2.253-.363-5.227l.09.18zM40.423 56.562l2.163-.528s2.174-.54 3.894.27c0 0 2.174 1.352.272 5.227h-.726s.997-1.081.906-2.794c0 0 0-.81-.362-1.442 0 0-.634-1.261-3.532-.9l-.725.18a2.605 2.605 0 0 1-2.355.36l.465-.373z"/></g><path d="M35.25 33.864s-3.17-.18-3.804 3.695l-1.902.36s-.996 1.263-.181 2.704c0 0-.363 1.172.09 1.893 0 0-7.426-.54-9.057 4.956 0 0-.996 9.643 13.858 10.184 0 0 8.876.45 15.488-7.75l1.448-.45 1.993 3.874s.724-5.497 4.8-7.21c0 0-4.528-4.415-2.264-9.912l-4.529 2.704s-.906-2.884-1.72-2.884c0 0-.091-.631-.635-.81 0 0-.543-1.082.09-2.884 0 0-1.81-.901-4.256 1.892 0 0-.906-.36-1.178.631l-1.086-.36s-.362-1.262-1.269-1.172c0 0-.362-.36.635-3.424 0 0-2.627-.361-4.348 2.433 0 0-.996-.36-1.268.63 0-.001-.634.089-.905.9" stroke="#122A44" stroke-width=".901" fill="#1797E5" fill-rule="nonzero" stroke-linejoin="round"/><path d="M34.706 39.812l-3.985-.81 1.373-.34a.24.24 0 0 0 .204-.177c.18-.687 1.044-3.427 3.497-3.899l-.272-.27s-2.717-.09-3.623 3.695l-2.083.45v1.532l4.347 1.08" fill="url(#j)" fill-rule="nonzero"/><path d="M28.457 56.034s-3.533-5.317.543-4.957c0 0 .906 0 4.347.992 0 0 1.088.18-.18-1.262 0 0-1.812-1.532-3.17-1.983 0 0-1.178-1.442 1.539-.81l1.54.27s1.45.361 1.811-1.261c0 0 .272-1.62-1.992-1.442 0 0-.272 0-.634.27 0 0 1.268-1.802 3.441-.63.325.139.63.32.906.54l1.085-.992.996-.18-.814-2.614s-.996.27-.362-.72l2.264-.451s1.45-.451 1.993-.992c0 0 2.538-2.073 5.615-1.982 0 0 1.812-.09 1.902-1.62 0 0 .725.63 1.45 2.703 0 0 .09.45.542.45l2.842-1.721.558.86s-1.042 2.932 1.856 7.258c0 0-2.627 2.884-3.623 5.858l-1.308-2.928-2.405.855s-5.527 10.094-20.742 6.489" fill="url(#k)" fill-rule="nonzero" opacity=".596"/><g fill="#1797E5" fill-rule="nonzero" stroke="#122A44"><path d="M30.63 15.3s-.18-2.794-1.358-1.352c0 0-2.174-3.425 1.358-8.111 0 0 1.629-.81 1.087-2.343 0 0 .272-.901 2.174-1.352 0 0-1.087-2.343-4.257-1.532 0 0-.814-1.261-2.445-.09 0 0-15.307-3.244-21.828 14.6 0 0 6.34-2.163 8.786-.992 0 0 1.086.45.724 2.343 0 0 4.8-2.613 7.155.81 0 0 2.898-3.064 4.891-2.343 0 0 .814.36 1.268 1.532" stroke-width=".901"/><path d="M31.627 20.166s-3.353-4.055-7.155-1.261c0 0-2.49-.046-3.578 2.207 0 0-.181.27-.181.45 0 0 1.45.362 1.45 2.164 0 0 .361 0 1.267-2.343 0 0 1.45.27 1.628 2.253 0 0 .363.09 1.178-.541 0 0 .272-1.532.724-1.712 0 0 1.178 0 1.45 1.983 0 0 .18.36 1.81-1.082l2.446.27s.455-.72-1.04-2.388" stroke-width=".62"/></g><g fill="#5DC5F9" fill-rule="nonzero"><path d="M34.706 39.272s-.27 1.351-.634 1.441l-4.076-.991s-.09-.721.272-1.171l1.72-.245a.222.222 0 0 0 .192-.202c.054-.704.45-3.298 3.342-3.609l-.191-.18s-2.797-.27-3.43 3.154c0 0-.091.45-.454.54l-1.628.271s-.634.902-.181 1.893l4.438 1.171s.811.18.63-2.072M38.329 40.263s-.814.81-.814 1.532c0 0 5.525-.18 8.423 1.532l-8.877-1.172s-.634-.63 1.268-1.892M31.99 46.661s.315-1.102 1.392-1.025c.18.013.35.093.472.225.212.226.49.683.49 1.521 0 0-.544-1.892-2.355-.72M27.008 45.04s.316-1.101 1.393-1.026c.18.012.35.093.472.225.212.226.49.683.49 1.52 0 0-.544-1.891-2.355-.72"/></g><g stroke="#122A44" stroke-width=".62"><g stroke-linecap="round"><path d="M32.125 46.706s1.449-1.262 1.811.631M27.3 45.178s1.208-1.287 1.715.41M38.329 40.174s-1.553.739-1.51 1.695a.54.54 0 0 0 .472.51l8.646 1.13"/></g><g stroke-linejoin="round"><path d="M38.132 42.487s-.456 1.951 1.657 2.9c.765.341 1.615.448 2.442.309 1.014-.168 2.372-.7 2.771-2.31" fill="#F3F5F7" fill-rule="nonzero"/><g stroke-linecap="round"><path d="M34.887 39.272s.144 1.175-.155 1.861a.735.735 0 0 1-.867.402l-4.57-1.218"/><path d="M33.529 41.524s.724 1.082-.182 2.073c0 0-1.811-.9-4.256-.9l.364-2.254" fill="#F3F5F7" fill-rule="nonzero"/></g></g><path d="M34.436 44.498s-.972-.988-2.208-1.306" stroke-linecap="round" stroke-linejoin="round"/></g><path d="M51.317 23.861s-2.8-1.034-2.437 3.11c0 0 .318-3.83 2.894-2.393" fill="#122A44" fill-rule="nonzero"/><g stroke-linejoin="round" fill-rule="nonzero" stroke="#122A44" stroke-width=".62"><path d="M18.47.019s-.226 1.216.227 1.935c0 0-6.158 2.073-10.868 10.183 0 0-1.087-3.244-7.79-.63C.04 11.509 2.758.244 18.472.019" fill="url(#l)" transform="translate(7.903 1.763)"/><path d="M18.878 2.587l.815.81s-4.798 5.048-5.887 9.734c0 0-1.901-1.352-4.98-.27-.001 0 3.17-7.12 10.052-10.274" fill="url(#m)" transform="translate(7.903 1.763)"/><path d="M20.328 4.119s-3.08 3.965 0 8.741c0 0-2.446-2.162-5.434.361.001 0 1.811-6.489 5.434-9.102" fill="url(#n)" transform="translate(7.903 1.763)"/></g><g fill="#122A44" fill-rule="nonzero"><path d="M42.482 43.056s-1.026 1.745.852 2.315c0 0 1.392-.879 1.545-2.002M31.82 41.071s-1.009 1.264-.192 1.805l1.721.45s.75-1.224-.259-1.918"/></g><g transform="translate(30.988 41.508)" fill="#FFF" fill-rule="nonzero"><ellipse cx="11.417" cy="3.08" rx="1" ry="1"/><ellipse cx=".458" cy=".467" rx="1" ry="1"/></g><path d="M42.948 29.268s.09-1.081.906-1.171c0 0 1.087 0 1.177.991 0 0-.271-1.62.906-1.892" stroke="#000" stroke-width=".62" stroke-linecap="round" stroke-linejoin="round"/><g fill="#122A44" fill-rule="nonzero"><path d="M53.893 31.86s-1.254-1.15-2.884 2.365c0 0 2.13-2.207 2.876-2.005M53.675 29.282s-1.58-2.267-2.576.887c0 0 .49-.853 1.017-1.206a.558.558 0 0 1 .666.033c.304.254.761.87 1.105 2.352M49.283 20.916s-2.079.333-1.355 2.404c0 0-.136-1.989 2.108-1.85M46.809 18.615s-1.38.115-.457 2.262a.373.373 0 0 1-.137.457.377.377 0 0 1-.487-.06c-.197-.216-.575-.651-.931-.895a.296.296 0 0 0-.454.171c-.081.345-.085 1.088.235 2.68 0 0-1.188-1.773-.67-3.045.186-.46.748-.658 1.17-.396.157.102.295.23.409.377 0 0-.613-2.382 1.322-1.551M43.775 16.714s-2.155.156-1.282 1.705c.031.053.07.102.116.143l.356.324a.367.367 0 0 1-.353.59c-.454-.087-1.475-.48-2.084.475a.563.563 0 0 0-.065.48c.086.262.26.487.493.637 0 0-1.448-.721-.362-1.803 0 0 .362-.45 1.359-.45 0 0-1.348-2.357 1.228-2.305M32.712 13.677s2.077-1.981 3.61.457c.064.104.117.216.156.333l.219.654s-1.087-.09-1.629.901l-.362-.36s.181 1.081 1.721 2.613c0 0 .09-.72-.906-1.802 0 0 1.087-1.62 2.265-.54 0 0 .543.27 1.54 1.892 0 0-.273-1.532-1.993-2.614 0 0-.544-2.343-2.265-2.793 0-.002-1.63-.361-2.356 1.26M28.995.114s-.719.586-.086 2.569c0 0-.814-1.262-.543-2.613M29.363 3.313s1.209 1.265 2.46.678l-.07.6s-1.938-.016-2.39-1.278"/><path d="M26.917 1.872s.362-.991 1.54-1.62l-1.36.09s-.27.358-.18 1.53M28.819 4.485s.634 1.262 2.626-.18l-.18 1.262s-1.993.36-2.446-1.082"/></g><path d="M33.529 2.052s-1.812.54-2.084 1.713c0 0-2.536-.81-1.992-2.974.002 0 3.259-.811 4.076 1.261" fill="url(#o)" fill-rule="nonzero"/><path d="M41.499 8.18s1.15 1.278.814 2.433c0 0 2.539.541 3.08-1.261 0 0-2.17-2.591-3.894-1.172" fill="url(#p)" fill-rule="nonzero"/><path d="M48.54 32.57s-.702 1.803-.067 2.826c0 0-2.539.721-3.713-.72 0 0 1.992-2.794 3.78-2.106" fill="url(#q)" fill-rule="nonzero"/><path d="M41.318 30.35s-.906 1.712-.544 3.335c0 0-2.272.662-3.277-.932 0-.002 1.828-3.215 3.82-2.403" fill="url(#r)" fill-rule="nonzero"/><path d="M26.546 31.716s-.372 1.069.192 2.058c0 0-1.197.844-2.174 0-.002 0 .542-1.622 1.982-2.058" fill="url(#s)" fill-rule="nonzero"/><path d="M23.795 31.422s-.492 1.02-.048 2.066c0 0-1.286.703-2.16-.246 0 0 .727-1.551 2.208-1.82" fill="url(#t)" fill-rule="nonzero"/><g stroke-linejoin="round" fill-rule="nonzero" stroke="#122A44" stroke-width=".62"><path d="M.273 3.314S.788 2.39 1.9 2.144c0 0-.162-1.676-1.446-1.835.002 0-.82 1.648-.182 3.005" fill="url(#u)" transform="translate(20.26 21.493)"/><path d="M3.145 2.974s.45-.675 1.565-.921c0 0-.226-1.848-1.403-2.028-.002 0-.906 1.622-.162 2.949" fill="url(#v)" transform="translate(20.26 21.493)"/><path d="M6.405 2.974s.55-.99 1.665-1.237c0 0-.129-1.554-1.412-1.712 0 0-.89 1.591-.253 2.949" fill="url(#w)" transform="translate(20.26 21.493)"/></g><path d="M20.849 32.332s-.625.83-.18 1.877c0 0-1.198.524-2.07-.429 0 .003.8-1.538 2.25-1.448" fill="url(#x)" fill-rule="nonzero"/><g fill="#122A44" fill-rule="nonzero"><path d="M29.577.535s-.486 1.968 2.05 3.23l-.182.27s-2.717-.81-2.173-3.425l.305-.075zM46.118 9.081s.272 1.26-1.268 2.166c0 0 1.54-.451 1.629-1.893"/></g><path d="M19.219 55.493S6.085 47.743 9.346 30.08l-3.532 3.423S5.18 48.466 19.219 55.493" fill="url(#y)" fill-rule="nonzero"/><path d="M9.89 26.835s.814 1.171 1.902 0c0 0-.951 1.532-1.902 0" fill="#5DC5F9" fill-rule="nonzero"/><g fill="#122A44" fill-rule="nonzero"><path d="M46.563 9.662s.407.805.111 1.943c0 0 .452-.47.57-1.638M41.952 11.247s.724 1.081 2.355.27c0 0-1.629.36-2.264-.541"/><path d="M41.952 11.424s.272 1.62 1.992 1.443c0 0-.94.558-1.963.099M45.393 9.171s-.543 2.073-3.26 1.262l-.09.45s3.079.902 3.984-1.802M25.74 56.935s2.69-.073 2.748 2.577l-1.058-.16s.664-1.784-1.69-2.417M21.483 55.042s2.02.983 1.19 3.601l-.645-.235s.722-2.645-.545-3.366M12.607 49.276s1.177 2.343-1.45 2.974l-.543-.81s2.083.538 1.993-2.164M8.169 44.859s-.09 1.172-1.812.9l.085-.506a.025.025 0 0 1 .036-.019c.17.08 1.041.434 1.69-.375M6.178 30.8s-.726 3.245-2.538 2.434l-.363.72s2.901 1.172 2.901-3.154M3.187 28.367s1.267 2.613 2.446-1.532c0 0 .18 3.695-2.355 2.884M5.361 23.23s-.181 1.983 2.174 1.172c0 0-2.083 1.953-3.034-.33M6.085 20.166s.635 1.892 3.442-.901c0 0-2.717 3.965-.18 4.146 0 0-2.265.36-1.269-2.253 0 0-1.05 1.007-2.246-.083M8.35 27.916s.996.27 1.45-.901c0 0 .542.991 1.539.45 0 0 .362-.18.634-.99 0 0-.634 1.441-1.629.81 0 0-.543-.27-.543-1.082-.002 0-.274 1.713-1.451 1.713"/></g><g fill="#5DC5F9" fill-rule="nonzero"><path d="M27.913 1.782s.634 1.62 1.268 2.343c0 0-1.63-.54-1.268-2.343M6.9 13.768s3.353-8.201 9.783-10.545c0 0 4.98-2.072 9.962-1.892 0 0-8.424-.991-13.496 3.336.001-.002-4.437 3.333-6.248 9.1M29.181 6.017s-2.808 3.064-.543 8.201c0 0-3.26-4.236.543-8.2M43.412 12.11s1.916.158 3.05-1.14c0 0-.74 2.08-3.05 1.14M48.11 11.605s2.99 2.793 2.54 9.643c-.003 0 1.536-6.67-2.54-9.643"/></g><path d="M36.064 35.126s.181.631.997 1.081c0 0-1.269-2.253 1.448-2.343l-1.63-1.172s-1.177 1.082-.815 2.434" fill="url(#z)" fill-rule="nonzero"/><g fill="#7DA4B7" fill-rule="nonzero"><path d="M8.803 12.867l-.725.27s1.357-4.957 6.338-8.02c0 0 4.438-3.337 11.865-3.245a.928.928 0 0 0-.09.36s-13.584 0-17.388 10.635zM16.955 14.398s3.26-6.939 9.782-9.912l.18.18s-4.981 1.62-9.6 9.642"/></g><path d="M36.879 32.692a.91.91 0 0 0 .181.72s-1.087.811-.814 2.073c0 .001-.996-2.071.633-2.793" fill="#5DC5F9" fill-rule="nonzero"/><path d="M27.73 6.468s-2.988 2.433-4.71 8.2l.363-.27s.817-3.604 4.348-7.93" fill="#7DA4B7" fill-rule="nonzero"/><g fill="#122A44" fill-rule="nonzero"><path d="M37.333 32.513s1.086 1.62 3.713.99l.362.181s-2.626 1.442-4.619-1.081"/><path d="M36.608 32.783s.634 1.62 2.083 1.802c0 0-1.358.09-2.445-1.532"/></g><path d="M44.052 34.654s-1.285 2.004-.742 2.725c0 0 .09.45.815.63 0 0-.363-1.26.452-1.982.434.275.888.516 1.359.721l.454-.72s-1.054-.044-2.338-1.374" fill="url(#A)" fill-rule="nonzero"/><g fill="#122A44" fill-rule="nonzero"><path d="M39.417 34.765s1.993.09 1.993-1.261l.362.45s-.183 1.082-2.355.811M36.246 33.144s-.634.9 0 2.342c0 0-1.178-1.081-1.087-1.712"/><path d="M39.96 36.207s1.992.721 2.354-1.802l-.543-.721s0 2.344-1.812 2.523M43.854 35.036s-.906 1.261-.453 2.523c0 0-.996-.54-.09-2.794M45.665 38.46s3.429 1.887 3.978-2.39l-.445-.584s0 3.966-3.533 2.974"/></g><path d="M19.31 34.315s-.815 3.515 3.352 5.678c0 0-1.45-3.05-1.812-5.733" fill="url(#B)" fill-rule="nonzero"/><path d="M22.343 33.594s-.679 4.146 2.853 6.308l-.18-1.261s-1.179-3.155-.997-5.14" fill="url(#C)" fill-rule="nonzero"/><g fill="#122A44" fill-rule="nonzero"><path d="M46.662 36.838s2.24.384 2.524-1.115l-.17-.327s-.181 1.352-2.354 1.442M43.854 34.585s-.182.81 1.358 1.802c0 0-.996-.09-1.628-1.441"/><path d="M44.67 34.407s1.176 1.803 3.984.721l.362.631s-3.26 1.532-5.072-1.262"/></g><g fill="#5DC5F9" fill-rule="nonzero"><path d="M44.307 37.38s1.268.63 3.804.27c0-.002-2.446 1.622-3.804-.27M37.333 35.126s1.177.54 3.713.18c0 0-1.993 1.712-3.713-.18"/></g><g fill="#122A44" fill-rule="nonzero"><path d="M18.222 34.045s.906.9 2.717.45l.272-1.351-.623-.26s-.287.619-.194 1.25c0 0-1.087.271-1.902-.45"/><path d="M18.267 34.09s.09.63 1.087.72c0 0-.862.136-1.313-.585M19.853 34.856s.905.09 1.086-.541l.09.54a1.5 1.5 0 0 1-1.176 0"/><path d="M21.483 33.324s-.544 2.252.09 3.694c0 0-1.177-1.712-.543-3.784M21.664 32.963s.906.81 2.355.27v.269s-1.54.81-2.445-.27"/><path d="M21.392 33.234c.271.412.694.703 1.178.81 0 0-.906 0-1.36-.541M23.203 34.045s.815-.18.815-.631l.09.45s-.27.27-.905.18"/><path d="M24.019 33.774s-.906 1.62.724 4.056c0 0-.996-2.704-.362-4.056"/><path d="M24.474 33.594s1.268.81 2.355 0l.362.27s-1.268 1.082-2.898.09"/><path d="M24.2 33.954s.272.541 1.449.721c0 0-.906.09-1.54-.27M26.102 34.585s.725 0 1.087-.81l.272.45a1.93 1.93 0 0 1-1.359.36M26.464 35.306s.906-.09 1.178-.81l.089.45s-.361.45-1.267.36M27.008 21.248s0-1.713 2.717-1.62c0 0-3.442-.722-3.08 2.072M28.457 21.97s.358.54.18 1.351l.396-.12s-.038-.962-.576-1.232M23.621 21.441s.489-1.906 3.658-2.176c0 0-3.804-.09-3.985 2.163"/></g><path d="M30.45 19.265s2.264 1.712 2.173 3.154l-2.443-.27s1.265-.811.27-2.884" fill="url(#D)" fill-rule="nonzero"/><path d="M23.564 50.266s1.902-2.884 8.242.63c.002 0-5.342-4.775-8.242-.63" fill="#122A44" fill-rule="nonzero"/><g fill="#5DC5F9" fill-rule="nonzero"><path d="M23.564 50.807s1.72-2.704 8.334.54c0 0-5.706-4.415-8.334-.54"/><path d="M34.163 44.859s-7.438-3.928-11.825 1.081a3.643 3.643 0 0 0-.694 3.604c.794 2.277 3.036 5.835 9.349 6.852 0 0 10.596 2.253 17.933-6.849l1.358-1.262s-7.336 12.705-22.824 7.84c0 0-7.01-2.058-6.705-8.487a.87.87 0 0 1 .025-.168c.16-.627 1.32-4.257 6.863-4.504 0 0 4.89-.45 6.61 1.713l.183.36a1.11 1.11 0 0 0-.273-.18z"/><path d="M54.678 38.503s-.642 3.468 2.26 7.075l-.314.813s-2.354 1.262-3.623 5.587l-1.449-2.794s-.181-.27-.724-.09l-.996.361.09-.36 1.087-.451s.634-.18.906.36l.996 2.073s.634-3.064 3.441-5.046c0 0-2.536-3.966-2.082-6.94l.408-.588"/></g><path d="M48.292 50.896s2.264-2.703 2.445-3.514c0 0-.634 2.253-1.628 3.514" fill="#122A44" fill-rule="nonzero"/><path d="M50.737 41.705s2.174-1.262 3.353-4.056l.724-.18s.18 3.515-4.077 4.236" fill="#5DC5F9" fill-rule="nonzero"/><g fill="#122A44" fill-rule="nonzero"><path d="M54.45 36.838s-.724 3.244-3.713 4.866c0 0 3.08-1.352 4.438-4.416M51.734 44.228s2.36 1.845 5.709 1.283v.868s-3.355.102-5.71-2.15"/></g><g fill="#FFF" fill-rule="nonzero" opacity=".63"><path d="M14.147 30.53l2.988-3.154h-.18l-2.99 3.154h.182M13.422 30.44l3.26-3.154-.815-.09-3.17 3.154.725.09"/></g><g fill="#4F1A00" fill-rule="nonzero"><path d="M15.324 27.556l2.717.54v-.27l-2.717-.27M14.78 30.08l2.99.27-.091.27-2.898-.54M23.204 26.835l4.075.63-.633 5.138.362-.18.634-5.137-4.438-.451M28.457 29.088l2.626.54-2.717-.18.09-.36M28.004 31.701l2.626.541-2.626-.27v-.27"/></g><path fill="#FFF" fill-rule="nonzero" d="M29.09 29.178l4.257.631 1.903 2.794-1.721-2.163-.272 2.523h-.181l.18-2.884-4.165-.9"/><path d="M32.532 32.513s1.178 0 1.45 1.261c0 0 0-1.351-1.45-1.261" fill="#4F1A00" fill-rule="nonzero"/><g fill="#FFF" fill-rule="nonzero"><path d="M19.762 26.745s-.362 3.875-.724 5.317c0 0 .271-4.056.724-5.317"/><path d="M22.389 26.475l-2.99-.271s-.452 4.326-.814 6.128c0 0 .272-4.776.635-6.488M12.788 30.26l.543-3.065 4.438.541-4.71-.811-.271 3.334"/><path opacity=".63" d="M27.189 25.934l-.816.81-.724-.09.815-.81.725.09"/></g></g></g></svg>