<svg width="80" height="80" xmlns="http://www.w3.org/2000/svg">
  <g fill="none" fill-rule="evenodd">
    <circle fill="#5D9CEC" cx="40" cy="40" r="40"/>
    <path d="M47.286788 70.457452c14.83394-3.936516 21.169454-21.014125 12.694788-33.643235-5.796849-8.638344-11.684364-17.21614-17.541818-25.814281-.334061-.490672-.763637-.916438-1.270303-1.51561-1.989819 2.931922-3.725091 5.75486-5.733819 8.368063-1.714909 2.231031-2.47903 4.559422-2.258424 7.368797.208 2.645172.309334 2.897047 2.96 2.931922 4.508606.059094 4.508606.059094 4.395152 4.620937-.00388.161297-.007273.323078-.00291.48389.044122 1.530626-.73212 2.138517-2.227393 2.192282-1.498667.053281-3.573819-.233953-4.331152.59675-.86594.94986-.642424 2.963406-.734545 4.523578-.090182 1.521907-.787394 2.192766-2.282182 2.15111-.968243-.027125-1.93794.00339-2.906667-.000485-1.516121-.005812-2.217212.753203-2.15806 2.254766.018909.483406.002424.968266.00097 1.452156-.009213 3.493797-.075637 3.56161-3.496728 3.589219-3.255758.02664-3.82206.61225-3.121455 3.679312 1.801213 7.888532 6.514425 13.344532 14.009697 16.399.346182.140954.741334.163235 1.685334.359891-1.034182-.869453-1.63103-1.350437-2.204606-1.857578-4.407758-3.897766-5.567516-10.245984-2.822303-15.44236.18812-.356015.394666-.70428.62109-1.03753 3.525819-5.190079 7.05697-10.377735 10.730182-15.77561 3.533576 5.195406 6.932364 10.18689 10.32097 15.184672.406788.599656.798546 1.215297 1.126303 1.859515 2.788364 5.478282 1.245576 12.103079-3.677576 15.827922-.575515.435453-1.18206.829735-1.774545 1.242907" fill="#FFF"/>
    <path d="M52.293188 55.7294c-7.008485 5.20364-14.437334 5.80814-22.199273 1.808172-.91297 4.497906 1.293091 9.083 5.415273 11.469031 4.35006 2.517297 9.712485 2.02275 13.516121-1.247265 3.53697-3.040422 4.900364-7.916141 3.267879-12.029938M33.57183 31.88885c.00097-3.746156.00097-3.74664-3.851151-3.745188-.563394.000485-1.129212.037297-1.689697-.004359-1.375515-.101719-1.896243.590938-1.849697 1.877922.020364.561875.005333 1.125203-.00097 1.688047-.045576 4.426703.121697 3.695781 3.839515 3.723875 3.55103.02664 3.551516.005328 3.552-3.540297M22.077527 42.72766c3.944243-.013562 3.836121.440782 3.820121-3.737437-.01309-3.554828-.002909-3.55725-3.547636-3.555796-4.017454.001937-3.797333-.356016-3.790545 3.760687.005333 3.531578.00194 3.531578 3.51806 3.532547m1.734837-20.091633c-2.952243-.040687-3.013334.004844-3.057455 2.289156-.058182 2.986657.015515 3.07772 2.506667 3.1 2.837818.025188 2.890182-.018406 2.923151-2.442703.039273-2.885422.016485-2.913515-2.372363-2.946453M16 32.108078h3.635394v-3.633781H16z" fill="#FFF"/>
  </g>
</svg>
