<svg width="80" height="80" viewBox="0 0 80 80" xmlns="http://www.w3.org/2000/svg">
  <title>
    dta-data
  </title>
  <g fill="none" fill-rule="evenodd">
    <circle fill="#FFF" cx="40" cy="40" r="40"/>
    <g fill-rule="nonzero">
      <path d="M34.428936 67.876319l31.53532-18.218896-.049362-13.878037-2.277447.080737.268936 4.373497-29.446808 17.143558-6.466384-3.806626 22.452766-13.0827-1.230638-1.00319-23.17617 13.871166-.107234 9.791411m9.324255-4.76687L64.657021 41.28319l-.086808 7.876074-29.446809 17.143558" fill="#212347"/>
      <path d="M65.800851 30.335705L34.340426 12l-11.777022 7.199264 4.733617-.663068L56.794894 35.59043v7.558283L34.20766 30.057423l-.236596 1.576933 23.959149 13.586012 7.98468-4.375215-.114042-10.509448zm-8.556596 4.062577l-29.433191-17.04049 6.788085-3.887363 29.49617 17.054234-6.851064 3.87362z" fill="#3ED84F"/>
      <path fill="#006BEA" d="M26.670638 16.66724L18 21.733005v36.382822l7.986383 5.065767V61.10822l-6.617872-3.914847V22.883926l6.617872 3.914847V53.54135l1.140426-.673375V26.798773l6.61617-3.914847V48.89816l1.142127-.685398.100426-26.665276-8.314894-4.880246"/>
    </g>
  </g>
</svg>
