<svg width="80" height="80" viewBox="0 0 80 80" xmlns="http://www.w3.org/2000/svg">
  <title>
    dtb-databits
  </title>
  <g fill="none" fill-rule="evenodd">
    <circle cx="40" cy="40" r="40" fill="#0B0C0E"/>
    <g transform="translate(16 16)">
      <path d="M35.961696 6.57183c-.0419.673486-.083797 1.34697-.125696 2.020582-.24481-.003283-.489494-.006692-.734304-.009975-.183417-.368434-.36671-.73687-.55-1.105303-.90671-.67702-1.736835-1.544318-2.752405-1.950884-.50683-.202904-1.35253.436616-2.04506.695202-.25291-.091035-.50595-.181944-.75886-.27298.31165-.548358.51469-1.42841.95861-1.573232.82342-.268434 1.83152-.285732 2.68165-.077778.94304.230808 1.79532.830556 2.68709 1.26957.00291.124496.00583.248738.00874.373107.20899.16868.4181.33724.62709.50593-.00051.04192.00051.08384.00317.12576M43.178 19.5849c.68962.578787 1.797722 1.06654 1.949873 1.762373.149494.683333-.672278 1.57803-1.067848 2.379798-.296076.13144-.592152.26314-.888228.39483-.00962-.16767-.01924-.33522-.028734-.5029.432532-.65315 1.107216-1.27449 1.199747-1.97247.04924-.37197-.908354-.87651-1.41152-1.32134l-.406455-.61275c.047216-.21452.172785-.44646.129114-.64078-.31203-1.39065-.65861-2.77348-.99418-4.15896.21101.37589.42215.7519.63316 1.12778.13025.45972.2605.91932.39063 1.37917.08202.38245.16405.7649.24607 1.14723.08278.3394.16557.67866.24835 1.01806" fill="#092F3D"/>
      <path d="M39.998734 14.159116c.125064.211743.250127.423485.375317.635227 0-.000126.00368-.00707.00368-.00707.03734.168687.07443.337373.11165.50606-.16848-.101262-.33683-.202777-.50531-.30404.0595.189268.11481.38005.17937.56755.31899.927905.64038 1.854925.96102 2.782197l-2.25911-4.065277c-.0843-.1226-.16861-.245076-.25291-.367677l-.12734-.137626c-.11886-.227652-.23038-.459596-.3581-.682197-.33532-.584218-.67759-1.164142-1.01709-1.745834.82709.78295 1.65418 1.5659 2.48114 2.34886.1362.15644.27228.31275.40848.46919l-.00076.00063z" fill="#004D68"/>
      <path d="M37.572646 11.12197l-1.616203-1.148485c-.030886-.42399-.061772-.84798-.092785-1.27197.789874.597096 1.579747 1.194318 2.369494 1.79154.08962.11957.17924.239142.26886.35884-.309873.090024-.61962.18005-.929366.270075" fill="#092F3D"/>
      <path d="M37.572646 11.12197c.309746-.090026.619493-.18005.929367-.270076.249493.467298.498987.934722.74848 1.40202-.21038-.000884-.42076-.001894-.63114-.002904-.34886-.37639-.697847-.752778-1.046707-1.12904" fill="#004D68"/>
      <path d="M41.38557 36.45889c-.755317.25871-1.510633.517423-2.265823.77601-.038228-.30139-.076456-.602653-.114684-.90404-.12886.26275-.257595.525377-.386455.788256-.085443-.000126-.17076-.00038-.256203-.000505.20114-1.24368-.066076-2.19103-1.51848-2.38863-.274558-1.27184-.299368-2.66957-.868988-3.79242-1.92595-3.79646-4.044937-7.49558-6.090127-11.23207l1.005317-.01401c-.157595-.72045-.33886-1.43687-.463292-2.163-.070886-.41351-.050632-.8428-.06734-1.26515-.003546-.08737.047087-.22803.010125-.25366-.14076-.0971-.337215-.12487-.458228-.23699-.310633-.28775-.654303-.5731-.848987-.9327-.062278-.11502.300886-.45934.469367-.69873.498355.80126.996836 1.6024 1.495317 2.40366l.07177.14293.2981.4928c.03987.0846.07962.16919.11949.25392.33822.59836.6762 1.19685 1.01443 1.79533.03569.08826.07152.17639.10721.26465.04557.07323.09126.14647.13696.2197l.13329.24432.63012 1.14432c.02139.04407.04266.08814.06405.1322 1.32747 2.40606 2.65493 4.81225 3.98253 7.21831.32924.59874.65848 1.19748.98759 1.79621.24785.44861.49569.89735.74342 1.34596.60633 1.08157 1.21266 2.16301 1.81898 3.2447.01949.04836.03898.09685.05835.14533.07759.21301.15519.42576.23278.63864-.01355.27829-.02709.55644-.04064.83472" fill="#AE9143"/>
      <path d="M8.888595 17.462967c-.106962-.21048-.181392-.356944-.255823-.503283-.158607.49356-.327975.984217-.464937 1.483712-.021265.077273.105823.195076.164304.294066.18481-.423232.36962-.846464.55645-1.274495m1.14076-3.47904c-.17722-.279798-.2638-.416288-.35026-.552904-.28431.364394-.57975.721338-.83861 1.10303-.03076.045455.13785.22538.21405.34293.31468-.288258.62949-.576642.97481-.893056m-1.77316-1.084722c.07772-.090026.15544-.18005.23329-.270202.12468.19053.26114.550505.37202.54293.57506-.039648 1.14354-.173233 1.71443-.274117-.01823.20505-.03658.409974-.05456.6149-.10317.238383-.20671.476893-.31038.715403-.08709.17361-.17418.34722-.2614.52083-.01152.75492.16481 1.57778-.07886 2.24886-.36418 1.00315-1.02557 1.89873-1.55709 2.84192-.22127.39267-.43342.79027-.64975 1.18573.08254-.45467.16912-.90871.24494-1.36452.02342-.14091.01734-.28687.02481-.43056-.05759.03245-.16392.06262-.16557.0976-.04848 1.09507-.08848 2.19066-.11531 3.28636-.00051.0202.17139.05909.2643.0649 1.00379.06212 2.00784.11944 3.01177.17815-.0162 1.09267-.03241 2.18535-.04874 3.27803-.97405-.69104-1.9262-1.41806-2.94405-2.0375-.16899-.10291-.62494.26351-.94823.413l-.00342.50151c-.01076.20404-.02152.40808-.03216.61225.04253.47146.08506.94293.1276 1.41439.01152.12247.02317.24507.03469.36755-.34367.42209-.68747.84406-1.03114 1.26629-.24861-.55745-.57911-1.09786-.70076-1.68157-.04152-.19924.6381-.49823.65038-.76705.05291-1.16035-.01924-2.32651-.04595-3.49053-.00063-.08459-.00139-.16932-.0019-.25391.03342-.01149.0519-.03485.05544-.06995.01329-.14495.02671-.2899.04-.43472.03607-.2548.07215-.50947.10823-.76427L6.5448 19.691c.055063-.191163.141898-.37942.160126-.574118.14557-1.567044.278228-3.1351.414937-4.702903.378735-.50493.757596-1.00985 1.13633-1.51478M41.50171 30.33035c.197467-.79331.36367-1.451137.519113-2.11149.00848-.03624-.071772-.093435-.11076-.14091-.197215.62841-.399493 1.255304-.583544 1.887374-.01861.063637.07253.15909.17519.365026m-1.2633 1.91591c.07.24255.11785.40808.16557.573737.15038-.442425.30392-.88384.44633-1.32879.01633-.05101-.03013-.12197-.04747-.183837-.19481.324117-.38962.648233-.56443.93889m.89671 2.593813c-.60646-1.081566-1.21279-2.163005-1.81899-3.24457.22418-.414142.38683-.881693.68975-1.226895.29899-.34078.73975-.5577 1.11835-.82904.17481-.625754.34962-1.251385.52443-1.877143-.10924-.128283-.19848-.33712-.33127-.369697-.42937-.10543-.91924-.059723-1.29279-.252147-.15874-.08169-.08671-.60959-.11937-.93472.48772-.00644.98392.03864 1.46-.03914.27341-.04457.51405-.28826.76949-.4423.0443-.21212.08835-.42411.13253-.63623.00987-.03548.00455-.06868-.01595-.09937l-.18342-2.55429-.03582-.23194c.1186-.48106.23734-.96225.35594-1.44343.31291.30417.64734.5899.92974.91995.15013.17526.21013.42728.31076.64457-.01582.18687-.03165.37361-.04747.56036-.16886-.18333-.33785-.36667-.50671-.55012-.00164.37677-.00342.75354-.00519 1.13031.02456.08498.04912.16982.0738.2548.00962.16768.01924.33523.02886.50291-.09797 1.3274-.19595 2.65492-.2938 3.98258-.04254.10632-.08494.21263-.12747.31882.01177.0822.02367.1644.03544.24659-.07659.28523-.15329.57058-.23.85594-.0919.30152-.18405.6029-.27608.90442-.30203 1.34154-.60405 2.68308-.90608 4.02449-.07962.12854-.15924.25695-.23874.38536" fill="#00A8D1"/>
      <path d="M6.544848 19.690998c-.118607.50669-.237342 1.013257-.35595 1.51995-.54253-.41692-1.085063-.833713-1.627594-1.250632-.001013-.08548-.0019-.170834-.002912-.256313-.039493-1.40783-.240253-2.83447-.0781-4.218814.211898-1.80909 2.697467-3.39255 3.77595-2.58586-.378862.5048-.757596 1.00972-1.136457 1.51452-.41329.33826-1.193798.69634-1.17671 1.01123.077596 1.42866.380254 2.84507.601773 4.26591" fill="#092F3D"/>
      <path d="M24.804152 42.662285c-1.14329-.109722-2.286582-.21957-3.429873-.32942 1.62949.226138 3.25898.608587 4.88848.60846.7462 0 1.49227-.75265 2.23848-1.163888-.38456-.19558-.76899-.39091-1.15342-.586364.42367-.087752.84734-.175252 1.27101-.26288l.26873-.099494c.07784-.01099.15557-.02185.23341-.03283 1.67468-.56149 3.3462-1.13334 5.02899-1.66983.18721-.0596.43898.08245.66088.13093-.11241.05846-.22494.11692-.3376.17525-.60431.36262-1.20848.72525-1.81266 1.088-.06583.02234-.13152.04469-.19747.06679-.7357.31528-1.47114.63081-2.20671.94634-.41747.13232-.83507.26477-1.25266.39722-.09456.03497-.18899.07007-.28355.10517.09164.00846.18329.01704.27481.02563.08.00884.16.01755.23987.02626.01076.07563.02139.15113.0319.22689 0 0-.01253.02954-.01253.02942-.26241.19381-.55051.36149-.78102.58775-.35.34356-.61202.95126-1 1.03421-.41709.08914-.95607-.25973-1.40582-.48813-.44456-.22589-.84405-.54003-1.26329-.81554" fill="#026F91"/>
      <path d="M11.907962 8.214104c.17-.048233.34-.09659.51-.144697.065443.41919.131013.838383.196582 1.25745.187215-.117678.37443-.235354.561646-.35303.366962-.220456.733924-.441037 1.10114-.66149.173797.043812.371265.16452.517214.119317 1.533038-.47538 3.057975-.977146 4.585064-1.47159-1.43557.632575-2.871266 1.26515-4.306962 1.897726-.08038.04053-.160887.080935-.241266.121465-.378988.214773-.757975.42942-1.136962.644192-.21519.20341-.430507.406818-.645697.610227l-.00113.00101c-1.18949 1.028662-2.14468 1.370834-2.25645-.7649-.00215-.041287-.01671-.08207-.02531-.122978.08722-.080556.17431-.161112.26152-.241667.22507.14835.45.29684.67507.4452.06848-.44533.13696-.89079.20557-1.33624" fill="#004D68"/>
      <path d="M6.952532 34.97062l.28253-.60379.147343-.251893c.174177-.31048.348228-.62096.522152-.931187.024684-.00808.049494-.016414.073924-.025.96671 1.321717 1.93355 2.643182 2.90051 3.964647-.11987.0125-.23974.025-.35962.037626-.08088.000757-.16202.00164-.24291.002525-.28949-.002147-.57899-.00442-.86848-.006692-.81848-.728788-1.63696-1.457576-2.45544-2.186237" fill="#AE9143"/>
      <path d="M5.987038 22.733813c.02671 1.164015.098987 2.330177.04595 3.49053-.01228.268814-.6919.567804-.65038.767046.121772.58371.45215 1.12411.70076 1.68143.161645.30328.323164.60644.48481.90972-.061267.16035-.122532.3207-.183925.48106.021013.33169.042152.66326.06329.99482-.076328.00404-.152657.00833-.228986.01237-.048987-.29596-.097848-.59192-.14671-.88775-.243923-.29798-.538227-.56831-.721518-.89975-.39342-.71073-1.0695-1.49129-.99254-2.17159.07519-.66389.94342-1.23864 1.46342-1.85253.05531-.8418.1105-1.68359.16582-2.52538M19.37577 5.94088c-1.25962.158587-2.519368.3173-3.779115.476137-.000253-.06629-.000506-.1327-.000633-.19924l1.251013-.39874c.088354-.026768.176582-.053536.265063-.080304.12216-.01755.24418-.035227.36633-.052904 1.09924-.03195 1.76266-.43813 2.56621-1.39622 1.53-1.82437 2.49924.20682 3.554933 1.09116-.05595.02247-.11177.04495-.16759.06742-1.21709-.48763-2.46202-2.08573-3.61493.09848-.0862.16338-.29139.26427-.44126.39419" fill="#004D68"/>
      <path d="M6.568152 29.582576c-.16152-.303283-.323165-.60644-.48481-.909723.343797-.422095.687468-.84419 1.03114-1.26616.12038.462246.240885.92462.361265 1.386994.003038.16755.006202.335227.00924.502778l.217722.648232c.01038.078535.02088.15707.03139.235606.20709.721717.41405 1.443308.62114 2.164773-.00709.069444-.01431.13889-.0214.208333-.11836.20164-.23684.4034-.35519.60517-.02469.00871-.0495.01717-.07405.02512-.13393-.24924-.2681-.49811-.40241-.74697-.06367-.13422-.12709-.26856-.19076-.40291-.14734-.40644-.29456-.81288-.4419-1.21932-.00912-.04104-.0181-.08195-.02709-.12286-.02519-.08599-.05038-.1721-.07545-.25796-.06608-.28371-.13253-.56743-.19886-.85114" fill="#026F91"/>
      <path d="M10.76576 9.346768c.008734.041035.02329.081692.025443.12298.111645 2.135732 1.066962 1.793686 2.25633.7649-.852027.761362-1.704052 1.5226-2.556077 2.283963-.07367-.00277-.147215-.00542-.220886-.0082-.04481-.02853-.08962-.05707-.134557-.0856.002278.03106.004557.06212.00671.09318-.424305-.04772-.848736-.09532-1.273166-.14293.500127-.84078 1.000253-1.68144 1.500506-2.52222.00848-.08219.01671-.16426.024937-.24646l.248354-.25265c.04076-.00265.08152-.00492.122405-.00694m27.59667 27.7718c.08531.00013.17076.00038.2562.00051.08595.04053.17202.08119.25797.12185-.37469.55278-.74937 1.10556-1.12431 1.65834-.25089-.17348-.50165-.34697-.75241-.52032l-.66418 1.64734c-.00076.03851-.00127.07715-.00165.11566-1.72253.83498-.07671-1.28055-1.00494-1.14128.58975-.61363 1.17962-1.22727 1.76962-1.84116.42126-.01363.8424-.02727 1.26367-.04091" fill="#092F3D"/>
      <path d="M37.098772 37.159508c-.59.613762-1.179873 1.227525-1.76962 1.84116-.172785.085355-.345443.171087-.518228.25644-.2219-.048484-.473797-.190656-.661013-.13106-1.68278.53649-3.35417 1.108333-5.02898 1.669823 1.85772-.83825 3.71545-1.67638 5.57317-2.51439.12823-.08598.25646-.17209.38469-.25795l.00469-.00555.38038-.24267c.04469-.04154.08937-.08308.13405-.12449l1.24342-.61818.25747.1269" fill="#004D68"/>
      <path d="M6.952532 34.97062c.81848.72866 1.636962 1.457448 2.455316 2.186362-.097342.115783-.194557.231566-.291772.347223-.186582-.07437-.373165-.148864-.559747-.22336 0-.000125-.04899.01389-.04912.01427-.08937-.015658-.17861-.031567-.26785-.047476-1.09899-.3822-2.20051-.76314-1.28684-2.27702" fill="#BFA159"/>
      <path d="M36.456646 40.009293c-.04.00745-.08038.01313-.120886.017045.221265-.549242.442658-1.098232.664177-1.647348.250633.173358.501392.346717.752405.520202-.262405.249874-.524937.49962-.78747.74937 0 0 .002406-.002905.002406-.003032-.170253.121212-.34038.242424-.510632.363763M29.26686 42.31457c-.010506-.075757-.02114-.151262-.031898-.226893 1.102658-.146844 2.205317-.293813 3.307975-.44053-.003038.04596-.00595.091792-.00886.137752-.924938.21161-1.849748.42335-2.774685.6351-.091392-.02766-.182658-.05531-.27405-.08271-.072785-.0077-.14557-.01515-.21848-.02273" fill="#004D68"/>
      <path d="M11.907962 8.214104c-.068608.445454-.13709.89091-.20557 1.336237-.225063-.14835-.45-.29684-.675063-.4452.00734-.03257.01177-.0654.01341-.09873.28911-.26401.5781-.52815.86721-.7923" fill="#026F91"/>
      <path d="M30.256468 41.53332c.73557-.31553 1.471013-.63106 2.20671-.94621-.735444.31553-1.471013.630933-2.20671.94621m2.404202-1.013055c.604178-.362752 1.208355-.72538 1.81266-1.088005-.604178.362753-1.208482.72538-1.81266 1.088005" fill="#004D68"/>
      <path d="M32.53409 41.78486c.00291-.045832.00582-.091792.00886-.13775.01443-.015153.02595-.037754.043417-.044067.48076-.176894.962152-.352146 1.44481-.523485.00038-.000126.03443.090404.03329.09091-.508986.20745-1.019745.410984-1.530378.614393M14.06221 6.94914c-.000126-.03977.001266-.079544.00443-.11919.509747-.204167 1.019368-.408208 1.52924-.612248l.00076.199242c-.511392.177273-1.02291.354798-1.53443.532197" fill="#092F3D"/>
      <path d="M38.876606 37.240884c-.086055-.04053-.171982-.081313-.258036-.121844.128828-.262752.257656-.525378.386484-.78813.038092.301388.076437.602524.114528.903913-.080992.002147-.161984.00404-.242976.00606M23.431962 5.448233c.055823-.022475.111646-.04495.167595-.067425.1519-.005682.303544-.01149.455063-.017172.47228.4024.944557.804925 1.416836 1.207324.413038.715782.826202 1.43144 1.23924 2.147096.16114.278282.322152.556565.48329.834848.019495.056566.038736.11313.058103.16957.0562.09457.1124.189016.1686.28346.14114.26048.2824.52096.42367.78144-.00734.036363.00582.062626.03924.078788.54936 1.091666 1.09873 2.18346 1.6481 3.275126-.16848.239394-.53152.583586-.46924.698737.19455.35947.53823.64495.84886.932576.12114.11225.31747.14003.45823.237.03709.02563-.01355.16642-.01013.25366.01683.42235-.00355.85164.06734 1.26528.12443.72614.30582 1.44255.46329 2.16301l-1.00532.01402c-1.22671-2.23106-2.45355-4.46199-3.68026-6.69305.15354-.30063.51354-.70909.42278-.88207-.2976-.56641-.77608-1.0356-1.14608-1.56906-.09962-.14369-.04418-.38687-.08975-.5774-.06127-.25618-.15152-.50581-.22937-.7582l-.48266 1.00568c-.12633-.24356-.25279-.48724-.37924-.73093-.01962-.54924.16417-1.25227-.1081-1.61048-.37684-.49583-1.09684-.73232-1.66988-1.07979.0519-.14129.10354-.28257.15531-.42374.08-.13068.16-.26123.24-.39179.09063-.11111.18126-.22222.27177-.3332l.24266-.21326" fill="#BFA159"/>
      <path d="M26.710734 8.718106L25.471367 6.57101c-.285316-.38207-.57076-.76414-.856076-1.146086l4.38.523485c.25304.09103.50595.18194.75887.27298.25469.06136.50912.12285.7638.18434 1.09709.21439 2.19431.42891 3.29152.64331.24734.14267.49481.28548.74215.42815.18342.36843.36671.73674.55 1.10517.03114.2231.06228.44621.09342.66944-1.28253-.51717-2.55683-1.05644-3.8543-1.53359-.27797-.10227-.66785-.04495-.94582.07651-.09316.04065.00114.50871.00988.78144-.19253-.02803-.44455.01098-.5662-.09672-.35038-.30998-.64822-.67917-.96671-1.02513-.30151-.16768-.60278-.33548-.90417-.50316.54924.09886 1.0981.19987 1.64823.29419.07367.01262.15329-.00935.23013-.01541-.01582-.04356-.0257-.12185-.04823-.12576-.81443-.1375-1.63012-.26805-2.44569-.39962-.12202.04836-.24418.09659-.36633.14495-.09645.12374-.26886.24331-.2762.37209-.02823.49722-.0038.99735.00114 1.49646" fill="#00A8D1"/>
      <path d="M24.615266 5.424924c.285316.381945.57076.764015.856076 1.146086-.472152-.402525-.94443-.804924-1.41671-1.207323.186836.020328.373798.040783.560634.061237" fill="#AE9143"/>
      <path d="M35.195025 9.251705l-.093417-.66932c.24481.00341.48962.006693.73443.009976.00709.03687.016076.07336.027468.10922.03114.42387.062026.84798.093038 1.27185-.042658.00215-.08519.0043-.127848.00657-.079493-.03333-.158987-.06654-.23848-.09974-.045824-.05214-.09152-.10416-.137216-.15618l.005823.00202c-.087848-.15808-.175823-.31629-.263798-.47437M34.55167 7.4772c-.247467-.142676-.49481-.28548-.742278-.42803-.896582-1.235353-1.975316-1.543308-3.29152-.643434-.254556-.06149-.509113-.12298-.76367-.184344.692532-.25846 1.538228-.89798 2.045064-.695076 1.01557.406564 1.845696 1.273862 2.752405 1.950882" fill="#004D68"/>
      <path d="M43.62857 22.223712c-.100633-.217424-.16076-.469318-.31076-.64457-.282532-.33005-.616962-.615783-.929747-.920076-.118607.481186-.23734.962373-.35595 1.44356-.108353-.419444-.216708-.839015-.325062-1.25846-.03088-.324116-.06177-.648358-.09278-.972474-.04886-.105682-.09785-.211237-.14683-.316793l-.0862-.45834c-.05-.10026-.1-.20051-.14987-.30076-.03569-.15228-.07126-.30455-.10696-.45682-.32063-.92728-.64202-1.8543-.96101-2.78207-.06455-.18763-.11974-.37841-.17936-.56768l.50544.30417c.08076.09053.16152.18106.24228.27171.59772 1.38245 1.19557 2.7649 1.79329 4.14735.13532.20429.27076.40846.40621.61275.23241.63295.46494 1.26566.69734 1.89848" fill="#026F91"/>
      <path d="M43.62857 22.223712c-.232405-.632828-.464937-1.26553-.697342-1.898485.50329.444697 1.46076.94937 1.41152 1.321212-.092406.6981-.76709 1.31931-1.199748 1.9726-.024684-.08498-.04924-.16983-.073924-.2548.170633-.19344.341266-.38674.512025-.58018.01583-.18675.03165-.37361.04747-.56036" fill="#004D68"/>
      <path d="M38.48505 13.768485c-.415316-.380177-.83076-.760227-1.246202-1.140404-.213924-.16868-.427595-.33737-.641392-.50606 0 0 .000253 0 .000126.00013-.211012-.21414-.4219-.42828-.63291-.64242-.038735-.03825-.07747-.07664-.116457-.1149-.12962-.08964-.25924-.17929-.388734-.26894-.08063-.07904-.16126-.15808-.24202-.23712-.2924-.26174-.58569-.52222-.87633-.78573-.40493-.36704-.80785-.73636-1.21164-1.10479.5076.14634 1.01785.28384 1.52152.44243.27507.08675.53886.20922.80785.31541l-.00582-.00202c.0457.05202.09152.10404.13709.15619.07962.03321.15912.06641.23861.09975.42697.45354.85405.9072 1.28114 1.36061.3395.58144.68177 1.16149 1.01709 1.74571.12772.2226.23924.45455.3581.6822" fill="#092F3D"/>
      <path d="M30.829177 28.571856c.16481.32336.299874.588258.434937.853157.109494-.30808.25076-.610733.306076-.928283.01367-.078788-.2481-.280303-.389114-.28611-.104684-.00442-.218987.216034-.3519.361236zm4.94329 4.967298c.102153.15101.226837.335354.35152.51957.181266-.175757.545064-.408964.511013-.516792-.124683-.393687-.382025-.74558-.589367-1.113384-.082912.337374-.16595.67462-.273165 1.110606zm-8.92886-15.963258c.156836.200632.412785.534723.688228.85202.008988.01048.325697-.189014.313165-.22361-.232025-.640026-.492405-1.269697-.746835-1.901516-.06519.32601-.13038.65202-.254557 1.273106zm8.53519 14.582324c-.105316-.04596-.21076-.092046-.316075-.138005 0-.441667.089493-.907197-.020127-1.319824-.18152-.6832-.491266-1.33257-.74709-1.99621-.03886.60341-.082404 1.20644-.115062 1.8101-.026076.48157-.082278.96692-.04709 1.44508.053166.72361.174052 1.4423.266204 2.16313.326456-.65467.65291-1.30959.97924-1.96426zM21.631582 16.03524c-.247088.50202-.49405 1.003914-.741266 1.505808-.30114.25909-.602405.518308-.90367.7774.251772.047853.502278.12904.755316.137752 1.158734.039393 2.319494.100883 3.47709.068055.652783-.018434 1.852277-.163005 1.864176-.321338.10329-1.37058.031013-2.760228-.082785-4.13649-.027215-.327525-.40709-.625758-.62481-.9375-.063038.315404-.178608.63043-.181013.946338-.02671 3.59495-.022025 3.59495-3.66114 3.466793.040128-.282828.080254-.56553.12038-.848232.31266.02664.62747.038257.937596.082575 1.12924.16124 1.96.11352 1.754303-1.46136-.15937-1.21969-.02114-2.47714-.04013-3.71742-.00279-.18081-.14443-.35959-.2219-.53939-.18152.15531-.50823.29962-.52101.46768-.08582 1.12728-.06798 2.26288-.16848 3.38839-.02937.32841-.33418.63233-.51266.94748-.11203-.31465-.26152-.62184-.32608-.94583-.07494-.37576-.07532-.76616-.10798-1.15025-.17443.2822-.40798.54483-.50924.85101-.15114.45669-.20912.94419-.30671 1.41856zm-2.877595 4.17462c.037722.290405.075317.58081.112912.871087-.34216.215152-.68418.430303-1.02621.645455.09797.08914.19342.25202.29443.255555.72392.025126 1.45645.07942 2.17063-.005808.33797-.04041.64152-.36768.96063-.5649-.33557-.10695-.67114-.21389-1.00658-.32071.00012-.25101.00038-.50215.00063-.75316.08607.0005.17228.00088.25835.00126.08734-.03119.17481-.06238.26228-.09356.46506-.12765.93038-.25543 1.39557-.38308-.2395-.16175-.47254-.44937-.7195-.46162-.77671-.03876-1.55861.02601-2.33848.05063l-.50051.62272.13582.13611zm7.450507-7.197347c1.22671 2.230934 2.453544 4.461995 3.680253 6.693055 2.04519 3.736364 4.164304 7.43548 6.090126 11.23207.56962 1.122728.594557 2.520582.868988 3.7923-.58822-.025632-1.17658-.051137-1.76405-.076895-.34303-.01111-.68683-.022222-1.03063-.033207-.30304-.242677-.60607-.485354-.90898-.72803-.87721-1.542425-1.78873-3.066667-2.62038-4.63308-.60987-1.148486-1.11531-2.352148-1.66708-3.530936.09494-.038888.18975-.07803.28443-.11717.12393.0077.24772.015403.37165.02323.28735.553663.57481 1.107324.86228 1.660986.4295-.003662.85912-.007197 1.28874-.010732.20254.213257.55329.40808.58254.64293.14291 1.148357.17734 2.3101.31026 3.460226.02241.194318.33886.35505.51937.531187.03734-.18207.1062-.36414.10683-.546465.00469-1.405808.13076-2.829798-.05709-4.210732-.11848-.871843-.69443-1.688005-1.10152-2.511364-.16367-.33106-.42468-.614394-.64139-.919444.00519-.034975.00709-.070076.0057-.105556-.1162-.217424-.23253-.434974-.34873-.652525l-.02595-.3558c-.08253-.08409-.16506-.16818-.24772-.25227l-.00228-.00075c-.24962-.34028-.49924-.68068-.74886-1.02096-.1181-.05618-.23608-.11224-.35418-.16831l-.38772-.93825.00797-.00732c.12405-.0428.2481-.08561.37203-.12841-.26784-.24457-.53582-.48901-.80367-.73346-.07785-.00783-.15557-.01553-.23342-.02336-.09987-.1649-.19987-.32992-.29975-.49482-.18797.16275-.37582.32551-.56367.48826l-.00683.00632c-.59215.13182-1.18443.26364-1.77658.39545.5276.79243 1.05519 1.58472 1.58317 2.3774.05304.0144.10583.02854.15848.04281l.05848.47273c-.05227.20556-.10455.41099-.15696.61654-.15899-.07702-.39456-.11199-.4643-.23813-.42747-.77348-.69874-1.66616-1.25114-2.32904-.63215-.75871-.82253-2.53207-2.55051-1.46755-1.28443 2.22008-2.56861 4.44028-3.85278 6.66036-.62924 1.09621-1.25848 2.19242-1.88785 3.28864-.30088.55227-.60177 1.10455-.90253 1.65669-.21747.42399-.43519.84786-.65278 1.27197-.15393.34609-.30772.69217-.46165 1.03813-.260505.44962-.521012.89925-.781392 1.34874-.12038.08283-.240883.16566-.36139.24861-.16873-.04129-.33747-.08245-.5062-.12361-.34886.04773-.69785.09546-1.046834.14331-.27329-.03889-.54646-.07752-.81975-.11629l-.92203-.01022c-.27975-.09103-.55962-.18194-.83937-.27272.164174-.28283.32835-.56591.492275-.84886.14127.27437.235446.59899.4481.79773.08253.0774.43241-.12967.66038-.20707l.89443-.001516c.28405-.0875.56823-.175.85228-.2625 1.47595-.0548 1.87279-.96477 1.79405-2.2519.00165-.213.00317-.426132.00481-.63914.07886-.04886.1576-.0976.23646-.146462.275823-.12424.56089-.23409.815444-.39268.02975-.01856-.10924-.30644-.17-.46944.128352-.24697.256453-.494062.38468-.74103.42975-.67475.859496-1.34937 1.28899-2.02399.24038-.51023.48089-1.02045.72152-1.53055l.734305-.749244c-.15443-.08901-.30886-.17803-.46342-.26704-.00102-.24621-.002158-.49268-.003298-.73914.37684-.262754.7538-.525633 1.130636-.78851-.36823-.07639-.73329-.18927-1.10532-.219824-.466457-.03826-.977216-.11932-1.395444.027145-.31709.11111-.51924.54912-.77253.84154.07797.29344.15595.586746.23392.88018-.498733.339397-.99772.67879-1.49658 1.01818-.08848.2519-.17696.50392-.26544.75581-.221773.3274-.4438.65455-.66519.9822-.206203.305175-.41152.61073-.617216.91616.01038-.381945.02076-.76389.031264-1.145834.76241-1.38068 1.52494-2.76136 2.28734-4.142043 1.21279-2.14836 2.42545-4.296846 3.63823-6.44508.04595-.126515.09203-.25303.13798-.379545.296202-.5404.59253-1.08093.888733-1.62172.16405-.27841.32823-.55669.4924-.83497.6376-1.08902 1.27519-2.17816 1.91279-3.267172.42202.04874.84405.0976 1.266075.14634.50139.805177 1.00266 1.61035 1.50405 2.41553z" fill="#B0A09E"/>
      <path d="M38.97019 25.383232c-.247215-1.598737-.494304-3.197474-.741393-4.796212.46443.875632 1.088228 1.705682 1.355317 2.6375.393544 1.373864 1.070886 2.2625 2.550633 2.399874-.255443.15404-.496076.397727-.769494.442424-.476076.077652-.972278.032576-1.46.039015.032785.325127-.039367.85303.119367.934723.373545.192424.863418.146843 1.292785.252146.132785.032576.222025.24154.331266.369697-.45696.48598-.91379.97197-1.37063 1.45808.28215.13964.56418.27942.8462.41906-.3786.27134-.81936.48826-1.11835.82904-.30291.3452-.46557.81275-.68974 1.22689-.24785-.44861-.49557-.89723-.74316-1.34558.13266-1.62197.26494-3.24432.39722-4.86667" fill="#026F91"/>
      <path d="M35.07895 34.653245c.588227.025505 1.176582.05101 1.764936.07664 1.452405.19773 1.71962 1.145077 1.51848 2.388638-.421138.013762-.842404.027272-1.263543.041035-.08595-.042298-.171646-.084596-.25747-.126894-.294682.043182-.589492.086364-.884302.129546-.04341-.04495-.08696-.090026-.13038-.1351l-.74772-2.373865" fill="#BFA159"/>
      <path d="M42.556025 29.525796c.417342.134595.834684.26919 1.252026.40366-.00012 1.008587.30342 2.154673-.07734 2.990658-.47164 1.035606-1.51063 1.81414-2.30455 2.703914-.07759-.212753-.15519-.425505-.23278-.63851.60988-.64293 1.54355-1.202652 1.73709-1.952526.18747-.726136-.3862-1.6476-.62569-2.48346-.00126-.04116-.00949-.080934-.02481-.119317.09203-.301516.18405-.602904.27608-.90442" fill="#092F3D"/>
      <path d="M42.304772 30.549583c.239494.835733.813165 1.757324.625696 2.48346-.193544.749747-1.127215 1.309596-1.737088 1.952525-.019367-.048485-.03886-.09697-.058355-.145454.07962-.12841.15924-.256945.238988-.385228 1.65557-.982828 1.10671-2.488257.93076-3.905303" fill="#004D68"/>
      <path d="M17.193772 39.710278c-.296076.0601-.488607.099116-.681266.138257.378228.108713.752785.235606 1.136962.316667.140254.02942.303545-.05038.45633-.080177-.32443-.133333-.64886-.266666-.912026-.374747m3.32114 1.658838c.315442-.094065.484556-.14457.653797-.195076-.86646-.241666-1.73254-.484848-2.60064-.720202-.03519-.009722-.09.053157-.13583.08207.72531.290153 1.4505.580304 2.08266.833208m6.83291-.17803c.38443.195328.76899.390783 1.15342.586364-.74621.411237-1.49228 1.163888-2.23836 1.163888-1.62962.000127-3.25912-.382323-4.88861-.60846-.53874-.06616-1.07734-.13207-1.61608-.198105-.29544-.07298-.59101-.146212-.88646-.219192-.28899-.08724-.5781-.17436-.86709-.26136-1.06329-.75075-2.12671-1.50139-3.19-2.25189.66987-.23724 1.45101-.81932 1.98886-.64684 1.59519.51175 3.09253 1.32551 4.63481 2.00569.1267.05594.31632.02626.45303-.0255.05341-.02033.05822-.21187.05709-.325-.00975-.96982-.02583-1.93939-.04-2.90909 1.64227-.03447 3.28455-.06868 4.92683-.10315-.92266.84937-1.91532 1.63877-2.72696 2.58283-.25848.30063-.03595 1.01276-.03342 1.53649.12342-.00265.24696-.00555.37051-.0082l2.67911-.29318c.07443-.00846.14886-.01692.22329-.02525" fill="#00A8D1"/>
      <path d="M18.87172 41.915442c.295445.073106.591014.146338.886457.219318.004304 1.023864-1.976962 2.369697-3.05152 2.18207-.899492-.157196-1.876834.015784-2.72962-.247474-.45215-.13952-.823037-.852652-1.034303-1.384596-.330633-.832323-.49481-1.73043-.72962-2.60063.505696.476766 1.01152.953534 1.51709 1.430176.025442.061237.050885.122222.076328.183207 1.645443 1.95303 3.10772 2.01591 5.06519.21793m5.93243.746842c.41924.275505.818734.589647 1.26329.81553.449748.22841.988735.577273 1.405824.488132.387975-.082955.65-.690657 1-1.034217.230506-.226263.518607-.39394.781013-.587753-.25722 1.41995-.85874 2.60808-2.5357 2.054924-.74823-.24684-1.28291-1.13787-1.91443-1.73661" fill="#092F3D"/>
      <path d="M13.73043 41.514204c-.505822-.476515-1.011645-.953282-1.51734-1.43005-.0719-.10442-.144052-.208712-.215824-.31313.182278-.086365.36443-.172855.546582-.259218.714557.469823 1.42924.939898 2.143798 1.409848.258607.165278.51734.330808.776075.496212l-1.56227.094318c-.0405-.006565-.08063-.004924-.1205.004925l-.0505-.00291z" fill="#00A8D1"/>
      <path d="M12.543848 39.511768c-.182152.08649-.364304.172853-.546582.259343-.41481-.45037-.776836-.97222-1.261772-1.32651-.34266-.2505-.867848-.23775-1.278988-.41666-.159493-.06944-.229493-.34318-.34038-.52361.097216-.11565.19443-.23144.291773-.34722.28962.00202.57898.0043.86848.00644.62848.61945 1.25696 1.23876 1.88531 1.85808h-.00026l.3824.49015z" fill="#092F3D"/>
      <path d="M10.27062 12.51043c.07367.00265.147215.00543.221013.00808.028228.12639.056202.252904.084304.379293-.570886.100884-1.139367.23447-1.71443.274116-.110887.00757-.247342-.3524-.372026-.54293.12671-.0846.25342-.1692.38013-.25392.42431.0476.84874.0952 1.27317.1428.04253-.00253.08519-.00493.12785-.00745" fill="#004D68"/>
      <path d="M11.143468 20.96817c-.07152.629797-.143164 1.25947-.214683 1.889267-1.003924-.058712-2.007975-.116036-3.011646-.178283-.09304-.005682-.26494-.04457-.26443-.064773.02696-1.09583.06683-2.19128.11544-3.28649.00164-.03484.10797-.06502.16544-.09747-.00747.14369-.00139.28952-.02481.43056-.0757.45581-.16241.90985-.24481 1.36452.21633-.39545.42835-.79318.64974-1.18573.53139-.9433 1.19291-1.83876 1.55709-2.84192.24367-.67108.06721-1.49394.07898-2.24886.15354 1.1572.26076 2.32298.47443 3.46894.17342.92917.47468 1.83447.71924 2.75026" fill="#026F91"/>
      <path d="M7.475734 28.793687c-.12038-.462374-.240886-.924748-.361266-1.386995-.01152-.1226-.023038-.245076-.034557-.36755-.04253-.471465-.08518-.943056-.12772-1.41452l.03228-.612122c.64633.700505 1.33329 1.368687 1.92595 2.111742.47228.592298.82937 1.27601 1.2376 1.919192-.00607.08384-.01215.16755-.01823.25139-.13747.247853-.27493.495706-.4124.74356l-.21936.2649c-.16848-.125127-.33734-.24975-.50544-.37538-.50582-.377904-1.01126-.75606-1.51683-1.134217" fill="#092F3D"/>
      <path d="M10.880165 26.135442c.071645.41755.14329.8351.214683 1.25303-.069114.17298-.137848.345707-.20671.518435-.122657.169697-.245315.339393-.3681.509217-1.177342-1.301768-2.35481-2.603536-3.53228-3.905177.32342-.149495.77937-.51591.94823-.413005 1.017974.619444 1.970126 1.346465 2.944177 2.0375" fill="#026F91"/>
      <path d="M11.143468 20.96817c-.244557-.915784-.545822-1.821087-.71924-2.750253-.21367-1.14596-.320886-2.311743-.47443-3.46894.086962-.17361.17405-.347222.261392-.520707.388354.99091.845063 1.961995 1.139367 2.979924.182278.63005.117975 1.33106.16443 2.000253-.04734.32942-.094683.658838-.142278.98813-.07659.257198-.15292.514395-.22925.771592" fill="#004D68"/>
      <path d="M11.514937 19.208447c-.04633-.669192.017974-1.370202-.164304-2.000253-.29443-1.01793-.751013-1.989015-1.139367-2.979924.103417-.238636.206962-.477146.310126-.71553 1.42709.644823 2.120127 2.695454 1.45671 4.217045-.205317.470834-.31152.984596-.463165 1.478662" fill="#092F3D"/>
      <path d="M6.544848 19.690998c-.22152-1.420834-.524177-2.837248-.601772-4.26591-.01709-.3149.763418-.67298 1.17671-1.011237-.136583 1.56793-.269242 3.13599-.414938 4.70303-.0181.1947-.104937.38296-.16.57412m.442975 4.81993c1.177467 1.30176 2.35481 2.60353 3.532277 3.90517-.00987.07235-.01962.14483-.029364.21717-.114177.13675-.22848.27336-.342785.4101-.40822-.64318-.76519-1.32689-1.23759-1.91919-.59253-.74305-1.27962-1.41123-1.92595-2.11174l.00342-.50151" fill="#004D68"/>
      <path d="M10.02938 13.983965c-.345443.316414-.660127.604798-.974937.893055-.076076-.11755-.244684-.2976-.213924-.343055.25886-.381566.55417-.73851.8386-1.102904.08645.13662.17304.27311.35025.55291" fill="#CFCCCC"/>
      <path d="M8.888595 17.462967c-.186836.42803-.371646.851263-.556456 1.274495-.05849-.09899-.18557-.216793-.16431-.294066.13696-.499495.30633-.99015.46493-1.483712.07443.14634.14886.292803.25582.503283" fill="#EDEDED"/>
      <path d="M36.712658 17.05298c-.247595-.42159-.49519-.843182-.742658-1.264647-.00443-.16856-.00886-.336995-.013418-.50543.890127.694446 1.962152 1.250885 2.623418 2.118814.795443 1.044192 1.20076 2.377525 1.884684 3.520328.09734.1625.81253-.04293 1.24215-.077904.10861.41958.216963.83902.325318 1.25846.0119.07728.023797.15468.035696.23208.01962.30619.039367.61238.058987.91856-.276962.06717-.553924.13422-.830886.20139.14493.26869.30405.53094.42974.80833.08709.19217.12785.40518.18936.60884-.46899-.36161-1.09545-.62904-1.37962-1.10139-1.20038-1.99495-2.29874-4.05088-3.43456-6.08447l-.38823-.63295z" fill="#092F3D"/>
      <path d="M37.100937 17.685896c1.135696 2.033586 2.234177 4.089647 3.434557 6.08447.284177.47235.910633.739773 1.379493 1.101515.084304.00278.168608.00556.252912.00821l-.00849-.00631c.03607.03813.0719.07627.10785.1144-.04418.21212-.08823.42412-.13241.63624-1.47988-.13737-2.15709-1.02601-2.55076-2.39987-.26709-.93182-.89089-1.76187-1.35532-2.6375l-1.12785-2.90113" fill="#004D68"/>
      <path d="M42.304772 30.549583c.17595 1.417046.72481 2.922475-.93076 3.905303.3019-1.34154.603925-2.68308.90595-4.02462.015317.038257.023544.07803.02481.119317" fill="#026F91"/>
      <path d="M41.124253 29.53961c-.282025-.139648-.564177-.27942-.846202-.419193.45684-.485985.91367-.972096 1.37064-1.45808l-.52443 1.877272" fill="#004D68"/>
      <path d="M40.238418 32.246237c.17481-.290656.36962-.614772.56443-.93889.017342.06187.063798.13283.04747.183966-.142407.444823-.29595.886237-.44633 1.328662-.047722-.165657-.09557-.331187-.16557-.573738" fill="#EDEDED"/>
      <path d="M41.50171 30.330354c-.10266-.205935-.1938-.30139-.17519-.365026.18405-.63207.386328-1.258964.583543-1.887373.038988.047474.11924.10467.11076.14091-.155443.660352-.321646 1.31818-.519114 2.11149m2.07932-7.54629c-.17064.193435-.34139.386743-.5119.580177l.00532-1.130303c.16886.18333.33772.36679.50658.55012" fill="#026F91"/>
      <path d="M27.347848 41.191035c-.07443.008334-.14886.01692-.22329.025253-.80519.060353-1.610507.120707-2.415697.181187.33013-.44533.57886-.99899 1.00469-1.316667 1.65114-1.231566 3.35861-2.388005 5.04519-3.5726.21418-.084344.42848-.168814.64279-.253284.29886.269823.59772.539647.89658.809344-1.10265.988636-2.21519 1.966793-3.29924 2.975252-.20113.18712-.28772.49697-.42721.750253.02013.006187.04026.012374.06051.01856-.0062.039647-.01063.079798-.01329.11995-.42367.0875-.84734.175126-1.27101.262752" fill="#092F3D"/>
      <path d="M19.625532 6.920783c-.0819.01313-.163924.026136-.245823.039268-1.52722.49457-3.05216.99634-4.58519 1.47159-.14583.04521-.34342-.0755-.51722-.11931.12633-.08762.25291-.17512.37949-.2625.18126-.11313.36228-.22626.54342-.33952.0281-.0173.05823-.02904.09088-.03485.18316-.10985.3662-.21982.54924-.32967.23595-.10404.47202-.20795.70823-.31161.22873-.10581.45721-.21199.68569-.31805.10544-.0303.21088-.06073.31645-.09065.10531-.05442.21038-.10909.31544-.16389.36823-.0976.73633-.1952 1.10456-.2928.09772-.06629.19531-.1327.29291-.19911.03633-.01389.07367-.02348.11215-.02879.14987-.12992.35506-.23081.44126-.39419 1.15291-2.18422 2.39785-.58598 3.61493-.09848-.08089.07109-.16177.14218-.24279.21339-.60013-.20656-1.21633-.60581-1.79494-.55757-.43988.03675-.83216.6423-1.24557.9947.35544.08195.71759.25202 1.06493.22576.57304-.04318 1.13633-.21325 1.70393-.3298-.08.13068-.16.26124-.24.39205-.96785.15391-1.9357.30758-2.90354.46124-.04949.02424-.09899.04861-.14848.07285" fill="#026F91"/>
      <path d="M13.17614 8.973838l-.561646.35303c-.06557-.419065-.131013-.838257-.196583-1.25745.12595.132577.25899.259345.3757.399496.13494.162248.2557.33611.38253.504924m.51832.649622c-.21531.20341-.4305.406818-.64582.610227.21532-.20341.43051-.406818.64583-.610227" fill="#092F3D"/>
      <path d="M11.147177 34.619823c.307342.003283.614684.006692.921772.00985.54063.828155 1.08164 1.656312 1.62253 2.484595-.51279.00265-1.02557.005555-1.53836.008207-.39912-.45341-.7981-.906692-1.19722-1.3601.14797.453534.29582.906943.4438 1.360478-.17355.000127-.34722.00038-.52076.000506-.96684-1.32147-1.9338-2.64293-2.90038-3.96453.11848-.20202.23683-.40379.35531-.60556.35.2601.69974.52045 1.04962.78068.24063.4125.43202.86755.73936 1.2226.20417.23586.57417.32891.86987.48598.05152-.14104.10291-.28182.15443-.42273" fill="#CCB170"/>
      <path d="M10.878937 37.12337c.173544-.000125.347215-.000378.52076-.000504.163543.012626.327088.025126.490505.037753.670127.80707 1.342406 1.61212 2.008355 2.42247.124304.15139.22367.3231.334557.48548-.20405-.04344-.43367-.04116-.606962-.13864-.50038-.28132-.977975-.60265-1.464684-.90834h.000254l-1.64228-1.86061c.119748-.01263.23962-.025.359495-.03763" fill="#092F3D"/>
      <path d="M8.49871 32.097538c.032404-.012753.065695-.022222.1-.028283.20658.142298.42038.27563.61772.429798.195317.15265.37405.32639.56.490783-.131012.114773-.262025.229545-.39291.344192-.349874-.260354-.699748-.52058-1.04962-.780808.00696-.069192.014176-.138637.02139-.208207.04785-.08245.095697-.165026.14342-.247475" fill="#AE9143"/>
      <path d="M8.49871 32.097538c-.047723.08245-.09557.165025-.14342.247475-.207087-.721465-.414176-1.443056-.621138-2.164647.254937.639015.509747 1.27803.764557 1.917172" fill="#004D68"/>
      <path d="M35.5979 37.650745c.119746-.16288.239492-.32563.35924-.48851.29481-.043182.589493-.08649.884176-.129672l-1.243417.618182zM19.77405 6.847967c.96785-.15366 1.935697-.30745 2.903418-.461237-.051645.14091-.103417.282197-.15519.423485-.041265.084596-.08253.169065-.123797.25366-.3467.591668-.69354 1.18346-1.04025 1.775254-1.21101.76111-2.42215 1.52234-3.63316 2.28345-1.05114.5553-2.09936 1.11629-3.15936 1.65416-.07848.03977-.35379-.10505-.34911-.13371.07595-.46818.1281-.95228.29772-1.38952.15367-.39621.42848-.75026.68102-1.10051.07013-.09722.26722-.09331.37747-.17425.18216-.13371.34291-.29697.50709-.45354.01861-.01781-.00924-.1019.00266-.10632.79393-.29482 1.58899-.58674 2.38671-.87109.07228-.02576.21292.03422.23798-.0024.35873-.52551.70291-1.06074 1.05076-1.59356.00215-.03523.00747-.0697.01608-.10392" fill="#092F3D"/>
      <path d="M29.121114 9.859343l-1.26519-.226262c-.083797-.00745-.167722-.01489-.25152-.02234-.084176-.0029-.16848-.00568-.252657-.00846-.052658-.01654-.105317-.03295-.157848-.04949-.16114-.27815-.32216-.55644-.48317-.83472-.00494-.49899-.02937-.99924-.00114-1.49634.00734-.12891.17975-.24835.2762-.37222.5024.36983 1.00303.74255 1.52202 1.08788.00936.00631.23785-.31465.36405-.48295.31848.34596.61633.71515.96671 1.02513.12164.10758.37367.06869.5662.09672.97898.46326 1.9581.92664 2.93721 1.39003-.11114.08914-.22912.26288-.33228.25442-1.29747-.10518-2.59279-.23661-3.88861-.36136" fill="#026F91"/>
      <path d="M22.917532 5.994646c-.56747.11654-1.130886.286617-1.703924.329798-.347342.026263-.709367-.143813-1.064937-.225757.41342-.3524.8057-.957955 1.24557-.994697.57861-.048232 1.19481.35101 1.79494.557576-.09038.110985-.18101.222096-.27164.33308" fill="#00A8D1"/>
      <path d="M26.204532 13.01245c-.501393-.805177-1.00266-1.610228-1.50405-2.415278-.00709-.12197-.014178-.24394-.02114-.365783.161012-.33523.3219-.67033.482785-1.00556.077848.2524.167974.50189.229367.7582.04557.1904-.009874.43358.089746.57727.369874.53346.848482 1.00265 1.14595 1.56919.090886.17285-.269114.58144-.422658.88194m-3.806-5.94858c.041266-.0846.082405-.16907.123797-.25366.57291.34747 1.29291.58396 1.66974 1.07979.27228.3582.08848 1.06123.10823 1.61035-.15557.0351-.31114.07045-.46671.10593l-1.43506-2.54242" fill="#CCB170"/>
      <path d="M23.83371 9.6062c.15557-.035354.311138-.070708.46658-.10581.126457.243815.252913.487375.379242.731062.006835.121843.013797.243813.020886.365657-.422026-.04887-.84405-.09773-1.266076-.14622.133164-.28144.266202-.56301.399367-.8447" fill="#AE9143"/>
      <path d="M30.51791 6.405682c1.316077-.899874 2.394938-.591793 3.29152.643434-1.097215-.21452-2.19443-.42904-3.29152-.643434" fill="#026F91"/>
      <path d="M28.871848 7.45437c-.126202.168307-.354557.489266-.36405.48308-.518988-.34533-1.01962-.718056-1.5219-1.088006.122026-.048232.244178-.09659.36633-.144823.205063.08208.410253.1644.615443.2466.3014.16768.60279.33548.90418.50316" fill="#004D68"/>
      <path d="M27.967658 6.951174c-.20519-.082197-.41038-.164394-.615443-.24659.815443.131565 1.63114.26212 2.44557.39962.02253.003915.032405.082198.048228.125758-.076836.00606-.156456.02803-.230127.015404-.55-.094318-1.098987-.195328-1.648228-.294192" fill="#026F91"/>
      <path d="M33.341975 9.966313c.41152.257197.823038.514268 1.234683.771465-1.264937.29394-2.533038.802146-3.79367.783964-.5619-.008207-1.108355-1.075757-1.6619-1.6625 1.29595.124874 2.59114.256314 3.888608.36149.103165.00846.221266-.165278.33228-.25442" fill="#092F3D"/>
      <path d="M35.826646 37.02707c-1.176203.0125-2.35228.024874-3.52848.037374-.298862-.26995-.597723-.539772-.89671-.809596-.069494-.209848-.110253-.435227-.21329-.627146-1.01861-1.898232-2.047723-3.79091-3.0738-5.685227-.336328-.736238-.677594-1.47033-1.004556-2.210733-.06152-.13914-.065443-.30341-.096076-.45606.156836.04255.313418.0851.470253.12765.26924.306693.53848.613638.807722.92033-.06279-.306945-.12557-.61389-.18836-.92096-.00177-.12437-.00367-.248864-.00557-.37336-.07709-.12601-.15418-.252145-.23127-.37828-.27848-.54672-.51861-1.117047-.84228-1.635734-1.21241-1.943055-2.45215-3.869318-3.68152-5.801894 1.72759-1.06452 1.91797.70884 2.55012 1.46755.5524.66288.82367 1.55543 1.25114 2.328915.06974.12626.30531.16111.4643.23813.0038.03522.00405.07058.0005.10593.20721.51818.41456 1.03636.62177 1.55454.03405.07512.06822.15025.10227.22538.14759.12765.29506.2553.44253.38295l.07709.2106c.55203 1.17904 1.05747 2.3827 1.66734 3.53131.83164 1.56641 1.74316 3.09065 2.62038 4.6327.30303.24267.60595.4856.90898.72841.3438.01085.68759.02196 1.03063.03308.24835.79154.49759 1.58282.74683 2.37411" fill="#E9D4AD"/>
      <path d="M27.48395 27.403308l-.470127-.12765c.030506.15265.034557.317044.09595.45606.32696.740403.668227 1.474494 1.004556 2.210605-1.20874-2.15404-2.41671-4.30846-3.6276-6.46111-.12152-.216036-.26165-.421592-.39304-.631945-.17127.221717-.37203.426767-.50874.668055-.73228 1.292298-1.44861 2.593435-2.17038 3.89154-.64165-.511742-1.28329-1.023484-1.92494-1.5351 1.28405-2.220076 2.56822-4.440278 3.85266-6.660354 1.22987 1.93257 2.46949 3.85883 3.6819 5.80189.32367.51868.56379 1.08901.84227 1.63573.07696.12613.15417.25227.23139.37841.00177.12437.00367.24886.00557.37336-.20646.00012-.41304.00038-.6195.0005M20.3001 13.70856c-.234682-.21793-.42443-.39419-.614176-.570328-.045823.08586-.15291.21111-.12709.250758.130255.20063.295065.378914.447723.565025.080126-.067045.160506-.134217.293544-.245454m-5.70708 7.4923c.79899-1.49709 1.59785-2.99419 2.39684-4.49141.93912-1.65581 1.87823-3.31149 2.81734-4.9673.35659.46705.71317.93409 1.06962 1.40114-.15607.02374-.31202.04735-.4681.07109.20684.44634.41367.89243.62051 1.33864-.29633.54053-.59253 1.08106-.88886 1.62147-.21633-.15719-.43278-.31439-.64911-.47159-.07291.13523-.22683.37399-.20645.38977.22367.17387.47431.31288.7176.46137-1.21266 2.14836-2.42544 4.29672-3.63835 6.44495-.5905-.59937-1.18076-1.19874-1.77101-1.7981" fill="#CCB170"/>
      <path d="M10.888203 27.90688c.068734-.172726.137594-.345453.206582-.518433.473797-.800253.947215-1.60038 1.420633-2.40038.520506.717678 1.041012 1.435355 1.561392 2.153158-.01038.381944-.02076.76389-.031012 1.145833.309113.298485.57405.758965.937594.85745.54266.147096 1.15481.039015 1.737342.03952-.128228.247096-.256456.494065-.384557.74116l-.626962.12879c-1.249873-.4899-1.20962.30644-1.137088 1.134974.015063.53851.03 1.077146.044936 1.615783.215317-.40139.427216-.804546.651393-1.200758.018987-.033586.118607-.021717.18076-.03106.07886 1.28712-.317975 2.197096-1.793798 2.25202.00848-1.12942.016835-2.258838.02519-3.388384-.042026-.17462-.084178-.34937-.12633-.52399-.04557-.43207-.091265-.864015-.13696-1.296086l.000884-.045328c-.001645-.05215-.003164-.10442-.00481-.15657-.924936-.5548-1.492784-.47462-1.398734.7827-.073797-.00278-.147595-.00568-.22152-.00846-.301644-.42727-.60329-.85467-.904936-1.28195" fill="#D3B898"/>
      <path d="M20.876835 13.143283c-.356455-.467046-.713037-.93409-1.06962-1.401136.264177-.5024.52848-1.004798.792532-1.507197.25291-.465152.505696-.930556.75848-1.395834.34671-.591793.693545-1.18346 1.040254-1.775252l1.43507 2.542424c-.13291.281566-.26607.563258-.39911.844697-.63772 1.088763-1.27531 2.177778-1.91291 3.267172-.21481-.191415-.42974-.38308-.64468-.574874" fill="#E9D4AD"/>
      <path d="M14.07686 27.141225c-.520506-.717803-1.041012-1.43548-1.561392-2.153157.692532-1.262374 1.384937-2.524747 2.07747-3.78712.590378.59924 1.180632 1.19861 1.771138 1.79798-.76228 1.380807-1.52481 2.76149-2.287215 4.142297m5.41276-1.267425c.64165.511617 1.28329 1.02336 1.92507 1.5351-.55848 1.04975-1.11696 2.099623-1.67531 3.14937-.14101.22235-.28202.444697-.42304.667172-.57152-.687753-1.14304-1.37538-1.71456-2.06313.62924-1.096214 1.25848-2.1923 1.88785-3.28851" fill="#BFA159"/>
      <path d="M30.37105 27.29486c-.287468-.55366-.574936-1.107322-.862278-1.660984.648608-.000505 1.29848.020202 1.945443-.012752.231266-.01187.455823-.153662.683418-.23611-.2119-.220582-.403165-.6024-.639367-.632325-.823798-.10442-1.662912-.08713-2.49633-.11604.039494-.25543.07886-.51086.11823-.76629.75291-.04659 1.50582-.09318 2.258606-.1399.21671.30505.477722.58838.641393.91944.407088.82336.983038 1.63952 1.10152 2.51136.187847 1.38093.06177 2.80492.057087 4.21073-.000633.18219-.069494.36439-.106835.54646-.180507-.17614-.496962-.33687-.519367-.53119-.132912-1.15013-.167216-2.31187-.310254-3.46036-.02924-.23472-.38-.42955-.582658-.64293l.50329-.71351c-.621518-.01528-1.243037-.03068-1.864556-.04596.024304.25682.04848.51351.07266.77033m-8.837457-9.75311c3.638987.12841 3.634304.12841 3.661013-3.46654.002405-.31591.117974-.63093.181012-.94634.217722.31175.597595.6101.62481.9375.113924 1.37627.186076 2.76604.082785 4.13649-.0119.15834-1.211392.30291-1.864177.32147-1.157595.03283-2.318355-.02879-3.47709-.06818-.253037-.00859-.503543-.0899-.755315-.13775.301266-.25909.602532-.51818.903797-.77715.21443.00025.428735.00038.643165.00051" fill="#CFCCCC"/>
      <path d="M21.63157 16.035303c.097595-.47437.15557-.96187.306708-1.41856.101393-.306314.33481-.56894.50924-.851137.032786.38409.03304.77462.107976 1.150253.064683.32411.21405.63131.326076.94595.17848-.31515.48329-.61907.512658-.9476.100506-1.12538.082658-2.26099.16848-3.38826.012786-.16806.339495-.31238.521013-.46768.07747.17967.21925.35846.2219.53939.01899 1.24028-.11924 2.4976.04013 3.7173.2057 1.575-.62506 1.6226-1.7543 1.46149-.31012-.04432-.62493-.05594-.93759-.08283-.00734-.21957-.01481-.43889-.02228-.65833m-4.91083 13.14876c-.58265-.00051-1.19468.10757-1.73734-.03952-.36354-.09849-.62848-.55897-.93759-.85745.20557-.30543.41089-.61111.61697-.91616.2214-.32778.44355-.65493.66519-.9822.27279.00189.56886-.06427.8138.01894.63468.21565 1.24684.49722 1.8681.7524-.42975.67462-.85937 1.34937-1.28911 2.02399" fill="#CFCCCC"/>
      <path d="M17.60176 29.16236c.571518.687627 1.143038 1.37538 1.714557 2.063006l-.129874.323106c-.541392.942046-1.08291 1.883965-1.624177 2.825884-.147975-.227525-.295823-.45505-.44367-.68245-.100507-.186363-.20114-.372727-.301647-.55909-.03937-.771212-.07861-1.542425-.11785-2.31351.30088-.5524.60177-1.104672.90266-1.656945" fill="#AE9143"/>
      <path d="M27.547987 22.11582c-.527595-.792423-1.05519-1.584722-1.58291-2.377146.592277-.131818 1.18443-.263762 1.77658-.39558-.14886.29217-.297847.584595-.446834.87702.36443-.002273.72886-.008334 1.09329-.005935.293798.00202.587343.01414.880887.02184.129367.31275.258608.6255.387722.93851-.580127.58762-2.140507-1.01048-2.108735.94129m7.83086 10.04237c-.326455.6548-.65291 1.30959-.97924 1.96439-.09215-.72084-.213037-1.43965-.26633-2.16326-.035062-.47803.02114-.96351.047217-1.44508.032658-.60366.076202-1.20669.115063-1.80998.255696.66351.56557 1.31288.746962 1.99609.10962.41275.02025.87815.02025 1.31982.10531.04596.21063.09204.31607.138" fill="#CFCCCC"/>
      <path d="M14.803228 34.47803c.260506-.44962.521012-.899242.781645-1.348232.046456.026136.092912.05164.139368.077273l.72886.52336.00102.00076c.08798.0793.17608.15859.26405.23801.04418.04167.08836.08346.13253.12513.1738.17336.34772.34659.52165.51983-.00164.08018-.00329.16048-.00506.24066-.12266.21149-.24557.42298-.36823.63435-.03354.07766-.06721.15518-.10076.23296-.12556.17626-.25113.35265-.37658.52904-.39873-.41944-.79747-.83901-1.19633-1.25846-.0805-.09268-.16114-.18535-.24177-.27803-.08861-.07386-.17734-.14785-.26607-.22172l-.0143-.0149z" fill="#AE9143"/>
      <path d="M31.378835 23.73048c-.75291.046717-1.505822.093308-2.258607.1399-.247975-.003032-.496076-.006188-.744177-.009218-.25569-.169192-.51151-.338258-.76721-.507197.00355-.035354.00329-.070707-.0005-.105935.05228-.20543.10469-.410985.15684-.616666.9981-.089394 1.99646-.178662 2.99469-.267803 0 0 .00215.00076.00228.00064.08266.08409.16519.16818.24772.2524.00861.11856.01734.23725.02583.35594.11621.21755.23254.43498.34887.6524.00139.03536-.0005.07058-.00569.10556" fill="#EDEDED"/>
      <path d="M15.593506 25.632866c.49886-.339394.997722-.678788 1.49671-1.018055.63734-.0005 1.274683-.00101 1.912024-.00164.154304.08902.30886.17803.463165.26717-.244684.24975-.489494.4995-.73405.74925-1.04595.00114-2.0919.00215-3.13785.00329" fill="#CFCCCC"/>
      <path d="M29.00195 24.636692c.83329.028914 1.67253.011616 2.49633.11591.236074.03005.427467.411868.639366.632448-.227595.08245-.452152.224243-.683418.235985-.646962.03308-1.296836.012374-1.94557.012753-.123797-.007702-.247595-.015404-.37152-.02298-.045062-.32462-.090125-.64937-.13519-.974116" fill="#EDEDED"/>
      <path d="M20.259747 21.090492l1.00671.320707c-.319242.19734-.622786.52449-.96076.56489-.71405.08535-1.446583.03106-2.170634.00581-.101012-.00354-.19633-.16642-.29443-.25556.342152-.21503.684177-.43031 1.02633-.64533.464303.00328.928607.00644 1.392784.00947" fill="#CFCCCC"/>
      <path d="M15.325443 34.99269c.398734.419444.797468.839014 1.196203 1.25846-.019747.07904-.039368.15808-.059114.23712-.23595.20884-.472026.41755-.708102.62639l-.04557.000757c-.04.010606-.079873.021338-.119746.031944-.09-.01085-.179874-.02184-.269874-.03282-.386835-.44848-.77367-.89697-1.16038-1.34545-.07443-.38876-.148733-.77752-.223037-1.16616.168734.04116.337468.08232.506202.12361.246076.38132.482532.7697.748988 1.13649.039493.05404.221265.00518.337215.00392l-.202785-.87424" fill="#CCB170"/>
      <path d="M14.158823 35.76914c.386835.448486.773544.89697 1.16038 1.34533-.039747.017298-.079494.034722-.119368.051894-.3381-.001137-.676202-.002526-1.014303-.003915-.164557-.01604-.32924-.0322-.493924-.04824-.541013-.82816-1.082026-1.65644-1.62266-2.48447.27342.03889.54671.07765.820254.11641.423292.34103.846456.68194 1.26962 1.02298" fill="#E9D4AD"/>
      <path d="M13.68062 30.43664c-.008354 1.12942-.01671 2.258966-.02519 3.38826-.284303.087373-.568354.174873-.85253.2625-.004685-.12096-.009368-.242047-.013925-.363132-.00152-.509723-.002912-1.019445-.00443-1.52904-.00595-.251137-.012026-.50202-.01785-.752905.013292-.081187.026457-.16212.039495-.243308.29152-.254167.58291-.508207.87443-.762374" fill="#EDEDED"/>
      <path d="M15.593506 25.632803c1.04595-.00101 2.0919-.002146 3.137848-.003156-.24076.5101-.481392 1.020202-.721772 1.53043-.620886-.255178-1.233164-.536744-1.867848-.7524-.244936-.083207-.541012-.017046-.813797-.01894.088607-.25202.177088-.503914.26557-.755934" fill="#D3B898"/>
      <path d="M16.856114 23.734545c.25329-.292424.455443-.73043.772658-.84154.4181-.146465.92886-.06553 1.395317-.027146.37202.03042.73721.14343 1.10531.21982-.37684.26275-.7538.52563-1.13064.78851-.71418-.04659-1.42836-.09306-2.14266-.13965m2.26253-4.2835c.78-.02462 1.56177-.0894 2.3386-.05063.24683.01224.48.29987.71936.46149-.46519.12777-.93038.25543-1.3957.38295-.08747.03106-.17481.06237-.26216.09381-.08608-.00051-.17228-.00089-.25836-.00126-.38051-.29546-.76114-.59091-1.14177-.88637m11.64119 2.91249c-.99823.08926-1.99659.17853-2.99469.26793-.01937-.15745-.03886-.31516-.05849-.47298.39038-.01983.81405.04886 1.16253-.0817.41431-.15531.76405-.48195 1.14165-.73422.24975.34028.49937.68069.74899 1.02096" fill="#CFCCCC"/>
      <path d="M30.0109 21.342525c-.377723.2524-.72747.578914-1.141773.734217-.34848.130682-.772152.061995-1.162405.08182-.05266-.01389-.105443-.028158-.158482-.042552-.032025-1.951894 1.528355-.353914 2.10848-.94154.118103.055934.236078.111995.35418.168055" fill="#EDEDED"/>
      <path d="M9.383494 33.334015c.131012-.114646.261898-.22942.39291-.344192-.185948-.164394-.364682-.33813-.56-.490783-.19734-.154166-.411138-.2875-.61772-.429798l.350506-.68447c.298607.323233.597215.64634.895823.96932l.91734.858964c.010255.08712.020508.174495.03076.261616l.00709.02361c-.16405.28283-.328228.565784-.492406.848612.279747.09091.55962.181818.839368.272854-.05152.141035-.102912.281818-.15443.422727-.295697-.156945-.665697-.25-.869874-.48586-.30734-.355176-.49873-.8101-.73936-1.2226" fill="#BFA159"/>
      <path d="M11.90852 34.088763c-.227976.0774-.577723.28447-.66038.207197-.212532-.198864-.306836-.523485-.448102-.797854.000127.000126-.006962-.02336-.00709-.02336.076584-.171968.153292-.343812.230128-.515655l-.002278.00303c.08519-.12664.17038-.2534.255443-.38005l-.00063.00089.13177-.26932c.00798-.02487.01304-.05038.01469-.07651.03709-.05126.07431-.10252.1114-.15378l.00899.00379c.12127.08511.24266.17033.36405.25543.00064.58195.0014 1.16415.00203 1.74622" fill="#CFCCCC"/>
      <path d="M16.856114 23.734545c.714304.04659 1.42848.093056 2.142658.139647.00114.246465.00228.492803.003418.73914-.637342.00038-1.274684.00101-1.912025.00139-.078102-.293434-.156076-.58687-.23405-.880177m2.26253-4.283497c.380634.295454.761266.59091 1.141773.886364-.000127.25101-.00038.502146-.000633.753156-.464304-.003156-.928608-.006187-1.392912-.00947-.037594-.29053-.07519-.580808-.11291-.871212-.045317-.045328-.090634-.090656-.135824-.13611l.5005-.622728" fill="#D3B898"/>
      <path d="M29.269025 20.23606c-.293544-.0077-.587215-.01995-.880886-.021843-.36443-.0024-.72887.003535-1.0933.005934.14898-.29242.29785-.58484.44683-.87714.00012.00013.00683-.00606.00671-.00618.28785.00228.57569.00442.86367.00669.07772.00771.15557.01553.23342.02298.14392.28725.28772.57475.43152.86212l-.00798.00745zm1.102025 7.0588c-.024177-.256817-.048354-.51351-.072658-.770327.62152.015278 1.243038.030682 1.864557.04596l-.5033.71351c-.4295.00366-.85899.007197-1.28861.010858" fill="#EDEDED"/>
      <path d="M26.84362 17.575846c.124177-.621086.189367-.947096.254557-1.273106.25443.631818.51481 1.261616.746836 1.901515.01253.034596-.304178.234217-.313165.223737-.275443-.317298-.531392-.651388-.688228-.852146" fill="#CFCCCC"/>
      <path d="M16.850734 34.094306c-.044177-.041667-.088354-.08346-.13253-.125127-.088103-.07942-.176077-.15872-.264052-.23801l-.001013-.00076c-.24292-.17462-.48583-.34899-.72887-.52336-.04646-.02551-.09291-.05114-.13937-.07727.1538-.34659.30759-.69268.46177-1.03876.25696.34722.51354.69457.77025 1.04179.1005.18636.20114.37272.30152.55909-.08924.13434-.17848.26831-.26773.4024" fill="#E9D4AD"/>
      <path d="M11.90852 34.088763l-.002026-1.74634c.286708-.300125.573417-.600125.86-.900125.006076.250884.012152.501894.0181.752904-.230632.320076-.518733.618813-.652278.975252-.033924.090278.42443.364142.656583.553788.00468.121086.00924.242172.01392.363132-.29798.00038-.59621.000884-.89431.00139" fill="#D3B898"/>
      <path d="M14.572127 31.188914c-.072532-.828535-.112785-1.624747 1.137088-1.134848-.006202.244444-.012405.488762-.018734.733207-.07873.048863-.15759.0976-.23632.146464-.29392.0851-.58797.170076-.88202.255177" fill="#EDEDED"/>
      <path d="M14.572127 31.188914c.29405-.0851.5881-.170076.882025-.255177-.001646.213005-.00329.426137-.004937.639142-.062152.00934-.161772-.00253-.18076.03106-.224176.39633-.436075.79936-.651392 1.20075-.014936-.53864-.029873-1.07715-.044936-1.61579" fill="#CFCCCC"/>
      <path d="M16.816924 33.13279c-.25671-.347222-.51329-.69457-.770253-1.041792.21735-.42399.43507-.84798.65254-1.271844.03912.771212.07836 1.54255.11772 2.313636" fill="#BFA159"/>
      <path d="M15.325443 34.99269l.202785.874242c-.11595.001262-.297722.050126-.337215-.003914-.266456-.366793-.502912-.755177-.748988-1.13649.120507-.082955.241013-.165783.361393-.24861-.000127.000125.01405.015024.01405.014898.088734.073737.17747.147853.266203.221843.08064.09267.16114.18535.24178.27803" fill="#D3B898"/>
      <path d="M20.876835 13.143283c.214937.191793.429874.38346.644684.574874-.16406.277904-.32823.556186-.49228.834722-.20684-.44609-.41367-.89218-.62051-1.33851.15607-.02374.31202-.04735.4681-.07109" fill="#BFA159"/>
      <path d="M35.772494 33.539192c.107215-.435985.190253-.773232.273164-1.110606.207342.367677.464684.71957.58924 1.113257.034178.107955-.329746.341162-.510885.516793-.124684-.184217-.249367-.36856-.35152-.519444" fill="#CFCCCC"/>
      <path d="M21.63157 16.035303c.007468.219445.014936.438763.022278.658333-.040126.282955-.080253.565657-.120253.848233-.21443-.00026-.428734-.00038-.643165-.00064.24709-.50202.49405-1.00404.74114-1.50594" fill="#D3B898"/>
      <path d="M14.158823 35.76914c-.423165-.341034-.84633-.681943-1.26962-1.022978.348734-.047728.697594-.095455 1.046582-.143182.07443.388636.148734.7774.223038 1.16616" fill="#BFA159"/>
      <path d="M29.00195 24.636692c.045063.324747.090126.649495.13519.974116-.094684.03889-.189494.078157-.28443.117045-.02595-.07058-.051647-.140782-.077596-.210984-.147595-.12778-.294937-.25531-.44228-.38296-.03405-.07513-.068226-.15025-.102277-.22563.04848-.34925.096962-.69824.14557-1.04723.247974.00315.496075.00631.744177.00934-.039494.25543-.07886.51086-.118355.76629" fill="#D3B898"/>
      <path d="M15.690544 30.78731c.006203-.244444.012405-.488888.018735-.733333.20898-.04293.41784-.085858.62683-.128788.06076.163.19962.45088.16987.46944-.25443.15858-.5395.26831-.81545.39267" fill="#CFCCCC"/>
      <path d="M20.00243 16.55404c-.24329-.148484-.49405-.2875-.717595-.461363-.02038-.015783.133418-.254546.206456-.389773.21633.157197.43266.314394.64912.47159-.04595.126516-.09202.25303-.13797.379546" fill="#BFA159"/>
      <path d="M30.829177 28.571856c.132912-.145202.247215-.365657.3519-.361237.141012.0058.402784.20732.389113.28611-.055317.31755-.196582.6202-.306076.92828-.135063-.2649-.270127-.5298-.434937-.85316" fill="#CFCCCC"/>
      <path d="M34.049177 34.619823c-.303038-.242803-.60595-.485732-.908987-.72841.30291.243057.60595.485734.908987.72841" fill="#AE9143"/>
      <path d="M29.277063 20.228662c-.143797-.2875-.287595-.575-.431645-.862248.267848.244823.535696.489268.80367.73384-.12405.042802-.2481.085605-.372025.128408" fill="#CFCCCC"/>
      <path d="M20.010165 37.264432l1.898354.23712c.01417.969698.03025 1.93927.04 2.909092.00101.11313-.00368.304672-.05709.325-.13684.051768-.32646.08144-.45304.025505-1.54241-.68018-3.03975-1.49394-4.63494-2.00556-.53785-.1726-1.31886.40947-1.98874.64672-.08405-.0274-.16798-.0548-.2519-.08207-.29912-.3298-.59823-.6596-.89747-.9894.13177.02096.26329.04179.39493.0625 1.09519-.21023 2.19013-.4221 3.28582-.63031.88759-.16856 1.77595-.33258 2.66405-.49861" fill="#026F91"/>
      <path d="M28.612506 37.068258c.715443-.186743 1.430886-.373485 2.14633-.5601-1.68671 1.184594-3.394178 2.341034-5.045317 3.5726-.42583.317676-.67456.871464-1.00469 1.316792-.08785.037374-.1757.074748-.26342.111995-.12355.002652-.24709.005556-.37051.008334.59658-.79836 1.10481-1.68776 1.81291-2.37122.8162-.78776 1.80873-1.39356 2.72468-2.07841" fill="#004D68"/>
      <path d="M28.612506 37.068258c-.91595.684848-1.90848 1.290656-2.724683 2.07841-.708102.683458-1.21633 1.572852-1.812912 2.371085-.00253-.523738-.22506-1.23586.03342-1.53649.81165-.944066 1.80431-1.73346 2.72696-2.58283.59241-.1101 1.18481-.220074 1.77722-.330175" fill="#026F91"/>
      <path d="M17.119418 42.160316c.29519-.168813.590253-.3375.885316-.506187.288988.08712.577975.17424.866962.26149-1.957468 1.79785-3.419747 1.73497-5.065063-.21819-.008608-.06023-.01709-.1202-.025696-.18031.039873-.00985.08-.01162.120633-.00467 1.072784.21603 2.145316.43194 3.217848.64785" fill="#004D68"/>
      <path d="M20.51495 41.369078c-.63228-.252904-1.35747-.543055-2.08266-.833207.045697-.02891.100634-.09166.135824-.08207.8681.23536 1.734177.47854 2.600633.72021-.16924.05051-.338355.10101-.653798.19508m-3.39554.79124c-1.07253-.21591-2.14507-.43182-3.21785-.64785.52063-.03169 1.04139-.06313 1.56215-.09457l1.65569.74243z" fill="#026F91"/>
      <path d="M21.358253 8.839066c-.25291.465404-.505696.93068-.75848 1.39596-.95823.295706-1.91633.591666-2.874684.8875 1.21101-.761112 2.42215-1.52235 3.63316-2.28346" fill="#004D68"/>
      <path d="M9.71738 30.03837l.412405-.74356c.283797.302905.567342.60581.851392.908587.21443.49356.428608.98712.642785 1.48068-.03.000885-.059367.005683-.0881.014648-.508102-.421844-1.016077-.843687-1.524178-1.26553-.098102-.131566-.196203-.263258-.294304-.394824" fill="#E9D4AD"/>
      <path d="M10.980848 30.20341c-.28367-.30278-.567342-.605683-.851013-.908587.006076-.083838.012152-.16755.018102-.251515.114304-.136616.228607-.27336.342784-.409975.26393.346086.52785.692172.79165 1.038384-.1005.177273-.20101.35442-.30152.531692" fill="#D3B898"/>
      <path d="M9.71738 30.03837c.0981.131567.196202.26326.294303.394824-.04367.253283-.08734.50644-.131012.759723-.20594-.125505-.41189-.250884-.61784-.376137.07836-.171086.15671-.342298.23519-.51351.07317-.088384.1462-.17664.21937-.2649" fill="#CCB170"/>
      <path d="M11.282468 29.671603l-.791772-1.038257c.009747-.07235.019494-.144823.029367-.217172.12266-.169823.245443-.33952.368102-.509343.301645.4274.60329.85468.904936 1.28195-.04936.24445-.0986.48889-.14797.73334-.12088-.08346-.24177-.16704-.36266-.2505" fill="#E9D4AD"/>
      <path d="M12.1531 37.122513c-.087467.012752-.174935.025378-.262657.03813-.16367-.012625-.327215-.025125-.49076-.037752-.147974-.45353-.295822-.90707-.443797-1.36047.399114.45328.798228.90669 1.197215 1.3601m-2.89025-6.30574c.20595.12526.4119.25064.61785.37614.00304.08371.00595.16743.00899.25114.08241.212.16469.42412.24696.63624-.09721.09117-.1943.18258-.29152.27387-.29873-.3231-.59734-.64608-.89595-.96932.10456-.18939.20912-.37879.31367-.56805" fill="#D3B898"/>
      <path d="M28.37609 23.86111c-.048482.34899-.09709.69798-.14557 1.047097-.207216-.51793-.41443-1.035985-.621773-1.554293.255823.169066.51152.33813.767342.507197" fill="#B0A09E"/>
      <path d="M27.48395 27.403308c.206455-.000126.413037-.00038.619493-.000505.062658.306945.125443.61389.188228.92096-.26924-.30682-.53848-.613637-.80772-.920455" fill="#D3B898"/>
      <path d="M20.3001 13.70856c-.133037.111238-.213417.17841-.293543.245455-.152658-.18611-.317468-.364394-.447722-.565025-.025822-.039647.081266-.1649.12709-.250758.189746.176137.379493.3524.614176.57033" fill="#BFA159"/>
      <path d="M11.53595 31.698775c.028733-.008964.057974-.013762.088354-.014646.136835-.28738.273544-.57475.410126-.86213.171772-.33334.343545-.6668.515443-1.00013.289114-.40177.578355-.80354.86747-1.20543.045695.43207.091265.86401.13696 1.29621-.126328.00972-.25253.01919-.37886.02879-.136076.33283-.272152.66565-.408228.99861.013038.08636.026076.1726.039114.25896-.01317.08118-.02633.16212-.03962.24331-.28684.3-.57355.6-.86026.90012-.12127-.08498-.24266-.1702-.36418-.25531-.00215-.12955-.00418-.2591-.00633-.38839" fill="#B0A09E"/>
      <path d="M13.41738 28.61649c-.28924.401768-.578355.803535-.867722 1.205303-.178354-.208207-.356582-.416414-.534937-.624495-.09417-1.257323.4738-1.3375 1.39887-.782702.00152.052146.00304.10442.00456.156566l-.00076.045328z" fill="#E9D4AD"/>
      <path d="M12.01471 29.197247c.178353.20808.35658.416288.534936.624495-.171646.33346-.343418.66692-.51519 1.000253-.129747-.3-.259494-.6-.38924-.899874.04924-.24444.09848-.48888.147974-.73333.073797.00291.14772.00568.22152.00846" fill="#AE9143"/>
      <path d="M13.175456 29.94139c.12633-.00947.25253-.019067.37886-.02879.042152.174622.084178.34937.12633.52399-.29152.254168-.583038.508334-.87443.762375-.01304-.086238-.02595-.1726-.038735-.25884.13608-.332953.27203-.665782.40798-.998736" fill="#CFCCCC"/>
      <path d="M17.562203 34.37433c-.063418.08005-.126836.159976-.19.2399-.173798-.17336-.347722-.34659-.52152-.51995.08924-.133964.178482-.268055.26785-.402272.147973.227272.29582.454798.44367.682323m-1.837975-1.16731c.243038.17437.48595.34887.728987.52349-.243038-.17449-.486076-.34899-.728987-.52348" fill="#D3B898"/>
      <path d="M18.74372 36.993662l1.01266.131692.253797.13914c-.8881.166036-1.776455.330052-2.66405.498612-1.095697.20808-2.190633.420076-3.285823.630303.379747-.40897.75962-.81806 1.139494-1.22702.039873-.0173.07962-.0346.119493-.0519l.26975.03295c.03988-.01061.07988-.02134.11975-.03207 0 0 .0457-.00076.04583-.00076.99646-.04028 1.99279-.08068 2.98912-.12096" fill="#004D68"/>
      <path d="M18.74372 36.993662c-.996328.040277-1.992657.08068-2.989112.12096.23595-.208713.471898-.41755.707974-.62639.76038.168435 1.52076.33687 2.28114.50543m-3.543874.172752c-.379873.408965-.759747.818056-1.139494 1.22702-.131645-.020707-.26329-.04154-.394936-.0625 0-.000252.013038-.00164.013038-.001767-.061013-.020076-.122152-.040152-.183165-.060228 0 0-.00708.00479-.00734.00492-.10949-.04306-.2186-.08624-.32785-.12942-.17835-.16692-.35683-.33384-.53519-.50076.38874-.08573.78051-.1601 1.16444-.26313.14152-.03788.26469-.14331.3962-.21806.3381.00126.67621.00265 1.01431.00391" fill="#092F3D"/>
      <path d="M12.78891 33.724268c-.23215-.189647-.690505-.46351-.65658-.553915.133543-.356313.421645-.65505.652278-.975126.001392.509596.00291 1.019318.004303 1.52904" fill="#CFCCCC"/>
      <path d="M9.845076 32.35413c.097215-.09129.19443-.182577.291645-.273865.21114.16591.42228.331692.63355.4976.08076.047223.16152.094446.24228.141542.00279.080934.00545.161868.00823.242676l.00228-.00303c-.08683.084596-.1738.169318-.26063.25404l-.91734-.858964z" fill="#E9D4AD"/>
      <path d="M11.012494 32.719356c-.08076-.047096-.16152-.094318-.24228-.141414-.293543-.377904-.587087-.755934-.880632-1.133965-.00291-.083712-.005823-.167424-.00886-.251136.043544-.25328.08734-.50644.131012-.75959.507975.42172 1.016076.84356 1.524177 1.26553.00216.1293.00418.25884.00646.38839.00013 0-.00886-.00379-.00886-.00379-.03721.05127-.0743.1024-.11152.15379-.00164.02614-.00658.05164-.01468.07664-.04392.0899-.08785.17955-.13177.2692l.00076-.00088c-.08785.04571-.17582.09154-.2638.13725" fill="#BFA159"/>
      <path d="M11.645165 29.922096c.129746.299874.259493.599874.389367.899874-.13671.287373-.273292.574873-.410253.86212-.21444-.49356-.42861-.98712-.64317-1.48068.10025-.177274.20076-.35442.30126-.531693.12101.083333.24189.16692.36278.25038m-1.75553 1.52193c.29354.377905.58709.755935.88063 1.13384-.21127-.16591-.42241-.331693-.63355-.4976-.08241-.212123-.16469-.424118-.24709-.63624" fill="#CCB170"/>
      <rect stroke="#CCB170" stroke-width="2" x="1" y="1" width="46" height="46" rx="8"/>
    </g>
  </g>
</svg>
