<svg width="80" height="80" viewBox="0 0 80 80" xmlns="http://www.w3.org/2000/svg" xmlns:xlink="http://www.w3.org/1999/xlink">
  <title>
    eac-earthcoin
  </title>
  <defs>
    <path id="a" d="M0 .12564h21.71848v42.525015H0z"/>
    <path id="c" d="M.213976.157774H42.43794v14.919015H.213976z"/>
  </defs>
  <g fill="none" fill-rule="evenodd">
    <circle fill="#FFF" cx="40" cy="40" r="40"/>
    <path d="M43.799024 36.190895c3.183242 0 6.366484.005138 9.549981-.003082.978279-.002312 1.154287-.310569.70429-1.19655-2.098285-4.128074-5.609752-6.085505-10.074681-6.17413-3.176335-.063192-6.024957 1.19578-8.317924 3.43167-.849598.828698-1.457185 1.930203-2.075005 2.96723-.391413.656844-.17345.930422.582516.970239.215406.011302.431578.005137.647495.005137 2.994443.000257 5.988885.000257 8.983328-.000514m4.652962 8.191156c-4.534259 0-9.068262 0-13.602265.000257-.216173 0-.432601-.008734-.64775.00668-.629588.044183-.801248.262531-.5774.824073.578167 1.451119 1.420857 2.738348 2.542654 3.822642 4.13696 3.998092 11.03454 3.479706 14.893418.586202 1.31827-.98822 1.312898-.976661 2.812038-.101211 1.770315 1.03343 3.552143 2.047339 5.329621 3.06844.771827.443376.809434.662752.242523 1.366862-1.80741 2.244881-4.184288 3.720147-6.713128 4.978606-2.593819 1.290826-5.35418 2.035523-8.240152 2.103596-3.409137.07989-6.712105-.515303-9.78918-2.09332-2.505558-1.284661-4.647333-3.02323-6.500792-5.14378-.524187-.59956-.585585-1.140808-.206963-1.831303 1.125634-2.053505 1.969604-4.224661 2.30755-6.549432.360459-2.480954.295735-4.934422-.481465-7.37299-.747523-2.345835-2.153286-4.286312-3.484604-6.282019-.395251-.592367-.545421-1.069394-.135588-1.752697 2.168892-3.615083 5.045143-6.476477 8.819854-8.353505 2.640635-1.313688 5.457535-1.94844 8.422301-2.007009 2.678498-.05266 5.259781.334202 7.754851 1.3029 2.162497.839742 4.082215 2.07688 5.777061 3.655669 2.174777 2.026018 3.95865 4.340257 5.208872 7.068073 1.744477 3.806973 1.902066 7.785542 1.41088 11.85145-.089795.745468-.575353.860807-1.216197.859009-4.642217-.013871-9.284178-.00745-13.92614-.007193" fill="#35B82F"/>
    <g transform="translate(7 19.548697)">
      <mask id="b" fill="#fff">
        <use xlink:href="#a"/>
      </mask>
      <path d="M4.121253 28.112796c.680753.518386 1.388112 1.004918 2.037398 1.560294 3.173265 2.714716 5.389485 6.164367 7.389276 9.77611.379901.685872.756221 1.374312 1.111563 2.073284.450254.884954.331295 1.122055-.63982 1.127964-1.725802.010275-3.366414-.360404-4.880391-1.232514-2.226453-1.282862-3.686963-3.21666-4.634287-5.55967-.769268-1.902202-1.448742-3.84088-2.203684-5.749247C1.90273 29.10153 1.4842 28.09764.28412 27.731327c-.425182-.129981-.369412-.466238.141472-.718238 1.124355-.555376 2.30755-.907046 3.5744-.909615.51242-.001027 1.02535.017725 1.53777.011046.417507-.005651.547211-.213725.48172-.638092-.299317-1.946642-.695335-3.889688-.818132-5.848917-.095679-1.525101.042467-3.09079.284479-4.605101.51293-3.20844 1.639588-6.21266 3.352087-8.985174 1.300875-2.105909 2.822527-4.025578 4.673428-5.672698.073678-.065761.171403-.104293.3996-.238899-.053468.322643-.051933.524808-.121006.698973-.709661 1.781725-.557445 3.565248.323876 5.184624 1.379925 2.534385 2.830713 5.041798 4.429626 7.441064 2.962975 4.445321 3.85811 9.237174 2.660333 14.406899-.551305 2.380257-1.521652 4.620514-2.868832 6.674789-.521629.795303-.665914.785541-1.10619-.061395-1.897718-3.649761-3.595378-7.393284-4.860182-11.310458-1.360738-4.213101-2.26585-8.519193-2.048398-12.992.031467-.648367.110517-1.294165.152217-1.941762.019954-.306972.003325-.616257.003325-.92477-.087492-.010019-.175496-.020037-.263245-.030055-.179334.652477-.400367 1.296734-.53135 1.958972-.800223 4.04433-.275013 8.013138.662845 11.968844 1.145333 4.829872 3.171985 9.299853 5.427858 13.680954.170892.332147.276804.576698.059864.961505-.13303.236073-.000768.621908.008954.940697.036583 1.211963.085957 2.423927.095423 3.63589.001535.237615-.153752.476514-.236895.714642l-.204405.022349c-.487092-.88855-.970348-1.7789-1.4623-2.66488-1.662358-2.992918-3.542678-5.824515-6.069727-8.16778-1.105935-1.025726-2.337737-1.855193-3.745803-2.386423-.031722.058826-.0637.117652-.095679.176477" fill="#35B82F" mask="url(#b)"/>
    </g>
    <g transform="translate(21.582077 12.099156)">
      <mask id="d" fill="#fff">
        <use xlink:href="#c"/>
      </mask>
      <path d="M42.295648 12.170367c-.438485-.409725-.88004-.815596-1.31469-1.229431-2.930485-2.79101-6.353948-4.748954-10.212058-5.888734-3.852994-1.138496-7.77148-1.357101-11.756736-.668404-3.82076.660954-7.290527 2.115156-10.443582 4.337688-2.289386 1.613725-4.254896 3.574496-5.8556 5.889505-.430298.622422-.710684.642202-.999767-.068844-.517792-1.273358-1.041979-2.562385-1.362273-3.894055-.377087-1.565945.060887-3.088734.868017-4.442239.29906-.501431.891042-.85567 1.403461-1.194752C6.613305 2.370367 11.014534.77231 15.747058.31198c4.351598-.423082 8.64845.010276 12.835553 1.475267 4.748641 1.661504 8.76869 4.360036 12.133312 8.075302.620378.684588 1.150194 1.451633 1.72222 2.180661l-.142495.127156z" fill="#008AC4" mask="url(#d)"/>
    </g>
    <path d="M61.04916 59.51939c-.8102.731597-1.582027 1.512771-2.43802 2.185285-3.004931 2.36022-6.350623 4.102386-10.028632 5.096514-1.83504.496037-3.748617.834606-5.64352.941468-2.792851.157725-5.601053.196257-8.379066-.409211-3.70001-.806606-7.157242-2.156257-10.310552-4.278606-.533397-.359119-.633681-.744183-.516769-1.368917.193149-1.03112.365831-2.093578.324132-3.133688-.045026-1.126165.710428-1.700808 1.292688-2.413652.065492-.08066.409066-.025945.552584.07167.264012.179303.486837.426422.706335.664294 2.500443 2.709835 5.509723 4.68833 8.910417 6.028734 4.216779 1.662275 8.590379 2.205064 13.0988 1.552844 4.216266-.609835 8.047515-2.154973 11.505514-4.645945.23843-.171853.482488-.335486.723476-.502716.067794.070642.135076.141285.202614.211927" fill="#008AC4"/>
  </g>
</svg>
