<svg width="80" height="80" xmlns="http://www.w3.org/2000/svg" xmlns:xlink="http://www.w3.org/1999/xlink">
  <defs>
    <path id="a" d="M0 .000424h64.963161v35.919529H0z"/>
  </defs>
  <g fill="none" fill-rule="evenodd">
    <circle fill="#FFF" cx="40" cy="40" r="40"/>
    <g transform="translate(7 22)">
      <mask id="b" fill="#fff">
        <use xlink:href="#a"/>
      </mask>
      <path d="M46.577052 1.6704c.915484-.050824 1.716.249882 2.424967.802588.302323.237177.576968.54.434323.950824-.144774.421412-.57058.415059-.962323.465882-.860129-.101647-1.688322-.326118-2.348322-.965647-.24058-.230823-.402387-.504-.304452-.823765.104323-.343058.432194-.410823.755807-.429882m5.099032 5.66047c-.185226.552706-.715355.588706-1.16671.573883-.892064-.02753-1.707484-.31553-2.358967-.967765-.349162-.349412-.61529-.741176-.391742-1.238823.210774-.465883.683419-.470118 1.192258-.49553.83458.05506 1.62871.355765 2.28871.98047.332128.313413.594.67553.43645 1.147766m1.371098-4.574118c.127742-.254118.410903-.262588.662129-.247765.809032.046588 1.500967.370588 2.084322.92753.217161.20753.359807.457411.264.749647-.112838.349411-.43858.281647-.85587.283764-.674904-.05294-1.349807-.415058-1.926775-.961411-.202258-.192706-.376839-.45953-.227806-.751765m5.407742 4.09553c.210774.252.447096.546352.244838.919058-.187355.343059-.534387.249883-.843097.27953-.915483-.076236-1.641483-.512471-2.231225-1.200706-.225678-.26047-.28742-.561177-.163936-.864.127742-.319765.474774-.304941.730258-.285883.906968.067765 1.679807.453177 2.263162 1.152m3.425612 4.464c.334258.751765.029807 1.249412-.792 1.185883-1.202903-.09106-2.116258-.70306-2.667677-1.764-.355548-.688236-.027677-1.14353.753677-1.156236.943162-.012705 2.322775.870353 2.706 1.734353m-7.438838 1.12447c-.229936.504-.732387.628942-1.25613.63106-1.09858.006353-1.994903-.446824-2.684709-1.262118-.355548-.42353-.655742-.933882-.340645-1.526823.30871-.580236.864387-.63953 1.537161-.628942.958065.057177 1.796903.535765 2.46542 1.321412.366193.427765.517354.948706.278903 1.465412m-12.046065-7.80353c.934645 1.749177 1.856516 3.506824 2.808194 5.245412 2.018322 3.682588 5.179935 5.58847 9.35071 5.857412 1.115612.069882 6.169935.304941 7.56871.27953 2.584644-.044471 3.564-1.787295 2.273806-4.021412-.138388-.241412-.302323-.470118-.46413-.698824-.94529-1.346823-1.924645-2.67247-2.838-4.04047-1.698967-2.54753-4.064322-4.26706-6.855483-5.404236C51.17576.60946 47.869374.433695 44.637503.037695c-2.625097-.321883-3.725806 1.44847-2.629355 3.858352.114968.252.255484.49553.387484.741177m-.132 13.415294c-.766451-.133412-1.311484-1.118118-1.18587-2.15153.023419-.184235.061741-.366353.10645-.544235.257614-1.037647.962323-1.675059 1.754323-1.590353.77284.082588 1.264646.878823 1.224194 2.196-.017032.074118-.059613.349412-.140516.609882-.310839.99106-1.047484 1.60306-1.75858 1.480236m-3.493743-8.032236c-.608903.54-1.29658.33247-1.47329-.455294-.166064-.74753-.057484-1.482353.355548-2.138823.283162-.45106.623807-.90847 1.249742-.762353.655742.154588.632323.753882.708968 1.219764-.040452.840706-.21929 1.586118-.840968 2.136706m-.159677 6.088236c-.193742.715764-.515226 1.478117-1.379613 1.30447-.634452-.127059-.789871-.643764-.830323-1.194353-.012774-.184235.042581-1.048235.13413-1.270588.24271-.60353.474774-1.30447 1.315741-1.175294.636581.09953.757936.559059.83671 1.046118.027677.165176-.004258 1.02494-.076645 1.289647m-1.95658 8.637882c-.645097-.019059-1.141162-.925412-1.10071-2.009647.040451-1.063059.555677-1.865647 1.18587-1.855059.634452.010588 1.096452.815294 1.092194 1.901647-.004258 1.08-.545032 1.984236-1.177355 1.963059M34.1286 16.656988c-.172452.24353-.410903.36847-.719613.319765-.347032-.057176-.28529-.35153-.317226-.578118-.061742-.425647-.10858-.853411-.161806-1.281176 0-.281647.002129-.550588.168193-.80047.208645-.319765.41729-.635295.858-.580236.41729.050823.519484.406588.600388.732706.189483.789882.038322 1.522588-.427936 2.18753m-2.938064 7.530352c-.327872.319765-.713226.533647-1.173097.372706-.468387-.165176-.606775-.582353-.642968-1.037647-.074516-.904235.187355-1.708941.766452-2.401412.347032-.419294.777096-.78353 1.360451-.571765.585484.211765.63658.777177.694065 1.321412-.080903.874589-.349162 1.679294-1.004904 2.316706M27.90544 17.57393c-.57271-.364235-.61529-.955058-.604646-1.558588.031936-.972.355549-1.821176 1.14542-2.422588.72387-.54847 1.445613-.302824 1.754323.550588.378967 1.041882-.15329 2.697883-1.07729 3.318353-.37684.254118-.798388.381177-1.217807.112235m-2.895484 12.587294c-.892065.408706-1.58613-.118588-1.609549-1.365882.11284-.942353.44071-1.922823 1.43284-2.534823.76858-.474353 1.392386-.216 1.65.645882.315096 1.054588-.472646 2.793176-1.473291 3.254823M22.970342 23.0904c-.911226.654353-1.816065.290118-2.02258-.804706-.22355-1.190117.17458-2.20447 1.051741-3.011294.41729-.383294.932516-.633177 1.530774-.33247.668516.336705.696194.963529.732387 1.611529-.051096 1.022823-.427935 1.91647-1.292322 2.536941M44.3586 11.45393c-1.041097-2.373883-2.361097-4.637648-3.668323-6.888706-1.38387-2.380236-3.549096-2.301883-4.890387.099529-.074516.13553-.134129.277412-.204387.417176-1.026193 2.083765-2.054516 4.16753-3.104129 6.297883-1.151806-1.929177-2.403677-2.200236-4.194193-.952941-.255484.177882-.491807.381176-.726.586588-1.709613 1.495059-3.436258 2.971059-5.118194 4.497882-2.61658 2.376-3.751355 5.374588-3.378774 8.84753.183097 1.711058.706839 3.390352 1.096452 5.080235.28316 1.23247.421548 2.509412.962322 3.674117.753677 1.62 2.205678 2.032942 3.685355 1.031295.408774-.275295.781355-.62047 1.115613-.982589 1.283806-1.395529 2.535677-2.820705 3.819484-4.216235 1.066645-1.158353 1.867161-2.47553 2.435613-3.93247.317225-.808942.57271-1.63906.911225-2.61953.613162 1.55647 1.119871 2.983765 1.730904 4.360235 1.07729 2.422589 3.14458 2.64706 4.77116.554824.11284-.146118.219291-.300706.321485-.457412 1.273161-1.948235 2.601677-3.866823 3.80458-5.857412 1.837355-3.051529 2.041742-6.314823.630194-9.54M5.324923 10.134635c.853742-.491294 1.773483-.775059 2.767742-.514588.81116.211765 1.002774.85553.427935 1.46753-.696194.743294-1.60529 1.022823-2.571871 1.056705-.594-.019058-1.241226.023294-1.456258-.62047-.229936-.694589.310839-1.090588.832452-1.389177m8.40116-1.80847c.760065-.474353 1.601033-.673412 2.495227-.578118.43858.046588.892064.137647 1.021935.652235.123484.493412-.183097.832236-.528 1.10753-.706838.554823-1.532903.80047-2.471806.830117-.48542-.097411-1.16458.004236-1.337033-.694588-.163935-.652235.336387-1.018588.819678-1.317176m8.49271-1.70047c.847354-.499766 1.752193-.798354 2.746451-.563295.932516.222353 1.128387.874588.447097 1.541647-.717484.705177-1.624452.997412-2.701742.99953-.48542-.031765-1.134774-.012706-1.315742-.671295-.172451-.63953.33-1.01647.823936-1.306588m-18.884517 7.488c.323613.177882.679162.309177 1.032581.42353 2.305742.73694 4.590194 1.560705 6.93 2.172705 3.657678.95506 7.059871.264706 10.01071-2.115529 1.888451-1.52047 3.65342-3.189177 5.480129-4.785882.400258-.35153.757935-.736942 1.03258-1.190118.779226-1.289647.44284-2.488235-.883548-3.210353-.696193-.379059-1.458387-.518823-2.226968-.648-2.48458-.417176-4.922322-1.105412-6.808645-1.198588-2.186516-.006353-3.685355.24353-5.162903.641647C8.82931 5.257694 5.863568 7.892047 2.77647 10.261694c-1.54142 1.181647-1.16671 2.903294.557806 3.852m4.866968 14.17553c-1.188-.300706-2.424968-1.878353-2.433484-3.104471-.006387-.933882.513097-1.370118 1.424323-1.192235 1.268903.247764 2.584645 1.905882 2.535677 3.197647-.034064.885176-.642967 1.32353-1.526516 1.099058m9.59129-2.566588c-.949548-3.813882-3.359612-6.361411-7.047096-7.672235-2.165226-.768706-4.381549-1.39553-6.57658-2.081647-.564194-.177882-1.132646-.349412-1.735162-.317647-1.733032 0-2.659162 1.054588-2.386645 2.759294.076645.487059.225677.967765.391742 1.433647.579096 1.632706 1.20716 3.24847 1.764967 4.88753.447097 1.308705 1.122 2.475529 1.928904 3.587294 3.114774 4.29247 7.911483 5.80447 12.569806 7.547294.057484.021176.121355.025411.183097.033882 1.354064.160941 2.403677-.648 2.539935-1.999059.051097-.491294.02342-.986823-.091548-1.480235-.521613-2.229882-.987871-4.474588-1.54142-6.698118m43.591936-4.053176c-.344903.984706-1.698968 1.927059-2.75071 1.914353-.953806-.014824-1.411548-.616236-1.173096-1.535294.278903-1.084236 1.543548-2.077412 2.68258-2.109177 1.049613-.029647 1.590387.724236 1.241226 1.730118m-12.265355 6.630353c-.730258.929647-1.716 1.325647-2.876323 1.221882-1.041096-.091059-1.49671-.965647-.983612-1.884706.579096-1.03553 1.541419-1.482353 2.427096-1.558588.862259-.025412 1.415807.101647 1.701097.664941.283161.556941.097936 1.090588-.268258 1.55647m14.36884-10.401881c-.474774-.239294-.985742-.381176-1.522258-.40447-2.680452-.11647-5.360903-.340941-8.037097-.326118-3.87271.021177-6.970452 1.660235-9.154839 4.879059-1.236967 1.823294-2.429226 3.678353-3.612968 5.53553-.642967 1.012235-1.236967 2.094352-.545032 3.295058.691936 1.211294 1.928904 1.200706 3.05729 1.194353 1.226323-.08047 2.376-.17153 3.527807-.228706 2.942323-.15247 5.801613-.523059 8.475678-1.944 3.817354-2.030823 6.044322-5.556706 8.626838-8.758588.185226-.228706.261871-.561176.327871-.859765.238452-1.067294-.159677-1.88894-1.14329-2.382353" fill="#040404" mask="url(#b)"/>
    </g>
  </g>
</svg>
