<svg width="80" height="80" viewBox="0 0 80 80" xmlns="http://www.w3.org/2000/svg">
  <title>
    eca-electra
  </title>
  <defs>
    <linearGradient x1="50%" y1="0%" x2="50%" y2="100%" id="a">
      <stop stop-color="#FC00F4" offset="0%"/>
      <stop stop-color="#7A009D" offset="100%"/>
    </linearGradient>
  </defs>
  <g fill="none" fill-rule="evenodd">
    <circle fill="url(#a)" cx="40" cy="40" r="40"/>
    <g fill="#FFF">
      <path d="M24.755776 50.536465c.32812.373217.559887.626648.780661.889473 3.091073 3.676506 6.90925 6.023616 11.752016 6.527189.400855.041573.785105.246854 1.216363.388954.03204.557829.079984 1.020064.081153 1.482299.004444 1.76086-.007717 3.521722-.009822 5.282583-.000468.352079-.005145.70627.030403 1.05553.082323.81314.560589 1.32 1.216363 1.323758.739266.003993 1.274597-.508505 1.348734-1.320704.03204-.34973.02292-.703687.023387-1.055765.002806-1.917289-.012395-3.834812.009355-5.7521.012863-1.143843.117637-1.22605 1.215427-1.476427.910694-.207865 1.838694-.375096 2.71758-.6802 3.403057-1.181423 6.201791-3.219672 8.386146-6.104647.250476-.33047.575556-.603865.872572-.910612.300992.13294.522234.20622.719621.32131 1.953758 1.137971 3.89442 2.298726 5.861275 3.41321.424008.240277.928233.382142 1.412814.457537.493702.076804.931976-.142804 1.129363-.646142.198556-.506392.164177-1.009965-.226153-1.421467-.184057-.194007-.413952-.354896-.646653-.48995-.943904-.54773-1.90371-1.068448-2.845508-1.62017-1.341718-.785424-2.672912-1.589168-4.067484-2.420392.03508-.3859.072967-.725765.09612-1.06657.042097-.623124.118105-1.247658.104073-1.870078-.028766-1.294163-.749322-2.162733-2.029064-2.529373-1.289565-.36946-2.327484-.01057-3.028863 1.12059-.32742.527765-.555678 1.118242-.822057 1.683822-1.529282 3.246684-3.937451 5.48904-7.398975 6.521317-1.995154.595174-4.008081.513908-6.00838.062242-2.184822-.493473-4.047838-1.596448-5.604951-3.20605-.276903-.286313-.461428-.662583-.74488-1.080192.461194-.329295.786041-.601986 1.146436-.812904 4.272355-2.500719 8.54354-5.003551 12.82759-7.483601 4.992676-2.889908 9.999854-5.754449 14.996507-8.637545 1.215661-.701338 2.430621-1.406199 3.615178-2.158035.68454-.43452.847548-.90662.66396-1.467972-.241356-.738213-1.034412-1.113544-1.806654-.796697-.465403.190953-.892452.477032-1.333065.727409-2.06321 1.172733-4.12525 2.34758-6.41508 3.651139-.131903-.224071-.24533-.478911-.412549-.691474-2.889943-3.676505-6.543475-6.087032-11.213645-6.817025-.366008-.057074-.716347-.21538-1.114161-.339395-.029-.559473-.07133-1.021943-.073436-1.484882-.009588-2.11294-.016838-4.22588-.005145-6.338819.004678-.854946-.199492-1.552291-1.103403-1.8379-1.146202.240747-1.389193.504043-1.45608 1.597858-.016605.272925-.006081.547494-.006081.821594.000234 1.917288.01029 3.834577-.005145 5.751865-.003742.45378-.092613.906619-.149678 1.426398-.609468.129417-1.141992.21726-1.660484.357246-1.424274.384021-2.886435.677146-4.253645 1.212427-2.427814.950776-4.495 2.472769-6.22658 4.444548-.428452.487836-.911863.927053-1.371654 1.390697-.32204-.165822-.530887-.263765-.730613-.377914-1.828637-1.043317-3.65166-2.096498-5.486145-3.128776-.334669-.188135-.703717-.353722-1.076742-.42442-.57462-.108982-1.086798.205986-1.345927.724121-.227323.454484-.132371.958527.333266 1.369794.318766.281615.687815.512968 1.056863.728583 1.312484.767573 2.640871 1.50884 3.951016 2.280641.660452.389189 1.294944.822769 1.998427 1.273025-1.197653 2.552156-1.87237 5.108071-1.864185 7.805146.008185 2.718448.643145 5.327914 1.659782 7.92141-.691556.438042-1.269451.825821-1.86746 1.179309-1.442048.851893-2.894854 1.685466-4.339943 2.532427-.234339.137402-.465637.287957-.672847.462704-.44833.37862-.488556.879844-.311516 1.392577.172597.49958.582807.758413 1.089371.720833.413952-.031004.853161-.12472 1.220105-.31168.86696-.441566 1.69767-.954769 2.542879-1.439552 1.179177-.67691 2.358121-1.354526 3.659847-2.102135m-10.13129 7.653182c.167451-.289837.28696-.534107.439677-.755595 1.064113-1.543836-.018476-4.35459-2.266678-4.259231-.341685.014327-.686177-.042513-.990677-.063651-1.032774-2.47911-1.092411-22.5619-.072266-25.851566.323443-.035466.698339-.120491 1.070895-.111096 2.364202.058953 3.279573-2.781865 2.218734-4.25101-.155524-.215147-.276903-.45472-.40179-.66235C16.360744 19.824387 33.400348 9.869426 36.916598 9.1547c.214928.29242.476162.618662.706758.965103 1.154154 1.73385 3.44913 1.722812 4.552299-.025366.202064-.320136.414185-.63393.5945-.908968 2.6245.45143 20.250653 10.689416 22.406242 12.994718-.158565.271986-.343557.559004-.499549.861289-.994419 1.926918.217266 4.01637 2.376597 4.108676.342621.014797.684774.03805.985065.055196.957935 2.068313.998395 22.050576.083024 25.896661-.33046.02161-.703484.080328-1.073468.064591-2.145532-.091601-3.302726 2.32104-2.449798 4.002982.174701.344563.359693.683488.531355 1.00832-1.896694 2.202428-19.134855 12.25909-22.328363 12.936236-.666533-1.115894-1.344057-2.240008-2.958468-2.202427-1.54425.03617-2.276968.99916-2.78213 2.215345-2.841297-.520954-19.556523-10.144036-22.436177-12.93741"/>
      <path d="M41.32385 8.71661c-.015435.731403-.753065 1.431332-1.460057 1.385296-.769201-.050028-1.422169-.729523-1.400887-1.457637.020815-.719658.762888-1.434854 1.461694-1.408783.707226.026306 1.413984.77462 1.39925 1.481125M12.701248 23.107077c.834919-.019025 1.332362.434285 1.36066 1.240377.031573.888534-.449265 1.390698-1.328854 1.387644-.837258-.002818-1.27296-.4418-1.290032-1.30027-.017073-.841324.425879-1.308726 1.258226-1.327751m54.393616 2.630769c-.805218.002584-1.33938-.495352-1.356686-1.264334-.018242-.80163.473355-1.32822 1.257057-1.346776.813403-.01926 1.464266.56652 1.464266 1.317886-.000234.69664-.627242 1.290876-1.364637 1.293224m-54.34897 31.471595c-.804283-.000235-1.340081-.501224-1.378436-1.287822-.034145-.70721.586315-1.281245 1.37867-1.275139.759846.005637 1.254717.48267 1.278104 1.231687.025492.820185-.465403 1.33151-1.278338 1.331274m54.874829-2.489468c.905548.94279 1.009387 1.323993.564798 1.936548-.372089.512498-1.211452.724121-1.78046.448612-.470548-.22783-.757976-.947018-.605024-1.513772.185927-.68748.71167-.947253 1.820686-.871388m-26.439979 16.94429c-.008887.852833-.453008 1.290406-1.310613 1.29158-.787677.00094-1.253782-.440626-1.27296-1.206555-.019878-.795053.500017-1.366975 1.265009-1.391167.7685-.024427 1.32675.528705 1.318564 1.306142m5.333826-40.339528c-6.032936 3.581615-12.052775 6.959829-18.011105 10.4536-1.443218-2.648455.480604-8.053878 3.545483-10.523124 4.475823-3.605338 10.932065-3.29953 14.465621.069524"/>
    </g>
  </g>
</svg>
