<svg width="80" height="80" viewBox="0 0 80 80" xmlns="http://www.w3.org/2000/svg">
  <title>
    ecc-ecurrencycoin
  </title>
  <defs>
    <linearGradient x1="96.442688%" y1="113.131531%" x2="-28.631423%" y2="3.641064%" id="a">
      <stop stop-color="#55B948" offset="0%"/>
      <stop stop-color="#54B848" offset="100%"/>
    </linearGradient>
    <linearGradient x1="105.498239%" y1="123.393626%" x2="-43.696527%" y2="-20.430663%" id="b">
      <stop stop-color="#2FB44A" offset="0%"/>
      <stop stop-color="#45B649" offset="100%"/>
    </linearGradient>
    <linearGradient x1="95.739123%" y1="102.865549%" x2="-150.599045%" y2="-53.204554%" id="c">
      <stop stop-color="#4EB748" offset="0%"/>
      <stop stop-color="#3BB54A" offset="100%"/>
    </linearGradient>
    <linearGradient x1="249.942463%" y1="283.944841%" x2="-56.386651%" y2="-31.888697%" id="d">
      <stop stop-color="#255328" offset="0%"/>
      <stop stop-color="#24562A" offset="100%"/>
    </linearGradient>
    <linearGradient x1="142.451257%" y1="209.323324%" x2="8.834186%" y2="-36.187481%" id="e">
      <stop stop-color="#244F26" offset="0%"/>
      <stop stop-color="#1F3F1D" offset="100%"/>
    </linearGradient>
    <linearGradient x1="344.752683%" y1="413.928824%" x2="-108.636483%" y2="-99.387226%" id="f">
      <stop stop-color="#245026" offset="0%"/>
      <stop stop-color="#20421D" offset="100%"/>
    </linearGradient>
    <linearGradient x1="116.570028%" y1="263.063285%" x2="16.755335%" y2="-52.770254%" id="g">
      <stop stop-color="#20421D" offset="0%"/>
      <stop stop-color="#21441F" offset="100%"/>
    </linearGradient>
    <linearGradient x1="179.161062%" y1="214.748559%" x2="-42.802984%" y2="-42.595905%" id="h">
      <stop stop-color="#245227" offset="0%"/>
      <stop stop-color="#235D2E" offset="100%"/>
    </linearGradient>
    <linearGradient x1="117.893813%" y1="210.494931%" x2="18.078104%" y2="-46.849533%" id="i">
      <stop stop-color="#21411D" offset="0%"/>
      <stop stop-color="#255529" offset="100%"/>
    </linearGradient>
    <linearGradient x1="113.686703%" y1="182.170543%" x2="13.877645%" y2="-28.801431%" id="j">
      <stop stop-color="#1F6634" offset="0%"/>
      <stop stop-color="#1F6734" offset="100%"/>
    </linearGradient>
    <linearGradient x1="163.57473%" y1="112.071407%" x2="-82.526965%" y2="-39.630656%" id="k">
      <stop stop-color="#1D6E37" offset="0%"/>
      <stop stop-color="#1F7239" offset="100%"/>
    </linearGradient>
    <linearGradient x1="100.758397%" y1="133.644656%" x2="-10.730604%" y2="-.955814%" id="l">
      <stop stop-color="#1F6935" offset="0%"/>
      <stop stop-color="#1D6F38" offset="100%"/>
    </linearGradient>
    <linearGradient x1="273.34135%" y1="200.402846%" x2="-117.029182%" y2="-118.12449%" id="m">
      <stop stop-color="#264E25" offset="0%"/>
      <stop stop-color="#1F6B36" offset="100%"/>
    </linearGradient>
    <linearGradient x1="281.28139%" y1="211.55732%" x2="-119.478757%" y2="-70.954938%" id="n">
      <stop stop-color="#228742" offset="0%"/>
      <stop stop-color="#1C7139" offset="100%"/>
    </linearGradient>
    <linearGradient x1="959.958071%" y1="820.026264%" x2="-156.184486%" y2="-165.134603%" id="o">
      <stop stop-color="#24A048" offset="0%"/>
      <stop stop-color="#229747" offset="100%"/>
    </linearGradient>
    <linearGradient x1="-1633.47922%" y1="106565%" x2="-1581.00601%" y2="106444%" id="p">
      <stop stop-color="#24A048" offset="0%"/>
      <stop stop-color="#229747" offset="100%"/>
    </linearGradient>
    <linearGradient x1="133.057365%" y1="107.940726%" x2="-12.37655%" y2="-16.791495%" id="q">
      <stop stop-color="#1E783C" offset="0%"/>
      <stop stop-color="#238A43" offset="100%"/>
    </linearGradient>
    <linearGradient x1="103.648379%" y1="133.419988%" x2="-22.210926%" y2="-32.596765%" id="r">
      <stop stop-color="#217F3F" offset="0%"/>
      <stop stop-color="#229747" offset="100%"/>
    </linearGradient>
    <linearGradient x1="117.038955%" y1="86.341336%" x2="-8.250177%" y2="-13.471975%" id="s">
      <stop stop-color="#45B649" offset="0%"/>
      <stop stop-color="#29A349" offset="100%"/>
    </linearGradient>
    <linearGradient x1="89.283941%" y1="111.088438%" x2="-10.528929%" y2="10.450224%" id="t">
      <stop stop-color="#47B649" offset="0%"/>
      <stop stop-color="#26AB4A" offset="100%"/>
    </linearGradient>
    <linearGradient x1="94.259112%" y1="118.048393%" x2="-31.03002%" y2="-2.629342%" id="u">
      <stop stop-color="#47B649" offset="0%"/>
      <stop stop-color="#37B44A" offset="100%"/>
    </linearGradient>
    <linearGradient x1="113.323035%" y1="88.378127%" x2="-2.872531%" y2="-11.435604%" id="v">
      <stop stop-color="#58B947" offset="0%"/>
      <stop stop-color="#32B44A" offset="100%"/>
    </linearGradient>
    <linearGradient x1="176.60528%" y1="110.156883%" x2="-19.87956%" y2="10.341018%" id="w">
      <stop stop-color="#1E773B" offset="0%"/>
      <stop stop-color="#229345" offset="100%"/>
    </linearGradient>
    <linearGradient x1="145.110143%" y1="205.92796%" x2="-27.705156%" y2="4.619609%" id="x">
      <stop stop-color="#249546" offset="0%"/>
      <stop stop-color="#27A549" offset="100%"/>
    </linearGradient>
    <linearGradient x1="111.892616%" y1="112.524897%" x2="8.269725%" y2="-9.396602%" id="y">
      <stop stop-color="#3FB549" offset="0%"/>
      <stop stop-color="#2AB34B" offset="100%"/>
    </linearGradient>
    <linearGradient x1="114.309889%" y1="172.653852%" x2="14.489688%" y2="-28.654498%" id="z">
      <stop stop-color="#3BB54A" offset="0%"/>
      <stop stop-color="#25B24B" offset="100%"/>
    </linearGradient>
    <linearGradient x1="98.666985%" y1="100.837395%" x2="-1.147708%" y2="1.024872%" id="A">
      <stop stop-color="#1F7D3E" offset="0%"/>
      <stop stop-color="#228240" offset="100%"/>
    </linearGradient>
    <linearGradient x1="121.702501%" y1="78.651893%" x2="21.061869%" y2="-21.157279%" id="B">
      <stop stop-color="#228240" offset="0%"/>
      <stop stop-color="#228641" offset="100%"/>
    </linearGradient>
    <linearGradient x1="77.268466%" y1="123.241679%" x2="-22.544057%" y2="22.60492%" id="C">
      <stop stop-color="#218541" offset="0%"/>
      <stop stop-color="#238B43" offset="100%"/>
    </linearGradient>
    <linearGradient x1="83.166578%" y1="134.372502%" x2="-16.642481%" y2="-74.548361%" id="D">
      <stop stop-color="#1F7038" offset="0%"/>
      <stop stop-color="#217239" offset="100%"/>
    </linearGradient>
    <linearGradient x1="155.808224%" y1="113.302131%" x2="-24.521508%" y2="13.449932%" id="E">
      <stop stop-color="#1F7B3D" offset="0%"/>
      <stop stop-color="#228F44" offset="100%"/>
    </linearGradient>
    <linearGradient x1="362.717963%" y1="267.106348%" x2="-112.842513%" y2="-101.978566%" id="F">
      <stop stop-color="#279145" offset="0%"/>
      <stop stop-color="#279446" offset="100%"/>
    </linearGradient>
    <linearGradient x1="95.9702%" y1="112.501998%" x2="-7.314595%" y2="-63.03757%" id="G">
      <stop stop-color="#23743A" offset="0%"/>
      <stop stop-color="#237038" offset="100%"/>
    </linearGradient>
    <linearGradient x1="143.161133%" y1="145.098494%" x2="-77.09268%" y2="-115.017381%" id="H">
      <stop stop-color="#265127" offset="0%"/>
      <stop stop-color="#21733A" offset="100%"/>
    </linearGradient>
    <linearGradient x1="100.071732%" y1="99.694099%" x2=".257039%" y2="-17.31794%" id="I">
      <stop stop-color="#234A22" offset="0%"/>
      <stop stop-color="#226533" offset="100%"/>
    </linearGradient>
    <linearGradient x1="116.991273%" y1="110.238542%" x2="-15.349342%" y2="4.297329%" id="J">
      <stop stop-color="#1E371B" offset="0%"/>
      <stop stop-color="#234A22" offset="100%"/>
    </linearGradient>
    <linearGradient x1="107.070223%" y1="128.329337%" x2="-20.615886%" y2="-45.771383%" id="K">
      <stop stop-color="#245529" offset="0%"/>
      <stop stop-color="#235F2F" offset="100%"/>
    </linearGradient>
    <linearGradient x1="114.146165%" y1="126.825551%" x2="-46.369995%" y2="-32.451157%" id="L">
      <stop stop-color="#235228" offset="0%"/>
      <stop stop-color="#1F7139" offset="100%"/>
    </linearGradient>
    <linearGradient x1="123.90293%" y1="122.715484%" x2="24.089972%" y2="-39.206712%" id="M">
      <stop stop-color="#229747" offset="0%"/>
      <stop stop-color="#209346" offset="100%"/>
    </linearGradient>
    <linearGradient x1="144.976816%" y1="153.443418%" x2="-1.236476%" y2="-5.130725%" id="N">
      <stop stop-color="#1F7B3D" offset="0%"/>
      <stop stop-color="#1B6C36" offset="100%"/>
    </linearGradient>
    <linearGradient x1="77.708503%" y1="193.125871%" x2="-22.104455%" y2="-233.999071%" id="O">
      <stop stop-color="#25A749" offset="0%"/>
      <stop stop-color="#218D44" offset="100%"/>
    </linearGradient>
    <linearGradient x1="129.619222%" y1="129.106213%" x2="-29.801883%" y2="-29.028685%" id="P">
      <stop stop-color="#1E6332" offset="0%"/>
      <stop stop-color="#225F30" offset="100%"/>
    </linearGradient>
    <linearGradient x1="147.144141%" y1="100.585005%" x2="-60.26371%" y2="-4.87106%" id="Q">
      <stop stop-color="#1F7C3E" offset="0%"/>
      <stop stop-color="#228742" offset="100%"/>
    </linearGradient>
    <linearGradient x1="115.40856%" y1="85.237161%" x2="14.770428%" y2="-15.40164%" id="R">
      <stop stop-color="#29A349" offset="0%"/>
      <stop stop-color="#51B848" offset="100%"/>
    </linearGradient>
    <linearGradient x1="86.47633%" y1="124.347763%" x2="-13.335778%" y2="-62.788177%" id="S">
      <stop stop-color="#279044" offset="0%"/>
      <stop stop-color="#2DB14A" offset="100%"/>
    </linearGradient>
    <linearGradient x1="82.136436%" y1="148.558639%" x2="-18.508726%" y2="-120.089526%" id="T">
      <stop stop-color="#37B44A" offset="0%"/>
      <stop stop-color="#34B44A" offset="100%"/>
    </linearGradient>
    <linearGradient x1="266.257166%" y1="314.490772%" x2="-625.634726%" y2="-1008.8175%" id="U">
      <stop stop-color="#2AAF4A" offset="0%"/>
      <stop stop-color="#2DAD4A" offset="100%"/>
    </linearGradient>
    <linearGradient x1="214.126276%" y1="297.147385%" x2="-40.529337%" y2="-17.337559%" id="V">
      <stop stop-color="#269947" offset="0%"/>
      <stop stop-color="#45B649" offset="100%"/>
    </linearGradient>
    <linearGradient x1="-3814%" y1="7026.96572%" x2="-3693%" y2="7019.03631%" id="W">
      <stop stop-color="#269947" offset="0%"/>
      <stop stop-color="#45B649" offset="100%"/>
    </linearGradient>
    <linearGradient x1="108.748453%" y1="212.424723%" x2="8.936346%" y2="-21.521395%" id="X">
      <stop stop-color="#2AA84A" offset="0%"/>
      <stop stop-color="#47B649" offset="100%"/>
    </linearGradient>
    <linearGradient x1="125.448302%" y1="136.896851%" x2="-35.13926%" y2="-64.128865%" id="Y">
      <stop stop-color="#27A048" offset="0%"/>
      <stop stop-color="#25813F" offset="100%"/>
    </linearGradient>
    <linearGradient x1="83.550741%" y1="143.542329%" x2="-18.107451%" y2="-59.144756%" id="Z">
      <stop stop-color="#21803F" offset="0%"/>
      <stop stop-color="#216D37" offset="100%"/>
    </linearGradient>
    <linearGradient x1="127.5137%" y1="85.394233%" x2="-60.60915%" y2="-108.737443%" id="aa">
      <stop stop-color="#248340" offset="0%"/>
      <stop stop-color="#288541" offset="100%"/>
    </linearGradient>
    <linearGradient x1="132.634731%" y1="136.13145%" x2="-48.502994%" y2="-126.680091%" id="ab">
      <stop stop-color="#2DB34A" offset="0%"/>
      <stop stop-color="#28A449" offset="100%"/>
    </linearGradient>
    <linearGradient x1="84.887159%" y1="114.771484%" x2="-14.92607%" y2="14.96507%" id="ac">
      <stop stop-color="#54B848" offset="0%"/>
      <stop stop-color="#2FB44A" offset="100%"/>
    </linearGradient>
    <linearGradient x1="111.983502%" y1="88.376399%" x2="11.346082%" y2="-11.430014%" id="ad">
      <stop stop-color="#54B848" offset="0%"/>
      <stop stop-color="#32B44A" offset="100%"/>
    </linearGradient>
    <linearGradient x1="128.114761%" y1="137.748872%" x2="-21.889666%" y2="-122.431643%" id="ae">
      <stop stop-color="#3BB54A" offset="0%"/>
      <stop stop-color="#2CA649" offset="100%"/>
    </linearGradient>
    <linearGradient x1="83.937008%" y1="142.756391%" x2="-15.875516%" y2="-122.538936%" id="af">
      <stop stop-color="#56B947" offset="0%"/>
      <stop stop-color="#289F48" offset="100%"/>
    </linearGradient>
    <linearGradient x1="155.343394%" y1="152.758174%" x2="-90.606714%" y2="-47.558692%" id="ag">
      <stop stop-color="#1E6633" offset="0%"/>
      <stop stop-color="#20793C" offset="100%"/>
    </linearGradient>
    <linearGradient x1="111.193777%" y1="89.224953%" x2="8.048698%" y2="-10.586011%" id="ah">
      <stop stop-color="#248842" offset="0%"/>
      <stop stop-color="#22773B" offset="100%"/>
    </linearGradient>
    <linearGradient x1="99.357457%" y1="101.249124%" x2="-2.942171%" y2=".957273%" id="ai">
      <stop stop-color="#228742" offset="0%"/>
      <stop stop-color="#25A249" offset="100%"/>
    </linearGradient>
    <linearGradient x1="128.312765%" y1="89.515101%" x2="-118.025403%" y2="-23.136603%" id="aj">
      <stop stop-color="#32B44A" offset="0%"/>
      <stop stop-color="#26A349" offset="100%"/>
    </linearGradient>
    <linearGradient x1="196.054147%" y1="200.393992%" x2="-89.717742%" y2="-88.623492%" id="ak">
      <stop stop-color="#1F6131" offset="0%"/>
      <stop stop-color="#226030" offset="100%"/>
    </linearGradient>
    <linearGradient x1="147.693575%" y1="209.948289%" x2="-28.088962%" y2="-79.069195%" id="al">
      <stop stop-color="#235F2F" offset="0%"/>
      <stop stop-color="#226131" offset="100%"/>
    </linearGradient>
  </defs>
  <g fill="none" fill-rule="evenodd">
    <circle fill="#000" cx="40" cy="40" r="40"/>
    <g fill-rule="nonzero">
      <path d="M33.269894 41.70882c.12729-.126287.20757-.126287.246127-.126287h25.78046c.45724-.003316.90732-.112977 1.31409-.320175.38901-.19413.75028-.43872 1.0743-.727336.32184-.280352.60587-.600725.84507-.953188.27415-.39732.42138-.867322.42254-1.34882V20.09572c-.0041-.600766-.177732-1.18838-.50123-1.696244-.287094-.466833-.650305-.883147-1.074822-1.231965-.41703-.33518-.87925-.61086-1.37324-.81903C59.46127 16.11843 58.940498 16 58.452468 16h-35.90493c-.536455-.00023-1.06837.097465-1.56919.28821-.49094.190438-.95305.447183-1.37324.76297-.45103.329923-.830267.746814-1.114966 1.225676-.28488.464425-.438324.996447-.44419 1.540087V59.99703c0 .513538.14472 1.039127.42835 1.558428.2624.490038.62019.923558 1.05264 1.27546.41653.336024.87885.611942 1.37324.819562.5193.226897 1.07994.34585 1.64736.34952h36.84243c.45723-.003296.90732-.11296 1.31408-.320175.41795-.209393.79145-.49652 1.10017-.845764.280117-.31226.53048-.6496.747888-1.00768.257595-.40889.396662-.88028.401936-1.36244V50.23092c.000836-.33249-.090525-.658803-.264083-.94323-.12675-.20909-.277975-.40257-.450527-.57642l-.007397-.007337c-.1998-.19753-.43713-.35374-.69824-.45956l-.00898-.00367c-.26285-.10118-.54254-.15238-.82447-.15092h-6.09137c-.48117 0-.93434.20961-1.34736.61782-.41303.40821-.62272.85939-.62272 1.33677v4.57205c-.02468.032127-.05169.062426-.08081.090658-.02835.02881-.058708.0556-.090845.08018H33.20123c-.024243-.03316-.044122-.06926-.059155-.10742V41.95302c0-.040873 0-.118952.127817-.244192zm-.39507 13.346726c.08926.125764.171127.150917.264084.150917h19.40757c.04912 0 .158452-.052402.310564-.202795.198592-.19703.204402-.297118.204402-.308122V50.04489c0-.362095.167957-.71214.49859-1.040698.330635-.32856.68398-.494672 1.048945-.494672h6.09348c.22898-.001327.45617.040092.66972.122096.21118.085217.40312.211342.56461.371004.15045.150635.28235.318445.39295.499913.13318.21987.2028.471868.20123.728384v10.23144c-.00576.405883-.123985.802366-.341727 1.146027-.20419.335193-.43917.650946-.701938.943232-.27183.309564-.601027.564482-.96972.750917-.348725.1791-.73498.274412-1.12764.278253H22.54753c-.509407-.003682-1.012674-.110677-1.478873-.31441-.458264-.192272-.88681-.447906-1.272884-.759302-.390477-.316815-.713632-.70743-.950705-1.14917-.25088-.45904-.37817-.917555-.37817-1.362445V19.81694c.00616-.46899.13953-.927676.386094-1.32786.256478-.43006.5978-.804345 1.00352-1.100437.389603-.292877.818128-.530936 1.273417-.707423.45233-.17288.93287-.261696 1.4176-.26201h35.90493c.43045 0 .89788.104804 1.38486.31441.45784.19265.88629.447872 1.27288.758255.3883.319526.72045.700776.98292 1.12821.281843.441718.43351.95286.43785 1.475633V38.23301c-.00184.398703-.124598.787624-.35229 1.116158-.21941.3225-.47983.615575-.77482.871965-.29628.264206-.62664.488176-.982398.666027-.348226.178236-.733715.272998-1.12553.27668H33.51602c-.200175 0-.373414.079127-.54507.249433-.171654.170306-.251408.34166-.251408.540786v12.74148c0 .09537.053873.22008.155282.36z" fill="#231F20"/>
      <path d="M33.14102 33.06987h19.311973c.085563 0 .183275-.04559.29155-.134674.087798-.06721.136435-.173135.12993-.28297v-7.719824c0-.068123-.055987-.160874-.158452-.26201-.10246-.101134-.19542-.157204-.26408-.157204H33.14102c-.110072-.006563-.216346.04106-.284154.127336-.091373.108472-.137324.20594-.137324.29083v7.720873c0 .17869.062324.26201.10933.30655.047008.044542.131515.111092.31215.111092zm0-8.10655c.006132-.010316.012833-.020288.020072-.02987h19.22007c.009507.00786.022183.018864.036444.033537.01426.014672.02588.026725.033803.036157v7.627598c-.00967.007176-.01972.013823-.03011.019913H33.14313l-.00211-7.687336z" fill="#231F20"/>
      <path fill="url(#a)" d="M4.244366 3.56856L.04595 7.13869v1.294323l8.552113-1.94201" transform="translate(18.845 16.838)"/>
      <path d="M1.056338 1.05537c-.270602.229836-.501003.502515-.681866.806988-.208747.335915-.322076.721573-.327993 1.116157v4.1607l4.19788-3.570132L1.05633 1.05537z" fill="url(#b)" transform="translate(18.845 16.838)"/>
      <path fill="url(#c)" d="M.04595 22.341485v3.427074l5.863205.66917" transform="translate(18.845 16.838)"/>
      <path fill="url(#d)" d="M24.205458 46.321048h2.294894l-1.25493-4.25607" transform="translate(18.845 16.838)"/>
      <path d="M35.153345 46.323144h5.39155c.326584-.003394.647766-.083103.9375-.232664.32124-.161026.60817-.382004.84507-.65083.245808-.273674.465417-.569446.655986-.883493.17823-.278448.27547-.600328.28099-.93013v-2.468123l-9.18327 2.939738 1.07219 2.225502z" fill="url(#e)" transform="translate(18.845 16.838)"/>
      <path fill="url(#f)" d="M33.13521 46.321048h2.018135l-1.072183-2.223406" transform="translate(18.845 16.838)"/>
      <path fill="url(#g)" d="M25.245423 42.064978l1.25493 4.25607h6.634858l.94596-2.223406" transform="translate(18.845 16.838)"/>
      <path fill="url(#h)" d="M16.050528 46.321048h4.318838l-1.14243-5.272664" transform="translate(18.845 16.838)"/>
      <path fill="url(#i)" d="M19.226937 41.048384l1.14243 5.272664h3.83609l1.039966-4.25607" transform="translate(18.845 16.838)"/>
      <path fill="url(#j)" d="M12.31162 42.064978l.108803 4.25607h3.630105l3.17641-5.272664" transform="translate(18.845 16.838)"/>
      <path d="M.04595 39.151965v4.007162c0 .372052.108275.759825.327994 1.162794.18506.34624.429774.65766.723063.92018l2.37676-8.51266L.04595 39.15197z" fill="url(#k)" transform="translate(18.845 16.838)"/>
      <path d="M3.47588 36.728908l-2.37676 8.512664c.039436.034935.079753.06987.12095.104804.355404.286385.750016.52122 1.172007.697467.41297.180966.858944.276023 1.310388.2793H5.25898l7.05264-4.258165-8.83574-5.33607z" fill="url(#l)" transform="translate(18.845 16.838)"/>
      <path d="M43.263908 33.39249c.001583-.18007-.04704-.35707-.140493-.511442-.09224-.152113-.20234-.292834-.327993-.419214-.12075-.119888-.2644-.214664-.422535-.278777-.164405-.06287-.339306-.094338-.515493-.09275h-2.588028l3.994543 4.538514-.00001-3.23633z" fill="url(#m)" transform="translate(18.845 16.838)"/>
      <path d="M40.451408 23.905677c.326586-.003394.647767-.083104.9375-.232664.322623-.161373.622097-.36474.890493-.604716.26774-.232384.50404-.498172.703-.790742.18141-.259606.27936-.567607.28099-.883494v-1.97711l-3.89102 4.48874h1.07905z" fill="url(#n)" transform="translate(18.845 16.838)"/>
      <path fill="url(#o)" d="M13.451937 14.129083l-.75581.238952.75581.559127" transform="translate(18.845 16.838)"/>
      <path fill="url(#p)" d="M19.73926 19.577293l.522888-2.926638h-4.4794" transform="translate(18.845 16.838)"/>
      <path d="M33.607923 7.256594c.187323 0 .374823.092926.5625.278777.187676.18586.281338.37188.280985.55808v.1635l8.8125.85572V3.2573c-.000137-.22074-.033243-.440244-.09824-.651355L30.69613 7.256595h2.911794z" fill="url(#q)" transform="translate(18.845 16.838)"/>
      <path d="M30.696127 7.256594L43.16514 2.60594c-.066266-.212325-.15963-.41537-.277816-.604193-.23756-.387628-.538504-.733314-.890493-1.022882-.355-.285728-.74862-.520678-1.16936-.697992C40.38873.093623 39.98204 0 39.6074 0h-5.40687l-4.542253 7.255022 1.037852.001572z" fill="url(#r)" transform="translate(18.845 16.838)"/>
      <path fill="url(#s)" d="M12.696127 14.368035L.04595 18.922795v3.41869l5.863205 4.096244" transform="translate(18.845 16.838)"/>
      <path d="M15.782747 16.650655H14.29595c-.227592.011902-.44958-.072604-.610735-.232493-.161156-.15989-.24633-.38013-.234335-.605935v-.885065l-.756338-.559127L5.909155 26.43773l13.830106-6.86096-3.95651-2.926115z" fill="url(#t)" transform="translate(18.845 16.838)"/>
      <path fill="url(#u)" d="M.04595 9.67546v9.247335l12.650177-4.55476" transform="translate(18.845 16.838)"/>
      <path fill="url(#v)" d="M8.598063 6.491004L.04595 8.433014V9.67546l12.650177 4.692574" transform="translate(18.845 16.838)"/>
      <path fill="url(#w)" d="M11.543662 33.552314l1.908275-.639825v-4.39232l-7.542782-2.08244" transform="translate(18.845 16.838)"/>
      <path fill="url(#x)" d="M22.701232 23.905677h8.727465L24.7331 17.417293" transform="translate(18.845 16.838)"/>
      <path d="M5.909155 26.43773l7.54331 2.082445V25.11406c0-.309518.125-.588994.375-.838427.248767-.246812.52817-.372052.84507-.372052h5.421655l-.35493-4.32838-13.830104 6.86253z" fill="url(#y)" transform="translate(18.845 16.838)"/>
      <path fill="url(#z)" d="M19.73926 19.577293l.35493 4.328384h2.607042l2.031867-6.488384" transform="translate(18.845 16.838)"/>
      <path fill="url(#A)" d="M3.47588 36.728908l8.83574 5.33607-6.018486-8.385327" transform="translate(18.845 16.838)"/>
      <path fill="url(#B)" d="M6.293134 33.67965l6.018486 8.385328-.767958-8.512664" transform="translate(18.845 16.838)"/>
      <path fill="url(#C)" d="M6.293134 33.67965l5.250528-.127336-5.634507-7.114585" transform="translate(18.845 16.838)"/>
      <path fill="url(#D)" d="M19.226937 41.048384l-1.040493-2.261135h-3.856162l-2.018662 3.27772" transform="translate(18.845 16.838)"/>
      <path d="M12.31162 42.064978l2.018662-3.27773h-.03486c-.24575.003145-.475835-.119407-.608978-.324366-.15845-.21642-.234507-.419214-.234507-.604716v-3.673362l-1.908803-.628822.768486 8.508996z" fill="url(#E)" transform="translate(18.845 16.838)"/>
      <path fill="url(#F)" d="M13.451937 34.183755V32.91249l-1.908275.639824" transform="translate(18.845 16.838)"/>
      <path fill="url(#G)" d="M25.245423 42.064978l.220246-3.27773h-3.15898l-3.07976 2.261136" transform="translate(18.845 16.838)"/>
      <path fill="url(#H)" d="M22.30669 38.78725h-4.120246l1.040493 2.261134" transform="translate(18.845 16.838)"/>
      <path fill="url(#I)" d="M34.081162 44.097642l-1.52905-5.310393h-1.801056l-5.505633 3.27772" transform="translate(18.845 16.838)"/>
      <path d="M43.263908 41.155808v-1.501834l-8.759155-1.422184c-.0572.08253-.12229.159392-.194366.22952-.219718.21799-.422535.325415-.609507.325415h-1.148767l1.53169 5.310393 9.180105-2.94131z" fill="url(#J)" transform="translate(18.845 16.838)"/>
      <path fill="url(#K)" d="M30.751056 38.78725H25.46567l-.220247 3.277728" transform="translate(18.845 16.838)"/>
      <path d="M43.263908 36.62882l-3.994542-4.53799H35.76391c-.250354 0-.501234.12524-.750002.372052-.248767.246812-.375.497293-.375.744105v4.650655c-.00617.135348-.052877.265796-.134155.374672l8.758627 1.422184.00053-3.025677z" fill="url(#L)" transform="translate(18.845 16.838)"/>
      <path fill="url(#M)" d="M24.7331 17.417293l6.695597 6.488384h4.317254v-6.86987" transform="translate(18.845 16.838)"/>
      <path fill="url(#N)" d="M43.263908 15.908646l-7.517957 1.127162v6.86987h3.62641l3.89155-4.488735" transform="translate(18.845 16.838)"/>
      <path d="M34.172535 16.418515c-.1875.157205-.375.232664-.5625.232664H25.09912l-.36602.76611 11.01285-.38096-1.294542-1.87546v.65292c.007468.23374-.095718.4575-.278873.60471z" fill="url(#O)" transform="translate(18.845 16.838)"/>
      <path fill="url(#P)" d="M43.263908 15.908646v-3.604192l-7.517957 4.731354" transform="translate(18.845 16.838)"/>
      <path fill="url(#Q)" d="M34.451408 15.160873l1.294543 1.874935 7.51796-4.731354V9.113712l-8.8125-.856245" transform="translate(18.845 16.838)"/>
      <path d="M13.451937 8.093974c0-.186026.07764-.372053.234507-.55808.147954-.182498.373545-.28568.609507-.278776h.23557l.85352-3.307074-6.78697 2.54096 4.09807 7.87703.75634-2.929257-.000522-3.344803z" fill="url(#R)" transform="translate(18.845 16.838)"/>
      <path fill="url(#S)" d="M26.91021 7.252926L23.358276.002096h-6.106162l-1.867078 3.947948" transform="translate(18.845 16.838)"/>
      <path fill="url(#T)" d="M19.73926 19.577293l4.99384-2.16-.480635-.766638h-3.990317" transform="translate(18.845 16.838)"/>
      <path fill="url(#U)" d="M24.7331 17.417293l.16426-.766638h-.644895" transform="translate(18.845 16.838)"/>
      <path fill="url(#V)" d="M15.385035 3.950044l-.85352 3.30655h3.312675" transform="translate(18.845 16.838)"/>
      <path fill="url(#W)" d="M13.451937 11.438777l-.75581 2.929258.75581-.238952" transform="translate(18.845 16.838)"/>
      <path fill="url(#X)" d="M26.91021 7.252926L15.385036 3.950044l2.459155 3.30655h9.06127" transform="translate(18.845 16.838)"/>
      <path fill="url(#Y)" d="M29.65933 7.256594l4.5412-7.254498h-5.537324l.635916 7.254498" transform="translate(18.845 16.838)"/>
      <path fill="url(#Z)" d="M26.92764 7.256594h2.37148L28.663204.002096h-1.160387l-.592606 7.25083" transform="translate(18.845 16.838)"/>
      <path fill="url(#aa)" d="M27.502817.002096h-4.144542l3.551936 7.25083" transform="translate(18.845 16.838)"/>
      <path d="M5.993134 0h-2.29067c-.43338-.000676-.86315.078207-1.267605.232664-.41855.16286-.81228.382602-1.1699.652926-.07342.0524-.14314.111615-.21127.16978l3.19014 2.515285L5.99313 0z" fill="url(#ab)" transform="translate(18.845 16.838)"/>
      <path fill="url(#ac)" d="M11.2875.265153l-2.689437 6.22585 6.786972-2.54096" transform="translate(18.845 16.838)"/>
      <path fill="url(#ad)" d="M8.598063 6.491004L11.2875.265154 4.244366 3.568558" transform="translate(18.845 16.838)"/>
      <path fill="url(#ae)" d="M15.385035 3.950044L17.252113.002096h-5.60757L11.2875.265153" transform="translate(18.845 16.838)"/>
      <path fill="url(#af)" d="M11.2875.265153l-.105106-.263057h-5.18926L4.244366 3.56856" transform="translate(18.845 16.838)"/>
      <path fill="url(#ag)" d="M.04595 35.513712v3.638253l3.42993-2.423057" transform="translate(18.845 16.838)"/>
      <path fill="url(#ah)" d="M6.293134 33.67965L.04595 35.415197v.098516l3.42993 1.215196" transform="translate(18.845 16.838)"/>
      <path fill="url(#ai)" d="M5.909155 26.43773L.04595 35.224453v.190742l6.247184-1.735545" transform="translate(18.845 16.838)"/>
      <path fill="url(#aj)" d="M.04595 25.76856v9.455894l5.863205-8.786725" transform="translate(18.845 16.838)"/>
      <path fill="url(#ak)" d="M10.58662 46.321048h1.833803l-.108803-4.25607" transform="translate(18.845 16.838)"/>
      <path fill="url(#al)" d="M5.25845 46.321048h5.32817l1.725-4.25607" transform="translate(18.845 16.838)"/>
    </g>
  </g>
</svg>
