<svg width="80" height="80" viewBox="0 0 80 80" xmlns="http://www.w3.org/2000/svg">
  <title>
    ecn-ecoin
  </title>
  <g fill="none" fill-rule="evenodd">
    <circle fill="#000" cx="40" cy="40" r="40"/>
    <path d="M37.598762 61.883592c-6.383754.000128-12.76738.00371-19.151006-.020977-.156798-.00064-.465552-.335756-.44694-.48208 1.104858-8.690257 2.233428-17.377443 3.387365-26.06143.02499-.18828.369058-.478885.564228-.478885 12.81952.00435 25.639037.03185 38.4583.08621.131686.00051.396204.39894.37262.58236-.388682 3.0195-.804517 6.035674-1.252223 9.046988-.02792.18828-.368286.47236-.563456.472488-7.827196.004477-15.654647-.02328-23.48184-.01279-.208685.000255-.56983.356348-.599917.581593-.16789 1.25489-.27395 2.51951-.348016 3.784-.009815.16743.283768.50843.435723.50779 7.80463-.03492 15.609263-.10092 23.413894-.1361.150044-.00064.449874.3465.430497.499733-.471543 3.73872-.97088 7.473987-1.497364 11.205162-.023203.16423-.35197.407382-.53898.408022-6.394336.02136-12.788543.01778-19.182877.017906m5.66801-43.883335c6.393697 0 12.787522-.004093 19.18122.022767.162152.000767.481103.36108.461217.520325-.49143 3.9293-1.01524 7.85451-1.55537 11.777416-.017972.131233-.26528.33013-.406017.330256-12.861843.01522-25.723684.014965-38.585526-.001023-.113837-.00013-.337307-.2397-.324942-.34586.46007-3.95463.935823-7.907467 1.442168-11.85634.0218-.16973.35401-.42823.542297-.42887 6.414857-.022384 12.82997-.018675 19.244956-.018675" fill="#EC2123"/>
  </g>
</svg>
