<svg width="80" height="80" xmlns="http://www.w3.org/2000/svg" xmlns:xlink="http://www.w3.org/1999/xlink">
  <defs>
    <path id="a" d="M0 0h79.999905v79.999838H0z"/>
  </defs>
  <g fill="none" fill-rule="evenodd">
    <circle fill="#333D31" cx="40" cy="40" r="40"/>
    <mask id="b" fill="#fff">
      <use xlink:href="#a"/>
    </mask>
    <path d="M75.3109 39.2788c.054-.004.108-.007.162-.011-.122-1.5-.229-3.003-.371-4.501-.39-4.09-1.83-7.873-3.729-11.442-1.969-3.702-4.53-6.993-7.719-9.79-2.188-1.919-4.532-3.564-7.084-4.943-3.863-2.089-7.991-3.406-12.328-3.889-2.071-.23-4.167-.459-6.312-.179-2.042.266-4.104.404-6.112.886-5.49 1.318-10.434 3.786-14.714 7.453-4.557 3.905-8.05 8.627-10.22 14.271-1.129 2.938-1.99 5.963-2.22 9.095-.135 1.825-.412 3.652-.148 5.532.231 1.652.274 3.336.591 4.991.82 4.271 2.423 8.225 4.684 11.928 2.085 3.417 4.714 6.385 7.793 8.894 3.802 3.099 8.115 5.323 12.855 6.664 3.161.894 6.398 1.327 9.67 1.331 1.754.002 3.514-.239 5.26-.458 3.655-.459 7.129-1.591 10.392-3.26 4.254-2.175 8.03-4.991 11.148-8.676 2.984-3.529 5.268-7.426 6.776-11.79.774-2.239 1.319-4.542 1.587-6.878.198-1.722.039-3.484.039-5.228m-35.32 40.721c-21.721.004-39.981-17.548-39.991-40.005-.009-22.143 17.974-39.937 39.881-39.995 22.378-.059 40.13 18.166 40.119 40.012-.01 22.155-18.063 40.018-40.009 39.988" fill="#333D31" mask="url(#b)"/>
    <path d="M40.0204 71.9468c2.263-.266 4.561-.365 6.779-.836 3.898-.827 7.511-2.425 10.821-4.668 2.627-1.78 4.916-3.92 6.929-6.377 2.179-2.659 3.888-5.581 5.07-8.799.98-2.666 1.581-5.411 1.904-8.253.297-2.611.232-5.197-.177-7.735-.618-3.824-1.792-7.502-3.777-10.891-1.247-2.132-2.659-4.129-4.314-5.952-2.221-2.447-4.801-4.461-7.667-6.103-4.05-2.321-8.417-3.703-13.062-4.021-2.141-.146-4.314.045-6.464.201-3.562.259-6.904 1.396-10.06 2.993-3.634 1.839-6.851 4.249-9.564 7.347-2.854 3.259-4.976 6.897-6.391 10.977-1.26 3.63-1.686 7.364-1.592 11.187.05 2.076.291 4.112.751 6.135.878 3.863 2.436 7.4 4.662 10.693 1.858 2.749 4.018 5.193 6.625 7.207 5.732 4.43 12.205 6.8 19.527 6.895m35.252-27.44c-.268 2.336-.814 4.639-1.587 6.878-1.509 4.364-3.793 8.261-6.777 11.79-3.117 3.685-6.893 6.501-11.147 8.676-3.263 1.669-6.737 2.801-10.392 3.26-1.746.219-3.507.46-5.26.458-3.273-.004-6.509-.437-9.67-1.331-4.741-1.341-9.053-3.565-12.856-6.664-3.079-2.509-5.707-5.477-7.792-8.894-2.261-3.703-3.864-7.657-4.685-11.928-.317-1.655-.36-3.339-.591-4.991-.263-1.88.014-3.707.148-5.532.231-3.132 1.092-6.157 2.221-9.095 2.169-5.644 5.662-10.366 10.22-14.271 4.279-3.666 9.223-6.135 14.714-7.453 2.007-.482 4.07-.62 6.112-.886 2.144-.28 4.241-.051 6.311.179 4.337.483 8.466 1.8 12.329 3.889 2.551 1.379 4.896 3.024 7.083 4.943 3.189 2.797 5.751 6.088 7.72 9.79 1.898 3.569 3.339 7.352 3.728 11.442.143 1.498.249 3.001.372 4.501-.054.004-.003 3.517-.201 5.239" fill="#CAB736"/>
    <path d="M11.848 39.9424c-.469 15.421 12.915 28.542 28.112 28.509 15.372-.032 28.186-12.624 28.349-28.108.167-15.919-12.799-28.707-28.331-28.773-15.259-.064-28.58 13.191-28.13 28.372m28.172 32.004c-1.808-.023-3.565-.185-5.271-.483-5.203-.908-9.94-3.075-14.256-6.411-2.606-2.015-4.767-4.458-6.625-7.208-2.226-3.293-3.784-6.829-4.662-10.693-.46-2.023-.7-4.059-.751-6.134-.094-3.824.332-7.557 1.592-11.188 1.416-4.08 3.537-7.718 6.391-10.976 2.714-3.099 5.931-5.509 9.564-7.348 3.156-1.597 6.498-2.733 10.061-2.992 2.15-.156 4.323-.347 6.463-.201 4.646.317 9.012 1.699 13.063 4.021 2.865 1.642 5.445 3.655 7.667 6.103 1.654 1.822 3.066 3.819 4.314 5.951 1.984 3.389 3.159 7.067 3.776 10.891.409 2.538.474 5.124.177 7.735-.322 2.843-.924 5.588-1.904 8.253-1.182 3.218-2.891 6.14-5.069 8.8-2.014 2.456-4.303 4.596-6.93 6.376-3.31 2.243-6.923 3.842-10.82 4.668-2.219.471-4.517.57-6.78.836" fill="#323D30"/>
    <path d="M45.7152 47.4507c3.985-1.559 7.117-8.533 5.007-13.413-3.556 1.055-6.699 2.833-9.461 5.334 1.496 2.713 2.972 5.39 4.454 8.079m-1.833 1.007c-.119-.361-.187-.607-.28-.843-.11-.278-.234-.551-.366-.82-1.561-3.189-3.826-5.801-6.638-7.936-2.272-1.726-4.826-2.906-7.564-3.693-.723-.208-.951-.067-1.004.685-.041.604.01 1.214-.031 1.817-.136 1.999.483 3.85 1.39 5.538 1.645 3.063 4.298 4.984 7.651 5.848 2.294.59 4.578.482 6.842-.596m6.085-16.34c-1.042-2.03-2.465-3.505-4.264-4.592-2.389-1.444-4.968-2.014-7.77-1.591-3.543.535-7.388 3.121-8.338 6.136 3.805 1.112 7.174 3.052 10.298 5.557 2.903-2.631 6.278-4.379 10.074-5.51m4.816 2.216c0 1.195.023 2.312-.005 3.428-.055 2.164-.551 4.226-1.445 6.203-1.208 2.671-3.129 4.728-5.494 6.381-.541.378-.519.639-.449 1.24.05.429.731 2.987.92 5.313.212 2.6.199 4.977.369 5.087.216.14.41.07.683-.06 2.498-1.183 4.815-2.659 6.857-4.522 2.678-2.445 4.683-5.368 5.832-8.822.523-1.57 1.182-3.181 1.254-4.798.122-2.713.427-5.491-.545-8.15-.148-.404-.309-.792-.856-.842-2.049-.185-4.079-.604-6.151-.518-.292.012-.582.036-.97.06m-29.971.27c-2.226-.598-4.421-.17-6.625.152-.592.086-.779.324-.862.894-.3 2.045-.385 4.082-.314 6.157.114 3.301.925 6.396 2.43 9.287 2.115 4.062 5.324 7.091 9.389 9.17 2.854 1.46 5.907 2.269 9.102 2.674 2.521.321 4.959.113 7.388-.376.599-4.094.312-8.489-.673-10.579-11.397 3.574-21.78-5.795-19.835-17.379m41.295 4.94c.084 3.446-.434 6.801-1.476 10.06-.952 2.975-2.462 5.657-4.459 8.089-3.449 4.2-7.935 6.655-13.101 7.989-1.537.397-3.147.45-4.714.676-1.884.272-3.721.054-5.528-.174-2.193-.276-4.401-.801-6.478-1.561-3.668-1.343-6.998-3.353-9.734-6.188-3.299-3.418-5.421-7.471-6.443-12.14-.687-3.133-.52-6.275-.415-9.417.046-1.355.483-2.695.698-4.048.063-.397.187-.554.588-.695 1.55-.545 3.125-.919 4.769-1.004.987-.052 1.973-.177 2.96-.181.77-.003 1.54.129 2.31.199.129.012.26.008.389.018.382.031.554-.109.762-.488 1.172-2.139 2.67-4.021 4.692-5.435 2.227-1.558 4.668-2.464 7.4-2.732 2.6-.255 5.025.2 7.386 1.218 2.552 1.101 4.613 2.808 6.218 5.069.35.492 1.74 2.649 2.648 2.61 1.298-.055 2.86-.021 4.16-.015 1.992.011 3.913.495 5.852.873.864.168 1.054-.018 1.109.687.149 1.935.273 4.654.407 6.59" fill="#313E30"/>
    <path d="M24.8124 34.604c-1.945 11.584 8.438 20.953 19.835 17.378.985 2.091 1.272 6.485.673 10.58-2.429.489-4.867.696-7.388.376-3.195-.406-6.248-1.214-9.102-2.674-4.065-2.079-7.274-5.108-9.389-9.171-1.505-2.89-2.316-5.985-2.43-9.286-.071-2.075.013-4.112.314-6.158.083-.569.27-.807.862-.893 2.204-.322 4.399-.75 6.625-.152" fill="#B4CF6B"/>
    <path d="M49.9677 32.1182c-3.796 1.131-7.172 2.878-10.075 5.51-3.123-2.505-6.493-4.445-10.298-5.557.95-3.016 4.796-5.601 8.338-6.137 2.803-.423 5.382.148 7.77 1.591 1.8 1.088 3.223 2.562 4.265 4.593" fill="#D0BC2D"/>
    <path d="M43.8822 48.458c-2.264 1.078-4.548 1.186-6.842.595-3.353-.863-6.006-2.784-7.651-5.847-.907-1.688-1.526-3.539-1.39-5.538.041-.604-.01-1.213.031-1.817.053-.752.281-.893 1.004-.685 2.738.787 5.292 1.967 7.564 3.692 2.812 2.136 5.077 4.747 6.638 7.937.132.268.256.542.366.82.093.236.161.481.28.843" fill="#869942"/>
    <path d="M45.7152 47.4507c-1.482-2.689-2.958-5.366-4.454-8.079 2.762-2.501 5.905-4.279 9.461-5.334 2.11 4.88-1.022 11.854-5.007 13.413" fill="#5A7938"/>
    <path d="M54.7831 34.334c.388-.024.678-.048.97-.06 2.072-.086 6.86.175 7.008.58.971 2.658.667 6.217.544 8.93-.072 1.616-.731 3.227-1.254 4.798-1.149 3.454-3.154 6.377-5.832 8.821-2.042 1.864-4.803 3.919-7.636 4.783-.275.13-.101-3.402-.304-5.255-.26-2.384-.855-5.055-.889-5.345-.069-.602-.092-.862.449-1.24 2.365-1.653 4.286-3.711 5.494-6.382.894-1.977 1.39-4.038 1.445-6.202.028-1.116.005-2.234.005-3.428" fill="#7FAB42"/>
    <path d="M66.1068 39.544c-.134-1.937-.257-4.395-.407-6.33-.054-.706-.245-.779-1.108-.947-1.939-.378-3.86-.862-5.853-.873-1.3-.007-3.642-.04-4.94.015-.042 0-1.518-2.118-1.867-2.61-1.606-2.261-3.667-3.968-6.219-5.069-2.361-1.019-4.786-1.473-7.385-1.218-2.733.268-5.174 1.174-7.401 2.732-2.022 1.414-3.519 3.296-4.692 5.435-.208.379-.379.518-.761.488-.13-.011-.261-.006-.39-.018-.77-.07-1.54-.203-2.31-.199-.987.004-1.973.129-2.96.18-1.644.085-3.219.459-4.769 1.005-.4.14-.525.298-.588.695-.215 1.353-.652 2.693-.697 4.047-.106 3.143-.272 6.285.414 9.418 1.023 4.669 3.144 8.722 6.444 12.14 2.736 2.835 6.065 4.845 9.734 6.188 2.076.759 4.284 1.285 6.478 1.561 1.806.228 3.644.445 5.527.174 1.568-.226 3.178-.279 4.715-.676 5.165-1.334 9.652-3.789 13.1-7.989 1.997-2.432 3.507-5.114 4.459-8.089 1.043-3.259 1.56-6.615 1.476-10.06m-54.259.398c-.45-15.18 12.871-28.436 28.131-28.371 15.531.065 28.498 12.854 28.33 28.772-.162 15.484-12.976 28.076-28.348 28.109-15.198.032-28.582-13.088-28.113-28.51" fill="#83AEA7"/>
  </g>
</svg>
