<svg width="80" height="80" viewBox="0 0 80 80" xmlns="http://www.w3.org/2000/svg">
  <title>
    edg-edgeless
  </title>
  <g fill="none" fill-rule="evenodd">
    <circle fill="#32325D" cx="40" cy="40" r="40"/>
    <g fill-rule="nonzero">
      <g fill="#32325D">
        <path d="M69.967 28.4c0-1.308-.312-2.614-.858-3.8-.86-1.88-2.182-3.637-3.988-4.694-6.763-3.924-13.54-7.813-20.303-11.735-.774-.446-1.646-.696-2.504-.933-.86-.237-3.938-.263-5.78.322-1.108.374-2.08 1.06-3.102 1.618-6.217 3.59-12.43 7.175-18.648 10.752-.81.486-1.533 1.12-2.128 1.855-1.47 1.744-2.503 3.925-2.628 6.228v23.655c0 1.582.536 3.102 1.27 4.484.897 1.596 2.118 3.076 3.75 3.974 6.687 3.85 13.378 7.712 20.065 11.56.984.56 2.08.886 3.2 1.034 2.155.263 4.448.09 6.39-.934 6.35-3.662 12.69-7.324 19.045-10.976.934-.55 1.918-1.033 2.704-1.78 1.658-1.533 2.84-3.59 3.34-5.793.222-.957.173-1.95.173-2.925v-21.91z" stroke="#FFF" stroke-width="1.5"/>
        <path d="M44.48 45.144c.86-.846 2.08-1.346 3.3-1.247 1.32.036 2.592.733 3.3 1.855 1.094 1.645.772 4.01-.636 5.37-1.444 1.38-3.924 1.546-5.48.25-1.158-.97-2.128-2.13-3.237-3.152-.013-.063-.026-.2-.036-.273.912-.935 1.856-1.856 2.79-2.803"/>
      </g>
      <g fill="#FEFEFD">
        <path d="M34.815 26.07c1.88-1.733 3.495-3.714 4.95-5.798.223.076.374.224.473.438 1.205 2.218 2.897 4.137 4.664 5.93 1.142 1.11 1.99 2.556 2.276 4.14.374 1.757-.67 3.703-2.352 4.338-1.232.474-2.66.385-3.843-.188-.223-.075-.597-.336-.732-.026.224 1.52 1.01 2.854 1.72 4.174.173.286-.162.487-.323.67-.733.673-1.357 1.473-2.152 2.082-.236-.076-.397-.3-.57-.46-.684-.712-1.407-1.397-2.09-2.12-.013-.05-.026-.175-.036-.225.758-1.346 1.717-2.666 1.963-4.226-.25-.038-.496 0-.723.097-1.254.488-2.686.6-3.954.1-1.245-.475-2.2-1.647-2.352-2.98-.124-.984.175-1.97.62-2.83.556-1.222 1.49-2.206 2.46-3.118"/>
        <path d="M27.675 41.71c1.892-1.134 4.303-1.282 6.32-.423.16.062.2.098.32.174.648.25 1.206.663 1.73 1.124 1.18 1.01 2.137 2.255 3.345 3.24 1.17-1.097 2.25-2.296 3.433-3.365 1.665-1.522 4.105-1.97 6.266-1.535 3.382.66 5.895 4.124 5.658 7.554-.112 2.17-1.205 4.312-3 5.546-1.217.836-2.66 1.432-4.153 1.396-1.964.075-3.892-.797-5.285-2.156-2.624-2.604-5.16-5.297-7.797-7.89-.772-.824-1.816-1.423-2.96-1.495-.807-.036-1.628.162-2.36.524-1.134.6-1.892 1.794-2.076 3.055-.237 1.332.25 2.777 1.254 3.69 1.555 1.484 4.28 1.47 5.795-.05.384-.323.745-.97 1.343-.71.375.222.634.598.96.884.25.286.633.523.67.948 0 .425-.385.672-.648.948-.696.724-1.504 1.333-2.45 1.71-1.83.71-3.94.723-5.757-.05-2.874-1.285-4.727-4.563-4.267-7.704.325-2.235 1.66-4.342 3.66-5.415zm16.763 3.468c-.92.948-1.865 1.856-2.785 2.804.013.063.027.2.036.273 1.106 1.02 2.075 2.183 3.23 3.154 1.555 1.31 4.03 1.135 5.473-.25 1.406-1.36 1.728-3.727.634-5.373-.696-1.123-1.977-1.82-3.294-1.857-1.216-.1-2.434.398-3.295 1.248z"/>
      </g>
    </g>
  </g>
</svg>
