<svg width="80" height="80" viewBox="0 0 80 80" xmlns="http://www.w3.org/2000/svg">
  <title>
    edo-eidoo
  </title>
  <g fill="none" fill-rule="evenodd">
    <circle fill="#FFF" cx="40" cy="40" r="40"/>
    <path d="M30.859697 65.182836l5.288788 5.32209c1.66547 1.666798 4.36544 1.666798 6.03091 0l5.31697-5.32209-8.332426-8.340448-8.304245 8.340448zM44.03174 28.266278l8.329718-8.329718 8.33774 8.33774-8.32972 8.329717zm6.264018 34.199095l19.351515-19.37015c1.665195-1.667073 1.665195-4.369642 0-6.036715l-5.31697-5.32209-22.36697 22.388507 8.332425 8.340448zm-31.23859-9.209053l22.332146-22.332145 8.33774 8.33774L27.394906 61.59406zm-8.807774-8.72244l5.31697 5.32209 8.37-8.340448-8.332425-8.340447-5.31697 5.32209c-1.67562 1.65667-1.69244 4.359275-.037578 6.036716zm38.62788-28.030298l-5.31697-5.331492c-1.66547-1.6668-4.36544-1.6668-6.03091 0L18.17788 30.54224l8.332423 8.340447 22.36697-22.379105z" fill-rule="nonzero" fill="#000"/>
  </g>
</svg>
