<svg width="80" height="80" viewBox="0 0 80 80" xmlns="http://www.w3.org/2000/svg" xmlns:xlink="http://www.w3.org/1999/xlink">
  <title>
    ela-elastos
  </title>
  <defs>
    <path id="a" d="M0 .054289h55.987675v47.864355H0z"/>
    <path id="c" d="M.066157.059439h14.052005V16.18983H.066157z"/>
    <path id="e" d="M.047571.06668h14.043203v16.12315H.04757z"/>
  </defs>
  <g fill="none" fill-rule="evenodd">
    <circle fill="#FFF" cx="40" cy="40" r="40"/>
    <g transform="translate(12 18.027092)">
      <mask id="b" fill="#fff">
        <use xlink:href="#a"/>
      </mask>
      <path d="M27.888962 8.100553h.000081v.000082c-.063662.048488-.122678.10503-.191639.144325.068961-.039295.127977-.095837.191558-.144407m-17.745968 5.854455c1.22344.712108 2.453159 1.413559 3.680023 2.11981.028448.034901.056978.069722.085427.10446.39526-.244067.785467-.49684 1.182602-.737572-.397135.240732-.787342.493505-1.182602.737573 3.468902 2.00038 6.936337 4.0032 10.407278 5.999837 1.206078.693885 2.42096 1.372393 3.631685 2.05798-.00106-5.365994-.001956-10.731987-.002853-16.097899-.021193-.00846-.037822-.022373-.051109-.040434.00318-.001301.006684-.002766.006603-.002766-.114201-.072976-.22563-.150834-.342847-.21844-4.165357-2.402848-8.330062-4.806672-12.498842-7.20358-.398928-.229342-.823615-.414183-1.23632-.619688-.052006.013505-.110288.016352-.15512.042224-1.518685.877016-3.03688 1.754928-4.553608 2.635362-2.309939 1.340746-4.6189 2.683363-6.928105 4.02541-.716017.416136-1.431464.83333-2.185222 1.272244.19767.119756.344314.211445.493729.298577 3.216047 1.876312 6.43136 3.753844 9.64928 5.626902m34.349113 11.206128c-.818806-.475037-1.648617-.931281-2.473211-1.396149-.157648.070942-.322387.12895-.471476.214454-3.530935 2.024624-7.061462 4.049899-10.58889 6.080543-.985503.567295-1.96106 1.151756-2.941264 1.728325-.026574.005451-.05111.016027-.073363.031648-.03228-.008136-.064559-.016272-.096838-.024489-.11526-.089735-.22188-.194277-.347086-.26701-1.076553-.624976-2.156612-1.243932-3.235284-1.865166-3.399453-1.958074-6.798498-3.916718-10.199744-5.87162-.068471-.039458-.161071-.036854-.242422-.053858-.063988.019851-.134498.02823-.190905.061017-1.7995 1.042902-3.597124 2.08922-5.396297 3.132773-2.336513 1.355308-4.674492 2.707932-7.010923 4.06324-.398521.231133-.792804.469424-1.223604.724882 1.645275.961383 3.229985 1.886563 4.81388 2.813044 2.0989 1.227661 4.194947 2.460204 6.296862 3.682658.897712.52198 1.807488 1.023539 2.71164 1.534373.027225.03604.05445.072081.081676.10804.422242-.25863.839837-.525233 1.26379-.780854-.423953.25562-.841548.522224-1.263708.780936 3.634375 2.095403 7.267528 4.192759 10.903697 6.284908 1.042154.599675 2.092867 1.18438 3.139505 1.775838.122923-.050767.2531-.08876.367383-.15417 1.717985-.983512 3.434422-1.969546 5.149962-2.957207 2.843936-1.63737 5.686975-3.276366 8.530422-4.914712l.006358-.010332c.109962-.047674.225875-.085098.329071-.144488 3.701217-2.131525 7.401538-4.264434 11.101124-6.398563.842282-.485857 1.681956-.97627 2.55016-1.480434-.102952-.068176-.167837-.116013-.237205-.156366-3.750533-2.181315-7.500413-4.363932-11.25331-6.54126M28.42141 24.023128c1.517136-.868555 3.031581-1.741749 4.54676-2.613722 3.007534-1.730766 6.01515-3.461695 9.022684-5.192623l.014836-.015132c.086567-.034658.179004-.059309.25897-.105438 3.840768-2.214915 7.680314-4.431539 11.520022-6.648162.722865-.417275 1.445485-.834956 2.202993-1.27257-.145584-.090956-.246009-.157668-.350102-.218197-3.727301-2.167322-7.453787-4.336108-11.183534-6.49928-.80658-.467798-1.624897-.915418-2.437753-1.372394-.19392.089247-.396157.164095-.580541.269776-3.40149 1.950427-6.802329 3.901912-10.199744 5.859336-1.079488.621884-2.148623 1.261586-3.222568 1.893152-.02535.005126-.048256.01554-.068879.031322.000897 5.365912.001794 10.731905.002853 16.097817.158463-.070535.324344-.128135.474003-.213884" fill="#F3E91B" mask="url(#b)"/>
    </g>
    <path d="M25.822055 18.081356c.412705.205505.83731.390346 1.23632.61977 4.16878 2.396827 8.333485 4.80065 12.49876 7.203498.117299.067688.228728.145464.342929.218522.000082-.000082-.011086.004474-.011086.004474-.06358.04857-.122678.105194-.191557.144488-4.068763 2.320353-8.139564 4.637126-12.206452 6.960733-.537502.307118-1.055522.648244-1.582509.973586a52.972545 52.972545 0 0 1-.085426-.104542l-.000979-16.02053m.000481 23.683673c.081351.016922.17395.014318.242422.053695 3.401246 1.954901 6.800292 3.913627 10.199744 5.87162 1.078673.621315 2.15873 1.24019 3.235203 1.865247.125286.072651.231906.177275.347167.26701-.061543.04971-.117624.109099-.185526.147824-1.046637.597153-2.095802 1.190075-3.14252 1.787065-2.975581 1.696922-5.951814 3.39246-8.92389 5.095403-.572635.328109-1.127255.687214-1.69027 1.032082-.027226-.036041-.054452-.072-.081678-.108123-.000163-5.337274-.000407-10.674549-.000652-16.011823" fill="#5EB8DC"/>
    <path d="M53.990854 34.243892c-3.007534 1.730847-6.01515 3.461857-9.022684 5.192623-1.515179.872055-3.029624 1.745085-4.54676 2.613722-.14966.08575-.31554.14335-.474003.213885-.00106-5.365912-.001956-10.731905-.002853-16.097898.020623-.015702.043529-.026116.06888-.03124.04361.031972.08461.068094.131074.095023 2.66917 1.548854 5.338014 3.09844 8.008815 4.644529 1.94435 1.125559 3.891551 2.2464 5.837531 3.369356" fill="#66B630"/>
    <g transform="translate(39.877729 49.755905)">
      <mask id="d" fill="#fff">
        <use xlink:href="#c"/>
      </mask>
      <path d="M.066157.091167C.08841.075547.112946.064971.139519.05944c.159604.101206.31603.207864.479383.302644C3.615595 2.101635 6.61188 3.842 9.6111 5.57716c1.499284.867417 3.004436 1.724745 4.507062 2.58663-2.843446 1.638265-5.686486 3.277343-8.530422 4.914712-1.71554.98758-3.431976 1.973695-5.14988 2.957126-.114364.065491-.244542.103484-.367465.15425C.068928 10.823561.067542 5.457405.066157.091167" fill="#66B630" mask="url(#d)"/>
    </g>
    <path d="M53.995867 57.919664c-1.502626-.861885-3.007697-1.719214-4.507062-2.58663-2.99922-1.73516-5.995505-3.475526-8.992198-5.215079-.163354-.09478-.31978-.201356-.479302-.302563.980204-.576569 1.955762-1.16103 2.941182-1.728244 3.527511-2.030644 7.058038-4.056 10.588891-6.080623.149089-.085424.31391-.143512.471476-.214373.002201 5.305383.00432 10.610685.00538 15.916149 0 .067037-.014346.134075-.022009.20103l-.006358.010333zm-.005013-23.675772c-1.94598-1.122956-3.893182-2.243797-5.837531-3.369356-2.6708-1.546088-5.339645-3.095675-8.008815-4.64453-.046463-.026928-.087465-.06305-.131075-.095023 1.073945-.631566 2.14308-1.271268 3.222568-1.893152 3.397415-1.957424 6.798253-3.908909 10.199744-5.859336.184384-.105763.38662-.18061.580542-.269776.003342.067525.009129.13505.009129.202576.00049 5.196691.00057 10.393464-.000326 15.590156 0 .107796-.012635.215512-.0194.323227l-.014836.015213z" fill="#F3E91B"/>
    <path d="M39.94453 26.166256c.000896 5.365993.001793 10.731987.002853 16.09798-1.210725-.685586-2.425607-1.364176-3.631686-2.05798-3.47094-1.996637-6.938375-3.999457-10.407196-5.999837.526987-.325342 1.045007-.666468 1.58251-.973586 4.066887-2.323607 8.137688-4.64038 12.20645-6.960733.06888-.039295.127896-.095918.19164-.144406.000081.000162-.000897-.007648-.000897-.007648.013857.021397.032605.036773.056326.04621" fill="#0668B2"/>
    <g transform="translate(25.857351 49.755905)">
      <mask id="f" fill="#fff">
        <use xlink:href="#e"/>
      </mask>
      <path d="M14.086535.091167c.001386 5.366238.002772 10.732394.004239 16.098712-1.046638-.591539-2.097351-1.176162-3.139505-1.775837-3.63617-2.09215-7.269322-4.189505-10.903698-6.284908.562935-.344868 1.117555-.704055 1.69019-1.032163 2.972075-1.702861 5.948308-3.398482 8.92389-5.095404 1.0468-.596908 2.095883-1.189911 3.142602-1.786983.06782-.038806.1239-.098115.185525-.147905.032198.008217.064478.016272.096757.024488" fill="#0668B2" mask="url(#f)"/>
    </g>
    <path d="M54.002242 57.909332c.007662-.066956.022008-.133994.022008-.201031-.00106-5.305464-.00326-10.610847-.00538-15.91615.824594.464787 1.654405.921031 2.473211 1.396069 3.752897 2.177329 7.502778 4.360027 11.253474 6.54126.069205.040353.13409.08819.237123.156367-.868285.504163-1.707877.994657-2.55016 1.480434-3.699668 2.134129-7.399988 4.267037-11.101205 6.398562-.103197.05939-.219028.096814-.329071.144489m.003423-23.680613c.006766-.107716.0194-.21543.0194-.323309.000897-5.196691.000816-10.393383.000327-15.590074 0-.067526-.005788-.135051-.009048-.202577.812855.456895 1.631173.904516 2.43767 1.372312 3.729747 2.163254 7.456315 4.33196 11.183535 6.499363.104174.060447.204518.12724.350102.218197-.757508.437532-1.480128.855213-2.202993 1.272488-3.839709 2.216623-7.679255 4.433247-11.519942 6.648162-.080046.04613-.172483.07078-.25905.105438" fill="#B2CF03"/>
    <path d="M25.822536 41.765028c.000245 5.337274.00049 10.674549.000652 16.011823-.904151-.510833-1.813927-1.012393-2.711639-1.534372-2.101915-1.222373-4.197962-2.454997-6.296861-3.682577-1.583896-.926481-3.168606-1.85166-4.813881-2.813125.4308-.255376.825083-.49375 1.223604-.724881 2.33643-1.355227 4.67441-2.707933 7.010923-4.06316 1.799173-1.043552 3.596798-2.089952 5.396297-3.132854.056407-.032705.126917-.041166.190905-.060854m-.000481-23.683672l.000979 16.020529c-1.226865-.70617-2.456583-1.40762-3.680024-2.11973-3.217921-1.873057-6.433234-3.75067-9.64928-5.6269-.149416-.087133-.296059-.178902-.49373-.298658.753758-.438834 1.469205-.856028 2.185223-1.272163 2.309205-1.342129 4.618166-2.684665 6.928023-4.025492 1.51681-.880352 3.034923-1.758345 4.553689-2.635281.044832-.025953.103115-.028719.15512-.042305" fill="#1E3791"/>
  </g>
</svg>
