<svg width="80" height="80" viewBox="0 0 80 80" xmlns="http://www.w3.org/2000/svg">
  <title>
    elf-aelf
  </title>
  <g fill="none" fill-rule="evenodd">
    <circle fill="#FFF" cx="40" cy="40" r="40"/>
    <path d="M58.38942 51.574465c-6.442146-.058595-11.567541-5.309838-11.472277-11.754378.094835-6.409946 5.353686-11.594595 11.651004-11.486487 6.391295.109838 11.526989 5.380757 11.417992 11.718487-.11157 6.496216-5.228597 11.580324-11.59672 11.522378m-35.633637 10.55734c-3.581425.005838-6.70734-2.091892-7.956505-5.339243-1.29036-3.355243-.45787-7.111135 2.106544-9.503135 2.606682-2.431784 6.314268-2.913081 9.580935-1.45427 1.909364.852756 3.936735 1.444108 5.92849 2.099243 1.045977.344216 2.046896.064 2.968858-.496649 1.48754-.904865 2.76889-1.987891 3.566406-3.618378.839142-1.715676 2.650667-2.350919 4.36285-1.666162 1.566714.62681 2.416583 2.416216 1.94069 4.087135-.505287 1.774703-2.103325 2.742919-3.996168 2.409297-.595831-.10508-1.183295-.259027-1.77977-.359351-3.326743-.558919-5.600858 1.006919-7.120582 3.795243-.660414 1.211892-1.047265 2.589622-1.455142 3.924108-1.135663 3.714595-4.294192 6.115892-8.146606 6.122162m-.188469-44.144756c3.685702.00627 6.759265 2.223135 8.039112 5.70508.506574 1.378163 1.147678 2.70919 1.775264 4.038703 1.66777 3.533406 4.921134 4.220108 8.43905 3.150054 2.085946-.634378 4.152153.396325 4.58256 2.425082.35531 1.674162-.420537 3.238486-1.937472 3.90573-1.48282.652324-3.220537.146594-4.179188-1.21838-.35016-.498161-.668996-1.02162-1.049195-1.495134-2.112552-2.632865-4.603801-3.394162-7.801594-2.270703-1.168705.410595-2.292996.996973-3.366651 1.625946-3.769594 2.208865-8.325548 1.496432-11.060966-1.78573-2.711387-3.253189-2.68843-7.872865.13646-11.179027 1.67056-1.95481 3.838682-2.933405 6.42262-2.901621M37.94487 62.22681c.01266-3.154594 2.594453-5.763675 5.649135-5.708972 3.13128.056 5.664582 2.65946 5.604076 5.759784-.06072 3.119783-2.559479 5.629405-5.608797 5.633297-3.123984.003892-5.657072-2.54681-5.644413-5.684108m.001159-44.361903c-.00043-3.082378 2.51721-5.633081 5.57554-5.648649 3.105103-.016 5.688827 2.564973 5.676812 5.670703-.012016 3.166054-2.522146 5.713081-5.642698 5.725838-3.077854.012757-5.609226-2.580973-5.609655-5.747892" fill="#275BBD"/>
  </g>
</svg>
