<svg width="80" height="80" viewBox="0 0 80 80" xmlns="http://www.w3.org/2000/svg">
  <title>
    elix-elixir
  </title>
  <g fill="none" fill-rule="evenodd">
    <circle fill="#FFF" cx="40" cy="40" r="40"/>
    <g fill-rule="nonzero">
      <path fill="#99DEF8" d="M23.282451 62.809143l.005388-.012857 9.297912-22.847715-9.3033-22.846 17.16627 22.846L23.294079 62.79343l-.011627.015714m34.347571-.000001l-.011628-.015714-17.15436-22.844858 17.165987-22.846-9.3033 22.846 9.298196 22.847715.005105.012857"/>
      <path fill="#00ADED" d="M57.633993 17.091143L40.456095 39.952286V24.021143l17.177898-6.93"/>
      <path fill="#295BA7" d="M23.278197 17.091143l17.177898 6.93v15.931143L23.278197 17.091143m34.355796.008286L40.456095 24.044V10.068571l17.177898 7.030858"/>
      <path fill="#1F4079" d="M23.278197 17.099429l17.177898-7.030858V24.044l-17.177898-6.944571"/>
      <path fill="#00ADED" d="M23.278197 62.8l17.177898-22.861143V55.87L23.278197 62.8"/>
      <path fill="#295BA7" d="M57.633993 62.8l-17.177898-6.93V39.938857L57.633993 62.8m-34.355796-.008286l17.177898-6.944285v13.975428l-17.177898-7.031143"/>
      <path fill="#1F4079" d="M57.633993 62.791714l-17.177898 7.031143V55.84743l17.177898 6.944285"/>
    </g>
  </g>
</svg>
