<svg width="80" height="80" xmlns="http://www.w3.org/2000/svg">
  <g fill="none" fill-rule="evenodd">
    <circle fill="#000" cx="40" cy="40" r="40"/>
    <g fill="#FFF">
      <path d="M42.152853 37.028618c-.099696 1.133772-.274518 2.154126-.255229 3.171038.019087 1.012455.23269 2.021063.358985 3.015088-.034924.038279-.054416.068253-.081827.086684-.025381.017012-.059087.030987-.089137.030987-3.889746.001215-7.779493.001013-11.662944.001013-.172183.728709-.211168 4.779544-.058072 6.305823h15.338884c1.04.849822 2.045482 1.67129 3.045279 2.488303v3.922836H30.354883c-.142944.98876-.04731 1.925063-.06538 2.855696-.017462.910785-.003655 1.821975-.003655 2.795544-.141726.077367-.307005.245266-.473706.246684-1.923046.018633-3.846091.01195-5.661117.01195-.443654-.264912-.330558-.597672-.33198-.88628-.007715-1.618632-.003654-3.237468-.003654-4.9361-1.04731-.100051-2.084873-.035241-3.118579-.046988-1.01462-.011747-2.029644-.002633-3.034924-.002633-.03472-.028962-.062944-.04719-.08406-.071898-.020508-.023697-.048122-.053671-.048122-.081013-.002234-2.058127-.00203-4.116456-.00203-6.238987 1.027207-.121722 2.065177-.038684 3.098273-.053671 1.040406-.01519 2.081219-.003443 3.154924-.003443v-6.269773H12.650518c-.596751-.585924-1.101523-1.081924-1.622538-1.593721v-3.328405c.45868-.420456.928325-.85124 1.515533-1.389772h11.139289c.046294-.051443.073909-.073924.090152-.102684.015432-.027544.0266-.061772.0266-.093164.001218-1.989064.001218-3.977924.001218-6.028557-1.03594-.13205-2.075127-.042532-3.109036-.05914-1.01462-.016202-2.029645-.003443-3.14538-.003443-.06396-1.065924-.019493-2.131848-.027615-3.195341-.007919-1.045671-.001827-2.091747-.001827-3.20081 1.036548-.123342 2.074924-.039494 3.10863-.054684 1.040608-.015392 2.081624-.003443 3.189847-.003443v-3.899747c0-.607392-.014416-1.215392.008934-1.821975.006903-.178025.120406-.352.181523-.518683h6.28406v6.229873h18.434315v3.511494c-1.07208.921519-2.183147 1.87686-3.367715 2.89519-2.34802.129418-4.819899.038278-7.290559.05448-2.469644.016203-4.93929.003039-7.408934.00547-.095634 0-.191472.027949-.328325.049417v6.206785h11.824163z"/>
      <path d="M68.690761 39.65519c.07858 3.50319-1.061522 6.264101-3.370761 8.55757-2.301523 2.285974-5.118173 3.388354-8.32061 3.410025-3.185989.02167-5.991268-1.142886-8.227816-3.38086-2.25726-2.259039-3.476143-5.064305-3.428224-8.292254.04731-3.194937 1.152488-5.996962 3.457462-8.282127 2.339493-2.319595 5.127716-3.368911 8.446498-3.349468 3.221929.019038 5.913705 1.178532 8.117563 3.380456 2.231675 2.22967 3.475127 4.960202 3.325888 7.956658"/>
    </g>
  </g>
</svg>
