<svg width="80" height="80" viewBox="0 0 80 80" xmlns="http://www.w3.org/2000/svg">
  <title>
    emc2-einsteinium
  </title>
  <g fill="none" fill-rule="evenodd">
    <circle fill="#000" cx="40" cy="40" r="40"/>
    <path d="M38.73348 31.1207c-3.946413.012047-7.892585.034216-11.838997.028433-.909126-.001446-1.000134-.178314-.550122-.979278 1.7239-3.06795 3.45186-6.133735 5.21958-9.175903.1837-.315904.64137-.666988.97403-.669157 3.98473-.025783 7.9697.011566 11.95443.03253-.07041.226024-.10538.471808-.21698.67494-1.36608 2.48482-2.75372 4.95783-4.1119 7.446747-.43444.796145-.79896 1.630843-1.19532 2.447952l-.2347.193735zM24.843537 59.881855c-4.140164.016145-8.280567.033494-12.42073.044338-.112325.00024-.224648-.06771-.42271-.130844.090768-.25928.142738-.52314.267755-.74555 1.725807-3.06265 3.446824-6.12844 5.2155-9.16603.20429-.3506.68448-.76217 1.04013-.76554 3.940904-.03615 7.882526.00241 11.824147.02072-.07736.30096-.09796.63301-.24094.89831-1.01618 1.88385-2.07164 3.74626-3.08543 5.63156-.74867 1.39181-1.4535 2.80795-2.17774 4.21301m6.91965-14.341567c-4.020418-.0094-8.040834-.017835-12.06101-.033498-.10969-.00024-.21914-.07783-.43732-.16048.116635-.29566.19615-.593737.34248-.853737 1.684852-2.99277 3.365155-5.98795 5.090962-8.956624.20836-.35807.6737-.80024 1.023846-.80386 3.936835-.038794 7.874625.000965 11.811936.01952-.22776.62024-.386308 1.278313-.695497 1.854216-1.57804 2.93904-3.19511 5.85687-4.79854 8.78193-.0922.050843-.18465.101687-.276853.15253" fill="#0174B1"/>
    <path d="M56.473364 20.359084c.55036-.038072 1.100483-.10723 1.651084-.109156 3.105542-.011326 6.211323-.011808 9.316865-.001687.462227.00145.924215.07784 1.366803.11784.01461.19735.05245.29181.021555.34795-1.81346 3.28627-3.62117 6.57591-5.47128 9.84097-.16262.28675-.6064.5841-.92062.58554-3.89923.01615-7.79846-.02192-11.69769-.04602 1.45039-2.57421 2.92209-5.13638 4.34038-7.72843.52881-.96674.93236-2.00265 1.39291-3.00698" fill="#04CAFD"/>
    <path d="M49.75462 34.768554c.751538-.039518 1.502837-.109397 2.254614-.11277 2.99274-.013013 5.98548-.01229 8.978458-.00193 1.14431.004098 1.252563.170604.718008 1.138074-1.645815 2.976867-3.317256 5.939277-4.960197 8.91759-.291227.528193-.601374.889398-1.274357.8853-3.710988-.021686-7.421975-.011806-11.132962-.018794-.112563-.00024-.224887-.066988-.33721-.102892 1.233642-2.183373 2.494348-4.35229 3.691827-6.555903.73693-1.35567 1.37782-2.76386 2.06182-4.14868" fill="#05CBFE"/>
    <path d="M49.75462 34.768554c-.684 1.38482-1.32489 2.793012-2.06182 4.148675-1.197478 2.20361-2.458184 4.37253-3.691826 6.5559-2.818147.03542-5.635816.07735-8.453723.10241-1.15149.01036-2.30299-.01518-3.45472-.02458-.00766-.05783-.02514-.11205-.05245-.16314 1.60343-2.9253 3.2205-5.84289 4.79854-8.78193.30919-.57591.4675-1.23422.6955-1.85422 2.17582-.03181 4.3514-.08868 6.52722-.08771 1.89777.00096 3.79553.06723 5.6933.10457" fill="#05A1D2"/>
    <path d="M42.55255 49.146964c3.86283-.022892 7.725896-.049398 11.588963-.059518.212912-.000482.426063.136867.76543.253735-.677056 1.22265-1.310762 2.3682-1.945905 3.51278-1.16371 2.09663-2.333886 4.18964-3.488256 6.29157-.264164.48048-.534315.81615-1.176643.80844-3.82403-.04626-7.64854-.04964-11.47281-.06747 1.17592-2.12578 2.37149-4.24072 3.52083-6.38096.77022-1.43422 1.47457-2.90458 2.20839-4.358553" fill="#02CAFE"/>
    <path d="M42.55255 49.146964c-.733814 1.453976-1.43817 2.924337-2.20839 4.358554-1.14934 2.14024-2.344903 4.25518-3.520828 6.380964-3.993353-.001446-7.986466-.002892-11.97982-.004578.724476-1.40506 1.429072-2.821205 2.177736-4.213253 1.013786-1.88506 2.069483-3.74747 3.085425-5.63156.14298-.26506.163575-.59711.240932-.89807 4.068316.00289 8.13663.0053 12.204946.00795" fill="#03A1D1"/>
    <path d="M56.473364 20.359084c-.46055 1.004338-.8641 2.04024-1.392908 3.006988-1.418294 2.592048-2.889995 5.154217-4.340382 7.728434-3.9136.010843-7.827202.021928-11.740563.03277.00527-.069396-.00502-.136143-.03137-.20048.39637-.816868.76088-1.651808 1.19533-2.447712 1.35818-2.489156 2.74582-4.962168 4.11191-7.446988.11161-.20289.14657-.448915.21723-.67494 3.99359.000724 7.987187.001446 11.98078.001928" fill="#00A0D1"/>
  </g>
</svg>
