<svg width="80" height="80" viewBox="0 0 80 80" xmlns="http://www.w3.org/2000/svg">
  <title>
    eng-enigma
  </title>
  <g fill="none" fill-rule="evenodd">
    <circle fill="#FFF" cx="40" cy="40" r="40"/>
    <path d="M40 68.442308V40.183452" stroke="#2B2B2B" stroke-width=".740741" stroke-linecap="round" stroke-linejoin="round"/>
    <path d="M40 11.428158L15.37037 25.713344v28.573312L40 68.571842l24.62963-14.285186V25.713344L40 11.428158z" stroke="#2B2B2B" stroke-width=".740741"/>
    <path d="M40 25.92808l-12.29926 7.12829v14.259053L40 54.443716l12.29926-7.128293V33.05637L40 25.92808z" stroke="#2B2B2B" stroke-width=".740741"/>
    <path d="M15.37037 25.871795L39.953432 40.30517m24.444445-14.433375L39.814815 40.30517" stroke="#2B2B2B" stroke-width=".740741" stroke-linecap="round" stroke-linejoin="round"/>
    <path d="M40 15.461538c-.306825 0-.555556-.249687-.555556-.557692s.24873-.557692.555556-.557692c.306825 0 .555556.249687.555556.557692s-.24873.557692-.555556.557692zm0 4.089744c-.306825 0-.555556-.249687-.555556-.557692s.24873-.557693.555556-.557693c.306825 0 .555556.249688.555556.557693s-.24873.557692-.555556.557692zm0 4.089744c-.306825 0-.555556-.249688-.555556-.557693s.24873-.557692.555556-.557692c.306825 0 .555556.24969.555556.557697s-.24873.557693-.555556.557693zM24.526757 49.201923c-.153412-.265718-.061542-.60597.205198-.75997.26674-.154004.60734-.06344.760754.202278.15341.26572.06154.60597-.2052.759976s-.60734.06344-.760757-.20228zm-3.52825 2.044872c-.153414-.265718-.061543-.60597.205197-.75997.26674-.154004.60734-.06344.760753.202278.153413.265718.061542.605968-.205198.75997-.26674.154003-.607346.06344-.760758-.202278zm-3.528253 2.044872c-.153412-.265718-.061542-.60597.205198-.759972.26674-.154002.60734-.06344.760754.20228.153412.265718.061542.605968-.205198.75997-.26674.154003-.60734.06344-.760754-.202278zm37.632618-4.46154c-.153412.26572-.494013.356283-.760753.20228-.26674-.154002-.358616-.494253-.2052-.75997.15341-.26572.49401-.356283.76075-.20228.26674.154002.35861.494253.2052.75997zM58.631124 50.875c-.153413.265718-.494014.356282-.760754.20228-.26674-.154003-.35861-.494254-.205198-.759972.153413-.265718.494014-.356282.760754-.20228.26674.154003.35861.494254.205198.759972zm3.528252 2.044872c-.153413.265718-.494014.35628-.760754.20228-.26674-.154004-.35861-.494254-.205198-.759972.153413-.26572.494014-.356282.760754-.20228.26674.154003.35861.494254.205198.759972z" fill="#2B2B2B"/>
  </g>
</svg>
