<svg width="80" height="80" viewBox="0 0 80 80" xmlns="http://www.w3.org/2000/svg" xmlns:xlink="http://www.w3.org/1999/xlink">
  <title>
    enj-enjin-coin
  </title>
  <defs>
    <path id="a" d="M0 0h56v52H0z"/>
  </defs>
  <g fill="none" fill-rule="evenodd">
    <circle fill="#6248C2" cx="40" cy="40" r="40"/>
    <g transform="translate(8 14)">
      <mask id="b" fill="#fff">
        <use xlink:href="#a"/>
      </mask>
      <path d="M14.865243 21.407537h.913952c10.7675 0 21.534999-.001278 32.302499.001023 2.530585.000512 4.224607 1.326285 4.819204 3.7538.58789 2.39964-1.527895 5.209236-4.016691 5.329435-.428988.020972-.859265.029155-1.288768.029155-10.59544.001535-21.191138.001279-31.786579.001279h-.930203c.053656.269553.06191.475427.135171.65547 1.688863 4.15634 4.718085 6.701753 9.200652 7.470774.630454.108179 1.280254.148075 1.921027.149098 7.350564.01023 14.70087.031712 22.050918-.006394 2.624225-.013554 4.762196 1.97792 4.787218 4.569878.024506 2.513189-2.038398 4.585221-4.63657 4.593405-7.586339.023784-15.174484.097438-22.759534-.015856-8.892648-.13222-16.570563-5.767267-19.47003-14.09964-.732349-2.104256-1.11413-4.280376-1.107422-6.513782.006449-2.127529-.05185-4.250965.36037-6.365195.91782-4.707467 3.172131-8.648728 6.796724-11.796672 3.990122-3.46481 8.67493-5.157064 13.97652-5.160388 7.393385-.00486 14.786513-.002814 22.179899 0 2.332988.000767 4.198811 1.589444 4.625219 3.92259.367592 2.011166-.958837 4.215417-3.03335 4.931499-.575766.198712-1.217054.295383-1.828419.296918-7.414796.019692-14.829592.011764-22.244388.013043-4.840874.000767-9.354138 3.211624-10.8939 7.750812-.038952.114829-.03792.242956-.073519.489748" fill="#FFF" mask="url(#b)"/>
    </g>
  </g>
</svg>
