<svg width="80" height="80" viewBox="0 0 80 80" xmlns="http://www.w3.org/2000/svg">
  <title>
    enrg-energycoin
  </title>
  <defs>
    <radialGradient cx="40.698242%" cy="22.099609%" fx="40.698242%" fy="22.099609%" r="73.505925%" id="a">
      <stop stop-color="#FFF400" offset="0%"/>
      <stop stop-color="#DDEB17" offset="30.933115%"/>
      <stop stop-color="#00AEAD" offset="100%"/>
    </radialGradient>
  </defs>
  <g fill="none" fill-rule="evenodd">
    <circle fill="url(#a)" cx="40" cy="40" r="40"/>
    <path d="M12.7137 23.078024c2.867112-4.52462 6.560403-8.1741 11.161843-10.86393 3.74288-2.188037 7.769418-3.506567 12.053895-3.992776 6.70658-.761146 13.059927.43926 19.0408 3.627883 2.542746 1.60737 5.05126 3.25868 6.929546 5.34023-.707017.84509-1.335024 1.59591-1.95785 2.34072-.65854-.55175-1.24769-1.04547-1.837024-1.53938-2.078124-1.94352-4.491345-3.36158-7.058885-4.49833-5.063657-2.24174-10.390248-2.90918-15.798995-2.01075-9.153477 1.52042-16.075436 6.43659-20.623772 14.69877-2.596035 4.61946-3.718085 9.59235-3.468844 14.89445.114907 1.23741.15728 2.4872.358043 3.70995.642255 3.91202 1.983755 7.55718 4.20528 10.84459.836172 1.15421 1.556512 2.42185 2.526648 3.44516 8.550635 9.01938 18.746965 11.82978 30.568457 8.09072 3.592817-1.13637 6.740255-3.13923 9.475437-5.63676-1.64626-1.70408-3.25569-3.37022-4.89787-5.07036-.14007.1063-.30957.23174-.47591.36132-6.32763 4.93327-13.28105 6.08278-20.81047 3.45361-4.01747-1.40304-7.18952-4.02639-9.81035-7.37483-2.23892-3.21116-3.57358-6.78176-4.11702-10.66674-.21316-3.82357.2683-7.53389 1.7545-11.08027.21575-.43043.42391-.86481.64799-1.29055 2.57734-4.89589 6.46788-8.37842 11.54782-10.26711 4.84624-1.80173 9.82589-1.79516 14.73763.03306 3.44738 1.28285 6.34243 3.36065 8.95493 6.316966-1.92381 1.86915-3.81542 3.70732-5.70702 5.5453-.66243.6449-1.33854 1.27646-1.98542 1.937135-3.22109 3.290595-6.43421 6.588893-9.6503 9.884373-1.45197 1.591964-2.90375 3.183928-4.3881 4.811574-.957-1.01599-1.64792-1.74934-2.35605-2.501285.70054-.74405 1.43901-1.5283 2.176742-2.31198.48812-.47137.990306-.929222 1.462884-1.416933 2.154912-2.22372 4.29114-4.46584 6.454376-6.681108 1.401827-1.43553 2.83843-2.836127 4.259316-4.252313 1.638296-1.76117 3.276776-3.52253 4.927656-5.29741.023314.024977-.05477-.071926-.145993-.153243-.138775-.123193-.283472-.24057-.4315-.35231-3.431096-2.59349-7.287217-3.88836-11.560406-3.673703-6.84091.343296-11.96193 3.59145-15.356202 9.63404-2.192106 3.91315-2.76775 8.07607-1.87033 12.46679.964214 5.03036 3.5745 8.93975 7.777374 11.76461 2.26112 1.606425 4.78222 2.54842 7.49927 2.93641 4.69229.670065 8.98176-.43043 12.88932-3.12421 1.22641-1.03101 2.45263-2.061833 3.71031-3.119324.262196.21935.56232.470435.86245.72152 2.857862 2.79706 5.715535 5.594315 8.61207 8.429313-1.97691 2.25771-3.94309 4.044985-6.19052 5.45854-10.54845 6.63359-21.40721 7.12994-32.413067 1.31609-6.297837-3.32703-10.74644-8.53204-13.72494-15.04845-2.3094-5.54136-3.15353-11.292863-2.4071-17.27273.06624-.366206.13785-.731473.197986-1.098806.671305-4.10752 2.185073-7.892965 4.251354-11.467514" fill="#FDFEFD"/>
  </g>
</svg>
