<svg width="80" height="80" xmlns="http://www.w3.org/2000/svg">
  <defs>
    <linearGradient x1="1.566397%" y1="1.42093%" x2="97.39085%" y2="94.545353%" id="a">
      <stop stop-color="#3BA3F8" offset="0%"/>
      <stop stop-color="#0544A4" offset="100%"/>
    </linearGradient>
  </defs>
  <g fill="none" fill-rule="evenodd">
    <circle fill="#FFF" cx="40" cy="40" r="40"/>
    <path d="M57.475128 60.890531c-1.83188.049433-3.510686-1.52406-3.546268-3.32394-.037015-1.886806 1.52382-3.427582 3.508298-3.462209 1.822567-.031761 3.274269 1.449552 3.294806 3.36191.019582 1.818747-1.461015 3.375762-3.256836 3.42424m-17.558686-3.13218c-9.652776.002627-17.659224-7.974686-17.670926-17.606448-.012179-9.814686 7.857672-17.818507 17.562747-17.861492 9.770507-.043463 17.77576 7.943642 17.789612 17.749492.013612 9.728717-7.957015 17.71606-17.681433 17.718448m-20.69588-35.060298c.01576-1.79988 1.55988-3.308657 3.386029-3.309135 1.845731-.000477 3.288836 1.472956 3.282388 3.350926-.006448 1.901373-1.426866 3.318448-3.318686 3.311045-1.794389-.006687-3.365254-1.579224-3.349732-3.352836m44.54806 15.122865c-.082627-5.315104-1.931463-10.054209-5.45409-14.05779-4.55188-5.173254-10.388776-7.636538-17.21576-7.715344-6.883822-.079522-13.769553-.042269-20.65409-.012657-2.790448.01194-4.431762 1.713672-4.434866 4.506269-.00812 7.163224-.022687 14.326687.013373 21.48991.060657 12.018389 10.214687 21.917851 22.03415 21.799403 3.263044-.032955 6.526567-.005015 9.78985-.005015v-.018149c3.90018 0 7.80012.012657 11.700299-.004298 2.545671-.010985 3.89588-1.246806 4.174806-3.779105.05206-.473074.061134-.953074.061611-1.429731.006687-6.924657.092418-13.850507-.015283-20.773493m-23.826388-9.187104c-6.292538-.011702-11.427821 5.088955-11.427105 11.349254.000717 6.222328 5.087762 11.33779 11.297433 11.361194 6.313552.02388 11.395582-5.036657 11.39821-11.35021.002626-6.26985-5.035463-11.349014-11.268538-11.360238" fill="url(#a)"/>
  </g>
</svg>
