<svg width="80" height="80" viewBox="0 0 80 80" xmlns="http://www.w3.org/2000/svg">
  <title>
    ethos-ethos
  </title>
  <g fill="none" fill-rule="evenodd">
    <circle fill="#000" cx="40" cy="40" r="40"/>
    <g fill-rule="nonzero">
      <path d="M44.766993 22.436923c-2.204695-5.22543-6.86539-9.010951-12.431843-10.09742-5.566452-1.086468-11.30857.668617-15.316409 4.681476-2.392447 2.393007-2.391888 6.273846 0 8.666853s6.271888 2.392448 8.664336 0a4.79916 4.79916 0 0 1 1.523077-1.028531c1.191222-.498188 2.532414-.498188 3.723636 0 .856968.365064 1.590232.969916 2.111609 1.741818.53416.78888.817854 1.720582.813986 2.673287 0 3.384615 2.743216 6.127832 6.125874 6.127832 3.382657 0 6.125874-2.743497 6.125874-6.127832a17.019301 17.019301 0 0 0-1.34014-6.637483z" fill="#00FFBA"/>
      <path d="M39.982098 44.798322c-3.384615 0-6.125874 2.744056-6.125874 6.128671a4.758042 4.758042 0 0 1-.373707 1.861538c-.364476.85731-.96921 1.590859-1.741258 2.112168a4.714962 4.714962 0 0 1-1.246713.60028c-1.727598.540252-3.612151.057417-4.867133-1.246993l-.003357-.003636a4.787972 4.787972 0 0 1-.984336-1.501818c-.481734-1.18177-.4758-2.506232.016504-3.683637.364656-.857425.969334-1.591198 1.741258-2.113007.788907-.533481 1.7201-.817206 2.672448-.814266 3.384615 0 6.125874-2.743216 6.125874-6.127832 0-3.384615-2.743217-6.128391-6.125874-6.128391-6.838654-.00147-13.015941 4.084903-15.689902 10.379117-2.67396 6.294214-1.326708 13.577224 3.42193 18.498365 4.8226 5.005416 12.2023 6.579385 18.647476 3.9772 6.445176-2.602185 10.663382-8.85871 10.658818-15.809368.00056-3.384335-2.742658-6.128391-6.126154-6.128391m26.113007-23.507133c-1.19114-2.317306-2.896423-4.331537-4.985455-5.888672-.004196-.003356-.007832-.006993-.012307-.01007-5.169798-3.845595-12.066734-4.445794-17.823104-1.551038-5.75637 2.894757-9.387292 8.789193-9.38305 15.232437 0 3.384615 2.743217 6.127832 6.125874 6.127832 3.382657 0 6.125874-2.743217 6.125874-6.127832a4.755244 4.755244 0 0 1 .374545-1.862378c.364463-.857318.9692-1.59087 1.74126-2.112167a4.715522 4.715522 0 0 1 1.246153-.6c1.459758-.45642 3.049814-.18602 4.276643.727272a4.835525 4.835525 0 0 1 1.412588 1.666014c.640718 1.260546.695434 2.738897.14965 4.043357-.364683.857184-.969372 1.59068-1.741259 2.112168a4.724756 4.724756 0 0 1-1.246713.60028 4.786853 4.786853 0 0 1-1.426573.214545c-3.384616 0-6.125874 2.743497-6.125874 6.127832 0 3.384336 2.743216 6.128672 6.125874 6.128672 5.938416-.002627 11.447707-3.094767 14.543262-8.162542 3.095555-5.067774 3.331414-11.381092.622612-16.66571z" fill="#00CFAB"/>
      <path d="M66.62937 44.29007c-2.662682-6.311734-8.84863-10.413104-15.69902-10.408672-3.384616 0-6.125874 2.743217-6.125874 6.127833 0 3.384615 2.743216 6.128391 6.125874 6.128391a4.742935 4.742935 0 0 1 1.861818.373707c.856976.36505 1.590243.969905 2.111608 1.741818.892455 1.331693 1.0626 3.02055.453707 4.503496a4.80923 4.80923 0 0 1-.992168 1.506014 4.8193 4.8193 0 0 1-1.5407 1.065455c-1.19866.51174-2.553365.516785-3.755804.013986-.856951-.365092-1.590208-.969938-2.111608-1.741818-.533386-.78925-.817004-1.720708-.813986-2.673287 0-3.384616-2.743217-6.128392-6.125874-6.128392-3.382658 0-6.125874 2.744056-6.125874 6.128392-.00653 6.9399 4.197561 13.19 10.627896 15.800184 6.430335 2.610184 13.80127 1.058586 18.633642-3.922422h.001399c4.768846-4.915004 6.13708-12.204986 3.474965-18.514685zM29.068252 33.862377a4.741537 4.741537 0 0 1-1.861818-.373706c-.856985-.365036-1.590256-.969895-2.111609-1.741818-1.282425-1.899236-1.035956-4.441497.587413-6.059021 2.393007-2.393287 2.393007-6.273846 0-8.666853s-6.271888-2.393846-8.664336 0c-4.87958 4.872837-6.341198 12.20629-3.70266 18.57755 2.638538 6.371262 8.857008 10.52415 15.75301 10.520352 3.384615 0 6.125874-2.743497 6.125874-6.127832 0-3.384336-2.742378-6.128672-6.125874-6.128672z" fill="#00FFBA"/>
    </g>
  </g>
</svg>
