<svg width="80" height="80" xmlns="http://www.w3.org/2000/svg">
  <g fill="none" fill-rule="evenodd">
    <circle fill="#FFF" cx="40" cy="40" r="40"/>
    <path d="M29.443562 48.1287c-2.734332-2.071764-5.38508-4.08-8.108664-6.143262 3.545455-1.813636 6.995936-3.578663 10.550214-5.39663a330839.70334 330839.70334 0 0 1-5.785989-4.016631c4.60845-2.379947 9.105401-4.704225 13.604118-7.025134 4.517968-2.330856 9.0377-4.658343 13.59385-7.006524-8.59107-5.755027-22.590802-5.66631-31.735027 4.11-9.439732 10.092032-8.671925 25.07278-.342353 34.137112 2.720856-2.86476 5.438824-5.726631 8.22385-8.65893m29.212733-8.944316a310350.393366 310350.393366 0 0 1-10.552139 5.39615c1.978075 1.37246 3.845936 2.668556 5.790481 4.017754-8.731123 4.50385-17.349786 8.949465-25.992834 13.407914 7.971177 4.839786 21.97893 4.976952 31.10984-5.450053 8.994064-10.27075 7.529358-24.677808.329198-32.777327-2.91738 3.073637-5.831712 6.144225-8.791926 9.262781 2.708663 2.052193 5.361016 4.061872 8.10738 6.142781" fill="#FBFCFC"/>
    <path d="M17.647882 64.1157c.065455.103316.130749.20631.196204.309626 10.40246-5.345615 20.796096-10.708716 31.287754-16.13599-1.940054-1.39139-3.722567-2.669678-5.550482-3.980534 3.44615-2.079465 6.986952-3.631604 10.449626-5.548396-2.417647-1.83417-4.7623-3.613155-7.13599-5.414117 5.16-5.443957 10.247648-10.811712 15.335295-16.179754-.871444-.076075-30.428663 15.042641-31.234813 15.810449 1.850374 1.29 3.691123 2.573102 5.641765 3.933048-3.636738 1.861604-7.114172 3.641872-10.706792 5.481016 2.457273 1.865294 4.783155 3.631123 7.16631 5.440267-5.211497 5.49337-10.330107 10.888877-15.448877 16.284385" fill="#FBFCFC"/>
    <path d="M19.714096 58.492818c-9.543048-10.697647-9.33-25.896417-.931604-36.020053 4.247968-5.120695 9.656952-8.381872 16.202406-9.565348 7.454439-1.347593 14.367594.166364 20.668877 4.423476.802942-.42016 1.588717-.831176 2.420214-1.266257-12.186738-9.43123-31.440962-8.11524-41.935187 5.726792-9.94861 13.122353-6.676524 29.855294 1.787968 38.243101.586203-.505668 1.171604-1.010534 1.787326-1.54171m3.26769 6.053566c11.755187 8.34353 29.42968 7.257433 40.051284-5.473315 10.270106-12.309466 8.344331-29.150375-.447594-38.710107-.544973.577219-1.0877 1.152032-1.625776 1.72171 9.638343 11.51968 7.853102 27.093851-.63048 36.33738-8.688931 9.467487-23.090215 12.055348-34.879252 4.845402-.794439.411818-1.598824.828288-2.468182 1.27893" fill="#FBFCFC"/>
    <path d="M29.443562 48.1287c-2.785027 2.9323-5.502995 5.794172-8.22385 8.658931-8.329573-9.064331-9.09738-24.04508.342352-34.137112 9.144225-9.77631 23.143957-9.865027 31.735027-4.11-4.55615 2.348182-9.075882 4.675668-13.59385 7.006524-4.498717 2.320909-8.995669 4.645187-13.604118 7.025134a330839.70334 330839.70334 0 0 0 5.78599 4.01663c-3.554279 1.817968-7.00476 3.582995-10.550215 5.396631a120453.362392 120453.362392 0 0 1 8.108664 6.143262m29.212732-8.944315c-2.746364-2.08091-5.398717-4.090588-8.10738-6.14278 2.960214-3.118557 5.874546-6.189145 8.791926-9.262781 7.20016 8.099518 8.664866 22.506577-.329198 32.777326-9.13091 10.427005-23.138663 10.28984-31.10984 5.450053 8.643048-4.458449 17.261711-8.904064 25.992834-13.407914-1.944545-1.349198-3.812406-2.645294-5.79048-4.017754a310350.393366 310350.393366 0 0 0 10.552138-5.39615" fill="#0A1C27"/>
    <path d="M17.80831 64.1157c5.11877-5.395508 10.076952-10.791016 15.28845-16.284385-2.383156-1.809144-4.709038-3.574973-7.16631-5.440267 3.59262-1.839144 7.070053-3.619412 10.70679-5.481016-1.950641-1.359946-3.79139-2.643048-5.641764-3.933048.80615-.767807 30.363369-15.886524 31.234813-15.810449-5.087647 5.368042-10.175294 10.735797-15.335294 16.179754 2.37369 1.800962 4.718342 3.579946 7.135989 5.414117-3.462674 1.916792-7.003476 3.46893-10.449626 5.548396 1.827915 1.310856 3.610428 2.589144 5.550482 3.980535L17.80831 64.1157z" fill="#27BDE0"/>
    <path d="M19.714096 58.492818c-.615722.531177-1.201123 1.036043-1.787326 1.541711-8.464492-8.387807-11.736577-25.120748-1.787968-38.243101C26.633027 7.949396 45.887252 6.633406 58.07399 16.064636c-.831497.43508-1.617272.846097-2.420214 1.266257-6.301283-4.257112-13.214438-5.77107-20.668877-4.423476-6.545454 1.183476-11.954438 4.444653-16.202406 9.565348-8.398396 10.123636-8.611444 25.322406.931604 36.020053m3.267689 6.053567c.869358-.450642 1.673743-.867112 2.468182-1.27893 11.789037 7.209946 26.19032 4.622085 34.879251-4.845402 8.483583-9.243529 10.268824-24.8177.630481-36.33738.538075-.569678 1.080803-1.144491 1.625776-1.72171 8.791925 9.559732 10.7177 26.400641.447594 38.710106-10.621605 12.73075-28.296097 13.816845-40.051284 5.473316" fill="#0E1E29"/>
  </g>
</svg>
