<svg width="80" height="80" viewBox="0 0 80 80" xmlns="http://www.w3.org/2000/svg" xmlns:xlink="http://www.w3.org/1999/xlink">
  <title>
    etp-metaverseetp
  </title>
  <defs>
    <path id="a" d="M0 8.556292V.019024h8.61068v8.537268H0z"/>
    <path id="c" d="M4.837463 4.761905H.060698V.011955h4.776765v4.74995z"/>
  </defs>
  <g fill="none" fill-rule="evenodd">
    <circle fill="#1DAFE6" cx="40" cy="40" r="40"/>
    <path d="M44.707388 28.68327c-.000634 7.2073-.003967 14.414762.006665 21.622063.000476.344127-.11124.559365-.387997.73143-1.842234 1.144602-3.681612 2.29365-5.52337 3.439046-.071252.04412-.157104.0646-.288816.11714v-.55699c0-7.11492-.003016-14.22984.00952-21.34476.000636-.33238-.100133-.50619-.37911-.66397-1.846995-1.04365-3.685262-2.1027-5.527337-3.15492-.01825-.01032-.049512.0027-.119653.00841v.45365c0 6.42714-.003808 12.85444.00984 19.28158.000792.36714-.129016.54285-.43037.71524-1.67418.95793-3.335032 1.93873-5.001755 2.9092-.219944.12793-.44814.24174-.739813.39825-.01206-.22492-.028406-.38778-.028406-.55079-.00127-6.48-.005078-12.96016.009046-19.44032.000793-.37159-.129333-.57-.42878-.74143-1.782727-1.0208-3.55974-2.05159-5.337545-3.08111-.0968-.05588-.182494-.13064-.316587-.22794.586677-.34889 1.13511-.68508 1.693224-1.00492 1.351564-.77413 2.71249-1.53223 4.057708-2.31731.275327-.16064.488607-.16635.758063-.00937 1.869846 1.08889 3.74366 2.170952 5.624932 3.23984.109655.062382.323886.04254.440682-.02444 1.84033-1.055716 3.67002-2.13032 5.51258-3.181907.12917-.07365.37736-.064287.50955.011904 1.82605 1.05301 3.64083 2.125392 5.46037 3.18952.13361.078093.28374.128252.42624.19127l-.00889-.008415z" fill="#FFF"/>
    <path d="M44.71629 28.691714c.05935-.098412.09458-.23873.18186-.28873 1.41853-.815238 2.844997-1.616984 4.26686-2.426508.430845-.245397.844392-.523492 1.285392-.748095.143932-.07333.387997-.0946.521456-.02142 1.255398.68826 2.49572 1.40349 3.742073 2.1081.64206.36286 1.28666.72143 1.93206 1.07826.19281.10667.29644.23159.29612.48191-.00825 6.62445-.00714 13.24889-.00412 19.87334 0 .22508-.04776.35111-.27913.48286-1.85509 1.05619-3.69256 2.14349-5.5367 3.21889-.09807.0573-.2082.09365-.3588.16-.01079-.18333-.02904-.34698-.02904-.51048-.00143-6.49222-.00285-12.9846.00381-19.47666.00032-.304603-.08188-.46508-.36975-.629524-1.89825-1.08381-3.77635-2.2027-5.66095-3.31032l.00889.00841" fill="#FFF"/>
    <g transform="translate(7 38.728)">
      <mask id="b" fill="#fff">
        <use xlink:href="#a"/>
      </mask>
      <path d="M4.308057 8.554825c-2.64457.06635-4.36398-2.159206-4.306692-4.252698C.070555 1.780222 1.794405.004667 4.33329.01911c2.556814.014288 4.22338 1.83873 4.27638 4.249843.04967 2.26016-1.739403 4.350635-4.301615 4.285873" fill="#FFF" mask="url(#b)"/>
    </g>
    <path d="M17.024712 60.124794c-2.233723.056984-4.08421-1.90143-4.040728-4.051905.04713-2.32905 1.804784-4.01905 4.057073-4.0235 2.218013-.00429 4.00645 1.73301 4.028192 4.05492.02047 2.18016-1.79717 4.06206-4.04454 4.02047M9.93456 29.05025c-.1479-2.076506 1.793517-3.89587 3.84792-3.90095 2.215314-.005397 3.972015 1.87349 3.942022 3.93254-.030468 2.09841-1.695604 3.92381-4.02581 3.887936-1.906187-.029207-3.892036-1.689048-3.764132-3.919524m60.013547 7.149444c-.021106 2.183334-1.69132 3.69746-3.663045 3.685556-2.05599-.01238-3.642892-1.580794-3.64416-3.659048-.001588-2.199523 1.69354-3.678412 3.65749-3.673015 1.976962.00539 3.608456 1.48809 3.649715 3.64651m-5.615363 17.43219c-1.77257.1065-3.349632-1.50683-3.323607-3.33064.027136-1.8954 1.574842-3.35556 3.317577-3.33111 1.892857.02666 3.31583 1.3819 3.350426 3.34222.03158 1.79047-1.427575 3.39063-3.344394 3.31952M25.799073 16.87795c-.126317 1.83238-1.336647 3.28492-3.35487 3.319207-1.76622.03-3.38232-1.36254-3.320274-3.454764.05935-2.00365 1.67719-3.28143 3.35502-3.23508 1.88555.052223 3.20475 1.37889 3.32011 3.370635m10.17361-7.8776c1.47391.021745 2.52111 1.159047 2.50318 2.50349-.02016 1.517303-1.07291 2.509843-2.48858 2.532223-1.30888.02048-2.53254-.89666-2.53762-2.59158-.00397-1.29857 1.13352-2.46476 2.52301-2.44412m19.8059 54.94916c-1.40298.15857-2.49826-1.21222-2.5246-2.42793-.02872-1.32873 1.25984-2.57317 2.50334-2.54063 1.71607.04492 2.54729 1.33254 2.54539 2.50492-.00222 1.25619-.95643 2.55445-2.52413 2.46365" fill="#FFF"/>
    <g transform="translate(40.484 64.125)">
      <mask id="d" fill="#fff">
        <use xlink:href="#c"/>
      </mask>
      <path d="M2.42423 4.74538C1.251827 4.92205.024994 3.654747.061492 2.407287.10418.939984 1.213424-.027 2.480565.01316c1.299038.04111 2.31894.906507 2.356232 2.373967.028406 1.125238-.85296 2.467143-2.412567 2.358254" fill="#FFF" mask="url(#d)"/>
    </g>
    <path d="M48.670136 13.701873c-.052685-1.179524 1.010222-2.171905 2.129622-2.148254 1.25143.0265 2.133907.99968 2.139302 2.14603.005396 1.13936-.889775 2.09952-2.128193 2.13762-1.135587.03492-2.209285-.97762-2.14073-2.1354m-17.45327 50.84876c-.001746.99317-.88549 1.93396-1.871275 1.87571-1.086234-.06413-1.834776-.67778-1.886826-1.86286-.045544-1.03921.801544-1.88841 1.874766-1.91984.988163-.02873 1.964108.93968 1.883335 1.90698m31.92245-41.76603c.070457.98222-.83249 1.60635-1.620386 1.61603-.75377.00936-1.65545-.78619-1.59483-1.71016.06142-.93825.77346-1.55397 1.64118-1.57238.74236-.01587 1.64625.6319 1.57405 1.66651" fill="#FFF"/>
  </g>
</svg>
