<svg width="80" height="80" viewBox="0 0 80 80" xmlns="http://www.w3.org/2000/svg">
  <title>
    ett-encryptotel
  </title>
  <g fill="none" fill-rule="evenodd">
    <circle fill="#0CB9C2" cx="40" cy="40" r="40"/>
    <g fill-rule="nonzero" fill="#FFF">
      <path d="M23.805486 21.69401l14.325858 14.32586-2.097147 2.097398-14.32611-14.325858 2.0974-2.0974zm14.686317 16.420744h2.96612v20.26011h-2.96612v-20.26011z"/>
      <path d="M39.974863 55.88634h20.26011v2.96612h-20.26011v-2.96612zM21.700546 20.77049h20.26011v2.96612h-20.26011v-2.96612z"/>
      <path d="M38.114754 20.845902h20.26011v2.96612h-20.26011"/>
      <g transform="translate(17 17)">
        <circle cx="40.520219" cy="40.520219" r="5.278689"/>
        <circle cx="22.92459" cy="40.520219" r="5.278689"/>
        <circle cx="5.328962" cy="40.520219" r="5.278689"/>
        <circle cx="5.328962" cy="22.92459" r="5.278689"/>
        <circle cx="22.92459" cy="22.92459" r="5.278689"/>
        <circle cx="40.520219" cy="22.92459" r="5.278689"/>
        <circle cx="40.520219" cy="5.328962" r="5.278689"/>
        <circle cx="22.92459" cy="5.328962" r="5.278689"/>
        <circle cx="5.328962" cy="5.328962" r="5.278689"/>
      </g>
    </g>
  </g>
</svg>
