<?xml version="1.0" encoding="UTF-8"?>
<svg width="105px" height="105px" viewBox="0 0 105 105" version="1.1" xmlns="http://www.w3.org/2000/svg" xmlns:xlink="http://www.w3.org/1999/xlink">
    <!-- Generator: Sketch 49.2 (51160) - http://www.bohemiancoding.com/sketch -->
    <title>Group</title>
    <desc>Created with Sketch.</desc>
    <defs></defs>
    <g id="Page-1" stroke="none" stroke-width="1" fill="none" fill-rule="evenodd">
        <g id="Group">
            <circle id="Oval" fill="#0057FF" cx="52.5" cy="52.5" r="52.5"></circle>
            <path d="M26.968,54.796 L26.968,60.448 L37.588,60.448 L37.588,65.2 L22,65.2 L22,40 L37.408,40 L37.408,44.752 L26.968,44.752 L26.968,50.116 L36.508,50.116 L36.508,54.796 L26.968,54.796 Z M50.476,65.704 C47.668,65.704 45.364,64.912 43.564,63.328 C41.764,61.744 40.864,59.62 40.864,56.956 L40.864,40 L45.796,40 L45.796,56.56 C45.796,59.188 47.272,60.844 50.476,60.844 C53.68,60.844 55.156,59.188 55.156,56.56 L55.156,40 L60.124,40 L60.124,56.956 C60.124,59.62 59.224,61.744 57.424,63.328 C55.624,64.912 53.32,65.704 50.476,65.704 Z M83.776,65.2 L78.412,65.2 L73.336,56.452 L69.556,56.452 L69.556,65.2 L64.588,65.2 L64.588,40 L74.668,40 C77.008,40 78.988,40.828 80.608,42.448 C82.228,44.068 83.056,46.048 83.056,48.352 C83.056,51.484 81.112,54.364 78.196,55.696 L83.776,65.2 Z M74.668,44.644 L69.556,44.644 L69.556,52.096 L74.668,52.096 C76.54,52.096 78.088,50.404 78.088,48.352 C78.088,46.3 76.54,44.644 74.668,44.644 Z" id="EUR" fill="#FFFFFF"></path>
        </g>
    </g>
</svg>