<svg width="80" height="80" viewBox="0 0 80 80" xmlns="http://www.w3.org/2000/svg">
  <title>
    evn-envion
  </title>
  <g fill="none" fill-rule="evenodd">
    <circle fill="#FFF" cx="40" cy="40" r="40"/>
    <g transform="translate(10 14)" fill-rule="nonzero">
      <circle fill="#0083CB" cx="31.2" cy="25.527273" r="8.154545"/>
      <circle fill="#47CBF4" cx="8.154545" cy="25.527273" r="8.154545"/>
      <path d="M51.172727 8.154545C51.172727 3.663636 47.509091 0 43.018182 0c-2.481818 0-4.727273 1.181818-6.263637 2.954545C35.336365 4.372727 33.445456 5.2 31.2 5.2c-2.127273 0-4.018182-.827273-5.554545-2.245455C24.10909 1.181818 21.863636 0 19.381818 0c-4.490909 0-8.154545 3.663636-8.154545 8.154545 0 4.49091 3.663636 8.154546 8.154545 8.154546 2.481818 0 4.845455-1.181818 6.263637-2.954545 1.418181-1.418182 3.30909-2.245455 5.554545-2.245455 2.127273 0 4.018182.827273 5.554545 2.245455 1.536364 1.772727 3.781819 2.954545 6.263637 2.954545 4.490909 0 8.154545-3.663636 8.154545-8.154546zm0 34.745455c0-4.49091-3.663636-8.154545-8.154545-8.154545-2.481818 0-4.727273 1.181818-6.263637 2.954545-1.418181 1.418182-3.30909 2.245454-5.554545 2.245454-2.127273 0-4.018182-.827272-5.554545-2.245454-1.536364-1.772727-3.781819-2.954546-6.263637-2.954546-4.490909 0-8.154545 3.663637-8.154545 8.154546 0 4.49091 3.663636 8.154546 8.154545 8.154546 2.481818 0 4.845455-1.181819 6.263637-2.954546 1.418181-1.418182 3.30909-2.245455 5.554545-2.245455 2.127273 0 4.018182.827273 5.554545 2.245455 1.536364 1.772727 3.781819 2.954546 6.263637 2.954546 4.490909 0 8.154545-3.663637 8.154545-8.154546z" fill="#47CBF4"/>
    </g>
  </g>
</svg>
