<svg width="80" height="80" viewBox="0 0 80 80" xmlns="http://www.w3.org/2000/svg" xmlns:xlink="http://www.w3.org/1999/xlink">
  <title>
    evr-everus
  </title>
  <defs>
    <path id="a" d="M.258866.195006h17.34065v37.991526H.258866z"/>
    <path id="c" d="M0 .275493h17.344141v38.401752H0z"/>
  </defs>
  <g fill="none" fill-rule="evenodd">
    <circle fill="#00C1B5" cx="40" cy="40" r="40"/>
    <path d="M33.973926 42.998916c.504485.427787.766516.616663.990369.844308 2.611179 2.656852 5.216484 5.319337 7.823095 7.980828.153368.156071.314894.307172.45162.47716 1.169516 1.456994 1.611674 3.49387-.273126 5.4711-1.625379-1.250224-2.88822-2.868923-4.240474-4.41207-1.333652-1.521941-2.799136-2.924924-4.292357-4.468403-1.21618.994414-2.019895 2.353326-2.487832 3.853728-1.455695 4.669207 1.902421 9.41032 5.6792 10.438201 5.6916 1.549112 10.1432-2.76587 10.60559-6.972166.321747-2.921278-.59618-5.289846-2.488811-7.34826-1.409032-1.532213-2.917916-2.969657-4.358926-4.472047-3.599916-3.752663-7.23638-7.470864-10.758306-11.297752-1.858368-2.019645-2.9016-4.484307-3.026579-7.308497-.077989-1.764497-.095284-3.500497.525043-5.19607 1.545757-4.223859 4.416357-7.01458 8.705126-8.165729 6.950852-1.865893 14.146768 2.613775 15.306168 9.974959.296295 1.880473.371674 3.69865-.046337 5.557586-.348831 1.549775-1.137863 2.883834-2.064926 4.08071-1.198558 1.547124-2.614116 2.92161-3.943526 4.363692-.063958.069586-.19938.071574-.36678.12658-.62-.530509-1.314725-1.040473-1.908947-1.65084-1.445905-1.484829-2.841231-3.020024-4.264294-4.528048-.977316-1.035834-1.9964-2.032568-2.944021-3.095905-1.396632-1.566675-1.163969-3.91006.568115-5.27361 1.483106 1.330083 2.805664 2.83413 4.111253 4.373965 1.301021 1.534533 2.745947 2.94348 4.124958 4.40445 2.388958-1.616379 3.342126-5.450225 2.580505-8.171361-1.009294-3.60587-3.605137-6.118911-7.765337-6.468829-1.70761-.14381-3.425336.470202-4.894736 1.522604-2.056443 1.472568-3.239664 3.514746-3.712821 5.986367-.267253 1.39503.03361 2.74632.587694 4.027692.593895 1.373491 1.406748 2.593562 2.474453 3.656568 2.092337 2.083598 4.152042 4.200994 6.19739 6.332308 2.614115 2.72445 5.224315 5.453538 7.7934 8.221728 2.833073 3.052497 4.227094 6.696142 3.693241 10.880568-.65002 5.09832-4.440831 9.454059-9.644263 10.62078-3.30982.74225-6.38339.097421-9.250073-1.53652-2.829485-1.61207-4.589958-4.188402-5.413906-7.336331-1.23641-4.725207-.265947-8.936142 3.157758-12.483693.910421-.943053 1.778421-1.92852 2.7714-3.009751" fill="#FFF"/>
    <g transform="translate(53.378947 20.286675)">
      <mask id="b" fill="#fff">
        <use xlink:href="#a"/>
      </mask>
      <path d="M.591708 38.186532v-6.659029c3.492558-4.041278 6.881021-7.962604 10.369337-11.999905-1.672368-2.22509-3.558473-4.10755-5.24879-6.152048-1.66943-2.019645-3.472652-3.925633-5.187441-5.84819C.751604 5.020616.898119 2.620569.258866.195007c.340674.327053.70321.634225 1.018432.985136C3.35854 3.498012 5.437824 5.81787 7.502424 8.151645c2.606937 2.946793 5.192337 5.913467 7.802537 8.857278.724421.816805 1.503337 1.583243 2.294653 2.411976-.116821.23593-.172295.454628-.305106.60109-1.692926 1.862248-3.412936 3.699313-5.094768 5.571834-2.9946 3.335479-5.953305 6.704425-8.960632 10.028307-.840589.928474-1.798326 1.74793-2.6474 2.564402" fill="#FFF" mask="url(#b)"/>
    </g>
    <g transform="translate(9 20.286675)">
      <mask id="d" fill="#fff">
        <use xlink:href="#c"/>
      </mask>
      <path d="M17.116373 31.78063c-.841895 2.368236-.230706 4.563834-.055148 6.896615-.475442-.486438-.971442-.95465-1.423063-1.463621-1.668452-1.877492-3.315368-3.774533-4.982842-5.653018-3.009937-3.390817-6.026726-6.775337-9.0458-10.15787-.506768-.567953-1.039316-1.112379-1.609716-1.720757.175884-.272048.291074-.517586.465-.70845 2.905842-3.192 5.842684-6.355834 8.724053-9.570698 2.440842-2.723787 4.8174-5.506556 7.227895-8.25851.198073-.225656.438242-.413538.92739-.868828-.759664 2.690651-.808612 5.07148-.2604 7.30187-3.591106 4.091977-7.011875 7.989444-10.533801 12.002888 3.477547 4.015432 6.966516 8.043787 10.566432 12.200379" fill="#FFF" mask="url(#d)"/>
    </g>
  </g>
</svg>
