<svg width="80" height="80" viewBox="0 0 80 80" xmlns="http://www.w3.org/2000/svg">
  <title>
    evx-everex
  </title>
  <g fill="none" fill-rule="evenodd">
    <circle fill="#1860B3" cx="40" cy="40" r="40"/>
    <path d="M25.203577 37.941467c-1.08847.024672-2.013648 1.006314-1.960942 2.080475.057883 1.179963.885177 1.991752 2.030118 1.991752 1.11153 0 1.957176-.895292 1.945412-2.060073-.011294-1.12587-.923294-2.03682-2.014588-2.01215m25.383058-4.34503c-1.309176.03037-2.24894 1.03478-2.222117 2.37511.02353 1.17 1.02494 2.16351 2.18353 2.16635 1.20047.00285 2.250352-1.05091 2.253175-2.26076.002353-1.22741-1.046588-2.30773-2.214588-2.28069m-2.72 6.61055c-1.352.97263-23.369412 23.39289-23.72941 24.14774 13.010822 9.86862 34.607528 4.98223 41.57647-11.93912-4.121883-4.11872-8.23012-8.22321-12.361883-12.35142-2.318118 1.0381-2.962824 1.061826-5.485177.14281M18.47793 64.59337c1.75953-1.75263 3.468235-3.43456 5.155764-5.13832 6.396235-6.4592 12.785883-12.92551 19.178824-19.38851.636235-.642886 1.245176-1.31993 1.926588-1.9111.68094-.591165.915765-1.25208.893647-2.170144-.062118-2.54971 1.528-4.46318 3.957176-5.01639 2.68658-.61205 5.87294 1.47317 5.872 4.58131-.00047.96741.34964 1.620254 1.00047 2.269305 3.20423 3.19496 6.37506 6.42503 9.56047 9.63992.32047.3231.66117.62722 1.03717.98259 2.7727-8.03391 1.10306-20.82088-8.42824-29.26376-10.33035-9.150766-25.60612-9.471496-36.25788-.955546-10.32235 8.25311-12.48894 21.23081-9.62023 30.26866.26635-.18931.53082-.32595.73082-.52759 2.05176-2.067668 4.07859-4.160478 6.14682-6.21106.56188-.55748.85835-1.113068.88941-1.94668.07859-2.12175 1.46588-3.82788 3.38259-4.37113 2.02588-.57409 4.08.11102 5.24988 1.93197.44611.6946.63906 1.59274.79435 2.426823.09882.530912.21176.96978.61082 1.34602 1.11435 1.05044 2.206584 2.123176 3.404702 3.281315-.498824.539455-.89647.951755-1.27388 1.38208-.362826.413726-.704944.84595-1.11718 1.34318-1.20894-1.179015-2.26588-2.209526-3.37882-3.295074-1.857885 1.13869-3.76518 1.21792-5.747767.12146-3.68753 3.74438-7.352473 7.46646-11.043296 11.21416C5.5471 43.83844 6.51793 26.44311 20.10757 15.4899c13.49177-10.87493 33.069182-8.90263 44.25836 4.501604C75.39887 33.209278 74.211576 52.688876 61.55934 64.433c-12.853175 11.93106-31.60188 10.723577-43.08141.160365" fill="#FFF"/>
  </g>
</svg>
