<svg width="80" height="80" xmlns="http://www.w3.org/2000/svg" xmlns:xlink="http://www.w3.org/1999/xlink"><defs><path id="a" d="M0 .042h55.982v34.666H0z"/></defs><g fill="none" fill-rule="evenodd"><circle fill="#EB001E" cx="40" cy="40" r="40"/><g transform="translate(10 22.25)"><mask id="b" fill="#fff"><use xlink:href="#a"/></mask><path d="M46.023 5.873c-1.07-.11-1.681-.225-2.293-.229-3.077-.018-6.155.01-9.232-.012-2.168-.014-3.31-.96-3.33-2.688-.02-1.712 1.14-2.854 3.226-2.871C40.548.02 46.704.047 52.858.066c1.352.004 2.429.566 2.926 1.857.497 1.293.015 2.361-.94 3.296-6.46 6.321-12.912 12.65-19.367 18.975-2 1.96-3.99 3.93-6.004 5.875-8.838 8.534-24.593 4.741-28.5-6.856C-2.878 11.785 5.145.39 17.332.116c5.405-.122 9.931 1.95 13.592 5.866.829.886.919 1.49-.039 2.413-5.025 4.837-9.97 9.755-14.971 14.615-.58.564-1.283 1.155-2.036 1.368-1.3.368-2.495-.058-3.154-1.309-.67-1.27-.404-2.462.616-3.465 2.907-2.859 5.827-5.703 8.741-8.554.878-.86 1.734-1.74 2.635-2.575.897-.83.675-1.338-.368-1.815-6.95-3.18-15.831 1.767-16.53 9.225-.51 5.457 2.202 10.225 6.96 12.232 5.061 2.135 10.329.67 14.28-3.44 5.202-5.41 10.679-10.57 16.033-15.842.89-.875 1.756-1.773 2.931-2.962" fill="#FFF" mask="url(#b)"/></g><path d="M53.419 56.922c-3.028 0-6.056.016-9.084-.006-1.947-.014-3.058-.938-3.166-2.552-.113-1.712.91-2.93 2.92-2.957a747.844 747.844 0 0 1 19.056-.002c1.809.022 2.902 1.342 2.816 2.939-.083 1.527-1.246 2.557-3.012 2.571-3.176.026-6.353.008-9.53.007" fill="#FFF"/></g></svg>