<svg width="80" height="80" viewBox="0 0 80 80" xmlns="http://www.w3.org/2000/svg">
  <title>
    fair-faircoin
  </title>
  <g fill="none" fill-rule="evenodd">
    <circle fill="#FFF" cx="40" cy="40" r="40"/>
    <path d="M22.181636 70.034332c1.631417-.089393 3.093117-.075466 4.52761-.26591 4.10332-.544778 7.092794-2.90915 9.620406-6.0217 2.496194-3.073362 3.965992-6.65911 5.111255-10.371175 1.094413-3.54591 1.958218-7.162754 2.924372-10.74818.05506-.20437.11757-.4068.20631-.71093.40777-.050202.81911-.12826 1.233033-.14575 1.02413-.043076 2.049554-.06769 3.074655-.083238 1.568907-.02332 2.61247-.89069 3.404697-2.13183.75498-1.18251.509473-2.673686-.694414-3.410204-.703157-.43012-1.573117-.665263-2.39838-.797085-.83174-.132793-1.701376-.029474-2.719676-.029474.262024-1.17992.479675-2.159026.73263-3.29911.75401 0 1.444535.031744 2.1315-.0068 1.183804-.066395 2.377003-.10105 3.54429-.286962 1.359676-.217004 2.43401-1.515466 2.491984-2.812956.05927-1.329554-.71417-2.516923-2.055386-2.95838-.651983-.214737-1.365182-.275304-2.05668-.32907-.693117-.053764-1.39336-.01166-2.324858-.01166 1.257975-3.82769 2.270444-7.574088 5.417975-10.638056-.29279 2.35433.001945 4.181052 2.137006 5.171173 1.72761.800972 3.39595.722592 4.85506-.49846 2.003887-1.677086 2.200162-3.817005 1.116762-6.282106 11.25182 8.874494 17.83935 28.82008 6.211173 46.089392C57.8137 75.58251 36.91945 78.794492 22.181638 70.03433" fill="#C99A01"/>
    <path d="M58.271935 10.401846c-1.014737 0-1.862996.030445-2.708664-.00583-2.44761-.10429-4.69214.602106-6.82461 1.712065-3.04162 1.58316-5.39627 3.95336-7.25927 6.77507-1.21328 1.838057-2.26688 3.797248-3.222992 5.783644-.477733.992713-1.017004 1.351903-2.09231 1.286478-1.559836-.094574-3.132306-.09263-4.693763-.01846-2.351093.112064-3.631417 2.289554-2.626073 4.397408.513036 1.07563 1.4983 1.54753 2.599514 1.68648 1.011823.12761 2.04567.07514 3.06915.123076.462187.021377.92178.09425 1.54429.16097-.30024 1.19093-.556435 2.209557-.84016 3.33506-1.646315 0-3.202267-.004856-4.758542.00227-.593035.002915-1.19579-.030122-1.77684.062186-1.847126.293117-2.880972 1.4983-2.795142 3.180243.074495 1.46202 1.357734 2.71158 3.01085 2.860564.804536.07255 1.618463.029473 2.42753.05409.63903.01911 1.277735.06089 1.98575.096193 0 .46348.07417.8366-.01101 1.168907-1.527127 5.949475-3.064293 11.896357-4.628665 17.836114-.202107.76761-.5681 1.49182-.883888 2.30089-2.028177-2.573926-4.176193-3.342833-6.68275-2.47093-2.38899.831093-3.211014 2.265263-3.316925 5.788178-5.53004-3.417976-12.99919-13.69846-12.76437-26.53506C5.29315 25.24104 12.296877 14.39537 25.697687 8.0459c11.04842-5.234658 24.583643-3.373605 32.57425 2.35595" fill="#EAC63C"/>
  </g>
</svg>
