<svg width="80" height="80" viewBox="0 0 80 80" xmlns="http://www.w3.org/2000/svg">
  <title>
    fct-factom
  </title>
  <g fill="none" fill-rule="evenodd">
    <circle fill="#FFF" cx="40" cy="40" r="40"/>
    <g fill-rule="nonzero">
      <path d="M37.026.166C38.028.166 39.366 0 40.37 0c3.51 0 5.185 1.337 4.514 4.01-.833 3.175-5.35 7.687-11.204 11.698-1.172.5-2.34-1.002-2.005-1.672 0-.166.166-.166.166-.166 5.187-3.51 9.032-7.35 9.867-10.194.667-2.674-1.504-3.846-5.352-3.51h.67" fill="#D37D41"/>
      <path d="M57.45 3.922c2.03 1.02 2.877 2.722 2.202 5.274-2.03 7.655-16.923 19.392-33.17 26.365-3.05 1.362-6.093 2.38-8.8 3.233-1.523.168-1.694-1.87-1.015-2.89.168-.342.34-.342.507-.51 2.54-.68 5.248-1.703 8.124-2.892 15.402-6.634 29.45-17.857 31.31-25.003.675-2.553-.34-4.25-2.54-5.102C55.08 2.9 56.435 3.41 57.45 3.92" fill="#E8B521"/>
      <path d="M78.93 29.61c.17.85.17 1.87-.168 3.062-2.042 7.482-14.82 18.54-30.324 26.53-1.705.68-2.726-.51-2.384-1.7.17-.51.51-.852.852-1.02 15.673-8.164 28.792-19.39 30.834-27.04.342-1.36.342-2.552 0-3.574.51 1.357 1.02 2.718 1.19 3.74" fill="#417BA4"/>
      <g fill="#D37D41">
        <path d="M79.96 37.045V38.4c0 .675 0 1.186-.17 2.03C78.6 45 72.988 50.924 65.334 56.682c-1.192.847-1.87-.34-1.702-1.186.17-.676.68-1.187.852-1.355 7.996-5.925 13.776-12.02 14.97-16.762.168-.847.34-1.694.168-2.54l.34 2.205M5.29 23.67c.51-1.014 1.02-1.86 1.702-2.876 1.36 1.694 5.612 1.694 11.396-.168.68-.168.68 1.354.68 1.354"/>
        <path d="M19.067 21.977c0 .847-.17 2.03-7.483 3.05-2.04.34-4.933.167-6.294-1.355"/>
      </g>
      <path d="M50.09 1.443c2.207.845 3.056 2.363 2.375 4.726-1.698 6.414-14.43 16.373-28.346 22.28C13.086 33.014 4.6 33.86 2.394 30.648l1.018-3.04c2.035 2.87 9.846 2.195 19.86-2.024 12.732-5.57 24.445-14.686 25.97-20.427.51-2.195-1.228-4-3.095-4.677" fill="#417BA4"/>
      <path d="M2.77 38.675c-.16.528-.323 1.236-.64 1.057-1.607-.88-2.252-2.29-2.09-4.41-.158 1.238.16 2.295.642 3-.008-1.075.322-2.295.48-3.352.323.53.804.883 1.445 1.236.484.704.162 2.47.162 2.47" fill="#E8B521"/>
      <path d="M62.865 7.07l1.695 1.187c1.355 1.187 1.862 2.878 1.355 5.08C63.713 21.805 47.12 34.84 29 42.462 11.73 49.912-.802 49.575.045 42.294c-.168 1.187.167 2.37.675 3.217-.17-1.014-.17-2.2-.17-3.216C11.897 54.314 62.866 23.16 63.374 9.952c.168-2.37-1.187-3.217-1.863-3.724l1.355.843" fill="#D37D41"/>
      <path d="M70.87 14.217c1.017 1.185 1.19 2.706.676 4.733-2.378 8.965-19.885 22.663-39.258 30.78-18.353 7.95-31.78 7.61-30.758-.17-.168 1.354.17 2.54.85 3.382-.34-1.014-.677-2.028-.85-3.213 3.06 4.226 14.615 3.212 29.403-3.047 18.863-7.95 36.03-21.477 38.408-30.273.51-2.2.17-3.72-1.018-4.905.846.85 1.697 1.863 2.547 2.71" fill="#417BA4"/>
      <path d="M66.445 36.516c.342 1.01 0 1.684-.34 2.188-7.485 6.73-18.548 13.46-30.115 18.342-17.185 7.07-30.114 7.572-31.307 1.512-.168-.504-.51-.842-.85-1.346 3.232 4.206 15.14 3.364 30.455-3.196 11.567-4.88 22.63-11.778 30.114-18.342 1.365-.675 1.875.334 2.043.842" fill="#E8B521"/>
      <path d="M23.323 67.708c.167.353.338 1.054-.34 1.232-6.068 1.055-10.453.527-12.48-1.76-.672-.88-1.687-2.108-2.36-2.988C10 66.652 14.55 67.36 21.13 66.3c1.182 0 2.022 1.054 2.193 1.407" fill="#417BA4"/>
      <path d="M42.073 68.365c.167.17.167.865-.844 1.383-11.646 4.67-20.76 5.707-24.47 3.115-.845-.69-2.024-1.555-2.868-2.25 3.544 3.116 13.163 2.075 25.653-2.94 1.852-.517 2.53.69 2.53.69" fill="#D37D41"/>
      <path d="M79.09 47.466c-2.028 7.29-16.405 18.652-32.135 25.436-10.318 4.41-18.605 5.595-22.664 4.07-1.013-.508-2.366-1.016-3.212-1.524C34.58 81.058 75.5 59.022 79.52 44.55" fill="#417BA4"/>
      <path d="M77.202 55.298c-5.934 12.208-33.4 25.776-44.25 24.078-1.19-.168-2.714-.508-3.73-.848 3.9 1.188 11.19-.168 20.007-3.902 14.242-6.102 27.296-16.28 29.333-22.89-.34 1.017-.852 2.542-1.36 3.563" fill="#E8B521"/>
      <path d="M68.396 67.337c0 .17-9.846 7.348-15.106 9.57-4.414 1.88-8.315 2.904-11.204 3.077h-4.242c3.393.17 8.316-1.024 14.258-3.416 5.94-2.565 16.712-9.98 16.88-9.98 0 0-.416.58-.585.75" fill="#417BA4"/>
      <path d="M5.342 23.952c-.37-.528-.552-1.04-.552-1.92 0-.176 0-.355.183-.704.552-.882 1.29-1.764 1.843-2.645-.182 1.056-.182 1.763.37 2.29-.74 1.232-1.29 1.923-1.844 2.98" fill="#D37D41"/>
      <path d="M2.413 30.66c-.442-.673-.59-1.514-.442-2.527 0-.338 0-.504.148-.842.28-.98.625-1.937 1.033-2.86-.294 1.18-.24 2.44.203 3.28-.445 1.184-.66 1.99-.94 2.948" fill="#417BA4"/>
      <path d="M.844 37.844c-.593-.82-.99-1.64-.793-2.785l.397-2.132.397-1.31c-.397 1.31-.196 2.46.593 3.112-.12.998-.593 2.13-.593 3.114" fill="#E8B521"/>
      <path d="M.958 45.51C.38 45.02.19 44.483.19 43.667c0-.978-.19-2.45-.19-3.428 0 .978.386 1.633.767 2.284" fill="#D37D41"/>
      <g fill="#417BA4">
        <path d="M27.106 12.046c-.167-.172-.843-1.014-1.35-.847-1.35.846-2.87 1.524-4.386 2.198-4.725 2.028-8.434 2.367-9.446 1.013l-.003.006c-.333-.34-.12-1.408-.07-1.446.17-.678.604-1.26 1.11-1.935-.663.502-3.36 2.68-3.373 4.16-.07.416 0 1.342.136 1.756 1.182 1.69 5.915 1.354 11.818-1.184 2.023-.68 3.878-1.692 5.566-2.706.34-.34.168-.847 0-1.014M2.65 53.143c-.338-.34-.505-.674-.673-1.185-.338-1.014-.672-2.538-1.01-3.553.167.507.505 1.014.843 1.52.33 1.19.502 2.204.84 3.218"/>
      </g>
      <path d="M4.79 21.078c0-.334.317-.947.494-1.276.177-.5 2.143-3.326 2.86-3.994 0 0-.894 1.166-1.43 2.498-.536.832-1.253 1.665-1.79 2.497" fill="#D37D41"/>
    </g>
  </g>
</svg>
