<svg width="80" height="80" viewBox="0 0 80 80" xmlns="http://www.w3.org/2000/svg">
  <title>
    fil-filecoin
  </title>
  <g fill="none" fill-rule="evenodd">
    <circle fill="#42C1CA" cx="40" cy="40" r="40"/>
    <path d="M57.564308 15.598199c-8.033846-5.105474-13.779077 6.134358-13.913846 6.475671-1.432616 2.807176-2.611693 7.104504-3.34277 10.308642L29.816 30.826816l-.411077 2.835618 10.328616 1.530962c-.286154 1.482733-.432 2.436183-.432 2.436183l-.508924 3.124374.028924.004328-.031385.185497-10.252308-1.519214-.38523 2.83871 10.13046 1.503137c-2.662768 13.504122-4.632615 17.575764-6.616615 19.810993-.403692.47858-3.248 2.391045-4.679384-1.030123-1-2.390427-2.89723-2.06148-2.89723-2.06148-.535386-.051321-3.024616 1.56435.875692 4.043816 8.03323 5.104855 13.779076-6.134977 13.913846-6.475671 1.432-2.806558 3.341538-10.392115 4.07323-13.596252l10.531077 1.56064.411077-2.835-10.368615-1.537762c.286154-1.482115.432615-2.435565.432615-2.435565l.508308-3.124993-.028923-.004328.032-.185496 10.251692 1.519832.38523-2.839328-10.129845-1.501283C47.64 19.57029 48.879385 18.785022 50.862769 16.549794c.403692-.477962 3.248616-2.391046 4.679385 1.03074 1 2.38981 2.897846 2.060863 2.897846 2.060863.535385.05132 3.024-1.564351-.875692-4.043199" fill="#FEFEFE" fill-rule="nonzero"/>
  </g>
</svg>
