<svg width="80" height="80" xmlns="http://www.w3.org/2000/svg" xmlns:xlink="http://www.w3.org/1999/xlink">
  <defs>
    <path id="a" d="M.000143.08427h79.983782v79.543637H.000143z"/>
  </defs>
  <g fill="none" fill-rule="evenodd">
    <circle fill="#F7EC24" cx="40" cy="40" r="40"/>
    <g transform="translate(0 .288)">
      <mask id="b" fill="#fff">
        <use xlink:href="#a"/>
      </mask>
      <path d="M40.39858.086065C17.858765-.12305.36456 17.97481.006055 39.070623-.37899 61.712112 18.09428 79.929042 40.06886 79.624298c21.87327.263814 39.789159-17.898791 39.914392-39.384558C80.112598 18.054436 62.179514.28774 40.39858.086064" fill="#F7EC24" mask="url(#b)"/>
    </g>
    <path d="M39.847888 74.556837c19.206355.341954 33.979065-15.370418 34.755514-32.846884.89944-20.244092-15.8-35.99665-34.450467-36.011162C21.012 5.683535 5.366393 20.986233 5.377234 40.125209c.01084 19.047442 15.585794 34.714419 34.470654 34.431628m.220934 5.355163C18.094243 80.216744-.379028 62.000186.00602 39.358326.364523 18.262512 17.858729.165023 40.398542.37414c21.780935.201674 39.714019 17.968 39.584673 40.153302-.125234 21.48614-18.041122 39.648372-39.914393 39.384558" fill="#F7EC24"/>
    <path d="M27.442056 40.213246c0 3.284094-.001121 6.567815.000374 9.851908.001495 2.713674.176075 2.894883 2.823177 2.896 6.53645.002604 13.072524.002232 19.608972.002232 2.551402-.000372 2.96187-.341581 2.972337-2.836093.029906-6.753488-.010841-13.507349.02542-20.260837.008599-1.585116-.641869-2.219535-2.232523-2.211349-7.096448.03721-14.19327.045023-21.289346-.009302-1.488972-.011535-1.956261.546232-1.928972 1.972465.068411 3.53079.02243 7.063442.020561 10.594976m12.405981 34.343442C20.962804 74.839851 5.38785 59.172502 5.377383 40.125433 5.366168 20.986083 21.011776 5.683386 40.153084 5.698642c18.650467.014884 35.349907 15.767442 34.450094 36.011163-.776449 17.476837-15.548786 33.189209-34.75514 32.846883" fill="#FAB016"/>
    <path d="M50.803065 40.50612h.010094c0-2.790325.005607-5.580278-.00187-8.370604-.00598-2.271256-.285233-2.688-2.507663-2.717767-5.418691-.072186-10.839252-.072558-16.257944-.002977-2.401495.030512-2.951028.683907-2.958504 3.045954-.016075 5.084279-.00972 10.16893.00486 15.252837.001495.550697.110654 1.101767.184298 1.650604.14729 1.101396.750655 1.569117 1.899066 1.562419 5.917383-.03572 11.835514-.045023 17.752897-.009674 1.353271.008186 1.913271-.497489 1.88972-1.854884-.049346-2.850977-.014954-5.703814-.014954-8.555907m-23.36-.292837c.001122-3.531535.04673-7.064186-.021308-10.594977-.027663-1.426233.439626-1.984 1.928598-1.972465 7.096075.054325 14.193271.046512 21.289346.009302 1.590654-.008186 2.241495.626233 2.232897 2.211349-.036635 6.753488.004112 13.507349-.02542 20.260837-.010842 2.494512-.421309 2.835721-2.97271 2.836093-6.536076 0-13.072524.000372-19.608973-.002232-2.647103-.001117-2.821682-.182326-2.822803-2.896372-.00187-3.283721-.000748-6.567442.000373-9.851535" fill="#F7EC24"/>
    <path d="M50.803065 40.50612c0 2.852094-.034392 5.704931.014954 8.555908.023551 1.357395-.536449 1.86307-1.88972 1.854884-5.917383-.03535-11.835514-.026047-17.752897.009674-1.148411.006698-1.751776-.461023-1.899066-1.562419-.073644-.548837-.182803-1.099907-.184299-1.650604-.01458-5.083907-.020934-10.168558-.00486-15.252837.007477-2.362047.55701-3.015442 2.958505-3.045954 5.418692-.069581 10.839253-.06921 16.257944.002977 2.22243.029767 2.501682.446511 2.507664 2.717767.007476 2.790326.001869 5.58028.001869 8.370605h-.010094z" fill="#FEFEFB"/>
  </g>
</svg>
