<svg width="80" height="80" viewBox="0 0 80 80" xmlns="http://www.w3.org/2000/svg">
  <title>
    flo-florincoin
  </title>
  <g fill="none" fill-rule="evenodd">
    <circle fill="#0954CB" cx="40" cy="40" r="40"/>
    <circle fill="#F7DF4F" cx="40.5" cy="40.5" r="37.5"/>
    <g fill="#0954CB">
      <path d="M40.147232 76.209818c20.38707-.232323 36.12485-16.523636 36.224243-36.077576C76.47208 20.32295 60.12986 3.931838 40.366222 3.883354c-19.99798-.04889-36.427475 16.176565-36.42788 36.028282 0 19.561616 15.682426 36.050505 36.20889 36.298182M40.065212.348c22.149495-.37293 39.78101 18.280404 39.908283 39.398788.124848 20.790707-16.515556 39.574545-38.926465 40.037576C17.400566 80.273254.371475 60.713657.330263 40.12093.287433 18.925373 17.909657.0482 40.065213.348"/>
      <path d="M49.881495 23.160768c-.393535 1.33616-.609697 2.758384-1.210505 3.99313-2.586667 5.319597-4.22707 10.88889-4.832323 16.771718-.215758 2.098182-.513132 2.39192-2.558788 2.65212-.66182.084042-1.34788.093335-2.01213.028688-2.2994-.22303-2.58627-.546262-2.81616-2.834343-.57091-5.68-2.16445-11.07272-4.64323-16.20282-2.01212-4.16444-1.63677-7.34464 1.56-10.70182 1.66464-1.74747 3.54586-3.2905 5.34666-4.90586.72889-.65374 1.55555-.8606 2.35394-.13333 2.33091 2.12364 4.70464 4.20728 6.9305 6.43717 1.27515 1.27758 1.83757 2.96243 1.88202 4.89536M34.84145 45.43665c-1.72525-.02182-2.60323-.85293-3.447675-2.020203-1.131313-1.563636-2.4699-2.986262-3.80283-4.3899-.438382-.461817-1.101817-.78828-1.722827-.982625-1.49616-.46869-2.69697.251714-2.981413 1.78828-.771313 4.166465-3.605253 6.760404-6.819394 9.077576-.10464.075555-.24363.116363-.37252.140202-.12848.023433-.26424.00525-.5798.00525-.20121-.392322-.51313-.82505-.65777-1.307877-1.32404-4.423433-1.95111-8.913534-1.10303-13.51192.71798-3.89131 2.97132-5.705452 6.90101-6.017775 3.68243-.29293 6.51475 1.14909 8.93455 3.72808 3.501418 3.731718 5.11798 8.252122 5.65172 13.49091m10.62796-.086786c.555556-4.80162 1.94707-9.03677 5.011717-12.688083 2.93293-3.49495 6.49374-5.04566 11.03394-4.32041 2.623435.41899 4.13818 2.04404 5.02707 4.40161.87394 2.31878.97374 4.75757.727274 7.15919-.259396 2.52565-.82101 5.02222-1.306265 7.52081-.109493.56525-.44808 1.08565-.640807 1.53333-.30626.06343-.47111.15596-.558786.10747-3.54586-1.95798-6.17374-4.72485-7.235153-8.70667-.65414-2.454946-2.412527-3.30222-4.369295-1.643633-1.61414 1.36808-3.00808 3.04525-4.286865 4.745454-1.073537 1.42788-1.319597 1.76-3.40283 1.89091m-12.74267 13.6701c.576564-2.597574 1.93212-4.657776 3.61091-6.51313.227472-.251717.866664-.169697 1.315553-.174545 1.67111-.017375 3.34869.08 5.01051-.04202.85778-.06303 1.42505.1099 1.866265.81818.35555.5701.75151 1.11475 1.10828 1.68404 2.33818 3.732525 2.353534 5.096566-.296567 8.550303-1.26101 1.643634-2.78303 3.08889-4.211716 4.600806-.716363.758384-1.500605.819394-2.288484.06222-2.24121-2.15434-4.298584-4.451716-5.59515-7.322423-.243636-.539797-.359192-1.137373-.519596-1.663433m14.37971-7.554665c2.06546-1.131315 2.06546-1.131315 3.26586.438382.12202.16.242427.321213.36445.481213 2.034745 2.666664 2.63232 2.69212 5.042422.071916.96889 1.46505 1.250505 3.06667 1.270707 4.70263.011712.93738-.540207 1.7301-1.48162 1.94101-1.60283.359197-3.24687.46263-4.519195-.8699-1.824645-1.911913-3.162422-4.122822-3.942624-6.76525m-15.96905-1.07559c.81212.39394 1.39717.677576 2.04929.993535-.73495 2.68606-2.06222 4.898588-3.882825 6.808487-1.32364 1.388282-3.026266 1.334545-4.685256.84283-1.107876-.32808-1.53212-1.34061-1.364846-2.41576.21334-1.37091.62061-2.711515.94182-4.055758.34344.06747.51071.04848.57899.121613 2.23233 2.379797 2.77334 2.351515 4.76889-.256566.48283-.63111.97859-1.25212 1.59394-2.038382m16.750305-3.25402c.71596 1.18586.23798 1.61899-.454546 1.88323-4.84202 1.848486-9.694546 1.85091-14.53778.00404-.689695-.262625-1.176564-.69131-.53131-1.774544 5.10788 1.82303 10.341417 2.115556 15.52364-.112727"/>
    </g>
  </g>
</svg>
