<?xml version="1.0" encoding="UTF-8"?>
<svg width="80px" height="80px" viewBox="0 0 80 80" version="1.1" xmlns="http://www.w3.org/2000/svg" xmlns:xlink="http://www.w3.org/1999/xlink">
    <!-- Generator: Sketch 46.2 (44496) - http://www.bohemiancoding.com/sketch -->
    <title>frst-firstcoin</title>
    <desc>Created with Sketch.</desc>
    <defs>
        <linearGradient x1="-12.409668%" y1="3.70849609%" x2="87.5683594%" y2="82.4194336%" id="linearGradient-1">
            <stop stop-color="#0B2348" offset="0%"></stop>
            <stop stop-color="#006BB2" offset="100%"></stop>
        </linearGradient>
    </defs>
    <g id="Coin-Logos" stroke="none" stroke-width="1" fill="none" fill-rule="evenodd">
        <g transform="translate(-620.000000, -1110.000000)" id="frst-firstcoin">
            <g transform="translate(620.000000, 1110.000000)">
                <circle id="1" fill="url(#linearGradient-1)" cx="40" cy="40" r="40"></circle>
                <g id="first-firstcoin" transform="translate(18.000000, 14.000000)">
                    <path d="M43.2092344,25.5358533 L43.2077983,25.5358533 C43.2077983,18.7134889 43.2081486,11.8911246 43.206152,5.06872512 C43.206082,4.85310036 43.1949084,4.63572171 43.1663966,4.42216656 C42.8952188,2.39086704 41.1314778,0.850660169 39.0817426,0.850660169 C27.7043622,0.850519857 16.3269817,0.851046027 4.9496363,0.849292125 C4.41652792,0.849186891 3.90643217,0.952000645 3.41539101,1.15187535 C1.82282606,1.80015273 0.824246113,3.32531112 0.826487831,5.1110994 C0.83202207,9.53651068 0.8440713,13.9618869 0.846348044,18.3872631 C0.848204466,21.9532973 0.838747222,25.5192964 0.835839995,29.0853306 C0.831286507,34.6917145 0.827643716,40.2980984 0.825752267,45.9044823 C0.825682214,46.1144244 0.835244539,46.3260502 0.861794877,46.5340981 C1.12862928,48.6252408 2.88722142,50.1814433 4.9918086,50.181759 C16.3458261,50.1834076 27.6998437,50.1831972 39.0538612,50.1789176 C39.3317991,50.1788475 39.6154114,50.1511358 39.8867292,50.0919592 C41.8832236,49.6564301 43.2094095,47.9959757 43.2093044,45.950224 C43.2090943,39.1453987 43.2092344,32.3406085 43.2092344,25.5358533 L43.2092344,25.5358533 Z M0.066825905,25.6615028 C0.066825905,18.7572663 0.0652496976,11.8530298 0.0677015758,4.9487582 C0.068507193,2.60926296 1.83406967,0.527661516 4.12545495,0.161481787 C4.41775386,0.114757829 4.71674289,0.0887299189 5.01264957,0.0886246847 C16.3491887,0.0850116459 27.6857629,0.0845556313 39.0223021,0.0863796897 C41.4339345,0.0867304702 43.4069258,1.70803778 43.8793677,4.07577085 C43.9350254,4.35471148 43.9663744,4.64357919 43.9664444,4.92785168 C43.9702273,18.6486647 43.9696669,32.3694777 43.9686862,46.0902907 C43.968511,48.4532181 42.1443487,50.5533758 39.8092849,50.8755326 C39.51569,50.9160477 39.2171213,50.9386029 38.9208293,50.9386731 C27.6251665,50.941795 16.3294686,50.9413039 5.03377075,50.9413039 C2.58441446,50.9413039 0.556676146,49.25412 0.143709801,46.8423991 C0.0654598586,46.3856478 0.0715195005,45.9110769 0.0712392858,45.4447143 C0.0670010392,38.8502871 0.0683320588,32.255895 0.0683320588,25.6615028 L0.066825905,25.6615028 Z" id="Fill-4" fill="#1DAAE3"></path>
                    <path d="M14.6542228,28.1945201 C14.6969205,28.1367115 14.7293204,28.0792537 14.7741197,28.0341082 C15.3743395,27.4293978 15.9772213,26.8273884 16.5766004,26.2219062 C16.6606999,26.1369121 16.7282666,26.0935556 16.8607381,26.1450502 C17.1534573,26.2588083 17.4695745,26.1315802 17.630838,25.862707 C17.7868475,25.6026734 17.7447803,25.2742026 17.5279992,25.059525 C17.3134949,24.8470572 16.9838574,24.8087169 16.7244837,24.966042 C16.4658456,25.1229812 16.3385931,25.4377014 16.4459854,25.7241136 C16.4972647,25.860918 16.4575442,25.9338453 16.3665795,26.0239257 C15.7611758,26.6233744 15.1599402,27.2270676 14.5576538,27.8297085 C14.5132398,27.8741173 14.4710325,27.9207711 14.4139738,27.9810001 C14.4863742,28.0453332 14.5506485,28.1024754 14.6542228,28.1945201 M26.0558068,23.4516525 C26.0233019,23.4898525 25.9931438,23.5304028 25.9578718,23.5658667 C25.5788114,23.9468844 25.1964585,24.324675 24.821111,24.7093058 C24.7317575,24.8008244 24.6391466,24.8329559 24.513015,24.8324999 C23.3046243,24.8282554 22.0961986,24.8318684 20.887808,24.827168 C20.7602052,24.8266769 20.6713421,24.8640701 20.5818486,24.9541856 C19.7339541,25.8081957 18.8804553,26.6566284 18.0325257,27.5106035 C17.9359567,27.6078398 17.859248,27.6440053 17.7164436,27.5899149 C17.4357386,27.4835583 17.1166791,27.6197313 16.9622809,27.8802559 C16.8098091,28.1374482 16.8530322,28.476688 17.0651897,28.6877876 C17.2768568,28.8983261 17.6183685,28.9395428 17.8718226,28.7850941 C18.1345939,28.6249629 18.2611458,28.3146975 18.1580969,28.0285659 C18.1113711,27.8988473 18.1328776,27.8204829 18.2282206,27.725667 C19.0525421,26.9059983 19.8730106,26.0823307 20.6912724,25.2565584 C20.7839534,25.1630403 20.8781055,25.1185613 21.0127837,25.1201749 C21.5672584,25.1271204 22.1219083,25.1230513 22.6764881,25.1230513 L22.8948804,25.1230513 C22.840764,25.195277 22.8165254,25.237055 22.7835652,25.2701336 C22.2720683,25.7830798 21.7566485,26.2921324 21.2496001,26.8094986 C21.1561835,26.9047705 21.0911037,26.8757259 20.9932737,26.8301244 C20.656771,26.6731151 20.2610028,26.8306155 20.1186888,27.168347 C19.9716111,27.5174437 20.1391795,27.9122471 20.4914794,28.0465259 C20.8366688,28.1781036 21.2298099,28.0009595 21.3420359,27.6472675 C21.3776932,27.5349126 21.3858545,27.4014055 21.3628769,27.2863144 C21.3402145,27.1728019 21.3608803,27.1041191 21.4394105,27.0259301 C22.0397003,26.4282703 22.6342808,25.8248929 23.2370576,25.2297587 C23.2957275,25.1718098 23.3968149,25.1302072 23.4795133,25.127857 C23.8586787,25.1171582 24.2384046,25.1182456 24.6177102,25.1257172 C24.7505319,25.128313 24.8471359,25.0895167 24.9407977,24.9942096 C25.4197546,24.5065897 25.9068027,24.0269676 26.3858296,23.5394178 C26.4785456,23.4450228 26.5719972,23.4012103 26.7066754,23.4014208 C28.9074813,23.4051391 31.1082872,23.4039815 33.3090931,23.404192 C33.5380635,23.404192 33.5390442,23.4051391 33.5396046,23.6418808 C33.5404803,24.0218813 33.5330546,24.4020922 33.5429322,24.7818121 C33.5474156,24.9527123 33.502266,25.0104859 33.3183401,25.0098545 C31.3335447,25.0025582 29.3487143,25.0066974 27.3639189,25.002453 C27.2133035,25.0021022 27.1052107,25.0426875 26.9968026,25.1514645 C25.240102,26.9142416 23.4781122,28.671757 21.7212714,30.4344288 C21.6172767,30.538786 21.5145781,30.5793713 21.3691116,30.5788802 C19.95056,30.5740044 18.5320083,30.574285 17.1134567,30.5787048 C16.979479,30.5790907 16.8862026,30.5376635 16.7925759,30.4436193 C15.6343436,29.2802909 14.4713127,28.1217683 13.3133257,26.9581944 C13.2149353,26.8593445 13.1168602,26.8160231 12.9766127,26.8182681 C12.4805627,26.8260905 11.9842676,26.8213199 11.4880775,26.8213199 L11.2523118,26.8213199 C11.307374,26.7490591 11.3320679,26.7078073 11.3649581,26.6747638 C12.3131695,25.7227456 13.2630972,24.7724462 14.2094171,23.818604 C14.2884376,23.7389417 14.3496645,23.7346973 14.4520129,23.7757737 C14.7990588,23.9150686 15.1823224,23.7344868 15.3062823,23.386688 C15.4332546,23.0305055 15.2427787,22.6577311 14.8726501,22.5380448 C14.5357271,22.4291275 14.1547052,22.6281252 14.0647563,22.9839219 C14.0323915,23.1119918 14.0740034,23.2576008 14.0711312,23.3949664 C14.0697651,23.4612639 14.0658421,23.5492046 14.0254562,23.5899302 C12.9805357,24.6434993 11.9314821,25.6928942 10.8790659,26.7389215 C10.8318147,26.785891 10.7468046,26.8170053 10.6790277,26.8176016 C9.99607453,26.8232842 9.31305131,26.8192152 8.63006312,26.8228282 C8.51205773,26.8234596 8.46662793,26.7839968 8.458887,26.6628372 C8.44631236,26.4647515 8.49629565,26.3147227 8.64670087,26.1671844 C9.42233503,25.4063065 10.1867256,24.633888 10.9498201,23.8603118 C11.0450581,23.763777 11.1227826,23.7403449 11.2525921,23.7881562 C11.533192,23.891426 11.8375752,23.7728973 11.9969473,23.5194935 C12.1576153,23.2639148 12.1239546,22.9257625 11.9164206,22.710734 C11.7061195,22.4927941 11.3749758,22.4467016 11.1134305,22.5988351 C10.8524455,22.750723 10.7173821,23.0659343 10.821692,23.3502068 C10.8758435,23.4977802 10.838715,23.5778283 10.7360514,23.6792389 C10.0378966,24.3689785 9.3461867,25.0652778 8.65202495,25.7590865 C8.60750584,25.8036356 8.55986935,25.8450277 8.48140925,25.9178146 C8.47139157,25.8237704 8.45983272,25.7654356 8.45976267,25.7071008 C8.4585017,24.6489364 8.45541934,23.590737 8.46375573,22.5326428 C8.46452632,22.4351609 8.51563046,22.3139312 8.58442316,22.244652 C10.0585624,20.7611313 11.5375704,19.2823812 13.0209567,17.8080859 C13.0860015,17.7434371 13.2015901,17.6980812 13.2939558,17.6974849 C14.4497712,17.6900834 15.6056917,17.6950996 16.7615071,17.6896975 C16.9119123,17.688996 16.9674648,17.729897 16.9652231,17.8861697 C16.9581127,18.3771571 16.9600742,18.868355 16.9673948,19.3593424 C16.9695314,19.5031975 16.9217548,19.5535345 16.7767087,19.5520261 C16.1930216,19.5460628 15.6091593,19.5463435 15.0254722,19.5521313 C14.8909692,19.5534643 14.8216861,19.5184564 14.7723333,19.3803541 C14.6722967,19.1003612 14.3648662,18.9307939 14.087839,18.9721509 C13.7782718,19.0183487 13.5323484,19.272875 13.5127684,19.5672851 C13.4910868,19.8931952 13.664995,20.1609108 13.9623028,20.2591995 C14.2526052,20.3552081 14.5623474,20.2502546 14.7206687,19.9800484 C14.7877801,19.8655186 14.8658549,19.8359478 14.9879935,19.83693 C15.5775651,19.8415603 16.1672418,19.843209 16.7567434,19.8362284 C16.9134184,19.8343693 16.9752758,19.8806022 16.9693213,20.0442413 C16.9588833,20.3303378 16.9646627,20.6171008 16.9684806,20.9035131 C16.9700218,21.0196565 16.9300562,21.0707652 16.805816,21.0705197 C15.3697509,21.0677134 13.9336859,21.0668365 12.4976208,21.0719228 C12.3650092,21.0724139 12.3367426,20.9912433 12.2894563,20.9035482 C12.1505399,20.6460753 11.8601325,20.5041495 11.6016344,20.5609409 C11.2952898,20.6282907 11.0787889,20.8623315 11.0595942,21.1469898 C11.0381578,21.4642707 11.2064617,21.7306885 11.4925959,21.8324499 C11.8132315,21.9464886 12.1438498,21.8129114 12.3002796,21.4942625 C12.3443784,21.4044627 12.3891777,21.3631407 12.4942932,21.3633863 C13.9361728,21.3667888 15.3780873,21.3656313 16.8200019,21.3662627 C16.8597223,21.3662627 16.8994427,21.3739448 16.9528587,21.379452 C16.958533,21.4586583 16.9682354,21.5330588 16.9685507,21.6075295 C16.9707223,22.1278421 16.9707574,22.6481548 16.9718782,23.1684675 C16.9724036,23.4036658 16.9728239,23.4039815 17.2153147,23.4039815 C20.0816654,23.4040516 22.9480161,23.4040516 25.8144019,23.4040516 L26.0370675,23.4040516 C26.0433022,23.4199069 26.049572,23.4357973 26.0558068,23.4516525" id="Fill-8" fill="#FFFFFF"></path>
                    <path d="M8.49189628,28.6214515 C8.56363123,28.6889066 8.6108474,28.7308951 8.65540153,28.7755845 C10.1777727,30.3017601 11.6990931,31.8290232 13.2241614,33.3525329 C13.3143905,33.4426484 13.3408708,33.5128045 13.2940749,33.6387698 C13.1857019,33.9302684 13.3128843,34.2515131 13.5784928,34.4120653 C13.8384269,34.56925 14.1824254,34.5226313 14.3979455,34.3011135 C14.6102782,34.0828579 14.6490879,33.7508441 14.4924129,33.4929503 C14.3311143,33.2275148 14.008202,33.0989186 13.7200712,33.2095899 C13.5917679,33.2588395 13.5233255,33.2266729 13.4348828,33.1379956 C11.8262755,31.5245458 10.2152514,29.9134462 8.60160032,28.3050476 C8.50247439,28.2062327 8.45704458,28.1054184 8.4621585,27.9660182 C8.47049489,27.7383266 8.46639675,27.5100387 8.46191331,27.2821366 C8.4596716,27.1690099 8.48954948,27.1160421 8.61907871,27.116428 C10.0609582,27.1205672 11.5028728,27.1179012 12.9447523,27.1227069 C13.010883,27.1229525 13.0928458,27.1611174 13.1404822,27.2087183 C14.3848104,28.4511476 15.6262314,29.6964884 16.86457,30.944881 C16.9118913,30.9926223 16.9489497,31.0753012 16.9489847,31.141704 C16.9508761,34.1758498 16.948144,37.2099956 16.9456221,40.2441413 C16.9456221,40.261505 16.9413488,40.2788335 16.9370756,40.3115263 L16.2227384,40.3115263 C16.2227384,40.241721 16.2227734,40.1686183 16.2227384,40.0955507 C16.2215474,37.973364 16.2181849,35.8511773 16.2231237,33.7290256 C16.2235089,33.5554594 16.1683417,33.4379129 16.0483398,33.3186475 C14.5320282,31.8113439 13.0209357,30.2986733 11.5052546,28.790668 C11.4076699,28.693572 11.3737639,28.6164003 11.4267245,28.475562 C11.533136,28.192412 11.4018904,27.8802173 11.1388389,27.7214541 C10.8814968,27.5661285 10.544959,27.6075908 10.3330817,27.820725 C10.1161255,28.0389455 10.0778762,28.3847098 10.242117,28.642779 C10.4061126,28.9005325 10.7190073,29.019412 11.0041608,28.9112664 C11.1233571,28.8660508 11.1908538,28.8906756 11.2753735,28.9757047 C12.7788302,30.487779 14.2859647,31.996135 15.7881605,33.509437 C15.8464451,33.5681226 15.8951324,33.6676741 15.8953075,33.7483536 C15.8998961,35.8938672 15.8975493,38.039416 15.895973,40.1849647 C15.895938,40.2251992 15.8912444,40.2654337 15.8853249,40.3597937 C15.8001396,40.2976003 15.7356552,40.2622416 15.6856369,40.2123256 C14.3546173,38.883043 13.0251039,37.5523573 11.6953452,36.221847 C11.1997856,35.7260188 10.7054519,35.2288927 10.2074404,34.7355901 C10.1301362,34.6590498 10.0969308,34.5986104 10.1420804,34.4816952 C10.2580192,34.181357 10.1343394,33.8589898 9.86162054,33.6937371 C9.5917388,33.5302032 9.26700504,33.572367 9.04430444,33.7998482 C8.81981748,34.0291183 8.78703237,34.3681125 8.96346252,34.6363544 C9.13173142,34.8921435 9.45713068,35.0026393 9.74736301,34.8854436 C9.84638386,34.8454546 9.90284712,34.8597314 9.97349624,34.9317466 C10.2470558,35.2106171 10.5261146,35.4840855 10.8290266,35.7853358 C10.7526331,35.7970168 10.7111263,35.8087328 10.6696195,35.808803 C10.1734294,35.8101359 9.67723929,35.8096799 9.18101417,35.8096799 C9.16935023,35.8096799 9.15765127,35.8101009 9.14598734,35.8094695 C9.00216717,35.8019277 8.48096791,35.2921735 8.48061764,35.1480027 C8.47785052,33.9437032 8.47802566,32.7394037 8.47802566,31.5350692 C8.47802566,31.5135663 8.4869575,31.4920635 8.49820111,31.4414809 C8.55813202,31.4959221 8.60464765,31.5348236 8.64731033,31.5775487 C10.1163006,33.0497743 11.5843802,34.5228769 13.0550868,35.9933486 C13.133582,36.0718533 13.1625492,36.1332048 13.1188357,36.247945 C13.0046482,36.5476168 13.1292036,36.8778766 13.3977894,37.0396215 C13.6594748,37.1971921 14.0046642,37.1538356 14.2201843,36.9363868 C14.4360897,36.7185521 14.4746192,36.3732087 14.3120947,36.1125789 C14.1438609,35.8428287 13.8224547,35.7253523 13.5196127,35.8417062 C13.4112046,35.8833438 13.3523596,35.8574562 13.2783479,35.7832662 C11.7105118,34.2116644 10.1401889,32.6425883 8.57315853,31.0701798 C8.52454129,31.0213512 8.47820079,30.9429167 8.4774302,30.8777066 C8.46888365,30.1645699 8.46947911,29.4513631 8.46863847,28.7381211 C8.46860344,28.7107953 8.47914652,28.6834345 8.49189628,28.6214515" id="Fill-10" fill="#FFFFFF"></path>
                    <path d="M27.4394122,7.42334952 C27.1315964,7.11617106 26.8488598,6.83912465 26.5752302,6.55330873 C26.5466483,6.52345731 26.5576117,6.43698992 26.5747749,6.38489902 C26.6636379,6.11563994 26.5979626,5.83648884 26.3832832,5.65138199 C26.167728,5.46560866 25.9187223,5.4315128 25.6644976,5.5481473 C25.4023217,5.66835977 25.2685542,5.88714154 25.2741936,6.17906105 C25.2828802,6.63037519 25.7391397,6.9453059 26.1649609,6.78527985 C26.2811099,6.74164276 26.3411809,6.77100308 26.4182049,6.84870096 C27.2731048,7.71074395 28.1322429,8.56861266 28.9857417,9.43205878 C29.0758307,9.52315646 29.1654994,9.5569717 29.291596,9.55676123 C31.3053586,9.55321835 33.3191212,9.55423561 35.3328838,9.55434085 C35.5621695,9.55434085 35.5627649,9.55465655 35.5632203,9.78287432 C35.5642361,10.3206559 35.5604532,10.8585075 35.568019,11.3962189 C35.5700856,11.5425996 35.5373004,11.5999522 35.3754064,11.5994962 C33.3850067,11.5940591 31.394572,11.5972863 29.4041723,11.5914633 C29.3173758,11.5911827 29.2088977,11.5471598 29.1473906,11.4861941 C28.3051003,10.6516172 27.4703409,9.80939332 26.6302574,8.97257144 C26.5505013,8.89308459 26.5270333,8.83253988 26.571027,8.71867654 C26.6855647,8.4225126 26.5595382,8.09081459 26.2910575,7.92654409 C26.030633,7.76718453 25.6868096,7.80948865 25.4694331,8.02763902 C25.2515662,8.24628049 25.2112503,8.58990503 25.3728642,8.85042969 C25.5409929,9.12144267 25.8645358,9.24333889 26.1631045,9.12610805 C26.2822308,9.07934902 26.3418114,9.12098666 26.4166287,9.19608876 C27.2741556,10.0567988 28.13494,10.9142816 28.9908206,11.7766053 C29.0797888,11.8661946 29.1667254,11.9063239 29.2949586,11.9057275 C30.3747658,11.9006061 31.454643,11.9048155 32.5344502,11.9001501 C32.6619128,11.8995889 32.7510211,11.9374732 32.8406197,12.027729 C33.7089349,12.9024352 34.5816634,13.7727566 35.4529558,14.6444811 C35.5527122,14.7443132 35.6248675,15.1307681 35.5551991,15.2492968 C35.5353039,15.2831471 35.470154,15.3070703 35.4256349,15.3072457 C34.6201579,15.3107184 33.8146458,15.3115954 33.0091688,15.3061583 C32.9481521,15.3057374 32.87372,15.2673971 32.8288507,15.2230584 C32.3468464,14.7468739 31.8707618,14.2647262 31.3895631,13.7876998 C31.3205603,13.7192976 31.3155865,13.6647863 31.3495275,13.573864 C31.4657815,13.2623359 31.34634,12.9343211 31.0703636,12.7679109 C30.8170496,12.615146 30.4760283,12.6568888 30.262785,12.8668309 C30.0389285,13.0871562 30.0006792,13.438568 30.1717152,13.703267 C30.3439772,13.9698601 30.6578526,14.0691661 30.9711676,13.9670539 C31.0252491,13.9494096 31.1169493,13.9509881 31.1514858,13.984628 C31.5697412,14.3922349 31.9806409,14.8074537 32.3927316,15.2214448 C32.4071276,15.235897 32.4136426,15.2582417 32.4354994,15.2982657 C32.3614176,15.3031065 32.3061102,15.3098064 32.2508029,15.3098415 C31.3752722,15.310508 30.4997065,15.3081227 29.6241758,15.3127179 C29.4975888,15.3133844 29.4055733,15.2779906 29.3165351,15.1865422 C28.9579304,14.8182928 28.5894832,14.4596549 28.2310886,14.0911951 C28.1385478,13.9960985 28.0447809,13.9547064 27.9103479,13.9554781 C26.9647986,13.9609503 26.0191792,13.9583896 25.0735949,13.9583545 L24.8541868,13.9583545 L24.8541868,12.5932573 L25.2344031,12.5932573 C25.6196282,12.5932573 26.0049233,12.5960284 26.3901134,12.5914683 C26.4936877,12.5902055 26.5558604,12.612024 26.6059838,12.7174335 C26.7475972,13.0152462 27.0595112,13.1573122 27.3622481,13.0818594 C27.6581197,13.0081253 27.8687361,12.7322716 27.8649532,12.4234094 C27.8613104,12.1214575 27.650624,11.8523738 27.3627735,11.7820073 C27.0539069,11.7065193 26.7585606,11.8505849 26.5999942,12.1413468 C26.569801,12.196735 26.4994672,12.2665403 26.4465416,12.2674874 C25.9216996,12.2768884 25.3966474,12.2731701 24.857024,12.2731701 L24.857024,4.22903736 L27.4394122,4.22903736 L27.4394122,7.42334952 Z" id="Fill-12" fill="#FFFFFF"></path>
                    <path d="M14.0551764,8.17154671 L15.6817524,8.17154671 C15.6817524,8.45189046 15.6993359,8.7252186 15.6767086,8.99514417 C15.6547468,9.25700178 15.7466922,9.43484748 15.9334903,9.616657 C16.7244312,10.3864798 17.4977185,11.1744029 18.2804281,11.9527497 C18.3629163,12.0347621 18.3959116,12.09899 18.3493259,12.2229208 C18.2361892,12.5238904 18.3661037,12.847766 18.6394882,13.0083182 C18.8979512,13.160101 19.2328427,13.11699 19.4464013,12.9044872 C19.6603452,12.6915635 19.7014667,12.3392396 19.5424799,12.0807845 C19.376803,11.8114904 19.0542759,11.694014 18.7504532,11.8107888 C18.6417299,11.8525668 18.5827797,11.8258724 18.5088731,11.7513666 C17.7067587,10.9428878 16.9005461,10.1385131 16.1003231,9.32814006 C16.0456812,9.27282198 16.00491,9.17968977 16.0014073,9.10216729 C15.9896033,8.83967826 16.0013373,8.57627721 15.9960832,8.31336725 C15.9938065,8.19971438 16.0346127,8.15835737 16.1484149,8.16067252 C16.421414,8.16624993 16.6946233,8.1624615 16.9884284,8.1624615 L16.9884284,4.22744131 L18.0319478,4.22744131 C18.0319478,4.30313973 18.0319127,4.37150685 18.0319478,4.43990904 C18.0326133,5.64389283 18.034855,6.8479117 18.0314924,8.05186042 C18.0311422,8.17263413 18.0645227,8.25983815 18.1517395,8.34328883 C18.3837573,8.56529778 18.6126226,8.7912004 18.8312951,9.02622332 C18.8863222,9.0853649 18.925097,9.18456562 18.9253421,9.26549067 C18.9263929,9.60459015 19.1287079,9.87602407 19.4592561,9.95368687 C19.7631489,10.0251058 20.0895289,9.85255686 20.2147499,9.55425315 C20.3387449,9.25879076 20.2315627,8.92772416 19.9611906,8.73363733 C19.9053579,8.69354312 19.8407334,8.61584525 19.8404882,8.55519531 C19.8345686,7.13499043 19.8369154,5.71471541 19.8381414,4.29451053 C19.8381764,4.27753276 19.8432553,4.26059006 19.8482992,4.22919521 L21.024255,4.22919521 C21.0271622,4.29398436 21.0323812,4.35635313 21.0324162,4.41875697 C21.0344478,6.79750455 21.0353935,9.1762872 21.0393165,11.5550348 C21.0395267,11.6830346 21.0304197,11.7590487 20.8699968,11.7923378 C20.5627765,11.8561096 20.3662759,12.1416099 20.3737717,12.4505422 C20.3809872,12.7486355 20.5969977,13.0148428 20.887195,13.083245 C21.1855185,13.1535764 21.491618,13.0152637 21.631375,12.725484 C21.6843356,12.6157247 21.7481895,12.5876974 21.8594698,12.5911 C22.0918728,12.5982208 22.3246611,12.5932748 22.5706896,12.5932748 L22.5706896,13.9486554 C22.5099881,13.9518826 22.448481,13.957916 22.3869739,13.9579511 C21.0096838,13.9584773 19.6323938,13.9605469 18.2551738,13.9534261 C18.1635786,13.952935 18.0495312,13.9047377 17.9844514,13.8399135 C16.7095798,12.570895 15.4392967,11.2972462 14.1735321,10.0191074 C14.1089776,9.95393241 14.0622519,9.84063032 14.0603604,9.74862061 C14.0496422,9.22932521 14.0551764,8.7097141 14.0551764,8.17154671" id="Fill-14" fill="#FFFFFF"></path>
                    <path d="M8.49092254,40.8526262 L8.49092254,38.8098561 C8.5561425,38.8061028 8.61271083,38.8000343 8.66924414,38.7999992 C9.4746511,38.7993678 10.2800931,38.7958951 11.08543,38.8045944 C11.1769201,38.8056117 11.2896715,38.8533529 11.3552417,38.917651 C11.9140948,39.4653947 12.4667832,40.0196629 13.014883,40.5782808 C13.1093854,40.6746051 13.2044132,40.7089465 13.335974,40.7084554 C14.4623669,40.7041759 15.5887947,40.706 16.7151876,40.706 L16.9467149,40.706 C16.9467149,40.9097683 16.946785,41.0944542 16.9467149,41.2791051 C16.9466099,41.5655173 16.9510232,41.8520348 16.942897,42.1382015 C16.9409705,42.2063231 16.9155411,42.2915627 16.8696909,42.3379359 C16.0850899,43.1308401 15.2955851,43.9189386 14.506921,44.7077737 C14.4909838,44.7236991 14.4716139,44.7361869 14.4450986,44.7572688 C14.4213154,44.7387476 14.3983378,44.7233834 14.3782324,44.7048973 C13.9979811,44.3557655 13.5182887,44.4448637 13.2727155,44.9040003 C13.247181,44.9517064 13.1718383,45.0016926 13.1194381,45.001868 C11.6136697,45.0069894 10.1079012,45.0059371 8.6020977,45.0050952 C8.56819173,45.0050952 8.53428575,44.9954487 8.4921835,44.9890294 L8.4921835,42.9407872 L8.69264206,42.9407872 C10.1459053,42.9407872 11.5991335,42.9419799 13.0523968,42.9386475 C13.1741851,42.9383318 13.2474262,42.9580807 13.3067616,43.0855192 C13.4389179,43.369476 13.7582925,43.5028778 14.057842,43.4290386 C14.3513668,43.3566725 14.565731,43.0793455 14.5654508,42.7722723 C14.5652056,42.4648834 14.347724,42.1866092 14.0547946,42.1186981 C13.7496759,42.0479808 13.4429109,42.1828559 13.3040646,42.4641117 C13.2551321,42.5633124 13.2105429,42.6152279 13.0871434,42.6148069 C11.6047378,42.6096855 10.1222972,42.6115798 8.63985662,42.6111237 C8.59456693,42.6111237 8.54931226,42.6057919 8.49354955,42.6023192 L8.49354955,41.1837279 C8.55530185,41.180185 8.61218543,41.1740463 8.669069,41.1740113 C9.38694392,41.1733798 10.1048188,41.1748882 10.8226587,41.172117 C10.924867,41.1717663 10.9862691,41.1916555 11.0376884,41.2983279 C11.1803527,41.5943866 11.4931423,41.7296124 11.7977357,41.6507219 C12.1043255,41.5713052 12.3142413,41.2930311 12.3052044,40.9780653 C12.2964477,40.673658 12.076234,40.4099412 11.7732519,40.3410129 C11.4713556,40.2723301 11.1716661,40.4277258 11.0209806,40.7216798 C10.9941851,40.7739461 10.9350248,40.8466629 10.8902255,40.8471189 C10.097253,40.854766 9.30424557,40.8526262 8.49092254,40.8526262" id="Fill-16" fill="#FFFFFF"></path>
                    <path d="M13.4576152,17.3781133 C13.5199279,17.3093954 13.5561457,17.2661442 13.595796,17.2262955 C13.8140482,17.0068122 14.0376245,16.7924502 14.2503775,16.5677402 C14.3909401,16.419325 14.5042169,16.3070051 14.7502804,16.4064163 C14.9993912,16.5070903 15.3169095,16.3130035 15.4448625,16.0571793 C15.5796457,15.7877097 15.516002,15.4550646 15.2920054,15.2586275 C15.0730176,15.0665402 14.7368651,15.0412138 14.4947246,15.1985739 C14.239274,15.3645983 14.1169603,15.6782662 14.2270846,15.9640821 C14.2746511,16.0875569 14.2486261,16.1498906 14.1656125,16.2330255 C12.3206442,18.0798847 10.4779527,19.9289888 8.63449051,21.7773563 C8.59455993,21.8173804 8.55084644,21.853616 8.47778047,21.9198083 C8.46979435,21.815837 8.46037213,21.749785 8.46033711,21.6836629 C8.45998684,21.1869227 8.46590637,20.6900772 8.45974165,20.1934071 C8.45792026,20.0477982 8.50128347,19.9432305 8.60555835,19.8394346 C9.99216554,18.4592538 11.3734486,17.073706 12.7600909,15.6935953 C12.8596021,15.5945349 12.9017394,15.4971232 12.8997428,15.3575476 C12.8926324,14.8550195 12.8993926,14.3523511 12.8956797,13.8497529 C12.8949091,13.7414319 12.9216346,13.6860787 13.0273106,13.6239906 C13.1653863,13.5428901 13.2645473,13.3970356 13.3858452,13.284856 C13.4349178,13.2395001 13.497896,13.1775172 13.5549197,13.1771664 C14.6228178,13.170677 15.6907859,13.1701859 16.7587189,13.1768858 C16.8343419,13.1773769 16.9252365,13.2271877 16.9823653,13.2819445 C17.2647866,13.5525717 17.54339,13.827759 17.8124311,14.1116807 C17.9256729,14.2311565 18.041997,14.2806165 18.2090399,14.2797747 C19.5862599,14.2730748 20.9635149,14.2759862 22.34077,14.2759862 L22.5834709,14.2759862 C22.5834709,14.6041063 22.5857827,14.9121266 22.579723,15.2199715 C22.5791626,15.2496125 22.5307205,15.2944072 22.4967795,15.3035625 C22.4421726,15.3183655 22.3811559,15.3101923 22.3228012,15.3101923 C20.6187458,15.3103326 18.9146905,15.3103326 17.2106351,15.3103326 L16.9620147,15.3103326 L16.9620147,17.3781133 L13.4576152,17.3781133 Z" id="Fill-18" fill="#FFFFFF"></path>
                    <path d="M11.352979,8.1646644 C11.7484669,8.1646644 12.120662,8.16087597 12.4924719,8.17143446 C12.5242412,8.17234649 12.5780074,8.26782893 12.5795486,8.32062139 C12.5883403,8.62425696 12.5844873,8.92827839 12.5848726,9.23215951 C12.5862037,10.2139239 12.5855031,11.1957233 12.5911074,12.1774526 C12.591843,12.3072414 12.5583923,12.3820278 12.4371295,12.4520085 C11.9926039,12.7085693 12.0003449,13.3327481 12.4494239,13.5873796 C12.5580421,13.6489416 12.5941898,13.7140815 12.5929638,13.8327506 C12.5881301,14.3119167 12.5969569,14.7912582 12.5874996,15.2702489 C12.5857483,15.3585053 12.5454674,15.4681943 12.4844857,15.5297212 C11.1982304,16.8283456 9.90651092,18.1214978 8.61549196,19.4153866 C8.58351246,19.447483 8.54768001,19.4757208 8.4829154,19.5328279 C8.47464907,19.4414496 8.46466642,19.3823431 8.46470145,19.3233067 C8.46505172,18.5402244 8.46925494,17.757107 8.46592739,16.9740598 C8.46536696,16.8400967 8.51132216,16.7465085 8.60508899,16.6533763 C9.47102232,15.7932626 10.3311412,14.9273259 11.1975299,14.0676682 C11.304677,13.9613467 11.3533292,13.8553408 11.352979,13.7010676 C11.3487757,11.9362209 11.3518581,10.1713742 11.352979,8.40652753 C11.353014,8.337073 11.352979,8.26761846 11.352979,8.1646644" id="Fill-20" fill="#FFFFFF"></path>
                    <path d="M22.0351889,30.5541712 C22.0963808,30.4878737 22.1369068,30.4409042 22.1805853,30.3970567 C23.8047094,28.7668746 25.4301295,27.1378852 27.0513114,25.5047566 C27.1608403,25.394401 27.2247643,25.3773882 27.3408082,25.4992493 C27.6912166,25.8670426 28.0575272,26.2196472 28.4119637,26.5837222 C28.4966586,26.6707158 28.5843307,26.7024965 28.7041575,26.7022509 C30.2391033,26.6988484 31.7740492,26.7029525 33.30896,26.696007 C33.4849348,26.6952003 33.5514857,26.7401001 33.5376151,26.9199453 C33.5237445,27.1000711 33.5293138,27.2821963 33.5346028,27.4632341 C33.5382806,27.5892344 33.4942869,27.6367301 33.3620606,27.6343799 C32.9419838,27.6269082 32.5216619,27.6316789 32.10148,27.6316789 C30.7415983,27.6316789 29.3817166,27.6300653 28.0218699,27.6343799 C27.8968941,27.6347307 27.82621,27.6020379 27.7618657,27.4875432 C27.5932115,27.1874505 27.2342916,27.0795504 26.9271413,27.2171967 C26.6232835,27.3533696 26.4668187,27.6973099 26.5779938,28.021431 C26.6151573,28.129752 26.5911289,28.1901915 26.5166268,28.2642764 C25.7752489,29.0013363 25.037829,29.7423951 24.2955054,30.478578 C24.2469231,30.5267753 24.1680427,30.5709385 24.1027877,30.5715349 C23.4433726,30.5779541 22.7838524,30.5749725 22.1243672,30.5739553 C22.1077295,30.5739553 22.0910917,30.5668695 22.0351889,30.5541712" id="Fill-22" fill="#FFFFFF"></path>
                    <path d="M8.49136738,46.8073281 L8.49136738,45.3317349 L8.68433019,45.3317349 C10.1427424,45.3317349 11.6011195,45.3324014 13.0595317,45.330402 C13.1711272,45.3302617 13.2441582,45.342118 13.300096,45.4680132 C13.4245113,45.7480763 13.7130974,45.8824252 14.0072527,45.8314568 C14.3018634,45.7803832 14.508907,45.5554627 14.5656505,45.25537 C14.5845299,45.1553274 14.6325517,45.0443054 14.7025704,44.9730619 C15.390007,44.2736057 16.0847992,43.5813404 16.7779101,42.8874616 C16.8212033,42.8441051 16.8679641,42.8041863 16.9457237,42.7327323 C16.9457237,43.0457337 16.9167915,43.3213069 16.9520285,43.5884262 C17.0151819,44.0670311 16.8397325,44.400518 16.4873275,44.7247093 C15.7963182,45.3604639 15.1523149,46.0473973 14.4839679,46.7082326 C14.4287306,46.762814 14.3366801,46.8099589 14.2615825,46.8102045 C12.3773492,46.8157468 10.4930808,46.8145541 8.60884737,46.8142384 C8.5749414,46.8142384 8.5410004,46.8103448 8.49136738,46.8073281" id="Fill-24" fill="#FFFFFF"></path>
                    <path d="M29.3464586,4.22324597 L30.4314497,4.22324597 C30.4314497,4.28982411 30.4314147,4.35661271 30.4314497,4.42340131 C30.4320802,5.59185104 30.4326756,6.76030077 30.4333762,7.9287505 C30.4335163,8.16177397 30.4337264,8.16208967 30.6741156,8.16212475 C32.2259093,8.16222998 33.777668,8.16208967 35.3294617,8.16226506 C35.5605337,8.16230014 35.5607789,8.16282631 35.5614094,8.38971111 C35.5619698,8.600004 35.5521973,8.81096338 35.5653674,9.02048455 C35.5761557,9.19219159 35.5286243,9.24933372 35.3444182,9.24849185 C33.611816,9.24084484 31.8791787,9.24396678 30.1465414,9.24396678 C29.94237,9.24396678 29.7375331,9.23372399 29.5342024,9.24722904 C29.3748653,9.25778753 29.3384024,9.19703236 29.3391379,9.04738941 C29.3455479,7.74459076 29.3450225,6.44175703 29.3464235,5.1389233 C29.3467388,4.83641023 29.3464586,4.53393223 29.3464586,4.22324597" id="Fill-26" fill="#FFFFFF"></path>
                    <path d="M9.8468252,8.17375663 L11.0286655,8.17375663 C11.0286655,8.24756084 11.0286305,8.30989453 11.0286655,8.37226329 C11.0297514,10.1190097 11.0297864,11.8657561 11.0342348,13.6125025 C11.03455,13.7379065 11.0037615,13.8301618 10.9122363,13.9211192 C10.1501225,14.6779982 9.39315768,15.4401389 8.63426634,16.2003152 C8.594651,16.2400236 8.55153297,16.2761891 8.48417637,16.3375406 C8.47783651,16.2474251 8.4703758,16.191651 8.4705159,16.135912 C8.47216217,15.3706142 8.47177687,14.6053165 8.48193465,13.840159 C8.48298546,13.7586026 8.52813504,13.6594019 8.58543894,13.5998744 C8.92148636,13.250918 9.25760384,12.9008391 9.61375666,12.5729997 C9.79400474,12.4070805 9.85162388,12.2318306 9.84962735,11.9927386 C9.83953962,10.7952092 9.84608964,9.59753946 9.8468252,8.39993987 C9.84686023,8.33062565 9.8468252,8.26134651 9.8468252,8.17375663" id="Fill-28" fill="#FFFFFF"></path>
                    <path d="M15.3987321,40.3913709 L15.0950495,40.3913709 C14.5466694,40.3913709 13.9982543,40.3882841 13.4499093,40.3937562 C13.3295571,40.394984 13.2438114,40.3593797 13.1585911,40.2735788 C12.2947594,39.4035381 11.42746,38.53697 10.5600205,37.6705422 C10.3207172,37.4314854 10.11546,37.1052244 9.82578809,36.984591 C9.53618624,36.8639226 9.16052347,36.9503198 8.82254957,36.9466366 C8.71858994,36.945479 8.61459527,36.9464261 8.49522383,36.9464261 L8.49522383,35.7379874 C8.51102093,35.7246578 8.52685306,35.711293 8.54265016,35.6979634 C8.63231885,35.8017944 8.72577044,35.9026087 8.8105704,36.0102632 C8.89116714,36.1125859 8.99106366,36.1358777 9.11691507,36.1347552 C9.75279217,36.129248 10.3887393,36.1292129 11.0245814,36.1361232 C11.1022009,36.1370002 11.1999958,36.1703243 11.2535518,36.2236781 C12.6056576,37.5714117 13.9531047,38.9238107 15.3010423,40.2756835 C15.3247905,40.2995366 15.3447558,40.327143 15.3987321,40.3913709" id="Fill-30" fill="#FFFFFF"></path>
                    <path d="M22.5749419,4.22502794 L22.5749419,12.270669 C22.294447,12.270669 22.0174198,12.2707041 21.7404276,12.2704936 C21.7347532,12.2704936 21.7250508,12.2693711 21.7240701,12.2664246 C21.64561,12.0389785 21.3464108,11.9463023 21.3462006,11.67785 C21.3445193,9.25357115 21.3475316,6.8292572 21.3496332,4.40494324 C21.3496683,4.34818696 21.3554477,4.29143068 21.3591255,4.22502794 L22.5749419,4.22502794 Z" id="Fill-32" fill="#FFFFFF"></path>
                    <path d="M33.5275134,27.9411654 C33.5275134,28.1082071 33.5383016,28.2708991 33.5196674,28.4301534 C33.515219,28.4683183 33.413431,28.5218124 33.3556717,28.5227244 C32.8773804,28.5303012 32.3989138,28.5271442 31.9205174,28.5272144 C31.6579562,28.5272845 31.39529,28.5320201 31.1329391,28.5251798 C31.007578,28.5219527 30.9145468,28.556715 30.8254035,28.6503383 C30.5718092,28.9166508 30.3044144,29.1696688 30.0492789,29.4345431 C29.9615367,29.5256759 29.8708873,29.5631042 29.7431094,29.5622272 C28.9438672,29.5566849 28.1445198,29.5624377 27.3452776,29.5565095 C27.2110548,29.5554922 27.1172529,29.5961477 27.0254126,29.692016 C26.7710127,29.9575217 26.5092572,30.2161872 26.2448046,30.4717659 C26.1947162,30.5201385 26.1193735,30.5697739 26.054749,30.5710718 C25.6231834,30.5796309 25.1913726,30.5754566 24.7596319,30.5744744 C24.7384757,30.5744393 24.7173545,30.5659154 24.6690525,30.5554621 C24.7178799,30.49832 24.7509102,30.4541918 24.7893697,30.4155007 C25.4278738,29.7741688 26.0679191,29.1344154 26.704847,28.4915049 C26.7815207,28.4140877 26.8403308,28.3823771 26.9577057,28.4309251 C27.3085695,28.5761833 27.6677696,28.4157714 27.8138665,28.0553796 C27.8543225,27.9556176 27.9053216,27.9269238 28.0066192,27.9270641 C29.7919368,27.9295546 31.5771844,27.9287478 33.362502,27.929274 C33.4083521,27.929274 33.4541672,27.9356933 33.5275134,27.9411654" id="Fill-34" fill="#FFFFFF"></path>
                    <path d="M16.5106974,12.8565215 C16.4649874,12.8589419 16.4193124,12.863467 16.3736375,12.863467 C15.4457066,12.8638879 14.5177758,12.8626251 13.58988,12.8654313 C13.4877768,12.865747 13.4359371,12.8367024 13.3720832,12.7444822 C13.2770554,12.607292 13.1282264,12.5080913 13.0066482,12.3882647 C12.9639155,12.346171 12.9029338,12.2910634 12.9027586,12.2417437 C12.8981001,10.9092339 12.9002017,9.57668907 12.9017078,8.24414424 C12.9017078,8.22713138 12.9080827,8.21011853 12.9169795,8.16560449 C13.1605561,8.16560449 13.4091766,8.16006216 13.6568163,8.17286565 C13.6870094,8.17440908 13.7352414,8.27438151 13.7359769,8.32927866 C13.7428422,8.83184183 13.7453991,9.33454531 13.7388841,9.83707341 C13.7370627,9.97640341 13.7770284,10.0758146 13.8769599,10.174875 C14.7189699,11.009487 15.5551304,11.849992 16.3951089,12.6866385 C16.439628,12.7309421 16.5026763,12.7566192 16.557108,12.7909606 C16.5416261,12.8128143 16.5261793,12.8346679 16.5106974,12.8565215" id="Fill-36" fill="#FFFFFF"></path>
                    <path d="M27.5915758,25.2989046 L27.80601,25.2989046 C29.6385788,25.2989046 31.4711476,25.2987993 33.3037164,25.2990098 C33.5370302,25.2990449 33.5376957,25.2997815 33.5378708,25.531928 C33.5380109,25.7656881 33.5333523,25.9995535 33.5372754,26.2332434 C33.5393069,26.3558061 33.5016531,26.4079672 33.3667647,26.4075813 C31.8376684,26.403407 30.3085721,26.4057222 28.7795108,26.4023196 C28.715902,26.4021793 28.6348499,26.3815534 28.5916268,26.3397404 C28.2686094,26.0270196 27.9529476,25.7066869 27.6357096,25.3880379 C27.6243609,25.3766726 27.6203328,25.3580111 27.5915758,25.2989046" id="Fill-38" fill="#FFFFFF"></path>
                    <path d="M27.7832846,4.22316179 L29.0120259,4.22316179 L29.0120259,8.97988522 C28.9705541,8.94757834 28.933811,8.92467237 28.9039331,8.89485603 C28.5570273,8.54870587 28.2082652,8.20434468 27.8680145,7.85170508 C27.8141783,7.79589591 27.772006,7.70181659 27.7716557,7.62520614 C27.7666819,6.54515308 27.7697643,5.46506495 27.7716207,4.38497682 C27.7717258,4.33362256 27.7788712,4.2822683 27.7832846,4.22316179" id="Fill-40" fill="#FFFFFF"></path>
                    <path d="M18.3732772,4.22189547 L19.5043637,4.22189547 C19.5080415,4.29576984 19.5142413,4.36343539 19.5143463,4.43113602 C19.5163779,5.76220757 19.5158175,7.09327913 19.5219822,8.42435068 C19.5226127,8.56518904 19.4948714,8.64983237 19.344186,8.68638369 C19.2583352,8.70725513 19.1837981,8.77495576 19.0959508,8.82638018 C18.8629523,8.59700483 18.6257156,8.3666473 18.3939431,8.13088775 C18.3666922,8.10314101 18.3600721,8.04557794 18.3600371,8.00183561 C18.3592315,6.77003493 18.3604224,5.53819917 18.3617884,4.30636341 C18.3618235,4.28394853 18.367708,4.26153366 18.3732772,4.22189547" id="Fill-42" fill="#FFFFFF"></path>
                    <path d="M8.49422206,8.17396359 L9.51017532,8.17396359 C9.51455367,8.2351397 9.52190931,8.29070333 9.52197936,8.34626695 C9.52338043,9.58399583 9.52604247,10.8217598 9.52022802,12.0594887 C9.51984272,12.1466225 9.4773902,12.2541017 9.41763443,12.3169615 C9.12547562,12.624175 8.82084727,12.919427 8.49422206,13.2452319 L8.49422206,8.17396359 Z" id="Fill-44" fill="#FFFFFF"></path>
                    <path d="M26.5970729,30.5661609 C26.8393535,30.3192816 27.048779,30.1021134 27.264229,29.8911541 C27.2917951,29.864179 27.3508854,29.8610922 27.3953695,29.8610922 C29.397293,29.8597592 31.3992516,29.8599346 33.4011751,29.8607414 C33.4347308,29.8607765 33.4683215,29.8703879 33.5129457,29.877193 L33.5129457,30.5661609 L26.5970729,30.5661609 Z" id="Fill-46" fill="#FFFFFF"></path>
                    <path d="M29.0032376,15.2974098 C28.8919224,15.3038642 28.8362647,15.3098625 28.7806771,15.3098976 C27.5386607,15.3104238 26.2966093,15.3073369 25.0546629,15.3138614 C24.8896165,15.3147033 24.8283545,15.2747143 24.8374615,15.1015691 C24.8515073,14.8350812 24.8411744,14.5673305 24.8411744,14.2879689 C24.9147657,14.2832334 24.9710539,14.2764984 25.0273069,14.2764984 C25.9602816,14.2758319 26.8932563,14.2732361 27.826196,14.2805674 C27.9131676,14.2812339 28.0198243,14.3244501 28.0830127,14.3842932 C28.3827023,14.6682149 28.6704827,14.9647296 29.0032376,15.2974098" id="Fill-48" fill="#FFFFFF"></path>
                    <path d="M35.5558191,14.2422938 C34.7810256,13.4681564 34.004761,12.6924755 33.2286364,11.916935 C33.2469555,11.9144444 33.2890227,11.9036755 33.3310899,11.9036053 C34.0187016,11.902553 34.7063134,11.9055697 35.3938901,11.9003781 C35.5210725,11.899431 35.5689892,11.9351054 35.5682536,12.06749 C35.5642956,12.76193 35.5679734,13.4564052 35.5679034,14.1508453 C35.5679034,14.1886244 35.5580258,14.2264034 35.5558191,14.2422938" id="Fill-50" fill="#FFFFFF"></path>
                    <path d="M16.9307287,46.8060968 L14.9048818,46.8060968 C15.5876599,46.1331245 16.269317,45.4613097 16.9307287,44.8093842 L16.9307287,46.8060968 Z" id="Fill-52" fill="#FFFFFF"></path>
                    <path d="M8.49085248,38.4610155 L8.49085248,37.255348 C8.5934811,37.255348 8.69544421,37.2544359 8.79737229,37.2555233 C9.10017925,37.2587856 9.43703229,37.1811579 9.69623084,37.289514 C9.9555695,37.3979051 10.1352922,37.6946654 10.3537896,37.9048531 C10.5326366,38.0768758 10.717228,38.2430054 10.8992974,38.4117659 C10.8871781,38.4281474 10.8750589,38.4445639 10.8629396,38.4610155 L8.49085248,38.4610155 Z" id="Fill-54" fill="#FFFFFF"></path>
                    <path d="M30.358748,29.5464316 C30.5581207,29.3458904 30.7331148,29.1868114 30.8873029,29.0096322 C31.0135396,28.8646196 31.1549779,28.815826 31.3446833,28.8188077 C31.9856042,28.82884 32.6268054,28.8224558 33.2679365,28.8227013 C33.5299723,28.8228065 33.5299372,28.8231924 33.5297271,29.0934337 C33.529622,29.2430065 33.529692,29.3925442 33.529692,29.5464316 L30.358748,29.5464316 Z" id="Fill-56" fill="#FFFFFF"></path>
                </g>
            </g>
        </g>
    </g>
</svg>