<svg width="80" height="80" viewBox="0 0 80 80" xmlns="http://www.w3.org/2000/svg">
  <title>
    fsn-fusion
  </title>
  <g fill="none" fill-rule="evenodd">
    <circle fill="#000" cx="40" cy="40" r="40"/>
    <path d="M25.575431 63c.148707-5.77202 1.140086-12.320109 3.172414-19.11072 1.338362-4.413897 2.924569-8.294246 4.709052-11.689552C25.426724 33.024302 19.676724 35.401016 17 38.796322c2.280172-5.383985 9.07112-9.943395 19.431035-11.54404 5.502155-7.90621 11.99569-11.44703 17.398706-9.89489 1.883621.533548 3.469828 1.697653 4.758621 3.346801-.148707-.097008-.297414-.194017-.49569-.242521-3.965517-1.55214-9.318965.67906-14.523707 6.208558h.247845C55.465517 26.621726 61.364224 31.375154 63 36.953156c-1.784483-1.794662-5.452586-3.298297-12.293103-4.21988-2.230604-.291026-4.411638-.533548-6.493535-.679061-1.685345-.097009-3.32112-.194018-4.907327-.194018-2.627156 3.78334-5.105604 8.342751-7.286638 13.823745C29.640087 51.698481 27.50862 57.616015 26.021552 63h-.446121z" fill="#FFF"/>
  </g>
</svg>
