<svg width="80" height="80" xmlns="http://www.w3.org/2000/svg">
  <g fill="none" fill-rule="evenodd">
    <circle fill="#FF9B2E" cx="40" cy="40" r="40"/>
    <g fill="#FFF">
      <path d="M39.979136 75.697971c19.651339.009813 35.575089-15.87185 35.617975-35.523297.042791-19.617199-15.91147-35.574812-35.591242-35.59906C20.379185 4.551462 4.398096 20.49096 4.387705 40.100989 4.37722 59.75819 20.304748 75.688159 39.979135 75.69797M2.696475 40.09805C2.69386 19.54395 19.408435 2.866902 40.004078 2.874254c20.599418.007449 37.280677 16.67202 37.284261 37.24711.003584 20.586505-16.72494 37.28087-37.33172 37.25572-20.60058-.025248-37.25753-16.69069-37.260144-37.279033"/>
      <path d="M63 20.030095c-.265738.949258-.523619 1.87272-.782722 2.795919-.575562 2.050744-1.161774 4.098505-1.71752 6.154689-.091838.340255-.23623.424485-.565086.423959-5.891804-.009125-11.783435-.003071-17.675065-.015091-.367005-.00079-.53619.096601-.629338.464582-.192145.758423-.43728 1.503247-.681805 2.324844h15.553178c-.846363 3.122661-1.67352 6.17478-2.509146 9.257696h-.53523c-4.815147 0-9.630294.007546-14.445442-.012459-.448542-.001754-.614148.126434-.73008.556271-1.583778 5.874711-3.189554 11.743368-4.781101 17.615973-.075601.278925-.16875.404568-.488176.403515-3.796805-.012459-7.593698-.007984-11.390503-.008861-.100656 0-.201311-.012723-.365782-.02369.903805-3.33894 1.801064-6.654016 2.711068-10.015945H16c.268095-.901878.518992-1.749094.771723-2.595609.281277-.941975.281975-.9418 1.260596-.9418h6.757112c.110171-.43089.21685-.847479.338284-1.322064h-6.860387c.058054-.210488.094894-.360172.140551-.507049.281452-.905563.580363-1.806037.839554-2.717918.095854-.33692.236493-.456247.599482-.45221 1.934544.021057 3.869438.009914 5.804244.009914h.476565c.738462-2.810484 1.468717-5.589907 2.199147-8.369331 1.108697-4.219147 2.219663-8.437768 3.321637-12.658758.073244-.28068.17713-.396935.4942-.396672 10.154088.010003 20.308089.00816 30.462264.009038.114798 0 .229684.011932.395028.021057"/>
    </g>
  </g>
</svg>
