<svg width="80" height="80" viewBox="0 0 80 80" xmlns="http://www.w3.org/2000/svg">
  <title>
    ftc-feathercoin
  </title>
  <g fill="none" fill-rule="evenodd">
    <circle fill="#FFF" cx="40" cy="40" r="40"/>
    <path d="M39.995736 72.57135c17.792567.001606 32.375425-14.46534 32.384168-32.126486.0091-18.027614-14.358232-32.605-32.148123-32.618024C21.96017 7.81346 7.65546 22.16818 7.64993 40.522297c-.005352 17.59085 14.585356 32.047625 32.345808 32.049053m-.01338 2.603996C20.655945 75.166246 4.96405 59.44824 5.00009 40.134954c.03604-19.302047 15.67566-34.93263 34.97941-34.95957 19.3075-.026762 35.061484 15.718898 35.020448 35.00239-.041036 19.37734-15.679226 35.006672-35.017592 34.997572" fill="#374D54"/>
    <path d="M21.46521 62.1313c1.35939-1.27866 2.71878-2.557322 4.004072-3.766322 1.488346.68662 3.0499 1.407107 4.611273 2.127418l.160305-.250047c-1.57865-1.09565-3.147328-2.19831-3.38458-4.50331 1.942544 1.96598 2.168397 2.20585 3.414504 2.53802 1.31949.35199 2.675318.57169 4.015114.84911.034377-.10125.06893-.20232.103308-.30357-2.38481-.68961-4.554987-1.65066-5.657532-4.18289 5.14687.48535 10.178855 1.33112 15.287965-.71277-4.89715-.22741-9.54726-.44342-14.29942-.66416.72725-1.10231 1.7589-1.72138 3.4389-2.1104 2.50575-.58064 5.04498-.66802 7.60738-.51484.44226.0265 1.09167-.10581 1.32554-.40622 2.14773-2.75912 4.22618-5.57035 6.3187-8.37087.11061-.1481.16654-.33568.26575-.54186-1.27853-.13968-2.56934.25268-3.7727-.60801.30921-.27163.51654-.60591.78353-.66171 1.089-.22706 2.20455-.33129 3.29338-.55853.50941-.10616 1.14208-.25637 1.44453-.61257 2.79768-3.29606 5.61817-6.57949 8.25038-10.00206 1.07084-1.39254 1.91209-3.04759 2.4703-4.70931.80259-2.38887.41056-4.73475-1.2315-6.78408-.35-.43657-.67738-.54799-1.19837-.24618-1.25181.72522-2.5526 1.36903-3.79781 2.10478-4.77871 2.82421-8.94718 6.45174-13.26367 9.88045-.37672.29935-.56339.9307-.66865 1.44185-.24153 1.1711-.33219 2.37255-.57693 3.54277-.11702.55975-.44565 1.07652-.67827 1.61293-.14178-.00544-.28338-.0107-.42499-.01597-.28588-1.12144-.571938-2.24288-.87598-3.43591-1.2356 1.0881-2.43878 2.12268-3.60331 3.19797-.18453.17056-.22693.51799-.28107.79401-.4843 2.46502-.93351 4.93689-1.44898 7.39542-.12415.59204-.45616 1.14197-.77553 1.910883-.74827-1.33148-.80402-2.520825-.82967-3.707715-.026185-1.20654-.00588-2.414136-.00588-3.78387-1.619265 1.068274-2.66873 2.11268-2.102497 3.94285.093153.30146.091194.637137.098675.95772.055215 2.36325.11471 4.72668.13626 7.090105.00303.33515-.191655.67188-.372444 1.26006-1.560487-1.76858-1.81697-3.822474-2.66-5.75494-1.516848 2.206377-1.29099 4.584895-1.29598 6.96271-1.18893-1.71541-2.32265-3.35133-3.45636-4.98708-.080157.048608-.16013.097564-.24028.14617.670963 1.87193 1.34211 3.743687 2.013253 5.615618-1.632264-1.312873-3.294274-2.361842-5.17626-3.03127l-.194146.26619c1.40552 1.26726 2.81104 2.53451 4.14674 3.73895-1.082777 1.810516-1.203717 2.54644-.703387 3.73754.32987-.5308.58779-1.05511.95257-1.493083.23725-.28462.63036-.44342.95346-.658547.21552.329884.52224.6338.62804.99492.25489.87104-.18987 1.601-.68076 2.270777-.70837.9665-1.45949 1.902468-2.192445 2.851418-.023333.0558-.046845.11125-.070356.1667.06537-.00632.13056-.01281.19575-.01931M39.937 71.45865c-17.73066-.0014-32.296893-14.21951-32.29155-31.51996C7.65097 21.88758 21.931688 7.77001 40.17265 7.783c17.760055.01281 32.103286 14.34954 32.0942 32.07954-.00873 17.36958-14.567122 31.597693-32.329845 31.596114" fill="#FDFDFD"/>
    <path d="M52.469066 26.973832c-6.033537 6.35523-11.872214 12.88523-17.0743 19.945504 6.599593-5.883738 12.30949-12.512352 17.0743-19.945504m-31.12916 35.01009c.732952-.94895 1.48407-1.884916 2.192443-2.851413.49089-.66978.93564-1.39992.68076-2.27078-.1058-.36112-.4127-.66504-.62804-.99493-.32329.21513-.71639.37393-.95346.65854-.36479.43797-.6227.96228-.95257 1.49291-.50051-1.19093-.37939-1.92686.7032-3.73737-1.33552-1.20444-2.74105-2.4717-4.14657-3.73895l.19414-.26637c1.88198.6696 3.54399 1.71839 5.17608 3.03144-.67097-1.87193-1.34211-3.74369-2.01308-5.61562.07997-.0486.16012-.09756.24028-.14617 1.13353 1.63574 2.26725 3.27149 3.45618 4.98708.00498-2.37782-.22069-4.75634 1.29598-6.96272.84303 1.93247 1.09969 3.98636 2.66 5.75494.18079-.58836.37565-.92509.37262-1.26006-.02155-2.36343-.08105-4.72685-.13626-7.09011-.00748-.32059-.00552-.65626-.09886-.95772-.56606-1.83017.48341-2.87457 2.10267-3.942844 0 1.369555-.02049 2.577326.0057 3.78387.02583 1.186713.08158 2.376235.82985 3.707713.31918-.76892.65119-1.31885.77534-1.91089.51547-2.45853.96468-4.930575 1.44898-7.395425.05432-.27602.09654-.62345.28124-.79401 1.16435-1.07529 2.36753-2.10987 3.60331-3.19797.30404 1.19285.58992 2.31429.8758 3.43591.14178.00526.28338.010522.42499.015962.2328-.53642.56142-1.05318.67844-1.61294.24473-1.17022.33539-2.371676.57674-3.54277.10544-.51115.29193-1.1425.66883-1.44185 4.31649-3.428718 8.48478-7.056417 13.26366-9.880457 1.24504-.73575 2.54583-1.379554 3.79781-2.10478.52081-.30181.84837-.19039 1.19819.246188 1.64223 2.04933 2.03409 4.39521 1.2315 6.783906-.55822 1.66189-1.39929 3.31694-2.47013 4.709302-2.63222 3.42275-5.45288 6.706174-8.25056 10.002057-.30245.35638-.93494.50658-1.44435.61274-1.08901.22724-2.20438.33147-3.29339.55853-.26718.0558-.47451.390076-.78372.661706 1.203355.86069 2.49435.468334 3.772872.60801-.09939.20618-.155315.39376-.26575.54168-2.092695 2.80053-4.171143 5.611933-6.3187 8.37087-.234045.30041-.88346.43289-1.325546.406394-2.56257-.153185-5.10163-.0658-7.607553.514835-1.68.38902-2.71147 1.008082-3.4389 2.110395 4.75234.22075 9.40227.43675 14.299597.66416-5.10911 2.04372-10.141275 1.19812-15.28797.71277 1.10255 2.53223 3.27255 3.49329 5.657356 4.18272-.03438.101424-.068756.202495-.10313.303743-1.3398-.27742-2.695626-.49711-4.01512-.84911-1.246283-.332347-1.47196-.57204-3.41468-2.53802.23743 2.30499 1.80611 3.407654 3.38458 4.5033-.053434.08335-.10687.16652-.16013.250045-1.56155-.72031-3.1231-1.440793-4.61127-2.127413-1.28529 1.209-2.64468 2.48766-4.00407 3.76632-.041855-.048956-.083535-.098263-.12539-.147395" fill="#364C53"/>
    <path d="M52.469066 26.973832c-4.76481 7.433152-10.474707 14.061766-17.0743 19.945504 5.202086-7.060275 11.040763-13.590274 17.0743-19.945504" fill="#F3F4F5"/>
  </g>
</svg>
