<svg width="80" height="80" viewBox="0 0 80 80" xmlns="http://www.w3.org/2000/svg">
  <title>
    fuck-fucktoken
  </title>
  <g fill="none" fill-rule="evenodd">
    <circle fill="#42A1D9" cx="40" cy="40" r="40"/>
    <path d="M37.390458 0h5.141188c.053593.02555.105472.068238.16109.074002 1.044986.107498 2.104382.136865 3.132853.33075 1.887829.356066 3.779786.728257 5.629835 1.239182 2.965452.818929 5.761402 2.070263 8.434274 3.600078 2.610321 1.493904 5.046543 3.233184 7.218618 5.304303 1.416319 1.350497 2.729191 2.81815 4.005452 4.304655 1.804557 2.101967 3.25928 4.449464 4.527751 6.908977 1.155599 2.240468 2.066057 4.581266 2.770789 7.00113.748276 2.569347 1.251178 5.184031 1.434547 7.85737.03552.517391.101344 1.032756.153145 1.548979v3.661148c-.48818 4.617566-1.202259 9.09406-2.992483 13.408374-1.71038 4.121675-4.090049 7.765142-6.98851 11.138384.592639-1.336942 1.780253-2.467303 2.633379-3.644401.897215-1.238092 1.718247-2.524947 2.44666-3.869757 1.454333-2.685024 2.546446-5.554274 3.351509-8.497137 1.12109-4.098384 1.441013-8.277702 1.31373-12.505394-.013555-.448219-.139124-.824148-.486154-1.169465-4.755989-4.73184-9.496008-9.479805-14.240702-14.223096-.118948-.11887-.246854-.228783-.370555-.342902-.171373-.026874-.342668-.07704-.51404-.07704-15.70742-.003583-31.414762-.00335-47.122104-.00335-.090827 0-.198636-.031002-.268821.007167-.121675.066134-.28666.156495-.318209.269056-.55408 1.973826-1.098656 3.950457-1.628198 5.931061-.354898 1.32744-.683 2.661967-1.023097 3.993379.091996.107731.177137.222395.277001.322337 4.426874 4.429211 8.854917 8.857176 13.283661 13.284518.091295.091295.191626.173476.28775.259941-.037078.133827-.07517.267342-.111158.40148-1.355715 5.048491-2.713067 10.096359-4.061616 15.146719-.07073.264849-.066135.549795-.096514.825316.12331.132892.242415.270068.370555.39813 5.57001 5.571568 11.141032 11.142201 16.710886 16.713925.127906.127906.243583.267809.364946.402181h-2.64849c-.053593-.025472-.105629-.068783-.161169-.073846-1.174917-.107498-2.365959-.124323-3.522181-.333632-2.078286-.376242-4.164129-.76627-6.195131-1.335073-2.80888-.786758-5.472328-1.967595-8.012776-3.416709-2.655579-1.514937-5.137604-3.276027-7.364128-5.364206-1.315988-1.234197-2.52666-2.587108-3.722843-3.941266-1.809932-2.049231-3.2793-4.343291-4.563973-6.749212-1.447946-2.71182-2.565609-5.559883-3.340292-8.538812C.730127 48.105862.304654 45.942278.15143 43.730088.123701 43.329075.051646 42.931022 0 42.531646v-5.141188c.02555-.053593.068082-.105395.074002-.16109.107264-1.006272.133749-2.028122.32966-3.016476.413008-2.084206.827497-4.175268 1.40035-6.21889.80592-2.875326 2.07517-5.56705 3.571178-8.153846 1.585667-2.741656 3.480428-5.252503 5.66964-7.529114 1.11408-1.158637 2.34477-2.209075 3.55996-3.265667 2.17223-1.888764 4.597235-3.412035 7.149368-4.72335 2.170827-1.115482 4.433807-2.015969 6.78224-2.704265C31.030963.886621 33.562141.372892 36.15291.153067 36.566777.118014 36.977994.051801 37.390458 0" fill="#42A1D9"/>
    <path d="M64.666882 22.125157c.1237.114119.251529.22403.370555.342901 4.744693 4.743292 9.484713 9.491334 14.240701 14.223175.34703.345238.4726.721168.486076 1.169386.127362 4.227693-.19256 8.407011-1.313651 12.505395-1.07077 3.914313-2.620682 7.621966-4.856008 11.01219-2.887556 4.379592-6.26703 8.311198-10.582824 11.304382-3.769425 2.614216-7.955053 4.465745-12.409114 5.845998-2.392444.741344-4.849776 1.13628-7.344498 1.318092-.502902.03669-1.0037.1015-1.505434.1533h-.93476c-.121364-.134293-.237119-.274274-.364947-.40218-5.569854-5.571724-11.140877-11.142357-16.710964-16.713847-.128063-.12814-.247167-.265316-.370477-.398208 4.154157-.004129 8.308393-.014878 12.462473-.001246.367906.001168.531256-.112873.610321-.445025.096592-.405764.211957-.807088.319299-1.210282 1.076378-4.043622 2.157585-8.085998 3.220175-12.133282.086466-.32927.223564-.40779.54442-.407088 4.38816.010672 8.776398.009893 13.16448-.00444.148471-.000545.396027-.145433.430068-.269134.83817-3.047088 1.650321-6.101343 2.478676-9.151236.082025-.302084.05001-.390808-.292736-.390419-8.55556.009504-17.111198.0074-25.666914.0074-.920506 0-.949873-.008023-1.186835.853983-.619747 2.254956-1.211295 4.517702-1.814138 6.777332-.096125-.086466-.196456-.168725-.287829-.26002-4.428666-4.427341-8.856709-8.855306-13.283583-13.284518-.099864-.099941-.185005-.214605-.277079-.322415.03887.001247.077819.003506.116767.003506 15.889075.000234 31.778072.000312 47.667147.00039.064888 0 .14224.022122.191938-.005453.08779-.048686.206816-.114509.229484-.196222.348199-1.25445.683466-2.512483 1.020682-3.77005.549873-2.05071 1.099045-4.101577 1.64853-6.152365" fill="#1F69B2"/>
    <path d="M64.666882 22.125157c-.549484 2.050788-1.098656 4.101655-1.64853 6.152366-.337215 1.257566-.672483 2.515599-1.020681 3.770049-.022668.081713-.141694.147536-.229484.196222-.049698.027575-.12705.005452-.191938.005452-15.889075-.000077-31.778072-.000155-47.667147-.00039-.038948 0-.077897-.002258-.116767-.003505.340175-1.331333.668277-2.665861 1.023174-3.9933.529543-1.980526 1.074119-3.957157 1.628199-5.930984.031548-.112639.196533-.20292.318208-.269133.070107-.03817.177994-.007167.268822-.007167 15.707342 0 31.414684-.000233 47.122025.00335.171451.000078.342746.050243.51412.07704M27.64085 46.112273c.602842-2.25963 1.19439-4.522376 1.814137-6.777332.236962-.862006.26633-.853905 1.186836-.853905 8.555638 0 17.111275.002025 25.666913-.007478.342668-.00039.374684.088413.292736.390419-.828354 3.049892-1.640506 6.104148-2.478676 9.151314-.03404.123622-.281596.268588-.430068.269056-4.38816.014333-8.776319.015112-13.164479.004518-.320857-.00078-.457955.07774-.54442.40701-1.06259 4.047362-2.143798 8.08966-3.220176 12.133282-.107341.403194-.222784.804518-.319299 1.210282-.079065.332152-.242492.44627-.61032.445024-4.15408-.013631-8.308316-.002882-12.462552.001325.030458-.275521.025784-.560468.096514-.825317 1.34855-5.05036 2.7059-10.098306 4.061694-15.146718.035989-.134139.074002-.267654.11116-.40148" fill="#FEFEFE"/>
  </g>
</svg>
