<svg width="80" height="80" viewBox="0 0 80 80" xmlns="http://www.w3.org/2000/svg">
  <title>
    fuel-etherparty
  </title>
  <g fill="none" fill-rule="evenodd">
    <circle fill="#3B8DC9" cx="40" cy="40" r="40"/>
    <path d="M60.76513 37.232558c-3.132-.001674-6.317797-.001674-9.559072 0l3.047942-7.11628h6.51113c.432058.077862.648087.2947.648087.650513v5.832c.001682.42279-.215188.63377-.648087.63377zm-18.959275.087907l-17.030985-.00251V29.95721h17.282318l2.604116-6.94214H18.288116c-.688435.027627-1.02803.40521-1.017942 1.13358v13.17349l-4.411362-.002513-2.47971 6.911163h6.891072v12.99935s.024377 1.44586 1.39032 1.34707c.23284-.017582 1.051564.006697 1.72571 0 3.27742-.032652 10.19539 0 10.504724 0l2.662116-6.839163H24.77571v-7.508093H39.2051L33.56313 58.57721h8.499102l5.839507-14.347256s16.71829.23107 18.148954 0c1.430666-.229396 1.487826-1.62 1.487826-1.62V24.293488c0-.95358-.43374-1.37972-1.301217-1.279255h-18.72055l-5.7109 14.306232z" fill-rule="nonzero" fill="#FFF"/>
  </g>
</svg>
