<svg width="80" height="80" viewBox="0 0 80 80" xmlns="http://www.w3.org/2000/svg">
  <title>
    fun-funfair
  </title>
  <g fill="none" fill-rule="evenodd">
    <circle fill="#FFF" cx="40" cy="40" r="40"/>
    <path d="M4.553 40.12c0 2.192.203 4.378.602 6.53l-4.445.833c.452 2.428 1.128 4.808 2.02 7.11l4.217-1.642c.79 2.04 1.77 4.003 2.923 5.863l-3.84 2.392c1.3 2.096 2.79 4.068 4.452 5.89l3.34-3.055c1.473 1.617 3.092 3.096 4.836 4.417l-2.726 3.616c1.967 1.488 4.066 2.792 6.272 3.893l2.016-4.057c1.956.975 3.998 1.766 6.1 2.363l-1.23 4.365c2.37.672 4.798 1.122 7.252 1.345l.41-4.513c1.075.098 2.17.148 3.257.148 1.096 0 2.203-.05 3.29-.15l.413 4.512c2.454-.226 4.882-.678 7.253-1.353l-1.238-4.36c2.1-.6 4.142-1.393 6.096-2.37l2.02 4.055c2.205-1.103 4.303-2.408 6.268-3.9l-2.73-3.612c1.744-1.322 3.362-2.802 4.836-4.42l3.342 3.053c1.66-1.825 3.15-3.798 4.448-5.896l-3.843-2.39c1.15-1.86 2.128-3.824 2.918-5.865L77.3 54.56c.89-2.304 1.566-4.685 2.016-7.114l-4.438-.827c.4-2.154.602-4.34.605-6.53v-.065l4.515-.008c-.005-2.468-.236-4.93-.69-7.356l-4.447.836c-.403-2.15-1.005-4.26-1.8-6.3l4.215-1.645c-.894-2.3-2-4.513-3.303-6.61l-3.838 2.397c-1.156-1.86-2.48-3.608-3.956-5.224l3.336-3.06c-1.663-1.82-3.49-3.485-5.456-4.97L61.335 11.7c-1.746-1.318-3.61-2.472-5.566-3.448l2.012-4.06c-2.21-1.098-4.514-1.99-6.887-2.66l-1.23 4.362c-2.102-.594-4.255-.99-6.43-1.188L43.64.193C42.446.086 41.236.03 40.01.03c-1.262 0-2.508.057-3.74.173l.418 4.512c-2.175.202-4.327.606-6.428 1.206l-1.24-4.358c-2.372.678-4.674 1.576-6.878 2.682l2.024 4.052c-1.954.98-3.814 2.14-5.555 3.462l-2.73-3.61c-1.964 1.49-3.787 3.16-5.445 4.985l3.345 3.05c-1.472 1.62-2.79 3.374-3.943 5.236l-3.845-2.386c-1.298 2.1-2.398 4.316-3.287 6.62l4.22 1.633c-.788 2.042-1.384 4.152-1.78 6.304l-4.448-.82C.252 35.183.03 37.633.03 40.09v.035l4.523-.004zm39.5 28.064l-.24-1.687c2.512-.36 4.96-1.08 7.268-2.138l.71 1.55c-2.458 1.125-5.064 1.89-7.738 2.272v.002zm24.283-28.097c.002 2.707-.382 5.4-1.14 7.997l-1.632-.48c.713-2.442 1.073-4.972 1.07-7.516v-.044l1.702-.004v.046zm-4.518-15.38c1.467 2.273 2.6 4.745 3.364 7.34l-1.63.482c-.72-2.44-1.784-4.764-3.162-6.9l1.428-.923zM62.414 54.51l1.43.92c-1.462 2.276-3.24 4.33-5.28 6.104l-1.113-1.286c1.92-1.667 3.59-3.6 4.964-5.74zm-10.67-40.26c2.457 1.12 4.742 2.59 6.784 4.362l-1.112 1.29c-1.92-1.666-4.068-3.047-6.378-4.102l.706-1.55zm-4.288 18.84h3.963l5.152 7.615V33.09h4.038v13.78h-4.02l-5.136-7.573v7.573h-3.998V33.09zM40.01 11.708c1.336 0 2.67.093 3.993.28l-.238 1.687c-2.514-.354-5.065-.35-7.58.01l-.24-1.687c1.346-.193 2.704-.29 4.065-.29zM31.824 33.09h4.238v8.396c0 .75.21 1.337.627 1.76.414.42.992.632 1.73.632.73 0 1.312-.208 1.728-.624.416-.415.632-1.005.632-1.768V33.09h4.237v8.2c.002.785-.13 1.564-.388 2.304-.25.714-.66 1.362-1.196 1.895-.54.54-1.108.92-1.703 1.14-.824.305-1.814.46-2.97.46-.732-.005-1.463-.052-2.19-.142-.79-.094-1.45-.28-1.98-.558-.532-.278-1.018-.674-1.458-1.187-.44-.513-.747-1.042-.91-1.586-.262-.875-.4-1.65-.4-2.326v-8.2h.002zm4.408 33.41l-.24 1.687c-2.675-.38-5.28-1.144-7.74-2.27l.708-1.55c2.31 1.058 4.758 1.776 7.272 2.133zm-8.02-52.22l.708 1.55c-2.307 1.06-4.45 2.446-6.366 4.116l-1.116-1.287c2.038-1.777 4.32-3.25 6.773-4.38zM19.43 33.09h10.475v2.964h-6.197v2.404h5.317v2.764h-5.317v5.648H19.43V33.09zm3.16 27.172l-1.115 1.288c-2.04-1.77-3.82-3.825-5.284-6.1l1.43-.922c1.376 2.138 3.05 4.07 4.97 5.734zM16.164 24.77l1.43.92c-1.372 2.14-2.43 4.466-3.143 6.907l-1.634-.48c.757-2.598 1.884-5.073 3.345-7.35l.002.002zM13.387 40.11c0 2.544.363 5.074 1.077 7.515l-1.63.48c-.76-2.596-1.147-5.287-1.147-7.993l1.7-.002z" fill-rule="nonzero" fill="#F1385B"/>
  </g>
</svg>
