<svg width="80" height="80" xmlns="http://www.w3.org/2000/svg">
  <g fill="none" fill-rule="evenodd">
    <circle fill="#FFF" cx="40" cy="40" r="40"/>
    <g fill-rule="nonzero">
      <path d="M16.068571 25.76875c0-2.0625.754286-3.85 2.194286-5.29375 1.508572-1.44375 3.222857-2.2 5.28-2.2h24.891429l-4.457143 7.8375H23.954286v9.96875h14.4l-4.662857 7.975h-9.737143V54.025h3.977143L23.68 61.93125H16v-36.1625h.068571z" fill="#00C5D5"/>
      <path d="M63.451429 54.50625c0 2.0625-.754286 3.85-2.194286 5.29375-1.508572 1.44375-3.222857 2.2-5.28 2.2H31.085714l4.457143-7.90625h20.022857V44.125h-14.4l4.662857-7.975h9.737143v-9.96875h-3.977143L55.84 18.275h7.68v36.23125h-.068571z" fill="#C0B7B8"/>
    </g>
  </g>
</svg>
