<svg width="80" height="80" viewBox="0 0 80 80" xmlns="http://www.w3.org/2000/svg" xmlns:xlink="http://www.w3.org/1999/xlink">
  <title>
    gam-gambit
  </title>
  <defs>
    <path id="a" d="M.000217.178364h63.501766v59.27618H.000217z"/>
    <path id="c" d="M.537708 16.90909h19.05139V.39349H.537708v16.5156z"/>
    <path id="e" d="M63.233953.178364H.382156v38.350963h62.851796V.178364z"/>
    <path id="g" d="M0 .496654V14.28131h18.428095V.496653H0z"/>
  </defs>
  <g fill="none" fill-rule="evenodd">
    <circle fill="#000" cx="40" cy="40" r="40"/>
    <g transform="translate(8 10.367)">
      <mask id="b" fill="#fff">
        <use xlink:href="#a"/>
      </mask>
      <path d="M63.233844 34.832346c-.119864-.51982-.238644-1.039637-.358508-1.56-.028746-.178364-.058034-.356728-.08678-.534546-.124204-.550364-.248407-1.100182-.37261-1.650545-.08461-.578728-.168136-1.157455-.252746-1.736728-.314034-1.420363-.627525-2.841272-.94156-4.26109.001628-.680183.003255-1.35982.004882-2.040546-.165966-.03545-.328678-.084-.487593-.14563-.0255-.18327-.0038-.36054.06562-.53236l-.0781-1.09745c-.20014-.35836-.40027-.71618-.59987-1.074-.8217.04909-.8217.04909 0-.00054.77613-3.07091-2.35824-1.47763-3.15336-2.67381 1.10644-.76527 2.21288-1.53 3.47823-2.40436-2.24868-2.07709-3.69573-3.41455-5.14332-4.752-.56624-.47673-1.13248-.95345-1.69926-1.43018-.71919-.59891-1.43838-1.19782-2.15811-1.79727 0 .00055.02278.01582.02278.01582-1.31525-1.08764-2.63051-2.17636-3.94576-3.264-.15187.04145-.27065-.00382-.35634-.13691l-.55485-.40309c-.81031.25473-1.62007.50891-2.00678.63-.76258-.75655-1.39064-1.95164-2.16515-2.05691C37.1712 1.2078 31.86842.71034 26.57106.18016c-.29505-.029454-.62427.281455-.93722.434728.22671.16146.453428.32346.68014.48546-.42359.70091-.84664 1.40237-1.270235 2.103278-.568406-.46909-1.460067-1.453636-1.656406-1.329273-2.6099 1.65709-5.12217 3.469637-7.65939 5.243455-.36176.205637-.72352.411274-1.08529.616365-1.50237.91091-2.94996 1.936364-4.52339 2.700546-1.58915.77237-1.73288 1.80382-1.02129 3.21273-2.90495 4.70782-5.81044 9.41564-8.71593 14.124-.13234-.00927-.25979.012-.38183.06437.56678 1.25618 1.13356 2.51127 1.70034 3.76745 1.31363.55418 2.6278 1.10837 3.94088 1.66309.28366.19746.56678.39546.8499.594.0499.33.0998.66.15024.99 3.03078 1.65273 6.06156 3.306 9.09234 4.95873.20665.33545.4122.67145.61831 1.008.51959.24545 1.03919.49145 1.55878.73691.17248-.06055.17248-.06055 0 0 .35688.69218.71322 1.38382 1.06956 2.07545l-.00597.56727c.18224 1.25618.36394 2.51182.54617 3.76745.54563 2.55327 1.09071 5.10654 1.63634 7.65872.71973 1.27691 1.43946 2.55436 2.15919 3.83182h13.01695c.36014-.36327.71973-.72709 1.07987-1.09091-.16217-2.712-.3238-5.42345-.48597-8.13491.54834-.74236 1.09668-1.48418 1.64502-2.226.96109.50236 1.92217 1.00527 2.8838 1.50818.29939-1.05109.59986-2.10164.89979-3.15273-1.16718-1.09636-.22996-3.75-2.79213-3.81382-.36719.19255-.36719.19255 0 0 1.27186-.35454 2.54427-.70854 3.81614-1.06309.17735-.20563.35417-.41127.53152-.61745 3.07796-.53509 6.15593-1.06964 9.23389-1.60528.69478-.24982 1.38902-.49963 2.08271-.75109-1.42807-.45927-1.42807-.45927 0 0 .00108.00109.08678.02127.08678.02127.36773-.09109.73491-.18218 1.1021-.27327.53424-.084 1.06848-.16855 1.60326-.25309 1.31037-.25528 2.61153-.59455 3.93383-.74673 1.69871-.19473 1.78061-1.12145 1.28-2.42345" fill="#DACAAE" mask="url(#b)"/>
    </g>
    <g transform="translate(26.983 52.913)">
      <mask id="d" fill="#fff">
        <use xlink:href="#c"/>
      </mask>
      <path d="M6.713708 11.98931c-.131796-.095455-.261423-.26291-.375864-.253092-.133424.012-.252746.17891-.378576.279273.159457.11564.309695.25582.486508.32619.037424.01473.17573-.22745.267932-.35236zm1.237153 3.621817c.24407-.240545.48868-.48.73221-.72-.47837-.39491-.95783-.789818-1.43674-1.184727-.17356.194727-.34712.388364-.52068.582546.40841.44018.81682.881454 1.22522 1.32218zM4.33324 16.90931c-.71973-1.277456-1.438915-2.55491-2.159187-3.83182-.54563-2.553272-1.09071-5.105454-1.63634-7.658726 1.264273 1.09909 2.529086 2.19709 3.7939 3.29618 1.438915.372547 2.878373.744547 4.31783 1.117638.26034.251454.521763.501272.780475.75491 1.818576 1.779272 4.72461 1.835454 6.82088.14509 2.185222-1.760727-.002168-2.988546-.534778-4.409455-.121492-.32291-.392136-.590182-.59444-.88309.041762-1.682182.082982-3.364364.124202-5.046546 1.411254.06164 2.82251.12328 4.23322.18437.03688 1.62655.07322 3.25309.1101 4.87909-.54834.74237-1.09668 1.48418-1.645017 2.226.161628 2.71146.323798 5.42346.485968 8.13546-.360135.36382-.71973.72709-1.079864 1.09091H4.33323z" fill="#030303" mask="url(#d)"/>
    </g>
    <g transform="translate(8 10.367)">
      <mask id="f" fill="#fff">
        <use xlink:href="#e"/>
      </mask>
      <path d="M49.094834 13.5426l-.092746.13091.145898.024-.053152-.15491zm11.63173 7.730727c.026033.366.052066.732.077558 1.098-.069424.171273-.09112.348546-.065085.53182.161085.728726.321627 1.457453.482712 2.18618.31349 1.419818.62752 2.840727.94155 4.26109.08407.579274.16813 1.158.25274 1.736728.1242.550364.2484 1.100728.37261 1.650546-.03363.06164-.10793.13637-.09275.18219.03959.12437.11661.23618.17952.35237.11932.52037.23918 1.04018.35851 1.56-1.73831 1.05709-3.47607 2.11364-5.21383 3.17073-.53478.084-1.06902.168-1.60326.25309l-1.10156.27328s-.08624-.02072-.08732-.02127c-1.42807-.45981-2.85505-.91854-4.28095-1.37727.19471-.552.38942-1.10236.58413-1.65382.35796-.18982.71593-.37963 1.07444-.57.35363-.69818.70725-1.39745 1.06142-2.09672.44366-.53509.88678-1.07018 1.3299-1.60473-.43933-.22036-.87919-.44127-1.31906-.66218-.05153-.19091-.10251-.38127-.15349-.57273l.10576-1.42691c-.04339-.55472-.08732-1.10836-.13071-1.66309.06129-.81436.10956-1.62981.18766-2.44254.17248-1.80382-.78427-1.96527-2.16624-1.52509l-.00488-1.09145c.05153-.82745.4122-1.80873.09492-2.45127-.832-1.686-.04448-2.33018 1.33803-2.83309.56027-.20345 1.10156-.46036 1.65152-.69327.04122-.25854.08298-.51709.1242-.77509-.75444-.22527-1.94278-.87054-2.19281-.60873-1.61844 1.692-3.52217.60491-5.27132.79746-.20665-.04146-.41329-.08182-.61994-.12273-.20014-.92673-.11119-2.30782-.672-2.66945-.75716-.48764-2.02848-.31691-3.05194-.19473-.9421.11237-1.84841.534-2.77044.81982-.75119-.558-1.502918-1.11545-2.25356-1.67291.28203-.618.564065-1.23545 1.110235-2.43164-1.19105.48819-1.86739.76582-2.54373 1.04291C34.416 9.31101 32.375592 8.58556 30.32 7.90538c-.080814-.02673-.305357.38291-.462645.58964.00325.798545.00596 1.59709.00922 2.395636-1.89776-.51491-2.55675.543817-2.75092 2.19109-.9139-.17891-1.8278-.35837-2.741698-.537273-1.94386.26509-3.97234.26727-5.809897.864-2.22265.72163-2.6956 2.59909-1.35431 4.54581.59661.86618 1.53166 1.497275 2.312673 2.235275-.1779.54109-.3558 1.082725-.533697 1.623816-1.90915.23291-3.82427.428724-5.713894.76691-.15187.02727-.130715 1.03254-.18983 1.58345-.2316 2.119635-1.33261.42-2.03553.468-2.75254.02509-2.652203 2.23691-3.084474 4.05436-.48488 2.04 1.11024 2.321457 2.37994 2.885457.15946.216.31892.432.478377.64746.177354.56182.35471 1.12364.531524 1.68491C8.09356 32.825 4.72325 31.99373 2.64163 28.787c-.37966-.58418-1.48773-.68891-2.25953-1.015638 2.90495-4.708363 5.81044-9.41618 8.71593-14.124 1.11946.195818 2.234034.67909 2.43037-1.275272.08136-.81437 1.08746-1.52073 1.630377-2.306187.52339-.75709.991455-1.55291 1.48393-2.33127.36176-.20564.723526-.41073 1.08529-.61637.856405-.13528 1.79742-.08728 2.55295-.44128 2.29262-1.07454 4.51363-2.30454 6.76285-3.47345.423595-.70091.846646-1.40182 1.27024-2.10382-.22671-.16091-.45342-.32291-.680135-.48491.31295-.15272.64217-.46418.93722-.43472 5.297354.53073 10.60068 1.02818 15.873625 1.746.77451.10527 1.402573 1.30036 2.16461 2.057454.38671-.12164 1.19756-.37582 2.00732-.63055.18495.13418.369896.269454.554846.403636.0857.13309.20448.17836.3558.13691 1.31579 1.087632 2.63051 2.175814 3.9463 3.26345l-.02278-.01528c.71918.59891 1.43891 1.19782 2.1581 1.797275.56678.47672 1.13302.95345 1.69925 1.43018 1.44705 1.33691 2.894644 2.67436 5.14332 4.752-1.265355.87382-2.371796 1.63854-3.47824 2.40382-.09708-.12928-.190912-.260187-.29776-.380187-.005965-.006-.15024.06928-.177355.13091-.44149 1.00582-.874305 2.01655-1.39498 3.22582 1.73668-.10473 3.38007-.20346 5.02291-.30273.20014.35836.40027.71673.60041 1.07455z" fill="#DBC5A0" mask="url(#f)"/>
    </g>
    <g transform="translate(8 37.64)">
      <mask id="h" fill="#fff">
        <use xlink:href="#g"/>
      </mask>
      <path d="M15.73413 12.5364c-3.03078-1.652727-6.06156-3.306-9.09234-4.958727-.05044-.33-.10034-.66-.15078-.99-.282576-.198546-.565695-.396546-.849356-.594546C4.328027 5.438945 3.0144 4.884764 1.70023 4.330582 1.133994 3.0744.567215 1.81931-.000107.563127.121925.510764.249383.48949.381723.498764 1.154063.824944 2.26213.930218 2.64179 1.5144c2.081627 3.206727 5.451932 4.037455 8.713762 5.116364.545085.71618 1.090712 1.433454 1.635797 2.15018 1.41884.578183 2.83715 1.15691 4.256 1.735638l1.17803 2.029636c.00108.517637.00162 1.034728.00271 1.552364-.17248.06109-.34441.122182-.51688.182727-.52177-.24655-1.04353-.49364-1.56529-.74019 0 0 .01247.01254.01247.01309l-.62427-1.01782z" fill="#BCA484" mask="url(#h)"/>
    </g>
    <path d="M61.145112 49.625964c-3.077966.534545-6.155932 1.07018-9.233898 1.604727-.35634-.5329-.712136-1.0669-1.068475-1.59981-.17953-.18272-.35906-.36491-.53858-.54763-.01302-.34636-.02604-.69272-.03851-1.03909.20664-.02509.41274-.04963.61885-.07473.34332.00546.6861.01037 1.02942.01582.36122.19473.7219.38946 1.08257.58418l2.18468-1.11273c.54345.1811 1.08691.36219 1.63037.54382.1703-.00545.34061-.01145.51091-.01691.0141-.17018.02874-.34036.04393-.51.52664.00764 1.05328.01637 1.57993.02509 1.42698.45764 2.85342.91637 4.28149 1.37619-.69315.25146-1.38793.50127-2.08271.75109" fill="#C9BBA1"/>
    <path d="M33.04396 13.570545C30.79474 14.74 28.57372 15.969455 26.28057 17.044c-.754984.354-1.696543.306-2.552407.441273 2.536678-1.773818 5.04949-3.586364 7.65939-5.244.195796-.124364 1.088.860182 1.656406 1.329272m-10.4012 4.530928c-.49248.77891-.96055 1.574727-1.48394 2.331272-.54292.786-1.54902 1.492364-1.63037 2.306728-.19634 1.954363-1.31092 1.470545-2.43037 1.275272-.7116-1.40891-.56787-2.440363 1.02128-3.212727 1.57342-.764182 3.02047-1.789636 4.52339-2.700545m43.3771 30.268417c1.73776-1.056545 3.47607-2.113636 5.21383-3.17018.50061 1.301454.41871 2.22818-1.28 2.423454-1.32231.151636-2.62346.490363-3.93383.746727" fill="#D4BFA5"/>
    <path d="M61.609112 19.305836c-.719187-.599454-1.438915-1.197818-2.158102-1.797272.71973.599454 1.438915 1.197818 2.158102 1.797272" fill="#160D08"/>
    <path d="M70.415783 41.454236c-.084068-.579272-.168136-1.157454-.252203-1.736727.083525.57927.168135 1.15745.252203 1.73672m-1.194143-5.99787c-.161084-.72873-.321626-1.45746-.48271-2.18619.158914.06163.321626.11018.487592.14618-.001627.68018-.003254 1.35981-.00488 2.04" fill="#CEBD9A"/>
    <path d="M63.315146 48.8962l1.10156-.273273c-.367187.09109-.734374.182182-1.10156.273273" fill="#D4BFA5"/>
    <path d="M13.641708 43.63289c.28312.198.566238.396546.849356.594546-.283118-.198-.566237-.396545-.849356-.594545" fill="#DBC5A0"/>
    <path d="M70.875552 43.639273c-.062915-.116182-.139932-.228-.180067-.352364-.014644-.04528.05966-.12055.093288-.18164.028746.17782.058034.35618.08678.534" fill="#CEBD9A"/>
    <path d="M50.265383 48.044473c.013017.346363.025492.692727.038508 1.038545.17953.182727.35906.365455.53858.547636.35634.533455.71268 1.06691 1.06848 1.600364-.17681.206182-.35417.412364-.53098.618-1.2724.354-2.54427.708-3.81613 1.062-.36718.19309-.73437.386727-1.10156.579273-1.41125-.06109-2.82196-.12218-4.23376-.18436.03688-.25745.07485-.51545.11282-.77291.44149-1.74163.88299-3.48327 1.32393-5.22381.06021-.84436.12095-1.68872.1817-2.53363 1.37438-.98891 1.4975-1.92218-.12095-2.778-.01627-.35891-.032-.71727-.04827-1.07673.67146-.03163 1.34238-.06382 2.05017-.09709-.52447-.58254-.96162-1.06691-1.39878-1.55182 1.10319.00219 2.20638.00437 3.30956.006 1.93953.90273 3.8796 1.80491 5.81912 2.70819.03309.294.06671.58746.0998.88146-.544.44019-1.08854.88146-1.63254 1.32218-.69803.72982-1.39552 1.45964-2.09356 2.18946-.73112.33709-1.46332.67418-2.19444 1.01128.05641.21764.11282.43636.16922.654h2.45912z" fill="#BCA484"/>
    <path d="M42.34137 52.532745c-.037967.258-.075933.515455-.112814.773455-.040678 1.682182-.081898 3.364364-.12366 5.046546-.73546.598363-1.40746 1.30909-2.219933 1.768363-1.368407.77345-2.825763 1.38709-4.245153 2.06836-.497898-.35455-.995796-.70909-1.494237-1.06091.311322-.726.623186-1.45418.935593-2.18182l.03688-.18709c.953493-.41673 1.886374-.89128 2.864273-1.23818 2.33979-.82964 2.88542-2.38418 1.95633-4.59709-.352-.33-.704-.65946-1.056-.98946l.02332-.13637c-.53207-.17728-1.06468-.35509-1.59675-.53291L35.156 52.36037c.511456-2.19818 1.022914-4.39582 1.534914-6.59291.184406-1.27418.369355-2.54782.554304-3.822.554304.19582 1.10861.391637 1.663457.587455 1.32339 2.085273 2.008406.674727 2.73573-.505636.169762.53454.34007 1.068.50983 1.60254-1.352678.18163-2.705356.36327-4.723526.63436.864 1.26218 1.71281 2.50145 2.56054 3.74018-.6042.40254-1.20841.80454-2.33112 1.55127 1.54739.36873 2.59309.618 3.77275.89836.21369.48927.56081 1.284.90847 2.07872" fill="#8E4432"/>
    <path d="M35.63981 62.188982c1.41939-.680728 2.876746-1.294364 4.245153-2.067818.812474-.459273 1.484474-1.170546 2.219932-1.768364.201763.29291.47295.559636.593898.88309.533153 1.420365 2.72 2.648183.535322 4.409455-2.096813 1.690364-5.002847 1.634182-6.82088-.145636-.258713-.25364-.52068-.50346-.780476-.75491.00217-.18491.00488-.37037.00705-.55582" fill="#331F1D"/>
    <path d="M46.462156 53.490454c.367186-.19309.734373-.38618 1.10156-.579272 2.56217.063818 1.624948 2.718 2.792135 3.814364-.30047 1.050545-.6004 2.101636-.89979 3.152727-.96162-.50291-1.92325-1.005818-2.88379-1.508727-.03688-1.626-.07322-3.25309-.1101-4.879092" fill="#6E352F"/>
    <path d="M27.52065 58.331364c-.181694-1.255637-.36393-2.511273-.545626-3.767455l.005423-.56728c.447458.85363.69912 1.95927 1.389017 2.50091.995255.78109 1.119458 3.474 3.409356 1.85018.371526.56236.74251 1.12418 1.11295 1.686-.52556.53127-1.051662 1.06254-1.57722 1.59382-1.264272-1.09909-2.529086-2.19709-3.7939-3.29618m17.406536 2.2644c.335187.16418.66983.32891 1.004475.49309.19038 1.49727.56678 3.00218.50983 4.48964-.04122 1.06254-.66494 2.10218-1.02833 3.15218-.16217-2.712-.32434-5.42346-.48596-8.13491" fill="#312A29"/>
    <path d="M31.314603 61.627545c.52556-.531272 1.05112-1.062545 1.577763-1.593818.417627.364364.835797.728182 1.253424 1.092546.497898.354.99634.708545 1.494237 1.06309-.002712.18491-.00488.370364-.007593.555273-1.439458-.372545-2.878915-.744545-4.31783-1.11709m3.61947 6.895964l-1.22522-1.322183c.17356-.193636.34712-.387818.520678-.582.478916.394364.95783.789273 1.436746 1.184728-.244068.239454-.488136.479454-.732203.719454m-1.237315-3.62166c-.092204.12491-.23051.36709-.267933.35236-.176813-.07037-.32705-.21055-.486508-.32618.12583-.10037.24515-.26727.37857-.27927.11444-.00982.24407.15763.37586.25309" fill="#160D08"/>
    <path d="M23.17901 39.764636c.18061-.306.360678-.612.541288-.918-.755525-.354-1.509966-.707454-2.26495-1.062-.146982.314182-.293965.62891-.440948.943637.721356.345272 1.442712.69109 2.16461 1.036363m-4.129627-4.76509c.702915-.048546 1.803932 1.65109 2.035526-.469092 3.22277-.69218 5.59077 1.373455 8.22562 2.57891-2.88163.76691-.37153 1.80218-.13397 2.723454-.04177.17509-.08299.350182-.12475.525273-.47132.00273-.9421.00546-1.41288.00764l-.82115-2.22c-.87594.68673-1.75187 1.37291-3.21573 2.51946 1.84786.54491 2.84149.83837 3.83512 1.13127.23756.26128.47566.52309.71322.78382.49789 2.32309-1.00556 2.86855-2.784 3.16964-.03038-.14454-.11933-.21818-.26631-.22036-.06455.05564-.12909.11018-.19363.16582.06291-.05727.12583-.11454.1882-.17182l-.28854-.79145c-.87865-2.58327-2.97492-3.42218-5.39011-3.80345-.35634-.00818-.71322-.01636-1.0701-.024.20556-.73036.41057-1.46072.61613-2.19109.5158-.45163 1.03159-.90327 2.07186-1.81527-1.28976.09764-1.78712.13527-2.28448.17291.0998-.69055.20013-1.38164.29993-2.07164" fill="#201B15"/>
    <path d="M48.14617 23.457455c.922033-.285273 1.82834-.707455 2.77044-.81982 1.023458-.12218 2.29478-.292908 3.051932.19473.560814.361635.471865 1.742726.672 2.669453-1.263728.045273-2.528.090546-3.791728.135818-.010848.28091-.022238.561273-.033085.842182l-.02984-.032182c-.51038 1.00091-1.02129 2.001273-1.53166 3.002182-1.82021.732-3.64095 1.464546-5.46116 2.196546-.02387-.555273-.04719-1.109455-.07051-1.664728.19851-.89618.39702-1.791818.59498-2.688.59606-.36709 1.19213-.73418 1.78766-1.101272 2.24.26509 1.13898-1.99091 2.04095-2.73491" fill="#DACAAE"/>
    <path d="M32.373966 22.911454c.913898.17891 1.827797.358364 2.741695.53782 1.69112 1.677817 2.87404 3.413453 1.23336 5.86309-.34657.51818-.15023 1.403454-.20447 2.11909-.32868.415637-.65681.831273-.98603 1.24582-.4903.024-.98007.048-1.47037.072l-.24949-4.918365c-.81084-1.23273-1.62169-2.46491-2.43308-3.69764.45614-.40746.91227-.81437 1.36841-1.22182" fill="#E6D9C3"/>
    <path d="M29.051932 40.358036c.041763-.17509.082983-.35018.124746-.525272.044474-.907637.08895-1.815818.133966-2.723455-2.634847-1.20546-5.002847-3.2711-8.225627-2.57891.05912-.55037.037966-1.55564.18983-1.58291 1.89017-.33818 3.804746-.534 5.713356-.76691.89817.726 1.79634 1.452 2.69505 2.17745.364476.18436.72895.36818 1.093425.55254-.316203 2.17745 1.175322 4.52018-.593356 6.56563-.37695-.37309-.75444-.74564-1.13139-1.11818" fill="#DDD1BE"/>
    <path d="M32.373966 22.911454c-.456135.407455-.91227.814364-1.368407 1.22182-2.43905.12818-2.464 1.878544-2.4358 3.664908l.01247-.010364-.37207.22091c.1204.14509.24081.290726.36122.436363.20556.85691.41057 1.71437.61613 2.57182-.55485-.15327-1.1097-.30709-1.66509-.46036-.78102-.738-1.71607-1.36909-2.31268-2.23527-1.34129-1.94673-.86834-3.82418 1.3543-4.54582 1.83756-.59672 3.86603-.5989 5.8099-.864" fill="#DCCEB5"/>
    <path d="M46.105383 26.1922c-.596068.367636-1.191593.734727-1.78766 1.101818-.865628-.252545-1.731798-.505636-2.597425-.758182-.929084-1.391454-1.857627-2.783454-2.786712-4.174363-.355254-.368182-.71105-.73582-1.066847-1.104l-.00977-2.39509c1.36027 1.708908 2.72 3.418363 4.192 5.268544.80217-1.24309 1.60596-2.489454 2.40976-3.735272.67634-.27709 1.35322-.554728 2.54427-1.042364-.54671 1.19564-.82875 1.8131-1.11078 2.4311-.75282.93055-1.50563 1.86109-2.0659 2.55437.90142.73255 1.59023 1.29327 2.27905 1.85346" fill="#201B15"/>
    <path d="M59.515878 32.188436l.00488 1.091455.060747 3.86237c-.20773.16691-.416.33273-.623186.49909l-2.17546 1.22728c-.25166-.00218-.50387-.00491-.75553-.00763-2.2579-.41727-4.51526-.83563-6.77316-1.25291.71213-.876 1.42427-1.75145 2.1364-2.628.35905-.01091.7181-.02236 1.07715-.03327.53966.35837 1.07932.71728 1.61898 1.07619 1.86196.426 2.82576-.49418 3.26346-2.202.36989-.53891.73979-1.07836 1.10969-1.61782.352-.00491.704-.00982 1.056-.01472" fill="#D4BFA5"/>
    <path d="M51.925044 44.189527c.544-.440727 1.088542-.881454 1.632542-1.32218 2.004068-2.34873 3.310645 1.805453 4.78373.08509.205016-.17891.40949-.357273.613965-.535637l1.06902-.006546.58088 2.863637c-.35796.19037-.71593.38073-1.07444.57-.72135.54273-1.44271 1.086-2.16461 1.62982-.01518.16964-.02929.33982-.04339.51-.1703.00491-.34061.01037-.51146.01637-.54345-.18109-1.08637-.36218-1.62983-.54327-1.08583-1.08927-2.17111-2.178-3.2564-3.26727" fill="#E6D9C3"/>
    <path d="M37.866793 21.257527c.355797.368182.711593.73582 1.066848 1.103455-.30372.44291-.96271 1.020545-.85478 1.307454.73329 1.961455 1.62712 3.86182 2.46943 5.782364-.18115.380182-.3623.760364-.544 1.140545-1.47525-.894-2.64678-.834-3.24176 1.04182l-.02115.022908c-.19905-.074727-.3981-.15-.59661-.224728.0537-.715636-.14264-1.60091.20448-2.118545 1.64068-2.450182.45777-4.185818-1.2339-5.86309.19471-1.648364.8537-2.706546 2.75146-2.192183m21.64909 10.93091c-.352.00491-.704.009817-1.05654.014727-.37749-1.462364-.75444-2.924728-1.22251-4.740546-.45179.082364-1.16718.213273-1.88257.343636-.08786-.498-.17627-.996545-.26413-1.49509.05695-.22909.11336-.457637.17031-.686728 1.74915-.192545 3.65288.894546 5.27132-.797454.25004-.261818 1.43838.383454 2.19282.608727-.04122.25854-.08298.51654-.1242.77509-.54996.23291-1.09125.48981-1.65098.69327-1.38305.50291-2.17057 1.14709-1.33857 2.83309.31729.64309-.04339 1.62382-.09492 2.45127" fill="#DACAAE"/>
    <path d="M58.955498 42.4168c-.204474.178364-.40949.356727-.613966.535636-1.473084 1.720364-2.77966-2.433818-4.78373-.08509-.033626-.294-.06671-.587455-.100338-.881455.856407-1.04127 1.713356-2.08254 2.569763-3.1249.25166.00273.503864.00546.755525.00764.18061.17073.361763.34091.542373.51218.161628.75219.323797 1.50382.599865 2.78946.478373-1.39472.787525-2.29582 1.096678-3.19691.533695-.15218 1.06739-.30382 1.601084-.45545l1.00773.39273c-.035255.47564-.071052.95128-.106306 1.42691-.856406.69328-1.71227 1.386-2.568678 2.07928" fill="#201B15"/>
    <path d="M44.458956 20.395654c-.803797 1.24582-1.608136 2.492182-2.410305 3.735273-1.47145-1.85018-2.83172-3.559636-4.19145-5.26909.15783-.206182.38183-.61582.46319-.589637 2.05505.680182 4.09546 1.406182 6.13858 2.123454" fill="#E6D9C3"/>
    <path d="M18.962115 38.713655c-.20556.730363-.410576 1.460727-.616135 2.19109-.019526.208364-.03905.417273-.05912.626182.026577.134728.04556.270546.058035.407455-1.269695-.564-2.86427-.845455-2.37939-2.885455.43173-1.817454.33139-4.029272 3.084475-4.054363-.10034.69109-.200678 1.382182-.301017 2.072182-1.710644.78109-.79566 1.218545.213152 1.64291" fill="#DCCEB5"/>
    <path d="M18.344786 41.938436c-.011932-.13691-.031457-.272727-.058033-.407454.376406-.200728.752813-.401455 1.12922-.602728 2.415186.38182 4.511457 1.220728 5.390644 3.804-.36122.176182-.72244.35291-1.084203.529637-.54183.00328-1.08366.006-1.626034.00928-.190373-.90709.186034-2.38254-1.637424-1.65218-.174644.01418-.349288.02837-.523932.04146-.37044-.35782-.741424-.71563-1.111865-1.074l-.47838-.648" fill="#E6D9C3"/>
    <path d="M27.522495 30.556327c.554847.153273 1.109695.30709 1.664542.46091 1.077153.622363 2.154305 1.245817 3.231458 1.868727l1.51322 1.455272c-.69044.006546-1.38088.013637-2.071864.020182-.18169.001637-.36339.002728-.54562.004364-.17898-.002182-.35851-.005455-.53749-.010364l.00814.009273c-.36935.0011-.73817.00164-1.10698.00273l.00488-.00927c-.89817-.72545-1.79634-1.45145-2.6945-2.17745.17844-.54163.35634-1.08327.53424-1.62436" fill="#C9BBA1"/>
    <path d="M64.973234 27.891945c.795118 1.196182 3.930034-.39709 3.152813 2.67382-1.642847.09927-3.286237.198544-5.022915.302726.520678-1.20927.954034-2.21945 1.395526-3.22581.026576-.06109.170847-.13691.176813-.13036.10685.11946.20068.25091.29777.37964" fill="#CEBD9A"/>
    <path d="M46.105383 26.1922c-.688814-.560182-1.377627-1.12091-2.27905-1.853454.56027-.693273 1.313084-1.62382 2.065897-2.554364.751187.557454 1.502373 1.115454 2.254102 1.67291-.901966.744544.19851 3-2.04095 2.734908" fill="#E6D9C3"/>
    <path d="M59.581288 37.14231l-.060203-3.862365c1.381966-.44018 2.33817-.278727 2.165695 1.52509-.07756.81273-.12583 1.628183-.186577 2.441456-.638915-.0349-1.278915-.06981-1.918915-.10418" fill="#DACAAE"/>
    <path d="M20.458956 43.619036c1.823458-.730363 1.44705.74509 1.637966 1.652182-.368813.383455-.737085.76691-1.105898 1.150364-.545085-.717818-1.09017-1.434546-1.635797-2.151273-.177356-.56073-.354712-1.12255-.532068-1.68437.37044.35891.74142.71673 1.11186 1.074.13505.10963.27064.21982.40569.32945.03959-.12382.07864-.24655.11823-.37037m40.14644 1.65502c-.19363-.95455-.38726-1.90909-.58143-2.86364l1.07064-.57927c.19037.44945.38129.89836.5722 1.34727-.35363.69818-.7078 1.39745-1.06143 2.09564" fill="#DCCEB5"/>
    <path d="M55.260312 25.624327c-.056407.22909-.113356.457637-.169763.686727l-2.06645-.126c-.51851.085637-1.03702.170182-1.55553.255273-.20665-.267273-.41329-.53509-.61939-.80291l3.79118-.135817c.20664.041454.41328.081818.61993.122727" fill="#312A29"/>
    <path d="M61.094563 41.831364c-.356882.19309-.713763.385636-1.070644.579272l-1.06848.006c.8564-.692727 1.71227-1.386 2.56868-2.078727.05152.1909.10251.38181.15403.57272-.19471.30709-.38943.61418-.5836.92073" fill="#3A352B"/>
    <path d="M61.094563 41.831364c.19417-.306546.38888-.613637.583593-.920728.439322.22091.879186.441273 1.31905.661637-.443118.53509-.886236 1.069636-1.329898 1.605272-.191457-.448363-.38183-.897272-.572745-1.34618" fill="#C9BBA1"/>
    <path d="M59.581288 37.14231c.64.034363 1.28.069272 1.918915.10418.042848.55582.086238 1.11.13017 1.664183-.33573-.13091-.671458-.26182-1.007187-.392728-.554847-.291818-1.109694-.58418-1.665084-.876545.20773-.166364.415457-.332182.623186-.49909" fill="#E6D9C3"/>
    <path d="M57.366237 47.473436c.7219-.543272 1.443255-1.086545 2.16461-1.629272-.19417.55091-.38888 1.101818-.584135 1.653818-.527187-.008182-1.05383-.016364-1.580475-.024546" fill="#DCCEB5"/>
    <path fill="#DACAAE" d="M57.094834 23.90969l.053152.15491-.145898-.024"/>
    <path d="M23.73413 50.176218l.62427 1.017818-.62427-1.017818z" fill="#3A352B"/>
    <path d="M37.245234 41.945364c-.18495 1.274182-.369898 2.547818-.554305 3.822-1.93519-.819273-1.82129 1.251818-2.34739 1.966363-1.36028 1.849637-2.34631 3.878727-5.21872 3.257455-.24624-.053455-.71756.943636-1.08421 1.452545l-1.61248-.705272c-.00109-.517637-.00163-1.034728-.00272-1.55291 1.37925-.798545 3.80854-.550363 3.24339-3.288545.73437-1.262727 1.46874-2.525454 2.20257-3.788727.76474-.068182 1.53003-.135818 2.40759-.214364-.17682-.87873-.30644-1.524-.48434-2.40928 1.43837.14563 2.64081.26727 3.84325.38836-.13126.35727-.26197.71509-.39268 1.07236" fill="#C8A683"/>
    <path d="M31.871837 43.10871l-2.203118 3.78818c-1.47363.420546-2.94726.839455-4.42143 1.259456-1.41885-.578728-2.83716-1.157455-4.256-1.735637.36827-.38291.73708-.76582 1.10535-1.14928.54237-.00327 1.0842-.00655 1.62603-.00982.45722.08727.91498.17509 1.3722.26182-.06292.05727-.12583.11454-.18821.17182.064-.05509.12908-.11019.19308-.16582.08895.07363.17789.14727.26684.22036 1.77844-.30109 3.2819-.84655 2.78346-3.16909.67797-.36873 1.35539-.73637 2.03336-1.10455 1.76813-2.04546.27715-4.38818.59335-6.56564l-.00488.00545c.18061-.18273.36176-.366.54237-.54982.18224-.00164.36393-.00327.54563-.00491 1.77464 2.91382.99471 5.82982.01193 8.74745" fill="#D4BFA5"/>
    <path d="M26.427986 51.73851c.537492.23509 1.074983.47018 1.613017.705817 1.82183.871637 3.64312 1.743273 5.465492 2.61491l-.051526 1.118727-1.67648 2.169818c-2.28936 1.623818-2.41356-1.06909-3.40882-1.850182-.6899-.542182-.94156-1.647273-1.38902-2.50091-.35688-.691636-.71268-1.383272-1.06956-2.075454.17247-.060545.34441-.122182.51688-.182727" fill="#160D08"/>
    <path d="M25.24735 48.15629c1.47417-.42 2.947796-.838908 4.421423-1.259454.565152 2.738182-1.864136 2.49-3.24339 3.28909L25.24735 48.15629z" fill="#CDB695"/>
    <path d="M51.925044 44.189527c1.085288 1.089273 2.170576 2.178 3.256407 3.267273-.7284.37091-1.45681.741818-2.18467 1.112182-.36068-.194727-.7219-.389455-1.08312-.583636-.34278-.005455-.6861-.01091-1.02942-.015273-.35091-.530182-.70183-1.06091-1.05274-1.590546.69804-.729818 1.39553-1.460182 2.09356-2.19" fill="#DCCEB5"/>
    <path d="M49.831593 46.37931c.350373.53018.701288 1.060363 1.052746 1.590545-.20556.024545-.41221.04909-.61885.07418-.81953.000547-1.6396.000547-2.45912.000547-.05641-.218182-.11282-.436364-.16922-.654.73112-.337637 1.46278-.674182 2.19444-1.011273m2.08233 1.60603c.36122.19418.7219.38891 1.08312.58363-.36122-.19418-.7219-.38946-1.08312-.58364" fill="#DBC5A0"/>
    <path d="M56.811444 48.000236c.170305-.006545.34061-.011454.510915-.016363-.17031.00491-.34061.01091-.51092.016363" fill="#DCCEB5"/>
    <path d="M50.842685 49.630764c-.179526-.182182-.35905-.36491-.538577-.547637.179526.182728.35905.36491.538577.547637" fill="#DBC5A0"/>
    <path d="M56.02728 38.8612c-.856405 1.041818-1.713355 2.08309-2.56976 3.12491-1.939527-.903274-3.879052-1.805456-5.81912-2.708183-.014644-.179454-.00705-.358363.021152-.536182.530984-.378 1.06305-.755454 1.59512-1.134 2.257355.41782 4.51471.835637 6.77261 1.253455" fill="#CDB695"/>
    <path d="M37.245234 41.945364c.130712-.357273.261424-.71509.393763-1.072364 0-.353454-.000543-.708-.001628-1.062 1.49586-2.627454 3.04922-1.448182 4.60583-.069818.47837.393273.95674.786545 1.43457 1.179818.01627.35891.032.717818.04881 1.076727-.17139.006-.34224.02182-.512.04582-.16922.529635-.33899 1.060362-.50821 1.59109l-.55214-.00491c-.16976-.534545-.34007-1.068-.51037-1.602545l-2.73519.505636c-.55485-.195818-1.10915-.391636-1.66346-.587454" fill="#AC5D4A"/>
    <path d="M42.34137 52.532745c-.347662-.794727-.69478-1.589454-.908475-2.078727-1.17966-.280363-2.225356-.529636-3.772746-.898363 1.12271-.746728 1.72691-1.148728 2.33111-1.551273 2.46237.27109 2.34739-1.994182 3.2103-3.297818l.46373 2.601818c-.4415 1.74109-.88299 3.483272-1.32394 5.224363" fill="#6E352F"/>
    <path d="M43.677993 40.921054c-.478373-.393272-.956746-.786545-1.43566-1.179272.343864-.338182.689355-.677455 1.034304-1.016728.353627.185455.706712.371455 1.059797.557455l-.00705-.01037c.43661.48436.873762.96927 1.398236 1.55127-.707796.03382-1.378712.06545-2.049627.09763m-.46324 1.12287c.169762-.02455.34061-.03982.511457-.04637 1.61844.85582 1.49478 1.78909.12095 2.77745-.05207-.16637-.09112-.33546-.117696-.50837-.171932-.74127-.343322-1.48255-.51471-2.22273" fill="#A88666"/>
    <path d="M47.659932 38.74191c-.028746.177817-.03634.35618-.021695.535636-1.102644-.001637-2.20583-.003273-3.309017-.005455l.007594.01037c.906847-.38018 1.813695-.76036 2.720542-1.14109.20122.20073.401898.40091.602576.60055" fill="#A88666"/>
    <path d="M43.729356 44.26731c.026576.171817.065627.341454.117695.507817-.06074.84491-.12149 1.68982-.18169 2.534182-.15457-.86837-.30915-1.7351-.46373-2.60237.02658-.16691.04177-.33491.04611-.50346.1638-.00328.32434.018.48163.06382" fill="#331F1D"/>
    <path d="M33.506115 55.059182l-5.46549-2.61491c.366643-.509454.837965-1.506545 1.084202-1.45309 2.872407.621272 3.85844-1.407818 5.218712-3.257455.5261-.714545.4122-2.785636 2.34739-1.966363-.512 2.19709-1.02346 4.394727-1.53546 6.59291-.54997.899453-1.09939 1.799453-1.64936 2.698908" fill="#A88666"/>
    <path d="M39.93882 52.924273c.928543 2.213454.383458 3.767454-1.95634 4.597636-.97844.34636-1.910778.82145-2.86427 1.23872-.40949-2.71582.616678-4.98 2.208-7.06473.526644.03436 1.053288.06872 1.57939.10309 0 0-.023322.13636-.023322.13582.352542.32891.704542.65945 1.056542.98945m3.309072-8.72089c-.00434.16909-.019526.33654-.046102.50345-.862915 1.30364-.748475 3.56891-3.210305 3.29782-.84827-1.23927-1.696543-2.478-2.561085-3.74073 2.01817-.27109 3.37139-.45273 4.724068-.63437l.552135.00491c.180068.18982.360678.37909.54129.56891" fill="#C26046"/>
    <path d="M37.326264 51.69591c-1.591864 2.084726-2.61749 4.348908-2.208 7.064726 0-.00109-.037423.186-.03688.185455-.541832-.92236-1.084204-1.84581-1.626577-2.76818l.051525-1.11872c.549424-.89945 1.098848-1.79945 1.649356-2.69891.718102-.36491 1.43566-.72982 2.15322-1.09472.013017.14346.018984.28637.017356.43037" fill="#AC5D4A"/>
    <path d="M33.454698 56.1778c.542373.922364 1.084746 1.845818 1.626577 2.768182-.312407.728182-.624272 1.456364-.936136 2.182364-.41709-.366546-.83526-.730364-1.25289-1.094728-.37099-.561818-.74197-1.123636-1.11349-1.685454.5581-.72382 1.11729-1.44709 1.67593-2.170364" fill="#6E352F"/>
    <path d="M38.908637 42.532927c.91173-.16909 1.823458-.33709 2.735187-.505636-.72678 1.18037-1.411797 2.59091-2.735187.50564" fill="#C26046"/>
    <path d="M37.326264 51.69591c.001627-.144-.00434-.28691-.017356-.430364.53261.177818 1.064678.355636 1.59729.532908-.527188-.033818-1.05329-.068727-1.579934-.102545" fill="#6E352F"/>
    <path d="M39.93882 52.924273c-.352-.33-.704-.660546-1.056542-.989455.352542.33.704542.66 1.056542.989455" fill="#AC5D4A"/>
    <path d="M27.436963 41.796236c-.993627-.29291-1.987254-.585818-3.83512-1.130727 1.464408-1.1471 2.34034-1.83328 3.216272-2.51946l.82061 2.21945c-.067254.47672-.134508.954-.201762 1.43072" fill="#DDD1BE"/>
    <path d="M27.436963 41.796236c.067254-.476727.134508-.954.201762-1.430727.471322-.00219.942102-.00491 1.413424-.00764.37694.37254.75389.74509 1.13084 1.11818-.67743.36818-1.35539.73636-2.03282 1.10454-.23756-.26128-.47566-.52309-.71322-.78437" fill="#331F1D"/>
    <path d="M23.17901 39.764636c-.721898-.345272-1.443254-.69109-2.16461-1.036363.146983-.314727.293966-.629455.44095-.943637.754982.354546 1.509423.708 2.264948 1.062-.18061.306-.360678.612-.541288.918" fill="#3A352B"/>
    <path d="M29.310373 37.109254c-.045017.907637-.089492 1.81582-.133966 2.723455-.23756-.92128-2.74766-1.95655.133966-2.72346" fill="#331F1D"/>
    <path d="M18.962115 38.713655c-1.008813-.424364-1.923796-.86182-.213152-1.64291.497898-.03709.995254-.074727 2.285017-.172363-1.04027.912-1.556068 1.363636-2.071865 1.815272" fill="#3A352B"/>
    <path d="M25.094834 45.523327c-.45722-.086727-.914983-.174-1.372203-.261273.36122-.177272.72244-.353454 1.08367-.529636l.28854.79091z" fill="#DCCEB5"/>
    <path d="M19.416027 40.928527l-1.12922.602182c.020068-.20837.039593-.41728.059118-.62619.356882.00818.713763.01582 1.070102.024" fill="#3A352B"/>
    <path d="M25.366508 45.74969c-.08895-.07309-.177898-.146726-.266847-.219817.14699.00218.23594.075272.26685.219818" fill="#DCCEB5"/>
    <path d="M37.637424 39.810946c.000542.354.001084.708545.001084 1.062-1.202983-.12109-2.405423-.242728-3.843796-.388364.177898.885272.307525 1.530545.48434 2.409273-.878103.078545-1.64285.14618-2.407594.214363.983322-2.91709 1.763254-5.83309-.01139-8.74691.69044-.006544 1.381423-.013635 2.07295-.019635.208812.038727.41654.077454.62427.116727.00705.15.009763.3.008678.45109l-.11661.12491.124746-.117273c4.904678-.048 5.365695-.414545 5.430237-4.325454.18169-.380727.36284-.76091.544-1.14109.1844-.185456.36935-.370365.55376-.55582.17952.012.35851.018.53803.018546.17247-.00055.34549 0 .51796.00109.52122.35618 1.04298.71127 1.5642 1.06691.02386.55527.04718 1.11.07051 1.66472l-.54021 4.36418c-.90305-.17727-1.80502-.354-2.70753-.53128-.23702.17509-.47404.35073-.71105.52636.23322.18381.46644.36709.69911.55091-.00054.174-.0038.34745-.00922.52091-1.20298-.08237-2.40543-.16528-4.43824-.306.64054 1.25509 1.09614 2.14745 1.55173 3.03981" fill="#CDB695"/>
    <path d="M43.252393 36.010382c.180068-1.454727.360678-2.909455.540746-4.364182 1.8202-.732 3.64094-1.464545 5.46115-2.196.32434.368727.80651.687273.94373 1.11709.46373 1.44982.80488 2.93891 1.19267 4.412728-.71268.876546-1.42482 1.752-2.13641 2.628-.53153.378-1.0636.755455-1.59512 1.134-.20014-.199636-.40082-.400363-.60149-.6-1.26861-.710182-2.53722-1.420363-3.80529-2.131636" fill="#C3AC8F"/>
    <path d="M51.390644 34.980182c-.387797-1.473818-.72895-2.963455-1.192678-4.412728-.13722-.429818-.61939-.748363-.943186-1.117636.50983-1.00091 1.020745-2.001273 1.531118-3.002727.349288.582.698577 1.16455 1.21817 2.03237.40895-.91909.714305-1.60636 1.020203-2.29418.68882.042 1.37709.08346 2.0659.12546.08787.49909.17627.99764.26414 1.49564-2.32461.62618-2.91254 1.89655-1.97423 4.22837.29288.72764-.57546 1.92818-.91227 2.91164-.35905.01146-.7181.02237-1.07715.03382" fill="#201B15"/>
    <path d="M43.722468 29.981582c-.52122-.355636-1.042983-.711273-1.564204-1.06691-.145898-.79309-.291796-1.585636-.438237-2.378726.86617.252545 1.731797.50509 2.597966.757636-.198508.896182-.397017 1.791818-.595525 2.688" fill="#C3AC8F"/>
    <path d="M53.024108 26.185273c-.305355.687818-.611254 1.37509-1.01966 2.294182-.520136-.86782-.869424-1.450364-1.21817-2.032364-.000542.00055.029288.03273.029288.03273.218034-.01254.434983-.02618.653017-.03927l1.555525-.25527" fill="#DDD1BE"/>
    <path d="M51.468475 26.440382c-.217492.01309-.434984.026727-.653017.039272.01139-.280363.022237-.561272.033084-.84218.206644.267817.41329.535635.619933.802908" fill="#201B15"/>
    <path d="M40.004502 30.59151c-.064543 3.910908-.52556 4.278-5.430238 4.326l-.008678-.008183c.001628-.150545-.001084-.30109-.008135-.45218.20068-.594002.40082-1.18691.6015-1.77982.32868-.41509.65682-.83018.98549-1.245818.19905.07472.3981.14945.59715.22527.00055.00109.02116-.02346.02116-.02346.59499-1.87582 1.76651-1.93637 3.24177-1.04182" fill="#C9BBA1"/>
    <path d="M32.41844 32.88569l-3.231457-1.868726c-.205017-.857455-.410034-1.71491-.615593-2.572364.003796-.219273.00705-.437455.010847-.656727l-.012474.010363c1.613017 1.524546 3.243932.371455 4.86888.032182l.249493 4.91891c-.42305.045272-.846644.09109-1.269695.136363" fill="#160D08"/>
    <path d="M33.438807 27.83069c-1.625492.339274-3.255865 1.49182-4.869424-.032726-.028203-1.786364-.002712-3.536728 2.43634-3.664364.810846 1.232182 1.622236 2.464364 2.433084 3.69709" fill="#201B15"/>
    <path d="M32.41844 32.88569c.423052-.045272.846645-.09109 1.269696-.136363.490305-.024.980067-.048 1.470373-.072-.20014.59291-.40082 1.18582-.60095 1.77982-.20773-.037638-.41546-.07691-.62482-.115638-.50549-.48546-1.0099-.97037-1.51431-1.45582" fill="#C3AC8F"/>
    <path d="M30.776732 34.910418c-.364474-.184364-.72895-.368182-1.093966-.552545l-.00488.009818c.368812-.00109.737626-.00163 1.106982-.00272l-.008136-.00982-.00488.56128.00488-.006z" fill="#D4BFA5"/>
    <path d="M28.582075 27.788036c-.003797.218728-.00705.437455-.010848.656728-.120407-.145637-.240813-.290728-.36122-.436364l.372068-.220364z" fill="#201B15"/>
    <path d="M41.72008 26.535727c.146442.79309.29234 1.585637.43824 2.378728-.173018-.001637-.345493-.002182-.517968-.001637-.180067-.006-.35905-.012-.538033-.018-.18441.185455-.36936.370364-.55377.555818-.84231-1.920545-1.73668-3.82091-2.46997-5.782363-.10739-.28691.55105-.864546.85532-1.30691.92854 1.39091 1.85763 2.78291 2.78617 4.174364" fill="#C9BBA1"/>
    <path d="M52.467688 34.946636c.336814-.984 1.205153-2.184545.91227-2.91218-.938304-2.331274-.34983-3.601638 1.97424-4.228365.715388-.13036 1.430778-.26072 1.882575-.34363.468068 1.81582.84556 3.27818 1.222508 4.74109-.36935.53891-.73925 1.07837-1.10915 1.61782-1.08746.73364-2.17546 1.46782-3.26346 2.202-.53966-.35945-1.07932-.71836-1.61898-1.07673" fill="#DDD1BE"/>
    <path d="M54.086888 36.023145c1.088-.73418 2.176-1.467818 3.263458-2.202-.438237 1.70782-1.401492 2.627455-3.263458 2.202" fill="#DACAAE"/>
    <path d="M58.958156 37.6414c.554847.292364 1.110237.584727 1.665085.876546-.53423.151636-1.06793.303272-1.60162.45491l-1.69654.407453c-.18061-.17073-.36176-.34091-.54237-.51164l2.17546-1.22728" fill="#BCA484"/>
    <path d="M57.325234 39.380582l1.696-.407455c-.30861.90109-.617763 1.802728-1.096136 3.19691-.276067-1.28509-.438237-2.037273-.599864-2.789455" fill="#3A352B"/>
    <path d="M20.458956 43.619036c-.039593.123818-.078644.246546-.118237.370364-.13506-.109636-.27065-.219818-.4057-.329455.17464-.012545.34929-.026727.52393-.04091" fill="#D4BFA5"/>
    <path d="M30.784705 34.364964c-.368813.00109-.737627.001636-1.106983.002727.368814-.00109.737627-.00163 1.106983-.00272" fill="#DDD1BE"/>
    <path d="M30.771742 34.916255c.001628-.18709.003255-.374182.004882-.560728.178983.004364.358508.008182.53749.010364-.18061.18382-.361762.3671-.542372.55037" fill="#DDD1BE"/>
    <path d="M37.637424 39.810946c-.455594-.892364-.911187-1.784728-1.55173-3.03982 2.032815.14073 3.235255.223638 4.438238.306547.917695.549273 1.83539 1.098545 2.752543 1.647273-.34495.339272-.6899.678545-1.034305 1.016727-1.555526-1.37891-3.108882-2.558182-4.604746.069273" fill="#C8A683"/>
    <path d="M43.247892 44.203382c-.18061-.189818-.36122-.37909-.54129-.56891.169222-.530727.338442-1.060908.507662-1.59109.171933.740727.343322 1.482.515255 2.223273-.15729-.045273-.31784-.066546-.48163-.063273" fill="#6E352F"/>
    <path d="M43.276475 38.724836c-.917153-.548727-1.834848-1.098-2.752543-1.647272.005424-.174.008678-.347455.00922-.521455.00434-.35946.008136-.71837.011933-1.07728.902508.17727 1.805017.354 2.707525.53127 1.268068.71127 2.536678 1.422 3.804746 2.13218-.906847.37963-1.813695.75982-2.720542 1.14-.353628-.18546-.706712-.37146-1.06034-.55746" fill="#BCA484"/>
    <path d="M40.54503 35.478782c-.003796.35891-.007593.717818-.01139 1.077818-.23322-.183818-.46644-.36709-.69966-.55091.237017-.175635.474034-.351817.71105-.526908" fill="#C8A683"/>
    <path d="M41.10221 28.894927c.179526.006.35851.011455.538034.018-.179525-.000545-.358508-.006545-.538034-.018" fill="#C3AC8F"/>
    <path d="M34.574156 34.917345l-.124746.117273.11661-.125454c-.000542 0 .008136.008182.008136.008182" fill="#C9BBA1"/>
    <path d="M36.76274 31.633436s-.02061.024546-.021154.023455c-.000542-.00054.021153-.02345.021153-.02345" fill="#DACAAE"/>
  </g>
</svg>
