<svg width="80" height="80" viewBox="0 0 80 80" xmlns="http://www.w3.org/2000/svg">
  <title>
    game-gamecredits
  </title>
  <g fill="none" fill-rule="evenodd">
    <circle fill="#2C475C" cx="40" cy="40" r="40"/>
    <path d="M32.176735 48v-6h27.813878c-.00324 7.143456-.000116 12.363332.009378 15.65963.00116.390575-.10755.625617-.44792.817428-2.20606 1.24382-4.35968 2.58928-6.61541 3.733658-2.46759 1.25193-5.12645 1.972586-7.8653 2.42343-2.21359.3645-4.44049.43902-6.65593.30122-2.91494-.181382-5.74329-.850462-8.44174-2.026364-1.77261-.77246-3.44449-1.70602-5.00882-2.840083-2.60224-1.88648-4.73096-4.21-6.38942-6.96015-1.27652-2.11688-2.28259-4.36055-2.80542-6.78271-.30448-1.41013-.47722-2.85168-.65076-4.28615-.10095-.83574-.12897-1.6862-.11647-2.52901.04897-3.29383.69071-6.47117 1.95924-9.51524.961614-2.30742 2.274717-4.39347 3.898555-6.29547 3.08571-3.6144 6.923948-6.07063 11.428-7.50974 2.01897-.64509 4.08159-1.095816 6.210203-1.13615 1.54951-.02932 3.11002-.11578 4.648533.019356 4.94225.434155 9.45186 2.064146 13.38619 5.15179.421645.33089.80914.705354 1.210873 1.061393.401154.355226.800456.712656 1.228934 1.09454-1.527168 1.482685-3.023077 2.927007-4.50683 4.38373-.24266.23817-.39189.184974-.62205-.02028-2.86736-2.55683-6.187165-4.23295-9.973536-4.858914-1.50216-.248486-3.063597-.3244-4.58405-.236085-3.045305.176978-5.8887 1.113087-8.494067 2.7294-3.123687 1.9377-5.46416 4.573226-6.97836 7.92303-.78761 1.74253-1.3116 3.572095-1.44242 5.48847-.08359 1.226435-.17644 2.464226-.101076 3.686836.12573 2.040967.627495 4.01054 1.42367 5.90443 1.067664 2.53979 2.699144 4.667798 4.75007 6.46642 2.363863 2.072954 5.11302 3.43951 8.19271 4.066633 1.26367.25718 2.567392.45815 3.850393.44505 1.80271-.018194 3.598933-.257524 5.35591-.74441 2.14181-.59363 4.16101-1.441657 6.053793-2.61211.714553-.44192 1.16109-.898096 1.098573-1.855646-.10154-1.55384-.02733-3.514474-.02733-5.14794h-20.79199z" fill="#FFF"/>
    <path fill="#FFF" d="M32 37h28v-6H32"/>
  </g>
</svg>
