<?xml version="1.0" encoding="UTF-8"?>
<svg width="105px" height="105px" viewBox="0 0 105 105" version="1.1" xmlns="http://www.w3.org/2000/svg" xmlns:xlink="http://www.w3.org/1999/xlink">
    <!-- Generator: Sketch 49.2 (51160) - http://www.bohemiancoding.com/sketch -->
    <title>Group</title>
    <desc>Created with Sketch.</desc>
    <defs></defs>
    <g id="Page-1" stroke="none" stroke-width="1" fill="none" fill-rule="evenodd">
        <g id="Group">
            <circle id="Oval" fill="#0057FF" cx="52.5" cy="52.5" r="52.5"></circle>
            <path d="M31.248,51.168 L43.884,51.168 L43.884,53.112 C43.884,56.712 42.732,59.628 40.428,61.86 C38.124,64.092 35.136,65.208 31.5,65.208 C27.612,65.208 24.372,63.948 21.816,61.428 C19.26,58.872 18,55.776 18,52.14 C18,48.468 19.26,45.372 21.78,42.816 C24.336,40.26 27.468,39 31.212,39 C35.928,39 40.032,41.304 42.192,44.868 L37.944,47.316 C36.756,45.264 34.164,43.824 31.176,43.824 C28.764,43.824 26.784,44.616 25.236,46.2 C23.688,47.748 22.932,49.728 22.932,52.14 C22.932,54.516 23.724,56.496 25.272,58.044 C26.856,59.592 28.944,60.348 31.536,60.348 C35.388,60.348 37.98,58.548 38.88,55.56 L31.248,55.56 L31.248,51.168 Z M62.64,51.636 C64.836,52.896 65.952,54.84 65.952,57.396 C65.952,59.52 65.196,61.284 63.684,62.652 C62.172,64.02 60.3,64.704 58.104,64.704 L47.412,64.704 L47.412,39.504 L57.348,39.504 C59.508,39.504 61.308,40.188 62.784,41.52 C64.26,42.852 65.016,44.544 65.016,46.596 C65.016,48.684 64.224,50.376 62.64,51.636 Z M57.348,44.148 L52.38,44.148 L52.38,49.692 L57.348,49.692 C58.896,49.692 60.048,48.504 60.048,46.92 C60.048,45.336 58.932,44.148 57.348,44.148 Z M52.38,60.06 L58.104,60.06 C59.796,60.06 61.02,58.8 61.02,57.072 C61.02,55.38 59.796,54.12 58.104,54.12 L52.38,54.12 L52.38,60.06 Z M69.192,39.504 L78.588,39.504 C81,39.504 83.052,40.332 84.708,41.952 C86.364,43.572 87.192,45.588 87.192,47.964 C87.192,50.34 86.364,52.356 84.708,53.976 C83.052,55.596 81,56.424 78.588,56.424 L74.16,56.424 L74.16,64.704 L69.192,64.704 L69.192,39.504 Z M74.16,51.78 L78.588,51.78 C80.712,51.78 82.26,50.124 82.26,47.964 C82.26,45.768 80.712,44.148 78.588,44.148 L74.16,44.148 L74.16,51.78 Z" id="GBP" fill="#FFFFFF"></path>
        </g>
    </g>
</svg>