<svg width="80" height="80" viewBox="0 0 80 80" xmlns="http://www.w3.org/2000/svg">
  <title>
    gbx-gobyte
  </title>
  <g fill="none" fill-rule="evenodd">
    <circle fill="#1666AE" cx="40" cy="40" r="40"/>
    <path d="M27.114359 24.893846c-4.99077.055385-6.200513.093846-6.810256.215898-1.18359.23641-1.833334.406153-2.370257.618461-.275897.10923-.68923.261026-.918461.337436-1.651282.549744-4.24718 2.466154-5.708718 4.213333-3.04 3.63436-4.259488 9.3-2.908718 13.512308.041025.12718.145128.481538.231795.787692.245128.867693.72923 1.909744 1.413333 3.044616 1.04564 1.733333 2.531795 3.32 4.1 4.376923 1.417949.955897 1.923077 1.207692 4.262051 2.12923 1.20718.475385 2.95282.625642 7.365641.633847l3.891282.006666v-5.744102l-3.984102-.055385c-4.12718-.057436-4.405641-.082564-5.65077-.502051-2.061025-.694872-4.051282-2.362564-4.865128-4.075385-.07282-.15282-.198974-.38205-.281025-.50923-.184103-.286154-.554872-1.154872-.653334-1.528718-.318461-1.216924-.355897-1.48-.357948-2.501539-.005641-3.296923 2.186666-6.881025 4.998461-8.171282.452308-.207692 1.534872-.578974 1.945641-.667692.22923-.049231.604615-.139487.833846-.2.3-.078975 2.646154-.122052 8.362052-.153334l7.944615-.043077V24.89077l-2.061538-.001025c-1.133847-.000513-2.20718-.015385-2.385641-.032308-.178462-.017436-3.055385-.001026-6.392821.03641m24.297436.06718l-3.544103.024615-.00359.763077c-.00205.42-.012307 1.784615-.023076 3.033333l-.019487 2.269744-2.756924.024615-2.75641.024616.02359 11.881025.02359 11.881026h27.424102l.02359-14.94.02359-14.94-2.015385-.008205c-7.34718-.029744-13.341538-.034872-16.399487-.013846M63.592308 39.92205l.020512 8.129231-.20564.049744c-.113334.02718-3.499488.037948-7.525129.024102l-7.319487-.02564-.02359-8.176924-.02359-8.176923 7.528206.02359 7.528718.02359.02 8.12923m-41.203077-.068205v2.825641l3.821538.011795c2.102052.006667 4.280513.037949 4.841026.06923l1.018974.05795.014872 4.123077c.008205 2.267692.018462 4.967179.023077 5.998974l.008718 1.87641h2.866667c1.57641 0 2.888718-.035897 2.915384-.079487.04359-.070256.071282-7.092308.058974-14.953333l-.004102-2.75641H22.389231v2.826153" fill="#FFF"/>
    <path d="M38.325128.15282c0 .056924-.46359.092821-1.204615.092821-.662564 0-1.204616.035385-1.204616.078462 0 .043076-.471794.10359-1.048205.134359-.57641.031282-1.162564.1-1.303077.153333-.14.053333-.460512.096923-.712307.096923-.251282 0-.456923.041538-.456923.09282 0 .05077-.185129.092308-.411795.092308-.226154 0-.436923.042051-.468718.09282-.031282.05077-.177436.092821-.324103.092821-.146666 0-.29282.041539-.324102.092308-.031795.051282-.013334.09282.040513.09282.067179 0 .098461.991282.098461 3.137436 0 3.433846-.027692 3.244103.552308 3.811795.078461.07641.348205.368205.598974.648718.251282.28.784616.85282 1.185641 1.273333l.728205.764616h5.818461l.16359-.27641c.568206-.962052 1.931795-.59282 1.931795.523077 0 1.133846-1.43282 1.486666-1.95282.480512l-.13641-.264102-2.985641-.003077c-2.206667-.002051-3.022052-.032308-3.124616-.115898-.113846-.092307-1.293333-1.350769-2.42718-2.589743-.351281-.383077-.352307-.37077-.352307 3.22564v3.358462l.578974.741539c.318462.407692.902052 1.159487 1.296923 1.670256l.71795.928718v6.122564L35.8 24.726667l2.200513.025128v6.022051l-7.209744.02359-7.20923.024102.070769.207693c.495897 1.456923-1.600513 2.233846-2.328718.86359l-.185129-.348718-.973333.040512c-3.00923.125129-6.207692 4.377436-6.20718 8.25282 0 1.749232.724103 3.930257 1.393847 4.19795.42.168205.736923.695897.736923 1.22718 0 .507691.885128 1.435896 2.13282 2.23641.480513.308204.654872.398974 1.202565.625128.606666.250769 1.270256.444615 2.038461.595384.282051.055898 2.245128.125641 4.401026.157436l3.891282.05641v5.929744l-2.830257.024615-2.829743.024103-.28718.304615c-.663077.703077-1.49641.600513-2.10564-.259487-.168719-.237949-1.006155-.306667-3.888206-.317436l-2.12-.008205-1.98923-2.036923-1.988719-2.03641-5.021025-.024616-5.020513-.025128.037436.254872c.020513.140513.074359.254872.119487.254872s.082051.125128.082051.277948c0 .15282.041539.27795.092308.27795.051282 0 .09282.146153.09282.324102 0 .178461.041539.324615.092821.324615.05077 0 .092308.08359.092308.186667 0 .102564.03641.258974.080513.34718.130256.261025.308205.790256.357948 1.064102.025128.140513.083077.254872.128205.254872.045129 0 .082052.079487.082052.17641 0 .18923.370769.961538.486666 1.01282.03795.016924.07077.142052.072308.27795.001539.135896.064103.327691.138974.426666.074872.098974.135898.255384.135898.347692 0 .091795.041538.167692.09282.167692.05077 0 .09282.083077.09282.185129 0 .10205.04154.185128.092309.185128.051282 0 .09282.104102.09282.231795 0 .12718.041539.231794.09282.231794.05077 0 .092308.083078.092308.185129 0 .102051.033334.185128.073846.185128.040513 0 .15077.186667.244616.414872.299487.726154.330256.713846 1.828205-.715898.266667-.254872.257949-3.271795-.009744-3.356923-.837436-.26564-.965128-1.54718-.194359-1.94564 1.203077-.622052 2.161026.83282 1.161539 1.763589l-.416923.388205v3.246154l-.53282.510256c-.707693.678462-1.093334.99282-1.21795.99282-.05641 0-.102564.04154-.102564.092309 0 .051282.042052.09282.09282.09282.05077 0 .092821.08359.092821.185128 0 .102052.032308.185641.071795.185641.039488 0 .153846.18718.254872.415898.100513.228718.213846.41641.252308.416923.037949.000513.06923.055384.06923.122564 0 .066667.08359.21077.185642.32.101538.109744.185128.242564.185128.295384 0 .053334.038461.096924.08564.096924.047693 0 .16.166666.249744.370256.089744.204103.196924.37077.238462.37077.041026 0 .074872.053333.074872.11846 0 .065129.083077.178462.185128.252309.102051.073333.185128.198461.185128.277948 0 .079487.08359.204103.185641.277949.101539.073333.185128.184615.185128.247692s.104103.218462.231795.346154c.12718.12718.231282.271282.231282.320513 0 .048718.125129.20718.27795.351282.15282.144102.278973.304102.279486.355384.002564.152821.551795.728718.625128.655385.037436-.037436.080513-1.26923.095385-2.737436l.02718-2.66923-.329231-.20359c-1.013846-.626667-.488718-2.195898.671282-2.007693.950256.15436 1.195897 1.235898.42923 1.892308l-.402564.345128-.010256 3.045128c-.011282 3.382052-.054359 3.13436.633333 3.672308.162565.12718.295898.282051.29641.344616.000514.06205.392821.510256.871283.995897l.870256.883077h3.43282c4 0 3.353334.202564 4.828719-1.515385.684102-.795897.925128-1.14.877436-1.250769-.428719-.99641.544615-1.86923 1.52205-1.364102 1.060514.548717.288206 2.353333-.826666 1.932307-.319487-.120513-.228205-.198461-1.509743 1.28718-1.329231 1.541025-.785641 1.373846-4.46718 1.373846-2.69077 0-3.09641.018461-3.09641.138974 0 .07641.042564.138975.094872.138975.052307 0 .271282.191282.486666.425128.215385.233846.512308.488718.66.56564.148205.077437.37077.261026.494872.408719.124103.147692.284615.268205.35641.268205s.13077.041538.13077.09282c0 .05077.058974.092308.131282.092308.072307 0 .152307.052308.177948.115898.037436.09282.048205.09282.053846 0 .006154-.089231.567693-.115898 2.479488-.115898h2.472307l1.515898-1.505128c1.370256-1.361026 1.50923-1.528205 1.445128-1.737436-.406667-1.331282.974872-2.215385 1.807692-1.156923.56359.716923-.242051 1.937949-1.099487 1.665641-.177436-.05641-.43077.157949-1.79282 1.515897l-1.585642 1.582052-2.332307.026666c-1.282564.01436-2.361026.055898-2.39641.091282-.074872.074872.174359.352308.316923.352308.052307 0 .198974.104103.326666.231282.12718.127692.286667.231795.35436.231795.067179 0 .182563.083077.255897.185128.073846.102052.182051.185641.241025.185641.058975 0 .160513.064103.226154.143077.065641.078974.289744.225641.497949.326154.455897.219487.678462.357949.92359.57282.101538.089231.239487.162052.306154.162052.067179 0 .121538.033333.121538.073846 0 .040513.187692.15077.416923.245641.22923.094359.416923.20718.416923.250256 0 .04359.08359.078975.185641.078975.101539 0 .185128.041538.185128.09282 0 .05077.062565.092308.138975.092308.07641 0 .138974.042051.138974.09282 0 .05077.083077.092821.185128.092821.102052 0 .185641.041539.185641.092308 0 .051282.07282.093846.162052.095897.08923.001539.243077.064103.34205.138975.098462.074871.254873.135897.34718.135897.092308 0 .167693.041538.167693.09282 0 .05077.083077.092308.185128.092308.102051 0 .18564.042051.18564.09282 0 .05077.104104.092821.231283.092821.127692 0 .231795.041539.231795.092308 0 .051282.083077.09282.185128.09282.102051 0 .185641.031795.185641.07077 0 .085128.686667.392307.877949.392307.074359 0 .28359.08359.465128.185641.181539.101539.412308.185128.512308.185128.100513 0 .182564.041539.182564.092821 0 .05077.104615.092308.231795.092308.12718 0 .231794.042051.231794.09282 0 .05077.125129.09282.27795.09282.15282 0 .277948.038462.277948.085642 0 .04718.22923.114872.50923.149743.280514.034872.509744.100513.509744.145641 0 .045129.104103.082052.231795.082052.12718 0 .231282.041538.231282.09282 0 .05077.14359.092308.318975.092308.175384 0 .344615.042051.375897.09282.031795.05077.156923.09282.277949.09282.121538 0 .246666.04154.277949.092309.031794.051282.198461.09282.370769.09282.172307 0 .335897.036923.36359.081539.028205.045128.364102.111282.746666.14718.383077.035896.69641.103076.69641.149743 0 .046666.229231.084615.509744.084615.28 0 .50923.042051.50923.09282 0 .05077.229744.092821.509744.092821.280513 0 .509744.041538.509744.092308 0 .053846.293333.09282.694872.09282.401538 0 .694871.038975.694871.09282 0 .055385.370257.092309.926154.092309.555898 0 .926667.037435.926667.09282 0 .059487.957436.09282 2.68718.09282 1.72923 0 2.686666-.033333 2.686666-.09282 0-.055898.384103-.09282.96718-.09282.545128 0 .992307-.040513 1.024615-.092308.031795-.051282.326154-.09282.654359-.09282.335898 0 .59641-.040514.59641-.092821 0-.052308.262564-.092308.602564-.092308.339488 0 .602052-.040513.602052-.09282 0-.05077.187692-.092821.416923-.092821.22923 0 .416923-.035897.416923-.080513 0-.044615.33282-.109743.739487-.145128.406667-.035385.76359-.10359.793333-.151282.029231-.04718.19641-.086154.371795-.086154.175385 0 .318975-.041538.318975-.09282 0-.05077.146153-.092308.324102-.092308.178462 0 .324616-.042051.324616-.09282 0-.05077.125128-.092821.277948-.092821.15282 0 .277949-.041539.277949-.092308 0-.051282.104103-.09282.231282-.09282.127692 0 .231795-.041539.231795-.09282 0-.05077.11282-.092309.250256-.092309.321026 0 1.324616-.29641 1.324616-.391282 0-.039487.104615-.072307.231794-.072307.127693 0 .231795-.041539.231795-.092308 0-.051282.125129-.09282.27795-.09282.15282 0 .277948-.041539.277948-.092821 0-.05077.083077-.092308.185128-.092308.102051 0 .185641-.042051.185641-.09282 0-.05077.08718-.09282.19436-.09282.177435 0 .626666-.164616 1.031794-.378462.088205-.046667.224103-.084616.301026-.084616.076923 0 .140512-.033846.140512-.075384 0-.041539.145641-.13282.324103-.202564.178462-.070257.324103-.161026.324103-.202564 0-.041539.062564-.075385.138461-.075385.19282 0 .881026-.306667.881026-.392308 0-.038974.083077-.070769.185128-.070769.102051 0 .185128-.034359.185128-.075385 0-.041538.146154-.13282.324616-.202564.177948-.070256.324102-.161538.324102-.202564 0-.041538.078462-.075384.173846-.075384.095898 0 .226154-.062565.289231-.138975.06359-.07641.17282-.138974.243077-.138974.070256 0 .127692-.042051.127692-.09282 0-.05077.08359-.092821.185128-.092821.102052 0 .185641-.041539.185641-.092308 0-.051282.05436-.09282.121539-.09282.066667 0 .205128-.078462.308205-.173846.102564-.095898.276923-.203078.387692-.23795.11077-.035384.201539-.103076.201539-.150256 0-.047692.054872-.086666.121538-.086666.066667 0 .21077-.083077.320513-.185128.10923-.102052.23282-.185129.274872-.185129.041538 0 .135897-.08359.209744-.18564.073333-.102052.189743-.185129.257948-.185129.134872 0 .713846-.406154.957436-.67077.082051-.089743.186667-.163076.232308-.163076.04564 0 .186666-.095898.313333-.213333.12718-.117436.31436-.246667.415897-.28718.331283-.132308-.187692-.25077-.966153-.221026-.64718.024616-.708205.044103-.81282.264103-.478462 1.000513-2.065642.675897-2.065642-.423077 0-.886667 1.01436-1.373333 1.728205-.828718.170257.129744.309744.295898.309744.368718s.093846.152308.208718.176923c.372308.078975 2.200513.104616 2.200513.03077 0-.039488.07282-.072308.16205-.073334.198975-.001538.816411-.53077.730257-.625128-.034359-.037436-.780513-.78718-1.658974-1.666154l-1.595898-1.597436-3.214871-.000513-3.21436-.000513-.121025.254872c-.467692.985641-2.02.55077-2.02-.566666 0-1.071282 1.762051-1.35282 2.085641-.33282.055898.175384.16359.181538 3.364615.181538h3.30718l1.665641 1.667692c.977949.978974 1.737436 1.667692 1.84 1.667692.154872 0 3.302051-3.042051 3.302051-3.192308 0-.057435.162564-.24718.71795-.83641.16564-.175897.301025-.344102.301025-.373333 0-.029744.093846-.153846.208718-.27641.316923-.339488.44-.49641.44-.561539 0-.03282.125128-.17641.277948-.318974.15282-.143077.27795-.307692.27795-.365641 0-.058462.104102-.218462.231794-.355898.12718-.136923.231795-.29282.231795-.34564 0-.053334.083077-.156411.185128-.230257.102051-.073333.185128-.203077.185128-.288205 0-.085129.057949-.177436.128718-.204616.14923-.056923.43282-.582564.355385-.659487-.165641-.166154-15.29641-.04923-15.349744.118462-.212308.668718-1.242051.85641-1.726154.314359-.63282-.708205-.171282-1.782052.766154-1.782052.368718 0 1.001539.445129 1.001539.704616 0 .108205.535897.12923 3.28923.12923 1.809231 0 3.289231-.024102 3.289231-.053846 0-.030256-.758461-.843077-1.685128-1.806666l-1.685128-1.75282h-5.899487l-.088206.231794c-.38564 1.01436-2.038461.647692-2.038461-.45282 0-1.110257 1.414872-1.472308 1.985128-.507693l.15641.265641h6.040513l2.001026 2.041026 2.000513 2.041026 4.214359.001025c3.36.000513 4.222564-.02359 4.25282-.118461.021026-.066154.069744-.140513.107692-.166154.093334-.062564.551282-.93077.551282-1.045128 0-.050257.07641-.158462.169231-.241026.09282-.082564.228205-.285128.300513-.45077.072308-.16564.163077-.301025.201539-.301025.038461 0 .070256-.075384.070256-.167692s.061026-.248718.135897-.347692c.074872-.098975.137436-.252821.138975-.342052.001538-.088718.044615-.162051.095384-.162051.051282 0 .09282-.08.09282-.177436 0-.097949.033334-.191282.07436-.208718.117436-.048718.759487-1.444102.759487-1.65077 0-.102563.041539-.186666.09282-.186666.05077 0 .092308-.083077.092308-.185128 0-.102051.042052-.185128.09282-.185128.05077 0 .092821-.104616.092821-.231795 0-.127692.041539-.231795.092308-.231795.051282 0 .09282-.083077.09282-.185128 0-.102051.036924-.185641.082052-.185641s.105128-.11436.13282-.25436c.122564-.61641.285641-1.135384.35641-1.135384.042565 0 .077437-.104102.077437-.231282 0-.127692.041538-.231795.092307-.231795.051282 0 .09282-.125128.09282-.277948 0-.15282.04154-.27795.092821-.27795.05077 0 .092308-.14564.092308-.324102 0-.178461.037436-.324615.082564-.324615.045641 0 .10718-.135385.136923-.301026.030257-.16564.105641-.582564.168205-.926154.062564-.344102.14718-.62564.18718-.62564.040513 0 .073846-.14359.073846-.318975s.041538-.344615.09282-.375897c.05077-.031282.092308-.242565.092308-.468718 0-.226154.042051-.411282.09282-.411282.05077 0 .092821-.185129.092821-.411795 0-.226154.041538-.436923.092308-.468718.051282-.031282.09282-.29641.09282-.589231 0-.292308.042051-.573846.093334-.625128.051794-.051282.120512-.747692.153846-1.54718.03282-.799487.094871-1.453846.137949-1.453846.043076 0 .077948-1.25077.077948-2.779487 0-1.528718-.035384-2.779487-.078461-2.779487-.043077 0-.10718-.67282-.142052-1.494872-.035384-.822051-.104102-1.569744-.153333-1.661538-.04923-.091795-.08923-.37795-.08923-.63641 0-.25795-.04154-.469231-.092821-.469231-.05077 0-.092308-.206154-.092308-.45795 0-.251794-.042051-.483589-.09282-.514871-.05077-.031282-.092821-.200513-.092821-.375897 0-.175385-.041538-.318975-.092308-.318975-.051282 0-.09282-.187692-.09282-.416923 0-.22923-.041539-.416923-.09282-.416923-.05077 0-.092308-.086154-.092308-.191282 0-.139487-.044616-.178462-.162565-.14359-.494871.14718-.674359.15077-.984615.021026-.186667-.077949-.411795-.268205-.499487-.423077l-.16-.281026-3.358974-.000512-3.358462-.000513v13.15641h6.76359v.463077h-6.763589v11.139487l.34923-.311795c.191795-.171795.921538-.82718 1.621026-1.457436l1.27282-1.145128v-2.116923c0-1.58-.029744-2.141538-.115897-2.214359-.064103-.053333-.229231-.182051-.367693-.285641-.799487-.598974-.293846-1.847692.748205-1.847692.65282 0 1.221539.851282.93641 1.403077-.15846.306666-.471281.634871-.605128.634871-.20205 0-.22564.261539-.22564 2.495898v2.202564l-.261026.222051c-.144103.122052-.85282.760513-1.575385 1.418975L70.47436 54.29282v3.2l.265641.156924c.980513.579487.601539 1.984615-.535385 1.984615-1.086666 0-1.414871-1.419487-.458461-1.984615l.265128-.156923v-2.536924l-12.53077.021539c-6.892307.011795-12.625127.04359-12.739486.071282l-.208718.04923v5.272821l.264102.136923c.942051.486667.621539 1.998975-.423077 1.998975-1.144615 0-1.537436-1.496923-.535897-2.041539l.277949-.150769.024615-2.607692.024615-2.607693-.209743-.048205c-.115385-.026666-.54359-.058974-.951282-.071795l-.741026-.023077-.024102-4.28718-.024103-4.286666-2.060513.024616-2.060513.025128-.024102 4.238974-.024103 4.238462h-5.093846v3.074359l-1.296923 1.682564-1.29641 1.682564-.000513 3.404615c-.000513 1.87282.03282 3.405129.073333 3.405129.040513 0 .38359-.344103.762051-.764616.378462-.420513.97795-1.066666 1.331795-1.435897l.643077-.671795h6.049231l.15282-.32c.491283-1.03077 1.966154-.686154 1.966154.458974 0 1.07641-1.484615 1.503077-1.917948.551282l-.10359-.22718h-5.979487l-.86359.931796c-.474872.512307-1.14359 1.231794-1.486154 1.598461l-.622051.666154L30.36 72.257949l-.003077 3.312307h-.463077V61.232821l1.296923-1.69436 1.296923-1.693846v-2.923077l-.254359-.02923-.254872-.029231-.025128-1.841538c-.024102-1.734872-.037436-1.858462-.231794-2.13077-.285129-.4-.284103-1.10718.00205-1.508205.275385-.386667.33436-6.382564.06359-6.486667-.506666-.194358-1.257435.097436-1.63641.635898l-.370769.527692.195897.404616c.456923.944102-.069743 1.92-1.03641 1.921025-1.691282.001539-1.711282-2.314359-.022051-2.497948.421026-.045642.48923-.088718.809743-.512821l.349744-.463077-3.913333-.04923c-2.152308-.026667-3.924616-.05795-3.937949-.069232-.013333-.011281-.013333-1.344615 0-2.962564l.024615-2.941538 7.896923-.02359 7.896924-.02359.024615 2.710257.024615 2.71077.926667.02564.926154.025641 1.062051-1.066154c.984103-.987692 1.064616-1.094872 1.092308-1.461538.016923-.217949.06-2.29282.09641-4.611282l.065641-4.215898 2.709744-.024615 2.710256-.024103v-4.045641l-1.088718-.058461c-.598461-.031795-2.25641-.086667-3.68359-.121026l-2.594871-.062564-.495385-.727692c-.357436-.525641-.562564-.741539-.74-.777949-.678974-.139487-.810256-.204103-1.008205-.497949-.474872-.704615-.07282-1.536923.79282-1.642564.816924-.099487 1.47436.957949.991795 1.595385-.220513.291282-.127692.517949.577436 1.411282.19641.248718.441026.266667 4.677436.337949l2.571282.043077v-.671795c0-.961026-.263077-.89436 3.539487-.89436 1.93641 0 3.31641-.035384 3.31641-.084615 0-.046666-.29641-.401025-.658461-.787692l-.658974-.702564h-5.747693l-.4.42923c-.715897.769232-1.799487.364616-1.799487-.671794 0-1.133846 1.600513-1.462564 2.033846-.416923l.119487.288718h6.064103l.906154.977436.906154.976923.474359-.027693.474871-.02718.024616-2.933332.024102-2.932821-.221538-.26359c-.209744-.249743-.719487-.907692-1.86718-2.410769l-.508205-.664615V8.913333l-.37282-.326666c-.873334-.764616-.407692-2.060513.688718-1.916923 1.033333.135384 1.270256 1.45641.362051 2.017948l-.30718.189231.00154 3.166154c.001025 2.338461.031281 3.218974.115897 3.36923.062564.112308.427179.610257.80923 1.10718.382052.496923.93436 1.217949 1.22718 1.603077l.532308.699487.000512 2.987693.000513 2.988205h3.991282l.352308-.37077c.513333-.539487 1.083077-.539487 1.59641 0l.35282.37077h1.068719c1.19282 0 1.196923-.002564.74359-.481539-.296924-.31282-.347693-.333846-.598975-.246666-.979487.341538-1.773846-1.034872-1.028205-1.780513.76564-.765128 2.114359.084615 1.757949 1.107692-.09641.275897-.078975.32.291282.731282.636923.708205.488205.669744 2.589743.669744 2.2 0 2.131795-.025641 2.131795.80718v.584615l3.358462-.024103 3.358974-.024103.071282-.602564c.068205-.578461-.049744-1.296923-.213846-1.296923-.03641 0-.091282-.125128-.121539-.277436-.030769-.15282-.14-.452307-.243077-.666154-.10359-.213333-.187692-.443076-.187692-.509743 0-.06718-.034359-.121538-.075384-.121538-.041539 0-.132821-.146154-.202565-.324616-.070256-.178461-.161538-.324102-.202564-.324102-.041538 0-.075384-.058462-.075384-.129744 0-.07077-.14718-.414872-.326667-.764103l-.326667-.634871-3.653333.026153c-3.49641.025129-3.662051.018462-3.865641-.15282-.824615-.69436-1.153846-.96718-1.854359-1.538462l-.792308-.64564-.621025-.002565c-.942564-.004615-1.439487-.867692-.92359-1.604102.674872-.963077 2.211282-.24718 1.898974.884615-.051794.18718-.06359.36923-.026666.404103.037436.035384.651795.54718 1.365128 1.137948l1.296923 1.073846h3.405128c3.688718 0 3.55282.021539 3.213846-.509743-.097948-.15282-.206666-.340513-.241538-.416923-.035385-.07641-.14-.206154-.23282-.288718-.092821-.082564-.168719-.217949-.168719-.301026 0-.083077-.041538-.151282-.092307-.151282-.051282 0-.09282-.04-.09282-.088718 0-.085128-.360514-.671795-.554873-.90359-.051282-.061538-.093846-.14-.093846-.174359 0-.034358-.076923-.129743-.170769-.212307s-.275385-.31641-.403077-.520513l-.232308-.37077-1.212307.028206-1.211795.028718-.191282.32359c-.475898.806666-1.633846.71282-1.92-.154872-.41282-1.251795 1.361025-1.985641 1.96718-.813846l.145128.280513.958461-.031283c1.057949-.034871 1.192308-.086153.895897-.342564-.110256-.095897-.2-.219487-.2-.275897 0-.055898-.146153-.247692-.324615-.426154-.177949-.177949-.324103-.355385-.324103-.393333 0-.037949-.08205-.15436-.18205-.257949-.1-.10359-.412821-.42718-.694873-.719487-.28205-.291795-.51282-.553334-.51282-.581539 0-.027692-.122051-.185128-.271282-.34923l-.271795-.298462-1.861026.026667-1.861025.02718-.206667.315897c-.586667.89641-2.013846.515897-2.013846-.536923 0-1.124103 1.768718-1.421026 2.142564-.359488.022564.062564.624615.108718 1.670256.12718 1.431282.025128 1.626154.011282 1.560513-.110257-.08-.147692-.991282-1.018974-1.06564-1.018974-.024103 0-.320514-.271282-.658462-.602564-.337436-.331282-.650257-.602051-.694872-.602051-.044615 0-.271282-.187693-.504103-.416923-.232307-.229231-.46359-.416923-.513846-.416923-.05077 0-.186667-.093847-.302564-.208718-.115897-.11436-.326667-.291795-.46923-.393334-.142052-.102051-.313334-.237436-.380514-.301538-.06718-.06359-.177436-.115385-.24564-.115385-.067693 0-.175385-.08359-.238975-.18564-.06359-.10154-.177949-.185129-.253846-.185129-.075898 0-.137949-.036923-.137949-.082051 0-.045129-.135897-.15077-.301538-.23436-.449231-.227179-.652308-.361025-.82-.540512-.083077-.08923-.2-.162051-.26-.162051s-.2-.085129-.311795-.189231c-.111282-.10359-.307693-.214872-.435898-.246154-.128718-.031795-.295897-.12718-.372307-.212308-.07641-.084615-.274872-.213333-.440513-.28564-.165641-.072308-.301026-.162565-.301026-.20154 0-.03846-.083077-.069743-.185128-.069743-.102051 0-.185128-.037436-.185128-.082564 0-.04564-.104616-.108718-.231795-.141026-.127692-.031794-.231795-.098974-.231795-.148717 0-.050257-.083077-.09077-.185128-.09077-.102051 0-.185128-.042051-.185128-.09282 0-.051282-.08359-.09282-.185641-.09282-.102052 0-.185641-.031283-.186154-.069231-.000513-.09436-.458974-.301026-.666154-.301026-.091795 0-.166667-.04-.166667-.088718 0-.048718-.146154-.115898-.324102-.14923-.178462-.033334-.324616-.09795-.324616-.143078 0-.04564-.083077-.082564-.185128-.082564-.102051 0-.18564-.031282-.186154-.06923-.001025-.09436-.458974-.30154-.666154-.30154-.091794 0-.166666-.041538-.166666-.092307 0-.051282-.081026-.09282-.18-.09282-.098975 0-.204103-.038975-.233846-.08718-.029744-.048205-.240513-.115384-.468718-.149743-.228205-.033847-.414872-.098975-.414872-.144103 0-.045128-.081026-.082051-.18-.082051-.098462 0-.205128-.041539-.236923-.09282-.031282-.05077-.158974-.092821-.28359-.092821-.124102 0-.226154-.041539-.226154-.092308 0-.051282-.101538-.09282-.226154-.09282-.124102 0-.251795-.041539-.283076-.092821-.031795-.05077-.172821-.092308-.31436-.092308-.141538 0-.288205-.031282-.326666-.069743-.083077-.083077-.890257-.297436-1.37436-.364616-.190768-.026666-.347179-.08564-.347179-.131282 0-.04564-.14359-.083077-.318974-.083077-.175385 0-.344615-.041538-.375897-.09282-.031795-.05077-.219488-.092308-.416923-.092308-.19795 0-.385641-.042051-.416924-.09282-.031794-.05077-.242564-.09282-.468717-.09282-.226667 0-.411795-.035898-.411795-.079488 0-.044103-.239488-.104615-.532308-.135385-.293333-.030769-.804103-.097948-1.135385-.150256-.331282-.051795-.839487-.094872-1.12923-.095897-.290257-.001026-.553334-.04359-.584616-.094872-.033846-.05436-.572308-.092308-1.302564-.092308-.768718 0-1.245128-.035385-1.245128-.09282C41.660513.094359 41.042564.06 39.99282.06c-1.050256 0-1.667692.034359-1.667692.09282m-8.153333 1.204616c0 .05077-.114872.092308-.254872.091795-.324615-.001026-1.542051.302564-1.583077.394359-.016923.038461-.152308.069743-.301026.069743-.148717 0-.270256.041539-.270256.092308 0 .051282-.101538.09282-.226154.09282-.124102 0-.251795.041539-.283077.092821-.031795.05077-.158974.092308-.28359.092308-.124615 0-.226153.042051-.226153.09282 0 .051282-.101539.09282-.226154.09282-.124616 0-.251795.04154-.28359.092308-.031282.051283-.148718.093334-.26.093334-.111795.000513-.322564.063077-.468718.138974-.14564.07641-.34359.138462-.44.138462-.095897 0-.174359.041538-.174359.09282 0 .05077-.08359.092308-.18564.092308-.10154 0-.185129.042051-.185129.09282 0 .051282-.104103.09282-.231795.09282-.12718 0-.231282.04154-.231282.092309 0 .051282-.08359.09282-.18564.09282-.102052 0-.18513.036923-.18513.082564 0 .045128-.146153.109744-.324102.143077-.178461.033333-.324615.100513-.324615.14923 0 .048719-.083077.088719-.185128.088719-.102052 0-.185129.041538-.185129.092308 0 .051282-.08359.09282-.18564.09282-.102052 0-.185129.041539-.185129.09282 0 .05077-.062564.092308-.138974.092308-.07641 0-.138974.041539-.138974.09282 0 .05077-.08359.092821-.185129.092821-.10205 0-.18564.041539-.18564.092308 0 .051282-.085642.09282-.19077.09282-.104615 0-.165128.041539-.133333.092821.031282.05077.13282.092308.225128.092308.093846 0 .864615.695384 1.745128 1.575384l1.577436 1.574872h.482051c1.007693 0 1.489744 1.03077.802564 1.717949-.92718.92718-2.189743-.021026-1.68564-1.26718.083076-.20564-2.93641-3.229743-3.226154-3.231282-.109231-.000513-.344616-.024615-.522564-.053846-.249744-.04-.371795-.007692-.529231.14-.112308.106154-.247693.19282-.301026.19282-.05282 0-.09641.04154-.09641.092821 0 .05077-.078462.092308-.173846.092308-.095898 0-.226154.062564-.289744.138974-.063077.07641-.172308.138975-.242564.138975-.070256 0-.127692.04205-.127692.09282s-.054872.09282-.121539.09282c-.066666 0-.211282.083078-.320513.185129-.10923.102051-.24205.185128-.295384.185128-.053334 0-.09641.035385-.09641.078462 0 .04359-.166667.153846-.37077.246153-.20359.091795-.370769.202052-.370769.245641 0 .043077-.062564.078462-.138974.078462-.213846 0-.164103.156923.069743.219487.114872.03077.858462.05641 1.652308.056923l1.444102.001539.640513.758974c.352308.417436.866667 1.011795 1.142564 1.320513.275898.308718.508718.571795.517436.584615.008718.01282.146667-.022051.306667-.077436.906154-.315897 1.661026.781539 1.133333 1.64718-.657948 1.078461-2.337948.079487-1.82359-1.084615.059488-.133847-1.88564-2.528206-2.193846-2.701026-.334359-.186667-3.779487-.1-3.993333.100513-.112308.10564-.237436.192307-.277436.192307-.04 0-.18923.125129-.332308.27795-.142564.15282-.297948.277948-.344615.277948-.04718 0-.281026.187692-.520513.416923-.239487.22923-.454872.416923-.478974.416923-.09077 0-.582051.461538-2.121538 1.99282l-1.58359 1.575898.029743 1.871282c.028206 1.73641.042564 1.875384.204616 1.926667.687692.218461.88 1.303077.317948 1.79641-.741025.65077-1.704102.204615-1.708718-.791795-.00205-.465641.411795-1.051795.742565-1.051795.09641 0 .129743-2.986154.033846-3.082051-.077436-.077436-.314872.025128-.314872.13641 0 .050257-.114872.202564-.255385.337436-.14.135385-.377948.412308-.527692.61641-.150256.20359-.348205.437949-.44.520513-.091795.082051-.166667.197436-.166667.255385 0 .058461-.125128.236923-.277948.396923-.153334.159487-.27795.324102-.27795.365128 0 .041026-.104614.178974-.231794.306667-.127692.12718-.231795.274871-.231795.328205 0 .053333-.034359.096923-.076923.096923-.042051 0-.135897.114872-.208205.254872-.072308.14-.18359.309743-.247692.377436-.19795.20923-.131282.364615.347692.81282l.463077.433333v3.397949l.272308.141026c.974359.50359.639487 1.994872-.447693 1.994872-1.16564 0-1.490769-1.32718-.49641-2.025129l.301538-.211282v-1.42564c0-1.556924-.037435-1.708719-.518974-2.113847-.32923-.276923-.59282-.204102-.59282.16359 0 .08-.036923.14564-.082052.14564-.044615 0-.197436.229232-.338974.509744-.142051.28-.29282.509231-.335385.509231-.042564 0-.077436.062564-.077436.138975 0 .076923-.04205.138974-.09282.138974s-.09282.08359-.09282.18564c0 .102052-.041539.18513-.092308.18513-.051282 0-.09282.08-.09282.177435 0 .097949-.031283.191795-.069744.208718-.094872.042051-.393334.700513-.393334.867692 0 .074872-.042051.135898-.09282.135898-.051282 0-.09282.062564-.09282.138974 0 .07641-.04154.138974-.092308.138974-.051282 0-.09282.08359-.09282.185641 0 .101539-.04154.185129-.092821.185129-.05077 0-.092308.083077-.092308.185128 0 .102051-.038462.18564-.085641.18564-.046667 0-.112308.124616-.146154.276411-.033333.152308-.098974.301026-.146154.329744-.04718.02923-.08564.154872-.08564.279487 0 .124102-.04154.226154-.092821.226154-.05077 0-.092308.083077-.092308.185128 0 .102051-.041539.185128-.09282.185128-.05077 0-.092821.125128-.092821.277949 0 .15282-.03282.277949-.073846.277949-.066667 0-.29641.52564-.29641.678461 0 .03436 2.167692.063077 4.816923.063077h4.81641l1.275384-1.311282c.701026-.721026 1.592308-1.638462 1.980513-2.038462l.705128-.727179h5.978974l.388206-.416923c.813333-.873333 2.253846-.095897 1.809743.97641-.347692.838975-1.188717.988205-1.809743.321026l-.388205-.416923H19.41282l-2.90718.000513-1.667692 1.724615c-.917436.948205-1.681539 1.761026-1.698462 1.806154-.085128.225128 3.581026.08923 4.271282-.158462.83641-.300512 1.383077-.454359 2.47641-.695897 1.070257-.23641 3.793847-.350257 8.501026-.355385l4.841026-.00564v-2.884103c0-3.366667.18359-2.770257-1.522051-4.944616l-1.162565-1.482564-.001538-7.064615c-.001026-7.002564-.002564-7.064616-.186154-7.064616-.102051 0-.185128.041539-.185128.09282m4.662564 2.349744c.477436.199488.651795.545642.58718 1.164616l-.05436.52.955385.941026.955385.941025 4.477436.098975c2.463076.054871 4.635384.099487 4.82718.099487.332307 0 .376922.037948.89282.764102.493333.695385.575897.769231.907692.815898.997436.140513 1.382051 1.088205.733846 1.806666-.79641.882052-2.231795-.13641-1.710256-1.213846l.203077-.418974-.46359-.668205-.463077-.668718-2.62718-.056923c-1.445128-.031282-3.600512-.062564-4.789743-.069231l-2.162564-.01282-1.053334-1.052308-1.05282-1.052308-.453846.04359c-.53641.051795-.79436-.064616-1.041026-.469744-.55077-.903077.348205-1.923077 1.331795-1.512308M20.511795 14.21282c2.22359 1.853334 2.120513 1.784616 2.57282 1.722565 1.347693-.184616 1.795898 1.631795.498462 2.020512-.84923.25436-1.633846-.673846-1.264615-1.49641.045128-.100513-.284616-.421538-1.189744-1.158461-.688205-.560513-1.308718-1.07077-1.377949-1.133847-.095384-.086666-1.124102-.120512-4.233333-.138974l-4.107692-.024102-.029231-.208206-.029744-.208718h8.41077l.750256.625641m-6.146154 2.931795c.169744.07077.42359.279488.56359.463077l.254872.333846h2.470256l.257949-.337948c.703077-.921539 1.974871-.584616 1.974871.52359 0 1.114359-1.479487 1.453846-1.994871.457435l-.140513-.272307h-2.521026l-.388205.416923c-.338974.364102-.43641.416923-.771282.416923-1.46 0-1.54-1.93641-.08718-2.121539.039488-.005128.211283.048718.381539.12M2.585128 26.52718c-.064102.025641-.115897.168206-.115897.316924s-.041539.270256-.09282.270256c-.05077 0-.092821.104102-.092821.231282 0 .127692-.041539.231795-.092308.231795-.051282 0-.09282.125128-.09282.277949 0 .15282-.041539.277948-.092821.277948-.05077 0-.092308.101539-.092308.226154 0 .124616-.037436.24923-.083077.277436-.04564.028205-.106666.207692-.135897.398974-.145641.950257-.289744 1.598975-.355897 1.598975-.040513 0-.073847.163077-.073847.363077 0 .203077-.050769.38359-.115897.409743-.337949.136923.269744.24359 1.397436.245128l1.234872.001026 2.03282 1.96923c2.038975 1.97436 2.422564 2.25436 2.545641 1.858975.029231-.092307.091282-.240513.138462-.32923.047692-.088206.086154-.244616.086154-.34718 0-.103077.041538-.186667.09282-.186667.05077 0 .092308-.084102.092308-.186666s.039487-.258975.08718-.347693c.047692-.088205.241025-.494359.429743-.90205.188718-.407693.378974-.754873.422564-.771796.044103-.016923.08-.068718.08-.114872 0-.09282.792308-1.35282.959487-1.526153.058462-.06.23077-.268718.38359-.46359.833846-1.06359 2.489743-2.548205 3.458974-3.101539.664616-.379487 1.12718-.667692 1.12718-.701538 0-.054872-12.99641-.031282-13.13282.024102m67.426153 1.235385v1.111795h3.382051c2.862564 0 3.381539-.02 3.381539-.131795 0-.241538.551282-.702051.841025-.702051.247693 0 .27077-.027693.27077-.324103 0-.178461-.041539-.324102-.09282-.324102-.05077 0-.092309-.104616-.092309-.231795 0-.12718-.04205-.231795-.09282-.231795s-.09282-.062564-.09282-.138974c0-.121026-.478462-.138975-3.752308-.138975h-3.752308v1.111795m-47.853846 3.126154c-.425128.062051-.535385.198462-.482051.596923.135897 1.011795 1.547692.919487 1.547692-.101538 0-.541026-.180513-.625129-1.065641-.495385m26.451795 9.057949v8.107692l7.434872-.02359 7.435384-.024102V43.00359l-3.011282-.019487-3.01077-.019488-.39641.483077c-.217435.265128-.544615.649231-.727179.853334-.739487.827692-.864102 1.050769-.757949 1.354871.387693 1.111795-.764615 2.122052-1.774358 1.554872-1.303078-.73282-.47641-2.715897.953846-2.28718.348205.104103.373333.096924.606154-.171794.133333-.153846.62923-.724615 1.10205-1.267692l.86-.987693 3.07795-.024102 3.077948-.024616.02718-.88c.014871-.484102.00359-.973846-.025129-1.088718l-.051794-.208205h-7.165641l-1.483077 1.474872c-1.437436 1.429744-1.479487 1.482564-1.372308 1.718462.713846 1.566666-1.478974 2.680512-2.23641 1.135897-.452308-.922564.457948-2.011282 1.444615-1.728205.295385.084615.315385.068718 1.82923-1.443077L55.976924 39.9h3.717949c3.305128 0 3.724615-.01641 3.774872-.146667.030769-.080512.055897-1.894359.055897-4.030256v-3.88359H56.77077l-.02718.625128c-.024615.55436-.048717.625641-.21282.625641-.164615 0-.188718-.071282-.21282-.62564l-.02718-.625129h-7.681538v8.10718M.99846 32.183077c-.057435.061538-.104615.322051-.104615.578974s-.03641.46718-.081538.46718c-.045129 0-.107693.260513-.138975.578974-.031282.318462-.095384.933333-.142564 1.366667-.046666.43282-.088718 1.277436-.09282 1.875897-.004616.680513-.043077 1.088718-.102564 1.088718-.062052 0-.086154.415898-.069231 1.181539l.02564 1.181025 1.34359.017949c.738975.00923 1.812308.02 2.385642.023077.978461.005128 1.042564.016923 1.042564.19077 0 .170256-.062052.185127-.772308.185127-.424615 0-.801538.029231-.837436.065129-.035897.035897.822051.953333 1.906154 2.038461l1.971795 1.973333h.626154c.606154 0 .877436-.204615.544102-.410256-.045128-.028205-.104615-.166154-.132307-.306667-.027693-.141025-.11641-.52718-.19641-.858461-.445642-1.839487-.506667-5.452308-.113334-6.67077.187692-.580512.157436-.741025-.139487-.741025-.24923 0-.558462-.261539-2.293334-1.93641L3.62154 32.13641l-1.259488-.03282c-.901538-.023077-1.288718-.001026-1.36359.079487m40.154872 9.56718l-1.01282 1.015897-1.02359.026154-1.02359.026153v3.057436l2.061539.025129 2.061538.024615v-2.595897c0-1.427693-.011282-2.595898-.025128-2.595898-.013333 0-.480513.457436-1.037949 1.01641M.245641 41.24359c0 .177948.041538.324102.092308.324102.05641 0 .095384.444616.099487 1.134872.00359.624103.045128 1.468718.09282 1.87641.04718.407693.111282.991282.142565 1.296923.030769.305642.093333.595385.138461.644103.045641.048205.082564.288205.082564.532308 0 .244615.042051.445128.09282.445128.05077 0 .092821.187692.092821.416923 0 .22923.041539.416923.092308.416923.051282 0 .09282.187692.09282.416923 0 .22923.041539.416923.09282.416923.05077 0 .092309.098975.092309.22 0 .121026.024102.34.053333.486154l.053333.266667 5.014872-.026154c2.757949-.014872 5.031282-.043077 5.051282-.063077.02-.02-.178974-.3-.442564-.622564-.666667-.813846-.659487-.804615-1.02-1.368718-.45641-.714872-.608205-.988205-.93077-1.671795-.15641-.331282-.330768-.69641-.387692-.81077-.095897-.193333-.164615-.208717-.94564-.208717h-.842052l-2.222051-2.22359-2.222051-2.22359H.24564v.324616m51.731795 2.08359c-.786154.317435-.514872 1.575897.339487 1.575897.849744 0 1.080513-1.013846.335897-1.47436-.344102-.212307-.385128-.21846-.675384-.101537m-23.652308 1.264102c-.428718.545641-.08718 1.33077.578975 1.33077.86923 0 1.12564-1.029232.36359-1.458975-.345642-.195385-.729232-.143077-.942565.128205m25.684616.83077c-.425129.21282-.56718.675897-.33077 1.08.431795.739486 1.508206.456922 1.508206-.395898 0-.604615-.618462-.96359-1.177436-.684103m-40.237436 6.586154c0 .031282.46718.530257 1.037436 1.108718l1.036923 1.051282 1.16359-.008205c.71846-.004615 1.074358-.035897.931282-.081538-.87795-.278975-2.246154-.926154-3.081539-1.457436-.344103-.218975-.66718-.398462-.717949-.398462-.050256 0-.091795-.037436-.091795-.083077 0-.045128-.062564-.106667-.138974-.135897-.07641-.029231-.138974-.02718-.138974.004615m8.431282 2.952308c0 .157436.648718.309743.918461.215384.458975-.159487.332308-.266666-.315897-.266666-.331282 0-.602564.023077-.602564.051282m-8.070257 2.777949c.158462.18.287693.367692.287693.416923 0 .053333.54205.08923 1.34359.08923.803076 0 1.343076-.035897 1.343076-.08923 0-.049231.147693-.236924.327693-.416924.71641-.716923 1.80359-.267179 1.80359.746154 0 1.04-1.268719 1.390257-1.899488.524103l-.277948-.382051-1.245642-.005641-1.24564-.005641-.376924.428205c-.58205.661538-1.424102.6-1.770256-.129744-.522564-1.100513.91077-2.086154 1.710256-1.175384m9.187693 1.069743c.829743.578975.318974 1.88-.724103 1.844103-.670256-.023077-.697949-.015898-.995385.257948-.512307.471283-2.318974 1.937436-2.521025 2.045129-.212308.113846-7.93077.161538-8.218974.050769-.080513-.03077-.146667-.134872-.146667-.231282 0-.169744.136923-.175385 3.977949-.175385 4.319487 0 4.192307.014872 4.878974-.57077.258974-.221025.853846-.714358 1.321538-1.095384.606667-.494871.83282-.733846.789231-.833846-.459487-1.057436.68359-1.957949 1.638462-1.291282m25.126153 6.939487c.623077.691282.165129 1.762052-.753846 1.762052-.239487 0-.344615.097436-.798461.741538-.688205.97641-.215898.894359-5.504616.953846l-4.671282.052308-.995384.99282-.995898.99282.05077.493334c.094871.91641-.644616 1.465128-1.49436 1.110257-1.085128-.453334-.597948-2.081026.59077-1.975385l.512307.045641 1.065641-1.043077 1.065129-1.043077 4.669743-.066154c5.382564-.076923 4.795898.009744 5.341026-.788205l.42923-.628718-.156922-.30359c-.59282-1.147179.794871-2.240512 1.646153-1.29641" fill="#1666AE"/>
    <path d="M30.543077 8.32923l.001538 7.064616 1.162564 1.482564c1.705642 2.17436 1.522052 1.577949 1.522052 4.944616v2.884102l-4.841026.005641c-4.70718.005128-7.43077.118975-8.501026.355385-1.093333.241538-1.64.395384-2.47641.695897-.690256.247693-4.35641.38359-4.271282.158462.016923-.045128.781026-.857949 1.698462-1.806154l1.667692-1.724615 2.90718-.000513h2.907692l.388205.416923c.813333.873333 2.253846.095897 1.809743-.976923-.347692-.838975-1.188717-.987693-1.809743-.320513l-.388205.416923h-5.978975l-.705128.72718c-.388205.4-1.279487 1.317435-1.980513 2.038461l-1.275384 1.311282H7.567179c-5.172307 0-5.005128-.014872-5.00564.433846 0 .041539 1.886666.064103 4.19282.05077 2.305641-.013847 5.27641-.013847 6.601026 0l2.40923.024615-.46359.275897c-.254358.151282-.574358.338975-.710256.416923-.96923.553334-2.625128 2.03795-3.458974 3.101539-.15282.194872-.325128.40359-.38359.46359-.16718.173333-.959487 1.433333-.959487 1.526153 0 .046154-.035897.09795-.08.114872-.04359.016923-.233846.364103-.422564.771795s-.382051.813846-.429744.902051c-.047692.088718-.08718.245129-.08718.347693 0 .102564-.041538.186666-.092307.186666-.051282 0-.09282.08359-.09282.186667 0 .102564-.038462.258974-.086154.34718-.04718.088717-.109231.236923-.138462.32923-.123077.395385-.506666.115385-2.537949-1.852307l-2.02564-1.961539-1.358462-.030256c-1.33436-.029744-1.358462-.026667-1.357949.16718 0 .26564.205641.30923 1.469744.310768l1.052307.001539 2.015385 1.94564c1.744103 1.683078 2.05436 1.945642 2.30359 1.945642.296923 0 .32718.160513.139487.741026-.393333 1.218461-.332308 4.831282.113333 6.670769.08.331282.168718.717436.19641.858461.027693.140513.08718.278462.132308.306667.333334.205641.062052.410256-.544102.410256h-.626154L5.36 43.022564C4.275897 41.937436 3.417949 41.02 3.453846 40.984103c.035898-.035898.41282-.065129.837436-.065129.710256 0 .772308-.014871.772308-.185128 0-.174359-.06359-.18564-1.042564-.189743-.573334-.002564-1.657436-.013334-2.408718-.02359C.251282 40.50205.24564 40.503077.24564 40.710769c0 .205128.017949.208205 1.182051.208205h1.182052l2.22205 2.22359 2.222052 2.22359h.842051c.781026 0 .849744.015384.945641.208718.056924.114359.231283.479487.387693.810769.322564.68359.474359.956923.930769 1.671795.359487.563077.354359.555897 1.01077 1.358461.258974.315898.470769.597436.470769.625129 0 .027692-2.178462.051282-4.841026.051794-5.171282.001539-5.308718.008718-5.16.286667.090256.168718.286154.175385 5.083077.175385h4.98923l1.979488 2.02564 1.979487 2.025642 2.82564.04c1.676411.02359 2.581027.00923 2.224104-.035385-.845642-.10564-2.033334-.353333-2.363077-.493333-.152821-.064615-.673847-.27641-1.15795-.470256-2.448204-.981026-4.57282-2.551795-6.141025-4.541539-1.03641-1.314872-2.062051-3.225128-2.429743-4.526667-.086667-.306154-.19077-.660513-.231795-.787692-1.35077-4.212308-.131282-9.877949 2.908718-13.512308 1.461538-1.74718 4.057436-3.66359 5.708718-4.213333.22923-.07641.642564-.228205.918461-.337436.538975-.213333 1.195385-.384102 2.370257-.617949.775897-.153846 10.20205-.300512 15.40359-.239487l2.246666.026154v5.721539l-7.944615.043076c-5.715898.031282-8.062052.07436-8.362052.153334-.22923.060513-.604615.150769-.833846.2-.41077.088718-1.493333.46-1.94564.667692-2.811796 1.290256-5.004103 4.87436-4.998462 8.171282.00205 1.021539.039487 1.284616.357948 2.501539.098462.373846.469231 1.242564.653334 1.528718.08205.12718.208205.35641.281025.50923.813846 1.71282 2.804103 3.380513 4.865128 4.075385 1.245129.419487 1.52359.444615 5.65077.502051l3.984102.055385v5.744102L25.574871 54.76c-3.897948-.010256-4.08-.003077-3.937435.15282.082051.089744.24.26359.350256.386154.472308.524103 1.282564.48718 1.82-.082564l.28718-.304615 2.829743-.024103 2.830257-.024615v-5.929744l-3.891282-.05641c-4.339487-.06359-4.877436-.12564-6.41641-.740513-1.57795-.630256-3.358462-2.154359-3.358462-2.873846 0-.531282-.316923-1.058974-.736923-1.22718-.898974-.359487-1.66923-3.60359-1.293333-5.448717.611794-3.006154 2.234871-5.33436 4.670769-6.701539.40564-.227692.584615-.265128 1.435897-.300513l.973333-.040512.185129.348717c.728205 1.370257 2.824615.593334 2.328718-.86359l-.07077-.207691 7.209231-.024103 7.209744-.02359v-6.022052L35.8 24.726668l-2.200513-.024616v-6.122565l-.717949-.928718c-.394871-.510769-.978461-1.262564-1.296923-1.670256l-.578974-.741539v-3.358461c0-3.59641.001026-3.608718.352308-3.225641 1.133846 1.238974 2.313333 2.497436 2.42718 2.589743.102563.08359.917948.113847 3.124615.115898l2.98564.003077.13641.264102c.52 1.006154 1.952821.653334 1.952821-.480512 0-1.115898-1.36359-1.485129-1.931794-.523077l-.16359.27641H34.07077l-.728206-.764616c-.401026-.420512-.934359-.993333-1.18564-1.273333-.25077-.280513-.520514-.572308-.598975-.648718-.58-.567692-.552308-.377949-.552308-3.811795V1.264615h-.46359l.001026 7.064616m3.364102-4.598975c-1.067692.526667-.565128 2.07436.63641 1.958975l.453847-.04359 1.05282 1.052308 1.053334 1.052307 2.162564.01282c1.18923.006668 3.344615.03795 4.789743.069232l2.62718.056923.463077.668718.46359.668205-.203077.418974c-.521539 1.077436.913846 2.095898 1.710256 1.213846.648205-.718461.26359-1.666153-.733846-1.806666-.331795-.046667-.41436-.120513-.907692-.815898-.515898-.726154-.560513-.764102-.89282-.764102-.191796 0-2.364104-.044616-4.82718-.099487l-4.477436-.098975-.955385-.941025-.955385-.941026.05436-.52c.10205-.975898-.669744-1.557949-1.51436-1.141539M20.999487 4.867692c0 .056923-.08359.103077-.18564.103077-.102052 0-.18513.036923-.18513.082564 0 .111795.236924.195385.553334.195385.346154 0 3.386667 2.98718 3.288205 3.230256-.504102 1.246154.758462 2.19436 1.685641 1.26718.688206-.688205.205129-1.717949-.80564-1.717949h-.485642l-1.364102-1.366667c-.750257-.751794-1.46359-1.456923-1.585128-1.567692-.25077-.22718-.915898-.391795-.915898-.226154m32.334872 1.97436c-.64718.43846-.648205 1.179486-.002564 1.744615l.37282.326666v6.633333l.508206.664616c1.147692 1.503077 1.657435 2.161026 1.867179 2.41077l.221539.263589-.024103 2.93282-.024616 2.933334-.474871.02718-.47436.027692-.906153-.976923-.906154-.977436H47.42718l-.119488-.288718c-.433333-1.045641-2.033846-.716923-2.033846.416923 0 1.03641 1.08359 1.441026 1.799487.671795l.4-.429231h5.747693l.658974.702564c.362051.386667.658461.741026.658461.787692 0 .049231-1.38.084616-3.31641.084616-3.802564 0-3.539487-.066667-3.539487.894359v.671795l-2.571282-.043077c-4.23641-.071282-4.481026-.089231-4.677436-.33795-.705128-.893332-.797949-1.12-.577436-1.411281.482564-.637436-.174871-1.694872-.991795-1.595385-.86564.105641-1.267692.937949-.79282 1.642564.197949.293846.32923.358462 1.008205.49795.177436.03641.382564.252307.74.777948l.495385.727692 2.594871.062564c1.42718.03436 3.085129.089231 3.68359.121026l1.088718.058461v4.045641l-2.710256.024103-2.709744.024615-.06564 4.215898c-.036411 2.318461-.079488 4.393333-.096411 4.611282-.027693.366666-.108205.473846-1.092308 1.461538l-1.062051 1.066154-.926154-.02564-.926667-.025642-.024615-2.71077-.024615-2.710256-7.896923.02359-7.896924.02359-.024615 2.941538c-.013333 1.61795-.013333 2.951283 0 2.962564.013333.011283 1.785641.042565 3.937949.069231l3.913333.049231-.349744.463077c-.320512.424103-.388717.46718-.809743.51282-1.68923.18359-1.66923 2.499488.022051 2.49795.966667-.001026 1.493333-.976924 1.03641-1.921026L29.78 44.059487l.37077-.527692c.378974-.538462 1.129743-.830257 1.63641-.635898.270769.104103.211794 6.1-.06359 6.486667-.286154.401026-.28718 1.108205-.002052 1.508205.19436.272308.207693.395898.231795 2.13077l.025129 1.841538.254871.02923.25436.029231v2.923077l-1.296924 1.693846-1.296923 1.69436v14.337435h.463077L30.36 72.25795l.003077-3.312308.622051-.666154c.342564-.366667 1.011282-1.086154 1.486154-1.598461l.86359-.931795h5.979487l.10359.22718c.433333.951794 1.917948.525127 1.917948-.551283 0-1.145128-1.474871-1.489743-1.966153-.458974l-.15282.32h-6.049232l-.643077.671795c-.353846.36923-.953333 1.015384-1.331794 1.435897-.378462.420513-.721539.764616-.762052.764616-.040513 0-.073846-1.532308-.073333-3.405129l.000513-3.404615 1.29641-1.682564 1.296923-1.682564V54.90923h5.093847l.024102-4.238462.024102-4.238974 2.060513-.025128 2.060513-.024616.024102 4.286667.024103 4.28718.741026.023076c.407692.01282.835897.045129.951282.071795l.209743.048205L44.14 57.706667l-.024615 2.607692-.27795.15077c-1.001538.544615-.608717 2.041538.535898 2.041538 1.044616 0 1.365128-1.512308.423077-1.998975l-.264102-.136923v-5.27282l.208718-.049231c.114359-.027692 5.84718-.059487 12.739487-.071282l12.53077-.021539v2.536924l-.26513.156923c-.95641.565128-.628204 1.984615.458462 1.984615 1.136923 0 1.515898-1.405128.535385-1.984615l-.265641-.156923v-3.2l1.313846-1.197436c.722564-.658462 1.431282-1.296923 1.575385-1.418975l.261025-.222051v-2.202564c0-2.23436.02359-2.495898.225641-2.495898.133847 0 .446667-.328205.605129-.634871.285128-.551795-.28359-1.403077-.93641-1.403077-1.042052 0-1.547693 1.248718-.748206 1.847692.138462.10359.30359.232308.367693.285641.086153.07282.115897.634359.115897 2.214359v2.116923l-1.27282 1.145128c-.699488.630257-1.429231 1.285641-1.621026 1.457436l-.34923.311795V42.957436h6.763589v-.463077h-6.763589v-13.15641l3.35846.00359 3.358975.00359.185128.293845c.430257.682564 1.702564.67795 1.576923-.006153-.034359-.187693-.101025-.381026-.148205-.429231-.046667-.048718-.085128-.223077-.085128-.388205 0-.165641-.042051-.326154-.09282-.35795-.05077-.031281-.092821-.15641-.092821-.277435 0-.442051-.991282-.097949-1.222564.424615l-.119487.269744h-6.718462v-2.22359h7.524615l-.063077-.254872c-.034871-.14-.101538-.268205-.148717-.28564-.04718-.016924-.086154-.173334-.086154-.34718 0-.17436-.041539-.31641-.092308-.31641-.051282 0-.09282-.08359-.09282-.185641 0-.552308-.249744-.088718-.299488.555897l-.024615.324616-3.358974.024102-3.358462.024103v-.584616c0-.83282.068205-.80718-2.131795-.80718-2.101538 0-1.95282.038462-2.589743-.669743-.370257-.411282-.387693-.455385-.291282-.731282.35641-1.023077-.992308-1.87282-1.75795-1.107692-.74564.74564.048719 2.122051 1.028206 1.780513.251282-.08718.302051-.066154.598974.246666.453334.478975.449231.481539-.74359.481539h-1.068717l-.35282-.37077c-.513334-.539487-1.083078-.539487-1.596411 0l-.352308.37077h-3.991282l-.000513-2.988205-.000512-2.987693-.532308-.699487c-.29282-.385128-.845128-1.106154-1.22718-1.603077-.382051-.496923-.746666-.994872-.80923-1.10718-.084616-.150256-.114872-1.030769-.115898-3.36923l-.001538-3.166154.30718-.18923c.908204-.56154.671281-1.882565-.362052-2.01795-.280513-.03641-.434872.002052-.686154.172308m-36.583077.792308l-.205641.208718h1.745641c1.254359 0 1.788718.032308 1.897436.115385.418974.320512 2.198461 2.533333 2.141026 2.663076-.51436 1.164103 1.16564 2.16359 1.82359 1.084616.52564-.862051-.22718-1.963077-1.12718-1.649744-.31077.108718-.43077.004103-1.633333-1.426154-.256924-.30564-.586154-.688718-.731795-.851794l-.264103-.295385-1.719487-.028718c-1.68-.028205-1.724615-.024103-1.926154.18m46.591795 3.379487c-.295898.15641-.651282.685641-.651282.970257 0 1.055384 1.42718 1.43282 2.01641.533333l.20923-.32h1.805642c.993333 0 1.80564-.02359 1.80564-.05282 0-.298462-.334358-.364616-2.004102-.39436-1.521025-.027692-1.698974-.04718-1.74564-.193846-.15436-.48718-.962565-.792307-1.435898-.542564m-53.20718 2.500513c-.107692.134872-.130769.233846-.06923.295385.121538.121538.124615 3.11282.003077 3.11282-.33077 0-.744616.586154-.742565 1.051795.004616.99641.967693 1.442564 1.708718.791795.565129-.495898.369231-1.577949-.325128-1.798462-.170769-.054359-.181025-.151282-.181025-1.711282 0-1.992307-.042565-2.181025-.393847-1.742051m1.244616.281538l.02923.208206 4.107693.024102c3.10923.018462 4.137949.052308 4.233333.138974.069231.063077.689744.573334 1.377949 1.133847.905128.736923 1.234872 1.057948 1.189744 1.158461-.369231.822564.415384 1.75077 1.264615 1.49641 1.297436-.388717.84923-2.205128-.498462-2.020512-.452307.06205-.34923.130769-2.57282-1.722565l-.750256-.62564h-8.41077l.029744.208717m56.343077 1.459488c-.508205.496923-.441026 1.244615.14718 1.640512.52205.351282 1.164102.186154 1.501538-.38564l.193846-.328719h1.14923c.631795 0 1.148206-.031282 1.147693-.069743-.006154-.301539-.184616-.34718-1.238974-.31436l-1.061026.032821-.146154-.28205c-.333846-.646155-1.182051-.792821-1.693333-.292821m-4.26154 1.013845c-.985128.601025-.592307 1.901538.575898 1.90718l.621025.002563.792308.645641c.699487.570257 1.004615.82359 1.85077 1.535385.325127.273333 7.34205.273846 7.34205.000513 0-.278462-.115897-.287693-3.644102-.287693h-3.351282l-1.296923-1.073846c-.713333-.590769-1.327692-1.102564-1.365128-1.137948-.036923-.034872-.025128-.216923.026666-.404103.251282-.91077-.748718-1.67641-1.551282-1.187692m-49.735897.824615c-.479487.155898-.787692.553334-.787692 1.01641 0 1.041026 1.16 1.41795 1.904102.618975l.388205-.416923h2.521026l.140513.272307c.515384.99641 1.994871.656924 1.994871-.457435 0-1.108206-1.271794-1.445129-1.974871-.52359l-.257949.337948h-2.470256l-.254872-.333846c-.14-.18359-.393846-.392307-.56359-.463077-.333333-.139487-.36-.141538-.639487-.050769m-7.23641 1.288205c-.084103.13436-.042052.209231.247692.44.513333.409231.549743.549231.549743 2.128718v1.425641l-.301538.211282c-.998974.701539-.668718 2.025129.506154 2.025129 1.078461 0 1.406667-1.49436.437949-1.994872l-.272308-.141026v-3.397948l-.458974-.429743c-.512308-.478975-.565129-.498975-.708718-.26718m61.321538 6.59282l2.015385.008206-.02359 14.94-.02359 14.94H42.355385l-.02359-11.881026-.02359-11.881025 2.75641-.024616 2.756923-.024615.019488-2.269744c.010769-1.248718.021025-2.613333.023077-3.033333l.00359-.763077 3.544102-.024615c3.057949-.021026 9.052308-.015898 16.399487.013846m-44.699487 5.95641c.408205.408205-.027692 1.232308-.651795 1.232308-.901026 0-1.173333-1.147693-.302564-1.274872.54718-.08.844615-.066667.954359.042564m25.42718 8.991282l.02359 8.176923 7.319486.025641c4.025641.013846 7.411795.003077 7.525129-.024102l.20564-.049744-.020512-8.12923-.02-8.129231-7.528718-.02359-7.528205-.02359.02359 8.176923m7.778974-7.457949c.024102.55436.048205.625641.21282.625641.164103 0 .188205-.071282.21282-.62564l.02718-.625129h6.754872v3.88359c0 2.135897-.025128 3.949743-.055897 4.030256C63.419487 39.88359 63 39.9 59.694872 39.9h-3.717949l-1.53077 1.528718c-1.513845 1.511795-1.533845 1.527692-1.82923 1.443077-.986667-.283077-1.896923.80564-1.444615 1.728205.757436 1.544615 2.950256.43077 2.23641-1.135897-.10718-.235898-.065128-.288718 1.372308-1.718462l1.483077-1.474872h7.165641l.051794.208205c.028718.114872.04.604616.025129 1.088718l-.02718.88-3.077948.024616-3.07795.024102-.86.987693c-.47282.543077-.968717 1.113846-1.10205 1.267692-.232821.268718-.25795.275897-.606154.171795-1.430257-.428718-2.256923 1.554359-.953846 2.28718 1.009743.567179 2.16205-.443078 1.774358-1.554873-.106153-.304102.018462-.52718.75795-1.354871.182563-.204103.509743-.588206.727179-.853334l.39641-.483077 3.01077.019488 3.011281.019487v5.003077l-7.435384.024102-7.434872.02359V31.839487h7.681538l.02718.625128M37.95846 39.784103c.012308 7.861025-.015384 14.883077-.058974 14.953333-.026666.04359-1.338974.079487-2.915384.079487h-2.866667l-.008718-1.87641c-.004615-1.031795-.014872-3.731282-.023077-5.998975l-.014872-4.123077-1.018974-.057948c-.560513-.031282-2.738974-.062564-4.841026-.06923l-3.821538-.011796v-5.651795h15.565128l.004103 2.75641m4.257948 3.545642v2.595897l-2.061538-.024615-2.061539-.025129v-3.057436l1.02359-.026153 1.02359-.026154 1.01282-1.015898c.557436-.558974 1.024616-1.01641 1.03795-1.01641.013845 0 .025127 1.168205.025127 2.595898m10.43641.098974c.744616.460513.513847 1.474359-.335897 1.474359-.854359 0-1.12564-1.258462-.339487-1.575898.290256-.116923.331282-.110769.675384.101539m-23.385128 1.034359c.762052.429744.505641 1.458974-.36359 1.458974-.666153 0-1.007692-.785128-.578974-1.330769.213334-.271282.596923-.32359.942564-.128205m25.711282 1.111795c.271795.253333.282052.78923.020513 1.069743-.403077.43282-1.02359.366154-1.320513-.142564-.474871-.812307.600513-1.58 1.3-.92718M6.245641 52.089745c-.752308.408205-.61282 1.678974.213333 1.941025.267693.085128.27641 3.102052.009744 3.356923-1.003077.957436-1.310256 1.227693-1.39641 1.227693-.178462 0-.108718.263076.08564.324615.205642.065641.431283-.095897 1.318462-.946667l.53282-.510256v-3.246154l.416924-.388205c1.003077-.934359.014872-2.407692-1.180513-1.758974m7.804615.049743c0 .045641.041539.083077.091795.083077.05077 0 .373846.179487.717949.398462.835385.531282 2.20359 1.178461 3.081539 1.457436.143076.04564-.212821.076923-.931283.081538l-1.16359.008205-1.036922-1.051282c-1.025641-1.039487-1.168718-1.216923-.898462-1.113333.07641.02923.138974.090769.138974.135897m9.35795 2.853333c0 .19077-.563078.286667-.888206.15077-.451795-.188718-.39641-.23436.286154-.23436.33077 0 .602051.03795.602051.08359m30.33282 1.211795c-.97641.39436-.657435 2.041026.394872 2.04.431795-.000512.931283-.286666 1.051282-.60205l.088206-.231796h5.899487L62.86 59.16359c.926667.96359 1.685128 1.776411 1.685128 1.806667 0 .029744-1.48.053847-3.28923.053847-2.753334 0-3.289231-.021026-3.289231-.129231 0-.259487-.63282-.704616-1.001539-.704616-.937436 0-1.398974 1.073847-.766154 1.782052.484616.542564 1.513846.354359 1.726667-.315898.05282-.166154.32-.171282 7.784103-.14718 7.30923.023078 7.729743.015898 7.729743-.137435 0-.08923.041539-.162051.09282-.162051.05077 0 .092308-.042052.092308-.09282 0-.060514-1.448205-.092821-4.159487-.092821h-4.159487l-1.986667-2.03795-1.986154-2.03846h-6.042564l-.15641-.265642c-.287692-.486154-.873846-.68718-1.39282-.477436m-41.082052 1.461026c-.75282.678462-.255384 1.843077.775385 1.81641.33282-.008718.43077-.06564.758974-.438461l.376923-.428205 1.245641.00564 1.245642.005642.277948.38205c.63077.866155 1.899487.515898 1.899487-.524102 0-1.013333-1.08718-1.463076-1.80359-.746153-.18.18-.327692.367692-.327692.416923 0 .053333-.54.08923-1.343077.08923-.801538 0-1.34359-.035897-1.34359-.08923 0-.64-1.219487-.978975-1.76205-.489744m-3.48359-.020513c-.707693.361539-.69795 1.458462.016923 1.900513l.332307.205128-.030256 2.81436c-.01641 1.547691.001026 2.813845.039487 2.813845.037949 0 .06923.062564.06923.138975 0 .07641.062565.138974.138975.138974.120513 0 .138975-.38923.138975-2.945128v-2.945641l.405128-.338462c1.033846-.864102.082051-2.391282-1.11077-1.782564m13.213847.94718c-.617436.106153-.979487.878974-.706667 1.50718.04359.1-.182564.338974-.78923.833845-.467693.381026-1.062565.87436-1.32154 1.095385-.686666.585641-.559486.57077-4.878974.57077-3.841025 0-3.977948.00564-3.977948.175384 0 .09641.066154.200513.146667.231282.288205.11077 8.006666.063077 8.218974-.05077.202051-.107692 2.008718-1.573846 2.521026-2.045128.297435-.273846.325128-.281025.995384-.257948.546667.018461.920513-.223077 1.063077-.687693.246154-.801538-.417949-1.518461-1.27077-1.372307m-.093333 5.895384c-.586153.191282-.868717.867693-.609743 1.460513.048718.111282-.18923.45077-.87641 1.25077-1.474872 1.717948-.833847 1.515384-4.795385 1.515384h-3.4l.269744.254872.26923.254359 3.112308-.022564c3.80718-.028205 3.292308.12718 4.598974-1.388205 1.255898-1.455898 1.228718-1.43077 1.44359-1.315898.437436.23436 1.118462-.08359 1.346154-.628718.346154-.82923-.478462-1.667692-1.358462-1.380513m24.965129 1.016923c-.582052.262564-.778975.922052-.46 1.539488l.156923.30359-.429231.628717c-.545128.797949.041538.711282-5.341026.788205l-4.669743.066154-1.065129 1.043077-1.06564 1.043077-.512308-.04564c-1.188718-.105642-1.675898 1.52205-.59077 1.975384.849744.354872 1.589231-.193846 1.49436-1.110257l-.05077-.493333.995898-.99282.995384-.992821 4.671282-.052308c5.288718-.059487 4.81641.022564 5.504616-.953846.453846-.644103.558974-.741538.798461-.741538.649231 0 1.008205-.376924 1.008205-1.05795 0-.779486-.737435-1.264102-1.440512-.947179m7.218974.205129c-.602051.638461-.285128 1.58718.58718 1.76.388205.076923.958974-.197436 1.121025-.538975l.121026-.254872 3.214359.000513 3.214872.001026 1.638461 1.63282c1.54923 1.54359 1.647692 1.624616 1.797949 1.473847.150769-.150257.06564-.25282-1.545128-1.865129l-1.704103-1.706153h-3.30718c-3.201025 0-3.308717-.006154-3.364615-.181539-.219487-.692308-1.247692-.878974-1.773846-.321538m-30.011282.78718c-.621026.180512-.88923.817948-.66 1.568717.064103.20923-.074872.37641-1.445128 1.737436l-1.515898 1.505128h-2.472307c-2.135385 0-2.471795.018974-2.471795.138975 0 .076923.062564.138974.138974.138974.07641 0 .138974.031282.138974.069743 0 .038462 1.114872.05641 2.478462.040513l2.478461-.028718 1.585642-1.579487c1.36205-1.355897 1.615384-1.570256 1.79282-1.513846.857436.272308 1.663077-.948718 1.099487-1.665641-.161025-.204615-.721025-.54-.838461-.502564-.01436.004615-.153846.04564-.309231.09077m36.633846 3.537948c-.866154.732308-.416923 1.892308.72359 1.86718.433333-.009744.699487-.184616.894359-.587693.113333-.233333.133333-.237436 1.08564-.231282.716924.004615 1.004616-.028205 1.101026-.124103.22-.218974-.04564-.295897-1.026153-.297435-.968205-.001539-1.189231-.046154-1.189231-.238462 0-.488718-1.141026-.76718-1.58923-.388205" fill="#708FC8"/>
  </g>
</svg>
