<svg width="80" height="80" viewBox="0 0 80 80" xmlns="http://www.w3.org/2000/svg" xmlns:xlink="http://www.w3.org/1999/xlink">
  <title>
    gcr-globalcurrencyreserve
  </title>
  <defs>
    <path id="a" d="M79.897273 79.957408V0H0v79.957408z"/>
  </defs>
  <g fill="none" fill-rule="evenodd">
    <circle fill="#FFF" cx="40" cy="40" r="39"/>
    <mask id="b" fill="#fff">
      <use xlink:href="#a"/>
    </mask>
    <path d="M59.832614 37.855795v3.64591h-19.53909c.073862-1.232955.14659-2.451364.219544-3.669773l19.319546.023863zm-9.75159 24.478637c-2.162047.706364-4.446365 1.085454-6.702728 1.437045-1.304546.203637-2.663637.09591-3.99682.06659-5.873635-.12909-11.010453-2.165453-15.43909-6.01568-2.64659-2.301137-4.26091-5.2975-5.482727-8.487046-3.51682-9.1809-1.92819-17.66136 3.98204-25.3309 3.68068-4.776363 8.833632-7.203863 14.70341-8.131136 7.652722-1.208863 14.34568 1.201137 20.474313 5.610455.18182.13091.330454.308636.571136.5375-1.66159 1.90091-3.31318 3.790682-4.966136 5.68182-1.426816-.84182-2.79727-1.695684-4.20977-2.473638-2.14091-1.178863-4.460684-1.965-6.883184-2.0375-3.888634-.11659-7.636134.54932-10.867725 2.978864-3.173638 2.386137-4.965 5.621137-5.782957 9.436137-1.24591 5.807955-.27818 11.1975 3.41409 15.91.947955 1.210228 2.28932 2.23341 3.65 2.97659 5.62409 3.0725 11.347955 2.79591 17.056137.15023.719775-.333864 1.45318-.659546 2.111365-1.093636.28068-.18523.54409-.640685.540454-.970458-.01841-1.774093-.12341-3.547275-.19841-5.32091-.2425-.1-.48409-.284547-.7275-.287274-3.226135-.03341-6.45227-.04159-9.678862-.05591-.368636-.066364-.737273-.132727-1.20341-.21659v-3.52864H59.82852v.00023c.024774.41409.070228.82818.07091 1.2425.00727 4.12818.007045 8.25659.008863 12.385-2.97341 2.38318-6.20841 4.35386-9.827272 5.53636zm28.067953-33.99091c-2.491363-7.945227-6.967727-14.545-13.48591-19.732727C58.179887 3.451023 50.735115.661932 42.516933.069432c-2.68591-.19341-5.434773.045227-8.120682.368636-8.32772 1.0025-15.57681 4.495227-21.67818 10.183636-7.63522 7.11841-11.905 15.95-12.71818 26.400682.00023 1.97932.00023 3.958864.00046 5.938182.207274 1.642727.297955 3.310455.641365 4.924546 1.88386 8.855226 6.10613 16.393863 13.02136 22.290682 9.139774 7.793636 19.70909 10.94318 31.64659 9.401363 8.153866-1.05296 15.287275-4.39569 21.344775-9.8891 7.87091-7.13841 12.23068-16.120455 13.10818-26.689774.41091-4.94909-.115682-9.87727-1.613637-14.65477z" fill="#8AC831" mask="url(#b)"/>
  </g>
</svg>
