<svg width="80" height="80" viewBox="0 0 80 80" xmlns="http://www.w3.org/2000/svg">
  <title>
    get-protocol
  </title>
  <defs>
    <linearGradient x1="25.546%" y1="24.868759%" x2="80.205%" y2="70.406889%" id="a">
      <stop stop-color="#FF8052" offset="0%"/>
      <stop stop-color="#FF5252" offset="100%"/>
    </linearGradient>
  </defs>
  <g fill="none" fill-rule="evenodd">
    <circle fill="#FFF" cx="40" cy="40" r="40"/>
    <path d="M6.104848 20.677814l6.67503-6.629914 19.345455 19.217143H18.88897L6.104848 20.677814zm16.403758.337143l-8.371151-8.315628 6.561333-6.630758L35.74497 21.014957H22.508606zm20.13794-8.989914c2.019393 2.000943 3.054545 3.843428 3.054545 5.394286v3.595628h-7.24097L22.056364 4.72l3.393939-3.371429C26.315523.476946 27.499151-.00954 28.731393 0c1.176 0 2.319758.472 3.167395 1.348571l10.747758 10.676472zM4.747273 21.914286l23.98412 23.825043L41.28897 33.265043h-6.448485L24.319273 22.813614h24.549212c1.75297.048886 3.495757.771215 4.751515 2.022857 1.272727 1.201915 1.946424 2.829472 1.923515 4.607058C55.519758 31.19667 54.80703 32.9456 53.62 34.27647L28.731394 59l-7.353818-7.305043-.339394-.337143L1.353333 31.80353c-1.804727-1.831529-1.803878-4.728429 0-6.517815l3.39394-3.371428z" transform="translate(12 11)" fill="url(#a)"/>
  </g>
</svg>
