<svg width="80" height="80" viewBox="0 0 80 80" xmlns="http://www.w3.org/2000/svg">
  <title>
    gno-gnosis
  </title>
  <g fill-rule="nonzero" fill="none">
    <path d="M78.723 49.83C73.42 71.085 51.89 84.022 30.628 78.722c-21.253-5.3-34.19-26.83-28.888-48.087C7.038 9.375 28.57-3.56 49.826 1.74c21.26 5.3 34.197 26.83 28.897 48.09z" fill="#0C3753"/>
    <g fill="#00A6C4">
      <path d="M65.29 24.286l-2.3 2.3c1.827 2.876 2.402 6.482 1.15 9.93-2.09 5.854-8.568 8.94-14.473 6.848-.838-.313-1.62-.678-2.3-1.15L40 49.584 33.573 43.1c-2.977 1.986-6.792 2.56-10.398 1.308-6.06-2.194-9.194-8.833-7-14.843.31-.94.783-1.78 1.305-2.56l-2.768-2.77-.522.888c-2.875 4.704-4.44 10.14-4.44 15.73C9.697 57.527 23.282 71.17 39.947 71.17H40c16.665 0 30.2-13.536 30.25-30.21 0-5.542-1.515-10.978-4.39-15.73l-.57-.942"/>
      <path d="M20.838 30.466c-.788 1.048-1.258 2.362-1.258 3.777 0 3.41 2.78 6.19 6.19 6.19 1.418 0 2.73-.473 3.777-1.31l-8.71-8.657M51.145 38.428c.987.673 2.13 1.037 3.427 1.037 3.375 0 6.125-2.75 6.125-6.126 0-1.246-.363-2.44-1.037-3.428l-8.515 8.516M40.087 45.002L15.15 19.95l.99-1.042C22.298 12.385 30.697 8.73 39.723 8.73h.053c9.13 0 17.896 3.914 23.998 10.7l.94 1.04-24.626 24.532M19.22 19.95l20.87 20.93 20.607-20.512c-5.532-5.53-13.044-8.717-20.87-8.717h-.052c-7.775 0-15.026 2.926-20.554 8.3"/>
    </g>
  </g>
</svg>
