<svg width="80" height="80" viewBox="0 0 80 80" xmlns="http://www.w3.org/2000/svg"><title>Group 5</title><g fill-rule="nonzero" fill="none"><circle fill="#0181A2" cx="40" cy="40" r="40"/><path d="M47.472 34c1.976-1.976 3.048-4.576 3.048-7.376 0-2.444-.858-4.81-2.424-6.688l6.064-6.064-1.352-1.312-6.064 6.064c-1.872-1.56-4.192-2.424-6.648-2.424-4.216.003-8.016 2.543-9.63 6.438-1.613 3.895-.724 8.378 2.254 11.362 1.728 1.728 3.984 2.808 6.408 3.016v7.688c-2.43.2-4.705 1.272-6.408 3.016-4.064 4.078-4.064 10.674 0 14.752 1.976 1.976 4.576 3.048 7.376 3.048 2.767.008 5.422-1.09 7.376-3.048 1.976-1.976 3.048-4.576 3.048-7.376 0-2.8-1.072-5.4-3.048-7.376-1.728-1.728-3.984-2.808-6.408-3.016v-7.688c2.43-.2 4.706-1.27 6.408-3.016M46.12 49.064c1.592 1.624 2.496 3.744 2.496 6.024.004 2.26-.895 4.43-2.496 6.024-1.592 1.624-3.744 2.496-6.024 2.496-2.26.004-4.43-.895-6.024-2.496-1.592-1.624-2.496-3.744-2.496-6.024-.004-2.26.895-4.43 2.496-6.024 1.592-1.624 3.744-2.496 6.024-2.496 2.288.008 4.432.872 6.024 2.496m-6.024-13.888c-2.26.004-4.43-.895-6.024-2.496-1.592-1.624-2.496-3.744-2.496-6.024-.002-2.26.896-4.428 2.496-6.024 1.592-1.624 3.744-2.496 6.024-2.496 2.26-.004 4.43.895 6.024 2.496 1.624 1.592 2.496 3.744 2.496 6.024.004 2.26-.895 4.43-2.496 6.024-1.592 1.632-3.736 2.496-6.024 2.496" fill="#FFF"/></g></svg>