<svg width="80" height="80" viewBox="0 0 80 80" xmlns="http://www.w3.org/2000/svg">
  <title>
    golos-golos
  </title>
  <defs>
    <linearGradient x1=".019377%" y1="49.989207%" x2="100.113427%" y2="49.989207%" id="a">
      <stop stop-color="#FF3F3F" offset="0%"/>
      <stop stop-color="#EB0000" offset="100%"/>
    </linearGradient>
    <linearGradient x1="-.06337%" y1="49.927949%" x2="99.955592%" y2="49.927949%" id="b">
      <stop stop-color="#2482C5" offset="0%"/>
      <stop stop-color="#285FAC" offset="100%"/>
    </linearGradient>
  </defs>
  <g fill="none" fill-rule="evenodd">
    <circle fill="#FFF" cx="40" cy="40" r="40"/>
    <g fill-rule="nonzero">
      <path d="M20.612658 19.186046c3.581013-1.482558 6.08481-5.05814 6.08481-9.215116C26.726582 4.476744 22.301266 0 16.886076 0c-5.444304 0-9.86962 4.476744-9.86962 9.97093 0 2.994186 1.310126 5.668605 3.377215 7.5L5.2114 20.930233s10.39367.901162 15.401266-1.744187z" fill="url(#a)" transform="translate(20 14)"/>
      <path d="M41.662025 30.08721c-4.949367-1.773256-11.849367 1.656976-11.849367 1.656976s5.327848-7.122093 5.211393-17.64535c-.05822-7.703486-2.79493-10.203486-4.89114-12.06395.17469 1.04651.26203 2.122092.26203 3.197673 0 11.16279-6.92911 18.66279-18.07974 18.66279-4.629112 0-8.879745-.02907-12.286074-2.61628.058228.17442.553164 2.29651 2.53291 4.50581.87342.98837 2.06709 1.97674 3.610128 2.81976 5.007596 2.70349 8.850634 3.023256 9.229115 3.052326.029114.02907.029114.08721.05823.11628 0 5.552323-3.901268 13.48837-9.432914 13.48837-.844304 0-1.659493-.11628-2.44557-.290698-2.15443-.436048-3.49367-1.5407-3.49367-1.5407s.75696 5.784883 6.98734 6.36628c6.84177.639534 9.986076-.843025 16.76962-4.970932 7.249368-4.4186 12.7519-9.098834 16.973418-7.936043 3.202534.872092 3.726585 5.9593 3.726585 5.9593s.96076-2.005815 1.2519-3.77907c.291134-1.860466.815184-7.209303-4.13418-8.98256z" fill="url(#b)" transform="translate(20 14)"/>
      <path d="M36.653165 17.226744c2.067088 0 3.93038.930233 5.182278 2.38372l.786076-.668603c-1.4557-1.65697-3.61013-2.73255-5.96836-2.73255-1.6595 0-3.20253.52326-4.48355 1.39535l.58228.84303c1.106323-.755814 2.445563-1.22093 3.90126-1.22093z" fill="#FFF"/>
    </g>
  </g>
</svg>
