<svg width="80" height="80" viewBox="0 0 80 80" xmlns="http://www.w3.org/2000/svg">
  <title>
    Group 29
  </title>
  <defs>
    <linearGradient x1="50%" y1="0%" x2="50%" y2="100%" id="a">
      <stop stop-color="#7500E5" offset="0%"/>
      <stop stop-color="#5C00B5" offset="100%"/>
    </linearGradient>
    <linearGradient x1="50%" y1="0%" x2="50%" y2="100%" id="b">
      <stop stop-color="#7500E5" offset="0%"/>
      <stop stop-color="#420082" offset="100%"/>
    </linearGradient>
  </defs>
  <g fill="none" fill-rule="evenodd">
    <circle fill="url(#a)" cx="40" cy="40" r="40"/>
    <path d="M67.537665 40.544086h.009694c0-5.07927-.00736-10.158372.01103-15.237642.002-.531478-.12687-.8509-.61544-1.132635-8.79762-5.07341-17.58487-10.16524-26.3666-15.26646-.43826-.2546-.7876-.29397-1.22235-.01307-.67728.43784-1.38599.82728-2.08433 1.23179-8.09092 4.68447-16.17966 9.37246-24.280107 14.04035-.476536.27453-.642346.57017-.641343 1.11672.02006 10.102596.02591 20.20519.00535 30.307786-.001337.649396.202416.991264.7535 1.30851C21.81276 61.91038 30.50925 66.93722 39.19521 71.98232c.54724.31775.938364.349573 1.505828.019766 8.682788-5.049116 17.37794-10.07713 26.084458-15.08488.59337-.341195.76971-.728456.76637-1.38673-.02591-4.99552-.01421-9.990873-.01421-14.986393zM40.121048 7.000034c.228323.185254.43642.405684.68781.550907 9.10767 5.2647 18.216847 10.52671 27.336386 15.7703.55125.31674.75049.66883.749487 1.31488-.01537 10.57981-.01069 21.15961.02608 31.73924.00251.70635-.27378 1.03767-.82186 1.35374C58.9861 62.98457 49.8801 68.25195 40.7751 73.52116c-.2325.134503-.436752.318084-.654043.478883h-.334294c-1.63704-.985062-3.2607-1.99325-4.91345-2.95101-7.72954-4.479954-15.46494-8.95003-23.20735-13.407703-.496093-.285753-.66725-.61221-.665915-1.186735.02524-10.607273.034433-21.21488.017718-31.82232-.001-.65074.2081-.996625.754336-1.31069 9.141937-5.257656 18.273845-10.5324 27.40408-15.810156.226318-.13082.408007-.33919.61059-.51138h.334293z" fill="#420083"/>
    <path d="M67.537748 40.544052c0 4.99552-.011867 9.99104.014208 14.986393.003343.658442-.173165 1.045702-.76637 1.3869-8.706518 5.007748-17.40167 10.035595-26.084622 15.084715-.567464.329808-.958588.29815-1.505827-.019765-8.68596-5.0451-17.382282-10.071942-26.087965-15.082872-.55125-.317245-.754836-.659113-.7535-1.30851.020393-10.102595.01471-20.20519-.005347-30.307786-.001003-.546552.16464-.84219.641175-1.116722 8.100444-4.66789 16.189355-9.35588 24.280104-14.040353.698507-.404344 1.40721-.79395 2.08449-1.231627.434582-.281065.784086-.241702 1.222346.012898 8.781735 5.101212 17.568818 10.193045 26.3666 15.266452.488403.281735.617273.601157.615434 1.132635-.018553 5.07927-.01103 10.158372-.01103 15.237642h-.009696z" fill="#FFF"/>
    <path d="M27.625166 10.011475c-.306882.187767-.53253.331817-.763694.46632-1.87656 1.090257-3.76599 2.159242-5.62199 3.283502-.40366.24455-.660062.24991-1.02411-.017587-1.207802-.887415-2.435497-1.747695-3.697457-2.648175-4.22982 2.445668-8.494576 4.903227-12.74061 7.39278-.210606.123448-.364883.526788-.36555.800148-.021563 9.48988-.017217 18.979592-.03644 28.469472-.000835.462802.162802.69479.540888.908017 1.598928.902323 3.18298 1.831278 4.772548 2.750016 2.5978 1.501637 5.1956 3.003107 7.82349 4.52183 3.37136-2.845826 7.20437-4.892173 10.96117-7.067663 2.8644-1.658752 5.66879-3.422863 8.47084-5.186805.78141-.491947 1.45903-1.149552 2.18445-1.73128-.02825-.070685-.056495-.14137-.084743-.212223H24.5398c1.313274-2.28872 2.560357-4.423674 3.76181-6.583922.286824-.515732.629642-.661792 1.194432-.660117 6.07178.01943 12.143562.012562 18.215343.013065h.97898c-.023066 1.95238-.437758 3.720342-1.090634 5.439897-1.5085 3.973435-4.21528 7.051248-7.62775 9.399263-3.56825 2.455214-7.36433 4.578947-11.07048 6.831487-1.9155 1.164125-3.8519 2.293578-5.89928 3.51013 1.99223 1.156588 3.81363 2.222725 5.64924 3.263905.15762.089277.45297.089277.61059 0 1.83528-1.03984 3.65634-2.104973 5.6138-3.240288-1.55497-.967312-3.0038-1.868797-4.4894-2.792895.12085-.104687.19105-.187432.2793-.23852 2.07112-1.197122 4.13823-2.401447 6.22656-3.567247.19473-.108708.5912-.062812.78593.070183 1.27951.874685 2.52927 1.79292 3.807108 2.709982 4.10095-2.374983 8.18719-4.75767 12.295665-7.10133.55259-.315235.76637-.634992.764365-1.288075-.028417-8.791908-.08976-17.58482.02741-26.37522.024903-1.859585-.48807-2.848002-2.13564-3.716825-3.7598-1.982362-7.390903-4.20961-11.10357-6.354447-3.59884 2.975637-7.668703 5.163522-11.690594 7.432477-3.442727 1.942162-6.844 3.940772-9.86117 6.546402-5.444646 4.70206-5.58388 12.103048-.11533 16.711308 2.15987 1.820055 4.597543 3.309465 6.913865 4.942087.30237.213228.63516.382905 1.01458.608695-2.2732 1.320403-4.430395 2.58821-6.610995 3.813808-.184697.10385-.59822.015577-.78509-.134168-1.95094-1.562942-4.008852-3.022704-5.782114-4.770734-3.4342-3.385176-5.185232-7.555423-5.230863-12.437545-.031422-3.372278.69784-6.514578 2.4233-9.4135 1.965646-3.302263 4.700672-5.880423 7.88917-7.921746 3.60586-2.308484 7.34494-4.407427 11.020834-6.6062 1.37227-.820917 2.72984-1.666624 4.21561-2.575312-1.66663-.966475-3.20856-1.79493-4.67678-2.738793-.78743-.506017-1.388656-.522264-2.184777-.007705-1.4826.958268-3.04408 1.793926-4.68263 2.74432 1.53625.955923 2.944127 1.831948 4.434577 2.759228z" fill="url(#b)" transform="translate(11 7)"/>
    <path d="M59.488084 37.955357c-2.076133 0-4.102456.010385-6.128277-.01809-.176674-.00268-.452634-.2278-.50963-.40535-1.046508-3.25419-3.389073-5.446095-6.045373-7.34789-1.73582-1.242683-3.559896-2.36108-5.412888-3.580145.180686-.132828.33747-.27135.514646-.37453 1.89812-1.1055 3.790058-2.222223 5.710242-3.288025.275458-.152928.79027-.203178 1.026617-.046733 3.50742 2.32356 6.66883 5.007915 8.81567 8.720553 1.10802 1.916032 2.02516 4.666717 2.029 6.34021" fill="#FFF"/>
  </g>
</svg>
