<svg width="80" height="80" viewBox="0 0 80 80" xmlns="http://www.w3.org/2000/svg" xmlns:xlink="http://www.w3.org/1999/xlink">
  <title>
    gre-greencoin
  </title>
  <defs>
    <path id="a" d="M.184968.18478h22.518455v34.142017H.184968z"/>
    <path id="c" d="M0 .094609h12.306415V12.62237H0z"/>
    <path id="e" d="M.27128.0017h7.669017v15.779994H.27128z"/>
  </defs>
  <g fill="none" fill-rule="evenodd">
    <circle fill="#2F7F00" cx="40" cy="40" r="40"/>
    <circle fill="#3BA400" cx="40" cy="40" r="35"/>
    <g transform="translate(23.197605 32.671503)">
      <mask id="b" fill="#fff">
        <use xlink:href="#a"/>
      </mask>
      <path d="M21.092968 19.374622c-.622372.828262-1.412839 1.049177-2.134192 1.35404-2.181772.922745-4.511844 1.302378-6.82212 1.762222-2.702036.538013-5.422131 1.022666-7.995317 2.044653-.58521.232131-1.15097.510484-1.800779.801412-.685233 1.89919-1.467365 3.762013-.883892 5.871582.26048.942117.00139 1.787712-.774143 3.1183-.177474-.342248-.42163-.607686-.439342-.886379-.049664-.789176-.109401-1.599425.018407-2.372627.502899-3.047268.839438-6.117987 1.886563-9.07349 1.110683-3.135295 2.764551-5.937177 4.751485-8.595974 2.125857-2.844026 4.61048-5.365856 7.257641-7.72149 2.435305-2.168027 5.187353-3.940445 8.086311-5.478353.07606-.040445.2063.018353.459833.048601-9.190396 6.080261-16.554659 13.505046-19.952 24.176601.371964-.186248.766155-.340209 1.112419-.564863 1.968874-1.277228 3.889126-2.636366 6.141748-3.423503.854372-.298405 1.715689-.576758 2.767677-.929542-.406-.295347-.694263-.505386-.82624-.601229-2.065772-.056078-3.577245 1.462458-5.548203 1.154196 1.058934-1.01247 2.143569-1.660941 3.759233-2.090876 3.140336-.836078 6.256707-.846274 9.28521.471399.5543.241307 1.05685.59545 1.6497.93532" fill="#FFF" mask="url(#b)"/>
    </g>
    <path d="M24.635102 51.581456c-1.580934-1.48183-1.778204-3.313725-3.114982-4.441412.378563 2.215608 2.312012 4.022353 1.760838 6.481987-.204215.067634-.358072.137647-.519221.164837-.107665.018353-.225749-.02413-.45254-.055059-1.61115-1.858405-3.507784-3.58562-4.615688-5.942954-.731772-1.556601-1.055114-3.203268-1.41527-4.849935-.287916-1.317673-.567844-2.637046-.829365-3.959477-.05279-.267137-.00764-.552967-.00764-1.002954 2.421413.928183 4.506634 2.126902 6.060826 4.064836 1.74 2.169726 2.66661 4.704471 3.187221 7.38298.111138.57234-.021532 1.189883-.05418 2.157151" fill="#FFF"/>
    <g transform="translate(10 49.664967)">
      <mask id="d" fill="#fff">
        <use xlink:href="#c"/>
      </mask>
      <path d="M-.00007.188933c3.635593-.402065 6.8183.461543 9.257078 2.970118 1.722288 1.771399 3.165342 3.856837 3.042048 6.953726-1.10061-2.274406-2.54297-3.782406-4.363892-5.035164.12364.239608.21915.498588.374743.715765 1.153053 1.61302 2.343616 3.200889 3.45673 4.839399.218455.320836.153162.826562.232695 1.339764-.691485.274615-1.2503.49587-1.638587.64983-.946407-.819764-1.644491-1.569516-2.479413-2.120444-2.322779-1.53247-3.785976-3.751137-5.216527-6.00651C1.786817 3.111469.939392 1.709169-.00007.188933" fill="#FFF" mask="url(#d)"/>
    </g>
    <path d="M32.545121 48.184089c1.982072-1.007033 3.991928-1.595007 6.112922-1.814902 1.421868-.146824 2.84964-.241307 4.272551-.499608-2.699952-.958091-5.453042-.590353-8.397844-.324915.221233-.523059.402527-.951294.539018-1.27451 7.167341-3.159085 13.475796-.217176 15.706191 4.303765-1.102347.162458-2.150167.368078-3.20806.462222-3.132347.279033-6.211904-.216497-9.271664-.764706-1.79036-.320836-3.542168-.374536-5.311342.033987-.094467.021752-.21255-.055059-.441772-.121333" fill="#FFF"/>
    <g transform="translate(43.688623 15.33817)">
      <mask id="f" fill="#fff">
        <use xlink:href="#e"/>
      </mask>
      <path d="M6.812083.001563c2.852766 5.789674-.140312 12.774327-4.124946 15.23872.22818-2.229203 1.620874-4.027452 1.948035-6.385805-.338622.263739-.592155.36638-.681065.54651-.476156.966589-.863402 1.97668-1.372551 2.924915-.641473 1.19498-1.371162 2.344419-2.310276 3.455791.029174-.33885.013892-.688915.098635-1.01383.113569-.435033.287916-.85749.465736-1.27315.542144-1.265334.708503-2.581647.807486-3.949281.278538-3.840523 2.05431-6.950667 5.168946-9.54387" fill="#FFF" mask="url(#f)"/>
    </g>
    <path d="M27.934677 44.451169c-.235473-.862249-.477893-1.722458-.704336-2.586745-.215329-.821804-.573054-1.56306-1.215221-2.343739-.341401.801412-.29382 1.485569-.111485 2.100052.406 1.368654.642862 2.741386.629664 4.169177-.004862.54413.175737 1.08962.27576 1.657202-.652239.377935-1.047125.147844-1.288155-.392549-.368838-.827581-.678635-1.680313-1.045389-2.508915-.227832-.513882-.475461-1.027764-.78109-1.499843-1.38158-2.13064-2.134192-4.33979-1.362479-6.906144.418503-1.391085.589377-2.853202.894659-4.398248.340706.092105.683497.07987.827281.239608 2.094946 2.321307 3.643234 4.933542 4.173222 8.026353.199006 1.160993.257006 2.347817.32855 3.525804.018408.300444-.156634.612104-.242419.918327-.126071 0-.25249-.00034-.378562-.00034M26.83865 61.502716c-.06321-.278013-.230263-.562483-.15455-.756549.425101-1.08894 1.145065-1.954588 2.256095-2.439242 1.792096-.782039 3.640108-1.463137 5.59127-1.657542 1.119365-.111477 2.29291.071033 3.414706.269856 1.397557.247765 2.745797.705909 4.118348 1.333307-1.88066 1.8234-4.134324 2.569752-6.530036 2.988471-2.470036.431974-5.016827.423817-7.451437 1.257856.58382-1.019608 1.625389-1.461778 2.540191-2.022902.957521-.586954 1.991797-1.054274 3.042743-1.600104-1.034623-.332392-1.055461-.376915-3.485557.715085-1.128048.506745-2.157461 1.224888-3.341773 1.911764m13.744854-22.244512c.643557-.193046 1.274264-.4663 1.932755-.565543 3.724503-.560784 7.259724-.166536 10.216335 2.360053.792898.67736 1.537174 1.50834 1.90636 2.7543-1.61497.161098-3.126791.290249-4.637222-.080889-1.44757-.355163-2.86909-.826222-4.32951-1.11443-2.464131-.485674-4.95049-.867687-7.423305-1.292524 2.043893-.876183 4.334024-.922065 6.602623-1.478771-.266383-.10332-.529988-.28787-.79915-.295686-1.142634-.033308-2.287006-.014275-3.430682-.014275-.012503-.090745-.025354-.18149-.038204-.272235m-5.820942-2.297278c-1.894204-5.194563-1.22321-10.188262-.659186-15.333543 2.488096 1.06515 3.266407 3.099948 3.829737 5.230588.620982 2.348157.303892 4.684079-.323342 6.99519-.1483.54685-.304587 1.06753-.87903 1.562379-.27055-2.05281.148647-4.044105-.83006-6.195477-.168443.682797-.339317 1.083163-.353556 1.488967-.042024 1.186144-.031953 2.374667-.022228 3.56217.00764.889438-.227485 1.694248-.762335 2.689725M29.822629 26.232c3.276479 4.54779 4.084658 9.270614 2.370359 14.456-.200743-1.828837.12364-3.714091-1.139509-5.701307-.032994 2.39336-.061126 4.429856-.090994 6.608418-.495258-.127111-.794635-.203582-1.12527-.288549-.063209-.398327-.089952-.731399-.171568-1.051216-.248671-.977124-.3803-2.013045-.811306-2.90894-.710934-1.478432-.97315-2.868498-.662658-4.549151.3994-2.162588 1.010311-4.244967 1.630946-6.565255m28.633037 12.211877c-1.426383 1.548105-2.88715 1.556601-4.586168 1.043399-2.79164-.842876-5.636419-1.520575-8.466263-2.239399-.530336-.134588-1.096096-.135268-1.645186-.303503 2.698216-.897935 5.457557-.931582 8.56212-.578458-.495952-.298405-.728994-.527817-1.000934-.586954-1.170767-.255582-2.352994-.460523-3.530707-.686196-.541449-.10366-1.081856-.212758-1.5917-.605307 2.402658 0 4.837269-.23349 7.197904.07511 1.845233.240968 3.604682 1.144 4.98279 2.711478.023617.350065.05279.788497.078144 1.16983m-7.460293-5.297678c1.553497-1.17119 3.095532-.431634 4.577832-.842536-.624108-.658667-1.354491-.580837-2.055354-.586275-.68697-.005438-1.374287-.00136-2.201221-.00136 4.01103-2.845045 12.25606-.967267 12.949281 2.879373-1.573293.270196-3.139293.640314-4.725784.771504-.887365.073411-1.833425-.166876-2.710371-.412262-1.864683-.522379-3.701581-1.140601-5.834384-1.808444m-11.499559.473641c-.347652-3.708313 1.400683-11.552496 3.012874-13.689254 2.259917 2.618353 2.411342 7.935947-.26291 11.677568-.691137-.030928-.84152-.515582-.73594-1.03966.165665-.823843.459138-1.622196.662659-2.440261.15733-.632497.260131-1.278249.24624-1.95153-.898827 1.0903-.95891 2.448758-1.35727 3.69506-.401833 1.257515-.700862 2.564653-1.565653 3.748077m28.24857-8.942334c-3.004886 2.343738-6.447377 2.86136-9.810335 3.583242-.235126.05064-.51436-.093804-.917928-.177752.758167-1.465856 2.240467-1.779556 3.575161-2.640784-1.594131-.323556-2.452323.847974-3.691856 1.16949-.11739-.721882.169485-1.185464.644252-1.517516 2.47455-1.730615 5.166862-2.423268 8.135281-1.453621.69461.227032 1.320108.655947 2.065425 1.03694m-14.331105 2.53359c.168443-.845594.256311-1.286405.3803-1.908026-1.494456.507765-1.667067 2.086458-2.928827 2.577229-.087868-.23621-.229916-.424837-.180946-.516261.925569-1.739451 1.807377-3.506432 2.83436-5.187765 1.209316-1.980079 3.101089-3.288915 5.109556-4.572941-.036814 1.908706-.497689 3.648157-1.378108 5.271712-.881114 1.624915-1.838287 3.202928-3.836335 4.336052" fill="#FFF"/>
  </g>
</svg>
