<svg width="80" height="80" xmlns="http://www.w3.org/2000/svg" xmlns:xlink="http://www.w3.org/1999/xlink">
  <defs>
    <path id="a" d="M.000016.112575h14.980272V16.27907H.000016z"/>
    <path id="c" d="M.042672.152713h10.090446v9.740543H.042672z"/>
  </defs>
  <g fill="none" fill-rule="evenodd">
    <circle fill="#FFF" cx="40" cy="40" r="40"/>
    <path d="M30.936681 42.371318c.916313 0 1.76927.000775 2.622227-.000465.241169-.00031.487818.02372.7227-.01566.82265-.137829 1.611285-.44465 2.126993-1.06093.811687-.970232.915667-2.355503.204896-3.419534-.602438-.902016-1.509078-1.384496-2.64528-1.40248-.723506-.011474 0 0-3.031536-.001861v5.90093zm10.02801 7.331163c0 .106976-.056907.106976-.21747.10341-1.205522.003721-2.410883.002946-3.636071.002946-1.128141-1.540465-2.130862-3.151318-3.313008-4.622945h-2.874035c0 .647286.000645.42403 0 .647286-.003386 1.290233-.001612 2.648217-.001612 3.972248-3.165501.004031-2.642862.004031-3.165501.004031l-.039336-16.138914c6.246852 0 4.341038.021395 6.246852 0 1.816987-.02031 3.441007.490387 4.798549 1.64248.674015.571783 1.119758 1.326202 1.384141 2.17876.36788 1.185891.38126 2.744496.022086 3.823566-.435265 1.307907-1.322398 2.236434-2.525985 2.91938-.135738.076899 0 0-.507325.180465 1.302085 1.798294 2.546297 3.516434 3.828715 5.287287z" fill="#7C8D96"/>
    <g transform="translate(8 33.568217)">
      <mask id="b" fill="#fff">
        <use xlink:href="#a"/>
      </mask>
      <path d="M14.496983 1.585085c-.569551.849458-.906156 1.676124-1.480383 2.42217-.479113-.14527-.898256-.402635-1.360765-.559534-1.442015-.489612-2.91869-.590543-4.372796-.211783-1.711234.445891-3.004131 1.402636-3.579003 3.129147-.839093 2.51938-.007738 4.640155 1.724615 5.984807.506196.392868 1.116534.62589 1.74799.833643 1.42541.468527 2.811647.270077 4.200624-.08155.1812-.045892.419789-.107908.582933-.415504V8.217023h3.02009v6.221396c-1.139748.801705-2.434418 1.338914-3.83065 1.629922-1.127335.235039-2.288362.25752-3.424725.145892-1.555345-.152869-3.043144-.608993-4.301864-1.534574C1.710525 13.420434.529507 11.82865.158726 9.716869.009608 8.86834-.056165 8.019503.057648 7.195162.226595 5.972217.599633 4.777488 1.356026 3.74493 2.605236 2.039504 4.248601.90462 6.390746.403535 7.548712.132837 8.702486.070047 9.86593.137643c.912121.052869 1.824726.228838 2.686388.526512.636615.22 1.223577.573023 1.944665.92093" fill="#7D8E97" mask="url(#b)"/>
    </g>
    <path d="M53.481947 49.654202c-.000645-5.271163-.001129-10.542326-.001613-15.813334.103336-.005736.158147-.05814.16395-.157674 1.934187.000465 3.868534.000775 5.80272.00124.009834.060465.016444.133333.104625.112713.026277-.006046.038046-.071162.056262-.109147.188937.024341.166852.15845.16653.286977-.001774.798604-.000807 1.597054-.000807 2.467132-.995788.065891-1.979164-.000466-2.956735.036434-.135094.54217 0 0-.03982 10.530542 1.21987 0 2.453442.07783 3.671215-.022635 1.145552-.094574 2.25467-.384031 3.20935-1.110388.715285-.544341 1.14942-1.222326 1.429119-2.024651.21344-.612093.145894-1.254884.16927-1.92093h3.037984c.202962 2.575193-.50539 4.762015-2.78811 6.32155-1.157804.790853-2.440061 1.229147-3.848706 1.431938-.692554.099535-1.373663.118605-2.061058.121085-1.98529.007132-3.970418-.006046-5.955708-.011473-.007416-.094263-.066096-.134418-.158468-.13938" fill="#7B8D96"/>
    <path d="M45.26122 33.683085h2.900956c.005481.097055.05723.151008.159597.1569-.000644 5.271782-.001128 10.54341-.001612 15.815038-.095113.001085-.150408.043411-.1546.138295-.96935.000155-1.9387.000155-2.907727.000155-.004353-.094884-.059809-.1369-.154439-.13845-.000483-5.271783-.000967-10.54341-.001612-15.815039.102368-.005891.153955-.059844.159436-.156899" fill="#7B8C95"/>
    <g transform="translate(61.843829 30.002326)">
      <mask id="d" fill="#fff">
        <use xlink:href="#c"/>
      </mask>
      <path d="M10.133231 6.318682H6.485392c-.037561.606512-.017088 1.774729-.017088 1.774729s-.000967 1.185736-.000967 1.79721H5.116889s-.981602.002635-1.390106.002635c0-.51814.001773-.348837 0-.51814-.008544-.852403.003385-2.194883-.007255-3.047287h-.526025L.69557 6.321473H.042672V3.69124h3.66928V.152636h2.735395v3.507442h3.685884v2.658604z" fill="#54B7E7" mask="url(#d)"/>
    </g>
  </g>
</svg>
