<svg width="80" height="80" viewBox="0 0 80 80" xmlns="http://www.w3.org/2000/svg" xmlns:xlink="http://www.w3.org/1999/xlink">
  <title>
    grs-groestlcoin
  </title>
  <defs>
    <path id="a" d="M0 75.20584V.057927h79.903673V75.20584z"/>
    <path id="c" d="M32.653947 7.25926H.06648V.09462h32.587467z"/>
  </defs>
  <g fill="none" fill-rule="evenodd">
    <circle fill="#5791A4" cx="40" cy="40" r="40"/>
    <path d="M56.428037 6.67068c-4.440223-.894517-7.866865 1.46489-8.59562 5.92178-.030873.188888-.026718.383555-.03874.572296.51577.24074.661225-.05215.821373-.43363.70768-1.68474 1.877254-2.889778 3.694546-3.35052 3.05974-.776147 5.912133 1.411112 6.046604 4.58741.08579 2.029777-.591465 3.831703-1.591243 5.535258-1.704935 2.90474-4.04987 5.281482-6.432653 7.618222-.124378.122074-.54219.078815-.744935-.03126-5.27407-2.860592-10.82835-3.32874-16.40728-1.34711-5.68787 2.020296-9.3082 6.08963-10.35147 12.170667-1.02843 5.993185 1.88764 11.933037 7.23413 14.844592.21195.115556.42701.225037.58063.305778-1.63518 1.596444-3.27585 3.13052-4.83518 4.742667-1.16498 1.20474-1.9632 2.653037-2.36334 4.298074-.36958 1.52-.02331 2.87274 1.12668 3.918815.94308.85792 2.00296 1.58799 3.07784 2.42651-1.51377 1.57718-3.0593 3.18726-4.60483 4.79748-.56149-.24-1.15369-.42637-1.67941-.7283-3.77336-2.16815-7.06568-4.9163-9.89893-8.21926-1.70508-1.988-3.20534-4.11289-4.44408-6.41882-2.42746-4.51822-4.0046-9.30889-4.30931-14.44074-.15258-2.57023-.19681-5.17467.04082-7.73304.28141-3.02726 1.04386-5.98637 2.1407-8.84845 1.67526-4.37155 4.04216-8.3234 7.18739-11.78518 2.49529-2.74637 5.31191-5.13393 8.517992-7.03689 2.4472-1.45274 5.009273-2.6603 7.72185-3.53082 2.69952-.86637 5.4544-1.53511 8.29403-1.63303 2.580927-.08904 5.18664-.18623 7.748126.06266 3.582782.348 7.057216 1.30563 10.36794 2.76163.593543.26089 1.13232.64563 1.696326.97319" fill="#337E97"/>
    <path d="M61.784386 70.415985c-1.3787-4.630963-4.790946-6.807704-9.317996-7.369037-3.25284-.40326-6.54768-.48163-9.825752-.66548-2.908942-.163112-5.823376-.23363-8.729944-.426816-.92156-.061185-1.859443-.294074-2.730093-.61111-1.3597-.49541-1.86849-1.68815-1.41046-3.04726.57381-1.70252 1.77188-2.94489 3.12223-4.049334.17173-.140444.5603-.102518.82048-.037037 4.05982 1.02267 8.13952 1.15556 12.14397-.10829 5.43852-1.71659 9.1482-5.24711 10.3249-10.94429.72594-3.5154.28141-6.9754-1.53276-10.16948-.08163-.14341-.15629-.29096-.28066-.52341 1.96334 0 3.83585-.0194 5.70746.0123.52898.00904.77833-.14177.9459-.66192.58019-1.80044 1.21811-3.58222 1.83407-5.37111-.0472-.06015-.09425-.12015-.1413-.18029-.23347.12459-.54605.19126-.68735.38341-.80059 1.08786-1.88452 1.55186-3.2 1.55363-2.56267.00326-5.12534.00089-7.84415.00089.94353-.99541 1.82516-1.87304 2.64668-2.80355 1.76312-1.99704 3.5954-3.94548 5.20178-6.06326.93655-1.23452 1.6469-2.70104 2.18271-4.16385.88816-2.42578.46531-4.70963-1.33774-6.65704.24683.07082.52987.08652.73484.22074 2.98538 1.9563 5.70449 4.23882 7.9295 7.02726 1.55919 1.95393 3.08215 3.97467 4.32208 6.13645 2.61151 4.55289 4.20468 9.484 4.51889 14.74474.15347 2.56963.19859 5.17318-.03695 7.73111-.26716 2.90148-.98701 5.74252-2.01098 8.49911C72.45869 60.07467 67.99057 65.9 61.78441 70.416" fill="#337E97"/>
    <g transform="translate(0 .09)">
      <mask id="b" fill="#fff">
        <use xlink:href="#a"/>
      </mask>
      <path d="M61.784386 70.325763c6.20616-4.516 10.674286-10.341333 13.349313-17.542963 1.02397-2.756593 1.74382-5.59763 2.01098-8.49911.23554-2.557927.19042-5.161483.03695-7.731112-.31421-5.26074-1.90739-10.191852-4.51889-14.74474-1.23993-2.16178-2.7629-4.18252-4.32208-6.136445-2.22501-2.788445-4.94412-5.070963-7.9295-7.02726-.20497-.134222-.48802-.149926-.73484-.22074-.9321-.878815-1.99421-1.52963-3.24839-1.842963-.56401-.327556-1.10279-.71215-1.69618-.973186-3.31073-1.456-6.78516-2.41363-10.36794-2.76163-2.56149-.248888-5.1672-.151703-7.74813-.062666-2.83963.098074-5.59451.766815-8.29418 1.633037-2.71243.87052-5.27451 2.078222-7.72171 3.530815-3.20609 1.902963-6.02271 4.29052-8.518 7.03689-3.14523 3.461777-5.51228 7.41363-7.18739 11.785184-1.09684 2.862222-1.85944 5.821186-2.1407 8.848446-.23778 2.55837-.1934 5.16281-.04082 7.733033.30471 5.132 1.88185 9.922666 4.30931 14.440888 1.23859 2.30578 2.73899 4.43067 4.44408 6.41867 2.83324 3.30311 6.12542 6.05111 9.89892 8.21926.52556.30193 1.11792.4883 1.6794.7283-.43325.5683-.89499 1.11793-1.2895 1.71185-.24965.3757-.48282.43363-.84052.18978-2.21952-1.51303-4.58345-2.85274-6.63659-4.56385C7.45012 64.80443 3.02963 57.57717 1.005 48.91436.06163 44.87777-.196326 40.7951.14193 36.6631c.650687-7.951556 3.428424-15.08444 8.378184-21.32459C14.635442 7.629023 22.555442 2.785023 32.234254.82858c3.929797-.79437 7.89447-.970963 11.86093-.546963 7.76341.830073 14.752206 3.645778 20.838736 8.556593 7.19704 5.806962 11.86613 13.226814 13.97165 22.22889.93789 4.009924 1.20223 8.073332.84602 12.180295-.900186 10.375555-5.232208 19.075555-12.8518 26.146814-1.334026 1.23792-2.84156 2.29007-4.274286 3.42103-.16475.12992-.364973.21481-.590576.34489-.08742-.98963-.169054-1.912-.250538-2.83437" fill="#5791A4" mask="url(#b)"/>
    </g>
    <path d="M48.265143 40.94868c-.049573 2.867853-.229017 5.094372-1.172542 7.19052-2.2584 5.018222-8.8699 6.088148-12.5781 2.02311-1.78389-1.955703-2.73618-4.314666-3.21959-6.87748-.62293-3.302667-.75503-6.61674.07006-9.901926.72921-2.904148 2.36156-5.14237 5.31948-6.04726 2.99607-.916444 5.68965-.21911 7.82472 2.129334 2.06605 2.272592 3.00156 5.067555 3.42976 8.04489.19266 1.338962.25826 2.696.32624 3.438814M26.29208 74.86751c.30961-.692443.527198-1.447554.948423-2.064.859814-1.25822 1.812838-2.454962 2.769573-3.643258.162523-.201926.54961-.361334.80668-.329334 5.737884.714223 11.509758.832297 17.27703 1.078075 2.379073.10148 4.756067.462222 7.1105.847555 1.223452.200148 2.34939.776148 2.92913 2.02089-2.393025 1.21911-4.834583 2.314814-7.41655 3.089332-2.66716.800148-5.39206 1.326074-8.15896 1.485334-2.033247.117037-4.087273-.001037-6.125418-.12474-3.507087-.21289-6.87065-1.100297-10.140408-2.359853" fill="#347E97"/>
    <g transform="translate(25.826 72.683)">
      <mask id="d" fill="#fff">
        <use xlink:href="#c"/>
      </mask>
      <path d="M.46648 2.184696C3.736236 3.444252 7.0998 4.33166 10.606886 4.544548c2.038144.123704 4.09217.241778 6.125417.12474 2.766902-.159258 5.4918-.685184 8.15896-1.485332 2.581968-.77452 5.023526-1.870223 7.41655-3.089334.1223.786667.266865 1.57126.34553 2.36237.01395.13926-.216995.364445-.385752.45126-3.50278 1.803408-7.20445 3.017185-11.07903 3.730074-3.02516.556593-6.07762.71526-9.13781.570222-3.95696-.187408-7.8118-.957926-11.52831-2.34637-.21536-.080593-.47569-.45926-.45476-.673926.06605-.67437.25662-1.336592.39881-2.003556" fill="#5791A4" mask="url(#d)"/>
    </g>
    <path d="M31.421225 33.38286c.72935-2.90415 2.361558-5.14237 5.31948-6.047112 2.996067-.916592 5.689647-.21926 7.82486 2.129334 2.0659 2.272592 3.00141 5.067555 3.42961 8.04474.192654 1.33911.258406 2.696148.326235 3.438815-.049573 2.868-.229017 5.09437-1.172542 7.19052-2.258404 5.01837-8.86976 6.088147-12.57796 2.023258-1.784043-1.955704-2.736325-4.314667-3.21974-6.87763-.62293-3.302667-.755027-6.616592.070056-9.901926M57.91859 75.62182c1.61974-.813185 3.176252-1.733037 4.66063-2.750666-.163264.11185-.327272.222666-.49217.332148-.085788-.971704-.166085-1.879704-.246234-2.78726-1.3787-4.630962-4.791094-6.80785-9.318144-7.369185-3.25284-.403112-6.547533-.48163-9.825752-.665482-2.908794-.162963-5.823376-.233482-8.729796-.426815-.921707-.061185-1.859443-.293926-2.73024-.61111-1.359704-.49526-1.868498-1.688-1.410465-3.047112.57395-1.702518 1.77187-2.944888 3.12222-4.049333.17172-.140444.56029-.102518.82048-.037037 4.05981 1.02252 8.13952 1.155556 12.14412-.108296 5.43836-1.716593 9.14805-5.24711 10.32475-10.944296.72608-3.515408.28156-6.975408-1.53277-10.169482-.08149-.143555-.15629-.290963-.28067-.523407 1.96334 0 3.83599-.019408 5.7076.012295.52883.00889.77833-.141778.94575-.661926.58018-1.800445 1.21811-3.582223 1.83406-5.371112-.04705-.060148-.09425-.120148-.1413-.180444-.23347.12474-.5459.191407-.68735.383555-.80045 1.08785-1.88438 1.55185-3.2 1.55363-2.56268.003258-5.12535.000888-7.84416.000888.94352-.995556 1.82515-1.873185 2.64668-2.803556 1.76311-1.997037 3.59539-3.94563 5.20192-6.06326.9364-1.234666 1.64675-2.701036 2.18256-4.164.88831-2.42563.46531-4.70948-1.33759-6.656888-.93225-.87882-1.99436-1.52963-3.24854-1.84326-4.44008-.89422-7.86672 1.46518-8.59548 5.92207-.03087.18889-.02672.3834-.03874.57229.51591.24074.66122-.05215.82152-.43363.70753-1.68474 1.8771-2.88978 3.69439-3.35067 3.05974-.776 5.91213 1.41126 6.0466 4.58755.08579 2.02978-.59147 3.83155-1.59139 5.53511-1.70479 2.90474-4.04972 5.28163-6.43266 7.61837-.12423.12207-.54204.07881-.744935-.03141-5.273914-2.8603-10.8282-3.32859-16.40727-1.34696-5.68772 2.02029-9.308054 6.08963-10.35147 12.17066-1.028274 5.99318 1.88779 11.93303 7.234287 14.84459.21195.11541.42701.22504.58078.30578-1.635327 1.59644-3.27614 3.13037-4.835327 4.74266-1.16497 1.20474-1.96334 2.65303-2.36334 4.29807-.36957 1.52-.0233 2.87274 1.12653 3.91882.94308.85807 2.00312 1.588 3.07785 2.42667-1.51362 1.57703-3.05914 3.18711-4.60467 4.79733-.433243.56829-.89484 1.11792-1.2895 1.71185-.123632.18607-.24341.29378-.3761.32578 1.537218.8077 3.132468 1.52 4.779964 2.12518-.15258-.15245-.280666-.38667-.265676-.53941.06605-.67452.256472-1.33674.39881-2.00371.30961-.6923.5272-1.44741.948422-2.06385.859814-1.25823 1.812986-2.45497 2.769572-3.64341.16252-.20178.54961-.36134.80668-.32934 5.73788.71437 11.50976.832443 17.27688 1.07822 2.379223.101334 4.75607.462223 7.1108.84741 1.223303.20015 2.34924.776442 2.92913 2.02089.12215.786812.266566 1.571404.34553 2.36222.00623.062814-.038445.14267-.103305.219703-.17039.08874-.34167.176145-.513546.262515" fill="#FFF"/>
  </g>
</svg>
