<svg width="80" height="80" xmlns="http://www.w3.org/2000/svg">
  <defs>
    <linearGradient x1="0%" y1="50%" y2="50%" id="a">
      <stop stop-color="#6BA03F" offset="0%"/>
      <stop stop-color="#427134" offset="100%"/>
    </linearGradient>
  </defs>
  <g fill="none" fill-rule="evenodd">
    <circle fill="#FFF" cx="40" cy="40" r="40"/>
    <path d="M23.03247 51.20605c2.389412.69832 4.61395.349412 6.488068-1.352269 2.149412-1.950756 4.187395-4.02605 6.366554-5.94252.891429-.78353.822858-1.624538.72-2.632438-1.48084 0-2.929411-.011596-4.37647.021177-.125546.003025-.339832.296975-.349916.465378-.041345.703361-.011597 1.410757-.02521 2.116639-.011597.57479-.048404 1.149075-.075126 1.754622-.669076 0-1.251429.020672-1.831765-.00605-.578824-.025715-1.043697.045377-1.49647.529411-.70437.753782-2.010757.62269-2.701009-.14874-.69832-.779495-.62874-1.991596.156303-2.720672.784033-.728571 2.053613-.741176 2.684873.131597.587395.812773 1.274118.489075 2.011261.531933 0-.702353-.035294-1.328068.010084-1.947227.041849-.567731-.124538-.765378-.725042-.750757-1.692605.04084-3.387227.025715-5.08084.005547-.437647-.005042-.728572.092773-.997311.48353-.49311.716974-1.398152.939831-2.208404.644873-.811764-.295462-1.315966-1.058824-1.272605-1.926555.041345-.820336.661513-1.560504 1.49042-1.779327.77143-.203194 1.655295.131092 2.08185.872269.208739.361512.455293.431596.828403.431092 3.790588-.008067 7.58168-.002017 11.372773 0h.605546c.21479-.915126.00353-1.525714-.658992-2.1121-1.901344-1.68353-3.732605-3.446724-5.591596-5.177648-1.785883-1.662353-3.834454-2.655126-6.33832-2.436302-.503193.043865-.673109-.114958-.666554-.62521.022689-1.754118-.010084-3.50874.016134-5.262858.007563-.512773-.168403-.658991-.662017-.645378-1.148571.03126-2.298655.036303-3.447226.005042-.516303-.014117-.648404.174958-.645379.665042.01563 2.742353-.008571 5.484706.009076 8.22706.003025.5042-.143193.867226-.504706 1.220167-2.279496 2.225546-4.539832 4.47126-6.80521 6.711429-.136134.134622-.263193.278823-.413445.43916 2.973781 2.818487 5.91731 5.574453 8.81647 8.375293.930252.898992 2.009748 1.482353 3.215799 1.83479m27.550084 1.74353c-2.262858-2.545714-4.629076-5.000168-6.955463-7.489412-.118991-.127563-.276302-.301008-.42252-.308067-.692774-.03227-1.388068-.014622-2.015295-.014622v5.335462c.275294.013614.471429.030757.668068.03227 1.048739.008066 2.097479.028739 3.145714.010587.412437-.007563.58084.11042.562185.544034-.027731.643865-.02521 1.29126.01563 1.934118.012605.197647.17647.395798.298487.575294.285379.422017.721513.794622.85563 1.256975.278824.962016-.346386 1.930588-1.292268 2.22605-.927731.289412-1.955294-.199664-2.342521-1.115294-.368572-.87126 0-1.888235.851092-2.402017.169916-.102857.409412-.266723.422521-.418487.037311-.449244-.022689-.906555-.045882-1.391093H41.22457v6.38168c.19563.094286.382185.170925.55664.269749.727562.411932 1.125881 1.271092.958486 2.050588-.177983.826387-.796638 1.413782-1.600336 1.520168-.864201.114454-1.652773-.316639-2.026386-1.108235-.339832-.718992-.202185-1.658824.42353-2.154958.390251-.30958.458319-.639832.45479-1.086555-.030253-3.911596-.043866-7.823193-.062018-11.73479-.001008-.216302 0-.432605 0-.692269-.58689.02521-1.115798-.209748-1.58168.274286-2.056135 2.13479-4.13647 4.246387-6.192101 6.381177-.976639 1.014958-1.785883 2.151428-2.015798 3.579327-.12706.790588-.155295 1.60084-.181009 2.40353-.012605.393277-.143193.52437-.533445.521848-1.79395-.011092-3.588908-.013613-5.383362.014622-.476974.007563-.574285-.185546-.56773-.607563.019663-1.169244-.00706-2.338991.0121-3.508235.00605-.371597-.139664-.504706-.48252-.624202-1.136976-.396806-2.256303-.844538-3.37916-1.281176-.290925-.113446-.569748-.258152-.905043-.412437v11.295126h.778488c4.375462.002017 8.750924-.004538 13.126386.023697.336303.002017.747227.168404.994286.397815 1.994118 1.852437 3.956975 3.738152 5.93042 5.613278.552605.524874 1.10874 1.046218 1.716303 1.619495.169916-.195126.307059-.369075.461344-.526386 2.705042-2.769076 5.382857-5.566387 8.135294-8.288067.961009-.949916 1.543362-2.04 1.87916-3.305042.563193-2.11916.318151-4.13042-1.158655-5.79227M11.775664 30.54084c1.893781-.014622 3.788067-.013613 5.681849.00353.416974.004033.573781-.128068.563193-.554622-.023698-.946387-.007563-1.893782-.007563-2.840672h-.003025c0-.946891-.014118-1.894286.006554-2.841177.008572-.409412-.117983-.57479-.550588-.570252-1.893277.018151-3.787563.017647-5.681849.00353-.41395-.003026-.570252.1321-.567227.557142.015127 1.893782.014622 3.788068-.002016 5.68185-.004034.421007.140672.5642.560672.560671m50.078823 1.54185c-.908067-.915127-1.958319-1.460169-3.153781-1.788404-2.156975-.591933-4.198487-.33832-5.897143 1.179832-2.524538 2.25731-4.971933 4.601344-7.447563 6.914117-.125042.11748-.282353.281849-.289412.430588-.03126.67664-.013613 1.355799-.013613 1.995127h5.348067v-4.39563c.873277 0 1.65731.026722 2.437815-.016135.229412-.01311.50874-.171933.661009-.352437.48958-.578824 1.065882-.936807 1.836302-.828908.949916.133614 1.629076.868236 1.701177 1.776303.069075.864202-.529412 1.718823-1.38353 1.976975-.87832.26521-1.748067-.11647-2.262353-.958992-.09731-.159832-.291933-.339832-.460336-.361513-.411428-.051932-.834454-.017142-1.273613-.017142v3.197647c1.96689 0 3.881344-.011093 5.795294.009075.39126.004034.596975-.088235.76084-.474958.348908-.821344 1.205546-1.232269 2.08689-1.088067.826387.13563 1.434959.80168 1.557984 1.704706.102857.75731-.40437 1.59731-1.172269 1.939664-.775966.346386-1.671933.146723-2.22353-.564202-.229915-.295966-.46437-.36353-.810756-.359496-3.992269.044874-7.985042.074622-11.97731.109916-.176975.002017-.352942.022185-.706387.044874.127563.53647.08521 1.168235.380168 1.467227 2.179664 2.211429 4.41479 4.368403 6.65647 6.516807 1.15311 1.104706 2.522017 1.792941 4.145547 1.894286.656975.04084 1.314454.074117 2.073277.11647 0 2.025883.009076 4.018488-.020672 6.010588-.002017.124034-.303025.34084-.472437.3479-.845042.03731-1.69311.013613-2.540168.021176-.502185.005042-1.117815-.142185-1.473278.093781-.313613.207732-.31563.861681-.493613 1.302858-.46437 1.151596-.95042 2.294621-1.437479 3.463361.08874.007563.185042.023697.28084.023697 3.468404-.000504 6.937311-.017142 10.405715.008068.608067.004538.618655-.289916.617647-.739664-.011597-4.396135-.00353-8.792269-.021177-13.188403-.002017-.461345.137647-.79311.45126-1.121345 2.243194-2.347059 4.470757-4.708235 6.702354-7.066387.159832-.168907.309075-.347395.474958-.534958-2.98084-2.918823-5.94605-5.770084-8.843194-8.688403m-23.689411 4.20605c.117479.126555.278319.290925.425546.297984.674622.032269 1.35126.014117 1.956302.014117 0-1.735462.010589-3.365546-.021176-4.995126-.002521-.122016-.304538-.335294-.472437-.34084-1.088067-.035294-2.177647-.042353-3.266219-.020672-.439663.008571-.62521-.121513-.60605-.579328.024202-.583866-.02168-1.170252.001513-1.754118.014117-.356974-.090757-.588907-.39126-.803697-.706892-.50521-.98622-1.211597-.766892-2.064706.229916-.891429.95647-1.43647 1.854454-1.43748.885378-.000503 1.637647.534959 1.879664 1.338656.258655.85664-.077143 1.79748-.87832 2.242185-.367058.203698-.461344.447731-.436134.82084.021177.297984.004538.598488.004538 1.046723.903025 0 1.709244-.033277 2.511429.011597.513781.029244.605042-.185042.6-.63126-.020673-1.754118-.022185-3.50874-.011093-5.262858.002521-.367059-.099832-.56874-.45479-.737143-.855126-.405882-1.271092-1.31294-1.060336-2.149411.222353-.882353.842521-1.444538 1.665883-1.510589.898991-.0721 1.655294.359496 2.007226 1.145547.358992.802184.19311 1.631596-.525378 2.231092-.30605.255126-.3721.523361-.369075.883361.012605 1.673446.000504 3.347395.0121 5.02084.016135 2.318824.041345 4.637144.078656 6.955463.00353.191597.117479.539496.19916.545042.459831.033277.932268.179496 1.34773-.255126 2.088404-2.188235 4.20706-4.347227 6.304538-6.526387 1.074454-1.116302 1.82269-2.411092 1.986555-3.980168.065042-.61916.064034-1.24689.069076-1.871092.00252-.345378.10689-.513277.487059-.510756 1.835294.011092 3.670588.010588 5.505378-.00605.380168-.00353.481512.143192.47647.49815-.01563 1.210084.005547 2.420169-.014117 3.629748-.005042.33832.103361.479496.428067.598488 1.299832.477479 2.584538.996806 3.872773 1.504537.181513.071093.355462.16185.575294.263194.012605-.157815.026723-.25311.026723-.348404-.006555-3.489075-.02269-6.977647-.011093-10.466218.001513-.484538-.191092-.556134-.611092-.554622-4.476807.014622-8.953614.019664-13.43042-.002017-.321177-.001008-.715463-.155798-.95042-.373613-1.965379-1.824202-3.900505-3.68168-5.847227-5.52605-.567731-.53748-1.143026-1.066387-1.746555-1.629076-.199664.190588-.361008.336302-.513277.491092-2.71311 2.762521-5.402017 5.54874-8.149412 8.27647-.895966.889917-1.451597 1.918992-1.781345 3.097816-.613613 2.195294-.376638 4.266555 1.181345 6.00605 2.246723 2.507395 4.564034 4.95126 6.856639 7.417815M13.783395 22.190252c.899496.024202 1.800504.007563 2.7721.007563 0-.891933.013614-1.69563-.009075-2.497815-.00605-.215294-.111428-.60353-.19311-.60958-.293444-.020672-.694789-.013613-.87731.165378-.687227.671093-1.317479 1.403194-1.942185 2.13479-.295462.346387-.149244.789076.24958.799664m10.375966 1.34168c1.068404-.01563 2.137815.002522 3.20521-.029747.155295-.004538.414454-.194622.43916-.332269.2879-1.58521.844034-3.058487 1.854454-4.504034-1.962353 0-3.772941.003026-5.58353-.00252-.404874-.00101-.448235.251596-.44521.562184.011597 1.270084.027227 2.540168.025715 3.810757-.000504.363529.143193.501176.504201.49563m-5.489748-.484034c.623194-.020168 1.248404-.005042 1.872606-.005042v.002521c.64437 0 1.289243-.011092 1.933109.004538.359495.008571.504201-.126555.500168-.494622-.014118-1.28874-.016639-2.577983-.000504-3.866218.005042-.402857-.157816-.523362-.539496-.518824a159.633876 159.633876 0 0 1-3.806219.003025c-.386218-.004033-.54353.131597-.54.525379.011597 1.26857.012605 2.537647-.00605 3.806218-.006555.436639.187563.55563.586386.543025" fill="url(#a)"/>
  </g>
</svg>
