<svg width="80" height="80" viewBox="0 0 80 80" xmlns="http://www.w3.org/2000/svg">
  <title>
    gtc-game
  </title>
  <defs>
    <linearGradient x1="50%" y1="0%" x2="50%" y2="100%" id="a">
      <stop stop-color="#FFDA05" offset="0%"/>
      <stop stop-color="#FF5F25" offset="100%"/>
    </linearGradient>
    <linearGradient x1="50%" y1="0%" x2="50%" y2="98.505262%" id="b">
      <stop stop-color="#00F2DC" offset="0%"/>
      <stop stop-color="#59A8F2" offset="100%"/>
    </linearGradient>
    <linearGradient x1="50%" y1="0%" x2="50%" y2="98.248166%" id="c">
      <stop stop-color="#D07AFF" offset="0%"/>
      <stop stop-color="#8546FF" offset="100%"/>
    </linearGradient>
  </defs>
  <g fill="none" fill-rule="evenodd">
    <circle fill="#FFF" cx="40" cy="40" r="40"/>
    <path d="M41.02068 39.03083c0 6.987203.002138 13.974407-.00095 20.96161-.001188 2.72512-1.070249 3.78839-3.81037 3.790285-4.986575.003318-9.97315.006161-14.959724-.009952-.545696-.001896-1.121088-.043129-1.630199-.218484-1.328961-.457583-1.911243-1.718483-1.478392-3.043365.085762-.262085.176751-.529858.315254-.765877 1.84401-3.14763 2.135983-6.55308 2.078492-10.13744-.135652-8.445498-.035873-16.894787-.024708-25.342654.00784-5.91564 4.05174-9.970143 9.989304-10.01564 1.978713-.015166 3.957663-.018484 5.936376.001895 2.439834.025119 3.547619 1.12654 3.552845 3.581043.01473 7.066114.005227 14.132465.005227 21.198578h.026845z" fill="url(#a)"/>
    <path d="M44.586544 50.60981c0-3.159004-.011166-6.31801.003564-9.476777.011878-2.52109.925806-3.419431 3.445464-3.421327 3.56306-.002606 7.125884-.009479 10.68847.01019 2.743922.015166 3.865486 1.559241 2.713038 3.995497-.980685 2.072275-1.28715 4.172038-1.208276 6.419432.087188 2.484834.02827 4.974881.024707 7.462559-.00689 4.6891-3.319077 8.050948-8.042425 8.15-1.345354.027962-2.692133.017535-4.037724.00308-2.460265-.026777-3.572326-1.111374-3.588718-3.54763-.021382-3.198104-.005227-6.396682-.005227-9.595024h.007127z" fill="url(#b)"/>
    <path d="M44.575521 24.545995c0-2.249052-.016867-4.498104.004751-6.74692.023045-2.436018 1.129879-3.555923 3.581354-3.54218 1.9331.010901 3.894707-.053554 5.791934.244077 3.690635.57891 6.222884 3.629383 6.326939 7.348578.084575 3.03436.15442 6.069905.171525 9.10545.014967 2.699526-1.012282 3.68128-3.72247 3.722512-2.766967.04218-5.53322.133412-8.29995.1391-2.833486.005687-3.859072-1.056873-3.865249-3.87891-.004751-2.13057-.00095-4.261138-.00095-6.391707h.012116z" fill="url(#c)"/>
  </g>
</svg>
