<svg width="80" height="80" viewBox="0 0 80 80" xmlns="http://www.w3.org/2000/svg">
  <title>
    gto-gifto
  </title>
  <g fill="none" fill-rule="evenodd">
    <circle fill="#7F27FF" fill-rule="nonzero" cx="40" cy="40" r="40"/>
    <path d="M38.666667 34.666667H21.333334V52c0 3.733334 2.933333 6.666667 6.666666 6.666667h10.666667v-24zm2.666667 0h17.333333V52c0 3.733334-2.933333 6.666667-6.666667 6.666667H41.333334v-24zm0-2.666667h16.8c1.866666 0 3.2-1.6 3.2-3.2 0-1.866666-1.6-3.2-3.2-3.2h-36c-1.866667 0-3.2 1.6-3.2 3.2 0 1.866667 1.6 3.2 3.2 3.2h16.533333v-4.266666h2.666667V32z" fill="#FFF" fill-rule="nonzero"/>
    <path d="M41.866667 26.666667C45.6 20 48.533334 17.866667 50.666667 20c2.133333 2.133334.8 4.266667-3.733333 6.666667h-5.066667zm-3.733333 0C34.4 20 31.466667 17.866667 29.333334 20c-2.133334 2.133334-.8 4.266667 3.733333 6.666667h5.066667z" stroke="#FFF" stroke-width="2.666667"/>
  </g>
</svg>
