<svg width="80" height="80" viewBox="0 0 80 80" xmlns="http://www.w3.org/2000/svg">
  <title>
    gup-matchpool
  </title>
  <g fill="none" fill-rule="evenodd">
    <circle fill="#FFF" cx="40" cy="40" r="40"/>
    <g fill-rule="nonzero" fill="#37DCD8">
      <path d="M40.134 30.035l8.456-8.46c-2.52-4.06-5.337-7.93-8.425-11.575-3.093 3.663-5.913 7.548-8.437 11.625l8.406 8.41z"/>
      <path d="M57.4 38.468c-2.292-5.028-4.576-9.703-7.218-14.245L40.134 34.278l-9.995-10c-2.5 4.314-4.702 8.802-6.883 13.67-2.374 6.605-6.276 13.73-2.927 20.074 5.756 10.932 19.283 15.162 30.21 9.403 4.003-2.12 7.277-5.396 9.396-9.403 3.317-6.344-.163-12.95-2.536-19.553"/>
    </g>
  </g>
</svg>
