<svg width="80" height="80" xmlns="http://www.w3.org/2000/svg">
  <g fill="none" fill-rule="evenodd">
    <circle fill="#294858" cx="40" cy="40" r="40"/>
    <path d="M68 35.471025C68 51.201718 55.43902 64 40 64S12 51.201718 12 35.471025c0-1.175122.069804-2.333063.207843-3.471025h5.03c-.166078 1.132768-.252745 2.292707-.252745 3.471025 0 12.930338 10.32451 23.449499 23.014902 23.449499 12.107255 0 22.062745-9.576186 22.951765-21.685217H27.354314C28.201764 43.574213 33.549216 48.475882 40 48.475882c4.99353 0 9.327255-2.937605 11.422745-7.205963h5.388824C54.435294 48.406359 47.795098 53.555159 40 53.555159c-9.785882 0-17.748824-8.113377-17.748824-18.084134 0-1.186909.113138-2.346648.32902-3.471025h45.21196C67.930197 33.137962 68 34.295903 68 35.471025" fill="#09E0E4"/>
  </g>
</svg>
