<svg width="80" height="80" viewBox="0 0 80 80" xmlns="http://www.w3.org/2000/svg">
  <title>
    gxs-gxshares
  </title>
  <defs>
    <linearGradient x1="50%" y1="0%" x2="50%" y2="100%" id="a">
      <stop stop-color="#00387D" offset="0%"/>
      <stop stop-color="#2D6BAF" offset="100%"/>
    </linearGradient>
  </defs>
  <g fill="none" fill-rule="evenodd">
    <circle fill="url(#a)" cx="40" cy="40" r="40"/>
    <path d="M36.590874 31.955807c-.09114-.09596-.16154-.17403-.235217-.247762-.833356-.83003-1.666166-1.66006-2.500068-2.48955-2.13661-2.127392-4.27157-4.256954-6.41199-6.381094-.82026-.8143-1.81625-1.16453-2.95904-.94713-1.26941.24234-2.14206.99756-2.52954 2.22932-.39076 1.24044-.10424 2.35998.80825 3.28434 2.33416 2.3654 4.68578 4.71399 7.03141 7.068.63688.63865 1.27814 1.27351 1.91775 1.90891.07422.07373.15335.14313.26305.24505 1.53791-1.555962 3.06328-3.10001 4.61538-4.67007m11.432312 4.66953c.11024-.10084.190466-.168604.264142-.24342.793515-.805634 1.58212-1.616147 2.380002-2.417443 1.06803-1.071286 2.143695-2.134982 3.215-3.203016 1.12151-1.11791 2.252842-2.226606 3.36071-3.35753.86337-.88045 1.15371-1.93981.854094-3.137416-.35692-1.42585-1.683082-2.45214-3.16206-2.438043-.93759.008675-1.734382.36595-2.399102 1.03117-4.01888 4.02329-8.04104 8.043865-12.06429 12.062816-1.620864 1.618856-3.24774 3.232292-4.87134 4.84898-.07367.072646-.13971.152342-.192644.210894 1.553198 1.53916 3.08893 3.060973 4.646493 4.60447 1.11005-1.106525 2.24193-2.233653 3.339974-3.32771 1.14552 1.12279 2.27249 2.22823 3.40928 3.34289-.040383.046626-.084043.10084-.132615.149635-1.018364 1.03117-2.034546 2.065048-3.06055 3.088625-.166453.1659-.185555.26511-.00764.441853 3.013616 2.99158 6.01086 5.99942 9.033754 8.98124.88411.871777 1.984334 1.14231 3.19153.80672 2.40838-.669013 3.19808-3.654086 1.435312-5.4486-1.93904-1.973967-3.89718-3.93004-5.85696-5.883946-3.32633-3.31741-6.659755-6.62669-9.989905-9.939762-.067125-.066683-.129886-.138247-.20029-.214148 1.135157-1.15261 2.25339-2.28841 3.37927-3.431807 1.15971 1.174837 2.287224 2.317688 3.427836 3.47355M36.58815 48.06848c-.063853-.072648-.111333-.13391-.16591-.18921-1.457143-1.46814-2.909922-2.94116-4.37471-4.40225-2.99997-2.993207-6.00922-5.976653-9.009194-8.9704-1.257947-1.255618-2.508254-2.518284-3.748738-3.790708-1.372554-1.406877-2.12241-3.094045-2.266488-5.052288-.111878-1.514764.182825-2.942785.877562-4.2884 1.269407-2.460272 3.3045-3.89263 6.042512-4.28352 2.66598-.38059 4.96849.430467 6.89334 2.296002.565396.548112 1.11933 1.10761 1.6749 1.665482 2.428576 2.436418 4.85606 4.87392 7.28409 7.31088.060577.060722.127704.11548.208475.18867.090593-.084576.16918-.15343.242856-.22716 2.319426-2.309557 4.64049-4.618028 6.957186-6.930836.76896-.767683 1.500806-1.575486 2.299234-2.311724 1.358363-1.252907 2.984145-1.95011 4.84023-2.049866 3.26575-.175656 5.78983 1.131465 7.51712 3.877993.66199 1.05177 1.019458 2.235823 1.11278 3.490356.188283 2.53455-.629246 4.69122-2.424755 6.48899-1.01891 1.02033-2.0471 2.03198-3.06601 3.05284-1.94887 1.95282-3.89391 3.90944-5.84059 5.86497-.06113.06126-.11679.12795-.18556.20439.084047.08891.1539.16753.228124.2418 2.217915 2.21089 4.44238 4.41581 6.652112 6.63537.985076.98942 1.98761 1.968 2.89574 3.02519 1.06366 1.23827 1.602312 2.719968 1.73329 4.34912.168636 2.10734-.420225 3.981008-1.70055 5.65679-1.325073 1.734337-3.09275 2.72213-5.245175 3.000255-2.65888.34372-4.96139-.438057-6.858406-2.324736-2.966683-2.950376-5.91754-5.916474-8.87549-8.87498-.28379-.284085-.285426-.28354-.570852.000543-2.728733 2.714-5.45474 5.43071-8.18675 8.141456-.551205.545942-1.08276 1.124415-1.697274 1.59229-1.25631.95635-2.703632 1.447537-4.289574 1.527233-2.483695.12415-4.616475-.68148-6.315932-2.475455-1.184817-1.25128-1.923213-2.75466-2.139875-4.484658-.29634-2.3616.302345-4.46731 1.830437-6.302485.270146-.32529.58286-.616966.88193-.91786 2.414932-2.425574 4.8315-4.849523 7.24425-7.277267.099326-.09921.16809-.2277.231943-.31607 1.18427 1.166703 2.303054 2.268892 3.44585 3.394394-.04475.049336-.104235.12144-.169724.18704-.368924.369206-.74058.7357-1.109503 1.1049-2.216822 2.222814-4.43474 4.445625-6.64938 6.670063-1.40312 1.409586-1.332717 3.57276.153353 4.85603 1.28469 1.10978 3.22537 1.03388 4.46967-.1968 2.13824-2.115468 4.26447-4.2434 6.395615-6.365917.846454-.84304 1.692908-1.68554 2.53827-2.529667.07968-.079695.15281-.16644.239584-.260773" fill="#FFF"/>
  </g>
</svg>
