<svg width="80" height="80" viewBox="0 0 80 80" xmlns="http://www.w3.org/2000/svg">
  <title>
    hac-hackspace-capital
  </title>
  <g fill="none" fill-rule="evenodd">
    <circle fill="#000" cx="40" cy="40" r="40"/>
    <path d="M39.044379 39.254899c.52423-.8166.993706-1.552632 1.467846-2.28583 2.118217-3.276316 4.238462-6.551215 6.353434-9.829555.079293-.123077.111133-.276518.172377-.43502-1.369084-.143117-13.987734-.104049-14.775601.045547-1.177035 2.0417-2.37151 4.109311-3.561727 6.179352-1.181091 2.054048-2.415112 4.078745-3.634126 6.32166 4.758636.009514 9.336377.00506 13.977797.003846m7.893881 13.996558c-.895958-1.445344-1.77042-2.866396-2.655426-4.280769-.874056-1.39676-1.734525-2.802631-2.645287-4.175303-.92435-1.393118-1.682609-2.898381-2.685846-4.13826H24.974106c2.493797 4.300405 4.933245 8.507086 7.34856 12.672268 1.651986.153036 13.787979.098583 14.615594-.077936m8.672623-13.253846c-2.415112-4.177125-4.804469-8.309716-7.213091-12.475303-.344147.196963-.534168.50587-.730273.82085-.604944.971053-1.217797 1.93745-1.839574 2.897773-1.77407 2.739271-3.555643 5.473887-5.32809 8.21417-.123301.190284-.19651.412956-.276413.584413 2.583636 4.093725 5.133406 8.134413 7.684392 12.17409.053538.08502.11742.163967.181909.241295.019874.023886.055972.039878.087405.046963.027986.006276.060028-.004656.194686-.020243 2.379216-4.102834 4.79007-8.260324 7.239049-12.484008m11.274307-.932186c-1.448986-2.57166-2.926972-5.072267-4.380825-7.586032-1.465413-2.533604-2.938734-5.06255-4.408-7.593927-1.46663-2.526519-2.933056-5.053442-4.394818-7.572268H34.062463c-2.02635 0-4.0527-.003036-6.078846.004251-.244574.00081-.488944.0583-.853776.104859.95842 1.581376 1.84221 3.045141 2.731678 4.505263.88663 1.45587 1.643671 2.995344 2.698825 4.347976h16.089119c2.71586 4.66498 5.380818 9.329352 8.06342 13.904655 2.675909.142713 9.21186.084413 10.172307-.114777M53.700127 63.696802c4.463364-7.700608 8.877042-15.314778 13.304916-22.95324-.836944-.180768-9.19888-.20425-10.258699-.032793-1.335217 2.30243-2.68686 4.66498-4.069734 7.009312-1.380035 2.339676-2.65279 4.744332-4.133616 7.046356H32.635582c-1.105042 1.493522-5.032007 8.169636-5.188972 8.815182.086797.037652.176028.110122.265461.110122 8.641392.005263 17.28319.00506 25.988056.00506m-30.658475-23.69919c2.755608-4.760324 5.463356-9.438056 8.184895-14.139473-1.772853-2.911944-3.447553-5.854049-5.354252-8.857693-4.49277 7.75992-8.904217 15.379353-13.29579 22.964778.183531.35668.310077.631781.461566.892307 1.87851 3.22834 3.765133 6.452025 5.640399 9.681984 2.281266 3.92915 4.552594 7.863765 6.833657 11.792915.123301.21255.296693.39575.525448.695952 1.813818-3.024697 3.553615-5.925911 5.264818-8.779555-2.774468-4.78664-5.488706-9.46923-8.260741-14.251215m31.509412 24.911336H25.447435c-4.788042-8.257085-9.595147-16.547166-14.447476-24.915182 4.807916-8.29919 9.63165-16.625304 14.479518-24.993725h29.02028c4.807307 8.286843 9.636517 16.611337 14.493307 24.983604a867540.977816 867540.977816 0 0 0-14.442 24.925303" fill="#FFF"/>
  </g>
</svg>
