<svg width="80" height="80" xmlns="http://www.w3.org/2000/svg">
  <g fill="none" fill-rule="evenodd">
    <circle fill="#FFF" cx="40" cy="40" r="40"/>
    <path d="M35.184188 24.457276c-2.360408-3.51238-5.995438-3.757905-8.45178-2.684-2.010424.878857-3.959989 3.364762-3.568104 6.616572.340695 2.826666 2.334245 4.839047 5.75788 5.541523.335767 3.69219.674945 7.42419 1.013744 11.151048-2.189018 1.386286-2.943212 3.034286-2.187691 4.94762.659018 1.669142 2.05422 2.545142 4.308078 2.277523.68632-.081333 1.26135-.446667 1.72452-.91962 1.012985-1.034285 1.337755-2.32438 1.123138-3.738856C40.178586 44.8108 45.38362 42.010038 50.563817 39.2228c.475873.370667.846334.659048 1.266658.986476a123368.914845 123368.914845 0 0 1-3.132045 7.11619c-.206465.01962-.300502.033905-.394728.036572-2.642331.068953-4.569335 2.29962-4.23338 4.871048.267703 2.049714 2.112614 4.13581 4.99345 3.627428 1.690963-.298476 2.88368-1.399047 3.349885-3.114666.447056-1.644762-.043606-3.052762-1.267796-4.205715-.182007-.171428-.422219-.278285-.510568-.668952.997438-2.274667 2.033364-4.63619 3.05052-6.95562 3.22191-.337332 4.85391-1.55257 5.412446-4.058094.402312-1.804953-.271494-3.970667-2.06787-5.114476-.998955-.636191-2.075832-.857143-3.238784-.80343-1.526398.070477-2.614271.961144-3.659487 1.998668-4.819216-1.450096-9.611699-2.89219-14.401718-4.333524.191108-.784381.122287-1.470857.07394-2.177143 2.31889-.901905 4.631142-1.801333 6.93221-2.696572 1.77495 1.338286 3.571705 1.470286 4.959322.376762 1.379276-1.087047 1.903874-3.07181 1.195751-4.609333-.75078-1.630857-2.31832-2.29238-4.171193-2.061333-.731442.091238-1.326.485714-1.857613 1.03581-.930324.962285-1.21945 2.1-1.06152 3.416761-2.247982.87219-4.43776 1.722095-6.617109 2.56762m5.288264 45.52038c-3.030992-2.094666-5.881115-4.288952-8.677204-6.550476-2.901502-2.346476-5.671807-4.848762-8.18768-7.61219-2.475112-2.718477-4.657684-5.654858-6.184461-9.034667-1.148733-2.542667-1.945963-5.17562-2.246275-7.972762-.180491-1.681524-.23187-3.35981-.11167-5.028571.27339-3.79143 1.230826-7.388572 3.256606-10.65962 2.579766-4.165904 5.908038-7.549523 10.164737-9.979047 2.344293-1.337905 4.858081-2.175429 7.528092-2.595048 1.91013-.30019 3.825-.413905 5.7448-.325905 5.166356.236762 9.851531 1.823238 13.953334 5.069715 3.21812 2.547238 5.836372 5.581905 7.67294 9.264571 1.23329 2.473333 1.945584 5.106286 2.297276 7.856381.239074 1.869333.247985 3.737714.12077 5.597714-.181629 2.654667-.812588 5.220953-1.80813 7.700953-1.678261 4.180571-4.18731 7.766666-7.433488 10.866095-2.767082 2.641905-5.680338 5.109143-8.62374 7.546095-2.212717 1.83181-4.498237 3.569524-6.739014 5.364572-.219547.176-.466394.317143-.726893.49219" fill="#269DDB"/>
    <path d="M33.86473 45.881657a428144.044398 428144.044398 0 0 0 15.715773-8.47981c-.413878-.872761-.101242-1.745714-.288748-2.625333-4.68252-1.403428-9.363903-2.806476-14.026706-4.20419-2.041517 2.29181-1.583654 2.095238-4.33917 3.382285.33823 3.638096.679114 7.302667 1.023412 11.005524.756468.105524 1.305524.470667 1.915438.921524m1.319365-21.42438c2.17935-.845525 4.369316-1.69543 6.617107-2.56762-.157929-1.316762.131387-2.454476 1.06152-3.416762.531804-.550095 1.126172-.944571 1.857804-1.03581 1.852874-.231047 3.420223.430477 4.171193 2.061334.707933 1.537524.183335 3.522286-1.19594 4.609333-1.387428 1.093524-3.184372.961524-4.959134-.376762-2.301067.895239-4.61351 1.794667-6.932208 2.696572.048345.706286.117167 1.392762-.07413 2.177143 4.790018 1.441333 9.582501 2.883428 14.401907 4.333524 1.045026-1.037524 2.1329-1.92819 3.659297-1.998667 1.163141-.053714 2.240019.167238 3.238784.803238 1.796565 1.144 2.470183 3.309714 2.06787 5.114667-.558535 2.505524-2.190535 3.720762-5.412446 4.058095-1.017156 2.319429-2.052892 4.680952-3.05052 6.955619.08835.390667.32875.497524.510758.668952 1.22419 1.152953 1.714851 2.560953 1.267796 4.205715-.466394 1.715619-1.659112 2.81619-3.349885 3.114666-2.881026.508381-4.725937-1.577714-4.99364-3.627428-.335765-2.571429 1.591238-4.802096 4.23357-4.871238.094226-.002477.188263-.016762.394538-.036381 1.028153-2.33581 2.07716-4.719238 3.132235-7.11619-.420513-.32743-.790785-.61581-1.266658-.986477-5.180197 2.787238-10.38542 5.588-15.660034 8.426286.214617 1.414476-.109963 2.704571-1.122948 3.738857-.46336.472952-1.0382.838286-1.72452.919619-2.254049.267619-3.64906-.608381-4.308268-2.277524-.75552-1.913333-.001327-3.561333 2.187881-4.947619-.3388-3.726857-.678167-7.458857-1.013743-11.151048-3.423636-.702476-5.417376-2.714857-5.757881-5.541523-.392075-3.25181 1.55749-5.737715 3.567914-6.616572 2.456342-1.073905 6.091372-.82838 8.45178 2.684" fill="#F7FCFC"/>
    <path d="M33.86473 45.881657c-.609915-.450857-1.15897-.816-1.91544-.921524-.344297-3.702857-.685181-7.367428-1.023412-11.005524 2.755517-1.287047 2.297654-1.090476 4.339171-3.382285 4.662803 1.397714 9.344186 2.800762 14.026706 4.20419.187506.87962-.12513 1.752572.288748 2.625334a428144.0444 428144.0444 0 0 1-15.715774 8.47981" fill="#269DDB"/>
  </g>
</svg>
