<svg width="80" height="80" xmlns="http://www.w3.org/2000/svg" xmlns:xlink="http://www.w3.org/1999/xlink">
  <defs>
    <path id="a" d="M.074785.036641h3.91888v19.093286H.074786z"/>
  </defs>
  <g fill="none" fill-rule="evenodd">
    <circle fill="#FFF" cx="40" cy="40" r="40"/>
    <path d="M48.335613 49.235201v8.90817c.148988.011772.243353.025915.337718.025915 2.950587.001226 5.901173-.004006 8.851677.008093.33007.001308.38569-.11944.38411-.406715-.010641-1.97496.016961-3.95033-.011722-5.924964-.032758-2.257004-.083806-4.514499-.186651-6.769132-.029682-.649437-.26547-1.289717-.406726-1.934167-.215418-.690803-.430836-1.381606-.64617-2.072163.044812-.14184.083722-.28556.135353-.424701.671529-1.811948 1.066282-3.681203 1.106522-5.608747.044646-2.13217.038078-4.265402.050633-6.398062.001247-.229886-.018873-.459854-.0291-.689822.013386-.106931.038328-.213944.038411-.320876.003243-2.719147.004573-5.438376.002993-8.157524-.000083-.120175-.030013-.240187-.046143-.360362.003492-.544303.030513-1.089915-.001413-1.632175-.012305-.20675-.111825-.449144-.25358-.601448-1.334993-1.435235-2.689108-2.853302-4.033663-4.280035-.145995-.155002-.26655-.33322-.41005-.514791-1.596472 1.69406-3.106476 3.284624-4.595446 4.893746-.155973.168572-.267049.446773-.267714.674534-.015215 4.818207-.011723 9.636414-.010974 14.454622 0 .13579.010143.27158.015464.407287-.006485.36584.00582.733069-.023363 1.09711-.075492.941536-.169275 1.881682-.255658 2.822318-.376296-.134645-.748434-.281798-1.129469-.401647-1.915649-.60251-3.875196-.922896-5.889616-1.012823-1.747871-.077991-3.484684-.034336-5.192647.297413-1.34788.261851-2.663418.684917-3.993256 1.036286-.08364-.618698-.235539-1.237068-.239696-1.856338-.025358-3.786254-.01696-7.572835-.021367-11.359253-.000166-.154266-.01563-.308531-.026272-.506044-1.02837.174377-1.992222.33788-2.956074.501384-1.425201.228251-2.850651.455194-4.27552.685326-.782937.12647-1.565044.25858-2.321792.383825v3.827538c-.009727 1.740415-.061524 3.481892-.015797 5.220999.036749 1.39624.116314 2.799836.31286 4.181442.267713 1.883153.903658 3.665261 1.89636 5.31109-.027437.076028-.04498.157371-.083973.227187-1.244203 2.22692-1.925875 4.631078-2.043353 7.147072-.113986 2.440864-.025358 4.890966-.025774 7.336981v10.540426h3.645229c1.135954-.017004 2.27199-.034008 3.408028-.050768.821598-.000245 1.64328-.000245 2.494475-.000245v-.57398c-.000083-2.640093-.000083-5.280105-.000166-7.920116 0-2.640094-.023196-5.280432.01455-7.919953.010891-.760865.197376-1.519358.30338-2.278996a6084.196384 6084.196384 0 0 0 1.958301.626137c.10218.038996.2017.089764.307538.115107 3.429395.819235 6.887474.94595 10.350042.282452 1.279704-.245173 2.520748-.685325 3.7795-1.036613" fill="#7B959D"/>
    <path d="M22.074785 57.451742c.000333-2.446015-.088295-4.896117.025774-7.336981.117478-2.515912.799067-4.920152 2.04327-7.147072.038993-.069734.056536-.151159.083972-.227188.205441-.300765.414624-.599077.615659-.902622.787094-1.188263 1.815048-2.161355 2.867279-3.113191.33406-.24501.668037-.49002 1.002097-.73503a38139.457395 38139.457395 0 0 0 3.162263-1.639125c1.329922-.35137 2.645377-.774353 3.99334-1.036286 1.707963-.331749 3.444776-.375404 5.192646-.297413 2.01442.089927 3.973968.410312 5.889617 1.012823.381035.119848.753173.267083 1.129386.401647-.300388 1.779982-1.11758 3.302937-2.493645 4.483025-.646004.55395-1.437838.943416-2.163658 1.40744-.384028.10922-.761737.27354-1.15333.317033-1.052813.116741-2.111529.18198-3.167834.267655-1.565626.051177-2.9446.628345-4.23528 1.453956.044315-.169226.088961-.338289.13286-.507678.09054-.349244.007483-.450698-.340046-.388812-1.542097.275177-2.99249.813185-4.368222 1.537506-.55031.289729-1.055307.662844-1.58084.998027-.084472.040957-.176093.07186-.252333.124344-1.1446.787597-2.109783 1.759463-2.98559 2.8224-.179417.23937-.366734.473343-.537172.718762-1.441414 2.075025-2.266254 4.378546-2.630495 6.85481-.046309.314907-.151732.621476-.229718.93197" fill="#A0B2BC"/>
    <path d="M39.101571 42.906465c1.056388-.085675 2.115104-.150913 3.167917-.267655.391594-.043492.76922-.207813 1.15333-.317034.517636-.063766 1.042836-.091807 1.551243-.197676 1.774725-.369518 3.471215-.951264 5.06594-1.81955 1.890624-1.029337 3.492831-2.385845 4.759649-4.095848 1.63031-2.200514 2.587011-4.677921 2.937118-7.381209.038244-.295778.121884-.585833.18449-.878505.010226.229886.030346.459854.029015.68974-.01247 2.132742-.005903 4.265892-.050466 6.398062-.040323 1.927544-.434993 3.7968-1.106605 5.608747-.05163.139223-.09054.282861-.13527.4247-.05903.106033-.126707.20814-.17601.318179-.99661 2.225284-2.410919 4.13934-4.380443 5.628613-.631704.477758-1.303316.90442-1.956637 1.354464-.603104.28793-1.206208.57586-1.80923.863708-1.258752.351288-2.499796.79144-3.7795 1.036613-3.462652.663498-6.920647.536783-10.350042-.282452-.105838-.025343-.205358-.076111-.307538-.115107.099603-.070797.25915-.1232.288-.215252.137016-.437863.213506-.894447.357256-1.329776.468582-1.418803 1.14194-2.724052 2.205063-3.816992.676434-.695381 1.486226-1.1872 2.35272-1.60577" fill="#A4C951"/>
    <path d="M57.921249 27.948955c-.062605.292672-.146245.582727-.18449.878505-.350106 2.703288-1.306808 5.180695-2.937117 7.38129-1.266818 1.710004-2.869026 3.06643-4.75965 4.095767-1.594725.868287-3.291214 1.450033-5.06594 1.81955-.508406.10587-1.033607.133992-1.551242.197758.725737-.464105 1.517654-.853489 2.163658-1.40752 1.375982-1.180007 2.193257-2.702961 2.493645-4.482944.086383-.940718.180166-1.880864.255658-2.822318.029182-.364041.016877-.73127.023362-1.09711.280684-.001553.36923-.15819.399991-.414154.01879-.156146.104425-.319732.20328-.44751.13053-.168817.315436-.295941.454614-.459445.12122-.142494.21866-.306488.313524-.468356.123464-.21043.236203-.42699.349192-.643142.065515-.125489.104425-.35186.186152-.366412.342873-.061232.390347-.344175.531354-.56515.268545-.420695.6914-.755223.71659-1.311463.003742-.083877.138098-.160806.209266-.243293.301719-.34949.604601-.69816.90158-1.051574.050467-.060087.11066-.144128.10559-.2128-.050634-.688269.64301-.909244.902078-1.402207.125875-.23937.296314-.455848.440979-.686062.272951-.43451.478559-.93336.834734-1.285547.237534-.234873.4246-.419469.528527-.7504.138263-.440152.500924-.798143.77213-1.154908.227057-.298558.468415-.566458.623057-.923223.10775-.248853.39043-.430587.475316-.681402.1154-.340987.252083-.490838.609423-.334692.01613.120094.04606.240187.046143.360362.00158 2.719148.000333 5.438295-.002993 8.157443-.000083.107013-.025025.213944-.038411.320957" fill="#BAD565"/>
    <path d="M48.335613 49.235201c.60302-.287848 1.206125-.575778 1.809395-.863708.155972-.04668.324748-.069489.465173-.143965.777035-.411784 1.566291-.805664 2.315224-1.26282 1.376065-.840246 2.643963-1.814564 3.669506-3.066838.218078-.266266.471824-.504409.709108-.755469.141257.64445.377044 1.28473.406726 1.934167.102845 2.254633.153893 4.512128.18665 6.769132.028684 1.974634.001082 3.950003.011724 5.924964.00158.287276-.054042.408023-.384111.406715-2.950504-.012099-5.90109-.006867-8.851677-.008093-.094365 0-.18873-.014143-.337718-.025916v-8.908169z" fill="#A1B2BC"/>
    <path d="M57.916543 19.110177c-.357422-.156146-.494023-.006295-.609422.334692-.08497.250815-.367566.432549-.4754.681401-.154559.356765-.396.624666-.622975.923224-.271288.356765-.633866.714756-.772129 1.154908-.103926.330931-.290993.515527-.52861.7504-.356175.352187-.5617.851036-.834734 1.285547-.144665.230213-.315104.446692-.440896.686061-.25915.492964-.952711.71394-.902079 1.402208.005072.068671-.055122.152712-.105588.2128-.297063.353413-.599862.702084-.90158 1.051573-.071252.082488-.205608.159417-.209349.243294-.025109.55624-.447963.890768-.716508 1.311463-.141007.220975-.18848.503918-.531437.56515-.081644.014552-.120637.240923-.186152.366412-.112905.216152-.225727.432712-.349109.643141-.094946.161869-.192304.325863-.313524.468357-.139178.163503-.324083.29071-.454614.459445-.098938.12786-.18449.291363-.20328.44751-.030762.256046-.11939.4126-.39999.414236-.005404-.135872-.015465-.27158-.015548-.40737-.000665-4.818207-.004157-9.636496.011058-14.454621.000665-.227761.111658-.506044.26763-.674535 1.489054-1.60912 2.998975-3.199603 4.595446-4.893746.143585.181571.264139.35979.410134.514792 1.344555 1.42665 2.69867 2.8448 4.033663 4.279953.141755.152467.241275.39478.253497.60153.032009.54226.004988 1.087871.001496 1.632175" fill="#B0CF5C"/>
    <path d="M28.71282 37.989657l-1.002098.73503c-.880295-.76119-1.707796-1.564647-2.422226-2.489833-1.684268-2.181384-2.660425-4.635492-3.06399-7.328806-.044315-.295778-.125793-.58616-.19006-.879077v-3.827457c.756748-.125325 1.53877-.257436 2.321791-.383906 1.424786-.230132 2.850236-.457075 4.275437-.685326.027187.363305.07757.72661.077903 1.089997.00532 4.589793.003326 9.179585.003242 13.769378" fill="#BCD667"/>
    <path d="M28.710018 45.999464c.525616-.335183 1.030614-.708298 1.580923-.998026 1.375732-.724322 2.826125-1.26233 4.368222-1.537507.347529-.061886.430587.039568.340046.388812-.043898.16939-.088545.338452-.132942.507679-.466254.475795-.98073.91513-1.388536 1.435235-.798485 1.018382-1.395686 2.142306-1.537524 3.452461-.105922.759638-.29249 1.518131-.303298 2.278996-.037746 2.63952-.014633 5.27986-.01455 7.919953 0 2.640011 0 5.280023.000083 7.920117v.574061c-.851196 0-1.672794 0-2.494475.000164-.055123-.354395-.156638-.708625-.158134-1.063428-.012638-3.075177-.007233-6.150272-.007233-9.225367 0-3.687416.003824-7.374832-.010809-11.062166-.000748-.197349-.157552-.394044-.241773-.590984" fill="#92A4AE"/>
    <g transform="translate(22 48.862307)">
      <mask id="b" fill="#fff">
        <use xlink:href="#a"/>
      </mask>
      <path d="M.074785 8.589435c.077986-.310493.183409-.617062.229718-.93197.36424-2.476263 1.189081-4.779784 2.630495-6.85481.170438-.245418.357755-.479392.537173-.718761.121053-.014225.242106-.028532.402235-.047253.032093.488304.090291.967042.090957 1.445781.006734 4.821314.012138 9.642628-.002079 14.463778-.00316 1.064246.161127 2.146803-.243353 3.183743H.074785V8.589435z" fill="#8899A1" mask="url(#b)"/>
    </g>
    <path d="M25.719956 67.992217c.40448-1.03694.240194-2.119498.243353-3.183661.014217-4.821232.008813-9.642546.002079-14.463778-.000666-.47882-.058864-.957478-.09104-1.445863-.160046.018803-.281099.03311-.402152.047253.875806-1.062938 1.840988-2.034722 2.985589-2.8224.07624-.052485.167861-.083387.25225-.124345.08422.197022.241025.393717.241773.590984.014633 3.687334.010725 7.374832.010725 11.062166 0 3.075177-.005321 6.150272.007316 9.225367.001414.354803.103012.709115.158134 1.06351-1.136037.016758-2.27199.033763-3.408027.050767" fill="#8D9EA7"/>
    <path d="M28.71282 37.989657c.000083-4.589793.002078-9.179585-.003243-13.769378-.000333-.363387-.050716-.726692-.077903-1.089997.963852-.163504 1.927704-.327007 2.956074-.501384.010725.197513.02619.351778.026355.506044.004324 3.786417-.004073 7.572998.021285 11.359253.004157.619351.156138 1.23764.239695 1.85642-1.05406.546347-2.10812 1.092695-3.162264 1.639042" fill="#B1D05D"/>
    <path d="M22.034429 28.026955c.064268.292917.145746.583299.190143.879077.403483 2.693396 1.37964 5.147422 3.063907 7.328806.71443.925185 1.541931 1.728642 2.422227 2.489833-1.052148.951837-2.080185 1.924929-2.867197 3.113192-.201034.303544-.4103.601857-.61574.902622-.992703-1.645828-1.628564-3.427854-1.896361-5.311008-.196462-1.381687-.276111-2.785284-.312776-4.181524-.04581-1.739025.00607-3.480502.015797-5.220998" fill="#A4C952"/>
    <path d="M31.940215 49.248134c.141839-1.310154.73904-2.434078 1.537525-3.452461.407722-.520187.922281-.95944 1.388535-1.435235 1.290762-.825694 2.669737-1.40278 4.235363-1.453956-.866578.41857-1.67637.910306-2.352804 1.605687-1.063122 1.09294-1.736397 2.39819-2.205062 3.817075-.14375.435328-.220157.891912-.357256 1.329693-.02885.092053-.188398.144537-.287917.215334-.652989-.208712-1.305645-.417343-1.958384-.626137" fill="#8BBF4D"/>
    <path d="M57.304028 43.142377c-.237284.25106-.49103.489203-.709109.755468-1.025543 1.252357-2.29344 2.226675-3.669506 3.066838-.748933.457238-1.538189.851037-2.315224 1.26282-.140425.074477-.3092.097367-.465173.143966.653155-.450044 1.324767-.876707 1.956471-1.354383 1.969525-1.489273 3.383834-3.403328 4.380444-5.628695.049302-.109956.116979-.212146.176009-.318178.215252.69064.43067 1.38136.646088 2.072164" fill="#7B959D"/>
  </g>
</svg>
