<svg width="80" height="80" viewBox="0 0 80 80" xmlns="http://www.w3.org/2000/svg">
  <title>
    Group 69
  </title>
  <defs>
    <linearGradient x1="50%" y1="0%" x2="50%" y2="100%" id="a">
      <stop stop-color="#FF0100" offset="0%"/>
      <stop stop-color="#FE7D00" offset="100%"/>
    </linearGradient>
  </defs>
  <g fill="none" fill-rule="evenodd">
    <circle fill="#FFF" cx="40" cy="40" r="40"/>
    <path d="M13.57218 10.981753c-.530062 6.656362-1.114716 13.857166-1.67366 21.060425-.383546 4.938196-.775546 9.87639-1.06752 14.820196-.083473 1.40966-.56775 1.56146-1.861033 1.33043C3.08222 47.14038-.646536 42.237242.093087 36.333914.88871 29.98606 1.69032 23.638904 2.497565 17.29245c.599446-4.713126 5.1682-8.896184 9.9201-9.097414 1.205938-.051183 1.243623.020334 1.154516 2.78672zM33.57422.00007c.153206 6.77065.291974 13.542.473005 20.311948.03029 1.1278-.35537 1.551644-1.51693 1.527104-2.991246-.062753-5.98566-.076425-8.976554-.004558-1.30596.031552-1.6888-.346718-1.64865-1.698885.19935-6.71.27754-13.42351.39869-20.13561h11.27044zm22.286167 36.009247c.048604 7.262155-3.617107 11.53601-9.14561 12.27397-1.08971.14549-1.522213-.17809-1.593006-1.225608-.34621-5.11804-.69031-10.23679-1.07773-15.35202-.40503-5.34557-.86289-10.68727-1.2887-16.03108-.16166-2.03229-.28563-4.06772-.45258-6.09965-.09544-1.1597.32508-1.53061 1.5363-1.39143 4.65927.53497 8.8392 4.0898 9.5362 8.69355 1.03688 6.84707 1.79588 13.73587 2.48514 19.13226zm-34.576935 24.73827c0-4.002162.299018-22.411892.327547-27.89558.00915-1.73079.65509-2.17146 2.296-2.099243 2.86762.125857 5.74616.088345 8.61695.01192 1.34012-.03576 1.85821.36004 1.8797 1.770402.13595 8.866736.35572 17.73242.5371 26.598805.007744.37091.04226 1.6137.04226 1.6137h-1.07668c-4.153156-.00105-8.306665 0-12.62289 0z" transform="translate(12 9)" fill="url(#a)"/>
  </g>
</svg>
