<svg width="80" height="80" xmlns="http://www.w3.org/2000/svg" xmlns:xlink="http://www.w3.org/1999/xlink">
  <defs>
    <path id="a" d="M0 .8856h16.46268v11.7396H0z"/>
  </defs>
  <g fill="none" fill-rule="evenodd">
    <circle fill="#FFC807" cx="40" cy="40" r="40"/>
    <path d="M40.1962 32.9674c3.9804-.0048 6.8448 2.8128 6.8508 6.738.0072 3.8808-2.91 6.7908-6.816 6.8016-3.9216.0108-6.8256-2.8644-6.8376-6.7656-.012-3.9336 2.838-6.7704 6.8028-6.774M27.54748 69.18772v-15.7632c4.1064 1.6128 7.836 3.078 11.2692 4.4256-3.7668 3.7896-7.458 7.5036-11.2692 11.3376m25.22292.33516c-3.9012-3.9252-7.5252-7.572-11.4324-11.502 3.5652-1.4532 7.2588-2.9604 11.4324-4.662v16.164zM21.8446 41.08612c1.4196 3.3744 2.9388 6.9852 4.662 11.0808H10.7194c3.5016-3.4872 7.134-7.1052 11.1252-11.0808m32.04024 11.18676c1.7268-4.1148 3.2352-7.7112 4.758-11.3412 3.7608 4.0968 7.3404 7.9944 10.4136 11.3412h-15.1716zm-26.25-26.21604v-15.5232c3.5196 3.6324 7.1232 7.3512 10.7928 11.1396-2.958 1.2024-6.66 2.7048-10.7928 4.3836M41.2708 21.3904C45.1912 17.4868 48.8296 13.8652 52.7116 10v16.0008c-4.0308-1.6248-7.74-3.12-11.4408-4.6104" fill="#FFF"/>
    <g transform="translate(10 26.32324)">
      <mask id="b" fill="#fff">
        <use xlink:href="#a"/>
      </mask>
      <path d="M-.00012.8856h16.4628c-1.7244 4.1568-3.2592 7.8552-4.8696 11.7396-3.9408-3.99-7.5516-7.6464-11.5932-11.7396" fill="#FFF" mask="url(#b)"/>
    </g>
    <path d="M58.64152 38.45644c-1.4568-3.4404-2.9796-7.0368-4.7256-11.16h16.0836c-3.7944 3.7296-7.4412 7.3128-11.358 11.16" fill="#FFF"/>
  </g>
</svg>
