<?xml version="1.0" encoding="UTF-8"?>
<svg width="105px" height="105px" viewBox="0 0 105 105" version="1.1" xmlns="http://www.w3.org/2000/svg" xmlns:xlink="http://www.w3.org/1999/xlink">
    <!-- Generator: Sketch 49.2 (51160) - http://www.bohemiancoding.com/sketch -->
    <title>Group</title>
    <desc>Created with Sketch.</desc>
    <defs></defs>
    <g id="Page-1" stroke="none" stroke-width="1" fill="none" fill-rule="evenodd">
        <g id="Group">
            <circle id="Oval" fill="#0057FF" cx="52.5" cy="52.5" r="52.5"></circle>
            <path d="M32.328,50.008 L32.328,40 L37.26,40 L37.26,65.2 L32.328,65.2 L32.328,54.76 L22.968,54.76 L22.968,65.2 L18,65.2 L18,40 L22.968,40 L22.968,50.008 L32.328,50.008 Z M51.948,52.24 L61.632,65.2 L55.908,65.2 L46.908,53.392 L46.908,65.2 L41.94,65.2 L41.94,40 L46.908,40 L46.908,51.124 L55.548,40 L61.272,40 L51.948,52.24 Z M64.08,40 L74.088,40 C77.544,40 80.424,41.224 82.728,43.636 C85.068,46.048 86.22,49.036 86.22,52.6 C86.22,56.164 85.068,59.152 82.728,61.564 C80.424,63.976 77.544,65.2 74.088,65.2 L64.08,65.2 L64.08,40 Z M69.048,60.448 L74.088,60.448 C76.284,60.448 78.048,59.728 79.416,58.288 C80.784,56.812 81.468,54.94 81.468,52.6 C81.468,50.26 80.784,48.388 79.416,46.948 C78.048,45.472 76.284,44.752 74.088,44.752 L69.048,44.752 L69.048,60.448 Z" id="HKD" fill="#FFFFFF"></path>
        </g>
    </g>
</svg>