<svg width="80" height="80" viewBox="0 0 80 80" xmlns="http://www.w3.org/2000/svg">
  <title>
    hkn-hacken
  </title>
  <g fill="none" fill-rule="evenodd">
    <circle fill="#FFF" cx="40" cy="40" r="40"/>
    <path fill="#00939D" d="M60.342568 18v9.344758h-2.674592V18h-2.657432v9.344758h-2.700902v-9.320465h-2.658576v9.320465h-2.697471v-9.320465h-2.657432v9.320465h-8.531696v-9.320465h-2.657432v12.006591h27.235533v2.668774H30.393549V18h-2.657432v17.386941h32.606451v2.769418H25.031782V18H22.37435v20.156359h-2.716918V18H17v43h2.657432v-9.345915h2.695183V61h2.657432v-9.345915h2.700903v9.320465h2.656288v-9.320465h2.698615v9.320465h2.658576v-9.320465h8.531695v9.320465h2.656288V48.966802h-27.25498v-2.66646h29.968466V61h2.658576V43.613059H19.657432V40.84364h35.330233V61h2.657432V40.843641h2.697471V61H63V18z"/>
  </g>
</svg>
