<svg width="80" height="80" viewBox="0 0 80 80" xmlns="http://www.w3.org/2000/svg">
  <title>
    hmc-hi-mutual-society
  </title>
  <g fill="none" fill-rule="evenodd">
    <path d="M40 77.507813c1.561684 0 3.499741 2.103585 5.01477 1.929443 7.78872-.895261 14.232688-3.846972 20.001343-8.55774.92005-.751325 1.824109-3.216582 2.67334-4.045532C75.13111 59.570055 78.740234 51.220651 78.740234 40 78.740234 17.90861 62.09139 2.033203 40 2.033203c-1.641124 0-3.735255-1.760885-5.324585-1.568848-7.871031.95105-14.171755 3.874105-19.950928 8.713624-.759394.635921-1.228432 2.529773-1.938354 3.219482-7.48146 7.268445-9.648438 17.61634-9.648438 28.871094 0 22.09139 14.770915 36.239258 36.862305 36.239258z" fill="#FFF"/>
    <path d="M15.046825 53.86167c4.808507 2.776102 9.534178 5.504406 14.428557 8.329925.030178-1.248608.012962-2.345317.016-3.441013.003038-1.113924.00081-2.227645.00081-3.341367V45.16071c3.561924 3.54957 6.983089 6.958987 10.467848 10.431595 3.478279-3.474633 6.88-6.873114 10.411342-10.40081.027747.396962.056102.61367.056304.830177.002835 7.965164.007089 15.930127-.007696 23.895291-.00081.421266-.067848.897215-.269367 1.254278-1.558279 2.760912-3.157266 5.498532-4.73195 8.222988-15.196556 2.461164-34.164658-5.093266-42.193417-23.832912C-4.248567 38.117266 1.914673 18.9679 15.046826 8.81276v45.048912zm49.752466-27.926318c-4.726076-2.729924-9.45114-5.459038-14.327493-8.275848-.01519.474126-.03443.796962-.034836 1.119797-.002633 3.172861-.009114 6.345722.00486 9.518583.002229.499443-.099037.894177-.473316 1.265417-3.234227 3.208912-6.45043 6.43605-9.674329 9.655494-.090734.090734-.205974.15676-.262886.199291-3.481114-3.49448-6.927595-6.953721-10.510785-10.550684v-.684759c-.000202-6.075544.006076-12.151089-.009721-18.226633-.001823-.632506.14238-1.17448.46238-1.719494 1.520202-2.588557 3.01124-5.194329 4.50167-7.774987C49.791494-2.030623 68.237873 5.561681 76.35514 23.501327c7.954633 17.580354 1.896102 37.14248-11.33367 47.421367-.027342-.008102-.06319-.008507-.079798-.026127-.021266-.023494-.03524-.05995-.038481-.092152-.010734-.100253-.018633-.200709-.02086-.301367-.003647-.168709-.002836-.337418-.002836-.506127-.000405-14.547645-.00081-29.09529-.002026-43.642936 0-.067038-.011139-.134076-.020455-.20071-.004456-.03281-.016608-.06481-.057722-.217923z" fill="#362641"/>
  </g>
</svg>
