<svg width="80" height="80" xmlns="http://www.w3.org/2000/svg" xmlns:xlink="http://www.w3.org/1999/xlink">
  <defs>
    <circle id="a" cx="40" cy="40" r="40"/>
  </defs>
  <g fill="none" fill-rule="evenodd">
    <mask id="b" fill="#fff">
      <use xlink:href="#a"/>
    </mask>
    <use fill="#5386C4" xlink:href="#a"/>
    <g mask="url(#b)">
      <path d="M12.186813 44.155c1.744256-2.226 3.125874-4.686 4.582418-7.098.5994-.999.68032-2.121.260739-3.207-.671329-1.734-.881119-3.54-.98002-5.37-.182817-3.372.911089-6.417 2.442557-9.336 1.228772-2.346 2.676324-4.536 4.663337-6.33.91109-.822 1.933067-1.395 3.11089-1.779 1.213785-.399 2.352647-.621 3.51848.06a.76065.76065 0 0 0 .386614.102c.839161-.018 1.654346.042 2.424576.441.200799.102.44955-.03.677322-.114 2.697303-.987 5.445555-1.674 8.355645-1.479 2.418581.165 4.774225.615 7.105894 1.296 2.10989.615 4.123876 1.407 5.955045 2.616 4.327672 2.859 7.003996 6.9 8.37063 11.859.623376 2.262.8991 4.572.905094 6.069-.008991 4.917-.86913 8.796-2.49051 12.528-1.12987 2.601-2.244755 5.211-3.230769 7.869-.914086 2.472-1.621378 5.004-1.93007 7.635-.050949.432-.071928.867-.095904 1.302-.023976.405-.02997.801.35065 1.092.15884.12.242757.3-.083916.381-.23976.06-.167833.246-.098902.408.53047 1.272.593407 2.598.38062 3.927-.14985.924-.74026 1.599-1.63936 1.881-1.147853.363-2.322678.654-3.49151.945-.755244.189-1.507492.006-2.23876-.174-1.462538-.357-2.907093-.519-4.42058-.27-1.285714.213-2.61039.222-3.914086.093-1.030969-.102-1.942058-.624-2.88012-1.026-1.735265-.744-3.011988-2.007-4.12987-3.498-.944056-1.257-1.858142-2.586-3.14985-3.507-.767233-.549-1.558442-1.266-2.667333-1.038-.0989.018-.215784-.015-.296703.024-.932068.477-2.061938.501-2.874126 1.266-.668332.63-1.528471.945-2.316683 1.386-.158841.09-.506494.117-.377623.495.032967.096-.161838.171-.272727.165-1.024975-.072-2.037962.186-3.074925.021-.878122-.138-1.57942-.513-2.028971-1.248-.902098-1.479-1.264735-3.066-.713287-4.767.2997-.924-.212787-1.524-.80919-2.055-.485515-.435-.626374-.936-.554446-1.53.041958-.369.17982-.717.44955-.993.29071-.297.353647-.576-.077922-.792-.728271-.366-.932068-1.062-.557442-1.86.86913-1.836-.002997-2.742-1.774226-3.558" stroke="#61D9FF" stroke-width=".3"/>
      <path d="M30.054945 16.411c-.035964-.021-.092907-.072-.104895-.066-.071928.054-.02098.102.020979.15.023976.039.050949.081.074925.117.185814.474.461539.894.776224 1.287.095904.117.203796.261.356643.264.458542.003.617383.342.8002.663.44056.777.425574.753 1.21079.366 2.025973-.999 4.177821-1.578 6.42857-1.68 2.376624-.105 4.717283.252 7.015985.876 4.51948 1.227 8.067932 3.771 10.381618 7.884 2.403596 4.272 2.883117 8.88 2.178821 13.668-.26074 1.782-.935065 3.429-1.528471 5.103-1.096903 3.084-2.172828 6.174-2.799201 9.399-.077922.402-.164835.807-.245754 1.209.323676-.27.284715-.642.356643-.972.77922-3.693 2.094905-7.218 3.464535-10.722.926074-2.373 1.483517-4.812 1.6004-7.344.146853-3.159-.287712-6.237-1.498502-9.18-1.642357-3.984-4.324675-7.008-8.226773-8.886-2.601398-1.251-5.367632-1.887-8.235764-2.13-3.050949-.258-5.955045.237-8.691309 1.626-.86913.444-1.036963.405-1.60939-.393-.143856-.195-.227772-.48-.521479-.501-.476523-.03-.797203-.318-1.111888-.627-.032967-.036-.05994-.075-.092907-.111m1.663337 7.419c.00899.009.017982.015.026973.024.005994.003.011988.003.017982.006-.017982-.006-.035964-.015-.056943-.021-.083916-.405.02997-.906-.5005-1.11a.18468.18468 0 0 0-.002997-.042.059936.059936 0 0 0-.026973-.018c.011988.018.023976.036.038961.057.095904.396.071928.852.503497 1.104m17.544455 35.835c-.00899-.012-.014985-.021-.023976-.033.008991.009.02098.018.02997.027.17083.312.167832.777.743257.693.797203-.12 1.594406-.222 2.397602-.273.494506-.03.725275-.285.839161-.714.086913-.333.086913-.666.05095-1.134-.188812.618-.35065 1.092-.986015 1.131-1.021978.06-2.040959.141-3.050949.303" stroke="#61D9FF" stroke-width=".3"/>
      <path d="M31.076923 21.253c-.032967-.042-.044955-.15-.11988-.099-.056943.036-.014985.117.053946.153.035964.36.131868.747.398601.951.38062.294.494506.684.623377 1.095.05994.192.137862.381.17982.576.086913.423.26074.396.56943.174 2.33167-1.671 5.016984-2.19 7.8012-2.268 1.48052-.039 2.928071.309 4.363636.672 4.102897 1.038 7.378621 3.225 9.56044 6.915 1.447552 2.448 2.166833 5.121 2.307692 7.95.086913 1.785.032967 3.576-.503497 5.292-.848152 2.706-1.654345 5.421-2.247752 8.199-.101898.471-.242757.942-.302697 1.407-.05994.453-.182817.915-.113886 1.383a.413354.413354 0 0 0 .065934-.177c.536463-3.189 1.402597-6.294 2.493506-9.33 1.255744-3.498 1.516484-7.056.698302-10.659-1.366634-6.012-4.921079-10.074-10.912088-11.832-2.634366-.774-5.31968-1.119-8.058941-.645-1.78921.309-3.455545.942-4.984016 1.932-.494506.321-.743257.252-.992008-.276-.143856-.303-.248751-.624-.35964-.939-.092908-.255-.224776-.447-.521479-.474" stroke="#61D9FF" stroke-width=".3"/>
      <path d="M51.15085 45.475c.011987-.486.00899-.969.062936-1.458.353647-3.324-.431568-6.336-2.607392-8.901-1.201799-1.416-2.769231-2.367-4.465535-3.09-2.67033-1.14-5.373626-1.211-8.10989-.213-1.441558.528-2.646354 1.413-3.767233 2.433-.074925-.192-.05994-.381 0-.573.266734-.228.512488-.483.803197-.681 3.077922-2.13 6.44056-2.727 10.03097-1.689 4.324674 1.248 7.090908 4.095 8.26873 8.445.374626 1.386.434566 2.808.257743 4.245-.161838 1.326-.071928 2.676-.308692 3.999-.032967.186-.071928.411.113886.543.161839-1.482.242758-2.979.494506-4.449.467532-2.691.101898-5.235-1.063936-7.683-2.67932-5.628-9.008991-7.707-14.091908-6.24-1.708292.492-3.173826 1.407-4.513487 2.55a1.192147 1.192147 0 0 1 .008991-.624c.488512-.351.959041-.738 1.474526-1.047 4.135864-2.52 8.364635-2.289 12.497502-.129 4.606394 2.412 6.878122 7.704 6.17083 12.624-.347653 2.421-.587413 4.854-.695305 7.299.062937-.477.113886-.954.164835-1.431.188811-1.818.38961-3.642.782218-5.427.68931-3.129.2997-6.117-1.147853-8.943-1.81019-3.537-4.717282-5.673-8.604395-6.486-2.871129-.603-5.625375-.354-8.25974.99-.854146.438-1.582418 1.059-2.376624 1.584a1.190043 1.190043 0 0 1 0-.648c.95005-.567 1.864136-1.209 2.9011-1.602 2.184814-.831 4.447552-1.074 6.773226-.828 2.64935.282 4.999 1.245 7.000999 3.006 2.292707 2.016 3.644356 4.563 4.186813 7.554.317682 1.767.338662 3.516-.062937 5.286-.401598 1.785-.596404 3.615-.755245 5.442.17083-.759.29071-1.524.428572-2.286.266733-1.47.611388-2.919.926074-4.377.2997-1.383.230769-2.805.035964-4.209-.485515-3.522-2.013986-6.474-4.78022-8.745-2.088911-1.716-4.54046-2.538-7.18981-2.859-2.994006-.363-5.766234.228-8.298702 1.896-.386613.255-.68931.642-1.162837.765-.002997-.09-.005994-.18-.005994-.273.287713-.33.584416-.654.97103-.867 1.090908-.594 2.1998-1.155 3.386613-1.527 2.241758-.705 4.492507-.606 6.758241-.12 4.576424.987 7.834166 3.591 9.686314 7.899 1.093906 2.541 1.48951 5.235.995005 7.941-.416583 2.271-.95904 4.524-1.306693 6.816-.068931.453-.152847.9-.23976 1.398.18881-.078.15884-.174.173826-.249.215784-1.152.425574-2.31.653346-3.462.311689-1.581.8002-3.12 1.12987-4.692.404596-1.926.317683-3.879-.077922-5.808-.704295-3.414-2.343656-6.264-5.127872-8.409-2.061938-1.59-4.444555-2.367-6.98901-2.739-2.97003-.435-5.772229-.003-8.39161 1.524-.54845.318-.992007.81-1.61838.999-.065935-.162-.05994-.321-.017983-.486.188811.003.293707-.147.428572-.243 1.180819-.837 2.37962-1.635 3.812187-1.989 2.802198-.693 5.565435-.552 8.328672.3 3.665335 1.131 6.518481 3.243 8.376623 6.633 1.27073 2.316 1.852148 4.812 1.888112 7.437.014985 1.089-.014985 2.187-.317682 3.246-.83017 2.907-1.432568 5.862-1.858142 8.865.152847-.045.134865-.162.152847-.255.26973-1.83.68931-3.627 1.15085-5.412.32967-1.284.80919-2.529 1.066932-3.825.413587-2.055.398602-4.137.017982-6.207-.62937-3.408-2.112887-6.351-4.75025-8.652-2.082917-1.818-4.564435-2.784-7.240759-3.285-3.716283-.696-7.213786-.231-10.378621 1.98-.197802.138-.386613.339-.671329.288-.017982-.147-.086913-.3.071928-.414.251749-.018.41059-.21.5994-.339a13.159377 13.159377 0 0 1 2.346654-1.254c2.22977-.921 4.552448-1.113 6.92008-.81 2.4006.306 4.714286.924 6.782218 2.229 4.561438 2.883 6.62038 7.194 6.947053 12.453.125874 2.031-.146853 4.008-.791209 5.955-.752248 2.256-1.117882 4.614-1.717283 6.915-.017982.069-.023976.174.104895.189.125875-.081.125875-.228.152848-.351.314685-1.614.731268-3.204 1.192807-4.782.392607-1.353.947053-2.673 1.216783-4.047.734266-3.765.443556-7.455-1.147852-10.992-1.234765-2.748-3.122877-4.92-5.715285-6.456-1.933067-1.146-4.042957-1.764-6.248751-2.115-3.623377-.576-7.018981-.036-10.102897 2.043-.26074.177-.521479.264-.815185.054-.068931.33.104895.573.101898.843-.353646.009-.71029.069-1.060939-.015-.026973-.174.008991-.381-.278721-.375-.566434.015-1.135864.018-1.705295.018-.251748 0-.311688.138-.287712.357-.11089.156-.125874.333-.131868.522-.035964 1.128-.086913 2.256-.128871 3.384-.035965 2.115-.314686 4.221-.248752 6.339.05994 1.863.053946 3.723-.071928 5.586-.071928 1.038-.278721 2.067-.212787 3.111.035964.618.17083 1.23.188811 1.851.05095 1.644.05994 3.285.086913 4.932.008991.54.02997 1.074.02997 1.611 0 .417.155844.564.551449.354.821179-.114 1.645354.015 2.463536-.009.086913.15-.206793.522.20979.453.956044-.159 1.789211.195 2.61039.576 1.177822.543 2.235764 1.293 3.32068 1.998 2.034964 1.326 4.270729 2.256 6.476523 3.243.707293.315 1.372627.849 2.097902.942 1.12088.147 1.75025.834 2.397602 1.584.44056.507.863137 1.029 1.318682 1.524.212787.231.467532.459.833167.366.833166-.21 1.681318-.306 2.52947-.435 1.06993-.162 1.654346-1.14 1.315684-2.25-.164835.96-.683316 1.437-1.63037 1.518-.818181.069-1.624375.24-2.433566.378-.293706.051-.536463-.027-.728271-.237a7.660998 7.660998 0 0 1-.551449-.654c-.602398-.807-1.057942-1.716-1.717283-2.487-.221778-.261-.455544-.546-.797202-.57-.347653-.024-.593407-.192-.86014-.357-.371629-.228-.74026-.465-1.117882-.681-2.826174-1.617-5.814186-2.928-8.622378-4.587-1.141858-.675-2.37063-1.197-3.755245-1.14 0-.108.002997-.216.002997-.33.182817-.003.368632-.018.551449-.009 1.0999.063 2.097902.465 3.041958.981 2.526473 1.392 5.064935 2.763 7.657343 4.035.86913.429 1.696303.957 2.514485 1.482.401598.258.92008.186 1.27972.543.395605.393.734266.828 1.045954 1.287.482518.705.884116 1.467 1.468532 2.103.14985.165.296703.339.551448.273.878122-.228 1.783217-.297 2.682318-.423.512488-.072.815185-.357.977023-.822a2.419083 2.419083 0 0 0 .107892-1.188c-.11988.03-.08991.132-.113886.207-.206793.624-.56943 1.035-1.285714 1.089-.704296.051-1.3996.165-2.094905.258-1.001.129-1.06993.108-1.57942-.798-.509492-.906-.986015-1.833-1.48052-2.745-.194806-.36-.422578-.762-.806194-.867-.422578-.114-.68931-.387-1.00999-.618-.38062-.276-.74026-.582-1.12987-.846-2.685315-1.806-5.619381-3.147-8.52947-4.521-1.204796-.57-2.484516-.945-3.85115-.597v-.36c1.033966-.297 2.025974-.063 3.008991.246 1.48052.462 2.823177 1.227 4.195804 1.932 2.295705 1.176 4.65135 2.253 6.644356 3.942.152847.129.302697.315.47952.354.626374.132.962038.582 1.258742 1.071.272727.45.521478.912.776224 1.371-.218782-.759-.512488-1.485-.809191-2.211-.296704-.735-.722278-1.317-1.396604-1.815-.743256-.549-1.345654-1.308-2.112887-1.854-2.406593-1.713-5.04995-2.973-7.804196-3.999-1.390609-.519-2.814185-.78-4.24975-.114 0-.129 0-.264.002997-.393.905095-.423 1.852148-.408 2.808192-.255 1.732268.282 3.278721 1.053 4.837163 1.8 2.472527 1.188 4.891109 2.46 6.74925 4.566.041959.051.098902.102.158842.117.503496.144.728271.564.962038.972.08991.156.122877.348.428571.549-.506493-1.137-.755245-2.169-1.528471-3.105-1.531469-1.863-3.314686-3.303-5.457543-4.35-1.717283-.84-3.44056-1.68-5.364635-1.935-1.321679-.174-2.562438.021-3.632368.9-.056943-.18-.083916-.36.044955-.525 1.18082-.81 2.508492-.948 3.854146-.711 2.802198.492 5.268731 1.806 7.645355 3.3 1.618381 1.02 2.715285 2.583 4.024975 3.999-.017982-.462-.185814-.846-.278721-1.245h.431568c.161838.024.32068.051.47952.078-.00899.369.137862.528.53946.489a8.682664 8.682664 0 0 1 1.396604-.009c.377623.027.614386-.051.62038-.468.113886-.135.131868-.303.131868-.471 0-2.421-.065934-4.809.05994-7.2m-37.201798 1.701c1.504495 1.041 1.663337 1.794 1.135864 3.177-.416583 1.098-.368631 1.221.536464 1.953.305694.249.350649.525.131868.828-.824176 1.167-.803197 1.551.134865 2.607.593406.669.905095 1.362.605394 2.337-.455544 1.488-.110889 2.928.68032 4.248.305694.507.722278.948 1.327673 1.086.974025.216 1.96903.171 2.961038.123.266734-.012.461539-.165.689311-.345-.185814-.153-.347652-.117-.482517-.096-.623377.093-1.237763-.03-1.858142-.03-.836164.003-1.501499-.372-1.95105-1.059-.878121-1.35-1.240758-2.847-.821178-4.416.254745-.951.002997-1.632-.638362-2.268-.728271-.723-.812187-1.68-.152847-2.475.281719-.345.227772-.558-.107892-.771-.5994-.378-.746254-.915-.548451-1.569.083916-.273.161838-.546.257742-.813.26973-.747.113886-1.38-.47053-1.917-.458541-.423-.92907-.825-1.54945-.999" stroke="#61D9FF" stroke-width=".3"/>
      <path d="M13.958042 43.195c1.321678-1.947 2.496503-3.984 3.632368-6.042.422577-.762.584415-1.62.350649-2.49-.32967-1.212-.728272-2.403-.881119-3.66-.293706-2.358-.296703-4.707.443556-6.978 1.12088-3.444 2.748252-6.639 5.121879-9.408 1.117882-1.305 2.412587-2.388 4.1988-2.67a2.994754 2.994754 0 0 0 .77023-.228c.458542-.201.89011-.123 1.30969.084.347653.171.674327.375 1.015985.555.281718.15.584416.336.902098.27.53946-.111.947053.108 1.348651.399.341659.246.683317.285 1.087912.114 1.615385-.675 3.287712-1.164 5.031968-1.365 1.285715-.144 2.583417-.264 3.869131-.111 1.396604.165 2.781219.438 4.168831.669 4.9001.822 9.035964 3.015 12.176823 6.927 2.226774 2.772 3.53047 5.958 4.156844 9.438a25.968672 25.968672 0 0 1 .284715 7.227c-.203796 2.091-.581419 4.152-1.294705 6.141-.767233 2.136-1.684316 4.209-2.526474 6.312-1.321678 3.306-2.58042 6.63-3.074925 10.185-.11988.858-.203796 1.716-.062937 2.586.017982-.957.131868-1.905.296703-2.841.575425-3.309 1.768232-6.432 3.044955-9.519.959041-2.325 2.037962-4.605 2.859141-6.987 1.144855-3.333 1.615385-6.768 1.474526-10.299-.11988-3.033-.707293-5.958-1.909091-8.754-1.711289-3.972-4.408592-7.086-8.196803-9.177-3.824176-2.103-7.993007-3-12.311689-3.18-2.727273-.111-5.37063.429-7.918082 1.425-.203796.081-.434565.213-.62937.126-.887113-.384-1.819181-.498-2.772228-.534-.128871-.003-.263736-.063-.38062-.123-.935064-.495-1.864135-.543-2.841158-.09-.53047.246-1.15085.27-1.663337.57-1.288711.756-2.355644 1.77-3.308691 2.91-1.603397 1.923-2.787213 4.098-3.842158 6.354-1.003996 2.145-1.57942 4.38-1.564436 6.759.011988 1.803.098901 3.615.746254 5.31.602398 1.587.626374 3.048-.2997 4.515-1.411589 2.244-2.694306 4.572-4.33966 6.66" stroke="#61D9FF" stroke-width=".3"/>
      <path d="M14.212787 44.329a2.226178 2.226178 0 0 1 .14985-.252c.218782-.315.467533-.618.677323-.939 1.198801-1.83 2.226773-3.753 3.26074-5.679.524475-.972.644355-1.998.2997-3.021a16.412532 16.412532 0 0 1-.719281-3.183c-.332667-2.589-.191808-5.13.74925-7.587 1.132868-2.961 2.469531-5.817 4.519481-8.271.986014-1.179 2.082917-2.196 3.713287-2.4.347652-.042.68931-.15 1.01898-.276.476524-.183.88112-.084 1.267733.216.356644.279.725275.546 1.084915.819.20979.159.452548.258.707293.219.41059-.06.74026.099.998002.372.473526.498.923077.465 1.51948.18 2.325675-1.113 4.813187-1.557 7.372628-1.539 2.532467.015 4.99001.555 7.414585 1.26 5.424576 1.587 9.44955 4.86 11.85015 10.002 2.13087 4.56 2.46953 9.36 1.696304 14.292-.434566 2.751-1.531469 5.274-2.547453 7.83-1.294705 3.264-2.58042 6.528-3.293706 9.981-.266733 1.29-.401598 2.598-.425574 4.002.053946-.114.077922-.144.080919-.174.15884-1.449.332667-2.898.68032-4.32.773226-3.159 1.978021-6.162 3.203796-9.159.761238-1.866 1.627372-3.693 2.181818-5.631 1.330669-4.659 1.51948-9.36.308691-14.076-.83916-3.276-2.343656-6.201-4.681319-8.679-1.84016-1.95-4.000999-3.405-6.47952-4.404-2.900016-1.171972-5.975382-1.850325-9.098901-2.007-2.94006-.156-5.784216.351-8.49051 1.53-.356643.156-.704296.153-1.00999-.045-.518481-.342-1.033966-.573-1.681318-.51-.308692.03-.638362-.132-.884116-.324-.863137-.675-1.72028-.624-2.766234-.357-1.486514.384-2.643357 1.155-3.665335 2.241-1.963037 2.079-3.311688 4.545-4.492507 7.122-1.123876 2.457-1.714286 5.016-1.54046 7.719.095904 1.506.224775 3.018.785215 4.443.497502 1.269.464535 2.517-.203796 3.69-1.333667 2.349-2.61938 4.734-4.27972 6.882" stroke="#61D9FF" stroke-width=".3"/>
      <path d="M14.566434 46.453a1.068697 1.068697 0 0 1-.266734-.33c-.320679-.603-.383616-1.206-.083916-1.791m-1.240759 2.649c-.107892-.09-.713287-.729-.77922-.858-.32068-.603-.302698-1.38-.005995-1.968m1.75025 2.34c.788212.246 1.372627.762 1.915085 1.338.398601.423.497502.945.38062 1.5a7.355584 7.355584 0 0 1-.254746.867c-.296703.867-.221778 1.152.47952 1.737.404596.339.431569.561.107893.975-.65035.834-.599401 1.524.134865 2.301.626373.657.905095 1.365.632367 2.334-.434565 1.554-.077922 3.03.824176 4.362.32068.474.782218.756 1.378622.834.821178.108 1.642357.084 2.463536.066a.827958.827958 0 0 0 .293706-.06c.11988-.051.287713-.105.26074-.261-.032967-.189-.215785-.096-.335665-.099-.56943-.015-1.13886-.003-1.708291-.039-.73127-.045-1.393607-.264-1.804196-.93-.86014-1.383-1.252748-2.877-.815185-4.47.221778-.816-.005994-1.413-.527473-1.968-.77922-.837-.86014-1.647-.173826-2.553.26074-.345.11089-.513-.158841-.684-.578422-.36-.665335-.885-.518481-1.488.06893-.276.182817-.54.260739-.816.146853-.513.212787-1.023-.161838-1.485-.473527-.579-.998002-1.095-1.732268-1.329a.958726.958726 0 0 1-.332667-.177" stroke="#61D9FF" stroke-width=".3"/>
      <path d="M55.268731 59.455c.065934-1.713.41059-3.378.842158-5.031.935065-3.567 2.346654-6.963 3.746254-10.362 1.51049-3.666 2.172827-7.458 1.957043-11.412-.191808-3.489-1.051948-6.777-2.814186-9.822-1.966034-3.39-4.756244-5.838-8.334665-7.383-2.4995-1.074-5.124876-1.683-7.828172-1.959-3.26973-.336-6.434566.06-9.431569 1.455-.587412.273-1.04895.216-1.507492-.213-.2008-.189-.38961-.45-.71928-.411-.587413.069-1.072928-.18-1.459541-.558-.743257-.732-1.501499-.825-2.52947-.573-1.516484.369-2.7003 1.113-3.686314 2.271-1.507493 1.77-2.589411 3.792-3.572428 5.877-1.246753 2.646-2.082917 5.373-1.867133 8.352.11089 1.542.248751 3.075.806194 4.545.392607 1.038.353646 2.127-.14985 3.09-1.231769 2.364-2.448552 4.746-4.06993 6.885-.611389.807-.302698 1.743.593406 2.232 1.63936.903 2.454546 1.881 1.657343 3.627a.758384.758384 0 0 0-.041958.147c-.182817.657-.08991.936.446553 1.347.473527.363.506494.636.137862 1.092-.551448.681-.503496 1.422.104896 2.064.566433.597.941058 1.26.68931 2.136-.422577 1.473-.155844 2.862.578422 4.173.32967.585.815185.936 1.522477 1.011.74026.078 1.477523.06 2.214786.069.287712.003.545454-.075.761238-.399-.86913-.069-1.672327.012-2.463536-.111-.584416-.093-1.054945-.333-1.36064-.843-.791208-1.332-1.144855-2.769-.752247-4.293.203796-.783.03896-1.449-.524476-1.923-.704295-.591-.665334-1.818-.143856-2.421.20979-.243.221778-.435-.062937-.618-.674326-.435-.683317-1.053-.476523-1.737.470529-1.557.371628-1.869-.905095-2.892-.185815-.15-.368632-.291-.605395-.345-.347652-.078-.554446-.33-.674326-.63-.26973-.657-.27872-1.32.158841-1.914 1.492508-2.028 2.55045-4.302 3.683317-6.531.431569-.843.503497-1.785.20979-2.7-.95904-2.964-1.07892-5.964-.425574-8.994.281718-1.302.848152-2.511 1.375624-3.726.944056-2.175 1.975025-4.311 3.551449-6.117.755245-.864 1.561438-1.677 2.79021-1.848a8.564239 8.564239 0 0 0 1.612387-.378c.314686-.111.602398-.027.839161.192.353646.333.692308.681 1.03996 1.023.215784.213.44056.489.74925.465.56044-.045.875126.276 1.162838.651.317682.411.65934.474 1.132867.24 2.298701-1.134 4.744256-1.662 7.294705-1.674 2.826174-.012 5.577423.492 8.247753 1.392 3.848152 1.299 6.968032 3.582 9.182817 7.014 3.08991 4.779 3.782218 10.035 3.044955 15.573-.302697 2.271-1.096903 4.389-1.924076 6.501-1.33067 3.405-2.67932 6.81-3.422577 10.41-.263737 1.305-.515485 2.625-.38062 3.984" stroke="#61D9FF" stroke-width=".3"/>
      <path d="M55.067932 56.674c.206793-.927.392608-1.863.62937-2.784.82118-3.231 2.004996-6.336 3.269731-9.411 1.183816-2.877 1.903097-5.838 1.984016-8.943.080919-3.066-.356643-6.063-1.486514-8.934-1.267732-3.222-3.23976-5.901-6.062937-7.932-2.121878-1.524-4.495504-2.46-7.015984-3.066-2.745254-.66-5.514485-.993-8.331668-.561-1.66933.255-3.266733.744-4.78022 1.503-.302697.153-.656343.357-.938062.078-.542457-.534-1.123876-.915-1.876123-1.116-.47053-.126-.767233-.636-1.096904-1.014-.38961-.447-.806193-.684-1.3996-.387-.161838.081-.356643.105-.53946.12-1.594406.117-2.673327 1.053-3.602398 2.241-1.3996 1.788-2.367632 3.819-3.281718 5.88-.89011 2.007-1.606394 4.065-1.642358 6.291-.02997 2.004.08991 3.99.776224 5.91.35964 1.005.278721 2.046-.191809 2.991-1.13886 2.28-2.23876 4.59-3.74925 6.666-.497503.687-.263737 1.677.386613 2.01 1.648352.843 2.508492 1.98 1.705295 3.591-.014985.027-.011988.066-.023976.096-.185814.537-.086913.966.392607 1.329.461539.348.464536.594.125874 1.059-.47952.657-.446553 1.314.08092 1.908.5994.675.872127 1.395.626373 2.349-.374625 1.434-.026973 2.796.74925 4.047.182818.294.443557.519.788213.585.944056.18 1.894106.249 2.853146.12.2008-.027.383617-.078.416584-.357-.77922-.015-1.531469 0-2.283716-.087-.536464-.063-.974026-.282-1.24975-.741-.77023-1.287-1.0999-2.685-.752248-4.155.185814-.78.005994-1.386-.482518-1.953-.56943-.657-.65035-1.566-.125874-2.25.20979-.273.188811-.426-.065934-.612-.557443-.402-.623377-.954-.44955-1.572.026972-.096.056942-.195.092907-.288.353646-.822.21878-1.527-.44056-2.151-.344655-.321-.656344-.675-1.120879-.828-.14985-.051-.248751-.153-.341658-.282-.467533-.675-.44056-1.593.06893-2.256.182818-.24.365635-.483.518482-.744 1.045954-1.785 1.96004-3.636 2.805195-5.523.302697-.678.431568-1.428.23976-2.169-.263736-1.023-.584415-2.031-.674325-3.09-.134866-1.575-.206794-3.138.00899-4.722.245755-1.779.923078-3.396 1.59141-5.025.872127-2.115 1.81918-4.197 3.323676-5.961.578421-.681 1.207792-1.308 2.154845-1.473.674325-.117 1.360639-.207 2.01998-.423.251748-.081.452547.036.635364.207.335665.312.566434.705.85115 1.056.32967.408.584415.924 1.252746.87.161839-.012.284716.165.38961.297.146854.183.284716.375.425575.564.212787.297.416584.381.791209.168 2.19081-1.242 4.576424-1.791 7.084915-1.869 3.515485-.108 6.824176.759 10.00999 2.13 2.844156 1.224 5.133866 3.186 6.878122 5.733 2.202797 3.219 3.245754 6.831 3.368631 10.713.098902 3.03-.263736 5.988-1.360639 8.853-1.225774 3.195-2.454545 6.393-3.311688 9.72-.305695 1.188-.557443 2.367-.617383 3.594" stroke="#61D9FF" stroke-width=".3"/>
      <path d="M54.297702 55.639c.02997-.108.074925-.213.08991-.321.50949-3.339 1.585415-6.516 2.706294-9.681.47053-1.329 1.036963-2.634 1.381619-3.996.92907-3.663.95904-7.356-.056944-11.013-1.30969-4.71-4.000999-8.352-8.421578-10.587-2.37962-1.203-4.936064-1.812-7.573427-2.094-3.23976-.348-6.320679.147-9.194805 1.74-.755245.417-1.03996.375-1.402597-.468-.302698-.699-1.006993-.705-1.444556-1.128.164835.405.35964.771.557443 1.134.083916.153.197802.315.35964.333.377623.033.488512.306.62038.579.098901.213.191808.429.293706.642.14985.306.305694.393.65934.189 2.51149-1.449 5.196804-2.226 8.121879-2.076 2.007992.102 3.956044.519 5.868132 1.11 5.037962 1.563 8.52048 4.806 10.447552 9.729.788212 2.022 1.183816 4.122 1.27073 6.291.08991 2.25-.071928 4.476-.785215 6.618-1.045954 3.138-2.181818 6.243-2.934066 9.471-.275724 1.155-.521479 2.319-.563437 3.528" stroke="#61D9FF" stroke-width=".3"/>
      <path d="M54.24975 53.08c.032967-.117.077922-.237.101898-.357.467533-2.184 1.117883-4.32 1.816184-6.438.497503-1.512 1.138861-2.988 1.516484-4.53.803196-3.297.80919-6.633-.068931-9.924-1.24975-4.683-3.896104-8.292-8.292708-10.485-1.93906-.966-4.01898-1.497-6.14985-1.818-3.542457-.534-6.923077-.093-10.04895 1.764-.67133.396-.92008.339-1.24076-.387-.257742-.582-.551449-1.089-1.204795-1.26-.032967.246.416583 1.206.692307 1.296.32967.108.425575.351.53047.615.098901.249.197802.498.278721.756.128871.411.293707.531.71928.252.88112-.582 1.849152-1.02 2.853148-1.365 3.044955-1.044 6.110889-.879 9.185814-.183 3.86014.876 7.141858 2.709 9.482517 5.985 3.095905 4.335 3.824176 9.183 2.955045 14.343-.266733 1.581-.932068 3.045-1.393606 4.569-.713287 2.346-1.39061 4.707-1.732268 7.167m2.193806 12.684c-.011988.06-.026973.117-.03896.177-.215785 1.08-.842158 1.755-1.924076 2.019-.944056.228-1.897103.414-2.826174.711-.398602.126-.83017.081-1.246754-.006-.971029-.204-1.873126-.627-2.82018-.912-.77922-.237-1.555444-.096-2.337662-.072-1.171828.036-2.34066-.159-3.50949-.261-2.67932-.231-4.789211-1.5-6.557443-3.45-.902098-.996-1.816184-1.978-2.742258-2.946-.641358-.669-1.414585-1.11-2.283716-1.464-.884116-.36-1.666334-.396-2.46054.093a2.815643 2.815643 0 0 1-.872127.363c-.551449.12-.965035.45-1.282718.915.599401-.225 1.255745-.216 1.816184-.54.581419-.336 1.27073-.372 1.846154-.186.843724.276652 1.616962.734301 2.265734 1.341 1.09091 1.026 2.028971 2.193 2.919081 3.39 1.033966 1.392 2.25075 2.511 3.827173 3.252 1.45954.684 2.913087 1.269 4.57942 1.101 1.045955-.105 2.1009-.081 3.152848-.27 1.057942-.192 2.097902.09 3.128871.321 1.001.225 2.013986.456 3.023976.12.83017-.276 1.684316-.45 2.526474-.678 1.444555-.393 2.151848-1.5 1.816183-3.018" stroke="#61D9FF" stroke-width=".3"/>
      <path d="M26.164835 59.818c.545455-.102 1.087912-.174 1.537463-.51a1.342107 1.342107 0 0 1 .491508-.24c1.273726-.291 2.37962.195 3.383617.855 1.270729.837 2.232767 2.034 3.212787 3.177 1.27972 1.485 2.703296 2.748 4.54945 3.48 1.525475.603 3.152847.582 4.744256.774.926074.111 1.837163-.15 2.76024-.039 1.045954.123 1.993007.582 2.982018.897.698301.219 1.387612.315 2.121878.087.83017-.261 1.687313-.432 2.52947-.645 1.225775-.312 1.939061-1.551 1.612388-2.787-.563437 1.575-.863137 1.821-2.544456 2.151-.560439.108-1.132867.192-1.663336.39-.74026.276-1.417583.159-2.097902-.132-.305695-.132-.5994-.297-.902098-.447-.821179-.411-1.615385-.99-2.568432-.927-.935065.06-1.828171-.108-2.73926-.219-3.332668-.396-6.164836-1.728-8.547453-4.158-1.33067-1.359-2.541459-2.982-4.6993-3.282-.872129-.12-1.63037-.183-2.34066.39-.221332.18053-.480521.308715-.758242.375-.464535.111-.803197.408-1.063936.81" stroke="#61D9FF" stroke-width=".3"/>
      <path d="M55.7003 63.946c-.023976.018-.065934.036-.071928.06-.215785 1.203-.998002 1.746-2.151848 1.902a16.335529 16.335529 0 0 0-2.115885.435c-.50949.144-.953047.081-1.402597-.153-.56943-.294-1.06993-.687-1.588412-1.062-.782217-.564-1.57942-1.098-2.625374-.93-.143856.021-.2997-.033-.446554-.072-.86014-.216-1.717282-.447-2.58042-.654-2.46953-.591-4.705294-1.659-6.641358-3.318-1.096903-.939-2.214785-1.845-3.377622-2.7-.965035-.711-2.031968-.525-3.065934-.519-.353647.003-.82118.138-1.135864.459-.305695.309-.632368.57-1.084916.687-.296703.078-.536463.345-.731268.69.467532-.06.845155-.147 1.153846-.438.182817-.171.392607-.315.641359-.387 1.186813-.324 2.325674-.108 3.374625.438 1.108891.576 1.957043 1.515 2.868132 2.358.872128.81 1.675324 1.689 2.652347 2.388 1.783217 1.275 3.797203 1.893 5.93107 2.187.845154.117 1.675324.381 2.53846.285a3.39183 3.39183 0 0 1 1.53147.174c.716283.252 1.363636.648 2.040958.975.599401.291 1.21079.669 1.906094.477.938062-.261 1.894106-.432 2.835165-.66 1.174825-.282 1.84016-1.431 1.546454-2.622" stroke="#61D9FF" stroke-width=".3"/>
      <path d="M55.292707 63.055a.1273.1273 0 0 0-.044955.018 1.233281 1.233281 0 0 0-.044955.138c-.242757.963-.866134 1.461-1.846154 1.587-.68032.087-1.375624.174-2.025974.378-.74026.231-1.30969.045-1.846153-.441-.623377-.561-1.237763-1.134-1.879121-1.677-.35964-.303-.752248-.606-1.24975-.585-.455545.018-.854147-.108-1.267733-.261-.692308-.255-1.384615-.51-2.085914-.744-2.472528-.816-4.786214-1.938-6.851149-3.546-.917083-.714-1.894106-1.326-2.862138-1.965-1.141858-.756-2.307692-.519-3.455544-.21-.398602.105-.905095.279-1.153846.72-.2008.357-.602398.468-.86014.753-.044955.054-.176823.024-.23077.075-.107892.093-.32967.237-.077922.357.2008.096.35964-.123.509491-.252a.359775.359775 0 0 0 .035964-.033c.65934-.6 1.3996-.942 2.31968-.747.11089.024.245755.039.35065.006.542457-.18 1.021978-.009 1.498501.222.989011.483 1.855145 1.155 2.673327 1.875 1.66034 1.458 3.356643 2.844 5.442557 3.66 1.48951.579 3.041958.942 4.585415 1.326.305694.078.617382.237.932068.18.86913-.153 1.576423.216 2.253746.669.572428.381 1.117882.804 1.6993 1.173.392608.252.8002.474 1.315685.348.845155-.207 1.6993-.384 2.556444-.546 1.210789-.228 1.891109-1.26 1.60939-2.478z" stroke="#61D9FF" stroke-width=".3"/>
      <path d="M54.876124 62.044c-.206793 1.071-.833167 1.599-1.906094 1.683a12.193046 12.193046 0 0 0-2.076923.366c-.5005.129-.872128.012-1.24076-.306-.650349-.567-1.10889-1.305-1.693306-1.929-.422577-.453-.80919-1.005-1.468531-1.08-.416584-.045-.77023-.192-1.132868-.36-.548451-.255-1.087912-.534-1.642357-.765-2.853147-1.2-5.607393-2.577-8.16084-4.335-.884115-.606-1.84016-1.11-2.898101-1.368-.464536-.111-.944056-.171-1.366634.108-.227772.156-.467532.246-.722277.315-.281719.081-.596404.108-.599401.525 0 .123-.098901.213-.242757.204-.368632-.027-.398602.204-.386614.477.695305-.366 1.486514-.285 2.211789-.519.281718-.09.626373.069.926073.18.677323.255 1.30969.603 1.918082.999.959041.624 1.843157 1.347 2.772228 2.007 1.939061 1.371 4.09091 2.298 6.32967 3.036.812188.27 1.588412.765 2.424576.801 1.045954.042 1.75924.549 2.46054 1.194.506493.465 1.024974.918 1.546453 1.371.356643.309.755245.378 1.213786.237.38062-.117.77922-.186 1.177822-.264.296704-.057.596404-.09.896104-.138 1.351649-.228 1.912088-1.035 1.66034-2.439m-30.44056-1.791c-.707292-.033-1.375624-.075-2.043956-.093-.65035-.015-1.132867-.294-1.420579-.873-.611389-1.236-.917083-2.538-.581419-3.903.167833-.678.011988-1.224-.38961-1.737-.605395-.768-.668332-1.434-.152847-2.244.131868-.207.161838-.366-.038961-.519-.611389-.471-.584416-1.08-.386614-1.734.374626-1.227-.014985-2.19-1.13886-2.838-.908093-.522-1.165835-1.623-.55145-2.484.362638-.507.67133-1.044.956045-1.596.755244-1.464 1.438561-2.961 2.082917-4.473.338661-.786.44955-1.656.17982-2.469-.497503-1.485-.611389-3.021-.683317-4.56-.095904-2.073.293707-4.062 1.048951-6.003.878122-2.253 1.705295-4.527 3.041958-6.567.506494-.774 1.03996-1.596 1.933067-1.929.935065-.351 1.95105-.462 2.949051-.537.20979-.015.203796-.096.146853-.18-.18881-.279-.32967-.627-.806193-.486a10.58063 10.58063 0 0 1-1.525475.312c-.74925.102-1.375624.411-1.87912.969-.26074.285-.527473.567-.76124.87-1.225774 1.602-2.043956 3.429-2.85914 5.253-1.27073 2.844-2.118882 5.766-1.74126 8.931.122878 1.05.173827 2.115.539461 3.114.44955 1.227.35964 2.415-.206793 3.561-1.030969 2.091-1.966034 4.236-3.314685 6.159-.491509.699-.164835 1.491.527472 1.95 1.432568.945 2.061938 1.776 1.444556 3.366-.224775.579-.158841 1.083.371628 1.476.332668.249.32967.552.104895.876-.527472.762-.5005 1.29.074925 1.989.464536.564.779221 1.179.56044 1.944-.38961 1.353-.095904 2.625.485514 3.852.227773.483.581419.816 1.141859.873.821178.084 1.642357.093 2.463536.06.197802 0 .371628-.048.428571-.33" stroke="#61D9FF" stroke-width=".3"/>
      <path d="M29.536463 16.633c-.143856-.483-.377622-.735-.884115-.552-.137863.051-.293707.069-.443557.084-1.255744.12-2.412587.432-3.140859 1.596-.161838.258-.353646.489-.518481.744-.998002 1.548-1.684316 3.246-2.373627 4.941-.947053 2.316-1.693307 4.671-1.561438 7.224.071928 1.377.095904 2.769.551448 4.08.362637 1.047.368631 2.082-.044955 3.054-.92008 2.16-1.804196 4.344-3.14985 6.297-.44955.651-.158841 1.485.488511 1.941.842158.591 1.65135 1.275 1.468532 2.493-.044955.312-.131868.624-.227772.927-.143856.447-.083916.828.2997 1.128.38961.306.416583.627.125874 1.041-.431568.615-.368631 1.164.095904 1.737.512488.633.707293 1.317.503497 2.157-.311689 1.314-.011988 2.565.632367 3.735.14985.273.377623.456.71029.507.836164.132 1.675325.102 2.514486.102.254745 0 .413586-.093.428571-.378-.728272-.033-1.447552-.009-2.16983-.081-.536464-.054-.872128-.345-1.081918-.789-.563437-1.218-.824176-2.49-.50949-3.822.137861-.594.017981-1.131-.356644-1.557-.623377-.711-.584416-1.422-.146853-2.169.125874-.213.125874-.375-.05994-.531-.53946-.45-.518482-1.014-.341659-1.611.344656-1.164.017982-2.07-.977023-2.742-.911089-.615-1.090909-1.602-.461538-2.508a6.411232 6.411232 0 0 0 .473526-.771c.83017-1.632 1.555445-3.315 2.205795-5.028.281718-.744.404595-1.551.155844-2.328-.32967-1.02-.44955-2.064-.548452-3.114-.176823-1.872-.107892-3.738.41059-5.547.401598-1.401.944055-2.766 1.462537-4.128.605395-1.602 1.282717-3.177 2.307692-4.572.533467-.729 1.198802-1.182 2.133866-1.245.665335-.051 1.333667-.207 2.028971-.315" stroke="#61D9FF" stroke-width=".3"/>
      <path d="M25.547452 58.789c-.671328-.036-1.30969-.093-1.945054-.099-.575425-.006-.905095-.324-1.0999-.81-.476524-1.173-.728272-2.382-.431569-3.642.125874-.546.017982-1.047-.2997-1.428-.581419-.693-.518482-1.374-.143856-2.094.0989-.192.122877-.333-.044955-.486-.512488-.465-.458542-1.032-.287713-1.626.284716-.999-.06893-2.034-.953047-2.577-.434565-.267-.56044-.627-.635364-1.068-.11089-.651.203796-1.143.503496-1.686.752248-1.35 1.234765-2.826 1.813187-4.26.521478-1.278.635365-2.52.332667-3.915-.647352-2.961-.635364-5.931.44056-8.829.278721-.753.491508-1.533.758242-2.295.617382-1.74 1.1988-3.495 2.283716-5.025.425574-.594.941059-.954 1.6993-1.017.719281-.06 1.447553-.111 2.16084-.336-.143856-.459-.38062-.636-.839161-.51a5.25727 5.25727 0 0 1-1.141858.174c-.97103.042-1.684316.498-2.1998 1.302-.191809.297-.404596.582-.563437.897-1.546454 3.069-2.907093 6.207-3.404596 9.636-.287712 1.977-.107892 3.966.401599 5.898.278721 1.053.317682 2.079-.074925 3.066-.827173 2.052-1.576424 4.146-2.808192 6.012-.356643.54-.155844 1.398.287712 1.725 1.348652 1.002 1.84016 1.842 1.312688 3.27-.164835.444-.128871.9.26973 1.245.344655.3.32068.594.068931.966-.353646.51-.26973 1.176.113886 1.671.443557.57.626374 1.197.446554 1.935-.296704 1.227-.02997 2.4.473526 3.528.14985.333.38062.594.782218.633a19.004326 19.004326 0 0 0 2.262737.096c.236763 0 .44955-.03.461539-.351" stroke="#61D9FF" stroke-width=".3"/>
      <path d="M26.11089 58.063c-.587414-.033-1.138862-.099-1.69031-.084-.65035.015-.986015-.318-1.183817-.882-.383616-1.098-.545454-2.217-.32068-3.366.095905-.489.02098-.972-.266732-1.347-.5005-.651-.467533-1.299-.143856-1.977.092907-.195.107892-.339-.038961-.495-.422578-.45-.425575-.987-.23077-1.509.377623-1.047-.143856-1.812-.803197-2.475-.644355-.645-.83916-1.512-.353646-2.298a6.93858 6.93858 0 0 0 .482518-.939c.614385-1.458 1.120879-2.952 1.6004-4.452a4.399065 4.399065 0 0 0 .197801-1.338c-.002997-1.098-.407592-2.133-.473526-3.225-.104895-1.818-.164835-3.642.293706-5.409.482518-1.866 1.108891-3.693 1.711289-5.526.341658-1.035.743257-2.052 1.375624-2.958.32967-.471.722278-.789 1.348652-.846.752247-.066 1.516483-.096 2.250749-.294-.068931-.522-.347652-.621-.788212-.528a7.536034 7.536034 0 0 1-1.297702.171c-.77023.027-1.342658.36-1.741259 1.014-.11988.201-.26973.387-.371628.597-1.447553 2.943-2.58941 6.003-3.176823 9.243-.368632 2.04-.221779 4.098.263736 6.099.248751 1.026.2997 2.016-.05095 2.97-.731268 1.98-1.36963 4.008-2.50849 5.814-.302698.483-.134866 1.32.21878 1.623 1.357643 1.161 1.654346 1.845 1.207793 3.198-.122877.378-.152847.756.17982 1.074.338661.321.368631.648.110889 1.071-.26973.444-.32967.966.020979 1.416.485514.627.617383 1.293.473526 2.076-.212787 1.167-.011988 2.307.5005 3.381.152847.318.392607.483.755245.483.686313 0 1.378621.018 2.064935.03.200799-.003.371628-.03.383616-.312" stroke="#61D9FF" stroke-width=".3"/>
      <path d="M30.06993 19.681c-.02997-.534-.281718-.672-.737263-.582-.35964.072-.734265.135-1.0999.12-1.120879-.051-1.711288.6-2.127872 1.521-.068931.153-.152847.3-.20979.456-1.102897 2.844-2.148851 5.712-2.601399 8.748-.290709 1.962-.125874 3.915.317683 5.844.107892.462.185814.927.0989 1.398-.42857 2.343-1.264735 4.548-2.346653 6.66-.260739.507-.236763 1.332.122877 1.644.992008.855 1.528472 1.854 1.051948 3.192-.12887.366-.050949.69.212788.978.257742.282.260739.567.080919.918-.266733.519-.29071 1.029.095904 1.557.341658.465.476523 1.029.341658 1.623-.251748 1.104-.026973 2.166.311689 3.213.131868.408.383616.651.842157.648.602398-.003 1.207793.012 1.813187.018.23077.003.416584-.069.491509-.393-.572428 0-1.105894-.024-1.63936.006-.566434.033-.88112-.237-1.042958-.744-.338661-1.065-.53047-2.148-.317682-3.27.086913-.462.050949-.933-.218782-1.311-.434565-.612-.36863-1.23-.12887-1.863.074924-.198.095904-.348-.038962-.507-.350649-.417-.368631-.903-.197802-1.38.335665-.942-.08991-1.689-.632367-2.358-.65035-.801-.76124-1.485-.254746-2.409a5.252691 5.252691 0 0 0 .383617-.873c.44056-1.338.89011-2.676 1.27972-4.026.203796-.708.314685-1.443.14985-2.19-.53946-2.424-.626374-4.872-.110889-7.293.38062-1.8.947053-3.564 1.456543-5.337.2997-1.047.653347-2.079 1.21079-3.03.296703-.504.704295-.765 1.300699-.786.704296-.03 1.402597-.123 2.142857-.192" stroke="#61D9FF" stroke-width=".3"/>
      <path d="M27.273726 56.53c-.548451 0-1.030969-.018-1.51049.006-.503496.024-.782217-.213-.914085-.678-.296703-1.059-.461539-2.133-.272727-3.231.06893-.402.020979-.804-.173827-1.116-.383616-.615-.323676-1.209-.104895-1.83.05994-.162.05994-.291-.03896-.423-.314686-.417-.293707-.897-.17083-1.35.254745-.912-.122877-1.644-.626373-2.328a1.924049 1.924049 0 0 1-.32967-.66c-.173827-.63.056942-1.161.287711-1.737.56044-1.383.872128-2.847 1.243757-4.293.203796-.792.302697-1.596.161838-2.397-.38961-2.181-.497503-4.371-.107892-6.552.287712-1.596.716283-3.171 1.093906-4.752.296703-1.239.5994-2.478 1.171828-3.63.212787-.429.50949-.684 1.042957-.72.746254-.051 1.501499-.033 2.235764-.198-.020979-.456-.224775-.642-.68032-.549-.27872.06-.56943.111-.848151.084-1.228771-.123-1.912088.486-2.253746 1.599-.023976.081-.068932.156-.092908.231-.932067 2.766-1.828171 5.535-2.23876 8.439-.248752 1.749-.113887 3.486.14985 5.217.083915.546.251748 1.083.17982 1.641-.296704 2.247-1.03996 4.362-1.966035 6.414-.27872.618-.203796 1.251.203797 1.749.653346.789 1.177822 1.644.803196 2.754-.134865.408-.131868.825.17982 1.185.212788.249.173827.507.038962.798-.227772.495-.257742.972.071928 1.476.317682.486.401598 1.044.293706 1.641-.191808 1.065-.00899 2.109.32068 3.123.077922.237.215784.372.503496.405.554446.066 1.105894.036 1.657343.066.284715.021.497502-.051.68931-.384" stroke="#61D9FF" stroke-width=".3"/>
      <path d="M30.471529 21.679c.014985-.534-.23976-.645-.659341-.576-.311688.054-.644356.117-.95005.075-1.237762-.174-1.663337.582-1.972028 1.584-.575425 1.86-.932068 3.774-1.426574 5.652-.524475 1.974-.656343 3.951-.521478 5.979.062937.909.356643 1.791.317682 2.691-.08991 2.307-.815185 4.473-1.648351 6.603-.23077.591-.167833 1.161.191808 1.68.554445.801.98002 1.659.644355 2.682-.11988.366-.080919.699.131869 1.008.194805.279.182817.534.050949.846-.185815.444-.203797.897.065934 1.35.271144.453154.362081.991824.254745 1.509-.197802 1.005.011988 1.971.23976 2.934.035964.153.074925.387.254745.402.635365.054 1.273727.066 1.906094.081.131868.003.20979-.126.20979-.246-.002996-.15-.146853-.096-.230769-.099-.302697-.012-.602397-.024-.908092-.018-.428571.009-.68032-.159-.785214-.597-.242758-1.005-.374626-2.016-.224776-3.045.05994-.399.014985-.798-.15884-1.128-.281719-.54-.242758-1.068-.098902-1.611.044955-.183.095904-.345-.011988-.522-.245754-.399-.20979-.825-.122877-1.269.08991-.462.08092-.915-.104895-1.38-.17083-.423-.458542-.786-.587413-1.212-.203796-.66-.044955-1.287.182817-1.95.494506-1.422.752248-2.919 1.03996-4.401.11988-.612.194806-1.239.086914-1.857-.362638-2.067-.413587-4.14-.101899-6.21.245755-1.62.599401-3.231.926074-4.839.221779-1.116.44955-2.235.872128-3.3.188811-.477.485515-.714 1.021978-.711.7013.009 1.402598-.066 2.115884-.105" stroke="#61D9FF" stroke-width=".3"/>
      <path d="M30.657343 22.675c.035964-.453-.116884-.657-.617383-.576-.41059.069-.83916.027-1.255744.069-1.006993.09-1.006993.099-1.303697 1.08-.530469 1.737-.743256 3.543-1.15984 5.304-.575424 2.43-.764235 4.875-.428571 7.341.17083 1.251.17982 2.466-.113886 3.684-.344656 1.431-.554446 2.895-1.132867 4.269-.185815.438-.056943.906.182817 1.341.428571.78.83017 1.572.572427 2.526-.0989.372-.086913.765.122877 1.125.125875.219.086914.447.011989.678-.125875.402-.194806.816.014985 1.221.237724.45081.317906.968287.227772 1.47-.146853.816-.014985 1.605.113886 2.4.131868.804.143856.801.932068.807.251748.003.503496.012.755245.015.194805.003.362637-.027.323676-.288-1.537463-.147-1.501499-.18-1.672328-1.635-.131868-1.125.14985-2.25-.218781-3.39-.224775-.699-.092907-1.551-.083916-2.313.014985-.945-.02997-1.809-.44955-2.673-.224776-.468-.23077-1.029-.077923-1.533.518482-1.677.71029-3.405.97103-5.13.170829-1.119-.155845-2.205-.152848-3.309.002997-.906-.134865-1.818-.023976-2.715.251748-2.028.566434-4.047.875125-6.069.14985-.975.317682-1.953.59041-2.904.12887-.459.35964-.708.875125-.699.716283 0 1.417582-.066 2.121878-.096" stroke="#61D9FF" stroke-width=".3"/>
      <path d="M26.5994 52.153c0 .252-.00899.504.002998.756.011988.252.050949.501.077922.75.107892 1.026.107892 1.026 1.090909 1.032.188811 0 .473526.087.47053-.204-.002998-.252-.29071-.162-.434566-.147-.431569.045-.578422-.135-.644356-.546-.23077-1.464-.074925-2.94-.242757-4.413-.098901-.867-.155844-1.794-.041958-2.697.02997-.252-.02098-.498-.068931-.75-.137862-.738-.5005-1.464-.323677-2.223.206794-.885.323677-1.782.431569-2.679.158841-1.35.35964-2.697.23077-4.065a26.225051 26.225051 0 0 1 .050948-5.529c.173826-1.5.305694-3.006.482518-4.506.107892-.918.197802-1.836.401598-2.736.077922-.342.23077-.504.623377-.495.584415.015 1.174825-.042 1.75924-.066.188812-.006.371629.012.338662-.285-.026973-.252-.143856-.294-.371629-.279-.467532.036-.938062.051-1.408591.063-.92008.024-.917083.021-1.114885.915-.353646 1.59-.557443 3.204-.797203 4.812-.215784 1.458-.53047 2.904-.527472 4.389.002997 1.293.113886 2.58.191808 3.867.125874 2.181-.404596 4.299-.935065 6.396-.14985.591-.107892 1.098.110889 1.647.275724.681.53047 1.38.413586 2.145-.137862.939.191809 1.878.017982 2.82a.103595.103595 0 0 0 .005994.051c.332668.633.254746 1.305.20979 1.977" stroke="#61D9FF" stroke-width=".3"/>
      <path d="M27.861139 35.383c.056943-.894.023976-1.593.08991-2.301.131868-1.419.14985-2.847.236763-4.272.074925-1.239.113886-2.478.26074-3.717.03896-.333.17982-.414.47952-.414.56943 0 1.138861-.024 1.708292-.054.134865-.006.38961.096.311688-.216-.038961-.168.011988-.396-.332667-.357a11.327314 11.327314 0 0 1-1.657343.063c-.38961-.012-.5005.153-.563437.51-.26973 1.557-.395604 3.126-.551448 4.695-.173826 1.767-.494506 3.528-.407593 5.313.044956.969.113886 1.944.137863 2.913.050949 1.968-.272728 3.912-.605395 5.844-.098901.573-.11089 1.113.053946 1.68.17982.627.344655 1.266.26973 1.932-.095904.876.146853 1.758.008991 2.637-.011988.078.014985.168.038961.246.146854.489.17083.987.113887 1.494-.083917.774.026973 1.539.116883 2.31.014985.129.026973.294.21878.27.257743-.033.557443.12.758243-.117.12887-.156.002997-.231-.167833-.225-.215784.009-.383616-.006-.413586-.297-.164835-1.488-.08991-2.985-.137862-4.476-.026973-.843.014985-1.713-.02997-2.55-.074925-1.353-.194805-2.688-.056943-4.053.23976-2.343.314685-4.695.11988-6.858m25.801199 23.922c-.152848.969-.82118 1.131-1.624376 1.182-.884116.057-1.768232.192-2.658342.294.356644.765.401599.771 1.171829.651.713286-.111 1.427572-.2 2.142857-.267.50949-.042.782218-.312.92907-.774a2.165987 2.165987 0 0 0 .038962-1.086m-.707293-1.887c-.2997.711-.392607.798-1.111888.861-.74925.066-1.501499.111-2.25075.183-.152847.015-.44955-.072-.38961.216.05095.243.071928.594.506494.546.815185-.096 1.627372-.186 2.445554-.24.41059-.027.614386-.231.68032-.597.05994-.318.080919-.648.11988-.969" stroke="#61D9FF" stroke-width=".3"/>
      <path d="M48.933067 57.358c.2008.285.071928.735.476523.729.836164-.018 1.672328-.12 2.508492-.174.323676-.021.47952-.204.542458-.492a4.820484 4.820484 0 0 0 .06893-.549c.014985-.165.02098-.33.02997-.495-.0989.828-.692307.846-1.312687.867-.737262.018-1.474525.069-2.313686.114" stroke="#61D9FF" stroke-width=".3"/>
      <path d="M52.118881 55.753c-.221778.402-.584415.378-.95904.384-.65035.009-1.3007.054-1.95105.09-.158841.009-.416583-.075-.335664.252.056943.216 0 .513.41059.471.695304-.072 1.3996-.135 2.097901-.114.542458.015.722278-.204.713287-.693 0-.129.014985-.258.023976-.39m-.440559-1.041c-.134866.336-.317683.318-.506494.324-.698301.018-1.3996.042-2.097902.081-.173826.009-.446553-.081-.383616.273.03896.228.03896.462.395604.435.74925-.054 1.498502-.075 2.247752-.096.26074-.006.35964-.123.347653-.372-.008991-.168-.002997-.336-.002997-.645m-1.777223-.012v-.033c.383616 0 .767233.003 1.15085 0 .335663-.003.206792-.282.245753-.45.062937-.279-.155844-.183-.281718-.18-.698302.027-1.3996.066-2.1009.09-.407592.015-.431567.015-.395603.156.053946.219.03896.498.434565.429.305694-.057.62937-.012.947053-.012m3.95005 1.347c.026973-.291.071928-.717.122877-1.272-.23077.54-.107892.978-.122877 1.272m-30.473527 6.384c.422578-.105.68032-.246.857143-.519-.326673.036-.638361.099-.857143.519m7.774226-8.772c-.167832.015-.362637-.132-.488511.051-.02997.045.00899.21.041958.222.21878.06.2997-.156.446553-.273m18.041958 6.879c.02997.036.053946.087.092907.114.08092.06.074925-.024.062937-.057-.017982-.042-.062937-.075-.095904-.108a.443964.443964 0 0 0-.05994.051M32.055045 24.481c-.01579-.027-.031579-.06-.047369-.087-.015789.012-.052631.021-.052631.033.007293.028635.019637.056778.036842.084.021053-.009.042105-.021.063158-.03m16.117548 32.331c-.022613-.021-.040703-.042-.063316-.066-.016186.026112-.028309.053253-.03618.081-.004522.012.022613.024.031658.039.024803-.016738.047492-.034799.067838-.054M29.89011 16.246c-.008991-.024-.02098-.054-.02997-.078a.911856.911856 0 0 0-.11089.051.34107.34107 0 0 0 .074926.054c.011988.003.03896-.018.065934-.027m-6.505395 46.207c-.01155-.021578-.027024-.040302-.045454-.055-.02121.00995-.039923.025387-.054546.045.01155.021578.027025.040302.045455.055.021806-.00878.040777-.024431.054545-.045zm1.049535-.649c-.01579.013333-.036842.033333-.052632.046667.011502.023082.027923.041571.047369.053333.019664-.008238.03764-.0219.052631-.04m.954945-.776258l.035965-.054333c-.021259-.020474-.044522-.035754-.068932-.045278-.00899-.004528-.020979.031695-.032967.045278.021028.020627.04307.03879.065934.054333M49.197902 60.336c-.0125-.015-.03125-.035-.04375-.05-.023203.010955-.042556.026437-.05625.045.009013.020816.023996.039652.04375.055.015355-.018925.034337-.035798.05625-.05m-.104895-.201619c-.013333-.019048-.033333-.033333-.046667-.052381-.024994.010956-.043855.027797-.053333.047619.009613.019824.025596.037764.046667.052381.015703-.017004.033556-.032943.053333-.047619m-.104895-.201c-.017647-.019048-.035294-.038095-.047059-.052381-.02231.012018-.04052.028396-.052941.047619.008074.021203.024628.03963.047059.052381.012662-.019087.030822-.035422.05294-.047619m-.198901-.201524l.09.057143.01-.1-.1.042857zm-.063447-.158857c.02488-.008855.044733-.025098.055556-.045454-.00874-.021046-.024063-.039851-.044445-.054546-.02146.014308-.040185.031161-.055555.05.005555.00909.033333.031818.044444.05zM33.033966 39.958c.74026-.771 1.516484-1.479 2.493506-1.962 3.008992-1.488 6.878122-.996 9.413587 1.209 1.216783 1.056 2.07992 2.34 2.577422 3.867-.095904.402.074926.807.011989 1.209-.236764.045-.173827-.15-.197803-.258-.815185-3.363-3.764235-5.985-7.231768-6.372-3.134865-.351-5.55944.816-7.228771 3.507-.098901.162-.248751.318-.182817.606.656343-.756 1.363636-1.392 2.235764-1.809 2.346653-1.122 4.711289-.972 7.060939-.021 2.7003 1.095 4.642358 2.94 5.52048 5.787.00899.393.017981.786.026972 1.182-.30869-.021-.224775-.309-.260739-.462-.5005-2.31-1.81019-4.035-3.776224-5.292-1.453546-.927-3.041958-1.488-4.762237-1.557-2.856144-.111-5.04096 1.059-6.473527 3.564-.110889-1.104.128871-2.124.728272-3.06.008991-.039.017982-.084.02997-.123m-.404595 1.899c-.014985-.036-.026973-.066-.038961-.093-.035965.045-.083917.09-.107893.144-.011988.021.02098.066.032967.099.035964-.051.074926-.105.113887-.15" stroke="#61D9FF" stroke-width=".3"/>
      <path d="M32.26074 43.603c1.846153-2.238 4.24975-2.784 6.971028-2.241 2.907093.582 5.367633 1.935 7.117882 4.413.512488.729.866134 1.536 1.138861 2.379-.017982.261.116884.513.02997.777-.275724-.033-.30869-.294-.35964-.471-1.000999-3.393-3.446553-5.286-6.638362-6.372-1.975025-.672-3.962037-.801-5.922077.111-.989011.462-1.708292 1.215-2.34066 2.073a1.483442 1.483442 0 0 1 .002997-.669" stroke="#61D9FF" stroke-width=".3"/>
      <path d="M32.266733 44.905c1.54945-1.599 3.485515-2.004 5.586414-1.689 2.55045.381 4.834166 1.443 6.824176 3.093 1.114885.924 1.945055 2.076 2.517482 3.405a1.67129 1.67129 0 0 0 .284715.465c.014986.258.026973.51.041958.768-.302697-.192-.440559-.531-.560439-.819-1.072927-2.613-3.062937-4.272-5.553447-5.412-1.582417-.726-3.215784-1.251-4.987013-1.197-1.63936.054-3.032967.636-4.093906 1.929-.164835-.165-.101898-.354-.05994-.543" stroke="#61D9FF" stroke-width=".3"/>
      <path d="M32.236763 46.261c1.57942-1.275 3.38961-1.491 5.28072-1.041 3.032967.723 5.793206 2.001 8.010989 4.278.568568.57414 1.049282 1.229212 1.426573 1.944.134865.264.392607.405.536464.651v.621c-.335665-.222-.56044-.57-.74026-.894-1.264736-2.298-3.23077-3.777-5.532468-4.875-1.348651-.642-2.727273-1.206-4.216783-1.431-1.777223-.27-3.404595.009-4.765235 1.29-.05994-.189-.02997-.363 0-.543m.84026-6.273c-.03.039-.06.084-.1.123.04-.042.07-.084.1-.123m-19.22987 6.783c-1.21079-.267-1.867133-1.932-1.417583-2.493m1.51049 2.217c-2.343656-1.65-.092907-3.153.020979-3.297" stroke="#61D9FF" stroke-width=".3"/>
      <path d="M32.227772 47.692c-.12887.165-.101898.342-.044955.525 0 .249-.086913.501.044955.741 0 .129 0 .264-.002997.393-.0989.36-.05994.72.002997 1.08v.36c-.017982.393-.152847.786.002997 1.182 0 .108-.002997.216-.002997.33-.08991.759-.08991.759-.83916.804a.462337.462337 0 0 0-.05095.009c-.821178.024-1.645354-.105-2.463536.009-.308691-.069-.296703-.303-.296703-.546.002997-5.211.014985-10.416 0-15.627-.008991-2.535.095904-5.073-.023976-7.608.041958-1.128.092907-2.256.12887-3.384.005995-.186.017983-.363.131869-.522h2.274725c.353646.084.707293.024 1.06094.015.05994.159.11988.315.17982.474-.158842.114-.08991.27-.071929.414v1.119c-.03896.165-.044955.33.017982.486-.071928.432-.032967.864-.014985 1.299.002997.09.005994.18.005994.273-.002997.315-.005994.636-.005994.951a1.190043 1.190043 0 0 0 0 .648v.975a1.22308 1.22308 0 0 0-.00899.624c.002996.318.005993.639.00899.957-.05994.192-.074925.381 0 .573-.005994.099-.023976.201-.020979.3.002997.111-.050949.267.05994.324.146853.078.236764-.072.335665-.156 2.481518-2.061 5.337662-2.904 8.526473-2.535 5.652348.651 9.917083 5.481 9.932068 11.187.002997.705-.065934 1.407.05095 2.109-.125875 2.385-.05994 4.779-.077923 7.167 0 .171-.017982.336-.131868.471-.851149-.102-1.702298-.093-2.556444-.009-.161838-.024-.320679-.051-.482517-.078l.011988.003h-.443556c-.005994-.108-.05095-.219.017982-.321v-.624c.125874-.375-.11988-.762.02997-1.137-.014985-.258-.026973-.513-.041958-.771.164835-.408-.14985-.834.03896-1.245.083917-.264-.053945-.519-.02997-.777.122878-.411-.110889-.834.035965-1.245-.008991-.393-.017982-.786-.026973-1.182.101898-.48-.176824-.966.02997-1.443.062937-.402-.104896-.807-.008991-1.209-.062938-.447-.08991-.903-.191809-1.338-1.264735-5.424-7.462537-7.782-11.982018-4.557-1.006993.72-1.852147 1.593-2.310689 2.781l-.023976.024c-.008991.039-.017982.084-.02997.123-.596404.936-.83916 1.956-.728272 3.06.002997.147.005994.291.008991.435-.053946.225-.044955.45-.005994.675.002997.207.008991.417.011988.627-.041958.189-.104895.378.05994.546-.152847.258-.050949.54-.086913.81-.02997.18-.062937.357-.002997.537-.086913.297-.104895.594 0 .894" fill="#FFF" fill-rule="nonzero"/>
    </g>
  </g>
</svg>
