<svg width="80" height="80" viewBox="0 0 80 80" xmlns="http://www.w3.org/2000/svg">
  <title>
    hpb-high-performance-blockchain
  </title>
  <defs>
    <linearGradient x1="153.2476%" y1="60.301845%" x2="19.226494%" y2="44.758442%" id="a">
      <stop stop-color="#2AE4E8" offset="1%"/>
      <stop stop-color="#22C4D9" offset="40%"/>
      <stop stop-color="#1EB7D2" offset="56%"/>
      <stop stop-color="#0B65C1" offset="100%"/>
    </linearGradient>
    <linearGradient x1="110.331668%" y1="42.65334%" x2="-2.172016%" y2="55.362423%" id="b">
      <stop stop-color="#A8DAE3" offset="1%"/>
      <stop stop-color="#C4E6EC" offset="56%"/>
      <stop stop-color="#F0F9FA" offset="100%"/>
    </linearGradient>
    <linearGradient x1="90.228786%" y1="69.638242%" x2="-6.876299%" y2="35.392733%" id="c">
      <stop stop-color="#A8DAE3" offset="1%"/>
      <stop stop-color="#B2DEE6" offset="21%"/>
      <stop stop-color="#BEE3EA" offset="45%"/>
      <stop stop-color="#C4E6EC" offset="56%"/>
      <stop stop-color="#F0F9FA" offset="100%"/>
    </linearGradient>
    <linearGradient x1="14606.4239%" y1="10090%" x2="1509.37789%" y2="11678%" id="d">
      <stop stop-color="#A8DAE3" offset="1%"/>
      <stop stop-color="#B2DEE6" offset="21%"/>
      <stop stop-color="#BEE3EA" offset="45%"/>
      <stop stop-color="#C4E6EC" offset="56%"/>
      <stop stop-color="#F0F9FA" offset="100%"/>
    </linearGradient>
  </defs>
  <g fill="none" fill-rule="evenodd">
    <circle fill="#000" cx="40" cy="40" r="40"/>
    <g fill-rule="nonzero">
      <path d="M32.774592 27.701053s4.112245-9.31579-3.954082-18.31579c0 0-4.586734-6-14.07653-5.526316l1.897959-.757894a4.087732 4.087732 0 0 1 .982194-.258948l1.864745-.247894L32.616428.541579s4.63893-.926842 8.15648.094737c1.00369.295203 1.912968.846483 2.638163 1.599473C45.350153 4.237895 49.247296 9.533684 46.69296 17.91c0 0-2.530612 9.31579-12.020408 11.526316 0 .001579-2.372449.633158-1.89796-1.735263" fill="url(#a)" transform="translate(9 10)"/>
      <path d="M34.42898 30.502105s10.108214-1.340526 13.61153-12.9c0 0 2.745715-7.032631-2.59704-14.876842l1.635408 1.222105a4.175532 4.175532 0 0 1 .732295.704211l1.18148 1.460526 8.586684 10.12421s3.204387 3.473685 4.161275 7.004211a5.99961 5.99961 0 0 1 0 3.080527c-.703826 2.693684-3.20755 8.772631-11.704081 10.953158 0 0-9.285766 2.68421-16.113674-4.252106.007908.00158-1.766683-1.692631.506123-2.52" fill="url(#b)" transform="translate(9 10)"/>
      <path d="M32.187806 32.892632s5.92954 8.281579 17.799694 5.949473c0 0 7.509592-.881052 11.938163-9.273158l-.316326 2.014737a4.11411 4.11411 0 0 1-.27995.977369l-.73704 1.727368-4.92204 12.31579s-1.567399 4.455789-4.24194 6.956842c-.7635.709585-1.698853 1.208573-2.714081 1.447894-2.7125.64421-9.263623 1.29158-15.183674-5.171052 0 0-6.737755-6.923685-3.805408-16.2-.001582-.006316.664286-2.358948 2.462602-.745263" fill="url(#a)" transform="translate(9 10)"/>
      <path d="M28.87415 32.82472s-4.267476 9.122627 3.434494 18.234305c0 0 4.351396 6.05412 13.691356 5.819525l-1.881979.702222c-.313649.116317-.640428.193016-.972847.22834l-1.83691.200187-12.945403 1.707853s-4.57829.802316-8.009676-.29559c-.978168-.317646-1.857508-.88569-2.551783-1.648422-1.85556-2.033158-5.552691-7.369418-2.839285-15.600582 0 0 2.71496-9.163289 12.090663-11.116685 0 .009384 2.354416-.564593 1.82137 1.768848" fill="url(#c)" transform="translate(9 10)"/>
      <path d="M27.893673 29.903684s-10.138265 1.083158-13.935765 12.549474c0 0-2.92602 6.96 2.214286 14.93842L14.57 56.128422a4.065913 4.065913 0 0 1-.713316-.723158l-1.145102-1.490526-8.324133-10.33579S1.265306 40.02158.406479 36.473684a6.001204 6.001204 0 0 1 .06801-3.086842c.771838-2.676316 3.42898-8.68421 11.976123-10.651579 0 0 9.350613-2.452105 15.999796 4.661053.006327 0 1.736633 1.73842-.556735 2.507368" fill="url(#a)" transform="translate(9 10)"/>
      <path d="M29.687245 27.55579s-6.049745-8.196316-17.881939-5.684211c0 0-7.495357.986842-11.805306 9.440526l.284694-2.022631a4.192802 4.192802 0 0 1 .265714-.978948l.711735-1.736842 4.748061-12.391579s1.502551-4.477894 4.140714-7.015263c.756042-.72027 1.687147-1.231291 2.701429-1.482631 2.704592-.683685 9.244643-1.421053 15.253265 4.954736 0 0 6.835817 6.82579 4.034745 16.143158 0-.006316-.631071 2.362105-2.453112.773684" fill="url(#d)" transform="translate(9 10)"/>
    </g>
  </g>
</svg>
