<svg width="80" height="80" viewBox="0 0 80 80" xmlns="http://www.w3.org/2000/svg">
  <title>
    hsr-hshare
  </title>
  <g fill="none" fill-rule="evenodd">
    <circle fill="#55478B" cx="40" cy="40" r="40"/>
    <path d="M53.648 58.632c-.164-.653-.265-1.294-.248-1.963.01-.294.098-.62-.144-.873-.1-.035-.19-.1-.28-.1-2.167-.008-4.333-.014-6.5-.007-.493 0-.696.245-.713.783-.023.613-.014 1.23-.06 1.843-.065.826-.468 1.458-1.242 1.8-.502.222-1.03.39-1.538.58-.062.488-.09.944.037 1.46.206.06.3.11.395.11 4.176.005 8.354.005 12.53.008.212 0 .407-.025.543-.232v-1.38c-.408-.13-.784-.272-1.17-.372-.884-.227-1.388-.772-1.61-1.658zm-7.752-9.772c-.075.07-.11.112-.152.138-.04.026-.09.052-.137.052-3.096.008-6.193.017-9.288.02-.147 0-.29-.047-.423-.07-.204-1.14-.243-3.992-.078-5.906 1.097-.192 2.223-.062 3.34-.086 1.08-.023 2.167-.008 3.252-.004 1.124.003 2.25-.018 3.484.017v5.84zm22.91-4.257c-.03-.415-.266-.62-.705-.644-.1-.007-.205-.002-.31-.002-2.836 0-5.675 0-8.513.004-.144 0-.29.05-.372.065-.23.208-.217.424-.194.618.08.702-.167 1.296-.535 1.873-.357.56-.683 1.137-.998 1.72-.15.283-.322.52-.653.665-.484 0-1 .012-1.515-.002-.5-.013-1.01.078-1.445-.067-.254-.484-.152-.9-.152-1.3-.007-8.054-.006-16.11-.006-24.16 0-.31-.048-.63.015-.922.242-1.122.24-2.39 1.61-2.902.074-.028.114-.16.173-.25-.024-.388.126-.8-.113-1.198-.15-.034-.295-.093-.44-.093-3.405 0-6.81.01-10.216.018-.044 0-.092.032-.13.06-.043.03-.074.074-.132.134-.09.422-.08.875.002 1.32.084.074.152.184.237.198.66.103.942.512 1.084 1.13.066.293.21.57.225.88.056 1.07.046 2.137.024 3.11-.24.255-.446.252-.652.26-3.547.107-8.004.04-9.24-.14-.036-.088-.105-.178-.105-.266-.01-.872-.008-1.744-.008-2.616 0-.103-.002-.207.018-.306.18-.927.45-1.792 1.477-2.155.124-.043.202-.22.29-.322-.033-.42.126-.837-.177-1.265-.368-.015-.772-.045-1.178-.045-2.632-.005-5.263-.005-7.897 0-.564 0-1.13.018-1.696.045-.083.004-.162.106-.253.173-.065.39-.11.788.01 1.204.108.097.204.25.337.29.792.26 1.064.887 1.245 1.613.185.75.22 2.008.035 3.71-.683.166-1.4.056-2.107.077-.67.02-1.343.004-2.013.004-.722 0-1.446-.004-2.166.002-.717.004-1.433.018-2.157.026-1.088 1.862-2.146 3.664-3.203 5.468-.952 1.63-1.908 3.26-2.85 4.896-.766 1.326-1.494 2.675-2.272 3.994-.273.463-.235.845.025 1.285.492.833.935 1.697 1.425 2.533 1.827 3.13 3.668 6.255 5.498 9.382.337.57.654 1.153.995 1.724.277.46.63.74 1.243.73 2.01-.034 4.023-.016 6.036-.01.377.003.715-.03.924-.394v-5.824l-2.597-.064c-.56-.976-1.09-1.904-1.628-2.83-.973-1.675-1.928-3.366-2.935-5.022-.433-.71-.366-1.293.06-1.987 1.016-1.654 1.95-3.354 2.925-5.033.536-.92 1.085-1.835 1.635-2.766 6.895 0 13.753 0 20.614.008.083 0 .17.097.254.15.182 1.884.144 4.53-.082 5.595-.094.035-.187.097-.28.097-3.045.007-6.09.008-9.133 0-.136 0-.27-.107-.44-.18v-1.7c0-.514.012-1.028-.003-1.54-.014-.55.06-1.11-.04-1.606-.19-.076-.28-.144-.37-.145-2.27-.008-4.54-.01-6.81 0-.133 0-.266.114-.433.192v1.54c0 7.595.002 15.186 0 22.78 0 .563.045 1.137-.042 1.69-.17 1.077-.708 1.877-1.848 2.202-.376.107-.82.095-1.155.46 0 .274-.02.58.003.88.027.347.27.592.574.617.153.014.308.004.464.004h12.076c.204 0 .415.016.593-.215.054-.455.124-.952-.048-1.42-.386-.125-.718-.263-1.063-.337-.905-.195-1.388-.763-1.664-1.618-.374-1.156-.254-2.3-.13-3.538H60.19c.36 0 .724.016 1.084 0 .552-.025.914-.28 1.198-.787 1.276-2.27 2.602-4.513 3.895-6.773.42-.73.965-1.316 1.74-1.68.226-.107.44-.24.704-.384 0-.315.018-.62-.003-.92zM54.185 25.075v6.096l2.518.07c.333.526.662 1.035.978 1.553.29.48.546.982.854 1.45.367.556-.023 1.22.31 1.816.123.026.264.083.41.085 2.99.004 5.98.002 8.975.002.208 0 .406-.028.552-.244V34.54c-.152-.065-.287-.12-.423-.18-.768-.322-1.417-.752-1.843-1.52-1.268-2.273-2.583-4.518-3.875-6.775-.203-.36-.42-.7-.776-.91-4.357-.144-6.372-.047-7.682-.08z" fill="#FFF"/>
  </g>
</svg>
