<svg width="80" height="80" xmlns="http://www.w3.org/2000/svg">
  <g fill="none" fill-rule="evenodd">
    <circle fill="#FFF" cx="40" cy="40" r="40"/>
    <path d="M20.520843 39.206854c0 6.297364-.05412 12.595473.03146 18.891905.027154 2.000287-1.311797 3.174757-2.75824 3.180158-1.634456.006146-2.777527-1.281376-2.785018-3.192077-.016105-4.125917-.005993-8.251834-.005805-12.377751 0-8.406977.003183-16.813768-.001686-25.220559-.000749-1.247478.285019-2.349312 1.469476-3.003223 1.857865-1.02566 4.032959.231131 4.039139 2.364025.018726 6.452508.006741 12.905015.006741 19.357522h.003933zm38.953783-.01382c-.000375-6.332192-.002622-12.66457.000749-18.996762.000936-1.852034 1.027902-3.022965 2.655805-3.050716 1.603745-.027192 2.75749 1.151934 2.855618 2.923324.011985.216604.003183.434326.003183.651676.000562 12.292077.00206 24.583968-.003745 36.876046-.000187.493367-.020974.996977-.119288 1.478051-.294195 1.44043-1.55412 2.31765-3.02809 2.154126-1.357491-.150673-2.356742-1.247292-2.359176-2.66649-.010674-6.456418-.004682-12.912836-.005056-19.369255M48.060187 51.671638c0-4.063339-.003558-8.12649.001498-12.189829.002248-1.660759 1.082023-2.846217 2.629963-2.911217 1.55618-.065187 2.800562 1.118968 2.84588 2.816977.051311 1.921877.018727 3.845802.019101 5.768983.00075 6.203495.006555 12.406805-.00412 18.6103-.003183 1.915545-1.05131 3.086849-2.71779 3.105473-1.610112.018066-2.766292-1.101461-2.7706-2.731676-.011235-4.156275-.003744-8.312736-.003932-12.469011m-22.37691-26.446992c.001124-3.755659-.002434-7.511318.003184-11.266977.001685-1.110215.450187-1.999355 1.459925-2.516748.956367-.490014 1.929962-.441031 2.838015.149184.788015.512363 1.195693 1.279885 1.19719 2.199011.013858 7.604441.018166 15.208883-.000748 22.813138-.003933 1.554412-1.241573 2.719383-2.75 2.708022-1.552248-.011547-2.733146-1.188997-2.742135-2.818653-.0206-3.755659-.006554-7.511318-.00543-11.266977m.005392 30.567042c.000937-2.761103-.014794-5.522393.00824-8.28331.0103-1.217865.72397-2.23682 1.798877-2.574298 1.088202-.341948 2.169475-.226662 2.898876.697866.413108.523538.754307 1.268524.761236 1.917779.059176 5.521648.043633 11.044226.028277 16.566433-.004494 1.602278-1.135019 2.732235-2.672097 2.757378-1.60281.026447-2.793071-1.070172-2.81442-2.705416-.03633-2.791833-.009925-5.584226-.008989-8.376432m27.865319-34.599277c0 2.355459.042884 4.712035-.012172 7.066376-.054308 2.331432-2.299439 3.626962-4.190637 2.46553-.859176-.52745-1.291386-1.305774-1.291011-2.32063.002434-4.86606-.007117-9.732307.005056-14.598368.003558-1.444154 1.05955-2.55381 2.462734-2.659598 1.53633-.115846 2.833895.821719 2.947565 2.334226.127341 1.695587.06573 3.40533.08015 5.108926.007303.867722.001311 1.73563.001311 2.603538h-.002996zm-11.362791 10.81194c.000375 1.767478.03502 3.536075-.027153 5.301318-.013296.378267-.294944.912049-.605805 1.06328-.253558.123296-.850562-.109698-1.096442-.370257-1.19382-1.264613-2.329214-2.584355-3.461985-3.90447-.16573-.193324-.289888-.492063-.292135-.74331-.0206-2.232349-.051873-4.466188.007678-6.697234.03764-1.410817 1.06573-2.505946 2.307865-2.652336 1.446442-.170601 2.662172.546634 3.044944 1.884628.140636.491877.113108 1.038324.11779 1.560186.01367 1.519212.004869 3.038797.005243 4.558195m-5.497359 28.857467c1.998876 1.836017 3.544756 1.86265 5.421536.13.029213.282722.071348.501562.071722.720587.003746 2.72702.005244 5.45404-.000749 8.18106-.003745 1.645115-1.098314 2.857207-2.618726 2.91904-1.568165.06351-2.806742-1.100343-2.858802-2.802077-.055243-1.795788-.014232-3.59437-.014981-5.391833-.000187-1.203711 0-2.407422 0-3.756777m5.49015-41.32497c-1.665356-1.544728-3.363296-1.921504-5.490075.061834 0-1.452536-.000375-2.804126.000187-4.155716.000562-1.551806-.034457-3.104914.013483-4.655416.04457-1.432235.8397-2.384327 2.136143-2.708209 1.138764-.284398 2.364794.209713 2.961797 1.26424.205056.362436.358053.809986.362173 1.220287.030337 2.947722.016292 5.895817.016292 8.97298m-5.491611 29.414568c0-1.394614-.036891-2.790903.02472-4.182723.016479-.369512.255992-.918008.537827-1.033108.272846-.111562.846442.125157 1.090637.38944 1.221535 1.321605 2.391947 2.690889 3.543633 4.073582.19307.231691.283708.609771.290075.922852.029026 1.455888.022659 2.91308.008052 4.369527-.014232 1.419942-1.026592 2.492536-2.479962 2.66053-1.317416.152163-2.734083-.747407-2.86367-2.101791-.161237-1.685344-.038765-3.397507-.038765-5.097937-.037453-.000186-.074906-.000186-.112547-.000372" fill="#2D2D2D"/>
  </g>
</svg>
