<svg width="80" height="80" viewBox="0 0 80 80" xmlns="http://www.w3.org/2000/svg">
  <title>
    hvn-hive
  </title>
  <g fill="none" fill-rule="evenodd">
    <circle fill="#27B4F6" cx="40" cy="40" r="40"/>
    <path d="M26 64.936145h8.44617V15.0003H26m9.809234 20.389158h1.90817v-1.956024h-1.90817m3.32634 1.939156h1.84234v-1.968976h-1.84234m3.266766 1.998494h1.880766v-1.928313H42.40234m-6.608893 5.198795h1.946596v-1.895783h-1.946596m16.334425 8.53464h1.765192V43.41777h-1.765192m-6.506127 5.21476h1.727064v-1.909337h-1.72707m3.24264 1.936144h1.73898v-1.916265h-1.73898m3.26379 1.881628h1.765192v-1.893676H52.12817m-6.524595 5.230422h1.736297v-1.940663h-1.736298m3.23847 1.932832h1.736594v-1.925h-1.736595m3.31919 1.929215h1.69847v-1.966565h-1.69847m-6.573446 5.294578h1.73898v-1.916265h-1.73898m3.30132 1.89729H50.6257v-1.925h-1.736596m3.25217 1.943975h1.73868v-1.916265h-1.73868m-6.55349 5.229518h1.73898V56.68283h-1.73898m3.296852 1.93464h1.69817v-1.966265h-1.69817m3.267958 1.940662h1.715744v-1.948493h-1.715744M39.13766 32.134036h1.88285v-1.75542h-1.88285m3.276595 1.75542h1.88285v-1.75542h-1.88285m3.198255 5.008734h1.736596v-1.925H45.61251m3.26349 1.936746h1.715447v-1.948494H48.876m-3.29268 5.226808h1.748212v-1.878916H45.58332m3.280765 1.874096h1.73898v-1.916265h-1.73898m3.301617 1.944277h1.736596v-1.925h-1.736596m-6.553192 5.238253h1.736596v-1.925H45.61251m3.272128 1.96235h1.69817V40.08494h-1.69817m3.256042 1.900903h1.73898v-1.916265h-1.73898m-6.604723 5.226205h1.78783v-1.86235h-1.78783m3.34034 1.90512h1.715448V43.39006h-1.715447M45.586 32.116867h1.77234V30.42982H45.586m.01281 31.19247h1.716637v-1.735844H45.59881m3.27302 1.787952h1.724383v-1.73976H48.87183m3.315915 1.726507h1.668085v-1.79217h-1.668085m-6.592213 5.118675h1.724085v-1.739758h-1.724085m3.259318 1.72259h1.72081v-1.753916h-1.72081m3.288214 1.765964h1.734808v-1.74036h-1.734808" fill="#FFF"/>
  </g>
</svg>
