<svg width="80" height="80" xmlns="http://www.w3.org/2000/svg" xmlns:xlink="http://www.w3.org/1999/xlink">
  <defs>
    <path id="a" d="M.123652.058083h13.595601v10.383611H.123653z"/>
    <path id="c" d="M.054061.036232H18.98839v9.554752H.05406z"/>
  </defs>
  <g fill="none" fill-rule="evenodd">
    <circle fill="#191038" cx="40" cy="40" r="40"/>
    <path d="M24.84176 42.51132c.241534-.787037.45376-1.478685.676726-2.20575 1.92353 0 3.812532.003936 5.701688-.001416 1.165166-.003463 1.521176-.336065 1.685678-1.614843-1.46087 0-2.912686.006296-4.364502-.00362-.484143-.003306-.971662-.019519-1.451662-.079963-1.101176-.138834-1.558465-.73226-1.289463-1.843241.34358-1.419028.788747-2.81287 1.217647-4.208602.044041-.14324.271458-.314342.421074-.321898.684246-.034315 1.3711-.015111 2.165831-.015111-.326087 1.103426-.631764 2.116185-.923785 3.13288-.242302.843074-.049411 1.136796.786599 1.150963 1.098414.018574 2.197596.00362 3.296317.004722.641125.000787 1.034885-.267435 1.205524-.950741.239693-.960343.542455-1.906361.868542-2.839944.072277-.207149.343581-.461676.541995-.479936.657392-.060287 1.32353-.022824 2.093402-.022824-.253504.852047-.487673 1.63814-.721381 2.424232-.632379 2.126889-1.27335 4.251259-1.892686 6.38224-.277903.956408-.9089 1.4705-1.8445 1.481676-2.68128.031797-5.363019.011176-8.173044.011176" fill="#FFF"/>
    <g transform="translate(11.68798 32.099324)">
      <mask id="b" fill="#fff">
        <use xlink:href="#a"/>
      </mask>
      <path d="M2.664522 10.400238H.123652c.30844-1.052111.598466-2.062194.900614-3.068343.660307-2.19961 1.347621-4.391037 1.97601-6.600092.1533-.538806.389156-.708963.909514-.66788.57422.04549 1.154578.010389 1.840051.010389-.381483 1.338435-.72844 2.55551-1.107774 3.886232 1.78358 0 3.45867.013851 5.132685-.02314.153606-.003305.370588-.307259.438414-.51299.301995-.916269.576522-1.843083.82757-2.775565.112175-.4165.294016-.609796.743479-.579417.604297.040769 1.213197.010074 1.935038.010074-.179846.622232-.32486 1.139158-.478619 1.653565-.799949 2.67514-1.61555 5.345556-2.39202 8.027778-.149923.518028-.367366.723602-.90307.673546-.580818-.054463-1.17023-.012277-1.84358-.012277A73345.259726 73345.259726 0 0 1 9.38084 6.130562c-.801637 0-1.528389-.001417-2.255294.000787-.357545.000945-.715243.002204-1.072481.014954-.70711.025185-1.585934-.190778-2.070384.161185-.449156.326463-.483836 1.261148-.688235 1.932018-.212072.697158-.408644 1.399038-.629923 2.160732" fill="#FFF" mask="url(#b)"/>
    </g>
    <g transform="translate(50.971867 39.340065)">
      <mask id="d" fill="#fff">
        <use xlink:href="#c"/>
      </mask>
      <path d="M18.988435 9.53489c-1.110384.092871-2.054271.19377-2.832737-.795851-.765575-.97325-1.700256-1.806565-2.562046-2.699852-.407877-.423111-1.723274-.703296-2.198977-.41288-.140716.085787-.216675.384232-.220665.587445-.021023 1.093194-.00982 2.187018-.00982 3.323815H9.732014V1.64264h-4.39734v7.891463h-1.43601V1.58865c-.662916 0-1.239898-.002204-1.81688.000472C.6269 1.595733.6269 1.59652.054061.114687h11.099233v3.847194c1.109463.127658 2.066087.25689 2.834425-.757601.575754-.760278 1.390434-1.330408 1.9645-2.091787.778773-1.03275 1.741075-1.235019 2.947367-.971676-1.501535 1.52449-2.989565 3.035287-4.582711 4.652805a153321.341096 153321.341096 0 0 0 4.67156 4.741269" fill="#7EC7CD" mask="url(#d)"/>
    </g>
    <path d="M40.922895 36.04548c1.490486 0 2.967775-.001888 4.44491.000788.67243.001259.905985-.493473.923479-1.025037.019795-.597519-.500256-.640176-.944194-.645528-.866701-.010547-1.733556.000472-2.60041.002833-1.523171.00425-1.523324.00425-1.869974 1.498519-.005217.022037.012583.049898.04619.168426m-4.577955 6.474481c.81284-2.712444 1.59023-5.310139 2.37023-7.907046.18-.599408.416164-1.186222.538926-1.797278.10803-.53676.383478-.636398.858261-.63262 2.376829.019046 4.753964.000944 7.130946.011018 1.71069.007083 2.225985.727065 1.730486 2.388343-.253504.85-.512378 1.698426-.775703 2.54512-.229105.736667-.69913 1.103111-1.481432 1.09713-1.968031-.015269-3.936522.021722-5.904553-.000787-.498874-.005824-.71954.160083-.84982.65324-.280359 1.060769-.600768 2.112565-.962763 3.146732-.074578.21313-.390537.450815-.614885.473639-.63115.064222-1.272736.022509-2.039693.022509M10 48.827293c.302302-1.82813.302302-1.821676 1.96803-1.821204 8.838875.002204 17.677903.036046 26.516318-.035889 1.360051-.011018 1.455192 1.030546 2.159233 1.857093H10zm30.478343-3.122161H10.944839c0-.115222-.016573-.193453.002455-.260824.443171-1.574389.443785-1.574703 2.063171-1.574074 8.36133.003148 16.72266.005982 25.08399.010861 1.291918.000787 1.85064.42563 2.383888 1.824037" fill="#FFF"/>
    <path d="M50.902875 42.200346c-.713402.03762-1.39688.318278-1.710537-.689916-.086087-.27625-.644962-.540852-.999591-.560056-1.249719-.06737-2.505269-.042185-3.757903-.019204-.733657.01338-1.259233.53739-1.278568 1.198973-.020716.704083.495806 1.223055 1.296675 1.237851 1.227162.022667 2.455704-.018101 3.682098.01889 1.364961.041398 2.38803.881166 2.695703 2.138222.286343 1.170796-.21514 2.398574-1.292532 3.000972-.369514.20636-.81514.358102-1.231304.37211-1.353913.045492-2.712737.069575-4.064809.00063-1.500153-.0765-2.455856-1.16749-2.509718-2.786425h1.325217c.474783 1.164027.65647 1.284916 1.952993 1.288694.996675.003148 1.99335.017472 2.989718.005352.880512-.010546 1.46532-.539593 1.450895-1.275472-.01381-.701565-.572992-1.203537-1.424194-1.218491-1.201228-.020778-2.403683.013852-3.604604-.01275-1.58931-.03526-2.776112-1.246824-2.74849-2.764074.027928-1.529843 1.241738-2.708352 2.805728-2.71701 1.176215-.00661 2.352583-.010073 3.528798-.006453 1.665729.00488 2.70353.981435 2.894425 2.788157" fill="#7EC7CD"/>
  </g>
</svg>
