<svg width="80" height="80" xmlns="http://www.w3.org/2000/svg" xmlns:xlink="http://www.w3.org/1999/xlink">
  <defs>
    <path id="a" d="M.000045-.00003H50.4492v57.850072H.000045z"/>
  </defs>
  <g fill="none" fill-rule="evenodd">
    <circle fill="#074469" cx="40" cy="40" r="40"/>
    <g transform="translate(15 11)">
      <mask id="b" fill="#fff">
        <use xlink:href="#a"/>
      </mask>
      <path d="M41.943605 16.957984c-5.144509-3.09458-9.52309-5.599807-13.757945-8.33142-2.086364-1.345225-3.79069-1.445322-5.916-.054258-3.619145 2.366775-7.433018 4.427646-11.129127 6.67842-.685255.417226-1.198037 1.121645-2.148491 2.037484 5.163982 2.806451 9.877309 5.417387 14.651836 7.90858.718636.37513 1.903691.554742 2.564836.215162 5.016546-2.585678 9.957055-5.322904 15.734891-8.453968zm1.610673 6.870193c-5.2224 2.824226-9.528654 4.89913-13.565072 7.414646-3.261219 2.03187-6.0894 2.202129-9.411819.138451-4.166236-2.586613-8.587473-4.752258-13.833054-7.609226 0 5.047871.1224 9.188323-.050073 13.317549-.0918 2.21242.8262 3.420129 2.6112 4.440742 4.562182 2.61 9.089127 5.287354 13.55951 8.054516 1.673726 1.03558 3.058145.953258 4.695708-.051452 4.479655-2.751258 9.080782-5.305129 13.522418-8.116258 1.049673-.664193 2.294073-1.997258 2.35991-3.088032.266127-4.462258.111272-8.95071.111272-14.500936zm6.79691 5.49784c0 3.580096-.050074 7.160193.01669 10.739354.048218 2.593161-.943036 4.343452-3.248236 5.657806-6.311018 3.599742-12.547855 7.333258-18.7476 11.124775-2.256982 1.379838-4.233 1.309677-6.46031-.054258C15.845515 53.080758 9.74406 49.42208 3.572133 45.8925 1.317933 44.602468.21726 43.016823.229316 40.331048c.032454-7.468903-.114982-14.937806-.22811-22.40671-.041727-2.754064 1.0404-4.625031 3.504164-6.016096C9.56046 8.487177 15.542296 4.926726 21.451806 1.255887c2.5194-1.565064 4.679018-1.738129 7.2726-.11787 6.031909 3.767193 12.142636 7.416515 18.343309 10.891838 2.535163 1.421935 3.390109 3.41171 3.381763 6.09-.011127 3.734451-.002782 7.470774-.002782 11.206161h-.095509z" fill="#FFF" mask="url(#b)"/>
    </g>
  </g>
</svg>
