<svg width="80" height="80" xmlns="http://www.w3.org/2000/svg">
  <g fill="none" fill-rule="evenodd">
    <circle fill="#101620" cx="40" cy="40" r="40"/>
    <path d="M50.996432 33.597237c1.71674-1.70943 3.34251-3.32829 4.96718-4.945833 4.347798 4.88399 6.34163 16.588596-1.551762 24.958552-7.693832 8.158553-19.585462 7.582237-26.034581 2.454825.15044-.194737.282158-.40965.456167-.582895 1.473789-1.467105 2.955066-2.926535 4.448899-4.40285 6.075991 2.771271 11.680616 2.35614 16.19978-2.699343 3.961453-4.43136 4.145815-9.542763 1.514317-14.782456M28.836101 46.576842c-1.656387 1.594518-3.307048 3.183772-4.971586 4.786404-2.546035-1.600439-4.54163-9.096492-3.49273-14.68421 1.548017-8.244519 6.57555-13.553948 14.66784-15.78465 5.864538-1.616667 11.314097-.402412 16.398459 3.039254-1.794494 1.752632-3.454626 3.374342-5.143392 5.023685-5.559251-2.647808-10.94141-2.32522-15.420705 2.187061-4.428414 4.461403-4.78392 9.789912-2.037886 15.432456m35.943635-26.342544c.011013 2.452632-2.248679 4.758991-4.760132 4.623684-2.70837-.145614-4.718282-1.742543-4.80022-4.94342-.064318-2.51272 2.251982-4.782895 4.828193-4.692544 2.346256.082236 4.847797 1.867982 4.732159 5.01228M19.852797 55.311842c2.626432-.01579 4.770925 2.083333 4.796256 4.694956.026432 2.692544-2.152203 4.841886-4.902203 4.836623-2.585683-.004825-4.74978-2.18114-4.746916-4.773246.003084-2.672587 2.113216-4.741666 4.852863-4.758333" fill="#2BB6BD"/>
  </g>
</svg>
