<svg width="80" height="80" viewBox="0 0 80 80" xmlns="http://www.w3.org/2000/svg">
  <title>
    idh-indahash
  </title>
  <g fill="none" fill-rule="evenodd">
    <circle fill="#452D73" cx="40" cy="40" r="40"/>
    <g fill="#FFF" fill-rule="nonzero">
      <path d="M48.251956 22.056216c-.530347.079568-1.044586.242433-1.52413.484865l-.793043.472433-1.115218.609189-.57.31081.892174 1.06919 1.400217 1.665946c.136305-.124325.346957-.285946.619566-.497298l.941739-.634054c.164804-.108162.322174-.228757.47087-.36054.157369-.126811.302347-.26854.433695-.422703.17224-.206378.307304-.442595.396522-.696216a2.246654 2.246654 0 0 1 0-.223784c-.017348-.331946-.089218-.660162-.210652-.96973-.210653-.584324-.520435-.845405-.916957-.795675m-8.537609-4.935676c-.210652.248649-.359347.422703-.458478.50973-.032217.041027-.07063.079567-.111522.111892.334566.447567.731087.96973 1.23913 1.554054l1.152392 1.442162.65674-.745946c.265173-.312054.485738-.658919.656738-1.031892v-.174054c.009914-.09946.009914-.198919 0-.298378.00124-.366757-.06939-.731027-.210652-1.06919-.24287-.63654-.871108-1.039351-1.548913-.994594-.1425-.00373-.285.017405-.421304.062162-.27013.128054-.52787.282216-.768261.46h-.074348l-.111522.174054m.123914 9.61027c-.148696.111892-.458479.310811-.916957.60919-.458478.298378-.743478.447567-.966522.559459 1.177174.92 2.403913 1.815135 3.717392 2.672973l.520434-.422703c.095413-.08827.1995-.167838.309783-.236216-.458478-.547027-.94174-1.118919-1.437391-1.715676L39.925 26.768108"/>
      <path d="M53.828043 59.515135c3.717392.298378 6.08413-.60919 6.703696-1.118919.397761-.336919.7125-.762108.916957-1.243243.086739-.223784.235434-.646487.433695-1.243243.126392-.426433.288718-.84292.483261-1.243244l1.833913-3.978378c.22924-.525892.520435-1.021946.867391-1.47946.333327-.447567.608414-.936161.817827-1.454594.148695-.466216.251543-.944865.309782-1.42973.066913-.489837.10037-.984648.09913-1.47946.004957-.772053-.032217-1.544107-.111521-2.312432-.087978-.789459-.254022-1.56773-.495652-2.324864-.173478-.522163-.322174-.92-.433696-1.16865-.121435-.283459-.261456-.556972-.421304-.82054l-.18587-.223783-1.028478-1.16865-.520435-.696215-.545217-.683784c-.65674-.832973-1.115218-1.38-1.375435-1.641081-.190826-.27227-.402717-.529622-.631957-.77081-.359347-.377947-.835173-.622866-1.350652-.696217-.84137-.04973-1.674065-.203892-2.47826-.46-.340761-.171568-.650544-.399081-.916957-.671351-.079304-.082055-.153652-.169082-.223044-.261082v.335676c0 .124324.08674.82054.18587 1.591351l.545217-.447567c-.173478.288432-.363065.566919-.57.832973v.335676c.339522.160378.643109.389135.892174.67135.268892.288433.48574.62038.644348.982163.122674.234973.193304.493568.210652.758378v.372973c-.064434.978433-.29987 1.936973-.693913 2.834595l-.260217.634054v1.243243c-.003718.637784.053282 1.275568.173478 1.902162.052044.34065.18463.663892.38413.944865.161088.19892.631957.248649 1.41261.174054.780651-.074594 1.23913-.236216 1.400217-.472432.187108-.307081.304826-.650216.346956-1.007027.120196-.714865.182152-1.438433.18587-2.163243 0-1.243244 0-2.212973.074348-2.996217v-2.648108c-.074348-.646486-.111522-.932432-.111522-.87027 0-.161622.074348-.074595.210652.248649.12887.26854.20074.560702.210652.857837v1.007028c.08674-.114379.166044-.234973.235435-.360541.050804-.253622.1425-.497297.272609-.721081-.059479.553243-.246587 1.085351-.545218 1.554054v.547027l1.04087-.944865c-.08674.24492-.216848.472433-.38413.671351-.27261.385406-.508044.60919-.718696.634055v4.885945c-.003718.43265-.110283.859082-.309783 1.243244l.38413.323243c.287479.248649.589827.481135.904566.696216.364304.27227.744717.522162 1.14.745946-.728609-.115621-1.420044-.401567-2.019783-.832973-.18587-.174054-.371739-.348108-.557609-.534594-.146217.16908-.31226.319513-.495652.447567-.136304.123081-.291195.223784-.458478.298379l.09913.111891c.426261.523406.7695 1.11146 1.016087 1.740541.159848.376703.280044.768324.359348 1.168649.096652.407783.146218.82427.148696 1.243243.004956.090757.004956.182757 0 .273513-.01363.10692-.01363.216325 0 .323244 0-.087027-.123913-.497298-.297391-1.243244-.09913-.420216-.218087-.83546-.359348-1.243243-.225522-.564432-.511761-1.102757-.855-1.603784L58.958044 44.82a3.663545 3.663545 0 0 1-.495653 0c-.978913 0-1.61087-.646486-1.871087-1.93946v-.174053l-.594782-.41027-.408913-.29838c-.18587.285947-.458479.671352-.793044 1.131352l-.408913.534595c.065674.113135.09913.242432.09913.372973v.808108c.038414.915027-.048325 1.831297-.260217 2.722703-.282521.998324-.831456 1.900919-1.586087 2.61081 0 0 .173479-.372973.508044-1.031891.334565-.65892.656739-1.243244.76826-1.591352.116479-.405297.183392-.821784.198262-1.243243 0-.55946.074347-1.031892.074347-1.392432v-.758379l-.260217.397838c-.237913.432649-.437413.886432-.594783 1.355135-.153652.468703-.348195.921243-.582391 1.355135.21437-1.15373.675326-2.247784 1.350652-3.207567.47087-.808108 1.053261-1.765406 1.747174-2.85946.486978-.978432.902087-1.992919 1.23913-3.033513.171-.492325.291196-1.000811.359348-1.516757.063196-.361784.063196-.73227 0-1.094054-.38413-1.874811-2.646782-2.630703-4.073021-1.360108-.120196.106919-.22924.225027-.325892.35308-.209413.215082-.400239.447568-.57.696217l-.309782.435135s-.210652.335676-.508044.87027a12.136292 12.136292 0 0 0-.656739 1.243244c-.408913 1.007027-.693913 1.74054-.867391 2.138378-.312261.727297-.662935 1.43719-1.053261 2.125946-.189587.111892-.394044.19519-.607174.248649l-.95413.26108h-.074348c.292435-.236216.618326-.428918.966522-.571891.219326-.129297.464673-.206379.718695-.223784.111522-.435135.408913-1.243243.892174-2.486486 0-.074595 0-.136757.074348-.19892l-.37174-.223783c-.177195-.118108-.364304-.22254-.557608-.31081-.22676-.092-.458478-.171568-.693913-.236217-.486978-.085784-.980152-.123081-1.474565-.111892h-.718696l-.66913-.161622c-.192065-.037297-.379174-.09573-.557609-.174054.205696-.008702.410152.017406.607174.074595l.631956.124324h1.548914c.566282.009946 1.127608.114379 1.660434.310811.283761.074595.548935.205135.780652.385405.198261-.472432.359348-.882702.520435-1.243243-.172239-.146703-.325891-.31454-.458478-.497297l-.631957-.783243c-.293673-.247406-.609652-.46746-.941739-.65892l-1.177174-.708648c.44113.029838.867392.170324 1.23913.41027.408914.211352.798.45627 1.164783.733514.255261.236216.495653.489838.718696.758378l.297391.36054c.126392-.283459.27013-.556972.433696-.82054 0-.087027.161087-.248648.285-.472432-.17224-.274757-.324652-.561946-.458478-.857838-.396522-.907568-.65674-1.504324-.780652-1.79027-.359348-.770811-.582392-1.243244-.681522-1.541622-.149935-.458757-.266413-.928703-.346957-1.404865v-.285946l-.123913-.074594h-.173478l-.09913-.09946c-.639392-.482378-1.221783-1.036865-1.734783-1.653513l-2.143696-2.486487c-.38413-.435135-.879782-1.031892-1.474565-1.777838-.594782-.745946-1.164782-1.442162-1.449782-1.777837-.285-.335676-.929348-1.156217-1.660435-2.125946l-1.982609-2.573514c-.548935-.709892-1.158587-1.371297-1.821522-1.976757-.32837-.340648-.76826-.552-1.23913-.596756-.21437.047243-.426261.109405-.631957.186486-.244108.128054-.456.31081-.619565.534595-.090456.118108-.173478.243675-.247826.372973l-.074348.186486c-.07063.228757-.10037.468703-.086739.708649 0 .680054.771978 2.125946 2.317174 4.338919.780652 1.131351 1.635652 2.287567 2.552609 3.493513.914478 1.402378 1.960304 2.712757 3.122608 3.916216l1.561305 1.765406c.602217.610432 1.100348 1.316594 1.474565 2.088648.074348 0 .247826-.124324.532826-.372973.192065-.17281.399-.326973.619565-.46 0 .09946-.161087.298379-.495652.60919-.218087.249891-.515478.41773-.842609.472432-.164804-.01119-.32713-.044757-.48326-.09946-.106566-.046-.205696-.104432-.297392-.174053-.211891-.169082-.436174-.322-.66913-.46l-.867391-.50973c-.828979-.469946-1.630696-.984649-2.403914-1.541622-.904565-.683784-2.019782-1.566486-3.33326-2.648108l-1.536522-1.181081c-.631957-.497297-1.23913-.96973-1.660435-1.392432-.421304-.422703-.892174-.96973-1.23913-1.355136-.49813-.59427-1.18461-.998324-1.945435-1.143783-.460957-.032325-.921913.072108-1.32587.298378-.235434.248649-.396521.248649-.396521.248649l-.111522.198919c-.123913.207621-.192065.442594-.198261.683783.154891.98465.677804 1.873568 1.462174 2.486487l1.32587 1.243243c.436173.390378.850043.805622 1.23913 1.243243 1.174696 1.243244 2.415065 2.421838 3.717391 3.530811.892174.783243 1.71 1.504324 2.478261 2.138379l1.23913.944864c.675327.522163 1.308522 1.095298 1.89587 1.715676.619565.683784 1.437391 1.678378 2.47826 3.033514.67037.934918 1.231697 1.944432 1.672827 3.008648.375457.882703.810391 1.738054 1.301087 2.561081l.09913.087027c.04213-.394108.164805-.77454.359348-1.118919.421305-.584324.805435-1.168648 1.14-1.703243-.024782.166595-.087978.324487-.18587.46l-.408912.621622c-.361826.538324-.567522 1.166162-.594783 1.815135.07063 1.060486.509283 2.063784 1.23913 2.834595.98387 1.173621 2.198218 2.130918 3.568696 2.80973-.938022-.203893-1.812848-.630325-2.552609-1.243244-.078065.083297-.161087.162865-.247826.236216-.371739.335676-.644348.584325-.805434.758379-.677805.667621-1.113979 1.542864-1.239131 2.486486-.190826 1.067946.00124 2.16946.545217 3.108108 1.078044 1.554054 4.621957 2.772433 5.724783 2.85946m.37174-10.008108l.594782-.832973c.140022-.293406.25526-.596757.346956-.907568 0-.136757.123913-.41027.247826-.832973.007435.065892.007435.133027 0 .198919.006196.078324.006196.157892 0 .236216-.05576.610433-.237913 1.20346-.532826 1.74054-.408913.845406-.817826 1.305406-1.23913 1.38.109043-.339405.286239-.651459.520435-.92m3.296087 3.605406c-.268892.083297-.548935.125568-.830218.124324-.9975-.036054-1.972695-.304594-2.85-.783243-.879782-.435135-1.003695-.708648-.892174-.658919l.458479.248649c.192065.100703.390326.188973.594782.261081.406435.14173.820305.262324 1.23913.36054.706305.18773 1.44111.247406 2.168479.174055h.260217c.05824.004973.11524.004973.173479 0 0 0-.123913.136756-.37174.211351"/>
      <path d="M35.687174 20.99946l-1.350652 1.342702-1.363044 1.355135.074348.087027c.205696.252379.438652.482379.693913.683784.57.447568 1.152391.907568 1.734783 1.392433l.95413.783243.966522-1.243243c.251543-.313298.524152-.607946.817826-.882703-.235435-.335676-.65674-.932433-1.23913-1.79027l-1.23913-1.740541m14.906738 12.270811c.101609.228757.221805.450054.359348.658919l.520435.808108c.096652.160378.183391.326973.260217.497297.125152-.221297.266413-.432648.421305-.634054.520434-.624108 1.229217-1.060486 2.019782-1.243243.438652-.111892.899609-.111892 1.338261 0 0-.261081-.074348-.808108-.148696-1.653514-.074347-.845405-.161087-1.554054-.210652-1.914594-.106565-1.038108-.607174-1.996649-1.400217-2.672973-.551413-.537081-1.288696-.83919-2.056957-.845406-.586108.013676-1.158587.181514-1.660434.484865l-.322174.236217c-.210653.285945-.223044.397837-.223044.41027a.37515.37515 0 0 1 0 .074594c-.018587.231244-.018587.464973 0 .696217.006196.814324.131348 1.622432.37174 2.399459.266412.844162.576195 1.674649.929347 2.486487m4.919348 8.764864l.359348.223784c.151174.10319.296152.215081.433695.335676v-.55946c-.163565-.16908-.317217-.346865-.458478-.534594l-.297391.534594M11.363043 53.932973c0 .111892.074348.211351.08674.285946v.186486c0 .062163.148695.41027.235434.683784l.074348.211351c.244109.50227.576196.957298.978913 1.342703l.18587.161622c1.591043.865297 3.370435 1.321567 5.179565 1.33027h.892174c1.215587-.206378 2.33824-.77827 3.22174-1.64108.203216-.25611.350673-.553244.433695-.870271.063195-.365514.096652-.736.09913-1.106487-.162326.181514-.34076.348108-.532826.497298-.011152-.041027-.011152-.083298 0-.124325.017348-.220054.104087-.430162.247826-.596756.209413-.267298.509283-.448811.842609-.50973 1.898348-.377946 3.7335-1.021946 5.452174-1.914595.510521-.304594.977674-.676324 1.387826-1.106486 1.80913-1.864865 3.184565-3.244865 4.08913-4.152433 0 0 1.933044-2.486486 2.168479-2.847027l.47087-.82054c.133825-.246162.232956-.50973.29739-.783243 0-.174055.074348-.310811.08674-.397838.01363-.136757.01363-.273514 0-.41027-.741.21508-1.446066.538324-2.09413.957297-.565044.370486-1.059457.837946-1.462175 1.38 0 0 0-.248649.210652-.584325.188348-.37173.444848-.704919.75587-.982162.374217-.288432.793043-.515946 1.23913-.671351.334566-.124325.855-.310811 1.586087-.534595.84013-.252378 1.608392-.698703 2.242826-1.305405.41263-.33319.707544-.790703.84261-1.305406v-.323243c.004956-.070865.004956-.140486 0-.211351-.034697-.172811-.092936-.340649-.17348-.497298l-.322173-.522162c-.216848-.386648-.529109-.711135-.904565-.944865-.136305-.016162-.272609-.016162-.408913 0-.31474.00746-.62824.05719-.929348.14919h-.061957l-.19826-.062163c-.315979-.037297-.62824-.108162-.929348-.21135l-.631957-.236217c-.348196.164108-.653022.40654-.892174.708649-.201978.263567-.429978.504756-.681522.72108 0 0 .18587-.447567.55761-.845405.371738-.397838 1.102825-.944865 2.66413-2.113513l-.433696-.335676c-.578674-.438865-1.251522-1.003297-2.019783-1.69081l-1.078043-.982163-.495652.36054c-.322174.236217-.631957.435136-.95413.646487-.67037.479892-1.442349.799405-2.255218.932433-.318457-.033568-.634435-.09573-.94174-.186487-.34076-.069622-.66789-.19519-.966521-.372973l.619565.174054c.267652.075838.5415.129297.817826.161622.54274-.00373 1.075565-.14546 1.548913-.41027l.421305-.236217c.095413-.157892.203217-.30708.322174-.447567.223043-.285946.408913-.497298.545217-.671352.136304-.174054.421304-.447567.557609-.571892-.47087-.472432-.892174-.92-1.23913-1.355135-.391566-.436378-.804196-.850378-1.239131-1.243243l-.718696-.646486c-.297391.36054-.805435.957297-1.548913 1.827567s-1.263913 1.168649-1.263913 1.218379c-1.920652 1.678378-3.246522 2.834594-3.977609 3.456216-1.141239.999567-2.112717 2.179405-2.874782 3.493513-.235435.385406-.793044 1.11892-1.23913 1.84-.423783.629081-.892175 1.228325-1.400218 1.79027-.285.298379-.855.87027-1.672826 1.678379-1.178413 1.104-2.23663 2.328594-3.159783 3.655135-.741 1.094054-1.236652 2.337297-1.449782 3.642703-.074348.435135-.136305 1.056756-.223044 1.84 0 .46-.086739.845405-.111522 1.156216-.024782.31081 0 .435135 0 .708649l.123913.584324zm21.75913-7.844865c.309784-.136757.45848-.14919.45848 0s-.099131.174054-.27261.248649c-.172239.073351-.358108.111892-.545217.111892-.02726.016162-.059478.016162-.086739 0 0 0 .148696-.136757.446087-.285946v-.074595zm-1.871086-1.715676c.265174-.052216.525391-.12308.780652-.21135 0 .099459-.111522.21135-.322174.31081-.229239.108162-.478304.162865-.731087.161622-.122674.028594-.249065.028594-.371739 0 0 0-.074348 0-.074348-.087027.246587-.009946.491935-.048487.731087-.111892l-.012391-.062163zm-2.242826-4.798919c.163565-.096972.344478-.160378.532826-.186486 0 .087027-.148696.211351-.433696.397838-.333326.201405-.713739.308324-1.102826.31081-.179674-.002486-.359348-.02735-.532826-.074594-.210652-.062162-.309783-.136757-.309783-.198919.630718.048487 1.262674-.05346 1.846305-.298378v.04973zm27.533479 1.317838v-.609189c-.123914.273514-.247827.534595-.384131.783243.059478.03854.11276.08454.161087.136757l.19826.186487v-.497298"/>
    </g>
  </g>
</svg>
