<?xml version="1.0" encoding="UTF-8"?>
<svg width="105px" height="105px" viewBox="0 0 105 105" version="1.1" xmlns="http://www.w3.org/2000/svg" xmlns:xlink="http://www.w3.org/1999/xlink">
    <!-- Generator: Sketch 49.2 (51160) - http://www.bohemiancoding.com/sketch -->
    <title>Group</title>
    <desc>Created with Sketch.</desc>
    <defs></defs>
    <g id="Page-1" stroke="none" stroke-width="1" fill="none" fill-rule="evenodd">
        <g id="Group">
            <circle id="Oval" fill="#0057FF" cx="52.5" cy="52.5" r="52.5"></circle>
            <path d="M25,65.2 L25,40 L29.968,40 L29.968,65.2 L25,65.2 Z M34.648,40 L44.656,40 C48.112,40 50.992,41.224 53.296,43.636 C55.636,46.048 56.788,49.036 56.788,52.6 C56.788,56.164 55.636,59.152 53.296,61.564 C50.992,63.976 48.112,65.2 44.656,65.2 L34.648,65.2 L34.648,40 Z M39.616,60.448 L44.656,60.448 C46.852,60.448 48.616,59.728 49.984,58.288 C51.352,56.812 52.036,54.94 52.036,52.6 C52.036,50.26 51.352,48.388 49.984,46.948 C48.616,45.472 46.852,44.752 44.656,44.752 L39.616,44.752 L39.616,60.448 Z M79.504,65.2 L74.14,65.2 L69.064,56.452 L65.284,56.452 L65.284,65.2 L60.316,65.2 L60.316,40 L70.396,40 C72.736,40 74.716,40.828 76.336,42.448 C77.956,44.068 78.784,46.048 78.784,48.352 C78.784,51.484 76.84,54.364 73.924,55.696 L79.504,65.2 Z M70.396,44.644 L65.284,44.644 L65.284,52.096 L70.396,52.096 C72.268,52.096 73.816,50.404 73.816,48.352 C73.816,46.3 72.268,44.644 70.396,44.644 Z" id="IDR" fill="#FFFFFF"></path>
        </g>
    </g>
</svg>