<?xml version="1.0" encoding="UTF-8"?>
<svg width="80px" height="80px" viewBox="0 0 80 80" version="1.1" xmlns="http://www.w3.org/2000/svg" xmlns:xlink="http://www.w3.org/1999/xlink">
    <!-- Generator: Sketch 46.2 (44496) - http://www.bohemiancoding.com/sketch -->
    <title>ift-investfeed</title>
    <desc>Created with Sketch.</desc>
    <defs>
        <linearGradient x1="16.8994141%" y1="17.03125%" x2="85.3369141%" y2="86.0058594%" id="linearGradient-1">
            <stop stop-color="#009DF4" offset="0%"></stop>
            <stop stop-color="#06E5C3" offset="100%"></stop>
        </linearGradient>
    </defs>
    <g id="Coin-Logos" stroke="none" stroke-width="1" fill="none" fill-rule="evenodd">
        <g transform="translate(-720.000000, -1510.000000)" id="ift-investfeed">
            <g transform="translate(720.000000, 1510.000000)">
                <circle id="Oval-18" fill="url(#linearGradient-1)" cx="40" cy="40" r="40"></circle>
                <path d="M23.0220993,47.6316833 C19.218667,44.1290792 15.1453967,40.9668092 10.8353297,38.1043571 C10.3227801,37.7640231 9.95320589,37.3535965 10.0048076,36.7041258 C10.0588568,36.0236604 10.5771173,35.735592 11.1267875,35.5313916 C13.9559063,34.4806104 16.80073,33.4715606 19.6218945,32.400724 C22.1897415,31.4259101 24.7543252,30.4367132 27.2856636,29.3725617 C32.8168347,27.0477564 38.3771719,24.7810914 43.8285949,22.28227 C48.4170664,20.179087 52.8684771,17.7811503 57.3804638,15.5136751 C57.6229714,15.3919246 57.8563008,15.248093 58.1073746,15.1490315 C59.2915621,14.68168 60.1496187,15.3542448 59.9780889,16.60558 C59.9597326,16.73908 59.952594,16.8742007 59.9403565,17.0085111 C59.5116341,18.0700291 59.0737336,19.1279006 58.6558211,20.1934701 C57.4859108,23.1770649 56.3529171,26.1754479 55.1295695,29.137164 C54.9362161,29.6051233 54.4142843,30.0714619 53.9325326,30.2673565 C51.3577509,31.3138835 48.7421774,32.2613491 46.1504671,33.2679679 C41.9478866,34.9001531 37.7502012,36.5446956 33.5565949,38.1997722 C32.4990661,38.6172891 32.1815016,39.3870922 32.6858928,40.1597314 C33.0460849,40.7117612 33.5982026,40.8628857 34.3991506,40.5681322 C36.849925,39.6664497 39.2949886,38.7495737 41.7410719,37.8351286 C44.7902628,36.6952123 47.8370062,35.549016 50.8880328,34.4143668 C51.1711282,34.3090253 51.4746196,34.2269805 51.7744397,34.2022658 C52.588849,34.1348067 53.1764556,34.6665786 53.109353,35.4726435 C53.0624424,36.0372333 52.8978473,36.5961508 52.7469174,37.1473703 C51.8749916,40.3333422 50.9749194,43.5118187 50.1227776,46.7028551 C49.8721117,47.6414071 49.4896881,48.3542853 48.4741749,48.6834774 C47.347708,49.0487287 46.2597893,49.5343124 45.164936,49.9911298 C43.7800526,50.5690898 43.6385049,50.9134754 43.7694468,52.395549 C44.0331661,55.3791437 44.2297828,58.3684106 44.4708626,61.3540312 C44.6171014,63.1659046 44.8031123,64.9743341 44.9536342,66.7858023 C45.0066636,67.4231182 45.024816,68.0644858 45.0270595,68.7042326 C45.0290991,69.3180493 44.6752298,69.7031534 44.1218884,69.921737 C43.5993447,70.1281658 43.1961173,69.900061 42.8442876,69.5429129 C42.6311501,69.3267602 42.4220919,69.1025045 42.241588,68.8598139 C38.9945566,64.4905736 35.5464214,60.2880565 31.7876562,56.3401821 C30.3891076,54.8714788 29.0564378,53.3385578 27.6181172,51.9101679 C26.1341096,50.4361975 24.5579125,49.0539958 23.0220993,47.6316833" id="Page-1" fill="#FEFEFE"></path>
            </g>
        </g>
    </g>
</svg>