<svg width="80" height="80" viewBox="0 0 80 80" xmlns="http://www.w3.org/2000/svg" xmlns:xlink="http://www.w3.org/1999/xlink">
  <title>
    ignis-ignis
  </title>
  <defs>
    <path id="a" d="M0 .273203h33.870339v49.400029H0z"/>
  </defs>
  <g fill="none" fill-rule="evenodd">
    <circle fill="#FFF" cx="40" cy="40" r="40"/>
    <g transform="translate(23 17.157901)">
      <mask id="b" fill="#fff">
        <use xlink:href="#a"/>
      </mask>
      <path d="M0 49.5465C9.017203 33.075648 17.954017 16.751807 26.975542.273203c.24117.355178.369102.515683.467644.692554 2.08178 3.743585 4.153187 7.492911 6.248509 11.22903.242322.431555.235407.75802-.004034 1.186703-4.678458 8.376406-9.344813 16.759416-14.008288 25.143861-1.861068 3.346198-3.733085 6.686654-5.547475 10.057832-.430474.79994-.933847 1.102574-1.85444 1.089654-3.719543-.052545-7.440238-.019525-11.160356-.025555C.798136 49.646708.479169 49.591292 0 49.5465" fill="#DB712A" mask="url(#b)"/>
    </g>
    <path d="M33.435925 44.664171c-.323864-.570237-.604796-1.03998-.862101-1.522069-1.576966-2.953406-3.141255-5.913703-4.729746-8.860792-.251254-.465723-.250966-.85995-.061373-1.353238 1.098373-2.854346 2.15583-5.724485 3.23317-8.586871 1.119118-2.973792 2.247745-5.943852 3.36744-8.917644.731288-1.942138 1.451915-3.887722 2.182627-5.830148.07117-.18893.17922-.364366.293899-.593208 1.291135.842723 2.513983 1.631178 3.726745 2.434851 2.495255 1.653 4.984746 3.31404 7.475966 4.972783.17922.119445.350373.250663.527289.373841.313491.21793.349508.490129.167118.809703-1.26578 2.220654-2.537034 4.438149-3.795034 6.662822-1.459406 2.581-2.907 5.168317-4.360932 7.752475-2.30883 4.103644-4.618813 8.207-6.929373 12.309782-.045525.081258-.104593.155337-.235695.347713" fill="#F9C011"/>
    <path d="M56.390536 55.892052c-6.028661 3.673525-11.90173 7.25201-17.832774 10.8661-.02904-.685377 10.230892-19.187951 10.944604-19.791783 2.257254 2.92498 4.510763 5.84508 6.88817 8.925683" fill="#B7230F"/>
  </g>
</svg>
