<svg width="80" height="80" viewBox="0 0 80 80" xmlns="http://www.w3.org/2000/svg">
  <title>
    iht-iht-real-estate-protocol
  </title>
  <g fill="none" fill-rule="evenodd">
    <circle fill="#FFF" cx="39" cy="41" r="36"/>
    <path d="M38.801965 9.470164c-6.138472 0-11.84406 1.89749-16.590942 5.15013-6.608324 6.394806-10.737835 15.48052-10.737835 25.561559 0 9.81368 3.913241 18.68329 10.217198 25.04658 4.847762 3.475324 10.746818 5.515498 17.111579 5.515498 16.508718 0 29.891541-13.71671 29.891541-30.636883 0-16.92052-13.382823-30.636884-29.891541-30.636884m40.526424 30.636884c0 21.95948-17.758316 39.761039-39.664108 39.761039-21.905793 0-39.664108-17.801559-39.664108-39.76104C.000173 18.147914 17.758488.346356 39.66428.346356s39.664108 17.801558 39.664108 39.760693" fill="#689432" fill-rule="nonzero"/>
    <path fill="#9ABB4B" fill-rule="nonzero" d="M57.525998 59.461541l-10.007492-5.618008V15.723359l10.007492 5.417143z"/>
    <path fill="#689432" fill-rule="nonzero" d="M57.525826 40.401247L33.50812 46.219775l-10.007147-5.417143 24.017706-5.818874z"/>
    <path fill="#689432" fill-rule="nonzero" d="M33.508293 65.28L23.5008 59.661645V21.541818l10.007493 5.416797z"/>
    <path d="M38.801965 9.470164c-6.138472 0-11.84406 1.89749-16.590942 5.15013-6.608324 6.394806-10.737835 15.48052-10.737835 25.561559 0 9.81368 3.913241 18.68329 10.217198 25.04658 4.847762 3.475324 10.746818 5.515498 17.111579 5.515498 16.508718 0 29.891541-13.71671 29.891541-30.636883 0-16.92052-13.382823-30.636883-29.891541-30.636883m40.609339 30.636883c0 19.36-15.224227 35.054891-34.005161 35.054891-18.780588 0-34.00516-15.694891-34.00516-35.054891S26.625554 5.052156 45.406142 5.052156c18.780934 0 34.00516 15.694892 34.00516 35.054892" fill="#9ABB4B" fill-rule="nonzero"/>
  </g>
</svg>
