<svg width="80" height="80" xmlns="http://www.w3.org/2000/svg" xmlns:xlink="http://www.w3.org/1999/xlink">
  <defs>
    <path id="a" d="M0 0h59.633768v26.62511H0z"/>
  </defs>
  <g fill="none" fill-rule="evenodd">
    <circle fill="#FFF" cx="40" cy="40" r="40"/>
    <g transform="translate(10 27)">
      <mask id="b" fill="#fff">
        <use xlink:href="#a"/>
      </mask>
      <path d="M49.569306 22.567336c-1.804898-.925772-3.603673-1.867909-5.44-2.728227-1.05796-.495409-2.096326-.462273-2.689388.772364-.750204 1.561909-2.516734 2.874682-1.344081 4.936909.366122.643909 1.072653.760909 1.78449.752727 1.082857-.012273 2.165714-.002864 3.24898-.003682 1.150611-.000818 2.301632-.012272 3.452244.002864 1.102449.013909 1.830612-.515046 2.084082-1.559045.237959-.981-.217143-1.723091-1.096327-2.17391M17.981551 1.71311c-1.725306-1.820864-4.932245-1.611-6.260408.410318C7.964 9.049337 4.209714 15.976882.447265 22.899518c-.578775 1.064864-.714694 2.08841.316327 2.934 1.394694 1.144636 5.029388.419727 5.900408-1.187182 3.689796-6.809318 7.354694-13.632136 11.031837-20.448818.427755-.793227.834694-1.581545.285714-2.484409m41.54204.304364C58.923185-.050891 57.005634.696109 55.679512.552518c-3.490613.00041-3.489797.00041-5.103674 3.0555-.315919.5985-.625306 1.200682-.96245 1.78691-.567754.987545-.652652 1.933772.263674 2.754408.922041.825955 1.84245.568637 2.774694-.046636 1.410612-.93109 2.891837-1.761136 4.258776-2.750727 1.175102-.850091 3.22-1.244864 2.61306-3.3345m-16.226938-1.035c-1.404898-1.068137-4.671837-.384955-5.546939 1.16509-.902857 1.598728-1.759592 3.223637-2.616326 4.848137-.470612.892227-1.062857 1.641273-2.171429 1.545955-.989388-.0855-1.497959-.7965-1.857959-1.676046-.746939-1.824545-1.475102-3.66259-2.33551-5.434364-.876327-1.802454-2.670204-1.93909-3.621633-.201681-3.984898 7.276909-7.882449 14.60209-11.791428 21.920318-.48694.912682-.481225 1.854409.35755 2.61 1.318776 1.188409 5.068164.560045 5.939184-1.022318.983266-1.78691 1.91796-3.601637 2.838776-5.4225.435102-.861546 1.03102-1.46291 2.03551-1.416682 1.008571.047045 1.55102.695863 1.877143 1.611818.637959 1.794682 1.32653 3.570954 1.971837 5.362773.34898.967909.890204 1.6785 2.081224 1.752136.84653-.029863 1.421225-.561273 1.83551-1.321363 3.903266-7.166864 7.797551-14.338637 11.715919-21.497319.660816-1.207636.252244-2.09209-.711429-2.823954" fill="#E20D00" mask="url(#b)"/>
    </g>
  </g>
</svg>
