<svg width="80" height="80" xmlns="http://www.w3.org/2000/svg">
  <g fill="none" fill-rule="evenodd">
    <path d="M40 78c22.09139 0 38-15.90861 38-38 0-6.672803-2.523515-12.289063-2.523515-18.495274-1.510511-2.891443-3.364145-5.575238-5.506868-7.997354C61.759766 10.619141 51.930427 2 40 2 17.90861 2 2 17.90861 2 40s15.90861 38 38 38z" fill="#FFF"/>
    <path d="M75 20.666667C78.166667 26.333333 80 33 80 40c0 22.166667-17.833333 40-40 40S0 62.166667 0 40 17.833333 0 40 0c12.166667 0 23 5.333333 30.333333 13.833333L54 42.166667l-7.166667-12.333334c-1-1.666666-3.333333-2.333333-5-1.333333-.333333.166667-.666666.333333-.833333.666667-.166667.166666-.5.5-.666667.833333L30 47.833333c-1 1.833334-.333333 4 1.333333 5 1.833334 1 4 .333334 5-1.333333L43.5 39.166667 50.666667 51.5c.166666.333333.333333.666667.666666.833333.666667.666667 1.666667 1 2.5 1 .5 0 1.166667-.166666 1.666667-.333333.166667 0 .166667-.166667.333333-.166667.833334-.5 1.166667-1 1.5-1.5L75 20.666667zM30.666667 28.5c-1.833334-1-4-.333333-5 1.333333l-10.5 18c-1 1.833334-.333334 4 1.333333 5 1.666667 1 4 .333334 5-1.333333l10.333333-18c1.166667-1.666667.5-4-1.166666-5z" fill="#00619D" fill-rule="nonzero"/>
  </g>
</svg>
