<svg width="80" height="80" viewBox="0 0 80 80" xmlns="http://www.w3.org/2000/svg">
  <title>
    ins-ins-ecosystem
  </title>
  <g fill="none" fill-rule="evenodd">
    <circle fill="#FFF" cx="40" cy="40" r="40"/>
    <g transform="translate(9 9)" fill-rule="nonzero">
      <ellipse fill="#B2A3F6" cx="23.496301" cy="16.75274" rx="3.821918" ry="3.783699"/>
      <ellipse fill="#B2A3F6" cx="34.414247" cy="12.429726" rx="3.821918" ry="3.783699"/>
      <ellipse fill="#B2A3F6" cx="38.783973" cy="38.372055" rx="3.821918" ry="3.783699"/>
      <ellipse fill="#B2A3F6" cx="2.203973" cy="34.588356" rx="2.18274" ry="2.161507"/>
      <ellipse fill="#B2A3F6" cx="8.20863" cy="49.183836" rx="1.639178" ry="1.622192"/>
      <ellipse fill="#B2A3F6" cx="25.679041" cy="59.99137" rx="1.639178" ry="1.622192"/>
      <ellipse fill="#B2A3F6" cx="54.071644" cy="50.262466" rx="1.639178" ry="1.622192"/>
      <ellipse fill="#B2A3F6" cx="36.601233" cy="47.022329" rx="1.639178" ry="1.622192"/>
      <ellipse fill="#B2A3F6" cx="46.427808" cy="39.454932" rx="1.639178" ry="1.622192"/>
      <ellipse fill="#B2A3F6" cx="34.962055" cy="59.452055" rx="2.18274" ry="2.161507"/>
      <ellipse fill="#B2A3F6" cx="44.78863" cy="32.426849" rx="2.18274" ry="2.161507"/>
      <ellipse fill="#B2A3F6" cx="48.066986" cy="54.046164" rx="2.18274" ry="2.161507"/>
      <ellipse fill="#B2A3F6" cx="4.930274" cy="42.699315" rx="2.730548" ry="2.700822"/>
      <ellipse fill="#B2A3F6" cx="31.140137" cy="52.423973" rx="3.821918" ry="3.783699"/>
      <ellipse fill="#B2A3F6" cx="10.39137" cy="34.049041" rx="3.821918" ry="3.783699"/>
      <ellipse fill="#B2A3F6" cx="31.140137" cy="43.777945" rx="2.730548" ry="2.700822"/>
      <ellipse fill="#B2A3F6" cx="18.035206" cy="21.08" rx="1.639178" ry="1.622192"/>
      <ellipse fill="#B2A3F6" cx="28.409589" cy="25.942329" rx="3.27411" ry="3.244384"/>
      <ellipse fill="#B2A3F6" cx="36.053425" cy="30.265342" rx="2.18274" ry="2.161507"/>
      <ellipse fill="#B2A3F6" cx="39.875343" cy="3.783699" rx="1.639178" ry="1.622192"/>
      <ellipse fill="#B2A3F6" cx="32.231507" cy="2.700822" rx="2.730548" ry="2.700822"/>
      <ellipse fill="#B2A3F6" cx="33.870685" cy="20.536438" rx="2.18274" ry="2.161507"/>
      <ellipse fill="#B2A3F6" cx="13.121918" cy="43.23863" rx="3.27411" ry="3.244384"/>
      <ellipse fill="#B2A3F6" cx="44.78863" cy="46.478767" rx="3.27411" ry="3.244384"/>
      <ellipse fill="#B2A3F6" cx="40.423151" cy="54.046164" rx="3.27411" ry="3.244384"/>
      <ellipse fill="#B2A3F6" cx="14.761096" cy="53.506849" rx="3.821918" ry="3.783699"/>
      <ellipse fill="#B2A3F6" cx="3.295342" cy="25.942329" rx="3.27411" ry="3.244384"/>
      <g transform="translate(4.246575 2.972603)" fill="#FC4C04">
        <ellipse cx="15.427808" cy="27.29274" rx="4.369726" ry="4.323014"/>
        <ellipse cx="38.359315" cy="20.808219" rx="4.369726" ry="4.323014"/>
        <ellipse cx="50.36863" cy="40.266027" rx="3.27411" ry="3.244384"/>
        <ellipse cx="53.646986" cy="27.29274" rx="3.27411" ry="3.244384"/>
        <ellipse cx="41.089863" cy="12.701507" rx="2.730548" ry="2.700822"/>
        <ellipse cx="41.633425" cy="4.594795" rx="2.18274" ry="2.161507"/>
        <ellipse cx="46.546712" cy="7.295616" rx="1.639178" ry="1.622192"/>
        <ellipse cx="55.286164" cy="20.268904" rx="1.639178" ry="1.622192"/>
        <ellipse cx="8.327534" cy="6.216986" rx="1.639178" ry="1.622192"/>
        <ellipse cx="6.144795" cy="20.268904" rx="1.639178" ry="1.622192"/>
        <ellipse cx="10.51452" cy="22.430411" rx="1.639178" ry="1.622192"/>
        <ellipse cx="15.97137" cy="1.889726" rx="1.639178" ry="1.622192"/>
        <ellipse cx="55.286164" cy="34.320822" rx="1.639178" ry="1.622192"/>
        <ellipse cx="49.825069" cy="14.863014" rx="3.821918" ry="3.783699"/>
        <ellipse cx="46.546712" cy="24.591918" rx="2.730548" ry="2.700822"/>
        <ellipse cx="9.423151" cy="12.701507" rx="2.730548" ry="2.700822"/>
        <ellipse cx="21.432466" cy="5.13411" rx="2.730548" ry="2.700822"/>
        <ellipse cx="14.336438" cy="6.756301" rx="2.18274" ry="2.161507"/>
        <ellipse cx="2.322877" cy="15.402329" rx="2.18274" ry="2.161507"/>
        <ellipse cx="48.18589" cy="32.69863" rx="2.18274" ry="2.161507"/>
        <ellipse cx="24.710822" cy="32.159315" rx="3.821918" ry="3.783699"/>
        <ellipse cx="17.610548" cy="35.943014" rx="2.18274" ry="2.161507"/>
        <ellipse cx="18.701918" cy="43.506164" rx="3.27411" ry="3.244384"/>
        <ellipse cx="18.701918" cy="51.073562" rx="2.18274" ry="2.161507"/>
      </g>
    </g>
  </g>
</svg>
