<svg width="80" height="80" viewBox="0 0 80 80" xmlns="http://www.w3.org/2000/svg" xmlns:xlink="http://www.w3.org/1999/xlink">
  <title>
    int-internet-node-token
  </title>
  <defs>
    <path id="a" d="M.193125.029075h28.4895V47.25H.193125z"/>
    <path id="c" d="M.000025.000075H33.85375v18.00425H.000025z"/>
  </defs>
  <g fill="none" fill-rule="evenodd">
    <circle fill="#FFF" cx="40" cy="40" r="40"/>
    <g transform="translate(25.5 22.75)">
      <mask id="b" fill="#fff">
        <use xlink:href="#a"/>
      </mask>
      <path d="M13.224125 10.605825c-.20725-.1555-.52025-.3395-.77125-.58675-1.72425-1.69975-3.43425-3.4135-5.15275-5.11925-.21075-.20925-.4445-.3955-.72825-.64575v12.97825c2.14775-2.1395 4.373-4.356 6.65225-6.6265zm-5.4665 34.8485c2.54.166 13.73775.09875 14.71675-.09475.01775-.078.05175-.1565.05175-.23525.00425-4.62075.0065-9.24175.00075-13.8625-.00025-.17025-.08775-.34025-.12125-.46275-4.9265 4.92925-9.8015 9.8065-14.648 14.65525zm-1.49825-1.236c1.05475-.784 19.6595-19.42275 20.20325-20.20025-.65225-.61825-1.297-1.229-1.9415-1.8395.103 1.3805.071 2.84425-1.7 3.56925-.02175-.25675-.04675-.417-.04725-.57675-.00375-1.958.01725-3.91625-.0095-5.874-.0655-4.81575-.1515-9.631-.23375-14.4465-.0035-.1915-.05375-.382-.11225-.774-.42025.38375-.726.64175-1.00775.92325-3.80225 3.798-7.60075 7.59925-11.4005 11.3995-2.20925 2.2095-4.42175 4.4155-6.62425 6.6315-.28.28175-.7065.49775-.58675 1.08525.5645.59975 1.17075 1.2435 1.9295 2.04925v-1.96175c.50575-.5455.9285-1.00175 1.53075-1.65125v21.666zm-1.48225 3.03175v-18.43775c-1.49525-1.4675-3.008-2.95275-4.584-4.49975.609-.728 1.15975-1.436 1.76375-2.09475.647-.7055 1.32575-1.384 2.02475-2.03775.5865-.5485.808-1.1785.80425-1.985-.02525-5.57975-.01475-11.15975-.01175-16.73975.00025-.3925.0315-.785.059-1.42625 1.31825 1.147 2.31575 2.24875 3.3725 3.28625 1.03975 1.021 2.06425 2.058 3.09675 3.0865 1.0575 1.0525 2.11675 2.10275 3.09625 3.076.653.084.858-.3475 1.138-.626 2.62825-2.613 5.24475-5.23775 7.86825-7.85525.28025-.2795.58375-.536 1.00975-.9245.1935 1.48325.08075 2.7615.10075 4.03375.02075 1.33225.00475 2.665.00475 3.9975v11.79975c1.359 1.381 2.72475 2.7685 4.1625 4.22925-.04425.055-.20075.2875-.39425.4835-.995 1.00725-1.9725 2.03375-3.0095 2.99625-.7175.66625-1.027 1.4015-1.02025 2.39875.03725 5.746.01825 11.49275.0185 17.23925h-19.5z" fill="#000" mask="url(#b)"/>
    </g>
    <g transform="translate(23 10)">
      <mask id="d" fill="#fff">
        <use xlink:href="#c"/>
      </mask>
      <path d="M29.311525 6.668325c-.21775-.206-.26825-.29275-.339-.315-3.80375-1.1955-7.48175-2.7535-11.29725-3.9195-.55175-.1685-.985-.19625-1.53275.00025-3.29375 1.18225-6.6045 2.317-9.90925 3.46825-.56425.1965-1.1275.39575-1.8885.663 4.28925 3.17 8.39925 6.20725 12.5965 9.30925 1.92925-1.294 3.6865-2.76875 5.53175-4.11875 2.27975-1.668 4.534-3.37075 6.8385-5.0875zm-12.0345-6.66825c1.20725.66425 2.53375 1.02525 3.81875 1.489 3.6775 1.32675 7.35975 2.6395 11.046 3.94125.5295.187 1.0855.296 1.712.6195-5.7015 4.031-11.27375 7.9705-16.90925 11.9545-5.59525-3.992-11.23125-7.8665-16.9445-12.04325 2.207-.76425 4.12525-1.419 6.03675-2.09275 3.456-1.21775 6.908-2.446 10.3595-3.6765.05875-.021.08775-.126.13075-.19175h.75z" fill="#000" mask="url(#d)"/>
    </g>
  </g>
</svg>
