<svg width="80" height="80" xmlns="http://www.w3.org/2000/svg" xmlns:xlink="http://www.w3.org/1999/xlink">
  <defs>
    <path id="a" d="M0 .07843h51.868026v51.726081H0z"/>
    <path id="c" d="M.00004.078391h34.307683v51.708507H.00004z"/>
  </defs>
  <g fill="none" fill-rule="evenodd">
    <circle fill="#FFF" cx="40" cy="40" r="40"/>
    <g transform="translate(14 14.117098)">
      <mask id="b" fill="#fff">
        <use xlink:href="#a"/>
      </mask>
      <path d="M34.264266 25.932596c.018963-.041835.033429-.085234.043399-.13.149353-.123354.30985-.235369.4463-.371625C40.2775 19.909392 45.799078 14.38625 51.318702 8.860761c.181023-.181218.399188-.338.448647-.497323-2.758346-2.760301-5.47994-5.48346-8.230466-8.235745-.148963.140948-.364391.334677-.568873.539354-5.360105 5.362255-10.716887 10.72803-16.083639 16.083639-.310631.30985-.535639.758887-1.055443.804827-.0823-.100481-.156587-.208978-.24788-.300466-5.64024-5.641805-11.281654-11.282241-16.92424-16.9217-.109865-.109669-.20409-.254135-.185715-.254917C5.632988 2.914971 2.903574 5.642626-.00002 8.54446c5.810512 5.78588 11.682015 11.632556 17.630542 17.55567C11.786972 31.929993 5.936777 37.766113.206808 43.4824c2.742315 2.767534 5.45648 5.50633 8.229293 8.304556 1.723428-1.733594 3.487714-3.511955 5.25591-5.28621 4.045248-4.05991 8.09245-8.117865 12.138872-12.17621.43809.04848.646676.414044.915669.682841 5.43224 5.42579 10.859203 10.856858 16.289293 16.284797.20233.202331.364.463895.588421.512376 2.747008-2.74603 5.456677-5.455308 8.24376-8.241218-5.84609-5.855082-11.725023-11.742812-17.60376-17.630737" fill="#646464" mask="url(#b)"/>
    </g>
    <g transform="translate(14 14.117098)">
      <mask id="d" fill="#fff">
        <use xlink:href="#c"/>
      </mask>
      <path d="M25.830941 34.324477c-4.04642 4.058541-8.093624 8.116496-12.139067 12.17621-1.768 1.774256-3.532482 3.552617-5.255715 5.28621-2.772812-2.79803-5.487173-5.537022-8.229293-8.304165 5.72997-5.716676 11.580166-11.552797 17.423714-17.382466C11.682054 20.176958 5.81055 14.330476.00004 8.544401 2.903632 5.642567 5.63285 2.914913 8.471151.078371c-.018376.000978.075654.145444.185519.255113 5.642782 5.639263 11.284195 11.279895 16.924436 16.9217.091293.091293.165579.199789.247684.30027.49224.466632.994451.923489 1.474767 1.40185 2.040902 2.032691 4.074376 4.07242 6.112932 6.107458.273489.273098.521564.579624.891233.737775-.00997.044962-.024631.088165-.043398.13-.211714.244947-.392737.527624-.640226.728195-1.432541 1.161594-2.62639 2.5697-3.96197 3.83197-1.310556 1.238812-2.508511 2.599218-3.831188 3.831775" fill="#414141" mask="url(#d)"/>
    </g>
    <path d="M39.830941 48.441574c1.322677-1.232556 2.520632-2.592962 3.831188-3.831774 1.33558-1.26227 2.529429-2.670376 3.96197-3.83197.247489-.200571.428511-.483248.640226-.728195 5.878737 5.887924 11.757669 11.77585 17.603564 17.630932-2.786887 2.78591-5.496752 5.494992-8.243564 8.241022-.224421-.04848-.38609-.310045-.588617-.512375-5.43009-5.42794-10.856857-10.859008-16.289097-16.284797-.268993-.268797-.477775-.634361-.91567-.682843m8.476743-8.521881c-.369669-.158346-.617744-.464677-.891233-.737774-2.038556-2.035038-4.07203-4.074963-6.112932-6.107459-.480316-.47836-.982527-.935218-1.474767-1.40185.52-.04594.745007-.494977 1.055443-.804827 5.366948-5.355609 10.72373-10.721188 16.083835-16.083639.204481-.204676.41991-.398406.568872-.539353 2.750527 2.752286 5.47212 5.475444 8.230466 8.235744-.049458.159324-.267624.316106-.448646.497324-5.519624 5.525488-11.041203 11.048631-16.564737 16.57021-.136451.136256-.296947.248466-.4463.371624" fill="#646464"/>
  </g>
</svg>
