<svg width="80" height="80" viewBox="0 0 80 80" xmlns="http://www.w3.org/2000/svg">
  <title>
    ioc-iocoin
  </title>
  <g fill="none" fill-rule="evenodd">
    <circle fill="#0B0B19" cx="40" cy="40" r="40"/>
    <path d="M30.641935 12.708873v10.0514c-15.456774 7.988534-13.190967 26.573667-.06129 34.10851.341936 3.18549.166452 6.4786.101936 9.789757C22.28839 65.31165 11.4 56.279762 10.127747 42.005318 8.643228 25.349008 20.3671 15.716496 30.641936 12.708873M48.87213 66.838727V56.72997c6.74-3.447777 11.034838-8.7928 10.76645-16.704-.256773-7.61282-3.876128-13.464377-10.696773-17.202154-.27742-3.392356-.17355-6.686112-.083226-10.01789C59.23923 15.11175 68.662457 25.118683 69.47665 38.59724c.916774 15.186333-9.78 25.104978-20.604516 28.24149" fill="#2FA2DB"/>
    <path d="M46.129613 30.34487v36.993688c-3.91742 1.616266-7.76 1.615622-13.100645-.043822V30.48278c4.229677-1.689733 8.44645-1.748378 13.100645-.13791" fill="#82C8EE"/>
    <path d="M46.182193 11.901127v10.06171c-4.412903-1.683933-8.675483-1.37202-13.2.15338-.436774-3.38849-.154193-6.5134-.172903-9.82649 4.516775-1.7226 8.81871-1.58211 13.372903-.3886" fill="#82C9EE"/>
  </g>
</svg>
