<svg width="80" height="80" viewBox="0 0 80 80" xmlns="http://www.w3.org/2000/svg" xmlns:xlink="http://www.w3.org/1999/xlink">
  <title>
    ipl-insurepal
  </title>
  <defs>
    <path id="a" d="M.000235.00474h28.697647v30.809482H.000235z"/>
  </defs>
  <g fill="none" fill-rule="evenodd">
    <circle fill="#FFF" cx="40" cy="40" r="40"/>
    <g transform="translate(10 25.1808)">
      <mask id="b" fill="#fff">
        <use xlink:href="#a"/>
      </mask>
      <path d="M21.236706 18.523852c-1.075294 1.908148-3.107059 3.19763-5.441177 3.198815-3.225882.003555-6.171764-2.866963-6.270588-6.115556-.108235-3.576889 2.738824-6.512592 6.264706-6.512592 2.415294 0 4.507059 1.37837 5.551765 3.395555.611765 1.17926 1.875294 1.867852 3.19647 1.867852H24.792c.822353 0 1.512941-.61037 1.631765-1.430519.33294-2.300444 1.121176-4.458666 2.274117-6.384592C25.840235 2.590222 21.126118.004148 15.789647.004148c-8.72 0-15.789412 6.897778-15.789412 15.405037 0 8.508445 7.069412 15.405037 15.789412 15.405037 5.33647 0 10.050588-2.584889 12.908235-6.538666-1.148235-1.92-1.93647-4.071112-2.271764-6.362075-.12-.818963-.809412-1.428148-1.630589-1.428148h-.248235c-1.395294 0-2.621176.815408-3.310588 2.038519" fill="#CC5866" mask="url(#b)"/>
    </g>
    <path d="M54.200823 25.18554c-7.642352 0-14.011764 5.297779-15.470588 12.334223-.215294 1.039407.569412 2.019556 1.622353 2.019556h5.085883c1.397647 0 2.623529-.816593 3.310588-2.042075 1.072941-1.912888 3.105882-3.20474 5.442353-3.208296 3.228235-.005926 6.175294 2.864593 6.274117 6.115556.108236 3.578074-2.737647 6.512592-6.264705 6.512592-2.411765 0-4.501177-1.37363-5.548236-3.387259-.611764-1.176889-1.875294-1.864296-3.194117-1.864296h-5.1c-1.055294 0-1.84.981333-1.622353 2.021926 1.469411 7.023407 7.83294 12.308148 15.464706 12.308148 8.72 0 15.789411-6.897778 15.789411-15.405037 0-8.508445-7.069412-15.405037-15.789412-15.405037" fill="#68AA44"/>
    <path d="M34.523647 39.539082h.014118-.014118zm4.05647-7.973926c.04.052148.078824.105481.117648.158814-.038824-.053333-.077647-.106666-.117647-.158814z" fill="#CBCCCB"/>
    <path d="M36.627882 29.402548c-2.117647 2.728296-3.477647 6.08-3.76353 9.738667.504707.25126 1.068236.393481 1.645883.398222h.281176c.822354 0 1.512942-.61037 1.631766-1.430518.33294-2.300445 1.122352-4.458667 2.274117-6.384593-.038823-.053333-.077647-.106667-.11647-.158815-.58-.781037-1.236471-1.502815-1.952942-2.162963" fill="#AD6267"/>
    <path d="M34.52247 41.66637h-.003529.00353m.27294 0h-.263529.26353c.821176 0 1.510588.609186 1.630588 1.428149.33647 2.292148 1.12353 4.442074 2.271765 6.362074-1.148236-1.92-1.935294-4.069926-2.271765-6.362074-.12-.818963-.809412-1.428149-1.630588-1.428149" fill="#CBCCCB"/>
    <path d="M34.794823 41.66637h-.276471c-.591764.004741-1.148234.163556-1.64941.430223.295293 3.636148 1.651764 6.967703 3.758823 9.681777.764706-.705185 1.461176-1.480296 2.069412-2.321777-1.148236-1.92-1.935295-4.069926-2.271765-6.362074-.118824-.818963-.808236-1.428149-1.630589-1.428149" fill="#AD6267"/>
  </g>
</svg>
