<svg width="80" height="80" xmlns="http://www.w3.org/2000/svg">
  <defs>
    <filter x="-22.6%" y="-20%" width="145.3%" height="140%" filterUnits="objectBoundingBox" id="a">
      <feOffset in="SourceAlpha" result="shadowOffsetOuter1"/>
      <feGaussianBlur stdDeviation="4" in="shadowOffsetOuter1" result="shadowBlurOuter1"/>
      <feColorMatrix values="0 0 0 0 0.846012849 0 0 0 0 0.931811942 0 0 0 0 0.947411777 0 0 0 0.446897645 0" in="shadowBlurOuter1" result="shadowMatrixOuter1"/>
      <feMerge>
        <feMergeNode in="shadowMatrixOuter1"/>
        <feMergeNode in="SourceGraphic"/>
      </feMerge>
    </filter>
  </defs>
  <g fill="none" fill-rule="evenodd">
    <circle fill="#001629" cx="40" cy="40" r="40"/>
    <path d="M32.156373 30.141474c-1.20197-.700737-2.298258-1.340053-3.379426-1.970527-1.012412.988421-2.631379 1.276421-3.846559.276474-.238102-.195947-.456786-.218053-.720672-.060474-.973577.581369-1.952247 1.154369-2.979619 1.760527 1.140057.671052 2.22218 1.308 3.28775 1.935315 1.636953-1.143473 2.848631-1.074315 4.331517-.002842 1.045994-.613105 2.10504-1.233947 3.30701-1.938473zM39.032686 28.209a42838.319251 42838.319251 0 0 1-3.212469 1.928842c.245105.157421.415405.275842.594141.379895.726721.423316 1.45551.843473 2.184778 1.262684.296513.170368.491324.386368.43546.762158-.02674.180158-.003343.367579-.003343.551684.000955 5.129842.001592 10.259684.002228 15.389527.00016.25642 0 .512842 0 .897789a185781.65392 185781.65392 0 0 0 8.267205-4.748053c-.6777-1.802052.029603-3.473368 2.183186-4.205684V19.828895c-.815532-.272053-1.563102-.665053-2.024346-1.469369-.45249-.789-.487663-1.617316-.272162-2.479736-2.728147-1.564422-5.401702-3.097264-8.154678-4.675895V28.209zM14.363812 49.395474c0-.409421-.00016-.668684 0-.927948.000955-5.208631.015279-10.41742-.014484-15.625894-.003501-.623685.20643-.950053.732928-1.229053.831766-.440684 1.625493-.95179 2.50055-1.471895-1.117934-.661105-2.166952-1.281316-3.168382-1.87342-.025147-.098843-.033264-.123317-.037402-.14858-.004138-.025894-.006366-.05242-.006366-.078631-.002229-5.445474-.004298-10.890948-.006685-16.336421-.00016-.105158-.001114-.210474-.00573-.315474-.001114-.024-.01528-.049895-.03024-.070105-.011937-.016106-.03406-.024948-.089607-.063-1.392483.806684-2.796904 1.631842-4.212624 2.437579-1.432274.815052-2.877916 1.60721-4.25337 2.465684.352538 1.34242-.255291 2.785737-1.855318 3.547263V40.60942c.772559.341053 1.348715.837947 1.71494 1.586526.364793.745737.24049 1.508685.122552 2.25 2.865184 1.647316 5.664634 3.256895 8.609238 4.949527zm22.741138-22.14821V10.256052c-2.627559-1.538369-5.251616-3.074527-7.851162-4.596316-1.511535 1.232052-3.233 1.528105-5.136544-.000948-2.600342 1.52479-5.222808 3.062369-7.829198 4.590632v16.993737c1.063183.624631 2.102333 1.235052 3.132889 1.840579 1.483204-.874105 2.925982-1.724526 4.329925-2.552053-.107273-2.085158 1.431955-3.251368 2.768892-3.29179.727994-.022105 1.400441.144948 1.97596.638527.813145.697579 1.178415 1.580684 1.16616 2.674105 1.422724.839527 2.845129 1.678737 4.289817 2.53121 1.050132-.611525 2.09167-1.218315 3.15326-1.836473zM16.2777 33.041525V49.995c.09088.073421.165208.15079.254496.203053 2.519171 1.470947 5.04439 2.931631 7.554808 4.41679.340123.201157.566925.252315.91596.001104.759668-.54679 1.620719-.77179 2.533496-.421894.451057.173052.862961.446368 1.306697.681631 2.740402-1.606737 5.504042-3.22721 8.259883-4.843105V33.054158c-.92742-.547737-1.833354-1.077316-2.732922-1.61779-.243991-.146684-.46745-.215368-.735952-.054947-1.32866.793263-2.661937 1.579105-3.970862 2.354053-.054273 2.273052-1.329297 3.25421-2.959246 3.345473-.652075.036474-1.338051-.195315-1.882216-.686052-.799298-.720316-1.116183-1.618421-1.080213-2.650105a112874.231786 112874.231786 0 0 0-4.328811-2.531053c-1.059841.617842-2.077823 1.211368-3.135117 1.82779zM2.083888 40.51579V19.72358C.07116 18.881684-.406477 16.965316.355737 15.562263c.768102-1.414105 2.558642-2.161105 4.402024-.976737 6.159937-3.519947 12.346453-7.080158 18.500183-10.63421.008117-3.003 2.079733-4.18058 3.90306-3.914842 2.047105.298263 3.160105 2.175315 2.845607 3.857052 6.09484 3.505263 12.198753 7.015737 18.31158 10.531263.896543-.400578 1.790699-.620684 2.735786-.226105.68709.286737 1.210405.753316 1.54448 1.403684.659397 1.283843.28776 2.970948-1.260859 3.884842v21.263053c.792772.480948 1.384367 1.197158 1.537478 2.184.102499.660474-.014165 1.308632-.363679 1.891263-.612922 1.02158-1.901156 1.944474-3.913883 1.177421-1.962114 1.122632-3.925024 2.240527-5.88284 3.367263-1.822532 1.048895-3.636787 2.111527-5.459796 3.159948-1.84561 1.06121-3.697586 2.111368-5.545901 3.168-.592868.339-1.179529.68921-1.775898 1.022053-.208658.116368-.256883.279789-.306859.502105-.118733.528631-.257042 1.045105-.612285 1.503-.740409.954631-1.726081 1.31321-2.857225 1.10779-1.098199-.19958-1.903703-.864948-2.245259-1.97337-.091198-.295736-.141015-.603946-.230303-.997262-6.330396-3.639158-12.729709-7.318106-19.158465-11.01379-.75919.395527-1.567877.602369-2.4571.29779-.76285-.261316-1.327705-.726316-1.70539-1.427369-.838291-1.555895-.19306-3.155684 1.723694-4.203316z" filter="url(#a)" transform="translate(14 10)" fill="#D7EFFE"/>
  </g>
</svg>
