<svg width="80" height="80" xmlns="http://www.w3.org/2000/svg" xmlns:xlink="http://www.w3.org/1999/xlink">
  <defs>
    <path id="a" d="M.000096.058817H48.78957v58.75852H.000096z"/>
  </defs>
  <g fill="none" fill-rule="evenodd">
    <circle fill="#FFF" cx="40" cy="40" r="40"/>
    <path d="M32.159688 50.51734c.176446-.65795.381167-1.233337.146334-1.920148-.620774.652836-1.283226 1.15461-1.761337 1.920149h1.615003zm1.930806-10.70987c-3.545993 3.6538-6.89461 7.104112-10.412695 10.72905 1.3776 0 2.473731-.032697 3.566741.012056.68467.02813 1.212722-.134074 1.708643-.640415 1.172144-1.19717 2.401574-2.338811 3.609705-3.50091.243462-.234539.472787-.467799.533377-.825635.309377-1.82425.6272-3.647223.99423-5.774145zM38.8314 13.159747c4.659568-.179374 9.110007.637858 13.303397 2.725143 2.480157 1.234798 4.682702 2.84844 6.69301 4.734978.17663.165857.34059.34779.492433.53648.049757.061922.042596.169145.077482.328427-.445614.136449-.847712-.012969-1.277351-.041647-4.667462-.311805-9.298938-.193257-13.5744 2.0197-3.842335 1.988647-5.720262 5.406628-6.631135 9.459727-.151842.675486-.253744 1.361932-.40375 2.17953 3.313364-3.12152 6.521154-6.143672 9.72876-9.165824.039476.045118.081338.08786.12577.127864-3.025652 3.137594-6.031475 6.294734-9.091645 9.3989-.741954.75257-1.18206 1.542586-1.316092 2.592165-.197193 1.545508-.520708 3.074941-.848813 4.94303A792526.709732 792526.709732 0 0 1 53.649 26.156187l.198295.189055c-1.311868 1.363942-2.623737 2.727883-4.086347 4.248366 1.447738-.29427 2.682125-.65247 3.990505-.667084 3.693062-.041099 7.307174.5447 10.918715 1.194613.227672.0411.460668.213715.676039-.028678.110715.05553.221613.111242.332511.166771-.016891 1.31718.529155 2.527684.723594 3.809245 1.138911 7.50396-.583135 14.275442-5.156407 20.337099-.202334.268148-.429455.512186-.456446.867099-.127606.002557-.255213.005114-.383003.007672-.391816.03507-.787488.045483-1.174531.109232-3.833889.63256-7.68118 1.150591-11.57621.79312-2.554701-.234538-3.77642-1.801052-3.588957-4.347733.12981-1.763607.48362-3.49123.824577-5.217756.951633-4.821012 1.448288-9.72952 2.808446-14.471622.126321-.100647.147069-.220473.044983-.397108-.081154.077083-.153128.145765-.225285.214263-3.726479 3.81783-7.444328 7.644062-11.19082 11.442164-.45975.466155-.673101.972678-.779042 1.58277-.410728 2.364933-.870112 4.721828-1.250728 7.091326-.65419 4.07173.232079 7.615567 3.686085 10.235495 1.032053.782892 2.252485 1.198084 3.401862 1.752282-.281468.277464-.643724.192161-.958426.153802-3.018859-.366604-5.93196-1.221647-8.600865-2.604585-5.017233-2.59947-9.017836-6.307703-11.747882-11.333845-2.10358-3.872812-3.135817-7.980892-3.295922-12.346344-.060406-1.643963.130728-3.26418.36905-4.883483.510242-3.465474 1.74114-6.683074 3.545075-9.66431 1.302688-2.153408 2.911816-4.110272 4.768997-5.811408.910321-.833855 1.76556-1.859505 3.108459-2.10884-.438453 2.635273-.856892 5.274016-1.318663 7.90527-1.424603 8.122455-2.865914 16.241988-4.301901 24.37047.365193.174626.539252-.131882.74783-.331715 3.39158-3.249931 6.775265-6.5079 10.177678-9.746325.378597-.36021.573036-.761154.658597-1.251969.75095-4.310653 1.497128-8.622402 2.2624-12.930498.658964-3.709328 1.34143-7.414638 2.01343-11.121591.005507-.06722.0112-.13444.016707-.20166z" fill="#BD292E"/>
    <g transform="translate(12 7.123845)">
      <mask id="b" fill="#fff">
        <use xlink:href="#a"/>
      </mask>
      <path d="M16.575247 9.343883c-1.342715.249517-2.198138 1.274985-3.108275 2.108839-1.85718 1.701136-3.466308 3.658-4.76918 5.811409-1.803935 2.981418-3.034833 6.198836-3.544892 9.66431-.238505 1.619303-.429456 3.23952-.369233 4.883482.160105 4.365452 1.192524 8.473533 3.295921 12.346344 2.730046 5.026142 6.73065 8.734375 11.748066 11.334028 2.668905 1.382755 5.582006 2.237981 8.600865 2.604402.314702.03836.676958.123663.958427-.153619.129442.031783.258885.063932.388327.095898.03764.053337.088682.074891.153496.064662.674754.188874 1.33335.14613 2.033626.041465 6.598085-.987474 12.097101-3.938387 16.44417-8.988641.127607-.002557.255213-.004932.383004-.007672v8.084827c-1.920341.58105-4.198715.967563-6.49398 1.226579-3.682781.415374-7.354545.52479-11.063581.023015-1.780617-.240932-3.628984.313266-5.470558.285136C12.781936 58.568515 1.584873 48.438964.172572 35.580434c-1.309666-11.921653 4.915331-22.532885 16.08118-27.4076.378597-.16531.61398-.360028.692748-.836778.400446-2.420096.862032-4.830328 1.30838-7.277275h9.671659c-.368682 2.012393-.731856 3.99483-1.09503 5.977266-.005508.067037-.0112.134257-.016708.20166-3.237534-.003836-6.250701.95295-9.210255 2.134046-.466728.186316-1.065102.251709-1.029299.97213" fill="#951720" mask="url(#b)"/>
    </g>
    <path d="M65.678644 31.259284c-.110898-.055712-.221797-.111242-.332512-.166954-1.188668-3.519541-3.074491-6.635582-5.714937-9.55599 2.92173.278743 5.561259.859975 8.273495 1.628984-.753154 2.73866-1.4896 5.41631-2.226046 8.09396" fill="#951720"/>
    <path d="M47.2399 25.936297c.207843-.241115.41587-.482412.721941-.837508.023318.601873-.366295.729737-.596354.965371-.044249-.040185-.086295-.082746-.125587-.127863" fill="#BD292E"/>
  </g>
</svg>
