<svg width="80" height="80" viewBox="0 0 80 80" xmlns="http://www.w3.org/2000/svg">
  <title>
    jnt-jibrel-network
  </title>
  <g fill="none" fill-rule="evenodd">
    <circle fill="#FFF" cx="40" cy="40" r="40"/>
    <path d="M40 68c-1.871408.00007-3.709584-.48775-5.32827-1.414032l-15.326683-8.73747C16.042683 55.96319 14.006617 52.487473 14 48.724107v-17.44694c.013464-3.761545 2.047702-7.23414 5.345047-9.124388l15.326682-8.737471c1.627025-.925593 3.471934-1.413632 5.350209-1.415305 1.864861-.001637 3.69648.486892 5.306333 1.415305l15.327973 8.73747C63.95811 24.03841 65.99365 27.514064 66 31.27717v17.44694c-.013196 3.761284-2.046908 7.233819-5.343756 9.124388l-15.327973 8.73747C43.70963 67.512363 41.871424 68.000192 40 68zm-8.81765-18.00059l-2.83899 2.800064c1.490493 1.490131 3.529945 2.320444 5.652173 2.301143 4.42399-.004909 8.0093-3.540488 8.01499-7.903816v-2.386417c1.213437.692243 2.590853 1.055805 3.992654 1.053842 2.12906.041874 4.182031-.78094 5.677982-2.275688l-2.838991-2.800064c-.751246.745706-1.77315 1.164898-2.838991 1.164572-2.203316-.004202-3.988394-1.764804-3.992655-3.937907V24.866296h-3.992654v22.35596c0 2.179064-1.791039 3.945544-4.000397 3.945544-1.065058-.0017-2.085458-.422221-2.83512-1.16839z" fill="#0050DB" fill-rule="nonzero"/>
  </g>
</svg>
