<?xml version="1.0" encoding="UTF-8"?>
<svg width="105px" height="105px" viewBox="0 0 105 105" version="1.1" xmlns="http://www.w3.org/2000/svg" xmlns:xlink="http://www.w3.org/1999/xlink">
    <!-- Generator: Sketch 49.2 (51160) - http://www.bohemiancoding.com/sketch -->
    <title>Group</title>
    <desc>Created with Sketch.</desc>
    <defs></defs>
    <g id="Page-1" stroke="none" stroke-width="1" fill="none" fill-rule="evenodd">
        <g id="Group">
            <circle id="Oval" fill="#0057FF" cx="52.5" cy="52.5" r="52.5"></circle>
            <path d="M29.316,65.704 C25.356,65.704 22.584,64.12 21,60.916 L25.284,58.468 C26.076,60.052 27.408,60.844 29.316,60.844 C31.944,60.844 33.24,59.512 33.24,57.352 L33.24,40 L38.172,40 L38.172,57.352 C38.172,59.98 37.344,62.032 35.688,63.508 C34.032,64.984 31.908,65.704 29.316,65.704 Z M42.636,40 L52.032,40 C54.444,40 56.496,40.828 58.152,42.448 C59.808,44.068 60.636,46.084 60.636,48.46 C60.636,50.836 59.808,52.852 58.152,54.472 C56.496,56.092 54.444,56.92 52.032,56.92 L47.604,56.92 L47.604,65.2 L42.636,65.2 L42.636,40 Z M47.604,52.276 L52.032,52.276 C54.156,52.276 55.704,50.62 55.704,48.46 C55.704,46.264 54.156,44.644 52.032,44.644 L47.604,44.644 L47.604,52.276 Z M78.204,40 L83.82,40 L75.18,55.372 L75.18,65.2 L70.248,65.2 L70.248,55.372 L61.644,40 L67.26,40 L72.732,50.512 L78.204,40 Z" id="JPY" fill="#FFFFFF"></path>
        </g>
    </g>
</svg>