<svg width="80" height="80" viewBox="0 0 80 80" xmlns="http://www.w3.org/2000/svg" xmlns:xlink="http://www.w3.org/1999/xlink">
  <title>
    kb3-b3coin
  </title>
  <defs>
    <path id="a" d="M0 .083476h50.849938v57.707822H0z"/>
  </defs>
  <g fill="none" fill-rule="evenodd">
    <circle fill="#0D1926" cx="40" cy="40" r="40"/>
    <g transform="translate(15 11.12518)">
      <mask id="b" fill="#fff">
        <use xlink:href="#a"/>
      </mask>
      <path d="M.041744 28.970541c0-4.276353.03421-8.553122-.021197-12.828849-.01637-1.260561.405901-2.001417 1.541753-2.64651C9.05888 9.236353 16.515164 4.907216 23.96767.572238c.997754-.580417 1.831383-.69287 2.899865-.069684 7.601098 4.431785 15.23221 8.81308 22.869197 13.183526.793753.454194 1.116753 1.00415 1.113185 1.918172-.03358 8.795972-.042605 17.592151-.024345 26.388123.002308 1.075712-.423112 1.714129-1.350976 2.238633-5.621543 3.178108-11.21958 6.397525-16.820765 9.610892-2.05847 1.181072-4.120926 2.357136-6.148124 3.58995-.785568.47777-1.448777.474222-2.236654.019402C16.55798 52.999858 8.83893 48.56265 1.107078 44.147347c-.79795-.455655-1.113185-1.026475-1.107099-1.93069.029802-4.415094.013642-8.830605.013642-13.246116h.028123z" fill="#17454E" mask="url(#b)"/>
    </g>
    <path d="M32.312716 32.56221c.075975.184431.08353.278107.130543.305647 2.525865 1.480252 5.04921 2.964885 7.594383 4.411338.211136.119964.627111.071561.856716-.058209 2.428901-1.372597 4.840803-2.775446 7.252074-4.178295.13705-.079698.230445-.233251.335593-.34341-.06905-.107237-.092136-.188395-.145025-.219273-2.49942-1.458763-4.992543-2.928792-7.516728-4.344158-.251852-.141454-.74842-.049446-1.03742.106402-1.380778.745655-2.730914 1.547223-4.088185 2.335648-1.135852.659698-2.266037 1.328993-3.381951 1.98431m-.167691 14.763503c.465296.32213.72953.532223 1.01832.70059 2.141371 1.248043 4.30121 2.465626 6.424322 3.743712.630259.379295 1.112975.335273 1.722247-.028583 2.03769-1.216748 4.108543-2.378834 6.161975-3.570338.37274-.216352.722395-.472554 1.270383-.834115-2.798914-1.617115-5.384593-3.121986-7.98958-4.593266-.194346-.10995-.576951-.065302-.787248.054453-2.542864 1.450626-5.069987 2.929-7.82042 4.527547m-8.636629.017108c4.226914-2.454151 8.276901-4.805446 12.591124-7.310295-4.309815-2.505058-8.357075-4.857396-12.578321-7.31113.718827-.44856 1.25758-.806158 1.815851-1.130165 4.678149-2.715986 9.363642-5.419662 14.036544-8.14441.674543-.393482 1.2389-.577914 2.016284-.119547 5.080481 2.995971 10.191605 5.940201 15.291185 8.904043.177975.103274.34105.231583.694901.47485-4.179901 2.430783-8.248778 4.7971-12.599938 7.327402 4.304358 2.506935 8.374074 4.877216 12.602876 7.34013-1.19021.702259-2.223432 1.321899-3.265889 1.925683-4.257975 2.46646-8.526444 4.915604-12.770568 7.405432-.654185.383885-1.159987.399532-1.81795.015439-5.03347-2.937763-10.086457-5.84277-15.13105-8.761964-.23674-.136864-.451024-.311907-.885049-.615468" fill="#00BBB2"/>
  </g>
</svg>
