<svg width="80" height="80" viewBox="0 0 80 80" xmlns="http://www.w3.org/2000/svg">
  <title>
    key-selfkey
  </title>
  <defs>
    <linearGradient x1="50%" y1="0%" x2="50%" y2="100%" id="a">
      <stop stop-color="#00AFE7" offset="0%"/>
      <stop stop-color="#0ABFD0" offset="100%"/>
    </linearGradient>
  </defs>
  <g fill="none" fill-rule="evenodd">
    <circle fill="#FFF" cx="40" cy="40" r="40"/>
    <path d="M46.819536 24.593272c-1.687191.013931-3.374864.003778-5.062055.003778h-1.367934v3.629974c.230762.016057.464417.0451.698073.045808 1.325977.005195 2.651954-.009917 3.97745.008265 1.072549.014876 1.841273.7327 1.867315 1.69775.026766 1.003538-.736413 1.78677-1.813061 1.804952-1.345509.022904-2.691741.006847-4.037491.007792h-.721222v13.341624c2.442653.791024 4.200013 2.345681 4.95234 4.8354.446092 1.475083.372307 2.95843-.200861 4.399746-1.170448 2.943554-4.114894 4.698683-7.364853 4.402108-3.026672-.276032-5.602188-2.593614-6.1932-5.609187-.498175-2.541666.430901-6.37825 5.021305-8.025234v-.778273c0-6.924412-.000723-13.848588.001447-20.773.000241-.294213.002411-.591733.046297-.881696.144196-.958202.883985-1.583701 1.862252-1.584646 2.771555-.00307 5.543352-.006611 8.315149.000945 1.037344.002833 1.800763.69681 1.844408 1.640843.048467 1.043444-.711577 1.823842-1.825359 1.833051m19.520487-.066967c-1.744588-.97308-3.491346-1.942856-5.237381-2.914283C54.259806 17.804469 47.4148 14.00093 40.580404 10.1785c-.447058-.249823-.771621-.230697-1.20373.015348-2.13522 1.214875-4.288768 2.398109-6.436046 3.592441-6.49416 3.612748-12.98856 7.22526-19.481995 10.83966-.17048.094924-.328422.211807-.458633.296813V55.00491c.177232.110508.325045.211334.480817.29823 1.605696.89445 3.21308 1.78583 4.819258 2.679572 6.895161 3.836597 13.78767 7.678152 20.687413 11.507193 1.233148.684533.793564.671074 1.978003.013931 8.454078-4.692086 16.901163-9.396686 25.349213-14.099398.240408-.133884.468036-.289256.685296-.42432V24.927957c-.221359-.135065-.435725-.276505-.659977-.401653M34.744196 51.888796c-.0258 2.083817 1.664525 3.765747 3.797325 3.77897 2.14124.013223 3.829396-1.629273 3.834219-3.730564.004822-2.093262-1.69129-3.764566-3.81517-3.758899-2.099524.005431-3.791296 1.650289-3.816374 3.710493" fill="url(#a)"/>
  </g>
</svg>
