<svg width="80" height="80" viewBox="0 0 80 80" xmlns="http://www.w3.org/2000/svg">
  <title>
    kick-kickcoin
  </title>
  <defs>
    <linearGradient x1="0%" y1="50%" y2="50%" id="a">
      <stop stop-color="#05BDE4" offset="0%"/>
      <stop stop-color="#5C4098" offset="100%"/>
    </linearGradient>
  </defs>
  <g fill="none" fill-rule="evenodd">
    <circle fill="#FFF" cx="40" cy="40" r="40"/>
    <path d="M25.143255 31.516893L7.69891 21.6056c-.849174 1.734756-1.540254 3.570612-2.052456 5.49158C2.13481 40.267287 7.90687 54.154042 19.719378 60.954633c4.11486 2.36897 8.60528 3.67229 13.11719 3.95702l-.058755-21.022833-8.337983 4.813733c-.366222.213634-.782405.326672-1.206383.32766-1.076923-.01036-2.015703-.735314-2.298047-1.774618-.282344-1.039304.160572-2.139618 1.084217-2.693467l11.48838-6.657877c.164278-.15752.352188-.29298.559984-.40053.33845-.17517.70688-.26453 1.07532-.26945.01126-.00012.02254-.000206.03382-.000214.00375.000003.0075.000014.011248.000034.019205.00006.038354.000357.057448.00088.434476-.01196.871577.09352 1.261984.316654.208966.119434.39568.2675.556327.43767l11.0429 7.0273c.93875.56204 1.379892 1.686835 1.073533 2.737208-.30636 1.050374-1.283023 1.76164-2.376728 1.73088v-.037233c-.459317-.000285-.90895-.13207-1.295744-.37979l-7.90426-5.024926.058097 20.786465c6.78423-.660988 13.328037-3.61712 18.403568-8.705217 8.60208-8.62337 11.162604-21.57937 6.48762-32.82672-.197584-.47536-.40645-.94371-.626205-1.40479l-16.98594 9.675914 7.93516 4.273154c.971475.51807 1.467185 1.629598 1.20347 2.69853-.263718 1.06893-1.21953 1.82235-2.32049 1.82913-.41253-.001632-.81771-.10934-1.176598-.312766l-12.08617-6.48617c-.75691-.409714-1.23774-1.192113-1.26137-2.052473-.001683-.06131-.00103-.122354.00191-.18302-.001873-.038997-.00282-.078237-.00282-.1177V17.29154c.00819-1.326714 1.086026-2.397898 2.412766-2.397873.641192-.00396 1.25759.24747 1.713082.69877.455492.4513.71261 1.065347.714576 1.70655V27.65767l17.43882-9.933903c-5.554356-8.03196-14.7763-12.99499-24.80527-12.982767-9.974844.01215-19.033604 4.926185-24.551314 12.72279l17.396473 9.90746V17.306383c-.000005-1.32963 1.075696-2.408662 2.40532-2.412766 1.32674-.000025 2.404577 1.071158 2.412767 2.397872v12.87777c.26564.42337.398103.92725.36222 1.44494-.063102.91033-.635895 1.70656-1.47892 2.05582L19.20564 40.1562c-.347877.197362-.739478.30486-1.139362.312766h-.007447c-1.10651.006892-2.07497-.74202-2.34666-1.81468-.27169-1.072662.22349-2.192297 1.19986-2.71298l8.23123-4.424413zm9.564778 38.27942c-17.44866-.095168-32.14505-13.064025-34.410146-30.3653C-1.96721 22.129735 8.895302 5.814685 25.731394 1.230927c16.83609-4.58376 34.47012 3.972883 41.28834 20.034535 4.531495 10.810158 3.350783 23.171027-3.14527 32.927832-6.496054 9.756806-17.44492 15.614065-29.16643 15.60302z" transform="translate(5 5)" fill-rule="nonzero" fill="url(#a)"/>
  </g>
</svg>
