<svg width="80" height="80" viewBox="0 0 80 80" xmlns="http://www.w3.org/2000/svg">
  <title>
    kin-kin
  </title>
  <g fill="none" fill-rule="evenodd">
    <circle fill="#FFF" cx="40" cy="40" r="40"/>
    <g fill-rule="nonzero">
      <path d="M53.705652 31.24979h-4.121836v-4.129393c0-1.464698 1.185604-2.651797 2.647623-2.651797h1.47421c1.46202 0 2.64762 1.1871 2.64762 2.651797v1.476916c0 1.4647-1.18561 2.652476-2.64762 2.652476zm-23.463145 0h-4.12225c-1.462164 0-2.64721-1.187778-2.64721-2.652477v-1.476916c0-1.464698 1.185046-2.651797 2.64721-2.651797h1.474362c1.46216 0 2.64788 1.1871 2.64788 2.651797v4.129392zm-2.647623 25.18727H26.12067c-1.462018 0-2.647622-1.187777-2.647622-2.652476v-1.476916c0-1.464698 1.185604-2.651796 2.647622-2.651796h4.121836v4.128712c0 1.4647-1.185603 2.652476-2.647622 2.652476m26.110768 0H52.23144c-1.46202 0-2.647624-1.187777-2.647624-2.652476v-4.128712h4.121837c1.462018 0 2.647622 1.187098 2.647622 2.651796v1.476916c0 1.4647-1.185604 2.652476-2.647622 2.652476" fill="#005FFF"/>
      <path d="M41.1338 24.4686h-1.474213c-1.462018 0-2.647622-1.187777-2.647622-2.652475V20.33921c0-1.4647 1.185604-2.651798 2.647622-2.651798H41.1338c1.46202 0 2.647624 1.187098 2.647624 2.651797v1.47691c0 1.4647-1.185604 2.65247-2.647623 2.65247m0 38.74965h-1.47421c-1.46201 0-2.64762-1.18778-2.64762-2.65248v-1.47691c0-1.4647 1.18561-2.6518 2.64762-2.6518h1.47421c1.46202 0 2.64763 1.1871 2.64763 2.651797v1.47692c0 1.4647-1.1856 2.65248-2.64762 2.65248m19.3413-19.37483H59.0009c-1.462018 0-2.647622-1.187776-2.647622-2.652474V39.71403c0-1.4647 1.185604-2.651797 2.647622-2.651797h1.474214c1.46202 0 2.647624 1.187098 2.647624 2.651797v1.476916c0 1.464697-1.185603 2.652474-2.647622 2.652474m-38.682622.000002H20.31828c-1.46202 0-2.647623-1.187777-2.647623-2.652475V39.71403c0-1.4647 1.185604-2.651797 2.647622-2.651797h1.47421c1.46202 0 2.64762 1.187098 2.64762 2.651797v1.476916c0 1.464697-1.18561 2.652474-2.64762 2.652474" fill="#0CE"/>
      <path d="M47.797275 65.897004c-.408513-.988392.060146-2.121136 1.046294-2.530928.98674-.409195 2.11819.060246 2.5267 1.048638.40851.988392-.05955 2.121136-1.0463 2.53033-.986747.409793-2.118197-.059648-2.52671-1.04804m-20.30837-49.4058c-.408515-.988393.060143-2.121137 1.046292-2.53093.986743-.409194 2.118194.060247 2.526707 1.04864.40852.98839-.05955 2.121135-1.04629 2.53033-.98674.409792-2.11819-.05965-2.526705-1.04804m37.34089 15.57948c-.986684.40922-2.117468-.06025-2.52655-1.048106-.408488-.988454.06014-2.121865 1.046823-2.531086.98668-.40922 2.117463.059653 2.525952 1.048107.40908.98845-.05955 2.12186-1.04623 2.53108M16.47651 52.41425c-.98668.40922-2.117466-.06025-2.52655-1.04811-.408487-.988453.060143-2.121864 1.046825-2.531085.98668-.40922 2.117462.059654 2.52595 1.048107.409083.988454-.059547 2.121864-1.04623 2.531085" fill="#005FFF"/>
      <path d="M63.349808 52.41425c-.986682-.409222-1.455312-1.542632-1.046228-2.531086.408487-.988453 1.53927-1.457327 2.525954-1.048107.986682.40922 1.45531 1.542632 1.046824 2.531086-.409083.987857-1.539867 1.457327-2.52655 1.048106M14.996533 32.07068c-.986682-.40922-1.455312-1.542632-1.046228-2.531085.408487-.988456 1.539272-1.45733 2.525954-1.04811.98668.40922 1.45531 1.542633 1.04682 2.531087-.40909.987857-1.53987 1.457327-2.52655 1.048106M51.37035 16.4912c-.408513.988393-1.539963 1.457834-2.526707 1.04804-.986745-.409193-1.454808-1.541937-1.046295-2.53033.408514-.98839 1.539964-1.457832 2.526708-1.048637.986147.409792 1.454805 1.542536 1.046292 2.530928M31.06198 65.897c-.408512.988394-1.539962 1.457836-2.526706 1.048044-.986744-.409196-1.454807-1.54194-1.046294-2.530332.408515-.988392 1.539965-1.457833 2.52671-1.048638.986147.409792 1.454806 1.542536 1.046293 2.530928" fill="#002DAE"/>
      <path d="M60.50487 62.934425c-.377777-.37843-.377777-.991405 0-1.369836.377776-.37844.98969-.37844 1.367466 0 .377776.37843.377776.9914 0 1.36983-.377777.37843-.98969.37843-1.367467 0M16.98692 19.34107c-.377777-.37843-.377777-.991404 0-1.369835.377776-.37843.98969-.37843 1.367466 0 .377777.37843.377777.991405 0 1.369836-.377776.37844-.98969.37844-1.367466 0m44.885414 0c-.377777.37844-.98969.37844-1.367467 0-.377778-.37843-.377778-.9914 0-1.36983.377775-.37843.98969-.37843 1.367465 0 .377776.37843.377776.99141 0 1.36984M18.354388 62.93443c-.377776.37843-.98969.37843-1.367466 0-.377777-.37843-.377777-.991405 0-1.369836.377776-.378432.98969-.378432 1.367466 0 .377777.37843.377777.991404 0 1.369835" fill="#0099C0"/>
      <path d="M70.859257 40.9372c-.534043 0-.967065-.433772-.967065-.96874 0-.53497.433022-.968742.967065-.968742.534043 0 .967066.433773.967066.968742 0 .534968-.433023.96874-.967066.96874m-61.89219 0C8.43302 40.9372 8 40.50343 8 39.96846c0-.53497.433022-.968742.967066-.968742.534043 0 .967065.433773.967065.96874 0 .53497-.43302.968743-.96706.968743M40.88023 8.96874c0 .53497-.433023.968744-.967066.968744-.534044 0-.967066-.433772-.967066-.96874 0-.53497.433022-.968742.967066-.968742.534043 0 .967065.433774.967065.96874m0 61.99944c0 .53497-.43303.96874-.96707.96874s-.96707-.43377-.96707-.96874c0-.53497.43302-.96874.96706-.96874.534045 0 .967067.43377.967067.96874" fill="#0029C0"/>
      <path d="M47.810416 36.739322c.97912 0 1.7734-.79563 1.7734-1.776414v-4.68186h-4.673272c-.979765 0-1.774046.79563-1.774046 1.77706v1.452077c0 1.783535-1.44315 3.229137-3.22366 3.229137-1.779863 0-3.223013-1.445602-3.223013-3.229137v-1.516167c0-.945824-.765845-1.71297-1.710064-1.71297h-4.73725v19.374824h4.70171c.96361 0 1.74561-.783332 1.74561-1.748577v-1.48056c0-1.783536 1.44315-3.229138 3.22302-3.229138h3.22366l-3.22366.006474c1.78051 0 3.22366 1.44561 3.22366 3.22914v1.45985c0 .97366.78782 1.76282 1.75983 1.76282h4.68749v-4.69546c0-.97366-.78782-1.76282-1.75983-1.76282h-1.46383c-1.78051 0-3.22366-1.4456-3.22366-3.22913v-3.22914l.00646 3.22914c0-1.783534 1.44315-3.229136 3.22366-3.229136h1.4438z" fill="#003EC5"/>
    </g>
  </g>
</svg>
