<svg width="80" height="80" xmlns="http://www.w3.org/2000/svg">
  <g fill="none" fill-rule="evenodd">
    <circle fill="#FFF" cx="40" cy="40" r="40"/>
    <g fill-rule="nonzero">
      <path d="M18.326037 60.044791l1.51985 1.52136C26.55283 64.377334 33.259773 67.221851 40 70V57.762751l-12.55517-5.192625-5.187094-12.567888L27.44483 27.43435l-9.118794-7.540733L10 39.969204l8.326037 20.075587z" fill="#598282"/>
      <path d="M40 10c-6.715753 2.792512-13.46453 5.651433-20.180583 8.477452l-1.521545 1.529226 9.13077 7.546514L40 22.33372V10z" fill="#FBBB31"/>
      <path fill="#598282" d="M40 27.553192l-8.811127 3.7156-3.635682 8.890632 3.635682 8.924068L40 52.765957V27.553493z"/>
      <path d="M40.032982 70c6.707011-2.778149 13.414022-5.622366 20.121033-8.433849l1.519864-1.52136L70 39.969204l-8.32612-20.075587-9.118885 7.507699 5.187147 12.567888-5.187147 12.567888L40 57.729717V70h.032982z" fill="#326464"/>
      <path d="M61.702128 20.025643l-1.521824-1.565392C53.43152 15.662951 46.704752 12.842867 40 10v12.323828l12.571184 5.229364 9.130643-7.52755h.0003z" fill="#FAAA00"/>
      <path fill="#326464" d="M40 52.765957l8.812018-3.682208 3.63479-8.924174-3.63479-8.890739L40 27.553192z"/>
    </g>
  </g>
</svg>
