<svg width="80" height="80" viewBox="0 0 80 80" xmlns="http://www.w3.org/2000/svg">
  <title>
    kore-korecoin
  </title>
  <g fill="none" fill-rule="evenodd">
    <circle fill="#FFF" cx="40" cy="40" r="39"/>
    <path d="M23.373847 24.168453c-2.812695 1.63769-6.275228 9.656808-6.364832 14.523175-.085763 4.658642 1.363466 11.123458 2.78176 12.013002 1.19386-8.841696 2.380893-17.6337 3.583072-26.536178m39.63886 16.2466c-.0128-3.66865-.6908-6.82524-2.051705-9.824438-1.46907-3.237206-3.6219-5.960648-6.326003-8.261178-.3725-.316917-.60653-.275756-.91908.077843-.77593.87696-1.58065 1.72918-2.38537 2.58033-.53826.56921-.5404.62168.04736 1.10942 2.00541 1.66499 3.6635 3.61149 4.79506 5.97557 2.57738 5.38503 2.5394 10.76196-.1135 16.10285-.97263 1.9578-2.29129 3.67547-3.9641 5.09477-.49816.4227-.51373.74921-.13313 1.27428.68717.94712 1.30927 1.94394 1.91922 2.94375.26817.44018.51714.48049.86915.13926.90307-.8759 1.87719-1.69037 2.69706-2.63814 3.70489-4.28393 5.47413-9.30705 5.56501-14.57436M61.31982 14.1802c-.880036.96248-1.692014 1.8275-2.463457 2.72728-.08235.09597.004055.46322.12886.587556.515007.512915 1.097643.95779 1.614996 1.468785 2.4082 2.37858 4.38566 5.07025 5.88076 8.11445 2.16414 4.40591 3.16578 9.046 2.98764 13.96142-.11051 3.04591-.63747 5.9952-1.65105 8.86238-1.07482 3.03994-2.61109 5.82501-4.61842 8.35203-1.48742 1.87229-3.20312 3.5119-5.06281 5.00478-.26263.21071-.31532.37813-.12758.66348.55639.84583 1.10063 1.69976 1.63569 2.55901.19435.31244.38871.37067.67928.12263.83651-.71445 1.71164-1.38646 2.51679-2.13418 2.37001-2.20114 4.37094-4.70193 6.01175-7.49405 2.9247-4.97662 4.44348-10.35825 4.61372-16.11394.09344-3.1568-.27244-6.27479-1.07567-9.3352-.8811-3.35749-2.24627-6.50171-4.11323-9.43266-1.28432-2.01624-2.76939-3.87168-4.42087-5.5902-.77016-.80168-1.639747-1.50823-2.53642-2.32356M31.7859 42.01862c-.08555.315424-.13014.428244-.145712.54533-.62957 4.66035-1.25402 9.321335-1.884444 13.981684-.48066 3.552844-.98009 7.102916-1.44027 10.65832-.066348.513337-.26817.6381-.745415.631914-1.759-.023035-3.51843-.012585-5.27764-.010026-.19649.000214-.39277.030498-.68078.054384 3.7691 2.80299 11.98809 6.50747 22.01514 5.40679 5.35466-.587557 10.28711-2.349157 14.74595-5.43217-.36524-.098317-.71256-.09853-1.05988-.098317-2.8255.00192-5.651-.00128-8.47649.01066-.50029.00192-.8555-.12071-1.13605-.59609-.75736-1.2841-1.57233-2.53428-2.3698-3.79427-4.0633-6.42152-8.12789-12.84219-12.19354-19.26222-.41346-.6526-.83694-1.29881-1.35109-2.09601m-6.6379-31.84635l-.25665-.12754C13.96378 16.12182 7.49057 25.25079 6.61864 37.89315 5.875357 48.676443 9.85076 57.701763 17.834 65.15508c.08406-.297723.14934-.452343.16961-.61272.15574-1.232908.27841-2.470293.46487-3.69808.067204-.44232-.05568-.749-.33964-1.05227-2.902937-3.099007-4.96467-6.69877-6.240452-10.733175-1.76881-5.593187-1.8949-11.24097-.35692-16.910506 1.84157-6.78792 5.60385-12.27405 11.36855-16.29822 1.24485-.86886 1.93928-1.76331 1.94674-3.26771.00406-.80381.19478-1.60677.30124-2.41015m23.53093 39.0702c.11243-.06399.16598-.08147.20182-.11688 3.37229-3.33787 4.58642-7.3486 3.60249-11.97312-.63768-2.9975-2.33054-5.36563-4.71143-7.26863-.38614-.3086-.62423-.31415-.9675.06462-1.91858 2.11626-3.85401 4.2176-5.80139 6.30785-.295265.3167-.328333.53488-.085123.91193 2.12723 3.29542 4.228858 6.60727 6.34222 9.91166.46466.72618.94553 1.44213 1.418937 2.16255M33.635584 29.324c.221236-.206654.314467-.283005.395536-.37066 3.24983-3.52128 6.49646-7.04533 9.748213-10.564692 2.578447-2.79062 5.158813-5.57975 7.755393-8.353523.16918-.18064.4766-.276823.73496-.319264.43884-.07145.88963-.06846 1.33552-.09704-4.32828-2.08598-8.87416-3.05081-13.62442-3.05721-4.52412-.00576-12.4807 1.78101-13.552527 3.04569.19649.00917.37143.0241.54616.0241 2.86176-.00085 5.72395.00981 8.5855-.01727.56962-.00554.70168.17339.62018.71403-.26711 1.77269-.4973 3.55093-.73902 5.32724-.55064 4.04528-1.10127 8.09057-1.64743 12.13627-.06101.45256-.09472.90896-.15809 1.53234M64.54322 8.37484c1.197486 1.05632 2.455135 2.052923 3.582218 3.179836 4.732556 4.73222 8.139194 10.275927 10.112817 16.69105 1.254235 4.0777 1.83751 8.244545 1.75388 12.501175-.110297 5.61472-1.331464 10.97822-3.696995 16.08259-1.74044 3.75545-4.00058 7.16647-6.811143 10.19105-1.326344 1.42698-2.83275 2.68676-4.25723 4.02268-.141232.13244-.282038.26552-.422843.39839-1.094442.75732-2.173524 1.53767-3.286313 2.26705-2.38665 1.56454-4.93629 2.80982-7.60861 3.80983-3.80729 1.42507-7.75006 2.23421-11.80013 2.43063-4.99646.24227-9.8935-.37557-14.6587-1.95802-4.81341-1.59866-9.17347-4.01286-13.06653-7.25092-3.66755-3.05082-6.69764-6.6525-9.07064-10.796953C2.53017 55.08304.81149 49.880347.23141 44.29953c-.694428-6.68384.165125-13.143753 2.69941-19.37184 1.757507-4.318905 4.200055-8.206794 7.326575-11.673478 3.468507-3.8463 7.512823-6.9291 12.157482-9.20745C26.518502 2.03393 30.85275.78716 35.401617.264225c4.76541-.547887 9.467672-.23822 14.124918.877814 5.3489 1.28153 10.177672 3.65713 14.584242 6.92206.142725.10578.288224.20729.432443.31073" fill="#DF311A"/>
  </g>
</svg>
