<svg width="80" height="80" viewBox="0 0 80 80" xmlns="http://www.w3.org/2000/svg" xmlns:xlink="http://www.w3.org/1999/xlink">
  <title>
    krm-karma
  </title>
  <defs>
    <path id="a" d="M0 0h40.985068v39.998024H0z"/>
  </defs>
  <g fill="none" fill-rule="evenodd">
    <circle fill="#A80000" cx="40" cy="40" r="40"/>
    <g transform="translate(20 20)">
      <mask id="b" fill="#fff">
        <use xlink:href="#a"/>
      </mask>
      <path d="M26.619832 17.35769c4.793535 7.544326 9.565786 15.054939 14.365261 22.60849H24.858234c-2.606429-4.178531-5.230841-8.385878-7.883137-12.638041-.110708.122286-.20962.224-.300034.332735-.977895 1.176326-1.950429 2.357142-2.935254 3.527836-.168867.200735-.244432.4-.243607.662368.008167 2.543836.00495 5.087673.00495 7.63151v.441224c-.303665.081225-12.97151.104082-13.50121.02645V-.000025h13.482566v14.803428c.037947.020327.04727.029225.056839.029633.012951.000408.030358-.001551.038195-.009715.037535-.038775.075235-.077877.108068-.12049 3.757894-4.89404 7.515292-9.788326 11.287127-14.701224h15.722799A1699948.516374 1699948.516374 0 0 0 26.619832 17.35769" fill="#FFF" mask="url(#b)"/>
    </g>
  </g>
</svg>
