<svg width="80" height="80" xmlns="http://www.w3.org/2000/svg" xmlns:xlink="http://www.w3.org/1999/xlink">
  <defs>
    <path id="a" d="M.000244 0h79.987322v79.999691H.000244z"/>
  </defs>
  <g fill="none" fill-rule="evenodd">
    <mask id="b" fill="#fff">
      <use xlink:href="#a"/>
    </mask>
    <path d="M39.9624 4.226c-19.753-.005-35.812 16.059-35.796 35.808.016 19.78 16.083 35.839 35.808 35.79 19.79-.05 35.768-16.029 35.779-35.782.01-19.758-16.031-35.81-35.791-35.816m40.025 35.795c.011 22.159-18.097 40.107-40.304 39.978-21.872-.126-39.744-18.098-39.683-40.035C.0624 17.804 17.9804-.07 40.0634 0c22.114.07 39.987 17.986 39.924 40.021" fill="#FFF" mask="url(#b)"/>
    <path d="M35.8662 64.7509h2.583v-19.684h-19.189v2.581h6.224c-2.132 5.718-4.249 11.396-6.375 17.098.117.019.168.034.219.034 2.256.001 4.513-.002 6.769.007.246.001.309-.119.379-.315.38-1.059.773-2.114 1.166-3.167.898-2.411 1.798-4.821 2.698-7.231.768-2.058 1.533-4.118 2.309-6.174.038-.101.166-.24.255-.241.975-.017 1.952-.011 2.962-.011v17.103zm24.45-19.69h-19.284v19.697h2.601v-17.111c1.023 0 2.003-.007 2.981.01.108.002.273.118.311.22.66 1.741 1.303 3.49 1.953 5.235.701 1.884 1.408 3.766 2.109 5.65.705 1.895 1.413 3.791 2.102 5.694.097.271.235.332.498.331 2.082-.009 4.164-.005 6.246-.005h.655c-2.145-5.754-4.26-11.426-6.393-17.145h6.221v-2.576zm-20.466-35.603l-.108.009c-.043.093-.094.184-.129.28-1.138 3.066-2.268 6.133-3.411 9.196-1.279 3.427-2.573 6.849-3.853 10.276-1.285 3.438-2.567 6.879-3.834 10.324-.11.298-.253.367-.549.366-2.297-.014-4.594-.011-6.891-.012h-1.815v2.586h41.056v-2.586h-2.667c-2.028.001-4.056.003-6.084.005-.185 0-.361.034-.447-.219-.186-.545-.411-1.077-.61-1.618-.8-2.161-1.59-4.325-2.394-6.485-1.004-2.7-2.019-5.396-3.029-8.095-.802-2.145-1.603-4.292-2.405-6.437l-2.646-7.08c-.063-.17-.123-.34-.184-.51zm.112-5.232c19.76.006 35.801 16.058 35.791 35.816-.011 19.753-15.989 35.732-35.779 35.782-19.725.049-35.792-16.01-35.808-35.79-.016-19.749 16.043-35.813 35.796-35.808z" fill="#000"/>
    <path d="M43.9424 39.8837c-1.374-3.681-2.735-7.33-4.097-10.979-.036 0-.073.001-.11.002-1.361 3.651-2.723 7.302-4.093 10.977h8.3zm-4.092-30.426c.061.17.121.341.184.51l2.646 7.08c.802 2.146 1.602 4.292 2.405 6.438 1.009 2.698 2.024 5.394 3.029 8.094.804 2.16 1.594 4.325 2.393 6.486.2.541.425 1.072.611 1.617.086.253.262.22.447.22 2.028-.002 4.056-.004 6.084-.005.883-.001 1.766 0 2.667 0v2.586h-41.056v-2.586h1.815c2.297.001 4.594-.003 6.89.011.297.001.44-.068.55-.366 1.267-3.445 2.549-6.886 3.834-10.324 1.28-3.427 2.574-6.849 3.853-10.275 1.143-3.064 2.273-6.131 3.41-9.197.036-.096.086-.187.13-.28l.108-.009zm20.4655 35.6028v2.576h-6.22c2.132 5.72 4.247 11.392 6.392 17.146h-.654c-2.082 0-4.164-.004-6.247.005-.263.001-.4-.061-.498-.331-.689-1.904-1.397-3.799-2.102-5.695-.701-1.884-1.408-3.765-2.109-5.649-.65-1.745-1.292-3.494-1.953-5.236-.038-.101-.203-.217-.311-.219-.978-.018-1.958-.01-2.981-.01v17.11h-2.601v-19.697h19.284zM35.8662 64.7509v-17.103c-1.01 0-1.987-.006-2.962.011-.089.001-.217.14-.255.241-.776 2.056-1.541 4.116-2.309 6.174-.9 2.41-1.8 4.82-2.698 7.231-.393 1.053-.786 2.108-1.166 3.167-.07.196-.133.316-.379.315-2.256-.009-4.513-.006-6.769-.007-.051 0-.102-.015-.219-.034 2.126-5.702 4.243-11.38 6.375-17.098h-6.224v-2.581h19.189v19.684h-2.583z" fill="#FFF"/>
    <path d="M43.9424 39.8837h-8.3c1.37-3.675 2.732-7.326 4.093-10.977.037-.001.074-.002.11-.002 1.362 3.649 2.723 7.298 4.097 10.979" fill="#000"/>
  </g>
</svg>
