<svg width="80" height="80" xmlns="http://www.w3.org/2000/svg">
  <defs>
    <linearGradient x1="100%" y1="50%" x2="0%" y2="50%" id="a">
      <stop stop-color="#0E8ECD" offset="0%"/>
      <stop stop-color="#00ACCA" offset="100%"/>
    </linearGradient>
  </defs>
  <g fill="none" fill-rule="evenodd">
    <circle fill="url(#a)" cx="40" cy="40" r="40"/>
    <path d="M27.505583 67.857128a93099.571458 93099.571458 0 0 0-4.505486-4.482414c3.565629-3.548517 7.225729-7.190448 10.963786-10.910586-.8687-1.043725-10.1184-10.162552-10.940229-10.984931 1.576629-1.56076 3.0855-3.054656 4.632015-4.585242.563428.327793 14.661042 14.242586 15.5329 15.376345a479790.299335 479790.299335 0 0 0-15.682986 15.586828m24.775703-24.568842c-5.158043-5.127138-10.382629-10.320172-15.6213-15.527448.442485-.680207 14.516543-14.73838 15.542857-15.519724 1.5113 1.507896 3.012886 3.005896 4.605786 4.594896-.415529.711104-10.067158 10.10969-10.850858 10.892483.810658 1.09031 10.081 10.179207 10.906229 11.004724-1.574686 1.565345-3.079914 3.061173-4.582714 4.55507m-22.434172-8.628249a145875.70299 145875.70299 0 0 1 4.483386-4.466241c5.169457 5.137034 10.411286 10.345758 15.584143 15.486413-1.416586 1.399518-2.925457 2.890276-4.462986 4.409518-.613457-.369552-14.466271-14.027035-15.604543-15.42969" fill="#FFF"/>
  </g>
</svg>
