<svg width="80" height="80" viewBox="0 0 80 80" xmlns="http://www.w3.org/2000/svg">
  <title>
    leo-leocoin
  </title>
  <g fill-rule="nonzero" fill="none">
    <g fill="#EDA735">
      <path d="M34.32.395C42.2-.72 50.41.535 57.55 4.052c8.123 3.958 14.806 10.752 18.63 18.92 3.453 7.3 4.565 15.654 3.238 23.608-1.327 8.12-5.27 15.778-11.093 21.604-5.586 5.64-12.905 9.563-20.714 11.052-8.078 1.56-16.643.594-24.13-2.823C15.13 72.65 8.176 65.92 4.136 57.717.343 50.117-.87 41.29.62 32.94c1.393-8 5.337-15.513 11.094-21.244C17.762 5.62 25.82 1.58 34.32.396zm-.015 8.993c-7.068 1.28-13.615 5.13-18.2 10.647-4.44 5.28-7.03 12.07-7.214 18.96-.22 6.466 1.638 12.98 5.272 18.342 4.158 6.22 10.647 10.862 17.91 12.736 7.48 1.973 15.7 1.044 22.517-2.618 6.842-3.623 12.228-9.883 14.756-17.192 2.532-7.196 2.292-15.323-.686-22.35-2.738-6.555-7.814-12.105-14.106-15.422C48.416 9.2 41.148 8.125 34.304 9.39z"/>
      <path d="M27.728 20.03c2.713-.01 5.426-.01 8.14 0 .004 4.038-.01 8.07.004 12.106 3.158.015 6.312-.005 9.47.01.006 1.704.006 3.41 0 5.117-3.157.01-6.316-.004-9.47.01-.01 1.694-.01 3.388 0 5.08 3.148-.003 6.297.006 9.446-.003.045 1.703.025 3.407.03 5.117-3.16.025-6.322 0-9.48.015-.006 1.88-.006 3.762.004 5.64 6.733.01 13.464.012 20.193.005.015 2.27.01 4.537.005 6.81-9.445-.005-18.896.01-28.342-.01V47.48c-1.28 0-2.563-.01-3.844-.01-.005-1.702-.004-3.406.005-5.11 1.275-.004 2.558-.01 3.833-.004.01-1.7.01-3.394 0-5.087-1.28.004-2.558-.005-3.838-.01-.005-1.704-.005-3.403-.005-5.107 1.28-.005 2.563-.015 3.845-.015.013-4.034.003-8.07.003-12.108"/>
    </g>
    <path d="M34.305 9.388c6.843-1.264 14.113-.19 20.25 3.103 6.29 3.32 11.366 8.87 14.105 15.424 2.978 7.025 3.218 15.152.685 22.35-2.528 7.308-7.914 13.57-14.757 17.19-6.817 3.662-15.037 4.592-22.515 2.618-7.263-1.873-13.75-6.517-17.91-12.735-3.635-5.363-5.492-11.876-5.272-18.34.185-6.893 2.775-13.68 7.214-18.962 4.586-5.517 11.133-9.368 18.2-10.647M27.73 20.03c0 4.038.01 8.076-.005 12.106-1.282 0-2.564.01-3.845.015 0 1.704 0 3.403.005 5.107 1.282.005 2.56.015 3.838.01.01 1.694.01 3.39 0 5.086-1.275-.005-2.557 0-3.833.005-.01 1.704-.012 3.407-.005 5.11 1.28 0 2.563.01 3.844.01.005 4.148.005 8.297 0 12.447 9.446.02 18.897.005 28.342.01.006-2.273.01-4.542-.005-6.81-6.732 0-13.463-.002-20.193-.005-.01-1.88-.01-3.762-.005-5.64 3.158-.015 6.322.01 9.48-.015-.004-1.71.016-3.413-.03-5.118-3.148.01-6.297 0-9.445.005-.01-1.694-.01-3.387 0-5.08 3.154-.016 6.312 0 9.47-.01.006-1.71.006-3.416 0-5.118-3.157-.015-6.31.004-9.47-.01-.015-4.038 0-8.07-.005-12.106-2.712-.01-5.424-.008-8.137.002" fill="#231F20"/>
  </g>
</svg>
