<svg width="80" height="80" xmlns="http://www.w3.org/2000/svg" xmlns:xlink="http://www.w3.org/1999/xlink"><defs><path id="a" d="M.08.167h22.197v2.792H.079z"/></defs><g fill="none" fill-rule="evenodd"><circle fill="#006ED6" cx="40" cy="40" r="40"/><path d="M39.906 18.295c-11.942.01-21.63 9.73-21.612 21.683.018 11.952 9.742 21.666 21.667 21.645 11.936-.02 21.624-9.748 21.61-21.7-.012-11.956-9.71-21.638-21.665-21.628m3.668-3.767c.222 0 .449.032.664-.006.584-.102 1.003.238 1.496.439.45.183.983-.165 1.547.08 2.246.971 4.417 2.069 6.439 3.452a33.845 33.845 0 0 1 10.314 11.13c.21.363.42.706.283 1.175-.11.378.116.627.461.824.236.134.473.364.58.607a72.804 72.804 0 0 1 1.266 3.151c.083.22.11.485.084.72-.527 4.687-1.904 9.101-4.278 13.187-.143.246-.43.436-.691.58-.341.187-.5.41-.502.814-.001.294-.067.639-.23.874-4.37 6.308-10.17 10.745-17.498 13.06-4.095 1.295-3.036 1.238-7.135.001-1.525-.46-3.037-1.055-4.435-1.811-.776-.42-1.585-.8-2.332-1.245-7.68-4.578-12.802-11.179-15.323-19.772a23.84 23.84 0 0 1-.604-2.438c-.118-.652-.453-1.331.037-1.99.059-.08.065-.266.012-.352-.312-.508-.056-.951.128-1.404a33.736 33.736 0 0 1 7.575-11.36c.282-.28.553-.511 1.006-.533.21-.01.436-.318.6-.533.198-.26.275-.64.512-.838 3.978-3.325 8.481-5.62 13.523-6.856a36.093 36.093 0 0 1 6.501-.956" fill="#FFF"/><path d="M41.687 65.67c.812-.256 1.63-.497 2.436-.772 7.16-2.451 12.872-6.82 17.218-13.003.199-.283.505-.512.803-.7.329-.206.48-.438.477-.836a1.714 1.714 0 0 1 .213-.825 35.01 35.01 0 0 0 3.837-10.268c.133-.649.232-1.305.495-1.998.085.228.21.448.249.683.346 2.113.77 4.219.969 6.346.088.943-.215 1.951-.47 2.895-2.07 7.659-6.525 13.526-13.282 17.686-1.327.817-2.77.978-4.227 1.158-2.505.31-5.017.284-7.525.003-.4-.045-.795-.14-1.192-.213v-.155M13.024 38.6c.258 1.044.48 2.098.777 3.13 2.485 8.647 7.589 15.31 15.223 20.05.415.257.844.458.98 1.025.094.399.484.399.86.356.274-.03.596-.025.835.09 1.98.954 4.033 1.71 6.151 2.293.112.03.219.082.346.272-.29.063-.577.15-.87.186-3.45.421-6.885.319-10.298-.344a3.441 3.441 0 0 1-1.03-.379C18.99 61.281 14.36 55.423 12.07 47.67c-.563-1.906-.463-3.737-.086-5.61.19-.94.421-1.873.646-2.807.055-.23.157-.45.237-.676l.156.024M13.06 35.613c-.01-1.522-.004-3.044-.033-4.565-.026-1.39.354-2.646.983-3.884 3.152-6.206 7.86-10.78 14.213-13.626.747-.335 1.601-.482 2.422-.586a33.002 33.002 0 0 1 12.748.851c.113.03.224.073.334.24-.716.078-1.431.16-2.148.232-6.731.677-12.702 3.196-17.97 7.416-.4.319-.747.69-1.336.703-.188.005-.397.312-.544.519-.235.328-.368.746-.645 1.025-3.219 3.234-5.738 6.933-7.494 11.149-.081.196-.196.377-.296.566a64.53 64.53 0 0 0-.234-.04M48.021 14.6c1.421.232 2.86.39 4.26.718 1.529.359 3.025.864 4.527 1.334.32.1.628.287.895.496 3.88 3.034 6.796 6.821 8.763 11.334.163.374.259.8.284 1.208.071 1.155.096 2.313.124 3.47a1.7 1.7 0 0 1-.177.784c-.344-1-1.2-1.779-1.094-2.944.02-.213-.19-.474-.348-.67-.237-.295-.59-.511-.775-.83-3.743-6.44-8.989-11.217-15.772-14.301-.256-.117-.5-.26-.75-.392l.063-.207z" fill="#FFF"/><g transform="translate(28.755 65.92)"><mask id="b" fill="#fff"><use xlink:href="#a"/></mask><path d="M.13.55C.907.6 1.685.642 2.461.7 5.18.9 7.872.699 10.551.227c.38-.067.794-.086 1.17-.015 3.32.628 6.656.686 10.007.36.166-.015.333-.024.549.086-.151.087-.294.195-.454.26-2.743 1.085-5.584 1.718-8.53 1.954-4.222.338-8.286-.323-12.245-1.757C.718.995.402.84.079.7L.13.549" fill="#FFF" mask="url(#b)"/></g><path d="M32.102 12.123c4.269-1.217 8.594-1.465 12.974-.644 3.576.671 6.934 1.903 9.998 3.863l-.063.187c-.275-.073-.552-.143-.826-.219-2.238-.624-4.52-.984-6.833-1.179-.344-.03-.673-.226-1.013-.33-.203-.062-.474-.2-.61-.122-.461.264-.855.064-1.277-.057-3.894-1.115-7.856-1.61-11.907-1.283a1.819 1.819 0 0 1-.295-.001c-.044-.004-.086-.036-.129-.055l-.019-.16M12.552 31.346c0 .503-.012.936.002 1.368.033.959.07 1.919.121 2.877.024.44.127.877-.21 1.265-.081.093-.114.31-.062.42.277.582-.013 1.096-.14 1.635-.28 1.172-.543 2.348-.812 3.523l-.11.48c-.934-2.282.243-10.46 1.211-11.568M67.408 31.41c.955 1.38 1.878 8.791 1.178 10.05-.123-.647-.211-1.21-.34-1.765-.27-1.147-.573-2.287-.837-3.435a5.94 5.94 0 0 1-.163-1.224c-.02-1.202-.007-2.405-.007-3.607l.169-.018M38.997 35.27c.001-1.34-1.043-2.377-2.386-2.37-1.32.007-2.403 1.098-2.378 2.4.023 1.276 1.09 2.334 2.371 2.352 1.31.019 2.393-1.06 2.393-2.382m.933 14.335c-5.314-.002-9.643-4.331-9.643-9.644 0-5.35 4.347-9.685 9.696-9.67 5.3.015 9.612 4.364 9.605 9.686-.008 5.312-4.34 9.631-9.658 9.628" fill="#FFF"/></g></svg>