<svg width="80" height="80" xmlns="http://www.w3.org/2000/svg">
  <g fill="none" fill-rule="evenodd">
    <circle fill="#15BB9B" cx="40" cy="40" r="40"/>
    <path d="M24.694324 62.99336c.011571-.3324.033317-.6648.033516-.9972.001596-15.331.001596-30.6618 0-45.9928-.0002-.3324-.021945-.6648-.033715-.9972l.205087-.4218.034314-.0076c1.992818.014 3.985836.025 5.978654.0434.820548.0074.820548.0146.830124.8056.001197.1-.0002.1998-.0002.2998-.000199 13.2596-.000199 26.5194-.000199 39.7792 0 .4332-.004588.8664.003192 1.2994.013167.726.016559.727.705237.745.199302.0052.398803.0008.598304.0008 6.845886.0002 13.69197.0008 20.537856-.0004.498154-.0002.99611-.0134 1.494264-.0206.03172.2278.063242.4554.094963.6832-.0004.2568-.000599.5136-.000798.7704.0002.1434.000598.2868.000997.4304-.029326.328-.078404.6558-.084588.9844-.018753.999-.021147 1.9986-.029926 2.9978l-.201695.045-.59611.0054c-.297257-.0124-.594713-.0354-.89217-.0356-8.980548-.0018-17.961097-.0018-26.941645.0002-.297257 0-.594514.0242-.891771.0374-.133666-.001-.267332-.0022-.401197-.0032-.08778-.0082-.17576-.0162-.263541-.0244l-.178953-.4266" fill="#FAFDFD"/>
    <path d="M46.57614 42.2211c-2.258355.275-4.37646-2.161-4.307232-4.2492.072818-2.1974 2.124688-4.453 4.23601-4.3252 2.42813.147 4.238404 1.7518 4.336957 4.4164.08 2.1608-2.039102 4.3796-4.265735 4.158" fill="#86DECD"/>
  </g>
</svg>
