<svg width="80" height="80" viewBox="0 0 80 80" xmlns="http://www.w3.org/2000/svg">
  <title>
    linda-linda
  </title>
  <g fill="none" fill-rule="evenodd">
    <circle fill="#FFF" cx="40" cy="40" r="40"/>
    <path d="M10.747181 53.092076c-.31135-.723516-.63135-1.376895-.878208-2.056852-.812479-2.239207-1.316571-4.543629-1.635089-6.90982-.264648-1.966781-.289359-3.934055-.150733-5.882133.227335-3.191836.940478-6.305168 2.166115-9.283148 1.498688-3.641203 3.569668-6.928524 6.314997-9.75491 3.718671-3.828481 8.074872-6.670125 13.209946-8.312063 3.598579-1.150488 7.258192-1.764246 11.031969-1.628648 6.532447.23502 12.50051 2.17227 17.836973 5.967035.157158.111972.303444.239941.619243.491203-.640989.11025-1.102085.184078-1.56071.269473-2.983784.555433-5.570472 1.96555-7.935506 3.783199-3.184927 2.447648-5.794595 5.445808-8.143815 8.683172-2.275583 3.135972-4.109344 6.518285-5.738255 10.019214-.119845.257168-.250316.50966-.441328.897504-.670147-.108773-1.354131-.182355-2.019089-.335425-1.331645-.30688-2.573343-.833028-3.703845-1.61216-1.466317-1.010215-2.321792-2.415903-2.657607-4.131669-.514718-2.63025-.456154-5.219402.782332-7.672218 1.489792-2.950172 3.873112-4.96125 6.878147-6.23897 2.718147-1.155655 5.537606-.9701 8.362255-.42082.437869.08515.897483.164637 1.335104.122801.738842-.070628 1.14014-.491695 1.251089-1.15418.09983-.597023-.092664-1.091179-.76454-1.388952-.970379-.430172-1.967445-.89086-3.000587-1.074446-4.61912-.820968-8.68522.440754-12.292448 3.384528-1.83722 1.499203-3.428325 3.181992-4.53288 5.2888-.825576 1.575-1.396634 3.235887-1.486827 5.020067-.078826 1.55162-.149498 3.104719.245375 4.642558.718332 2.79661 2.29881 4.938856 4.746378 6.477926 1.405035.883477 2.91756 1.49945 4.499768 1.970719.270332.080719.527568.204996.861159.336902-1.679074 3.767203-3.667522 7.274285-6.240618 10.481625-1.413436-.394488-2.749282-.771504-4.087351-1.140152-2.637097-.726469-5.32139-1.057957-8.053128-.839672-1.236757.09893-2.429529.411961-3.475521 1.137445-.399815.277102-.818904.527133-1.342765.862067" fill="#F05002"/>
    <path d="M20.226422 64.915994c4.788139.219762 8.794934-1.630125 12.47234-4.28523 1.543413.69989 2.978594 1.41061 4.459737 2.008617 2.403336.969856 4.872896 1.70863 7.474162 1.976133 2.789066.2867 5.162255-.647473 7.345668-2.27809 2.101869-1.569586 3.733745-3.572789 5.303104-5.631363 1.019305-1.337273 1.95163-2.740008 2.972417-4.07605.378317-.495142.495691-1.03261.532757-1.600595.074131-1.127109-.873514-1.81002-1.866873-1.27698-.554996.297773-1.029683.807187-1.435181 1.306266-.959506 1.180511-1.940263 2.321156-3.13353 3.290027-2.189343 1.777781-4.731551 2.634926-7.483304 2.849766-2.883707.225175-5.739985-.173004-8.569081-.732376-.26712-.05291-.517436-.189738-.850286-.31623 3.549158-4.11518 6.055784-8.745187 7.977266-13.773129.696835-.269719 1.424062-.542637 2.145113-.83155 6.130656-2.456508 11.262023-6.243645 15.253003-11.500454 1.420603-1.87105 2.507367-3.941437 3.088556-6.243152.059058-.233297.165807-.454781.287383-.780856.240185.271442.451459.456997.598239.684141 2.31932 3.591738 3.850131 7.472883 4.561297 11.704219.4181 2.485547.56834 4.97946.364232 7.457379-.411923 5.004316-1.886394 9.706676-4.616649 13.973203-4.411058 6.89284-10.586934 11.45025-18.446826 13.740398-3.786378 1.102992-7.678765 1.467457-11.593143 1.097578-6.103722-.57709-11.65739-2.68316-16.576741-6.369644-.088464-.066445-.131954-.1922-.26366-.392027M46.72897 38.62132c.270332-.850254.427737-1.429066.636788-1.988683 1.431474-3.833649 2.800926-7.699043 4.776772-11.297918.783073-1.426852 1.729977-2.778153 2.72556-4.069653.537698-.697921 1.314347-1.223824 2.021065-1.779011.909344-.714164 1.964232-.964934 3.122657-.896766 1.30051.07629 2.267922.887906 2.404077 2.179406.130718 1.23539-.012108 2.434114-.538688 3.595184-.892293 1.967273-2.169575 3.668273-3.605003 5.248934-2.601267 2.863546-5.478549 5.424644-8.755892 7.508074-.811985.516304-1.697112.918422-2.787336 1.500433" fill="#545255"/>
    <path d="M24.803904 56.38417c-1.559969 1.416762-3.02678 2.723028-4.857575 3.513973-.63061.272672-1.325714.446906-2.008958.540422-2.114718.28916-4.346316-1.242774-4.877096-3.28929-.29776-1.148027.386965-2.42919 1.555027-2.870929 1.19302-.451336 2.447815-.375047 3.653683-.194168 2.246425.336656 4.342857 1.172637 6.53492 2.299992" fill="#F05002"/>
  </g>
</svg>
