<svg width="80" height="80" viewBox="0 0 80 80" xmlns="http://www.w3.org/2000/svg">
  <title>
    link-chainlink
  </title>
  <g fill="none" fill-rule="evenodd">
    <circle fill="#FFF" cx="40" cy="40" r="40"/>
    <path fill="#F6F9FA" d="M64.712132 54.424083v-28.62688L40.040074 11.483765l-24.672427 14.31344v28.626879l24.672427 14.31344z"/>
    <path stroke="#1DAFFE" stroke-width="1.470588" d="M64.712132 54.424083v-28.62688L40.040074 11.483765l-24.672427 14.31344v28.626879l24.672427 14.31344z"/>
    <path d="M15.278309 25.921774l24.672059 14.012727M64.62272 25.921774L39.950663 39.934501" stroke="#D4E7F2" stroke-width=".735294"/>
    <path stroke="#1DAFFE" stroke-width="1.470588" d="M64.712132 54.424083v-28.62688L40.040074 11.483765l-24.672427 14.31344v28.626879l24.672427 14.31344z"/>
    <path d="M53.017794 48.77987c-.252941-.039898-.47022.088293-.711765.304038-.364338.325465-.509926.746242-.731985 1.1467-.193015.348-.227941.601797.059559.850052.452941.390484.5.890318.456618 1.433376-.016545.204662-.010295.41228.00147.617681.020956.36056.143383.462153.496324.434446.417647-.033248.6875-.29591.72353-.731834.019484-.233847.002205-.47065.005882-.705975.009558-.607337-.095589-1.225388.319852-1.773248.129412-.171045.138603-.441465.181618-.67014.10478-.56079-.17978-.90251-.801103-.905096zm-2.72022-3.051465c0 .353172-.0125.707083.005514 1.059516.008456.169198.12206.260446.302941.185083.188603-.078319.383824-.145924.559927-.246777 1.177206-.673835 2.344485-1.364663 3.527941-2.026675.269118-.150726.388235-.337287.385294-.627657-.005147-.56005-.035662-1.12084-.010662-1.679413.045956-1.029223-1.169852-1.820905-2.197058-1.180319-1.662133 1.035873-2.633089 2.486242-2.573898 4.516242zm-3.300368 8.267401c0-1.06321.022794-2.127159-.00772-3.18926-.02206-.750676.199632-1.407886.728308-1.90107.492647-.459568.736765-.956816.63897-1.622523-.008455-.058.000736-.118217-.001102-.177325-.114706-3.221032 1.38272-5.648535 3.75-7.633834.65919-.552663 1.44522-.837121 2.29853-.961249.938602-.136318 2.226102.626548 2.460293 1.909936.094853.517937.097794 1.053606.131986 1.582255.015073.235325.004411.472128.004779.70856.000368.304409.114706.476561.447059.539364.650368.123019.748162.249363.753676.93428.01103 1.47623.002941 2.952828.002941 4.429427 0 .767669-.014338 1.535707.00331 2.303376.02794 1.219847-.57353 2.027783-1.591177 2.608522-1.65772.946471-3.299265 1.921758-4.954044 2.87377-1.123162.646497-2.25 1.288192-3.388603 1.906612-.645956.350586-1.255147-.016624-1.269853-.767669-.022794-1.180318-.00625-2.362114-.00625-3.543172h-.001103z" fill="#08A6FE"/>
    <path d="M53.017794 48.77987c.621324.002586.905882.344306.801103.905096-.043015.228675-.052206.499095-.181618.67014-.41544.54786-.310294 1.16591-.319852 1.773248-.003677.235325.013602.472127-.005883.705975-.03603.435923-.305882.698586-.72353.731834-.35294.027707-.475367-.073885-.496323-.434446-.011764-.205401-.018014-.413019-.00147-.617681.043382-.543058-.003677-1.042892-.456618-1.433376-.2875-.248255-.252574-.502051-.059559-.850051.222059-.400459.367647-.821236.731985-1.1467.241544-.215746.458824-.343937.711765-.304039" fill="#07E"/>
    <path fill="#000" fill-rule="nonzero" d="M19.634501 34.928136l-1.798693-2.133038v-.684233l1.798693-.051668v.824006l-1.09323-.012544 1.09323 1.248404v.809372zm2.730404 1.574542l1.798694-.059733v-.683635l-1.798694-2.12587v.824006l1.09323 1.248404-1.09323-.013739v.809372m-2.221496-3.16312l1.592042.918084c.100654.058239.181414.222204.181414.369444v.36795c0 .14724-.080464.218322-.181414.160382l-1.592042-.918085c-.100654-.058239-.181414-.222204-.181414-.369444v-.36825c0-.14694.08551-.215334.181414-.160081"/>
    <path d="M18.086105 36.126663l14.329869 8.269032c.140736.08482.253266.283131.253266.45307v.679752c0 .169938-.11253.226684-.253266.141565l-14.32987-8.269032c-.140736-.08482-.253266-.28313-.253266-.453069v-.679752c0-.169939.11253-.226684.253267-.141566zm0 2.095706l20.10095 11.582379c.140736.08482.253266.28313.253266.453069v.679753c0 .169938-.11253.226683-.253266.141565l-20.10095-11.582678c-.140737-.08482-.253267-.28313-.253267-.453069v-.679454c.000297-.141565.113124-.19831.253267-.141565m0 2.009392l20.10095 11.58238c.140736.084819.253266.28313.253266.453068v.679753c0 .169938-.11253.226684-.253266.141565l-20.10095-11.581184c-.140737-.08482-.253267-.28313-.253267-.45307v-.679752c0-.141565.11253-.226684.253267-.141565m0 2.010587l8.699524 5.01243c.140737.08482.253266.283131.253266.45307v.679752c0 .169938-.11253.226684-.253266.141565l-8.699524-5.013326c-.140737-.08482-.253267-.28313-.253267-.453069v-.678857c.000297-.169938.113124-.226684.253267-.141565m0 1.982214l17.06057 9.825953c.140736.08482.253266.28313.253266.453069v.679752c0 .169939-.11253.226684-.253266.141566l-17.06057-9.825953c-.140737-.08482-.253267-.28313-.253267-.453069v-.679753c0-.141565.11253-.19831.253267-.141565m0 2.010587l3.125 1.784202c.140736.08482.253266.28313.253266.453069v.679753c0 .169938-.11253.226684-.253266.141565l-3.125-1.784202c-.140737-.08482-.253267-.28313-.253267-.453069v-.679753c.000297-.141565.113124-.226385.253267-.141565" fill="#6F9DCE" fill-rule="nonzero"/>
    <path fill="#000" fill-rule="nonzero" d="M19.800178 53.466632l-1.964667-2.324778v-.750237l1.964667-.059732v.897477l-1.193883-.019115 1.193883 1.36518v.89001m2.196556 1.267817l1.964667-.059732v-.750237l-1.964667-2.324778v.897477l1.193884 1.358012-1.193884-.011648v.89001m14.116093-32.916642c-.516191-.186264-1.012614-.423882-1.481889-.70932-1.32215-.810567-1.516627-1.526458-.585807-2.116612l2.500297-1.584696c1.0095-.640629 2.18943-.548342 3.51158.262224.414581.250652.796996.551565 1.138657.895984l-.585214.370937c-.316946-.351182-.683254-.653843-1.087292-.898373a3.65539 3.65539 0 0 0-.534442-.26103c-.170724-.071679-.341745-.143059-.541567-.166354-.197447-.054655-.399941-.046293-.605107-.006272-.222183.041632-.434478.125348-.625594.246694l-2.447447 1.551246c-.611639.38826-.447446.853275.465856 1.413265.460297.275788.950283.498027 1.46051.66243l-.582541.339877zm3.862826 2.467538l-.6731-.41275 2.820665-1.78689c.106295-.067497.186164-.119464.215262-.166353.029097-.04689.084917-.11379.089073-.176808.03177-.080041.012768-.157992-.08076-.248486-.105395-.110591-.22526-.206243-.356294-.284325-.408848-.250577-.726247-.379001-.926366-.401998-.247645-.005482-.49106.06516-.697744.202492l-2.820665 1.78689-.647268-.398414 5.665677-3.590804.64905.397817-2.235155 1.416251c.444577-.19174 1.01544-.073968 1.71259.353317.45665.279845.687054.553717.668943.775025-.018112.221308-.187649.447992-.586699.701555l-2.845309 1.803615.0481.029866zm3.918943 2.401535l-.625-.383182.372328-.235943c-.340558.155901-.861045.036138-1.510095-.361678-.4808-.29468-.737629-.551528-.770487-.770546-.03266-.218919.216746-.497271.722387-.817436.425475-.268795.840855-.413048 1.168943-.410958.328088.002091.744359.157693 1.24911.467106l1.0576.648693.61164-.38826c.212885-.134995.300177-.280144.233372-.38826-.04038-.124243-.230107-.273872-.566805-.479948-.418562-.25633-.856001-.480083-1.308492-.6693l.532067-.337188c.534442.26103.993765.509914 1.377969.746653.60095.368348.90578.654665.91449.85895.00861.204284-.214371.465612-.719716.785777m-2.590855.831771l1.063836-.674377-1.0095-.618826c-.31265-.191441-.534443-.26103-.709918-.268795-.152019.006272-.412708.1117-.705463.298661-.26722.168445-.43082.333008-.464964.444707-.034145.1117.10481.26312.345308.410659l.432601.265211c.0962.059732.218825.100948.341746.143059a1.139681 1.139681 0 0 0 .372922.060927c.126188.010752.227435.006272.33373-.060927m6.228028-.890907l-.647863-.398115.771972-.488908.647862.39931-.771971.487713zm-4.572447 2.899702l-.64905-.397817 3.910036-2.478887.64905.397816-3.910036 2.478888zm4.18171 2.564006l-.648456-.397817 2.820665-1.78689c.106295-.067497.186164-.119464.215262-.166354.029097-.04689.084916-.11379.089073-.176807.03177-.080041.012767-.157992-.08076-.248486-.105395-.110591-.22526-.206244-.356294-.284326-.385986-.235643-.702197-.364068-.902316-.38826-.200119-.02419-.458433.050773-.697744.202493l-2.820665 1.78689-.64905-.397817 3.910036-2.478888.64905.397817-.47892.30344c.444577-.19174 1.01544-.073969 1.71259.353316.45665.279846.687054.553718.668943.775026-.018112.221308-.187649.447992-.586699.701555l-2.8462 1.803913.001485.001195zm-20.482185-4.462894l-3.028503-1.856776 5.239905-3.321113.69715.427385-4.708433 2.983923 2.331948 1.429393m5.413598-1.722678l-.64905-.397817.771972-.488908.64905.397817-.771972.488908zm-4.575119 2.900896l-.64905-.399011 3.910036-2.478888.64905.399011-3.910036 2.478888zm4.181711 2.562812l-.64905-.397817 2.820665-1.78689c.106294-.067497.186164-.119464.215261-.166354.029098-.04689.084917-.11379.089074-.176808.03177-.08004.012767-.157991-.08076-.248486-.105396-.11059-.22526-.206243-.356295-.284325-.385986-.235644-.702197-.364068-.902316-.38826-.200119-.024191-.458432.050773-.697743.202493l-2.820665 1.78689-.646675-.39722 3.910036-2.478888.64994.399012-.478919.30344c.444576-.191741 1.01544-.07397 1.71259.353315.45665.279846.687054.553718.668942.775026-.018112.221308-.187648.447992-.586698.701555l-2.847387 1.803316zm4.305225 2.637775l-.817399-.501153.431414-1.892019-.861046.036138.781473-.615242 3.44418-.144253.812352.56417-3.320665.186365-.470309 2.365994zM36.732185 30.3855l-.650237-.397817 5.665677-3.590803.64905.397816-5.66449 3.590804z"/>
  </g>
</svg>
