<svg width="80" height="80" viewBox="0 0 80 80" xmlns="http://www.w3.org/2000/svg">
  <title>
    lmc-lomocoin
  </title>
  <g fill="none" fill-rule="evenodd">
    <circle fill="#F6A403" cx="40" cy="40" r="40"/>
    <g fill="#FFF">
      <path d="M57.974065 33.503313c0-1.070428.066862-2.055274-.154-3.113168-.222373-1.06481-.500392-2.116868-.88108-3.13651-.714783-1.91523-1.695293-3.737098-2.920607-5.37289-2.494843-3.331014-6.095294-5.63288-10.17543-6.475952-8.21312-1.696736-17.04504 2.83978-20.44857 10.474985-1.705862 3.82614-2.032843 8.051015-.900274 12.08225.52994 1.885838 1.348902 3.688256 2.464647 5.299626 1.1714 1.69155 2.72326 3.0613 4.00206 4.667483 2.85785 3.58949 5.1631 7.674323 7.7 11.494843.59077.889754 1.18175 1.779077 1.771 2.669696.29032.438718.56575.88327.94514 1.251535.44561.43267.5761.41408 1.02753-.02096.6889-.66391 1.18153-1.5595 1.71061-2.34984.71845-1.07324 1.43087-2.15036 2.14457-3.22684 2.84232-4.28884 5.6113-8.65182 8.89102-12.62492 1.38255-1.67512 2.7403-3.29276 3.63388-5.29703.88518-1.98547 1.28959-4.15031 1.18951-6.32229m3.5103 4.45569c-.53296 2.5115-1.551 4.91451-3.04764 7.00306-1.60061 2.23293-3.53661 4.23871-5.18272 6.44743-3.56723 4.78613-6.71043 9.92929-10.021 14.89566-.73549 1.1035-1.40821 2.38702-2.40878 3.27829-1.11359.99198-2.00998-.0255-2.72131-.9628-1.75116-2.30705-3.25665-4.85118-4.85617-7.26629-1.63339-2.46611-3.24716-4.94433-4.85165-7.42946-1.51606-2.34833-3.24888-4.41743-5.10249-6.49951-5.76206-6.47271-6.88859-16.43809-3.03837-24.16493 4.56888-9.16899 15.0687-13.78006 24.91672-11.44276 5.17669 1.22841 9.76153 4.4987 12.70112 8.9438 1.441437 2.17976 2.508868 4.6463 3.155927 7.17747.56251 2.20051.943194 4.7133.85433 6.99377-.03968 1.01532-.18721 2.0328-.39794 3.02629"/>
      <path d="M40.551596 37.529123c.224745-1.61526 1.71794-1.27185 2.644745-.46811 1.19534 1.036715 2.08634 2.472813 3.01185 3.742934.83665 1.14823 2.11826 2.425268 2.16139 3.928147.04077 1.41816-1.23911 2.178894-2.39217 2.660187-1.18088.49275-2.79637 1.22236-3.9037.23255-1.0959-.97987-1.37759-2.95907-1.52015-4.3446-.19196-1.86552-.26076-3.89076-.00194-5.75109m6.29325-4.94727c-1.13559-.1033-2.95274.32634-3.54027-1.00062-.59745-1.34943.91969-2.27484 1.78567-2.99127 1.16816-.96626 2.31971-1.95305 3.58794-2.78813.85369-.56255 1.92457-1.3557 3.01098-1.15817 1.21885.22152 2.11869 1.40606 2.53345 2.49724.40053 1.05379.85477 2.57223.25947 3.62429-.60456 1.06827-2.04233 1.18583-3.12313 1.416-1.48672.31704-2.99394.46616-4.51409.40068m-6.11885-8.78039c.20232-1.41881.13243-3.44858 1.04673-4.63334.773236-1.00214 2.142197-.96669 3.265275-.6745 1.225747.31899 2.49398 1.14996 3.283826 2.14583.833197 1.05012-.25494 2.64852-.876764 3.58042-.84463 1.2658-1.95412 2.35654-3.0099 3.443397-.73549.757276-2.10639 2.763924-3.382823 1.960184-1.422666-.89603-.517215-4.48487-.326333-5.82198m6.10019 9.67051c1.55963-.10806 3.12206.10157 4.63251.48712 1.051904.268634 2.34926.526246 2.81902 1.64465.53102 1.264287-.185704 2.63944-.715214 3.770815-.477744 1.02137-1.054274 2.20634-2.36543 2.14129-1.224667-.060517-2.523314-1.14931-3.47147-1.842187-1.233727-.901854-2.37557-1.92042-3.528844-2.921254-.63067-.54721-1.86957-1.71511-1.26997-2.69931.591845-.97102 2.9782-.58114 3.899394-.58114m-15.609453-.85876c-1.86633.0389-5.90851.21179-6.1738-2.41317-.11259-1.112353.45337-2.72437.95808-3.68653.6339-1.20766 1.60341-1.69954 2.92449-1.36262 1.35192.34449 2.54984 1.17482 3.725116 1.896 1.14033.69979 2.261684 1.44885 3.185252 2.42808.875683.928003 1.64245 2.10822.00388 2.62561-1.469688.464-3.091865.58027-4.62302.51263m1.70433 1.07773c1.08749.09444 2.99631-.359407 3.81937.572923.870294.98571-.68092 2.26124-1.354294 2.82984-1.207416 1.01986-2.42367 2.03021-3.67465 2.99647-.932628.720105-2.417197 1.673398-3.663864 1.346628-1.05751-.27706-1.923704-1.46506-2.31-2.4324-.237684-.59497-.308-1.198584-.31533-1.833104-.006684-.58071-.12359-1.380774.17298-1.911126.54224-.969502 2.30741-1.21696 3.28706-1.39677 1.34135-.24594 2.68357-.17246 4.038727-.17246m6.32684 6.38707c.06255 1.5085-.099864 3.02067-.47559 4.48249-.273706 1.06524-.588177 2.62669-1.636412 3.21777-1.04284.588057-2.433154.066998-3.416683-.39593-.977705-.46012-2.357666-1.04947-2.58543-2.23617-.228843-1.194042.6339-2.44234 1.309647-3.34052.90437-1.20161 1.929313-2.30683 2.99006-3.370343.64296-.64468 1.96943-2.48816 3.0759-1.995192 1.02343.455578.73851 2.773436.73851 3.6379M31.6795 21.83162c-.112805-1.24397.756627-1.80112 1.762587-2.254103 1.042844-.469408 2.51145-1.328474 3.692766-.983983 2.435098.709944 2.51555 5.05563 2.491608 7.0666-.00884.73977-.05737 1.478674-.11043 2.216282-.04227.588056.00971 1.32307-.35006 1.825975-.7687 1.07562-2.22523-.20725-2.87143-.80028-1.07454-.98614-1.90839-2.12335-2.72217-3.32842-.72967-1.08058-1.96598-2.35287-1.89286-3.74207"/>
    </g>
  </g>
</svg>
