<svg width="80" height="80" xmlns="http://www.w3.org/2000/svg"><g fill="none" fill-rule="evenodd"><circle fill="#233944" cx="40" cy="40" r="40"/><g fill="#D97A5E"><path d="M33.248 40.235l2.096 3.347c-.368 1.245-1.047 2.273-1.893 3.192-1.002 1.09-2.228 1.858-3.599 2.385-1.383.53-2.83.667-4.28.454-2.296-.337-4.246-1.39-5.71-3.219-2.218-2.77-2.825-5.874-1.578-9.239.975-2.629 2.799-4.436 5.438-5.43 1.402-.527 2.803-.591 4.27-.465 1.696.146 3.17.812 4.514 1.784a12.44 12.44 0 0 1 3.028 3.119c1.042 1.543 2.004 3.139 3.019 4.7 1.313 2.02 2.826 3.856 4.928 5.098 1.238.73 2.598.829 4 .709 1.399-.12 2.517-.785 3.515-1.72.14-.13.282-.256.453-.41h3.285c-.113.254-.174.447-.276.615-.919 1.529-2.144 2.698-3.744 3.528-1.908.99-3.861 1.16-5.943.806-2.64-.448-4.567-2.008-6.307-3.894-1.562-1.694-2.806-3.614-3.946-5.616-1.1-1.932-2.525-3.576-4.389-4.83-1.766-1.19-3.667-1.408-5.569-.646-2.157.864-3.735 2.763-3.944 5.294-.13 1.587.2 3.039 1.162 4.34 1.468 1.985 3.417 2.778 5.84 2.536 3.01-.301 5.14-2.993 5.394-5.572.028-.282.069-.563.104-.845l.132-.021M57.578 31.076h3.033c.022.297.056.55.056.805.005 1.679 0 3.358.007 5.037.001.272.053.544.097.971.999-.714 1.648-1.57 2.403-2.308.75-.733 1.465-1.505 2.217-2.237.768-.745 1.563-1.463 2.447-2.288h4.035c-.241.27-.409.478-.596.665-1.353 1.348-2.712 2.689-4.062 4.038a547.699 547.699 0 0 0-3.425 3.454c-.127.129-.21.302-.345.502 1.42 1.717 2.815 3.407 4.212 5.094 1.383 1.67 2.768 3.338 4.229 5.1h-4.297c-2.096-2.59-4.265-5.27-6.41-7.918-.514.084-.502.423-.506.73-.01.768-.003 1.535-.003 2.303V49.938a40.447 40.447 0 0 1-3.092.003V31.076z"/><path d="M10 31.057c.265-.022.473-.052.68-.054.757-.006 1.514-.002 2.344-.002.029.371.071.671.072.97.004 4.602.002 9.203.006 13.804 0 .329.036.657.06 1.054h4.653l2.916 3.08H10V31.057zM54.732 36.288h-3.336c-1.993-2.095-4.406-2.833-7.07-1.744-2.318.948-4.192 3.12-3.88 6.88a19.241 19.241 0 0 1-2.44-3.8c.939-3.459 3.899-5.734 6.955-6.305 4.836-.904 8.639 2.22 9.771 4.97"/></g></g></svg>