<svg width="80" height="80" viewBox="0 0 80 80" xmlns="http://www.w3.org/2000/svg">
  <title>
    lrc-loopring
  </title>
  <g fill="none" fill-rule="evenodd">
    <circle fill="#1975FF" cx="40" cy="40" r="40"/>
    <path d="M40.637298 13C48.783624 24.27674 56.853674 35.614601 65 46.906621 56.863844 53.584041 48.753113 60.281834 40.667808 67 32.42995 60.3073 24.237858 53.58404 16 46.906621 24.237858 35.629881 32.45029 24.327674 40.637298 13M26.17528 45.59253c3.584994 2.903226 7.139477 5.852292 10.739726 8.724957.015256-7.83871.03051-15.6927-.015255-23.531409-3.523973 4.966044-7.169988 9.855688-10.72447 14.806452m18.199563-14.68421a5971.256179 5971.256179 0 0 0 0 23.378607c3.478207-2.949066 7.017435-5.791171 10.510897-8.724958-3.508717-4.874363-7.03269-9.748726-10.510897-14.65365" fill="#FFF" fill-rule="nonzero"/>
  </g>
</svg>
