<svg width="80" height="80" viewBox="0 0 80 80" xmlns="http://www.w3.org/2000/svg">
  <title>
    lsk-lisk
  </title>
  <defs>
    <linearGradient x1="50%" y1="100%" x2="50%" y2="0%" id="a">
      <stop stop-color="#002763" offset="0%"/>
      <stop stop-color="#004AA8" offset="100%"/>
    </linearGradient>
  </defs>
  <g fill="none" fill-rule="evenodd">
    <circle fill="#FFF" cx="40" cy="40" r="40"/>
    <path d="M22.722414.118248c.07931-.157664.277586-.157664.317241 0L45.76207 38.745985c.039655.078833 0 .157665-.039655.236497L32.636207 53.605839c-.039655.039416-.118966.078832-.15862.078832H21.85c-.198276 0-.277586-.19708-.15862-.315328l7.098275-7.962044 6.66207-7.410219c.07931-.078832.07931-.157664.039654-.236496L22.881034 16.239416l-4.75862-8.119708c-.039655-.039416-.039655-.118248 0-.19708l4.6-7.80438zm-4.837931 53.527007c-.039655.039417-.118966.078833-.15862.118249h-4.44138c-.07931 0-.118966-.039416-.15862-.078832L.039654 39.061313C0 38.982482 0 38.90365.039655 38.824817L16.337931 10.99708c.07931-.118248.277586-.118248.356897 0l4.560344 7.80438c.039656.039416.039656.118248 0 .19708L10.231034 37.8c-.039655.078832 0 .157664.039656.236496l6.582758 7.331387c.039655.039416.118966.078832.158621.078832h7.772414c.198276 0 .277586.19708.15862.315329l-7.05862 7.883211z" transform="translate(17 12)" fill="url(#a)"/>
  </g>
</svg>
