<svg width="80" height="80" viewBox="0 0 80 80" xmlns="http://www.w3.org/2000/svg">
  <title>
    lun-lunyr
  </title>
  <defs>
    <linearGradient x1="-35.163764%" y1="22.453247%" x2="108.232668%" y2="79.628672%" id="a">
      <stop stop-color="#F85F7D" offset="0%"/>
      <stop stop-color="#F14E10" offset="100%"/>
    </linearGradient>
  </defs>
  <g fill="none" fill-rule="evenodd">
    <circle fill="#303241" cx="40" cy="40" r="40"/>
    <path d="M24.485096.13852C24.645336.046452 24.82403 0 25.002726 0c.177858 0 .355714.046034.515534.137265L48.362794 13.26992c.688775.395892.689614 1.387296.001678 1.784863L28.49065 26.52603c-.679547-.79304-1.627558-1.350888-2.703508-1.534187V18.75424c2.154417-.367435 3.795817-2.234322 3.795817-4.48873 0-2.517222-2.04578-4.5582-4.56933-4.5582s-4.56891 2.040978-4.56891 4.5582c0 2.241854 1.62336 4.101208 3.76016 4.48287v6.248904c-1.06043.189157-1.99292.74282-2.66492 1.525817L1.66447 15.09454c-.688355-.395892-.689614-1.387296-.001677-1.784444L24.485096.13852zm23.942716 16.543773c.16653-.096253.34355-.140195.515533-.140195.539443 0 1.034003.43021 1.034842 1.03116L50 43.074408c.00042.367852-.196314.708085-.515953.89222L27.35933 56.736034c-.688357.397566-1.549536-.097927-1.549955-.890548l-.018877-21.879947c1.096504-.18791 2.061713-.75915 2.7421-1.57855l5.526564 3.17132c-.148074.56663-.19002 1.17093-.10277 1.78737.351938 2.49295 2.663237 4.22884 5.162042 3.87773 2.498804-.35195 4.23878-2.657418 3.886843-5.150367-.352358-2.49295-2.663658-4.229266-5.162463-3.877734-1.31547.184972-2.416168.914402-3.11627 1.92464L29.3124 31.01309c.171983-.48001.27056-.994334.27056-1.532932 0-.610996-.124165-1.19186-.34271-1.723763l19.187562-11.0741zm-48.40558.890966c.00042-.60138.49498-1.03117 1.034423-1.03117.171984 0 .349002.04394.515533.14019l19.209375 11.08708c-.21519.52855-.336837 1.10481-.336837 1.71079 0 .53901.098157 1.05334.27056 1.53335L15.3024 34.11996c-.700942-1.010235-1.80122-1.739665-3.11669-1.924637-2.498805-.351533-4.810104 1.384785-5.162043 3.877734-.352358 2.49295 1.38762 4.798414 3.886424 5.150364 2.49881.35112 4.81011-1.38478 5.16247-3.87773.08683-.61643.04531-1.22073-.10319-1.78737l5.52531-3.1709c.67577.81229 1.63008 1.3806 2.71484 1.57353l-.01888 21.88455c-.00042.79262-.8616 1.288116-1.549534.89055L.515536 43.96663c-.31922-.184136-.515953-.52437-.515533-.89222l.022234-25.50115z" transform="translate(15 12)" fill-rule="nonzero" fill="url(#a)"/>
  </g>
</svg>
