<svg width="80" height="80" viewBox="0 0 80 80" xmlns="http://www.w3.org/2000/svg">
  <title>
    lux-luxcoin
  </title>
  <g fill="none" fill-rule="evenodd">
    <circle fill="#FFF" cx="40" cy="40" r="40"/>
    <path d="M58.899411 14.676446c-2.536715 1.465783-4.853038 2.812952-7.17777 4.145763-10.639643 6.099257-21.276409 12.203815-31.932426 18.274578-.868953.495-1.234723 1.036828-1.226536 2.067912.059081 7.504518.052443 15.009478.066604 22.514217.000664.399799 0 .799598 0 1.564739-1.601378-.971888-3.00737-1.776125-4.342332-2.683735-.223489-.151747-.188306-.753655-.19074-1.147932-.050008-7.76229-.101345-15.524358-.095813-23.286426.000222-.469377.347405-1.151466.739507-1.376767C27.607139 27.35494 40.502254 20.00968 53.380994 12.635703c.685736-.392731 1.23052-.455904 1.917362-.020542 1.08337.686506 2.225379 1.281124 3.601055 2.061285" fill="#0DC8E2"/>
    <path d="M25.043672 66.93623c-1.599166-.918212-2.920188-1.634095-4.185226-2.43789-.26509-.168535-.456494-.660222-.458043-1.003916-.034076-7.982952-.049787-15.965683-.010178-23.948193.001991-.41747.427506-.998394.81806-1.223695 8.89908-5.135763 17.819625-10.23486 26.739063-15.335723 3.932528-2.248815 7.880102-4.471345 11.798468-6.744237.687728-.398915 1.230962-.461646 1.918026-.01988 1.069208.68739 2.197276 1.283776 3.48577 2.025503-.588817.383674-.966094.657128-1.368153.887952-12.551915 7.205-25.101396 14.414417-37.67057 21.589156-.879354.501848-1.214588 1.05229-1.203303 2.07763.082758 7.503856.099132 15.008153.135864 22.51245.001992.42984.000222.8599.000222 1.620844" fill="#0DC8E2"/>
    <path d="M61.333896 63.287323c0-.75984-.001106-1.219498.000221-1.679377.021464-7.392751.020137-14.785944.088511-22.178474.010843-1.168253-.31554-1.859619-1.3832-2.4401-3.71988-2.021968-7.378247-4.156808-11.05852-6.251446-.218178-.124137-.423522-.270804-.877803-.563916 1.563983-.877129 2.966212-1.69484 4.407608-2.437008.203353-.104699.627762.105803.898383.2602 3.869907 2.207953 7.721668 4.447712 11.602196 6.636447.744153.4199.980477.932349.977379 1.764859-.029873 7.686968-.03275 15.374378-.002656 23.061566.00354.88508-.254689 1.413655-1.065889 1.808816-1.140238.5553-2.217413 1.239156-3.58623 2.018433" fill="#0DC8E2"/>
    <path d="M41.717217 33.810924c1.576375-.895683 2.900494-1.684679 4.26754-2.391285.243405-.125683.71406.00243.995081.161907 3.971473 2.253012 7.939183 4.513976 11.872154 6.832811.379268.223755.741719.844438.743931 1.28245.03983 7.908293.028103 15.816366.001328 23.72488-.001328.35761-.14206.881325-.39852 1.043454-1.267914.801144-2.596459 1.506646-4.088748 2.350642-.048902-.629297-.110417-1.048755-.109753-1.467771.012613-7.503855.01748-15.00771.069923-22.510904.006639-.96261-.277038-1.54243-1.141123-2.021967-3.638673-2.018876-7.239064-4.106005-10.851626-6.171486-.375506-.2147-.738621-.451265-1.360187-.832731" fill="#00C5E0"/>
    <path d="M26.74863 66.326217c0-1.722008-.031421-3.225342.02766-4.72514.011285-.284278.322178-.658675.595897-.816165 8.459847-4.863193 16.932307-9.704518 25.404545-14.546286.091608-.052349.208-.061184.514468-.146224 0 1.684237.027217 3.311044-.030536 4.934759-.008187.232148-.390332.511345-.658962.6653-8.305838 4.76247-16.618757 9.51235-24.933447 14.25958-.212204.121043-.455608.18753-.919625.374176m-.040317-7.186048c0-1.785402-.036953-3.289177.030758-4.788314.01394-.305481.359353-.700421.657191-.873373 4.52223-2.624538 9.061055-5.220803 13.59811-7.819498 2.61881-1.500241 5.257311-2.967129 7.853107-4.506024.795932-.471807 1.459762-.542932 2.220953.007068.474639.343032 1.024732.580261 1.53035.88243 1.114127.666406 1.117667 1.718916-.020358 2.36743-3.328221 1.895843-6.679234 3.752148-10.002809 5.655943-4.825157 2.764137-9.633719 5.55743-14.451574 8.334378-.372187.214699-.761634.399357-1.415728.73996M14.621942 18.190526c1.460647-.823454 2.85292-1.625703 4.268868-2.384217.174809-.093654.515575-.022309.711847.09012 3.922792 2.245724 7.836068 4.508013 11.748238 6.77251.085634.0497.134537.16213.287217.354519-1.353106.789658-2.666825 1.58506-4.015949 2.315522-.23057.12502-.668255.073112-.914536-.066044-3.90509-2.202872-7.795132-4.432691-11.685174-6.66251-.118383-.067812-.1976-.203434-.40051-.4199m6.419631-3.653745c1.371473-.77773 2.634077-1.525863 3.933192-2.204197.271064-.141365.75057-.153735 1.010349-.007068 3.838706 2.168193 7.657498 4.372169 11.477174 6.573715.11617.067149.193839.200562.44366.468494-1.393158.804237-2.701345 1.584618-4.041396 2.306245-.198264.106687-.58948.011486-.818944-.117952-3.904647-2.203976-7.798009-4.42739-11.690928-6.651466-.085413-.048815-.13675-.156606-.313107-.36777m20.384554 45.565202c1.719761-.990663 3.162042-1.849679 4.640391-2.641767.212426-.113755.638604.02231.897277.166104 1.864034 1.037049 3.718332 2.092872 5.553821 3.179177.281021.166325.63086.513996.640817.789217.059966 1.642932.029872 3.289397.029872 5.28022-4.006655-2.306907-7.760612-4.468473-11.762178-6.772951M14.097295 33.118498V20.000667c1.594298.919317 3.021532 1.703895 4.394332 2.574176.215081.136285.252256.661547.25314 1.00723.006639 2.022188.022128 4.046806-.073906 6.065461-.0208.440884-.381038 1.01253-.758757 1.262129-1.155064.764257-2.394877 1.401285-3.814809 2.208835M65.780936 20.13037v12.866244c-1.490519-.857911-2.824817-1.585502-4.103132-2.3999-.224153-.14269-.294298-.648955-.300493-.989778-.037175-2.017771-.078332-4.03753-.010622-6.053093.015047-.447068.356256-1.036606.730877-1.289518 1.083591-.731787 2.260783-1.325743 3.68337-2.133956M38.307831 45.274757c-1.628595.924177-3.007812 1.743876-4.431063 2.478755-.24274.12502-.718928-.03247-1.009685-.196365-1.827081-1.029539-3.642434-2.080502-5.440307-3.15974-1.105498-.663313-1.00371-1.630783.01394-2.413373 1.655592-1.273393 3.11646-1.415642 4.912341-.115743 1.76468 1.277149 3.79246 2.192048 5.954775 3.406466m9.827269 10.957038c1.784375-1.03484 3.34703-1.940683 5.055285-2.931345v5.864016c-1.74034-1.009659-3.273344-1.898936-5.055285-2.93267M26.705503 46.010741c1.819115 1.02998 3.398145 1.924116 5.170128 2.92737-1.542962.878011-2.874826 1.64271-4.214213 2.394598-.584392.327791-.93932.129658-.949055-.53012-.021686-1.498916-.00686-2.998715-.00686-4.791848m-6.246837-16.526904v-5.832209c1.546502.884418 2.944085 1.658173 4.297634 2.501948.121702.075763.075234.792972-.090724.896567-1.303762.814176-2.655983 1.551265-4.20691 2.433694m38.979797-5.774557v5.673614c-1.510213-.855924-2.877038-1.608474-4.207574-2.420442-.127677-.077972-.137192-.702852-.016817-.77751 1.323897-.82257 2.684085-1.586386 4.224391-2.475663" fill="#00C5E0"/>
  </g>
</svg>
