<svg width="80" height="80" viewBox="0 0 80 80" xmlns="http://www.w3.org/2000/svg">
  <title>
    lym-lympo
  </title>
  <defs>
    <linearGradient x1="31.057749%" y1="9.700488%" x2="72.524045%" y2="101.843428%" id="a">
      <stop stop-color="#F26659" offset="0%"/>
      <stop stop-color="#B52A53" offset="100%"/>
    </linearGradient>
    <linearGradient x1="25.253815%" y1="100.811223%" x2="73.769178%" y2="4.605549%" id="b">
      <stop stop-color="#F26659" offset="0%"/>
      <stop stop-color="#EE1C4E" offset="100%"/>
    </linearGradient>
  </defs>
  <g fill="none" fill-rule="evenodd">
    <circle fill="#FFF" cx="40" cy="40" r="40"/>
    <g fill-rule="nonzero">
      <path d="M19.806711 38.494444L.225503 4.327778c.037584 0-1.428188-3.948148 3.157047-3.948148h12.628188c1.54094-.11389 3.006712.64537 3.833557 1.974074C21.2349 4.63148 40.74094 38.83611 40.74094 38.83611l-16.762417 2.087963c-1.766443.075926-3.344966-.873148-4.171812-2.42963z" fill="url(#a)" transform="translate(12 21)"/>
      <path d="M3.157047 22.777778l11.801342-20.61389S15.897987.189816 18.867114.189816H31.38255s5.186578.113889 3.232215 3.606481c-1.954362 3.530556-13.830872 24.33426-13.830872 24.33426S19.99463 30.294444 16.8 30.294444H1.54094S-1.277852 30.180556.826846 26.65s2.330201-3.872222 2.330201-3.872222z" transform="translate(32.671141 31.62963)" fill="url(#b)"/>
    </g>
  </g>
</svg>
