<svg width="80" height="80" xmlns="http://www.w3.org/2000/svg" xmlns:xlink="http://www.w3.org/1999/xlink">
  <defs>
    <path id="a" d="M.000003.042758h50.83507v57.753017H.000003z"/>
  </defs>
  <g fill="none" fill-rule="evenodd">
    <circle fill="#758489" cx="40" cy="40" r="40"/>
    <g transform="translate(15 11.161542)">
      <mask id="b" fill="#fff">
        <use xlink:href="#a"/>
      </mask>
      <path d="M25.60017 38.551885c.281734-.109873.582593-.186866.842528-.334725 2.701355-1.53945 5.394278-3.093606 8.093988-4.635916.905867-.517915 1.824278-1.014183 2.965609-1.647077V45.64075c.368927-.16338.560383-.22914.732714-.327577 2.34456-1.33788 4.674108-2.702106 7.03656-4.007718.660327-.364951.872552-.807916.870085-1.541902-.024883-7.10643-.013162-14.212859-.017686-21.319288-.000205-.405592-.053879-.811388-.082875-1.21698-.150326-.165014-.271246-.380267-.45571-.487281-2.095112-1.213916-4.19989-2.411085-6.301995-3.613155-.614468-.351268-1.22873-.703148-1.791376-1.025415-4.105705 2.349-8.097072 4.632443-12.074866 6.908126-4.06684-2.325718-8.06088-4.60957-12.108593-6.924056-2.819395 1.647282-5.612468 3.279042-8.405746 4.911007-.060665.355352-.174387.710704-.174799 1.066056-.00946 7.242036-.006375 14.48407-.002879 21.726106.000206.332887.028585.66557.044831 1.019493 2.838932 1.624204 5.637145 3.224922 8.603577 4.92183v-13.7848c.422395.223831.717907.37026 1.003548.53364 3.409597 1.949536 6.814258 3.907853 10.233109 5.841867.282556.159704.657859.157866.989976.231183m24.51208-24.64714c.50856.279584.701662.657196.701045 1.235359-.011722 9.13602-.028996 18.272042.021798 27.407654.006375 1.160817-.870907 1.327874-1.49175 1.83517-1.072028.591436-2.152488 1.168577-3.215056 1.77676-6.589283 3.77143-13.181033 7.538162-19.751807 11.341655-.73004.422542-1.265951.371894-1.971314-.03431C16.640827 52.994906 8.861682 48.5479 1.074928 44.114575c-.724694-.412535-1.077786-.88021-1.074907-1.763894.030846-8.985303.026733-17.97081.00144-26.956113-.002263-.77912.23608-1.252105.928693-1.629922 2.10087-1.145705 4.17254-2.344712 6.251613-3.530035C12.916182 6.965575 18.661085 3.714104 24.366916.396463c.765411-.445007 1.321887-.479113 2.05275-.051057 2.47864 1.452247 4.978258 2.868958 7.475201 4.290367 4.670819 2.658605 9.345339 5.311084 14.01842 7.966014.73189.436633 1.452266.892873 2.198963 1.302957z" fill="#474644" mask="url(#b)"/>
    </g>
    <path d="M19.90291 28.157972a257010.01202 257010.01202 0 0 0 8.405746-4.911007c4.047508 2.31469 8.041548 4.598543 12.108592 6.924057a1157491.54359 1157491.54359 0 0 1 12.074867-6.907923c.562646.322064 1.176702.674148 1.791375 1.025416 2.1019 1.201866 4.206883 2.399035 6.30179 3.613155.18467.10681.305384.322063.455916.487077-1.259165.675578-2.533548 1.325014-3.775234 2.031838-5.28652 3.00967-10.56502 6.03343-15.840435 9.062909-.481621.27652-1.125085.44031-1.116654 1.187366-.243895-.352697-.409234-.831402-.74464-1.03726-1.944376-1.193698-3.915073-2.346958-5.902634-3.469177-3.50008-1.97588-7.02998-3.899887-10.522863-5.888225-1.118504-.636775-2.15948-1.408338-3.235826-2.118226" fill="#E1DEDB"/>
    <path d="M41.42563 39.483494c5.27521-3.02948 10.553915-6.05324 15.840435-9.062909 1.24148-.706824 2.515863-1.35626 3.775028-2.031838.028996.405592.08267.811387.082875 1.21698.004524 7.106429-.007197 14.213062.017686 21.319288.002467.73419-.209758 1.177155-.870085 1.542105-2.362452 1.305409-4.692 2.669634-7.03656 4.007719-.172331.098232-.363787.163993-.732714.327373v-13.70638c-1.14133.63269-2.059742 1.129162-2.96561 1.646873-2.699709 1.542514-8.893947 5.012464-9.17568 5.122337-.083287-.523021.00802-1.196717 0-1.720964-.038456-2.490732-.038662-4.982077-.052234-7.473218-.008432-.747056.635238-.910845 1.116858-1.187366z" fill="#86979B"/>
    <path d="M40.361004 48.144078c.005347.349498.005347.926942 0 1.732332-.312169-.156226-.56244-.287642-.75081-.394247-3.41885-1.93381-6.823512-3.892331-10.233109-5.841867-.285641-.16338-.581153-.30981-1.003548-.53364v13.785007c-2.966432-1.697113-5.764645-3.297831-8.603577-4.922035-.016246-.353719-.044625-.686606-.04483-1.019494-.003497-7.242035-.006581-14.48407.002878-21.726105.000412-.355352.114134-.710704.174799-1.066057 1.076552.709888 2.117322 1.481451 3.236032 2.118226 3.492678 1.988338 7.022782 3.912345 10.522863 5.888225 1.987355 1.122219 3.958258 2.27548 5.902633 3.469176.335407.20586.50054.684564.744436 1.03726.013572 2.491142.013778 4.982487.052233 7.47322z" fill="#CFC7B3"/>
  </g>
</svg>
