<svg width="80" height="80" viewBox="0 0 80 80" xmlns="http://www.w3.org/2000/svg">
  <title>
    man-matrix-ai-network
  </title>
  <defs>
    <linearGradient x1="15.703125%" y1="87.375488%" x2="86.743164%" y2="16.501465%" id="a">
      <stop stop-color="#204E79" offset="0%"/>
      <stop stop-color="#5692B6" offset="100%"/>
    </linearGradient>
  </defs>
  <g fill="none" fill-rule="evenodd">
    <circle fill="url(#a)" cx="40" cy="40" r="40"/>
    <path d="M22.222963 52.322746c-1.07232-.018308-1.84399.719204-1.853766 1.771344-.009576 1.023482.794015 1.837612 1.816459 1.8398.953416.001792 1.785337-.797412 1.817057-1.74587.033716-1.01214-.76369-1.84796-1.77975-1.865274m17.753815-9.866666c-.305037.264477-.535062.443184-.741347.646368-1.085885 1.068457-2.186733 2.123184-3.242294 3.221094-1.206783 1.254926-1.836608 2.747861-1.645686 4.516816.338155 3.130945 3.055561 5.595423 6.52808 5.029254 2.291471-.373731 3.830624-1.755224 4.493766-4.003781.642593-2.179105.030124-4.051343-1.532768-5.641194-1.044788-1.062687-2.115112-2.100498-3.176858-3.146667-.184938-.182288-.38384-.350448-.682893-.62189m-19.541347 6.60597v-1.185274c-.001396-8.189055-.002793-16.37811-.00399-24.567164-.0002-.298309.000998-.596617.002394-.895124.00379-.81592.37626-1.38209 1.133766-1.705075.707232-.301692 1.298554-.088756 1.829825.387264.370674.332139.730973.676418 1.08389 1.027263 4.849677 4.820697 9.696958 9.643781 14.546036 14.464876.277705.27582.566384.540696.904538.862488.27591-.233831.509327-.406369.713616-.608558 1.297756-1.28378 2.58833-2.575323 3.88389-3.861492.21187-.210349.419153-.431244.658953-.605572.709427-.515622 1.706135-.448359 2.289277.132338.608678.60597.64399 1.642587.07202 2.362985-.123092.155025-.274314.288358-.415362.428657-1.294962 1.287164-2.591321 2.572537-3.884289 3.861293-.232419.231642-.451072.477015-.735362.778707.211472.254925.379452.490746.580948.693532 1.099451 1.106667 2.198504 2.21413 3.314115 3.304677 1.671421 1.63383 2.59571 3.65393 2.664339 5.939104.154015 5.116617-3.575062 9.11602-8.333566 9.427264-2.76828.180895-5.207182-.568358-7.178255-2.551045-3.42364-3.443781-3.721296-8.935323-.19591-12.636418 1.07591-1.129353 2.204888-2.20796 3.306534-3.312637.23202-.232637.45187-.477214.760898-.805373-1.403292-1.5801-2.93247-2.986667-4.39182-4.457512-1.472719-1.484577-2.96439-2.950448-4.447682-4.424876-1.4799-1.470846-2.9598-2.94189-4.521895-4.494527-.109726.269054-.21187.426666-.233616.595025-.034115.260895-.01576.529154-.01596.794427-.002194 6.597612-.004987 13.195224-.002593 19.792836.0002.424279.041895.848557.066832 1.318408 1.515212.615523 2.641197 1.60219 3.209178 3.119801.406583 1.08617.444688 2.213135.145835 3.325174-.588928 2.191841-2.768479 3.81592-5.150125 3.773732-2.10015-.037413-4.352319-1.433433-4.964588-3.75403-.579551-2.195821-.110723-4.796219 3.30813-6.525174m37.362074-21.424279c.914913.006965 1.733267-.840597 1.742843-1.805174.010374-1.023483-.701247-1.76-1.720698-1.780896-1.018853-.020696-1.863142.777712-1.875312 1.773732-.01197.969751.842095 1.804776 1.853167 1.812338m-1.759002 3.23005c-3.120998-1.538309-3.868728-3.7401-3.429826-6.20199.396808-2.225672 2.495561-3.959005 4.79641-4.117811 2.26334-.156617 4.520498 1.29214 5.323092 3.43801.512718 1.370945.45187 2.733134-.162993 4.061094-.613666 1.325175-1.682394 2.19224-3.053965 2.788856 0 .525572.0002.984876 0 1.44398-.001596 8.157413-.001596 16.315025-.009975 24.472438-.000599.4601.006583.943483-.12369 1.37592-.359901 1.194627-1.811472 1.603583-2.729577.80617-.311022-.270647-.52828-.593234-.526683-1.027861.001197-.364577-.009177-.729353-.009177-1.09413-.002594-8.22388-.003392-16.44776-.009377-24.671442-.0002-.423682-.041696-.847364-.06424-1.273234" fill="#FFF"/>
  </g>
</svg>
