<svg width="80" height="80" viewBox="0 0 80 80" xmlns="http://www.w3.org/2000/svg">
  <title>
    mana-decentraland
  </title>
  <g fill="none">
    <path d="M78.2 43.96c.12-1.32.2-2.6.2-3.96C78.4 18.8 61.2 1.6 40 1.6S1.6 18.8 1.6 40c0 .16 76 1.96 76.6 3.96" fill="#D7D1C7"/>
    <path d="M1.44 40.08c0 21.2 17.2 38.4 38.4 38.4s36.2184-13.04 38.4-33.6c.0168-.1592-76.8-6.12-76.8-4.8" fill="#BFB5AF"/>
    <path d="M25.12 11.6c4.2416 0 7.68 3.4384 7.68 7.68s-3.4384 7.68-7.68 7.68-7.68-3.4384-7.68-7.68 3.4384-7.68 7.68-7.68" fill="#F47E33"/>
    <path d="M25.12 13.2c-3.36 0-6.08 2.72-6.08 6.08s2.72 6.08 6.08 6.08 6.08-2.72 6.08-6.08-2.76-6.08-6.08-6.08m0 15.36c-5.12 0-9.28-4.16-9.28-9.28 0-5.12 4.16-9.28 9.28-9.28 5.12 0 9.28 4.16 9.28 9.28 0 5.12-4.2 9.28-9.28 9.28" fill="#35312E"/>
    <path d="M50.08 11.24c6.6496 0 12.04 5.3904 12.04 12.04 0 6.6496-5.3904 12.04-12.04 12.04-6.6496 0-12.04-5.3904-12.04-12.04 0-6.6496 5.3904-12.04 12.04-12.04" fill="#F47E33"/>
    <path fill="#BFB5AF" d="M28.52 49.04l9.76-12.32 2.08 1.2 4 1.48 2.84-1.48 9.08-9.68 3.16 4.24 1.52-1.24h2L68 38.28l3.6-.6 6.48 7.36"/>
    <path fill="#BFB5AF" d="M34.92 42.92L29.64 40l-7.68 2-3.52-11.64h-6.32L6.04 41.04l-4.44.16"/>
    <path d="M17.44 45.16s-2.88 8.4-2.88 8.56c0 .8 1.28 1.44 2.88 1.44 1.6 0 2.88-.64 2.88-1.44-.04-.12-2.88-8.56-2.88-8.56m-6.64-3.24s-2.84 8.36-2.84 8.52c0 .8 1.28 1.44 2.84 1.44 1.56 0 2.84-.64 2.84-1.44 0-.16-2.84-8.52-2.84-8.52" fill="#F47E33"/>
    <path d="M62.92 42.8c0 3.24-15.4 3.24-15.4 0s3.44-5.88 7.68-5.88 7.72 2.6 7.72 5.88m7.68 8c0 3.24-15.4 3.24-15.4 0s3.44-5.88 7.68-5.88c4.28-.04 7.72 2.6 7.72 5.88m-15.4 9.52c0 3.24-15.4 3.24-15.4 0s3.44-5.88 7.68-5.88 7.72 2.64 7.72 5.88" fill="#D8A780"/>
    <path d="M40.44 76.84c-15.88 0-29.48-9.96-34.88-23.96 1.08 0 2.2.04 3.36.04.56.16 1.2.24 1.88.24.56 0 1.04-.04 1.52-.16.24 0 .52 0 .76.04-.08.24-.08.32-.08.4 0 1.8 1.92 3.08 4.52 3.08 2.56 0 4-1.6 4.12-3.32.4.04 1.24.44 1.64.48 10.8 1.16 11.52 3.12 11.52 3.2.04.16-.24 1-2.4 2.48-4.64 3.2-6.24 5.08-5.8 7.08.52 2.4 3.64 3 8.36 3.88 1.32.24 2.84.56 4.4.88 1.72.4 3.52.76 5.24 1.08 3.2.64 6.44 1.28 9 2.08-4.04 1.64-8.52 2.48-13.16 2.48" fill="#D7D1C7"/>
    <path d="M72.2 35.96l-3.44.6-4.96-6.88h-1.6c1-1.92 1.56-4.08 1.56-6.36 0-7.52-6.12-13.64-13.64-13.64-7.52 0-13.68 6.08-13.68 13.6 0 6.24 4.24 11.52 9.96 13.16l-.2.2-1.96 1-3.2-1.16-3.16-1.84-4.44 5.6-3.56-1.96-6.84 1.76-3.44-11.28h-8.4L5.08 39.48l-1.88.04C3.44 19.44 19.88 3.2 40 3.2c20.28 0 36.8 16.52 36.8 36.8v1.16l-4.6-5.2zM53.6 60.12c-.56.4-2.64 1.04-6.08 1.04s-5.52-.64-6.08-1.04c.16-2.24 2.88-4.08 6.08-4.08s5.92 1.84 6.08 4.08zm9.32-13.64c3.2 0 5.92 1.84 6.08 4.08-.56.4-2.68 1.04-6.08 1.04s-5.52-.64-6.08-1.04c.16-2.24 2.88-4.08 6.08-4.08zm-1.64-3.92c-.56.4-2.68 1.04-6.08 1.04s-5.52-.64-6.08-1.04c.16-2.24 2.88-4.08 6.08-4.08s5.92 1.84 6.08 4.08zM58.84 29l-2.4-3.24L49 33.72c-5.24-.56-9.32-5-9.32-10.4 0-5.76 4.68-10.44 10.44-10.44s10.44 4.68 10.44 10.44c0 2.08-.64 4.04-1.72 5.68zm-1.72 43.56c-3-1.48-7.56-2.36-12.36-3.32-1.68-.32-3.44-.68-5.12-1.04-1.56-.36-3.08-.64-4.44-.88-2.16-.4-4.76-.92-5.6-1.4.28-.44 1.16-1.48 4.28-3.6 1.12-.76 4.52-3.08 3.6-6.04-.84-2.76-5.2-4.44-14.08-5.4-.8-.08-1.64-.16-2.52-.24-.44-1.32-1.08-3.2-2-5.92l-1.52-4.44-1.52 4.44c-.52 1.48-.92 2.68-1.28 3.72-.4-1.28-1.12-3.36-2.36-6.96l-1.4-4.52-1.52 4.44c-2.08 6.08-2.68 7.88-2.84 8.56H4.6c-.64-2.32-1.08-4.76-1.28-7.24L7 42.6l6.08-10.64h4.2l3.64 11.96 8.56-2.2 1.96 1.08-4.16 5.24 2.52 2 8.88-11.24 1.04.6 4.8 1.76 2.08-1.08c-.4.84-.64 1.76-.64 2.72 0 .96.6 3 5.16 3.76 1.44.24 2.52 1.48 2.52 2.96v5.2c-.64-.44-1.36-.84-2.16-1.12h.04c-1.76-.56-3.4-1.4-3.92-3.12-.4 1.4-1.52 2.2-2.96 2.76-3.72 1-6.4 3.8-6.4 7.12 0 1.2.92 4.04 9.28 4.04 8.4 0 9.28-2.84 9.28-4.04v-6.28c.56.2 1.2.36 1.96.48 1.44.24 2.52 1.48 2.52 2.96v3.6c0 .84.6 1.6 1.44 1.68.96.08 1.76-.68 1.76-1.6v-3.68c0-1.48 1.08-2.72 2.52-2.96 4.56-.76 5.16-2.76 5.16-3.76 0-2.68-1.76-5-4.36-6.32h.04c-.04 0-.08-.04-.16-.04-.44-.24-.96-.4-1.44-.56-.72-.36-1.36-.84-1.8-1.44-.2-2.84-2.32-5.24-5.36-6.4h-.04c-.2-.08-.4-.12-.6-.2-1.52-.56-2.84-1.4-3.28-2.88-.48 1.64-1.88 2.48-3.68 3.04-.12.04-.28.08-.4.16l5-5.32 3 4.04 2.4-1.92h.6l5.2 7.16 3.68-.64 5.4 6.12c-1.76 11.68-9.08 21.6-19.24 26.96zM16.36 53.44l1.08-3.24 1.08 3.24c-.24.08-.64.16-1.08.16-.44 0-.84-.08-1.08-.16zm-6.6-3.4c.24-.72.6-1.88 1.04-3.12.44 1.28.84 2.44 1.04 3.16-.72 0-1.4-.04-2.08-.04zM40 76.8c-15.64 0-29.04-9.8-34.36-23.6 1.04 0 2.16.04 3.28.04.56.16 1.16.24 1.84.24.52 0 1.04-.04 1.48-.16.24 0 .48 0 .76.04-.08.24-.08.32-.08.4 0 1.76 1.88 3.04 4.48 3.04 2.52 0 4.36-1.2 4.44-2.88.4.04.84.08 1.24.12 10.64 1.16 11.36 3.08 11.36 3.16.04.16-.2 1-2.36 2.44-4.52 3.12-6.08 5-5.68 6.96.48 2.36 3.56 2.96 8.24 3.84 1.32.24 2.8.52 4.32.88 1.68.36 3.48.72 5.2 1.08 3.12.64 6.32 1.28 8.88 2.04C49 75.96 44.6 76.8 40 76.8zM40 0C17.96 0 0 17.96 0 40s17.96 40 40 40 40-17.96 40-40S62.04 0 40 0z" fill="#35312E"/>
  </g>
</svg>
