<svg width="80" height="80" xmlns="http://www.w3.org/2000/svg" xmlns:xlink="http://www.w3.org/1999/xlink">
  <defs>
    <path id="a" d="M0 .144598h49.939817v59.689183H0z"/>
    <linearGradient x1="50%" y1="0%" x2="50%" y2="98.782286%" id="b">
      <stop stop-color="#F8564F" offset="0%"/>
      <stop stop-color="#A83F42" offset="100%"/>
    </linearGradient>
  </defs>
  <g fill="none" fill-rule="evenodd">
    <circle fill="#FFF" cx="40" cy="40" r="40"/>
    <g transform="translate(15 9.021607)">
      <mask id="c" fill="#fff">
        <use xlink:href="#a"/>
      </mask>
      <path d="M13.45765 42.797269c-.855167-.360499-1.652833-.696732-2.5075-1.057064-.0165.228698-.054333.367645-.030667.49529.095.516067.186 1.034793.319667 1.541552.999833 3.78964 2.827167 7.02698 6.244667 9.17867 2.747833 1.729862 5.798166 2.143879 8.9605 1.932466 5.623166-.376122 9.810666-2.940166 12.152166-8.165817 1.982167-4.423712 2.209834-9.098228 1.834334-13.841385-.015167-.19363-.144167-.378283-.260334-.666649-.420333.476011-.735833.891025-1.111333 1.24205-.371.34687-.802667.629086-1.283167.997729-2.447333-5.884986-5.469833-11.192078-10.570666-14.998172-.158.10471-.218.125152-.245.16687-.0445.068144-.077.147424-.097834.226371-.657666 2.492742-2.3355 4.218781-4.294 5.751856-.444333.3477-.794.369972-1.270333.097895-.704833-.402549-1.447333-.73928-2.324833-1.17989-.032.580887-.032334.960167-.077167 1.334128-.172333 1.43734-.3255 2.960776-1.5385 3.909141-2.899667 2.26687-4.156667 5.247757-4.139333 8.82881.0065 1.347257.149 2.693683.239333 4.206149M.559317 21.217546c1.13 1.723878 2.405 3.206426 4.360666 4.243712C8.82465 15.533668 14.13015 6.65749 22.95065.144582c.458167 2.109972 1.136833 3.990581 2.3095 5.677396 1.474833 2.121606 3.321167 3.861606 5.4395 5.312077.273833.18748.860833.141773 1.195-.01878 1.4675-.705042 2.895333-1.492023 4.416167-2.290305.079833 1.183545.135333 2.271523.2305 3.35601.145 1.653075.6825 3.188477 1.531666 4.606372.235834.393906.553167.776343.919 1.049917 4.289667 3.209584 6.456167 7.540886 6.924334 12.808255.235 2.644155-.012834 5.247423-.489334 7.84205-.03.163213-.059333.328088-.068166.493296-.004.07579.042666.154072.106.36083 1.442666-.643877 2.863833-1.278116 4.475-1.997285-.196667 1.303546-.3155 2.422106-.5395 3.519225-.92 4.503989-2.725834 8.59047-5.886834 11.998837-3.270166 3.526204-7.374166 5.535955-12.063333 6.389418-5.075833.923933-10.128.808088-15.062-.785651-6.5035-2.100499-10.7835-6.590028-13.3865-12.776676C1.198817 41.405302.411317 36.901147.107817 32.283972c-.226334-3.441108-.085667-6.859778.322-10.275457.031666-.26493.085833-.527368.1295-.79097" fill="url(#b)" mask="url(#c)"/>
    </g>
    <path d="M45.559533 54.971169c-.005166-3.086593-2.465833-5.579335-5.526833-5.598781-3.078167-.019612-5.596 2.517008-5.5845 5.626537.011333 3.05917 2.508333 5.498394 5.610667 5.48061 3.041333-.017452 5.505666-2.48543 5.500666-5.508366M28.4577 51.818925c-.090333-1.512465-.232833-2.858892-.239333-4.20615-.017334-3.581052 1.239666-6.561938 4.139333-8.828808 1.213-.948366 1.366167-2.4718 1.5385-3.909308.044833-.37396.045167-.753074.077-1.33396.877667.440609 1.620167.77734 2.325 1.179888.476333.272078.825833.249806 1.270167-.09806 1.958666-1.53291 3.6365-3.258948 4.294-5.751857.020833-.078947.0535-.158227.097833-.226205.027167-.041717.087-.06216.245167-.16687 5.100833 3.806095 8.123333 9.11302 10.5705 14.998006.480666-.368476.912333-.650859 1.283333-.997562.375333-.351191.691-.766039 1.111333-1.24205.116.288366.245.47302.260334.666648.3755 4.743158.147833 9.417507-1.8345 13.841385-2.3415 5.225485-6.528834 7.789696-12.152 8.165651-3.162334.21158-6.212834-.202437-8.960667-1.932465-3.417333-2.151524-5.244667-5.38903-6.2445-9.178504-.133833-.506926-.224667-1.025651-.319833-1.541718-.0235-.127645.014333-.266593.030666-.495124a12274.15983 12274.15983 0 0 1 2.507667 1.057063" fill="#FFF"/>
    <path d="M45.559533 54.971169c.005 3.022936-2.459333 5.490914-5.500666 5.508366-3.102334.017784-5.599334-2.42144-5.610667-5.48061-.0115-3.109529 2.506333-5.64615 5.5845-5.626537 3.061.019446 5.521667 2.512188 5.526833 5.598781" fill="#BF4646"/>
  </g>
</svg>
