<svg width="80" height="80" viewBox="0 0 80 80" xmlns="http://www.w3.org/2000/svg">
  <title>
    mcap-mcap
  </title>
  <g fill="none" fill-rule="evenodd">
    <circle fill="#033B4A" cx="40" cy="40" r="40"/>
    <path d="M38.814 16.18c1.41-.42 2.91.008 4.127.756 5.443 3.144 10.887 6.29 16.377 9.348 2.11 1.134 3.513 3.462 3.482 5.862-.005 7.957-.023 15.917-.012 23.875.086.555-.286 1.186-.903 1.127-2.434.017-4.87.007-7.303.005-.533.08-1.043-.374-.987-.92-.234-6.778-.145-13.563-.077-20.342-.002-.85-.16-1.746-.7-2.43-.55-.73-1.412-1.102-2.185-1.534-1.268-.675-2.46-1.488-3.772-2.077-.495-.202-1.143-.42-1.61-.037-.52.498-.515 1.28-.57 1.95-.088 3.323-.11 6.65-.027 9.976-.002.79.023 1.705-.568 2.315-.605.603-1.522.612-2.317.627-1.44-.017-2.877.037-4.312-.035-.61-.066-1.338-.103-1.733-.64-.356-.534-.34-1.207-.37-1.82-.007-3.493.038-6.99.002-10.483-.037-.615-.028-1.31-.458-1.802-.41-.43-1.07-.287-1.567-.105-1.078.425-2.04 1.08-3.063 1.62-1.022.596-2.12 1.105-2.993 1.918-.57.526-.723 1.33-.742 2.07-.01 6.865.008 13.73-.05 20.592.057.522-.247 1.155-.843 1.143-2.508.03-5.017.014-7.524.007-.502.05-.965-.397-.912-.904.1-8.346.038-16.694.045-25.04-.067-1.744.89-3.45 2.424-4.296 5.71-3.25 11.434-6.48 17.124-9.767.643-.372 1.293-.76 2.016-.96z" fill-rule="nonzero" fill="#FFF"/>
  </g>
</svg>
