<svg width="80" height="80" viewBox="0 0 80 80" xmlns="http://www.w3.org/2000/svg">
  <title>
    mda-moedaloyaltypoints
  </title>
  <g fill="none" fill-rule="evenodd">
    <circle fill="#01A64F" cx="40" cy="40" r="40"/>
    <path d="M54.345114 15.975104C50.51975 11.908714 45.779626 10 40.04158 10c-5.821206 0-10.56133 1.908714-14.386694 5.80913C21.829522 19.626555 20 24.52282 20 30.414937c0 5.809128 1.912682 10.705394 5.738046 14.60581 2.993763 3.070538 6.569646 4.896264 10.64449 5.560165v3.485477h-8.399168v3.73444h8.48233l-.000002 1.9917h-8.482328v3.485477h8.399168V70h7.234928v-6.721992h8.482328V59.79253h-8.56549l.000002-1.9917h8.565488v-3.73444h-8.482328V50.6639c4.158004-.6639 7.733887-2.489626 10.72765-5.560166C58.087318 41.20332 60 36.307054 60 30.497924c0-5.72614-1.912682-10.622405-5.654886-14.52282zM46.528066 38.13278c-1.58004 1.9917-3.825363 2.987552-6.486486 2.987552-2.577963 0-4.740125-.99585-6.403326-2.987552-1.663202-1.9917-2.494803-4.564315-2.494803-7.80083 0-3.153527.831603-5.643153 2.494805-7.634855 1.6632-1.9917 3.825363-2.98755 6.403326-2.98755 2.494803 0 4.656966.99585 6.320167 3.070538 1.746362 1.9917 2.577963 4.564315 2.577963 7.634855 0 3.153527-.831602 5.72614-2.411643 7.717842z" fill="#FFF" fill-rule="nonzero"/>
  </g>
</svg>
