<svg width="80" height="80" viewBox="0 0 80 80" xmlns="http://www.w3.org/2000/svg" xmlns:xlink="http://www.w3.org/1999/xlink">
  <title>
    mds-medishares
  </title>
  <defs>
    <path d="M.454493 4.89716c0 2.284637 1.845565 4.137507 4.122087 4.137507 2.277333 0 4.122898-1.85287 4.122898-4.137508 0-2.284637-1.845565-4.136695-4.122898-4.136695-2.276522 0-4.122087 1.852058-4.122087 4.136695z" id="a"/>
    <path d="M.673623 3.48255c0 1.714088 1.383768 3.102725 3.091363 3.102725 1.708405 0 3.092173-1.388637 3.092173-3.102724 0-1.713276-1.383768-3.101913-3.092173-3.101913C2.05739.380638.673623 1.769275.673623 3.48255z" id="c"/>
    <path d="M.105507 3.48255c0 1.714088 1.383768 3.102725 3.091363 3.102725 1.708405 0 3.092173-1.388637 3.092173-3.102724 0-1.713276-1.383768-3.101913-3.092173-3.101913-1.707595 0-3.091363 1.388637-3.091363 3.101913z" id="e"/>
    <path d="M.673623 3.668406c0 1.714087 1.383768 3.102724 3.091363 3.102724 1.708405 0 3.092173-1.388637 3.092173-3.102724C6.85716 1.95513 5.473391.56568 3.764986.56568 2.057391.56568.673623 1.95513.673623 3.668405z" id="g"/>
    <path d="M.430145 3.273971c0 1.714087 1.383768 3.102725 3.091362 3.102725S6.613681 4.988058 6.613681 3.27397c0-1.713275-1.38458-3.101913-3.092174-3.101913S.430145 1.560696.430145 3.273971z" id="i"/>
    <path d="M.430145 3.876986c0 1.714086 1.383768 3.102724 3.091362 3.102724s3.092174-1.388638 3.092174-3.102724c0-1.713276-1.38458-3.102725-3.092174-3.102725S.430145 2.16371.430145 3.876986z" id="k"/>
    <path d="M.348986 3.273971c0 1.714087 1.383768 3.102725 3.092173 3.102725 1.707595 0 3.092174-1.388638 3.092174-3.102725 0-1.713275-1.38458-3.101913-3.092174-3.101913-1.708405 0-3.092173 1.388638-3.092173 3.101913z" id="m"/>
    <path d="M.348986 3.876986c0 1.714086 1.383768 3.102724 3.092173 3.102724 1.707595 0 3.092174-1.388638 3.092174-3.102724 0-1.713276-1.38458-3.102725-3.092174-3.102725-1.708405 0-3.092173 1.38945-3.092173 3.102725z" id="o"/>
    <path d="M0 2.462377C0 3.6051.922783 4.53113 2.06145 4.53113c1.138666 0 2.061449-.926029 2.061449-2.068753 0-1.141913-.922783-2.067942-2.06145-2.067942C.922783.394435 0 1.320464 0 2.462377z" id="q"/>
    <path d="M.324638 2.068754c0 1.141913.92197 2.068753 2.060637 2.068753 1.139479 0 2.06145-.92684 2.06145-2.068753C4.446725.926029 3.524754 0 2.385275 0 1.24661 0 .324638.926029.324638 2.068754z" id="s"/>
    <path d="M.08116 2.068754c0 1.141913.922782 2.068753 2.060637 2.068753 1.138667 0 2.06145-.92684 2.06145-2.068753C4.203246.926029 3.280463 0 2.141796 0 1.003942 0 .08116.926029.08116 2.068754z" id="u"/>
    <path d="M.324638 2.64742c0 1.143537.92197 2.069566 2.060637 2.069566 1.139479 0 2.06145-.92603 2.06145-2.069566 0-1.141101-.921971-2.067942-2.06145-2.067942-1.138666 0-2.060637.92684-2.060637 2.067942z" id="w"/>
    <path d="M.08116 2.64742c0 1.143537.922782 2.069566 2.060637 2.069566 1.138667 0 2.06145-.92603 2.06145-2.069566 0-1.141101-.922783-2.067942-2.06145-2.067942-1.137855 0-2.060638.92684-2.060638 2.067942z" id="y"/>
    <path d="M0 2.253797c0 1.142725.922783 2.068754 2.06145 2.068754 1.138666 0 2.061449-.92603 2.061449-2.068754 0-1.141913-.922783-2.067942-2.06145-2.067942C.922783.185855 0 1.111885 0 2.253797z" id="A"/>
    <path d="M.404986 2.462377c0 1.142724.922782 2.068753 2.061449 2.068753 1.138666 0 2.06145-.926029 2.06145-2.068753 0-1.141913-.922784-2.067942-2.06145-2.067942-1.138667 0-2.06145.926029-2.06145 2.067942z" id="C"/>
    <path d="M.404986 2.253797c0 1.142725.922782 2.068754 2.061449 2.068754 1.138666 0 2.06145-.92603 2.06145-2.068754 0-1.141913-.922784-2.067942-2.06145-2.067942-1.138667 0-2.06145.92603-2.06145 2.067942z" id="E"/>
    <path d="M.105507 3.668406c0 1.714087 1.383768 3.102724 3.091363 3.102724 1.708405 0 3.092173-1.388637 3.092173-3.102724C6.289043 1.95513 4.905275.56568 3.19687.56568 1.489275.56568.105507 1.95513.105507 3.668405z" id="G"/>
    <path d="M.454493 4.68858c0 2.283826 1.845565 4.136695 4.122087 4.136695 2.277333 0 4.122898-1.85287 4.122898-4.136695 0-2.284638-1.845565-4.136696-4.122898-4.136696-2.276522 0-4.122087 1.852058-4.122087 4.136696z" id="I"/>
    <path d="M.697971 4.89716c0 2.284637 1.845565 4.137507 4.122087 4.137507 2.277333 0 4.122899-1.85287 4.122899-4.137508 0-2.284637-1.845566-4.136695-4.122899-4.136695-2.276522 0-4.122087 1.852058-4.122087 4.136695z" id="K"/>
    <path d="M.697971 4.68858c0 2.283826 1.845565 4.136695 4.122087 4.136695 2.277333 0 4.122899-1.85287 4.122899-4.136695 0-2.284638-1.845566-4.136696-4.122899-4.136696-2.276522 0-4.122087 1.852058-4.122087 4.136696z" id="M"/>
  </defs>
  <g fill="none" fill-rule="evenodd">
    <circle fill="#39414B" cx="40" cy="40" r="40"/>
    <g transform="translate(40.405797 29.855072)">
      <mask id="b" fill="#fff">
        <use xlink:href="#a"/>
      </mask>
      <path fill="#FFF" mask="url(#b)" d="M-7.66145 17.150609h24.477682V-7.354667H-7.66145z"/>
    </g>
    <g transform="translate(41.217391 20.927536)">
      <mask id="d" fill="#fff">
        <use xlink:href="#c"/>
      </mask>
      <path fill="#FFF" mask="url(#d)" d="M-7.442319 14.701217h22.416232V-7.736116H-7.442319z"/>
    </g>
    <g transform="translate(31.478261 20.927536)">
      <mask id="f" fill="#fff">
        <use xlink:href="#e"/>
      </mask>
      <path fill="#FFF" mask="url(#f)" d="M-8.010435 14.701217h22.416232V-7.736116H-8.010435z"/>
    </g>
    <g transform="translate(41.217391 51.768116)">
      <mask id="h" fill="#fff">
        <use xlink:href="#g"/>
      </mask>
      <path fill="#FFF" mask="url(#h)" d="M-7.442319 14.887073h22.416232V-7.550261H-7.442319z"/>
    </g>
    <g transform="translate(51.768116 31.478261)">
      <mask id="j" fill="#fff">
        <use xlink:href="#i"/>
      </mask>
      <path fill="#FFF" mask="url(#j)" d="M-7.686609 14.492638h22.416232V-7.944696H-7.686609z"/>
    </g>
    <g transform="translate(51.768116 41.217391)">
      <mask id="l" fill="#fff">
        <use xlink:href="#k"/>
      </mask>
      <path fill="#FFF" mask="url(#l)" d="M-7.686609 15.095652h22.416232V-7.34168H-7.686609z"/>
    </g>
    <g transform="translate(20.927536 31.478261)">
      <mask id="n" fill="#fff">
        <use xlink:href="#m"/>
      </mask>
      <path fill="#FFF" mask="url(#n)" d="M-7.766957 14.492638h22.416232V-7.944696H-7.766957z"/>
    </g>
    <g transform="translate(20.927536 41.217391)">
      <mask id="p" fill="#fff">
        <use xlink:href="#o"/>
      </mask>
      <path fill="#FFF" mask="url(#p)" d="M-7.766957 15.095652h22.416232V-7.34168H-7.766957z"/>
    </g>
    <g transform="translate(12 32.289855)">
      <mask id="r" fill="#fff">
        <use xlink:href="#q"/>
      </mask>
      <path fill="#FFF" mask="url(#r)" d="M-8.115942 12.647073h20.354783v-20.36858H-8.115942z"/>
    </g>
    <g transform="translate(32.289855 12)">
      <mask id="t" fill="#fff">
        <use xlink:href="#s"/>
      </mask>
      <path fill="#FFF" mask="url(#t)" d="M-7.791304 12.252638h20.354782v-20.36858H-7.791304z"/>
    </g>
    <g transform="translate(42.84058 12)">
      <mask id="v" fill="#fff">
        <use xlink:href="#u"/>
      </mask>
      <path fill="#FFF" mask="url(#v)" d="M-8.034783 12.252638H12.32v-20.36858H-8.034783z"/>
    </g>
    <g transform="translate(32.289855 63.130435)">
      <mask id="x" fill="#fff">
        <use xlink:href="#w"/>
      </mask>
      <path fill="#FFF" mask="url(#x)" d="M-7.791304 12.832928h20.354782v-20.36858H-7.791304z"/>
    </g>
    <g transform="translate(42.84058 63.130435)">
      <mask id="z" fill="#fff">
        <use xlink:href="#y"/>
      </mask>
      <path fill="#FFF" mask="url(#z)" d="M-8.034783 12.832928H12.32v-20.36858H-8.034783z"/>
    </g>
    <g transform="translate(12 42.84058)">
      <mask id="B" fill="#fff">
        <use xlink:href="#A"/>
      </mask>
      <path fill="#FFF" mask="url(#B)" d="M-8.115942 12.438493h20.354783v-20.36858H-8.115942z"/>
    </g>
    <g transform="translate(63.130435 32.289855)">
      <mask id="D" fill="#fff">
        <use xlink:href="#C"/>
      </mask>
      <path fill="#FFF" mask="url(#D)" d="M-7.710957 12.647073h20.354783v-20.36858H-7.710957z"/>
    </g>
    <g transform="translate(63.130435 42.84058)">
      <mask id="F" fill="#fff">
        <use xlink:href="#E"/>
      </mask>
      <path fill="#FFF" mask="url(#F)" d="M-7.710957 12.438493h20.354783v-20.36858H-7.710957z"/>
    </g>
    <g transform="translate(31.478261 51.768116)">
      <mask id="H" fill="#fff">
        <use xlink:href="#G"/>
      </mask>
      <path fill="#FFF" mask="url(#H)" d="M-8.010435 14.887073h22.416232V-7.550261H-8.010435z"/>
    </g>
    <g transform="translate(40.405797 40.405797)">
      <mask id="J" fill="#fff">
        <use xlink:href="#I"/>
      </mask>
      <path fill="#FFF" mask="url(#J)" d="M-7.66145 16.941217h24.477682V-7.564058H-7.66145z"/>
    </g>
    <g transform="translate(29.855072 29.855072)">
      <mask id="L" fill="#fff">
        <use xlink:href="#K"/>
      </mask>
      <path fill="#FFF" mask="url(#L)" d="M-7.417971 17.150609H17.05971V-7.354667H-7.41797z"/>
    </g>
    <g transform="translate(29.855072 40.405797)">
      <mask id="N" fill="#fff">
        <use xlink:href="#M"/>
      </mask>
      <path fill="#FFF" mask="url(#N)" d="M-7.417971 16.941217H17.05971V-7.564058H-7.41797z"/>
    </g>
  </g>
</svg>
