<svg width="80" height="80" viewBox="0 0 80 80" xmlns="http://www.w3.org/2000/svg" xmlns:xlink="http://www.w3.org/1999/xlink">
  <title>
    mee-coinmeet
  </title>
  <defs>
    <path id="a" d="M0 .000116h53.885587v55.708818H0z"/>
    <linearGradient x1="50%" y1="0%" x2="50%" y2="100%" id="b">
      <stop stop-color="#9870B7" offset="0%"/>
      <stop stop-color="#614182" offset="100%"/>
    </linearGradient>
  </defs>
  <g fill="none" fill-rule="evenodd">
    <circle fill="#FFF" cx="40" cy="40" r="40"/>
    <g transform="translate(12 12)">
      <mask id="c" fill="#fff">
        <use xlink:href="#a"/>
      </mask>
      <path d="M35.7642 27.758026c-.183937-.195497-.312525-.34103-.44955-.477173-1.112063-1.106922-2.229188-2.20848-3.338213-3.31842-.853874-.855425-1.846125-1.447616-3.062137-1.620981-2.544412-.362492-4.370625.449676-5.7105 2.402299-1.7685 2.57667-1.002713 5.935665 1.524487 7.685078 1.748925 1.210874 4.96665 1.516694 7.130363-.633773 1.13265-1.1257 2.267662-2.249054 3.393225-3.381796.189-.190467.333787-.424192.512325-.655234m3.7719-3.531353c.223088-.171018.366863-.258204.482625-.372886 2.40975-2.385533 4.818825-4.772407 7.22115-7.164982.47655-.474827.475875-.547928.0891-1.14515-1.143788-1.766515-2.466113-3.368383-4.089487-4.742227-1.916325-1.622324-3.983513-2.964647-6.298088-3.957893-2.3463-1.006994-4.813088-1.51267-7.326113-1.773221-1.8738-.194491-3.762112-.017773-5.614312.328287-2.465775.460743-4.806 1.292024-7.0173 2.490156-3.325725 1.80206-5.9751 4.325413-8.075363 7.428216-2.616975 3.866347-3.76515 8.184383-3.795525 12.80388-.0081 1.190419.137363 2.396598.351 3.570922.365176 2.00594.959175 3.954203 1.857938 5.797844 1.45125 2.97739 3.424275 5.544336 5.97645 7.688767 2.2626 1.901317 4.792162 3.310036 7.590038 4.223137 3.244725 1.059306 6.574837 1.331258 9.974474.925845 2.622713-.312527 5.104013-1.050252 7.457738-2.221557 3.458025-1.720575 6.27345-4.191952 8.532675-7.297102.30645-.421174.654075-.838659.729675-1.36412-.554175-.760862-7.46955-7.591185-8.079412-7.961054-.185963.162635-.400613.331641-.594338.522108-1.097212 1.082443-2.190038 2.16891-3.282525 3.255713-.8802.874874-1.8738 1.587114-2.990587 2.140071-2.313563 1.14582-4.756388 1.307114-7.224863.786683-2.7918-.588838-4.942013-2.195401-6.52185-4.544383-.7722-1.148168-1.272375-2.409006-1.5174-3.777485-.233888-1.306108-.223425-2.595114-.010125-3.905246.33885-2.080048 1.265625-3.855616 2.6892-5.383042 1.200487-1.287329 2.646-2.195065 4.324725-2.789269 1.748925-.619689 3.529575-.670659 5.316638-.425868 2.359462.323593 4.33215 1.468742 6.014587 3.118898 1.060762 1.039856 2.107687 2.093126 3.164063 3.137677.194737.192479.404662.370203.665212.607281m14.349488-6.953054c-3.515063 3.495808-7.00785 6.969485-10.572863 10.514587.227475.256862.4104.488575.6183.695473 2.962913 2.943186 5.928863 5.883018 8.8938 8.823856.219038.216958.442463.429893.655763.652216.44145.461413.453937.592862.184612 1.184048-1.57005 3.448527-3.748613 6.45643-6.534337 9.044168-2.68245 2.491832-5.735813 4.367664-9.1638 5.660694-2.001376.755162-4.05945 1.286994-6.178613 1.582755-1.81305.252838-3.640612.355784-5.462438.212263-3.957187-.311856-7.73685-1.291353-11.26575-3.147066-3.265987-1.717221-6.0804-3.973988-8.476312-6.774994-2.306475-2.695712-3.97035-5.741844-5.133712-9.058251-.693225-1.976096-1.129613-4.025294-1.27845-6.122779C.100912 29.540972.002361 28.540014 0 27.539392c-.004725-2.013653.3294-3.987066.76275-5.952431.465413-2.11224 1.186987-4.130587 2.167762-6.04733 1.109025-2.166898 2.466113-4.171497 4.076663-6.02218 1.70775-1.962682 3.6774-3.597413 5.850563-4.996742C15.613425 2.746481 18.5922 1.479607 21.814312.787487 24.179174.2798 26.556188-.081016 28.98315.015895c.474525.018778.946013.104287 1.419863.148886 2.269687.212934 4.49145.653892 6.648074 1.39497 3.346313 1.149844 6.38415 2.830515 9.098325 5.107401 2.38545 2.001246 4.374 4.324743 5.967 6.980551.586238.977485 1.066838 2.017677 1.586926 3.033725.07425.144862.098887.31521.18225.592191" fill="url(#b)" mask="url(#c)"/>
    </g>
  </g>
</svg>
