<svg width="80" height="80" viewBox="0 0 80 80" xmlns="http://www.w3.org/2000/svg">
  <title>
    meme-memetic
  </title>
  <defs>
    <linearGradient x1="0%" y1="50%" y2="50%" id="a">
      <stop stop-color="#E0F600" offset="0%"/>
      <stop stop-color="#009700" offset="100%"/>
    </linearGradient>
  </defs>
  <g fill="none" fill-rule="evenodd">
    <circle fill="#FFF" cx="40" cy="40" r="40"/>
    <path d="M67.02145 53.941797c-.18754.349377-.369237.701705-.563424 1.04754-.650446 1.158493-1.516633 2.149181-2.554043 2.986033-.471569.38046-1.008202.689115-1.534964.998755-1.04164.611606-2.093151 1.207278-3.14708 1.798623-1.285582.721377-2.581438 1.425049-3.866215 2.148-1.24308.699344-2.475885 1.415803-3.716144 2.120065-.820058.465836-1.644748.923607-2.467828 1.384328-1.534964.858689-3.056028 1.743344-4.613352 2.561705-.564432.296459-1.210245.455016-1.830878.637967-.785611.231344-1.600431.354295-2.418273.344262-.778964-.009639-1.572633.051148-2.330648-.214032-.077755-.027148-.163165-.039345-.246158-.046427-1.046878-.08636-1.962216-.547278-2.855597-1.021377-1.346216-.714491-2.655568-1.495278-3.982245-2.244983-1.63246-.922426-3.265726-1.843476-4.900402-2.76236-1.183655-.665116-2.37295-1.320788-3.554389-1.989443-1.35508-.76682-2.709352-1.53541-4.05436-2.318361-.756805-.44046-1.534964-.86046-2.23154-1.38118-1.137524-.85023-2.01882-1.928656-2.69928-3.169574-.165985-.302361-.348892-.574033-.395626-1.040656.226216.20695.354533.355279.512058.463279.6579.451082 1.396978.776459 2.195885.696983 1.310964-.130426 2.57882-.80754 2.988144-2.290032.118446-.428853.308604-.856525.178273-1.289115-.1821-.604722-.29692-1.255082-.780374-1.729574-.191367-.187672-.16095-.327344-.060633-.556721.50964-1.169312.97577-2.356722 1.478762-3.528984.308403-.719016.667972-1.41659.981813-2.133443.327137-.74754.62023-1.509049.940115-2.259737.314044-.736918.64521-1.466951.965094-2.201508.221583-.508525.434504-1.020984.656288-1.529509.35272-.808721.712892-1.614491 1.063597-2.424.1819-.419803.368432-.839016.520518-1.269442.230647-.652918.378302-.727279 1.050906-.819541.48567-.066689.962677-.251213 1.418734-.440263.212518-.088327.359568-.129442.543684.015541.375482.295673.762848.576984 1.135107.876197.822475.66118 1.642533 1.325115 2.456346 1.996328 1.220518 1.006623 2.431971 2.023475 3.65269 3.029902.54731.451082 1.098044.89941 1.667511 1.322754.208288.155016.25059.304328.212921.54236-.207683 1.312722.229439 2.431082 1.315799 3.185115.947165.657246 2.029899.833902 3.184144.350164.857525-.359213 1.467079-.943082 1.772863-1.752983.194993-.516394.205266-1.124263.18069-1.686099-.01551-.355869.051166-.571672.326936-.79141.96872-.770754 1.925957-1.555672 2.875942-2.348459 1.114763-.930295 2.211799-1.880852 3.327166-2.810557.786417-.655475 1.582302-1.300721 2.39531-1.924131.122272-.09364.375682-.09364.543682-.048787.55718.148328 1.107109.32636 1.650792.51718.157525.055476.344863.161902.415971.296656.30518.579147.570072 1.17836.853496 1.768525.381526.794163.775137 1.583016 1.147195 2.381508.324518.69659.623453 1.404787.93931 2.105311.134359.29764.282215.589574.425035.883476.621842 1.278885 1.253756 2.553049 1.862705 3.837639.48305 1.01882.934273 2.052 1.40685 3.07554.225812.489247.465121.972394.70443 1.455542.153296.30964.082792.551606-.16679.791606-.656288.630296-.97577 1.44905-.906274 2.303607.104345 1.279672.831942 2.477705 2.33669 2.925246 1.306936.388918 2.345756.037967 3.291713-.817967.045122-.040722.115021-.055279.173439-.081836.042503.024983.085208.04977.127913.074754" fill="#B1B1B1"/>
    <path d="M.216506 41.526197C-.071753 41.06154.01104 40.434984.01104 39.820623c-.000604-6.67141-.008662-13.342426.01269-20.01364.00282-.840786.206677-1.672524.541267-2.459016.293899-.690492.537036-1.411082.916144-2.054557.41295-.700525.91997-1.357377 1.452172-1.97941.851684-.995213 1.968058-1.684721 3.098533-2.334098 1.289611-.74046 2.61387-1.423082 3.908719-2.154886 1.264633-.715082 2.502878-1.475016 3.76872-2.18813 1.0642-.599214 2.158014-1.14787 3.226244-1.74059.99551-.552198 1.972892-1.135476 2.961151-1.700066 1.23341-.704853 2.454734-1.431935 3.712317-2.092919.489697-.257508 1.058158-.382622 1.601439-.530163.950187-.257902 1.923338-.371804 2.910992-.376328 1.110331-.004918 2.196087.194557 3.244374.50282.685295.201639 1.319223.585835 1.956576.923606 1.004374.532131 1.995453 1.088852 2.986734 1.644393 1.122417.628918 2.236374 1.272 3.35859 1.901115.630705.353312 1.276518.681246 1.905208 1.037902.730418.414295 1.443713.857705 2.175137 1.270623 1.291626.729442 2.594734 1.44 3.88636 2.169639.628086.354885 1.236633.74223 1.861496 1.10223.471166.271475.972748.49554 1.427597.789639.809583.523279 1.66469.986754 2.21341 1.833246.39764.61377.940317 1.13823 1.333727 1.754164.34849.545508.616604 1.148459.85551 1.750426.481842 1.213377.626073 2.475934.620634 3.78295-.028403 6.572656-.01108 13.145706-.016921 19.718558-.000201.42059-.059424.84118-.091252 1.26177l-.113208.017509c-.074331-.20164-.183511-.397967-.21695-.606099-.136777-.852786-.665353-1.429573-1.327885-1.943213-.471568-.365705-1.051914-.395803-1.5821-.57482-.276173-.093245-.382332-.252786-.48849-.49495-.281611-.643082-.605727-1.268262-.910504-1.901508-.325726-.676722-.647424-1.355213-.973755-2.031541-.219971-.455804-.449007-.907279-.666561-1.364263-.203655-.427672-.392604-.862032-.596259-1.289705-.350705-.736918-.715914-1.467344-1.059971-2.20741-.344058-.740065-.657698-1.493704-1.006187-2.231606-.44659-.946033-.916144-1.881836-1.373007-2.823344-.292893-.603738-.59646-1.203148-.856116-1.820262-.051367-.122558.03485-.345443.127914-.472918.42967-.588197.843626-1.182689.891971-1.930427.077756-1.19941-.377093-2.183803-1.403827-2.842623-.463108-.297246-1.015856-.493967-1.555712-.63423-.594446-.154622-1.159482.139673-1.683626.364525-1.3301.570886-2.054274 2.100197-1.782734 3.350164.054187.24964.006245.432984-.207684.603148-.941726.749115-1.875395 1.508262-2.805035 2.271344-.42.344853-.81905.713902-1.236835 1.061115-.786619.653508-1.581295 1.297967-2.37033 1.948721-.737267.608262-1.472519 1.219082-2.207166 1.830492-.376087.312984-.484058.30059-.92662.056853-.542877-.299017-1.154445-.365115-1.754934-.280132-.419396.05941-.836576.212263-1.223338.388918-.303569.139082-.528375.13023-.776346-.078492-1.158878-.97495-2.319165-1.94872-3.486503-2.914229-1.091396-.902557-2.18803-1.799213-3.290705-2.688984-.601698-.485508-1.221929-.94918-1.830878-1.42623-.287252-.225048-.437525-.462884-.363799-.88013.25623-1.449836-.714906-3.131804-2.480316-3.496721-1.241266-.256722-2.198907.09541-3.049583.862032-.82892.747148-1.294849 2.285902-.698388 3.328918.153093.267541.28564.546295.44115.812263.130332.222885.201037.426885.08098.690688-.500778 1.100262-.989469 2.205836-1.468289 3.315541-.330158.76505-.623251 1.54564-.957439 2.308918-.464115 1.060328-.959654 2.107475-1.425985 3.16682-.329554.748918-.6301 1.50964-.948173 2.263475-.324115.768-.651655 1.534426-.981208 2.300066-.348087.808918-.715914 1.609967-1.04144 2.427344-.107366.269115-.239107.374164-.535222.40682-1.123626.12413-2.181583.431803-2.79718 1.45613-.305784.508919-.48728 1.08905-.703828 1.588329" fill="url(#a)" transform="translate(12 10)"/>
  </g>
</svg>
