<svg width="80" height="80" viewBox="0 0 80 80" xmlns="http://www.w3.org/2000/svg">
  <title>
    mer-mercury
  </title>
  <g fill="none" fill-rule="evenodd">
    <circle fill="#BEBEBE" cx="40" cy="40" r="40"/>
    <circle stroke="#525252" stroke-width="3" cx="40" cy="40" r="34.5"/>
    <path d="M35.170332 16.938275c.322696.052196.342243-.246294.413854-.465164.09098-.2792.165258-.56707.28929-.83159.905717-1.93107 2.50285-3.14803 4.862123-2.7241 1.95465.3514 3.08356 1.57915 3.64472 3.4145.07037.23002.04833.63396.39662.59114.34722-.04281.33691-.42376.35628-.71358.00995-.14632.01173-.29566-.00498-.44092-.26512-2.29803-1.81748-4.10278-4.08346-4.64685-2.8865-.69288-6.22115 1.67346-6.1721 4.54353.00089.23533-.00462.47083.00249.70615.00693.23533-.00054.51895.29515.5669m31.56204 12.26587c-.27667-.67978-2.26474-4.36835-2.86553-5.16456-.21572-.28557-.5219-.41845-.85827-.2263-.38525.22011-.26104.54001-.09791.84328.33478.62211.67187 1.24315 1.00896 1.86543.06041.19516.10946.39616.18551.58637 1.92445 4.80981 2.49076 9.75109 1.4564 14.84842.03429.14226.02452.27354-.09507.37723-.16082.729326-.27046 1.471747-.56135 2.167634-.25766 1.528015-.88582 2.93589-1.66466 4.23831-.90341 1.510677-3.14611 1.57154-4.01736.09431-1.5504-2.62926-3.002536-5.31903-4.299718-8.08595-1.768433-3.29064-3.478048-6.61455-5.33373-9.855476-.75574-1.31976-1.2309-2.48966-.18747-3.8257.10502-.13447.150154-.3153.22301-.47454 1.266263-1.94912 2.15599-4.094995 3.237624-6.140545.09667-.18278.208617-.40218-.024876-.54355-.21413-.12987-.38596.03928-.537.18472-.73957.71252-1.40842 1.49705-2.09362 2.254687-1.056586 1.16813-2.20326 2.26973-3.09067 3.587013-.0853.08121-.17077.16348-.25624.24558.00764.19445-.12492.22577-.27614.235325-2.07656 2.21364-4.15987 4.42073-6.222745 6.64658-.336026.36254-.50839.403055-.868226-.0046-1.4603-1.655235-2.96717-3.26977-4.456794-4.899346-.806208-.888215-1.612238-1.77661-2.41862-2.66482-1.60033-1.76263-3.19889-3.526856-4.803485-5.28577-.172363-.18879-.379913-.481796-.65801-.283805-.29284.20843-.031272.48675.07783.70562.86521 1.73591 1.68155 3.50031 2.64217 5.18261.444067.77728.62514 1.687435 1.245477 2.365275.363742.49029.23278.92254-.05011 1.427692-1.185236 2.11615-2.332087 4.25388-3.47734 6.39197-1.442716 2.693134-2.870505 5.394054-4.304513 8.09161-.700655 1.653285-1.585405 3.216864-2.504805 4.74983-.86769 1.447157-3.12514 1.34984-4.02553-.11713-.429316-.699602-1.28332-3.03692-1.41322-3.413614-1.070798-3.105746-1.570657-6.31341-1.37661-9.59839.18605-3.14945.915312-6.18761 2.109253-9.11253.333-.61786.653033-1.24315 1.003805-1.85092.19813-.3429.3099-.67961-.07943-.91936-.340645-.21002-.64859-.11129-.91354.23338-.52314.67961-1.00043 1.37992-1.30838 2.18427-2.3662 3.94955-3.42083 8.28058-3.76147 12.81968-.203104 2.70764 1.2062 9.516292 1.27142 9.739585 1.12464 3.848345 3.10453 7.2655 5.62817 10.32648 1.54187 1.87021 3.42563 3.45856 5.451363 4.850863 2.45274 1.68566 5.07785 3.00153 7.91548 3.90673.39946.127393.75219.175873 1.05818-.154465.21679-.23408.280584-.5117.15762-.81832-.10644-.2654-.34473-.38837-.56383-.54018-3.35295-2.319094-4.98438-5.459343-4.53765-9.55876.23154-2.12234 1.17795-4.03448 1.91112-6.00289.522425-1.40292 4.43636-12.159 5.60933-15.27094.66796 1.30667 1.266798 2.472495 1.86066 3.64062.85472 1.68124 1.70197 3.3662 2.56238 5.04461.15548.303263.23598.75233.64948.76277.424335.01079.50554-.442168.65978-.74437 1.37661-2.69738 2.743986-5.39954 4.115978-8.09922.07783-.153406.172546-.298316.367656-.632547 1.11647 3.14485 5.96064 16.38369 6.97191 19.1522 1.0628 2.909524.64486 5.706342-.81171 8.362673-.77529 1.414064-1.915744 2.534242-3.29875 3.38973-.416167.25744-.7083.58176-.47854 1.08585.24113.52939.68164.59468 1.191804.383063.13576-.05644.28147-.089174.42114-.13677 3.81567-1.303306 7.20451-3.283744 10.21913-5.98767 3.10559-2.785495 5.44905-6.07048 7.162574-9.8277.53309-1.16866.94446-2.39252 1.41144-3.59108.43323-1.492807.68556-3.026306.87018-4.559805.60595-5.03382-.1569-9.89795-2.06394-14.58037" fill="#525252"/>
  </g>
</svg>
