<svg width="80" height="80" viewBox="0 0 80 80" xmlns="http://www.w3.org/2000/svg">
  <title>
    mgo-mobilego
  </title>
  <g fill="none" fill-rule="evenodd">
    <circle fill="#FFF" cx="40" cy="40" r="40"/>
    <g fill-rule="nonzero">
      <path fill="#F00" d="M31.6 31.772l13.005-13.004L39.837 14 22.065 31.772l17.772 17.77 17.772-17.77-8.815-8.814-4.768 4.768 4.046 4.046-8.236 8.235-8.236-8.235"/>
      <g fill="#03B2C6">
        <path d="M40.057 55.716l-13.005-12.92-4.77 4.736 13.006 12.92 4.77 4.74 4.768-4.74 13.005-12.92-4.767-4.737-13.006 12.92M56.127 39.795l4.77-4.77 9.044 9.046-4.768 4.77M14.798 48.696l-4.768-4.768 9.045-9.045 4.768 4.77"/>
      </g>
    </g>
  </g>
</svg>
