<svg width="80" height="80" xmlns="http://www.w3.org/2000/svg">
  <g fill="none" fill-rule="evenodd">
    <circle fill="#49BB61" cx="40" cy="40" r="40"/>
    <path d="M22.901818 45.309167c-.354106-1.871195-.616175-3.514968-1.01467-5.124528-.071976-.289811-.700941-.614843-1.080878-.625157-2.170533-.059874-4.34533-.080503-6.51486-.006038-.973542.033208-1.657178-.25585-2.244263-1.01585-.575799-.745156-1.242382-1.419622-2.047147-2.325785h10.80326c-1.32464-3.88302-2.833103-7.41107-5.81793-10.119246-.501067-.45459-.884515-1.039748-1.322383-1.564528.683636-.32654 1.344953-.865912 2.054921-.94088 2.398746-.252579 4.813041-.39849 7.225079-.469938 1.461316-.04327 2.600125.771573 3.586457 1.8 4.658308 4.856353 7.053793 10.8478 8.180063 17.324026.670345 3.855346.754608 7.819874.993354 11.741886.13116 2.15346-.515862 2.819875-2.65605 2.89107-2.57906.085534-5.166646.141887-7.742194.023648-1.597242-.073208-1.998746-.632202-2.075235-2.26063-.072728-1.54717-.08652-3.100125-.051411-4.648804.020314-.90239-.254545-1.271447-1.21279-1.240252-1.96138.063648-3.927523-.023648-5.888652.037233-.914357.028176-1.594733-.210063-2.167774-.94088-.63047-.803523-1.34721-1.538366-2.232728-2.535347h11.225831zM41.529204 56.93825c-1.741693-.237233-2.0642-.53434-2.17931-2.308176-.127399-1.963019-.036364-3.939623-.147461-5.904403-.39649-7.026415-1.85906-13.77132-5.703072-19.781383-.839875-1.313208-2.09254-2.368302-3.198496-3.499371-.792727-.81107-.78094-1.293585.309718-1.575598 3.092665-.799748 6.254796-1.190189 9.409405-.54717.939184.191699 1.873604.917233 2.588087 1.624151 4.347085 4.300126 6.685643 9.752202 7.835988 15.582893.900564 4.565535.998871 9.298114 1.329906 13.965283.117617 1.658365-.555486 2.23019-2.248778 2.372076-1.579686.132327-3.165392.195975-4.869968.297107-.96602-.065409-2.054922-.079497-3.12602-.225409zm15.333392-.023975c-1.54207-.209056-1.92652-.615346-2.01254-2.200755-.088526-1.630188-.039373-3.267672-.092037-4.900377-.21768-6.73283-1.480878-13.23849-4.750847-19.177862-1.024953-1.861886-2.677116-3.374842-4.02583-5.06088-.270847-.338365-.711724-.804277-.63323-1.088805.086772-.31371.665832-.65761 1.057305-.693585 2.85442-.261132 5.713103-.540126 8.5758-.61912 1.400877-.038742 2.438118.97107 3.370532 1.965284 4.507085 4.805534 6.850157 10.68981 7.953104 17.034968.677366 3.896604.765392 7.903648.99536 11.868176.125392 2.162516-.500815 2.702642-2.69417 2.852327-.74884.05107-1.495924.137107-2.245516.16805-.708715.028931-1.419687.006038-2.129405.006038-.001755.036478-.00326.073208-.004765.109686-1.122006-.08327-2.251034-.112201-3.363761-.263145z" fill="#FFF"/>
  </g>
</svg>
