<svg width="80" height="80" viewBox="0 0 80 80" xmlns="http://www.w3.org/2000/svg"><title>Group 8</title><g fill-rule="nonzero" fill="none"><circle fill="#000" cx="40" cy="40" r="40"/><g transform="translate(8 9.6)" fill="#FFF"><circle cx="45.69" cy="3.626" r="3.626"/><circle cx="46.681" cy="13.137" r="3.07"/><circle cx="54.73" cy="14.286" r="3.062"/><circle cx="53.742" cy="22.398" r="2.619"/><circle cx="60.182" cy="24.877" r="2.636"/><circle cx="45.646" cy="21.29" r="2.683"/><circle cx="43.306" cy="27.82" r="2.25"/><circle cx="51.362" cy="28.922" r="2.234"/><circle cx="57.792" cy="31.387" r="2.254"/><circle cx="54.602" cy="36.358" r="1.901"/><circle cx="48.147" cy="33.871" r="1.942"/><circle cx="40.096" cy="32.755" r="1.925"/><circle cx="44.56" cy="37.35" r="1.678"/><circle cx="51.015" cy="39.828" r="1.692"/><circle cx="47.366" cy="42.019" r="1.334"/><circle cx="43.914" cy="43.137" r="1.212"/><circle cx="40.91" cy="39.606" r="1.439"/><circle cx="36.498" cy="36.248" r="1.674"/><circle cx="49.709" cy="54.498" r="3.607"/><circle cx="40.931" cy="50.677" r="3.009"/><circle cx="35.935" cy="56.966" r="3.034"/><circle cx="34.415" cy="45.698" r="2.628"/><circle cx="29.422" cy="52.106" r="2.622"/><circle cx="24.055" cy="56.463" r="2.613"/><circle cx="19.562" cy="51.155" r="2.227"/><circle cx="24.946" cy="46.787" r="2.231"/><circle cx="29.967" cy="40.383" r="2.234"/><circle cx="22.272" cy="41.538" r="1.933"/><circle cx="16.915" cy="45.901" r="1.917"/><circle cx="15.675" cy="41.045" r="1.659"/><circle cx="15.615" cy="36.786" r="1.423"/><circle cx="16.35" cy="33.259" r="1.211"/><circle cx="20.984" cy="32.432" r="1.439"/><circle cx="26.056" cy="30.27" r="1.677"/><circle cx="27.273" cy="35.122" r="1.908"/><circle cx="21.051" cy="36.698" r="1.662"/><circle cx="3.623" cy="32.585" r="3.596"/><circle cx="11.397" cy="26.93" r="3.08"/><circle cx="8.349" cy="19.386" r="3.064"/><circle cx="15.845" cy="16.206" r="2.626"/><circle cx="18.914" cy="23.73" r="2.635"/><circle cx="25.734" cy="22.525" r="2.244"/><circle cx="31.631" cy="22.83" r="1.932"/><circle cx="36.498" cy="24.21" r="1.627"/><circle cx="37.122" cy="18.726" r="1.419"/><circle cx="33.378" cy="16.67" r="1.644"/><circle cx="28.57" cy="15.294" r="1.922"/><circle cx="22.69" cy="15.006" r="2.246"/><circle cx="14.762" cy="9.367" r="2.547"/><circle cx="21.576" cy="8.161" r="2.247"/><circle cx="27.472" cy="8.47" r="1.938"/><circle cx="32.304" cy="9.851" r="1.631"/><circle cx="36.018" cy="11.914" r="1.458"/><circle cx="38.732" cy="14.337" r="1.2"/></g></g></svg>