<svg width="80" height="80" viewBox="0 0 80 80" xmlns="http://www.w3.org/2000/svg">
  <title>
    mln-melon
  </title>
  <g fill="none" fill-rule="evenodd">
    <circle cx="40" cy="40" r="40" fill="#293650"/>
    <path d="M20.082 50.158l3.533-2.03m35.817 1.94l-3.534-2.053" stroke="#FFF" stroke-width=".611"/>
    <path d="M39.825 11L16.03 24.58V52.3L34.422 63.04l-.09-4.512-14.61-8.57V29.36l18.21 10.31v30.248L40.006 71l1.89-1.083V39.67L60.02 29.36v20.595l-14.52 8.39v4.512L63.98 52.504V24.58L39.825 11zm.18 25.42L22.062 26.024l17.762-10.557 18.19 10.376-18.01 10.58z" fill="#FFF" fill-rule="nonzero"/>
    <path d="M26.093 46.707l3.557-2.03m2.68-1.534l3.556-2.03m3.984-7.308v-4.083m.045-3.045V22.57m0-2.73v-4.103m7.722 27.496l-3.533-2.052m9.567 5.55l-3.556-2.052" stroke="#FFF" stroke-width=".611"/>
  </g>
</svg>
