<svg width="80" height="80" xmlns="http://www.w3.org/2000/svg">
  <g fill="none" fill-rule="evenodd">
    <circle fill="#FFF" cx="40" cy="40" r="40"/>
    <path d="M36.895056 10.072589c-7.52972.499346-17.082336 5.135607-22.614953 14.41514-5.907477 9.908692-5.621496 21.879813.374019 31.404953 5.858972 9.308131 15.365887 13.345514 22.22271 13.798879v-9.136823c-.432337-.091121-.863271-.163738-1.284393-.273645-4.85215-1.26729-8.819159-3.920747-11.942523-7.805327-2.435327-3.029439-4.022243-6.453645-4.459626-10.369345-.203552-1.820748-.182804-3.620187.133177-5.422991.31542-1.797757.870841-3.506636 1.669066-5.153271 1.003738-2.070841 2.281682-3.940374 3.856261-5.60944 1.05757-1.120934 2.196449-2.151308 3.462057-3.038971 1.879626-1.318318 3.882056-2.387664 6.092803-3.035608.820094-.24028 1.64944-.448878 2.491402-.676822v-9.09673zm23.905851 26.797878h9.00813c-.756168-7.094299-3.268878-13.32813-8.305233-18.405981C56.407168 13.325234 50.127355 10.745514 42.957074 10v9.144673c9.727851 2.121589 15.661963 8.010841 17.843832 17.725794m.004935 6.020243c-2.18327 9.728131-8.133084 15.634486-17.84327 17.723832v9.167103c8.934952-1.002897 16.302616-4.698505 21.558223-12.079346 3.136542-4.405234 4.753458-9.395327 5.27243-14.811589h-8.987383z" fill="#FDFEFE"/>
    <path d="M36.895056 10.072589v9.096729c-.841962.227944-1.671308.436542-2.491402.676822-2.210747.647944-4.213177 1.71729-6.092803 3.035608-1.265608.887663-2.404486 1.918037-3.462057 3.038972-1.574579 1.669065-2.852523 3.538598-3.856261 5.609439-.798225 1.646635-1.353645 3.355514-1.669066 5.15327-.315981 1.802805-.336729 3.602244-.133177 5.422992.437383 3.9157 2.024299 7.339906 4.459626 10.369345 3.123364 3.88458 7.090374 6.538038 11.942523 7.805327.421122.109907.852056.182524 1.284393.273645v9.136823c-6.856823-.453365-16.363738-4.490748-22.22271-13.798879-5.995515-9.52514-6.281496-21.496261-.37402-31.404953 5.532618-9.279533 15.085234-13.915794 22.614954-14.41514" fill="#33A3FB"/>
    <path d="M60.800907 36.870467c-2.18187-9.714953-8.115982-15.604205-17.843832-17.725794V10c7.17028.745514 13.450093 3.325234 18.546729 8.464486 5.036355 5.07785 7.549065 11.311682 8.305233 18.405981h-9.00813z" fill="#33A4FB"/>
    <path d="M60.805841 42.89071h8.987383c-.518972 5.416262-2.135888 10.406355-5.27243 14.81159-5.255607 7.38084-12.62327 11.076448-21.558224 12.079345v-9.167103c9.710187-2.089346 15.66-7.9957 17.843271-17.723832" fill="#33A3FB"/>
  </g>
</svg>
