<svg width="80" height="80" viewBox="0 0 80 80" xmlns="http://www.w3.org/2000/svg">
  <title>
    mona-monacoin
  </title>
  <g fill="none" fill-rule="evenodd">
    <circle fill="#000" cx="40" cy="40" r="40"/>
    <g fill-rule="nonzero" fill="#F0DBB0">
      <path d="M39.888 50.087l3.226-5.452H36.79"/>
      <path d="M62.604 32.25l-4.272-19.22-8.394 13.226c-6.525-1.573-13.33-1.573-19.855 0L21.707 13.03 17.42 32.25C12.81 35.93 10 40.74 10 46.02c0 11.566 13.43 20.944 30 20.944s30-9.378 30-20.944c-.003-5.28-2.79-10.09-7.396-13.77zm-39.27 8.803h-1.998l4.88-5.624h3.554l-6.436 5.623zM39.85 54.788l-8.3-14.6 2.05-1.168 1.85 3.252h9.067l1.933-3.267 2.028 1.204-8.628 14.578zm16.844-13.735l-6.44-5.624h3.576l4.877 5.623h-2.014z"/>
    </g>
  </g>
</svg>
