<svg width="80" height="80" viewBox="0 0 80 80" xmlns="http://www.w3.org/2000/svg" xmlns:xlink="http://www.w3.org/1999/xlink">
  <title>
    moon-mooncoin
  </title>
  <defs>
    <path id="a" d="M0 .204075v79.580292h79.795395V.204075H0z"/>
  </defs>
  <g fill="none" fill-rule="evenodd">
    <circle fill="#FFF" cx="40" cy="40" r="37"/>
    <g transform="translate(0 .012)">
      <mask id="b" fill="#fff">
        <use xlink:href="#a"/>
      </mask>
      <path d="M39.897665.204075c-22.03481 0-39.89773 17.814556-39.89773 39.79019 0 21.975417 17.86292 39.790188 39.89773 39.790188 22.03481 0 39.89773-17.81477 39.89773-39.79019 0-21.975632-17.86292-39.790188-39.89773-39.790188" fill="#42C0C1" mask="url(#b)"/>
    </g>
    <path d="M2.711762 26.194695c-.20908.586955-.418162 1.17391-.627027 1.760863.20908-.586954.418162-1.173908.627027-1.760863" fill="#DDF9F9"/>
    <path d="M23.704043 8.9735c3.01708-1.853586 6.34681-2.87806 9.796973-3.468034 10.71373-1.832453 20.407135.58415 28.804108 7.466954 7.007784 5.74426 11.18508 13.204744 12.42119 22.21736 1.392648 10.157196-1.276325 19.221778-7.730595 27.116333-1.75114 2.141887-4.05384 3.83461-6.10336 5.733477-.24454.039892-.50422.039892-.73125.125715-3.05752 1.157304-6.15979 2.189757-9.46011 2.258975-3.03849.063397-6.11265.214556-9.11417-.145337-4.32865-.518814-8.45405-1.957304-12.16303-4.285067-2.16087-1.355903-4.11352-3.041725-6.16-4.57919h5.21946v-25.18577c3.89492 4.000432 7.63892 7.846254 11.43049 11.740378 3.79113-3.901456 7.51805-7.736712 11.45189-11.78523v3.991375c-.20541.24797-.39135.51493-.61881.74091-3.08303 3.06307-6.11935 6.17552-9.28584 9.15019-1.17579 1.10447-1.70551 2.22232-1.58595 3.82598.13275 1.78372.03048 3.5849.03048 5.37854.000215.58954 0 1.1793 0 1.76905l.41492.26975c.33881-.44895.636322-.93736 1.023133-1.34038 3.007783-3.13402 6.029404-6.25488 9.057945-9.36906.26162-.26911.603244-.46103.907676-.68874.00541 3.46609.00368 6.9324.02703 10.39827.002375.33876.15978.67623.24497 1.014126.070053.00216.140324.00431.21038.00647l7.356106-.00194c.06119-.06534.122595-.13089.183567-.19623.005406-6.45649.01081-12.91256.01622-19.36884 1.980322-2.02221 3.982052-4.024363 5.921295-6.08517.34681-.368735.593513-.97294.614485-1.47989.07417-1.78825.03049-3.58167.03114-5.373158.00043-.904584 0-1.809166 0-2.71353-.13059-.07159-.261402-.1434-.392213-.21499-.373838.47504-.703136.994503-1.129298 1.41693-1.650598 1.63558-3.33189 3.24011-5.00173 4.856065V18.8963c-6.56583 6.407548-13.05621 12.74135-19.65167 19.17822-6.40389-6.307277-12.880868-12.68636-19.313517-19.0221v.91407c-.000436 7.3255.00346 14.65078-.002166 21.976064-.004328 5.457035-.02119 10.914286-.032436 16.37132-.20951-.123557-.47567-.20097-.61967-.37779-2.21103-2.710942-4.031786-5.671373-5.340543-8.907384-2.139024-5.289918-2.97362-10.763342-2.478915-16.494878.37254-4.317412 1.49859-8.36938 3.35481-12.232668 1.880863-3.91461 4.44843-7.352885 7.643025-10.317628.303138-.281402.50508-.670836.75395-1.010027" fill="#FCFDFD"/>
    <path d="M23.263805 61.41475c2.046487 1.537466 3.999135 3.223072 6.16 4.578975 3.70919 2.327763 7.83438 3.76647 12.163244 4.285067 3.00129.359893 6.07545.20895 9.11394.145337 3.30054-.06901 6.40259-1.10146 9.46011-2.25876.22702-.08604.4867-.08583.73124-.12572-1.48887.98717-2.91395 2.09186-4.47914 2.93908-4.35265 2.35579-9.02768 3.65002-13.98011 3.9862-9.8653.66932-18.49233-2.28054-25.9066-8.76615-6.21124-5.43332-9.9987-12.29046-11.35092-20.36701-1.46443-8.74652.20021-16.96237 4.94054-24.52852 3.11632-4.97402 7.27827-8.8386 12.31329-11.80593.39157-.23073.84821-.35192 1.27459-.52399-.24887.33941-.45081.72884-.75395 1.01003-3.1946 2.96496-5.76216 6.40323-7.64303 10.31762-1.85622 3.86329-2.982278 7.91547-3.354818 12.23288-.4947 5.73153.339893 11.20474 2.47892 16.49488 1.30876 3.23579 3.129513 6.19644 5.34054 8.90738.144.1766.41038.25423.619676.37779.09016 1.00183.180106 2.00345.270052 3.00528.07092.00323.14162.00668.212322.01013.796756.02825 1.5933.05693 2.390053.08539" fill="#D4D8DA"/>
    <path d="M20.661492 61.319137c-.090162-1.001832-.180108-2.00345-.270054-3.005283.011243-5.457035.027892-10.914285.032216-16.37132.005838-7.325283.001946-14.650566.002378-21.97585V19.0524c6.43265 6.33574 12.909622 12.714824 19.313298 19.0221 6.595675-6.436656 13.085838-12.770672 19.651892-19.17822v13.273963c-2.675244 2.66868-5.350487 5.336927-8.025514 8.005175v-3.991375c-3.933838 4.048518-7.660757 7.883774-11.451892 11.78523-3.791567-3.894125-7.535784-7.739947-11.430702-11.740378v25.185768H23.26387c-.796757-.028248-1.593297-.056927-2.390054-.08539-.032865-.091214-.065946-.182427-.099027-.27364-.03763.08798-.07546.175742-.1133.263504" fill="#232021"/>
    <path d="M51.365687 40.175375c2.675243-2.668248 5.350486-5.336496 8.025513-8.005175 1.669838-1.61639 3.351135-3.220917 5.001514-4.856497.426378-.42221.755675-.941886 1.129513-1.41671.13081.07159.261622.14318.392216.21477 0 .904582.000433 1.80895 0 2.71353-.000648 1.791483.043027 3.584906-.031135 5.37337-.020973.50674-.267676 1.110943-.614486 1.479677-1.939244 2.060808-3.940973 4.062965-5.921514 6.085175-2.618162 2.587385-5.237405 5.173908-7.850162 7.7669-.095135.094448-.126703.252723-.187892.38124-.304432.22771-.646054.419838-.907676.68895-3.02854 3.114177-6.050162 6.234824-9.057946 9.36884-.38681.403234-.684324.891428-1.023135 1.340377l-.41492-.269757c0-.589758.000218-1.1793 0-1.769057 0-1.79364.102272-3.594825-.0307-5.37833-.119353-1.60388.410377-2.721724 1.58616-3.825983 3.166487-2.974663 6.202812-6.08733 9.28584-9.150404.227242-.22576.413404-.49293.61881-.74091" fill="#41C0C0"/>
    <path d="M51.30921 49.91174c.06119-.128516.092758-.28679.18811-.38124 2.612756-2.59299 5.231783-5.17973 7.849945-7.767115-.00519 6.456496-.010595 12.91256-.015784 19.369057-.06118.065337-.12237.13089-.18378.196227-2.45189.00064-4.904.00129-7.35611.00194-.07005-.00216-.14011-.00432-.21038-.00647-.08518-.3379-.24259-.67558-.24497-1.01413-.02335-3.46588-.02162-6.93219-.02702-10.39828" fill="#222021"/>
  </g>
</svg>
