<svg width="80" height="80" viewBox="0 0 80 80" xmlns="http://www.w3.org/2000/svg">
  <title>
    mot-olympus-labs
  </title>
  <g fill="none" fill-rule="evenodd">
    <circle fill="#FFF" cx="40" cy="40" r="40"/>
    <path d="M36.154302 28.384779c1.489545 1.716635 2.949848 3.39956 4.434882 5.110769 1.189431-.24601 2.351457-.486098 3.579823-.74 2.061034 2.594604 4.114381 5.179835 6.23741 7.852386.49128 0 1.047728.051636 1.586465-.02187.268198-.036672.534057-.271005.749618-.469983 2.193212-2.024969 4.375227-4.061449 6.562089-6.09316.158413-.147178.328856-.282187.555447-.475573 4.04353 5.243475 8.058652 10.44995 12.073775 15.65659-.032418.027792-.064836.055418-.097253.08321-3.972178-4.363205-7.944523-8.72641-11.985212-13.164765-1.580783 1.69756-3.11578 3.346116-4.70258 5.050582 1.046726 3.785018 2.09412 7.572996 3.141515 11.361138-.042611.020062-.085222.03996-.127833.060022-4.630893-5.4612-9.261786-10.9224-13.90755-16.401195h-1.96328c-.04094.181053-.080878.358818-.146381.649555-1.990685-2.07496-3.941264-4.10815-6.00848-6.262866-2.97575 8.51263-5.905714 16.894857-8.835677 25.277084-.52587-2.723529-.715864-5.475507-1.094016-8.225675-2.437681-1.070534-4.845117-2.127747-7.279624-3.196965-3.657859 2.952107-7.292658 5.885467-10.927457 8.818827 3.220888-3.90572 6.565431-7.70784 9.901285-11.552716 1.214162.666987 2.398747 1.31753 3.639143 1.998822a1676892.510313 1676892.510313 0 0 0 14.61389-15.314217zm.381527-5.319235c-1.145316-.004605-1.994862-.859223-1.9713-1.98353.02189-1.052608.91438-1.914297 1.985838-1.917586 1.083655-.003453 1.996198.928289 1.974976 2.016418-.021055 1.076782-.878621 1.889138-1.989514 1.884698zm-10.47055 5.749948c-1.13362.01151-2.026277-.849356-2.021432-1.94949.00468-1.040768.915384-1.948173 1.958434-1.951297 1.121754-.003453 2.009232.869089 2.007394 1.973498-.002005 1.086155-.839185 1.915942-1.944397 1.927289zm21.014358 0c-1.114737.009866-1.975144-.794103-2.000878-1.86957-.026402-1.108355.842862-2.016417 1.946904-2.033684 1.08399-.016773 2.029953.910365 2.019425 1.979254-.010527 1.065928-.877451 1.914462-1.965451 1.924z" fill="#33426B"/>
  </g>
</svg>
