<svg width="80" height="80" viewBox="0 0 80 80" xmlns="http://www.w3.org/2000/svg">
  <title>
    msp-mothership
  </title>
  <defs>
    <linearGradient x1="78.623047%" y1="12.8125%" x2="25.107422%" y2="84.404297%" id="a">
      <stop stop-color="#1D1938" offset="0%"/>
      <stop stop-color="#460349" offset="100%"/>
    </linearGradient>
  </defs>
  <g fill="none" fill-rule="evenodd">
    <circle fill="url(#a)" cx="40" cy="40" r="40"/>
    <path d="M18.80546 24.09407c-.156357-.11092-.36165-.124822-.53152-.035995-.16987.088828-.275666.265404-.27392.45717V47.46702c0 .462353.223408.895295.599672 1.162354l4.914946 3.491766c.156013.110665.360772.124764.530465.036525.169693-.08824.275833-.264004.274975-.45535v-14.56824c0-.141177.159912-.22353.275143-.142353l11.86995 8.431768c.218606.155304.34835.407042.348047.675294V60.98585c0 .364705.176373.705882.471505.915294l2.73967 1.94706c.28439.202395.66568.202395.950068 0l2.740847-1.94706c.29603-.210704.471745-.551803.471506-.915295V46.09878c0-.268235.12934-.52.348045-.675294L56.4048 36.99172c.11523-.082353.275142 0 .275142.141176v14.56824c0 .416472.466803.658825.80544.418825l4.914946-3.491764c.376264-.26706.59967-.7.59967-1.162353v-22.95295c.000417-.191134-.105894-.366494-.2755-.45444-.169604-.087947-.3741-.07375-.52994.036792L41.14495 39.047015c-.38607.274896-.90381.274896-1.28988 0L18.80546 24.09407z" fill="#E85D53" fill-rule="nonzero"/>
  </g>
</svg>
