<svg width="80" height="80" xmlns="http://www.w3.org/2000/svg" xmlns:xlink="http://www.w3.org/1999/xlink"><defs><linearGradient x1="0%" y1="50%" y2="50%" id="a"><stop stop-color="#09233D" offset="0%"/><stop stop-color="#10435F" offset="100%"/></linearGradient><path id="b" d="M.02.135h20.054v51.692H.019z"/><path id="d" d="M0 .132h20.035V51.82H0z"/></defs><g fill="none" fill-rule="evenodd"><circle fill="url(#a)" cx="40" cy="40" r="40"/><g transform="translate(42.905 14.041)"><mask id="c" fill="#fff"><use xlink:href="#b"/></mask><path d="M10.783 50.72v-4.768c-.32-.094-.624-.166-.913-.273-.616-.228-1.203-.193-1.828.024-1.213.42-2.448.776-3.673 1.16l-2.333.73-.012.149 8.759 2.979M10.74 8.466V1.303L1.4 5.294c2.508 1.201 4.877 2.341 7.254 3.464.192.09.45.116.659.076.472-.088.932-.236 1.43-.368M19.114 47.4v-.989-9.272c0-9.907-.006-19.815.01-29.722 0-.579-.157-.943-.647-1.276-2.04-1.387-4.048-2.823-6.072-4.236-.166-.116-.36-.194-.585-.313v49.051l7.294-3.243m-19.029.665v-.834c.217-.084.42-.178.632-.245 2.457-.769 4.92-1.518 7.37-2.313.572-.185 1.102-.235 1.668-.045.316.107.645.174.998.267V9.535c-.46.1-.85.154-1.22.273-.441.142-.828.082-1.238-.118C5.72 8.44 3.136 7.206.556 5.96c-.592-.285-.588-.295-.483-1.151.85-.37 1.738-.758 2.628-1.139C5.333 2.544 7.973 1.436 10.594.285c.542-.238.948-.195 1.424.142a648.86 648.86 0 0 0 7.406 5.177c.483.333.65.72.649 1.3-.014 13.398-.017 26.797.001 40.195.001.721-.245 1.086-.898 1.364-2.397 1.02-4.772 2.093-7.15 3.16-.433.195-.824.283-1.31.115-3.324-1.154-6.66-2.276-9.992-3.411-.212-.072-.415-.17-.638-.262" fill="#FFF" mask="url(#c)"/></g><g transform="translate(18 14.041)"><mask id="e" fill="#fff"><use xlink:href="#d"/></mask><path d="M9.283 50.728l8.795-2.99c-1.93-.74-3.864-1.26-5.733-1.957-1.105-.412-2.053-.19-3.062.188v4.76zm-.002-49.45v7.177c.311.088.591.144.854.246.63.244 1.188.153 1.797-.156 1.762-.892 3.558-1.717 5.34-2.57.425-.205.848-.414 1.401-.685L9.281 1.277zm-1.019.233c-.215.135-.36.218-.496.313C5.744 3.239 3.74 4.68 1.692 6.055c-.576.387-.752.808-.751 1.48.018 12.997.014 25.993.014 38.99v.892l7.307 3.239V1.51zm11.773 3.35v.837c-.398.198-.802.405-1.211.6-2.197 1.054-4.405 2.081-6.585 3.167-.705.352-1.367.535-2.123.231-.23-.092-.494-.102-.739-.15-.175.661-.243 33.737-.072 35.368.436-.113.856-.252 1.287-.323.326-.054.692-.105.997-.012 2.712.82 5.414 1.67 8.118 2.515.08.025.152.08.272.144v.865c-.947.328-1.89.66-2.836.981-2.575.875-5.153 1.737-7.723 2.627a1.65 1.65 0 0 1-1.316-.058c-2.4-1.088-4.8-2.176-7.224-3.21-.668-.284-.88-.68-.876-1.38.022-4.564.01-9.128.01-13.692 0-8.81.005-17.62-.014-26.43-.001-.624.2-1.011.702-1.357A648.112 648.112 0 0 0 8.038.451c.436-.309.816-.428 1.34-.201 3.416 1.481 6.843 2.937 10.266 4.403.128.055.248.131.39.208z" fill="#FFF" mask="url(#e)"/></g></g></svg>