<svg width="80" height="80" viewBox="0 0 80 80" xmlns="http://www.w3.org/2000/svg">
  <title>
    mue-monetaryunit
  </title>
  <g fill="none" fill-rule="evenodd">
    <circle fill="#FFF" cx="40" cy="40" r="37"/>
    <path d="M40 0C17.908 0 0 17.908 0 40s17.908 40 40 40 40-17.908 40-40S62.088 0 40 0zm-8.095 21.036c1.596-.988 6.317 6.378 7.208 6.507.89.13 3.193-2.17 4.657-3.383 1.463-1.213 7.88-5.232 8.163-4.817.284.415-4.5 3.193-7.147 5.233-2.65 2.04-4.516 5.152-6.628 5.152-2.113 0-5.935-5.934-6.475-6.592-.253-.27-.39-.632-.376-1.004.013-.37.173-.722.445-.975.048-.044.1-.084.153-.12zm20.65 33.924l-4-16.585-8.563 10.293-8.708-10.3-4 16.584h-7.55L27.29 23.14 39.99 38.698l12.39-15.557 7.49 31.805-7.318.015z" fill-rule="nonzero" fill="#FF9616"/>
  </g>
</svg>
