<svg width="80" height="80" viewBox="0 0 80 80" xmlns="http://www.w3.org/2000/svg">
  <title>
    music-musicoin
  </title>
  <defs>
    <linearGradient x1="0%" y1="50%" y2="63.334961%" id="a">
      <stop stop-color="#FFCA00" offset="0%"/>
      <stop stop-color="#FF9500" offset="100%"/>
    </linearGradient>
  </defs>
  <g fill="none" fill-rule="evenodd">
    <circle fill="#FFF" cx="40" cy="40" r="40"/>
    <path d="M45.79798 5.49495C43.88889 5.176767 41.979798 5 40 5 20.661616 5 5 20.661616 5 40c0 7.424242 2.333333 14.282828 6.257576 19.974747C13.661616 56.439394 19.21212 54 25.646466 54c4.41919 0 8.41414 1.166667 11.277776 3.040404L45.79798 5.49495zm18.59596 9.439393c6.045454 13.363637.742424 20.50505.742424 20.50505C61.035354 23.10101 49.156566 21.29798 49.156566 21.29798s-7.813132 42.10606-7.813132 42.636363c0 4.560607-4.843434 8.414142-11.419192 9.58081C33.106062 74.469696 36.5 75 40 75c19.338384 0 35-15.661616 35-35 0-9.828283-4.065657-18.70202-10.60606-25.065657z" fill="url(#a)" fill-rule="nonzero"/>
  </g>
</svg>
