<svg width="80" height="80" viewBox="0 0 80 80" xmlns="http://www.w3.org/2000/svg">
  <title>
    myst-mysterium
  </title>
  <defs>
    <linearGradient x1="29.085312%" y1="120.172836%" x2="79.607773%" y2="24.59251%" id="a">
      <stop stop-color="#D1165B" offset="0%"/>
      <stop stop-color="#352163" offset="100%"/>
    </linearGradient>
  </defs>
  <g fill="none" fill-rule="evenodd">
    <circle fill="#FFF" cx="40" cy="40" r="40"/>
    <path d="M57.983258 21.858847c.556363 1.231245 1.06402 2.354924 1.56781 3.46987.697113-.710633 1.37659-1.403213 2.074878-2.115022-1.147914-.426985-2.340588-.870512-3.642688-1.354848zM39.19599 17.25858c-.021834-.028214-.043584-.056427-.065335-.08464-1.291266.642113-2.582616 1.284144-3.899748 1.939106.348346.97858.682164 1.916435 1.050665 2.951442 1.009264-1.664358 1.96184-3.235175 2.91442-4.805908zm-17.22802-2.814404c-.994987-.41061-1.946053-.742626-2.838838-1.19052-.725077-.36384-1.331912-.110755-2.019534.133092.7931 1.263153 1.56949 2.49977 2.377454 3.786603.83719-.92106 1.631887-1.79518 2.480918-2.72917zm-9.4832 13.247526c-1.890878-.346206-3.76303-.68897-5.644922-1.03358 1.517002 1.545878 2.99168 3.04868 4.572086 4.659298.207513-.256275.416286-.499618.607843-.755893.120762-.161558.290904-.334703.309295-.515825.07726-.762358.105814-1.52967.155698-2.354zm30.307468-13.9239c-1.69991-1.008138-3.31668-1.966817-4.982326-2.95455-.27142 1.980588-.529322 3.86226-.799483 5.833695 1.96167-.976817 3.82828-1.90636 5.7818-2.879146zm2.337396-6.36052c-.0367-.195145-.053998-.3148-.082047-.431938-.292164-1.220917-.627578-2.433436-.863728-3.665016-.13773-.71836-.61591-1.110496-1.06108-1.529504-1.21182 1.234268-2.39795 2.44242-3.59222 3.658718 1.81378.637496 3.67283 1.29078 5.59907 1.96774zM26.315494 19.74223c-.252694 1.473747-.482294 2.859075-.734148 4.24029-.045013.2467-.013268.410526.169974.5898 1.108108 1.084382 2.203618 2.181695 3.305427 3.272543.078856.078007.174845.138717.321473.253335-.083644-2.20235-.161828-4.3078-.24942-6.412916-.00403-.09581-.068274-.226633-.145955-.27609-.857093-.54614-1.722416-1.07926-2.667352-1.666963zM14.2569 22.778396c.03443.012847.068863.02561.103294.038458 1.376422-1.515565 2.752927-3.030962 4.136402-4.554252-.910336-1.450656-1.806647-2.865038-2.684147-4.291008-.15125-.245694-.32148-.169702-.49716-.110336-.20525.069274-.45441.047946-.47726.406832-.14604 2.298748-.32055 4.595816-.48297 6.893557-.03805.538495-.06567 1.07783-.09817 1.616747zm48.967422-1.05726c-.080704-.08548-.145284-.15803-.214147-.226297-2.252158-2.23452-4.518592-4.45492-6.74673-6.71319-.500518-.50718-1.072333-.45579-1.70873-.54782.044426.12368.05904.17533.080957.22378.803515 1.78057 1.60241 3.56332 2.421292 5.33693.070207.15198.255046.29179.418385.35384 1.65607.62952 3.32256 1.23174 4.97653 1.86622.36161.13872.58063.06306.77244-.29348zM26.89075 16.464732c-.08524.487023-.13168.904687-.23699 1.306985-.088346.337557-.012513.52338.29544.712648 2.655846 1.632283 5.299683 3.28413 7.94797 4.928672.108754.067512.226493.120664.371358.19691-.007978-.100765-.002604-.143673-.015536-.180116-.46113-1.30287-.91588-2.60817-1.397584-3.9034-.056938-.15307-.242617-.29918-.4031-.36644-1.545557-.64782-3.098418-1.2781-4.649265-1.91316-.618172-.25308-1.236427-.50566-1.912293-.78209zM53.81738 12.6652c-2.526686-2.586597-5.144406-5.266566-7.803947-7.989192.007558.133343.001008.203794.016712.268954.527642 2.18413 1.061163 4.366832 1.581834 6.552557.06222.26131.2217.31413.44525.34578 1.32746.18767 2.65358.38475 3.98062.57552.65747.09446 1.31595.18238 1.77952.24636zM9.820526 14.021724c-.038463-.023427-.07701-.046855-.115472-.070282.067268-.00571.137642-.000672.201383-.018725 2.509302-.71181 5.016673-1.430504 7.52883-2.13232.264115-.07381.312236-.20472.312656-.4442.002687-1.481557.01797-2.963114.028133-4.44467.0021-.315223.000335-.630444.000335-1.059528-2.7064 2.77913-5.33117 5.47447-7.95586 8.16972zm42.06449 10.536657c.095064-.1037.13932-.13704.164095-.18129.97752-1.74245 1.95781-3.48322 2.91904-5.23449.06895-.12561.04493-.35032-.01797-.49264-.60902-1.37962-1.25473-2.7432-1.84578-4.13029-.18164-.42614-.41452-.63632-.87758-.6621-.49069-.02729-.97777-.11923-1.49802-.18708.38832 3.65671.76833 7.23498 1.15623 10.88791zM5.772302 17.7849c2.382074 1.169023 4.74349 2.32797 7.163353 3.515465.1604-2.332503.315174-4.583977.4723-6.86996-.135543.02393-.203566.03006-.26823.04828-1.827306.515574-3.65436 1.031818-5.480827 1.55016-.092965.026368-.203566.048955-.267222.112268-.533605.531275-1.05814 1.07162-1.619374 1.643787zm26.636984 13.452244c.12202-.041817.155025-.043244.17241-.060458 1.282027-1.268275 2.563468-2.537305 3.842137-3.809107.056098-.05584.138734-.15971.120175-.20447-.216667-.52397-.173837-1.17499-.743805-1.5285-1.590905-.98673-3.179542-1.97706-4.769942-2.96438-.12512-.07776-.25739-.14401-.39445-.22009 0 .51372-.01327.98236.00244 1.44998.05879 1.76008.1237 3.52.19677 5.27958.00773.18717.02688.42186.1384.54832.46886.53169.97475 1.03064 1.43588 1.5091zM36.43198 8.354877c2.60252 1.54655 5.14835 3.06077 7.69813 4.56836.081377.048113.2233.071037.302495.033335.615065-.29297 1.221647-.60374 1.846033-.91661-.228172-.942894-.439884-1.85262-.677042-2.75571-.031072-.11865-.174005-.25317-.295103-.29616-2.262907-.80468-4.529593-1.598864-6.799302-2.384146-.10606-.036695-.29132-.016207-.36589.055-.56509.539335-1.11172 1.098068-1.70931 1.69593zm-9.67652.082794c-.02427-.13586-.029225-.20555-.049464-.27038-.767235-2.45484-.767487-2.45476-2.62746-4.29596-.198864-.19682-.401254-.39037-.594407-.59265-.50027-.5238-.99625-1.05163-1.58159-1.6704-.46306.50625-.84064.935-1.23584 1.34679-.46458.48417-1.12784.87732-1.36693 1.45074-.24497.58754-.08491 1.34536-.09507 2.02879-.0068.45646-.00126.91317-.00126 1.39398 2.54407.20522 5.03229.40591 7.55201.60912zm29.05853 12.1629c-.101867.16929-.16905.27442-.23002.38307-1.079637 1.92467-2.165154 3.84606-3.228332 5.77979-.116312.21169-.154018.49727-.140582.7438.035943.6548.113708 1.30775.188114 1.95994.024858.21815.024606.48543.149315.63691.334322.40633.730033.76203 1.10752 1.14417.09246-.07733.148223-.11747.196343-.16525 1.478372-1.46787 2.951118-2.94153 4.4394-4.39933.202306-.19817.150994-.34814.0587-.55075-.786297-1.72809-1.567305-3.45853-2.351504-5.18746-.04493-.099-.104386-.19145-.188954-.34486zm-26.26974-4.58138c-.743386-2.05263-1.437055-3.98132-2.150796-5.90255-.040394-.10882-.24077-.21126-.375387-.22386-1.53044-.14325-3.062307-.27172-4.59434-.39734-1.055286-.08665-2.11141-.16273-3.259155-.25056 0 .7145.016628 1.39415-.007138 2.07237-.011422.32664.087254.49374.402764.62096 2.317158.93458 4.625582 1.89091 6.937365 2.83876.97668.40054 1.95487.79721 3.046687 1.24225zM50.854 28.42451c-.058112-.602145-.101782-1.09681-.15427-1.590466-.239424-2.251305-.481956-4.502107-.72197-6.753244-.22666-2.12636-.450212-4.25297-.682667-6.378573-.010246-.094128-.082972-.246785-.147972-.259044-.45793-.086825-.92142-.143924-1.41026-.21446-.13344 1.185566-.25823 2.29455-.38311 3.403536-.26722 2.37465-.52882 4.74998-.80905 7.12313-.03325.28222.03351.46661.23195.66109 1.22862 1.20488 2.44548 2.42151 3.66746 3.63319.10414.10336.21642.1985.40991.37484zM35.409616 9.40752c-.037287-.020657-.07449-.041398-.111777-.062054-.71609.746068-1.4269 1.49751-2.15021 2.236526-.46936.47955-.80931.475603-1.28808.003275-1.09526-1.08052-2.1864-2.165152-3.28032-3.2471-.09876-.097656-.2055-.18725-.39437-.35838.04585.180366.05475.233518.07272.283312.98919 2.74445 1.97544 5.48992 2.97875 8.22917.0571.15576.23321.30892.39143.37946.63715.28423 1.31016.49441 1.92925.81131.54226.2776.996.26274 1.51373-.05038.29771-.18003.42796-.3672.47129-.70585.24623-1.92559.504715-3.84992.783023-5.77122.171065-1.18078.190297-1.17801-.874897-1.73758-.01201-.0063-.02696-.00714-.04056-.0105zM1.798652 21.749434c.945188.958344 1.879458 1.92097 2.83615 2.860672.165776.162817.415446.285916.645214.330504 1.616937.314214 3.238578.604077 4.859127.899566.8036.146526 1.608037.28852 2.44909.43916.06626-.923077.085323-1.7909.20407-2.644954.08969-.645138-.136383-.93794-.71878-1.211512-2.364018-1.110244-4.695872-2.28884-7.04662-3.427633-.14075-.068184-.416875-.084138-.50564.002687-.918903.89881-1.812275 1.823732-2.72261 2.75151zm43.284962 1.058855c.052067-.02326.104134-.04652.156117-.06978.33433-3.00703.66856-6.01406 1.01254-9.10809-1.55345.77445-3.00243 1.4939-4.44653 2.22309-.10312.05214-.18887.16391-.2516.26694-1.50482 2.46954-3.00621 4.9411-4.50389 7.41501-.06181.10202-.14217.24863-.11211.3415.23431.72373.49355 1.4394.74507 2.15759.05039.02426.10069.04845.151.07271.12463-.1692.22994-.3578.37682-.50466 1.39414-1.39415 2.795088-2.78149 4.19477-4.17009.518575-.51448.86398-.51641 1.38289.01192.43921.44722.86381.90863 1.29496 1.36383zm-20.56301.30094c.082635-.46175.152506-.8418.218682-1.22251.322816-1.85665.639166-3.71448.972228-5.56936.05761-.32043-.019063-.47006-.343895-.56797-.54696-.16492-1.08745-.36309-1.60871-.59627-.30174-.13503-.46743-.06777-.67478.1613-2.62847 2.90291-5.24653 5.81581-7.91413 8.68252-.73306.7878-1.33603 1.55763-1.18714 2.69995.01041.08036-.02427.16567-.02948.24913-.03477.559823-.06735 1.11973-.1075 1.79594.20222-.192125.31307-.293476.41956-.39919 2.3028-2.28607 4.60526-4.57264 6.90747-6.85938.57853-.574607.9818-.58099 1.57814-.02435.56955.53152 1.13943 1.06263 1.76953 1.650163zm40.47938-1.19321c-.15763.19388-.298967.40423-.47524.5793-3.344896 3.32275-6.69416 6.64097-10.04166 9.96113-.680736.6752-.92898.67528-1.6208-.01142-3.13789-3.11435-6.27544-6.22886-9.413664-9.34278-.107157-.10631-.220362-.20657-.46558-.4353-.126222.19287-.214736.39591-.360693.54118-3.10396 3.0889-6.21405 6.1715-9.323468 9.25486-.66814.66243-.92957.66017-1.59326.00143-3.15771-3.13391-6.31626-6.26706-9.47505-9.39997-.09708-.09623-.20063-.18591-.40487-.37442-.31862.361822-.60306.724402-.92722 1.047012-2.9549 2.9412-5.91643 5.8756-8.87678 8.811254-.54268.53816-.86172.53539-1.41077-.009237C7.26343 29.21891 3.91551 25.899344.57128 22.576c-.20584-.20455-.38152-.43933-.57131-.66v-.33588c.19802-.23184.38068-.47913.59625-.693333C7.44987 14.07723 14.30619 7.270413 21.16546.466533c.176106-.174654.38933-.31186.58517-.466532h.335916c.194245.15652.40411.29726.580466.47183 3.1787 3.14751 6.353372 6.29922 9.529554 9.44925.095652.09481.199367.18146.389748.35377.105226-.1545.174257-.30036.28192-.40742C36.029886 6.7226 39.194564 3.58071 42.3626.44227c.166362-.164833.3664-.295573.55082-.44227h.419897c.193404.177346.393275.348307.579373.53304 6.873288 6.82025 13.74582 13.641428 20.615077 20.46571.17619.174993.31568.386764.472216.581405v.335878z" transform="translate(8 23)" fill="url(#a)"/>
  </g>
</svg>
