<svg width="80" height="80" viewBox="0 0 80 80" xmlns="http://www.w3.org/2000/svg">
  <title>
    Group 34
  </title>
  <g fill="none" fill-rule="evenodd">
    <circle fill="#FFF" cx="40" cy="40" r="40"/>
    <g transform="translate(11 27)" fill="#4A90E2" fill-rule="nonzero">
      <ellipse cx="4.155224" cy="21.146667" rx="4.155224" ry="4.16"/>
      <path d="M53.671642.52c-2.250746 0-4.155224 1.82-4.155224 4.16 0 3.293333-.519403 4.16-4.155224 4.16h-.346269c-2.077612.173333-3.722388 1.906667-3.722388 4.073333V13c0 3.206667-.60597 3.986667-4.155224 3.986667-.173134 0-.346268 0-.432835.086666-2.077612.26-3.722388 1.993334-3.722388 4.073334 0 2.253333 1.81791 4.16 4.155223 4.16 2.16418 0 3.98209-1.733334 4.068657-3.813334v-.346666c0-2.946667.952239-4.073334 4.068657-4.16h.086567c2.16418 0 3.98209-1.733334 4.068657-3.9v-.26c0-3.033334.952239-4.16 4.155224-4.16 2.250746 0 4.155223-1.82 4.155223-4.16C57.740299 2.34 55.922389.52 53.671643.52zm-24.41194 8.32h-.34627c-3.63582 0-4.155223-.866667-4.155223-4.16 0-2.253333-1.81791-4.16-4.155224-4.16-2.250746 0-4.155224 1.82-4.155224 4.16 0 3.293333-.519403 4.073333-4.155224 4.073333h-.346268C9.868657 8.926667 8.22388 10.66 8.22388 12.826667c0 2.253333 1.81791 4.16 4.155223 4.16 2.16418 0 3.98209-1.733334 4.068657-3.813334v-.26c0-3.033333.952239-4.16 4.155224-4.16 3.202985 0 4.155224 1.126667 4.155224 4.073334 0 2.253333 1.81791 4.16 4.155224 4.16 2.337313 0 4.155224-1.82 4.155224-4.16-.086567-2.08-1.731344-3.813334-3.808956-3.986667z"/>
    </g>
  </g>
</svg>
