<svg width="80" height="80" viewBox="0 0 80 80" xmlns="http://www.w3.org/2000/svg" xmlns:xlink="http://www.w3.org/1999/xlink">
  <title>
    nas-nebulas
  </title>
  <defs>
    <path id="a" d="M0 0h59.990123v59.90064H0z"/>
  </defs>
  <g fill="none" fill-rule="evenodd">
    <circle fill="#FFF" cx="40" cy="40" r="40"/>
    <g transform="translate(10 10)">
      <mask id="b" fill="#fff">
        <use xlink:href="#a"/>
      </mask>
      <path d="M34.059928 41.59663c-4.306463-1.452368-8.550418-2.883677-12.97688-4.376658 2.894205 5.868468 5.69064 11.538552 8.573481 17.383788 1.5-4.431142 2.93883-8.681114 4.403399-13.00713M5.396474 29.671336a323243.107403 323243.107403 0 0 1 12.986908 4.406908c1.463064-4.311643 2.903565-8.556602 4.410585-12.997772-5.875488 2.901226-11.549583 5.703176-17.397493 8.590864m49.035877.701616c-.106128-.099777-.136212-.150251-.178663-.164791-4.29142-1.457716-8.581504-2.918608-12.880947-4.352591-.244847-.08156-.599164-.014039-.843008.105627-4.769081 2.340167-9.52897 4.699053-14.2917 7.052256-1.433649.7083-2.870306 1.410418-4.432144 2.177716.257548.117159.371532.181003.493203.222451 4.159554 1.415098 8.315933 2.839387 12.486852 4.219889.337939.11181.82429.02039 1.160223-.143399 4.799833-2.34 9.586295-4.707743 14.374596-7.071476 1.362284-.672535 2.720557-1.353426 4.111588-2.045682M30.314022 5.37468c-3.185348 9.395097-6.303008 18.590473-9.486016 27.978217 6.36117-3.14039 12.51727-6.179331 18.72234-9.242674-3.059666-6.206407-6.095265-12.364178-9.236324-18.735543m29.6761 24.594819c-2.382785 1.178941-4.595933 2.27649-6.811253 3.369359-5.46635 2.696657-10.93922 5.379443-16.387688 8.111198-.377883.189359-.693593.695933-.840836 1.12312-1.90546 5.523342-3.774819 11.059052-5.654707 16.591253-.06986.205738-.153092.406964-.278106.736212-.173649-.28897-.305515-.476825-.405794-.68039-3.643287-7.386853-7.290083-14.771867-10.911643-22.169415-.29365-.599833-.67638-.92741-1.307967-1.138998-5.566295-1.864345-11.12156-3.762117-16.679833-5.651197-.179665-.061003-.355487-.134374-.712312-.270084.518106-.25337.89716-.437382 1.275042-.6239 7.237103-3.572924 14.471532-7.151197 21.715822-10.708913.544345-.26741.834986-.624569 1.027186-1.197995 1.866351-5.56663 3.762619-11.12323 5.651365-16.68234.071031-.209247.153092-.414651.287967-.777493.251365.499889.447075.882953.637437 1.268524 3.596992 7.285404 7.185126 14.575153 10.812034 21.845515.191532.3839.66518.736212 1.084178.881115 5.54858 1.917158 11.110863 3.79454 16.669638 5.68245.209248.071032.417326.146742.82947.291979" fill="#000" mask="url(#b)"/>
    </g>
  </g>
</svg>
