<svg width="80" height="80" viewBox="0 0 80 80" xmlns="http://www.w3.org/2000/svg" xmlns:xlink="http://www.w3.org/1999/xlink">
  <title>
    nav-navcoin
  </title>
  <defs>
    <path id="a" d="M.02163 0h5.02601v15.863442H.02163V0z"/>
  </defs>
  <g fill="none" fill-rule="evenodd">
    <circle fill="#FFF" cx="40" cy="40" r="40"/>
    <path d="M57.016807 24c-.004538.100643-.00895.201286-.013362.301804l-3.260168 6.60204c-.867857 1.758493-1.74605 3.512093-2.601428 5.276736-1.16559 2.404392-2.31366 4.817067-3.46929 7.226102-.09593-.047937-.23685-.0704-.28109-.147702-.78504-1.371608-5.6371-10.076235-6.14836-10.976-1.46496-2.635168-2.92979-5.270462-4.39475-7.90563-.00693.027858-.01614.055968-.02584.084203.0097-.028235.01891-.056345.02584-.084204-.04185-.12587-.08383-.25161-.12567-.37735h-12.9832c-.01374.03626-.01841.07366-.01362.11218.09378.08997.09378.08997 0 .00012-1.22597 2.8421-2.45181 5.68408-3.67752 8.52618-.05231.08822-.11509.17192-.15517.26528-2.26828 5.28615-4.53832 10.57154-6.79966 15.8607-.95723 2.23874-1.89593 4.48527-2.84307 6.72828-.08345.12724-.16689.25449-.25046.38174V56c2.31075-.007028 12.95445-.02171 12.95445-.02171.11382-.304565.21454-.574368.31525-.844172 1.16659-2.72226 6.271-14.606055 7.65668-17.825883.13538.131514.31008.240565.40008.397804 1.00008 1.74694 9.60517 17.15413 10.05895 17.91749l.01651.03451h.00012c.0547.11369.10865.22588.1534.31874H54.3556c-.0837-.15724-.0837-.15724 0 0l.28437-.47059C55.54655 53.66224 69.03508 25.96643 70 24H57.016807z" fill="#2B8EE0"/>
    <g transform="translate(55.756 24)">
      <mask id="b" fill="#fff">
        <use xlink:href="#a"/>
      </mask>
      <path d="M1.247092.30178c.004412-.10052.00895-.201162.013362-.301805h3.781512c.002017 3.431278.003782 6.862557.005673 10.29371-.0895.16527-.17874.33054-.26811.495937-.07778.025976-.18316.028235-.22929.081443-1.10068 1.26695-2.19492 2.53917-3.2903 3.810635-.39895.380738-.79778.76135-1.23832 1.181742.04008-.687436.06466-1.339608.11836-1.989396.15718-1.900048.33101-3.798714.48857-5.69876.10122-1.219766.18202-2.441162.27781-3.66143.11017-1.404234.22689-2.808093.34071-4.212077" fill="#40B1EB" mask="url(#b)"/>
    </g>
    <path d="M60.80398 34.293748l-.005673-10.29371h9.20168c-.964916 1.96643-1.929705 3.932862-2.89462 5.899294-.08458-.349616-.182648-.696722-.24933-1.04985-.058865-.31059-.082562-.627954-.121638-.942307-1.31496 1.243357-2.42647 2.503404-3.54656 3.756047-.7887.88207-1.58887 1.753976-2.38387 2.630526" fill="#26C0EF"/>
    <path d="M23.725832 24.112188c-.004664-.038525-.000126-.07592.013613-.112188h12.857143c-.04147.125616-.08294.251106-.12441.376722-.04185.08483-.0837.169537-.125548.254368l.002395-.00138c-.163865.11294-.362395.196894-.48605.343466-1.152983 1.367342-2.305084 2.735812-3.431975 4.12436-.571134.703625-1.090462 1.449162-1.63311 2.17575-.083823 0-.167646-.000125-.251344-.000125-.080042-.14029-.136008-.30318-.244033-.41725-.87353-.92436-1.75979-1.83692-2.636345-2.75852-.53105-.5583-1.03147-1.1471-1.582815-1.68445-.59042-.57537-1.224454-1.10644-1.83958-1.65697l-.12668-.14306c-.03668-.07692-.073362-.15372-.110043-.23052-.093655-.0901-.187437-.18008-.281218-.27018" fill="#7659B9"/>
    <path d="M36.472126 24.376772c.041597-.125616.083067-.251106.124538-.376722h.12605c.04185.12574.083698.251483.125546.377224-.027352.111435-.092395.228266-.076764.333176.31437 2.108486.636806 4.215718.96 6.322824.326596 2.127937.660756 4.254745.981176 6.383686.114076.757835.197773 1.520188.31727 2.451075-.78454-.74077-1.419077-1.34011-2.05374-1.939326-.756303-.79486-1.512605-1.58959-2.268782-2.38432-.674243-.71116-1.34836-1.42231-2.02248-2.13334-.00088-.08383-.00189-.16766-.002898-.25148.491345-1.09817.99769-2.18981 1.47063-3.29575.74395-1.73967 1.465462-3.48901 2.196303-5.23407 0 0-.00227.00138-.002395.00125.04185-.08471.083697-.16954.125546-.25425" fill="#8B80D9"/>
    <path d="M10 55.87451c.08357-.127247.167017-.254494.250462-.38174.094034-.037648.220462-.048566.27731-.116958 1.262648-1.51517 2.50727-3.045396 3.777732-4.55404.814286-.967027 1.664748-1.904062 2.49895-2.8544.04273.215593.122017.43106.122773.646777.00857 2.45496.005168 4.90992.004916 7.36489-2.31063.0069-4.621387.01393-6.932143.02096v-.12549z" fill="#C121B9"/>
    <path d="M36.97614 37.92867c.634662.599217 1.269326 1.198558 2.053738 1.939327-.11937-.93076-.203067-1.69324-.31727-2.451075-.32042-2.128815-.65458-4.255623-.98105-6.383686-.323318-2.107106-.64563-4.214337-.96-6.322823-.01563-.10491.049413-.221742.076766-.33305 1.464958 2.635167 2.92979 5.27046 4.394747 7.90563-.07827.207435-.22348.41437-.22474.622306-.0155 2.59752-.00113 5.19529-.0213 7.79281-.00264.3328-.15718.66447-.24138.99664-.54012-.49908-1.08025-.99815-1.61697-1.49409.76488 5.13581 1.53265 10.29183 2.30055 15.44784l-.03731.00954-.01651-.03451c-.45378-.76348-.92634-1.51643-1.35756-2.29233-1.15298-2.07486-2.28819-4.15963-3.43059-6.24038.08395-.2043.23975-.4081.24101-.6129.01652-2.61196.00757-5.22403.01639-7.83611.00076-.23781.07916-.47548.12151-.71316" fill="#747AD8"/>
    <path d="M57.003395 24.30178c-.113824 1.403983-.230546 2.807842-.340714 4.212077-.09579 1.220267-.17659 2.441663-.27781 3.661428-.15756 1.900047-.33138 3.798713-.48857 5.69876-.0537.64979-.07828 1.30196-.11836 1.989397.44055-.420393.83937-.801004 1.23832-1.181742.0421.347734.11988.695467.12088 1.043326.00946 3.204016.00139 6.408157.01488 9.612047.00089.212706.13538.42491.20773.63724-.90668 1.843952-1.81323 3.687905-2.71979 5.531983-.00264-.77051-.05281-1.544282.00126-2.31065.13689-1.940832.31652-3.878652.48694-5.816973.11231-1.277867.2487-2.5536.35521-3.83197.09378-1.123512.16072-2.249285.2463-3.4693-.62231.668737-1.18033 1.26833-1.73836 1.86792-.00013-3.392626.0058-6.78538-.01084-10.17788-.00151-.288252-.15454-.57575-.2371-.863625 1.08668-2.200722 2.17336-4.401318 3.26005-6.60204" fill="#34A3E7"/>
    <path d="M26.769634 46.967467c-1.166596 2.72226-2.333193 5.444517-3.499916 8.16665-.095546-.23793-.273403-.475607-.274285-.713913-.016765-4.29302-.009832-8.586165-.017647-12.87931-.000504-.28411-.078908-.56822-.12101-.852204.50433-.668486 1.008783-1.336972 1.51311-2.005584l2.01542-2.2592c.042354.237804.120883.475482.12164.713286.00832 2.989302-.00164 5.97873.016638 8.967906.001765.287875.160336.57487.24605.86237" fill="#A13DC3"/>
    <path d="M54.355592 55.976772H41.555424c-.04916-.102275-.109664-.227765-.170042-.353255l.016513.03451s.03731-.009538.03668-.00979c.110673-.04869.22185-.097003.333026-.145442.21265-.154855.46097-.278086.63253-.46946 1.76937-1.973834 3.52639-3.958712 5.28668-5.940453.05257.033254.11446.0576.15631.10102 1.80101 1.871936 3.59622 3.749395 5.40404 5.61468.25362.261774.56761.465696.85362.696347.08357.15723.16715.3146.25084.47184" fill="#0B3FBC"/>
    <path d="M16.932155 55.97898c.000127-2.454964.003656-4.90993-.005042-7.364768-.00063-.215843-.079916-.43131-.122647-.646902.671723-.855592 1.341933-1.71244 2.015673-2.566526.54592-.692078 1.09588-1.380768 1.64407-2.070964.16714-.127122.33428-.25437.50143-.38149.0421.21647.12037.432815.12075.649286.0068 4.12687.00441 8.25374.0039 12.380737-1.38605.000125-2.7721.000376-4.15815.000627" fill="#B829BB"/>
    <path d="M57.35969 49.974325c-.072354-.21233-.20685-.424534-.207606-.63724-.013487-3.20389-.005546-6.40803-.015-9.612047-.001008-.347858-.07878-.695592-.120882-1.043325 1.095378-1.271467 2.189622-2.543686 3.290294-3.810635.04626-.053208.151638-.055467.229538-.081443.045756.21396.130084.427796.131092.642007.009706 2.20637.001513 4.412863.01185 6.619357.001133.26277.082058.5253.12605.78795-.36353.71868-.740295 1.43109-1.08706 2.1578-.31979.67037-.593445 1.3627-.91273 2.03332-.470043.98698-.962522 1.96342-1.445547 2.94425" fill="#25AAEA"/>
    <path d="M60.805088 42.838915c-.04399-.262652-.125042-.525177-.126176-.787953-.010336-2.20637-.002143-4.412863-.01185-6.619357-.001007-.214212-.08521-.428047-.13109-.642008.089242-.16527.178486-.330667.267982-.495937.795-.876424 1.595168-1.74833 2.383865-2.630526 1.12008-1.252643 2.23159-2.51269 3.54655-3.75592.0392.31435.0629.63159.12164.942304.06668.353004.16487.700236.24932 1.04985-1.30349 2.698794-2.60231 5.399844-3.91236 8.0955-.78693 1.619074-1.59139 3.229615-2.3879 4.844047" fill="#03B9ED"/>
    <path d="M26.769634 46.967467c-.085714-.287498-.244285-.574494-.24605-.86237-.018277-2.989175-.00832-5.978603-.01664-8.967905-.000755-.237804-.079284-.475482-.121637-.713286.84063-1.004047 1.681134-2.008094 2.521638-3.01214.090126.137034.186807.27018.269244.411607.62546 1.073568 1.24827 2.148768 1.87184 3.223466-.04046.08721-.08105.1743-.12164.26139-1.38555 3.21983-2.77122 6.43953-4.15677 9.65923" fill="#8F4BC7"/>
    <path d="M21.090345 55.978303c.000504-4.12687.002773-8.25374-.004034-12.380737-.00037-.21647-.07865-.432816-.12063-.649287.63038-.75307 1.26076-1.50639 1.89114-2.25958.0421.28398.12038.56797.12101.8522.00782 4.29314.00076 8.58629.01765 12.87918.00089.23843.17874.47598.27429.71404-.10071.2698-.20155.5396-.31525.84417h-1.86416z" fill="#A837C0"/>
    <path d="M54.355592 55.976772c-.083697-.15724-.167268-.314604-.250714-.47197-.418487-.838148-.83685-1.676297-1.255462-2.514446.086597-.235168.24706-.469835.24857-.705506.017396-2.833568.01374-5.667388.005674-8.500957-.00063-.19501-.080547-.389772-.12353-.584658.33706-.418008.674118-.83589 1.01105-1.253898.558152-.599593 1.11605-1.19931 1.738362-1.867922-.085462 1.21989-.15252 2.345788-.246177 3.469302-.106512 1.27837-.2429 2.554102-.355336 3.83197-.17042 1.93832-.34992 3.87614-.48681 5.816846-.05408.766494-.00404 1.540266-.00126 2.31065l-.28437.47059" fill="#1F94E3"/>
    <path d="M36.97614 37.92867c-.042354.23768-.120758.475358-.121514.713162-.008823 2.61208.000126 5.224157-.016386 7.83611-.00126.2048-.15706.408596-.24101.612894-.76437-1.377004-1.528738-2.754133-2.292982-4.131137.09189-.23254.26105-.46419.26357-.69773.021052-2.02265.008195-4.04581.017648-6.06883.00101-.21647.079412-.43257.12189-.64879.756178.79473 1.51248 1.58958 2.268783 2.38431" fill="#7F71D5"/>
    <path d="M34.707357 35.544358c-.04248.21622-.120882.432313-.12189.648784-.009454 2.023027.003403 4.04618-.017648 6.06883-.00253.23354-.17168.465193-.26358.697727-.99063-1.75235-1.97773-3.50683-2.97782-5.25365-.09-.15724-.26471-.26629-.40009-.39781l.12176-.2614 1.6369-3.63582c.67412.71115 1.34823 1.42218 2.02235 2.13333" fill="#896BD2"/>
    <path d="M20.464277 43.329845c-.548193.690196-1.098277 1.378886-1.644075 2.070964-.67374.85408-1.34395 1.71093-2.0158 2.56652-.8342.95046-1.684536 1.88737-2.498948 2.8544-1.270462 1.50864-2.515084 3.03887-3.777605 4.55416-.05698.06826-.18328.07931-.27732.11683.94714-2.24301 1.88584-4.48954 2.84294-6.72828 2.26147-5.28904 4.53139-10.57456 6.79966-15.86071.04008-.09337.10298-.17707.15517-.26529.09592.30218.27315.60386.27529.90666.02067 3.02418.00958 6.04862.01802 9.07281.00075.23742.07991.4746.12264.7119" fill="#C340C1"/>
    <path d="M20.464277 43.329845c-.04273-.237302-.12189-.47448-.122647-.711906-.008445-3.02419.002647-6.04863-.018025-9.07282-.002143-.30281-.17937-.60449-.275294-.90667 1.22584-2.84198 2.45169-5.68408 3.67753-8.52618.09378.08997.18757.17995.2811.26993.03668.07692.07336.15372.11017.23077.04223.04756.08446.09537.12668.14306.09013.24847.18013.49706.26988.74566-.09.22073-.25739.44109-.2584.66208-.01588 3.88655-.01424 7.77298-.00605 11.65954.00063.28662.07866.57324.12076.85986-.50445.66848-1.00878 1.33697-1.51323 2.00558-.63038.75319-1.26063 1.50638-1.89101 2.25957-.16727.12712-.33428.25437-.50143.38149" fill="#AC50C7"/>
    <path d="M53.99123 41.94535c-.337058.418007-.674117.83589-1.01105 1.253897-.172058.176565-.347772.349867-.515545.530322-1.003488 1.07883-2.00521 2.1593-3.007438 3.23927-.590168-1.08499-1.180336-2.16998-1.77063-3.25497-.004664-.1024-.009327-.2048-.01399-.30708 1.15563-2.40916 2.303696-4.82184 3.469158-7.22623.855378-1.76465 1.733572-3.51825 2.60168-5.27674.082438.28787.235463.57537.236976.86362.01677 3.3925.01084 6.78525.01084 10.17788" fill="#4699E3"/>
    <path d="M47.672576 43.406745c.004663.1024.009327.204675.01399.30695-.12378.118964-.29193.216093-.364158.360658-.478614.956737-.936555 1.923765-1.401177 2.887404-.12567-.06262-.28109-.096753-.37235-.192-1.0147-1.05876-2.01945-2.126808-3.02685-3.19247.08383-.237554.23849-.474605.24051-.712785.01853-2.233098.00467-4.466447.02156-6.699545.00164-.206808.15139-.412486.23244-.618667.68017 1.195294 1.36273 2.389334 2.04013 3.586134.77849 1.375498 1.54979 2.754886 2.33484 4.12662.04425.077176.18517.099764.2811.1477" fill="#5B8ADE"/>
    <path d="M43.016475 35.546328c-.080925.20618-.230798.41186-.23231.618666-.017018 2.233098-.003026 4.466322-.021682 6.69942-.00189.238306-.156554.475357-.240378.71291-.588908-.627576-1.17769-1.255028-1.76647-1.88248.0842-.332297.23874-.663842.241386-.996767.02017-2.597522.0058-5.195294.02131-7.792816.00126-.20781.14647-.41487.22475-.6223.51139.89977 1.02593 1.79778 1.53126 2.70093.0992.1772.16236.37434.24215.56245" fill="#6A80DA"/>
    <path d="M24.513836 25.501653c-.09-.248596-.18-.497066-.27-.745662.615.5504 1.249034 1.08148 1.839454 1.65698.551344.53723 1.051765 1.12603 1.58294 1.68446.876556.9216 1.76269 1.83417 2.636346 2.75853.1079.11407.163865.27696.243907.41738-.54416.67125-1.088445 1.3425-1.632605 2.01374-.602773-1.07281-1.203025-2.14701-1.808697-3.21819-.86168-1.52357-1.72739-3.04489-2.59134-4.56721m11.83519-.87193c-.73096 1.74519-1.45235 3.4944-2.1963 5.23407-.47294 1.10595-.97928 2.19771-1.47063 3.29588-.62811-.62883-1.25622-1.25753-1.8842-1.88636.54265-.72659 1.06198-1.47213 1.63311-2.17575 1.12689-1.38855 2.279-2.75702 3.43198-4.12436.12366-.146575.32219-.23053.48605-.34347" fill="#6149B6"/>
    <path d="M30.79789 31.27335c.627984.628705 1.256093 1.257536 1.884202 1.886242.00101.083828.00189.167655.0029.251483l-1.63689 3.635827c-.6237-1.074698-1.246388-2.150024-1.871976-3.223467-.082437-.141553-.179118-.274698-.269118-.411608.001513-.041662.003782-.0832.006807-.124737.544286-.671247 1.088446-1.342494 1.63273-2.01374.0837-.000126.167522 0 .251346 0" fill="#582FA9"/>
    <path d="M40.755685 41.694795c.58878.62745 1.177563 1.254902 1.766344 1.88248 1.00739 1.06566 2.01214 2.133708 3.02684 3.19247.09126.095246.24668.12938.37235.192.00164.043293.00315.086587.00466.129756-.06328.08057-.14294.1531-.18731.24283-1.30727 2.64107-2.61152 5.28364-3.91299 7.92747-.03542.07191-.03681.16038-.05395.24107-.11118.04832-.22235.09676-.33303.14532-.76727-5.15576-1.53517-10.31165-2.29992-15.44747.53672.49594 1.07685.99501 1.61697 1.49409" fill="#5474D6"/>
    <path d="M28.91384 33.287065c-.003025.041537-.005294.083075-.006932.124737-.840505 1.004047-1.68101 2.008095-2.52164 3.012142l-2.015293 2.2592c-.0421-.28662-.120126-.573114-.120756-.85986-.0082-3.88643-.00984-7.772988.00605-11.65942.00088-.221113.16827-.441473.2584-.66221.8642 1.52232 1.72979 3.04364 2.59147 4.567215.6058 1.07118 1.20605 2.14538 1.8087 3.21819" fill="#A555C9"/>
    <path d="M45.925844 47.09154c-.001512-.043295-.003025-.086464-.004537-.129884.464622-.963513.922563-1.93054 1.40105-2.887278.072353-.144565.240378-.241694.364286-.36066.590168 1.085115 1.180336 2.170103 1.770504 3.25509.287773.529444.567983 1.063154.864958 1.587452.83874 1.480157 1.684412 2.956298 2.52731 4.43407.418614.83815.836976 1.6763 1.255463 2.514448-.286134-.230526-.600126-.434447-.85374-.696094-1.807814-1.865412-3.603025-3.74287-5.404033-5.614808-.04185-.04342-.10374-.067765-.156303-.10102-.125294-.184847-.230168-.388517-.379915-.551278-.45227-.491796-.92206-.96778-1.385043-1.45004" fill="#2864CA"/>
    <path d="M45.925844 47.09154c.462984.482258.932774.958242 1.385043 1.450038.149747.16276.25462.36643.379915.551278-1.760294 1.981742-3.51731 3.96662-5.28668 5.940455-.171555.1915-.42.31461-.632647.46946.017395-.08056.018655-.16903.054075-.24094 1.301597-2.64382 2.60584-5.28652 3.912984-7.92746.044495-.08985.12416-.16226.18731-.24282" fill="#2D4DBF"/>
    <path d="M52.849454 52.990318c-.8429-1.477772-1.688572-2.953913-2.52731-4.43407-.297102-.524298-.577186-1.058008-.86496-1.58745 1.002354-1.079844 2.00395-2.160315 3.007438-3.239154.167773-.180455.343487-.353757.515546-.530322.042983.19476.1229.389647.12353.584534.008067 2.833694.011722 5.667388-.005673 8.500957-.001512.23567-.161975.470337-.24857.705505" fill="#2B8EE0"/>
  </g>
</svg>
