<svg width="80" height="80" viewBox="0 0 80 80" xmlns="http://www.w3.org/2000/svg" xmlns:xlink="http://www.w3.org/1999/xlink">
  <title>
    nebl-neblio
  </title>
  <defs>
    <path id="a" d="M.00012 58.39796h55.917506V.370613H.00012z"/>
    <path id="c" d="M0 29.466527V58.39796h55.918107V.370254H0v29.09627h13.019037v-14.59527H-.00006V29.46653z"/>
  </defs>
  <g fill="none" fill-rule="evenodd">
    <circle fill="#FFF" cx="40" cy="40" r="40"/>
    <g transform="translate(12 11.232)">
      <mask id="b" fill="#fff">
        <use xlink:href="#a"/>
      </mask>
      <path d="M28.292163 13.08349l-1.24043.575552-.002408.001204 1.242838-.576755zm-.177633 16.38334v13.875234l12.674666-6.869285V22.59754L28.11453 29.466827zm15.10916 8.185347v.104755l-1.194064.647796-12.75415 6.91203-1.07243.581572-.08129-.04395-1.07243-.58157-12.998023-7.04448-.000602.000602-1.00739-.546653-.0018-.04275h.0006l-.02288-.57375V21.26763l.55217-.302827.479914-.260083 12.99742-7.04448.00301-.001202 1.07002-.579163.08129-.045156.08912.04876.98331.532806 12.75355 6.912632h.0006l1.194064.647192v16.47605zM54.803647 15.00581c-.76714-1.30101-1.90159-2.408766-3.32086-3.178174l-9.45316-5.123368h-.000603v-.000602l-9.63501-5.222102C31.070484.765134 29.598227.396082 28.121754.3714V.372c-1.37772-.02348-2.760258.251052-4.031398.830215L14.07599 6.629613l-.0006-.000602-.02469-.01324v.02709L3.893024 12.14792c-1.121807.71402-2.040086 1.64839-2.70185 2.72303v.000603C.424034 16.117175.00012 17.548828.00012 19.03888v10.412295l.029506.01505v.000603l-.029506.015653v10.24734c0 1.53822.455226 3.01442 1.271742 4.28834H1.27126c.76172 1.18964 1.838366 2.20407 3.1637 2.92171l9.61574 5.21247.000603-.0006.152344.08308 9.320688 5.051126c1.41987.77001 3.011355 1.137858 4.59742 1.110766 1.476473-.025285 2.94873-.393132 4.272258-1.110764l9.48327-5.13962.152343-.081877 9.45316-5.12457c1.373507-.74412 2.48327-1.80492 3.249205-3.051744.76413-1.243815 1.18564-2.67306 1.18564-4.158295V19.03828c0-1.43647-.39742-2.818152-1.11398-4.03247z" fill="#657BBC" mask="url(#b)"/>
    </g>
    <g transform="translate(12 11.232)">
      <mask id="d" fill="#fff">
        <use xlink:href="#c"/>
      </mask>
      <path d="M13.019037 22.426863v-1.14508L1.190994 14.87125C.423854 16.116875-.00006 17.54913-.00006 19.03858v10.412295l.029505.015653 12.989592-7.039663z" fill="#008BCC" mask="url(#d)"/>
    </g>
    <path fill="#4F82C3" d="M12.029626 40.698433l12.98959 7.039663V33.65877"/>
    <path d="M66.803828 26.237412L55.22387 32.513086v1.145683l12.693937 6.87891v-10.2678c0-1.43647-.39742-2.81816-1.11398-4.03247" fill="#5C6CB2"/>
    <path d="M25.019037 48.297452v-.559296l-12.989592-7.039663-.029505.015653v10.247337c0 1.538214.455226 3.014418 1.271742 4.288337l11.770236-6.378623-.02288-.573745z" fill="#00A6E1"/>
    <path fill="#587EBF" d="M54.029325 31.760475V17.93581l-12.75415 6.912032"/>
    <path d="M55.22363 32.40779v.105356l11.579957-6.275674c-.76714-1.30101-1.90159-2.408765-3.32086-3.178173l-9.45316-5.12337v13.82466l1.194063.64719z" fill="#6161AB"/>
    <path fill="#0062A1" d="M40.114288 54.573607l12.674667-6.869286v-.13666l-12.674667-6.86928"/>
    <path fill="#1CAAE1" d="M26.07545 17.860917l-.02469-.013245v.02649"/>
    <path fill="#00A1DC" d="M26.051062 49.460113V63.38351l.152344.083083 12.845678-6.962"/>
    <path d="M25.043484 48.914183l-.001807-.043347L13.27144 55.25006c.76172 1.189633 1.838366 2.204072 3.1637 2.921704l9.615742 5.211868V49.460234l-1.007398-.54605z" fill="#33ACE2"/>
    <path d="M40.202804 24.266692l1.07243.58157 12.75415-6.91263-9.635612-5.222103c-1.323527-.71704-2.795183-1.08548-4.272258-1.11017v12.70788l.08129-.04455z" fill="#8485C0"/>
    <path d="M39.049024 24.892272l1.07243-.58097V11.603427c-1.37772-.02348-2.760258.25105-4.030796.830214l-10.014968 5.4274 12.973334 7.03124z" fill="#5A71B6"/>
    <path fill="#5E68B0" d="M26.07545 17.860917l-.02469.013245v14.06247l12.998023-7.04448"/>
    <path d="M25.019037 32.49948l.552172-.302827.47991-.260082V17.87411l-10.15828 5.50566c-1.12181.71402-2.04009 1.648387-2.70185 2.72303l11.82804 6.41053v-.013847z" fill="#5874B8"/>
    <path d="M40.202804 57.129933l-.08129-.04395V69.6283c1.477075-.025286 2.94873-.393133 4.272258-1.110765l9.48327-5.139623-12.601808-6.82955-1.07243.58157z" fill="#008ECF"/>
    <path d="M39.049023 56.504413l-12.845677 6.962 9.320688 5.051122c1.420473.77001 3.011957 1.137857 4.59742 1.110765V57.085984l-1.07243-.58157z" fill="#24AAE1"/>
    <path fill="#389BD6" d="M41.275355 56.548482l12.601806 6.82955.15235-.08248v-13.6591"/>
    <path d="M55.22363 48.988896l-1.194064.647194v13.659704l9.45316-5.12397c1.373506-.744122 2.48327-1.804918 3.249205-3.051744l-11.5083-6.23654v.105356z" fill="#1F98D4"/>
    <path d="M55.22363 48.883358l11.5083 6.23654c.76413-1.243815 1.185636-2.67306 1.185636-4.158295V40.858756l-12.693936 6.87952v1.145082z" fill="#6496CF"/>
    <path fill="#4277BB" d="M55.22363 47.738337l12.693936-6.87952v-.320888L55.22363 33.6584"/>
    <path fill="#657BBC" d="M52.789136 47.56784V33.829266L40.11447 40.698553"/>
  </g>
</svg>
