<svg width="80" height="80" viewBox="0 0 80 80" xmlns="http://www.w3.org/2000/svg" xmlns:xlink="http://www.w3.org/1999/xlink">
  <title>
    neos-neoscoin
  </title>
  <defs>
    <linearGradient x1="9.990234%" y1="17.626953%" x2="87.15332%" y2="87.382813%" id="a">
      <stop stop-color="#33C7D3" offset="0%"/>
      <stop stop-color="#0E6D8B" offset="100%"/>
    </linearGradient>
    <path id="b" d="M22.191898.113497H.084236V45.84602h22.107662V.113497z"/>
    <path id="d" d="M22.114353.113497H.055647v45.686615h22.058706V.113497z"/>
    <path id="f" d="M5.093214.113497H.000084v45.693725h5.09313V.113497z"/>
    <path id="h" d="M5.093138 45.814175V.113497h-5.0329v45.700678h5.0329z"/>
    <path id="j" d="M15.98795.113497H.082265v35.130425H15.98795V.113497z"/>
    <path id="l" d="M19.846445.113497H.099793v11.349628h19.746652z"/>
    <path id="n" d="M8.11953.113497H.099793v4.679177H8.11953V.113497z"/>
    <path id="p" d="M8.200938 4.810458H.088112V.032486h8.112825v4.777972z"/>
  </defs>
  <g fill="none" fill-rule="evenodd">
    <circle fill="url(#a)" cx="40" cy="40" r="40"/>
    <g transform="translate(34.704 17.037)">
      <mask id="c" fill="#fff">
        <use xlink:href="#b"/>
      </mask>
      <path d="M22.191898.113452V45.84602c-.39327-.178588-.64173-.26758-.866737-.396863-6.84794-3.935405-13.6909-7.87953-20.5455-11.80336-.49843-.28532-.70952-.59785-.69469-1.181868.04071-1.59888.01407-3.19926.01407-5.03159 5.74244 3.30268 11.33961 6.52177 17.09944 9.83453V.11345h4.99342z" fill="#000005" mask="url(#c)"/>
    </g>
    <g transform="translate(23.053 17.037)">
      <mask id="e" fill="#fff">
        <use xlink:href="#d"/>
      </mask>
      <path d="M.25111.113452c4.331716 2.504895 8.662525 5.011294 12.995604 7.513934 2.744263 1.585046 5.485802 3.175203 8.24444 4.735294.456218.25796.634316.54674.622665 1.065066-.03178 1.426902-.00878 2.854856-.01317 4.28236-.00061.214365-.03117.42873-.05917.78741C16.37305 15.23723 10.80765 12.03617 5.10577 8.75664c-.029204.503447-.068243.862427-.068243 1.221407-.00333 11.54525-.002574 23.090648-.002876 34.635896-.00015 1.181418-.00136 1.18187-1.18102 1.18202-1.05875.00015-2.11781-.012778-3.17627.003908-.44623.00722-.66488-.14596-.61464-.60927.01619-.14852.00182-.30035.00182-.45053 0-14.57568-.0003-29.15137.001368-43.72706 0-.29975.02209-.59965.033895-.89955h.15132z" fill="#000005" mask="url(#e)"/>
    </g>
    <g transform="translate(17 17.037)">
      <mask id="g" fill="#fff">
        <use xlink:href="#f"/>
      </mask>
      <path d="M5.093214.113452l-.00681 44.269437c-.00015.25044-.017703.50239.00212.75133.038433.48285-.165994.67376-.65656.66625-1.235494-.01879-2.472046-.03052-3.706632.00586-.58423.01729-.73615-.21722-.72465-.75149.042065-1.9526.072933-3.90579.07384-5.85899C.080728 26.5188.07755 13.84174.07861 1.16468c0-.35041.013768-.700824.021183-1.051234h4.99342z" fill="#000005" mask="url(#g)"/>
    </g>
    <g transform="translate(57.855 17.037)">
      <mask id="i" fill="#fff">
        <use xlink:href="#h"/>
      </mask>
      <path d="M5.093214.113452c-.009382 2.25355-.02633 4.507098-.026783 6.760797-.00257 12.60204-.00121 25.20409-.00151 37.80613 0 1.11392-.00166 1.11467-1.10596 1.11557-1.00867.0009-2.01991-.04254-3.0254.01428-.720263.040734-.876875-.23331-.873244-.902116.026027-4.73499.01377-9.470285.01377-14.20543 0-9.87106-.00015-19.742267.00106-29.613476C.075286.763914.09117.43876.0998.113452h4.99342z" fill="#000005" mask="url(#i)"/>
    </g>
    <g transform="translate(34.855 17.037)">
      <mask id="k" fill="#fff">
        <use xlink:href="#j"/>
      </mask>
      <path d="M15.98795.113452c-.016493.374464-.04736.748928-.047512 1.123392-.002573 10.972353-.00212 21.944706-.00212 32.91706v1.090018c-.310953-.13875-.512506-.208653-.694084-.31283-4.822586-2.771725-9.63927-5.553823-14.470178-8.310967C.26957 26.3321.069984 26.00138.082846 25.42683c.034045-1.519653.0115-3.04051.0115-4.79392 3.73629 2.142757 7.289486 4.180587 11.0515 6.338228V.113452h4.842105z" fill="#F4E902" mask="url(#k)"/>
    </g>
    <g transform="translate(25.322 17.037)">
      <mask id="m" fill="#fff">
        <use xlink:href="#l"/>
      </mask>
      <path d="M10.23795.113452c.219106.158745.426106.338235.659284.473228 2.76121 1.597523 5.52015 3.199255 8.296342 4.77062.476342.269688.664427.572897.652322 1.12144-.03556 1.61902-.01271 3.23939-.01271 4.984385-.31504-.143412-.51856-.21662-.702862-.322752C12.925168 7.570263 6.721674 3.997595.519694.422373.370044.336086.239306.217177.099794.113453H10.23795z" fill="#000005" mask="url(#m)"/>
    </g>
    <g transform="translate(36.974 17.037)">
      <mask id="o" fill="#fff">
        <use xlink:href="#n"/>
      </mask>
      <path d="M8.11953.113452v4.679222c-.230908-.10583-.39085-.164458-.536264-.24804-2.37127-1.36286-4.74163-2.727227-7.10836-4.098057C.33297.364347.224022.225897.099792.113452H8.11953z" fill="#000005" mask="url(#o)"/>
    </g>
    <path d="M45.066976 42.40783c-3.72373-2.139-7.285553-4.18525-10.985678-6.31057-.02769.444066-.063553.750883-.063704 1.0577-.003026 8.165902-.00227 16.331954-.002875 24.497856 0 1.035-.00227 1.036504-1.03531 1.038458-.95813.001654-1.91853-.038935-2.87364.013078-.71724.038785-.90079-.24458-.88777-.914137.03662-1.878183.01256-3.757268.01256-5.635902V27.801927c.26132.108085.4432.161.60254.2527 4.86631 2.796078 9.72794 5.599974 14.59864 8.388385.43972.251948.65595.538772.645963 1.06642-.02996 1.567156-.010744 3.135214-.010744 4.898397" fill="#F4E902"/>
    <path d="M34.80315 51.452903c6.584204 3.792895 12.976388 7.4753 19.368572 11.157555l-.021638.163405c-.19898.019693-.39781.056223-.59694.056523-2.821435.003608-5.64302.01383-8.464303-.011124-.38161-.003457-.80439-.114248-1.13562-.301856-2.86486-1.62338-5.70854-3.283438-8.57113-4.911026-.42398-.241124-.59906-.514268-.59013-1.00794.02966-1.644276.0112-3.289603.0112-5.145537" fill="#000005"/>
    <g transform="translate(34.704 58.076)">
      <mask id="q" fill="#fff">
        <use xlink:href="#p"/>
      </mask>
      <path d="M.09949.032486C2.852984 1.618283 5.43307 3.104113 8.200938 4.69833c-.376474.052162-.550487.09711-.72435.09741-2.217078.00481-4.434308-.013228-6.650933.014582-.56244.007066-.751435-.16506-.736757-.725176C.122338 2.81233.09949 1.537858.09949.032486" fill="#000005" mask="url(#q)"/>
    </g>
  </g>
</svg>
