<svg width="80" height="80" viewBox="0 0 80 80" xmlns="http://www.w3.org/2000/svg">
  <title>
    net-nimiq
  </title>
  <g fill="none" fill-rule="evenodd">
    <circle fill="#FFF" cx="40" cy="40" r="40"/>
    <path d="M54.470588 15H25.529412L11.411765 40l14.117647 25h28.941176l14.117647-25-14.117647-25zm-11.82353 39.285714v5.357143h-4.411764V55c-2.64706 0-5.82353-1.42857-7.941176-3.57143l3-4.285713c2.294117 1.785714 4.235294 2.678572 6.35294 2.678572 2.47059 0 3.529413-1.07143 3.529413-3.035717 0-4.642857-11.82353-4.642857-11.82353-12.5 0-4.642857 2.82353-7.67857 7.058826-8.571428v-5h4.411764v4.642857c2.82353.357143 4.941176 1.785714 6.705882 3.571428L46 32.857144c-1.411765-1.785714-2.82353-2.32143-4.764706-2.32143-2.117647 0-3.529412.892858-3.529412 2.857144.352942 4.285714 12.352942 3.928572 12.352942 12.5 0 4.285714-2.64706 7.678572-7.058824 8.57143l-.35294-.178573z" fill-rule="nonzero" fill="#F6AE2D"/>
  </g>
</svg>
