<svg width="80" height="80" viewBox="0 0 80 80" xmlns="http://www.w3.org/2000/svg" xmlns:xlink="http://www.w3.org/1999/xlink">
  <title>
    neu-neumark
  </title>
  <defs>
    <path id="a" d="M.00005 0h51.98122v59.968653H.00005z"/>
  </defs>
  <g fill="none" fill-rule="evenodd">
    <circle fill="#D1E500" cx="40" cy="40" r="40"/>
    <g transform="translate(14 10)">
      <mask id="b" fill="#fff">
        <use xlink:href="#a"/>
      </mask>
      <path d="M2.467215 16.360751v27.258612c2.852853 1.633225 5.686484 3.255674 8.575071 4.90947.055697-.218694.106711-.32596.106711-.433225-.020701-12.11755-.0451-24.235102-.071962-36.352653-.000246-.033306-.039924-.072-.06999-.098204-.026617-.023265-.065062-.032816-.190256-.091347-2.746389 1.581306-5.54256 3.191265-8.349574 4.807347zm47.062711-.003429c-2.980265-1.71306-5.877725-3.378857-8.889043-5.11004v37.468653c3.053707-1.755429 5.984683-3.440572 8.889043-5.110286V16.357322zM13.5824 13.844914c-.053232.040898-.106464.082041-.15945.12294v35.926775c4.205346 2.418122 8.35401 4.803918 12.570445 7.228653 3.827299-2.199674 7.64326-4.392735 11.536607-6.630368C29.4944 38.195854 21.5384 26.020261 13.5824 13.844914zM25.997831 2.850465c-4.169365 2.38947-8.239166 4.721633-12.358749 7.082694C21.749605 22.351445 29.805415 34.68622 37.86295 47.019282c.088474.135428.200606.256163.306578.379347.023905.027673.068019.048.104493.051673.023905.002204.05126-.032082.05274-.033061V9.91675c-4.096418-2.347837-8.174351-4.685143-12.32893-7.066286zM.00005 45.047608v-30.13298C8.674684 9.938548 17.338722 4.968834 26.001035-.000146 34.700808 4.991608 43.331082 9.9432 51.98132 14.906547v30.151347c-8.622881 4.948898-17.28544 9.920571-25.980284 14.910857C17.331082 54.993404 8.700315 50.040343.00005 45.047608z" fill="#334254" mask="url(#b)"/>
    </g>
  </g>
</svg>
