<svg width="80" height="80" viewBox="0 0 80 80" xmlns="http://www.w3.org/2000/svg" xmlns:xlink="http://www.w3.org/1999/xlink">
  <title>
    ngc-naga
  </title>
  <defs>
    <path id="a" d="M0 .145427h22.876119v44.348955H0z"/>
    <path id="c" d="M.079577.037584h19.103766v16.5045H.079577z"/>
  </defs>
  <g fill="none" fill-rule="evenodd">
    <circle fill="#CC2B23" cx="40" cy="40" r="40"/>
    <g transform="translate(30 25.468034)">
      <mask id="b" fill="#fff">
        <use xlink:href="#a"/>
      </mask>
      <path d="M5.842353 34.036921c.006043.000169.012087.000506.01813.000843-.035758.70045-.072525 1.400562-.107109 2.101011-.027197.554832.179132.86309.597665.898483.469401.039607.739861-.211516.773606-.774943.086963-1.455675.162678-2.911854.230839-4.36854.02451-.522809-.266599-.882303-.682949-.893258-.423737-.011292-.680095.268315-.714007.809326-.046336.741741-.078066 1.484663-.116175 2.227078m1.679335-9.801236l.01511.000506c.049861-1.431405.091496-2.862978.155292-4.293708.01746-.390337-.08562-.562078-.51003-.55146-.978423.024438-1.958021.00792-2.937116.006573-.626876-.000843-.654577-.041293-.59565-.681068.132628-1.439326.258205-2.879494.385292-4.319326.163015-1.845337.326533-3.690674.486526-5.53618.136825-1.580056.280029-3.159775.391168-4.741685.015613-.222809-.070008-.540506-.226475-.664045-.174263-.13736-.493912-.167696-.730628-.127584-.316292.053764-.397883.354944-.422897.652416-.192898 2.293651-.383614 4.58764-.581716 6.880955-.271635 3.145955-.545452 6.291741-.829679 9.436516-.035087.38899.087468.532922.47981.526686 1.02073-.016011 2.042132-.005393 3.063198-.002191.557876.001854.572985.019719.554854.564944-.07689 2.315562-.154956 4.631123-.229665 6.946685-.007218.224157-.065138.484214.02535.664214.112986.224663.329052.478146.550658.540674.170233.048033.48216-.129607.613445-.29882.140015-.180169.18635-.466686.19676-.710225.061277-1.43073.100058-2.862472.146393-4.293877M22.87612 17.19563c-.199949.628652-18.610526 27.118989-18.973993 27.29882-.009737-.13736-.028708-.25382-.02451-.369606.126751-3.535618.255182-7.071236.38462-10.606854.127423-3.479157.256357-6.958315.383949-10.437472.02132-.582135.001007-.607079-.56476-.6-1.174678.014831-2.349357.036573-3.524036.053258-.549146.007753-.594307-.036741-.54008-.564607.263576-2.56837.531686-5.136067.795263-7.70427.194744-1.898426.376562-3.798033.580204-5.695449.189876-1.77101.40443-3.539157.599679-5.309662.029883-.270338.151598-.386124.419036-.423708 1.964402-.276236 3.926789-.566124 5.890518-.847416 3.110708-.445618 6.221584-.889888 9.333132-1.330618C18.852463.48563 20.070624.318945 21.289959.161023c.467052-.060337.54881.045675.395701.47191-.577518 1.606517-1.15319 3.213708-1.739942 4.817023-.60035 1.640899-1.215138 3.276405-1.81935 4.915955-.672036 1.82427-1.336686 3.651405-2.00973 5.475506-.164693.446123-.336438.890561-.527825 1.32573-.147737.335393-.023168.440393.297657.42573.502978-.02292 1.006292-.038427 1.508599-.070618 1.646598-.105674 3.292525-.218258 4.938788-.32528.162847-.01045.3267-.001349.542263-.001349" fill="#FFF" mask="url(#b)"/>
    </g>
    <g transform="translate(32.182482 10.130955)">
      <mask id="d" fill="#fff">
        <use xlink:href="#c"/>
      </mask>
      <path d="M.079577 16.387197c.276335-.246742.549481-.497191.829678-.73955 2.072015-1.791742 4.151752-3.57472 6.209329-5.383147.22127-.194326.42827-.524831.45127-.807809.15781-1.945618-.070847-3.816742-1.314526-5.421573-.495423-.638933-1.122635-1.130225-1.88365-1.419101-.344663-.130787-.51708-.302697-.368503-.691348.204314-.534607.403424-1.072416.575-1.618315.109292-.347697.311256-.295787.54965-.18809C6.338766.66568 7.43051 1.383152 8.277482 2.425904c1.509941 1.859326 2.075036 4.025225 2.025007 6.386967-.021489 1.00719-.008394.991348.90103 1.402921 2.289255 1.035843 4.571795 2.086854 6.856517 3.133146.376059.172247.748928.351405 1.123307.527528-.004197.053596-.008562.10736-.01276.161124-6.344641.834775-12.689116 1.669719-19.033758 2.504494-.018971-.051573-.03811-.103146-.057248-.154887" fill="#FFF" mask="url(#d)"/>
    </g>
  </g>
</svg>
