<?xml version="1.0" encoding="UTF-8"?>
<svg width="105px" height="105px" viewBox="0 0 105 105" version="1.1" xmlns="http://www.w3.org/2000/svg" xmlns:xlink="http://www.w3.org/1999/xlink">
    <!-- Generator: Sketch 49.2 (51160) - http://www.bohemiancoding.com/sketch -->
    <title>Group</title>
    <desc>Created with Sketch.</desc>
    <defs></defs>
    <g id="Page-1" stroke="none" stroke-width="1" fill="none" fill-rule="evenodd">
        <g id="Group">
            <circle id="Oval" fill="#0057FF" cx="52.5" cy="52.5" r="52.5"></circle>
            <path d="M30.58,54.876 L30.58,39.504 L35.548,39.504 L35.548,64.704 L31.768,64.704 L20.968,49.296 L20.968,64.704 L16,64.704 L16,39.504 L19.78,39.504 L30.58,54.876 Z M52.324,51.168 L64.96,51.168 L64.96,53.112 C64.96,56.712 63.808,59.628 61.504,61.86 C59.2,64.092 56.212,65.208 52.576,65.208 C48.688,65.208 45.448,63.948 42.892,61.428 C40.336,58.872 39.076,55.776 39.076,52.14 C39.076,48.468 40.336,45.372 42.856,42.816 C45.412,40.26 48.544,39 52.288,39 C57.004,39 61.108,41.304 63.268,44.868 L59.02,47.316 C57.832,45.264 55.24,43.824 52.252,43.824 C49.84,43.824 47.86,44.616 46.312,46.2 C44.764,47.748 44.008,49.728 44.008,52.14 C44.008,54.516 44.8,56.496 46.348,58.044 C47.932,59.592 50.02,60.348 52.612,60.348 C56.464,60.348 59.056,58.548 59.956,55.56 L52.324,55.56 L52.324,51.168 Z M83.068,54.876 L83.068,39.504 L88.036,39.504 L88.036,64.704 L84.256,64.704 L73.456,49.296 L73.456,64.704 L68.488,64.704 L68.488,39.504 L72.268,39.504 L83.068,54.876 Z" id="NGN" fill="#FFFFFF"></path>
        </g>
    </g>
</svg>