<svg width="80" height="80" viewBox="0 0 80 80" xmlns="http://www.w3.org/2000/svg">
  <title>
    nlc2-nolimitcoin
  </title>
  <defs>
    <linearGradient x1="50%" y1="100%" x2="50%" y2="0%" id="a">
      <stop stop-color="#D9A339" offset="0%"/>
      <stop stop-color="#EFD99E" offset="100%"/>
    </linearGradient>
  </defs>
  <g fill="none" fill-rule="evenodd">
    <circle fill="url(#a)" cx="40" cy="40" r="40"/>
    <path d="M44.022068 30.076658V49.46966h13.488005v-3.48658H48.0014V30.07666h-3.979332zm-7.441477 13.52209l-7.55931-13.52209h-4.17162V49.46966h3.70766V35.709766l7.75253 13.759896h3.97841V30.07666h-3.70767v13.52209zm20.64274 7.844176c-3.85595 5.63624-10.27168 9.00094-17.16121 9.00094-11.40173 0-20.67781-9.13598-20.67781-20.365535 0-11.22956 9.27608-20.36554 20.67781-20.36554 6.54741 0 12.56778 2.95645 16.51727 8.11175l2.66838-2.1199c-3.69197-4.819115-8.931802-7.984546-14.78881-9.04418V10h-3.38431v6.28919c-.33628-.013785-.67348-.022872-1.012523-.022872-.69563 0-1.38295.036032-2.06412.093682V10H34.6137v6.889504C23.962967 19.339948 16 28.803342 16 40.07833c0 11.274986 7.962968 20.738067 18.613692 23.188824V70H37.998v-6.203342c.68117.05765 1.36849.09368 2.06412.09368.33874 0 .676246-.009398 1.012524-.023497V70h3.384307v-6.509452C50.73223 62.338798 56.34772 58.751645 60 53.413368l-2.77667-1.970444z" fill="#3F2407"/>
  </g>
</svg>
