<svg width="80" height="80" viewBox="0 0 80 80" xmlns="http://www.w3.org/2000/svg">
  <title>
    nmc-namecoin
  </title>
  <g fill-rule="nonzero" fill="none">
    <path d="M40 0c22.088 0 40 17.908 40 40S62.092 80 40 80 0 62.088 0 40 17.908 0 40 0z" fill="#6093C3"/>
    <path d="M59.1 20.052c-1.262 1.027-2.198 2.4-2.696 3.948l-5.16 18.972-17.537-24.036s-3.91-.222-5.334.298c-1.423.52-3.305 1.923-4.104 4.942-.8 3.02-10.08 36.94-10.08 36.94s4.506.158 5.92-.624c1.412-.782 2.83-1.64 3.684-4.636.588-2.052 5.104-18.92 5.104-18.92L46.49 61.12s4.226.125 5.64-.516c1.694-.766 3.145-2.628 3.706-4.745.56-2.118 9.982-36.95 9.982-36.95s-4.705-.386-6.717 1.142M47.99 54.517L30.627 30.635l1.29-5.26L49.542 49.65" fill="#FFF"/>
  </g>
</svg>
