<svg width="80" height="80" viewBox="0 0 80 80" xmlns="http://www.w3.org/2000/svg">
  <title>
    nmr-numerai
  </title>
  <g fill="none" fill-rule="evenodd">
    <circle fill="#F1F1F1" cx="40" cy="40" r="40"/>
    <g fill-rule="nonzero">
      <path d="M69.993 51.72c.002-7.69.002-15.38 0-23.072.03-.786-.363-1.57-.994-2.032L41.52 6.524c-.56-.44-1.283-.613-1.982-.48-.426.085-.81.298-1.154.556L11.1 26.55c-.69.482-1.1 1.27-1.096 2.112-.005 7.69-.005 15.377 0 23.065-.012.833.42 1.64 1.104 2.11 9.095 6.648 18.187 13.297 27.278 19.947.87.745 2.235.804 3.132.078 9.13-6.67 18.258-13.344 27.38-20.02.69-.465 1.133-1.287 1.095-2.12" fill="#050708"/>
      <g fill="#FFF">
        <path d="M36.83 11.55c.242-.274.486-.7.91-.643 1.443.008 2.888-.023 4.33.015.25.155.44.388.655.588-.005 1.49-.005 2.98 0 4.47-.43.004-.86.023-1.29-.006-.025-.106-.076-.312-.1-.417 0-1.113.095-2.226.002-3.336-1.06.002-2.12.002-3.178 0-.006.375-.007.75-.01 1.125-.447 0-.895 0-1.343-.004.003-.594-.063-1.2.024-1.79M33.235 13.367c.487-.02.975-.02 1.464-.007.006 2.06.014 4.12-.006 6.177-.465.01-.93.01-1.394.007-.155-2.052-.03-4.12-.065-6.177M45.638 15.58c1.298-.017 2.595-.01 3.892-.003.007.476.007.95.002 1.426-1.298.013-2.597.02-3.895-.004-.005-.473-.005-.95 0-1.42M37.765 16.282c.523-.012 1.047-.01 1.57-.01.503.976 1.132 1.886 1.54 2.908-.482.023-.964.023-1.445.024-.57-.965-1.123-1.94-1.665-2.922M43.113 17.998c.453-.01.906-.01 1.36-.002 1.235 1.914 2.434 3.852 3.676 5.762-.003.58 0 1.162-.01 1.743l-.533-.092c-1.055-1.572-2.025-3.2-3.067-4.78-.017 1.777.005 3.555-.012 5.333-.473.01-.946.01-1.42 0-.005-2.653-.014-5.308.005-7.962M48.744 19.075c.482-.01.966-.01 1.45.003.002.455.002.912 0 1.368-.484.012-.968.012-1.45.003-.002-.458-.003-.916 0-1.375M24.892 19.525c.38-.007.76-.005 1.142-.002 1.016-.068 2.03-.048 3.048.01.004.442.002.885-.003 1.326-1.505.902-2.95 1.904-4.474 2.768-.45-.17-.793-.53-1.16-.83.998-.61 1.975-1.25 2.983-1.842-.512-.026-1.023-.023-1.533-.028-.01-.47-.01-.936-.005-1.403M36.92 20.05c.466-.015.934-.013 1.4 0 .012.468.012.935 0 1.404-.466.014-.933.014-1.4.002-.01-.47-.01-.938 0-1.407M30.064 21.42c.748 1.136 1.473 2.286 2.23 3.413.758-1.14 1.488-2.3 2.252-3.436 0 .752.05 1.512-.016 2.264-.692 1.19-1.494 2.31-2.24 3.466-.734-1.136-1.51-2.248-2.207-3.406-.08-.763-.022-1.533-.02-2.3M50.77 21.613c2.245-.01 4.49-.01 6.735 0 .002.456.002.913 0 1.37-2.245.004-4.49.005-6.735 0-.002-.457-.003-.915 0-1.37M38.886 23.392c.45-.01.905-.01 1.358-.004.023 1.993-.002 3.988.012 5.983-.21.2-.42.405-.624.608-1.556.017-3.11.002-4.666.01-.205-.198-.415-.386-.6-.598-.08-.61-.02-1.233-.022-1.846.434-.003.868-.003 1.303 0 .012.352.01.703.005 1.055 1.07.12 2.148.033 3.224.06.005-1.756-.012-3.515.01-5.268M60.59 29.282c-.013-1.504-.013-3.01 0-4.515.472-.01.942-.012 1.414 0 .016 1.504.015 3.01 0 4.517-.472.008-.942.006-1.413-.002M53.887 25.904c.89-.01 1.782-.147 2.665-.003.58 1.888 1.076 3.805 1.65 5.697-.454.003-.91.003-1.366.003-.434-1.467-.804-2.95-1.252-4.415l-.75.008c-.372 1.478-.82 2.933-1.205 4.405-.46.002-.917 0-1.375-.002.564-1.89 1.093-3.794 1.632-5.692M15.906 26.625c2.047-.012 4.096-.017 6.143 0 .01.472.01.94 0 1.412-2.05.018-4.097.013-6.146 0-.007-.47-.007-.943.002-1.412M23.014 26.626c.465-.003.93-.005 1.397 0 .012.47.012.945 0 1.417-.466.006-.93.004-1.396 0-.006-.474-.006-.945 0-1.417M28.16 26.684c.455-.004.914-.002 1.37.003.014 1.094.007 2.19.007 3.286-.464.004-.927.005-1.39.002-.003-1.096-.018-2.194.012-3.29M63.94 27.667c.526-.01 1.054-.008 1.58-.01.52.966 1.152 1.88 1.54 2.912-.48.016-.96.018-1.44.02-.566-.97-1.105-1.958-1.68-2.923M43.223 28.838c.456-.004.91-.003 1.367 0 .01 1.5.003 3 .003 4.5-.458.005-.915.006-1.373.006 0-1.5-.002-3.004.003-4.506M48.03 30.662c-.006-.47-.005-.94 0-1.41.46-.007.924-.007 1.385.005.002.47.003.938-.004 1.407-.458.002-.92 0-1.38-.002M22.025 32.74c1.104-.806 2.283-1.507 3.416-2.27.75.01 1.5 0 2.248.01-1.113.798-2.296 1.485-3.416 2.27 1.15.726 2.28 1.484 3.423 2.215-.77.014-1.54.005-2.31.007-1.112-.755-2.266-1.45-3.36-2.23M60.593 31.433c.472-.01.944-.012 1.418-.002.013.474.01.944-.002 1.416-.47.01-.943.01-1.413 0-.01-.472-.01-.943-.002-1.413M12.12 31.626c2.358-.014 4.72-.02 7.08.003.006.446.006.894.007 1.342-1.054.692-2.108 1.386-3.192 2.028-.46-.168-.805-.547-1.196-.826.583-.37 1.176-.726 1.74-1.12-1.48-.008-2.96.008-4.44-.01-.007-.472-.007-.945 0-1.418M32.308 32.995c2.042.008 4.083-.01 6.123.008.05.465.045.934-.017 1.397-2.036.01-4.07.002-6.102.003-.002-.47-.004-.94-.002-1.408M39.765 33.003c.49-.01.98-.01 1.472.007 0 .46 0 .916-.002 1.373-.49.013-.98.013-1.47.005-.004-.462-.004-.923 0-1.385M46.187 34.98c-.064-.485.432-.734.687-1.066.6.002 1.2-.004 1.8.008.013.452.013.904.006 1.357-.38.006-.76.006-1.14.01v3.218c1.764.012 3.527-.006 5.29.01.004.457.004.914-.008 1.368-1.984.014-3.97.002-5.956.007-.253-.33-.74-.58-.677-1.062-.01-1.282-.01-2.566-.003-3.85M52.87 34.55c.486-.016.975-.016 1.463.003.005.466.005.93-.002 1.397-.486.017-.972.017-1.46 0-.005-.466-.005-.93 0-1.4M57.514 34.55c2.054-.026 4.106-.007 6.16-.01.003.475.003.95-.002 1.425-2.052 0-4.104.017-6.156-.008-.007-.47-.008-.938-.002-1.406M29.063 36.19h3.45c.012.478.012.957 0 1.435-1.15.002-2.298.002-3.447 0-.02-.48-.02-.957-.003-1.434M36.653 36.19c1.806 0 3.612.003 5.417-.002.657-.103 1.313.58 1.23 1.227-.003 1.327-.004 2.656 0 3.986-.232.25-.465.497-.697.746-.598 0-1.195 0-1.792-.007-.004-.457-.005-.912 0-1.367l1.12-.013c.003-1.045 0-2.092.004-3.136-1.754-.157-3.52-.026-5.28-.073-.005-.454-.005-.907 0-1.36M23.927 36.612c.882-.006 1.763-.01 2.645.003.534 1.908 1.107 3.807 1.613 5.724-.445 0-.89 0-1.33.002-.454-1.472-.804-2.972-1.27-4.437-.252.015-.504.034-.756.053-.335 1.476-.812 2.913-1.177 4.383-.457 0-.914 0-1.367-.005.543-1.908 1.084-3.818 1.64-5.723M62.415 38.336c1.537-.016 3.077-.03 4.612.005.388.24.826.63.74 1.14 0 1.093-.006 2.19 0 3.285-.013.526.01 1.05-.004 1.577.024.43-.093.852-.068 1.283-.438-.002-.876 0-1.313-.005.005-1.976 0-3.953.003-5.93-1.074-.028-2.147-.006-3.22-.014-.002.367-.002.734-.01 1.103-.45.006-.902.008-1.353.006-.01-.605-.007-1.212-.006-1.817.21-.21.414-.42.62-.634M18.66 38.39h1.428c.003 1.502 0 3.002 0 4.502h-1.434c.007-1.5.002-3 .005-4.5M14.178 39.646c.47-.007.937.007 1.404.038.005.445.005.89 0 1.336-.472.005-.944.007-1.416-.002-.005-.458-.004-.915.012-1.372M30.96 47.875c-.012-2.655-.012-5.31 0-7.966.464-.008.93-.008 1.394.002 1.094 1.764 2.22 3.51 3.338 5.26.482.623.193 1.457.27 2.18l-.484.008c-1.004-1.597-2.053-3.165-3.015-4.786-.174 1.762-.03 3.54-.088 5.308-.473.005-.944.005-1.415-.007M37.164 40.93c.474-.01.948-.01 1.42-.003.008 1.16.007 2.32.003 3.48-.475.01-.95.01-1.425-.003-.008-1.158-.01-2.317.002-3.474M45.754 42.482c.464-.003.93-.005 1.394 0 .01.473.01.945 0 1.417-.465 0-.93 0-1.394-.003-.005-.47-.005-.942 0-1.415M50.274 42.544c1.444-.02 2.888-.01 4.333-.005.06.42.095.85.054 1.278-.136.278-.463.167-.708.193-1.23-.035-2.464.072-3.685-.067-.01-.468-.01-.933.007-1.4M56.1 42.744c.465-.007.935-.038 1.4.034.044 1.63.018 3.267.01 4.9-.47.01-.94.008-1.41-.002-.016-1.644-.016-3.288 0-4.932M43.223 43.71c.455-.002.912-.004 1.367 0 .005.47.007.94 0 1.413-.456.007-.91.007-1.367 0-.003-.47-.003-.943 0-1.414M21.316 44.713c1.623-.176 3.262-.036 4.892-.088.42-.005.84.014 1.258.057.006.474.005.95 0 1.424-2.05-.004-4.094.01-6.14-.007-.013-.463-.013-.925-.01-1.387M12.122 45.76l.67-.653c.593-.003 1.186-.005 1.777.007.006.448.006.898.003 1.347-.37.01-.736.01-1.105.014.01 1.07-.005 2.138.01 3.207 1.744.006 3.49-.01 5.235.01.01.44.01.88.005 1.322-.432.002-.866.003-1.298.003-1.55-.015-3.1.026-4.65-.018-.257-.147-.517-.388-.634-.662-.04-1.524-.005-3.05-.014-4.574M48.332 46.65c.233-.22.467-.438.707-.652 1.508.012 3.017.002 4.527.005.227.217.454.436.683.652.002 1.494.002 2.99.002 4.482-.46.004-.92.002-1.38-.012 0-1.257-.01-2.512.006-3.768-1.06-.002-2.114 0-3.17-.002.002.382 0 .765-.01 1.148-.452.007-.905.007-1.356.005-.015-.62-.012-1.238-.01-1.858M58.022 49.29c1.674-1.093 3.365-2.155 5.054-3.222.403.27.8.552 1.192.835l-3.642 2.32c1.783.017 3.567-.003 5.352.01.003.473.003.95-.002 1.423-2.65.008-5.3.01-7.95 0-.007-.456-.007-.912-.004-1.367M39.074 49.56c1.68-1.12 3.413-2.158 5.093-3.277.4.276.795.557 1.2.823-1.16.817-2.394 1.53-3.578 2.317 1.772.03 3.545-.004 5.318.018.012.49.012.98 0 1.467-2.655.015-5.308.005-7.963.005-.068-.448-.068-.9-.07-1.353M21.633 48.352c.738 1.128 1.477 2.257 2.206 3.388.78-1.117 1.48-2.29 2.256-3.414.016.76.004 1.523.01 2.283-.77 1.13-1.478 2.306-2.27 3.42-.734-1.12-1.446-2.255-2.21-3.355-.01-.774-.017-1.55.007-2.323M29.715 51.247c-.017-.483-.02-.966.01-1.447.462-.005.93-.003 1.393.035.01.47.01.94-.002 1.41-.466.005-.933.007-1.4.002M36.285 51.944c.47-.006.942-.007 1.412-.002.012 1.753 0 3.507.007 5.26-.334.013-.668.03-1.003.06-.106-.02-.32-.06-.426-.078.01-1.746-.01-3.494.01-5.24M46.018 53.043c.888-.017 1.774-.005 2.662-.01l1.635 5.725c-.458.002-.917.002-1.373-.01-.39-1.46-.812-2.91-1.208-4.365-.248-.016-.496-.026-.744-.038-.41 1.472-.82 2.944-1.227 4.415-.458-.002-.915-.002-1.37-.007.557-1.9 1.112-3.8 1.625-5.71M25.9 56.205c1.692-1.086 3.38-2.18 5.092-3.23.395.28.793.548 1.184.832-1.227.764-2.43 1.567-3.668 2.31 1.795.034 3.592-.005 5.39.02.008.474.01.946-.004 1.418-2.662.01-5.324.02-7.986-.005-.013-.448-.012-.897-.007-1.345M39.863 53.323c.495.005.99-.025 1.48-.09.58.957 1.267 1.907 1.565 2.996-.463.003-.927.003-1.39.006-.544-.975-1.096-1.947-1.655-2.913M59.432 53.907c.484-.015.97-.015 1.456-.005v1.393c-.486.012-.97.012-1.455-.01-.008-.46-.008-.917 0-1.378M55.863 57.617c.586-.943 1.213-1.858 1.803-2.8.017.7.028 1.4.01 2.1.017.26-.174.464-.296.676-.65.96-1.272 1.94-1.91 2.906-.766-1.145-1.508-2.302-2.267-3.454-.003-.765-.01-1.53.01-2.295.743 1.117 1.446 2.262 2.208 3.367.216-.09.313-.322.443-.5M19.804 56.26c1.242-.04 2.486-.02 3.73-.01.007.46.036.922-.022 1.38-1.234.06-2.473.032-3.707.01-.005-.46-.005-.92 0-1.38M34.95 59.265c1.99-.03 3.98-.002 5.973-.015.228.227.455.457.683.687-.008 1.523-.005 3.047-.003 4.572-.2.208-.398.42-.593.632-.638.014-1.275.016-1.913-.003.008-.432-.047-.872.056-1.294.36-.038.722-.024 1.086-.028.002-1.067 0-2.133 0-3.198-1.764-.01-3.53.023-5.293-.017-.005-.446-.004-.892.002-1.338M25.38 59.772c.466-.007.932-.005 1.398.004.007.465.008.932.002 1.4-.468.007-.935.007-1.4 0-.007-.468-.007-.936 0-1.404M50.024 60.525c.527-.444 1.006.297 1.458.513v.167c-1.177.76-2.383 1.48-3.536 2.28l.67-.005c.353 0 .71.004 1.067.012.003.465.003.932-.003 1.398-1.45.02-2.902.015-4.353.003-.03-.44-.034-.88-.038-1.32 1.548-1.06 3.164-2.017 4.734-3.048M27.998 61.818c1.884-.006 3.77-.017 5.652.006.003.463.003.928 0 1.393-1.885.027-3.77.015-5.653.007-.01-.47-.007-.938 0-1.406M33.018 65.398c.53-.006 1.06-.007 1.592.003.49.978 1.144 1.88 1.52 2.91-.474.027-.948.027-1.423.03-.582-.97-1.124-1.964-1.69-2.942M42.424 66.884c.463-.004.927.003 1.388.034.01.464.005.93-.053 1.39-.444.003-.886.003-1.326 0-.017-.476-.017-.95-.01-1.424M39.193 71.497c.002-1.082-.024-2.167.017-3.25.467.002.936.027 1.4.07.006 1.06.006 2.12 0 3.18-.472.01-.944.008-1.417 0"/>
      </g>
    </g>
  </g>
</svg>
