<svg width="80" height="80" viewBox="0 0 80 80" xmlns="http://www.w3.org/2000/svg" xmlns:xlink="http://www.w3.org/1999/xlink">
  <title>
    note-dnotes
  </title>
  <defs>
    <path id="a" d="M48.73049.064147v30.944995H.024583V.064147z"/>
  </defs>
  <g fill="none" fill-rule="evenodd">
    <circle fill="#FFF" cx="40" cy="40" r="40"/>
    <path d="M63.72387 50.468734c-.623925.48165-1.161348 1.06679-1.77276 1.566605-.60368.49321-1.253374.92715-1.88908 1.37798-1.20957.85798-2.443067 1.6888-3.890797 2.01284 1.925154-4.76386 2.452638-9.9545 1.276564-14.97175-1.046503-4.46496-3.344355-8.14734-6.38595-11.52422 1.431165-.54789 2.85589-1.11321 4.285582-1.66349 1.04724-.40312 2.09245-.45376 2.89546-1.33285.75883-.83064.95595-1.91395 1.26957-2.95358.43895-1.45541 1.0373-2.85688 1.54546-4.28844 3.43987 3.5178 6.12147 7.73743 7.55852 12.45321.7038 2.31046 1.11073 4.70514 1.25558 7.11431.04306.71486-.10252 1.30293-.27663 1.99541-.17006.67651-.28399 1.41633-.54129 2.06201-.41062 1.03009-.91362 2.00514-1.45638 2.9789-1.08387 1.94513-2.38859 3.4888-3.87387 5.17302" fill="#3E505A"/>
    <path d="M10.092172 41.056018c.137668-.24734.270736-.56367.33865-.828807 1.188405-4.63486 3.51497-8.56862 7.032515-11.83779 1.999142-1.85816 4.192638-3.63614 6.80135-4.57303-.569816 2.2389-1.38552 4.63193-1.662883 6.90661-.794356 6.51615.954478 12.39909 4.978527 17.60239.14596.18863.27645.38881.46105.64991-2.31184.81945-4.5646 1.58954-6.78902 2.43376-.3854.14624-.79472.54991-.94767.93229-.96368 2.40826-1.85797 4.84422-2.81981 7.38918-.26816-.28715-.50024-.50514-.69717-.75119-4.19852-5.24367-6.63515-11.14257-6.69552-17.9233" fill="#3E4F5A"/>
    <path d="M57.160663 15.616386c.112454-.29688-2.91902-1.87945-3.249203-2.053945-1.262208-.66734-2.58957-1.29853-3.927975-1.80055-2.723927-1.02165-5.58681-1.5822-8.498467-1.57834-5.552576.00753-11.158895.65376-15.987607 3.60918-1.58429.96973-3.06092 2.10239-4.56404 3.19083-.66405.48074-1.28061.99211-1.86441 1.56899-.20705.20459-2.22957 2.45578-2.44509 2.72184-.55012.67909-1.08073 1.41688-1.59221 2.13872-1.16926 1.65009-2.12484 3.42551-2.87834 5.30147-1.55153 3.86367-2.45521 8.17377-2.06116 12.34147.48847-.87761.68448-1.82477 1.00822-2.77614.3416-1.00459.74338-1.98862 1.20865-2.94257.88896-1.82294 2.01-3.53009 3.33737-5.06569 2.88497-3.33725 6.61013-5.81321 10.79669-7.19248 4.36602-1.43835 9.12737-1.59871 13.57914-.44183 1.06454.2767 2.10884.62844 3.12497 1.04826 1.0754.44422 2.0551 1.06147 3.11007 1.53431.9716.43523 2.04479-.28624 2.9435-.65027 1.05203-.42605 2.13608-.78128 3.20374-1.1666.66737-.24091 1.48675-.41559 2.10553-.76257.30902-.17321.33589-.33834.44374-.6611.2343-.7011.47338-1.40055.71301-2.09981.48773-1.42348.96055-2.85578 1.49393-4.26312" fill="#42A9D3"/>
    <g transform="translate(21.227 38.945)">
      <mask id="b" fill="#fff">
        <use xlink:href="#a"/>
      </mask>
      <path d="M48.68194.064147c-.335155 1.331192-.61546 2.650825-1.149388 3.909358-.27589.650275-.562086 1.24789-.898528 1.878165-.875153 1.639633-1.784723 2.91798-2.95638 4.330825-1.08865 1.312844-2.37644 2.53688-3.786442 3.537065-1.064907.755596-2.058405 1.48679-3.210736 2.062385-.311963.15578-.606442.398716-.910675.51468-.39901.151926-.81957.18367-1.21619.35486-3.77687 1.632478-7.92331 2.136515-12.01049 1.694864-2.53509-.27395-5.01828-.95322-7.32975-2.02845-1.16374-.54147-2.28129-1.17964-3.3438-1.8989-.46196-.31266-.89945-.71046-1.48932-.69303-.69736.02055-1.46116.44146-2.11251.66991-.80356.28183-1.60785.56128-2.41122.84403-.7338.25835-1.57288.45339-2.26344.81046-.66644.34477-.83889.95559-1.09178 1.61137-.27975.72569-.56061 1.45248-.84423 2.17743-.30773.78569-.61472 1.57156-.91914 2.35835-.20558.53119-.83429 1.53064-.69276 2.10257.12221.49358 1.01282.86844 1.40963 1.12844.36092.23651.95614.83541 1.37098.8644l-.06018.01982c2.46313 1.53486 4.95129 2.80477 7.79724 3.49193-.03387-.04-.06791-.08-.10178-.11982.2238.28679.95135.34477 1.29331.42899.45516.11229.90166.24513 1.35884.34385 1.1089.23926 2.25663.36789 3.38632.4578 2.26325.18 4.54583.10183 6.78957-.24661 2.21816-.34477 4.39086-.95248 6.47374-1.78606 1.05736-.42294 2.06798-.91853 3.05062-1.49339.89559-.52404 1.9951-1.0312 2.78798-1.6756.78516-.67872 1.75399-1.27321 2.57577-1.96954.86577-.73358 1.6546-1.58753 2.46276-2.3923 1.4781-1.47248 2.90595-3.2723 3.84276-5.15835 1.25595-2.52807 2.59289-4.97872 3.34565-7.71633.75184-2.73395 1.02313-5.58532.85362-8.41321" fill="#43ABD5" mask="url(#b)"/>
    </g>
  </g>
</svg>
