<svg width="80" height="80" viewBox="0 0 80 80" xmlns="http://www.w3.org/2000/svg">
  <title>
    nsr-nushares
  </title>
  <g fill="none" fill-rule="evenodd">
    <path d="M39 79c11.38982 0 21.66777-3.760466 28.952723-11.400262C74.79747 60.421588 79 50.70157 79 40c0-8.085744-4.625-16.17578-5.5244-21.90316-3.753328-5.724737-8.935553-10.428477-15.039773-13.604317C53.05078 3.674805 47.64891 1 41 1 29.56632 1 19.253086 4.7972 11.96325 12.48865 5.16815 19.658106 1 29.34229 1 40c0 8.441848 3.89048 15.731797 6.082214 22.58307.127962.185.254658.513052.38564.695774 3.856843 5.38036 9.015315 9.764386 15.014927 12.691595C28.14258 75.91113 32.7174 79 39 79z" fill="#FFF"/>
    <path d="M23.373865 16.23972c-.305835-1.0064-.19551-1.1452.897357-1.1554 1.162693-.0112 2.325785-.0054 3.48848.0032 2.050872.0152 3.41985.9656 4.024936 2.9298 1.803492 5.8538 3.565886 11.7202 5.34803 17.5806 2.886783 9.4918 5.778554 18.9822 8.662344 28.4752.359302 1.1828.313616 1.2282-.942842 1.2398-.597906.0056-1.19601.0008-1.794115.0008-4.26793.2616-5.078304-1.017-6.18055-4.744-2.341744-7.917-4.81097-15.7958-7.221345-23.6924-2.099552-6.8776-4.19212-13.7572-6.282295-20.6376m11.07172-1.157c1.197008-.0106 2.394216-.0154 3.590824.0006 1.92758.0256 3.28119 1.0032 3.85456 2.8738 2.98753 9.7472 5.95671 19.4998 8.92848 29.2518 1.70932 5.6088 3.41287 11.219 5.11302 16.8306.10294.3398.15341.6958.25536 1.1712-.45906.0416-.80798.097-1.15731.1008-1.09706.0116-2.19432.0104-3.29137.0024-2.25975-.0168-3.52938-.9384-4.19651-3.102-1.14833-3.7246-2.26853-7.458-3.40529-11.186-3.52718-11.5668-7.05556-23.1332-10.586736-34.6988-.326184-1.0682-.221645-1.2346.894963-1.2444m-3.96628 29.9654c.149825.5102.137855 1.1382-.006783 1.6532-.639803 2.2766-1.35641 4.5316-2.043494 6.7948-1.56768 5.1644-3.12299 10.3326-4.71202 15.4906-.270123.8768-.121694 1.4078.751323 1.8412 6.806782 3.379 13.973864 4.5076 21.429226 3.174 9.5208-1.703 17.165884-6.5696 22.566383-14.6216 6.27212-9.3514 7.547132-19.5314 4.223442-30.2794-.434315-1.404-1.08828-2.7398-1.6405-4.107l-.377655.03c-2.054263 6.5552-4.122892 13.1058-6.158603 19.6668-2.03831 6.5692-4.02733 13.1538-6.30943 19.659-.25975-.1772-.36489-.3076-.410177-.4564-1.126783-3.697-2.25975-7.392-3.350623-11.0996-.11252-.3824-.047283-.8632.068627-1.2594.485985-1.6622 1.02484-3.309 1.54075-4.9624 3.60299-11.545 7.20379-23.0904 10.808777-34.6348.11956-.38282.229458-.81228.32968-1.288377-.050942-.090576-.33543-.353882-.853452-.789917-.522978-.440203-.77564-.704248-.915773-.75287-4.0397 12.8644-8.1413 26.091564-12.18 38.953164-.350724-.3434-.477607-.6444-.57217-.9554-.989726-3.251-1.918404-6.522-2.98793-9.7462-.41616-1.2556-.33576-2.3654.058254-3.5872 2.391422-7.4192 4.734364-14.8542 7.093466-22.2842.42454-1.3372.377257-1.4128-.896758-2.0738-5.97147-3.0982-12.297656-4.38-18.9993-3.7554-9.435214.8792-17.398307 4.8568-23.301748 12.2222-8.986734 11.2126-10.461647 23.6314-4.75152 36.862.1596.3698.412566.6992.622043 1.0474.088973-.012.17815-.0242.26713-.0364 3.917205-12.9 7.834412-25.8 11.75162-38.7002.13287.0276.265734.0552.398403.0828.068826.1454.157005.2846.20369.4368 1.134163 3.6938 2.273714 7.386 3.378752 11.0888.105335.3526.068827.795-.03651 1.1562-.773267 2.6548-1.57526 5.3012-2.378653 7.947-3.10723 10.2332-6.221048 20.464-9.325088 30.6982-.11691.385496-.234056.855572-.351438 1.410228l.996823.955972c.43261.33161.707675.52329.825195.575034 3.80369-12.5362 7.629266-25.387234 11.502383-38.151834.229626.4212.33257.553.378454.7026 1.13237 3.695 2.276907 7.3864 3.365187 11.0944zm45.1595-23.0292c-.721196-1.4378-2.039498-3.824462-2.21131-4.033874-.171816-.20941-.29987-.606295-.419374-.592895-.43651 1.4824-1.030562 3.43297-1.416996 4.92837-.06922.268.13467.6384.2815.9262 4.11411 8.0684 5.18085 16.5252 3.05017 25.3258-1.85356 7.6558-5.8791 14.0082-11.90364 19.069-6.37287 5.353-13.76818 8.105-22.0383 8.3892-5.69995.1958-11.158902-1.0066-16.330573-3.4578-1.694562-.8032-1.688577-.7826-2.242792.9958-.2442.78365-.42684 1.48546-.54792 2.10542.29922.16043.53811.27929.716674.35659.323876.140206.70133.25355 1.088504.4282 7.42823 3.3504 15.181646 4.3264 23.185038 2.8926 11.70733-2.0972 20.758504-8.28 27.06753-18.3488 5.209777-8.3144 6.88379-17.4388 5.49566-27.1326-.59531-4.1558-1.89526-8.1054-3.774164-11.8512zm-52.42533-13.8956c6.062842-3.392 12.677306-4.6134 19.62813-4.0674 4.4002.3458 8.577555 1.4454 12.542642 3.3416 2.35272 1.1252 2.32439 1.1848 3.11561-1.2914.13469-.421254.28794-.873762.45975-1.357524-.40029-.1927-.819823-.396396-1.258605-.611084C50.32483.529512 42.50783-.80808 34.39551.46852c-14.17935 2.2312-24.58294 9.8596-30.57097 22.9086-5.88868 12.8318-4.86045 25.5136 2.2795 37.687.3603.6144.829097 1.45449 1.230494 2.04489l.281526-.30929c.39641-1.2826.839302-2.5536 1.163292-3.8544.107132-.4298.041097-1.0096-.170973-1.3966-3.48489-6.3636-5.06953-13.1404-4.41018-20.3902 1.18763-13.0576 7.69097-22.6994 19.01526-29.0352z" fill="#E03210"/>
  </g>
</svg>
