<svg width="80" height="80" viewBox="0 0 80 80" xmlns="http://www.w3.org/2000/svg">
  <title>
    ntrn-neutron
  </title>
  <g fill="none" fill-rule="evenodd">
    <circle fill="#FFF" cx="40" cy="40" r="40"/>
    <path d="M43.046987 10.000038c1.28656.25223 2.582675.46395 3.857962.763567 6.46394 1.51777 11.83184 4.839363 16.14344 9.879554.14388.16815.27515.34796.4005.53044.03019.04395.01318.12019.02885.32465-.2872-.05465-.5358-.11064-.78726-.14847-1.65784-.24841-3.31796-.48058-4.97255-.74866-.34682-.05618-.73586-.16204-.99917-.37567-6.38351-5.18465-13.6244-6.99669-21.70663-5.59949-.35828.06191-.80828-.04242-1.13427-.21898-1.812998-.98217-3.72478-1.6116-5.850768-1.93777.79987-.31166 1.578152-.70682 2.40382-.91835 1.934905-.49586 3.89293-.90153 5.839873-1.35115.163566-.03784.31395-.13185.470445-.19969h6.30573z" fill="#353535"/>
    <path d="M24.006083 40.768287c10.269936 1.820063 18.621783-6.797198 16.8107-16.744395 4.381147-.837134 11.095797 3.147325 13.9993 8.307325 3.505605 6.230254 2.52172 13.889426-2.495924 19.42758-4.49217 4.957642-12.31223 6.48898-18.69669 3.641846-6.71198-2.99293-9.8293-9.721146-9.61739-14.632356" fill="#333"/>
    <path d="M38.509153 26.82895c-.008408 6.589107-5.184268 11.65051-11.906178 11.642483-6.39344-.007643-11.469555-5.277898-11.45293-11.90293.016433-6.50121 5.66675-11.62567 11.90675-11.471656 6.340893.156497 11.460574 5.269108 11.452358 11.732102" fill="#1F9F94"/>
    <path d="M25.112452 51.810408c5.739745 6.80121 12.856624 8.935796 21.3514 6.648152.466435 3.929045-2.83968 8.786943-7.190635 10.535733-4.925542 1.979427-10.576625.402802-13.765797-3.840764-2.937133-3.90822-3.131082-9.83389-.394968-13.34313" fill="#209F94"/>
    <path d="M51.856764 25.078783c3.292548-2.68796 9.321593-2.541974 13.209172.302484 4.34293 3.177516 5.963312 8.864332 3.953312 13.873567-1.72968 4.310828-6.61949 7.650765-10.521592 7.167898 2.30828-8.517515.129745-15.649872-6.640892-21.34395" fill="#1F9F94"/>
    <path d="M69.904573 43.329236c-1.411146 14.513885-13.421465 25.38363-26.82516 26.535477.69-.626178 1.34809-1.140382 1.902995-1.748407.682356-.747707 1.359936-1.523886 1.886178-2.381656.433376-.706433.983694-1.043503 1.735796-1.32019 7.842994-2.886307 13.150128-8.296243 15.99726-16.151657.173696-.479045.598664-.907644.996307-1.25828 1.44191-1.271466 2.92203-2.499746 4.30662-3.675287m-57.34798-15.29893c.31739 2.162293.9428 4.197516 2.04401 6.083503.13796.23656.12955.60898.07777.89866-1.44153 8.05318.407 15.25528 5.5521 21.61548.17312.21401.39363.45687.42554.70738.26713 2.0914.49509 4.18719.72019 6.15477-3.00726-1.32363-8.31554-8.82975-10.01026-14.46363-2.147-7.13771-1.77248-14.14108 1.19064-20.99618" fill="#353535"/>
  </g>
</svg>
