<svg width="80" height="80" xmlns="http://www.w3.org/2000/svg">
  <g fill="none" fill-rule="evenodd">
    <circle fill="#0B1422" cx="40" cy="40" r="40"/>
    <path d="M51.573664 49.856446c.036983-.44167.084204-.742382.084413-1.043093.007731-8.699124.002298-17.398458.029043-26.097373.002299-.773497-.24718-1.193658-.970334-1.49061-2.175729-.892947-4.324295-1.851882-6.687447-2.873048v18.171536c-.09089.031116-.181572.062231-.272462.093346-.393232-.530004-.734228-1.110544-1.18868-1.581867-2.47013-2.561686-3.243849-5.558151-3.010877-9.108009.27497-4.19242.060803-8.41658.058922-12.62696-.000209-.374218-.000209-.748437-.000209-1.300368 2.043468.880208 3.94381 1.697558 5.842898 2.517415 3.064157 1.322922 6.116613 2.673826 9.197904 3.9554.942335.39197 1.349566.857028 1.343089 1.980937-.05746 9.986337-.028834 19.973091-.030715 29.959637-.000418 2.245104-1.285002 4.030578-3.323874 4.460136-.550775.116108-1.280197.021718-1.759304-.260825-3.474732-2.049015-6.921464-4.147104-10.338527-6.291136-.651904-.408884-1.217305-1.02743-1.67928-1.654748-3.62726-4.92624-7.219208-9.878373-10.825156-14.820483-.138112-.189198-.306102-.356469-.639367-.740711-.078354.556107-.168827.899837-.169035 1.243776-.00794 8.35101-.000836 16.702227-.01609 25.053445-.001253.715443.219183 1.12746.920606 1.4123 2.028215.823406 4.022372 1.730344 6.033872 2.595098.216466.093137.459467.12467.8247.219896V50.057338c.087965-.033621.17593-.067451.263896-.101281 1.370252 1.925389 2.744055 3.84848 4.102398 5.782223.088383.125714.080443.334541.080652.504527.004179 3.859548.003134 7.719097.003134 11.757193-.428543-.156203-.767868-.262078-1.093193-.401157-4.795672-2.050268-9.583614-4.119122-14.389733-6.144121-.725452-.305515-.966364-.719828-.964901-1.489566.017969-10.786982.001671-21.573963.010656-32.360944.00188-2.157605 1.303599-3.768082 3.279787-4.283468.771837-.20131 1.224827.063066 1.656713.662192 2.094241 2.905834 4.215018 5.792664 6.322423 8.6891 2.822827 3.879805 5.639177 7.764205 8.46869 11.638998.242793.332662.51442.688712.856252.897122 2.46407 1.502305 4.949245 2.970153 7.430241 4.444683.114501.068078.25303.095643.548895.203607" fill="#81B445"/>
  </g>
</svg>
