<svg width="80" height="80" viewBox="0 0 80 80" xmlns="http://www.w3.org/2000/svg">
  <title>
    nvc-novacoin
  </title>
  <g fill="none" fill-rule="evenodd">
    <circle fill="#00AEEF" cx="40" cy="40" r="40"/>
    <path d="M30.796083 27.179757c3.085834-1.886192 5.781307-3.699645 8.625018-5.230922 3.76156-2.0254 7.84615-2.344572 11.97707-1.540056 3.513875.68349 5.515097 3.37044 5.85419 7.61562.10809 1.350055.075975 2.71328.07721 4.070862.006795 6.685697.001236 13.37265.006795 20.058347 0 .5631.04756 1.12557.080913 1.857974 1.89869.17495 3.704732.34112 5.58242.51419V60h-13.16792c-.022853-.389403-.07103-.830852-.07103-1.27293-.004324-7.835722.0105-15.670818-.015442-23.505914-.00494-1.453522-.12168-2.911433-.27177-4.358684-.295243-2.849354-1.549095-4.020072-4.39157-4.230764-3.12907-.23201-5.99749.689138-8.702844 2.145794-1.893742 1.019598-3.69114 2.222296-5.43541 3.283906v22.01038c1.741186.13419 3.35884.25835 5.087056.390658v5.504947H18v-5.40399c.79493-.109736 1.639272-.270263 2.491027-.33234.803577-.058318 1.614566-.011916 2.57194-.011916V27.167844c-1.496593-.226368-3.0846-.467158-4.744254-.717982v-5.372636h12.47737v6.102533z" fill="#FFF"/>
  </g>
</svg>
