<svg width="80" height="80" viewBox="0 0 80 80" xmlns="http://www.w3.org/2000/svg">
  <title>
    nvst-nvo
  </title>
  <defs>
    <linearGradient x1="79.184342%" y1="0%" x2="79.184341%" y2="66.636657%" id="a">
      <stop stop-color="#27BCFF" offset="0%"/>
      <stop stop-color="#0071FF" offset="100%"/>
    </linearGradient>
    <linearGradient x1="41.708244%" y1="17.637956%" x2="67.277402%" y2="100%" id="b">
      <stop stop-color="#FFFDFE" offset="0%"/>
      <stop stop-color="#C1D8FC" offset="100%"/>
    </linearGradient>
  </defs>
  <g fill="none" fill-rule="evenodd">
    <circle fill="#212C3F" cx="40" cy="40" r="40"/>
    <path d="M58.67017 31.28659c-1.53414-4.199923-3.064354-8.401066-4.64049-12.585378-2.208506-5.86116-4.45041-11.709877-6.693545-17.557863-.50786-1.32411-1.247058-1.487064-2.310913-.54594-.702606.621803-1.379917 1.27166-2.065578 1.91225-4.35046 4.064535-8.699938 8.13005-13.432276 12.55269 2.66062 2.512586 5.246338 4.877834 7.743156 7.332363 2.987488 2.936312 5.90032 5.947514 8.84311 8.928467 1.716364 1.73881 3.40424 3.5064 5.1513 5.21423 1.139248 1.113588 1.838907 1.114564 3.078107.18759 1.067787-.79866 2.092104-1.664406 3.212688-2.381835 1.53586-.98308 1.73822-1.34948 1.114445-3.056575" fill="url(#a)" transform="translate(11 15)"/>
    <path d="M13.276563 2.358173c-1.16749-1.193845-1.91872-1.018452-2.421424.568625-3.545205 11.19321-7.085494 22.38764-10.620627 33.58378-.548873 1.73832-.17559 2.450626 1.559437 3.054134 9.531966 3.31442 19.06442 6.627864 28.599088 9.934478.53561.185883 1.09357.307853 1.790773.50081.56189-.239306 1.226677-.44202 1.80944-.783293 4.54545-2.662123 9.07764-5.346444 13.608358-8.033693 1.749516-1.037723 1.862238-1.790036.467586-3.21782C36.475334 26.09261 24.8773 14.224417 13.276564 2.358174" fill="url(#b)" transform="translate(11 15)"/>
  </g>
</svg>
