<svg width="80" height="80" viewBox="0 0 80 80" xmlns="http://www.w3.org/2000/svg">
  <title>
    Group 36
  </title>
  <g fill="none" fill-rule="evenodd">
    <circle fill="#FFF" cx="40" cy="40" r="40"/>
    <path d="M20.136 39.896c-.684-.575-1.566-.922-2.53-.922-2.17 0-3.93 1.76-3.93 3.932 0 1.073.43 2.046 1.127 2.756-4.452 5.39-7.463 10.805-8.678 15.62C2.245 55.118 0 47.822 0 40 0 17.91 17.91 0 40 0c14.95 0 27.987 8.203 34.85 20.354-8.506-5.496-26.832-1.313-43.954 10.675-3.985 2.79-7.595 5.786-10.76 8.866zm-4.405 6.466c.558.303 1.197.476 1.877.476 2.17 0 3.93-1.76 3.93-3.932 0-.71-.187-1.376-.516-1.95 1.714-1.522 3.585-3.003 5.594-4.41 13.156-9.212 27.27-11.754 31.525-5.678 4.253 6.076-2.963 18.47-16.12 27.68-13.155 9.213-27.27 11.755-31.524 5.68-2.85-4.072-.55-10.98 5.235-17.866zm9.155 30.683c8.685-1.244 19.226-5.603 29.347-12.69 14.002-9.804 23.374-22.152 25.09-31.726.445 2.388.678 4.852.678 7.37 0 22.09-17.91 40-40 40-5.35 0-10.452-1.05-15.115-2.955z" fill="#51A8DC"/>
  </g>
</svg>
