<svg width="80" height="80" viewBox="0 0 80 80" xmlns="http://www.w3.org/2000/svg">
  <title>
    nxt
  </title>
  <g fill-rule="nonzero" fill="none">
    <path d="M62.924 54.717L32.74 34.722H24.64c-2.8 0-5.067-2.268-5.067-5.067 0-2.8 2.268-5.068 5.067-5.068h11.125L65.95 44.582h13.11c.386-3.275.386-6.584 0-9.86H63.97c-2.798 0-5.067-2.268-5.067-5.067 0-2.8 2.27-5.068 5.068-5.068h12.394C67.992 4.317 44.802-5.32 24.587 3.05 13.577 7.57 5.195 16.82 1.784 28.22L26.57 44.635h7.822c2.8 0 5.067 2.27 5.067 5.067 0 2.8-2.27 5.068-5.068 5.068h-10.96L.073 39.24v.44c.053 21.922 17.846 39.605 39.77 39.548 15.972-.053 30.403-9.694 36.518-24.456l-13.44-.053.002-.003z" fill="#008FBB"/>
    <circle fill="#008FBB" cx="39.934" cy="39.934" r="39.934"/>
    <g fill="#FFF">
      <path d="M9.878 42.6h6.61c1.52 0 2.754 1.232 2.754 2.754 0 1.52-1.233 2.754-2.754 2.754h-6.61c-1.52 0-2.754-1.233-2.754-2.754 0-1.522 1.233-2.755 2.754-2.755M52.84 32.41h16.526c1.52 0 2.754 1.232 2.754 2.753 0 1.522-1.233 2.755-2.754 2.755H52.84c-1.52 0-2.753-1.233-2.753-2.755 0-1.52 1.233-2.754 2.754-2.754"/>
      <path d="M66.612 41.277V35.11c.003-1.49 1.21-2.695 2.697-2.698h.11c1.487.003 2.692 1.21 2.695 2.697v6.167c-.003 1.488-1.208 2.694-2.696 2.697h-.11c-1.542.002-2.698-1.21-2.698-2.697M18.14 32.96l14.872 9.915h4.957c1.52 0 2.754 1.233 2.754 2.754 0 1.52-1.234 2.753-2.755 2.753h-6.61c-.992 0-1.873-.496-2.37-1.375l.167.276-13.77-9.366h-5.51c-1.52 0-2.753-1.233-2.753-2.755 0-1.52 1.233-2.754 2.754-2.754h6.61c.77 0 1.542.33 2.038.936m22.14-.386l15.59 9.915h5.178c1.542-.053 2.864 1.212 2.864 2.754-.052 1.54-1.322 2.808-2.864 2.753h-6.94c-.992 0-1.983-.496-2.48-1.375l.166.275-14.43-9.365h-5.73c-1.542.052-2.864-1.212-2.864-2.754.053-1.543 1.322-2.81 2.865-2.754h6.94c.817-.007 1.6.333 2.15.936"/>
    </g>
  </g>
</svg>
