<svg width="80" height="80" xmlns="http://www.w3.org/2000/svg">
  <g fill="none" fill-rule="evenodd">
    <circle fill="#000" cx="40" cy="40" r="40"/>
    <circle fill="#FFF" cx="40" cy="40" r="31"/>
    <path d="M31.35625 48h-3.515625l-6.84375-11.226563V48H17.48125V30.9375h3.515625l6.855469 11.25v-11.25h3.503906V48zm9.553125-9.375l3.550781-7.6875h3.84375l-5.601562 10.875V48h-3.574219v-6.1875l-5.601563-10.875h3.85547l3.527343 7.6875zm22.347656 3.691406c-.132813 1.835947-.81054 3.281245-2.033203 4.335938-1.222662 1.054693-2.833974 1.582031-4.833984 1.582031-2.187511 0-3.908197-.73632-5.16211-2.208984-1.253912-1.472664-1.880859-3.494128-1.880859-6.064453v-1.04297c0-1.640633.28906-3.08593.867188-4.335937.578127-1.250006 1.404291-2.20898 2.478515-2.876953 1.074224-.667972 2.322259-1.001953 3.74414-1.001953 1.96876 0 3.554682.527338 4.757813 1.582031 1.203131 1.054693 1.898437 2.535147 2.085938 4.441406h-3.515625c-.085938-1.101568-.392576-1.900388-.919922-2.396484-.527347-.496096-1.330073-.74414-2.408203-.74414-1.171881 0-2.048825.419917-2.63086 1.259765-.582034.839848-.880859 2.14257-.896484 3.908203v1.289063c0 1.843759.279294 3.191402.83789 4.042969.558597.851566 1.439448 1.277343 2.642579 1.277343 1.085943 0 1.896482-.248044 2.43164-.74414.53516-.496097.841797-1.263667.919922-2.302735h3.515625z" fill="#000"/>
  </g>
</svg>
