<?xml version="1.0" encoding="UTF-8"?>
<svg width="105px" height="105px" viewBox="0 0 105 105" version="1.1" xmlns="http://www.w3.org/2000/svg" xmlns:xlink="http://www.w3.org/1999/xlink">
    <!-- Generator: Sketch 49.2 (51160) - http://www.bohemiancoding.com/sketch -->
    <title>Group</title>
    <desc>Created with Sketch.</desc>
    <defs></defs>
    <g id="Page-1" stroke="none" stroke-width="1" fill="none" fill-rule="evenodd">
        <g id="Group">
            <circle id="Oval" fill="#0057FF" cx="52.5" cy="52.5" r="52.5"></circle>
            <path d="M34.58,55.372 L34.58,40 L39.548,40 L39.548,65.2 L35.768,65.2 L24.968,49.792 L24.968,65.2 L20,65.2 L20,40 L23.78,40 L34.58,55.372 Z M59.996,43.924 L49.52,60.448 L60.212,60.448 L60.212,65.2 L43.184,65.2 L43.184,61.24 L53.66,44.752 L43.436,44.752 L43.436,40 L59.996,40 L59.996,43.924 Z M63.488,40 L73.496,40 C76.952,40 79.832,41.224 82.136,43.636 C84.476,46.048 85.628,49.036 85.628,52.6 C85.628,56.164 84.476,59.152 82.136,61.564 C79.832,63.976 76.952,65.2 73.496,65.2 L63.488,65.2 L63.488,40 Z M68.456,60.448 L73.496,60.448 C75.692,60.448 77.456,59.728 78.824,58.288 C80.192,56.812 80.876,54.94 80.876,52.6 C80.876,50.26 80.192,48.388 78.824,46.948 C77.456,45.472 75.692,44.752 73.496,44.752 L68.456,44.752 L68.456,60.448 Z" id="NZD" fill="#FFFFFF"></path>
        </g>
    </g>
</svg>