<svg width="80" height="80" viewBox="0 0 80 80" xmlns="http://www.w3.org/2000/svg">
  <title>
    oax-oax
  </title>
  <g fill="none" fill-rule="evenodd">
    <circle fill="#1D477E" cx="40" cy="40" r="40"/>
    <g fill-rule="nonzero" fill="#FFF">
      <path d="M34.95768 46.59639l-1.70029 3.269443h-3.752173l10.186667-19.588055L46.47826 43.34111h-3.84029l-3.033912-5.679166-3.033913 5.75-1.612464 3.184445zm14.833045 3.269443H46.03855l-1.70029-3.269444h3.752175l1.70029 3.26944z"/>
      <path d="M59.874783 37.492778l-2.14 2.663333-8.046667-9.795h4.38261l5.804057 7.13167zm-2.14 2.57889l2.14 2.663332-5.804058 7.130556h-4.38261l8.046668-9.79389zm4.294492 0l-2.14-2.663335 5.804348-7.130555h4.294493l-7.95884 9.79389zm0 0l7.95884 9.793888h-4.294492L59.889565 42.735l2.13971-2.663333zM27.7171 33.11111c1.946 1.828756 3.012873 4.349396 2.946088 6.960557.026077 2.60414-1.034557 5.11034-2.946087 6.96139-1.964053 1.97222-4.382604 2.833332-7.240575 2.833332-2.715347.039434-5.330106-.983756-7.24058-2.833337-1.939753-1.833103-3.005457-4.351284-2.946087-6.96139-.035877-2.033875.622994-4.023237 1.876232-5.665l2.506376 2.409723c-.64947 1.007413-.9898 2.169734-.98203 3.353888.000392 1.731144.704957 3.393954 1.96406 4.635278 1.259458 1.260215 3.001326 1.97285 4.822173 1.97285s3.562712-.712635 4.822172-1.97285c1.29393-1.219716 2.004657-2.897473 1.96406-4.63639-.00009-1.731528-.704678-3.39479-1.96406-4.636388-1.255473-1.25762-3.00682-1.94856-4.822318-1.9025-1.196362-.034038-2.377425.264554-3.40058.859722l-2.492754-2.409722c1.705138-1.203724 3.775818-1.83705 5.893335-1.8025 2.718474-.055478 5.339587.970198 7.24058 2.833333z"/>
    </g>
  </g>
</svg>
