<svg width="80" height="80" viewBox="0 0 80 80" xmlns="http://www.w3.org/2000/svg">
  <title>
    obits-obits
  </title>
  <g fill="none" fill-rule="evenodd">
    <circle fill="#1373BF" cx="40" cy="40" r="40"/>
    <g fill="#FFF">
      <path d="M51.917564 20.09369c-.606567.649077-1.125254 1.236202-1.678328 1.789968-4.159045 4.158484-8.324776 8.310297-12.487642 12.464015-.337194.336454-.68394.66433-1.011582 1.011266-.65815.69768-.657194 1.46304-.014328 2.1207 1.776716 1.81856 3.56203 3.63331 5.420895 5.368.95713.89308 1.4357.82731 2.43295-.14297 2.16358-2.10736 4.28609-4.25475 6.42483-6.38594 2.53325-2.52388 5.05218-5.063 7.60644-7.56496.94471-.92549 1.40991-.88736 1.96203.29451.76895 1.647 1.63056 3.31973 1.99355 5.07634 2.49218 12.0332-2.60776 22.73394-13.6043 27.42617-10.15308 4.33195-21.8135.9922-28.27272-7.85757-5.5852-7.65073-5.9329-18.7718-.44036-26.8238 5.69886-8.3551 15.86818-12.19714 25.76621-9.44452 2.06137.57378 4.10173 1.159 5.90232 2.66875"/>
      <path d="M8.000096 40.271345c.028656-13.031125 8.294208-24.355203 20.040596-28.488906 2.950687-1.03796 5.94627-1.70515 9.071762-1.77282.47379-.01049.964776-.02192 1.418507.08768.67439.16298 1.22842.65384 1.06221 1.34581-.10125.42033-.66101.94264-1.09373 1.03033-1.55319.31643-3.15224.3965-4.71021.69006-10.98889 2.07019-18.36991 8.45136-21.66638 19.04153-4.66627 14.99075 3.84764 28.98739 17.01541 33.86739 2.47881.91881 5.06173 1.34295 7.70197 1.45447.62758.02573 1.31152.03717 1.85505.29642.42126.20111.92466.78061.91702 1.18187-.00955.42509-.50531 1.07417-.92179 1.20665-.72979.23065-1.57134.24495-2.34985.17156-5.80489-.5471-11.19331-2.31324-15.89588-5.81597-4.47618-3.33403-7.91116-7.54017-10.03845-12.73661-1.51689-3.70194-2.37277-7.54875-2.4062-11.5595m62.09376 8.94994c-.01719.75392-.78042 1.41444-1.61815 1.39823-.81576-.01525-1.33636-.52899-1.34686-1.33152-.01337-.86544.62949-1.43827 1.54555-1.37727.7852.05338 1.43475.65194 1.41946 1.31055m-8.1027-30.64706c.83296-.04099 1.56752.60714 1.5914 1.40586.02197.72151-.78328 1.55264-1.53313 1.47162-.74508-.08102-1.36311-.41938-1.43761-1.29054-.07355-.84351.54352-1.54596 1.37934-1.58695m-14.9995 49.83338c.0554.65384-.53302 1.27718-1.30293 1.37917-.89409.11914-1.55224-.41461-1.55224-1.28291.00096-.80539.35344-1.33723 1.216-1.40586.82627-.06481 1.57421.53851 1.63917 1.30959m4.68939-2.93801c.81577.03145 1.52168.78918 1.40132 1.57075-.12227.78823-.63045 1.26098-1.41946 1.3439-.74698.07815-1.5465-.72152-1.53982-1.46877.00669-.782517.75559-1.47639 1.55797-1.44589m18.20102-20.8678c-.68489-.00667-1.48346-.85591-1.47009-1.563128.01529-.74248.82245-1.47258 1.59427-1.39251.82245.08483 1.25803.5795 1.28669 1.40014.02866.855902-.62854 1.56408-1.41086 1.5555m.21082-6.404718c-.81767.029546-1.60573-.5795-1.68884-1.30769-.07546-.65861.70114-1.484014 1.461498-1.55359.772774-.07053 1.429013.593794 1.45385 1.47353.02579.828264-.445135 1.35916-1.22651 1.38775m.00277-7.52683c.02006.67958-.85588 1.5555-1.52931 1.52786-.712596-.029547-1.485372-.876875-1.41755-1.61936.073553-.8092.533016-1.291484 1.368837-1.34295.75845-.0467 1.55701.69292 1.57803 1.434452m-4.09793-7.1242c.796656.03908 1.51403.81206 1.405134 1.58028-.11367.79777-.63236 1.25241-1.42424 1.32389-.77182.07053-1.542687-.69673-1.53313-1.46019.01146-.79204.75367-1.48306 1.55224-1.44398m-7.25932-7.53188c-.06687.74821-.85684 1.33056-1.72705 1.27052-.78615-.05242-1.24657-.60238-1.21409-1.44589.03152-.80634.55689-1.28195 1.3908-1.25908.913194.02573 1.617194.67767 1.55033 1.43445m-13.17215-3.10795c-.630446.055282-1.310566-.59284-1.41373-1.34486-.11367-.822546.3286-1.45923 1.07558-1.54978.84824-.101985 1.667823.470844 1.75666 1.22953.075465.650985-.738386 1.60602-1.418505 1.66511m16.4884 48.3465c-.81194.001904-1.39367-.5023-1.44048-1.248596-.05445-.88068.55785-1.51737 1.456714-1.45351.77182.05433 1.37839.370767 1.469136 1.24192.0831.80062-.59606 1.457325-1.485373 1.460185m-4.549442 4.25085c-1.070805-.03336-1.772895-.894986-1.677372-1.66511.10221-.81683.60084-1.24478 1.42137-1.2505.84347-.00572 1.735648.78442 1.46532 1.428734-.265553.632874-.891225 1.11325-1.209314 1.486874m9.90013-10.717984c.063044.833983-.573135 1.529764-1.44048 1.51642-.794746-.01239-1.359283-.36886-1.49015-1.21428-.128954-.831125.48239-1.460187 1.421374-1.47639.816715-.014297 1.45767.48419 1.509252 1.17425m-15.73645-40.4022c-.87212.0305-1.56657-.60714-1.51498-1.42492.05445-.87783.65147-1.22572 1.42615-1.24287.76227-.01716 1.40514.25925 1.51021 1.14375.09553.81492-.55307 1.49355-1.42137 1.52405"/>
    </g>
  </g>
</svg>
