<svg width="80" height="80" xmlns="http://www.w3.org/2000/svg" xmlns:xlink="http://www.w3.org/1999/xlink">
  <defs>
    <path id="a" d="M0 .147632h41.828013v39.664394H0z"/>
  </defs>
  <g fill="none" fill-rule="evenodd">
    <circle fill="#FFF" cx="40" cy="40" r="40"/>
    <g transform="translate(19 9.115526)">
      <mask id="b" fill="#fff">
        <use xlink:href="#a"/>
      </mask>
      <path d="M10.810048 39.812026c-.30826-.235263-.485074-.34-.625852-.481842-2.415518-2.433947-4.775815-4.91921-6.827852-7.68579-1.65874-2.236052-2.674-4.720526-3.113444-7.508157-.671222-4.258421.075704-8.278684 1.897778-12.06921 2.20837-4.595 5.720037-7.951843 10.30011-10.083159 3.353-1.56 6.934927-2.106315 10.577779-1.713947 4.418296.476053 8.34763 2.191842 11.70374 5.248947 2.686186 2.446316 4.744963 5.316053 5.892963 8.762632 1.814037 5.446316 1.769445 10.776053-1.346333 15.843421-1.192074 1.939474-2.541 3.728158-4.092926 5.373947-1.131407 1.2-2.237407 2.425-3.363889 3.63-.197815.21158-.439444.380264-.777778.667895-.070259-.38079-.15037-.615-.151148-.84921-.009074-3.199737-.003889-6.399737-.011666-9.599474-.001037-.448684.106814-.818421.34611-1.22079 1.264149-2.127105 2.035186-4.404736 2.001223-6.937368-.033963-2.525-.753926-4.813684-2.157037-6.875263-1.646037-2.418947-3.855445-4.095526-6.657519-4.891053-3.976259-1.12842-7.64011-.48842-10.969259 2.052895-2.767333 2.112368-4.270778 4.99579-4.779444 8.374737-.334704 2.223684.092037 4.433947 1.003074 6.51421.06974.159737.133.329737.235926.46658 1.002296 1.332894 1.089926 2.856052 1.041444 4.462105-.074148 2.452631-.016592 4.908947-.024111 7.36342-.001037.325264-.05574.650264-.101889 1.154474" fill="#00AFA8" mask="url(#b)"/>
    </g>
    <path d="M32.759356 66.488342c.014518-.54579-.293223-.833158-.89289-.83342-.604592-.000264-.91648.282367-.90637.822367.008556.466053.41326.951843.832223.998421.456037.050527.952777-.456578.967037-.987368m15.707481-.73842c-1.086296-.07737-1.327148.003946-1.41374.522104-.072334.434737-.089964.888421.387333 1.137106.47963.249736.834037.048684 1.421259-.823422-.125482-.265526-.267815-.566315-.394852-.835789m-1.830889-1.328684c.537704-.12421.910519-.210263 1.305111-.301316 2.295222.606053 2.351482 1.943947 2.160148 3.097632-.148037.890263-1.286185 1.821052-2.620333 1.602368-1.318852-.216053-1.89363-1.240526-1.811185-2.943684a90180.74762 90180.74762 0 0 1-5.813111-6.076842c-2.020926 1.705526-3.719852 3.802368-5.773963 5.591842 0 .447631.022815.927105-.004667 1.403158-.072592 1.25421-.945 2.03921-2.231963 2.035-1.278667-.003684-2.087037-.806053-2.220555-2.062632-.128074-1.20921.527592-2.312631 2.13811-2.62.362445.106842.732667.216316 1.224741.36158 2.03389-1.955264 4.122741-3.963685 6.248667-6.007632v-1.32579c.00026-4.425-.00026-8.849737.001296-13.274737.00026-.350263-.05963-.724473.043556-1.042368.077519-.238684.345852-.524737.575815-.57658.394592-.089473.633889.22079.674333.614475.035519.346842.019704.699736.019963 1.05.002593 4.381052.003889 8.762105.005704 13.14342.00026.435264 0 .870527 0 1.395 2.002518 1.95579 4.016185 3.922895 6.078333 5.937106" fill="#00AFA8"/>
    <path d="M54.325474 58.770158c.21337.631052.415074 1.203158 1.138667 1.071053.546778-.099737.900148-.455264.86411-1.072106-.876814-1.02579-1.090184-1.029473-2.002777.001053m-2.789111 5.18421c-.469-.325526-.816148-.507105-1.089667-.768158-.691703-.660526-1.349963-1.356842-2.021963-2.03842-1.831926-1.857106-3.66437-3.714474-5.511852-5.587632V41.657c.984408-.252105 1.19363-.141579 1.25663.650263.02437.305.005445.613421.005445.920263v11.687895a123327.948288 123327.948288 0 0 1 7.219851 7.161316c.64737-.636316 1.252741-1.23079 1.892593-1.859737-.291407-.973684-.385519-1.972105.275852-2.738158.420778-.487895 1.10937-.737368 1.558407-1.018947 2.051778.61342 2.83189 1.577105 2.507815 2.913684-.32926 1.36-1.558407 2-3.405111 1.667895a36132.208821 36132.208821 0 0 0-2.688 2.912894m-26.142096-5.011526c-.422593-.828684-.714-1.091052-1.169778-.862895-.30774.153948-.590074.48921-.736037.812106-.14363.31842.299963.851842.717111.946842.624556.142105.981815-.172895 1.188704-.896053m1.13711 1.321316c.644779.61842 1.259742 1.208684 1.959742 1.88079 2.454925-2.37 4.723703-4.756843 7.07337-7.110264.018407-.346579.051852-.691579.05237-1.036316.004408-3.634736.00389-7.269736.004926-10.904736 0-.30658-.011926-.61421.007778-.919474.02463-.392105.216222-.687105.624037-.702895.40626-.01579.620667.25079.669148.650263.015556.129737.014519.262106.014519.393158.000777 4.291053.000518 8.582105.000518 12.822105-1.00826 1.374211-7.680296 8.026316-8.599889 8.534737-.896-.864737-1.823889-1.76-2.763963-2.667105-.484555 0-.958222.024737-1.428259-.005-1.247555-.077895-2.016-.950526-2.013407-2.255526.002333-1.267369.821852-2.17 2.039333-2.246316 1.737296-.108684 2.809852 1.178421 2.420704 2.898158-.037593.167895-.032926.345526-.060926.66842" fill="#00AFA8"/>
    <path d="M56.365378 51.07279c-.170074-.539211-.448778-.938158-1.076704-.925-.607704.012894-.755481.47421-.887185.936052.159963.49579.359852.92921.966.891053.550148-.035.824963-.391316.997889-.902105m-2.149 2.220526c-1.037556 1.015263-2.053593 2.009737-3.131074 3.064474-.819778-.69658-1.576556-1.264474-2.24363-1.925264-.795148-.788684-1.535333-1.638684-2.250889-2.503684-.19911-.240526-.315518-.627631-.317852-.94842-.022555-3.464211-.009333-6.928422-.020481-10.392632-.001815-.542632.196-.92658.705963-1.193948.723333.152369.846222.69658.841815 1.362895-.013482 2.061053-.006482 4.122105-.00726 6.183158-.000259 1.444473 0 2.888684 0 4.22079 1.139963 1.177894 2.192815 2.265262 3.18889 3.294736.778036-.721053 1.53948-1.426053 2.303-2.133684-.239297-.963421-.403667-1.867369.282592-2.646316.478333-.543158 1.044815-.882105 1.801592-.879737 1.31237.00421 2.33463 1.07421 2.29263 2.448158-.047444 1.547632-1.345556 2.357632-3.445296 2.049474m-28.814515-2.255342c-.460963-.816842-.666037-.973684-1.124667-.87921-.414815.085789-.816926.526841-.817963.897368-.001037.365263.399519.824473.811482.902368.652555.123158.942148-.272368 1.131148-.920526m1.156556 1.328684c.718407.636052 1.49463 1.323158 2.287962 2.025526.926852-.97921 1.963112-2.07342 3.15726-3.334474 0-1.196052.000259-2.637894 0-4.079473-.000519-2.058684.011666-4.117632-.009334-6.176053-.00674-.617894.103445-1.126316.744593-1.426842.612111.197895.806296.651316.803704 1.293421-.013482 3.41658.004407 6.833421-.022556 10.249737-.002592.358947-.12937.810526-.363481 1.058421-1.313926 1.39-2.676852 2.732895-4.030704 4.083421-.083222.082895-.232815.097369-.49026.197369-1.060629-.854474-1.955333-1.986053-3.043444-2.940527-.425444 0-.85374.012106-1.281-.002105-1.605333-.052895-2.496666-1.286316-2.070703-2.86579.067666-.251315.17163-.492631.267037-.761842.868-.851842 1.849555-1.237368 3.014148-.601842 1.058037.577106 1.282296 1.294474 1.036778 3.281053" fill="#00AFA8"/>
    <path d="M48.466837 65.75c.127037.26921.26937.570263.394852.83579-.587222.871842-.94163 1.073157-1.42126.82342-.477296-.248947-.459666-.702368-.387333-1.137368.086593-.517895.327445-.59921 1.413741-.521842m-15.707481.738342c-.01426.53079-.511 1.037895-.967037.987368-.418963-.046578-.823667-.532368-.832223-.99842-.01011-.54.301778-.822632.90637-.822369.599667.000263.907408.287632.89289.833421m21.566118-7.718184c.912593-1.030526 1.125963-1.026842 2.002778-.001053.036037.616842-.317333.972369-.864111 1.072105-.723593.132106-.925297-.44-1.138667-1.071052m-28.931207.172684c-.20689.723158-.564148 1.038158-1.188704.896053-.417148-.095-.86074-.628421-.717111-.946842.145963-.322895.428296-.658158.736037-.812106.455778-.228157.747185.03421 1.169778.862895m30.971111-7.870052c-.172926.510789-.447741.867105-.99789.902105-.606147.038158-.806036-.395263-.966-.891053.131705-.461842.279482-.923158.887186-.936052.627926-.013158.90663.385789 1.076704.925m-30.963515-.034816c-.189.648158-.478593 1.043684-1.131148.920526-.411963-.077895-.812519-.537105-.811482-.902368.001037-.370527.403148-.81158.817963-.897369.45863-.094473.663704.062369 1.124667.87921" fill="#FFF"/>
  </g>
</svg>
