<svg width="80" height="80" viewBox="0 0 80 80" xmlns="http://www.w3.org/2000/svg" xmlns:xlink="http://www.w3.org/1999/xlink">
  <title>
    ocn-odyssey
  </title>
  <defs>
    <path id="a" d="M0-.000067h63.33029V63.33029H0z"/>
  </defs>
  <g fill="none" fill-rule="evenodd">
    <circle fill="#FFF" cx="40" cy="40" r="40"/>
    <g transform="translate(8 8)">
      <mask id="b" fill="#fff">
        <use xlink:href="#a"/>
      </mask>
      <path d="M31.665112 61.309238c-16.346274 0-29.644127-13.297853-29.644127-29.644126 0-16.346274 13.297853-29.644127 29.644127-29.644127 16.346273 0 29.644126 13.297853 29.644126 29.644127 0 16.346273-13.297853 29.644126-29.644126 29.644126m0-61.309305c-17.460548 0-31.66518 14.204631-31.66518 31.665179 0 17.460547 14.204632 31.665178 31.66518 31.665178 17.460547 0 31.665178-14.204631 31.665178-31.665178 0-17.460548-14.204631-31.66518-31.665178-31.66518m-20.100043 31.66518c0 10.091115 7.475874 18.465684 17.178948 19.88581v-5.46762c-6.716632-1.358822-11.789474-7.30678-11.789474-14.41819 0-7.11141 5.072842-13.059369 11.789474-14.41819v-5.46762c-9.703074 1.420125-17.178947 9.795367-17.178947 19.88581m23.915789-19.73221v5.52623c6.267284 1.685558 10.894821 7.41457 10.894821 14.20598s-4.627537 12.52042-10.894821 14.205979v5.526231c9.263831-1.787958 16.284295-9.953684 16.284295-19.73221 0-9.778527-7.020464-17.944253-16.284295-19.73221" fill="#1D2326" mask="url(#b)"/>
    </g>
  </g>
</svg>
