<svg width="80" height="80" xmlns="http://www.w3.org/2000/svg">
  <g fill="none" fill-rule="evenodd">
    <circle fill="#FFF" cx="40" cy="40" r="40"/>
    <path d="M58.127 49.038608c-3.286352 8.133382-10.167422 13.733416-18.12669 13.733416-7.959578 0-14.840338-5.600034-18.12731-13.733416C24.161733 58.837745 31.408504 66 40.00031 66c8.591497 0 15.838268-7.162255 18.12669-16.961392M40.00031 18.227976c7.959268 0 14.840338 5.600034 18.127 13.733416C55.838577 22.162562 48.591806 15 40.00031 15c-8.591807 0-15.838578 7.162562-18.12731 16.961392 3.286972-8.133382 12.979292-13.733416 18.12731-13.733416M17.209382 40.17711c0-9.311577 3.982423-17.69688 10.344383-23.58816C18.328489 21.00618 12 30.051396 12 40.5c0 11.005289 7.018672 20.456652 17.05097 24.579257-4.420645-3.618762-11.841588-17.179212-11.841588-24.902147m35.237163-23.58816c6.36196 5.89128 10.344383 14.276583 10.344383 23.58816 0 10.024638-4.609383 18.981681-11.841588 24.902147C60.981637 60.956652 68 51.50529 68 40.5c0-10.448604-6.32818-19.49382-15.553455-23.91105" fill="#000" fill-rule="nonzero"/>
  </g>
</svg>
