<svg width="80" height="80" viewBox="0 0 80 80" xmlns="http://www.w3.org/2000/svg" xmlns:xlink="http://www.w3.org/1999/xlink">
  <title>
    odn-obsidian
  </title>
  <defs>
    <path id="a" d="M0 .072423v59.7289l59.983152.000002V.072423z"/>
    <linearGradient x1="50%" y1="-32.725105%" x2="50%" y2="100%" id="c">
      <stop stop-color="#00504B" offset="0%"/>
      <stop stop-color="#27C8BF" offset="100%"/>
    </linearGradient>
  </defs>
  <g fill="none" fill-rule="evenodd">
    <circle fill="#FFF" cx="40" cy="40" r="40"/>
    <g transform="translate(8 10.126)">
      <mask id="b" fill="#fff">
        <use xlink:href="#a"/>
      </mask>
      <path d="M44.399444.195735c1.826026.243576 3.630993.783378 5.31894 1.482914 4.681192 1.94006 7.394305 5.73457 9.138874 10.31463.513775 1.34841.866822 2.75841 1.125894 4.22722-.088013-.10192-.196688-.19212-.261258-.30696-3.686622-6.55987-9.173046-9.28967-16.506556-7.71497-9.114636 1.95715-16.95477 6.274966-22.91265 13.61523-3.165496 3.9-4.569933 8.515034-4.641456 13.446756-.067153 4.62258 1.438808 8.728012 4.887417 12.04907 3.23125 3.111856 6.74046 5.751657 10.94781 7.37901 4.4839 1.73404 8.95132 1.893375 13.38298-.205035.62682-.29682 1.2741-.55033 1.91424-.81854.05404-.02245.12556-.00298.42238-.00298-.47384.409868-.80166.732716-1.16782 1.004305-5.45602 4.04941-11.615557 5.60961-18.32443 5.011597-8.41987-.750795-15.542187-4.335497-21.438677-10.308874C2.8858 45.92567.534873 41.845272.09024 36.91037c-.448013-4.971655.787947-9.566224 3.341126-13.84053 2.95967-4.954767 7.07563-8.793376 11.657484-12.183972 6.2247-4.606094 12.922845-8.260333 20.54364-9.992783C37.013086.57918 38.415934.31037 39.829907.195735c1.518278-.12298 3.059603-.20126 4.569537 0" fill="#000" mask="url(#b)"/>
    </g>
    <path d="M19.47314 38.476113c-.48914-7.901325 2.0547-14.648345 7.8-20.08947 4.849668-4.592583 10.599933-7.605497 17.271257-8.171325 5.330663-.451987 10.088345 1.702053 12.58669 7.006887 1.518277 3.22371 1.800992 6.61053 1.57768 10.083576-.366356 5.69623-1.63629 11.14371-4.83298 15.96755-2.705165 4.08219-6.304767 7.11259-10.99033 8.73954-.30437.1057-.617285.18735-.852715.25808 1.39033-1.27132 2.93404-2.46079 4.209338-3.88967 4.18788-4.69231 5.606225-10.3045 5.195562-16.47814-.15437-2.32053-.76629-4.49523-1.92596-6.50662-1.839934-3.191122-4.580265-4.940062-8.285563-5.18662-8.63047-.57457-16.84073 4.639274-19.92994 12.740466-.6902 1.81053-1.21947 3.682253-1.82305 5.525763" fill="url(#c)" transform="translate(8 10)"/>
  </g>
</svg>
