<svg width="80" height="80" viewBox="0 0 80 80" xmlns="http://www.w3.org/2000/svg" xmlns:xlink="http://www.w3.org/1999/xlink">
  <title>
    ok-okcash
  </title>
  <defs>
    <path id="a" d="M0 79.791058V.03617h79.96754v79.754888z"/>
  </defs>
  <g fill="none" fill-rule="evenodd">
    <g transform="translate(0 .173)">
      <mask id="b" fill="#fff">
        <use xlink:href="#a"/>
      </mask>
      <path d="M79.581035 39.7253c.03918 21.84799-17.78463 39.63487-39.7673 39.684136C17.917555 79.458703.015795 61.6369-.000043 39.773113-.015883 17.829087 17.799593.04969 39.817903.036178 61.730756.022873 79.541645 17.800608 79.581035 39.7253" fill="#0164A4" mask="url(#b)"/>
    </g>
    <path d="M52.78247 30.91432c-1.466805 3.520834-2.87581 6.902766-4.284606 10.28449l.172775.12846c1.82052-1.136085 3.64146-2.271124 5.46115-3.40846 2.30492-1.440627 4.61885-2.867468 6.90555-4.336502.54848-.352376 1.03162-.41128 1.66136-.24585 2.45319.644597 4.92272 1.227156 7.67225 1.903082-3.71498 2.30684-7.22304 4.485222-10.84314 6.73316 1.10932.380156 2.07623.642924 2.98597 1.036658 2.16188.935352 2.94199 2.422976 2.14031 4.622245-1.15183 3.159687-2.51749 6.24188-3.82325 9.433943-2.6467-.646476-5.20587-1.271436-7.9022-1.930026.37319-.895875.71351-1.714465 1.05508-2.53243.54911-1.315508 1.10701-2.627675 1.64628-3.94736.40314-.986947.17926-1.616085-.83602-1.974727-1.01424-.358225-2.07477-.59008-3.12168-.851802-1.5156-.37869-3.03686-.73462-4.64168-1.12083-1.14178 2.71415-2.25697 5.36543-3.41822 8.12596-2.60712-.64042-5.19309-1.27561-7.87184-1.93337 3.073926-7.34809 6.103664-14.5907 9.169633-21.91979 2.620944.64355 5.17843 1.27165 7.87225 1.93316" fill="#F8FCFC"/>
    <path d="M28.012545 42.76566c.943455.05765 1.367958-.54893 1.680628-1.297545 1.00398-2.40355 2.008586-4.806684 3.009005-7.211488.623665-1.498904.471204-1.917494-1.08733-2.333577-2.35309-.628094-4.725445-1.18684-7.100314-1.72846-1.19686-.272794-1.729005.039687-2.211518 1.180992-1.05445 2.495248-2.097173 4.995718-3.136126 7.497442-.49131 1.18329-.314555 1.681462.929424 2.015874 2.451728.6588 4.929424 1.22256 7.397697 1.820366.16754.04073.34534.038642.51854.056397m-6.4287-19.31676c.9755.20282 2.78995.53285 4.58053.96147 3.69131.88334 7.37613 1.79635 11.05026 2.74799 1.00524.26047 2.00314.62037 2.93466 1.07635 1.76482.86413 2.32356 2.12575 1.89089 4.03426-.1223.53932-.30974 1.06987-.52209 1.58183-1.53172 3.69107-3.0756 7.37734-4.62136 11.06277-.20146.48-.41885.955196-.6578 1.41765-1.28419 2.486893-3.0379 3.506214-5.79623 3.042506-2.74283-.46099-5.45194-1.13274-8.16314-1.764803-2.54303-.593-5.07937-1.21922-7.59874-1.903917-1.034343-.28094-2.05906-.67008-3.012563-1.15718-1.71037-.873527-2.28859-2.15102-1.74115-3.99102.433923-1.459844 1.051515-2.868304 1.63225-4.28115 1.14953-2.79624 2.32565-5.582034 3.50178-8.367413.24314-.57525.51665-1.13984.808165-1.69253 1.027436-1.947154 2.654033-2.87582 5.714556-2.76679" fill="#F9FCFD"/>
  </g>
</svg>
