<svg width="80" height="80" viewBox="0 0 80 80" xmlns="http://www.w3.org/2000/svg"><title>Group 11</title><g fill-rule="nonzero" fill="none"><circle fill="#1A53F0" cx="40" cy="40" r="40"/><path d="M32.128 45.418c-5.108 0-9.25 4.153-9.25 9.276s4.142 9.276 9.25 9.276c5.11 0 9.25-4.153 9.25-9.276s-4.14-9.276-9.25-9.276zm0 15.746c-3.56 0-6.448-2.895-6.448-6.467 0-3.572 2.887-6.467 6.448-6.467 3.56 0 6.45 2.895 6.45 6.467-.007 3.57-2.89 6.463-6.45 6.467zM51.882 25.63c-5.108 0-9.25 4.153-9.25 9.276 0 5.124 4.142 9.277 9.25 9.277 5.11 0 9.25-4.153 9.25-9.277 0-5.123-4.14-9.276-9.25-9.276zm0 15.747c-3.56 0-6.448-2.895-6.448-6.467 0-3.572 2.886-6.468 6.45-6.468 3.562 0 6.448 2.896 6.448 6.468-.006 3.57-2.892 6.46-6.45 6.466zM32.128 25.63c-4.404-.003-8.2 3.107-9.075 7.436-.875 4.328 1.412 8.675 5.467 10.394 4.067 1.708 8.774.316 11.257-3.33 2.483-3.646 2.055-8.536-1.024-11.694h2.623V25.63h-9.248zm6.45 9.276c0 3.572-2.888 6.467-6.45 6.467-3.56 0-6.448-2.895-6.448-6.467 0-3.572 2.887-6.466 6.448-6.466 3.56 0 6.446 2.896 6.452 6.467h-.003z" fill="#FFF"/></g></svg>