<svg width="80" height="80" viewBox="0 0 80 80" xmlns="http://www.w3.org/2000/svg">
  <title>
    omni-omni
  </title>
  <g fill="none" fill-rule="evenodd">
    <circle fill="#FFF" cx="40" cy="40" r="40"/>
    <g fill="#1A377C">
      <path d="M39.99269 21.648836c-10.076918.013968-18.34683 8.153958-18.352046 18.320837-.005266 10.288075 8.355624 18.228703 18.11089 18.352733 10.123364.128677 18.592484-8.068668 18.595552-18.32878.003016-10.108708-8.233564-18.342007-18.354397-18.34479zm-.370476 43.344024c-.10005-.014913-.199642-.036517-.300256-.043616-.535046-.037793-1.070935-.064964-1.60547-.108708-1.317587-.10784-2.614673-.337768-3.896038-.661823-7.341028-1.856588-13.533998-7.052528-16.62022-13.947676-.936477-2.092186-1.58387-4.268744-1.91631-6.538075-.136936-.93483-.2103-1.873825-.261144-2.81721-.044606-.827325-.018558-1.65156.03382-2.474056.18157-2.85023.826098-5.594102 1.95373-8.221553 2.79489-6.512308 8.204296-11.526558 14.91112-13.821195 1.557746-.532967 3.154525-.894918 4.786274-1.118182 1.550613-.212155 3.108665-.260087 4.66503-.17602 3.654832.197445 7.12367 1.124028 10.33924 2.879953 6.390413 3.48965 10.549897 8.76095 12.473056 15.78151.317 1.1572.512526 2.33976.645015 3.53358.14397 1.29716.18914 2.59742.12577 3.89854-.54368 11.16026-8.27589 20.21134-18.49361 22.94709-1.48366.39724-2.99332.64696-4.52359.77134-.41577.03381-.83328.045504-1.24972.071525-.10048.006307-.19989.029264-.29982.04456h-.76687zM17.100736 25.486233v-8.34479c.218763-.059755 7.342996-.085955 8.385327-.02975-.285685.193105-.53479.35835-.780496.5285-.251968.174488-.50299.35051-.75.531868-.240158.17636-.47707.35736-.711094.54181-.24072.18976-.478962.38284-.71319.58049-.234253.19768-.464724.39998-.692203.60539-.22748.20542-.451943.41435-.672674.62702-.214596.20677-.42569.41734-.6329.63149-.213112.22025-.422443.44433-.628322.671374-.205854.227018-.40859.45705-.606774.69078-.19816.23376-.392025.4713-.582157.71162-.184842.233607-.36567.470558-.542562.71024-.18195.246477-.35956.496298-.53438.74788-.17198.247575-.33808.499184-.53857.796094M62.87401 17.1121v8.28685c-2.20562-3.332814-4.97042-6.091292-8.31076-8.28685h8.31076zM17.1107 54.49204c2.189724 3.39724 4.949336 6.152093 8.28047 8.354417h-8.25803c-.054704-.200945-.07743-7.718897-.022445-8.354418"/>
      <path d="M54.53874 62.830498c3.38548-2.186313 6.1341-4.930644 8.286375-8.259346.0227.006282.031646.006997.038523.011133.006186.00373.014366.011237.01439.01711.00404 2.662615.007568 5.32518.01043 7.987794.000103.07545-.00685.15094-.010327.22206-.18854.06366-7.85557.08897-8.33939.02124"/>
    </g>
  </g>
</svg>
