<svg width="80" height="80" xmlns="http://www.w3.org/2000/svg" xmlns:xlink="http://www.w3.org/1999/xlink">
  <defs>
    <path id="a" d="M.224493.07712h49.68311v58.901327H.224492z"/>
  </defs>
  <g fill="none" fill-rule="evenodd">
    <circle fill="#3B72C3" cx="40" cy="40" r="40"/>
    <g transform="translate(15 11)">
      <mask id="b" fill="#fff">
        <use xlink:href="#a"/>
      </mask>
      <path d="M42.2581 45.801377c-2.188012 3.092657-5.156433 5.184075-8.68655 6.423368-7.25117 2.545806-14.283918 2.094354-20.910234-1.958154-3.592105-2.196502-6.053217-5.351094-6.992105-9.541562-.777193-3.467498-.365205-6.79498 1.39269-9.92198.745614-1.325592 1.614912-2.563125 2.602046-3.71289 2.930702-3.414075 6.400585-6.268384 9.614035-9.39509.745322.788134 1.438012 1.520497 2.169006 2.293661-1.67193 1.800821-3.666959 3.44695-5.575438 5.184368-1.880994 1.711881-3.673392 3.502428-5.155263 5.584453-.971345 1.364926-1.707895 2.844035-2.147369 4.46492-.602047 2.221453-.266374 4.36013.6231 6.43423 1.033333 2.410487 2.73918 4.24888 4.88538 5.704213 6.630994 4.495742 16.435087 4.247707 22.807894-.589119 2.769006-2.101398 4.502924-4.852677 4.95117-8.329567.285673-2.216463-.390936-4.260035-1.454094-6.17093-1.542105-2.771826-3.729532-5.007075-6.084795-7.071488-4.003509-3.50918-7.72924-7.302204-11.56462-11.15687.816375-.948697 1.546491-1.797593 2.321053-2.697856.88041 1.020024 1.725146 2.063238 2.637427 3.043343 2.164035 2.326244 4.572514 4.39594 6.90848 6.541955 2.553508 2.34591 5.055262 4.740547 7.11111 7.561393 1.790351 2.456866 3.043568 5.155309 3.227193 8.207751.2 3.322493-.755848 6.382274-2.680117 9.101851m-10.301462-11.48915c-.456725-.685984-1.045906-1.283029-1.614327-1.969308.152924-.490492.644444-.769641.982748-1.164442.3462-.404488.738597-.769349 1.205848-1.249861 1.632749 1.69603 3.16813 3.385015 3.958772 5.585627.813743 2.264015.3731 4.331657-1.250877 6.124552-1.561988 1.724502-3.532164 2.70402-5.760234 3.261731-3.654386.91406-7.233626.7171-10.756725-.605557-1.489474-.559472-2.754678-1.446527-3.824269-2.623298-1.758187-1.93526-2.109357-4.13822-1.130117-6.526105.827485-2.018328 2.207603-3.652423 3.697953-5.098657.870468.831578 1.602924 1.531652 2.386258 2.28016-.691813.74381-1.426024 1.457388-1.950585 2.344149-1.16228 1.965492-.827193 3.897522.946784 5.347278 3.206725 2.62007 8.69883 2.746583 12.03655.277095 2.225145-1.646423 2.607894-3.675905 1.072221-5.983363m-9.287134-9.909652c1.207895-1.255144 3.505848-1.28802 4.752924-.067806 1.499415 1.466781 1.24152 3.426697-.786257 5.642866.3769 2.246403.761696 4.539184 1.141228 6.799383-1.644152 1.014154-3.457895 1.039104-5.40234.053423.390936-2.287498.789182-4.618144 1.17544-6.875995-2.033042-2.105508-2.31813-4.058672-.880995-5.55187m26.867251 9.425616c-.75614-3.941259-2.647368-7.33684-5.307017-10.292124-1.926608-2.140732-3.952924-4.190468-5.918129-6.296269-2.131286-2.283975-4.266082-4.561786-6.172807-7.049473-2.175146-2.838457-2.274561-5.800199-.774561-8.93483.162573-.33991.48041-.639314.33772-1.172369-2.832457-.06311-5.011112 1.130687-6.623393 3.522682C23.474474 1.197964 21.296988.005049 18.456345.080487c-.03041.140895-.051754.18874-.049123.235413.026608.461432.342983.79782.518714 1.19497 1.302046 2.942368 1.338889 5.770552-.733334 8.416746-.511696.653403-.990935 1.33293-1.519883 1.971657-2.71228 3.277288-5.736842 6.26398-8.658187 9.346363-1.780994 1.879194-3.531579 3.782751-4.846783 6.04207C-.08313 32.871278-.764123 38.70171 1.743479 44.715893c2.376316 5.69893 6.664913 9.563578 12.248246 11.977 5.331287 2.304816 10.90234 2.84022 16.588597 1.724796 6.357894-1.246631 11.683625-4.286159 15.547076-9.60203 3.259941-4.485173 4.461403-9.50487 3.409356-14.987467" fill="#FFF" mask="url(#b)"/>
    </g>
  </g>
</svg>
