<svg width="80" height="80" xmlns="http://www.w3.org/2000/svg" xmlns:xlink="http://www.w3.org/1999/xlink">
  <defs>
    <path id="a" d="M.00007 0h50.892654v51.829143H.00007z"/>
  </defs>
  <g fill="none" fill-rule="evenodd">
    <circle fill="#F2D477" cx="40" cy="40" r="40"/>
    <g transform="translate(15 14)">
      <mask id="b" fill="#fff">
        <use xlink:href="#a"/>
      </mask>
      <path d="M33.162732 25.049355c3.603414 3.594721 6.843497 6.748327 9.968566 10.012653.607076.634259 1.064317 1.693714 1.084365 2.568517.10587 4.61951.049594 9.242204.049594 14.19883-6.322945-6.411918-12.364862-12.539428-18.654745-18.917741-3.135973 3.23355-6.0282 6.301904-9.038255 9.248217-.624663.611266-1.68089 1.066885-2.549649 1.087048-4.595979.105769-9.196179.049524-14.022538.049524 6.039104-6.06419 11.859435-11.909061 17.879897-17.954857-2.905593-2.887946-5.653262-5.515892-8.257076-8.280735-.641193-.680245-1.125517-1.79913-1.149083-2.730177C8.35774 9.75994 8.42105 5.185001 8.42105-.000141c5.93675 6.066666 11.45671 11.707781 17.102938 17.47766 3.134917-3.176953 6.010965-6.185878 9.013282-9.061443.672849-.644517 1.781131-1.13551 2.702649-1.15921 4.552717-.116735 9.110006-.053062 13.652876-.053062-5.876607 5.914912-11.713118 11.789143-17.730063 17.845551" fill="#000" mask="url(#b)"/>
    </g>
  </g>
</svg>
