<svg width="40" height="40" viewBox="0 0 40 40" xmlns="http://www.w3.org/2000/svg"><title>LOGO symbol (color) Copy 3</title><desc>Created with Sketch.</desc><g transform="translate(-118 -450) translate(118 450)" fill="none"><rect width="40" height="40" rx="20"/><path d="M32.222 35.65l-7.539-7.872-3.572 1.442 8.196 8.558c1.03-.618 1.994-1.327 2.915-2.128zM37.778 29.307l-8.558-8.196-1.442 3.572 7.872 7.539c.801-.899 1.51-1.863 2.128-2.915zM13.28 26.513c-3.59-3.59-3.59-9.436 0-13.026s9.436-3.59 13.026 0l12.704 12.704c.644-1.956.99-4.028.99-6.191 0-11.024-8.976-20-20-20s-20 8.976-20 20 8.976 20 20 20c2.048 0 4.005-.322 5.869-.898l-12.589-12.589z" fill="#00E0C7" fill-rule="nonzero"/></g></svg>