<svg width="80" height="80" viewBox="0 0 80 80" xmlns="http://www.w3.org/2000/svg" xmlns:xlink="http://www.w3.org/1999/xlink">
  <title>
    oxy-oxycoin
  </title>
  <defs>
    <path id="a" d="M.096347.163299h41.473772v17.651085H.096347z"/>
  </defs>
  <g fill="none" fill-rule="evenodd">
    <circle fill="#002451" cx="40" cy="40" r="40"/>
    <g transform="translate(10.585227 31.022324)">
      <mask id="b" fill="#fff">
        <use xlink:href="#a"/>
      </mask>
      <path d="M16.908562 17.616619c3.175563-2.956454 6.351125-5.912722 9.561563-8.901464-.717403-1.105423-1.40187-2.14163-2.065199-3.19268-.222284-.352021-.536335-.32233-.85708-.32233-2.112931-.000186-4.225863-.002227-6.338795.002783-.471165.001113-.870818-.068289-1.307636-.371134-.463591-.321588-1.093279-.465588-1.663432-.512165-2.108-.172206-4.221108-.212845-6.326114.074783-.346284.04732-.71846.097794-1.018949.265547-.763903.426618-1.56955.433299-2.395102.420495-1.290903-.020413-2.581983-.010392-3.873062-.016887-.135273-.000742-.27037-.027093-.52841-.054742C1.645467 2.990969 3.472882 1.614062 5.70946.875876 7.694165.22101 9.757955.177402 11.811704.170907c5.13596-.01633 10.272097-.00501 15.408057.01967 1.882722.009093 1.335642-.341443 2.349836 1.442784.662977 1.166474 1.306227 2.346124 1.93063 3.53598.210307.400824.460069.549834.9027.54334 1.819136-.026908 3.638976-.008351 5.458641-.006681.288511.000186.577023 0 .9455.15532-1.009261.963835-2.018523 1.92767-3.09137 2.952185 1.939438 2.953856 3.866546 5.889155 5.854421 8.917052-.281642.031546-.46729.070144-.652937.070515-2.201176.004454-4.402529-.010392-6.603529.013175-.494238.005382-.797369-.14734-1.059108-.609402-.781164-1.379876-1.613056-2.72802-2.427687-4.086742-.153591-.256082-.319688-.504-.51696-.81334-.215239.18631-.397012.327155-.560995.487856-1.54683 1.516268-3.084323 3.043299-4.642778 4.546206-.220875.212845-.538625.44035-.814278.444247-2.433324.034516-4.867353.020041-7.301029.020041-.027477-.062165-.054954-.12433-.082256-.186494" fill="#FFF" mask="url(#b)"/>
    </g>
    <path d="M43.092954 36.036882c1.444319-1.536309 2.773444-2.969814 4.131631-4.371773.184415-.190391.514847-.313051.7787-.315093 2.815715-.020597 5.631783-.002412 8.4475-.017443.44351-.002227.693448.160145.874868.584536.649767 1.520722 1.324546 3.029196 1.995273 4.539712.094938.213773.219466.412886.36654.68604.17737-.168123.311761-.274824.422903-.403979 1.35942-1.578618 2.725534-3.151113 4.06558-4.747917.373233-.44499.752102-.683629 1.348676-.666928 1.641239.045464 3.28459.015588 4.927239.018928.13492.000186.26984.025794.537568.053258-.462534.504185-.84017.922639-1.224676 1.333855-2.530904 2.707237-5.059341 5.416701-7.599932 8.113732-.322506.342371-.525063.704784-.619472 1.18466-.362664 1.843237-.760556 3.678866-1.149113 5.516536-.069046.326784-.15641.649485-.243773 1.009114h-5.711222c.156762-.773444.298552-1.488619.447034-2.202495.301194-1.447423.594108-2.896701.916614-4.338928.101807-.45501.031529-.830412-.186176-1.231608-.727443-1.34035-1.448722-2.685712-2.124733-4.055567-.235494-.477279-.489835-.644103-1.015602-.637794-2.991148.036185-5.982824.018557-8.974324.016886-.084546 0-.169267-.026721-.411102-.067732m-15.244655.741081h4.99417c.166273.94064.136506 1.858268-.011977 2.76736-.47733 2.921011-2.076296 5.078042-4.31217 6.732743-1.763654 1.305464-3.770552 1.94864-5.92329 2.136433-2.346665.20468-4.688046.237897-7.031188-.024124-1.632608-.182783-3.168693-.621093-4.437227-1.802227-1.446608-1.347216-2.229182-2.992639-2.11575-5.066165.08208-1.503092.459187-2.916742 1.067562-4.272494.154472-.344042.352097-.518103.738011-.513279 1.494694.019114 2.989563.007794 4.570035.007794-.326557.449815-.632154.812598-.875574 1.216763-.729733 1.211938-1.133966 2.50998-.797898 3.96167.229153.990742.76038 1.781629 1.672767 2.125485.818506.308598 1.692142.593072 2.549045.62035 1.754495.055856 3.518324-.007608 5.270177-.140289 1.087642-.082391 2.115045-.505113 2.990795-1.239773 2.015-1.69033 2.601006-3.986536 1.652511-6.510247" fill="#F2BA29"/>
  </g>
</svg>
