<?xml version="1.0" encoding="UTF-8"?>
<svg width="80px" height="80px" viewBox="0 0 80 80" version="1.1" xmlns="http://www.w3.org/2000/svg" xmlns:xlink="http://www.w3.org/1999/xlink">
    <!-- Generator: Sketch 46.2 (44496) - http://www.bohemiancoding.com/sketch -->
    <title>part-particl</title>
    <desc>Created with Sketch.</desc>
    <defs></defs>
    <g id="Apogee-Crypto---UI-Colours-Updated---Large-and-Small" stroke="none" stroke-width="1" fill="none" fill-rule="evenodd">
        <g id="Coin-Logos" transform="translate(-720.000000, -320.000000)">
            <g id="part-particl" transform="translate(720.000000, 320.000000)">
                <circle id="Oval-8" fill="#000000" cx="40" cy="40" r="40"></circle>
                <g id="Group-22" transform="translate(13.000000, 13.000000)" fill-rule="nonzero" fill="#03E8B0">
                    <path d="M25.9081294,11.5085039 C27.6811607,12.2801647 28.9452025,10.644857 30.0383035,9.55201145 C31.9907077,7.89575133 33.8470375,6.12680829 35.607804,4.27022297 C36.617351,3.16894541 36.2085241,1.15393965 34.8358876,0.540699252 C33.7803476,-0.0349801759 32.4912652,0.398887409 31.6820433,1.19993269 C29.5584429,3.23589082 27.5268286,5.37175604 25.3199297,7.31598364 C23.9516115,8.43386979 24.2310702,10.8617907 25.9081294,11.5085039" id="path30" transform="translate(30.309061, 5.992778) scale(-1, 1) rotate(-180.000000) translate(-30.309061, -5.992778) "></path>
                    <path d="M45.2487097,17.3051425 C46.4504053,17.9518556 48.373425,17.426002 48.7073855,15.9951077 C49.2163751,14.7226339 48.3987212,13.4629359 47.5016016,12.6158976 C45.5366771,10.6760137 43.6259223,8.68196037 41.7151674,6.687907 C41.0186285,5.84495696 39.7921477,5.61959111 38.8073858,6.07441108 C37.3849236,6.66286635 37.0011373,8.79873156 38.0732859,9.87931226 C40.4845983,12.3322739 42.612287,15.081635 45.2487097,17.3051425" id="path32" transform="translate(43.161290, 11.711236) scale(-1, 1) rotate(-180.000000) translate(-43.161290, -11.711236) "></path>
                    <path d="M6.84695686,17.1774909 C8.09858052,17.9325432 9.64627154,17.4319857 10.5724179,16.4055746 C12.6541646,14.3031821 14.8026013,12.2713122 16.9094142,10.2021369 C18.3029008,8.91305445 17.3308381,6.1846457 15.3868149,6.17621364 C13.759786,5.92580714 12.8961135,7.53632975 11.8072796,8.41658525 C9.89657583,9.99772342 8.14858516,11.7582344 6.41725419,13.5312657 C5.43681055,14.5408127 5.7289685,16.3930543 6.84695686,17.1774909" id="path34" transform="translate(11.694257, 11.845564) scale(-1, 1) rotate(-180.000000) translate(-11.694257, -11.845564) "></path>
                    <path d="M8.46149108,30.4192039 C10.5599231,31.2286813 12.6082482,28.583571 11.2983412,26.7607139 C9.75057351,24.7413644 7.73546554,23.118577 6.04596268,21.2119103 C5.04885934,20.1857547 4.11862475,18.6087559 2.45815116,18.8090811 C0.514028326,18.8841264 -0.462125192,21.5875201 0.952099163,22.8972994 C3.50528214,25.3420844 5.53283378,28.4335826 8.46149108,30.4192039" id="path36" transform="translate(5.996157, 24.680462) scale(-1, 1) rotate(-180.000000) translate(-5.996157, -24.680462) "></path>
                    <path d="M51.0101033,35.838433 C52.4535179,36.7812902 54.6312878,35.7091415 54.6772809,33.9693274 C54.8898709,32.3340197 53.2670835,31.4706283 52.3743076,30.3732346 C50.8016015,28.4792927 49.0745632,26.7144379 47.2930999,25.0165541 C45.9914971,23.785985 43.5592324,24.6496575 43.32569,26.4307887 C43.0211139,28.270791 44.7481522,29.4137433 45.8371649,30.5901173 C47.6393252,32.2632415 49.16195,34.2363425 51.0101033,35.838433" id="path38" transform="translate(48.993254, 30.314467) scale(-1, 1) rotate(-180.000000) translate(-48.993254, -30.314467) "></path>
                    <path d="M13.9349427,48.8680337 C15.3366059,49.7066399 17.4643712,48.7096133 17.4977162,47.0076412 C17.7563248,45.3638503 16.1334862,44.4917969 15.2449776,43.394582 C13.6762319,41.496373 11.9283435,39.7568655 10.1635909,38.0379016 C9.01634588,36.8781873 6.57158636,37.437437 6.24618567,39.1016948 C5.69133087,40.7078481 7.0555608,42.0054137 8.09428783,43.0151906 C10.1093958,44.9009304 11.8615769,47.0576458 13.9349427,48.8680337" id="path40" transform="translate(11.821669, 43.297803) scale(-1, 1) rotate(-180.000000) translate(-11.821669, -43.297803) "></path>
                    <path d="M38.8492906,48.6803015 C39.6252952,48.9469844 40.6098015,48.9679368 41.2646912,48.408917 C43.6928677,46.1018555 46.2751208,43.9575327 48.5571416,41.4961646 C49.2621126,40.782736 49.3247142,39.5853842 48.8576294,38.7261066 C48.198396,37.1825294 45.937072,37.144994 44.8398827,38.2380439 C42.6248073,40.3281971 40.4971186,42.5223458 38.2692673,44.6042969 C36.9219271,45.6514305 37.2387679,48.0752376 38.8492906,48.6803015" id="path42" transform="translate(43.291125, 43.172496) scale(-1, 1) rotate(-180.000000) translate(-43.291125, -43.172496) "></path>
                    <path d="M20.1551935,54.4544261 C21.3106917,55.0802379 22.6666429,54.4876433 23.4968682,53.6076177 C25.591033,51.5300359 27.685249,49.4524796 29.8589307,47.4581452 C31.289825,46.0982079 30.3219272,43.3404301 28.3069215,43.319769 C26.6800458,43.1278319 25.8330075,44.7422797 24.7400087,45.6266005 C22.8417997,47.1995366 21.0813398,48.9309698 19.3792655,50.712382 C18.3529055,51.8096224 18.7701134,53.8493622 20.1551935,54.4544261" id="path44" transform="translate(24.674440, 49.009130) scale(-1, 1) rotate(-180.000000) translate(-24.674440, -49.009130) "></path>
                    <path d="M16.4409241,2.57510003 C16.4409241,1.25765523 15.3730426,0.189850383 14.0557255,0.189850383 C12.7384085,0.189850383 11.670527,1.25765523 11.670527,2.57510003 C11.670527,3.89228931 12.7384085,4.96034968 14.0557255,4.96034968 C15.3730426,4.96034968 16.4409241,3.89228931 16.4409241,2.57510003" id="path46" transform="translate(14.055726, 2.575100) scale(-1, 1) rotate(-180.000000) translate(-14.055726, -2.575100) "></path>
                    <path d="M23.3932561,8.91932752 C23.3932561,7.60188272 22.3253746,6.53407787 21.0080831,6.53407787 C19.6907661,6.53407787 18.6229868,7.60188272 18.6229868,8.91932752 C18.6229868,10.2365168 19.6907661,11.3045772 21.0080831,11.3045772 C22.3253746,11.3045772 23.3932561,10.2365168 23.3932561,8.91932752" id="path48" transform="translate(21.008121, 8.919328) scale(-1, 1) rotate(-180.000000) translate(-21.008121, -8.919328) "></path>
                    <path d="M4.77037154,14.7476665 C4.77037154,13.4302217 3.70249004,12.3624169 2.38509123,12.3624169 C1.06788151,12.3624169 0,13.4302217 0,14.7476665 C0,16.0648558 1.06788151,17.1326606 2.38509123,17.1326606 C3.70249004,17.1326606 4.77037154,16.0648558 4.77037154,14.7476665" id="path50" transform="translate(2.385186, 14.747539) scale(-1, 1) rotate(-180.000000) translate(-2.385186, -14.747539) "></path>
                    <path d="M42.6337504,2.38576206 C42.6337504,1.06857278 41.5659455,0.000767925312 40.2487563,0.000767925312 C38.9313115,0.000767925312 37.8635066,1.06857278 37.8635066,2.38576206 C37.8635066,3.70320686 38.9313115,4.77101171 40.2487563,4.77101171 C41.5659455,4.77101171 42.6337504,3.70320686 42.6337504,2.38576206" id="path52" transform="translate(40.248628, 2.385890) scale(-1, 1) rotate(-180.000000) translate(-40.248628, -2.385890) "></path>
                    <path d="M54.9862007,14.1489906 C54.9862007,12.8318013 53.9183959,11.7637409 52.6012066,11.7637409 C51.2840173,11.7637409 50.2159569,12.8318013 50.2159569,14.1489906 C50.2159569,15.4661798 51.2840173,16.5342402 52.6012066,16.5342402 C53.9183959,16.5342402 54.9862007,15.4661798 54.9862007,14.1489906" id="path54" transform="translate(52.601079, 14.148991) scale(-1, 1) rotate(-180.000000) translate(-52.601079, -14.148991) "></path>
                    <path d="M48.4674552,21.0027186 C48.4674552,19.6855293 47.3993949,18.6177245 46.0822056,18.6177245 C44.7650163,18.6177245 43.6972115,19.6855293 43.6972115,21.0027186 C43.6972115,22.3199079 44.7650163,23.3877128 46.0822056,23.3877128 C47.3993949,23.3877128 48.4674552,22.3199079 48.4674552,21.0027186" id="path56" transform="translate(46.082333, 21.002719) scale(-1, 1) rotate(-180.000000) translate(-46.082333, -21.002719) "></path>
                    <path d="M54.9752135,40.2660817 C54.9752135,38.9488924 53.9074086,37.8810875 52.5899638,37.8810875 C51.2727746,37.8810875 50.2049697,38.9488924 50.2049697,40.2660817 C50.2049697,41.5835009 51.2727746,42.6513824 52.5899638,42.6513824 C53.9074086,42.6513824 54.9752135,41.5835009 54.9752135,40.2660817" id="path58" transform="translate(52.590092, 40.266235) scale(-1, 1) rotate(-180.000000) translate(-52.590092, -40.266235) "></path>
                    <path d="M36.3735879,46.0823603 C36.3735879,44.7649666 35.3055276,43.6971873 33.9883383,43.6971873 C32.671149,43.6971873 31.6030886,44.7649666 31.6030886,46.0823603 C31.6030886,47.3995751 32.671149,48.467661 33.9883383,48.467661 C35.3055276,48.467661 36.3735879,47.3995751 36.3735879,46.0823603" id="path60" transform="translate(33.988338, 46.082424) scale(-1, 1) rotate(-180.000000) translate(-33.988338, -46.082424) "></path>
                    <path d="M43.235748,52.6073557 C43.235748,51.289847 42.1676877,50.2220652 40.8504984,50.2220652 C39.5330536,50.2220652 38.4652487,51.289847 38.4652487,52.6073557 C38.4652487,53.924453 39.5330536,54.9923345 40.8504984,54.9923345 C42.1676877,54.9923345 43.235748,53.924453 43.235748,52.6073557" id="path62" transform="translate(40.850498, 52.607200) scale(-1, 1) rotate(-180.000000) translate(-40.850498, -52.607200) "></path>
                    <path d="M17.1150286,52.6068518 C17.1150286,51.2896421 16.0471471,50.2218607 14.7299578,50.2218607 C13.4125386,50.2218607 12.3446571,51.2896421 12.3446571,52.6068518 C12.3446571,53.9242558 13.4125386,54.9920351 14.7299578,54.9920351 C16.0471471,54.9920351 17.1150286,53.9242558 17.1150286,52.6068518" id="path64" transform="translate(14.729843, 52.606948) scale(-1, 1) rotate(-180.000000) translate(-14.729843, -52.606948) "></path>
                    <path d="M11.2976257,33.9249715 C11.2976257,32.6078589 10.2297442,31.5399774 8.91255495,31.5399774 C7.5951357,31.5399774 6.52725419,32.6078589 6.52725419,33.9249715 C6.52725419,35.2424929 7.5951357,36.3102722 8.91255495,36.3102722 C10.2297442,36.3102722 11.2976257,35.2424929 11.2976257,33.9249715" id="path66" transform="translate(8.912440, 33.925125) scale(-1, 1) rotate(-180.000000) translate(-8.912440, -33.925125) "></path>
                    <path d="M4.77037154,40.8573732 C4.77037154,39.5401583 3.70249004,38.472379 2.38509123,38.472379 C1.06788151,38.472379 0,39.5401583 0,40.8573732 C0,42.1747669 1.06788151,43.2426484 2.38509123,43.2426484 C3.70249004,43.2426484 4.77037154,42.1747669 4.77037154,40.8573732" id="path68" transform="translate(2.385186, 40.857514) scale(-1, 1) rotate(-180.000000) translate(-2.385186, -40.857514) "></path>
                </g>
            </g>
        </g>
    </g>
</svg>