<svg width="80" height="80" xmlns="http://www.w3.org/2000/svg" xmlns:xlink="http://www.w3.org/1999/xlink">
  <defs>
    <path id="a" d="M0 0h49.983928v44.940242H0z"/>
  </defs>
  <g fill="none" fill-rule="evenodd">
    <circle fill="#FA9E42" cx="40" cy="40" r="40"/>
    <g transform="translate(15 18)">
      <mask id="b" fill="#fff">
        <use xlink:href="#a"/>
      </mask>
      <path d="M34.314071 27.376955c-.187142.903897-.347857 1.711594-.5225 2.51628-.222678 1.026495-.6025 1.337598-1.648571 1.363641-.326964.00815-.655714.019665-.981429-.001417-.976071-.062894-1.50875-.7138-1.345178-1.675453.117321-.69059.286964-1.3725.432321-2.053347-.651428-.183011-2.964107-.210826-4.015-.049251-.12125.597224-.257321 1.224566-.375 1.855452-.323393 1.734095-.574821 1.943681-2.350357 1.926673-.14875-.001417-.298214.003544-.446071-.009035-.955357-.080787-1.446786-.690768-1.293572-1.619114.067143-.406949.168572-.808229.241965-1.214469.051607-.285944.082321-.575787.120714-.852697-.625357-.223405-2.991607-.277972-4.355-.102578-1.259822 5.79685-2.404464 11.652165-3.660536 17.478602H5.206393c-.041429-.677834 5.872678-29.589803 6.328036-30.956457 2.9525-.172913 5.938392-.008326 9.012142-.03809-.451071 2.217224-.883392 4.3425-1.326964 6.522697.266786.035964.463393.085393.660179.08557 5.653214.004961 11.306428.009213 16.959643-.001417.471607-.000708.950535-.070511 1.413392-.168307 1.657679-.350079 2.647679-1.382775 2.706965-3.06496.076785-2.181083.008214-4.36695-.001607-6.550867-.000179-.051909-.047143-.103641-.115-.243956H-.000036c.204107-.307028.309643-.502973.449465-.670748 1.593035-1.91002 3.196964-3.811004 4.782321-5.727225.250536-.302775.520536-.45939.912857-.431397.236964.01683.475893.001948.713929.001948 6.337678-.000177 12.675178-.000177 19.012678-.000354h1.403929c.173571-.797421.336071-1.538681.49625-2.280472C28.00407.337978 28.368536.03343 29.47175.011108c.327143-.006555.656786-.020905.981429.008504.933392.084685 1.435357.734882 1.275357 1.642855-.111072.630354-.240536 1.25752-.377322 1.96618h3.997143c.159286-.73435.3275-1.501476.491964-2.269133C36.04925.384927 36.43693.045833 37.407286.01093c.326785-.011693.655357-.017716.981607.00124 1.044821.06059 1.556786.695374 1.380536 1.714784-.104465.604488-.232322 1.204901-.374108 1.93252.502679.009566.908929-.005493 1.311072.028523 2.508928.212953 4.8425.917362 6.829286 2.5138 1.165178.936141 1.964107 2.128818 2.301964 3.592913.085.36868.131071.75437.132321 1.13244.010715 2.981516-.016071 5.96321.013572 8.94437.024464 2.46632-1.0975 4.30813-3.09 5.6475-1.843572 1.23945-3.936607 1.796103-6.149286 1.849076-1.873393.044822-3.74875.008858-5.623214.008858h-.806965z" fill="#000" mask="url(#b)"/>
    </g>
  </g>
</svg>
