<svg width="80" height="80" viewBox="0 0 80 80" xmlns="http://www.w3.org/2000/svg">
  <title>
    Group 19
  </title>
  <g fill="none" fill-rule="evenodd">
    <circle fill="#000" cx="40" cy="40" r="40"/>
    <path d="M66.78 39.26c-.124-.277-.325-.51-.528-.73C61.582 33.305 52.082 23 52.082 23l-12.07 13.06-12.225-12.937s-9.612 10.392-14.32 15.68c-.612.597-.612 1.674-.062 2.312 2.447 2.758 14.467 15.873 14.467 15.873l12.126-13.15L52.038 57 66.56 41.103s.306-.315.37-.527c.144-.436.042-.913-.153-1.315M20.16 40.717c-.39-.458-.26-1.18.105-1.614 1.537-1.73 7.686-8.26 7.686-8.26l8.565 9-8.58 9.286s-5.25-5.547-7.776-8.412m39.244.307c-.156.324-.63.86-.63.86l-6.653 7.153L43.537 40l8.454-9.165s4.87 4.99 7.102 7.672c.19.236.41.457.507.75.204.582.075 1.23-.194 1.766" fill-rule="nonzero" fill="#FFF"/>
  </g>
</svg>
