<svg width="80" height="80" xmlns="http://www.w3.org/2000/svg">
  <g fill="none" fill-rule="evenodd">
    <circle fill="#303D7E" cx="40" cy="40" r="40"/>
    <g fill-rule="nonzero">
      <path d="M32.364302 60.855422l.241512-.524097 5.709767-12.357831c1.843695-3.44827 2.37531-7.450725 1.49593-11.26265-.204253-.889359-.482794-1.759901-.832674-2.60241-.847093-3.357832-2.656628-4.33735-2.656628-4.33735l-6.71907 23.819277-.021627.07229L25 69.79036s3.413605-.538554 7.353488-8.909638l.010814-.025301z" fill="#1572D4"/>
      <path d="M48.210349 32.344578c-1.172009-5.126198-4.587575-9.44877-9.296396-11.76506-1.334876 4.756972-1.186451 9.809579.42535 14.479518.018023.054217.036046.112048.05407.16988.04686.144578.09372.29277.14058.440963.046861.148193.057675.187952.086512.285543.068489.249397.136977.50241.194651.755421.057675.253012.097326.444579.136977.668675l.032442.191566c.028837.171085.055271.340964.079302.509639 0 .057831 0 .119277.025233.177108.028837.224097.05407.444579.075697.668675v.07229c.016822.2.03004.4.039652.6V41.2c0 .2-.014419.398795-.043256.596385v.140964c-.021628.209639-.043256.415663-.072093.621687v.036145c-.03124.240964-.068489.46988-.111744.686747v.054217a17.183149 17.183149 0 0 1-.126163.610843l-.021628.090361c-.105737.448193-.225892.889157-.360465 1.322892v.036144a19.270071 19.270071 0 0 1-.219884.625302v.039759c-.16341.433735-.344845.86024-.544302 1.279518v.025301c-.10093.207229-.205465.413253-.313605.618072l-4.538256 9.650603c1.373372-2.53012 4.621163-5.121687 6.513605-6.484338.48062-.296385.943217-.613253 1.38779-.950602l.05407-.03253c5.437082-4.166506 7.94083-11.136984 6.40186-17.822892z" fill="#1D9DE6"/>
      <path d="M55.38 25.968675C53.735276 18.768253 48.709467 12.815197 41.898605 10c-1.511925 5.347204-.38251 11.096966 3.03872 15.46988l.082908.108433.136976.180723.147791.198795.133372.184338.140581.206024.126163.187952.136977.209638.122558.191566.133372.213253.118954.195181.126163.220482.111744.198795.118953.224097.10814.20241.115349.22771.10093.20241.111744.23494.09372.206024.104536.242168.090116.206024.10093.245783.082907.20964.093721.256626.075698.206024c.032442.090361.061279.180723.090116.271084l.064884.198795c.028837.093976.057674.191566.086512.289157l.057674.187952c.032442.104819.057674.213253.086512.321686l.043255.162651a28.939604 28.939604 0 0 1 .118954.487952c.061279.263855.111744.52771.16221.791566 0 .075904.025232.155422.03965.231325.033644.2.063683.398795.090117.596386 0 .072289.021628.144578.028837.216867.032442.260241.057674.520482.079302.777109v.140964a19.21308 19.21308 0 0 1 .032442.643373v1.040964c0 .240964-.012015.481928-.036046.722892 0 .079518 0 .159036-.021628.242168 0 .173494-.032442.361446-.050465.520482 0 .098795-.012016.19759-.036047.296386-.021628.16988-.04686.339759-.075698.506024 0 .083132-.025232.166265-.03965.249397-.039652.227711-.086512.451808-.136978.675904l-.075697.325301c-.025233.108434-.064884.263856-.097326.393976s-.061279.23494-.097325.361446c-.036047.126506-.075698.253012-.11535.379518-.06248.20241-.129767.403614-.20186.603614-.036046.10482-.072093.209639-.111744.314458-.039651.10482-.10093.26747-.155.39759l-.10814.260242c-.057674.140963-.118953.278313-.180232.415662l-.05407.112048c-.13938.301205-.28717.598796-.443372.892771l-.075698.144579c-.081705.151807-.165813.301205-.252325.448193l-.075698.126506c-.290775.481927-.60438.95783-.940814 1.42771l-.036046.050603c-.482752.654043-1.010305 1.273612-1.578837 1.854217-.578115.589125-1.197274 1.136288-1.852791 1.63735l-.05407.03253c-.221085.168674-.448178.33253-.681279.491565-.24031.159037-.48062.312049-.72093.459037-1.892442 1.36265-5.140233 3.943373-6.513605 6.484337v.03253c.926395-1.445783 2.786395-3.451807 6.40907-4.89759.463798-.149398.919186-.313253 1.366163-.491567C52.02515 48.10694 57.881942 36.943238 55.38 25.968675z" fill="#05BFE8"/>
    </g>
  </g>
</svg>
