<svg width="80" height="80" xmlns="http://www.w3.org/2000/svg">
  <g fill="none" fill-rule="evenodd">
    <circle fill="#FFF" cx="40" cy="40" r="40"/>
    <path d="M31.665514 54.823743V73.95404c-.951104-.249838-1.715394-.380542-2.426309-.651816-1.646877-.629052-3.27407-1.31141-4.896908-2.001355-.798928-.339567-1.166499-.94244-1.163092-1.862493.03937-10.208808-.00511-20.418185.08877-30.626423.073817-8.040705 6.629527-15.13252 14.677098-16.162791 4.1894-.536098 8.06858.166178 11.68183 2.413577 4.26246 2.651084 6.682523 6.558563 7.611293 11.375284.983659 5.100705.014195 9.845529-3.262903 13.98767-2.879621 3.64-6.707886 5.601897-11.225678 6.412683-3.519369.631517-6.73041-.384906-9.933312-1.590271-.288076-.10851-.577476-.213035-1.150789-.424363" fill="#BABABA"/>
    <path d="M31.915924 39.595233c-.037476 5.272195 3.311357 8.663117 8.58549 8.693469 4.730346.027317 8.632428-3.731247 8.620315-8.335122-.013817-5.287182-4.240316-8.742602-8.383533-8.831951-5.258045-.113442-8.972366 4.143658-8.822272 8.473604" fill="#231F20"/>
    <path d="M58.026656 21.73112c-2.398296-2.046695-4.874763-3.808077-7.713501-5.036396-4.228202-1.829486-8.61142-2.480542-13.189023-2.024879-3.26877.325529-6.366813 1.175204-9.267066 2.728673-5.559937 2.97851-9.486057 7.416964-11.810725 13.285013-1.44265 3.641328-1.82101 7.381301-1.6094 11.309079.266687 4.948943.080062 9.922547.084983 14.885339.002082 1.89664-.003785 3.793468-.014195 5.690108-.001704.296694-.048076.593387-.073628.890081-.081199.033008-.162208.066206-.243407.099214-.569716-.68748-1.165552-1.35504-1.705174-2.065474-3.4253-4.509214-5.924668-9.460434-6.935205-15.0758-1.192429-6.625338-.414321-13.060596 2.018991-19.317533 1.814385-4.66496 4.488833-8.760813 8.166435-12.145854 5.569969-5.127453 12.0706-8.511355 19.59653-9.46271 10.219685-1.29168 19.305426 1.611328 27.241704 8.166667.485678.40103.987255.792764 1.411609 1.25336.153123.166179.236593.6558.122839.771328-1.98795 2.019756-4.011672 4.004038-6.081767 6.049783m6.786435 42.620496c-2.592492 2.714634-5.37104 4.813306-8.456593 6.4971-4.58347 2.50103-9.51369 3.742819-14.713438 3.999296-.895268.04401-1.214953-.217399-1.1894-1.156613.063785-2.3358.040504-4.674634.01287-7.011571-.008896-.748374.233565-1.083388 1.020946-1.1145 5.863155-.230866 10.902398-2.516964 15.347319-6.25504.504606-.424363 1.002587-.856694 1.422397-1.215989 2.176846 2.077805 4.32511 4.128103 6.5559 6.257317" fill="#B4974F"/>
  </g>
</svg>
