<svg width="80" height="80" viewBox="0 0 80 80" xmlns="http://www.w3.org/2000/svg" xmlns:xlink="http://www.w3.org/1999/xlink">
  <title>
    pdc-projectdecorum
  </title>
  <defs>
    <path id="a" d="M33.697595.307687v53.230775H.297135V.307686h33.40046z"/>
  </defs>
  <g fill="none" fill-rule="evenodd">
    <circle fill="#FFF" cx="40" cy="40" r="40"/>
    <g transform="translate(27.184 16.232)">
      <mask id="b" fill="#fff">
        <use xlink:href="#a"/>
      </mask>
      <path d="M33.687833.307687c.004466 12.83967.023288 25.67966-.0067 38.51901-.00319 1.422594-.240858 2.850605-.44216 4.26587-.466085 3.280823-2.07011 5.875526-4.88449 7.652812-1.560638.98568-3.18827 1.86556-4.785595 2.79324.00032-12.79123.00032-25.58246.00032-38.73731-2.916467 1.74956-5.451387 3.26967-7.985988 4.7901l-7.103264 3.99244C6.38879 22.4879 4.28901 21.40757 2.211563 20.28613c-.616662-.332703-1.170797-.78077-1.91443-1.284923.514896-.358835.75416-.55323 1.017988-.704604 3.16339-1.81457 6.33667-3.611617 9.49495-5.43479C17.91397 8.760706 25.00575 4.63856 32.12305.561033c.42908-.246022 1.039045-.17623 1.564787-.25335" fill="#26568C" mask="url(#b)"/>
    </g>
    <path d="M60.871882 16.539775c-.525742.07712-1.135705.00733-1.564785.25335-7.1173 4.07753-14.20908 8.199672-21.312982 12.300782-3.158282 1.823175-6.331558 3.62022-9.494944 5.43479-.26382.151374-.50309.34577-1.01798.704605.74363.504154 1.297768.95222 1.91443 1.284923 2.077448 1.12144 4.177227 2.20177 6.26871 3.297396 2.371585 1.39232 4.743168 2.78464 7.11475 4.17728v9.513278c-1.02469-.5169-1.600834-.771845-2.142846-1.086065C31.7621 47.269267 22.89945 42.0993 14.015424 36.965663c-1.584883-.915572-3.252712-1.68742-4.88226-2.52555.306897-.33111.55541-.76356.92898-.979307 11.052395-6.384142 22.0815-12.809076 33.19259-19.08965 7.10454-4.0157 11.24444-2.50547 17.375977 1.363.17897.112816.16525.530288.241178.80563" fill="#5492D7"/>
    <path d="M9.133126 34.440232c1.629546.838132 3.297375 1.60966 4.882258 2.52523 8.884025 5.133638 17.746994 10.303924 26.62081 15.45445.542012.31454 1.11816.569485 2.142846 1.086067V43.9927c-.003828-2.723132-.007656-5.446263-.011803-8.169077 2.5346-1.520428 5.06952-3.040857 7.985988-4.790098 0 13.154526 0 25.946075-.00032 38.736988-2.182085-1.20366-4.382674-2.37577-6.543067-3.617033-8.87286-5.098264-17.753055-10.185693-26.583804-15.356297-1.8586-1.088297-3.621178-2.396165-5.247214-3.810473-2.134553-1.856637-3.133718-4.39589-3.332786-7.171923-.127926-1.780154.047534-3.582297.087092-5.37456" fill="#98BCE7"/>
  </g>
</svg>
