<svg width="80" height="80" xmlns="http://www.w3.org/2000/svg" xmlns:xlink="http://www.w3.org/1999/xlink">
  <defs>
    <path id="a" d="M0 .058454h57.992773v49.875489H0z"/>
    <path id="c" d="M.000015.058454h57.992768v49.87548H.000015z"/>
  </defs>
  <g fill="none" fill-rule="evenodd">
    <circle fill="#67AE21" cx="40" cy="40" r="40"/>
    <g transform="translate(11 15.007596)">
      <mask id="b" fill="#fff">
        <use xlink:href="#a"/>
      </mask>
      <path d="M11.131107 26.204247c.0551-.057332.096-.11506.093-.183818-.0001-.030383-.0041-.06004-.0152-.087318.0111.027345.0151.057001.0152.08745.003.068627-.0379.126354-.093.183686m44.677149.516248c-.822991-1.016314-1.507736-2.138573-2.321192-3.165786-.079717-.10066-.201808-.267701-.073295-.401122.116-.12041.219751-.25185.383356-.341678.644754-.353831 1.271498-.740225 1.904003-1.116116.186315-.110767.254908-.256936.125666-.4537.445064-.01136.506507-.230977.596156-.538903.047406-.163012.067269-.331308.109246-.496037.162744-.63811.45109-1.2214.742744-1.805812.45546-.91255.865035-1.832761.666404-2.90284-.081967-.44148-.065283-.900859-.141557-1.343792-.092164-.535072-.1546-1.074504-.245904-1.609841-.098719-.578336-.220876-1.147358-.424605-1.691942-.143013-.382233-.347006-.749934-.710897-.987913-.00927-.035205-.028669-.059115-.068064-.060898-.050055-.220145-.224717-.339498-.391036-.455482-.688717-.48045-1.476882-.779128-2.206185-1.18712-.804916-.450199-1.654722-.815786-2.497907-1.188244-.653228-.288573-1.308972-.5749-1.988354-.805482-.571458-.193923-1.145036-.39934-1.683589-.667767-.726986-.362352-1.469863-.690093-2.195723-1.053765-.9813-.491678-2.003914-.906209-2.941647-1.478534-1.299703-.793329-2.707527-1.169815-4.218771-1.207265-.797566-.01975-1.587783.06037-2.37416.180053-.902973.13745-1.77827.378005-2.63516.696697-.64707.240687-1.246338.580912-1.878842.851651-.626149.268032-1.222767.251916-1.790916-.112417-.96852-.62107-1.921482-1.266116-2.88795-1.890225-.665013-.429458-1.391006-.737979-2.138981-.989366-.747578-.25132-1.53071-.334015-2.310797-.39346-1.4984-.11407-2.982167-.035205-4.401909.518626-1.49628.58362-2.956874 1.247622-4.339671 2.06671-1.441658.853897-2.748644 1.875958-3.763313 3.224835-.734335.976156-1.466023 1.953963-2.09535 3.005879-.644157 1.076684-1.00904 2.231307-1.121664 3.473381-.038203.421797-.13924.83646-.350582 1.198283-.570664.97675-1.24316 1.886195-1.991068 2.734148-.584039.662087-1.140071 1.342734-1.657834 2.057464-1.126563 1.55502-1.844678 3.270211-2.01497 5.186393-.068461.769485-.158904 1.537187-.218162 2.30786-.022511.2928-.029993.589234-.072169.879723-.098587.67959-.164532 1.36506-.17347 2.047424-.024498 1.869022.003708 3.738705-.001457 5.608058-.00245.857794.298872 1.59934.809418 2.268098.389712.510568.7879 1.014465 1.211048 1.498745.529018.605482 1.042146 1.22041 1.741854 1.65132.730429.44967 1.38412 1.007464 2.064297 1.527478.491675.375958.952696.801519 1.478669 1.120938.655148.397952 1.299504.812351 1.934988 1.237582 1.379685.923118 2.810418 1.757398 4.27803 2.529789 1.287851.67774 2.61715 1.270013 3.979422 1.780581.73023.273646 1.459468.557926 2.218765.752048 1.163046.297292 2.338539.5179 3.52926.67774.657201.088244 1.315925.168495 1.974318.236262.785582.080978 1.578116.114135 2.368267.126354 2.249221.034875 4.498774.047094 6.748194.071797.429703.00469.859075.03025 1.288778.037913.906548.016116 1.80674.01572 2.67204-.340621.408515-.16823.86073-.207464 1.299305-.277741.728377-.116711 1.465493-.068164 2.19771-.110304.701496-.040357 1.370614-.154161 2.03106-.38646 1.7304-.608785 3.459408-1.224703 5.247013-1.652906.60079-.143857 1.116633-.412021 1.536404-.880647.408914-.456407.854242-.87959 1.271366-1.330251.459034-.495971.900191-1.008058 1.354922-1.507464.131162-.143923.273315-.299207.367466-.488177.247096-.49597.59589-.919881.984013-1.315324.408914-.41671.820608-.834676 1.065585-1.378401.266297-.590885.375676-1.211955.128845-1.820146-.228756-.563672-.534911-1.09749-.85603-1.618163-.001258-.120608-.078657-.202378-.150032-.28547-.186315-.217304-.367797-.439365-.563845-.647555-.467443-.496434-.925086-1.004624-1.508066-1.375298-.262126-.449405-.178436-.784082.280995-1.03996.23882-.133025.493265-.23897.743473-.35066.778895-.347755 1.583215-.649736 2.220023-1.248481.360779-.154558.579934-.437781.722285-.790885.898736-.732695.992754-1.542669.503064-2.35185-.419176-.692734-.857685-1.374769-1.373328-2.011559" fill="#55873A" mask="url(#b)"/>
    </g>
    <g transform="translate(11 15.007596)">
      <mask id="d" fill="#fff">
        <use xlink:href="#c"/>
      </mask>
      <path d="M37.980969 2.476196c-.26378.009907-.525046.033685-.786973.054425-.546365.043197-1.08068.132166-1.613075.255614-1.225217.284148-2.369525.788441-3.522904 1.269485-.197637.08243-.33489.202312-.348199.432893-.0145.249868.111233.4249.305096.54782.166386.105549.345153.202114.53127.264597 1.606454.53963 3.054401 1.39115 4.49308 2.260502.826897.499604 1.647703 1.009181 2.469634 1.51691.32807.202707.658194.274768 1.029897.103434 1.000567-.46103 2.070786-.707068 3.138489-.9393.850534-.185007 1.704578-.363606 2.562263-.513342.708315-.123646 1.382796-.40568 2.109716-.432497.092297-.003368.170226-.049736.241071-.097754.305229-.207001.280135-.53111-.052107-.69181-.168438-.08144-.351973-.119155-.535838-.136526-.596685-.056539-1.192178-.137979-1.783831-.219418-.706925-.097358-1.415438-.11757-2.122694-.172524-.427585-.033289-.860135-.003038-1.290434-.001453-.353032.001321-.711162-.03494-1.057838.01222-.540009.073513-1.083527.120343-1.624066.171796-.532594.050727-1.065452.07675-1.588511.198877-.122621.0286-.241667.033686-.297615-.119947-.06866-.188177.100243-.201189.193334-.238177.273182-.108388.559011-.184874.832988-.29148 1.136694-.442338 2.252003-.945442 3.475035-1.126552.391566-.057992.57808-.366578.494986-.745508-.024167-.110238-.08614-.211427-.198034-.159445-.265701.123381-.465457-.029393-.679448-.125496-.399577-.179326-.788098-.385667-1.195356-.544782-1.020959-.398877-2.099123-.479128-3.179936-.532562M51.48742 20.177583v.01103c.165459 0 .330918-.001321.496377.000726.054822.000727.109445.01189.164333.015456 1.3485.086526 2.605961-.196433 3.728619-.962219.378787-.258388.696927-.587649.884169-1.029128.324959-.76638.471548-1.570476.50366-2.392008.02218-.56724.034892-1.13712-.053035-1.70601-.111166-.719353-.349523-1.3714-.83226-1.929591-.4785-.55317-1.117824-.850132-1.771317-1.114333-1.469532-.594122-3.010637-.853765-4.58776-.944848-1.321752-.076354-2.640325-.035667-3.954727.093791-.702687.06922-1.403785.166909-2.09866.309247-.875892.179393-1.749666.36922-2.587753.67761-.590593.21737-.94528.678467-.979909 1.31453-.01728.317173.081637.640885.14639.954492.113551.54934.153012 1.107265.248156 1.657992.075149.435138.045751.881175.128712 1.319352.085014.449604.263914.857596.588542 1.15905.389182.361426.827757.669946 1.301689.927476 1.185425.64399 2.474005.963408 3.779998 1.233488.43096.089101.868212.14247 1.301756.213738.556627.091546 1.117757.13428 1.67604.178534.635286.05033 1.277656.011625 1.91698.011625M34.432641 9.59033c-.010528-.254425.144139-.327477.360248-.308917.393553.033884.78598.071731 1.182379.066777.318073-.003963.63065.064597.94528.107332.373558.050792.720896.180911 1.06744.314267.143609.055284.24054.007728.312643-.100199.067667-.101453.058066-.218956-.036879-.300132-.42381-.362483-.80412-.78276-1.365119-.95667-1.521838-.4716-3.093929-.618693-4.671714-.704756-.666603-.036394-1.336053.048943-2.002987.110171-1.01745.093461-2.034568.198283-3.043146.353237-1.92883.296301-3.80006.810172-5.603025 1.568692-.950842.4-1.90089.813673-2.93476.970145-.1209.01823-.24021.040159-.360249.013276-.052637-.011823-.10481-.04465-.121495-.100726-.01887-.063606.028536-.104557.07528-.13177.075877-.044188.156124-.081506.236503-.117305.402093-.178732.804783-.35601 1.207207-.533884.935615-.413408 1.85514-.864069 2.814722-1.222259 1.177347-.439498 2.393096-.72708 3.63182-.9358 1.160993-.195574 2.326422-.348348 3.502577-.376155.659717-.015522 1.316123-.078864 1.97637-.086724.537162-.006407 1.074788-.067437 1.609699-.126948.22955-.025562.45718-.0607.688849-.065853.113153-.00251.227895-.030449.254313-.163738.03039-.1535-.082829-.212087-.199226-.26103-.030324-.012748-.062767-.020476-.093489-.032563-2.13342-.836394-4.370988-1.122457-6.638484-1.252642-.482141-.027675-.965475-.023118-1.447881-.043395-.9956-.041876-1.995041-.033686-2.993025-.032893-1.028904.000792-2.034171.127543-3.0354.339828-.784787.16638-1.574872.306209-2.303845.667173-1.00659.498415-2.018016.986988-3.027653 1.47926-.088522.043197-.17208.101057-.275433.105417-.066078.002774-.137254.00918-.165327-.07074-.025822-.073514.01152-.128138.069918-.167702.10938-.073976.219619-.14683.331646-.216776.718578-.448878 1.373594-.992669 2.118126-1.403303 1.536205-.847292 3.193244-1.28395 4.929934-1.443197 1.026984-.094121 2.063303-.078137 3.075853-.330713.93674-.23362 1.904996-.106539 2.856898-.18745.480552-.040886.963091-.107662 1.449404-.090687.161618.005548.275963-.08547.308936-.24465.0337-.16321-.082697-.235535-.211806-.289432-.101434-.042339-.206244-.07761-.304765-.125826-1.428746-.698745-2.923306-1.211823-4.474011-1.559577-.846363-.189762-1.700804-.33263-2.572062-.353039-1.115043-.026155-2.215984.10469-3.318249.254822-.911315.124108-1.788466.350727-2.628605.718692-1.734968.759908-3.160934 1.928798-4.447726 3.298415-1.007584 1.072391-1.888575 2.229789-2.62728 3.499934-.771282 1.32609-1.220848 2.755614-1.452252 4.265456-.097196.634082-.16771 1.273646-.319662 1.899009-.103221.424703-.168505.490225-.607345.465654-.383356-.021532-.723477.071995-1.00275.324769-.415601.37609-.805777.781704-1.153777 1.219947-.605094.762087-1.13729 1.571862-1.596655 2.433752-.639457 1.199537-.91681 2.490885-1.073994 3.820277-.072963.617305-.151554 1.233818-.221803 1.851453-.087464.769353-.179893 1.538177-.23829 2.310172-.05522.730515-.120304 1.462087-.128911 2.193725-.014434 1.240687-.029066 2.482166.048863 3.722721.018539.295443.041712.592008.088854.880053.24266 1.480185.936077 2.735865 1.977164 3.806407.413217.4249.87.802114 1.319302 1.188177.771016.66255 1.590828 1.258256 2.427723 1.83362.764991.525891 1.556069 1.011294 2.330197 1.522787 1.324333.8749 2.696801 1.669617 4.100586 2.407331.89218.468759 1.797603.914333 2.716201 1.333488 1.264877.577147 2.548094 1.100925 3.874745 1.52008.573445.181109 1.151326.342271 1.741059.456274.79472.153633 1.59553.260898 2.401505.348217.795712.086195 1.594867.146697 2.389984.16955 1.741986.050066 3.48629.021269 5.2296.026355.19949.00066.39885.002774.583906-.083092.180158-.083553.345286-.059841.493663.062418.32284.265918.69878.251255 1.070351.182034.325555-.0607.647865-.11539.98024-.114135 1.03718.003765 2.07436.006341 3.111475-.001122.306486-.00218.60986-.04115.905157-.146037 1.508464-.535998 3.05023-.918429 4.664034-.896896.59834.007992 1.120937-.168032 1.612612-.482365.547293-.350066 1.134907-.618494 1.744105-.839762.886752-.322127 1.801973-.53712 2.722425-.74062.591256-.13078 1.275735-.743 1.37068-1.489235.039528-.310766-.17016-.758982-.438707-.8607-.455856-.172787-.945546-.19967-1.422258-.188705-.47817.010964-.938925.189168-1.409546.282298-.776644.153633-1.562822.250463-2.35423.20938-.338665-.017636-.670443-.015126-1.008578-.006672-.782073.019551-1.511377.248547-2.24856.453897-1.221443.340357-2.43547.706936-3.66307 1.025892-.306752.079657-.634756.107134-.912772.266116-.781345.4465-1.619034.484412-2.459041.291282-1.620359-.37259-3.263295-.641348-4.867564-1.090225-1.458409-.408124-2.881461-.901123-4.2438-1.56255-.761017-.36955-1.504755-.7714-2.24538-1.180448-1.160133-.64082-2.31563-1.28963-3.38638-2.072127-1.760392-1.286526-3.522771-2.577345-5.091022-4.096037-1.199594-1.161691-2.442025-2.288376-3.423656-3.65971-.545305-.76169-.741155-1.57523-.554641-2.48712.21313-1.041678.813457-1.838045 1.623603-2.483818.829876-.661426 1.74821-.811162 2.759568-.42576 1.219126.464598 2.45242.890225 3.695779 1.289102 2.214593.710503 4.459114 1.309314 6.718598 1.856407.650514.15753 1.297187.33177 1.950548.47675 1.12385.249274 2.259616.449208 3.375653.728534 1.624066.406407 3.27177.663937 4.935429.777147.786046.053567 1.580169.096764 2.372703.08111 1.287786-.025364 2.575637.043659 3.86435-.047556.7103-.050199 1.422191-.07926 2.132625-.140754.633763-.054755 1.26481-.133289 1.891952-.227476 1.147023-.172127 2.279281-.42576 3.40664-.699472 1.32367-.3214 2.640456-.661757 3.846075-1.321797.570863-.312549 1.128351-.647886 1.577454-1.129722.269276-.28897.375477-.618956.303904-1.024373-.07965-.45132-.329593-.808652-.557886-1.182496-.344822-.56473-.710566-1.113078-1.211511-1.557068-.330984-.293395-.69269-.471994-1.159404-.46605-.957464.012021-1.90718.100132-2.857957.19749-.954418.097689-1.887516.291546-2.799824.582629-.463007.147688-.53107.300859-.369982.767834.114742.332628.252062.655944.430763.961294.058596.100066.138313.211427.011057.324769-.141954.126354-.250142.020938-.344292-.062418-.222665-.197027-.420699-.41638-.595692-.659709-.88013-1.223778-1.810977-2.407067-2.852461-3.50033-.60079-.630581-1.23773-1.223118-1.91784-1.766777-.438046-.350066-.888936-.686261-1.374653-.97008-.293179-.171267-.493729-.113407-.66455.178865-.038336.06572-.061046.140489-.090775.211228-.240673.57226-.51849 1.134479-1.013013 1.522788-.884964.694716-1.82839 1.313408-2.84008 1.80786-1.081409.528533-2.217242.922193-3.381016 1.241611-1.539185.422391-3.092936.611691-4.68595.427477-.955146-.110436-1.908041-.23111-2.8565-.392338-1.090082-.185337-2.168511-.41539-3.226283-.73712-1.172845-.356671-2.272263-.85819-3.22145-1.650793-.06813-.056869-.12805-.117767-.179959-.190423-.064555-.090356-.02933-.165125.019466-.240356.055285-.085073.13679-.12008.227696-.07041.416726.227807.888274.30601 1.322281.49082.532528.226684 1.043007.514993 1.606057.66136 1.445233.375627 2.880865.792536 4.359336 1.030053.692623.111294 1.383459.236327 2.087603.235931.7587-.000462 1.517931.027147 2.275043-.061823.50035-.058785 1.005664-.078798 1.50416-.148943.23253-.032695.454068-.14313.56689-.412616-.180157-.071796-.368657-.002642-.524383-.098084-.31271-.191546-.657797-.231902-1.01639-.2072-.098852.006803-.200485.013408-.297483-.001717-.952365-.148018-1.896586-.355548-2.806246-.660568-1.800251-.603633-3.522176-1.393329-5.170938-2.339828-1.019304-.585139-1.90791-1.325958-2.697994-2.188045-.258484-.2821-.492933-.586526-.703481-.906671-.100242-.152444-.039925-.268957.138379-.302246.146125-.027345.25663.033487.349655.1393.166253.189234.316683.396169.502667.563738.487703.439564.96938.890357 1.492374 1.28547 1.261037.952707 2.623507 1.744781 4.086352 2.344913 1.374917.56407 2.794726.98428 4.268296 1.229459 1.216147.202378 2.4311.36222 3.666183.310502.735461-.030846 1.4596-.14247 2.160897-.368362.582583-.187583 1.156359-.40251 1.737948-.593593.274573-.090225.522066-.224505.75645-.387517.150826-.104888.28596-.227477.212269-.435139-.068858-.194121-.243123-.186261-.413084-.195838-.382364-.0214-.73076.131638-1.096306.19399-1.083594.184741-2.174537.291809-3.275809.27457-1.166025-.018296-2.334036.071994-3.497612-.072788-1.043536-.129722-2.064694-.35951-3.071748-.659379-1.625192-.48395-3.10439-1.238573-4.360859-2.38362-.568214-.517833-1.092466-1.083685-1.670612-1.592998-.387196-.34115-.726456-.730713-1.123584-1.065852-.671966-.566909-1.412658-.99366-2.259881-1.210832-.438178-.112352-.671834-.391348-.817297-.772457-.176914-.463342-.041117-.913673.349456-1.196962.276096-.200132.589137-.342404.917672-.42107.638264-.152906 1.278648-.296896 1.903605-.498415 1.63446-.526882 3.216285-1.193923 4.81678-1.810898 1.597649-.615786 3.246213-.974174 4.962642-1.000264.319927-.004888.640119-.01572.95978-.007662 1.036585.025958 2.070588-.058256 3.106311-.065324.246235-.001651.437053.053897.471813.337187-.374749.039035-.740956-.075562-1.113454-.064532-.647137.019089-1.292884-.008718-1.942537.05086-.738573.0677-1.471054.154094-2.202808.272852-1.143381.185536-2.267164.451057-3.374196.783818-1.097034.329723-2.142028.788243-3.151069 1.33111-1.317116.70852-2.729443 1.091215-4.220294 1.193197-.332242.022655-.552126.191611-.61231.46605-.051247.23362.117588.575958.335883.719419.28947.19029.626347.259247.941771.381307 1.0826.41889 1.8366 1.256341 2.585834 2.073448.503792.54934 1.019966 1.081242 1.59116 1.551717.548815.452048 1.147354.840027 1.770854 1.195047.834776.475165 1.715303.81955 2.634894 1.069022 1.00785.273448 2.023115.521268 3.052416.70317.486247.085932.973619.188772 1.464566.220278.908932.058322 1.820975-.000925 2.726795-.069353.803591-.060634 1.57752-.29214 2.33728-.573646.859473-.318428 1.63274-.725693 2.242601-1.448084.779623-.923514 1.189397-1.978468 1.281297-3.157596.077929-1.000925-.143676-1.958058-.586555-2.861427-.269607-.549934-.631048-1.029854-1.042345-1.48646-.560203-.621928-1.205155-1.11235-1.946045-1.495376-.627076-.32424-1.295069-.515522-1.975907-.676222m21.39101 11.646698c.133876.19934.065481.347028-.12249.458784-.632504.375892-1.259314.76222-1.904002 1.116117-.163605.089762-.267356.221268-.383356.341677-.12858.133422-.006422.300463.073295.401123.813456 1.027147 1.4982 2.149406 2.321192 3.165786.515643.63679.954153 1.318825 1.373395 2.011559.489623.809181.395605 1.619155-.503197 2.35185.007416-.18646.005297-.37391.024035-.559182.047406-.4679.11878-.933751.105936-1.406142-.004106-.153567.00682-.296566-.18327-.379525-.185256-.080845-.308009-.02741-.448308.084478-.672694.536526-1.392331 1.001123-2.160235 1.392405-1.110674.56605-2.300005.914729-3.490792 1.255284-1.083793.309841-2.175729.587979-3.296268.742734-.64899.08963-1.298312.177675-1.946376.271665-.931973.135138-1.86633.269418-2.804989.285865-2.03874.0358-4.078737.046433-6.116749-.048745-.272123-.012682-.548947-.034214-.816436-.077147-.710103-.11387-1.418616-.257992-2.135009-.297952-.649984-.036196-1.270902-.198019-1.901619-.317305-1.027182-.194386-2.048803-.417438-3.073933-.622788-1.03632-.207662-2.082505-.37325-3.109423-.619484-2.31179-.554228-4.601068-1.192933-6.84506-1.98296-.803127-.28276-1.615392-.537978-2.417791-.823381-.636279-.226288-1.282423-.458851-1.978158-.403633-.492338.039036-.962297.14214-1.385511.434082-.547888.377873-.841.908652-.99825 1.526816-.25173.989763-.151024 1.936196.453076 2.783091.444336.622986.957596 1.196962 1.488336 1.744849.756913.781373 1.512833 1.565455 2.331653 2.287516.83577.737054 1.695771 1.439696 2.585038 2.111427 1.481848 1.119418 3.056786 2.087846 4.697206 2.951783 1.169667.61605 2.36873 1.172985 3.595801 1.667107 1.88798.760304 3.794961 1.46387 5.791327 1.89465 1.080415.233157 2.165797.422655 3.278787.358917.129838-.007464.257293-.008851.389845-.034082.698914-.133157 1.365119-.37107 2.036025-.595244.765984-.256011 1.536868-.516183 2.33887-.605086.67276-.074637 1.338635-.189763 2.003119-.299736.803922-.133157 1.603607-.21605 2.4166-.185733.120436.004425.24266.009445.360779-.028336.80273-.256539 1.638566-.256407 2.465463-.287186.85411-.03177 1.709875.00099 2.558489-.141216.679514-.113936 1.346712-.267437 1.979283-.544517.8361-.366315 1.494162-.95938 2.02563-1.68263.420235-.571862.674085-1.214728.662763-1.949074-.009667-.62193-.218626-1.172458-.504124-1.709115-.18115-.340423-.123548-.423845.279407-.454162.321185.520674.62734 1.054426.85603 1.618164.24683.608257.137518 1.22926-.128845 1.820146-.244977.543725-.656671.96169-1.065519 1.378335-.388123.395509-.736917.819419-.98408 1.315324-.094084.189036-.236303.344253-.367399.488243-.454797.499405-.895954 1.011493-1.354922 1.507397-.417124.450727-.862519.87391-1.271366 1.330317-.419771.468627-.935614.73679-1.53647.880714-1.787605.428071-3.516548 1.044055-5.246947 1.652774-.660446.232365-1.329564.34617-2.03106.386526-.732283.04214-1.4694-.006473-2.197776.110304-.43851.07021-.890724.10951-1.29924.27774-.865299.356275-1.76549.356672-2.672105.340621-.429703-.007661-.859075-.033223-1.288778-.037912-2.249354-.024703-4.498907-.036988-6.748194-.071797-.790151-.012285-1.582685-.045442-2.368201-.126354-.658393-.067767-1.317183-.148018-1.974318-.236261-1.190721-.159776-2.36628-.38045-3.52926-.677742-.759363-.194121-1.488534-.478335-2.218765-.752047-1.362271-.510568-2.69157-1.10284-3.979488-1.780647-1.467546-.772325-2.898279-1.606605-4.27803-2.529789-.635484-.425165-1.279774-.839564-1.934922-1.237516-.525973-.319485-.986994-.74498-1.478736-1.121004-.68011-.520014-1.3338-1.077742-2.06423-1.527411-.699708-.430912-1.212836-1.04584-1.741854-1.651321-.423215-.484346-.821336-.988177-1.211114-1.498745-.510546-.668759-.811802-1.410304-.809418-2.268164.00523-1.869287-.022975-3.73897.001523-5.607992.009004-.682365.074883-1.367834.173404-2.047424.042176-.29049.049658-.586988.072169-.879723.059324-.770674.149767-1.538375.218162-2.30786.170358-1.916248.888406-3.63144 2.01497-5.186393.51783-.714796 1.073861-1.395377 1.657834-2.057464.747975-.847953 1.420404-1.757398 1.991134-2.734214.211343-.361757.31238-.776486.350583-1.198217.112557-1.242074.47744-2.396697 1.121598-3.473448.629326-1.05185 1.36108-2.029722 2.09535-3.005812 1.014734-1.348877 2.321654-2.370938 3.763378-3.224901 1.382797-.819022 2.84339-1.483025 4.339605-2.06671 1.419808-.553832 2.90351-.63263 4.401975-.51856.78002.059444 1.563153.14214 2.310797.39346.747908.251387 1.473902.559842 2.138915.9893.966535.624174 1.919496 1.26922 2.88795 1.890225.568148.364399 1.164833.380515 1.790982.112483.632504-.270806 1.231705-.610964 1.878842-.851651.85689-.318692 1.732188-.559247 2.635094-.696698.786377-.119683 1.57666-.199801 2.37416-.180052 1.51131.03745 2.919134.413936 4.218838 1.207199.937733.572325 1.96028.986922 2.941646 1.4786.725794.363672 1.468737.691347 2.195657 1.053765.538553.268428 1.11213.473844 1.683656.667767.679315.230515 1.335125.516909 1.988353.805416.843185.372523 1.692925.738045 2.497907 1.18831.729303.407925 1.517402.70667 2.206118 1.187054.166386.116116.341048.235402.391103.455548-.264641.034544-.489292-.04934-.707653-.199472-.389249-.267437-.821534-.452906-1.265539-.613012-.421625-.151981-.854639-.254887-1.29083-.357001-.50333-.117702-1.013014-.158256-1.522037-.216975-.303242-.03494-.608206-.055614-.911381-.090885-.703217-.081902-1.410605-.06671-2.11124-.017966-.455327.031638-.914692.0821-1.36929.098283-.624824.022259-1.246603.07794-1.86123.162087-.720896.09868-1.43742.242999-2.14322.437715-1.147751.316578-2.252135.738705-3.317653 1.266116-.150098.07424-.282518.170674-.396532.292602-.187904.20086-.152614.326619.105407.439102.282452.123118.54994.021202.800413-.069022.7926-.28547 1.594934-.543263 2.403954-.7714 1.159802-.326949 2.344034-.552114 3.551838-.611824.647203-.031968 1.29573-.033883 1.943596-.057661 1.251237-.046037 2.503932-.052378 3.75411.106737.93674.119286 1.844678.328005 2.723219.665323.37753.14498.743605.319353 1.116102.477543.235377.099934.445793.05819.607941-.092008.18519-.171598.00384-.296103-.04403-.437054-.04019-.11856-.150627-.234148.00212-.35033.36389.237979.567883.60568.710896.987847.203729.54465.32582 1.113672.42454 1.691942.09137.535336.153739 1.074768.24597 1.609841.076273.442999.059589.902378.141557 1.343858.19863 1.070079-.210946 1.99029-.666404 2.90284-.291722.584412-.58 1.167701-.742745 1.805746-.042043.16473-.06184.333025-.109246.496103-.090245.31004-.151489.530846-.60516.539366.030721-.160766.092164-.317503.064157-.486064-.022445-.13494-.09713-.251254-.235906-.213606-.204258.055482-.41037.021797-.617806.07391-.926146.232761-1.859906.440225-2.82419.423184-.670178-.011823-1.339164.001651-2.010798-.05317-.603836-.049208-1.198138-.149472-1.793035-.239498-.921776-.139498-1.835607-.332233-2.750895-.512154-.429306-.084412-.871787-.145178-1.27706-.298745-.728442-.27609-1.4353-.609313-2.139974-.944451-.33701-.160238-.68693-.295377-1.03685-.426487-.202072-.075693-.412024-.097622-.572915.10119-.147847.18276-.148443.402707.018671.632562.141491.194584.28722.389696.45579.56037.533322.53996 1.05466 1.091744 1.639626 1.580185.750027.626288 1.504888 1.245508 2.322648 1.782695.94793.622589 1.963128.8749 3.098895.611559.59642-.138244 1.189331-.312154 1.805813-.357927.101434-.00753.187242-.063606.26729-.1214.137518-.099273.14116-.312417.003112-.40634-.080578-.054822-.17261-.094783-.26292-.133356-.688386-.293857-1.421265-.445178-2.138916-.639366-1.101602-.29815-2.220817-.531572-3.322817-.828534-.58331-.157133-1.170792-.33745-1.657635-.741611.135334-.142867.279274-.102114.416726-.069485.937468.22259 1.873414.451717 2.811477.671797.863512.202576 1.729142.382034 2.619667.444253.39534.027675.7928.01354 1.185226.062021.805445.099472 1.61387.149406 2.424082.181506.363493.0144.722617-.037714 1.083726-.057265.450758-.024439.883772-.129987 1.321222-.219881.386137-.079393.731224-.278402 1.109415-.38144" fill="#10150E" mask="url(#d)"/>
    </g>
    <path d="M65.93368 51.829802c-.40302.030317-.460623.113804-.279472.454227.285564.536592.494523 1.087186.50419 1.709115.011321.73428-.242594 1.377213-.662763 1.949075-.531535.72325-1.18953 1.316249-2.02563 1.682563-.632571.277147-1.299836.430647-1.979284.544518-.848614.142272-1.704379.109511-2.558488.141215-.826964.03078-1.6628.030648-2.465464.287253-.118185.037714-.240342.03276-.360844.028269-.812927-.030251-1.612612.052576-2.4166.185733-.664419.109974-1.330293.2251-2.00312.299736-.801936.08897-1.57282.349075-2.33887.605086-.67084.22424-1.337111.462087-2.036025.59531-.132486.025231-.25994.026552-.389844.034082-1.112925.063672-2.198306-.125826-3.278722-.358983-1.996431-.430713-3.903347-1.134346-5.791326-1.89465-1.227137-.494121-2.426135-1.051056-3.595802-1.667107-1.640486-.863936-3.215424-1.832364-4.697205-2.951717-.889267-.67173-1.74927-1.374438-2.585039-2.111427-.81882-.722126-1.574806-1.506208-2.331719-2.287582-.530674-.547887-1.043934-1.121797-1.488336-1.744848-.604034-.84683-.704806-1.793263-.453009-2.783091.15725-.618164.450295-1.148877.99825-1.526817.423214-.291942.893173-.39498 1.38551-.434082.695736-.055218 1.341813.177345 1.978092.403633.802466.285469 1.61473.540687 2.417858.823382 2.243925.790026 4.533203 1.428732 6.84506 1.983025 1.026851.246169 2.073036.411823 3.109356.619419 1.02513.205416 2.046817.428467 3.074.622787.630717.119353 1.251634.28111 1.901552.317371.716393.039895 1.424973.184016 2.135076.297953.267422.042866.544312.064399.81637.077146 2.03801.095113 4.078075.084545 6.116748.048745.93866-.016446 1.873083-.150726 2.804989-.285865.648064-.09399 1.297452-.182034 1.946443-.27173 1.120539-.15469 2.212475-.432827 3.2962-.742735 1.190855-.340555 2.380186-.689168 3.49086-1.255284.767903-.391215 1.487474-.855878 2.160234-1.392404.1403-.11189.263053-.165324.448242-.084478.19009.082959.179165.225957.183336.379524.012779.472457-.058596.938243-.105936 1.406143-.018804.185337-.016685.372787-.024034.55918-.142286.353105-.36144.636328-.722286.790886-.142947.00132-.283577.015125-.42626.034412-.530078.071598-1.003413.318692-1.509258.464795-1.581493.45687-3.095915 1.136856-4.742096 1.381836-.878673.13078-1.740662.360106-2.620726.491018-.944552.140488-1.88798.288837-2.831539.436195-1.08591.16975-2.17533.34531-3.274219.348085-2.754801.006869-5.510927.08712-8.263874-.11255-.899927-.065324-1.798596-.144848-2.685612-.295905-1.699413-.289432-3.380486-.67358-5.055534-1.08025-1.94459-.472128-3.863754-1.029921-5.74796-1.70654-.982755-.352906-1.977495-.669947-3.005472-.86988-.548947-.106738-.82021.118625-.81743.67926.000464.088507.020725.17272.036152.25918.074089.415456.351244.702576.622506.989432 1.03877 1.098944 2.305037 1.90185 3.569649 2.70436 1.673591 1.061955 3.388564 2.05251 5.143262 2.976486 1.316256.693065 2.653633 1.331902 4.059338 1.827014 1.641016.578006 3.32381.996368 5.019119 1.376354 1.140402.255615 2.290669.441876 3.45782.445641 1.49681.004954 2.993488.071995 4.490497.020872.516968-.017702 1.03334-.023448 1.550904-.055416 1.253423-.077477 2.491683-.252048 3.723058-.482167 1.2856-.240356 2.564447-.51321 3.787148-.993064.636345-.24967 1.261169-.527345 1.819386-.927808.724669-.51988.804915-1.27523.202801-1.922258-.525377-.564598-1.095445-1.083554-1.68862-1.576949-.608868-.506407-1.217471-1.013144-1.825213-1.520872-.084286-.070343-.188633-.14498-.129573-.273382.064356-.13996.188698-.116842.314762-.0893.27219.05938.551927.048085.82319.020344.808093-.08276 1.603342-.064465 2.375285.215984.170955.062087.299667.049208.384018-.125825.583046.370673 1.04069.878864 1.508067 1.375297.196048.20819.37753.43025.563844.647556.071375.083157.148774.164861.150032.285469" fill="#935C24"/>
    <path d="M37.318844 52.279703c-.408913-.04564-.874171.107596-1.346315.210502-.17155.037384-.318073.122127-.335486.3142-.016288.179459.120502.271137.256895.350199.075943.044055.155924.081241.233854.121928 1.535675.802378 3.162059 1.36823 4.812278 1.884479 1.590763.497688 3.194171.907265 4.862797 1.025165.130632.00918.242527.004953.294568-.141942.048863-.137979-.003972-.236922-.117853-.308058-.111697-.069881-.229418-.13012-.34363-.196103-.875629-.505615-1.731062-1.050859-2.631718-1.507398-1.0583-.536394-2.171954-.952576-3.313349-1.289894-.749431-.221533-1.491183-.470542-2.37204-.463078M53.15483 56.83809c.250274.003633.469628.001255.688783-.035931.574571-.097556 1.150466-.187847 1.725831-.281044 2.124813-.344451 4.192288-.906803 6.207854-1.65502 1.032612-.383355 1.217073-1.135006.516704-1.978005-.809816-.974835-1.800516-1.73996-2.838955-2.451981-.395075-.270872-.819879-.396368-1.301557-.394056-.886221.004227-1.75205.172721-2.624434.28778-.533586.07041-1.072536.13012-1.563417.379988-.392957.200066-.431293.342338-.158242.678864.388851.47926.722616.996895 1.07717 1.500132.21366.303236.226108.604821.032642.922259-.230477.378137-.50399.721598-.824315 1.026023-.582847.553831-1.220383 1.043726-1.845539 1.547755-.07667.061823-.189956.103963-.174132.2179.018671.134543.15513.148612.256895.166115.281989.04835.565963.092669.824712.069221m-3.071086-1.363738c.993018.03309 2.066746-.440885 2.785721-.989564.864637-.659842.841463-1.272391.643164-2.197556-.067468-.314664-.277155-.54181-.549344-.713739-.264642-.167305-.557489-.258983-.855633-.339102-1.15596-.310832-2.345226-.383157-3.53032-.444782-1.286196-.066842-2.5761-.01823-3.86309-.135205-1.523891-.138639-3.044802-.290819-4.55598-.533619-2.272197-.364993-4.519498-.846235-6.73098-1.47992-1.691004-.484479-3.362543-1.035932-5.068842-1.469221-.336082-.085403-.670973-.139829-1.012285-.089036-.394083.058653-.507302.36169-.25769.667107.068527.08395.15758.153303.244712.21955 1.07982.820212 2.219692 1.55053 3.385717 2.241084.672562.398349 1.341283.804822 2.044898 1.146896.911712.443263 1.828191.549603 2.741426-.008455.151224-.092338.325754-.141347.499224-.165323.625288-.086196 1.249847-.063739 1.874804.022853 1.188669.164663 2.305367.566909 3.400084 1.031902 2.065688.877543 4.124489 1.771136 6.185806 2.658851.805512.346896 1.636448.580845 2.618608.577279m13.628013-5.952906c-.084351.175099-.213064.187978-.384084.125891-.771877-.280515-1.567126-.29881-2.375286-.21605-.271196.027807-.551.039102-.823123-.020344-.12613-.027542-.250406-.050594-.314762.089366-.05906.128336.045287.202973.129506.273382.607743.507662 1.216411 1.0144 1.825279 1.520806.593176.493461 1.163244 1.012351 1.688621 1.577015.602048.647027.521801 1.402311-.202801 1.922258-.558217.400397-1.183042.678072-1.819386.927742-1.222701.479854-2.501548.752774-3.787149.99313-1.23144.23012-2.469634.404624-3.723123.4821-.517498.032035-1.03387.037781-1.550838.055417-1.497009.051189-2.993687-.015918-4.490564-.020806-1.16715-.00383-2.317351-.190026-3.457753-.44564-1.695308-.379987-3.37817-.79835-5.019119-1.376355-1.405705-.495112-2.743082-1.13395-4.059338-1.827014-1.754698-.924042-3.469671-1.914597-5.143262-2.976552-1.264678-.802444-2.530945-1.60535-3.569715-2.704294-.271196-.286922-.548352-.574042-.62244-.989498-.015428-.086393-.035688-.170673-.036151-.259115-.002781-.5607.268482-.786063.817429-.679326 1.027977.2 2.02265.517041 3.005406.869881 1.884272.676618 3.803436 1.234478 5.748025 1.70654 1.675048.40667 3.356055.790884 5.055535 1.080316.887016.151057 1.785618.230581 2.685612.29584 2.75288.199735 5.509006.119484 8.263874.112549 1.098822-.002775 2.188308-.178336 3.274153-.348019.94356-.147424 1.886986-.295773 2.831605-.436262.880064-.130845 1.742052-.360237 2.620726-.49095 1.64618-.24498 3.160536-.924968 4.742096-1.381837.505845-.146103.979114-.393197 1.509258-.464795.142682-.019287.283246-.033091.426194-.034478-.636808.59881-1.441128.900792-2.219957 1.248547-.250207.111757-.504586.217569-.743472.350594-.459432.255879-.543121.590621-.280996 1.03996" fill="#10150E"/>
    <path d="M67.418394 24.872609c-.152746.116182-.042308.231836-.002118.35033.04787.140951.229219.265522.04403.437054-.16215.150199-.372565.191942-.607941.092008-.372498-.15819-.738573-.332562-1.116037-.477543-.878541-.337252-1.786546-.546037-2.723285-.665257-1.250112-.159181-2.502872-.152774-3.754044-.106803-.647931.023778-1.296459.02576-1.943596.057728-1.20787.059643-2.392036.284808-3.551837.611823-.809087.22807-1.611354.485865-2.403955.771334-.250539.090224-.518027.19214-.800413.069022-.258087-.112483-.293377-.238243-.105473-.439102.11408-.121862.2465-.218295.396532-.292602 1.065519-.52741 2.169902-.949538 3.31772-1.266116.705732-.194716 1.422258-.339036 2.143153-.437715.614627-.084148 1.236472-.139828 1.86123-.162021.454664-.016182.913964-.06671 1.369356-.098349.700569-.048679 1.407957-.063936 2.111174.017966.303176.035337.608139.055944.911447.090885.509023.058719 1.018642.099273 1.52197.21704.436259.102049.869206.204955 1.290832.356936.444004.160106.87629.345575 1.265538.613078.218427.150066.443078.23395.707653.199406.03933.001783.058795.025693.068064.060898" fill="#55873A"/>
    <path d="M22.192696 41.028144c-.000199-.08111-.018672-.157067-.095343-.197226-.111299-.058322-.185123.02041-.262125.081968-.527628.42193-.976201.917305-1.360882 1.470212-.231867.33329-.482936.653897-.67938 1.011096-.047937.087054-.103818.173646-.106665.273448-.002715.095773.065283.161823.144602.206077.11269.06288.18572-.015588.257756-.08428.801208-.763871 1.44914-1.64835 2.040461-2.57761.036482-.057331.063562-.115059.061576-.183685m22.44216-16.60885c-.03476-.28329-.225644-.338772-.47188-.337121-1.035723.007001-2.069726.091215-3.106244.065258-.319728-.007992-.63992.00284-.959847.007661-1.716363.026156-3.364993.384479-4.962641 1.00033-1.600496.616976-3.18232 1.28395-4.816781 1.810899-.624957.201453-1.265274.345442-1.903605.498349-.328468.078732-.641576.220938-.917605.421136-.39064.283223-.526436.733553-.349523 1.196961.145463.38111.379119.660106.817297.772391.847224.217174 1.587915.64399 2.259881 1.210899.397128.335138.736388.724703 1.123585 1.065786.578146.509379 1.102397 1.075165 1.670611 1.592998 1.256535 1.145113 2.735667 1.89967 4.360859 2.38362 1.00712.299868 2.028212.529657 3.071749.659445 1.163575.144716 2.331653.054492 3.497612.072787 1.101271.01724 2.192214-.089828 3.275874-.274636.365546-.062352.713877-.215324 1.096306-.193924.169895.009512.34416.001652.413018.195773.073692.207662-.061443.330251-.21227.435205-.234383.163012-.48181.297292-.756449.387517-.58159.191017-1.155365.405944-1.737947.593593-.701297.225825-1.42537.337516-2.160898.368362-1.235082.051717-2.450036-.10819-3.666182-.310502-1.473571-.245179-2.893313-.665456-4.268297-1.229459-1.462845-.600132-2.825315-1.392272-4.086286-2.34498-.522993-.395112-1.004737-.845839-1.49244-1.285403-.185984-.167635-.336414-.374505-.502667-.563804-.092959-.105813-.203463-.166579-.349655-.1393-.178304.033355-.238621.149802-.138313.302312.210482.320145.444931.62457.703482.906605.790018.862087 1.67869 1.602906 2.697927 2.188044 1.648762.9465 3.370687 1.736196 5.170938 2.339895.90966.30502 1.853881.512483 2.806313.660568.096931.01506.19863.00852.297415.001717.358594-.024703.703747.015588 1.01639.2072.155727.095442.344293.026221.524384.098084-.112822.269419-.33436.379855-.56689.412616-.498496.070145-1.003744.090092-1.504094.148943-.757178.08897-1.516408.06136-2.27511.061823-.704143.000396-1.394979-.124637-2.087602-.235931-1.47847-.237583-2.914103-.654492-4.35927-1.03012-.56305-.1463-1.07353-.43461-1.606123-.66136-.434007-.184742-.905488-.262946-1.32228-.490753-.09084-.04967-.172412-.014663-.22763.070343-.048864.075232-.084021.150067-.019533.240357.05191.072721.111895.133554.17996.190423.949186.792668 2.048604 1.294187 3.22145 1.650792 1.05777.321731 2.1362.55185 3.226282.737187.94846.161162 1.90142.281836 2.8565.392272 1.593014.184214 3.146765-.00502 4.686016-.427477 1.163708-.319353 2.299607-.713012 3.38095-1.241546 1.01169-.494451 1.955116-1.113144 2.84008-1.807926.494523-.388243.77234-.950528 1.013013-1.522787.029729-.070674.052439-.145509.09084-.211162.170756-.292273.371373-.350133.664485-.178864.485717.283817.936607.619947 1.374653.970079.68011.54366 1.317116 1.13613 1.91784 1.766777 1.04155 1.093196 1.97233 2.276552 2.852461 3.500264.174993.243395.373027.462748.595692.65971.094217.083355.202338.188837.344358.062483.12719-.113342.047473-.22477-.011057-.32477-.178767-.30535-.31602-.62873-.430829-.96136-.161022-.466909-.093025-.620145.370048-.767833.912242-.291017 1.845407-.48494 2.799825-.582629.95071-.097292 1.900426-.185403 2.85789-.19749.466715-.005879.82842.172721 1.159404.46605.500945.444056.86669.992404 1.211511 1.557067.228359.37391.478236.731242.557953 1.182563.071573.40535-.034628.735403-.30397 1.024373-.449104.48177-1.006526.817173-1.577455 1.129656-1.205619.66004-2.522404 1.000463-3.84601 1.321863-1.127424.273646-2.259682.527279-3.406639.699471-.627207.094122-1.258189.172722-1.892018.227477-.710434.061493-1.422324.09049-2.132625.140753-1.288713.091216-2.576564.022193-3.864283.047556-.7926.015654-1.586724-.027543-2.372704-.08111-1.663726-.113275-3.311429-.370739-4.935429-.777212-1.116036-.27926-2.25187-.479194-3.375719-.728534-.653295-.144914-1.300034-.31922-1.950548-.47675-2.259484-.547094-4.504005-1.145839-6.718598-1.85634-1.243359-.398878-2.476653-.824571-3.695779-1.289169-1.011358-.385402-1.929691-.2356-2.759502.425826-.810212.645773-1.410539 1.44214-1.623603 2.483752-.18658.911955.00927 1.72543.554576 2.48712.98163 1.371334 2.224061 2.498085 3.423721 3.659775 1.568185 1.518693 3.330564 2.809512 5.090957 4.095971 1.070815.782563 2.226246 1.431308 3.386379 2.072127.740625.409115 1.484429.810964 2.245381 1.18045 1.362338.661492 2.78539 1.15449 4.2438 1.562615 1.604335.448811 3.247205.717635 4.86763 1.090158.83994.193131 1.677696.155284 2.458974-.29128.278016-.158918.606087-.186395.912772-.266051 1.2276-.318957 2.441628-.685601 3.66307-1.025892.737183-.205416 1.466487-.434346 2.24856-.453897.338135-.008454.66998-.010964 1.008578.006605.791408.041083 1.577652-.055746 2.35423-.209379.470621-.09313.931377-.271268 1.409546-.282232.476712-.010965.966402.015852 1.422324.188639.268482.101717.478169.55.438642.860766-.094946.74617-.779425 1.358455-1.37068 1.489168-.920387.203567-1.835674.418494-2.722425.74062-.6092.221335-1.196813.489697-1.744106.839763-.49161.314399-1.014271.490423-1.612611.48243-1.613804-.021532-3.155571.360899-4.664035.896896-.29523.104888-.59867.143858-.905157.146037-1.037114.007398-2.074295.004822-3.111409.001123-.33244-.001255-.65475.053369-.980306.114069-.37157.069286-.747511.08395-1.070351-.182035-.14831-.122192-.313439-.14597-.493662-.06235-.185058.085864-.38435.083685-.583907.08309-1.74331-.005086-3.487548.023646-5.2296-.02642-.795117-.022787-1.594272-.08329-2.389984-.169485-.805909-.087318-1.606786-.194584-2.401505-.348282-.589733-.113937-1.167548-.275165-1.740993-.456275-1.326717-.419089-2.609868-.942867-3.87481-1.520013-.918599-.419155-1.824021-.86473-2.716135-1.333554-1.403786-.737714-2.77632-1.532364-4.100587-2.407265-.774128-.511493-1.565272-.996962-2.330263-1.522854-.836828-.575363-1.656641-1.171004-2.427723-1.83362-.449235-.385997-.906019-.76321-1.319302-1.188176-1.041086-1.070542-1.734438-2.326222-1.977098-3.806407-.047208-.287979-.070381-.584544-.08892-.879987-.07793-1.240555-.063297-2.482034-.048797-3.722721.008541-.731638.073626-1.463276.128845-2.193725.058397-.772061.150827-1.54082.23829-2.310238.070249-.617636.148906-1.234148.22187-1.851387.157182-1.329459.434536-2.620806 1.073927-3.820344.459365-.861823.991561-1.671664 1.596655-2.433685.348-.438243.738176-.843858 1.153776-1.220014.279274-.252708.619461-.346235 1.002751-.324768.438907.02457.50419-.040951.607345-.465588.152018-.625363.222466-1.264994.319662-1.899076.231404-1.509775.68097-2.9393 1.452251-4.26539.738706-1.27021 1.619697-2.427542 2.627281-3.499933 1.286792-1.369617 2.712758-2.538573 4.447726-3.298415.84014-.367966 1.71729-.59465 2.628605-.718758 1.102265-.150066 2.203206-.280978 3.318315-.254822.871192.02041 1.725699.163342 2.571996.353105 1.550771.347754 3.045265.860832 4.474011 1.559577.09852.04815.203331.083487.304831.125825.129044.053897.245507.126156.21174.289432-.032973.159115-.147251.250199-.308936.244584-.486247-.016975-.968852.049802-1.449404.090687-.951902.080912-1.920092-.046103-2.856897.187517-1.01255.25251-2.04887.236525-3.075854.330713-1.73669.159181-3.393729.595839-4.929868 1.44313-.744598.410701-1.399548.954426-2.118192 1.403303-.11196.069948-.2222.1428-.33158.216843-.058463.039498-.095806.094122-.069917.167702.028006.079854.099248.073513.165326.070673.103354-.004359.186845-.062219.275368-.105416 1.009637-.492272 2.021061-.980845 3.027653-1.479194.729038-.360964 1.519123-.500793 2.30391-.667173 1.001163-.212285 2.00643-.339036 3.035334-.339894.99805-.000727 1.997425-.008983 2.993025.032893.482406.020343.96574.015786 1.447881.04346 2.267496.13012 4.505064.416249 6.638484 1.252643.030722.01202.063165.019749.093489.032562.116397.048944.229616.10753.199226.260965-.026418.133355-.14116.161294-.254313.163804-.231669.005086-.459299.04029-.688783.065786-.53491.059578-1.072603.120542-1.609765.126949-.660246.007926-1.316653.071202-1.97637.08679-1.176155.02774-2.341584.18058-3.502577.376156-1.238724.208652-2.454473.496235-3.63182.935799-.959582.35819-1.879107.80885-2.814721 1.222259-.402425.177807-.805114.355086-1.207208.533883-.08038.035734-.16056.073118-.236502.117306-.046678.027146-.094151.068163-.075281.13177.016685.056076.068924.088903.121495.10066.120039.026949.239416.00502.36025-.013276 1.033935-.156473 1.983917-.570145 2.93476-.970145 1.803031-.75852 3.674193-1.272325 5.60309-1.568626 1.008512-.154954 2.02563-.259776 3.04308-.353303.666934-.061228 1.33645-.1465 2.002987-.110106 1.577785.085998 3.149877.233158 4.67178.704756.560998.173844.941243.594188 1.365053.956605.094945.081242.104546.19868.03688.300198-.072037.107926-.168969.155416-.312578.100198-.34661-.133421-.693882-.26354-1.067505-.314266-.31463-.042735-.627208-.111361-.94528-.107332-.3964.004888-.788761-.032959-1.18238-.066843-.21611-.01856-.370776.054558-.360249.308917-.285828.029194-.560666.009181-.797764-.1786" fill="#55873A"/>
    <path d="M46.290795 30.287827c0-.19815.003443-.396301-.00053-.594386-.037276-1.839432-1.388888-3.16004-3.233168-3.173844-.944553-.007067-1.756685.347358-2.520418.860898-1.755692 1.180582-2.155005 3.521335-1.671804 4.874505.376272 1.053897 1.501644 2.22008 3.041756 2.069749.91297-.089168 1.808064-.267305 2.642972-.665786.891519-.425495 1.451722-1.120277 1.65876-2.08963.090311-.422853.093357-.85185.082432-1.281506m-1.65598-5.868494c.237099.187715.511937.207794.797832.178534.680838.160766 1.34883.352047 1.975906.676288.74089.383025 1.385843.873447 1.946046 1.495376.411297.456605.772737.936526 1.042345 1.48646.442879.903368.664484 1.860502.586488 2.861426-.091833 1.179129-.501607 2.234082-1.281297 3.157596-.609794.722391-1.383061 1.129657-2.242534 1.448085-.75976.281506-1.53369.513012-2.33728.573646-.905886.068428-1.81793.127675-2.726861.069352-.490948-.031505-.978254-.134346-1.4645-.220277-1.029368-.181902-2.044567-.429723-3.052416-.70317-.919591-.249472-1.800119-.593858-2.634895-1.069023-.623566-.35502-1.222039-.742998-1.770854-1.195046-.571194-.470476-1.087434-1.002378-1.59116-1.551717-.749232-.817107-1.503232-1.654558-2.5859-2.073448-.315358-.122061-.652234-.191017-.941705-.381308-.21836-.143461-.38713-.4858-.335883-.719419.060185-.274438.280068-.443395.61231-.46605 1.490852-.101981 2.903178-.484676 4.220295-1.193197 1.00904-.542866 2.054034-1.001387 3.151068-1.33111 1.107032-.33276 2.23075-.598282 3.37413-.783817.73182-.118758 1.464302-.205152 2.202875-.272853.649653-.059578 1.2954-.03177 1.942536-.05086.372498-.01103.738706.103568 1.113455.064532m16.48648 2.122979c-.974546.008784-1.752845.315456-2.350854 1.038309-.891386 1.077543-1.367304 2.278137-1.088096 3.689894.240806 1.217371 1.452053 2.236592 2.478507 2.219023.521272-.008983 1.028374.049141 1.540575.1179.632637.085006 1.140733-.160173 1.52932-.655945.101368-.12926.194989-.267107.27358-.411097.353032-.646697.635153-1.324306.861657-2.0249.133679-.413475.11375-.816447-.063429-1.218164-.29106-.660238-.705402-1.236196-1.15616-1.795113-.539876-.669418-1.24369-.949802-2.0251-.959907zm1.366112 8.642866c-.639324 0-1.281694.038706-1.91698-.011624-.558283-.044254-1.119413-.086989-1.67604-.178534-.433544-.071268-.870795-.124637-1.301756-.213739-1.305994-.270079-2.594507-.589498-3.779998-1.233487-.473932-.25753-.91244-.56605-1.30169-.927477-.324628-.301453-.50346-.709445-.58854-1.159049-.082896-.438177-.053565-.884214-.128713-1.319352-.095144-.550727-.134605-1.108653-.24809-1.657993-.064819-.313606-.163737-.637318-.146456-.954491.034694-.636063.389315-1.09716.979909-1.314531.838087-.308388 1.71186-.498217 2.587753-.67761.69494-.142337 1.395973-.240025 2.09866-.309246 1.314402-.129458 2.632975-.170145 3.954726-.093791 1.577123.091083 3.118229.350726 4.58776.944848.653494.2642 1.292818.561162 1.771318 1.114333.482803.55819.721093 1.210237.83226 1.92959.087993.56889.075215 1.138772.053034 1.70601-.032112.821533-.1787 1.625628-.50366 2.392009-.187241.44148-.50538.77074-.884168 1.029128-1.122658.765786-2.38012 1.048745-3.72862.962219-.054887-.003567-.10951-.01473-.164332-.015456-.16546-.002047-.330918-.000726-.496377-.000726v-.01103z" fill="#FEFEFE"/>
    <path d="M48.980969 17.483791c1.080813.053435 2.158977.133686 3.179936.532563.407258.159115.795779.365456 1.195356.544782.213991.096103.413747.248877.679448.125495.111895-.051981.173867.049208.198034.159446.083094.37893-.10342.687516-.494986.745508-1.223032.18111-2.33834.684214-3.475035 1.126552-.273977.106605-.559806.183092-.832988.29148-.093091.036988-.261993.05-.193334.238177.055948.153633.174994.148547.297615.119947.523059-.122127 1.055917-.14815 1.588511-.198877.540539-.051453 1.084057-.098283 1.624066-.171797.346676-.04716.704806-.010898 1.057838-.012219.4303-.001585.86285-.031836 1.290434.001453.707256.054954 1.41577.075165 2.122694.172523.591653.08144 1.187146.16288 1.783831.21942.183865.01737.3674.055085.535838.136525.332242.1607.357336.484808.052107.69181-.070844.048018-.148774.094385-.24107.097754-.72692.026816-1.401402.30885-2.109717.432497-.857685.149735-1.711729.328335-2.562263.513342-1.067703.232232-2.137922.47827-3.138489.9393-.371703.171334-.701826.099273-1.029897-.103435-.821931-.507728-1.642737-1.017305-2.469635-1.516909-1.438678-.869353-2.886625-1.720872-4.49308-2.260502-.186116-.062483-.364883-.159049-.531269-.264597-.193863-.12292-.319596-.297952-.305096-.54782.013308-.230582.150562-.350463.348199-.432893 1.153379-.481044 2.297687-.985337 3.522904-1.269485.532395-.123448 1.06671-.212418 1.613075-.255614.261927-.02074.523192-.044518.786973-.054426M66.823636 36.24463c-.378125.103038-.723278.302048-1.10935.38144-.437515.089894-.870463.195443-1.321287.219881-.36111.019485-.720167.071599-1.083726.057266-.810212-.0321-1.61857-.082035-2.424016-.181506-.392493-.048481-.789952-.034346-1.185292-.062021-.890525-.06222-1.756155-.241678-2.619667-.444254-.938064-.22008-1.874009-.449207-2.811477-.671797-.137452-.032628-.281393-.073381-.416726.06942.486842.404226 1.07439.584543 1.657635.741677 1.102.296961 2.221214.530383 3.322883.828533.717585.194188 1.450464.34551 2.13885.639366.090376.038574.182342.078534.26292.133356.138048.093923.134406.307067-.003046.40634-.080048.057794-.165922.113871-.267356.1214-.616482.045774-1.209393.219684-1.805747.357927-1.135833.263342-2.151032.01103-3.09896-.611559-.817761-.537186-1.572622-1.156407-2.32265-1.782695-.584965-.488441-1.106303-1.040224-1.639625-1.580185-.16857-.170673-.314299-.365852-.45579-.56037-.167114-.229854-.166518-.449801-.018671-.632562.16089-.198811.370842-.176883.572915-.10119.34992.13111.69984.266183 1.03685.426487.704673.335139 1.411532.668362 2.139975.944452.405271.153566.847753.214333 1.277059.298745.915288.17992 1.829119.372655 2.750895.512153.594897.090026 1.189199.19029 1.793034.239498.671635.054822 1.340621.041347 2.0108.05317.964282.016975 1.898043-.190422 2.824189-.423183.207436-.052114.413548-.018428.617806-.07391.138842-.037649.21346.078665.235906.213606.028007.16856-.033436.325231-.064157.485997l.005826-.005482z" fill="#55873A"/>
    <path d="M50.083777 55.474366c-.98216.003567-1.813096-.230383-2.618608-.577279-2.061317-.88778-4.120185-1.781308-6.185872-2.65885-1.09465-.464994-2.21135-.86724-3.400084-1.031903-.62489-.086592-1.24945-.109115-1.874738-.022853-.17347.02391-.348.072985-.499223.165323-.913302.558059-1.829715.451718-2.741427.008455-.70368-.342074-1.372336-.748547-2.044964-1.146896-1.166025-.690554-2.305897-1.420872-3.38565-2.241083-.0872-.066248-.176185-.135667-.244779-.21955-.249612-.305417-.136393-.608455.25769-.667108.341312-.050792.676203.003633 1.012351.089036 1.7063.433223 3.377838.984742 5.068776 1.46922 2.211482.633686 4.45885 1.114928 6.73098 1.479921 1.511244.2428 3.032155.39498 4.55598.533554 1.28699.11704 2.576894.068428 3.863157.13527 1.185093.061625 2.374292.13395 3.530253.444783.298144.080118.591057.171796.855699.339035.272123.171995.481876.399075.549345.713805.198232.925165.221472 1.537648-.643165 2.197556-.718975.548679-1.79277 1.022655-2.785721.989564" fill="#D10555"/>
    <path d="M53.15485 56.838071c-.258815.023448-.542724-.020806-.824778-.06922-.101765-.017437-.238158-.031506-.25683-.166117-.01589-.113936.097462-.156076.174133-.217833.62509-.504095 1.262692-.993924 1.84554-1.54782.320323-.30436.593837-.647887.824314-1.026024.193466-.317437.181019-.618957-.032641-.92226-.354555-.503236-.68832-1.020871-1.077238-1.500131-.27305-.336526-.234648-.478798.158308-.678798.490882-.249868 1.029765-.309643 1.563352-.380053.87245-.114993 1.738279-.283553 2.6245-.28778.481612-.002312.906482.123249 1.30149.394055 1.03844.712087 2.02914 1.477146 2.839022 2.451981.70037.842999.515908 1.594716-.516704 1.978072-2.015566.748216-4.08304 1.310502-6.207854 1.654953-.575365.093197-1.15126.183488-1.725897.281044-.219155.037252-.438509.03963-.688717.035931m-15.836006-4.558368c.880859-.007464 1.62261.241545 2.372041.463078 1.141395.337318 2.255048.7535 3.31335 1.289894.900655.456539 1.756088 1.001783 2.631716 1.507398.114213.065984.231934.126222.34363.196103.113882.071136.166717.170079.117854.308058-.05204.146895-.163936.151123-.294568.141942-1.668626-.1179-3.272034-.527477-4.862797-1.025165-1.65022-.516249-3.276603-1.0821-4.812278-1.884479-.07793-.040687-.157911-.077873-.233854-.121928-.136393-.079062-.273183-.17074-.256895-.350198.017413-.192074.163936-.276817.335486-.314201.472144-.102907.937402-.256143 1.346315-.210502" fill="#DAADC0"/>
    <path d="M22.192663 41.028012c.002052.068758-.025028.126486-.061576.183818-.591322.92926-1.239253 1.813738-2.040395 2.577609-.072103.068692-.145132.14716-.257755.08428-.07932-.044254-.147318-.110304-.144603-.206077.002847-.099802.058728-.186394.106598-.273448.196445-.3572.447514-.677807.679447-1.011096.384615-.552906.833188-1.048283 1.360882-1.470212.076936-.061558.150826-.14029.26206-.081968.07667.040159.095143.116116.095342.197094m20.059836-10.121645c.011653.289498.118317.662682.40984.960436.27305.278798.568612.301321.881785.07107.373756-.274835.700503-.59901.969448-.977146.193466-.272061.18307-.457398-.040388-.706143-.225909-.251453-.518292-.398745-.838683-.493924-.798824-.237252-1.385975.200067-1.382002 1.145707m4.038283-.61856c.010925.429657.007879.858653-.082431 1.281572-.20704.969287-.767243 1.664069-1.65876 2.089564-.83491.398481-1.730003.576618-2.642973.665786-1.540046.15033-2.665418-1.015852-3.041756-2.069749-.483135-1.35317-.083888-3.693923 1.671804-4.874438.763732-.51354 1.575865-.867966 2.520417-.860965 1.844281.013805 3.195893 1.334478 3.23317 3.17391.003972.198019.000529.396236.000529.59432m15.233402 1.330667c.275964.014531.583112-.016248.866954-.146961.448309-.206473.527297-.864135.15043-1.181639-.560071-.471862-1.62175-.194187-1.856994.499274-.13904.409841-.038269.860436.573512.829855.076804-.003831.153938-.000529.266098-.000529m-.402888-5.076156c.78141.010106 1.485224.29049 2.0251.959908.450758.558917.8651 1.134874 1.15616 1.795112.177178.401717.197108.80469.06343 1.218164-.226505.700594-.508626 1.378203-.861658 2.0249-.078592.14399-.172213.281837-.27358.411097-.388587.495773-.896683.740951-1.52932.655945-.5122-.068758-1.019303-.126883-1.540575-.1179-1.026454.01757-2.2377-1.001651-2.478507-2.219088-.279208-1.411691.19671-2.612286 1.088096-3.689829.59801-.722853 1.376308-1.029524 2.350854-1.038309" fill="#10150E"/>
    <path d="M42.252499 30.906367c-.003973-.94564.583178-1.382959 1.382002-1.145707.32039.095179.612774.24247.838683.493924.223459.248745.233854.434082.040388.706143-.268945.378137-.595692.702311-.969448.977146-.313173.230251-.608735.207728-.881785-.07107-.291523-.297754-.398187-.670938-.40984-.960436m19.271685.712107c-.11216 0-.189294-.003302-.266098.000529-.611781.03058-.712553-.420014-.573512-.829855.235245-.693461 1.296923-.971136 1.856994-.499274.376867.317504.297879.975166-.15043 1.181638-.283842.130714-.59099.161493-.866954.146962" fill="#FEFEFE"/>
  </g>
</svg>
