<svg width="80" height="80" viewBox="0 0 80 80" xmlns="http://www.w3.org/2000/svg" xmlns:xlink="http://www.w3.org/1999/xlink">
  <title>
    pfr-payfair
  </title>
  <defs>
    <path id="a" d="M.000003.290033h63.825572v42.376634H.000003z"/>
  </defs>
  <g fill="none" fill-rule="evenodd">
    <circle fill="#FFF" cx="40" cy="40" r="40"/>
    <g transform="translate(8 19.043333)">
      <mask id="b" fill="#fff">
        <use xlink:href="#a"/>
      </mask>
      <path d="M7.452153 33.021033c.000332-1.771-1.246176-3.046-2.998383-3.066666-1.770114-.021334-3.143627 1.367666-3.11544 3.15.026528 1.666666 1.40402 2.992 3.122404 3.003333 1.70744.011333 2.991088-1.313 2.99142-3.086667m55.039004-20.622c.00597-1.759333-1.237222-3.050666-2.983129-3.098333-1.76315-.048-3.095212 1.203-3.126715 2.937-.031171 1.746 1.370197 3.2 3.099192 3.215333 1.726673.015 3.004352-1.281 3.010652-3.054M30.9312 1.933033c-2.389554 1.928-4.867648 3.346667-7.548352 4.431334-2.662798 1.077333-5.463544 1.563-8.290487 1.937-.03913.433666-.08456.706333-.084892.979-.004642 4.995-.00829 9.99.003317 14.985.001326.494666.078259.993.160497 1.482666.47884 2.843334 1.990964 5.136334 3.88112 7.206667 3.141305 3.440667 6.98429 5.918 11.049118 8.094667.669182.358 1.206384.324666 1.851358-.015667 3.04116-1.604667 5.925803-3.45 8.50603-5.730333 1.23656-1.093 2.431338-2.267334 3.468933-3.548667 1.924311-2.377333 3.083938-5.036333 2.99971-8.238667-.124684-4.769666-.029513-9.545-.036145-14.318-.000995-.535-.052394-1.069666-.083565-1.662333-5.847544-.392667-11.201658-1.854333-15.876642-5.602667M14.683822 28.898367c-2.0417.971666-3.929534 1.87-5.906902 2.811.019233.365.046425.734666.057368 1.104333.060684 2.051-1.386114 4.037-3.264663 4.487333-2.213803.531-4.14541-.369666-5.108726-2.381333-.949057-1.981667-.404227-4.154667 1.374508-5.484667 1.313824-.982333 3.444394-1.077 4.840456-.183333.508684.325667.973264.721333 1.579772 1.176667 1.977037-.930334 4.002819-1.883334 6.123109-2.881-.893347-2.597667-.625078-5.158334-.639337-7.697667-.02056-3.608333-.002321-7.217-.000995-10.825333.000332-.547334 0-1.094334 0-1.816334 3.22487-.324 6.30483-.836333 9.227938-2.010333 2.890612-1.161 5.560373-2.69 7.887254-4.907667 1.303213.929667 2.480415 1.926334 3.799876 2.667334 1.337036.750333 2.784829 1.336333 4.239585 1.830666 1.456746.495334 2.96655.870667 4.480995 1.146667 1.50483.274 3.043814.359333 4.7297.545.054715 1.703.107108 3.331667.163481 5.078667 2.267855.223 4.403731.066666 6.584042.130666.258321-.541333.461927-1.048666.73086-1.517666 1.406674-2.450667 4.796352-3.158 7.061886-.826 1.69716 1.747 1.533347 4.898666-.280207 6.426666-1.919005 1.617334-4.994321 1.226667-6.448415-.852333-.37571-.537333-.632041-1.158333-.995813-1.839333h-6.675897c-.019896.577666-.054383 1.114666-.055378 1.651666-.005305 2.831334-.068974 5.664334.013928 8.493334.101471 3.449666-1.111213 6.4-3.141638 9.076333-2.448912 3.228333-5.60746 5.641667-8.996145 7.767333-1.309181.821334-2.698943 1.512-4.039958 2.283334-.676809.389-1.29426.43-2.02114.049666-4.233948-2.215333-8.262964-4.726333-11.513036-8.297-1.109555-1.218666-2.01086-2.629333-2.996394-3.960666-.25998-.351334-.478508-.733-.810114-1.246" fill="#000" mask="url(#b)"/>
    </g>
    <path d="M33.118773 39.2488c-1.547938.888-2.350425 2.226667-3.620808 3.415667 2.140518 2.017666 3.911627 4.173666 6.182135 6.017 1.433533-1.119 2.493015-2.396334 3.672207-3.537 1.151668-1.114334 2.264539-2.269667 3.394984-3.406334 1.169575-1.176 2.350425-2.34 3.50541-3.53 1.139398-1.173 2.404145-2.235666 3.450362-3.639333-1.123482-1.232333-2.086798-2.407-3.45799-3.337667-1.833119 1.761-3.62744 3.386-5.305699 5.124-1.71341 1.774667-3.349223 3.621667-5.312995 5.192667-.876767-.804-1.640124-1.503667-2.507606-2.299m5.812394-18.272333c4.674984 3.748333 10.029098 5.209666 15.876642 5.602666.031171.592667.08257 1.127334.083565 1.662334.006632 4.772666-.088539 9.548333.036477 14.318.083896 3.202333-1.07573 5.861333-3.000042 8.238666-1.037596 1.281334-2.232373 2.455667-3.468932 3.548667-2.580228 2.280333-5.46487 4.125333-8.506031 5.73-.644974.340667-1.182177.374-1.851358.016-4.064497-2.177-7.907813-4.654333-11.04912-8.094667-1.890154-2.070333-3.402279-4.363333-3.881118-7.206666-.082239-.489667-.159171-.988-.160166-1.482667-.011938-4.995-.00829-9.990333-.003648-14.985.000332-.272667.045762-.545333.084892-.979 2.826943-.374 5.627689-.86 8.290487-1.937 2.680704-1.084667 5.158797-2.503667 7.548352-4.431333" fill="#36F7E3"/>
    <path d="M70.491192 31.4423c-.0063 1.773-1.28398 3.069333-3.010653 3.054-1.728995-.015-3.130694-1.469333-3.099192-3.215333.031503-1.734 1.363565-2.985 3.126715-2.936667 1.745907.047667 2.989099 1.339 2.98313 3.098M15.452153 52.064367c-.000331 1.773666-1.283979 3.098-2.99142 3.086666C10.74235 55.1397 9.364859 53.814367 9.33833 52.1477c-.028187-1.782333 1.345326-3.171333 3.11544-3.15 1.752207.020667 2.998715 1.295667 2.998383 3.066667" fill="#FFF"/>
    <path d="M35.576672 46.938567c4.169948-4.183334 8.227481-8.253667 12.400082-12.439334-.49542-.495666-1.021347-1.021666-1.624538-1.625-.46226.401-.85057.697667-1.19312 1.040667-2.699937 2.704-5.387937 5.42-8.088538 8.123-.415835.415667-.878757.784-1.39341 1.239667-.95801-.860334-1.795647-1.613-2.69198-2.418-.657574.656333-1.181512 1.18-1.650403 1.648333 1.503834 1.571 2.876684 3.004667 4.241907 4.430667M33.118806 39.2489c.867482.795 1.63084 1.495 2.507275 2.299 1.964104-1.571333 3.599917-3.418 5.313326-5.192667 1.677928-1.738 3.47258-3.363 5.3057-5.124 1.371191.930667 2.334508 2.105 3.45799 3.337667-1.046218 1.403667-2.310964 2.466333-3.450363 3.639333-1.154985 1.189667-2.336166 2.354-3.50541 3.53-1.130445 1.136667-2.243316 2.292-3.394984 3.406334-1.179192 1.140666-2.238674 2.418-3.672207 3.537-2.270508-1.843334-4.041617-3.999334-6.182135-6.017334 1.270383-1.189 2.07287-2.527333 3.620808-3.415333" fill="#000"/>
    <path d="M35.576672 46.938567c-1.365223-1.426-2.738073-2.859667-4.241907-4.430667.468891-.468333.992829-.992 1.650404-1.648333.896332.805 1.733969 1.557666 2.69198 2.418.514652-.455667.977574-.824 1.393409-1.239667 2.7006-2.703 5.3886-5.419 8.088538-8.123.34255-.343.73086-.639667 1.19312-1.040667.603191.603334 1.129119 1.129334 1.624538 1.625-4.1726 4.185667-8.230134 8.256-12.400082 12.439334" fill="#FFF"/>
  </g>
</svg>
