<svg width="80" height="80" xmlns="http://www.w3.org/2000/svg" xmlns:xlink="http://www.w3.org/1999/xlink">
  <defs>
    <path id="a" d="M.00001.288h49.719675v53.311988H.000011z"/>
    <path id="c" d="M0 .30452h22.464364v51.295464H0z"/>
    <path id="e" d="M.271281.288087h29.763365V38.01776H.27128z"/>
  </defs>
  <g fill="none" fill-rule="evenodd">
    <circle fill="#FFF" cx="40" cy="40" r="40"/>
    <g transform="translate(15 11.112)">
      <mask id="b" fill="#fff">
        <use xlink:href="#a"/>
      </mask>
      <path d="M49.573937 33.26564c-.005118-3.0704.467323-6.1552-.261811-9.2048-1.63622-3.5988-3.22756-7.2196-4.919685-10.7912-2.789764-5.8888-7.574803-9.334-13.580315-11.234-2.068504-.6188-3.87756-2.3188-6.277953-1.5532h-.000393c-1.768898.3084-3.57756.4128-5.27874 1.066-.822835.0236-1.68504-.0756-2.243308.756-1.933464 1.3392-4.344882 2.2364-5.544882 4.3228-3.703543 6.438-7.355905 12.9144-10.468504 19.6816-.314566.6844-.520078 1.3528-.366929 2.114.319292 1.5872.203937 3.1568-.01811 4.7616-.419685 3.0336-.762992 6.0912-.546457 9.1632.165748 2.3532.574016 5.0296 2.304331 6.4016 5.13819 4.0736 10.801181 6.6656 17.420472 3.3104 2.627953-.1028 5.208662.4404 7.817717.586 2.926772.1636 5.848425 1.1236 8.772047.4444 3.24685-.7544 6.429134-1.7928 9.644882-2.6876.65748-.1832 1.237795-.3856 1.461811-1.142.618504-2.092 1.634646-4.0568 1.937402-6.2504 0-.0004-.000394-.0008-.000394-.0016.499213-3.2408.197244-6.4936.148819-9.7428" fill="#DCC442" mask="url(#b)"/>
    </g>
    <path d="M64.425354 54.122c-.302362 2.1936-1.318504 4.1584-1.937401 6.2504-.223622.7568-.804331.9588-1.461418 1.142-3.215748.8948-6.398425 1.9332-9.644881 2.6876-2.924016.6792-5.84567-.2804-8.772048-.4444-2.609448-.1456-5.190157-.6888-7.81811-.586 1.238583-1.3308 1.902362-2.9748 2.48622-4.6676.900788-2.6112-1.697244-2.88-2.716535-4.2044-.119685-.156-.26811-.2916-.414567-.4232-4.000787-3.6004-6.477165-8.416-9.755118-12.5916-.786614-1.002-.37126-1.6716.241339-2.4248 2.031496-2.4972 2.02559-2.6208-.615355-4.4444-.505118-.3488-1.11811-.5368-1.761417-.8364 1.049606-2.3376 2.063386-4.5956 3.077953-6.854 1.690157 1.2284 3.39685 2.4316 4.87441 3.9372.671653.684.881102 1.3664.074802 2.0208-1.443307 1.172-.855118 2.1548.044882 3.354 3.786614 5.0484 7.521654 10.138 11.216142 15.2564.95315 1.3204 1.752756 2.1632 3.20433.5988.928347-1.0004 2.017717-1.8472 3.034646-2.7628 1.462205-.3744 2.384252-1.6612 3.277166-2.6116 1.937401-2.0628 3.528346-1.9272 5.38307-.182 1.416142 1.9216 3.245276 3.4856 5.190158 4.6904 1.340551.8304 2.467323 1.4816 2.791732 3.0956" fill="#C8A43B"/>
    <g transform="translate(15 13.112)">
      <mask id="d" fill="#fff">
        <use xlink:href="#c"/>
      </mask>
      <path d="M10.333622 13.61332c-1.014173 2.2584-2.027953 4.5164-3.077559 6.854.643307.2996 1.2563.4876 1.761417.8364 2.640945 1.8236 2.64685 1.9468.615355 4.4444-.612599.7532-1.027953 1.4228-.241339 2.4244 3.277953 4.176 5.75433 8.9916 9.755118 12.5916.146457.132.294882.2676.414567.4236 1.019291 1.3244 3.617323 1.5932 2.716535 4.2044-.583858 1.6924-1.247637 3.3368-2.48622 4.6676-6.619291 3.3552-12.282283.7628-17.420079-3.3104-1.730708-1.372-2.138582-4.0484-2.304724-6.4016-.216536-3.072.127165-6.1296.546457-9.1632.222047-1.6048.337401-3.1744.01811-4.762-.152756-.7608.052362-1.4292.367323-2.1136 3.112204-6.7672 6.764567-13.2436 10.46811-19.6816 1.200394-2.0864 3.61181-2.9836 5.544882-4.3228-.048032 1.7292-.942914 3.2532-1.158662 4.9412-1.255905.8484-2.246456 1.972-3.16811 3.166-1.399606 1.4464-1.841732 3.3396-2.351181 5.2016" fill="#BB973A" mask="url(#d)"/>
    </g>
    <path d="M45.812047 13.14776c6.005512 1.9 10.790945 5.3448 13.580709 11.2336 1.691732 3.572 3.28307 7.1928 4.919685 10.7916v4.332c-.667323-2.352-1.022835-2.5328-3.010236-1.0936-2.177166 1.576-4.27126 3.2708-6.38937 4.93-.518504.4064-.852756.6732-1.391733-.0992-1.583464-2.268-3.247637-4.48-4.938582-6.6676-1.278347-1.6536-2.392126-3.4856-4.553937-4.2148-.831103-.28-.967717-1.186-.96811-2.024-.000394-2.5996-.001575-5.1992.00118-7.7988.000394-.5988-.076771-1.3036.726378-1.4172 2.059056-.2916 2.12756-1.73 2.043308-3.3736-.077953-1.5288-.018504-3.0652-.019292-4.5984" fill="#EADA47"/>
    <g transform="translate(34.685039 11.112)">
      <mask id="f" fill="#fff">
        <use xlink:href="#e"/>
      </mask>
      <path d="M11.127008 2.03576c.000787 1.5332-.058661 3.0696.019291 4.5984.084252 1.6436.015748 3.082-2.043307 3.3736-.80315.1136-.725984.8184-.726378 1.4172-.002756 2.5996-.001575 5.1992-.00118 7.7988.000393.838.137007 1.744.96811 2.024 2.16181.7292 3.27559 2.5612 4.553936 4.2148 1.690945 2.1876 3.355118 4.3996 4.938583 6.6676.538976.7724.873228.5056 1.391732.0992 2.11811-1.6592 4.212205-3.354 6.38937-4.93 1.987402-1.4392 2.342914-1.2584 3.010237 1.0936v-4.332c.72874 3.0496.256692 6.134.261417 9.2048-.232677.84-.513386 1.3572-1.640551 1.204-1.532284-.2088-3.112205-.0464-4.672047-.0564-.731103-.0048-1.455119-.0232-1.817717.8108-1.854724-1.7452-3.446063-1.8812-5.38307.1816-.892914.9508-1.814962 2.2376-3.277166 2.612-3.134646-4.944-6.843307-9.4608-10.232284-14.2148-.972047-1.3636-2.773622-2.502-2.580315-4.2548.308662-2.7948.061418-5.5648.205512-8.3396.269291-.5292.66063-.9316 1.190551-1.1912 1.020473-.3608 1.759843-1.4016 3.015355-1.2136 1.040157.1564 1.35118-.4284 1.326771-1.4148-.038976-1.5868-.276378-3.2504.100788-4.7436.370472-1.4668-.227953-1.8228-1.27559-2.1628 2.400393-.7656 4.209842.9344 6.277952 1.5532" fill="#DCC442" mask="url(#f)"/>
    </g>
    <path d="M36.36685 21.1292c-.52992.2596-.92126.6624-1.190157 1.1916-.522835.136-1.045276.2724-1.56811.4084-.918504-1.4568-1.837008-2.914-2.755906-4.3712.216142-1.688 1.11063-3.212 1.159055-4.9416.558268-.8316 1.420473-.7324 2.243307-.756 1.697638-.1828 2.287796.538 2.149213 2.2916-.161811 2.0468-.037402 4.1172-.037402 6.1772" fill="#C8A43B"/>
    <path d="M56.443504 46.33604c.362598-.834 1.086614-.8156 1.817717-.8108 1.559842.01 3.139763-.152 4.672047.0564 1.127165.1536 1.407874-.364 1.64055-1.204.048426 3.2492.350788 6.5024-.148818 9.7436-.324016-1.6132-1.450787-2.2644-2.791339-3.0948-1.944882-1.2052-3.774015-2.7688-5.190157-4.6904M36.36685 21.1292c0-2.06-.12441-4.1304.037402-6.1772.138583-1.7536-.451575-2.4744-2.149213-2.2916 1.701182-.6532 3.509843-.7576 5.27874-1.0656 1.048032.34 1.646457.696 1.275985 2.1628-.377166 1.4928-.139764 3.1564-.100788 4.7436.02441.9864-.286614 1.5708-1.326771 1.4148-1.255906-.1884-1.995276.8524-3.015355 1.2132m-2.758189 1.6002c.522835-.136 1.045276-.2724 1.567717-.4088-.144095 2.7748.10315 5.5448-.205512 8.3396-.1937 1.7524 1.608268 2.8912 2.580315 4.2548 3.388976 4.754 7.097638 9.2708 10.232284 14.2144-1.017323.916-2.106693 1.7624-3.03504 2.7632-1.45118 1.564-2.25118.7216-3.20433-.5988-3.694489-5.1188-7.429528-10.208-11.216142-15.2564-.899607-1.1996-1.48819-2.1824-.044488-3.354.806299-.6544.59685-1.3372-.074804-2.0212-1.477559-1.5052-3.184252-2.7088-4.874803-3.9368.50945-1.862.951575-3.7552 2.351575-5.2016 1.644488.1376 2.411417 1.6832 3.701181 2.4016.550788.3072.962992 1.0072 1.68622.7152.911418-.3684.401182-1.2564.535827-1.9112" fill="#D2B740"/>
    <path d="M33.608661 22.7294c-.134645.6548.375591 1.5428-.535826 1.9112-.723229.292-1.135433-.408-1.68622-.7152-1.289765-.7184-2.056694-2.264-3.701182-2.4016.92126-1.1944 1.911417-2.3176 3.167323-3.166.918504 1.4572 1.837402 2.9144 2.755905 4.3716" fill="#DCC442"/>
  </g>
</svg>
