<svg width="80" height="80" xmlns="http://www.w3.org/2000/svg" xmlns:xlink="http://www.w3.org/1999/xlink">
  <defs>
    <path id="a" d="M.0001 0h26.366v49.7225H.0001z"/>
    <path id="c" d="M.1631.0126H26.22v59.984H.1631z"/>
  </defs>
  <g fill="none" fill-rule="evenodd">
    <circle fill="#FFF" cx="40" cy="40" r="40"/>
    <path d="M40.1133 28.874c-3.261 1.988-6.556 3.649-9.463 5.624V45.52c3.168 1.838 6.351 3.688 9.512 5.524l.001-.001V28.904l.003.002c-.018-.011-.035-.021-.053-.032m.0498 41.123v-9.498c.044.025.089.051.133.076-3.234-1.848-6.492-3.71-10.027-5.729-.01 3.332-.013 6.366.003 9.443 3.322 1.919 6.567 3.794 9.886 5.711.015-.009.03-.018.046-.026-.014.007-.027.015-.041.023" fill="#00A56C"/>
    <g transform="translate(14 10)">
      <mask id="b" fill="#fff">
        <use xlink:href="#a"/>
      </mask>
      <path d="M26.1631 9.4765V.0125c-.008-.004-.016-.008-.024-.013-.52.241-.863.369-1.176.549-3.317 1.907-6.633 3.818-9.943 5.739-2.678 1.555-5.336 3.145-8.025 4.683-2.316 1.325-4.662 2.598-6.995 3.894v30.216c2.786 1.531 5.571 3.062 8.447 4.642v-30.111c5.971-3.362 11.874-6.934 17.919-10.247-.068.037-.135.075-.203.112" fill="#00A56C" mask="url(#b)"/>
    </g>
    <g transform="translate(39 10)">
      <mask id="d" fill="#fff">
        <use xlink:href="#c"/>
      </mask>
      <path d="M.1631.0126v9.464c.068-.037.135-.075.203-.112 5.998 3.476 11.916 6.905 17.795 10.313v20.591c-5.952 3.433-11.878 6.852-17.865 10.307-.044-.026-.089-.051-.133-.077v9.498c8.779-5.061 17.473-10.075 26.057-15.024v-30.02c-4.386-2.538-8.707-5.103-13.09-7.557-4.365-2.444-8.611-5.107-12.967-7.383" fill="#03CD8E" mask="url(#d)"/>
    </g>
    <path d="M48.69 34.4702c-3.066-1.998-6.399-3.641-9.527-5.566v22.139c3.262-1.91 6.433-3.767 9.527-5.579v-10.994z" fill="#03CD8E"/>
  </g>
</svg>
