<svg width="80" height="80" xmlns="http://www.w3.org/2000/svg">
  <g fill="none" fill-rule="evenodd">
    <circle fill="#FFF" cx="40" cy="40" r="40"/>
    <path d="M70.47832 56.22929l-11.455903-6.499955-1.025143 1.784796L69.4505 58.014087l1.02782-1.784797zM22.882788 28.83007l-11.455903-6.499956-1.026481 1.784797 11.454565 6.499956 1.02782-1.784797zm35.52267 40.150616l-6.54432-11.373261-1.796007 1.020643L56.610788 70l1.79467-1.019314zM30.813592 21.37459L24.269274 10l-1.796007 1.019314 6.545657 11.37459 1.794669-1.019314zM24.269274 70l6.544319-11.371932-1.79467-1.020643-6.545657 11.37326L24.269275 70zM51.86114 22.393904l6.544318-11.37459L56.610788 10l-6.545657 11.37459 1.796008 1.019315zM11.426885 58.014087l11.455903-6.499956-1.02782-1.784796-11.454564 6.499955 1.026481 1.784797zm47.595532-27.39922L70.47832 24.11491l-1.02782-1.784797-11.453226 6.499956 1.025143 1.784797zm1.075998 9.213697H40.785314v26.716133l19.3131-26.716133zM40.785314 13.115088v26.713476H21.469537l19.315777-26.713476z" fill="#030404" fill-rule="nonzero"/>
  </g>
</svg>
