<svg width="80" height="80" viewBox="0 0 80 80" xmlns="http://www.w3.org/2000/svg" xmlns:xlink="http://www.w3.org/1999/xlink">
  <title>
    pink-pinkcoin
  </title>
  <defs>
    <path id="a" d="M.000068.147398H59.16122v58.36765H.00007z"/>
    <path id="c" d="M24.418675.125165V16.88347H.05793V.125164h24.360745z"/>
  </defs>
  <g fill="none" fill-rule="evenodd">
    <circle fill="#FFF" cx="40" cy="40" r="40"/>
    <path d="M31.915924 39.595233c-.037476 5.272195 3.311357 8.663117 8.58549 8.69347 4.730346.027316 8.632428-3.731248 8.620315-8.335123-.01382-5.287182-4.24032-8.742602-8.383538-8.83195-5.258045-.113443-8.972366 4.143657-8.822272 8.473603m-.25041 15.22851V73.95404c-.951103-.249837-1.715393-.38054-2.42631-.651815-1.646875-.629052-3.274067-1.31141-4.896907-2.001355-.798927-.339567-1.166498-.94244-1.16309-1.862493.039368-10.208808-.00511-20.418185.08877-30.626423.073816-8.040705 6.629526-15.13252 14.677097-16.16279 4.1894-.5361 8.06858.166177 11.68183 2.413576 4.26246 2.651084 6.682524 6.558563 7.611294 11.375284.98366 5.100705.014195 9.84553-3.262903 13.98767-2.87962 3.64-6.707883 5.601897-11.225675 6.412683-3.51937.631517-6.73041-.384905-9.933312-1.59027-.288075-.10851-.577475-.213036-1.15079-.424364" fill="#ED78AA"/>
    <g transform="translate(5 5.042)">
      <mask id="b" fill="#fff">
        <use xlink:href="#a"/>
      </mask>
      <path d="M53.026656 16.688816c-2.398296-2.046694-4.874763-3.808076-7.7135-5.036396-4.228203-1.829485-8.61142-2.480542-13.189023-2.024878-3.26877.325528-6.366814 1.175203-9.267067 2.728672-5.559937 2.97851-9.486057 7.416965-11.810725 13.285014-1.44265 3.641328-1.82101 7.3813-1.6094 11.309078.26669 4.948943.080067 9.922548.084988 14.88534.002082 1.89664-.003785 3.793468-.014195 5.690107-.001704.296694-.048076.593388-.07363.890082-.081197.033008-.162206.066206-.243405.099214-.569716-.68748-1.165552-1.355046-1.705174-2.06548-3.4253-4.509214-5.924667-9.460433-6.935204-15.0758C-.64211 34.748433.136 28.313176 2.56931 22.05624c1.814386-4.664958 4.488834-8.76081 8.166436-12.14585 5.56997-5.127454 12.0706-8.511356 19.59653-9.46271C40.551958-.844 49.6377 2.059006 57.573976 8.614345c.48568.40103.987256.792764 1.41161 1.25336.153123.16618.236593.6558.12284.77133-1.98795 2.019755-4.011673 4.004036-6.081768 6.049782" fill="#B2B4B3" mask="url(#b)"/>
    </g>
    <g transform="translate(40.394 57.97)">
      <mask id="d" fill="#fff">
        <use xlink:href="#c"/>
      </mask>
      <path d="M24.41877 6.382482c-2.592492 2.714635-5.37104 4.813307-8.456593 6.4971-4.58347 2.50103-9.51369 3.74282-14.71344 3.999296-.895267.04401-1.214952-.217398-1.1894-1.156612.063786-2.3358.040505-4.674635.01287-7.011572-.008895-.748374.233566-1.083388 1.020948-1.1145C6.95631 7.36533 11.995552 5.07923 16.440473 1.341154 16.94508.91679 17.44306.48446 17.86287.125164c2.176846 2.077807 4.32511 4.128105 6.5559 6.25732" fill="#B2B4B3" mask="url(#d)"/>
    </g>
  </g>
</svg>
