<svg width="80" height="80" xmlns="http://www.w3.org/2000/svg">
  <defs>
    <linearGradient x1=".065684%" y1="-15.864928%" x2="86.21466%" y2="88.526619%" id="a">
      <stop stop-color="#CEE075" offset="0%"/>
      <stop stop-color="#C5D96C" offset="19%"/>
      <stop stop-color="#ABC752" offset="49%"/>
      <stop stop-color="#96B73D" offset="71%"/>
    </linearGradient>
    <linearGradient x1="84.332575%" y1="20.595475%" x2="2.864408%" y2="90.909284%" id="b">
      <stop stop-color="#CEE075" offset="0%"/>
      <stop stop-color="#C6DA6D" offset="25%"/>
      <stop stop-color="#B2CB59" offset="62%"/>
      <stop stop-color="#96B73D" offset="100%"/>
    </linearGradient>
    <linearGradient x1="7.738289%" y1="6.427628%" x2="283.911527%" y2="237.983903%" id="c">
      <stop stop-color="#CEE075" offset="0%"/>
      <stop stop-color="#C5D96C" offset="8%"/>
      <stop stop-color="#ABC752" offset="23%"/>
      <stop stop-color="#96B73D" offset="32%"/>
    </linearGradient>
    <linearGradient x1="101.136079%" y1="117.5511%" x2="13.980911%" y2="11.668396%" id="d">
      <stop stop-color="#CEE075" offset="0%"/>
      <stop stop-color="#C7DC6C" offset="18%"/>
      <stop stop-color="#B5D152" offset="48%"/>
      <stop stop-color="#A4C63A" offset="71%"/>
    </linearGradient>
    <linearGradient x1="15.801364%" y1="79.32406%" x2="97.041176%" y2="8.315143%" id="e">
      <stop stop-color="#CEE075" offset="0%"/>
      <stop stop-color="#C9DD6D" offset="24%"/>
      <stop stop-color="#BAD358" offset="60%"/>
      <stop stop-color="#A4C63A" offset="100%"/>
    </linearGradient>
    <linearGradient x1="105650%" y1="7510%" x2="105650%" y2="28180%" id="f">
      <stop stop-color="#CEE075" offset="0%"/>
      <stop stop-color="#C5D96C" offset="8%"/>
      <stop stop-color="#ABC752" offset="23%"/>
      <stop stop-color="#96B73D" offset="32%"/>
    </linearGradient>
  </defs>
  <g fill="none" fill-rule="evenodd">
    <circle fill="#2D7DD2" cx="40" cy="40" r="40"/>
    <g fill-rule="nonzero">
      <path d="M35.961576 52.728358a7.085741 7.085741 0 0 1-.73596.035821c-1.457413-.005936-2.882067-.43717-4.102463-1.24179-.697111-.421046-1.327768-.945283-1.870936-1.555225l.017734-.038806-.097537-.116418-21.97537-22.24776c-1.571574-1.459391-3.984509-1.471689-5.570587-.02839-1.586077 1.443297-1.824571 3.86834-.550595 5.598538L26.30542 58.638806c1.606863 1.617921 4.20693 1.617921 5.813793 0l8.20197-8.22388-.295566.25373c-.827586.749254-2.098522 1.868657-4.06404 2.059702z" fill="url(#a)" transform="translate(10 10)"/>
      <path d="M43.906404 31.280597c.351724 3.21194-1.53399 5.513433-2.394089 6.385075-.183251.185074-.322167.298507-.38128.355224l-.17143.140298-11.76059 11.791045c.592538.627739 1.256223 1.182806 1.97734 1.653731 1.408757.930777 3.08835 1.351697 4.764532 1.19403.852509-.08625 1.676363-.35817 2.414778-.797015.559182-.34862 1.085525-.748304 1.572414-1.19403a7.03389 7.03389 0 0 1 .564532-.450746l9.369458-9.39403c1.608222-1.624906 1.608222-4.258676 0-5.883582l-7.770443-7.838806c.576354.773134 1.498522 2.16418 1.73202 3.501493.035467.173134.062068.352238.082758.537313z" fill="url(#b)" transform="translate(10 10)"/>
      <path d="M29.538916 20.4c-.772133.779816-1.205913 1.837473-1.205913 2.940299 0 1.102825.43378 2.160482 1.205913 2.940298l11.612808 11.728358h.014778c.638428-.558331 1.187746-1.212795 1.628572-1.940298.899624-1.401876 1.296056-3.072922 1.123153-4.734329-.017734-.155223-.038424-.298507-.065025-.456716-.238385-1.234734-.777803-2.389967-1.569458-3.361194a5.72876 5.72876 0 0 0-.428572-.546269l-.27192-.274627c-.10936-.104477-.195075-.208955-.280789-.283582l-5.940887-6c-.770563-.781401-1.81692-1.221646-2.908881-1.223885-1.091962-.00224-2.14008.43371-2.913779 1.211945z" fill="url(#c)" transform="translate(10 10)"/>
      <path d="M58.566502 31.838806c1.426846-1.440871 1.616658-3.711014.449261-5.373134L34.188177 1.391045c-1.604419-1.6204-4.204487-1.624405-5.813793-.008955l-8.196059 8.22388.295567-.253731c.842364-.737314 2.1133-1.850746 4.075862-2.044776a7.085751 7.085751 0 0 1 .73596-.035821c1.457413.005936 2.882067.43717 4.102463 1.24179.700273.42731 1.326333.967831 1.853202 1.6l.070936.077613.026601.02985 21.93399 22.2c1.681936 1.081212 3.88146.83935 5.293596-.582089z" fill="url(#d)" transform="translate(10 10)"/>
      <path d="M29.482759 8.537313c-1.475404-.965098-3.220589-1.421706-4.974385-1.301492-.85159.086207-1.67449.358144-2.411822.797015-.559239.348536-1.085589.748226-1.572414 1.19403a7.022598 7.022598 0 0 1-.555665.459701l-9.360591 9.38806c-.772133.779815-1.205913 1.837472-1.205913 2.940298 0 1.102826.43378 2.160483 1.205913 2.940299l7.421675 7.513433c-.702396-.933089-1.17729-2.020155-1.386207-3.173135-.032513-.176119-.059114-.355223-.079803-.537313-.35468-3.21194 1.528079-5.513433 2.388177-6.37015.183251-.185074.322168-.298507.378325-.355223l.17734-.152239 11.748769-11.78209c-.516846-.600676-1.113662-1.126077-1.7734-1.561194z" fill="url(#e)" transform="translate(10 10)"/>
      <path d="M18.029557 32.38806c.171404.246561.356943.482786.555665.707462l.27192.274627c.10936.104478.195075.208956.280789.283582l5.940887 6c1.040118 1.050468 2.556123 1.460722 3.97695 1.076224 1.420828-.384497 2.530621-1.505333 2.91133-2.940298.38071-1.434965-.025502-2.966055-1.06562-4.016523L19.26798 22.014925l.15665-.158209c-.683609.628655-1.28012 1.347576-1.773398 2.137314-.899624 1.401875-1.296057 3.072922-1.123153 4.734328.017734.155224.038423.298508.065024.456717.228099 1.185548.734938 2.29838 1.477833 3.244776l.091626.116418-.133005-.15821z" fill="url(#f)" transform="translate(10 10)"/>
    </g>
  </g>
</svg>
