<svg width="80" height="80" viewBox="0 0 80 80" xmlns="http://www.w3.org/2000/svg">
  <title>
    Group 33
  </title>
  <defs>
    <linearGradient x1="50%" y1="0%" x2="50%" y2="100%" id="a">
      <stop stop-color="#FFF" offset="0%"/>
      <stop stop-color="#E3E0E7" offset="100%"/>
    </linearGradient>
  </defs>
  <g fill="none" fill-rule="evenodd">
    <circle fill="url(#a)" cx="40" cy="40" r="40"/>
    <g fill-rule="nonzero">
      <g fill="#5E4778">
        <path d="M39.977 14L17 18.822v31.98c0 4.68 4.777 9.105 9.95 12.547 4.054 2.667 8.296 5.008 12.677 7.045l.373.142.372-.142C41.305 70.045 63 60.775 63 50.8V18.823L39.977 14zm21.16 36.8c0 6.977-14.938 14.35-21.16 16.81l-.303-.118-.117-.047-.21-.093-.116-.047-.21-.094-.07-.022-.255-.117-.07-.023-.28-.117-.046-.023-.304-.117h-.023l-.35-.14H37.6c-3.1-1.383-7.13-3.42-10.673-5.807l-.42-.28-.418-.306-.398-.28-.023-.024-.374-.28-.023-.024-.373-.28-.024-.024-.372-.28-.047-.024-.35-.258-.047-.023-.326-.257-.047-.046-.302-.258-.047-.048-.28-.257-.07-.047-.256-.258-.07-.07-.256-.257-.07-.07-.257-.235-.07-.07-.233-.234-.07-.093-.21-.233-.07-.094-.21-.234-.07-.095-.186-.234-.092-.092-.163-.21-.093-.118-.163-.21-.094-.117-.14-.21-.07-.118-.142-.21-.07-.142c-.046-.07-.07-.14-.116-.187l-.093-.142c-.04-.057-.072-.12-.093-.187l-.07-.142c-.024-.07-.07-.117-.093-.187-.02-.05-.043-.097-.07-.14-.028-.062-.052-.125-.07-.19-.024-.07-.048-.092-.07-.163-.02-.056-.043-.11-.07-.164-.027-.05-.043-.105-.047-.163 0-.047-.047-.117-.047-.164-.005-.057-.02-.112-.047-.163-.024-.047-.024-.094-.048-.164-.023-.07-.023-.117-.046-.188-.018-.045-.026-.093-.024-.14 0-.048-.023-.118-.023-.19 0-.07-.024-.092-.024-.14-.007-.072-.023-.143-.047-.21-.024-.07 0-.07 0-.118V20.532l21.043-3.394h.187l21.044 3.394.023 30.27z"/>
        <path d="M39.977 19.478l-15.94 2.575-3.285.515v27.414c0 6.344 13.585 13.062 19.225 15.287 3.285-1.29 9.25-4.098 13.655-7.47.326-.257.676-.514.98-.772 1.514-1.24 2.772-2.552 3.588-3.886.63-1.03 1.002-2.083 1.002-3.138V22.568l-19.225-3.09zm-9.275 14.538h11.21v2.34H30.7v-2.34zm21.858 1.1c0 5.548-3.845 9.13-9.158 9.13h-7.364v11.706h-2.912v-14.35h9.88c3.962 0 6.55-2.413 6.55-6.486 0-4.026-2.588-6.368-6.503-6.368h-3.076l-7.364.024v-2.67h10.765c5.337 0 9.182 3.466 9.182 9.014z"/>
        <path d="M39.977 14v3.138h.093l21.044 3.394v30.244c0 6.977-14.937 14.35-21.16 16.81v2.925l.373-.14c.933-.35 22.628-9.62 22.628-19.594V18.822L39.977 14z"/>
        <path d="M43.378 44.223h-7.34v1.38c1.248 1 2.573 1.902 3.962 2.693 4.637 2.67 10.603 4.47 18.223 4.822.63-1.03 1.002-2.083 1.002-3.137V22.57L40 19.478l-15.962 2.575c.746 6.017 2.96 14.327 9.088 20.86V41.6h9.88c3.963 0 6.55-2.41 6.55-6.484 0-4.026-2.587-6.368-6.502-6.368h-3.077l-7.364.024v-2.67h10.765c5.313 0 9.158 3.49 9.158 8.99 0 5.548-3.82 9.13-9.158 9.13zm-3.4-10.207h1.908v2.34H30.702v-2.34h9.275z"/>
      </g>
      <g fill="#3D3144">
        <path d="M39.65 67.492l-.115-.047-.21-.07-.116-.047-.21-.093-.07-.024-.256-.116-.07-.023-.278-.116-.047-.024-.303-.14h-.046l-.348-.142h-.024c-3.07-1.38-7.093-3.418-10.628-5.83l-.418-.28-.42-.328-.394-.28-.023-.024-.372-.28-.024-.025-.373-.28-.023-.023-.372-.28-.047-.025-.35-.257-.045-.024-.326-.256-.046-.045-.302-.26-.047-.046-.28-.257L23 57.8l-.256-.258-.07-.07-.255-.257-.07-.07-.257-.234-.07-.07-.232-.234-.07-.093-.208-.234-.07-.095-.21-.234-.07-.092-.208-.188-.093-.093-.162-.21-.093-.118-.163-.212-.093-.117-.14-.21-.07-.116-.14-.21-.07-.118c-.047-.07-.07-.14-.117-.187l-.093-.143-.093-.187-.07-.14c-.023-.07-.07-.118-.093-.19-.018-.048-.042-.096-.07-.14-.027-.06-.05-.124-.07-.188-.022-.07-.046-.093-.07-.164-.018-.056-.04-.11-.07-.163-.028-.05-.044-.107-.045-.164 0-.07-.048-.14-.048-.187-.004-.057-.02-.113-.046-.164-.024-.048-.024-.094-.047-.165-.024-.07-.024-.117-.048-.187-.017-.045-.025-.093-.023-.14 0-.048-.024-.12-.024-.19s-.024-.092-.024-.14c-.006-.072-.022-.143-.046-.21-.024-.07 0-.07 0-.118V20.532l21-3.394h.094V14L17 18.822v31.98c0 4.68 4.767 9.105 9.93 12.547 4.046 2.667 8.28 5.008 12.65 7.045l.373.142V67.61l-.302-.118"/>
        <path d="M39.93 48.296c-1.386-.79-2.708-1.692-3.953-2.693V55.95H33.07V42.91c-6.117-6.555-8.303-14.866-9.046-20.86l-3.28.516v27.414c0 6.344 13.558 13.062 19.186 15.287 3.28-1.29 9.233-4.098 13.628-7.47.326-.257.674-.514.977-.772 1.51-1.24 2.767-2.552 3.582-3.886-7.605-.398-13.535-2.2-18.187-4.846"/>
      </g>
    </g>
  </g>
</svg>
