<svg width="80" height="80" viewBox="0 0 80 80" xmlns="http://www.w3.org/2000/svg">
  <title>
    plr-pillar
  </title>
  <g fill="none" fill-rule="evenodd">
    <circle fill="#000" cx="40" cy="40" r="40"/>
    <path d="M24 17h20.79c3.344 0 6.072.484 8.184 1.452 2.112.968 3.74 2.178 4.884 3.63 1.144 1.452 1.925 3.036 2.343 4.752.42 1.716.628 3.3.628 4.752s-.21 3.025-.627 4.72c-.417 1.693-1.198 3.266-2.342 4.718-1.144 1.452-2.772 2.65-4.884 3.597-2.112.947-4.84 1.42-8.184 1.42H32.25v18.084H24V17zm8.25 22.308h12.078c.924 0 1.87-.132 2.838-.396s1.86-.693 2.673-1.287 1.473-1.386 1.98-2.376c.505-.99.758-2.234.758-3.73 0-1.54-.22-2.816-.66-3.828-.44-1.012-1.034-1.815-1.782-2.41-.748-.593-1.606-1-2.574-1.22-.968-.22-2.002-.33-3.102-.33H32.25v15.576z" fill="#FFF"/>
  </g>
</svg>
