<svg width="80" height="80" viewBox="0 0 80 80" xmlns="http://www.w3.org/2000/svg">
  <title>
    plu-pluton
  </title>
  <g fill="none" fill-rule="evenodd">
    <circle fill="#D1AE52" cx="40" cy="40" r="40"/>
    <g fill="#FFF">
      <path d="M32.674647 20.26762c-1.079954 1.29373-1.14361 2.972965-.162433 4.275407.68046.90387 1.694562 1.409164 2.699886 1.409164.390715 0 .779235-.07623 1.148-.23304 1.55847-.66646 1.962355-1.25235 2.932557-2.66587.709593-1.04262 1.452624-2.06244 2.227954-3.05791.80119-1.02583 1.65945-1.56815 2.55063-1.603 1.47067-.06534 2.6955 1.22621 2.70647 1.23928l1.28409-1.16087c-.07024-.0784-1.76041-1.88614-4.04983-1.8012-1.43116.05663-2.73281.82111-3.86325 2.27383-.7999 1.02053-1.56422 2.06804-2.29161 3.14067-.92191 1.34165-1.08654 1.58558-2.18405 2.05167-.64534.27443-1.37847-.10454-1.76919-.62508-.24145-.31798-.70899-1.16305.10975-2.14315l-1.33896-1.09988zm18.91895 36.006644c-.39201-.46584-.77475-.939283-1.148-1.420054-.38852-.505296-.526807-.98881-.417056-1.481038.25682-1.178297 1.81529-2.23027 2.39259-2.537367l-.81435-1.524597c-.28535.15246-2.79646 1.524597-3.27498 3.689526-.2195.98881.03512 1.992867.73534 2.896736.3995.52272.79899 1.004057 1.18532 1.46797 2.03041 2.454603 2.6494 3.430345 1.60237 4.72843-.49168.614196-1.07117 1.01277-1.68358 1.43748-1.58262 1.099888-3.22011 2.230268-2.66696 6.46865l1.7231-.219978c-.41925-3.201655.51803-3.850698 1.93821-4.835153.65632-.45521 1.39824-.96921 2.04577-1.77507 2.01943-2.5047.16902-4.73715-1.61773-6.89554z"/>
      <path d="M45.39038 51.73706c-.370293-.456013-.76019-.929564-1.13702-1.429424-.38772-.504245-.522768-.995335-.413858-1.49081.174256-.808984.947517-1.55658 1.605333-2.05425 1.023754.377088 2.258793.627018 3.753038.681827v.015347c.10891 0 .209108-.006577.31584-.00877.10891.002193.206928.00877.315838.00877v-.015347c4.19304-.153465 6.36035-1.845973 7.47994-3.54506 1.04772.41655 3.73126 1.78459 3.6071 4.954753-.06099 1.585082-1.52038 3.14824-2.93185 4.658782-2.08671 2.236215-4.45224 4.7684-2.43958 7.839908l1.43761-.95368c-1.20236-1.835012.07406-3.3609 2.25662-5.697965 1.62712-1.74293 3.31087-3.54725 3.39799-5.77908.11109-2.84569-1.46375-4.72236-3.08651-5.80539 1.37445-.19073 2.91879-.66209 3.33701-1.48204.20257-.39901.61643-1.2058-3.84452-8.76508l.55762-.92956c-.01089-.05042-1.10217-4.86267-1.4093-7.04846 2.99721-3.92434 1.5095-7.7259-.73187-9.81961-2.82512-2.6418-7.60627-3.5626-11.25911-.94052-1.06078-2.10467-3.54829-3.59987-6.8243-4.0208-4.32808-.55467-10.00883.93176-12.26326 5.49846-1.91681 3.87611-1.02375 6.66918-.01525 8.27619-3.25641.07454-5.50866.88352-6.85261 2.45107-2.112853 2.466418-1.385334 6.05094-.7994 8.927327.2396 1.16634.59465 2.929004.307128 3.26882-1.176224 1.38777-2.541955.85064-2.931853.651135-.73841-.372702-1.20237-1.050143-1.08039-1.57412l-1.677216-.39024c-.30495 1.32419.5097 2.76896 1.98216 3.514365.53148.26966 1.18712.449434 1.88632.449434 1.04553 0 2.18255-.40559 3.13225-1.52589.83425-.984374.49663-2.641804.0697-4.7399-.5097-2.50807-1.14356-5.62781.41603-7.447474 1.206726-1.4075 3.69205-2.01698 7.390635-1.81528l.56633-1.55658c-.139405-.10962-3.35225-2.661534-.853854-7.717135 1.88197-3.81034 6.76549-5.02929 10.50546-4.549167 2.47226.3157 5.29521 1.51712 5.80273 3.93311l1.43761.44724c3.005916-2.89831 7.386275-2.207716 9.889026.13154 2.727104 2.549725 2.04097 5.56423.453064 7.594364-7.09222-1.069874-12.29594-.14689-15.46086 2.75581-1.36734 1.25417-2.33265 2.889754-2.77285 4.698246-.0873-.05714-.178258-.10841-.27228-.153465-.912663-.427513-1.938595-.29378-2.88611.37928-1.21979.87037-1.7382 2.17044-1.45286 3.654676.320196 1.67278 1.677215 3.43544 3.07344 4.48559-.64257.61825-1.263355 1.43381-1.47682 2.41161-.21564.99533.03485 2.006013.7297 2.91804.39643.52617.79286 1.00849 1.176226 1.477653 2.01701 2.4708 2.629087 3.450785 1.592264 4.75963-.490096.61386-1.06514 1.01726-1.67286 1.44696-1.5683 1.10276-3.19542 2.244986-2.64433 6.511334l1.70771-.225816c-.41386-3.22059.51405-3.87392 1.92335-4.86487.6491-.456016 1.38751-.97341 2.03226-1.78459 2.00394-2.521225.16554-4.77059-1.60969-6.94542-.38707-.46844-.76614-.94352-1.13702-1.42504-.38555-.51082-.52059-.99753-.41386-1.49081.15901-.74102.81682-1.43162 1.431072-1.920517.02832.00877.11545-.087693.11545-.087693.32891-.25431.63386-.44505.82772-.54809l-.405144-.76733-.076236-.14689s-.041385-.13154-.076236-.1425l-.250496-.477937c-.0501.0285-.17208.09427-.3398.19731-1.10435-.67963-2.53978-2.264713-2.814237-3.709484-.15901-.82433.080598-1.429424.75366-1.90736.43564-.30693.827717-.385857 1.165338-.225814.40426.221182.67404.6289.72098 1.089605l.76237-.06358.95841-.061383c-.00871-.13812-.1699-3.37625 2.51364-5.82074 2.77939-2.5278 7.52351-3.29513 14.10385-2.28883.2897 1.78678.873457 4.49436 1.16969 5.84047l-.19604.05481-.52059 1.28692c1.87325 3.11974 3.90769 6.892808 4.22571 8.03722-.55762.31132-2.09107.59194-2.91443.62044.16336-.69498.174254-1.16853.174254-1.183874l-1.72513-.00658c0 .219235-.14812 5.255104-7.266477 5.404185-1.70771-.03508-3.018984-.34859-4.0166-.811177l-.213463-.10962c-2.95364-1.503965-3.034233-4.32335-3.03641-4.48339l-.86257.00438h-.8604c0 .04823.05663 3.51656 3.22809 5.59931-.68613.6314-1.37009 1.486424-1.59662 2.525606-.21782.995332.03485 2.006014.72752 2.91804.39643.521782.79286 1.00849 1.176225 1.475462 2.017016 2.4708 2.63127 3.45298 1.59227 4.75963-.48792.616056-1.06296 1.01945-1.67068 1.446964-1.57266 1.104953-3.1976 2.244984-2.64651 6.511333l1.70771-.22362c-.41386-3.22278.51623-3.87611 1.92335-4.86706.65346-.45601 1.38751-.97341 2.03226-1.78458 2.00394-2.52122.16772-4.77059-1.60751-6.94323"/>
      <path d="M33.83203 30.769785l.066888-1.784825c-7.88829-.297847-9.74331 2.572314-9.91053 5.02955-.073576 1.098875.01115 2.301544.102562 3.578676.193974 2.70093.394637 5.492115-1.012234 6.9114-.86954.880003-2.34107 1.232003-4.494854 1.071798l-.129317 1.780312c.374572.027077.737995.040615 1.08358.040615 2.13372 0 3.70558-.53702 4.786932-1.62913 1.977646-1.99467 1.73908-5.3477 1.52504-8.30361-.086955-1.21169-.16722-2.35569-.100332-3.32595.16276-2.43241 2.88063-3.56513 8.082265-3.36883zm21.455348 3.03488l.70678-.440002.71347-.42872c-.040134-.07446-1.09919-1.829952-3.846045-1.829952-2.572947 0-5.645322 2.52268-5.77464 2.63098l1.052368 1.30196c.75584-.62728 3.07461-2.2519 4.72228-2.2519 1.76138 0 2.39904.97478 2.4258 1.01539v.00226zm-2.907386 1.6359c0 .582155.526183 1.05149 1.174994 1.05149.64658 0 1.174994-.47159 1.174994-1.05149 0-.577642-.526183-1.046977-1.174994-1.046977-.64881 0-1.174994.467078-1.174994 1.046977z"/>
    </g>
  </g>
</svg>
