<svg width="80" height="80" viewBox="0 0 80 80" xmlns="http://www.w3.org/2000/svg">
  <title>
    poa-poa-network
  </title>
  <defs>
    <linearGradient x1="50%" y1="100%" x2="50%" y2="0%" id="a">
      <stop stop-color="#4377C7" offset="0%"/>
      <stop stop-color="#3F378A" offset="100%"/>
    </linearGradient>
  </defs>
  <g fill="none" fill-rule="evenodd">
    <circle fill="url(#a)" cx="40" cy="40" r="40"/>
    <g fill="#FFF">
      <path d="M30.286826 33.084937c6.502056-3.672532 12.902197-3.706899 19.496852.215316a1458421.303387 1458421.303387 0 0 1-9.80138-16.767152c-3.29286 5.621583-6.49426 11.08671-9.695472 16.551836zm23.254035 6.26886c-7.687964-7.945632-18.53474-8.71329-27.159528-.040632 8.065395 8.27886 18.85817 8.411772 27.159528.040633zm7.885711 13.828861c-2.30869-3.92848-4.52231-7.695-6.77757-11.532342-9.850056 9.008165-19.613789 8.98576-29.351662-.023924-2.277887 3.898861-4.480859 7.668988-6.752091 11.556266h42.881324zm5.536712 2.765127H12.99998c9.007352-14.943608 17.932373-29.750507 26.977944-44.757912 9.007922 14.94038 17.934084 29.74557 26.985359 44.757912z"/>
      <path d="M39.96452 36.94776c-1.397345.004746-2.391972.985063-2.40167 2.366772-.009887 1.412468 1.033416 2.47424 2.425628 2.468354 1.328704-.005316 2.395014-1.067658 2.406802-2.397721.01274-1.429368-.997479-2.442342-2.43076-2.437406m.038408-2.755443c2.909535.00171 5.176395 2.260254 5.180578 5.1619.003993 2.837467-2.346909 5.215063-5.172212 5.230822-2.867133.01595-5.243894-2.375316-5.233056-5.265.010648-2.87943 2.303176-5.12943 5.22469-5.127721"/>
    </g>
  </g>
</svg>
