<svg width="80" height="80" viewBox="0 0 80 80" xmlns="http://www.w3.org/2000/svg">
  <title>
    poe-poet
  </title>
  <g fill="none" fill-rule="evenodd">
    <circle fill="#FBFAF9" cx="40" cy="40" r="40"/>
    <path d="M44.826217 23.92335l-5.93686 5.883906v9.353302l5.93686-5.90735m-7.971003-1.429952l-5.534762 5.485395v9.32987l5.534762-5.485396m-7.545252-1.851907l-5.08536 5.04v9.32986l5.08536-5.04M54.831364 25.14233c.023653.02344.023653.046882.047306.070324l4.25751-4.219533c-.023654-.02344-.047307-.07032-.094612-.093762-1.49013-1.476838-3.476966-2.297303-5.60572-2.297303-2.105103 0-4.09194.820465-5.60572 2.2973l-1.017073 1.008v9.32986l6.149736-6.094883c.54402-.49228 1.37187-.49228 1.86858 0z"/>
    <path d="M54.831364 26.97079l-6.10243 6.048h9.295562l1.040725-1.03144c1.49013-1.476838 2.31798-3.445955 2.31798-5.555722 0-2.062884-.80419-3.985116-2.22336-5.461954l-4.25751 4.219535c.42575.51572.42575 1.2893-.07096 1.78158zM31.202188 50.38921l-5.0144 4.993116h9.295562l5.0144-4.993117m-7.285072-1.99256h9.295562l5.534762-5.4854H38.74744m17.266566-7.876467h-9.295562l-5.93686 5.860465h9.29556" fill="#E1DED9" fill-rule="nonzero"/>
    <path d="M60.839183 19.14121c-1.963185-1.945675-4.58865-3.024-7.35603-3.024-2.791034 0-5.392845 1.078325-7.35603 3.024L22.09585 42.95814c-.23653.234418-.378447.586046-.354794.937674v12.260093L15.09461 62.74307h3.66619l4.919788-4.875907h12.29947c.354794 0 .685934-.14065.922462-.398512l23.91301-23.69972.023653-.02344c1.939532-1.94567 3.027562-4.52428 3.027562-7.26697 0-2.789582-1.064378-5.368186-3.027562-7.337303zM46.86036 21.90735l1.017072-1.008c1.49013-1.476838 3.476966-2.297303 5.60572-2.297303 2.105103 0 4.09194.820465 5.60572 2.297302.023654.02344.047307.07032.094613.09376 1.442822 1.476835 2.223365 3.39907 2.223365 5.461952 0 2.086324-.827848 4.05544-2.317977 5.55572L58.04815 33.04223h-9.295564l6.10243-6.048c.49671-.49228.49671-1.24242.047306-1.75814-.023653-.023442-.023653-.046884-.047306-.070326-.49671-.49228-1.324558-.49228-1.821268 0l-6.149736 6.094884v-9.3533h-.023653zM26.18779 55.382325l5.0144-4.969675h9.295562l-5.0144 4.969676H26.18779zm14.593796-14.48707l5.93686-5.883907h9.295562l-5.93686 5.883906h-9.295562zm7.261418 2.016L42.50824 48.39665h-9.295562l5.534762-5.485394h9.295562zm-9.153645-13.104l5.96051-5.90735v9.32986l-5.960518 5.930792v-9.353302zm-7.56891 7.501395l5.53476-5.485394v9.32986l-5.53476 5.485396v-9.32986zm-7.09585 7.03256l5.08536-5.01656v9.329862L24.2246 53.67107v-9.32986z" fill="#393534" fill-rule="nonzero"/>
  </g>
</svg>
