<svg width="80" height="80" viewBox="0 0 80 80" xmlns="http://www.w3.org/2000/svg">
  <title>
    polis-polis
  </title>
  <g fill="none" fill-rule="evenodd">
    <circle fill="#005550" cx="40" cy="40" r="40"/>
    <g fill="#FFF" fill-rule="nonzero">
      <path d="M65.204555 51.065736h-2.530496v-4.629982c-.000473-.419299-.3411-.758957-.761122-.758957h-1.029703l-.729373-14.970987h1.75736c.420356 0 .761122-.34018.761122-.759814v-5.479739a.356624.356624 0 0 0-.006864-.043687.290791.290791 0 0 0-.006007-.029125.196743.196743 0 0 0-.010297-.038547.137729.137729 0 0 0-.00858-.030838.290081.290081 0 0 0-.012872-.035122l-.012872-.034264-.025742-.054823-.015446-.024842c-.006864-.011992-.013729-.023128-.021452-.034264a.235532.235532 0 0 0-.016303-.023985l-.025743-.033408-.016304-.020559c-.009439-.011136-.019736-.021415-.030033-.03255a.191201.191201 0 0 0-.018878-.01799.375578.375578 0 0 0-.032607-.029981l-.018878-.016276c-.011155-.009422-.023168-.017132-.035181-.025698l-.023168-.016276-.033466-.020558-.027459-.016276-.030033-.013706c-.011155-.00514-.023168-.011992-.035181-.016275l-22.226139-9.196574.761122-1.90082c-.013786-.40994-.350673-.735147-.76155-.735147-.410879 0-.747766.325207-.761552.735148l.76198 1.90082-22.224422 9.19743c-.012013 0-.023168.011135-.035182.016275l-.030033.013706-.027458.016275c-.011156.006853-.023169.01285-.033466.020559l-.02231.016276-.03604.025698-.019736.016275-.032607.029982-.01802.017989c-.010297.011136-.020594.021415-.030033.03255l-.017161.02056-.024885.033407a.235533.235533 0 0 0-.016303.023985l-.020595.034265-.015445.024842c-.009439.017988-.01802.035977-.025743.054823-.007722.018845-.009439.022272-.013729.034264-.00429.011993-.009439.023985-.012871.035121-.003433.011136-.006007.020559-.00944.030838-.003432.01028-.006864.024842-.009438.038548a.290808.290808 0 0 0-.006007.029124c0 .013706 0 .028269-.006864.043688v5.479738c-.000228.201437.07977.394701.222372.537218.142602.142518.336108.222597.537892.222597h1.754785l-.73109 14.970987h-1.029702c-.418542.001414-.75722.340276-.75769.7581v4.625698h-2.530495c-.202608-.000003-.396855.080637-.539717.224057s-.222547.337784-.221405.54004v5.388082c0 .419634.340766.759814.761122.759814h9.937492c.420356 0 .761122-.34018.761122-.759814 0-.419633-.340766-.759813-.761122-.759813h-9.17637v-3.868455h3.29076v-5.388938h42.338811v5.388938h3.29076v3.872738H23.438943c-.420462 0 .229109.389758.229109.80864 0 .418883-1.107789.710987-.686469.710987h42.22297c.420357 0 .761123-.34018.761123-.759814v-5.388082c.001142-.202256-.078543-.39662-.221405-.54004s-.33711-.22406-.539718-.224056zM18.813003 25.318585l21.169835-9.064656 21.168977 9.064656v3.868454H18.813003v-3.868454zm36.142575 5.388082l-.730232 14.970987H52.09901l-.729373-14.970987h3.58594zm-8.7868 0l-.729372 14.970987H43.31221l-.729373-14.970987h3.58594zm-8.786798 0l-.728515 14.970987h-2.127194l-.729373-14.970987h3.585082zm-8.78594 0l-.729373 14.970987h-2.127195l-.729373-14.970987h3.58594zm-7.98878 14.970987l.729374-14.970987h2.152079l.729373 14.970987H20.60726zm8.785941 0l.730231-14.970987h2.151222l.73023 14.970987h-3.611683zm8.78594 0l.730232-14.970987h2.151221l.730231 14.970987h-3.611683zm8.7868 0l.73023-14.970987h2.151222l.73023 14.970987h-3.611682zm8.786798 0l.729373-14.970987h2.15208l.729372 14.970987H55.75274z" style="mix-blend-mode:screen"/>
      <path d="M44.65769 21.44242v.085662c0 .782942-.347811 1.463662-1.043433 2.04216-.695621.578498-1.459604.895444-2.291947.950838a.671275.671275 0 0 1-.133003.014563h-.133003a2.883785 2.883785 0 0 1-.356964-.021416 3.265842 3.265842 0 0 1-.357822-.062532l-.504554-.125922v2.937318a3.569418 3.569418 0 0 0 .021452.412887c.018832.127571.074948.246762.16132.342644.077494.088806.180101.152116.294323.181601.139868.047114.289175.093371.447921.140485a.522459.522459 0 0 0 .085809.020558.576584.576584 0 0 1 .085808.021416c.074654.018845.145017.039404.210231.062532l.181915.06339.30462.109645h-4.749505l.321782-.097653a1.83302 1.83302 0 0 0 .257426-.05568c.09868-.028268.199076-.056536.302046-.08566.10297-.029126.186205-.072813.279736-.105364a2.221137 2.221137 0 0 0 .252277-.104507.562324.562324 0 0 0 .126139-.070242.910104.910104 0 0 0 .085809-.070242 3.420948 3.420948 0 0 0 .077227-.132774.457785.457785 0 0 0 .048911-.132775c.00944-.046257.016304-.09337.021452-.139628.005149-.046257.006865-.08566.006865-.125921v-.139628a.247182.247182 0 0 1-.014587-.077095v-7.643538a2.54751 2.54751 0 0 0-.020594-.335792c-.016632-.108224-.06263-.209837-.133004-.293817a1.008306 1.008306 0 0 0-.315775-.216723c-.145017-.069385-.29604-.137057-.454786-.203016-.093531-.036835-.185346-.071956-.27373-.104507l-.245412-.0908-.308052-.125922h2.55023a3.831918 3.831918 0 0 0 .406733.006852c.13043 0 .257426-.006852.378416-.006852h.126139c.102112-.009423.207656-.014563.314917-.014563h.623829c.102112 0 .205082.00514.308052.014563a2.043097 2.043097 0 0 1 .32264.027411c.111552.018846.223961.041974.33637.070242.579494.139913 1.116656.461713 1.611485.9654.49483.503688.75626 1.21239.78429 2.126109v-.013706zm-3.531023-2.406219h-.364687c-.158746.009423-.310627.023129-.454785.041974a.777582.777582 0 0 0-.302047.085661c-.079791.049025-.133572.13097-.146732.223576a2.013917 2.013917 0 0 0-.021452.293817v3.94041l.420462.056536a2.207878 2.207878 0 0 0 .329505.05568c.10726.009422.212805.013705.315775.013705.719076 0 1.330891-.205015 1.835446-.615046.504554-.410031.756831-.983675.756831-1.720931v-.139628c-.028602-.624183-.206226-1.102172-.53287-1.433966-.290236-.30772-.650944-.540527-1.051156-.678436a2.71373 2.71373 0 0 0-.356964-.085661c-.1167-.018845-.231683-.032551-.343234-.041974l-.084092.004283z"/>
    </g>
  </g>
</svg>
