<?xml version="1.0" encoding="UTF-8"?>
<svg width="80px" height="80px" viewBox="0 0 80 80" version="1.1" xmlns="http://www.w3.org/2000/svg" xmlns:xlink="http://www.w3.org/1999/xlink">
    <!-- Generator: Sketch 48.2 (47327) - http://www.bohemiancoding.com/sketch -->
    <title>poly-polymath</title>
    <desc>Created with Sketch.</desc>
    <defs></defs>
    <g id="Coin-Logos" stroke="none" stroke-width="1" fill="none" fill-rule="evenodd" transform="translate(-320.000000, -1616.000000)">
        <g id="poly-polymath" transform="translate(320.000000, 1616.000000)">
            <circle id="1" fill="#FFFFFF" cx="40" cy="40" r="40"></circle>
            <g id="Group-28" transform="translate(8.000000, 23.000000)" fill-rule="nonzero">
                <polygon id="Shape" fill="#313A62" points="60 3.79384058 59.8786517 1.78297101 59.2853933 3.45869565 55.941573 6.36775362 52.1123596 6.9576087 50.9662921 5.85833333 54.3101124 1.24673913 57.7617978 0.227898551 54.0404494 0.308333333 48.6337079 4.20942029 43.5640449 3.84746377 48.647191 7.30615942 51.1550562 9.06231884 43.5235955 3.72681159 36.4314607 0.227898551 36.4314607 0.227898551 32.2247191 1.05905797 19.105618 11.9177536 12.7955056 13.942029 10.1932584 16.582971 5.52808989 16.6365942 3.23595506 20.8996377 0 21.8246377 3.06067416 22.2536232 5.90561798 18.432971 10.2876404 19.3445652 10.2202247 23.4199275 8.02247191 29.3050725 6.76853933 34.7478261 5.42022472 36.9195652 8.84494382 36.1688406 8.45393258 33.9434783 11.352809 27.9644928 16.9752809 25.7257246 19.1460674 22.1463768 22.8134831 19.4786232 30.0808989 20.551087 37.4292135 17.3471014 36.1752809 22.401087 32.9123596 22.6960145 31.9820225 26.8652174 34.7865169 25.0018116 39.3977528 23.0043478 43.0247191 17.373913 43.2404494 14.6927536 45.1955056 16.7036232 50.8449438 20.215942 54.0404494 18.7144928 53.8516854 11.2474638 52.9348315 8.36521739 57.1280899 7.31956522"></polygon>
                <g id="Group">
                    <g id="Shape">
                        <polygon fill="#3F4B80" points="51.0067416 5.92536232 48.5393258 4.1423913 54.3101124 1.24673913"></polygon>
                        <polygon fill="#313A62" points="36.3370787 0.0536231884 43.5235955 3.72681159 44.3865169 9.65217391"></polygon>
                        <polygon fill="#3F4B80" points="44.3865169 9.65217391 43.2404494 14.6927536 36.3370787 0.0536231884"></polygon>
                        <polygon fill="#4B5897" points="43.2404494 14.6927536 32.2382022 0.884782609 36.3505618 0.0804347826"></polygon>
                        <polygon fill="#5161A4" points="43.2404494 14.6927536 31.3078652 10.0543478 32.2382022 0.884782609"></polygon>
                        <polygon fill="#4B5897" points="32.2382022 0.884782609 31.3078652 10.0543478 19.011236 11.7702899"></polygon>
                        <polygon fill="#4B5897" points="43.2404494 14.6927536 30.0808989 18.2452899 31.3078652 10.0543478"></polygon>
                        <polygon fill="#3F4B80" points="30.0808989 18.2452899 43.2404494 14.6927536 37.3078652 17.440942"></polygon>
                        <polygon fill="#3F4B80" points="22.8134831 19.4786232 30.0808989 18.2452899 30.2022472 20.7119565"></polygon>
                        <polygon fill="#313A62" points="30.2022472 20.7119565 30.0808989 18.2452899 37.3078652 17.440942"></polygon>
                        <polygon fill="#3F4B80" points="19.011236 11.7702899 31.3078652 10.0543478 30.0808989 18.2452899"></polygon>
                        <polygon fill="#4B5897" points="19.011236 11.7702899 30.0808989 18.2452899 22.8134831 19.4786232"></polygon>
                        <polygon fill="#313A62" points="19.011236 11.7702899 22.8134831 19.4786232 19.1460674 22.1463768"></polygon>
                        <polygon fill="#5161A4" points="12.7685393 13.8481884 14.2382022 22.6289855 10.1932584 16.582971"></polygon>
                        <polygon fill="#313A62" points="5.52808989 16.6365942 10.1932584 16.582971 10.2202247 19.4115942"></polygon>
                        <polygon fill="#3F4B80" points="5.90561798 18.5536232 5.52808989 16.6365942 10.2202247 19.4115942"></polygon>
                        <polygon fill="#4B5897" points="5.90561798 18.5536232 3.23595506 20.8996377 5.52808989 16.6365942"></polygon>
                        <polygon fill="#313A62" points="3.23595506 20.8996377 3.04719101 22.3206522 0 21.8246377"></polygon>
                        <polygon fill="#5161A4" points="3.23595506 20.8996377 5.90561798 18.5536232 3.04719101 22.3206522"></polygon>
                        <polygon fill="#3F4B80" points="10.1932584 16.582971 14.2382022 22.6289855 10.2202247 23.4199275"></polygon>
                        <polygon fill="#3F4B80" points="11.3797753 27.9242754 8.45393258 33.9434783 8.02247191 29.3050725"></polygon>
                        <polygon fill="#1F243E" points="8.02247191 29.3050725 8.45393258 33.9434783 6.76853933 34.7478261"></polygon>
                        <polygon fill="#3F4B80" points="8.45393258 33.9434783 8.8988764 36.209058 5.42022472 36.9195652"></polygon>
                        <polygon fill="#313A62" points="6.76853933 34.7478261 8.45393258 33.9434783 5.42022472 36.9195652"></polygon>
                        <polygon fill="#313A62" points="10.2202247 23.4199275 14.2382022 22.6289855 8.02247191 29.3050725"></polygon>
                        <polygon fill="#4B5897" points="14.2382022 22.6289855 16.9752809 25.7257246 8.02247191 29.3050725"></polygon>
                        <polygon fill="#4B5897" points="12.7685393 13.8481884 19.011236 11.7702899 14.2382022 22.6289855"></polygon>
                        <polygon fill="#3F4B80" points="14.2382022 22.6289855 19.011236 11.7702899 19.1460674 22.1463768"></polygon>
                        <polygon fill="#313A62" points="16.9752809 25.7257246 14.2382022 22.6289855 19.1460674 22.1463768"></polygon>
                        <polygon fill="#4B5897" points="37.3078652 17.440942 43.0921348 17.4007246 39.3977528 23.0043478"></polygon>
                        <polygon fill="#5161A4" points="37.3078652 17.440942 43.2404494 14.6927536 43.0921348 17.4007246"></polygon>
                        <polygon fill="#3F4B80" points="36.1752809 22.401087 37.3078652 17.440942 39.3977528 23.0043478"></polygon>
                        <polygon fill="#4B5897" points="34.7865169 25.0018116 36.1752809 22.401087 39.3977528 23.0043478"></polygon>
                        <polygon fill="#3F4B80" points="31.9820225 26.8652174 32.858427 22.6021739 36.1752809 22.401087"></polygon>
                        <polygon fill="#313A62" points="31.9820225 26.8652174 36.1752809 22.401087 34.7865169 25.0018116"></polygon>
                        <polygon fill="#495692" points="48.5393258 4.1423913 54.0404494 0.308333333 54.3101124 1.24673913"></polygon>
                        <polygon fill="#5D6CAC" points="54.0404494 0.308333333 58.5438202 0.0804347826 54.3101124 1.24673913"></polygon>
                        <polygon fill="#4F60A3" points="51.1550562 9.06231884 48.647191 7.30615942 57.1280899 7.31956522"></polygon>
                        <polygon fill="#495692" points="48.647191 7.30615942 55.941573 6.36775362 57.1280899 7.31956522"></polygon>
                        <polygon fill="#3F4B80" points="55.941573 6.36775362 59.2853933 3.45869565 57.1280899 7.31956522"></polygon>
                        <polygon fill="#4F60A3" points="57.1280899 7.31956522 59.2853933 3.45869565 60 3.79384058"></polygon>
                        <polygon fill="#313A62" points="59.2853933 3.45869565 59.8786517 1.78297101 60 3.79384058"></polygon>
                    </g>
                    <polygon id="Shape" fill="#313A62" points="44.3865169 9.65217391 45.1955056 16.7036232 43.2404494 14.6927536"></polygon>
                    <polygon id="Shape" fill="#3F4B80" points="45.1955056 16.7036232 44.3865169 9.65217391 51.1550562 9.06231884"></polygon>
                    <polygon id="Shape" fill="#4B5897" points="51.1550562 9.06231884 44.3865169 9.65217391 43.5235955 3.72681159"></polygon>
                    <polygon id="Shape" fill="#313A62" points="51.0067416 5.92536232 52.0988764 6.90398551 48.647191 7.30615942"></polygon>
                    <polygon id="Shape" fill="#3F4B80" points="43.5235955 3.72681159 51.0067416 5.92536232 48.647191 7.30615942"></polygon>
                    <polygon id="Shape" fill="#313A62" points="43.5235955 3.72681159 48.5393258 4.1423913 51.0067416 5.92536232"></polygon>
                    <polygon id="Shape" fill="#3F4B80" points="50.8449438 20.215942 51.1550562 9.06231884 53.8516854 11.2474638"></polygon>
                    <polygon id="Shape" fill="#495692" points="50.8449438 20.215942 51.1550562 9.06231884 45.1955056 16.7036232"></polygon>
                    <polygon id="Shape" fill="#313A62" points="53.8516854 11.2474638 52.988764 8.45905797 51.1550562 9.06231884"></polygon>
                    <polygon id="Shape" fill="#313A62" points="54.2157303 18.6742754 50.8449438 20.215942 53.8516854 11.2474638"></polygon>
                </g>
            </g>
        </g>
    </g>
</svg>