<svg width="80" height="80" viewBox="0 0 80 80" xmlns="http://www.w3.org/2000/svg">
  <title>
    posw-poswcoin
  </title>
  <g fill="none" fill-rule="evenodd">
    <circle fill="#FFF" cx="40" cy="40" r="40"/>
    <path d="M21.398256 37.25038c-1.266977 1.297756-2.48372 2.544287-3.649884 3.738893-.461163-.461743-1.237326-1.238864-1.572907-1.574803 3.451744-3.44094 6.930698-6.90941 10.285465-10.25347 5.110465 5.093803 10.701628 10.667818 16.055582 16.004515-2.023256 2.061288-4.33779 4.612894-6.415465 6.72994-.872093-.69697-10.000466-9.954122-14.70279-14.645076" fill="#303986"/>
    <path d="M54.32165 51.82872c-4.875-4.861364-9.69523-9.442197-14.557673-14.291016-.583954.665955-1.126396 1.005728-1.57221 1.514516-.673255-.60741-1.12186-1.01235-1.532093-1.382788 2.818954-2.76697 5.620814-5.517212 8.52035-8.363288.12837.115348.42907.361727.703255.635288C50.527 34.57872 60.868625 45.099826 60.868625 45.099826s-5.755814 5.931212-6.546977 6.728894m3.254477-14.732476c-.62093.59138-1.118372 1.065318-1.661163 1.58247-.086512-.021258-1.14593-1.175788-1.14593-1.175788s5.208488-5.274667 7.471046-7.524485c.394188-.391694 1.070235-.978542 1.070235-.978542l6.506512 6.99618-6.808256 6.889895s-3.862324-4.22015-5.43244-5.789726M10.00007 51.89406c3.955116-3.93718 7.67651-7.641924 11.326046-11.274878.74372.757257 1.62593 1.655303 2.551396 2.597606-2.615582 2.607363-5.40349 5.393848-8.206745 8.165-.228488.225818-.559883.48056-.850465.48962-1.549535.04844-3.100814.022653-4.820232.022653m15.287023-7.800727c.661395.70394 1.846046 1.9665 1.846046 1.9665l.630695.782697s-3.524302 3.6455-4.93465 5.054074c-1.707908-.008364-3.643606.01115-5.39093-.012197 7.743836-7.655516 0 .01115 7.848836-7.791076m6.067676 6.50022c-1.358372 1.30194-1.358372 1.321804-1.358372 1.321804s-3.948837-.020212-5.232558-.020212c3.83721-4.18147 3.317442-3.514816 3.888837-4.09853.91221.944047 1.78186 1.844183 2.702093 2.79694" fill="#343434"/>
  </g>
</svg>
