<svg width="80" height="80" viewBox="0 0 80 80" xmlns="http://www.w3.org/2000/svg">
  <title>
    pot-potcoin
  </title>
  <g fill="none" fill-rule="evenodd">
    <circle fill="#FFF" cx="40.5" cy="40.5" r="37.5"/>
    <g fill-rule="nonzero">
      <circle fill="#105B2F" cx="40" cy="40" r="40"/>
      <path d="M24.61 27.194c.807-4.313 1.68-8.613 2.52-12.92 4.313-.025 8.627-.036 12.94-.033 3.97-.008 7.942-.024 11.9.286 2.336.185 4.674.45 6.953 1.008 2.36.563 4.597 1.818 6.157 3.693 1.415 1.72 2.084 3.933 2.273 6.124.165 1.182.206 2.39.025 3.57-.27 3.546-1.44 7.053-3.566 9.92-1.748 2.395-4.19 4.22-6.857 5.478-2.94 1.38-6.156 2.09-9.38 2.38-2.444.228-4.902.17-7.353.176-3.45-.006-6.9.01-10.35-.022-1.252 6.227-2.396 12.477-3.594 18.716-3.013-.016-6.027-.03-9.042-.043 2.034-10.716 4.16-21.415 6.282-32.115-1.79-.008-3.582.008-5.373.004.413-2.06.785-4.132 1.17-6.197 1.766-.017 3.53 0 5.295-.024m9.882-4.073c-.248 1.36-.527 2.714-.786 4.072 4.29.008 8.583 0 12.876.01-.397 2.065-.796 4.13-1.163 6.2-4.31.016-8.618.004-12.927.005-.287 1.585-.648 3.155-.89 4.746 5 0 10.003.007 15.005 0 2.728-.04 5.608-.584 7.766-2.36 1.848-1.528 3.38-3.67 3.545-6.128.05-1.06-.04-2.154-.44-3.145-.588-1.436-1.96-2.444-3.44-2.8-2.34-.546-4.753-.55-7.138-.624-4.138.018-8.275-.026-12.41.024" fill="#FEFEFE"/>
    </g>
  </g>
</svg>
