<svg width="80" height="80" xmlns="http://www.w3.org/2000/svg">
  <g fill="none" fill-rule="evenodd">
    <circle fill="#FFF" cx="40" cy="40" r="40"/>
    <g stroke="#06BBA9" stroke-linecap="round" stroke-linejoin="round">
      <path d="M14.546 55.5254l10.981-40.981 40.98 10.981-10.98 40.981z"/>
      <path d="M35.834 32.3511l14.967-.21-25.248-17.597zm9.4756 16.312l-14.967.21 25.247 17.597z"/>
      <path d="M14.5347 25.482l40.98-10.981 10.981 40.981-40.981 10.981z"/>
      <path d="M45.2154 32.3076l7.666 12.857 2.615-30.664zm-9.3565 16.3555l-7.665-12.857-2.615 30.664zm4.6802-38.104v7.637m-25.6011 7.51l6.481 3.781m44.6724-3.76l-6.625 3.76m6.6015 25.6663l-6.601-3.568M40.5001 70.5l-.057-7.962M14.546 55.5254l6.873-4.132"/>
      <path d="M40.5001 70.5l-30-30 30-30 30 30z"/>
      <path d="M31.0709 40.5166l7.302-13.067-27.863 13.067zm18.8408-.0527l-7.302 13.067 27.863-13.067z"/>
    </g>
  </g>
</svg>
