<svg width="80" height="80" viewBox="0 0 80 80" xmlns="http://www.w3.org/2000/svg">
  <title>
    ppp-paypie
  </title>
  <g fill="none" fill-rule="evenodd">
    <circle fill="#FFF" cx="40" cy="40" r="40"/>
    <path d="M14.00022 36.510904c-.013414-1.249933.552225-2.33063 1.53248-3.223716 2.047362-1.865227 4.09085-3.735047 6.134617-5.60431 1.983606-1.814288 3.965553-3.630247 5.948053-5.44537 1.59098-1.45661 3.179745-2.915583 4.773213-4.36927 1.363755-1.244225 2.731936-2.48358 4.09984-3.723354 1.614213-1.46301 4.35735-1.303933 5.81335.30855 1.77948 1.970862 3.587033 3.915975 5.369693 5.884053.67033.740134 1.44715 1.104773 2.42934.778407.308405-.102572.617224-.278072.859937-.494768 1.935893-1.729253 3.883404-3.446954 5.77117-5.228536 1.242744-1.17283 2.80551-.881675 3.58869.122057.318778.408618.67932.787314 1.045533 1.155015.647926.650784.965734 1.42098.92701 2.34371-.029872.711465-.246723 1.359048-.758563 1.849084-1.007915.96532-2.04902 1.895428-3.076298 2.84029-.71334.65621-1.423915 1.315483-2.14002 1.968633-1.679214 1.53134-3.343352 3.08008-5.047874 4.58234-1.19489 1.053-3.03328.8569-4.10108-.34056-.96822-1.08571-1.97378-2.13746-2.951-3.21523-1.17857-1.30004-2.35756-2.60007-3.51207-3.92154-.99948-1.14402-2.71036-1.30463-3.83638-.29686-1.289764 1.15418-2.55796 2.33258-3.83749 3.49845-1.75638 1.60065-3.516912 3.19643-5.270944 4.79959-1.422256 1.300033-2.84797 2.59673-4.252383 3.91611-1.0837 1.018206-1.16184 2.64475-.189606 3.755923.950107 1.086123 1.921373 2.153737 2.892224 3.22135.88469.972835.84085 2.285397-.123775 3.18266-.574763.53471-1.153263 1.065387-1.73273 1.59481-.915255.836025-2.2537.773396-3.090127-.149336-2.0623-2.275377-4.12695-4.548805-6.179014-6.833367-.72136-.80304-1.093244-1.757783-1.085776-2.95483" fill="#438988"/>
    <path d="M40.619657 66.94142c-1.441893.014197-2.523106-.67333-3.433936-1.725494-.61141-.706592-1.2444-1.394397-1.86868-2.089577-1.0559-1.17534-2.10793-2.35415-3.1702-3.5235-.88828-.97785-2.22231-1.12037-3.25567-.1762-2.02537 1.85033-4.04563 3.70637-6.07722 5.54975-.8237.74737-2.17224.71188-2.95252-.08059-.57435-.58342-1.13266-1.18591-1.6604-1.81192-.91-1.078888-.83615-2.89888.184215-3.873945 1.291564-1.234067 2.626553-2.422345 3.93969-3.633727 1.526118-1.40776 3.046565-2.82178 4.57379-4.228146.593435-.546403 1.199318-1.079027 1.7987-1.618887.775575-.698242 2.241533-.82058 3.17947-.300896.560935.31078.958956.78328 1.3762 1.244783.71984.796083 1.448533 1.583815 2.163533 2.38421 1.107213 1.23922 2.19935 2.491934 3.311404 3.72642.45334.50312.884413 1.041865 1.5517 1.2928 1.078585.405556 2.04017.18246 2.883096-.568114 1.48919-1.32606 2.968562-2.663255 4.44365-4.00532 1.67133-1.52063 3.32869-3.057126 5.000986-4.57692 1.18563-1.077636 2.378448-2.147337 3.582054-3.204234.87847-.771448 1.32199-1.71088 1.02534-2.86868-.12101-.472918-.39581-.94305-.71099-1.32133-.900736-1.08153-1.83909-2.133-2.799565-3.161644-.653873-.70033-.81734-2.02041-.01798-2.842378.721224-.741526 1.498735-1.440465 2.321607-2.064805.781248-.59302 1.936727-.432414 2.613.29394.99851 1.072625 1.965216 2.17517 2.94395 3.266445.724265.807494 1.45904 1.605942 2.16519 2.429164.599245.69852 1.255745 1.371153 1.724713 2.153597.902947 1.506155.620266 3.596428-.612106 4.850815-.871138.887104-1.829957 1.68736-2.75033 2.525614-.793276.72218-1.584893 1.44617-2.381766 2.164314-1.42986 1.288628-2.86553 2.57071-4.29415 3.861-1.206645 1.08988-2.40555 2.18867-3.610123 3.28134-1.383394 1.254803-2.771075 2.5046-4.153224 3.760793-1.280084 1.1635-2.558924 2.32826-3.83099 3.50067-.680147.626846-1.414785 1.14903-2.34553 1.31117-.281713.04899-.57103.05414-.856894.07947" fill="#7CBDBB"/>
  </g>
</svg>
