<svg width="80" height="80" viewBox="0 0 80 80" xmlns="http://www.w3.org/2000/svg">
  <title>
    ppy-peerplays
  </title>
  <g fill="none" fill-rule="evenodd">
    <circle fill="#000" cx="40" cy="40" r="40"/>
    <g fill-rule="nonzero">
      <path d="M41.4733 62.880303s-.032967.355552-.136467.53721c-.1035.180882-.420133.411448-.420133.411448l-8.8619 5.06624s-.3841.23367-.778167.00311c-.391766-.22901-.392533-.66142-.392533-.66685l-.010733-10.37468s-.009967-.17467.045233-.36254c.058267.04813.109633.08617.145667.11335l.037566.02717.039867.022515 8.858067 5.063133c.1035.06055.410933.217368.8211.217368.229233 0 .447733-.04813.6532-.14284l-.000767.085396zm-11.2378-33.78604c-.207 0-.561967-.16225-.561967-.16225l-8.763766-5.239355s-.391767-.220474-.391767-.681605c0-.460356.373367-.677724.373367-.677724l8.868033-5.19666s.249167-.16536.5175-.16536c.268333 0 .477633.1638.477633.1638l8.6227 5.00335s.679267.30742.679267.84152-.6348.86947-.6348.86947l-8.658733 5.09496c-.000767.000775-.321234.14983-.527467.14983zm11.908633-6.972093c-.207 0-.561966-.16225-.561966-.16225L32.8184 16.721343s-.391767-.220474-.391767-.681605c0-.460355.373367-.677724.373367-.677724l8.868033-5.196658S41.916433 10 42.185533 10c.268334 0 .476867.163803.476867.163803l8.6227 5.003355s.679267.30742.679267.841526c0 .534105-.6348.869474-.6348.869474l-8.658734 5.09496c.000767 0-.3197.149053-.5267.149053zM53.7438 29.031382c-.207 0-.561967-.16225-.561967-.16225l-8.763766-5.23858s-.391767-.220473-.391767-.681605c0-.460355.373367-.677723.373367-.677723l8.868033-5.196658s.2484-.165355.5175-.165355c.2691 0 .477633.16381.477633.16381l8.6227 5.00336s.679267.30742.679267.84153-.6348.86948-.6348.86948l-8.658733 5.09496s-.320467.14905-.527467.14905zM41.8965 49.004434c-.207 0-.561967-.16225-.561967-.16225l-8.763766-5.23858S32.179 43.383134 32.179 42.922s.373367-.677724.373367-.677724l8.868033-5.196658s.2484-.165355.5175-.165355c.2691 0 .477633.163803.477633.163803l8.6227 5.003355s.679267.30743.679267.84153c0 .53411-.6348.86948-.6348.86948l-8.658733 5.09496s-.321234.14905-.527467.14905z" fill="#00B9F7"/>
      <path d="M64.474067 36.032974c-.1035.18088-.420134.411447-.420134.411447l-8.862666 5.06624s-.3841.23367-.778167.00311c-.394067-.23056-.392533-.66685-.392533-.66685l-.010734-10.37468s-.017633-.30121.1173-.53721c.134934-.236.378734-.33692.378734-.33692l8.591266-5.05925s.603367-.4425 1.059534-.17544c.456166.26705.426266.991355.426266.991355l.029134 10.141015c-.0023 0-.0345.35555-.138.53721zm.1242 13.629c-.1035.18088-.420134.411447-.420134.411447l-8.862666 5.06624s-.3841.23367-.778167.00311c-.394067-.23056-.392533-.66685-.392533-.66685l-.010734-10.37468s-.017633-.30121.1173-.53721c.134934-.23522.378734-.33692.378734-.33692l8.591266-5.05925s.603367-.4425 1.059534-.17544c.456166.26705.426266.991355.426266.991355l.029134 10.141015c-.001534.00077-.035267.35555-.138.53721zm-11.7231 6.84633c-.1035.18088-.420134.411446-.420134.411446l-8.862666 5.066237s-.3841.23367-.778167.003105c-.394067-.230566-.392533-.666855-.392533-.666855l-.010734-10.374684s-.017633-.30121.1173-.53721c.134934-.235225.378734-.336922.378734-.336922l8.5905-5.06002s.603366-.4425 1.059533-.17545c.456167.26706.426267.99136.426267.99136l.029133 10.14101c-.001533.00078-.0345.35711-.137233.53799z" fill="#00526D"/>
      <path d="M31.1325 56.508303c.1035.18088.420133.411447.420133.411447l8.862667 5.066237s.3841.23367.778167.003105c.394066-.230566.392533-.666855.392533-.666855l.010733-10.374684s.017634-.30121-.1173-.53721c-.134933-.235225-.378733-.336922-.378733-.336922l-8.591267-5.06002s-.603366-.4425-1.059533-.17544c-.456167.26705-.426267.99136-.426267.99136l-.029133 10.141c.001533.00078.0345.35711.138.53799zm11.537567-20.476106c.1035.180882.420133.411448.420133.411448l8.862667 5.066237s.3841.23367.778166.003105c.394067-.230566.392534-.666855.392534-.666855l.010733-10.374685s.017633-.30121-.1173-.53721c-.134933-.235224-.378733-.33692-.378733-.33692L44.047 24.537287s-.603367-.4425-1.059533-.175447c-.456167.267053-.426267.991355-.426267.991355l-.029133 10.141013c.001533.000777.0345.357106.138.537987zm-23.198567-.06288c.1035.18088.420133.411446.420133.411446L28.7543 41.447s.3841.23367.778167.003105c.394066-.230565.392533-.666855.392533-.666855l.010733-10.374684s.017634-.30121-.1173-.53721c-.134933-.235224-.378733-.336922-.378733-.336922l-8.5905-5.058473s-.603367-.4425-1.059533-.17544c-.456167.26706-.426267.99136-.426267.99136l-.028367 10.14102s.032967.35555.136467.53644zm.123433 13.629775c.1035.180882.420134.411448.420134.411448l8.862666 5.066236s.3841.23367.778167.003106c.394067-.230566.392533-.666856.392533-.666856l.010734-10.374684s.017633-.30121-.1173-.53721c-.134934-.235224-.378734-.33692-.378734-.33692L20.9734 38.10496s-.603367-.4425-1.059533-.17545c-.456167.267054-.426267.991356-.426267.991356l-.028367 10.141014s.032967.35633.1357.53721zm0 13.75554c.1035.18088.420134.411447.420134.411447l8.862666 5.06623s.3841.23367.778167.0031c.394067-.23057.392533-.66686.392533-.66686l.010734-10.37469s.017633-.30121-.1173-.53721c-.134934-.235227-.378734-.33692-.378734-.33692L20.9734 51.8605s-.603367-.4425-1.059533-.175447c-.456167.267052-.426267.991355-.426267.991355l-.028367 10.141013s.032967.35633.1357.53722z" fill="#0097CA"/>
      <path d="M41.2134 35.90721c-.1035.180882-.420133.411448-.420133.411448L31.9306 41.384895s-.3841.23367-.778167.003105c-.394066-.230566-.392533-.666855-.392533-.666855l-.010733-10.374684s-.017634-.30121.1173-.53721c.134933-.23522.378733-.33692.378733-.33692l8.591267-5.06002s.603366-.4425 1.059533-.17545c.456167.26706.426267.99136.426267.99136l.029133 10.14101c-.001533.00078-.0345.35633-.138.53799z" fill="#00526D"/>
    </g>
  </g>
</svg>
