<svg width="80" height="80" viewBox="0 0 80 80" xmlns="http://www.w3.org/2000/svg">
  <title>
    pra-prochain
  </title>
  <g fill="none" fill-rule="evenodd">
    <circle fill="#5A61C3" cx="40" cy="40" r="40"/>
    <g fill="#FFF" fill-rule="nonzero">
      <path d="M53.184247 21.733303c-2.731643-2.801003-6.256342-4.201505-10.397864-4.201505-3.436583 0-6.785047 1.137908-9.86916 3.326191-.176234-2.275815-1.321762-3.32619-3.348464-3.32619-.793057 0-1.674232.175062-2.731642.437656 1.05741 2.275815 1.586115 6.739913 1.586115 13.567358 0 3.763848-.088118 8.49054-.35247 14.267609-.264353 5.777068-.35247 9.540916-.35247 11.379074 0 1.31297.088117 2.188284.176235 2.53841.088117.350125.35247.70025.70494.962844s.881175.437657 1.586115.437657c1.233644 0 2.731642-.437657 4.317757-1.31297-1.05741-2.100753-1.586115-5.777069-1.586115-11.02895 0-1.137907 0-2.275814.088117-3.588785 2.11482 1.663096 4.93458 2.53841 8.371162 2.53841 4.405874 0 8.106809-1.575565 11.279039-4.639162 3.084112-3.063597 4.670227-6.739913 4.670227-11.204012 0-4.026441-1.40988-7.440164-4.141523-10.153635zM49.042724 40.46501c-2.026702 2.100752-4.670227 3.063597-7.842456 3.063597-2.81976 0-5.463285-.875314-8.10681-2.62594l.176236-16.193299c2.995994-2.01322 5.815754-3.063597 8.547396-3.063597 3.084112 0 5.551402.962845 7.40187 2.976066 1.938584 1.92569 2.907877 4.639161 2.907877 7.965352 0 3.23866-1.05741 5.777069-3.084113 7.87782z"/>
      <path d="M41.200267 22.958742c-.176235-2.275815-1.321762-3.326191-3.348464-3.326191-.793058 0-1.674233.175062-2.731642.437656 1.05741 2.275815 1.586114 6.739914 1.586114 13.567358 0 3.763848-.088117 8.49054-.35247 14.26761-.264352 5.777068-.35247 9.540916-.35247 11.379074 0 1.31297.088118 2.188283.176235 2.538409.088118.350125.35247.70025.70494.962845.35247.262593.881175.437656 1.586115.437656 1.233645 0 2.731642-.437657 4.317757-1.31297-1.05741-2.100752-1.586115-5.777069-1.586115-11.02895 0-1.137907 0-2.275814.088118-3.588784-.088118.087531.176235-21.970367-.088118-24.333713z"/>
    </g>
  </g>
</svg>
