<svg width="80" height="80" xmlns="http://www.w3.org/2000/svg">
  <defs>
    <linearGradient x1="50.013141%" y1="100%" x2="50.013141%" y2=".001032%" id="a">
      <stop stop-color="#26445F" offset="0%"/>
      <stop stop-color="#1090C1" offset="100%"/>
    </linearGradient>
    <linearGradient x1="23321%" y1="26442%" x2="23321%" y2="34758%" id="b">
      <stop stop-color="#26445F" offset="0%"/>
      <stop stop-color="#1090C1" offset="100%"/>
    </linearGradient>
  </defs>
  <g fill="none" fill-rule="evenodd">
    <circle fill="#FFF" cx="40" cy="40" r="40"/>
    <g fill-rule="nonzero">
      <path d="M26.899048 11.740952a9.599761 9.599761 0 0 0-2.885953-2.234285 7.967857 7.967857 0 0 0-3.669047-.859762H8.635952v28.31738h7.44762v-8.718094h4.435714a8.175953 8.175953 0 0 0 3.652619-.815953 8.690714 8.690714 0 0 0 2.83119-2.190476 10.289762 10.289762 0 0 0 1.818096-3.14881 10.547142 10.547142 0 0 0 .651666-3.647143 9.802379 9.802379 0 0 0-.69-3.570476 10.514283 10.514283 0 0 0-1.88381-3.13238zm-5.585715 9.090477c-.310426.395978-.778713.636125-1.281428.657142H16.08357V15.42643h3.75119c.52328.029826 1.015211.259133 1.374525.640714.46.427143.69 1.224841.69 2.393095 0 1.168254-.195318 1.95865-.585953 2.37119z" fill="url(#a)" transform="translate(17 17)"/>
      <path d="M0 45.54h45.54V0H0v45.54zM5.322857 5.322857h34.894286v34.894286H5.322857V5.322857z" fill="url(#b)" transform="translate(17 17)"/>
      <path fill="#F37021" d="M36.418571 48.581191h17.485476v5.383095H36.418571z"/>
    </g>
  </g>
</svg>
