<svg width="80" height="80" xmlns="http://www.w3.org/2000/svg">
  <g fill="none" fill-rule="evenodd">
    <circle fill="#133F4E" cx="40" cy="40" r="40"/>
    <path d="M31.43622 29.089183c-.299098.205755-.356277.39291-.205254.727218.674594 1.493154 1.318653 2.999876 1.983579 4.497475 1.88384 4.24306 3.771452 8.484598 5.66048 12.725435.245575.551292.508362 1.095214.763015 1.642645.025819-.012165.051638-.024213.077456-.036262V23.351332c-.412042.28705-.697819.48684-.98442.685693-2.430283 1.685924-4.85809 3.375591-7.294855 5.052158zm9.084026-5.854238c2.506442 1.780788 5.04059 3.523444 7.56896 5.273938.082644.057082.187924.08188.282594.121768.03808-.029126.076042-.058252.114122-.087378-2.748598-6.181177-5.497078-12.362237-8.245676-18.543296-.056472.010644-.112943.021289-.169415.03205-.020867.162358-.05989.324833-.060008.487424-.003066 3.93741-.013322 7.874821.01957 11.811998.002594.307989.23355.72137.489853.903496zm19.178762 22.049194c-.096202-1.629426-.168-3.260256-.267385-4.889566-.062367-1.022106-.157743-2.04234-.251823-3.23464-5.535276 4.376876-10.94134 8.651518-16.474847 13.02699.257836 0 .317255.011932.369718-.001637 5.351478-1.391387 10.701541-2.788039 16.054905-4.171355.413575-.106913.59478-.30179.569432-.729792zM39.713374 10.07098l-.138762-.00889c-2.751191 6.188429-5.5025 12.376858-8.25381 18.565287.032303.031348.064606.062814.09691.094162.08335-.044098.17248-.080126.249346-.133582 2.553129-1.776461 5.101424-3.559823 7.661626-5.326342.33152-.228798.446703-.495378.445996-.879399-.007664-3.95285-.00389-7.905585-.006838-11.858436-.000118-.150894-.035487-.301789-.054468-.4528zm8.50304 18.891172c-2.069524-1.415952-4.114526-2.866995-6.172968-4.298622-.61718-.429172-1.249802-.83647-1.964362-1.313367v25.253422c.047983.013218.096084.02632.144185.039537.125794-.249736.262787-.494677.37573-.750144 2.635302-5.958695 5.261879-11.921367 7.911916-17.873629.219756-.493624.149137-.753654-.2945-1.057197zm7.599495 21.25659c-3.541676.693061-7.082998 1.387644-10.624084 2.083162-.568607.111709-1.135562.231489-1.703225.347525.005894.047842.011907.09545.017802.143058 5.15648 1.138376 10.312842 2.276518 15.620816 3.448348-.131924-.395834-.194054-.632002-.287545-.855068-.632033-1.509413-1.282694-3.011223-1.902231-4.525665-.298038-.72874-.358164-.790734-1.121533-.64136zm1.38432.420983c.039023.127851.067082.26003.118838.3825.651486 1.544154 1.32608 3.079067 1.948564 4.634333.189575.473972.46816.713181.958366.817404 1.745786.371036 3.485794.769444 5.228278 1.155688.652548.144578 1.306156.284126 1.959293.425896.017684-.045736.035486-.091589.053288-.137442-3.382871-2.46847-6.765743-4.93694-10.148496-7.40541-.039377.042343-.078754.084804-.11813.127031zm1.769364 5.876464c-5.23323-1.155572-10.35328-2.286227-15.630602-3.451507.15173.195929.169769.234062.199832.256053 3.392303 2.485314 6.787553 4.96665 10.17514 7.458282.28849.212188.501171.224236.769264-.022108 1.394223-1.281083 2.799528-2.550351 4.196463-3.828392.093373-.08539.149844-.210083.289903-.412328zm.887394.213006c-.23072-.047607-.568842.120833-.772093.289624-.765372.635863-1.501625 1.306817-2.237288 1.976952-.671529.611883-1.328084 1.239674-1.991242 1.860564.02181.04094.043739.082115.06555.123172 4.119006-.820795 8.237894-1.641591 12.3569-2.46227-.004716-.059305-.009431-.118493-.014265-.177798-2.467773-.54322-4.933187-1.098489-7.407562-1.610244zm-1.100547-19.88029c-.180969-.06761-.358636-.146801-.543613-.201077-2.296118-.673644-4.599545-1.32366-6.885642-2.029121-.560825-.17312-.836581-.011931-1.074729.453736-.523924 1.024562-1.066122 2.039883-1.602425 3.058246-1.799427 3.417234-3.60027 6.833766-5.398636 10.251584-.239444.45514-.467806.916012-.701355 1.374193l.109288.084454c5.395806-4.265167 10.791848-8.530452 16.187655-12.795619a94.395981 94.395981 0 0 0-.090543-.196397zm-38.806114 8.049928c.085827-1.514092.164227-3.028534.252059-4.54251.050695-.873199.069676-1.751896.1904-2.616089.08123-.581353-.08901-.948178-.543613-1.299213-1.671865-1.291025-3.320033-2.612463-4.976926-3.922789-.915453-.723943-1.830434-1.448353-2.74565-2.172647l-.12662.097555c2.583074 4.88828 5.166148 9.776443 7.805929 14.771987.100446-.216165.141474-.265177.14442-.316294zm-7.107049 13.08805c2.39291-.526259 4.788177-1.043043 7.173306-1.602756.225414-.052989.458728-.347058.564126-.583693.51461-1.156273.986661-2.331261 1.47451-3.499232.229894-.550355.46144-1.100126.692277-1.65013-.054113-.043748-.108345-.087379-.162458-.130893-3.360118 2.458177-6.720354 4.916354-10.080472 7.37453.15291.106913.248522.111943.338711.092175zm-.284833-27.691947c2.54122 2.020466 5.085625 4.037071 7.623899 6.061163.32138.25617.627082.302374 1.031225.177915 2.306257-.710023 4.62171-1.390686 6.932918-2.085034.132867-.039888.25595-.111709.533356-.235466-5.50427-1.435018-10.843133-2.82699-16.181996-4.218963-.015326.055679-.030535.111358-.045861.167037.035132.044917.062956.098724.106459.133348zm46.993313 7.080695c.0224.854133.096438 1.706746.14112 2.56041.085238 1.629895.161752 3.26014.249348 4.889918.005187.097906.075688.192303.177078.434787 2.641078-5.01578 5.218492-9.910961 7.856623-14.92136-.19877.078956-.2576.088431-.29851.120598-2.641785 2.078835-5.2864 4.154395-7.911915 6.25335-.154325.123288-.219638.439114-.213743.662297zm-7.85002-2.96689c2.385128.719498 4.767427 1.449055 7.16234 2.135684.247226.070885.633803-.032402.846603-.195344 1.692614-1.296055 3.362004-2.62229 5.032218-3.94712.982771-.779504 1.95387-1.57363 2.930392-2.361089-.01792-.03439-.035722-.068663-.053406-.102936l-16.1359 4.221888c.004835.048894.009786.097789.01462.1468.067671.034507.131688.080477.203132.102117zm-30.79505 22.626921c-.349086-.321674-.728943-.381213-1.193684-.265293-.970038.242133-1.952573.434436-2.929213.650718-1.393987.308924-2.787267.62124-4.1809.93192l.001532.164463c4.129734.818105 8.25947 1.635977 12.389204 2.453965l.05317-.146917c-.845187-.7774-1.68896-1.556202-2.535915-2.331612-.532649-.487893-1.072842-.96783-1.604194-1.457244zm-.177432-19.667518c-.019334.204234-.044446.408234-.057179.612936-.053642.853782-.09962 1.708266-.15562 2.561931-.102687 1.571174-.204194 3.142349-.320085 4.712587-.033718.454672.158687.658087.59867.766755 1.714307.423791 3.421305.87706 5.130307 1.322023 3.076345.801027 6.151747 1.605213 9.228328 2.404837.6127.159316 1.229289.304011 1.844228.45549l.066964-.143875c-5.386846-4.259085-10.773693-8.518053-16.160539-12.777021l-.175074.084337zm.300396 19.130147c-.057297.086793-.11483.17347-.172244.260264.263141.197098.54208.376768.786712.59422 1.212075 1.07755 2.433111 2.146445 3.611351 3.259672.39589.373844.675065.389752 1.10267.07416 2.945835-2.173582 5.90629-4.32763 8.860968-6.489282.451183-.32998.896943-.66721 1.345297-1.001167a111.772366 111.772366 0 0 0-.050223-.114867c-5.161432 1.13896-10.322981 2.277922-15.48453 3.417zm13.801112-11.604723c-1.749087-3.310789-3.50112-6.620057-5.235706-9.93845-.212682-.406946-.440808-.512222-.886686-.37244-1.36581.428237-2.745532.812842-4.117591 1.221427-1.158434.344835-2.313802.699496-3.470468 1.049711-.013086.065154-.026172.13019-.03914.19511l16.162542 12.766376c.035369-.036261.070855-.072523.106341-.108901-.080757-.17464-.153498-.35349-.243334-.523452-.75712-1.43069-1.519781-2.85834-2.275958-4.28938zm-14.00896 11.346916c5.279562-1.165982 10.436514-2.304826 15.593465-3.443787-.004951-.051234-.010021-.102468-.014973-.153702-.266442-.054743-.532648-.110305-.799326-.164112-1.59653-.322026-3.192354-.648262-4.790063-.96479-2.271596-.449876-4.544842-.891447-6.816556-1.340153-.413457-.081647-.719511-.008773-.89989.426832-.69381 1.674812-1.407074 3.34167-2.107487 5.013909-.06331.15148-.085945.319686-.16517.625803z" fill="#00DC09"/>
  </g>
</svg>
