<svg width="80" height="80" viewBox="0 0 80 80" xmlns="http://www.w3.org/2000/svg">
  <title>
    prl-oyster
  </title>
  <defs>
    <linearGradient x1="50%" y1="0%" x2="50%" y2="100%" id="a">
      <stop stop-color="#1BCCFF" offset="0%"/>
      <stop stop-color="#0084FF" offset="100%"/>
    </linearGradient>
  </defs>
  <g fill="none" fill-rule="evenodd">
    <circle fill="#FFF" cx="40" cy="40" r="40"/>
    <path d="M10.575534 20.498944c.012339.526708.707294 1.236335 1.205453 1.230745.570338-.006832 1.198667-.63323 1.214398-1.21149.015423-.560249-.607353-1.185093-1.194348-1.198447-.528697-.012112-1.237533.669875-1.225503 1.179192m38.223771-.01677c.000926.596894.590389 1.159627 1.217483 1.162422.65393.003106 1.219333-.523602 1.224886-1.140994.004935-.563664-.62401-1.179503-1.209155-1.184161-.58175-.004658-1.234139.610559-1.233213 1.162733m6.562746-.387267c-.979662-2.26087-2.345204-4.290994-3.823025-6.247516-.394826-.52267-.549055-.539751-1.03395-.063043-.918279.902795-1.833473 1.809627-2.737871 2.726397-.75603.765839-1.21008.780746-1.940508.030435-1.241542-1.274845-2.580557-2.412733-4.10804-3.348758-2.358775-1.445341-4.895223-2.362733-7.597313-2.83354-.750169-.130745-1.49787-.15559-2.203005.37205-.644985.48323-1.430627.449068-2.090726-.026087-.50217-.361491-1.029632-.496274-1.59411-.386025-1.255422.24441-2.518865.479813-3.74375.841304-1.125563.332298-2.227065.773913-3.269653 1.417702.016657.164907.001234.253727.035165.313975.530855.941615 1.072816 1.877019 1.60182 2.819566.22826.406832.510807.30031.851344.163354.92784-.373292 1.855373-.756212 2.806657-1.060249 1.553084-.496894 3.172796-.626397 4.786646-.59472 1.0139.019875 2.024717.254037 3.034916.40559 1.937423.290993 3.688845 1.085714 5.333234 2.108385 2.944845 1.831677 5.070427 4.387267 6.47206 7.57267.89576 2.035404 1.315571 4.16615 1.404407 6.37764.051513 1.276398-.182607 2.518944-.393283 3.76646-.025294.149068.023443.31087.052438.626087.29982-.284162.48582-.451863.662258-.628882 1.019145-1.022982 2.014538-2.070808 3.061135-3.063975.59193-.561491.955293-1.139441.659174-1.976087-.033005-.093478-.012956-.20559-.019125-.308696-.11783-2.029814-.62401-3.967391-1.37202-5.846894-.167184-.419876-.40377-.723603-.891134-.874534-.632647-.195342-1.093791-.619255-1.226736-1.353106-.150836-.836336-.00617-1.54969.67182-2.086025.591314-.468323 1.21625-.728571 1.992637-.360248.826976.392857 1.295523.982919 1.284727 1.915528-.002776.230124-.07989.459316-.078657.68882.00185.351552-.0401.73385.079274 1.048757.649303 1.718013 1.210696 3.45497 1.424457 5.291615.03393.290994.1459.572671.244299.943478.222398-.169875.351333-.247826.455284-.351242.766825-.764596 1.532417-1.530124 2.288447-2.30528.178289-.182608.373234-.381676.461762-.6118.103333-.269255.211602-.622671.122457-.867081-.52006-1.425156-1.060786-2.84472-1.663512-4.236025M29.681097 9.00795c.012646.486025.688786 1.115528 1.205144 1.12174.547512.006832 1.246786-.664286 1.227045-1.17764-.0219-.575777-.581752-1.126398-1.147463-1.128261-.646836-.002174-1.29984.59969-1.284727 1.184161m-.095005 7.341615c-1.431243.181988-2.83781.426087-4.154616 1.043168-.627095.293478-1.241234.615217-1.86216.92205-.676139.33385-1.216557.228882-1.546298-.32236-.250468-.419255-.467313-.858386-.707294-1.284162-.467621-.830124-.930925-1.663044-1.415204-2.48323-.347323-.58882-.42999-.603727-1.01791-.199068-.422587.290993-.833761.601863-1.228896.930124-1.429701 1.187888-2.672477 2.551863-3.744676 4.075155-.206667.293479-.334368.567081-.133254.92205.207284.365838.11598.729192-.008637 1.118012-.226716.707454-.725492 1.087578-1.358139 1.379193-.239055.109938-.540726.28944-.620309.508696-.446955 1.230124-.912417 2.463043-1.217482 3.732608-.238746.993478-.195254 2.053106-.388657 3.06149-.12184.634473.088528 1.028572.50186 1.435715 1.119394 1.103106 2.217503 2.228882 3.327951 3.341615.15392.154037.330667.284783.622776.53354 0-.332919.01604-.497515-.002776-.657764-.123383-1.049068-.35411-2.096273-.363055-3.145652-.02406-2.854037.606737-5.570186 1.944826-8.104658.628329-1.190994 1.354438-2.310559 2.286289-3.287578.390199-.409316.600875-.488509.906557-.221118.359353.313665.674597.678882 1.007423 1.020187-.66596.873913-1.267144 1.662733-1.92786 2.529813 1.53581.918323 2.957492 1.768013 4.40169 2.631677.139115-.153105.238439-.263043.33807-.37267.449115-.49379.86615-1.023292 1.353821-1.474845 1.095025-1.013975 2.397334-1.683851 3.824567-2.071429 1.012359-.275155 2.05803-.528571 3.111413-.361801 1.032717.163975 2.088876.28385 3.048796.767391.335603.168944.577433.073603.758806-.26708.20605-.386336.45405-.74969.67398-1.128572.55399-.952484 1.102737-1.908696 1.672458-2.895652-.166875-.111801-.28008-.213354-.4121-.27267-2.443293-1.095964-4.960925-1.747206-7.67196-1.402175m28.343871 10.821118c-.994159.932609-1.908428 1.951242-2.86804 2.92205-.360587.364907-.762507.688199-1.124328 1.051863-3.056816 3.070187-6.108388 6.145342-9.16181 9.218944-.145285.146584-.285324.299069-.438628.436336-.53394.476708-1.00002.51118-1.441731.114286-.355343-.318945-.38403-.881367-.066935-1.418945.301054-.509937.615681-1.012111.909641-1.526087.988607-1.728882 1.469801-3.599068 1.689423-5.580124.182916-1.649068.02591-3.242236-.33406-4.834472-.273601-1.212112-.699582-2.374223-1.29182-3.463354-1.038577-1.909938-2.421085-3.62826-4.445801-5.057764-.124309.107143-.248617.171118-.309075.273292-.70606 1.197205-1.388985 2.408696-2.108925 3.597516-.239672.396273-.159782.623602.171194.916149 1.606139 1.420186 2.686358 3.179192 3.153671 5.28354.35812 1.614286.338378 3.242857-.16194 4.826708-.502478 1.590683-1.262517 3.032609-2.50591 4.199068-1.39207 1.305901-2.999443 2.224535-4.850498 2.545963-2.296776.399068-4.5041.090373-6.597294-1.118323-2.199303-1.270497-3.616975-3.126087-4.3838-5.477329-.637274-1.953727-.644986-3.962733.085134-5.92826.18816-.506833.12184-.773603-.33807-1.046895-1.21378-.72236-2.438358-1.426087-3.744985-2.187578-.161632.264286-.359662.497826-.460219.768323-.523453 1.407764-.941721 2.840994-.91982 4.368012.012646.902174-.050588 1.809628.026527 2.70559.112895 1.31584.46608 2.590994 1.005572 3.793168.421045.938199.943572 1.830435 1.42415 2.741305.0839.159316.206666.301242.271133.46708.174587.45031.053672.955901-.265273 1.202485-.40192.31118-.823274.30062-1.267453-.057454-.199264-.16118-.372925-.35528-.554607-.538198-3.980955-4.00559-7.959751-8.013665-11.9441-12.015528-.380328-.381988-.805383-.718634-1.195273-1.091615-1.023463-.97733-1.520697-2.374845-.938945-3.968323 1.13605-3.112423 2.519174-6.108385 4.44611-8.81149.81988-1.150311 1.746795-2.22733 2.668158-3.29969 1.227662-1.428882 2.607702-2.697205 4.16202-3.76646.288408-.198447.440786-.468944.490448-.835404.124-.917702.675214-1.503105 1.55216-1.720186.325422-.080435.710377-.045031 1.038576.046584.471632.131366.868309.118944 1.325443-.107454 1.916448-.948447 3.960597-1.497515 6.035284-1.996583 3.146268-.756833 6.32986-.64969 9.499572-.515839 1.852597.07795 3.714448.448447 5.489313 1.087267 1.32421.476398 2.63793.984162 3.964916 1.453727.247383.087267.552139.131987.801373.07267 1.095025-.260869 1.979373.096895 2.521025 1.082299.099015.180124.21191.368633.24584.565838.062617.364907.27391.576398.557692.786336 2.565134 1.896273 4.762587 4.151242 6.57015 6.796894 1.415203 2.070808 2.645333 4.241926 3.593223 6.565528.427214 1.047826.799831 2.125777 1.099652 3.21708.355652 1.295032-.109194 2.348448-1.07806 3.257454m-4.924836 16.060249c1.355055-.001553 1.275473.118633.93216 1.351863-.512657 1.841615-2.257602 3.082609-4.229881 3.147516-.17983.00559-.359662.001863-.539493.001863-12.228189.00031-24.456686-.001242-36.684875.002484-1.42785.00031-2.691294-.403105-3.651214-1.506521-.545353-.626398-.95221-1.354038-1.057085-2.199069-.082975-.668323.030538-.773602.68416-.792546.205432-.006211.411174-.001553.616606-.001553h21.887851c7.347155 0 14.694309.004348 22.041771-.004037m7.645433-22.985715c-1.138517-2.897515-2.643174-5.588509-4.544816-8.054037-1.487074-1.92826-3.161074-3.67733-5.045751-5.204658-1.942667-1.573913-4.040488-2.926398-6.287602-4.022671-2.526885-1.232609-5.163274-2.1441-7.939701-2.618634-.50001-.085403-3.10617-.393788-5.883523-.33882-3.245592.064286-6.724686.51118-7.35178.663355-1.339324.325155-2.664459.730434-3.965842 1.186956-1.600895.561801-3.111721 1.328572-4.584915 2.182609-2.123423 1.230745-4.078428 2.68913-5.885065 4.340994-1.50404 1.374534-2.798945 2.942236-4.016428 4.587888-1.32791 1.795341-2.423243 3.715528-3.31376 5.748136-.608588 1.3882-1.059245 2.848137-1.559872 4.28323-.559542 1.60497-.247383 3.08323.87201 4.310249 1.559563 1.709627 3.192846 3.352174 4.81595 5.002174 2.369881 2.408385 4.759812 4.796583 7.136787 7.197826.197721.19969.378477.420807.540726.650931.322955.458696-.044726 1.299069-.674905 1.211491-.201423-.02826-.410558 0-.61599 0-1.979373.000621-3.958438 0-5.937811.000932-.205433 0-.411483.001242-.616607.012733-.301672.01739-.489831.182608-.489831.487577.000308.671429-.082667 1.367392.061074 2.009628.341463 1.528882.947274 2.935403 2.162289 4.018633 1.296756 1.1559 2.741572 1.864596 4.50811 1.86149 6.297472-.010248 12.595253-.004037 18.892726-.004037 6.272179.000311 12.54405.001553 18.81592-.002484.461145-.00031.94604.046273 1.379423-.075155 1.712866-.480124 3.107403-1.458696 4.157702-2.909317.960537-1.326708 1.328527-2.821118 1.239383-4.454037-.047194-.869566-.075264-.93851-.918896-.94379-1.053691-.00652-2.107691-.001241-3.161691-.001862-1.182319-.000621-2.364946.015217-3.546956-.008696-.778238-.015839-1.127104-.709317-.683233-1.343168.219313-.313043.49199-.592236.762507-.864907 2.376358-2.397515 4.759194-4.788198 7.136786-7.184782.979353-.986957 1.946985-1.985404 2.925722-2.973292.55985-.565528 1.170288-1.085404 1.68788-1.686646 1.012975-1.176708 1.26221-2.603106.956219-4.070497-.21407-1.025776-.64005-2.012733-1.026239-2.995342zm-49.39395-1.740062c.48798-.180434.834378-.477329 1.12402-.88882.950358-1.350931 2.040448-2.568944 3.250836-3.698757 1.522238-1.420808 3.24004-2.525777 5.06179-3.486646 2.273334-1.19969 4.71416-1.897826 7.241354-2.24938.657632-.091614 1.143144-.279192 1.60182-.747204.521911-.532298 1.219334-.706211 1.922926-.454037.393592.140993.716856.476087 1.081453.708695.250776.159938.50803.396584.779164.422671 1.561413.15031 3.087662.47236 4.565791.976398 1.75019.596894 3.451642 1.320186 5.012747 2.33944 1.250795.81646 2.472905 1.665839 3.514258 2.756833.39421.412733.624627.425466.986448.066149.764975-.759006 1.499104-1.549379 2.277035-2.359317-.037324-.070497-.07002-.209938-.157005-.286025-1.005572-.879813-2.019473-1.749379-3.030289-2.622981-.263114-.22733-.544428-.21677-.866149-.132298-1.018219.267702-2.147174-.20559-2.483702-1.384162-.140348-.492546-.442945-.784161-.923213-.946273-1.213165-.409317-2.410289-.867702-3.628388-1.26087-2.293692-.740683-4.68023-.918012-7.060906-.97795-1.78782-.04503-3.577493.095963-5.357602.396895-2.266547.38323-4.445801.998757-6.533443 1.968012-.47009.218323-.778547.498758-.996627.979503-.445721.981367-1.208229 1.42267-2.234159 1.257764-.437393-.070497-.761274.020497-1.060169.273292-.863682.729192-1.716567 1.47236-2.565134 2.219565-1.715642 1.509627-3.083035 3.327019-4.314398 5.229193-1.485224 2.2941-2.655821 4.759006-3.579035 7.346894-.249542.699379-.162249 1.20031.304448 1.684162.78811.816149 1.587323 1.621739 2.400418 2.412422.126467.122981.39575.241304.518825.184783.134796-.061802.23412-.324535.249543-.508075.134179-1.580745.556457-3.084783 1.0978-4.568012.233195-.639441.643444-1.276087.415493-2.006522-.340537-1.092236.120916-2.17764 1.38405-2.645342M45.056789 7.98c.656706.015217 1.248019-.513043 1.236298-1.10559-.010488-.545031-.673055-1.201553-1.209772-1.199068-.53579.002174-1.211313.676708-1.206378 1.204037.005244.543789.586687 1.086646 1.179851 1.100621m-28.273234.110248c.530239-.023913 1.162577-.738198 1.14191-1.290683-.019432-.527329-.655164-1.12267-1.198974-1.122981-.500319 0-1.247403.760559-1.203294 1.225155.049662.529193.772378 1.21056 1.260358 1.18851" transform="translate(9 13)" fill="url(#a)"/>
  </g>
</svg>
