<svg width="80" height="80" xmlns="http://www.w3.org/2000/svg" xmlns:xlink="http://www.w3.org/1999/xlink">
  <defs>
    <path id="a" d="M.000063.148417h45.973891v44.644147H.000063z"/>
  </defs>
  <g fill="none" fill-rule="evenodd">
    <circle fill="#FFF" cx="40" cy="40" r="40"/>
    <g transform="translate(19 15.059101)">
      <mask id="b" fill="#fff">
        <use xlink:href="#a"/>
      </mask>
      <path d="M31.145424 6.767772c.098301 1.88834.128548 3.683157.302256 5.464078.174968 1.794401.289652 3.569516.033817 5.368687-1.38084 9.705691-9.834128 16.76364-19.744923 16.448848-.619424-.0197-1.236958-.095185-1.874867-.146198v8.483848h28.06483V29.35466c1.641928-1.64675 3.225042-3.234815 4.948257-4.963479-1.737708-1.607972-3.369553-3.118064-4.977663-4.606383V6.698717c-2.109698 0-4.136639-.00083-6.16358.002073-.132748.000208-.265497.029033-.588127.066982zM7.372036 31.063624c.567123.092281 1.01032.170669 1.455616.236406 1.585845.234124 3.151105.490438 4.78652.344032 7.338786-.657373 13.01275-5.198848 15.053133-12.183802.653452-2.237557 1.038466-4.504355.538137-6.843525-.114895-.537097-.345945-.942097-.731169-1.324908-2.490511-2.473963-4.962959-4.965345-7.443598-7.449055-.210886-.211106-.437315-.406866-.708064-.65758C14.307953 9.221204 8.351479 15.19874 2.419999 21.151596V42.35033h4.952037V31.063623zM18.037944 2.263832c.741041-.714401 1.481872-1.42901 2.193717-2.115415C23.0761 2.925975 25.874748 5.65874 28.87399 8.587472V4.470698h11.387625V19.07268c1.823617 1.739861 3.729361 3.557903 5.712402 5.449977-1.966237 1.853087-3.885004 3.661175-5.70883 5.3803v14.837972h-1.19012c-6.574429.000622-13.149278.000622-19.723917.004354-.383123.000208-.766037.030899-1.14916.047281-.382913-.017212-.765826-.04894-1.14853-.049147-5.279918-.002903-10.559625-.001452-15.839333-.001037H.000063V20.009177c3.77515-3.671543 7.721489-7.486175 11.63989-11.328387 2.15675-2.115 4.266868-4.276244 6.397991-6.416958z" fill="#61C5F7" mask="url(#b)"/>
    </g>
  </g>
</svg>
