<svg width="80" height="80" viewBox="0 0 80 80" xmlns="http://www.w3.org/2000/svg" xmlns:xlink="http://www.w3.org/1999/xlink">
  <title>
    pst-primas
  </title>
  <defs>
    <path id="a" d="M53.98202 59.905304H.000063V.00002H53.98202z"/>
    <linearGradient x1="50%" y1="0%" x2="50%" y2="100%" id="b">
      <stop stop-color="#E9332B" offset="0%"/>
      <stop stop-color="#F28D03" offset="100%"/>
    </linearGradient>
  </defs>
  <g fill="none" fill-rule="evenodd">
    <circle fill="#000" cx="40" cy="40" r="40"/>
    <g transform="translate(13 10)">
      <mask id="c" fill="#fff">
        <use xlink:href="#a"/>
      </mask>
      <path d="M20.374438 36.153913c.18622.088043.31606.139304.43597.207522 1.327633.754956 2.655795 1.509 3.977868 2.273348.2115.122347.387927.137217.615574.035087 1.031294-.462914 2.071853-.472566 3.10156.006913.22394.104347.405.095608.617822-.02687 1.523118-.877565 3.049015-1.750696 4.581133-2.61274.245514-.13813.371117-.301956.394147-.583434.08881-1.0834.610147-1.93722 1.483676-2.583.20753-.1534.291177-.32557.29025-.57705-.006617-1.76074-.00556-3.52161-.000265-5.28235.000795-.22657-.075044-.38726-.260867-.52565-.869162-.64696-1.38931-1.49218-1.51756-2.57309-.01919-.16174-.16597-.36209-.31222-.44766-1.52669-.8927-3.062647-1.77026-4.60575-2.63518-.122823-.06874-.345176-.06639-.475808-.00431-1.136383.5413-2.271177.57769-3.409015.02739-.2205-.10657-.399838-.11726-.616632.00756-1.52364.87678-3.05113 1.7473-4.58232 2.61117-.21348.12039-.30891.27195-.34081.51156-.13222.99404-.60088 1.8103-1.40625 2.42491-.21335.16278-.30004.34278-.29951.60717.01086 6.08648.01681 12.17296.01681 18.25957-.00013.270912.10033.43787.32413.58774 1.13559.760303 1.71741 1.818 1.65362 3.178563-.01786.37826.09556.59361.43134.77739 1.14684.628045 2.27978 1.28126 3.41193 1.93513.20859.12039.36252.11387.567-.02113 1.69571-1.120433 3.38784-1.11391 5.05072.021915.20608.14074.35166.100695.53722-.00535 2.40419-1.373085 4.81064-2.74265 7.21668-4.11274 2.53006-1.44078 5.0576-2.885736 7.59388-4.316084.30613-.17256.41546-.3733.42777-.72117.05969-1.670475.78472-2.984214 2.24987-3.86413.2164-.12991.29833-.28226.29806-.526954-.0045-5.51048-.00436-11.02109.00053-16.53157.00027-.24469-.08351-.39352-.29806-.52604-1.62886-1.007085-2.35138-2.480215-2.22008-4.35352.02581-.36848-.16504-.499173-.42181-.64526-2.59782-1.477566-5.19432-2.95735-7.79029-4.437913-2.23332-1.273824-4.46837-2.54491-6.69467-3.83048-.27556-.15913-.44867-.14426-.69048.06522-1.58122 1.369566-3.91884 1.369305-5.50932.00013-.22884-.196825-.39137-.230216-.66097-.07539-3.401603 1.953-6.809294 3.895565-10.216853 5.83813-1.44132.82174-2.88357 1.64178-4.33191 2.45139-.26034.145697-.366483.303784-.344513.61826.13447 1.93109-.621922 3.427437-2.318952 4.42957-.24102.1423-.24353.3343-.2434.553954.00119 2.70639.001455 5.412784.00238 8.119175.00106 2.72804.00741 5.45609-.002914 8.18413-.001325.33274.10112.53269.39878.70383 1.58016.90887 2.447734 2.71082 2.14941 4.56952-.30256 1.8853-1.367867 3.17465-3.26303 3.711-1.78544.50517-3.81468-.40005-4.75822-2.06152-1.26371-2.22522-.49831-5.08422 1.690146-6.27379.266425-.14478.27781-.35713.277675-.60404-.00066-3.02165.001854-6.043176.003177-9.064828.00093-2.39113-.00688-4.78226.01046-7.17339.00278-.382955-.1215-.60052-.45185-.80935C.64619 20.12138-.04867 18.72912.02823 17.00647c.079013-1.769605.938116-3.106562 2.572146-3.88826 1.219236-.583302 2.465207-.539345 3.65956.085568.37191.19474.642705.18248.99794-.022565 2.454883-1.417175 4.921677-2.81452 7.3849-4.21748 2.501335-1.42461 4.99923-2.85548 7.50931-4.26496.349143-.196044.488643-.43213.52835-.816.26934-2.604 2.79238-4.38013 5.31344-3.75809 1.69491.418307 3.029956 1.914 3.235235 3.696655.05241.454695.23705.70213.62987.92452 5.02068 2.84074 10.03222 5.697 15.04271 8.555217.20713.118304.36542.124043.57401.002478 2.70159-1.5733 6.03596.141917 6.435 3.261917.25915 2.02578-.51498 3.616303-2.32915 4.66252-.24458.141-.2422.335215-.2422.553563-.00013 2.695568-.00053 5.391-.00013 8.086438.0004 2.74983.00556 5.49978-.00291 8.24948-.00092.2867.09358.45131.34796.59452 2.09859 1.18213 2.90409 3.88304 1.80874 6.02178-1.01117 1.97465-3.05656 2.88365-5.14403 2.24557-.44391-.13578-.85169-.40056-1.25761-.63678-.17669-.10278-.30295-.11948-.47991-.01826-3.47241 1.9843-6.94721 3.9643-10.42213 5.9443-1.47004.83765-2.93611 1.68235-4.41595 2.50291-.3383.18757-.47409.40096-.47819.79226-.01972 1.86418-1.23155 3.57483-2.96563 4.11731-2.664267.83335-4.96787-.75665-5.56412-3.10683-.100586-.39665-.09251-.81913-.170204-1.22283-.030706-.15926-.12031-.36456-.24882-.43956-1.431797-.83726-2.87259-1.66017-4.323577-2.4647-.15578-.08648-.40672-.08556-.588176-.03574-1.86234.5117-3.72137-.34447-4.48372-2.08291-.592944-1.35221-.266694-2.99869.829585-4.02743.25703-.2413.349017-.48835.347826-.82761-.00966-2.61939-.000795-5.23878-.0045-7.85817-.00503-3.48874-.020516-6.97748-.017736-10.46622.000266-.36861-.10588-.61839-.404734-.85839-1.345362-1.08026-1.69094-3.003-.84441-4.524.84521-1.51878 2.677768-2.265 4.32887-1.7027.47978.16331.83462.12013 1.25841-.12926 1.51465-.89139 3.0551-1.74013 4.57306-2.6263.152207-.08896.27106-.30939.315-.49004.4365-1.79661 2.05888-2.99452 3.898457-2.85809 1.577513.11713 2.904484 1.207567 3.28341 2.73848.08444.340956.255574.54117.554824.70891 1.552893.87039 3.098114 1.753958 4.64003 2.64313.24988.144.47223.168915.74819.07174 1.8037-.63561 3.61866.02374 4.55135 1.639436.87631 1.518.481765 3.44974-.925676 4.62939-.13063.109435-.23956.32387-.241015.4907-.01588 1.85843-.01601 3.71713.00424 5.57543.00186.173477.13116.38869.26868.51104 1.2829 1.141567 1.69531 2.722437 1.08 4.22596-.72503 1.771175-2.743673 2.692827-4.58219 2.07222-.30044-.10148-.53669-.08583-.807483.070694-1.597765.92374-3.20109 1.83848-4.80812 2.746432-.23969.13539-.36741.30313-.42326.574044-.369265 1.78943-1.859824 2.99387-3.65863 2.975084-1.80371-.01905-3.27706-1.251787-3.61178-3.03848-.04474-.23922-.15591-.385437-.36371-.502307-.76633-.43043-1.52299-.877562-2.28984-1.30709-.20528-.11504-.29899-.25591-.29978-.49278-.00384-1.217086-.022235-2.433912-.03018-3.65087-.00079-.144.03137-.28826.05466-.487564" fill="url(#b)" mask="url(#c)"/>
    </g>
  </g>
</svg>
