<svg width="80" height="80" viewBox="0 0 80 80" xmlns="http://www.w3.org/2000/svg">
  <title>
    ptc-pesetacoin
  </title>
  <defs>
    <linearGradient x1="15.793695%" y1="10.689476%" x2="85.682595%" y2="84.212709%" id="a">
      <stop stop-color="#F88500" offset="0%"/>
      <stop stop-color="#F79E00" offset="41.527822%"/>
      <stop stop-color="#F97300" offset="100%"/>
    </linearGradient>
  </defs>
  <g fill="none" fill-rule="evenodd">
    <path d="M79.964444 40.205201C79.962574 18.088117 62.136842.24252 40.03696.23319 17.90269.224093.060117 18.042636.000234 40.100945-.057778 61.38421 17.00117 79.987125 39.998129 79.984093c22.831579-.003032 39.983392-18.409096 39.966315-39.778892" fill="#F94E00"/>
    <path d="M75.588164 40.194705c.015204 19.030438-15.259182 35.421808-35.591813 35.424607-20.479766.003032-35.671345-16.563732-35.619883-35.517434C4.430035 20.458029 20.319626 4.589808 40.03097 4.59797c19.680701.008163 35.555321 15.900408 35.557193 35.596734" fill="#FFF"/>
    <path d="M39.990269 73.703977c18.314386.194519 33.492398-14.8021 33.721637-33.190204.218948-17.55895-13.684444-33.917668-33.682573-33.952887C20.790737 6.527067 6.54489 21.856046 6.31682 39.651732c-.245848 19.174344 15.36959 34.234635 33.67345 34.052245" fill="url(#a)"/>
    <path d="M22.695977 58.594542c.639064-.670087 1.13731-1.252711 1.69731-1.76863 1.996725-1.839533 2.743157-4.11965 2.72959-6.7986-.042807-8.395102.001638-16.790437.006316-25.18554.000234-.494693-.05076-.98962-.085848-1.627988h-5.093567c.350643-.3979.492164-.597084.67041-.754752 1.166783-1.030904 2.323274-2.074169 3.518596-3.071487 1.258713-1.050495 2.118362-2.367113 2.759532-3.849562.354386-.819126.718596-1.634053 1.139181-2.588688 2.050526-.077435 4.134035-.076035 6.343626.017959.03579.556268.094503 1.044898.094503 1.533294.000234 12.087697.014035 24.175394-.02924 36.262624-.00772 2.19242.59883 4.034752 2.226433 5.538192.734269.678251 1.400468 1.429505 2.23883 2.293178H22.695977zM48.69069 28.411755c.701988-.107288 1.262222-.104956 1.742456-.298775.300585-.12105.605614-.507522.685146-.829621.110644-.44758-.216842-.813528-.639298-.999184-.57497-.252595-1.169123-.389738-1.788304-.063207v2.190787zm-.022456 1.82554v3.699825h-6.747135v-9.650613c.328655-.020058.707135-.063207 1.085614-.063673 2.920234-.002332 5.841872-.049446 8.759767.032186 1.23111.03452 2.464327.298543 3.676257.554403.512515.108221 1.017544.402799 1.44772.718834 1.465028 1.076151 1.404678 2.705772-.18924 3.563381-.803743.432654-1.73076.71417-2.635322.864607-1.183392.196851-2.39883.207813-3.601872.275918-.538713.030554-1.080701.005132-1.79579.005132zM56.45979 48.93642v3.132828c-.423158-.28688-.731462-.506356-1.049825-.710204-1.55462-.996852-3.228538-1.32175-5.024561-.827522-1.33544.367813-1.960702 1.146822-2.0662 2.493528-.124444 1.587638.434387 2.785306 1.62807 3.320816 1.536843.689446 3.10503.619475 4.66503.052945.363743-.132245.713684-.301575 1.150175-.488397.609357.406997 1.235322.824723 1.974971 1.318484-1.360468.75312-2.672047 1.092711-4.012397 1.275102-3.126082.425423-6.220117.347988-9.184796-.893061-.569122-.238134-1.125614-.544373-1.623158-.907522-1.704327-1.243615-1.989707-3.04723-.803976-4.804198.778245-1.15312 1.91766-1.841866 3.202339-2.215277 1.338947-.389038 2.718363-.73003 4.101754-.854344 1.853801-.166764 3.728421-.121516 5.594152-.129446.455439-.001866.911346.14414 1.448422.236268m-3.724422-2.708198h-6.884912c.177778-2.595919.160936-5.126531.098012-7.727814H42.12531v-1.898542c2.344795-.212478 4.705497-.067172 7.059181-.09003 2.372632-.02309 4.745731-.00513 7.225731-.00513v1.980874h-3.82152c.027836 2.59965-.119065 5.104607.146666 7.740642M36.471906 71.10204c.225731-1.428804.417077-2.641399.62924-3.98414a22008.647494 22008.647494 0 0 1-2.899181-2.691078c1.476959-.240933 2.676257-.436851 4.001637-.653061.550644-1.075452 1.126784-2.20035 1.815439-3.544956.651228 1.28 1.203275 2.365014 1.79462 3.52793 1.242105.203615 2.494503.409096 3.888655.637667-1.01427.897726-1.93193 1.709855-2.792749 2.47137.234152 1.532129.425497 2.783674.64889 4.246298-1.262223-.642799-2.353451-1.198834-3.51462-1.79032-1.119065.557667-2.247954 1.120466-3.57193 1.78029" fill="#FFF"/>
    <path d="M48.69069 28.411755v-2.190787c.619181-.32653 1.213333-.189388 1.788304.063207.422456.185656.749942.551603.639298.999184-.079532.322099-.384561.708571-.685146.82962-.480234.19382-1.040468.191488-1.742456.298776" fill="#F89000"/>
  </g>
</svg>
