<svg width="80" height="80" xmlns="http://www.w3.org/2000/svg"><g fill="none" fill-rule="evenodd"><circle fill="#FFF" cx="40" cy="40" r="40"/><path d="M26.587 42.059c-1.63-1.637-3.257-3.276-4.887-4.913-.287-.288-.54-.6-.724-.964-.74-1.463-.518-3.114.591-4.377a4.28 4.28 0 0 1 .19-.199c1.507-1.508 3.001-3.029 4.527-4.518 1.192-1.163 2.593-1.48 4.148-.944.542.186.988.522 1.39.925 1.567 1.572 3.14 3.139 4.708 4.711.287.288.597.54.952.74 1.405.796 3.217.58 4.428-.537.202-.186.394-.384.589-.578 1.524-1.523 3.039-3.056 4.575-4.567 1.003-.986 2.207-1.349 3.572-1.086.705.136 1.32.464 1.824.962 1.547 1.53 3.1 3.055 4.612 4.618 1.45 1.5 1.404 3.812-.09 5.338-1.556 1.59-3.142 3.147-4.717 4.718-.047.048-.107.083-.162.125-.412.24-.825.477-1.236.72a28.167 28.167 0 0 1-7.424 3.069 19.996 19.996 0 0 1-6.345.56c-3.519-.25-6.72-1.416-9.646-3.318-.223-.145-.47-.254-.705-.38-.057-.035-.124-.06-.17-.105z" fill="#00B838"/><path d="M26.587 41.748c1.028.17 3.541 1.038 7.54 2.606 3.997 1.567 9.25.916 15.76-1.954l2.787-1.416-1.732 1.732c-.807.807-2.1 1.642-3.877 2.505-2.667 1.294-9.761 1.406-13.224.968-2.31-.292-4.492-1.408-6.55-3.348l-.704-1.093z" fill="#00B838"/><path d="M27.462 42.544c2.927 1.902 6.127 3.069 9.646 3.318 2.13.151 4.251-.031 6.345-.56a28.167 28.167 0 0 0 7.424-3.07c.411-.242.824-.48 1.236-.72-.263.345-.557.67-.785 1.037-.827 1.33-.732 3.288.544 4.569 1.567 1.573 3.142 3.138 4.706 4.715.266.269.53.554.73.874.812 1.3.778 2.645.034 3.995-.118.214-.316.39-.493.568-1.634 1.64-3.284 3.265-4.904 4.918-.67.683-1.469.998-2.38 1.052-1.046.06-1.955-.284-2.73-.966-.168-.148-.322-.312-.48-.47-1.492-1.491-2.984-2.98-4.473-4.473-.4-.401-.835-.745-1.384-.928-1.551-.52-2.95-.255-4.147.925-1.6 1.577-3.177 3.178-4.772 4.76-.275.272-.573.53-.89.749-1.512 1.042-3.592.723-4.687-.4a190.221 190.221 0 0 0-4.618-4.612c-1.136-1.09-1.63-3.401-.096-5.188.164-.19.347-.365.526-.544 1.571-1.573 3.149-3.14 4.714-4.72.899-.908 1.232-2.005 1.072-3.25-.064-.5-.304-1.148-.485-1.387-.18-.24-.37-.47-.527-.68.235.127.65.343.874.488z" fill="#020101"/><path d="M42.574 11.187c.805.88 1.53 1.82 2.131 2.854.476.819.862 1.68 1.08 2.609.555 2.37.011 4.53-1.41 6.521-.877 1.228-1.969 2.227-3.176 3.114-.647.476-1.328.896-2.03 1.283-.194.106-.374.152-.557-.022-1.374-1.308-2.585-2.738-3.347-4.507-1.128-2.615-.868-5.156.586-7.627.834-1.416 1.923-2.62 3.185-3.666.634-.525 1.31-.998 1.98-1.48.324-.234.404-.217.7.066.292.28.572.57.858.855z" fill="#00B838"/></g></svg>