<svg width="80" height="80" viewBox="0 0 80 80" xmlns="http://www.w3.org/2000/svg" xmlns:xlink="http://www.w3.org/1999/xlink">
  <title>
    pura-pura
  </title>
  <defs>
    <path id="a" d="M40.515865.040795V49.69688H.165015V.040794z"/>
  </defs>
  <g fill="none" fill-rule="evenodd">
    <circle fill="#FFF" cx="40" cy="40" r="40"/>
    <g transform="translate(26.398 16.262)">
      <mask id="b" fill="#fff">
        <use xlink:href="#a"/>
      </mask>
      <path d="M8.851775 34.887788c0 2.21515.044012 4.321515-.009298 6.425757-.10662 4.222425-3.02317 7.553334-7.198082 8.278788-.399205.069394-.811737.06394-1.371182.104546-.037812-.502428-.09825-.93394-.09887-1.365458-.00682-4.593636-.016738-9.187272-.00062-13.78091.015186-4.357878 3.02348-7.310908 7.46494-7.371817 5.107527-.07 10.2383.128485 15.317-.282727 7.998352-.647274 10.3942-6.449395 8.790872-12.796365-1.072707-4.247576-4.594573-5.884848-8.625363-6.157273-4.883748-.33-9.80097-.162727-14.700526-.30515-1.260842-.036365-2.59297-.231213-3.749982-.69394C1.869722 5.822635.114214 2.994152.2915.198392.50784.14688.746804.039.98515.04082c7.638198.05909 15.277947.064243 22.913046.244546C25.720652.32809 27.5834.79506 29.33364 1.350514c6.403082 2.03182 10.211024 6.332425 10.981538 12.907577.812357 6.93394-.706666 13.102124-7.008397 17.3-3.716816 2.476064-7.99928 3.14485-12.38805 3.232124-3.406567.067576-6.815304.011818-10.2228.01909-.553247.001213-1.106182.04576-1.844153.078486" fill="#000" mask="url(#b)"/>
    </g>
    <path d="M14.007996 29.365333c1.685153 0 3.277632-.000303 4.869802 0 3.86869.00091 7.73831-.046667 11.60607.015455 5.08087.081515 8.974357 3.786363 8.754918 8.30909-.279567.04485-.574012.133334-.868766.133637-5.416228.00697-10.833696.066364-16.248374-.01788-4.573188-.070908-8.31852-3.93212-8.11365-8.440302" fill="#000"/>
  </g>
</svg>
