<svg width="80" height="80" xmlns="http://www.w3.org/2000/svg">
  <g fill="none" fill-rule="evenodd">
    <circle fill="#FFF" cx="40" cy="40" r="40"/>
    <path fill="#45C2F2" d="M50.108537 28.569052l-11.896971 8-12.017315 8.068965V58.65526l12.017315-8.345 21.719657-15.10345V21.965603z"/>
    <path fill="#45C2F2" d="M50.108537 28.569052l-11.896971 8-12.017315 8.068965V58.65526l12.017315-8.345 21.719657-15.10345V21.965603z"/>
    <path fill="#FEBE40" d="M26.194251 32.60338v30.74155L38.211566 70.862V24.758552z"/>
    <path fill="#67B84F" d="M26.194251 44.638v14.017241l12.017315-8.345V36.568862z"/>
    <path fill="#E83F84" d="M24 10.999966l26.108571 17.569137 9.822686 6.603276V21.931173L44.21143 10.999965z"/>
    <path fill="#E83F84" d="M24 10.999966l26.108571 17.569137 9.822686 6.603276V21.931173L44.21143 10.999965z"/>
    <path fill="#5A469D" d="M50.108537 28.569052l9.822686 6.603276V21.965603z"/>
  </g>
</svg>
