<svg width="80" height="80" viewBox="0 0 80 80" xmlns="http://www.w3.org/2000/svg">
  <title>
    pzm-prizm
  </title>
  <g fill="none" fill-rule="evenodd">
    <circle fill="#FFF" cx="40" cy="40" r="40"/>
    <path d="M34.945202 26.640792c.981567 1.69298 1.88667 3.254263 2.869465 4.949673-2.16762 0-4.196518.009543-6.225067-.017352-.169937-.002255-.39459-.216893-.496132-.38902-1.922798-3.266234-3.831215-6.540625-5.739633-9.815016-.039985-.068538-.046298-.156336-.08716-.303476H68c-3.052906 5.23355-6.07337 10.41156-9.14048 15.66974 3.046943 1.74313 6.040223 3.45537 9.075592 5.1919-.95 1.62063-1.86738 3.18555-2.8272 4.82301-3.026075-1.72525-5.997257-3.4191-9.066824-5.16899-.406868.692847-.794268 1.352548-1.232177 2.09866 2.98101 1.798824 5.91238 3.567457 8.93898 5.39387-.93141 1.601017-1.85037 3.18069-2.80843 4.82717-3.02134-1.776093-5.96972-3.50933-9.00632-5.294445C47.96759 55.394735 44.035 62.126575 40.01965 69c-4.0357-6.850523-8.00441-13.587567-12.01328-20.392976-3.0245 1.778002-5.97446 3.51228-9.005798 5.294272-.94246-1.618022-1.85265-3.181214-2.810366-4.825436 2.994683-1.8075 5.923074-3.574918 8.925823-5.387276-.397926-.694752-.77743-1.357577-1.209555-2.111844-3.032037 1.72647-6.025668 3.431074-9.08594 5.17368-.94386-1.61698-1.857734-3.182602-2.81545-4.82318 3.038175-1.738442 6.00883-3.43819 9.06963-5.189644C18.066175 31.521753 15.074475 26.33506 12 21.00487c2.17744 0 4.181437-.02273 6.183328.03002.238333.006245.530155.386936.688342.656577 4.36172 7.437175 8.710815 14.88181 13.059032 22.32662 2.668487 4.569156 5.33224 9.14126 8.08666 13.863803 6.0995-10.444006 12.13569-20.779566 18.245185-31.241098H34.945202z" fill="#9A29CE"/>
  </g>
</svg>
