<svg width="80" height="80" xmlns="http://www.w3.org/2000/svg" xmlns:xlink="http://www.w3.org/1999/xlink">
  <defs>
    <path id="a" d="M0 0h65.787978v65.999904H0z"/>
  </defs>
  <g fill="none" fill-rule="evenodd">
    <circle fill="#1347E8" cx="40" cy="40" r="40"/>
    <g transform="translate(7 7)">
      <mask id="b" fill="#fff">
        <use xlink:href="#a"/>
      </mask>
      <path d="M1.578886 38.202823c.85715-.124975 1.647453-.240155 2.508636-.365768-.053903-.379394-.09571-.675116-.14643-1.032155-.871583.143071-1.656792.27209-2.50036.41069.051993.371304.088707.634026.138154.987233zm60.12027-.35789c.892167.123909 1.671646.232277 2.545138.353419.026527-.381736.046264-.667878.070244-1.010652-.870096-.128168-1.647453-.242497-2.480836-.365342-.046688.355123-.081916.62189-.134546 1.022574zM7.404924 47.348718c-.753164.440071-1.43863.840755-2.196887 1.28402.199697.317864.35589.566322.553254.880567.75083-.442413 1.434598-.845225 2.192218-1.29147a2755.494271 2755.494271 0 0 0-.548585-.873117zm53.160984 1.27529c-.754437-.4356-1.463884-.845225-2.214926-1.278909-.194392.342774-.327453.57718-.502534.885677.753376.435387 1.462187.845226 2.21153 1.278484.19503-.341284.328727-.575051.50593-.885251zM49.23322 8.70125a10187.13622 10187.13622 0 0 0 1.392154-2.177362c-.331485-.190761-.586996-.33809-.888347-.511606-.481736.747077-.92591 1.436032-1.39364 2.161393.339762.201407.572354.339368.889833.527574zm-31.798206-.554826c-.48598-.73984-.93928-1.430284-1.427807-2.173742-.307293.227167-.54434.402387-.82256.608051.477705.737284.909994 1.404523 1.374965 2.122007.321724-.204387.571293-.363.875402-.556316zM50.59821 56.304707c.545402.680864 1.05982 1.322341 1.625807 2.02918.299653-.28018.513357-.48031.754862-.7062-.559196-.687464-1.059183-1.302116-1.586759-1.950832-.300077.237174-.512296.405155-.79391.627851zm-26.630257 4.581038c-.252116.855445-.484707 1.644039-.730881 2.479258.369685.118374.623074.19949.975357.312116.25254-.85736.48492-1.646167.732579-2.486922-.368836-.114968-.622438-.193955-.977055-.304452zm18.58038 2.441361c-.253602-.838838-.491923-1.62807-.744676-2.46478-.38454.149032-.63517.245903-.95456.3696.249994.840116.48492 1.629774.735975 2.473084.391119-.153503.641537-.251652.96326-.377904zM29.21718 64.728649c.45627-.026187.742766-.04258 1.051544-.060464.081067-.851826.15301-1.611039.23238-2.446684-.327666-.03449-.620104-.064935-1.004007-.105174-.092103.860129-.176778 1.649148-.279917 2.612322zm7.345737-.040664c-.094862-.909523-.17699-1.697477-.266971-2.558884a5634.617053 5634.617053 0 0 0-1.013344.083671c.086585.863323.165318 1.649787.248083 2.475213h1.032232zM20.394615 3.685674c.331486.808607.636869 1.55313.971962 2.370678.360772-.14073.640051-.249736.96602-.37684-.341885-.81989-.652361-1.563986-.989576-2.371954-.347402.1386-.631988.252077-.948406.378116zM44.41522 6.080197c.34719-.853316.649813-1.596987.979389-2.407084-.335306-.122845-.619466-.226955-.96411-.35342-.332758.81244-.63708 1.555684-.961986 2.3496.303472.131788.551768.239517.946707.410904zm-5.28191-1.758368c.154495-.853103.300077-1.656387.457119-2.523542-.389634-.046626-.64939-.07771-.99764-.119439-.165318.867368-.318752 1.671504-.48216 2.529078.403427.044922.668276.074516 1.022681.113903zM26.189246 1.834268c.168501.865664.32427 1.666606.490861 2.521838.37499-.066.63411-.11156.994881-.174793-.168501-.871839-.324057-1.675761-.488951-2.529503-.379235.069406-.638354.116884-.996791.182458zm-15.632238 8.486961c.674643.64531 1.254636 1.200136 1.90063 1.81798a2339.0131 2339.0131 0 0 1 .715813-.622954c-.67528-.710671-1.227048-1.291471-1.815742-1.910807-.259968.23249-.488103.43624-.800701.715781zm43.883845-.728555c-.60843.640413-1.158926 1.220149-1.719395 1.810103.221768.303813.400032.548226.62074.850336.692681-.726213 1.261851-1.323194 1.857761-1.947852-.269093-.252716-.469852-.441135-.759106-.712587zM4.714628 25.397545c-.8771-.215032-1.673132-.410264-2.50906-.61529-.100592.363639-.17211.622103-.270367.9768.838476.212903 1.633234.414522 2.499086.634238.099319-.35278.179325-.637006.280341-.995748zm56.30564.0198c.162135.413458.270154.688955.38157.97318.853967-.224186 1.62326-.425806 2.452186-.64318-.116084-.360445-.206065-.639987-.311537-.966793-.833383.210348-1.604585.404941-2.522219.636793zM48.08639 60.989216c-.431865-.799877-.824257-1.526942-1.235961-2.289561-.33955.205664-.57108.345542-.866489.52438.399396.760278.771415 1.467968 1.179087 2.243788.328302-.17011.590392-.305942.923363-.478607zm-34.483408-2.68471c.543916-.694064 1.048997-1.338948 1.605434-2.04898-.342945-.215884-.59018-.371516-.878797-.553123-.539036.69811-1.022682 1.324258-1.535402 1.98809.307717.233768.520572.395362.808765.614014zm43.591408-4.803522c-.657877-.562916-1.284135-1.098794-1.944771-1.664052-.24957.291039-.423589.493936-.655332.764536.678039.593148 1.298354 1.135626 1.949229 1.704929.248932-.308071.42274-.523103.650874-.805413zM32.438448 3.649906h.934611V1.156171h-.93461v2.493735zm-13.528302 55.03442c-.422315.818187-.789453 1.52971-1.194154 2.31362.320238.164786.582115.299767.909569.468386.408096-.77582.780115-1.483297 1.179511-2.242297-.296682-.179051-.528637-.318928-.894926-.53971zm-8.314515-6.923187c-.742977.65191-1.347588 1.182251-2.00483 1.759006.238747.271878.435898.496703.681435.776458.668277-.59847 1.28753-1.153084 1.90148-1.702587-.229622-.330639-.387724-.55887-.578085-.832877zm46.328605-35.416026c.728334-.53162 1.393852-1.017039 2.101601-1.533755-.249569-.292316-.444173-.520548-.667427-.782206-.69544.502238-1.336129.965303-2.040058 1.473716.223678.310839.396212.550567.605884.842245zM6.766783 14.833926c.73364.527148 1.380906.992342 2.110302 1.516722.204579-.304877.381781-.568877.579569-.86311-.745736-.53545-1.389183-.997025-2.055125-1.474993-.227287.294232-.395788.512245-.634746.82138zM5.197213 42.28886c-.871794.316162-1.61371.585271-2.421626.878226.136032.346394.242565.618271.376263.95849.835293-.30509 1.599704-.584206 2.413138-.880993-.138366-.35938-.233865-.608052-.367774-.955723zm57.460534 1.84204c.124785-.365129.220495-.64382.337428-.985742-.838052-.289123-1.60883-.555039-2.44391-.84331-.1129.387271-.193756.664471-.284798.975949.810888.289335 1.52649.544606 2.39128.853103zM6.223927 21.138416c.147705-.375135.256785-.65127.38157-.968284a12062.10631 12062.10631 0 0 0-2.316155-1.078567c-.148977.375987-.257209.648716-.38072.960832.777145.364277 1.474707.691722 2.315305 1.08602zm55.742624-1.122851c-.233865-.37769-.388997-.628278-.55771-.901007-.799428.390039-1.515878.7392-2.27265 1.108161.181871.344052.308778.584207.472399.893981.766746-.358103 1.491472-.696407 2.357961-1.101136zm.09274 12.033928c.940128-.051522 1.737434-.09538 2.618566-.143496-.05348-.390678-.093377-.683845-.141975-1.03982-.877312.060252-1.673132.114968-2.536861.174155.021646.362362.037138.625297.06027 1.009161zm-60.979544-.114328h2.663557v-.901433c-.842933-.053864-1.639177-.104961-2.48211-.158825-.058997.345329-.10526.614438-.181447 1.060257zm31.84447-27.119613C17.43374 4.788087 4.88037 17.33128 4.800789 32.916222c-.07937 15.555349 12.512624 28.239059 28.06337 28.267375 15.488354.028529 28.049151-12.521904 28.12364-28.100671.074276-15.560458-12.513473-28.23991-28.063582-28.267374zM-.000021 32.941984C.005496 14.712997 14.741959-.007346 32.978332-.000106c18.157004.007238 32.820251 14.80529 32.80964 33.111348-.01061 18.204929-14.772328 32.902703-33.03162 32.888652C14.664288 65.986267-.005538 51.18119-.000021 32.941983z" fill="#FFF" mask="url(#b)"/>
    </g>
    <path d="M46.675762 50.1234c1.618804-1.412613 2.47171-3.081136 2.491871-5.070078.04117-4.112226.071518-8.226368-.00488-12.33753-.069608-3.737941-2.779004-6.560186-6.517023-6.8244-1.792399-.126677-3.607293-.127741-5.40054-.009367-3.790013.250374-6.48901 2.93402-6.606155 6.730297-.12818 4.143735-.126482 8.29769-.000424 12.441639.113961 3.751142 2.762026 6.442451 6.496225 6.728593 1.860309.142645 3.741627.047265 5.612122.000213.60164-.015116 1.198611-.219929 2.002495-.378329-.831685-.845439-1.51715-1.500116-2.152321-2.200568-.572142-.630832-.485344-1.439651.166591-1.822026.562804-.33 1.090592-.214606 1.53519.24633.784997.813077 1.559595 1.635948 2.37685 2.495225m1.693292 1.737716c.951376.900794 1.855003 1.697478 2.688385 2.56229.72876.756233.484708 1.780723-.419768 2.010872-.54243.138387-.955408-.080904-1.321061-.469239-.896836-.952316-1.803646-1.895052-2.707486-2.842897-3.270501 1.541207-6.628225 1.210142-9.91528.958065-4.771311-.365768-8.269948-4.150336-8.400675-8.969187-.113324-4.182484-.115659-8.372846.000425-12.555116.136032-4.901884 3.745659-8.641955 8.61353-9.001762 1.968328-.145626 3.964457-.146477 5.93321-.00447 4.920501.355335 8.537556 4.125 8.658732 9.071806.101441 4.147567.06218 8.300032.00467 12.449303-.035653 2.596355-1.093988 4.80331-3.134682 6.790335" fill="#FFF"/>
  </g>
</svg>
