<svg width="80" height="80" viewBox="0 0 80 80" xmlns="http://www.w3.org/2000/svg">
  <title>
    qua-quantum
  </title>
  <g fill="none" fill-rule="evenodd">
    <circle fill="#FFF" cx="40" cy="40" r="40"/>
    <path d="M59.34075 41.92571c-7.321793 4.896827-15.19156 8.564445-23.523986 11.291638 1.944718.0614 3.870698.092102 5.794884.045358.71103-.017232 1.125648.216488 1.527508.804154 1.39774 2.045247 2.87442 4.036817 4.303455 6.061068.41263.584696.89422.964986 1.65329.847333 1.66047.0002 3.32073.0004 4.981.0004.57329-.14518 1.36306-.11052 1.67063-.47635.50333-.59836-.11282-1.20722-.5095-1.7323-.31854-.42168-.64345-.83881-.959-1.26288-1.09654-1.47303-2.1901-2.94823-3.30917-4.45553 6.26552-1.75824 8.99681-5.38249 8.3709-11.12288" fill="#202647"/>
    <path d="M58.319734 28.408268c-.642458-1.58058-1.73721-2.800082-3.23103-3.637116-1.858006-1.04124-3.890232-1.456787-6.000398-1.558-4.459934-.037633-8.919668-.085565-13.379602-.107352-1.51794-.007527-3.03628.050507-4.554418.078632-.134552.003962-.269103.007725-.403655.011686-.47641.030305-.95282.060807-1.42923.09131-.23063.027135-.46146.053082-.69189.082-4.69236.588458-7.88392 3.122734-8.31608 7.53667-.44412 4.534363-.15388 9.13904-.20551 13.712818-.00996.87942.46585 1.134927 1.22651 1.091154 2.27482-.13132 4.54864-.274918 6.87728-.416734-.23023-.7073-.52545-1.200488-.53103-1.696648-.04066-3.61414-.15528-7.235806.03269-10.840637.09249-1.77369 1.24206-2.60577 3.06399-2.83137 1.18087-.14617 2.37867-.15865 3.56871-.23094l11.55289.00099.40585.0004c.26412.00258.52804.00515.79196.00773.25435.03387.50851.06774.76286.10161.41064.0511.82127.10201 1.2319.15311 2.51063.72216 2.72671 2.81038 2.85708 5.04597 2.41595-1.69526 4.519337-3.48797 6.293623-5.637.171825-.20817.18837-.68571.07754-.95825" fill="#202648"/>
    <path d="M13.190585 41.399386c0 .620347.019535.964787-.00319 1.306255-.140133 2.1015.819867 3.6496 2.699402 4.40741 1.508372.60807 3.159668 1.03213 4.77927 1.1692 4.14279.35098 8.196677-.38544 12.178604-1.47738 7.3509-2.01613 14.21402-5.09945 20.45701-9.47139 3.12778-2.19023 6.09788-4.58685 8.20824-7.82367.67475-1.0347 1.22851-2.20073 1.57356-3.3826.68552-2.34987-.2107-4.21646-2.37309-5.37971-.40106-.215692-.81648-.405243-1.25163-.61975 2.52379-.41594 6.08313.2155 8.13867 1.431635 1.78625 1.05669 2.59116 2.86049 2.12771 4.89841-.5994 2.635884-2.20146 4.69777-3.99508 6.62021-3.85495 4.132486-8.48392 7.272848-13.38 10.02262-7.0495 3.95957-14.48312 7.00407-22.3788 8.87363-3.94983.93508-7.9507 1.59821-12.01535 1.26486-1.75156-.1436-3.54777-.559145-5.17395-1.21693-2.39521-.96875-3.25315-3.15007-2.53734-5.63938.52306-1.81945 1.48745-3.385174 2.94598-4.98338" fill="#C19E63"/>
  </g>
</svg>
