<svg width="80" height="80" viewBox="0 0 80 80" xmlns="http://www.w3.org/2000/svg">
  <title>
    qlc-qlink
  </title>
  <defs>
    <linearGradient x1="85.753907%" y1="17.872109%" x2="14.912693%" y2="89.62626%" id="a">
      <stop stop-color="#511D88" offset="0%"/>
      <stop stop-color="#7D0E8C" offset="100%"/>
    </linearGradient>
  </defs>
  <g fill="none" fill-rule="evenodd">
    <circle fill="#FFF" cx="40" cy="40" r="40"/>
    <path d="M68.992659 40.250608c0 .279599.018448.560456-.003145.838167-.100623 1.299202-1.08212 2.21183-2.346203 2.194212-1.199516-.01678-2.180804-.933185-2.209104-2.2047-.057859-2.603856-.418007-5.147303-1.268484-7.61524-3.241543-9.40631-11.7698-15.642645-21.74452-15.90861-.445887-.011956-.921333-.041321-1.3276-.20199-1.037889-.410904-1.575386-1.489027-1.358836-2.557082.210471-1.037432 1.118178-1.895945 2.265705-1.785825 2.526906.242682 5.111671.374196 7.544453 1.027992C60.34009 17.207508 68.70735 28.034466 68.99266 40.250608zm-29.44955 28.73278c-14.721211-.746926-26.330013-12.780374-26.54258-27.534301-.020963-1.445608.581939-2.383408 1.707873-2.656714 1.038099-.252331 2.140345.179757 2.55374 1.152375.236465.555423.27902 1.214252.31319 1.83197.474817 8.619323 4.436656 15.150358 11.809 19.575907 3.484298 2.091643 7.325179 3.045383 11.391414 3.104114 1.483777.021394 2.405949.861869 2.464227 2.158134.05639 1.260817-.76411 2.243293-2.022112 2.359915-.553849.05118-1.116292.0086-1.674752.0086zm-8.737805-28.270886c.228918-5.52234 4.529313-9.80274 9.952288-9.906148 5.463644-.104037 9.927342 3.954027 10.400901 9.446792.088675 1.027363.014046 2.086819-.977724 2.56757-.645038.312739-1.559664.385942-2.254804.199054-.8945-.240376-1.263663-1.077285-1.323408-2.050113-.23332-3.810976-3.451175-6.291918-6.979704-5.42019-2.579105.637225-4.372089 3.083977-4.22933 5.770685.14234 2.673284 2.213297 4.905041 4.860742 5.23624.242545.030203.486347.048871.72952.073832 1.501386.155006 2.351235 1.081689 2.259207 2.463322-.087207 1.30885-1.153816 2.168202-2.635706 2.09479-2.856658-.141583-5.279587-1.244037-7.197302-3.373435-1.810803-2.01068-2.649751-4.39954-2.60468-7.102399zm10.69032-18.912252c10.171773.180806 18.700868 8.89074 18.672568 18.925676-.003983 1.474973-.89471 2.511146-2.197784 2.557082-1.344581.047404-2.292119-.901932-2.362136-2.366627-.396205-8.287705-6.122098-14.082932-14.3967-14.534318-1.029504-.056213-1.860905-.358884-2.304487-1.32458-.378177-.824325-.27881-1.636692.286567-2.367467.62659-.81027 1.496355-.958565 2.301971-.889766zm-1.428435 38.355134c-10.081421-.528994-18.008034-8.617015-18.242612-18.614405-.038782-1.64697.70101-2.669928 2.02337-2.798086 1.51543-.147036 2.497767.841733 2.552062 2.606373.10817 3.518373 1.283368 6.624584 3.615736 9.260533 2.803202 3.168297 6.341164 4.815057 10.569236 4.99901 1.92631.08369 2.949525 1.204813 2.620403 2.81088-.254913 1.245086-1.314814 1.831342-3.138195 1.735695zm5.459242-16.983838c.512132.257784 1.113566.418454 1.519833.791602 1.154026 1.060085 2.258997 2.1789 3.325186 3.328548.867668.935702.805407 2.231757-.053246 3.114811-.880455.905708-2.225246.967165-3.192908.061038-1.144382-1.07183-2.24621-2.191275-3.333152-3.321836-.698495-.72658-.8096-1.625575-.418636-2.527297.380483-.8776 1.109793-1.313045 2.152923-1.446866z" fill="url(#a)"/>
  </g>
</svg>
