<svg width="80" height="80" viewBox="0 0 80 80" xmlns="http://www.w3.org/2000/svg">
  <title>
    qrl-quantumresistantledger
  </title>
  <g fill="none" fill-rule="evenodd">
    <circle cx="40" cy="40" r="40" fill="#273562"/>
    <g fill-rule="nonzero" fill="#FFF">
      <path d="M64.9045 51.108245c-.527458 0-.95554.425562-.95554.949914v2.84974H51.55624l-.024206-1.80104c5.33064-3.71607 8.505582-9.76132 8.505582-16.24733C60.037616 25.91019 51.07465 17 40.060456 17c-11.014194 0-19.97716 8.910193-19.97716 19.859535 0 6.455616 3.171118 12.5262 8.481373 16.242263.00891.005066.01401.005066.0242.010133l-.02421 1.79597H16.17195v-2.84974c0-.52435-.428082-.94991-.95554-.94991s-.95554.42556-.95554.94992v4.74957h16.1894l.054783-4.12136c.005096-.40529-.24844-.74726-.602627-.89038-.063703-.09372-.138872-.18365-.238248-.25204-4.803182-3.36016-7.669803-8.84687-7.669803-14.68947 0-9.90444 8.10298-17.95971 18.06608-17.95971 9.9631 0 18.06608 8.05527 18.06608 17.95971 0 5.97686-2.971093 11.53702-7.952642 14.88199-.095554.05953-.164353.14312-.22933.22798-.203848.17732-.338898.42936-.333802.71687l.05479 4.12136 16.1945.00507v-4.74957c0-.52435-.42808-.94991-.95554-.94991z"/>
      <path d="M52.138538 38.233504c-.384555-.474595-.81232-.94919-1.27369-1.42188.46137-.472688.887214-.94919 1.27369-1.421878 2.128255-2.61885 2.788384-4.938457 1.860363-6.533306-.70525-1.211743-2.23387-1.85216-4.4183-1.85216-1.21752 0-2.60691.201083-4.09424.57323-1.17767-4.06503-3.12589-6.678638-5.3708-6.678638-2.24684 0-4.19362 2.613608-5.37129 6.67864-1.48877-.37215-2.87672-.573232-4.09568-.573232-2.18682 0-3.71304.640417-4.4183 1.85216-.9285 1.59485-.26645 3.915885 1.86036 6.533306.38648.474595.81376.951096 1.27705 1.427597-2.95738 3.042936-4.26083 6.021067-3.13933 7.951373.70526 1.211742 2.23148 1.85216 4.4183 1.85216 1.21704 0 2.60691-.201084 4.09568-.57323 1.17623 4.06503 3.12445 6.67816 5.36937 6.67816 2.24684 0 4.19314-2.61313 5.37081-6.67816 1.48925.372146 2.87912.57323 4.09616.57323 2.18443 0 3.71305-.640418 4.41831-1.85216.92994-1.59485.26982-3.916362-1.85844-6.535212zm-2.55794-10.045595c1.209357 0 2.779263.21776 3.38466 1.26034.65485 1.12406.013444 3.01911-1.75522 5.19672-.361992.44505-.76143.88963-1.194474 1.33658-1.037003-.96968-2.220434-1.92078-3.512846-2.82947-.14787-1.5858-.391756-3.07486-.7163-4.43146 1.38219-.34642 2.670762-.53273 3.79418-.53273zm-6.785163 13.23243c-.891054.50985-1.78931.9773-2.679883 1.39948-.892974-.42409-1.78931-.88963-2.681803-1.40139-.89298-.51176-1.75187-1.04973-2.56755-1.60438-.07298-.95872-.11234-1.95985-.11234-3.00434 0-1.04592.04129-2.04943.11234-3.00768.80079-.54179 1.65584-1.07785 2.56754-1.60105.89249-.51177 1.78883-.97731 2.6818-1.39949.89249.42218 1.78883.88962 2.6818 1.39948.89249.51176 1.75138 1.04973 2.56898 1.60438.07345.95872.11282 1.96032.11282 3.00434 0 1.04449-.03937 2.04562-.11282 3.00434-.81952.55846-1.67841 1.09452-2.5709 1.60628zm2.421112-.08387c-.140667 1.16885-.332225 2.25766-.56651 3.25545-1.010598-.30496-2.061043-.68474-3.12973-1.13884.62604-.31687 1.250643-.64995 1.871404-1.00732.62461-.35738 1.23385-.72762 1.82484-1.1093zm-6.50575 2.11804c-1.069168.45267-2.119133.83387-3.13021 1.13931-.234286-.9978-.425363-2.0866-.56603-3.25546.590515.37977 1.198313.75192 1.822915 1.10929.62076.35547 1.246803.69045 1.873326 1.00684zm-5.095233-4.5301c-.92658-.69093-1.78547-1.40187-2.55794-2.12234.753747-.69951 1.606874-1.40902 2.55794-2.11424-.037448.69236-.058092 1.39948-.058092 2.12186.00144.72047.022084 1.42378.058092 2.11471zm1.397072-6.63766c.140668-1.16886.331745-2.25766.56651-3.25546 1.010598.30353 2.060563.68473 3.12973 1.13741-.62652.31639-1.250643.65137-1.873324 1.00684-.628443.36118-1.23624.73333-1.822916 1.1112zm6.50767-2.11805c1.068688-.45268 2.119133-.83388 3.12973-1.13932.232366.99779.425844 2.08659.56651 3.25545-.590994-.37977-1.198313-.75192-1.822915-1.1093-.62268-.35547-1.2492-.69045-1.87332-1.00685zm5.095234 4.5301c.92274.68902 1.777787 1.39614 2.548337 2.1128-.77055.71665-1.625597 1.42569-2.548337 2.1128.035527-.69093.05617-1.39425.05617-2.11281 0-.71857-.020643-1.42188-.05617-2.11281zm-6.499988-12.61393c1.562225 0 3.191663 2.15712 4.238267 5.8033-1.36347.40788-2.79271.94966-4.23827 1.60819-1.44604-.65853-2.87528-1.20031-4.23827-1.60819 1.04612-3.64619 2.67412-5.80331 4.23826-5.80331zm-12.852108 7.36337c.605878-1.04068 2.175305-1.26035 3.38514-1.26035 1.12342 0 2.41151.18631 3.7937.53272-.324062 1.35469-.56603 2.84376-.7163 4.43146-1.310655.92156-2.488324 1.87456-3.510444 2.83137-.435445-.44696-.834883-.89344-1.196873-1.33849-1.768185-2.17761-2.40767-4.07265-1.755223-5.19672zm3.38514 15.98708c-1.209835 0-2.779262-.21776-3.38514-1.25844-.780152-1.34374.287096-3.81964 2.942494-6.54236 1.040843.97158 2.226195 1.92792 3.521967 2.83851.14835 1.58579.391757 3.07486.7163 4.43146-1.38411.3426-2.6722.53082-3.79562.53082zm9.466968 6.10303c-1.562225 0-3.192143-2.15712-4.238267-5.80188 1.362986-.40741 2.792225-.94919 4.238267-1.60819 1.445562.659 2.8748 1.20078 4.238267 1.60676-1.04853 3.64618-2.67605 5.8033-4.23827 5.8033zm12.849707-7.36337c-.6054 1.04068-2.17531 1.26034-3.38466 1.26034-1.12342 0-2.412-.18631-3.79419-.53273.32454-1.3566.56651-2.84567.7163-4.43146 1.29241-.90869 2.47584-1.86169 3.51284-2.82947.43304.44505.83248.89153 1.19447 1.336582 1.77058 2.17761 2.41007 4.072655 1.75522 5.19672z"/>
      <path d="M40.115552 32.309166c-2.501768 0-4.536405 2.019412-4.536405 4.50246 0 2.483046 2.034637 4.504363 4.536405 4.504363s4.536405-2.01942 4.536405-4.50437c0-2.48305-2.034637-4.50246-4.536405-4.50246zm0 7.82129c-1.84356 0-3.343853-1.489067-3.343853-3.31883 0-1.829765 1.50029-3.31883 3.34385-3.31883s3.34385 1.489065 3.34385 3.31883c-.00192 1.829763-1.50029 3.31883-3.34385 3.31883z"/>
    </g>
  </g>
</svg>
