<svg width="80" height="80" viewBox="0 0 80 80" xmlns="http://www.w3.org/2000/svg">
  <title>
    qsp-quantstamp
  </title>
  <g fill="none" fill-rule="evenodd">
    <circle fill="#FFF" cx="40" cy="40" r="40"/>
    <path d="M28.57931 40c0-6.297517 5.123173-11.42069 11.42069-11.42069S51.42069 33.702483 51.42069 40c0 1.657655-.362897 3.22924-1.000966 4.652276l-7.535586-7.536414-5.767862 5.767862 7.536 7.536c-1.4625.658968-3.048173 1.000135-4.652276 1.000966-6.29793 0-11.42069-5.123173-11.42069-11.42069m30.92276 0c0-3.914483-1.164415-7.552138-3.149794-10.60676L64 21.745104 58.254897 16l-7.648138 7.647724C47.552134 21.662344 43.91448 20.49793 40 20.49793c-3.914483 0-7.552138 1.164415-10.60676 3.149794L21.745104 16 16 21.745103l7.647724 7.648138C21.662344 32.447866 20.49793 36.08552 20.49793 40c0 3.914483 1.16483 7.552138 3.150208 10.60676L16 58.254896 21.745103 64l7.648138-7.648138C32.44828 58.337655 36.08552 59.50207 40 59.50207c3.914483 0 7.552138-1.164415 10.60676-3.150208L58.254896 64 64 58.254897l-7.648138-7.648138C58.337655 47.55172 59.50207 43.91448 59.50207 40" fill="#000"/>
  </g>
</svg>
