<svg width="80" height="80" viewBox="0 0 80 80" xmlns="http://www.w3.org/2000/svg">
  <title>
    qtum-qtum
  </title>
  <g fill-rule="nonzero" fill="none">
    <circle fill="#FFF" cx="40" cy="40" r="40"/>
    <path d="M66.867 61.926l-.018-.027-9.134-8.26 4.343-13.427.012-.04v-.347L57.627 26c-.006-.038-.02-.075-.04-.108v-.034l-.12-.12c-.033-.07-.09-.12-.162-.147l-11.7-8.54-.068-.05H30.75c-.086 0-.106.014-.29.145-.09.063-.22.155-.383.273l-1.35.97-4.08 2.947-5.925 4.286-.017.013-.224.224v.157l-4.467 13.772-.013.04v.35l4.484 13.81v.003c-.003.093.033.184.1.25l.124.127 11.67 8.445c.045.083.13.136.225.143.053.03.113.045.174.045h14.67l.053-.053c.032-.007.063-.02.09-.037h.012l11.35-8.23 8.983 8.16c.06.056.13.098.208.124.156.047.322.047.477 0 .104-.037.19-.11.244-.207.092-.11.14-.253.136-.397 0-.155-.046-.306-.133-.434zM56.805 39.382l.607-9.83 3.15 9.83h-3.757zm3.756 1.236l-3.148 9.83-.607-9.83h3.756zm-35.07 11.14l3.778 8.738-8.93-6.494 5.153-2.243zM39.2 27.05l5.95-8.15 4.074 9.414-10.024-1.264zM50.58 28.24l-3.776-8.736 8.93 6.494-5.153 2.243zm.585 1.14l5.117-2.245-.64 10.45-.004.115-4.473-8.32zm-30.73 8.32l-.006-.11-.64-10.454 3.023 1.336 2.094.908-4.473 8.32zm23.59-19.42l-5.968 8.175-6.006-8.175h11.974zM55.11 40.618l-4.782 8.878-2.62-5.61-1.475-3.268h8.878zm-8.873-1.236l4.092-8.875 4.78 8.875h-8.873zm-7.02-11.047l10.128 1.267-4.166 9.03-5.964-10.297zm1.243 21.212l4.72-8.178 4.165 9.028-10.126 1.266 1.24-2.117zm-8.518-10.165l6.114-10.578 3.015 5.286 3.06 5.292H31.942zm12.188 1.236l-6.073 10.58L35 45.908l-3.058-5.29H44.13zm-8.387-10.34l-4.807 8.352-4.166-9.028 10.088-1.267-1.115 1.943zm1.113 21.387L26.77 50.4l3.134-6.825 1.03-2.206 5.922 10.295zm-15.85-12.283l4.78-8.874 2.622 5.737 1.468 3.137h-8.87zm8.873 1.236l-4.093 8.875-4.78-8.875h8.872zm25.76 1.675v.027l.64 10.543-3.023-1.336-2.093-.908 4.477-8.327zM20.338 25.998l8.93-6.494-3.776 8.737L20.338 26zm4.57 24.623l-5.118 2.245.64-10.54v-.03l4.477 8.326zm13.15 2.925l5.967 8.175H32.05l6.008-8.175zm17.677.457l-8.93 6.494 3.777-8.737L55.735 54zM26.85 28.312l4.075-9.414 5.948 8.15-10.023 1.265zm-11.34 11.07l3.15-9.83.606 9.83H15.51zm3.757 1.236l-.607 9.83-3.15-9.83h3.756zm17.606 12.334l-5.948 8.15-4.075-9.415 10.023 1.265zm12.35-1.264l-4.076 9.415-5.95-8.15 10.025-1.265z" fill="#2E9AD0"/>
  </g>
</svg>
