<svg width="80" height="80" viewBox="0 0 80 80" xmlns="http://www.w3.org/2000/svg">
  <title>
    qun-qun
  </title>
  <g fill="none" fill-rule="evenodd">
    <circle fill="#FFF" cx="40" cy="40" r="40"/>
    <path d="M39.815885 43.309864c.319547-.421782.541152-.67353.717695-.953755 1.189712-1.889143 2.373869-3.782001 3.552058-5.678574 1.383745-2.22756 3.181481-4.037258 5.400206-5.427857 1.191975-.74699 2.382921-1.49522 3.57428-2.243036 1.336213-.839023 2.691563-1.64957 4.003292-2.525324 1.270987-.848721 1.275103-2.013573.064403-2.940295-.136008-.104208-.281893-.195827-.426749-.287241-4.441152-2.797088-8.884156-5.591287-13.323251-8.391058-1.018313-.642165-2.127366-.946945-3.32181-.916818-1.42531.035699-2.81852.320257-4.050206 1.031136-3.890124 2.246131-7.750618 4.544056-11.609054 6.84487-.555144.330987-1.081893.740594-1.541975 1.195185-1.115844 1.102328-1.043622 2.680913.132716 3.72505.255144.226573.547942.411876.832098.603163 2.675103 1.801857 5.343622 3.613413 8.031276 5.39608 1.809671 1.200343 3.243004 2.733532 4.309671 4.626183.894033 1.586014 1.804938 3.162536 2.731687 4.729566.23251.393098.554321.733371.923663 1.212725M15.47432 26.112156c.07037-1.885842.843827-3.383537 2.450412-4.391768 2.642386-1.658237 5.299588-3.292331 7.95144-4.935092 2.826749-1.750888 5.616667-3.565745 8.491564-5.233268 3.431687-1.990668 7.016666-2.10932 10.456584-.10627 5.686831 3.311108 11.3 6.750154 16.91893 10.17682 3.444239 2.100446 3.44321 6.094577.04033 8.301088-3.164404 2.051955-6.327367 4.105973-9.506997 6.13399-2.361934 1.506363-4.238477 3.452253-5.601028 5.911751-1.363786 2.461974-2.770577 4.900012-4.158437 7.348573-.101646.17932-.198148.361527-.303498.53837-1.308436 2.196194-3.664197 2.210432-4.989506-.014651-1.809053-3.037074-3.59074-6.091482-5.332304-9.16797-1.146914-2.026367-2.685597-3.618159-4.696297-4.783836-3.054115-1.770285-6.085185-3.579984-9.130247-5.365745-1.68683-.989247-2.476337-2.496229-2.590946-4.411992" fill="#0662CD"/>
    <path d="M64.783436 44.276721c0 2.750866-.04465 5.50297.018107 8.25239.03354 1.467363-.493827 2.445467-1.77716 3.193076-7.23251 4.212656-14.446708 8.45709-21.63642 12.742795-1.118313.666514-2.019136.506386-3.04177-.10173-4.36358-2.59569-8.745061-5.160427-13.12037-7.7361-2.7786-1.635745-5.537654-3.306776-8.345679-4.89052-1.310288-.738943-1.89177-1.73046-1.880041-3.245283.043621-5.570652.007819-11.14151.030453-16.712163.002057-.52991.120164-1.095724.330864-1.580855.433745-.998945 1.32428-1.447965 2.330658-1.298154.937655.1397 1.701852.932913 1.84712 1.955588.047942.338003.03251.686117.032716 1.029692.001646 4.539103.030452 9.078413-.013786 13.617104-.018107 1.849112.741152 3.120028 2.319547 4.039528 5.246502 3.056471 10.476955 6.140594 15.694444 9.246383 1.569753.934357 3.059877.983882 4.644856.042095 5.279218-3.136122 10.574692-6.245213 15.873457-9.348114 1.539712-.901547 2.247943-2.200733 2.235185-3.992686-.032922-4.607612-.013168-9.215637-.005761-13.823661.000823-.409194.003292-.836135.11358-1.223868.280041-.98512 1.176338-1.601903 2.167901-1.564347 1.047531.040032 1.914815.805388 2.122634 1.912048.062757.334289.056379.684467.056996 1.027422.004115 2.819787.002263 5.639574.00247 8.45936" fill="#60B3FA"/>
  </g>
</svg>
