<svg width="80" height="80" xmlns="http://www.w3.org/2000/svg" xmlns:xlink="http://www.w3.org/1999/xlink">
  <defs>
    <path id="a" d="M.000443.184294h59.999376V60H.000443z"/>
  </defs>
  <g fill="none" fill-rule="evenodd">
    <circle fill="#000" cx="40" cy="40" r="40"/>
    <path d="M51.1722 45.4371c-.64-1.838-1.28-3.677-1.92-5.515-1.017-2.466-1.753-4.966-1.194-7.686.341-1.658.643-3.326.886-5.001.21-1.449-.023-2.793-1.306-3.751-1.844-1.378-4.155-.971-5.373 1.132-1.044 1.802-1.973 3.691-2.756 5.621-1.847 4.552-5.186 7.147-9.953 8.093-2.043.406-4.087.879-6.063 1.525-1.897.62-2.576 1.941-2.39 3.967.15 1.646.984 2.589 2.814 3.005.767.174 1.587.264 2.367.203 3.474-.274 6.733.368 9.764 2.104 2.051 1.243 4.101 2.486 6.152 3.728 1.819 1.161 3.621 2.351 5.464 3.475 1.525.932 3.052.691 4.457-.279 1.3-.897 1.882-2.592 1.357-4.231-.69-2.155-1.53-4.262-2.306-6.39m7.0474 14.9609c-1.846.065-3.253 1.443-3.249 3.182.005 1.809 1.624 3.389 3.457 3.376 1.815-.013 3.212-1.618 3.115-3.577-.093-1.879-1.397-3.048-3.323-2.981" fill="#FFF"/>
    <g transform="translate(10 10.8158)">
      <mask id="b" fill="#fff">
        <use xlink:href="#a"/>
      </mask>
      <path d="M42.3661 54.9641c-.572 2.736-2.41 3.795-4.514 4.212-10.776 2.135-20.519.295-28.719-7.564-4.542-4.353-7.58-9.645-8.601-15.691-2.031-12.023 1.748-22.072 11.492-29.724 6.594-5.178 14.198-6.712 22.218-5.736 5.766.701 11.011 3.158 15.419 7.182 4.37 3.987 7.547 8.652 9.16 14.396 2.301 8.192 1.195 15.884-2.984 23.23-.854 1.501-2.081 2.119-3.689 1.971-1.577-.144-2.627-.831-3.198-2.568-2.188-6.66-4.635-13.234-6.85-19.885-.817-2.455.134-4.933.62-7.342.758-3.761-.997-7.388-4.316-8.772-3.665-1.528-8.089-.042-9.702 3.411-.965 2.067-2.068 4.074-2.953 6.174-1.323 3.143-3.751 4.784-6.948 5.497-1.927.431-3.87.79-5.784 1.269-3.493.873-6.069 4.157-6.032 7.591.042 3.824 3.339 7.246 7.178 7.439.6.03 1.21.07 1.803.002 3.312-.379 6.2.562 9.012 2.343 4.444 2.814 9.057 5.36 13.587 8.04 2.835 1.677 2.824 1.693 3.801 4.525" fill="#0397B2" mask="url(#b)"/>
    </g>
  </g>
</svg>
