<svg width="80" height="80" viewBox="0 0 80 80" xmlns="http://www.w3.org/2000/svg">
  <title>
    rads-radium
  </title>
  <defs>
    <linearGradient x1="50%" y1="0%" x2="50%" y2="100%" id="a">
      <stop stop-color="#DB9AFA" offset="0%"/>
      <stop stop-color="#766ADF" offset="100%"/>
    </linearGradient>
  </defs>
  <g fill="none" fill-rule="evenodd">
    <circle fill="#FFF" cx="40.5" cy="40.5" r="36.5"/>
    <path d="M40 0C17.92 0 0 17.92 0 40s17.92 40 40 40 40-17.92 40-40S62.08 0 40 0M28 18c5.523 0 10 4.477 10 10s-4.477 10-10 10-10-4.477-10-10 4.477-10 10-10zm24 37c-1.657 0-3-1.343-3-3s1.343-3 3-3 3 1.343 3 3-1.343 3-3 3zm0 7c-5.523 0-10-4.477-10-10s4.477-10 10-10 10 4.477 10 10-4.476 10-10 10zm0-31c-1.657 0-3-1.343-3-3s1.343-3 3-3 3 1.343 3 3-1.343 3-3 3zm-24 0c-1.657 0-3-1.343-3-3s1.343-3 3-3 3 1.343 3 3-1.343 3-3 3zm0 24c-1.657 0-3-1.343-3-3s1.343-3 3-3 3 1.343 3 3-1.343 3-3 3zm10.094-3.047c0 5.55-4.498 10.047-10.047 10.047C22.497 62 18 57.502 18 51.953c0-5.55 4.498-10.047 10.047-10.047 7.654 0 13.86-6.206 13.86-13.86C41.906 22.5 46.403 18 51.952 18 57.503 18 62 22.498 62 28.047c0 5.55-4.498 10.047-10.047 10.047-7.653 0-13.858 6.205-13.858 13.86" fill-rule="nonzero" fill="url(#a)"/>
  </g>
</svg>
