<svg width="80" height="80" viewBox="0 0 80 80" xmlns="http://www.w3.org/2000/svg">
  <title>
    rby-rubycoin
  </title>
  <g fill="none" fill-rule="evenodd">
    <circle fill="#FFF" cx="40" cy="40" r="40"/>
    <g fill-rule="nonzero">
      <path d="M34.043528 66.70735C19.581108 63.12 10.761118 48.48135 14.347 34.0091c2.405555-9.715303 9.986517-17.301432 19.696528-19.70995V8.6552C16.464943 12.23215 5.115768 29.390525 8.69028 46.98115c2.5987 12.781925 12.579985 22.77275 25.352923 25.370475V66.70735h.000325zm4.385308-53.109225c.700674-.055575 1.404272-.09165 2.114692-.09165 1.064414.000023 2.127913.062422 3.185033.186875v-5.5328C42.66743 8.055683 41.60575 8.002167 40.54353 8c-.720165 0-1.414018.0325-2.114692.0754v5.522725z" fill="#231F20"/>
      <path d="M48.112894 8.89765v5.6875c7.84308 2.30528 14.224566 8.03369 17.362568 15.5857h-6.18036C53.59258 19.812125 40.58121 16.03855 30.226687 21.7449c-10.354523 5.70635-14.121665 18.72715-8.419466 29.0875 5.7022 10.36035 18.714548 14.131325 29.06842 8.4253 4.2605-2.34883 7.594446-6.079327 9.452775-10.577125h5.934783c-2.729055 8.562975-9.528943 15.211853-18.148026 17.745v5.683275c17.43793-4.2029 28.17154-21.753875 23.974963-39.203775C69.235733 21.03881 59.977003 11.772938 48.11744 8.9139l-.003247-.01625h-.0013zM45.585657 54.4204l-6.258645-8.89395H28.90752v-5.4639h12.23306c2.988506 0 4.062418-1.873625 4.062418-4.104425S43.851025 31.6899 40.819966 31.6899H28.91077v-5.1025h12.534183c3.970814 0 10.282083 1.755 10.282083 9.17215s-5.57811 8.893625-5.57811 8.893625l7.175337 9.77145H45.60872l-.023063-.00325V54.4204z" fill="#D31F26"/>
      <path d="M43.729535 67.3125c-1.05712.124454-2.12062.186853-3.185032.186875-.720165 0-1.414018-.036075-2.114693-.09165v5.516225c.700675.045825 1.404273.0754 2.114693.0754 1.06369-.0003 2.126698-.053883 3.185032-.16055v-5.5263" fill="#231F20"/>
    </g>
  </g>
</svg>
