<svg width="80" height="80" xmlns="http://www.w3.org/2000/svg" xmlns:xlink="http://www.w3.org/1999/xlink">
  <defs>
    <path id="a" d="M.000003.000129h63.887706v56.796434H.000003z"/>
  </defs>
  <g fill="none" fill-rule="evenodd">
    <circle fill="#FFF" cx="40" cy="40" r="40"/>
    <g transform="translate(8 12)">
      <mask id="b" fill="#fff">
        <use xlink:href="#a"/>
      </mask>
      <path d="M46.44131 19.124558c-3.555492 3.508144-7.025455 6.93167-10.344146 10.205938-.891928-.836196-1.6896-1.584248-2.447128-2.29469 1.997382-2.013805 3.993018-4.026434 5.988655-6.038475-.270546-.129278-.437527-.117526-.60451-.108124-.203054.011753-.405526.022918-.608.032907-5.127563.246805-10.127708 1.17467-14.967854 2.911701-5.693673 2.043186-10.731636 5.121186-14.811927 9.685887-.228073.255619-.435782.530041-.61149.745701 3.157526 13.096485 16.781963 22.525577 31.781817 17.72465 6.431418-2.058464 11.108655-6.339928 14.28771-12.361361 2.095709-3.968846 3.132509-10.57732 2.450036-12.493578-.968727.842073-1.901964 1.71529-2.897455 2.509176-4.473018 3.569257-9.4976 6.01732-14.989964 7.536928-4.237381 1.172907-8.530036 1.945051-12.923345 2.13368-.411345.017629-.819782.090495-1.229964.137505-.037236.069928-.075054.140443-.11229.210371 2.473309 2.455114 4.9472 4.910815 7.342545 7.288361-.823273.851474-1.589527 1.643598-2.221382 2.297041l-11.574109-11.6897c3.295418-3.32833 6.676945-6.743042 10.036364-10.136011.741818.744526 1.534836 1.540763 2.37789 2.388124-1.963636 1.983835-3.9424 3.98236-6.05149 6.112515.537018-.043484.851782-.07933 1.167709-.092845 3.457164-.14867 6.861382-.66402 10.22429-1.474949 5.643637-1.360948 10.910255-3.553391 15.525819-7.179062 1.764073-1.386216 3.410618-2.898185 4.781964-4.648144-2.504728-11.43702-14.149819-21.28803-28.644073-18.57436-13.841455 2.590855-20.929164 15.61036-19.91331 25.696422 1.19331-1.008959 2.347637-2.073155 3.589237-3.019825 7.177891-5.475525 15.426327-8.03465 24.251927-8.980732 1.403928-.150433 2.816582-.222123 4.225164-.330247.049454-.069928.09949-.139856.148945-.209784-2.483781-2.512113-4.968145-5.024226-7.346036-7.429391.666182-.714557 1.4144-1.517258 2.189964-2.34934 3.95869 3.914195 7.909818 7.820164 11.928436 11.79371m12.260073-.140443c.692945-1.316876 1.299782-2.478618 1.915345-3.63566.404364-.759804 1.126982-1.137061 1.859491-.987216.794182.162773 1.408.780959 1.411491 1.564856.001745.418392-.115782.884381-.32 1.249299-1.183418 2.110175-2.408145 4.196258-3.7184 6.463917 1.096727 6.915217-.087854 13.63534-3.921454 19.796042-3.450182 5.546628-8.240873 9.515474-14.375564 11.65503-7.299491 2.545609-14.549527 2.282939-21.578473-1.05832-7.008582-3.331855-11.667782-8.92667-14.78109-16.189174-.654546 1.22168-1.2544 2.308206-1.821673 3.411773-.461382.898484-1.205528 1.327453-2.027637 1.114732-1.175854-.30498-1.713454-1.482588-1.065309-2.644918 1.1072-1.986773 2.317964-3.914196 3.487418-5.865123.0896-.14867.200728-.284413.332218-.469516-1.028072-6.45099-.290909-12.711 2.977164-18.416289C11.208727 7.758053 17.204364 2.76497 25.3632.7923c13.319564-3.220206 27.918546 3.482289 33.338182 18.191814" fill="#4357FE" mask="url(#b)"/>
    </g>
  </g>
</svg>
