<svg width="80" height="80" viewBox="0 0 80 80" xmlns="http://www.w3.org/2000/svg">
  <title>
    Group 34
  </title>
  <g fill="none" fill-rule="evenodd">
    <circle cx="40" cy="40" r="40" fill="#000"/>
    <g fill-rule="nonzero">
      <path d="M41.922 17.343c-.767-.077-1.537-.116-2.308-.115-6.672 0-12.668 2.868-16.803 7.425l3.63 9.716 16.364-5.61-.882-11.417z" fill="#0089CE"/>
      <path fill="#E30613" d="M34.087 54.392l10.11-8.15-1.393-17.483-10.98 20.01 2.263 5.622"/>
      <path d="M44.082 46.314l-9.995 8.078 2.79 7.444c2.844.34 5.726.147 8.495-.572L44.197 46.24l-.115.092v-.018z" fill="#E9453F"/>
      <path fill="#CA1416" d="M42.81 28.84l-.006-.08-16.362 5.61 5.38 14.4 10.99-19.93"/>
      <path d="M22.81 24.653c-3.153 3.477-5.224 7.937-5.686 12.86l9.317-3.143-3.63-9.717z" fill="#0156A3"/>
      <path d="M26.44 34.37l-9.316 3.143c-.065.692-.1 1.392-.1 2.1 0 7.715 3.938 14.518 9.93 18.544l4.87-9.387" fill="#149F39"/>
      <path d="M31.823 48.77l-4.868 9.387c.57.384 1.16.742 1.768 1.073l5.364-4.838-2.264-5.622z" fill="#28A737"/>
      <path d="M28.723 59.23c2.524 1.38 5.293 2.265 8.155 2.606l-2.79-7.444" fill="#82BB2B"/>
      <path d="M45.373 61.265c9.687-2.523 16.83-11.26 16.83-21.65.003-2.357-.37-4.697-1.106-6.937l-16.9 13.563 1.176 15.025z" fill="#FECC00"/>
      <path d="M47.892 18.78l-5.088 9.98.007.08 1.387 17.4 16.9-13.562c-2.09-6.356-6.967-11.463-13.205-13.9" fill="#EF7900"/>
      <path d="M42.804 28.76l5.088-9.98c-1.914-.75-3.923-1.232-5.97-1.437l.877 11.345.004.07z" fill="#23A9E1"/>
      <path d="M43.518 23.655l.52-2.304c6.765 2.796 10.972 7.106 13.25 12.588l-2.03 1.413c-2.685-5.475-6.472-9.537-11.74-11.695" fill="#000"/>
      <path d="M64.982 23.433c0-5.21-4.262-9.433-9.52-9.433-5.256 0-9.518 4.224-9.518 9.433 0 .497.04.992.118 1.482 3.17 1.848 5.715 4.5 7.75 7.807.545.096 1.098.144 1.652.144 5.256 0 9.518-4.223 9.518-9.433z" fill="#E30613"/>
    </g>
  </g>
</svg>
