<svg width="80" height="80" viewBox="0 0 80 80" xmlns="http://www.w3.org/2000/svg">
  <title>
    rdn-raiden-network-token
  </title>
  <g fill="none" fill-rule="evenodd">
    <circle fill="#FFF" cx="40" cy="40" r="40"/>
    <path d="M60.967828 44.079124H48.849914c.018642-.37738.05133-.746426.05276-1.11552.012208-3.128443-.630217-6.132447-1.759338-9.04053-1.472807-3.793128-3.689065-7.116614-6.46281-10.08407-3.045005-3.257607-6.58355-5.88972-10.431357-8.127116-2.27025-1.320072-4.62395-2.474938-7.03833-3.509076-.07447-.031872-.14684-.068522-.21084-.148025h.26549c7.788262 0 15.576525.000763 23.36479-.004066.21094-.00015.36616.055668.52163.19927 3.626345 3.350225 6.55347 7.2349 8.906097 11.55542 1.82829 3.35759 3.178876 6.89681 4.01048 10.62823.667965 2.99699.972986 6.029714.899898 9.099444-.00424.176136-.000563.352474-.000563.546045M31.73442 33.372807c5.013855 8.990406 10.02776 17.980915 15.053108 26.99191-5.02887 3.2022-10.045382 6.39652-15.09412 9.611376v-36.59063c.013636-.004218.027324-.008437.041013-.012656" fill="#000"/>
  </g>
</svg>
