<svg width="80" height="80" viewBox="0 0 80 80" xmlns="http://www.w3.org/2000/svg">
  <title>
    real-real
  </title>
  <g fill="none" fill-rule="evenodd">
    <circle fill="#FFF" cx="40" cy="40" r="40"/>
    <path d="M65.718232 38.57143c-.353337-.10343-.721608-.172287-1.05832-.316-5.24962-2.245144-10.48825-4.516-15.744067-6.746-2.832613-1.201716-5.692276-2.337144-8.539823-3.50286-.395884.12486-.805293.21686-1.185398.379716-7.583784 3.245428-15.16278 6.502-22.74769 9.744857-.460127.19657-.96111.295714-1.442934.440286V38c.09242-1.614286.09242-6.757143 0-7.714286v-.571428c.305437-.059715.631724-.068286.913492-.186286 8.14732-3.41657 16.290414-6.844286 24.43407-10.270286 5.24342 2.192857 10.48036 4.401143 15.732234 6.572572 3.201165 1.324 6.424872 2.591428 9.638436 3.884v8.857143z" fill="#020203"/>
    <path d="M65.718232 54.857143c-.48267-.12543-.98957-.192572-1.44406-.386286-4.48293-1.90857-8.95036-3.855428-13.436387-5.75657-3.481807-1.475716-6.984465-2.902-10.477824-4.350573-.46069.165143-.93096.306-1.38038.498286-7.65958 3.276286-15.31549 6.562-22.97846 9.830857-.30261.129143-.66609.112857-1.00112.164286v-.57143c.09271-1.425713.09271-6.378 0-7.42857v-.57143C23.45642 42.737713 31.91256 39.19 40.36898 35.642c7.92557 3.321143 15.84973 6.64657 23.780934 9.954.49394.206286 1.044232.27257 1.56832.404v8.857143z" fill="#020203"/>
    <path d="M64.309392 62H16.40884c.313326-.273714.583823-.651714.94674-.805714 7.6562-3.248572 15.322823-6.472572 22.987194-9.700857 7.770314 3.25828 15.541756 6.51257 23.303336 9.79114.27191.11457.44463.47143.663284.71543" fill="#020203"/>
    <path d="M40.369034 35.64203c.002254-2.545144.00451-5.090287.006763-7.63543 2.847547 1.16543 5.70749 2.301143 8.540105 3.502857 5.255535 2.23 10.494447 4.500857 15.744066 6.745714.336713.144.704702.21286 1.05832.31629v7.42857c-.524088-.13143-1.074663-.19771-1.56832-.404-7.931486-3.30743-15.855365-6.63286-23.780934-9.954" fill="#4A87D8"/>
    <path d="M40.342886 51.493314c.005635-2.376286.01099-4.753143.016624-7.12943 3.49364 1.448287 6.9963 2.874573 10.478387 4.350287 4.486028 1.90143 8.953177 3.848 13.436387 5.75686.45421.19372.961392.26057 1.44406.386v7.14286h-1.40884c-.218933-.24371-.391375-.60057-.66328-.71514-7.76158-3.27886-15.533305-6.53314-23.303338-9.79143" fill="#4A87D7"/>
    <path d="M40.347704 19.2578c.014652-2.318857.029304-4.637715.043956-6.956857.356437.096857.730624.152 1.067337.29657 5.22764 2.24543 10.44232 4.521144 15.677006 6.748858 2.844165 1.21 5.720453 2.34315 8.58237 3.51086v6.85715c-3.213845-1.292855-6.437553-2.56-9.638718-3.884-5.25159-2.171712-10.488813-4.379712-15.73195-6.57257" fill="#4C89D9"/>
    <path d="M65.718232 22.857143c-2.861917-1.167714-5.737923-2.300857-8.582088-3.510857-5.234967-2.227715-10.449647-4.50343-15.677288-6.748572-.336712-.144857-.710618-.199714-1.067337-.29657-.10482-.100573-.20936-.200573-.31418-.301144h25.64089v10.857143z" fill="#FCFDFD"/>
    <path d="M15 30.285714c.093714.957143.093714 6.1 0 7.714286v-7.714286z" fill="#151515"/>
  </g>
</svg>
