<svg width="80" height="80" viewBox="0 0 80 80" xmlns="http://www.w3.org/2000/svg">
  <title>
    rec-regalcoin
  </title>
  <g fill="none" fill-rule="evenodd">
    <circle fill="#9C9C9C" cx="40" cy="40" r="40"/>
    <circle fill="#F8F8F8" cx="40" cy="40" r="37"/>
    <path d="M75.991044 33.95901c.875753 6.537698.49876 12.9646-2.044956 19.111503C68.631753 65.91122 59.073523 73.57246 45.39777 75.988035c-2.241416.396107-4.57522.267965-6.86655.382655.12708-2.242124 1.930975-2.73345 3.55823-3.415575 1.99894-.837522 3.99363-1.684602 5.99009-2.527434 2.464425-1.05132 4.92885-2.103 7.393628-3.15469-.07292-.11964-.14584-.23893-.21876-.35893-2.63363.92354-5.267612 1.84673-7.90124 2.77027-1.178407.35292-2.356814.7062-3.53522 1.05912-.24779-.8092-.495576-1.61876-.92531-3.0223 1.291327.54159 2.230088.93558 3.755397 1.57522-.426548-1.14088-.733805-1.96283-1.04106-2.78442 1.64283-.57487 3.285308-1.15009 4.927786-1.72531.70337-.59894 1.40708-1.19788 2.11009-1.79681-.1069-.70548-.2138-1.41132-.3207-2.11646.71009-.28106 1.42018-.56248 2.13027-.84354 2.13098-.06513 4.26195-.13097 6.39292-.1961 1.41452-.8 2.39115-1.72283 1.17062-3.44849-.31894-.45204-.44566-1.04-.66088-1.56531.5246-1.48212.95823-3.00531 1.6039-4.43221.47929-1.05947 1.16106-2.05097 1.88106-2.97239 1.35575-1.73487 3.2616-3.19894 4.10018-5.13841 1.08991-2.51964.89558-5.64566 4.01664-6.99929.22301-.09663.40673-.45168.47151-.71964.46514-1.92141 1.3954-1.73416 2.56071-.59894" fill="#F8F8F8"/>
    <path d="M75.991044 33.95901c-1.16531-1.135222-2.095575-1.32248-2.560708.598937-.06478.267965-.248495.62301-.471504.719646-3.121062 1.353628-2.926726 4.479646-4.016637 6.999292-.838584 1.93947-2.744425 3.40354-4.100177 5.138407-.72.921416-1.40177 1.91292-1.881062 2.97239-.645664 1.426902-1.079292 2.950088-1.603186 4.432212-.07646-.22407-.153274-.448142-.23009-.672213-.275043-2.30159-.63646-4.59858-.751857-6.90796-.02301-.46017.82301-1.10265 1.40177-1.40531.392212-.20495 1.018053.03717 1.539115.07929 2.579115-.15858 4.094867-1.71894 3.757876-4.0977-.280354-1.97911-1.564602-3.81593-2.404248-5.71575.128142-.58973.256283-1.17982.384425-1.76991 1.06231-.15044 2.12496-.30088 3.18762-.45097h2.4662c-.92212-1.23787-1.51787-2.03681-2.11363-2.83646l4.57416-5.94655c.84496 2.57806 1.68956 5.15646 2.53452 7.73416.09593.37593.19151.75257.28744 1.1285" fill="#E2E2E2"/>
    <path d="M48.07968 70.427823c-1.99646.842832-3.991503 1.689557-5.990087 2.527434-1.62761.68177-3.43115 1.17345-3.55823 3.41522-.609912.02655-1.220177.053098-1.830443.08071-3.06407-.713276-6.12814-1.426904-9.191858-2.140178.110088-2.29593 1.29062-3.36425 3.604956-3.22054 1.042478.06513 2.092035.01557 3.138407.01805 2.589026-.11646 5.1777-.23292 7.766725-.34974.6-.00531 1.199292-.01062 1.798938-.01522 1.178408-.35292 2.356815-.70655 3.534868-1.05947.242478.24814.484602.49593.726725.74372" fill="#E9E9E9"/>
    <path d="M52.683363 12.379894c1.806725.795398 3.57522 1.70478 5.439646 2.32708.68955.230088 1.6046-.214514 2.41699-.351505-.61522-.56602-1.23045-1.13204-2.29558-2.11151.24318-.76708.65486-2.06584 1.06619-3.3646 2.38371 1.98548 4.76743 3.97097 7.1515 5.95646 1.17345 1.45805 2.37486 2.89451 3.50725 4.38371.44955.59079.7469 1.2977 1.11363 1.95185-.97275 1.34265-1.94514 2.68531-2.91717 4.02761-.05593-.47505-.09983-.95151-.17062-1.42372-.11044-.73876-.23894-1.47469-.35965-2.21168l-1.51894 1.04637c-.56885-1.52567-1.1377-3.05204-1.82903-4.9069-2.49027-.62868-.78974 2.25062-2.15752 2.87964 2.69947.58194 2.75716.6754 1.87504 2.83929-.3108.76283-.8269 1.47646-.96354 2.2623-.09203.52849.31788 1.14407.70053 2.33451-1.14265 1.88035.97451 3.99115 1.31257 6.3115-.12814.59009-.25629 1.18018-.38443 1.76991-.21947-.00779-.43894-.01487-.65841-.0223-1.06726-.01062-2.13416-.02124-3.20142-.03222.51009-.29239 1.02053-.58514 1.20566-.69168-.31823-1.02408-.51788-1.66726-.75894-2.44284-.27894-.08283-.80461-.23929-1.38372-.41133.46018-.97275 1.3869-2.06124 1.13699-2.56-.9108-1.81699.4538-2.94549.88743-4.34797.12495-.40425.22832-.81523.34159-1.22372-.19045-.13416-.38124-.26867-.57204-.40283-.50761.54867-1.13876 1.02796-1.49558 1.66159-.59859 1.06301-1.0223 2.22407-1.52 3.34407-.65876-2.8577-3.03823-4.84531-6.00354-5.01451 1.47965-1.45239 3.04212-2.83221 4.41062-4.38301.98088-1.11115.99752-2.15292-.47328-3.22832-1.47717-1.08035-2.61558-2.62442-3.9023-3.96531" fill="#CCC"/>
    <path d="M68.16577 25.198974c.97239-1.3423 1.94478-2.684956 2.917168-4.02761.695575 1.307963 1.390797 2.616636 2.086372 3.924955-1.524956 1.9823-3.049558 3.96424-4.57416 5.94654-.21239-.00567-.424778-.01133-.636814-.01699-.360354-.42903-.720708-.85841-1.081062-1.28744.368496-.51399.73699-1.02761.877876-1.22443.195045-1.5731.302655-2.44425.41062-3.31505" fill="#E0E0E0"/>
    <path d="M42.019115 70.758973c-2.588673.11646-5.1777.23292-7.766372.349027-2.860177-.745133-5.713982-1.516106-8.5823-2.227965-2.232213-.553628-3.586903.408496-4.162478 2.579115-.700177-.236106-1.400708-.472212-2.10053-.708318-2.357877-2.13593-4.7154-4.27186-7.072922-6.407434 1.76177-1.996106 3.524248-3.992212 5.286372-5.988318 1.33345.601062 2.615575 1.44637 4.013805 1.740885 1.69239.35646 3.482832.24708 5.230797.339115-.649204.041416-1.298053.08283-1.648142.105132.456637 1.15292.849204 2.144425 1.24177 3.136284-.37168-.19823-.757522-.375222-1.112212-.600708-.474337-.301593-1.08354-1.014514-1.35823-.898054-1.21416.514337-2.32885 1.26301-3.48 1.92708.486017.529204 1.00885 1.537345 1.450973 1.50301 1.734867-.134868 3.58301-.253098 4.801416-1.84071.367788-.96885.735575-1.938406 1.103363-2.90761.438584-.102654 1.264425-.233274 1.259115-.303716-.165664-2.286018 1.740885-1.812744 2.94124-2.258762l3.980176.744425c-1.537345.83045-3.07469 1.66089-4.612036 2.49098-2.586194 2.07151-2.52708 2.38301-.194336 3.70443-.682832.80637-1.56885 1.85204-2.854513 3.36956 2.16496.67823 3.32992 1.04284 4.49523 1.40779 1.98195.22867 3.96354.45735 5.94549.68602 1.06478.01947 2.12956.03894 3.19434.05876" fill="#CACACA"/>
    <path d="M21.508035 71.45901c.575222-2.17062 1.930266-3.132745 4.162478-2.578762 2.86832.711858 5.722124 1.482478 8.581947 2.227964-1.04637-.002123-2.09593.047434-3.138407-.0177-2.314336-.143715-3.494867.924603-3.604956 3.220532-2.000708-.950796-4.001062-1.90124-6.001062-2.852035" fill="#D7D7D7"/>
    <path d="M17.62078 58.35508c-1.762125 1.996106-3.524603 3.992212-5.286373 5.988318-1.753274-2.373097-3.506195-4.74584-5.259115-7.118938-.117876-.33876-.236106-.677876-.354336-1.016637 2.526017-2.604956 5.102655-5.164248 7.53416-7.854513.466902-.51646.363893-1.547965.523893-2.341947.23964.004956.47929.009557.71893.014513.90407-.017345 1.84248.114336 2.70478-.084602 1.50407-.347256 1.92778.572744 1.32601 1.461593-1.85629 2.742655-.57204 5.66761-.83151 8.487788-.35894.82124-.71753 1.642832-1.07646 2.464425" fill="#E6E6E6"/>
    <path d="M38.824814 70.700212c-1.981947-.228672-3.96354-.457345-5.94584-.685663.967787-.40284 1.93593-.80638 2.72283-1.13416-.747963-2.21593 1.273276-1.84461 2.697346-2.20779-.844955-.18974-1.390088-.31257-2.214867-.4977.366726-.59186.622655-1.00425.87823-1.41664l1.16708.74336c.497345-.03505 1.01699.01026 1.48885-.11894 2.001415-.54938 3.988672-1.15045 5.981238-1.73275.94478-.37239 1.88921-.74478 2.83399-1.11752-.10301-.26053-.20566-.52071-.30832-.78124-1.75929 1.6269-7.95504-.44885-10.02938-3.66974h5.05522c-.5738-3.26938.21098-5.49451 2.04036-6.15611 1.52744.36779 3.16213 1.47504 3.84425.39292 2.44991-1.00566 4.34726-1.37912 5.70478-2.44212 1.75682-1.37664 2.95752-1.27753 4.26478.33593-.1069 1.53592-.21345 3.0715-.32035 4.60743l-.0007.00071c-.82194.24637-1.64389.49274-2.46548.73947-1.40531-.35611-2.81062-.71257-3.98938-1.01133-.15009 1.04566-.30301 2.11186-.45593 3.1784-2.44566-1.02301-4.65168-1.94584-6.85769-2.86867-.12496.26725-.24991.53486-.37487.80212.89593.71044 2.16885 1.24 2.61345 2.16672 1.09664 2.28849 3.01806 2.76778 5.16956 3.04637.1069.70513.21416 1.41097.32106 2.1161-.64779-.1823-1.29557-.36425-1.94301-.5462-.05593.78124-.1115 1.56248-.16708 2.34336-1.64283.57522-3.28531 1.15044-4.92814 1.72531-2.56106.6138-5.12177 1.22832-8.12743 1.94938.43823.7292.89204 1.48389 1.34549 2.23894" fill="#ECECEC"/>
    <path d="M52.324 60.873416c-2.151504-.278584-4.07292-.75823-5.169557-3.046372-.444602-.92708-1.717523-1.456637-2.613452-2.16708.12496-.266902.24992-.534513.37487-.80177 2.20602.92248 4.41204 1.845664 6.8577 2.86832.15292-1.066195.30584-2.13239.45558-3.178054 1.17912.29876 2.58443.654867 3.98938 1.010974-.3154 1.43823.39717 3.400708-1.94124 3.807433.05912.220885.11823.44177.17735.66301-.71044.28106-1.42053.562477-2.13062.84354" fill="#C9C9C9"/>
    <path d="M38.824814 70.700212c-.45345-.755044-.907257-1.509734-1.345487-2.238938 3.005664-.721062 5.566372-1.335575 8.127434-1.94938.30726.821593.61452 1.643894 1.04142 2.784425-1.52531-.6393-2.46407-1.03363-3.7554-1.57523.42974 1.40354.67717 2.2131.92496 3.0223-.59929.00495-1.19858.00991-1.79858.01522l-3.19433-.05841" fill="#EDEDED"/>
    <path d="M54.454478 60.02991c-.059115-.221237-.11823-.442122-.177345-.663007 2.338407-.406726 1.62584-2.369204 1.941593-3.807434.821947-.24638 1.64354-.49275 2.465486-.73947-.041062.52424-.021593 1.06124-.13345 1.56991-.46832 2.12849.120353 2.67115 2.143008 2.13522.049557.42088.101593.86478.153628 1.30832l-6.39292.19646" fill="#B5B5B5"/>
    <path d="M60.84722 59.833593c-.052034-.44354-.10407-.887434-.153627-1.30832-2.0223.535577-2.611328-.006724-2.14301-2.135574.112213-.50832.09239-1.04567.133452-1.56956l.001062-.00071c.81416-.22407 1.62832-.44779 2.442478-.67151.076814.22371.153628.44778.23009.67186.214512.52531.341238 1.11327.66053 1.56531 1.220177 1.72601.24354 2.64849-1.170974 3.44849" fill="#818181"/>
    <path d="M48.07968 70.427823c-.242123-.247788-.484246-.495575-.726724-.743717 2.633982-.923186 5.26761-1.84637 7.901593-2.770265.07292.12.14548.23965.2184.3593-2.46443 1.05168-4.92885 2.10301-7.39328 3.15469" fill="#D7D7D7"/>
    <path d="M50.534903 64.78655c.055575-.780886.11115-1.562125.16708-2.343364.647433.1823 1.29522.363894 1.943008.546195-.70336.5993-1.40672 1.19859-2.11008 1.79717" fill="#AAA"/>
    <path d="M66.877204 29.738513c.360354.429027.720708.858407 1.080708 1.287434-.586903.28354-1.17416.56708-1.761062.850265.68177.667965 1.363893 1.335576 2.045663 2.003186-1.062655.15009-2.12531.30053-3.18761.450974-.338407-2.320354-2.455576-4.43115-1.31292-6.311505-.382656-1.190442-.792567-1.806017-.700532-2.334513.13664-.78584.6531-1.49947.9639-2.2623.88177-2.163895.82407-2.257346-1.87504-2.839293 1.36779-.62902-.33309-3.50831 2.15717-2.87964.69168 1.85487 1.26053 3.38124 1.82938 4.90691-.50371.38655-1.49982.92637-1.43433 1.13593.62974 2.02938 1.43752 4.00319 2.19469 5.99257" fill="#9C9C9C"/>
    <path d="M61.127575 54.147752c-.81416.22407-1.628318.447788-2.442478.671505.10655-1.535576.213452-3.07115.320354-4.60708.31186-.74584.88071-1.490973.88284-2.237522.00531-1.74655-.26159-3.493805-.47327-5.8577 1.21204 1.044603 1.8223 1.57062 2.43257 2.096638l1.83151.415575c-.1207.42832-.24177.856283-.36247 1.284602-.52106-.042124-1.1469-.284248-1.53911-.079292-.57876.302655-1.42478.945133-1.40177 1.404956.1154 2.309734.47682 4.606725.75186 6.908318" fill="#B5B5B5"/>
    <path d="M63.316637 45.91384c.120708-.428318.24177-.856282.362124-1.284955.80213-.926726 2.32248-1.915752 2.24885-2.766726-.13132-1.51965-1.22442-2.95611-1.91575-4.42761v-1.35647c.21947.00708.43894.01451.65841.02194.83965 1.90017 2.1239 3.73699 2.40425 5.7161.33699 2.37876-1.1784 3.93911-3.75787 4.0977" fill="#939393"/>
    <path d="M68.242478 33.87947c-.68177-.667966-1.363894-1.335222-2.045664-2.003187.586903-.283186 1.17416-.566726 1.761062-.85062.21239.005664.42478.011682.637168.016992.595753.799646 1.19115 1.598938 2.11363 2.836814h-2.466196z" fill="#727272"/>
    <path d="M52.683363 12.379894c1.286726 1.340885 2.425133 2.884956 3.9023 3.96531 1.470797 1.075398 1.45416 2.117168.473275 3.228318-1.368495 1.550797-2.930973 2.93062-4.41062 4.383363-.430442.300885-.861238.601416-1.955398 1.365664 2.070443.51079 3.430443.84601 4.790443 1.18123-.09522.86159-.190443 1.72318-.259115 2.34301 2.49062 1.35964.508318 2.65345.45699 4.17062-.41522-.47646-.57876-.66407-.899114-1.03186v5.1692c-1.659115-.83646-3.31823-1.67257-4.977345-2.50938-.1154.00743-.23151.01097-.34726.01062.67894-.6216 1.35823-1.24284 2.03717-1.86407-2.13947-3.35151-5.25664-4.1554-7.34797-1.78726-.21699-.41558-.41487-.79399-.75399-1.44354-.37947 2.56424 1.23646 2.98867 2.83044 3.4407.95929.27186 2.06761.4938.75787 1.75327-1.14478-.25487-2.28921-.50974-3.43398-.76496l-4.71363-.8131c-.21345-.9377-.42726-1.87576-.64071-2.8131-.71646.34548-1.43328.69097-2.21735 1.06867-.10938-.47469-.22407-.9731-.56248-2.4439-.40248 3.4977-2.10443 2.59929-3.60779 2.39115-.59434-.08248-1.22301.08354-1.83575.13699-.23505.06973-.47009.13947-.70549.20885-.13983-.49133-.27965-.98337-.25133-.8839 1.58655-.69133 3.08601-1.34549 4.58619-1.99752.10265-.0446.22372-.05699.3154-.11646.93663-.6085 1.86902-1.22301 2.80318-1.83646 1.52425.72424 3.04885 1.44814 4.08212 1.93911 1.65168-1.66691 3.30725-3.33806 4.69911-4.7423-.24213-.51753-.62974-1.34691-1.01735-2.17558.60389-.12284 1.20778-.24567 1.81132-.3685l-.00248-.00283c.67221.19752 1.63044.77947 1.96814.52814 1.54372-1.15009 2.92036-2.52637 4.34407-3.83505 1.61947-1.48779 1.35717-2.91717-.30371-4.10478-2.07646-1.48389-4.23682-2.85062-6.36071-4.26796 2.2485.83929 4.49699 1.67858 6.74549 2.51823" fill="#DADADA"/>
    <path d="M46.292637 21.544035c-.603894.123186-1.207434.245664-1.810973.368496-1.303717-1.39079-2.607434-2.78159-3.91115-4.17274.03115-.39079.061946-.78053.092743-1.17097.902654-.74796 1.80531-1.49628 2.972035-2.46336-.084602 1.06089-.14053 1.76213-.26053 3.26903 1.370265-1.67858 2.374512-2.72424 3.116813-3.93026.223717-.36424-.13947-1.60035-.471858-1.70938-1.650266-.54088-3.380177-.83823-5.08177-1.22124-.105133 1.20708-.213097 2.41381-.312213 3.62089-.01947.23399-.005663.4708-.00708.7062-.231857.46549-.463362.93062-.69522 1.39646V11.8807c-.30938.033274-.619115.06655-.928496.099823.309735 1.41911.619115 2.837873.92885 4.25699l-.253806 1.23504-.42584-.002122c-.242478-1.34513-.484956-2.68956-.727434-4.03469.121416-3.30938.103363-3.41522-3.174513-2.84885-2.39823.41487-4.74053 1.15363-7.107965 1.74761 1.185133-.61274 2.369912-1.22548 3.55469-1.83858-.12814-.19823-.256283-.39681-.384424-.59504.891327-.56177 1.860884-1.69486 2.659823-1.58513 3.12283.42903 1.79858-1.40778 1.6-2.72177.92177.01345 1.85876-.06584 2.75752.08531.36354.06089.64248.62407.95964.95894-.37168.30089-.71222.65806-1.12319.88956-.5416.30549-1.13841.51222-1.5816 1.23646 3.08708.36602 6.17416.73168 9.26124 1.09735 2.12389 1.41735 4.28424 2.78407 6.36035 4.26832 1.66124 1.18726 1.92319 2.61664.30407 4.10443-1.42407 1.30903-2.80036 2.68496-4.34407 3.83505-.3377.25133-1.29593-.33027-1.96815-.52814.80141-.27682 1.60283-.55363 2.4046-.83044l-.19186-.62407c-.87752.12354-1.75469.24779-2.58584.36496.16531.48036.27044.78655.37557 1.09239" fill="#E5E5E5"/>
    <path d="M35.664212 5.594088c.198938 1.313983 1.523186 3.150443-1.6 2.72177-.798938-.109734-1.768495 1.02301-2.659823 1.585133.12814.19823.25628.39646.38477.59469-1.18514.6131-2.36991 1.2262-3.55469 1.83894-2.56885 1.13452-5.19894 2.15505-7.6616 3.48531-.58974.31859-.6223 1.66868-.91151 2.54372.57132-.04814 1.1423-.09699 1.71327-.14548.09876.10124.19717.20248.29593.30372L18.318 20.46206c-.116107-.82124-.232213-1.64283-.347965-2.46442.121413-.20106.3915-.45203.34301-.59646-.924606-2.75363.472562-4.17699 2.84566-5.061942 1.600354 1.62018 2.757522.578055 4.14407-.48354 1.49487-1.144776 3.25062-1.94867 5.17593-3.06584-.01699-.311857-.06655-1.232565-.11646-2.15292 1.767433-.34761 3.534513-.69522 5.301946-1.04283" fill="#D6D6D6"/>
    <path d="M17.969912 17.997628c.116106.821593.232212 1.643186.347964 2.46478-.81168.294512-1.623717.589026-2.486018.901946 1.02301 2.18655 1.83115 4.34301 3.000354 6.282478.9777 1.622655.712567 3.12885-1.233628 3.89345.61062 1.058408 1.210974 2.099116 1.775575 3.077523.0223-.002124-.15257.013452-.32744.028673-1.29275-.33593-2.44921-.431505-2.49806 1.420885-.79929-.378407-1.59823-.756814-2.39753-1.13522.07256-.226904.14478-.453807.21699-.681063h-3.86159c.71433-.112213 1.42867-.22478 2.14301-.337346 2.66548-.062654 4.00035-2.97699 3.09699-6.058407.4846-.56885 1.15292-1.089203 1.06725-1.293097-.71965-1.711858-1.5777-3.36531-2.39434-5.036814.19469-.661947.38902-1.324248.74548-2.539115.10725.19222-.11929-.21415-.55115-.98867h3.35611z" fill="#C8C8C8"/>
    <path d="M30.362407 6.637027c.049558.920354.09947 1.841062.116106 2.15292-1.924955 1.116814-3.681062 1.921062-5.175575 3.06584-1.38655 1.061594-2.543717 2.103717-4.14407.483186.080353-.453805.01522-1.191504.263008-1.318584 2.953274-1.51363 5.95292-2.93664 8.94053-4.38337" fill="#B2B2B2"/>
    <path d="M14.419575 21.52538c.816637 1.671505 1.674337 3.32531 2.394336 5.036815.08567.203893-.58265.724248-1.06725 1.293097.90337 3.081416-.4315 5.995752-3.09699 6.058407l.36956-2.79894.33558-1.01735c.50089-1.41522.94974-2.85204 1.51823-4.24.56921-1.38938.26974-2.34903-1.14017-2.92177.22903-.47009.45806-.94018.68673-1.41027" fill="#999"/>
    <path d="M13.732673 22.935752c1.410265.57239 1.70938 1.532036 1.140177 2.92177-.568142 1.387965-1.016992 2.824425-1.51823 4.239646-1.57947-.642478-2.36885-3.230088-1.493452-4.648142.184425-.29876-.034336-.827256-.00531-1.245663.05593-.801062.15646-1.598938.23823-2.397876.546195.376637 1.09239.753628 1.638585 1.130265" fill="#696969"/>
    <path d="M14.782372 37.112354c.468318-.140177.93699-.280354 1.40531-.420177.74053.023363 1.49345-.030797 2.217345.09062.804247.13522 1.581593.430442 2.37062.65593-.53947.04106-1.079293.08177-1.19115.090264-.205665 1.31682-.21416 2.33947-.54832 3.24142-.334867.90337-.995044 1.68567-1.51292 2.52106-.65593-.72071-.670797-1.59044-.652036-2.45947.0216-.99185.07328-1.98265.11222-2.9738-.6138-.01026-1.22725-.02017-1.84071-.03044-.12035-.23823-.24035-.47681-.36035-.7154" fill="#B2B2B2"/>
    <path d="M20.77568 37.438655c-.789025-.225487-1.56637-.520708-2.370618-.65593-.723894-.121415-1.477168-.067256-2.217345-.09062.120354-.208848.240708-.41699.361062-.625132.04884-1.85168 1.20495-1.75646 2.49805-1.42053 1.18619.221946 2.37309.443893 3.55964.666194.21805.966726.4361 1.93345.65416 2.90053-.64531 1.91292-1.19222.70832-1.75328-.05522-.2439-.24-.48779-.479646-.73168-.719292" fill="#DDD"/>
    <path d="M14.782372 37.112354c.12.238584.24.477168.360354.715398-2.416637 3.00885-1.94584 6.319646 1.01345 7.129558-.219468.35646-.438583.712566-.658406 1.069026-.239292-.00531-.479292-.010265-.718938-.014867-3.008496-2.72744-3.00708-6.78443.00354-8.89912" fill="#8A8A8A"/>
    <path d="M13.019186 31.11469l-.369558 2.798938c-.71469.11292-1.429026.225133-2.143363.337345-.238938-.413805-.70938-1.17522-.684247-1.191858 1.037876-.68991 2.120354-1.31292 3.197168-1.944425" fill="#6A6A6A"/>
    <path d="M58.651965 28.97108c.497345-1.12.921416-2.281062 1.52-3.34407.356814-.63363.987964-1.11292 1.495575-1.661594.190796.13416.38124.268672.57168.402832-.113273.40814-.216636.81947-.341592 1.223717-.433274 1.402478-1.79823 2.530973-.88708 4.347964.249912.49876-.676814 1.58725-1.13699 2.56.579115.17203 1.104778.32814 1.383362.41132.241416.77557.440708 1.41876.759292 2.44283-.185486.10654-.695575.39929-1.205663.69168 0 .00035.00247-.00283.00247-.00283-.94974-.12283-1.89947-.24567-2.84956-.36814-.11363-.64354-.37133-1.3023-.30726-1.92814.09309-.90337.41911-1.7823.64566-2.67186.11681-.70124.23327-1.40248.35009-2.10372" fill="#EBEBEB"/>
    <path d="M66.877204 29.738513c-.75717-1.98938-1.564956-3.963186-2.19469-5.992566-.065487-.209558.93062-.74938 1.434336-1.13593l1.518584-1.04637c.120708.73699.249557 1.47292.36 2.21168.070442.472213.114336.948673.17062 1.423717-.10832.870797-.21593 1.741947-.410974 3.315044-.140885.196815-.50938.710443-.877876 1.224425" fill="#717171"/>
    <path d="M64.011823 36.078053v1.356814c-2.127788.350797-.856637 1.838938-.97699 2.874337-.111506.956814-.299824 1.904778-.45416 2.856637-.779116-1.47292-1.734868-2.88601-2.26053-4.44424-.253453-.75186.30336-1.77734.493096-2.67894 0 0-.00284.00354-.00248.00319 1.0669.01062 2.1338.0216 3.20106.03222" fill="#B2B2B2"/>
    <path d="M58.651965 28.97108c-.116815.70124-.233275 1.402477-.35009 2.103717-.939468-1.52354-1.878937-3.04708-2.818406-4.570974-1.36-.33522-2.72036-.670443-4.79045-1.18124 1.09416-.764247 1.5246-1.064778 1.9554-1.365663 2.96531.16885 5.34478 2.15646 6.00354 5.01416" fill="#919191"/>
    <path d="M45.19147 51.92531c-1.829382.661593-2.61416 2.886725-2.040355 6.156106h-5.054867c2.073982 3.220885 8.269734 5.296637 10.02938 3.669734.102655.26053.20531.520708.307965.78124-.94478.372743-1.889204.745132-2.833982 1.117876-3.11008-2.789027-5.84177-2.892744-9.53769-.361416-2.22655 1.5246-3.71646.959646-4.62902-1.75646 1.53735-.83009 3.07469-1.660532 4.61168-2.49062.36071.079646.72107.159292 1.00992.222655v-4.758938c.12744-.363186.25416-.726372.38124-1.089558.59717.92601 1.19434 1.85239 1.79115 2.77911.63434.0754 1.68779.41451 1.83434.1823.82868-1.31575 1.44036-2.76814 2.12602-4.17451-.24955-.07221-.49911-.14443-.74867-.21699-.24354-.11328-.48673-.22655-.73027-.33983.22443-.48106.44885-.96248.67328-1.44354.69593-.72283 1.65805-1.32956 2.03505-2.19221.88779-2.03292 1.49699-4.18797 2.21912-6.29345.0708.87115.1416 1.74265.21275 2.6138.78797-1.37027 1.04354-2.86478 1.6616-4.19045.32354-.69345 1.28319-1.09027 1.95575-1.62089.04248.47221.08496.94407.12744 1.41628-.53593.28637-1.40035.45203-1.55717.87823-1.35398 3.67752-2.58017 7.40177-3.8446 11.1115" fill="#AFAFAF"/>
    <path d="M31.43299 61.532283c.912568 2.716106 2.40248 3.281416 4.629028 1.75646 3.69593-2.530973 6.42761-2.42761 9.537345.361416-1.992213.58194-3.97947 1.183-5.980885 1.73239-.47186.1292-.991505.08389-1.489204.11893.272213-.82301.54407-1.64602.816283-2.46903l-.427256-.32354c-.51858.68318-1.03752 1.36637-1.55575 2.0492-.25593.41239-.5115.82478-.87823 1.41663.82478.18549 1.36991.30796 2.21452.4977-1.42371.36354-3.44495-.00814-2.69699 2.20814-.7869.32778-1.7554.73097-2.72318 1.13416-1.1646-.36531-2.32991-.73027-4.49451-1.4085 1.28567-1.51752 2.17168-2.56319 2.85452-3.36921-2.33274-1.32177-2.39221-1.63292.19434-3.70478" fill="#D7D7D7"/>
    <path d="M37.05455 54.505876v4.758584c-.28885-.063363-.649205-.14301-1.009913-.222655-1.326726-.248495-2.653097-.496637-3.979823-.744778 1.137345-.898054 2.273983-1.796107 3.41062-2.694514-.081062-.170265-.16177-.340177-.242832-.510442-1.65416.7193-3.307965 1.43859-4.96177 2.15788v-3.4085c-.079292.03399-.68177.28956-.98124.41664-.23823-.91752-.4446-1.7115-.656636-2.52672.821947-.23433 1.81168-.51681 2.801416-.79929-.216283.47399-.432213.94797-.747965 1.6393 1.046018 0 1.978053.18337 2.80177-.03646 1.907257-.50973 3.223363-.22301 3.566372 1.97098" fill="#EFEFEF"/>
    <path d="M30.270655 57.249593c1.653805-.718938 3.307964-1.43823 4.96177-2.157522.081062.17027.162124.34018.243186.51045-1.13699.89841-2.27362 1.79646-3.41062 2.69452-1.2007.44602-3.1069-.02725-2.94123 2.25876.00496.07044-.82088.20106-1.25911.30372-.33309-.14124-.66619-.28283-.99894-.42442-1.74832-.09203-3.53876.01735-5.23115-.33911-1.39823-.29451-2.68035-1.13982-4.0138-1.74088.35894-.82159.71788-1.64318 1.07646-2.46478.93629-.35398 1.87222-.70832 2.8085-1.0623.12177.11328.24319.22655.3646.33982.18407.60354.5593 1.22018.51859 1.8085-.16708 2.4131 1.22974 2.65133 3.07575 2.37593 1.60213-.70088 3.20425-1.40177 4.80602-2.10265" fill="#949494"/>
    <path d="M26.76124 63.76715c-1.218762 1.58761-3.066904 1.70584-4.80177 1.840708-.44177.034337-.964957-.973805-1.45062-1.503008 1.150796-.66407 2.26584-1.412744 3.48-1.92708.274336-.11646.883893.59646 1.357876.898053.355044.225487.74053.402478 1.112566.600708.101593.02691.202124.057.301947.09062" fill="#9C9C9C"/>
    <path d="M26.76124 63.76715c-.099824-.033628-.200355-.063716-.301948-.09062-.392566-.991857-.785487-1.983362-1.24177-3.136282.349735-.0223.998938-.063717 1.648142-.105133.332743.141593.66584.283186.998938.424425-.367788.969203-.735576 1.93876-1.103363 2.90761" fill="#F1F1F1"/>
    <path d="M21.50577 54.828035c-.936283.353983-1.872566.70832-2.808496 1.0623.25947-2.819822-1.024778-5.74513.831505-8.487786.60177-.8885.17805-1.8085-1.32638-1.46124-.86195.19893-1.80036.06725-2.70443.0846.21947-.35611.43894-.71221.6584-1.06867 1.20955-.91965 2.64743-1.65841 3.56318-2.81169.87787-1.10549 1.2138-2.64106 1.78796-3.98761.56071.76354 1.10796 1.96814 1.75327.05486l.75469.0138c-.45062 1.14159-.9777 2.26088-1.31398 3.4354-.13558.47327-.01487 1.21416.29522 1.55433.22159.24389 1.00885.1561 1.44248-.02549.50938-.21345.90902-.68814 1.67575-1.30761-.51151 1.05734-1.03434 1.65734-1.03434 2.2577-.00036.7869.41203 1.57451.64708 2.36177-.16496.0407-.32956.0807-.49452.12106-.13735-.28602-.27469-.57239-.4492-.93699-.58726.78371-1.04708 1.52778-1.63328 2.15433-1.89628 2.02619-2.96814 4.21628-1.64496 6.9869" fill="#C5C5C5"/>
    <path d="M52.61023 42.125133c-1.753274-.002124-2.403186 1.13699-1.51292 2.696637.377345.661593 1.127433 1.272212 1.152212 1.92708.023363.618407-.538407 1.5823-1.09593 1.835044-1.398937.633628-2.961415.89699-4.408495 1.441416-.280708.105487-.33593.811327-.494867 1.24.50124.09876 1.06584.396106 1.492036.260177 1.48814-.475752 2.89062-1.250266 4.39646-1.630443 1.712212-.432212 2.885663-1.030088 2.344424-3.080708-.229734-.868672-.739115-1.82761-.550442-2.607433.34301-1.418053.09345-2.080354-1.322478-2.08177m-7.41876 9.800354c1.264424-3.71009 2.490618-7.433983 3.8446-11.111505.156815-.426194 1.02124-.591858 1.556815-.878584 1.817345 1.209204 3.634336 2.418407 5.683894 3.781947-.15434-1.869734-.30443-3.68637-.45452-5.503363.71363-.846017 1.42761-1.692743 2.14124-2.53947.95009.122833 1.89982.245665 2.84955.368143-.18974.901593-.74655 1.92708-.49275 2.678938.52531 1.55823 1.48106 2.971327 2.26017 4.443894-.24425.34938-.4885.69876-.73275 1.047787-.61027-.525663-1.22089-1.05168-2.43292-2.096283.21203 2.3639.47858 4.11116.47362 5.85735-.00248.74691-.57133 1.49204-.88283 2.23788-1.30761-1.61345-2.50832-1.71256-4.26513-.33628-1.35717 1.06301-3.25487 1.43682-5.70478 2.44248-.68177 1.08213-2.31682-.02513-3.84425-.39292" fill="#CCC"/>
    <path d="M36.962443 64.75823c.518583-.683186 1.037168-1.366018 1.555752-2.049204l.427256.32354c-.27221.82301-.54407 1.645664-.81592 2.469027l-1.16708-.743363" fill="#9F9F9F"/>
    <path d="M61.847646 44.213416c.244248-.349027.488496-.69876.732743-1.047788.15433-.951504.343-1.89947.45451-2.856283.12035-1.035398-1.1508-2.52354.97699-2.874336.69097 1.47115 1.78442 2.90725 1.91575 4.4269.07363.85133-1.44673 1.84035-2.24885 2.76708-.61027-.13841-1.22053-.27682-1.83115-.41558" fill="#DFDFDF"/>
    <path d="M36.717168 26.891434c-.933805.613097-1.866195 1.227964-2.803186 1.836106-.09168.05947-.21239.072212-.315398.116814-1.499823.652035-2.999292 1.306195-4.58584 1.997522-.02832-.09947.111504.392567.251327.884602-.21026.609557-.42123 1.219115-.63185 1.827965-.77876-.179823-1.55717-.359647-2.35681-.54478.04106.136992.13699.456992.23292.776992-.70088-.33593-1.05982-.859115-1.3246-1.42655-.04672-.100176.3062-.377344.45982-.583716.43611-.58584.96425-1.13062 1.27222-1.77912.41487-.87505.69912-1.82089.95717-2.75929.12-.43646.04602-.92637.06018-1.39186-.17097-.60496-.16071-1.43328-.55964-1.75717-.46973-.38124-1.29416-.32531-1.9646-.45876 1.02726-.22372 2.04531-.55753 3.08425-.64638 1.91257-.16354 2.90514-.94372 2.38691-2.8623.98938-.14301 1.93593-.28 2.44637-.35363-.66124-1.33912-1.20956-2.44956-1.75752-3.56.98514-.16248 1.97027-.32496 2.99151-.4931.1823-.40779.43292-.96708.68319-1.52637.48602.33947.94407.73274 1.46549 1.00389.54903.28637 1.15859.45592 1.74195.67646-.20743.95787-.41557 1.9161-.62336 2.87398-1.31575 1.45486-2.63115 2.90973-3.71858 4.11292.76496 1.18371 1.68637 2.60991 2.60814 4.03575" fill="#EDEDED"/>
    <path d="M55.822336 38.214053c.15009 1.81699.300177 3.633628.454514 5.503363-2.049558-1.36354-3.866903-2.572743-5.683894-3.781947-.042124-.47222-.084602-.94408-.126726-1.41629-1.15292-1.13168-2.02761-2.31151-.661593-3.87363 1.659115.83646 3.318584 1.67292 4.9777 2.50902.346548.35292.69345.70619 1.04 1.05947" fill="#E6E6E6"/>
    <path d="M40.505026 19.466124c-2.17876-.010266-4.37416 1.94124-4.385486 3.678938-.010974 1.756814 2.100885 3.877522 3.928495 3.94407 1.632213.05947 3.414514-1.92 3.411682-3.878583-.003186-2.12602-1.076814-3.39965-2.95469-3.74443m-3.787965 7.42548c-.921416-1.4262-1.842832-2.85204-2.608142-4.03611 1.087434-1.20283 2.403186-2.65806 3.718584-4.11292.914337-.33381 1.828673-.66832 2.74301-1.00248l3.91115 4.17239c.387256.82902.774867 1.6584 1.016637 2.17593-1.3915 1.40389-3.04708 3.07504-4.69876 4.74194-1.03327-.49098-2.55787-1.21487-4.08247-1.93876" fill="#979797"/>
    <path d="M46.98092 34.755115c1.309735-1.25947.201416-1.481416-.757876-1.753274-1.593982-.45168-3.20991-.87646-2.830088-3.4407.339115.64956.536637 1.02797.753628 1.44354 2.091328-2.36814 5.20885-1.56425 7.347965 1.78726-.67894.62124-1.35788 1.24248-2.03682 1.86407-.82549.03292-1.65098.06584-2.47682.09912" fill="#B2B2B2"/>
    <path d="M29.96938 31.516708c.612744-.053097 1.241416-.219115 1.835753-.13699 1.503363.20814 3.20531 1.106547 3.607787-2.391152.338407 1.47115.453098 1.969558.562478 2.444248.78407-.378053 1.500885-.723186 2.217345-1.069026.213452.9377.426903 1.875398.640708 2.813097-.11575.242124-.23115.48354-.3469.724956-1.65557.23576-3.31079.47151-4.96672.70691-.37947.18691-.75894.3731-1.13876.55965-.80389-1.21699-1.60779-2.43469-2.41168-3.65168" fill="#EDEDED"/>
    <path d="M55.822336 38.214053c-.346548-.353274-.69345-.70655-1.04-1.05947V31.98538c.32.367788.483894.555753.89876 1.03186.051683-1.51717 2.033984-2.81062-.456636-4.17062.06832-.619824.16354-1.481063.25876-2.342655.93947 1.523893 1.879293 3.04708 2.818762 4.570973-.226548.889558-.55292 1.768496-.645663 2.671858-.06408.625487.19362 1.284602.30725 1.928142-.71363.846372-1.42761 1.692743-2.14124 2.539115" fill="#B0B0B0"/>
    <path d="M46.98092 34.755115c.82584-.033274 1.651328-.066195 2.476815-.099115.115752.000354.231504-.003186.347256-.01062-1.36637 1.562478-.49168 2.7423.66124 3.873983-.67292.53062-1.63256.927434-1.9561 1.620885-.61805 1.325664-.87363 2.820177-1.66194 4.190442-.07079-.87115-.14159-1.742655-.21239-2.613805.01629-.242478.03257-.484602.04921-.72708.24602-.97239.49239-1.945132.73841-2.917522-.16814-.035398-.33663-.070442-.50513-.105486-.2092.352566-.41805.704778-.53557.903716-.50371-1.41416-1.00531-2.8223-1.5069-4.230442l-1.32849-.64991c1.14443.25522 2.28921.51009 3.43363.76496" fill="#939393"/>
    <path d="M29.96938 31.516708c.803894 1.21699 1.607788 2.43469 2.413452 3.65062-.276106-.04531-.554336-.089204-.832213-.132744l-2.91823-1.48c.21062-.609203.42123-1.21876.63185-1.827964.23504-.07009.47009-.140178.70513-.209912" fill="#B6B6B6"/>
    <path d="M43.54722 33.990088l1.328497.649912c-.14478.45947-.289912.919292-.435044 1.378407-1.00177-.47115-2.683894-1.551504-2.895222-1.315044-1.38442 1.54584-2.1515.525664-3.04177-.406372-.00566-.13168-.01132-.26336-.01734-.39504.11575-.24177.23151-.48283.34726-.72495 1.57098.27115 3.1423.54195 4.71363.8131" fill="#B7B7B7"/>
    <path d="M38.45076 15.86892c-.583008-.22053-1.19292-.390442-1.741946-.67646-.521416-.271504-.979115-.664425-1.465487-1.004248-.250265.559646-.50053 1.118938-.68283 1.526372-1.02124.168496-2.006727.330973-2.99186.49345.547965 1.110444 1.096283 2.220532 1.757522 3.56-.51009.07363-1.457.210267-2.44638.35363.51823 1.918584-.47434 2.69876-2.38691 2.8623-1.03894.08885-2.05664.422656-3.08425.646372-.7908.761062-1.60496 1.49947-2.36708 2.288496-1.36425 1.412743-2.25735 2.97345-1.60567 5.059115.44566 1.42761.78407 2.888496 1.17062 4.334867-1.18655-.2223-2.37345-.444248-3.55965-.666195.17486-.01523.34938-.0308.32708-.02868-.56425-.97876-1.16461-2.01912-1.77558-3.07788 1.94655-.7646 2.21132-2.2708 1.23363-3.89345-1.16885-1.93912-1.97735-4.09558-3-6.28248.8623-.31257 1.67433-.60708 2.48601-.90159 1.11752-.64744 2.23504-1.29416 3.35256-1.94089-.09876-.10089-.19717-.20213-.29593-.30337-.57098.04814-1.14195.09699-1.71328.14549.2892-.8754.32177-2.22514.9115-2.54407 2.46265-1.32992 5.09274-2.3508 7.66159-3.48496 2.36708-.59434 4.70938-1.3331 7.10797-1.74761 3.27752-.56637 3.29557-.46089 3.17416 2.84814-.02195.81097-.0439 1.6223-.06584 2.43362m2.168-1.02807c.00142-.2354-.01239-.47221.00708-.7062.09912-1.20744.20708-2.41381.31186-3.62089 1.70195.38301 3.43186.68035 5.08212 1.22088.33239.10902.69557 1.34549.4715 1.70973-.74195 1.20601-1.7462 2.25132-3.11646 3.92991.12-1.50691.17593-2.20779.26017-3.26903-1.16637.96708-2.06903 1.71575-2.97204 2.46407-.01487-.57628-.02938-1.15221-.04425-1.7285" fill="#F4F4F4"/>
    <path d="M40.61876 14.84085c.014868.576283.029382 1.152212.04425 1.728495-.030444.389735-.06124.779823-.09239 1.170266-.914337.33487-1.829027.66903-2.743363 1.00284.20814-.95752.416283-1.91575.623717-2.87363.021946-.81132.04354-1.62265.06584-2.43363.242478 1.34549.484956 2.69027.727434 4.0354l.42584.00213c.084602-.41203.16885-.82371.253806-1.2354l-.000354-.00035c.231504-.46549.463363-.93097.69522-1.3961" fill="#C8C8C8"/>
    <path d="M39.923752 16.237416c-.309734-1.419115-.619115-2.837876-.92885-4.256637.30938-.03363.619116-.06655.928496-.10018v4.35646l.000354.00035z" fill="#F4F4F4"/>
    <path d="M46.292637 21.544035c-.105133-.30584-.210265-.612035-.375575-1.09239.83115-.117167 1.708318-.241415 2.58584-.364955l.19186.62407c-.80177.276815-1.603187.55363-2.404603.830444l.00247.00283z" fill="#DADADA"/>
    <path d="M21.507504 38.158053c-.57416 1.34655-.910088 2.882124-1.787964 3.98761-.915752 1.15292-2.353628 1.891682-3.563186 2.811682-2.959646-.80991-3.43009-4.121062-1.013805-7.12991.61345.010618 1.22725.02053 1.8407.030795-.03859.99115-.09027 1.981947-.11186 2.973805-.01912.869027-.0039 1.738762.65203 2.45947.51752-.8354 1.1777-1.6177 1.51292-2.521062.33416-.901947.34265-1.924602.54832-3.241416.1115-.008496.65132-.049204 1.19115-.090266.24389.23965.48778.4793.73168.7193" fill="#EEE"/>
    <path d="M22.606442 35.312708c-.386548-1.446372-.724955-2.907257-1.17062-4.334867-.65168-2.08566.241417-3.64637 1.605665-5.05911.762124-.78902 1.576637-1.52743 2.367433-2.28849.670443.13345 1.494868.07753 1.964248.45876.399292.3239.389027 1.15222.559646 1.75717-.445664 1.7954-5.12531-.89663-3.509734 2.68991-.561416.73841-1.298053 1.31434-1.200354 1.64284.688495 2.32071 1.547964 4.5908 2.480354 7.23752-.284956.13699-.986195.47363-1.687434.80991l-.755044-.01345c-.218053-.96672-.436106-1.9338-.65416-2.90017" fill="#A2A2A2"/>
    <path d="M24.01561 38.226478c.70124-.336283 1.40248-.67292 1.687434-.809912-.93239-2.64708-1.791858-4.917168-2.480354-7.237522-.0977-.328495.638938-.904425 1.200354-1.642832-1.615575-3.586902 3.06407-.894513 3.509735-2.690265-.01381.46584.06017.955752-.05983 1.391858-.25806.938407-.5423 1.884248-.95752 2.759646-.30761.6485-.83576 1.19293-1.27186 1.77877-.15363.20637-.5069.4839-.45982.58407.26478.56708.62371 1.09062 1.3246 1.42655-.09593-.32-.19186-.64035-.23292-.77699.79964.18478 1.57805.36496 2.35681.54478.97309.4931 1.94584.98655 2.91787 1.47929.45911 2.18974.91858 4.37947 1.37805 6.56921.37345 2.46478 1.6354 4.3108 3.83433 5.50372.23009.55788.46018 1.1154.68991 1.67328-2.00921 1.23965-.3193 2.17381.26407 3.19929.72495.96885 1.44955 1.9377 2.17451 2.90655-.22124.43611-.44248.87221-.66408 1.30867-.59681-.92601-1.19398-1.85274-1.79115-2.77876-1.98195-3.89274-3.96389-7.78548-5.39965-10.60531-.29239 1.43328-.79186 3.87894-1.29133 6.3246h-3.29026c.00707.25912.01415.51753.02088.77629 1.43858.22938 2.87716.45947 4.31575.68885-.11894.1108-.23788.22124-.35682.33204-.98974.28212-1.97947.5646-2.80142.79894.21203.81522.4184 1.6092.65663 2.52673.29947-.12672.90194-.38265.98124-.41664v3.4085c-1.60213.70089-3.20425 1.40142-4.80638 2.10266 1.3469-2.15575.62513-3.61876-1.88991-3.86938-.57275-.05735-1.13664-.20779-1.70443-.3154l-.36425-.33982c-1.323187-2.77062-.251328-4.96036 1.644955-6.9869.58584-.62619 1.045666-1.37061 1.63292-2.15433.17487.3646.312215.65098.449206.93735.16496-.0407.32991-.0807.494515-.12106-.23469-.78761-.64708-1.57486-.64708-2.36212 0-.6.52318-1.20035 1.03469-2.2577-.76673.61947-1.16673 1.09452-1.67611 1.30762-.43363.18159-1.22053.26938-1.442124.02584-.31009-.34018-.4308-1.08142-.295223-1.55469.33593-1.17416.863367-2.29345 1.313987-3.4354" fill="#DDD"/>
    <path d="M37.452602 48.780283c-.23009-.557876-.460177-1.115398-.690266-1.673982.57416-.7384 1.148673-1.47681 1.73062-2.22513-.19646-.22301-.657345-.74584-1.555045-1.76354.11293.02089-.5515-.10265-.92424-.17203.26832-1.3954.49699-2.5823.72531-3.76956.61699.49912 1.23363.99823 2.05558 1.66301-.13239-1.22513-.14973-1.96885-.30867-2.68141-.13982-.62796-.43752-1.22124-.66548-1.83009-.62053-.31469-1.24071-.62973-1.86124-.94513.68637-.29628 1.37239-.59327 2.05947-.88814.16035-.06938.32354-.13168.48531-.19717.88991.93204 1.65699 1.95222 3.04142.40602.21168-.23646 1.89381.84425 2.89593 1.31576-2.30301-.29487-3.25628.55469-2.45203 2.89381-.00566.33699-.01168.67434-.01734 1.01133.70336.28213 1.40637.56425 2.10973.84638.12602.69841.25239 1.39646.37841 2.09452-.46619-.45345-.93239-.90726-1.39858-1.36141-.26053 1.03044-.20035 2.39186-.84955 3.0216-1.24956 1.21062-.99398 2.13487-.29239 3.40071.35752.64602.32071 1.5108.46195 2.27682-.22407.48106-.44885.96212-.67327 1.44354-.18548.345486-.37132.69097-.7246 1.34761-.35398-1.06407-.50017-1.50478-.71964-2.16354-.28283.71858-.46159 1.17274-.70903 1.80071-.34124-.40248-.55504-.65487-.7692-.90726-.44425-.98124-.88885-1.96248-1.3331-2.94336" fill="#EDEDED"/>
    <path d="M30.74492 49.135292c.49947-2.445664.998584-4.891327 1.291328-6.324602 1.435752 2.819823 3.4177 6.712567 5.399646 10.60531l-.38124 1.089558c-.343008-2.19363-1.659114-2.480354-3.56637-1.97062-.824072.219823-1.755753.03646-2.80177.03646.31575-.691327.53168-1.16531.747964-1.639292.118938-.110442.237876-.22124.356814-.33168.43292.431503.866195.863362 1.299823 1.295574.277876-.327434.555398-.654867.833274-.981947-.52885-.361062-1.03682-.758938-1.59257-1.072566-.50195-.283186-1.05593-.474337-1.58691-.706195" fill="#C0C0C0"/>
    <path d="M42.381557 50.202442c-.141238-.765663-.104424-1.630442-.4623-2.276814-.70124-1.26584-.95717-2.189734.292743-3.400708.649203-.62938.589026-1.990796.849557-3.02124.466195.453807.93239.907612 1.398585 1.361063-.126018-.6977-.25239-1.396106-.378407-2.094513.867964.073274 1.735575.14655 2.603185.219823-.016637.242124-.03292.484602-.049203.726726-.722124 2.10584-1.331328 4.26053-2.219115 6.2938-.37699.8623-1.339115 1.46902-2.035044 2.19186" fill="#C6C6C6"/>
    <path d="M38.785734 51.723788c.213806.25239.427965.504778.769204.907256.247434-.627964.42584-1.082124.709027-1.800708.219115.65876.365663 1.09947.719292 2.16354.353628-.65699.539115-1.002124.724955-1.347965.24354.11363.486726.22655.729912.33983-.849204.96708-1.698053 1.93345-2.546903 2.90053-.72495-.9692-1.44991-1.93805-2.17415-2.90654.35646-.08566.71257-.17097 1.06868-.25593" fill="#7A7A7A"/>
    <path d="M39.89108 54.886124c.84885-.966726 1.6977-1.93345 2.546902-2.900177.250266.072566.499823.14478.74938.21699-.685663 1.406373-1.297344 2.858762-2.12637 4.174514-.146195.23222-1.199647-.1069-1.833983-.18265.22159-.43646.44283-.87292.66407-1.30867" fill="#C0C0C0"/>
    <path d="M21.8703 55.167858c.567788.10761 1.131328.258053 1.704072.3154 2.515398.250618 3.237168 1.713273 1.88991 3.869025-1.846017.275398-3.242477.037168-3.075397-2.376283.040708-.587965-.334513-1.204602-.518584-1.808142" fill="#BDBDBD"/>
    <path d="M52.61023 42.125133c1.41593.001416 1.665487.663717 1.322478 2.08177-.188673.779823.320708 1.73876.550442 2.607433.54124 2.05062-.632212 2.648496-2.344424 3.080708-1.50584.380177-2.90832 1.15469-4.39646 1.630443-.426195.13593-.990797-.161416-1.492036-.260177.158938-.428673.21416-1.134513.494867-1.24 1.44708-.544425 3.009558-.807788 4.408496-1.441416.557522-.252744 1.119292-1.216637 1.09593-1.835044-.02478-.654868-.774868-1.265487-1.152213-1.92708-.890266-1.559646-.240354-2.69876 1.51292-2.696637" fill="#E8E8E8"/>
    <path d="M40.496708 20.433345c-.399292.002478-.798938.00531-1.19823.007434-.609204.92955-1.816283 1.96672-1.673628 2.76106.17168.95575 1.49168 1.70548 2.313982 2.54407.810265-.84991 2.121062-1.61841 2.275752-2.57452.129204-.79894-1.093805-1.81699-1.717876-2.73806m.008142-.96708c1.87823.34442 2.951504 1.61841 2.955044 3.74442.002832 1.95858-1.77947 3.93805-3.411682 3.87858-1.82761-.0669-3.93947-2.18726-3.928495-3.94443.010973-1.73735 2.206725-3.68921 4.385133-3.67859" fill="#C9C9C9"/>
    <path d="M36.739115 39.17607c-.228673 1.187257-.45699 2.37416-.72531 3.769204.372744.069735 1.036815.19292.924248.17239.897345 1.0177 1.358584 1.54053 1.555044 1.76354-.581947.747964-1.15646 1.48637-1.730973 2.225132-2.198584-1.192566-3.46053-3.038584-3.834336-5.50301.315044-.436813.90053-.875397.898407-1.311857-.008496-1.89452-.188673-3.78832-.306195-5.68248 1.655575-.2354 3.31115-.47115 4.966726-.7069l.01699.39504c-.16177.06513-.324955.12778-.484955.19681-.68708.29486-1.37309.59221-2.05982.88849.62053.3154 1.24106.63009 1.8616.94513-.46088.58442-.92141 1.16849-1.3823 1.75221l-.50761-1.61841c-.20637.50655-.4577 1.00071-.60248 1.5246-.0892.32248-.07929.70548-.00035 1.03433.10655.44566.32177.86619.49027 1.29734.20744-.44248.41487-.88496.6223-1.32708.09947.06159.1993.12354.29876.18548" fill="#C0C0C0"/>
    <path d="M33.51993 34.608885c.117875 1.894513.297698 3.787965.306548 5.682832.00177.436106-.583717.87469-.898407 1.311858-.45946-2.190442-.91893-4.379823-1.37769-6.569557.27823.043893.55611.087787.83257.133097.3777-.185133.75752-.37168 1.13699-.55823" fill="#959595"/>
    <path d="M46.68485 40.98991c-.86761-.073273-1.735222-.146547-2.603186-.219468-.703363-.282123-1.406372-.564247-2.109735-.84637.34194.054158.68424.10761 1.02619.161415V36.48655c-.24319-.011683-.48673-.023364-.72991-.035046-.09275.820177-.18584 1.640708-.27894 2.46124-.80425-2.33947.14902-3.188673 2.45203-2.893806.14442-.459823.28955-.919646.43433-1.37876.50159 1.40814 1.00318 2.816282 1.5069 4.23044.11787-.198937.32672-.55115.53593-.903715.16814.035044.33663.070088.50513.105486-.24637.97239-.49239 1.94513-.73876 2.91752" fill="#AFAFAF"/>
    <path d="M30.74492 49.135292c.530974.231858 1.084956.42301 1.586903.706195.555752.313628 1.063717.711504 1.592566 1.072566-.27788.32708-.5554.654513-.83328.981947l-1.29983-1.295575-4.31575-.689204c-.00673-.2584-.01381-.51716-.02089-.77592h3.29026z" fill="#EFEFEF"/>
    <path d="M38.785734 51.723788c-.356106.084955-.712212.170265-1.068672.25593-.58407-1.025842-2.273982-1.959647-.26478-3.199293.444603.980885.889205 1.962124 1.333453 2.943363" fill="#C0C0C0"/>
    <path d="M36.739115 39.17607c-.09947-.061946-.199292-.123893-.29876-.18584-.00071-.303717-.001417-.606726-.002125-.910442.460885-.583717.921416-1.167788 1.3823-1.752213.227966.60885.525665 1.202124.665488 1.83009.158584.712565.176283 1.456282.308672 2.681415-.821947-.665133-1.438938-1.163894-2.055575-1.66301" fill="#292929"/>
    <path d="M41.989204 38.912673c.093097-.820177.186194-1.641062.279292-2.46124l.729557.035045v3.598938c-.341947-.053805-.684248-.107257-1.026195-.161416.005664-.33699.011682-.674336.017346-1.011327" fill="#111"/>
    <path d="M40.496708 20.433345c.62407.921062 1.84708 1.939115 1.717876 2.738053-.15469.956106-1.465487 1.724602-2.275752 2.574513-.8223-.83858-2.1423-1.58831-2.313982-2.54407-.142655-.79433 1.064424-1.8315 1.673628-2.76106.399292-.00212.798938-.00495 1.19823-.00743" fill="#EEE"/>
    <path d="M36.438372 38.07993c.000354.303362.001062.606725.00177.910088-.207434.442478-.414868.884956-.621947 1.327433-.16885-.43079-.383717-.85132-.49062-1.29734-.078584-.32849-.08885-.7115.000354-1.03433.14513-.52354.39646-1.01805.60283-1.52424l.50761 1.61841" fill="#0A0A0A"/>
  </g>
</svg>
