<svg width="80" height="80" viewBox="0 0 80 80" xmlns="http://www.w3.org/2000/svg">
  <title>
    rem-remme
  </title>
  <g fill="none" fill-rule="evenodd">
    <circle fill="#FFF" cx="40" cy="40" r="40"/>
    <g fill-rule="nonzero">
      <path fill="#2882DB" d="M28.780942 68.300615l1.803187-6.669024 7.309925 1.976476-1.803187 6.669024z"/>
      <path d="M62 55.482759l-1.804-6.724138-7.1955 2.068965-2.6855-10.034483c5.365614-4.537363 7.34524-11.977869 4.953402-18.617552-2.39184-6.639683-8.644026-11.059689-15.644152-11.059689s-13.252312 4.420006-15.644152 11.059689c-2.391839 6.639683-.412212 14.08019 4.953402 18.617552L23.911 59.703448l6.6625 1.82069 1.517-5.668966 7.1955 2.068966L41.09 51.2l-7.1955-2.068966 3.198-11.855172c-4.689493-1.318802-7.693433-5.930267-7.033999-10.798166.659435-4.867898 4.779603-8.49635 9.647749-8.49635 4.868146 0 8.988314 3.628452 9.647749 8.49635.659434 4.867899-2.344506 9.479364-7.033999 10.798166l6.97 26.027586 6.6625-1.82069-1.0865-4.013792L62 55.482759z" fill="#6526DD"/>
    </g>
  </g>
</svg>
