<svg width="80" height="80" viewBox="0 0 80 80" xmlns="http://www.w3.org/2000/svg">
  <title>
    rep-augur
  </title>
  <g fill-rule="nonzero" fill="none">
    <circle fill="#5F2652" cx="40" cy="40" r="40"/>
    <path d="M62.744 50.36L41.816 12.824c-.362-.67-1.062-1.088-1.824-1.088s-1.462.418-1.824 1.088L17.248 50.36c-.544.968-.232 2.224.744 2.8l20.952 12.528c.675.384 1.5.384 2.176 0l20.92-12.504c.928-.6 1.272-1.856.704-2.824M46.928 35.232l-.512-.432-.032-.032c-.163-.133-.334-.256-.512-.368l-.032-.032c-.168-.112-.344-.232-.544-.344-.032 0-.032-.032-.056-.032-.168-.112-.368-.2-.544-.288-.032 0-.032-.032-.056-.032-.168-.088-.368-.168-.568-.256-.032 0-.032-.032-.056-.032-.168-.056-.344-.144-.512-.2-.463-.173-.94-.307-1.424-.4-.368.712-.888 1.344-1.456 1.88.888.056 1.744.288 2.512.6.454.196.893.426 1.312.688.022.002.043.014.056.032.112.056.2.144.312.232.054.03.102.067.144.112.104.067.2.145.288.232.056.056.112.088.168.144.088.088.168.144.256.232l.168.168.232.232.168.168c.06.082.127.16.2.232.056.064.112.144.168.2l.168.256c.056.088.112.144.144.232l.168.256c.056.088.088.168.144.232.056.088.088.168.144.256.056.088.088.168.144.256.032.088.088.168.112.256.056.112.088.232.144.312.24.585.404 1.198.488 1.824l.256 1c.112.432 1.144 4.08 3.536 5.312 2.744 1.424 6.368 3.2 7.792 3.88l-18.8 11.248v-7.704c0-1.224 2.424-2.656 3.536-3.136l.056-.032c.232-.112.456-.232.688-.368l.088-.056c.487-.29.945-.624 1.368-1 .032-.032.088-.056.112-.112.056-.032.088-.088.144-.112.144-.112.256-.256.4-.368l.056-.056c.148-.138.282-.29.4-.456.032-.056.088-.088.112-.144.112-.112.2-.256.312-.4.032-.032.056-.088.088-.112l.344-.512c0-.032.032-.032.032-.056.144-.232.288-.488.432-.712-.568-.688-1-1.424-1.344-2.112-.146.423-.328.832-.544 1.224-.088.168-.2.344-.288.512-.032.032-.032.056-.056.056-.088.14-.184.272-.288.4-.032.032-.056.088-.088.112-.09.135-.194.258-.312.368-.032.032-.032.056-.056.056-.688.768-1.512 1.424-2.456 1.88l-.168.088c-.488.2-4.68 2.112-4.68 4.992V63.2l-18.84-11.216c1.224-.744 4.768-2.856 7.68-3.768 1.144-.368 3.568 1.168 4.936 2.28l.088.088c.176.177.366.34.568.488l.056.056c.432.344.888.688 1.4.944l.344.168c.022.002.043.014.056.032.312.168.624.312.968.456.047.022.095.04.144.056.032 0 .056.032.112.032.488.168.968.312 1.456.432.368-.712.912-1.344 1.488-1.88-.802-.054-1.592-.227-2.344-.512-.032-.032-.088-.032-.112-.056-.09-.027-.175-.065-.256-.112-.032-.032-.088-.032-.112-.056-.088-.032-.168-.088-.232-.112-.568-.288-1.088-.6-1.568-1l-.744-.688c-.688-.604-1.432-1.14-2.224-1.6-1.856-1.056-3.424-1.4-4.624-1.024-2.48.8-5.312 2.312-7.024 3.312L38.96 15.728v14.816c0 .512-.768 1.88-3.368 3.056l-.168.088c-.256.112-.488.256-.744.4l-.056.032c-.492.296-.96.63-1.4 1-.277.225-.534.474-.768.744l-.032.032c-.253.245-.483.513-.688.8l-.032.032c-.112.144-.2.288-.312.432 0 .032-.032.032-.032.056-.088.144-.168.256-.256.4 0 .032-.032.032-.032.056l-.256.432c-.032.032-.032.056-.056.112-.088.144-.144.288-.2.4-.002.022-.014.043-.032.056-.056.144-.112.256-.168.4-.022.047-.04.095-.056.144l-.168.432c-.022.047-.04.095-.056.144-.027.108-.064.212-.112.312-.032.056-.032.112-.056.168-.032.144-.088.288-.112.4-.032.056-.032.144-.056.2-.032.088-.032.2-.056.288-.032.088-.032.168-.056.256-.032.112-.032.232-.056.344 0 .088-.032.144-.032.232 0 .112-.032.2-.032.312.005.105-.006.21-.032.312v.432c-.003.517.034 1.033.112 1.544.744.168 1.512.488 2.344.888-.232-.744-.344-1.512-.368-2.312v-.144c-.005-.19.005-.38.032-.568v-.144c0-.168.032-.312.056-.488v-.056c.032-.168.056-.344.088-.544 0-.056.032-.088.032-.144.032-.144.088-.288.112-.432 0-.032.032-.056.032-.088l.168-.512c.032-.032.032-.088.056-.112.056-.144.112-.288.168-.4.032-.032.032-.056.056-.112.088-.168.144-.312.256-.456.02-.027.04-.057.056-.088.088-.144.144-.256.232-.4.02-.027.04-.057.056-.088.096-.15.2-.294.312-.432 0-.01.003-.017.01-.023.005-.006.013-.01.022-.01l.312-.4c.02-.026.04-.056.056-.087.515-.57 1.1-1.07 1.744-1.488l.888-.432c.488-.2 4.656-2.168 4.656-5.056v-14.76l18.984 34.08c-1.688-.824-4.68-2.312-6.992-3.512-1.344-.688-2.224-3.112-2.48-4l-.256-1.024c0-.544-.144-1.088-.312-1.624-.603-1.695-1.63-3.207-2.984-4.392" fill="#FFF"/>
  </g>
</svg>
