<svg width="80" height="80" viewBox="0 0 80 80" xmlns="http://www.w3.org/2000/svg">
  <title>
    req-requestnetwork
  </title>
  <defs>
    <linearGradient x1="50%" y1="0%" x2="50%" y2="100%" id="a">
      <stop stop-color="#71FCC8" offset="0%"/>
      <stop stop-color="#5D86FB" offset="100%"/>
    </linearGradient>
  </defs>
  <g fill="none" fill-rule="evenodd">
    <circle fill="#103A56" cx="40" cy="40" r="40"/>
    <path d="M17.868667 26.869528c.817537 1.379545 1.507438 2.55367 2.206915 3.721853 3.31821 5.54179 6.639726 11.08165 9.958632 16.62291.478682.79913.476592.8042-.349652 1.30822-.669527.40857-1.369353.77256-2.00719 1.22535-.558606.39651-.860546.32343-1.213855-.27727-1.652313-2.80891-3.347636-5.5923-5.02572-8.38584-3.490946-5.81136-6.98102-11.6229-10.469528-17.43549-.17274-.28776-.32702-.58653-.59413-1.06765.55199 0 .91644.000178 1.28072 0 3.33701-.001745 6.6742.021506 10.01104-.01154 4.34661-.04318 7.83025-2.86136 8.79301-7.058213 1.31624-5.73811-2.87575-11.13619-8.74304-11.1729-6.73184-.04231-13.46403-.01189-20.19605-.01329-.290277 0-.58072-.009964-.870476.001225C.22517 4.34332-.0012 4.18143.00333 3.72304.01343 2.67444.01256 1.625488.00002.576712-.00503.15748.20201.00433.58614.00905c.173955.00227.348085-.00787.52204-.00787 6.70311 0 13.406045.005594 20.109154-.001224 3.50227-.003496 6.65871.993358 9.25846 3.391608 4.0506 3.73619 5.38495 8.40717 3.95918 13.66853-1.427686 5.267486-5.044526 8.470458-10.375496 9.5514-1.516145.30752-3.118657.18829-4.68199.255247-.42975.01836-.86107.0028-1.50883.0028" transform="translate(23 17)" fill="url(#a)"/>
  </g>
</svg>
