<svg width="80" height="80" xmlns="http://www.w3.org/2000/svg" xmlns:xlink="http://www.w3.org/1999/xlink">
  <defs>
    <path id="a" d="M0 .231391h13.885171v53.16541H0z"/>
    <path id="c" d="M.020235.24563h27.685072v8.448976H.020235z"/>
    <path id="e" d="M.253212.004031h14.409031V11.89H.253213z"/>
  </defs>
  <g fill="none" fill-rule="evenodd">
    <circle fill="#FFF" cx="40" cy="40" r="40"/>
    <g transform="translate(26 15.10437)">
      <mask id="b" fill="#fff">
        <use xlink:href="#a"/>
      </mask>
      <path d="M13.531563 53.396801c-1.355835-.40252-2.716-.79083-4.06635-1.21017-2.790764-.86623-5.577485-1.74667-8.36334-2.62856-.353032-.11165-.692496-.26622-1.04264-.40281v-1.22206c0-15.45642-.002598-30.91255.013278-46.36868.000289-.44022-.271917-.96918.236413-1.33313 2.488824.79025 4.981113 1.5689 7.46532 2.37365 2.038803.66062 4.067504 1.35198 6.100824 2.02942-.00202 2.41193-.004041 4.82386-.005773 7.2355-1.971835-.58435-3.94367-1.16899-6.010763-1.78147v12.8151c.265856.11136.47167.21489.687876.28652 1.773815.58696 3.549072 1.16841 5.323753 1.7516.004618 2.41251.008948 4.82531.013567 7.23782-.412206-.07018-.83769-.09541-1.233443-.21808-1.57233-.48604-3.135712-1.00253-4.78367-1.5341v9.02828c-.012413.76908-.052537 1.53932-.029155 2.30753.024247.79924-.137114 1.61733.132206 2.4331 1.99002.65076 3.941938 1.28876 5.893567 1.92676.007217 2.31072.014433 4.62115.021938 6.93158a197.297889 197.297889 0 0 0-.353608.3422" fill="#343669" mask="url(#b)"/>
    </g>
    <g transform="translate(26.28866 11.04437)">
      <mask id="d" fill="#fff">
        <use xlink:href="#c"/>
      </mask>
      <path d="M13.58638 8.694606c-2.03332-.67773-4.062021-1.36909-6.100825-2.02971-2.484207-.80446-4.976495-1.5834-7.46532-2.37365.481485-.71891 1.340536-.54433 2.00532-.77836 1.597732-.5626 3.277732-.8845 4.912412-1.34705 2.074598-.58725 4.133897-1.22989 6.208495-1.81685.351588-.09947.793526-.15689 1.116536-.03219 1.593113.61596 3.251753.98339 4.89336 1.42274 2.437733.6525 4.865073 1.34473 7.29732 2.01811.178392.0493 1.08363.48807 1.25163.62118-.233815.00261-.485815-.05162-.699423.01653-2.630846.841-5.257361 1.69534-7.881856 2.55577-1.749567.57333-3.494227 1.16145-5.241196 1.74319-.098722 0-.197732.00029-.296454.00029" fill="#C5E6E8" mask="url(#d)"/>
    </g>
    <g transform="translate(39.278351 56.86437)">
      <mask id="f" fill="#fff">
        <use xlink:href="#e"/>
      </mask>
      <path d="M.253212 11.636801c.117774-.11426.235547-.22823.353609-.3422.426639-.08613.278556-.42543.279711-.67889.009526-2.08539.008371-4.17107.01068-6.25675 1.766021-.56434 3.529155-1.13825 5.298928-1.69099 2.034474-.63539 4.07934-1.23743 6.109485-1.88703.63967-.20445 1.245855-.51504 1.867051-.77691.142598.01131.284908.02262.489567.03886v7.41472c-1.190721.3944-2.42099.81432-3.65934 1.2093-3.154474 1.00572-6.316742 1.98795-9.465443 3.01136-.462145.15022-.867423.41006-1.284248-.04147" fill="#595EA1" mask="url(#f)"/>
    </g>
    <path d="M53.449959 35.673113c.142309.01798.284618.03625.489278.06264v7.36977c-4.277938 1.3804-8.580412 2.77182-12.887216 4.14961-.267588.08526-.570104.0609-.856454.08758l-.024247-.06351.001731-7.2355c.522763-.1798 1.041196-.3741 1.569444-.53708 2.028124-.6264 4.069237-1.21307 6.08668-1.87195 1.886103-.61596 3.748248-1.30471 5.620784-1.96156M40.171608 19.738541c1.74668-.58145 3.49163-1.16957 5.240908-1.74319 2.624783-.86014 5.251298-1.71448 7.882144-2.55577.21332-.06815.46532-.01392.699423-.01653v7.2065c-.986062.35235-1.9753.73631-2.983588 1.05966-2.043423.65482-4.095505 1.28296-6.147588 1.90994-1.560206.47676-3.126474.93438-4.690144 1.40041l.000288-.03422c-.000577-2.40903-.001154-4.81777-.001443-7.2268" fill="#595EA1"/>
    <path d="M53.449959 35.673113c-1.872536.65685-3.73468 1.3456-5.620784 1.96156-2.017443.65888-4.058556 1.24555-6.08668 1.87195-.528248.16298-1.04668.35728-1.569443.53708-.101031.00087-.201774.00145-.302805.00232-1.77468-.58319-3.550226-1.16464-5.323752-1.7516-.216206-.07163-.42202-.17487-.687876-.28652v-4.62289c.25402-.10382.49967-.25897.763793-.30392 1.888413-.32016 3.666846-1.04632 5.52264-1.4848.043587.08149.071876.21924.132783.23606 3.106268.84825 6.231588 1.62313 9.292536 2.63871 1.176289.39063 2.408577.60813 3.611134.92191.106227.02784.179835.18357.268454.28014m.001126 21.195201c-.621196.26187-1.227382.57275-1.867052.7772-2.030144.64931-4.07501 1.25135-6.109484 1.88703-1.769774.55274-3.532908 1.12636-5.298928 1.69099-.104207.00116-.208124.00261-.31233.00377-1.95163-.638-3.903547-1.276-5.893567-1.92647-.26932-.81606-.10796-1.63415-.132206-2.43339-.023382-.76792.016742-1.53845.028866-2.30753.930639-.23751 1.858391-.48691 2.792494-.70992 1.155794-.27637 2.268866-.75023 3.48066-.77401.637938.11571 1.305897.14732 1.909196.36163 3.427546 1.21771 7.036948 1.81453 10.437938 3.11518.31666.12093.801608-.27666.964413.31552" fill="#C4E5E8"/>
    <path d="M40.13948 53.075955c-1.211793.02378-2.324866.49764-3.48066.77401-.933814.22301-1.861855.47241-2.792206.70992v-9.02828c1.648248.53157 3.21134 1.04835 4.78367 1.5341.395753.12267.821526.1479 1.233444.21808.095835.00058.19167-.00116.287505-.00464l.024536.06351-.056289 5.7333m.005485-21.479546c-1.855505.43848-3.634227 1.16464-5.52264 1.4848-.264123.04466-.509484.2001-.763793.30392v-8.19221c2.067093.61248 4.038928 1.19683 6.010763 1.78147.10132-.00319.20235-.00609.30367-.00899v.03393c-.009526 1.53236-.018763 3.06472-.028 4.59708" fill="#7C96CC"/>
  </g>
</svg>
