<svg width="80" height="80" xmlns="http://www.w3.org/2000/svg">
  <g fill="none" fill-rule="evenodd">
    <circle fill="#CE1943" cx="40" cy="40" r="40"/>
    <path d="M58.944823 43.111432c-1.251058 0-2.502352.01963-3.752705-.009114-.544706-.012386-.765412.151201-.758589.72212.026589 2.212864-.068 4.429934.040471 6.63789.12047 2.451 2.144706 4.178245 4.634588 4.136414 2.315294-.039027 4.156236-1.858348 4.220706-4.277098.056941-2.134109-.015294-4.271255.029412-6.405831.015059-.711838-.27553-.836163-.896-.815832-1.17153.038092-2.345177.010984-3.517882.011451M21.260587 37.92853c1.21553 0 2.430824-.011919 3.645883.005842.508235.007478.806588-.098386.797647-.701087-.033647-2.2575.064235-4.52131-.068706-6.772266-.141412-2.39281-2.228-4.13244-4.616235-4.058826-2.284942.070342-4.140942 1.869799-4.208706 4.201848-.06353 2.178744.003764 4.360994-.025647 6.541141-.008471.627473.235058.808353.830117.793163 1.214588-.031315 2.430353-.009348 3.645647-.009815m9.282824 5.37757c-5.644706 0-11.289412.002337-16.933883-.001635-1.465882-.001169-1.597882-.138815-1.598823-1.60993-.002353-3.89337-.025883-7.786739.005412-11.679875.043058-5.389021 3.553647-9.223266 8.966823-9.688788 2.866824-.246549 5.309177.845277 7.223294 2.952278.665883.732869 1.064.85369 1.934824.24281 3.649647-2.560604 7.743765-4.026343 12.189647-4.479946 1.415059-.144424 1.584.041831 1.601412 1.416195.01247.973109-.030118 1.947854.01153 2.919326.038823.905337-.312 1.334636-1.250825 1.448212-4.043294.48819-7.662117 2.08924-11.082352 4.22218-.740471.461782-.927765.953244-.861412 1.811375.137647 1.780994.182588 3.58045.092706 5.363549-.057647 1.140902.37247 1.302385 1.381412 1.299581 11.210823-.032484 22.421647-.020799 33.63247-.020098 1.892941 0 1.958824.068006 1.959059 1.99249.000706 3.698467.034353 7.397402-.00847 11.095635-.057412 4.955517-2.724236 8.497642-7.296942 9.631533-3.651294.905337-6.730823-.204017-9.196941-2.961158-.521412-.582837-.822118-.549652-1.400706-.139049-3.605412 2.558968-7.638588 4.047843-12.022118 4.626006-1.857647.244913-2.036.090674-2.03694-1.765805-.000471-.895521.035058-1.792679-.009883-2.686097-.042353-.839435.342118-1.189745 1.146588-1.284625 4.089647-.482115 7.74353-2.099522 11.198588-4.249288.642118-.39962.882353-.840604.83953-1.606892-.10847-1.941076-.157177-3.888695-.136235-5.832576.00894-.827984-.250824-1.037141-1.061177-1.0327-5.762118.032483-11.52447.017292-17.286588.017292" fill="#FEFCFC"/>
  </g>
</svg>
