<svg width="80" height="80" viewBox="0 0 80 80" xmlns="http://www.w3.org/2000/svg">
  <title>
    rise-rise
  </title>
  <g fill="none" fill-rule="evenodd">
    <circle fill="#FFF" cx="40" cy="40" r="40"/>
    <path d="M25 48.67863v-1.045418c.012443-.02784.031705-.05464.036136-.08369.182046-1.192736.754603-2.14219 1.701307-2.87291 1.790796-1.382766 3.57375-2.775734 5.360455-4.16386 5.334375-4.144842 10.668238-8.29055 16.004147-12.433315 1.374546-1.067032 2.881535-1.246513 4.44409-.53464 1.29716.59101 2.09523 1.635908 2.344092 3.080576.027784.160116.072784.316946.109773.475332v.61954c-.04534.22824-.083693.45804-.137045.68438-.238125 1.01118-.773523 1.823515-1.587103 2.455158-4.872102 3.783285-9.74216 7.569164-14.613068 11.354005-2.311704 1.79637-4.617954 3.599827-6.938864 5.384266-.921818.708588-1.98017.965706-3.125454.790893-1.761136-.26905-3.115057-1.55343-3.505398-3.302767-.03034-.135907-.062045-.271642-.093068-.40755" fill="#F5934A"/>
    <path d="M29.541932 69.900348h-.763466c-.046364-.013833-.092046-.032334-.13926-.04046-1.644376-.281327-2.78574-1.199483-3.390172-2.779713-.114375-.299308-.167557-.622997-.249034-.93562v-1.045418c.04108-.198674.0675-.402017.125625-.595677.283977-.94392.79176-1.73049 1.573295-2.33637 3.414716-2.646223 6.82449-5.29902 10.235966-7.94974 3.74949-2.913544 7.49557-5.831584 11.25017-8.738213 1.220626-.944783 2.595683-1.1317 4.018467-.615216 1.478863.53707 2.389602 1.62709 2.68909 3.21268.031023.16427.07125.32681.107387.49003v.50335c-.029148.19332-.051307.38819-.088296.58012-.209488 1.08882-.74267 1.976197-1.61284 2.652797-7.050512 5.478674-14.1 10.958386-21.152898 16.43412-.32676.25366-.670398.489857-1.025966.699425-.48409.28513-1.029205.38853-1.578068.46392" fill="#36BB8F"/>
    <path d="M25 31.538648v-1.08415c.04517-.19539.081648-.393544.136875-.585994.297614-1.036253.919773-1.820922 1.76199-2.47366 7.04676-5.461383 14.08534-10.93366 21.122044-16.408184.83846-.652392 1.75005-1.01222 2.82392-.985245.76466.019366 1.4671.20438 2.10903.603458.94807.589452 1.59238 1.424265 1.86545 2.531758.06733.27286.12085.54917.18068.8241v.61954c-.02898.15164-.056936.30363-.086936.4551-.21443 1.0845-.737727 1.97499-1.60824 2.65107-3.90085 3.02974-7.80034 6.06104-11.70034 9.091645-3.2896 2.555965-6.574943 5.11781-9.872215 7.663573-.86932.67124-1.86699.939597-2.964206.82098-.674318-.072795-1.291023-.296196-1.855398-.66657-.81051-.531874-1.378297-1.263804-1.685967-2.193545-.09341-.281842-.152215-.57562-.226704-.86386" fill="#E63951"/>
    <path d="M49.84733 69.82714c-.219546-.044956-.441478-.07971-.657955-.136425-1.371818-.359654-2.382273-1.190317-3.0375-2.455332-.25909-.50075-.405-1.04438-.468068-1.612392-.280057-2.52224 1.463863-4.78979 3.85926-5.17884 1.366535-.22184 2.606933.10479 3.69341.99165.804205.656196 1.336023 1.492737 1.58659 2.504956.290797 1.17441.16057 2.30922-.399374 3.3785-.419318.800924-1.020682 1.433604-1.806136 1.882307-.57375.32784-1.184318.529108-1.838693.59706-.043807.004498-.086762.018676-.130057.02853h-.801477z" fill="#3898D4"/>
    <path d="M29.193058 19.450198c-.219546-.044956-.441478-.07971-.657955-.136426-1.371818-.359654-2.382273-1.190317-3.0375-2.455332-.25909-.50075-.405-1.04438-.468068-1.612392-.280057-2.522247 1.463863-4.789798 3.85926-5.178847 1.366535-.22184 2.606933.10479 3.69341.99165.804205.6562 1.336023 1.49274 1.58659 2.50496.290797 1.17441.16057 2.309227-.399374 3.3785-.41931.80092-1.02068 1.4336-1.80613 1.88231-.57375.32784-1.18432.529108-1.83869.59706-.043802.004498-.08676.018676-.130052.02853h-.801477z" fill="#8352A1"/>
  </g>
</svg>
