<svg width="80" height="80" viewBox="0 0 80 80" xmlns="http://www.w3.org/2000/svg">
  <title>
    rlc-iexecrlc
  </title>
  <defs>
    <linearGradient x1="100%" y1="50%" x2="-56.188725%" y2="134.075521%" id="a">
      <stop stop-color="#F4EB2C" offset="0%"/>
      <stop stop-color="#E8BA33" offset="100%"/>
    </linearGradient>
  </defs>
  <g fill="none" fill-rule="evenodd">
    <circle fill="#161616" cx="40" cy="40" r="40"/>
    <path d="M70.754666 38.717266c-.833047-3.345755-2.9848-5.487914-6.316843-6.19928-3.124778-.66705-5.790356.32043-7.880227 2.800287-1.39723 1.572375-1.977632 3.457842-1.95103 5.526763.011807.91928-.113804 1.753237-.616107 2.51928-1.57705 1.440144-2.5458 1.52144-4.48503.509497-.68311-.356547-1.45257-.54374-2.18262-.808345-1.3961-.404893-2.77682-.344605-4.14361.139424-1.80351.46446-3.20487 1.50705-4.26666 3.037266-1.1793 1.451367-1.63878 3.17151-1.62242 4.992087.01949 2.154676-.54911 3.077697-2.63756 3.81813-.9147.08705-1.69554-.253958-2.48221-.69295-3.70518-2.066907-8.56306-.888058-10.60755 2.542877-.31026.555252-.676 1.087338-.91627 1.67223-.27384.666475-.43587 1.38-.64655 2.07295v2.01439c.09189.283452.2057.56158.27227.850934.76064 3.303597 3.36192 5.775827 6.6766 6.341583.15321.02618.29916.09611.44839.14561h1.70706c.47456-.13526.94898-.27065 1.42341-.40605 2.82675-.56504 5.42561-3.59828 5.85309-6.71137.1734-1.26202-.20613-2.61324.56034-3.78432 1.47419-1.48245 2.7606-1.77338 4.23778-.88936 1.82314 1.09122 3.7561 1.5118 5.84896 1.12 1.7193-.34302 3.2218-1.09022 4.41105-2.4213 1.03832-1.06993 1.79014-2.29569 2.02415-3.8036.09047-.67425.25094-1.34792.2589-2.02331.025746-2.22303.523924-3.00634 2.55277-3.82892.95439-.10562 1.779326.20877 2.612515.67208 1.765813.98201 3.64927 1.35798 5.64568.80921.230454-.04849.466883-.07756.69065-.14806 4.129384-1.30288 6.58898-5.61813 5.531025-9.86777M23.74942 14.36c.443125.035684 1.37817-.136403 1.191103.653525-.134004.565612-.822235 1.077554-1.377457 1.42849-.306275.193668-.72849-.56331-.709853-1.57108.221207-.136834.575422-.53669.896207-.510935m3.47814-2.410072c-.151644.98-.532888 1.370648-1.30391 1.48259-.13685.019712-.325765.036115-.392768.127482-.56902.774676-1.257393.354532-1.914755.250935-.02902-.07079-.05804-.141583-.087202-.21223 1.206893-.537986 2.413786-1.076115 3.698635-1.648777m.264737.843453c.340132-.47971.983553-.49625 1.331224-.02719.32989.44504.76662.8718.33402 1.50058-.04452.06475-.02176.18576-.01195.27885.11196 1.0482-.00284 1.18662-.99749 1.19223-.94998.00533-1.03988-.09611-.92594-1.01367.01736-.13985.05193-.32503-.01607-.42014-.44099-.61798-.03684-1.05453.28622-1.51065m1.57761-.84431c1.24203.46993 2.48392.93986 3.72581 1.40979-.00711.06633-.01436.13266-.02162.19899-.62734.17439-1.2527.66576-1.88047-.08446-.0909-.10849-.30841-.18345-.45052-.16144-.97686.15094-1.05468-.7082-1.47774-1.17726l.10456-.18561m4.40237 2.9341c.10769.83497-.40585 1.74691-.69577 1.55238-.55109-.36964-1.07644-.88734-1.39396-1.46619-.21651-.39482.53346-.86719 1.5291-.87453.14795.19669.51966.47065.56063.78835m.21652 3.71828c.81854-.22978 1.65585.46259 1.55585 1.30144-.05292.444606-1.00901.996548-1.44147.8882-.32647-.081723-.6804-.04446-1.01926-.08417-.18621-.02187-.41239-.03928-.54185-.15151-.50714-.440577-.1532-1.04374-.18237-1.563167-.00825-.146475.90517-.362014.93647-.29827.23131-.029066.47044-.03007.69265-.09252m.275974-3.80101c.07525-.01727.15036-.03468.22533-.051944.509274 1.294387 1.018547 2.588775 1.538348 3.9105-.77486-.01439-1.29395-.493813-1.36949-1.17295-.02048-.183885-.04353-.43842-.16302-.52892-.89194-.677123-.22718-1.436404-.23116-2.15669m.95439 7.96388l-.76733 1.71899-.21068.001585c-.04552-.60173-.091182-1.2036-.13685-1.805322.1892-.23511.55039-.48.53801-.70374-.05263-.94777.70146-1.01957 1.18769-1.3859l.17142.09971c-.260753.691657-.521507 1.383168-.78226 2.074678m-3.77076-4.20993c-.60814-.03554-1.212015.08288-1.57676-.569062-.1478-.263885-.28138-.53597-.36716-.7.05548-.581295.004125-1.021583.15093-1.37842.29689-.72173 1.006885-.177124 1.51189-.37756.317515-.12604 1.30135 1.32504 1.24701 1.72792-.019062.14115-.02504.28691-.01451.42892.05619.76504-.186212.91324-.951403.868204m1.77933 7.91352c.14609-.10158.408552-.02374.61497-.046475.37527-.041296.86747.032517 1.09081-.17914.22946-.217696.38537-.84259.239413-1.071365-.33615-.52734-.0909-.90043.071697-1.33381.10854-.28964.20855-.58259.312396-.874248.239416-.54288.447536-1.103455.73233-1.62072.124616-.22619.38011-.454965.6208-.524605.611984-.17683.961363-.56417.952686-1.17122-.008676-.60432-.37271-.98734-.97516-1.16432-.220636-.064746-.47684-.27007-.567596-.47784-.41951-.959855-.77572-1.947625-1.17773-2.91554-.137704-.33122-.170423-.57122.08777-.89151.37143-.46043.3545-1.067193-.09332-1.41784-.31666-.247914-1.001475-.44806-1.24573-.273813-.657075.46906-1.16891.206186-1.749025-.02705-.72351-.291225-1.460535-.54849-2.17949-.850505-.16402-.06892-.299306-.245034-.409696-.39957-.00313-.0046-.00626-.00906-.00939-.01367.00114-.02115.00313-.04216.00313-.0636 0-.635684-.509415-1.15108-1.13804-1.15108-.628484 0-1.13804.515396-1.13804 1.15108 0 .03036.002274.060287.00455.09021-.009958.01425-.019347.02892-.029304.04317-.12163.17324-.26886.364603-.44967.452373-.67969.3295-1.37859.61856-2.06924.92518-.548534.243458-1.038603.55525-1.685296.0695-.22163-.166473-.94173.00878-1.16137.266045-.246385.28878-.34995.91223-.212244 1.27094.15691.40892.05804.62043-.0946.950647-.36019.77899-.68624 1.573955-1.01613 2.367336-.01052.025326-.18735.89583-.21921 1.76403-.03186.87237.08137 1.7423.082797 1.74993.97402 5.73741 7.67239 8.93597 12.80695 5.36748m4.379185 3.75094c.071413 1.70072-.521365 2.85309-1.95473 3.63568-1.16692.3823-2.18376.06935-3.23716-.51914-4.895426-2.73468-11.13417.36518-11.90761 5.87511-.068995.14331-.055765 2.82518-.01252 3.02302.983697 4.49971 4.88234 7.3118 9.368788 6.58978 2.989772-.48115 5.133842-2.19511 6.25069-5.10806-1.15284-.62072-1.15284-.62072 0-.00014.213093-1.16144.6208-2.32705.59647-3.483594-.04225-2.001437 1.34758-3.42777 3.07826-3.52446.61852.20101 1.28229.31583 1.847323.618994 1.768374.94878 3.615984 1.40547 5.59305.997125 2.61579-.540288 4.626423-1.942447 5.80842-4.430504 1.686007-2.8095 1.09593-6.92-1.368923-9.53712-3.35893-3.56618-9.283008-3.33626-12.143475.47108-1.365082 1.53338-2.00267 3.38734-1.9186 5.39223" fill="url(#a)"/>
  </g>
</svg>
