<svg width="80" height="80" xmlns="http://www.w3.org/2000/svg">
  <g fill="none" fill-rule="evenodd">
    <circle fill="#FFF" cx="40" cy="40" r="40"/>
    <path d="M39.847703 9.000084l-26.841375 46.16654L39.85361 70.556868l26.839688-15.390244h.000844V24.392003L39.847703 9.000083zM12.999578 24.393678v30.776298L39.846016 9.001759 12.999578 24.39368z" fill="#EB4340"/>
    <path fill="#D21F26" d="M13 24.393343v30.777135L39.846438 39.77856V9.001424z"/>
    <path fill="#BA1A1F" d="M39.847703 9.000084V39.77638l26.846438 15.390243v-30.77462z"/>
    <path fill="#EB4340" d="M13.006075 55.167043L39.8542 70.55645l26.839688-15.390244L39.846606 39.7768z"/>
    <path fill="#D21F26" d="M39.847366 55.16897V39.77789l13.42575-7.69638v15.390244z"/>
    <path fill="#BA1A1F" d="M39.846522 55.169808V39.779565l-13.42575-7.697216v15.390243z"/>
    <path fill="#EB4340" d="M26.42111 32.083019l13.423218-7.696378 13.424906 7.696378-13.42153 7.69554z"/>
  </g>
</svg>
