<svg width="80" height="80" xmlns="http://www.w3.org/2000/svg" xmlns:xlink="http://www.w3.org/1999/xlink"><defs><linearGradient x1="50%" y1="0%" x2="50%" y2="100%" id="a"><stop stop-color="#FF4463" offset="0%"/><stop stop-color="#7500D4" offset="100%"/></linearGradient><path id="b" d="M0 0h36.993v45.895H0z"/></defs><g fill="none" fill-rule="evenodd"><circle fill="url(#a)" cx="40" cy="40" r="40"/><g transform="translate(24 16)"><mask id="c" fill="#fff"><use xlink:href="#b"/></mask><path d="M8.185 18.436v5.492l15.26-9.574L8.26 4.616v4.82c-.179.066-.362.192-.545.192-2.48 0-4.958-.019-7.437-.035-.029 0-.056-.035-.085-.054-.209-.7-.272-8.011-.069-9.42C.366.09.628.035.89.035 5.162.03 9.436-.056 13.705.062c3.222.089 6.436.412 9.507 1.577 3.014 1.143 5.564 2.87 7.31 5.666 1.167 1.865 1.744 3.913 1.815 6.116.052 1.645-.113 3.252-.568 4.843-.673 2.353-1.996 4.252-3.796 5.84-1.52 1.343-3.267 2.304-5.14 3.043-.189.075-.367.178-.666.326 1.576 2.146 3.287 4.117 4.907 6.16 1.614 2.035 3.292 4.02 4.924 6.041 1.64 2.032 3.341 4.016 4.995 6.212-3.825 0-7.468-.01-11.11.01-.508.002-.803-.196-1.106-.59-3.927-5.112-7.88-10.203-11.804-15.316-.377-.49-.766-.73-1.384-.68-.613.05-1.233.012-1.962.012-.08 1.422-.023 2.803-.034 4.182-.011 1.358-.004 2.718-.005 4.077l-.003 4.181v4.104H.263c-.074-.083-.098-.108-.12-.135-.021-.027-.052-.052-.058-.083-.02-.101-.044-.205-.044-.308C.037 36.524.035 27.708.036 18.89c0-.1.045-.199.096-.412 2.615-.098 5.249-.03 8.053-.043" fill="#FFF" mask="url(#c)"/></g></g></svg>