<svg width="80" height="80" viewBox="0 0 80 80" xmlns="http://www.w3.org/2000/svg">
  <title>
    rnt-oneroot-network
  </title>
  <g fill="none" fill-rule="evenodd">
    <circle fill="#3948A6" cx="40" cy="40" r="40"/>
    <g fill-rule="nonzero">
      <path d="M42.407918 42.130839c3.046055.020553 5.869576-1.589949 7.398577-4.220059 1.529002-2.63011 1.529002-5.876483 0-8.506593-1.529001-2.63011-4.352522-4.240611-7.398577-4.220058H23.155102V15.015871h2.61153l3.003552 1.69471h13.637734c9.373617.004271 16.971425 7.589007 16.975919 16.94671 0 6.387096-4.048164 11.993032-9.271225 14.861032l7.444898 7.691225h3.054735v6.387097h-8.14945l-13.05804-13.296s-2.219898-2.607097-.913939-4.823226c1.240429-2.020645 3.917102-2.34658 3.917102-2.34658z" fill="#24C694"/>
      <path d="M40.906143 29.420903H32.41857c-2.252535-.004534-4.41412.886757-6.006907 2.47684-1.592787 1.590082-2.485593 3.747997-2.481052 5.996709l-.000017 24.703354h9.989364v-2.28116l-1.501388-1.631227V42.131226c-.00227-1.124356.444133-2.203314 1.240526-2.998355.796393-.795041 1.877186-1.240686 3.003454-1.23842h4.243592c1.126268.002267 2.20706-.443378 3.003454-1.238419.796393-.795041 1.242796-1.873999 1.240525-2.998355-.018352-2.332274-1.907738-4.218453-4.24398-4.236774z" fill="#FFF"/>
    </g>
  </g>
</svg>
