<svg width="80" height="80" xmlns="http://www.w3.org/2000/svg" xmlns:xlink="http://www.w3.org/1999/xlink">
  <defs>
    <path id="a" d="M.000046.057582h65.826162v38.712974H.000046z"/>
  </defs>
  <g fill="none" fill-rule="evenodd">
    <circle fill="#FFF" cx="40" cy="40" r="40"/>
    <g transform="translate(8 19.171829)">
      <mask id="b" fill="#fff">
        <use xlink:href="#a"/>
      </mask>
      <path d="M49.06134 26.635509c.205993-1.482918.38321-2.715547.547412-3.950012.371792-2.794694.73856-5.590076 1.10373-8.385688.06303-.481306.192975-.899065.748609-1.0101.680553-.135812 1.124283.192706 1.23139.989912.132.980735.210561 1.968811.322693 2.952758.211017 1.853647.429342 3.706606.64721 5.559565.004112.034412.03791.065153.150042.247765.312187-.564812.621405-1.046118.853661-1.562065.337308-.74857.830595-1.082823 1.689737-1.046347 1.556595.065841 3.117986.018582 4.73944.018582.59126-.762106 1.215633-1.517788 2.369149-1.452405.687861.03877 1.265875.24524 1.730615.74054.899108.958713.825115 2.643283-.140906 3.515507-1.164478 1.051853-2.584277.772888-3.933509-.793765H56.39853c-.731938 1.359494-1.470498 2.729541-2.206318 4.100735-.07171.133977-.114872.284012-.19229.413859-.23477.392753-.573447.626523-1.041613.54187-.509959-.092223-.781495-.431064-.83425-.948388-.081072-.7956-.153467-1.592117-.25121-2.385423-.038596-.314753-.135198-.622165-.394174-.903882-.326574 2.51137-.652235 5.02297-.980408 7.534111-.305792 2.341836-.60793 4.6839-.926512 7.0239-.088837.652677-.381156.915353-.936104.933247-.57984.018812-.963052-.306723-1.029737-.982112-.08998-.909847-.120353-1.826117-.17539-2.739635-.278617-4.638476-.55198-9.277411-.837447-13.9152-.135426-2.2035-.288436-4.406082-.449668-6.607976-.017356-.235836-.144332-.463641-.386408-.669653-.171509 1.490717-.346443 2.980747-.513613 4.471694-.39029 3.482012-.773273 6.964941-1.167218 10.446494-.080159.708424-.414726 1.067453-.950263 1.080988-.527086.013306-.922173-.33953-1.034304-1.009412-.477986-2.856635-.937017-5.716482-1.407239-8.574494-.078789-.47947-.17973-.9555-.394401-1.425335-.182928.735953-.363343 1.472365-.54924 2.20763-.282954 1.118382-.371563 1.187435-1.562989 1.187664-8.675232.001147-17.350463.001377-26.025695.001377-3.53865 0-7.077301.000688-10.615952-.001377 0 0-1.536041.099565-1.536041-.997712 0-.929117 1.659135-.844464 1.659135-.844464 11.642948-.00023 23.286124 0 34.9293 0h1.285973c.344844-1.376241.670733-2.662783.989086-3.951389.23751-.961235.456976-1.927288.700651-2.886917.174934-.688235.538734-1.0023 1.069246-.96743.51384.033953.824886.395048.939986 1.106912.322464 1.994506.637163 3.99016.966249 5.983518.05344.3237.164429.637994.461543.960317.065087-.465476.139537-.929805.193661-1.396658.521377-4.50106 1.88865-16.609641 2.07546-18.160236.096146-.797894.549467-1.153023 1.205128-.99014.58989.146593.721204.603811.753405 1.136046.09843 1.635018.204851 3.269577.309903 4.904365.19526 3.039247.396 6.078265.586007 9.11797.126063 2.0163.23043 4.034206.357862 6.050277.098429 1.5561.2149 3.111053.333654 4.665776.010962.14086.098429.275983.245045.664836" fill="#8F1D20" mask="url(#b)"/>
    </g>
    <path d="M30.468181 35.96133c.71618 0 1.35791.010782 1.998955-.002295 1.267474-.025923 2.175945-.661394 2.590215-1.85984.333426-.964907.327945-1.976154.020097-2.928672-.351467-1.087182-1.110353-1.830247-2.309543-1.919717-.74701-.055747-1.50133-.010324-2.299724-.010324v6.720847zm-.819633-8.295071c.973557-.014453 1.947114-.034183 2.919986-.012159 2.845765.063547 4.744692 2.112882 4.713177 5.044535-.03083 2.853424-1.974748 4.827741-4.787398 4.849994-1.322512.010553-2.645024.001836-4.030796.001836-.024664-.363847-.029689-6.978018-.01256-9.874341.361058-.005506.918747-.005736 1.197591-.009865z" fill="#414241"/>
    <path d="M14.275846 32.306754c.435966 0 .809814.006194 1.183205-.002523.189321-.004589.381612-.018124.56591-.058271.819861-.178024 1.35517-.83093 1.344892-1.623318-.009135-.685482-.46063-1.219553-1.270443-1.378994-.5771-.113788-1.903266-.196376-1.823564-.08167v3.144776zm-.063716 1.546465v3.643976h-1.796387v-9.8475s3.05975-.180547 4.581176.14866c1.14027.246617 2.042346.886217 2.196498 2.173217.157578 1.314988-.213986 2.415247-1.440353 3.098435-.130173.072265-.253723.15623-.427287.264053.907329 1.3572 1.807806 2.704306 2.817447 4.214753-.736049 0-1.273412.075706-1.774692-.0273-.32292-.0663-.669364-.338382-.871703-.61643-.558602-.768529-1.038644-1.594182-1.56573-2.38657-.525031-.789406-.567509-.654053-1.718969-.665294z" fill="#404140"/>
    <path d="M27.166697 29.240276H22.93105v2.521235h3.318727v1.514806h-3.30434v2.669894h4.209156v1.578812c-.988173.008718-1.997813.021565-3.007453.025923-1.024941.004589-2.049654.000918-3.05998.000918-.039737-10.110635-.039737-.016518-.053667-9.905541 1.802325 0 3.620636-.001147 5.439176.001606.21764.00023.43528-.013535.694028 0v1.592347z" fill="#444544"/>
    <path d="M25.418976 43.334555h1.79319c.020554.309706.016215 4.023194 0 5.588011-.021924 2.077783-1.446747 3.507247-3.521522 3.519406-.522748.002983-1.068104-.033723-1.565045-.181694-1.479862-.440011-2.37326-1.570782-2.409571-3.101876-.045218-1.90366-.010962-3.809153-.010962-5.79586h1.782457c0 1.497372-.000229 2.975472 0 4.453572 0 .381511-.020326.764858.005024 1.144764.079474 1.192024.852976 1.951147 1.962643 1.948624 1.122229-.002753 1.924277-.74467 1.963786-1.941053.048872-1.487277 0 0 0-5.633894" fill="#484948"/>
    <path fill="#464746" d="M41.467481 52.202076v-8.854605h5.719848v1.414323h-3.893772v2.354683h3.014761v1.385417h-3.048332v2.339312h3.899938v1.36087z"/>
    <path d="M14.093307 47.835958s1.285516.013076 1.858962-.12136c.774415-.181693 1.224997-.8853 1.154886-1.607717-.072851-.74857-.60953-1.329441-1.399246-1.4157-.514526-.056435-1.040013-.010782-1.614602-.010782v3.155559zm-.031515 1.399411v3.109447H12.51867l-.054582-9.036988c1.232305 0 2.48973-.114476 3.718838.02317 2.772456.310624 3.172567 2.89426 2.254048 4.476054-.55609.957564-1.491965 1.2558-2.492927 1.37624-.556547.06699-1.127253.052077-1.882256.052077z" fill="#404140"/>
    <path d="M34.282525 51.147998c.299626-.345494.605875-.698559.923086-1.06447.423862.244553.756374.4758 1.079294.64304 1.60501.831618 2.3929-.290205 2.511426-.809364.12766-.558388-.265142-.875894-.66708-1.06837-.543986-.260383-1.145979-.395506-1.715315-.605418-1.745688-.6435-2.305204-2.489118-1.221799-3.98557.430484-.594636 1.053716-.880483 1.727419-1.007348 1.243951-.23423 2.390387-.004817 3.42081.922694-.214672.39803-.405364.751324-.637848 1.182389-.486893-.207618-.894769-.37463-1.296706-.554948-.52389-.234917-1.038644-.222988-1.52645.07456-.684208.41707-.712754 1.116546-.05892 1.566193.214214.147512.476615.229183.723487.3237.38892.14843.788575.2691 1.174755.424183 1.271356.509982 1.77926 1.195923 1.77081 2.3673-.009364 1.290212-.687862 2.273012-1.87746 2.719447-1.442866.541182-3.164347.116312-4.32951-1.128018" fill="#434443"/>
    <path fill="#4A4B4A" d="M28.608306 52.346904v-8.984682h1.75254v7.459553h3.572906v1.52513z"/>
  </g>
</svg>
