<?xml version="1.0" encoding="UTF-8"?>
<svg width="105px" height="105px" viewBox="0 0 105 105" version="1.1" xmlns="http://www.w3.org/2000/svg" xmlns:xlink="http://www.w3.org/1999/xlink">
    <!-- Generator: Sketch 49.2 (51160) - http://www.bohemiancoding.com/sketch -->
    <title>Group</title>
    <desc>Created with Sketch.</desc>
    <defs></defs>
    <g id="Page-1" stroke="none" stroke-width="1" fill="none" fill-rule="evenodd">
        <g id="Group">
            <circle id="Oval" fill="#0057FF" cx="52.5" cy="52.5" r="52.5"></circle>
            <path d="M39.188,65.2 L33.824,65.2 L28.748,56.452 L24.968,56.452 L24.968,65.2 L20,65.2 L20,40 L30.08,40 C32.42,40 34.4,40.828 36.02,42.448 C37.64,44.068 38.468,46.048 38.468,48.352 C38.468,51.484 36.524,54.364 33.608,55.696 L39.188,65.2 Z M30.08,44.644 L24.968,44.644 L24.968,52.096 L30.08,52.096 C31.952,52.096 33.5,50.404 33.5,48.352 C33.5,46.3 31.952,44.644 30.08,44.644 Z M51.5,65.704 C48.692,65.704 46.388,64.912 44.588,63.328 C42.788,61.744 41.888,59.62 41.888,56.956 L41.888,40 L46.82,40 L46.82,56.56 C46.82,59.188 48.296,60.844 51.5,60.844 C54.704,60.844 56.18,59.188 56.18,56.56 L56.18,40 L61.148,40 L61.148,56.956 C61.148,59.62 60.248,61.744 58.448,63.328 C56.648,64.912 54.344,65.704 51.5,65.704 Z M80.84,52.132 C83.036,53.392 84.152,55.336 84.152,57.892 C84.152,60.016 83.396,61.78 81.884,63.148 C80.372,64.516 78.5,65.2 76.304,65.2 L65.612,65.2 L65.612,40 L75.548,40 C77.708,40 79.508,40.684 80.984,42.016 C82.46,43.348 83.216,45.04 83.216,47.092 C83.216,49.18 82.424,50.872 80.84,52.132 Z M75.548,44.644 L70.58,44.644 L70.58,50.188 L75.548,50.188 C77.096,50.188 78.248,49 78.248,47.416 C78.248,45.832 77.132,44.644 75.548,44.644 Z M70.58,60.556 L76.304,60.556 C77.996,60.556 79.22,59.296 79.22,57.568 C79.22,55.876 77.996,54.616 76.304,54.616 L70.58,54.616 L70.58,60.556 Z" id="RUB" fill="#FFFFFF"></path>
        </g>
    </g>
</svg>