<svg width="80" height="80" viewBox="0 0 80 80" xmlns="http://www.w3.org/2000/svg">
  <title>
    rvt-rivetz
  </title>
  <g fill="none" fill-rule="evenodd">
    <circle fill="#F04115" cx="40" cy="40" r="40"/>
    <path d="M79.265562 43.372177c-.477396 6.947257-2.76426 13.284248-6.750532 18.959292-6.862722 9.77038-16.302486 15.37038-28.173018 16.88377-.35006.0446-.708166.02855-1.062485.04106-.860592-.06679-1.721657-.1331-2.582722-.19965-4.695622-.38679-9.03858-1.91292-13.061775-4.27398-1.835977-1.07776-3.46296-2.5095-5.184616-3.78054l.019882-.0203c.453254.1187.924734.19162 1.356686.36295 7.3271 2.90737 14.851835 3.31705 22.43858 1.41003 7.995503-2.01015 14.684734-6.28554 19.727338-12.79599 7.08781-9.15021 9.39361-19.49688 6.93633-30.8203-.47929-2.20862-1.296807-4.34455-1.958345-6.51375l.018698-.01864c.881183 1.08578 1.856094 2.10973 2.62722 3.26867 2.967336 4.45994 4.879762 9.32649 5.440235 14.68177.069586.93852.139172 1.87705.20852 2.81557" fill="#F03C13"/>
    <path d="M27.41865 77.374773c-4.468875-1.349853-8.463668-3.599056-12.070295-6.51186C6.93581 64.06858 1.96161 55.28557.728237 44.57147-1.528095 24.96604 10.956402 6.960377 30.109302 1.93383 49.16516-3.06747 69.412024 7.1343 76.637586 25.384447c.282603.7141.49704 1.455104.743432 2.1836l-.236923.711976c-.340592-.832567-.654675-1.67717-1.026036-2.496048-2.51716-5.552565-6.05989-10.352565-10.86651-14.126253-1.89184-1.485074-4.06107-2.618525-6.10415-3.912213-.85349-.46632-1.6774-1.00059-2.56592-1.38761-5.67882-2.47269-11.5858-3.55989-17.80829-3.15989-5.84805.37569-11.28923 1.9554-16.37515 4.80755-6.85918 3.84684-12.05444 9.31422-15.54486 16.31906-3.06958 6.15977-4.37585 12.70112-3.84781 19.60685.29302 3.8282 1.04521 7.5325 2.46887 11.08649.57586 1.43764 1.37586 2.78607 2.07361 4.17533.22438.49534.4045 1.01616.67953 1.48153 2.31621 3.92212 5.25112 7.3272 8.7981 10.1843 3.35195 2.69994 7.06793 4.78985 11.11716 6.27728-.24142.07953-.48261.15882-.72403.23835" fill="#F04115"/>
    <path d="M79.265562 43.372177c-.06935-.938525-.138935-1.87705-.208757-2.81581.066745-.372627.2329-.758703.184852-1.116225-.35148-2.612862-.7458-5.22006-1.126627-7.829145.074556-.256755.149112-.513746.22343-.7705 1.147457 4.115633 1.449232 8.293332.927102 12.53168" fill="#E07333"/>
    <path d="M40.6969 79.056873c.861064.066313 1.721893.132626 2.58272.19941-2.171123.046726-4.344614.174867-6.512188.110207-1.30225-.038702-2.59574-.377346-3.893254-.58124.24852-.062536.49704-.125073.745088-.188082 2.341302.421947 4.67503.968732 7.077633.459705" fill="#DB793B"/>
    <path d="M33.619645 78.597805c-.24852.062537-.49704.124838-.745325.187375-1.8187-.47009-3.637397-.940177-5.455858-1.4105.24142-.07953.48284-.158586.724023-.238114 1.8258.486844 3.651598.97416 5.47716 1.46124" fill="#F0571A"/>
    <path d="M78.33846 30.840496c-.074318.256755-.148874.513746-.223904.770265-.32355-1.11056-.6471-2.22064-.970414-3.33073l.236923-.71197c.319053 1.09074.638107 2.18148.957396 3.27245" fill="#F0551A"/>
    <path d="M50.64258 43.260413c.003313-.00944.005917-.053805.029586-.07764.359526-.36295.725917-.71882 1.082603-1.084602 2.68899-2.75964 4.20023-6.07433 4.48686-9.89404.66887-8.91705-5.99456-16.38159-15.12876-17.01852-8.41184-.58666-16.24545 6.08944-16.50983 14.72472-.33823 11.04118-.12545 22.09912-.16 33.14997-.00237.7764.37491 1.03316 1.09846 1.02443 1.57775-.01911 3.15881-.06631 4.73254.01416 1.16071.05947 1.48047-.37144 1.46769-1.49923-.05515-4.79764-.00521-9.59622-.03929-14.3941-.00663-.93428.2239-1.35528 1.2542-1.32908 2.40473.06065 4.8123-.00849 7.21822.02667 5.17656.07552 8.79763 3.7482 8.82887 8.9298.01373 2.32048.03882 4.64189-.01373 6.96118-.02272.98903.34958 1.32909 1.31455 1.29817 1.57633-.05002 3.15597-.04224 4.73278-.00235.89112.02218 1.27905-.26147 1.25941-1.21841-.05255-2.55551.01396-5.11315-.03172-7.66891-.06059-3.40389-1.11787-6.49298-3.19787-9.19858-.73917-.96165-1.60687-1.82537-2.42462-2.7436m26.50155-14.9803c.32331 1.11009.64686 2.22018.97041 3.3305.3813 2.60933.77562 5.21676 1.1271 7.82962.04805.35753-.11811.74337-.18485 1.11623-.56024-5.35504-2.47267-10.22159-5.44-14.68153-.77089-1.15894-1.74604-2.18289-2.62746-3.26867l-.11574-.10053.09728.11894c.66154 2.16944 1.47905 4.30514 1.95834 6.51398 2.45728 11.32342.15148 21.67009-6.93633 30.8203-5.04261 6.51044-11.7316 10.78584-19.72734 12.79575-7.58651 1.90702-15.11148 1.49734-22.43835-1.409792-.43219-.171565-.90367-.24425-1.35692-.362715-.04024-.03209-.08024-.06419-.12024-.09628.03337.0387.06698.07764.100352.11634 1.72165 1.27079 3.34864 2.70277 5.18461 3.78029 4.02343 2.361295 8.36639 3.88743 13.061773 4.274215-2.4026.50926-4.73609-.03776-7.07739-.459708-1.82532-.48637-3.65112-.973687-5.47692-1.46053-4.04899-1.48767-7.76497-3.577346-11.11692-6.27752-3.54722-2.856877-6.48189-6.26195-8.79834-10.18407-.27479-.46561-.45491-.98643-.67905-1.48154.26272.20201.576094.36319.781064.612865 2.708163 3.30265 5.78248 6.19894 9.42698 8.45994.77065.47811 1.589584.87929 2.386034 1.31563.073136-.084484.14651-.16897.21988-.253215-4.09136-4.2197-7.04757-9.09144-8.71408-14.713153-1.6561-5.58583-1.82746-11.23327-.64616-16.91421 1.19787-5.76142 3.741305-10.942066 7.63716-15.31469 6.622965-7.4334 14.95054-11.53912 25.017755-11.8898 9.98604-.34808 18.45823 3.25805 25.78107 9.92472.008996-.313864-.039524-.50053-.12994-.66407-2.22509-4.0295-5.11503-7.50962-8.65728-10.45947-.55053-.45829-1.004494-1.031976-1.50319-1.55233 2.04284 1.29345 4.2123 2.42714 6.10414 3.91221 4.80662 3.77345 8.34935 8.57369 10.86651 14.12602.37136.819115.68544 1.66348 1.02603 2.49628" fill="#F78800"/>
    <path d="M59.147456 7.74558c.498698.520355.952662 1.094042 1.503195 1.552567 3.54202 2.949617 6.43219 6.429735 8.65728 10.459233.09042.16354.13894.350207.12994.66407-7.32284-6.666665-15.79503-10.2728-25.78106-9.924718-10.06722.350678-18.39479 4.4564-25.01775 11.89003-3.89586 4.372388-6.43929 9.553037-7.63739 15.314453-1.18106 5.680944-1.0097 11.328378.64616 16.91422 1.66675 5.621946 4.62296 10.49345 8.71432 14.713155-.07337.084248-.14674.16873-.21988.253215-.79669-.436342-1.61538-.837522-2.38603-1.315634-3.64449-2.261-6.71881-5.15705-9.42722-8.45994-.20473-.24967-.5181-.41085-.78082-.61286-.69822-1.38926-1.49799-2.7377-2.07385-4.17557-1.42367-3.55374-2.17585-7.25805-2.46887-11.08649-.52828-6.90572.77823-13.44708 3.84781-19.60684 3.49042-7.00483 8.68568-12.47221 15.54486-16.31882 5.08591-2.85215 10.5271-4.43185 16.37491-4.80778 6.22248-.39976 12.1297.68744 17.80852 3.16012.88852.38679 1.71243.9213 2.56592 1.38761" fill="#FAB200"/>
    <path d="M36.8631 39.636814v-.006608c1.300592 0 2.602604.037523 3.90154-.006843 4.551952-.155044 8.215857-3.968378 8.23503-8.538997.019407-4.637876-3.63432-8.480236-8.241658-8.66714-4.639053-.18808-8.734438 3.329795-8.979408 7.885783-.149586 2.78206-.025326 5.57828-.044498 8.36814-.00497.70277.28497.98784.991006.97368 1.3787-.02738 2.75858-.00803 4.13799-.00803m13.779407 3.6236c.81775.91823 1.68544 1.78194 2.42461 2.7436 2.08 2.7056 3.13728 5.79469 3.1981 9.19858.04544 2.55575-.02107 5.11339.03148 7.66891.01964.95693-.36805 1.24059-1.25918 1.2184-1.57681-.03988-3.15669-.04791-4.73278.00236-.96521.03091-1.33728-.30915-1.3148-1.29817.05254-2.3193.02769-4.64071.01373-6.96118-.03101-5.1816-3.65231-8.85428-8.82888-8.9298-2.40568-.03516-4.81349.03398-7.21799-.02667-1.03029-.0262-1.26106.3948-1.25444 1.32908.03408 4.79787-.01586 9.59646.03929 14.3941.01302 1.12755-.30698 1.5587-1.46769 1.49923-1.57373-.08048-3.1548-.03328-4.73231-.01416-.72379.00873-1.10107-.24803-1.0987-1.02443.03456-11.05086-.17822-22.10879.16-33.14997.26438-8.63528 8.09799-15.31139 16.51006-14.72472 9.13396.63693 15.7974 8.10147 15.12852 17.01852-.28639 3.8197-1.79787 7.13439-4.48686 9.89404-.35645.36554-.72308.72165-1.08261 1.0846-.02343.02383-.02627.0682-.02959.07764" fill="#FEFCFB"/>
    <path d="M36.8631 39.636814c-1.379408 0-2.75929-.01935-4.137988.008024-.706035.01416-.995976-.270915-.991006-.973688.019172-2.789852-.105088-5.586076.044498-8.36814.24497-4.55599 4.340355-8.073866 8.979408-7.885783 4.607337.186903 8.261065 4.029263 8.241657 8.66714-.01918 4.570618-3.68308 8.383952-8.23503 8.538996-1.29894.044366-2.60095.006844-3.90154.006844v.006607z" fill="#F78902"/>
  </g>
</svg>
