<svg width="80" height="80" viewBox="0 0 80 80" xmlns="http://www.w3.org/2000/svg">
  <title>
    safex-safexchangecoin
  </title>
  <g fill="none" fill-rule="evenodd">
    <circle fill="#0071A3" cx="40" cy="40" r="40"/>
    <path d="M49.793504 25.310303c-3.295288-4.926964-7.803294-8.415643-13.24374-10.808835 1.319886-.453012 2.17172-.589645 3.42413-.44785 2.75793.311825 5.508838.627597 8.175172 1.492328 1.609632.521936 3.062025 1.317136 4.502817 2.146343 3.293455 1.89585 6.00803 4.40988 8.23776 7.49534 2.597638 3.59434 4.308635 7.49504 4.761726 11.92102.10747 1.04842.47171 2.00454.98128 2.9631 1.79374 3.37634 2.89441 6.99041 3.24827 10.80124.33921 3.65172-.0632 7.24728-1.00358 10.78606-.06351.23925-.19785.45999-.38745.695 1.00846-6.0261-.11602-11.72154-2.74267-17.29675-.14075.37984-.34073.74844-.41309 1.14073-.81703 4.43478-2.91975 8.22253-5.77813 11.66658-2.68038 3.22999-6.04711 5.51569-9.819 7.24941-2.03464.93547-4.22895 1.3818-6.43181 1.74707-.74253.12297-1.493.19796-2.35278.07894.64483-.49977 1.26889-1.02808 1.93754-1.49355 3.0953-2.15454 5.44075-4.98465 7.4708-8.10837 2.29934-3.53726 3.49771-7.48138 4.20971-11.57489.65704-3.77834.42561-7.536036-.71383-11.219948-.22227-.7196-.46897-1.43707-.61735-2.17276-.17678-.87627-.62529-1.430695-1.48537-1.733715-.93061-.32792-1.82794-.750568-3.09256-1.279488 4.37214 9.64412 3.12889 18.23192-3.39757 26.31965 2.46696-11.72458-1.20936-20.89443-10.48062-27.907318-3.43329.359497-6.569817 1.364808-9.54635 2.754207-2.959748 1.38181-5.67554 3.20236-8.08419 5.43888 3.38963-4.72778 8.009995-7.837534 13.42449-9.99025-.377676-.75603-1.092118-.85744-1.667336-1.012597-3.086755-.833154-6.218088-1.50144-9.439794-1.256715-3.13591.238045-6.20801.84105-9.47002 2.282673.51416-.61272.79688-.96068 1.09121-1.299223 2.30148-2.64672 5.13421-4.58933 8.36111-5.901606 2.200113-.894485 4.535483-1.29497 6.934665-1.502955 3.13683-.27205 6.164965.0759 9.104558 1.04569 2.846775.93942 5.485325 2.31668 7.66987 4.44268 1.238365 1.20509 2.579012 2.24471 4.409083 2.44177.67903.07287 1.33882.32093 2.00716.48914.07205-.13056.14411-.26082.21586-.39107" fill="#FFF"/>
  </g>
</svg>
