<svg width="80" height="80" viewBox="0 0 80 80" xmlns="http://www.w3.org/2000/svg">
  <title>
    san-santiment
  </title>
  <g fill="none" fill-rule="evenodd">
    <circle fill="#FFF" cx="40.5" cy="40.5" r="37.5"/>
    <g fill-rule="nonzero" fill="#2B77B3">
      <path d="M79.96 40.142c-.17 22.19-18.154 39.984-40.24 39.818C17.616 79.79-.138 61.727.04 39.585.22 17.66 18.252-.107 40.18.04 62.27.19 80.125 18.188 79.96 40.142zm-77.028-.128c.04 20.416 16.556 36.9 37.012 36.943 20.48.042 37.19-16.555 37.117-36.993-.075-21.286-17.707-37.347-38.006-36.998C19.43 3.303 2.89 19.984 2.93 40.014h.002z"/>
      <path d="M49.74 22.665l-1.48 4.728c-2.752-.452-5.305-.993-7.886-1.248-1.532-.15-3.12.25-3.716 1.976-.61 1.77-.684 3.656.782 5.02 1.502 1.4 3.27 2.507 4.918 3.75 1.515 1.142 3.18 2.137 4.504 3.47 3.586 3.618 4.223 8.006 2.75 12.736-.875 2.804-2.95 4.576-5.607 5.653-4.07 1.648-11 .838-14.888-1.78l1.704-4.955c2.48.653 4.748 1.438 7.08 1.808 2.225.35 4.554.01 5.694-2.26 1.148-2.285.785-4.698-1.013-6.534-1.388-1.418-3.13-2.5-4.752-3.677-1.084-.787-2.294-1.404-3.348-2.226-4.23-3.3-5.612-8.813-3.468-13.728 1.03-2.363 2.893-3.894 5.34-4.477 4.56-1.082 8.98-.59 13.39 1.742M20.39 39.34c-.014 2.543-2.053 4.6-4.57 4.612-2.54.012-4.716-2.203-4.656-4.738.06-2.485 2.213-4.555 4.7-4.518 2.542.038 4.54 2.088 4.526 4.645M64.32 34.822c2.535-.003 4.422 1.868 4.456 4.418.034 2.623-2.057 4.75-4.635 4.713-2.525-.037-4.548-2.102-4.546-4.644 0-2.66 1.924-4.486 4.726-4.488"/>
    </g>
  </g>
</svg>
