<svg width="80" height="80" xmlns="http://www.w3.org/2000/svg">
  <g fill="none" fill-rule="evenodd">
    <circle fill="#FFF" cx="40" cy="40" r="40"/>
    <g fill-rule="nonzero">
      <path d="M21.81 20.763c-2.212 1.853-4.493 4.135-5.42 6.92-1.07 3.28.425 6.634 1.854 9.557 1.425 2.994 2.993 5.92 4.347 8.985 1.07 2.425 2.567 5.276 2.212 7.99-.285 1.927-.928 3.78-1.284 5.706-.284 1.285.928 0 1.355-.354 2.495-2.14 5.203-4.566 6.202-7.848.497-1.64.213-3.14-.356-4.708-.57-1.496-1.213-2.922-1.856-4.423-1.354-2.997-2.78-5.99-4.208-8.988-.57-1.072-1.14-2.213-1.64-3.354-.5-1.226-.79-2.528-.855-3.85-.07-1.07-.07-2.07.072-3.14.07-.787.284-1.498.355-2.283.075-.423-.28-.57-.778-.21m32.652 0c-2.21 1.858-4.492 4.14-5.42 6.92-1.07 3.28.426 6.634 1.855 9.557 1.426 2.998 2.997 5.92 4.35 8.99 1.07 2.424 2.567 5.275 2.212 7.99-.286 1.926-.93 3.778-1.284 5.705-.285 1.284.927 0 1.354-.355 2.495-2.14 5.203-4.566 6.202-7.848.497-1.64.213-3.14-.356-4.707-.568-1.497-1.212-2.923-1.855-4.424-1.353-2.996-2.78-5.99-4.208-8.988-.568-1.07-1.14-2.21-1.638-3.353-.502-1.226-.792-2.528-.857-3.85-.07-1.072-.07-2.07.07-3.14.072-.787.285-1.498.357-2.284.074-.426-.28-.572-.782-.213" fill="#165098"/>
      <path d="M37.636 15.34c-2.495 2.07-5.203 4.566-6.703 7.49-1.07 2.068-1.212 4.21-.644 6.345.713 2.567 1.71 5.134 2.78 7.63 2.067 4.78 4.776 9.273 6.773 14.123.713 1.71 1.496 3.637 1.64 5.565.14 2.353-.645 4.85-1.285 7.06-.142.645-.568 1.498-.497 2.142.072.498.357.285.645.07 1.23-.945 2.396-1.97 3.494-3.067 2.92-2.78 6.272-6.493 5.988-10.84-.142-1.785-1-3.497-1.71-5.136-.786-1.923-1.638-3.775-2.495-5.632-1.567-3.496-3.21-6.92-4.92-10.344-.567-1.212-1.282-2.353-1.708-3.566-.644-1.64-.928-3.353-1-5.063-.07-1.283 0-2.638.143-3.922.07-.857.356-1.64.356-2.496.213-.787-.214-.858-.857-.36z" fill="#5C9DD5"/>
    </g>
  </g>
</svg>
