<svg width="80" height="80" viewBox="0 0 80 80" xmlns="http://www.w3.org/2000/svg">
  <title>
    sc-siacoin
  </title>
  <g fill-rule="nonzero" fill="none">
    <circle fill="#000" cx="40" cy="40" r="40"/>
    <path d="M54.376 35.374c-3.997-2.512-9.005-2.77-13.216-.786l-.007-.01c-2.288 1.03-4.968.615-6.836-1.06-.088-.08-.173-.16-.256-.24l-8.48-8.484c-.002 0-.005-.004-.006-.007-.548-.613-.808-1.43-.714-2.247l-.007-.003c.236-1.252-.37-2.51-1.497-3.106-1.127-.594-2.51-.386-3.41.515-.9.9-1.11 2.283-.515 3.41.597 1.126 1.856 1.733 3.108 1.497l.003.006c.797-.09 1.63.13 2.264.7.003 0 .007.006.008.006l8.52 8.524c.07.068.126.148.192.222 1.675 1.872 2.09 4.557 1.054 6.847l.006.007c-1.984 4.212-1.727 9.223.785 13.22.546.876 1.19 1.687 1.92 2.418 2.377 2.378 5.532 3.785 8.644 4.062.815.07 12.43.03 12.43.03.63 0 1.276-.31 1.722-.756.446-.445.817-1.153.817-1.784v-11.25c0-.56-.12-1.37-.13-1.484-.277-3.113-1.6-5.945-3.98-8.323-.73-.73-1.542-1.374-2.417-1.923m.744 9.42c.327 1.604.342 2.31.342 2.417v5.7c0 .63-.28 1.37-.726 1.815-.446.445-1.184.726-1.814.726h-5.535c-.107 0-1.406-.015-2.6-.344-1.38-.386-2.636-1.124-3.645-2.142-3.256-3.254-3.255-8.56 0-11.813 3.254-3.253 8.57-3.256 11.826-.002 1.048 1.05 1.876 2.287 2.154 3.646" fill="#00CBA0"/>
  </g>
</svg>
