<svg width="80" height="80" xmlns="http://www.w3.org/2000/svg">
  <g fill="none" fill-rule="evenodd">
    <circle fill="#000" cx="40.5" cy="40.5" r="37.5"/>
    <path d="M59.402371 48.076357c-1.38988.020048-2.41465 1.069686-2.394602 2.453204.01947 1.33012 1.145638 2.465928 2.444723 2.465735 1.30718-.000385 2.412723-1.144289 2.403084-2.486554-.009831-1.339566-1.130988-2.451277-2.453205-2.432385M44.171528 33.119055c3.329542-1.571084 3.303132-1.57012 3.049638-5.285204-.117205-1.716627-.904096-2.9947-2.316144-3.884338-2.84029-1.789301-5.859663-1.815132-8.838362-.513156-1.997108.872867-3.09706 2.506602-3.016289 4.819277.062843 1.795855-.016771 3.596915.048771 5.39277.01812.498121.214169 1.07547.521639 1.463904 2.828915 3.574362 5.713735 7.104579 8.54053 10.68029.326169.412337.537831 1.018795.562313 1.546602.079036 1.698313.05976 3.402024.051084 5.103422-.007132 1.380433-1.17706 2.35547-2.746024 2.327903-1.471614-.025831-2.545542-.97735-2.559614-2.300337-.016193-1.50882-.000771-3.018024-.008868-4.527036-.001349-.269494-.049542-.53841-.09118-.959615-1.369832.64829-2.623036 1.205398-3.831904 1.845976-.226313.119904-.37012.56906-.387663.87576-.051084.896192.037398 1.801252-.030457 2.695325-.177928 2.341783 1.600963 4.305349 3.506698 5.013204 2.320964.862073 4.647519.847808 6.957494-.044722 2.219374-.857253 3.530795-2.727519 3.571278-5.105157.034891-2.054554.072674-4.110265.029879-6.163855-.01041-.496386-.222458-1.074121-.530892-1.465446-2.007132-2.545928-4.071903-5.045976-6.106024-7.5707-1.006072-1.24877-2.369927-2.383806-2.871325-3.815517-.50159-1.432675-.129542-3.171277-.14053-4.775518-.000193-.032193-.000386-.064193.000193-.096386.021783-1.296.676626-2.085205 1.955855-2.356626 1.346892-.286073 2.533398.19065 2.91547 1.400482.311904.98718.41253 2.062265.461494 3.105349.047807 1.017639-.088482 2.043952-.154024 3.25282.591614-.267374 1.02747-.456868 1.456964-.65947M61.86001 40.59973c-.057253.020627-.114506.041253-.171567.06188 1.17494 4.457638 2.34988 8.91547 3.561832 13.51306-4.520868 1.22082-8.981783 2.425446-13.4427 3.630072l.03258.181783c5.196915.30535 10.393638.610892 15.642216.919326-3.003373 6.627084-17.101687 14.998361-24.064771 14.289735 2.453012-4.898314 4.884048-9.752482 7.314892-14.606844-.039326-.022554-.078651-.045108-.117976-.067855-3.271904 3.25224-6.543422 6.504289-9.909398 9.850217-3.266891-3.22988-6.49041-6.416964-9.713928-9.604049l-.179855.124723c2.399036 4.796723 4.798072 9.593639 7.296964 14.590073-4.128-.21012-7.904771-1.061205-11.491085-2.647904-5.817253-2.57388-10.57253-6.465735-14.399229-11.894747 5.902458-.33118 11.576868-.649446 17.25147-.967518l.02429-.160193c-4.44241-1.191518-8.885013-2.382843-13.44482-3.605976 1.200386-4.518747 2.37359-8.935903 3.546603-13.352674-.067085-.035278-.133976-.070747-.201253-.106025-3.094555 4.714603-6.188916 9.429398-9.293494 14.15923-4.784771-4.782651-4.83759-22.659085-.056675-29.902844 3.135036 4.74371 6.23229 9.430554 9.329735 14.11759.07306-.027566.14612-.05494.21918-.082313-1.156626-4.393831-2.313445-8.787662-3.494168-13.272289 4.506795-1.216771 8.922024-2.408675 13.337253-3.600964l-.012723-.210506c-5.637398-.345253-11.274988-.690313-16.961542-1.038458C15.568732 13.975152 30.91254 5.399345 37.972974 6.650236c-2.43817 4.892723-4.860916 9.754795-7.283856 14.616868.06612.051084.132241.102361.198362.153638 3.233735-3.27653 6.467662-6.553253 9.777927-9.90747 3.365976 3.380048 6.619181 6.64694 9.872578 9.914024l.17041-.116626c-2.42294-4.857446-4.846072-9.714892-7.285976-14.606072 6.29494-.99817 20.634603 7.498988 24.089639 14.280482-5.282313.325975-10.452241.645012-15.622554.963855-.005976.071325-.012145.142843-.018314.214169 4.413494 1.192674 8.827181 2.385156 13.360386 3.610024-1.19576 4.540144-2.368386 8.992385-3.54082 13.444626.054362.028723.108916.057446.163085.086169 2.866699-4.333494 5.73359-8.66718 8.70747-13.162795 3.984 9.278457 3.962024 18.336578.024096 27.676337-2.988144-4.52665-5.85677-8.87229-8.725397-13.217735M40.437166.005802C18.43948-.369523-.00023 17.416116-.000039 39.903634c.000386 22.416578 17.936964 39.364434 38.625157 40.055132 22.958072.766458 41.388723-17.584 41.355566-40.091373C79.949455 18.545754 62.956492.221128 40.437166.005803M59.488347 26.61361c-1.453494-.001157-2.47229.984867-2.453783 2.374554.017542 1.324723 1.14082 2.431807 2.474024 2.438168 1.312385.006555 2.453783-1.158168 2.425831-2.47518-.027566-1.28212-1.130602-2.336579-2.446072-2.337542m-37.764048 4.620144c1.312964.001735 2.43412-1.140626 2.425253-2.471132-.008675-1.325494-1.120964-2.396145-2.48347-2.391133-1.457735.00559-2.456482.976771-2.440482 2.373205.016193 1.414747 1.093012 2.487325 2.498699 2.48906m-.000578 17.16241c-1.426507.002699-2.470362 1.003373-2.469784 2.367421.000771 1.33147 1.185157 2.46323 2.560579 2.447037 1.273445-.01523 2.372048-1.130217 2.377831-2.413302.005976-1.326265-1.101687-2.403662-2.468627-2.401156m18.937832-27.729542c1.37041.043566 2.460723-.988723 2.495036-2.36241.032578-1.295036-1.01012-2.400386-2.31865-2.45841-1.43094-.063421-2.499663.90641-2.527422 2.29359-.027374 1.368097 1.011277 2.484627 2.351036 2.52723m-.006747 38.785542c-1.400097-.055325-2.47653.94959-2.508916 2.342554-.030072 1.296 1.118072 2.501012 2.406169 2.525301 1.300434.024482 2.480385-1.130795 2.488096-2.435855.007518-1.264386-1.087614-2.380916-2.38535-2.432" fill="#F1C45C"/>
  </g>
</svg>
