<svg width="80" height="80" viewBox="0 0 80 80" xmlns="http://www.w3.org/2000/svg" xmlns:xlink="http://www.w3.org/1999/xlink">
  <title>
    send-social-send
  </title>
  <defs>
    <path id="a" d="M0 .115288h50.091877v42.92819H0z"/>
    <path id="c" d="M.133456.124402h50.12104v42.86775H.133455z"/>
  </defs>
  <g fill="none" fill-rule="evenodd">
    <circle fill="#FFF" cx="40" cy="40" r="40"/>
    <g transform="translate(14 26.83212)">
      <mask id="b" fill="#fff">
        <use xlink:href="#a"/>
      </mask>
      <path d="M31.948767 28.916592c-.55309-.32576-.942357-.56087-1.337003-.786684C20.689544 22.448984 10.769607 16.76382.83614 11.102136c-.590746-.336685-.845692-.690652-.835912-1.390598.040264-2.87951.01565-5.759837.018257-8.64C.018648.807082.041144.542625.060868.115288c16.71857 9.723424 33.326131 19.38212 50.03101 29.097554-.290484.196142-.49229.350707-.710396.47674-7.547498 4.36239-15.10054 8.715-22.637442 13.095815-.592702.344348-1.014733.345-1.612163-.002935C16.98858 38.039364 8.828817 33.324636.66873 28.610234c-.400025-.231196-.665242-.457337-.66247-.992935.02282-4.238315.012877-8.476957.015485-12.715598 0-.133043.026082-.26625.049718-.491576.229355.096848.422684.154891.592213.253696 2.604565 1.51826 5.20163 3.049076 7.812878 4.555271.3759.217174.587812.456522.519022.896577-.004075.026576-.00114.054293-.000163.081358.032928.862337-.202784 1.877935.176376 2.542826.363022.636685 1.35852.919566 2.086684 1.339402 4.63501 2.672283 9.278658 5.329892 13.903072 8.020272.564664.328533.984414.341902 1.543373-.011413 1.672313-1.056685 3.383097-2.052717 5.24385-3.171522" fill="#6E6F71" mask="url(#b)"/>
    </g>
    <g transform="translate(15.630094 10.038641)">
      <mask id="d" fill="#fff">
        <use xlink:href="#c"/>
      </mask>
      <path d="M50.149305 42.992152C33.474258 33.294326 16.873218 23.639544.133455 13.904054c1.44785-.838206 2.756-1.597174 4.065618-2.353532 6.441643-3.720326 12.888013-7.4325 19.317756-11.17337.566947-.329837.984088-.340598 1.55185-.010272 8.189755 4.764946 16.392062 9.50886 24.595184 14.250816.349167.201847.592703.393424.590746.861684-.018746 4.346413-.014344 8.692827-.01842 13.03924-.000163.052174-.025103.104347-.064714.25875-.340853-.184566-.666709-.349892-.981643-.533805-2.414495-1.41-4.818395-2.83875-7.247235-4.223641-.498809-.284348-.73615-.622174-.63101-1.164946.362207-1.872391-.473053-2.865-2.132489-3.759945-4.801116-2.589457-9.487962-5.39136-14.206106-8.133261-.484301-.281576-.838847-.300652-1.319398.000978-1.517292.952337-3.06686 1.853315-4.601756 2.777935-.225605.135978-.438495.2925-.75669.506087.334985.210326.573142.372065.82222.514565 10.180752 5.82326 20.361994 11.64587 30.546332 17.462935.351775.20087.591398.404184.588464.86951-.020539 3.205272-.015323 6.410707-.020702 9.616142-.000163.051685-.028853.103206-.082157.282228" fill="#008DCF" mask="url(#d)"/>
    </g>
  </g>
</svg>
