<svg width="80" height="80" xmlns="http://www.w3.org/2000/svg" xmlns:xlink="http://www.w3.org/1999/xlink"><defs><path d="M9.36 1.2C7.6.16 5.44.32 3.04 2.24.64 4.16.8 7.36.8 7.36s13.84 7.84 14.72 8.4c3.12 2.08.24 5.52.24 5.52s3.92-1.76 7.68.4c3.04 1.76 2.56 4.48 2.56 4.48.96-1.04 3.2-4 2.32-9.92-.32-2-.48-4.4-5.44-7.36C20.56 7.52 9.36 1.2 9.36 1.2z" id="a"/><path d="M9.36 1.2C7.6.16 5.44.32 3.04 2.24.64 4.16.8 7.36.8 7.36s13.84 7.84 14.72 8.4c3.12 2.08.24 5.52.24 5.52s3.92-1.76 7.68.4c3.04 1.76 2.56 4.48 2.56 4.48.96-1.04 3.2-4 2.32-9.92-.32-2-.48-4.4-5.44-7.36C20.56 7.52 9.36 1.2 9.36 1.2z" id="c"/><path d="M9.36 1.2C7.6.16 5.44.32 3.04 2.24.64 4.16.8 7.36.8 7.36s13.84 7.84 14.72 8.4c3.12 2.08.24 5.52.24 5.52s3.92-1.76 7.68.4c3.04 1.76 2.56 4.48 2.56 4.48.96-1.04 3.2-4 2.32-9.92-.32-2-.48-4.4-5.44-7.36C20.56 7.52 9.36 1.2 9.36 1.2z" id="e"/><path d="M9.36 1.2C7.6.16 5.44.32 3.04 2.24.64 4.16.8 7.36.8 7.36s13.84 7.84 14.72 8.4c3.12 2.08.24 5.52.24 5.52s3.92-1.76 7.68.4c3.04 1.76 2.56 4.48 2.56 4.48.96-1.04 3.2-4 2.32-9.92-.32-2-.48-4.4-5.44-7.36C20.56 7.52 9.36 1.2 9.36 1.2z" id="g"/><path d="M9.36 1.2C7.6.16 5.44.32 3.04 2.24.64 4.16.8 7.36.8 7.36s13.84 7.84 14.72 8.4c3.12 2.08.24 5.52.24 5.52s3.92-1.76 7.68.4c3.04 1.76 2.56 4.48 2.56 4.48.96-1.04 3.2-4 2.32-9.92-.32-2-.48-4.4-5.44-7.36C20.56 7.52 9.36 1.2 9.36 1.2z" id="i"/></defs><g fill="none" fill-rule="evenodd"><circle fill="#FFF" cx="40" cy="40" r="40"/><path fill="#333" fill-rule="nonzero" opacity=".25" d="M65.2 47.2l-10.32 8.08V24.4H65.2z"/><path d="M54.8 51.84s-4.32 2.56-11.2 6.48c-1.92.96-4.72 1.04-6.48 0L25.6 51.6c-1.76-1.04-4.72-1.04-6.48 0l-3.04 1.76c-1.76 1.04-1.76 2.72 0 3.76L37.12 69.2c1.76 1.04 4.72 1.04 6.48 0 0 0 17.92-9.68 19.6-11.44 1.6-1.68.16-4.72-2.24-5.6-2.4-.72-5.28-.88-6.16-.32zM43.2 10.8c-1.76-1.04-4.72-1.04-6.48 0L16.16 22.64c-1.76 1.04-1.76 2.72 0 3.76l3.04 1.76C20.96 29.2 22.4 30 22.48 30c0 0 1.44.8 3.28 1.84l20.08 11.52c1.76 1.04 3.2.16 3.2-1.84V38c0-2.08-1.44-4.56-3.28-5.6L35.2 26.32c-1.76-1.04-1.76-2.72 0-3.68l1.52-.88c1.76-1.04 4.72-.96 6.56.08l11.12 6.4c1.76 1.04 4.72 1.04 6.48 0l3.04-1.76c1.76-1.04 1.76-2.72 0-3.76L43.2 10.8z" fill="#333" fill-rule="nonzero"/><g transform="translate(37.2 31.6)"><mask id="b" fill="#fff"><use xlink:href="#a"/></mask><path fill="#F40052" fill-rule="nonzero" mask="url(#b)" d="M16 4.32l-10.48 6.8-9.28-5.44L7.44-.64z"/></g><g transform="translate(37.2 31.6)"><mask id="d" fill="#fff"><use xlink:href="#c"/></mask><path d="M21.12 7.68L11.84 14l-6.8-3.92s0-1.92 2.4-4.4c2.4-2.4 6.32-2.4 6.32-2.4l7.36 4.4z" fill="#FD8B00" fill-rule="nonzero" mask="url(#d)"/></g><g transform="translate(37.2 31.6)"><mask id="f" fill="#fff"><use xlink:href="#e"/></mask><path d="M29.36 13.52l-13.2 4.4-5.36-4.48s-.08-2.32 2.4-4.8c2.4-2.4 5.36-2.96 5.36-2.96l5.36 2.96 5.44 4.88z" fill="#FFAE00" fill-rule="nonzero" mask="url(#f)"/></g><g transform="translate(37.2 31.6)"><mask id="h" fill="#fff"><use xlink:href="#g"/></mask><path d="M31.84 18.88l-11.68 4.4-5.36-6.8s.96-2.96 3.92-5.36C21.68 8.72 26 9.2 26 9.2l5.84 9.68z" fill="#00BBB6" fill-rule="nonzero" mask="url(#h)"/></g><g transform="translate(37.2 31.6)"><mask id="j" fill="#fff"><use xlink:href="#i"/></mask><path d="M26.48 26.72L14.8 22.8l1.44-3.44s3.44-2.96 6.32-3.92c3.84-1.28 5.84 0 5.84 0l.96 5.84-2.88 5.44z" fill="#00A598" fill-rule="nonzero" mask="url(#j)"/></g><path fill="#333" fill-rule="nonzero" opacity=".25" d="M14.8 24.4h10.32v30.88H14.8z"/></g></svg>