<?xml version="1.0" encoding="UTF-8"?>
<svg width="105px" height="105px" viewBox="0 0 105 105" version="1.1" xmlns="http://www.w3.org/2000/svg" xmlns:xlink="http://www.w3.org/1999/xlink">
    <!-- Generator: Sketch 49.2 (51160) - http://www.bohemiancoding.com/sketch -->
    <title>Group</title>
    <desc>Created with Sketch.</desc>
    <defs></defs>
    <g id="Page-1" stroke="none" stroke-width="1" fill="none" fill-rule="evenodd">
        <g id="Group">
            <circle id="Oval" fill="#0057FF" cx="52.5" cy="52.5" r="52.5"></circle>
            <path d="M25.9,65.208 C20.896,65.208 17.404,62.832 16,58.98 L20.248,56.496 C21.22,59.052 23.164,60.348 26.044,60.348 C28.816,60.348 30.076,59.232 30.076,57.684 C30.076,56.784 29.68,56.1 28.888,55.632 C28.096,55.128 26.692,54.588 24.64,54.012 C22.372,53.328 21.004,52.788 19.42,51.672 C17.872,50.52 17.044,48.792 17.044,46.488 C17.044,44.22 17.836,42.384 19.456,41.052 C21.076,39.684 23.056,39 25.324,39 C29.392,39 32.596,41.088 34.324,44.652 L30.148,47.064 C29.14,44.904 27.52,43.824 25.324,43.824 C23.272,43.824 22.012,44.868 22.012,46.344 C22.012,47.136 22.336,47.784 22.984,48.288 C23.668,48.756 24.928,49.296 26.8,49.872 L28.528,50.448 C28.924,50.556 29.464,50.772 30.148,51.06 C30.832,51.312 31.372,51.564 31.732,51.816 C32.488,52.284 33.64,53.184 34.108,54.048 C34.648,54.912 35.044,56.172 35.044,57.612 C35.044,59.952 34.18,61.788 32.488,63.156 C30.796,64.524 28.6,65.208 25.9,65.208 Z M50.38,51.168 L63.016,51.168 L63.016,53.112 C63.016,56.712 61.864,59.628 59.56,61.86 C57.256,64.092 54.268,65.208 50.632,65.208 C46.744,65.208 43.504,63.948 40.948,61.428 C38.392,58.872 37.132,55.776 37.132,52.14 C37.132,48.468 38.392,45.372 40.912,42.816 C43.468,40.26 46.6,39 50.344,39 C55.06,39 59.164,41.304 61.324,44.868 L57.076,47.316 C55.888,45.264 53.296,43.824 50.308,43.824 C47.896,43.824 45.916,44.616 44.368,46.2 C42.82,47.748 42.064,49.728 42.064,52.14 C42.064,54.516 42.856,56.496 44.404,58.044 C45.988,59.592 48.076,60.348 50.668,60.348 C54.52,60.348 57.112,58.548 58.012,55.56 L50.38,55.56 L50.38,51.168 Z M66.544,39.504 L76.552,39.504 C80.008,39.504 82.888,40.728 85.192,43.14 C87.532,45.552 88.684,48.54 88.684,52.104 C88.684,55.668 87.532,58.656 85.192,61.068 C82.888,63.48 80.008,64.704 76.552,64.704 L66.544,64.704 L66.544,39.504 Z M71.512,59.952 L76.552,59.952 C78.748,59.952 80.512,59.232 81.88,57.792 C83.248,56.316 83.932,54.444 83.932,52.104 C83.932,49.764 83.248,47.892 81.88,46.452 C80.512,44.976 78.748,44.256 76.552,44.256 L71.512,44.256 L71.512,59.952 Z" id="SGD" fill="#FFFFFF"></path>
        </g>
    </g>
</svg>