<svg width="80" height="80" xmlns="http://www.w3.org/2000/svg">
  <g fill="none" fill-rule="evenodd">
    <circle fill="#FFF" cx="40" cy="40" r="40"/>
    <path d="M54.509246 42.889435c.011318 1.241473-.488094 2.324174-1.31472 3.255626-1.029949 1.1607-2.323852 1.9314-3.81461 2.380001-1.258533.378718-2.54314.56877-3.860891.342291-1.010748-.173422-1.808877-.680425-2.46937-1.532688 1.247216.29953 1.991786.022767 2.733729-.96075.310035-.411185.626336-.818213.95355-1.216331 1.420828-1.728283 3.017895-3.25998 5.049901-4.301306.776301-.397525 1.58595-.699232 2.459265-.806136.582074-.07127 1.164553-.088889 1.793517.13561-1.128578.620242-1.541285 1.526749-1.530371 2.703683m-9.86495 16.564986c-.083067.52284-.590563.916405-1.128375.962334-.012329.00099-.02486.00099-.037188.002178-.787216.07602-1.54755-.521256-1.450942-1.487749 0-.640632.141274-.983319.519016-1.257508.455352-.330413 1.113622-.351398 1.570793-.032467.567522.395743.6708.904725.526696 1.813212M40.8404 52.648392c.005053-.25063-.01819-.50423-.059622-.751694-.012127-.072655-.128946-.175996-.200694-.178173-.024254-.000792-.052145.011482-.080036.028111-.028093-.01663-.055984-.028903-.080237-.028111-.071749.002177-.188568.105518-.200694.178173-.041433.247463-.064675.501064-.059623.751694.010106.49948-.387443.907497-.878972.877207-.587734-.036426-1.027321-.395545-1.156874-.970847-.170378-.754268-.069525-1.476266.311047-2.156295.464447-.829694 1.104526-1.512099 1.831513-2.121254v.06137c.092364-.051075.165325-.09166.23384-.129274.068313.037615.141275.078198.233639.129275v-.06137c.726784.609154 1.367066 1.291559 1.831513 2.121253.380572.680029.481222 1.402027.311046 2.156295-.129754.575302-.56914.93442-1.156873.970847-.491732.03029-.889078-.377727-.878973-.877207m-3.319441 7.770541c-.012329-.001188-.024657-.001188-.036986-.002178-.53761-.045929-1.04551-.439494-1.128376-.962334-.144104-.908487-.040624-1.41747.526697-1.813212.45717-.31893 1.11544-.297946 1.570793.032467.377742.274189.519016.616876.519016 1.257509.096608.966492-.663929 1.563769-1.451144 1.487748m-2.039888-11.55158c-1.317954.226478-2.602358.036427-3.861094-.34229-1.490758-.448602-2.784863-1.219301-3.814609-2.380002-.826627-.931452-1.326038-2.014153-1.31472-3.255626.010711-1.176934-.401995-2.083441-1.530371-2.703683.628964-.224499 1.211442-.20688 1.793315-.13561.873314.106904 1.683165.408611 2.459264.806136 2.032208 1.041325 3.629073 2.573023 5.050103 4.301306.327215.398118.643515.805146.953349 1.21633.741943.983518 1.486715 1.26028 2.73393.960751-.660694.852263-1.458621 1.359266-2.469167 1.532688m.84037-15.492777c.046687-.724176.61805-1.218112 1.364641-1.199899.719307.017421 1.26096.542043 1.284808 1.246818.005053.145509.000809.291215.000809.436921 0 .145509.004042.291413-.000607.436723-.023646.71804-.58268 1.253748-1.314114 1.261864-.713243.008117-1.290265-.500667-1.335941-1.200493-.021424-.326057-.020615-.655678.000404-.981934m5.707563.04692c.023647-.704776.5653-1.229398 1.284606-1.246819.746794-.018213 1.318157.475723 1.364844 1.1999.02102.326255.021828.655876.000404.981933-.045879.699826-.6229 1.20861-1.336144 1.200493-.731433-.008116-1.290265-.543825-1.313912-1.261864-.004648-.14531-.000606-.291214-.000606-.436723 0-.145706-.004244-.291412.000808-.43692m17.96337 5.893298c-.075589-1.621382-.849265-2.901265-3.035486-3.30077-1.631025-.297749-3.170091.099579-4.647918.71131-1.333115.551745-2.623586 1.202673-3.890208 1.790251.051336-.058995.152795-.183321.262136-.300718 1.209223-1.29869 2.73596-2.139076 4.374262-2.764863 1.104933-.422074 2.28101-.663995 3.414442-1.019352.289219-.090671.602085-.25281.792876-.47414.81228-.940957 1.21367-2.079686 1.532194-3.25306.933747-3.440736.688386-6.802482-.71466-10.079693-.204737-.478298-.472128-.945312-.789238-1.359467-.449088-.586786-.854723-.72794-1.35737-.557685-.514369.174017-.797929.600446-.798737 1.271766-.003436 2.740315.001414 5.480827-.003436 8.221142-.001617.916407-.785803 1.527544-1.638706 1.292948-.53842-.148082-.851893-.548776-.851893-1.092008-.000202-4.006933.001415-8.013866-.001414-12.020997-.000607-.710122-.461821-1.243258-1.12939-1.329573-.626742-.081168-1.414364.395942-1.575243.974413-.051336.184113-.055782.384658-.055984.57768-.003234 3.008367-.00101 6.016734-.003032 9.025101-.000404.604208-.311451 1.061719-.838958 1.257512-.492945.182727-1.057438.075823-1.391727-.331403-.17058-.207078-.261126-.48681-.34864-.74635-.04891-.143728-.020817-.313785-.020817-.471964-.000606-6.30894-.003234-12.61788.004042-18.926819.000607-.599654-.223129-1.039743-.77893-1.295324-.71082-.32685-1.573223.087701-1.761387.848108-.043252.17461-.046283.361693-.046485.543034-.002021 7.46608-.001617 14.93216-.002021 22.39824 0 .800001-.33146 1.30463-.959618 1.46756-.90727.235387-1.700753-.370602-1.701966-1.310568-.003234-2.691614-.00101-5.383228-.00101-8.074841 0-2.582136.00283-5.164272-.001617-7.74621-.001617-.87226-.638667-1.448157-1.470753-1.361842-.019807.00198-.037794.005147-.05558.008315-.017988-.003168-.035975-.006335-.055782-.008315-.832086-.086315-1.469136.489582-1.470753 1.361843-.004446 2.581937-.001617 5.164073-.001617 7.746209 0 2.691613.002223 5.383227-.00101 8.07484-.001213.939967-.794696 1.545956-1.701967 1.310569-.628157-.16293-.959617-.667559-.959819-1.46756-.000202-7.46608.000202-14.93216-.00202-22.39824 0-.181341-.003032-.368424-.046284-.543034-.188164-.760407-1.050566-1.174958-1.761386-.848108-.555802.25558-.77974.69567-.778931 1.295324.007276 6.30894.004648 12.61788.004042 18.92682 0 .158178.027891.328235-.020615.471962-.087716.25954-.178463.539273-.348842.74635-.334491.407227-.898782.514131-1.391727.331404-.527709-.195793-.838554-.653304-.838958-1.257512-.002021-3.008367 0-6.016734-.003234-9.025101-.000202-.193022-.004648-.393567-.055782-.57768-.16088-.57847-.948501-1.055581-1.575243-.974413-.667569.086315-1.128783.619451-1.12939 1.329573-.00283 4.007131-.001212 8.014064-.001415 12.020997 0 .543232-.313472.943926-.851892 1.092008-.852903.234596-1.637291-.37654-1.638706-1.292948-.00485-2.740315 0-5.480827-.003436-8.221142-.000808-.67132-.284368-1.09775-.798738-1.271766-.502848-.170255-.90828-.029101-1.357368.557685-.31711.414155-.584502.881169-.78924 1.359466-1.403045 3.277212-1.648608 6.638958-.71466 10.079694.318526 1.173374.720118 2.312103 1.532195 3.25306.190791.22133.503657.383469.792674.47414 1.133432.355357 2.309508.597278 3.414644 1.019352 1.6381.625787 3.16504 1.466173 4.374262 2.764863.109341.117397.2108.241723.262136.300718-1.266622-.587578-2.557092-1.238506-3.890208-1.790252-1.477827-.61173-3.017095-1.009058-4.64812-.71131-2.186221.399506-2.959695 1.679389-3.035284 3.300771-.07842 1.680972.442216 3.210892 1.826061 4.328438.547515.44207.79126.99718.817332 1.64989.022434.556497.011722 1.121902-.064473 1.672657-.093375.673497-.296293 1.331553-.406039 2.003664-.294271 1.802526.44161 2.92324 2.23594 3.434203 1.380612.393369 2.741417.332394 4.101212-.136204.900398-.31022 1.815147-.593715 2.742629-.811483 1.007517-.236377 1.758759.204108 2.06637 1.149618-.16088-.023757-.281135-.05167-.402603-.057412-.804195-.039792-1.613038-.144519-2.411977-.096214-1.535428.092849-2.252312.663995-2.67169 2.113143-.180685.6244-.259508 1.291958-.280123 1.943283-.063867 2.03138-.095396 4.063948-.102672 6.096517-.003032.800199.588746 1.332147 1.341604 1.31235.694045-.018412 1.306842-.592924 1.319373-1.26939.01536-.827915-.006468-1.656424.008893-2.484537.01253-.680822.54509-1.208216 1.219126-1.243455.69162-.036427 1.277333.44979 1.36222 1.137937.017987.14432.015562.291611.015562.437912.00101 1.5709-.000607 3.142195.00101 4.713293.000809.80099.5269 1.345015 1.29229 1.343035.761752-.001781 1.286429-.549567 1.290875-1.35234.003436-.633309-.010105-1.266816.00667-1.89973.016168-.605196.384008-1.060926.944256-1.217719.896963-.251225 1.709849.356546 1.711061 1.293543.00384 3.264343.001415 6.52849.001617 9.792437 0 .195002-.009499.390597.004649.58441.052346.717645.674642 1.286614 1.352114 1.245238.064271-.003761.121064-.011482.171187-.024944.049921.013462.106714.021183.170783.024944.677674.041376 1.299768-.527593 1.352316-1.245238.014148-.193813.004649-.389409.004649-.58441.000202-3.263948-.002426-6.528093.001616-9.792437.001011-.936997.813896-1.544768 1.711062-1.293543.560248.156793.928088.612522.944256 1.21772.016775.632913.003032 1.26642.00667 1.89973.004244.802772.529123 1.350558 1.290875 1.35234.76539.00198 1.29128-.542045 1.292088-1.343036.001819-1.571098.000202-3.142393.001212-4.713293 0-.1463-.002425-.293591.01536-.437912.085089-.688147.670803-1.174364 1.362422-1.137937.673834.035238 1.206393.562633 1.219126 1.243455.01536.828113-.006467 1.656622.009095 2.484536.012329.676467.624924 1.25098 1.31917 1.26939.752657.019798 1.344435-.51215 1.341807-1.31235-.007478-2.032567-.039007-4.065136-.103076-6.096516-.020615-.651325-.099236-1.318883-.279922-1.943283-.41958-1.449148-1.13626-2.020294-2.671689-2.113143-.79894-.048305-1.607985.056422-2.411977.096214-.121468.005741-.241723.033655-.402603.057412.307611-.94551 1.058651-1.385995 2.06637-1.149618.92728.217768 1.84223.501263 2.742427.811483 1.359997.468598 2.7206.529573 4.101413.136204 1.794129-.510963 2.530212-1.631677 2.23594-3.434203-.109745-.672111-.312663-1.330167-.406038-2.003664-.076397-.550755-.086907-1.11616-.064473-1.672657.026072-.65271.269817-1.20782.817332-1.64989 1.383845-1.117546 1.90448-2.647466 1.826062-4.328438M45.679702 67.423526c-.656249.137392-1.01277.6634-1.01095 1.49151.001818 1.018558.70051 1.642561 1.611416 1.43885.788024-.176194 1.187392-.999356.9582-1.975152-.161081-.687156-.8432-1.10527-1.558666-.955208m-10.359511 0c-.715265-.150062-1.397383.268052-1.558666.955208-.229192.975796.170176 1.798958.9582 1.975152.910704.203711 1.609395-.420292 1.611618-1.43885.001617-.82811-.354903-1.354118-1.011152-1.49151m16.045044-54.785768c.739922-.043157 1.266619-.56184 1.274299-1.339864.004446-.437713.000808-.875624.000808-1.313337 0-.437712.006064-.875623-.001617-1.313336-.010307-.567186-.34116-1.025685-.856943-1.206828-.50689-.178174-1.025097-.020193-1.428305.360504-.306398.289829-.390677.623013-.387444 1.012817.006266.814649.034965 1.631277-.008084 2.443748-.039007.734867.813894 1.39114 1.407286 1.356296m-23.005078-1.339864c.007882.778024.534578 1.296707 1.2745 1.339864.593393.034843 1.446091-.62143 1.407287-1.356296-.043252-.81247-.01435-1.6291-.007883-2.443748.003032-.389804-.081248-.722988-.387847-1.012817-.403006-.380697-.921214-.538678-1.428104-.360504-.515782.181143-.846837.639642-.856943 1.206828-.007882.437713-.001617.875624-.001617 1.313336-.000202.437713-.003638.875624.000607 1.313337" fill="#000"/>
  </g>
</svg>
