<svg width="80" height="80" viewBox="0 0 80 80" xmlns="http://www.w3.org/2000/svg">
  <title>
    shift-shift
  </title>
  <g fill="none" fill-rule="evenodd">
    <circle fill="#FFF" cx="40" cy="40" r="40"/>
    <path d="M60.84337 50.587333c-2.005065.013786-4.010255.024917-6.01532.041992-4.69058.039715-9.381035.083858-14.071615.118514-.236716.00164-.473805-.07121-.710645-.10954.15458-.16949.304065-.34416.46436-.507577 3.143788-3.204174 6.28981-6.405818 9.430368-9.613154.185148-.18909.327053-.421945.489088-.634435.054924.0129.10997.025803.164894.038704.151846.19377.28704.40449.458024.578782 3.108 3.171667 6.22122 6.33815 9.329467 9.50969.17124.174546.30842.383874.46138.577013" fill="#B189BE"/>
    <path d="M19.000025 29.37834c2.959136-.0043 5.918396.00291 8.877532-.015557 3.99-.024917 8.05841-.07766 12.048036-.113708-.15396.169486-.380982.352885-.54103.516047-3.183426 3.244396-6.36859 6.487147-9.551396 9.732048-.159426.16253-.30183.342008-.452184.513644-.036284.000886-.072568.00177-.108852.002783-1.55822-1.600253-3.11321-3.203668-4.67542-4.799747-1.75269-1.790735-3.51333-3.57325-5.26528-5.364743-.13209-.135083-.22193-.31279-.3314-.470767" fill="#78CCCF"/>
    <path d="M40.756398 50.747776c-.236592.00177-.473805-.071084-.710645-.10928-.220687-.129898-.47803-.220713-.655846-.395638-1.153882-1.134924-2.290616-2.28819-3.433066-3.435383-2.02594-2.079114-4.0525-4.157597-6.07682-6.238356-.17384-.1786-.33302-.37186-.49903-.55842-.03616.00101-.07257.00189-.10885.00291-.8231.85034-9.136614 9.50096-10.17332 10.60629.770167.82201 20.565587 21.20386 20.70252 21.38004h.24852c.0927-.131163 19.967647-20.54969 20.79348-21.41268-2.005063.013786-15.396353.125976-20.086933.160505" fill="#9A53A0"/>
    <path d="M35.956953 46.8075c-2.026065-2.079114-4.052627-4.157596-6.076952-6.238355-.17384-.178593-.33314-.371858-.49903-.55842.15036-.17151.29289-.351114.45219-.513517 3.18293-3.2449 6.36797-6.487652 9.5514-9.732048.08015-.08158.38297-.428648.54103-.516173h.24852c.39465.33581 9.306108 9.647557 10.25533 10.634118-.161785.21249-.303815.445344-.488963.634435-3.14043 3.207336-6.28658 6.40898-9.430242 9.613154-.16042.163415-.309904.338087-.464484.5077-.220687-.12977-.47803-.220712-.655847-.39551-1.153883-1.134925-2.290616-2.28819-3.43294-3.435384" fill="#2E5670"/>
    <path d="M40.04984 8h-.24852c-.134947.17505-20.41933 20.984285-20.801308 21.378277 2.95926-.004174 16.857284-.084996 20.847036-.12117.394402.335936 1.182958 1.007557 1.182958 1.007557 1.0669 1.079526 8.450202 8.63178 9.399426 9.618466.055172.012902.110095.025803.165267.038324.97283-1.001486 10.00917-10.200158 10.2972-10.475256C60.47016 29.001866 40.17025 8.160378 40.04984 8" fill="#40C1CC"/>
  </g>
</svg>
