<svg width="80" height="80" viewBox="0 0 80 80" xmlns="http://www.w3.org/2000/svg">
  <title>
    sib-sibcoin
  </title>
  <g fill="none" fill-rule="evenodd">
    <path d="M80 40c0 22.091707-17.908943 40-40 40S0 62.091707 0 40 17.908943 0 40 0s40 17.908293 40 40" fill="#037AC4"/>
    <path d="M46.611382 20.88026h5.335935v30.630895h1.45626v3.29561h-1.461463v8.820812H46.31805v-8.820813h-7.890733c-.101463-1.179187-.179512-2.085203-.284228-3.29561h8.17496v-5.69691c-2.057888.602927-4.14374 1.508293-6.306994 1.771707-2.532033.306344-5.193496.407807-7.688455-.030567-5.062764-.889756-8.28813-4.066992-8.67317-9.16813-.435772-5.782114-.100163-11.623415-.100163-17.572683h5.24618c0 3.897235-.03187 7.653332.01561 11.40878.01951 1.50634.085202 3.034146.351218 4.51187.747318 4.150894 3.348293 6.435122 7.516748 6.76878 3.413984.27317 6.243252-.436423 9.932358-2.619837V20.88026z" fill="#FFF"/>
  </g>
</svg>
