<svg width="80" height="80" viewBox="0 0 80 80" xmlns="http://www.w3.org/2000/svg">
  <title>
    slr-solarcoin
  </title>
  <g fill="none">
    <circle fill="#FDA616" cx="40" cy="40" r="40"/>
    <path d="M27.121951 60.304558l-3.594746 3.624868s15.642276 16.8639 30.106316-2.445177c0 0-16.44778 8.24648-26.51157-1.17969m25.5197-46.410419l2.156348 2.176434-4.492808 4.53203s-9.165729-9.96744-19.229519 3.081075c0 0-.358974-11.964713 14.38399-11.607651" fill="#686868"/>
    <path d="M28.919325 57.040537c.358974 1.087587 4.834271 5.574196 9.485928 5.574196 6.900563 0 10.931833-4.031135 10.931833-9.862718 0-5.403867-2.791745-8.49125-9.846154-11.492837-8.52783-3.34477-13.799875-8.233863-13.799875-16.38193 0-9.006023 6.745466-15.695563 16.900563-15.695563 5.349593 0 10.76923 3.26276 12.566604 5.437932l-4.313946 4.351608c-1.704816-1.029548-3.752345-3.614774-8.485304-3.614774-7.129456 0-9.846153 4.717501-9.846153 8.66284 0 5.403867 3.179487 8.062272 10.388993 11.149655 8.838023 3.773748 13.334584 8.49125 13.334584 16.982499 0 8.920228-6.003753 16.853805-18.331457 16.853805-5.0394 0-10.424015-3.26276-13.658537-7.250997" fill="#FFF"/>
    <path d="M34.310194 24.04705s-.358975 1.813064 1.438399 3.988237c0 0 16.173859-3.62613 15.814884 11.239235 0 0 2.516573 1.087586 4.67292 5.075824 0 0 5.39087-24.654904-21.926203-20.303297" fill="#686868"/>
    <path d="M34.310194 21.871876s-.717949 2.175173.360225 4.350346c0 0 17.971232-2.538543 17.612258 12.328083 0 0 2.156347.724217 4.312695 4.712455 0 0 5.031895-25.742491-22.285178-21.390884" fill="#FFF"/>
    <path d="M46.172608 56.31632s1.437148-2.176434.717949-4.713715c0 0-19.762352 3.988238-19.176986-13.26048 0 0-2.051282-.990436-3.699812-5.218397-.332708 1.009361-8.612883 27.034473 22.158849 23.192593" fill="#686868"/>
    <path d="M46.724203 54.970086s1.250781-2.642003.166354-5.180546c0 0-19.762352 3.988238-19.176986-13.26048 0 0-2.051282-.990436-3.699812-5.217135.006254 0-8.393997 27.541677 22.710444 23.65816" fill="#FFF"/>
  </g>
</svg>
