<svg width="80" height="80" viewBox="0 0 80 80" xmlns="http://www.w3.org/2000/svg" xmlns:xlink="http://www.w3.org/1999/xlink">
  <title>
    sls-salus
  </title>
  <defs>
    <linearGradient x1="50%" y1="0%" x2="50%" y2="97.836539%" id="a">
      <stop stop-color="#5F6060" offset="0%"/>
      <stop stop-color="#2B2B2B" offset="100%"/>
    </linearGradient>
    <radialGradient fx="50%" fy="50%" r="58.579154%" id="b">
      <stop stop-color="#8D9596" offset="0%"/>
      <stop stop-color="#A5A5A5" offset="100%"/>
    </radialGradient>
    <circle id="c" cx="40" cy="40" r="36.923077"/>
    <linearGradient x1="50%" y1="0%" x2="50%" y2="100%" id="d">
      <stop stop-color="#737373" offset="0%"/>
      <stop stop-color="#2F2F2F" offset="100%"/>
    </linearGradient>
    <circle id="e" cx="40" cy="40" r="30.153846"/>
    <linearGradient x1="50%" y1="0%" x2="50%" y2="100%" id="f">
      <stop stop-color="#BCB7B8" offset="0%"/>
      <stop stop-color="#2F3234" offset="53.467793%"/>
      <stop stop-color="#7A7677" offset="100%"/>
    </linearGradient>
    <path d="M38.688615 55.7503V24.99153H36.51754l.128614 8.88923h-2.408616c0-5.926153-2.080615-8.982153-6.24246-9.16923-6.243078-.279385-7.049232 6.792615-5.451078 9.16923 1.598154 2.375385 9.28554 4.028923 11.693538 6.258462 2.408616 2.230154 4.655385 7.70277.777847 13.220308-1.625847 2.313846-5.248616 3.201846-7.716308 2.84677-3.388308-.488616-5.625846-2.95077-5.96-4.569847-.04923-.238154.003692 1.132923.16 4.113846h-2.422154V44.50722h2.422154c.146462 5.816615 2.08 8.852308 5.8 9.105846 3.720615.254154 6.03323-1.374154 6.93846-4.884923.630155-3.689846-1.254152-6.313846-5.652306-7.872615-6.597536-2.337847-9.508305-5.10954-9.508305-8.590154 0-3.48123.401846-6.53354 4.152615-8.94523 3.751384-2.41231 8.020307-.46277 9.105846.344.723692.537845 1.357538 1.317538 1.902153 2.33723V22.79276H41.232v30.56677h1.686154v-8.852308h2.667692c.147077 5.816615 2.08 8.852308 5.8 9.105846 3.720616.254154 6.03323-1.374154 6.938462-4.884923C58.95446 45.0383 57.070154 42.4143 52.672 40.85553c-6.597538-2.337847-9.508308-5.10954-9.508308-8.590154 0-3.48123.401847-6.53354 4.15323-8.94523 3.75077-2.41231 8.019693-.46277 9.105232.344.724308.537845 1.358154 1.317538 1.902154 2.33723V22.79276h2.17046l.238155 11.088h-2.408615c0-5.926153-2.080616-8.982153-6.242462-9.16923-6.24246-.279385-7.04923 6.792615-5.45046 9.16923 1.597537 2.375385 9.284922 4.028923 11.692922 6.258462 2.408615 2.230154 4.655384 7.70277.777846 13.220308-1.625846 2.313846-5.248 3.201846-7.716308 2.84677-3.388308-.488616-5.625846-2.95077-5.96-4.569847-.04923-.238154.004308 1.132923.16 4.113846h-6.89723z" id="g"/>
    <filter x="-1.2%" y="-1.5%" width="102.4%" height="102.9%" filterUnits="objectBoundingBox" id="h">
      <feOffset dy="-1" in="SourceAlpha" result="shadowOffsetInner1"/>
      <feComposite in="shadowOffsetInner1" in2="SourceAlpha" operator="arithmetic" k2="-1" k3="1" result="shadowInnerInner1"/>
      <feColorMatrix values="0 0 0 0 0.13153699 0 0 0 0 0.13153699 0 0 0 0 0.13153699 0 0 0 1 0" in="shadowInnerInner1" result="shadowMatrixInner1"/>
      <feOffset dy="1" in="SourceAlpha" result="shadowOffsetInner2"/>
      <feComposite in="shadowOffsetInner2" in2="SourceAlpha" operator="arithmetic" k2="-1" k3="1" result="shadowInnerInner2"/>
      <feColorMatrix values="0 0 0 0 0.982408588 0 0 0 0 0.982408588 0 0 0 0 0.982408588 0 0 0 0.5 0" in="shadowInnerInner2" result="shadowMatrixInner2"/>
      <feMerge>
        <feMergeNode in="shadowMatrixInner1"/>
        <feMergeNode in="shadowMatrixInner2"/>
      </feMerge>
    </filter>
  </defs>
  <g fill="none" fill-rule="evenodd">
    <circle fill="url(#a)" cx="40" cy="40" r="40"/>
    <use fill="url(#b)" xlink:href="#c"/>
    <circle stroke="#414141" stroke-width=".615385" cx="40" cy="40" r="36.615385"/>
    <use fill="url(#d)" xlink:href="#e"/>
    <circle stroke="#B4B4B4" stroke-width=".923077" cx="40" cy="40" r="30.615385"/>
    <use fill="url(#f)" xlink:href="#g"/>
    <use fill="#000" filter="url(#h)" xlink:href="#g"/>
  </g>
</svg>
