<svg width="80" height="80" viewBox="0 0 80 80" xmlns="http://www.w3.org/2000/svg" xmlns:xlink="http://www.w3.org/1999/xlink">
  <title>
    smart-smartcash
  </title>
  <defs>
    <radialGradient fx="50%" fy="50%" r="38.470982%" gradientTransform="matrix(0 .86603 -1 0 1 .067)" id="a">
      <stop stop-color="#FFF1A8" offset="0%"/>
      <stop stop-color="#FEDE6F" offset="100%"/>
    </radialGradient>
    <path id="b" d="M40.31089 5l30.310888 17.5v35L40.310888 75 10 57.5v-35z"/>
    <path id="c" d="M25.974954.00014v41.92384H.00004V.00014z"/>
  </defs>
  <g fill="none" fill-rule="evenodd">
    <circle fill="#F3B632" cx="40" cy="40" r="40"/>
    <use fill="url(#a)" xlink:href="#b"/>
    <path stroke="#291B03" stroke-width="3" d="M40.31089 6.73205L11.5 23.366026v33.26795L40.31089 73.26795l28.810888-16.633975v-33.26795L40.310888 6.73205z"/>
    <g transform="translate(27 19)">
      <mask id="d" fill="#fff">
        <use xlink:href="#c"/>
      </mask>
      <path d="M10.711332 10.962516c3.10712 2.552615 6.209707 5.111095 9.323743 7.655497 1.471982 1.202514 1.48844 1.2417.122367 2.588984-3.198715 3.154223-6.40244 6.303285-9.60068 9.457977-.244733.241442-.462274.509397-.89664.99181.644036.054202 1.041192.11638 1.43811.11685 4.490128.007742 8.980495.0359 13.470146-.014548 1.09868-.0122 1.459817.320983 1.400422 1.403128-.08778 1.597878-.047706 3.20467-.01121 4.806302.017412.75389-.254753 1.030056-1.034992 1.020436-2.58235-.03238-5.166605.03285-7.748-.02534-1.008514-.02276-1.366073.3123-1.252055 1.277362.062496.53028.01121 1.073464.01121 1.68305H11.47392c-.030056-.454726-.07466-.834603-.07657-1.214714-.008348-1.84589.19345-1.72951-1.840752-1.727866-2.662257.00211-5.324752-.000704-7.98701-.00915-.468238-.001174-.936476-.039655-1.549027-.06781 0-2.52399-.034584-4.974068.03626-7.421096.010973-.378.459175-.787676.782863-1.106313 2.977597-2.928972 5.96879-5.84457 8.965707-8.754302.477063-.463408 1.002073-.878715 1.628696-1.424246-2.368146-1.933877-4.555724-3.722044-6.74521-5.50763C3.343316 13.5935 1.978436 12.517924.65959 11.39026c-.29769-.254583-.61613-.68162-.624477-1.035924-.05534-2.33745-.028625-4.676546-.028625-7.139764H11.29669c0-.84352.0229-1.570894-.006918-2.295922-.026238-.630938.185817-.93925.881138-.9118.951982.037543 1.908734.042 2.86-.003987.758294-.036838.969156.300804.931706.979374-.038165.689598-.008348 1.38248-.008348 2.19456H25.3968c0 2.372177.03268 4.626334-.052 6.876032-.00811.215394-.743266.574623-1.14424.579316-4.092255.04857-8.185466.037307-12.2782.042703-.382367.00047-.764734 0-1.14734 0-.02123.095967-.04246.1917-.063688.287665" fill="#000" mask="url(#d)"/>
    </g>
  </g>
</svg>
