<svg width="80" height="80" xmlns="http://www.w3.org/2000/svg" xmlns:xlink="http://www.w3.org/1999/xlink">
  <defs>
    <path id="a" d="M0 0h55.561363v39.795644H0z"/>
  </defs>
  <g fill="none" fill-rule="evenodd">
    <circle fill="#FFF" cx="40" cy="40" r="40"/>
    <g transform="translate(12 20)">
      <mask id="b" fill="#fff">
        <use xlink:href="#a"/>
      </mask>
      <path d="M54.174803 5.599644h-.537152c-.948416 0-1.696128.281778-2.24224.842667-.545664.561778-1.096256 1.703556-1.651328 3.424889-.554624 1.722667-1.306816 4.576444-2.25568 8.562667l1.315776-.815556h6.011712l-1.17824 4.621333h-7.034944c-.877632 3.769334-1.701056 6.818667-2.47072 9.148-.769664 2.328445-1.821568 4.31289-3.155264 5.95289-1.333696 1.64-3.020864 2.45911-5.061504 2.45911-2.07648 0-3.986752-.842666-5.356288-2.528-1.369536-1.685333-2.261056-3.727555-3.04864-6.128444-.787584-2.401333-1.646848-5.542222-2.577792-9.42l-.268352-1.141778c-1.145984-4.729778-1.978368-8.05511-2.497152-9.976-.519232-1.92-.953344-3.193778-1.302336-3.818222-.34944-.625333-.765632-.939111-1.249024-.939111-.375872 0-.751744.394667-1.127616 1.183555-.375872.788445-.836864 2.192445-1.382976 4.21289-.546112 2.020888-1.293376 5.06-2.24224 9.119555l-.322112 1.413333c-.913024 3.897334-1.758848 7.031556-2.537472 9.405334-.779072 2.374666-1.852928 4.403555-3.222464 6.088888-1.369536 1.685334-3.101504 2.528-5.195904 2.528H-.000045l1.382976-5.572888h.537152c.930944-.01689 1.669248-.307556 2.21536-.869334.546112-.560889 1.100736-1.702666 1.664768-3.424889.524608-1.601333 1.215424-4.166222 2.072896-7.696889.064512-.264888.12992-.535555.196224-.811555l-1.315776.815555H.777235l1.142848-4.621333h7.035392c.877184-3.787555 1.696128-6.849778 2.456832-9.188.760704-2.337333 1.812608-4.325333 3.155264-5.965333 1.342656-1.64 3.025344-2.461334 5.048064-2.461334 2.076928 0 3.991232.848445 5.369728 2.542667 1.378496 1.694667 2.274496 3.742222 3.06208 6.143111.787584 2.401334 1.646848 5.549334 2.577792 9.44489l.2688 1.142221c1.109696 4.639556 1.92864 7.928445 2.456832 9.867556.528192 1.94.966336 3.222222 1.315776 3.847111.348992.625333.765184.936444 1.248576.936444.393792 0 .783104-.392888 1.167936-1.180888.384832-.788445.850304-2.189334 1.396416-4.20089.546112-2.01111 1.293376-5.056 2.24224-9.133777.142912-.579556.241472-1.014222.295232-1.304445.895104-3.876888 1.731968-7.013333 2.510592-9.405333.778624-2.392 1.857408-4.434222 3.235904-6.128889C48.142035.8752 49.878483.0272 51.972883.0272h3.58848l-1.38656 5.572444z" fill="#1A1919" mask="url(#b)"/>
    </g>
  </g>
</svg>
