<svg width="80" height="80" viewBox="0 0 80 80" xmlns="http://www.w3.org/2000/svg">
  <title>
    sngls-singulardtv
  </title>
  <g fill="none" fill-rule="evenodd">
    <circle fill="#383243" cx="40" cy="40" r="40"/>
    <g fill-rule="nonzero" fill="#C1172A">
      <path d="M45.412 42.343l-5.41 10.43-7.026-13.226v-.03l-1.424-2.576L30 39.55l10 17.997 10-17.998-1.582-2.608M39.742 23l-1.2 1.93-5.512 9.334 1.386 2.675 5.327-8.557 5.204 8.556 1.417-2.8-4.62-7.842"/>
      <path d="M40.016 27.85C23.448 27.85 10 40.24 10 40.272c0 .03 13.448 12.424 30.016 12.424C56.583 52.697 70 40.273 70 40.273S56.552 27.848 40.016 27.848m0 22.064c-12.918 0-27.49-9.64-27.49-9.64s14.572-9.67 27.49-9.67c12.917 0 27.488 9.42 27.488 9.67s-14.602 9.64-27.488 9.64"/>
    </g>
  </g>
</svg>
