<svg width="80" height="80" viewBox="0 0 80 80" xmlns="http://www.w3.org/2000/svg">
  <title>
    snm-sonm
  </title>
  <g fill="none" fill-rule="evenodd">
    <circle fill="#0B1C26" cx="40" cy="40" r="39"/>
    <path d="M40 79.98C17.935 79.916 0 62.013 0 39.99 0 17.97 17.935.066 40 0c22.065.066 40 17.97 40 39.99 0 22.022-17.935 39.947-40 39.99m35.472-33.625c-.618 1.43-2.054 2.444-3.71 2.444-.53 0-1.057-.106-1.547-.31 1.414 1.476 2.297 3.458 2.297 5.638 0 .638-.088 1.233-.22 1.828 1.502-3.038 2.573-6.27 3.18-9.6m-3.71.395c1.11 0 2.01-.896 2.01-2.003 0-1.107-.9-2.004-2.01-2.004-1.11 0-2.01.897-2.01 2.004.003 1.105.9 2 2.008 2.004m.907-21.91c.64 1.81.97 3.717.973 5.637.004 3.974-1.405 7.82-3.976 10.857.597-.352 1.304-.595 2.076-.595 2.1 0 3.822 1.607 3.998 3.677.177-1.453.287-2.907.287-4.405.026-5.243-1.12-10.426-3.358-15.172m-2.054 5.615c0-7.64-6.23-13.873-13.915-13.873-7.664 0-13.915 6.21-13.915 13.873 0 7.642 6.23 13.874 13.915 13.874 7.664 0 13.915-6.233 13.915-13.875M56.146 54.128c0-3.02 1.674-5.79 4.35-7.2-3.394.79-6.95.512-10.182-.794 2.75 2.108 4.785 5.006 5.832 8.303.022-.133 0-.22 0-.31m.795 5.374c-.003 1.337-.166 2.668-.485 3.965.66-1.32 2.01-2.155 3.49-2.158.207 0 .415.022.618.066-1.703-.876-3.047-2.316-3.8-4.073.116.728.175 1.464.178 2.2m7.378-.24c2.85 0 5.168-2.314 5.168-5.132 0-2.84-2.32-5.13-5.168-5.13-2.848 0-5.146 2.312-5.146 5.13 0 2.84 2.32 5.13 5.148 5.13m3.398-14.49c.006-.677.18-1.342.508-1.936-1.466 1.355-3.155 2.45-4.992 3.237.354-.045.707-.09 1.083-.09 1.47-.002 2.913.394 4.174 1.145-.5-.683-.772-1.51-.77-2.356m-27.722-2.18c2.18-.002 4.34.416 6.36 1.232-3.396-2.604-5.67-6.4-6.36-10.614-.707 4.316-3.048 8.06-6.36 10.614 1.966-.77 4.108-1.233 6.36-1.233m0-22.44c-1.54.003-3.05-.433-4.35-1.255 2.294 2.423 3.81 5.475 4.352 8.764.556-3.285 2.07-6.334 4.35-8.766-1.3.823-2.81 1.26-4.35 1.256m8.26-8.237c-.002 1.846-.624 3.637-1.768 5.087 1.716-1.297 3.665-2.254 5.743-2.82-.09 0-.155.023-.22.023-1.702 0-3.16-1.056-3.756-2.554-.02.087 0 .175 0 .263m6.272-4.865c.905.75 1.502 1.85 1.502 3.105.002 1.594-.944 3.038-2.408 3.678 1.013-.184 2.04-.28 3.07-.286 5.19 0 9.807 2.334 12.92 5.968-3.795-5.447-9.01-9.757-15.082-12.465M51.992 8.17c-1.11 0-2.01.898-2.01 2.005 0 1.107.9 2.004 2.01 2.004 1.11 0 2.01-.898 2.01-2.005-.004-1.105-.9-2-2.01-2.005m-9.496-4.118c2.704.86 4.774 3.05 5.478 5.79.154-2.07 1.877-3.72 3.997-3.72.135.003.268.018.4.044-3.093-1.145-6.428-1.85-9.874-2.114m-7.708 7.86c0 2.864 2.34 5.197 5.212 5.197 2.87 0 5.212-2.336 5.212-5.198 0-2.863-2.34-5.195-5.212-5.195-2.87 0-5.212 2.334-5.212 5.196m-7.18-5.747c.132-.026.265-.04.4-.044 2.12 0 3.842 1.63 3.996 3.722.704-2.743 2.774-4.93 5.478-5.792-3.446.264-6.76.97-9.873 2.114m4.13 5.747c-.004-.088.003-.177.02-.264-.595 1.497-2.053 2.553-3.754 2.553-.088 0-.154-.022-.22-.022 2.075.57 4.024 1.527 5.742 2.82-1.16-1.443-1.79-3.237-1.79-5.087M26 10.173c0 1.108.9 2.005 2.01 2.005 1.11 0 2.01-.897 2.01-2.004s-.9-2.004-2.01-2.004c-1.11.004-2.007.9-2.01 2.004m-15.617 9.36c3.116-3.657 7.732-5.97 12.92-5.97 1.03.006 2.058.102 3.07.287-1.286-.558-2.186-1.748-2.37-3.135-.186-1.388.37-2.77 1.466-3.646-6.096 2.686-11.33 7.046-15.085 12.463m-.993 10.922c0 7.642 6.23 13.874 13.915 13.874 7.664 0 13.915-6.212 13.915-13.875 0-7.64-6.23-13.873-13.915-13.873-7.664.022-13.915 6.232-13.915 13.873m14.467 23.673c0 .088-.022.2-.022.286 1.053-3.294 3.087-6.19 5.832-8.302-3.232 1.306-6.79 1.583-10.184.793 2.607 1.387 4.374 4.096 4.374 7.223m-11.574-9.36c.004.852-.276 1.68-.795 2.357 1.262-.75 2.705-1.146 4.175-1.143.363-.004.725.025 1.082.088-1.846-.77-3.537-1.868-4.992-3.238.348.586.53 1.255.53 1.937m-1.767 9.358c0 2.84 2.32 5.13 5.147 5.13 2.85 0 5.146-2.312 5.146-5.13 0-2.84-2.32-5.13-5.146-5.13-2.827-.023-5.146 2.288-5.146 5.13m8.9 7.245c.2-.022.398-.066.62-.066 1.478.003 2.83.838 3.488 2.158-.32-1.297-.482-2.628-.485-3.964.007-.742.058-1.485.155-2.223-.737 1.766-2.074 3.216-3.777 4.096M4.24 44.395c.177-2.048 1.9-3.678 3.998-3.678.733.004 1.452.21 2.076.595-2.57-3.036-3.98-6.883-3.976-10.857 0-1.982.354-3.853.972-5.637-2.164 4.603-3.357 9.755-3.357 15.172.006 1.473.1 2.944.287 4.405m4-1.63c-1.11 0-2.01.898-2.01 2.004 0 1.106.9 2.003 2.01 2.003 1.11 0 2.01-.897 2.01-2.004-.004-1.106-.902-2-2.01-2.005m-.75 11.363c-.002-2.106.822-4.13 2.296-5.637-.49.206-1.015.31-1.546.31-1.656 0-3.092-1.014-3.71-2.445.618 3.39 1.68 6.606 3.18 9.6-.134-.594-.222-1.188-.222-1.827m10.338 7.862c-.685.2-1.414.286-2.164.286-2.143 0-4.086-.837-5.544-2.18 1.925 2.844 4.245 5.402 6.89 7.597-.55-.682-.905-1.52-.905-2.466 0-1.297.645-2.51 1.72-3.237m.312 3.237c0 1.046.85 1.894 1.9 1.894 1.05 0 1.9-.847 1.9-1.893s-.85-1.894-1.9-1.894c-1.047.007-1.894.85-1.9 1.894m16.985 10.46c-5.258-1.593-9.42-5.62-11.176-10.812 0 .11.044.22.044.352.006 1.35-.687 2.606-1.834 3.323-1.146.717-2.583.793-3.798.2 4.792 3.612 10.534 6.078 16.764 6.937M53.893 59.5c0-7.64-6.23-13.85-13.893-13.872-7.664 0-13.893 6.21-13.893 13.873 0 7.665 6.23 13.853 13.893 13.875 7.664-.022 13.893-6.232 13.893-13.874m7.775 9.25c-1.216.593-2.653.517-3.8-.2-1.146-.717-1.84-1.974-1.833-3.323.004-.118.02-.236.044-.352-1.756 5.192-5.92 9.22-11.177 10.812 6.207-.86 11.95-3.325 16.765-6.937m.2-3.523c0-1.046-.85-1.894-1.9-1.894-1.05 0-1.9.848-1.9 1.894 0 1.046.85 1.894 1.9 1.894 1.046-.007 1.89-.85 1.898-1.893m8.018-5.13c-1.458 1.342-3.4 2.18-5.544 2.18-.73-.005-1.458-.1-2.164-.287 1.076.728 1.72 1.94 1.722 3.237 0 .946-.353 1.784-.905 2.466 2.645-2.195 4.965-4.753 6.89-7.597" fill-rule="nonzero" fill="#FFF"/>
  </g>
</svg>
