<svg width="80" height="80" xmlns="http://www.w3.org/2000/svg">
  <defs>
    <linearGradient x1="76.914063%" y1="9.921875%" x2="17.055664%" y2="89.277344%" id="a">
      <stop stop-color="#AB3AAD" offset="0%"/>
      <stop stop-color="#8576E0" offset="100%"/>
    </linearGradient>
  </defs>
  <g fill="none" fill-rule="evenodd">
    <circle fill="url(#a)" cx="40" cy="40" r="40"/>
    <path d="M24 62.927273V53c5.942857 2.836364 10.971429 4.254545 14.628571 4.254545 4.8 0 7.085715-1.890909 7.085715-5.436363 0-1.89091-1.142857-3.309091-3.2-4.963636-.914286-.709091-2.971429-1.89091-6.171429-3.309092-3.2-1.418181-5.485714-2.836363-6.857143-4.254545-3.2-2.836363-5.028571-6.618182-5.028571-10.872727 0-4.254546 1.371428-7.8 4.342857-10.4C31.771429 15.418182 35.885714 14 41.142857 14c4.342857 0 9.142857 1.181818 14.628572 3.545455l-3.428572 8.272727c-4.8-1.89091-8.228571-3.072727-10.742857-3.072727-2.514286.236363-4.342857.70909-5.257143 1.654545-1.142857.945455-1.6 1.89091-1.6 3.072727 0 1.181819.228572 2.127273.685714 2.836364.457143.70909 1.142858 1.418182 2.057143 2.127273.914286.70909 3.428572 1.890909 7.314286 4.018182 4.114286 1.890909 6.857143 4.018181 8.685714 6.381818C55.314286 45.2 56 47.8 56 51.10909c0 4.490909-1.6 8.272727-4.8 10.872727C48 64.581818 43.657143 66 38.171429 66 32.685714 66 28.114286 65.054546 24 62.927273z" fill="#FFF" fill-rule="nonzero"/>
  </g>
</svg>
