<svg width="80" height="80" viewBox="0 0 80 80" xmlns="http://www.w3.org/2000/svg" xmlns:xlink="http://www.w3.org/1999/xlink">
  <title>
    snrg-synergy
  </title>
  <defs>
    <path id="a" d="M0 .161616h45.891782v40.469465H0z"/>
  </defs>
  <g fill="none" fill-rule="evenodd">
    <circle fill="#1C3068" cx="40" cy="40" r="40"/>
    <path d="M62.858619 40.821564V53.26693c-7.59874 4.863704-15.19656 9.726946-22.76517 14.571523-7.71673-4.796642-15.3801-9.559869-23.08809-14.35098v-6.698107c7.70707 4.772214 15.37021 9.517004 23.09775 14.301893 5.6994-3.761218 11.37373-7.505843 17.07681-11.269366 0-1.719177-.00966-3.406321.00621-5.092774.00414-.462288-.24909-.664164-.60674-.872263-2.67812-1.556938-5.35072-3.124016-8.0155-4.704-2.69744-1.599572-5.38361-3.218502-8.07622-4.8266-.1633-.097482-.33879-.174684-.62031-.318486-1.17898.802897-2.4035 1.636444-3.68736 2.510551-1.80734-1.106403-3.61468-2.213037-5.55312-3.399638.81811-.512757 1.52007-.948773 2.21812-1.390782 2.1321-1.349991 4.27386-2.685465 6.38595-4.066107.49427-.322864.84364-.314798 1.34504-.012675 3.7996 2.290009 7.61415 4.555589 11.43422 6.81149 3.58846 2.119012 7.18934 4.216593 10.84841 6.360955" fill="#FFF"/>
    <g transform="translate(17 12.068905)">
      <mask id="b" fill="#fff">
        <use xlink:href="#a"/>
      </mask>
      <path d="M22.735638 6.909732c-5.69687 3.759835-11.34268 7.486024-17.0223 11.234798v5.667062c5.64121 3.396642 11.4655 6.671144 17.23321 10.211819 1.23372-.83977 2.45962-1.674009 3.71312-2.527144 1.80596 1.09488 3.59766 2.180773 5.49378 3.330271-.31004.24451-.54579.465515-.81374.63605-2.41891 1.541037-4.84334 3.073547-7.26639 4.608592-.22632.143111-.45149.288066-.68011.42772-.32959.201647-.63641.159704-.96669-.038716-2.45939-1.475588-4.92108-2.947259-7.39082-4.405794-2.96355-1.750288-5.93906-3.480066-8.90261-5.230815-2.03964-1.205037-4.06709-2.430815-6.13318-3.667193V14.7389c7.52422-4.82153 15.11353-9.684543 22.74907-14.577284 2.13026 1.329251 4.26006 2.662881 6.39446 3.988675 3.2154 1.996642 6.43655 3.984527 9.65103 5.982782 2.14337 1.332247 4.27547 2.68316 6.42344 4.008033.42366.261564.68218.53419.67367 1.085432-.0299 1.956083-.01173 3.912626-.01173 6.015506-7.74111-4.793876-15.38769-9.529218-23.14421-14.332312" fill="#FFF" mask="url(#b)"/>
    </g>
  </g>
</svg>
