<svg width="80" height="80" viewBox="0 0 80 80" xmlns="http://www.w3.org/2000/svg">
  <title>
    snt-status
  </title>
  <g fill-rule="nonzero" fill="none">
    <circle fill="#5B6DEE" cx="40" cy="40" r="40"/>
    <path d="M33.25 37.552c-1.394-.008-2.786.112-4.16.358 1.13-10.452 9.84-18.365 20.21-18.364 6.35 0 10.7 3.108 10.7 9.545 0 6.438-5.222 9.547-12.84 9.547-5.623 0-8.285-1.085-13.91-1.085m-.41 3.812c-7.618 0-12.84 3.108-12.84 9.545 0 6.436 4.35 9.545 10.7 9.545 10.37 0 19.08-7.913 20.21-18.364-1.374.247-2.766.367-4.16.36-5.625-.002-8.287-1.086-13.91-1.086" fill="#FFF"/>
  </g>
</svg>
