<svg width="80" height="80" viewBox="0 0 80 80" xmlns="http://www.w3.org/2000/svg">
  <title>
    soar-soarcoin
  </title>
  <g fill="none" fill-rule="evenodd">
    <circle fill="#1372BE" cx="40" cy="40" r="40"/>
    <path d="M37.281687 67c-1.049192-.13411-2.103637-.236437-3.146667-.40759-5.55111-.911236-10.448687-3.237046-14.729293-6.882693-.023535-.02004-.03313-.056478-.09313-.163766.238888-.01255.441615-.03259.644342-.03269 5.15111-.00172 10.30232 0 15.45343-.00475.32555-.0003.65111-.04858.98242-.18927-.33475-.09737-.67031-.1915-1.00384-.29251-6.99071-2.11721-13.0601-5.73127-17.8701-11.2836-3.04566-3.51558-5.23556-7.51548-6.11445-12.14838-.65495-3.45273-.51344-6.88026.41757-10.2672.31091-1.13137.69454-2.24271 1.14687-3.36234.69303 6.12935 2.06414 12.01296 5.42969 17.27106-1.02788-2.69939-1.43465-5.49706-1.35081-8.37996.34646.92419.66636 1.85942 1.04363 2.77065 2.66303 6.43401 6.9905 11.54909 12.48373 15.72581.4397.33431.99161.52045 1.49141.77551.03424-.04109.06858-.08208.10293-.12318-.08738-.1506-.17192-.30303-.26233-.45182-.77828-1.27935-1.39252-2.61963-1.53101-4.13654-.17192-1.8836.44131-3.45597 1.89687-4.66649 1.53687-1.27834 3.37454-1.7168 5.31495-1.76093 1.70111-.03866 3.34596.30769 4.92707.94038.22939.0918.44646.21448.65162.42925-.69051 0-1.38111-.00354-2.07162.00304-.13273.00132-.26606.03775-.39758.06549-2.86374.60192-2.88717 3.1415-1.57283 4.79271 1.64596 2.06792 3.90626 2.96023 6.42303 3.34575.63121.09666 1.27192.12834 1.90586.20881 2.08858.26488 3.98212-.41791 5.86737-1.17753 4.55838-1.83664 8.63424-4.39241 11.99262-8.02642.2804-.30344.55141-.61559.82676-.92368.04576.03533.091613.07065.137573.10597-1.07222 1.49049-2.14424 2.98098-3.21636 4.47136.010602.01478.02111.02946.031713.04413.29727-.25708.600706-.50739.89091-.77237 2.62212-2.39352 4.79242-5.1505 6.5799-8.21589.09939-.17044.23515-.31963.35404-.47864v.30364c-.05515.17602-.10889.35243-.16576.52784-.575455 1.77652-1.038384 3.5997-1.749596 5.31984-1.7905 4.33097-4.51747 7.9584-8.4498 10.58715-3.97828 2.65951-8.40798 3.66174-13.13929 3.51498-.11505-.003646-.230804.011334-.34616.01771 4.5898 1.551216 9.23435 1.797977 13.95909.725-2.30969 2.132795-4.97676 3.571864-7.92757 4.514677.008487.060724.01687.121554.02525.182283h5.59091c-.091613.15992-.101613.19595-.12525.216092-4.29111 3.66245-9.21303 5.971258-14.777473 6.8835-1.05949.17379-2.13131.27247-3.19737.40567h-3.33333z" fill="#FFF"/>
    <path d="M41.948667 22.71245c.016363-1.129656-.237374-2.090082-.789495-2.988462-1.419293-2.309514-4.738788-2.80324-6.55283-.9499-1.558786 1.592612-2.301716 5.29585-.437574 7.681175 1.701212 2.176822 5.595656 2.23998 7.061515-.618117.503434-.98168.712424-2.02925.718384-3.124697zM38.695837 17c.095456.02996.18889.070547.286567.088462 2.592828.475303 4.081616 1.977935 4.556465 4.60182.65494 3.620042-1.76728 6.710224-5.44162 6.979758-1.00526.073685-1.98414.018725-2.9394-.297975-2.36829-.785122-3.74566-2.733907-3.82202-5.38654-.06879-2.38937 1.4099-4.638865 3.64868-5.498885.54565-.209616 1.12646-.326923 1.69111-.48664h2.0202zm24.764587 11.455283c.793435-.00425 1.651818-.571255 1.948182-1.452834.29899-.88897-.034343-1.8328-.916465-2.46751-.43545-.31326-.91767-.56063-1.37303-.84697-.22878-.14383-.36404-.06751-.48616.14554-.63636 1.11012-1.28575 2.21285-1.90656 3.33148-.05778.10425.00121.384.09455.44423.72546.46751 1.48606.86275 2.6395.84605m-3.27939-.36984c-.85919 1.48279-1.72545 2.97753-2.60101 4.48846-.45717-.2663-.87141-.50759-1.33636-.77844 1.84899-3.20122 3.6901-6.38897 5.58576-9.67096 1.45071.90121 2.89808 1.69564 4.22435 2.65789 1.02879.74645 1.21081 1.9582.70081 3.04443-.56121 1.19534-1.78465 1.81315-3.18899 1.59119-.4101-.06478-.81252-.17794-1.28667-.28411.32192 2.24717.63778 4.45263.9601 6.70263-.53283-.28755-1.01293-.52278-1.46363-.80506-.12788-.08006-.2198-.29028-.24384-.45324-.28434-1.9338-.55424-3.86974-.82363-5.80567-.04273-.30729-.07202-.61225-.52687-.68715m-7.82335-3.14311c-.20727-1.42166-.39565-2.71356-.60636-4.15951-.89434 1.18279-1.68788 2.23228-2.53424 3.35162 1.06859.27479 2.04384.5257 3.14061.80789m-7.64627 3.41519c.40162-.51143.7396-.94696 1.08293-1.37824 2.08939-2.62378 4.17737-5.24878 6.27677-7.86457.13132-.16366.35485-.25293.53556-.37682.09495.19858.24232.38846.27707.59707.62364 3.7417 1.23394 7.48572 1.84455 11.22955.01536.09413.00192.19281.00192.34393-.53858-.13624-1.04555-.23846-1.5298-.40648-.11293-.03917-.18959-.29646-.21293-.46316-.16626-1.18522-.33161-2.37126-.4599-3.56103-.05343-.49525-.21323-.7744-.75141-.87966-.90677-.17743-1.79889-.43563-2.69-.68573-.32464-.0912-.51666-.0331-.71081.25921-.65273.98269-1.35394 1.9333-2 2.92024-.26172.3998-.51344.63461-1.00707.40921-.16162-.07379-.35394-.08016-.65687-.14352m-21.1539.81601c.32969.17561.54454.27297.74171.39808.85071.53967 1.72495.72561 2.67334.24878.8494-.42713 1.29768-1.28077 1.13667-2.21417-.17656-1.02247-.85939-1.71012-1.8204-1.8169-.86909-.09646-1.7406-.17166-2.60929-.27146-2.15535-.24777-2.81394-2.86852-2.04949-4.26852.72202-1.32227 2.66778-2.2501 4.138488-1.94767.384343.07905.66556.18299.5396.69291-.07313.29626-.01323.62551-.01323 1.07176-.24202-.17297-.39535-.27439-.5398-.38724-.70909-.55405-1.783637-.57925-2.44808-.053947-.688487.54433-.95 1.55253-.59121 2.324693.37667.810326 1.11778 1.025 1.90869 1.1167.56737.06579 1.14051.08887 1.71182.11296 2.22535.09373 3.47849 1.79211 2.91313 3.95648-.5606 2.146154-2.81737 3.45901-4.95757 2.895445-.31808-.08381-.48223-.227736-.50687-.578647-.02627-.375506-.12859-.74575-.22748-1.27925" fill="#FFF"/>
  </g>
</svg>
