<svg width="80" height="80" viewBox="0 0 80 80" xmlns="http://www.w3.org/2000/svg" xmlns:xlink="http://www.w3.org/1999/xlink">
  <title>
    soc-all-sports
  </title>
  <defs>
    <path id="a" d="M0 .007343h67.993532v67.673389H0z"/>
  </defs>
  <g fill="none" fill-rule="evenodd">
    <circle fill="#36FA54" cx="40" cy="40" r="40"/>
    <g transform="translate(6 6.311906)">
      <mask id="b" fill="#fff">
        <use xlink:href="#a"/>
      </mask>
      <path d="M43.219966 57.090725c.101359 1.513878.190208 2.846422.299585 4.478742 5.126943-1.707024 9.16749-4.514179 12.537019-8.319944 5.268396-5.950798 7.698754-12.93724 7.330207-20.830028-.390037-8.344526-3.892037-15.263925-10.165037-20.770967-2.793453-2.45215-5.907981-4.395737-9.747415-5.447982-.07217 1.643174-.13151 2.994235-.198227 4.50907-2.293717-.561238-4.378943-1.071717-6.53666-1.599755a10505.804137 10505.804137 0 0 0-.25885-4.337953c-1.73849-.257953-3.329754-.508244-5.006339.151643-.075056 1.435343-.145943 2.791831-.219717 4.201953-2.189472.549427-4.232038 1.061822-6.483415 1.626573-.108094-1.544526-.207528-2.964864-.309528-4.41968-9.60885 2.48567-21.703868 14.304262-19.669963 31.10952.915755 7.568113 4.435717 13.788996 10.173057 18.791625 3.101698 2.704995 7.558585 5.034873 9.554 4.948676.070245-1.331906.141453-2.681371.22068-4.185352 2.272867.582629 4.35617 1.116732 6.526075 1.673183.073132 1.429277.14017 2.735962.21234 4.141934 1.68717.509202 3.279396.4677 5.014679.04661.085-1.425765.165188-2.7797.250509-4.214723 2.174717-.521652 4.222736-1.012657 6.477-1.553145m24.77349-23.238122c-.039773 18.828338-15.305131 33.892094-34.28066 33.827925C15.083042 67.617636-.06492 52.305504.000192 33.60263.064985 15.036396 15.419834-.043641 34.2074.007438c18.59768.050442 33.825189 15.30479 33.786057 33.845165" fill="#000" mask="url(#b)"/>
    </g>
    <path d="M54.849308 30.488492c-2.811095.475042-5.621868.950404-8.413076 1.422254-.281302-.42971-.51834-.668827-.613604-.954555-1.357754-4.082234-7.757773-4.473633-10.435113-2.314873-2.062453 1.663287-1.826377 4.604526.550736 5.820864 1.076132.550704 2.283774.896132 3.469283 1.178348 2.751755.655098 5.570547 1.064375 8.279642 1.853239 3.196.930291 5.968924 2.619756 7.679188 5.628676 2.529472 4.449052 2.08234 11.975981-4.593207 15.31692-4.903378 2.454066-10.130076 2.83078-15.478981 2.02276-2.235982-.338084-4.353283-1.050966-6.286472-2.26507-2.592981-1.62785-4.295547-3.941765-5.354359-6.764563-.073132-.19538-.103283-.411193-.12349-.62062-.009302-.097051.052924-.201127.163905-.575605 2.838038-.47632 5.799566-.97371 8.59334-1.443005.284189.232094.411207.282854.442.368094 1.002038 2.777145 3.194396 3.882704 5.94615 4.049671 1.264737.07694 2.55834-.053953 3.818265-.235286 1.13868-.164094 2.087472-.795887 2.823283-1.692977 1.408434-1.717878 1.093132-4.057333-.90966-5.005183-1.615-.76492-3.419566-1.159512-5.166717-1.616357-2.527227-.661164-5.178906-.96892-7.602529-1.885483-8.978886-3.39553-9.138943-13.84231-4.936094-18.473653 1.77666-1.958272 3.990189-3.193446 6.514528-3.868976 4.382151-1.171963 8.774887-1.306686 13.08583.290197 4.221133 1.564 6.921567 4.661671 8.552925 8.761465.038811.09801.068962.204957.074094.309033.004812.102478-.027584.206554-.043622.30967l-.036246.385015z" fill="#000"/>
  </g>
</svg>
