<svg width="80" height="80" xmlns="http://www.w3.org/2000/svg">
  <g fill="none" fill-rule="evenodd">
    <circle fill="#FFF" cx="40" cy="40" r="40"/>
    <g transform="translate(12 12)">
      <circle fill="#FFF" fill-rule="nonzero" cx="28.22959" cy="27.670588" r="23.757576"/>
      <path d="M8.894318 44.29969v.362609H5.162142v-6.844551l-.115757.378623-3.569098-1.091183 2.016261-6.594893-.248204.367977L.15123 28.791266l3.866216-5.731901-.368722.298585-2.348735-2.900446 5.563767-4.50545-.710964.272914-1.337493-3.484287 6.645401-2.55093-.776652.054308-.260343-3.723085 6.957588-.486522-.628143-.145018.839557-3.63652 6.646198 1.534395-.418693-.241732 1.866089-3.23216 5.796711 3.346733-.225592-.241918L33.98696.872894l4.51406 4.840736-.096223-.197286 3.354458-1.636078 2.89584 5.93735-.026316-.166146 3.686227-.58384 1.086076 6.857214.077313-.488129 3.686227.583841-1.102334 6.959863.272553-.558817 3.354458 1.636079-3.10585 6.367936.453776-.486616 2.729542 2.545338-4.825366 5.174571.584161-.337265 1.866089 3.23216-6.065663 3.502012.6103-.1409.839557 3.636522-6.702322 1.547352.516428.036113-.260344 3.723085-6.708924-.469134.341906.131245-1.337493 3.484287-6.422016-2.465181.405825.328631-2.348734 2.900446-5.300646-4.292379.261678.387954-3.094115 2.087007-3.789087-5.617553.11265.368464-3.570967 1.091755-1.985367-6.493841zm0-4.434732l2.331033-.712668 1.811608 5.925504 2.015502-1.359473 3.444795 5.10712 1.538556-1.899959 4.774014 3.86592.85396-2.224642 5.75302 2.208377.168506-2.409753 6.156146.43048-.553944-2.399396L43.22242 45.0032l-1.250425-2.1658 5.38671-3.110018-1.84495-1.720444 4.255186-4.563129-2.269994-1.10715 2.736664-5.610992-2.482923-.393257.975847-6.161256-2.374045.376011-.975444-6.158707-2.13835 1.042943-2.716915-5.5705-1.742887 1.625268-4.20416-4.50841-1.202951 2.083573-5.321874-3.072585-.549983 2.382237-5.98706-1.382221.173823 2.485777-6.145825.429758.908732 2.36733-5.786712 2.22131 1.556936 1.922656-4.858193 3.934087 2.050461 1.383053-3.502457 5.192607 2.360057.721543-1.829463 5.983903h2.452094v6.23417z" fill="#FF3B81" fill-rule="nonzero"/>
      <text transform="translate(12.218182 5.430303)" fill="#FF3B81" font-family="Avenir-BlackOblique, Avenir" font-size="33.540107" font-style="italic" font-weight="700">
        <tspan x=".515879" y="34.159715">S</tspan>
      </text>
      <path d="M42.21812 16.335024L37.490972 33.61447l-3.902522-.27315 2.943998-17.81604 5.68567.809745zm-4.1222 19.081852l-1.228863 6.105234-5.190346-1.511969 1.189591-5.857281 5.229618 1.264016z" fill="#FF3B81" fill-rule="nonzero"/>
    </g>
  </g>
</svg>
