<svg width="80" height="80" viewBox="0 0 80 80" xmlns="http://www.w3.org/2000/svg">
  <title>
    spc-spacechain
  </title>
  <g fill="none" fill-rule="evenodd">
    <circle fill="#000" cx="40" cy="40" r="40"/>
    <g fill="#FFF">
      <path d="M48.462085 24.014743l2.094422-1.357403c.20417-.133039.264338-.410597.132507-.617247l-3.03076-3.710233c-.133184-.20665-.408338-.266078-.614536-.13304l-1.05262.961663c-.20552.13304-.265014.410598-.133183.616572l1.99031 4.106649c.132507.205974.408338.266078.61386.133039m-5.311437-8.45574c.132507.205974.408338.266078.613859.133039l1.306817-.567948c.204845-.13304.264338-.410598.13183-.617247l-2.116055-4.30317c-.131831-.205973-.408338-.266077-.61386-.133038l-2.094422 1.358078c-.204845.133039-.264338.410597-.131831.616571l2.903662 3.513715z"/>
      <path d="M62.360856 39.918504l-4.102986-7.069299c3.60879-8.824467 3.74738-16.158493.285972-18.437039-3.025352-1.992208-6.136563-1.62348-10.674253.79891-.13724.07361-.26569.143843-.384.20935l-.237972-.370753c-.132507-.205974-.409014-.266078-.61386-.13304l-4.088112 1.998962c-.204845.133039-.264338.410597-.13183.617247l1.351436 2.103636c.13183.20665.408338.266078.613859.133039l3.49724-2.917403c.20552-.133039.265013-.410597.132506-.616571l-.346817-.54026c.220395-.108052.467831-.232987.743662-.378857 3.303212-1.738961 6.154817-2.42239 7.639437-1.219636 2.31076 1.872 1.867944 7.579844-1.064789 14.793662l-8.708957-5.139896c-.031775-.29174-.279212-.519325-.578029-.519325-.194028 0-.36845.095896-.474591.247169l-11.236057.03039c-.102084-.166806-.285971-.277559-.492845-.277559-.31707 0-.576.256624-.581408.574026l-9.762254 5.726078c-.070985-.03039-.14738-.046597-.225802-.046597-.320451 0-.581409.262701-.581409.58483 0 .08104.016902.160728.049352.233663l-5.731605 9.727377c-.308282.013506-.555719.27013-.555719.584156 0 .19787.101409.377506.257578.483532l.037183 2.804624c.203493-.043897.411042-.087793.621972-.131689l-.035831-2.656052c.170366-.101974.282591-.288363.282591-.500415v-.016883l8.147155-5.653819-3.99076 8.046494c.24676-.036468.496901-.072935.750422-.108727l4.026592-8.118754 2.913803 7.385351a89.59103 89.59103 0 0 1 .651718-.046597l-3.003718-7.612936c.017577-.018909.033802-.039168.048676-.059428l12.036507 2.382545c.014873.056052.035155.110754.060845.162754l-3.916395 4.875169c.270423-.00743.542198-.014182.818029-.020936l3.577014-4.452415c.127774.038493.269746.042545.401577.01148l3.628395 4.452416c.277183.007429.551661.016208.825464.024987l-3.951549-4.848831c.039887-.069559.069634-.143844.086535-.222857l1.335888-.272156c1.865239-.380883 4.664788-.952208 7.008676-1.428312 1.17093-.237714 2.228281-.451792 2.997633-.607117.252845-.05065.475268-.09522.659155-.132363.008789.010805.01893.020935.027043.031065-1.308845 2.47709-2.862423 5.047376-4.651944 7.639272.567211.033091 1.124282.069559 1.671887.108052.21769.015533.436057.031065.651043.047948 1.092507.083065 2.14445.178286 3.15583.28161.699719-1.096727 1.351437-2.190077 1.957184-3.274649l1.854422 3.731844c.25217.034442.50231.070234.74907.106026l-2.23707-4.50239c.315042-.581454.618592-1.160207.906592-1.734908l5.286084 3.700104c-.000676.004727-.000676.009454-.000676.014181 0 .220156.12169.411949.300845.511897v2.72561c.21093.04052.419155.081039.623324.122234v-2.887013c.146704-.108052.24-.28161.24-.472728 0-.311324-.24338-.565922-.548958-.58348zm-17.03121-15.646597c.182534.146545.465802.166805.66659.04187l8.347944 4.927169-13.813183-3.177403 4.798648-1.791636zm-12.096677.067532c.185916.09387.429296.07226.597634-.049974l4.562028 1.772052-13.533296 3.190234 8.373634-4.912312zm-7.643493 9.720623l-7.933521 5.505247 5.250253-8.911584c.037184.00135.074367-.002026.110874-.008104l2.620394 3.128779c-.03245.079688-.050028.165455-.050028.253922 0 .010805.001352.02161.002028.03174zm.984338-.632779c-.093972-.049974-.200789-.076987-.310986-.076987-.050704 0-.102084.006078-.151436.017559L23.48018 30.22692c.000676-.002702.001352-.005403.002705-.008104l14.054535-3.312468-10.963606 6.520935zm12.369803 2.76613l-11.851944-2.346078 11.949972-7.108467c.031775.022285.065577.04187.100732.058753l.113578 9.11283c-.127775.064157-.235944.162079-.312338.282962zm.48676-10.686338c-.146704 0-.285295.047273-.399549.131013L35.15297 24.13144l8.826592-.023636-4.133409 1.543792c-.11831-.091844-.263662-.14452-.415775-.14452zm.83155 10.67148c-.091268-.139791-.225803-.246493-.382648-.303895l-.114254-9.1c.026366-.015533.05138-.03174.074367-.05065l12.204845 7.058494c-2.298592.459896-8.796845 1.786234-11.78231 2.396052zm12.717295-2.906597c-.142647-.01283-.289352.017559-.411042.090494l-11.164394-6.455429 13.140507 3.022754c-.467155 1.085922-.989747 2.202909-1.56507 3.342181zm3.762254 2.949819c.43876-.89413.843718-1.778806 1.214873-2.649974l3.421521 5.895584-4.636394-3.24561zM24.228372 51.988244v-1.507999c0-.67465-.545578-1.221663-1.216226-1.221663h-5.514591c-.192 0-.34817-.156675-.34817-.349143v-.275532c0-.213403.172395-.38561.384677-.38561h6.411718c.040564 0 .072338-.032417.072338-.072936v-.27148c0-.615221-.496225-1.114286-1.108732-1.114286h-6.436732c-.722029 0-1.312226.566597-1.356846 1.281766h-.004056v1.360104h.001352c.014873.712467.592902 1.285143 1.305465 1.285143h5.405746c.202141 0 .36507.164779.36507.367376v.410598c0 .202597-.163605.367376-.365746.367376h-6.751098c-.040564 0-.072338.032416-.072338.072935 0 .765143.61724 1.385767 1.379155 1.385767h6.523267c.73217 0 1.325747-.596987 1.325747-1.332416m3.022445-.751771c0-.160052.129127-.289715.289352-.289715h5.282028c.73555 0 1.332507-.599013 1.332507-1.337818v-1.481662c0-.738805-.596958-1.337818-1.332507-1.337818h-6.277183v.008104H25.04755v6.52296h2.203268v-2.084051zm0-2.745195c0-.146546.118986-.266078.26569-.266078h4.114479c.177127 0 .319775.143844.319775.321455v.615896c0 .192467-.154141.347792-.346141.347792h-4.065127c-.160225 0-.288676-.128987-.288676-.28904v-.730025zm11.664608 3.502572c.81938 0 1.013409.539584 1.013409.539584l.289352.395065c.289352.395065 1.022873.424104 1.022873.424104h1.84969l-4.858817-6.56348s-.613859.42883-.866704.608467c-.69431.494337.050704 1.553922.050704 1.553922l1.054648 1.534337s-1.867943.045247-2.872563.045247c-1.005296 0-1.217578.74691-1.217578.74691l-.328563.715843h4.86355zm3.386231 3.487443c-.763943.680728-.111549 1.67143-.111549 1.67143l1.055324 1.534337s-1.867944.045246-2.87324.045246c-1.00462 0-1.2169.74691-1.2169.74691l-.329916.715844h4.864901c.632113 0 .846423.29174.846423.29174l.455662.64291c.290028.395064 1.023549.423428 1.023549.423428h1.849014l-4.85814-6.562805s-.472564.284311-.705128.49096m10.698727-3.528301v-.055376H46.48658c-.280563 0-.507718-.228935-.507718-.510546v-2.642545c0-.264052.212958-.47813.475944-.47813h6.545577v-.079013c0-.740831-.59831-1.34187-1.335211-1.34187h-6.597634c-.742986 0-1.344676.60509-1.344676 1.350649v3.701455s-.060845 1.420207 1.29938 1.420207h6.619268c.751099 0 1.358873-.611168 1.358873-1.36483m-26.498907 3.082789h-6.59831c-.741634 0-1.344.60509-1.344 1.35065v3.700778s-.06152 1.420884 1.29938 1.420884h6.619944c.750423 0 1.358873-.61117 1.358873-1.364832v-.056052h-6.513802c-.280564 0-.507719-.22826-.507719-.50987v-2.64322c0-.264052.212958-.477455.475268-.477455h6.546253v-.079013c0-.741506-.59831-1.34187-1.335887-1.34187m27.634749-6.736499h8.736V46.84666h-8.736zm2.224631 3.309091v-1.002182c0-.16748.134535-.30322.300845-.30322h3.414085v-1.347949h-5.939831v4.363273h8.60214v-1.383065h-6.052732c-.179155 0-.324507-.146545-.324507-.326857m-25.808316 3.4268h-1.1689c-.477972 0-.865353.388987-.865353.869143v5.60452h2.034254v-2.791793h5.045408v2.791792h2.034254v-4.22348H30.55254v-2.250182zm6.108914-.0416h-1.063437v1.638338h2.034253v-.66317c0-.538908-.434704-.975168-.970816-.975168m13.33494.0416h-1.118873v6.473662h2.034254v-5.55387c0-.507844-.40969-.919792-.91538-.919792m7.854557 1.619023l-3.64462-1.619428h-2.033577v6.474338h2.033577v-4.343689c0-.242441.246085-.40722.468507-.314026l3.436395 1.437091v3.220624h2.033577v-5.701091c0-.426806-.344112-.773247-.769352-.773247h-1.264225v1.449247c0 .13439-.137916.224207-.260282.170181"/>
    </g>
  </g>
</svg>
