<svg width="80" height="80" viewBox="0 0 80 80" xmlns="http://www.w3.org/2000/svg" xmlns:xlink="http://www.w3.org/1999/xlink">
  <title>
    spf-sportyfi
  </title>
  <defs>
    <path id="a" d="M18.518536.048745H.452534v7.198602h18.066002z"/>
  </defs>
  <g fill="none" fill-rule="evenodd">
    <circle fill="#FFF" cx="40" cy="40" r="40"/>
    <path fill="#E6F9D7" fill-rule="nonzero" d="M16.956522 35.559157l13.630434-7.282561-.870054 18.510638z"/>
    <path d="M18.716523 35.085662l11.045813 9.690375.752452-15.976023-11.798265 6.285648zm11.61141 11.701572c-.145332 0-.289405-.052512-.405166-.154253L17.180792 35.453244c-.16169-.141125-.244107-.357736-.2202-.576315.023279-.21858.150994-.410248.338478-.510677l13.611447-7.251206c.200066-.10765.43851-.094521.627881.033476.188742.12734.298213.349203.286888.583536l-.868842 18.430287c-.011325.24943-.157914.46998-.377484.570408-.0799.036102-.165464.054481-.251027.054481z" fill="#7BE300" fill-rule="nonzero"/>
    <path d="M31.489637 28.711733L30.7021 44.931501l15.215783-9.306232-14.428246-6.913537zm-1.494118 18.075501c-.114633 0-.229267-.030852-.331595-.093213-.20595-.124066-.326413-.35316-.315403-.595384l.894398-18.4326c.01101-.218592.128234-.41749.314756-.530397.185227-.111593.413846-.124066.609434-.030852l16.396441 7.85683c.215666.10306.358148.31837.370453.559936.011658.241567-.108157.470662-.312813.595384l-17.290838 10.57577c-.102976.063017-.218905.094526-.334833.094526z" fill="#7BE300" fill-rule="nonzero"/>
    <path fill="#E6F9D7" fill-rule="nonzero" d="M47.336335 54.19149l.598448-18.510639-17.347827 10.620545z"/>
    <path d="M31.372256 46.837017L46.0755 53.755616l.525925-16.231794-15.22917 9.313195zm15.31855 8.588515c-.092619 0-.185887-.020349-.272677-.061047l-16.695543-7.856613c-.217625-.1024-.360765-.317704-.373718-.55992-.013602-.242218.106869-.471962.31154-.597337l17.292714-10.575478c.204023-.124719.457918-.125375.66194-.003939.205319.121437.327733.347243.319313.58749L47.33785 54.79078c-.006477.219898-.122414.422074-.307006.537603-.10363.064328-.22151.097149-.340038.097149z" fill="#7BE300" fill-rule="nonzero"/>
    <path fill="#BEF198" fill-rule="nonzero" d="M62.804348 46.301396L47.303104 35.68085l-.607452 18.510638z"/>
    <path d="M47.33585 37.556448l-.530363 16.142041 14.042453-6.879945-13.51209-9.262096zm-1.222398 17.869084c-.124868 0-.248422-.035447-.35686-.105027-.193875-.12472-.307572-.341996-.299685-.573056l.605284-18.431636c.007229-.239594.145241-.456213.35949-.564522.214905-.107653.471214-.091243.668375.044636l15.429151 10.575594c.19256.13194.300999.35578.283254.58881-.01643.232373-.155757.439145-.365404.541547l-16.034435 7.856699c-.092009.044637-.19059.066955-.28917.066955z" fill="#7BE300" fill-rule="nonzero"/>
    <path fill="#E6F9D7" fill-rule="nonzero" d="M54.901857 62.829787l-8.206205-9.396182 16.108696-7.880414z"/>
    <path d="M47.170758 54.26712l6.936503 7.943562 6.679546-14.605587-13.616049 6.662025zm7.110655 9.79671c-.18861 0-.369334-.080629-.495512-.224187l-8.167394-9.354236c-.134065-.15339-.189267-.36119-.14918-.560467.040745-.199277.171524-.369056.354876-.458862l16.033803-7.845234c.250384-.123238.548742-.07473.74721.117993.199124.192722.254984.489671.139978.742046l-7.86575 17.19947c-.092662.20321-.281929.344801-.503398.376922-.031544.004588-.063089.006555-.094633.006555z" fill="#7BE300" fill-rule="nonzero"/>
    <path d="M35.58538 61.61618h16.54995l-6.47585-7.231276-10.0741 7.231276zm17.921365 1.213607H33.689233c-.26954 0-.50851-.168084-.59274-.41748-.084232-.24879.005615-.521851.222121-.6778l12.06259-8.658479c.262053-.188108.628928-.14806.841067.0892l7.754923 8.659086c.160352.179614.198412.433864.097334.649887-.101078.216628-.323824.355586-.567783.355586z" fill="#7BE300" fill-rule="nonzero"/>
    <path fill="#BEF198" fill-rule="nonzero" d="M30.301195 45.553191l-10.866412 7.149294 14.869565 10.127302z"/>
    <path d="M19.965733 53.333587l12.746275 8.654628L29.28058 47.22349l-9.314848 6.110098zM33.683365 64.06383c-.118625 0-.236629-.03483-.339727-.105135L18.477643 53.863778c-.177626-.11997-.28383-.325725-.281967-.54438.001864-.219946.111172-.423767.28942-.540512L29.3489 45.652911c.169553-.111585.380097-.13029.565797-.052245.18508.078045.322958.244455.369539.44634l4.002813 17.220247c.059623.257356-.037886.526321-.245945.678542-.106825.078045-.232281.118035-.357738.118035z" fill="#7BE300" fill-rule="nonzero"/>
    <path d="M30.888633 47.378383L34.3798 62.29722l10.47288-8.113293-13.964048-6.805544zm3.108326 16.685447c-.071822 0-.143644-.012455-.212343-.038675-.19673-.075385-.344745-.24713-.394084-.460827L29.366008 46.36496c-.057457-.244507.023733-.50278.208596-.662724.186113-.15929.442798-.194688.660137-.08784l16.09872 7.84519c.200477.098326.33725.298258.35911.528999.021859.23074-.073696.455582-.251065.59324l-12.074196 9.35418c-.10867.084562-.239198.127826-.370351.127826z" fill="#7BE300" fill-rule="nonzero"/>
    <path fill="#E6F9D7" fill-rule="nonzero" d="M44.217391 18.404255l2.287865 17.276596 12.5817-7.613814z"/>
    <path d="M45.633485 20.306378l1.981277 14.940808 10.901376-6.58386-12.882653-8.356948zm1.491858 16.608516c-.091921 0-.185085-.02095-.270174-.063484-.18757-.092686-.317377-.275518-.345326-.486282l-2.286854-17.24081c-.032297-.245046.077015-.486283.280112-.619598.20496-.133315.464575-.13395.668292-.001904l14.866416 9.643756c.1826.11808.291912.325035.288186.545957-.003727.220922-.118629.424069-.304956.536434l-12.57956 7.597689c-.09689.05904-.206203.088242-.316136.088242z" fill="#7BE300" fill-rule="nonzero"/>
    <path d="M46.837108 18.874013l11.97379 7.50281L57.199197 18.419l-10.362088.455014zm12.868144 9.402583c-.11552 0-.231042-.031888-.332899-.095663l-14.866776-9.315506c-.228558-.143494-.337247-.416993-.267065-.675774.070182-.25878.301845-.442135.572636-.4544l12.865038-.56478c.301844-.008585.576982.196232.636606.49242l2.001118 9.879672c.049065.240998-.052792.487514-.257748.626103-.105584.071748-.227936.107928-.35091.107928z" fill="#7BE300" fill-rule="nonzero"/>
    <path d="M48.503234 35.596707l12.882393 9.177309-1.767986-15.994813-11.114407 6.817504zM62.17224 46.787234c-.1252 0-.249769-.038728-.357264-.115529L46.96984 36.096894c-.178316-.127344-.281385-.339366-.273797-.563859.006323-.223837.123936-.428638.30984-.542854l12.807146-7.855949c.184007-.11356.411013-.122093.60324-.022974.191595.099118.322487.292103.346515.512658l2.037357 18.432074c.028455.255345-.089158.504125-.30162.63672-.10054.063016-.213094.094524-.32628.094524z" fill="#7BE300" fill-rule="nonzero"/>
    <path fill="#BEF198" fill-rule="nonzero" d="M67.76087 35.680851l-7.930558-6.668194-1.982486-10.608402z"/>
    <path d="M61.00704 28.021132l5.051753 4.225464-6.315308-10.948448 1.263554 6.722984zm7.37689 7.65972c-.133621 0-.267858-.046543-.380544-.140282l-7.936008-6.638423c-.115764-.09636-.194582-.233364-.223523-.386755l-1.984002-10.561038c-.058498-.31137.100986-.622741.378697-.738768.277095-.116026.594215-.003277.750004.266796l9.920626 17.200116c.15579.270729.107143.620775-.115149.832507-.11638.110127-.262932.165846-.4101.165846z" fill="#7BE300" fill-rule="nonzero"/>
    <path fill="#E6F9D7" fill-rule="nonzero" d="M62.49507 46.787234L69 34.952661l-8.673913-6.676065z"/>
    <path d="M60.596033 29.187213L62.317816 43.9784l5.164682-9.45709-6.886465-5.334096zm1.302323 17.600021c-.04128 0-.083892-.003938-.125172-.011815-.286298-.054484-.502686-.284888-.535977-.569776l-2.145903-18.431709c-.030627-.263226.102535-.518574.3369-.64789.233699-.129315.523992-.106997.736385.05711l8.58095 6.647598c.254339.196927.328243.546144.175107.827093l-6.435712 11.78411c-.117848.215307-.34489.345279-.586578.345279zM35.366165 62.973793l4.761201 4.54067 10.171288-4.54067H35.366165zM40.007572 69c-.147248 0-.292-.057878-.407426-.167433L33.28162 62.80636c-.197162-.188792-.26829-.491963-.177196-.76206.091093-.269409.324443-.448555.584621-.448555h19.817228c.298862 0 .55592.233579.612698.55811.056778.323152-.1017.646304-.378724.76964L40.241545 68.9497c-.075495.034452-.155358.0503-.233973.0503z" fill="#7BE300" fill-rule="nonzero"/>
    <path d="M62.924111 46.704711l2.451691 4.766841 1.837972-12.850363-4.289663 8.083522zm2.79902 7.486778c-.235164 0-.453758-.131244-.565285-.347184l-3.520442-6.845424c-.097507-.190079-.096232-.41701.003824-.60515l6.160136-11.607091c.147216-.276067.469052-.404726.761572-.307747.293796.098918.475426.396967.430178.7073l-2.639694 18.45187c-.039513.27736-.251096.497179-.523223.544375-.036326.005819-.072015.009051-.107067.009051z" fill="#7BE300" fill-rule="nonzero"/>
    <path d="M62.412972 47.701338L56.604173 60.83276l8.48944-7.83218-2.68064-5.299242zM54.766437 64.06383c-.13222 0-.264441-.04261-.376956-.127171-.242192-.184858-.326737-.517863-.201509-.800393l7.60776-17.199594c.101072-.228122.319108-.376925.561936-.38348.240921.011799.467857.130448.580372.352015l3.511469 6.94067c.134763.266142.076916.591937-.139849.79187L55.190432 63.896673c-.120778.110783-.272069.167158-.423995.167158zM27.56112 62.973793l9.482962 3.549165-3.72536-3.549165H27.56112zM39.87573 69c-.06745 0-.1349-.011713-.2011-.036518l-16.098678-6.026207c-.289784-.108177-.46528-.432018-.415316-.764817.049338-.332799.310394-.576713.615793-.576713h9.77462c.149889 0 .294782.059256.407823.167433l6.32468 6.026206c.226083.215665.282291.577403.134276.864037-.11429.21911-.32351.346579-.542098.346579zM18.328449 36.539958l1.444894 14.74518 9.152626-5.652475-10.59752-9.092705zm.931616 16.417489c-.093712 0-.186813-.022498-.273788-.066243-.187426-.095614-.314214-.283092-.335652-.496817l-1.69112-17.260518c-.0245-.25247.103514-.495568.323402-.614304.221114-.119362.48939-.08999.679878.074366l12.405627 10.643153c.151288.129985.231526.325587.216826.526814-.015925.200602-.124338.381831-.294001.486194l-10.713895 6.61674c-.096776.059993-.207026.090615-.317277.090615z" fill="#7BE300" fill-rule="nonzero"/>
    <path fill="#E6F9D7" fill-rule="nonzero" d="M44.352326 18.404255l-13.76537 9.662782 16.108696 7.613814z"/>
    <path d="M32.480386 28.574565l14.033158 6.63138-2.04166-15.047887-11.991498 8.416507zm14.81934 8.340329c-.092716 0-.184797-.020315-.271798-.060944L30.95057 29.256367c-.203848-.097128-.341653-.295193-.361339-.520556-.019051-.224728.082556-.443108.267988-.573247l13.739133-9.642989c.180987-.1276.416588-.150453.619166-.062847.202579.08951.345463.277418.37531.497067l2.338225 17.240573c.031117.231076-.066044.460247-.254017.59737-.111132.081257-.242586.123156-.37531.123156z" fill="#7BE300" fill-rule="nonzero"/>
    <path fill="#BEF198" fill-rule="nonzero" d="M26.869565 18.404255l18.586957.564362-14.090007 9.307979z"/>
    <path d="M27.278174 18.427795l3.765914 8.299827L42.843 18.901808l-15.564826-.474013zm3.484168 9.8488c-.059724 0-.1188-.007971-.177227-.023301-.188263-.050897-.342768-.178445-.419372-.348305l-4.482613-9.87946c-.08764-.193163-.064918-.414532.060374-.587458.124644-.172926.343418-.275946.557-.26736l18.5277.564768c.279148.008585.521294.184577.601143.43722.07985.253257-.020124.526136-.249286.6776L31.134974 28.16499c-.110361.073586-.240847.111605-.372632.111605z" fill="#7BE300" fill-rule="nonzero"/>
    <path fill="#E6F9D7" fill-rule="nonzero" d="M40.5 12.234043l4.11626 6.170212 13.231566-.587852z"/>
    <g transform="translate(39.26087 11)">
      <mask id="b" fill="#fff">
        <use xlink:href="#a"/>
      </mask>
      <path d="M2.572868 1.795347l2.814066 4.203149 9.043793-.39983-11.857859-3.80332zm2.491892 5.452c-.206315 0-.40024-.102426-.515478-.274575L.556803 1.008028C.410586.789602.41864.503304.577868.293517c.159229-.20917.435555-.29617.68462-.214723L18.08864 5.475262c.28562.091319.464055.373298.424402.669468-.040271.295553-.286858.520766-.587347.53434L5.09202 7.24673c-.008674.000617-.017968.000617-.027261.000617z" fill="#7BE300" fill-rule="nonzero" mask="url(#b)"/>
    </g>
    <path d="M29.899301 16.541468l14.337514.433766-3.23746-4.551766-11.100054 4.118zm15.594844 1.706064h-.021065l-18.78754-.568277c-.311371-.009255-.574028-.222744-.62735-.510893-.05332-.28815.116518-.571979.406164-.67934l14.545533-5.397086c.28833-.106745.617474-.01049.789946.231383l4.242008 5.964745c.136924.19251.147456.440553.027648.642319-.115859.196213-.336385.317149-.575344.317149z" fill="#7BE300" fill-rule="nonzero"/>
    <path fill="#E6F9D7" fill-rule="nonzero" d="M16.956522 35.680851l9.279532-17.276596 4.350903 10.249292z"/>
    <path d="M26.78611 19.259858l-7.680406 14.289889 11.281539-5.812449-3.601134-8.47744zm-9.200382 16.420993c-.16546 0-.329034-.066022-.450456-.191717-.192513-.199335-.234036-.50151-.102548-.745918l9.267069-17.241185c.114501-.213936.345391-.340266.581315-.331378.240956.011426.45486.16061.54923.384068l4.344763 10.22765c.13023.307255.003146.664026-.291915.815749l-13.611204 7.0129c-.090594.046977-.188739.069831-.286254.069831z" fill="#7BE300" fill-rule="nonzero"/>
    <path d="M15.816719 27.110673l1.31408 6.123551 7.007788-12.902879-8.321868 6.779328zm1.05279 8.570178c-.02988 0-.05976-.001904-.090276-.006348-.263198-.037455-.4749-.235521-.530845-.495166l-1.75592-8.182298c-.050224-.232347.034965-.474217.219966-.62467l11.11977-9.058996c.23459-.192353.57344-.190449.806758.003174.234589.192988.298163.524368.15385.790996l-9.364486 17.241293c-.112527.206954-.327408.332015-.558818.332015z" fill="#7BE300" fill-rule="nonzero"/>
    <path d="M15.71032 30.112349l-1.593984 10.20015 2.655714-5.593694-1.06173-4.606456zM12.695595 45.55319c-.06401 0-.128715-.007758-.19203-.025214-.33466-.088573-.546866-.39373-.496076-.713758L14.89002 26.36253c.048703-.309683.328399-.543077.665146-.553421.314484-.013577.633142.204947.703413.510751l1.921688 8.333c.030614.133183.015307.271538-.043833.396316l-4.80422 10.118688c-.113408.239213-.366665.385326-.63662.385326zM24.33725 61.571236h7.261058l-11.10555-7.356864 3.844491 7.356864zm9.346027 1.258551h-9.72054c-.2298 0-.440967-.129001-.548414-.334775l-5.146277-9.848796c-.132912-.253598-.078878-.565719.129805-.759536.209305-.191929.521709-.21773.75834-.06104l14.866817 9.848168c.2298.152284.334142.439234.255264.706047-.078256.266813-.320478.449932-.594995.449932z" fill="#7BE300" fill-rule="nonzero"/>
    <path d="M13.377311 44.755922l4.57401 5.554138-1.30695-12.816328-3.26706 7.26219zm5.420247 8.201525c-.188619 0-.37214-.081872-.495762-.23249L12.14173 45.24465c-.149748-.181867-.184158-.430607-.0873-.644348l4.400048-9.781457c.117887-.259364.398904-.406858.683107-.364985.286114.044373.50532.272489.533995.554977l1.76002 17.261138c.028037.275613-.13127.535602-.391895.640598-.078379.031873-.16058.046873-.242146.046873z" fill="#7BE300" fill-rule="nonzero"/>
    <path fill="#E6F9D7" fill-rule="nonzero" d="M24.391304 62.829787L13.23913 45.553191l6.005017 7.77475z"/>
    <path d="M23.743549 63.58862c-.203218 0-.401478-.102545-.520435-.289801L12.10006 45.707582c-.180913-.28598-.110283-.668134.160467-.866218.27075-.197447.644968-.142034.848185.128022l5.989337 7.915706c.020446.027388.039033.05605.055141.086622l5.133718 9.674894c.159228.300628.059478.677051-.226142.851569-.09975.061144-.208793.090443-.317217.090443" fill="#7BE300" fill-rule="nonzero"/>
  </g>
</svg>
