<svg width="80" height="80" viewBox="0 0 80 80" xmlns="http://www.w3.org/2000/svg">
  <title>
    sphtx-sophiatx
  </title>
  <g fill="none" fill-rule="evenodd">
    <circle fill="#000" cx="40" cy="40" r="40"/>
    <path d="M10.361789 30.080278h23.97146v-.992356H10.36179zm0-2.884351h23.97146v-.993551H10.36179zm10.111297 29.663586h.960061V32.066184h-.96006zm2.789384 0h.96006V32.066184h-.96006zm43.376788-2.03041l.678983-.702245L56.501935 42.94058l-.678405.701647zM40.318654 26.202495l-.678983.702246 10.816306 11.186278.678983-.701647zm24.348314 30.667008l.678983-.702246-10.816306-11.186876-.678405.702245zM38.346364 28.242596l-.679562.702245L48.48311 40.13112l.678983-.701648zm15.44039 13.293134l-1.29377 1.338095-.678983.702245L39.63973 56.167437l.679561.702245 12.173694-12.591367.678984-.702245 1.29377-1.338095.678982-.702245 12.173693-12.59077-.678983-.702245-12.173694 12.590769zm-1.293944-2.742286l-.678982.702245-1.29377 1.338095-.678983.701647-12.173694 12.591367.678983.702245 12.173694-12.590769.679562-.702843 1.29319-1.337496.678984-.702246L65.346067 26.90492l-.678984-.702245z" fill="#00B098" fill-rule="nonzero"/>
  </g>
</svg>
