<svg width="80" height="80" viewBox="0 0 80 80" xmlns="http://www.w3.org/2000/svg">
  <title>
    spr-spreadcoin
  </title>
  <defs>
    <linearGradient x1="50%" y1="0%" x2="50%" y2="100%" id="a">
      <stop stop-color="#A3326C" offset="0%"/>
      <stop stop-color="#6F3A95" offset="100%"/>
    </linearGradient>
  </defs>
  <g fill="none" fill-rule="evenodd">
    <circle fill="#FFF" cx="40" cy="40" r="40"/>
    <path d="M51.719564 9.57917c-.005818 6.210714-5.784 10.682514-11.862182 9.21149-3.413818-.82614-6.846182-1.5341-10.388-1.57325-2.528727-.027914-4.928.52055-7.253455 1.43115-2.515636.98491-3.16509 3.557936-1.44909 5.66696 1.51091 1.856726 3.527636 3.07074 5.691272 3.93675 3.27781 1.311526 6.65818 2.3664 9.95927 3.623914 1.34363.51185 2.656 1.170875 3.87163 1.937925 1.74072 1.09801 2.02545 2.88985 1.31454 5.00685-.712365 2.12135-2.252 3.03158-4.492 3.08886-2.390547.0609-4.77891.203-7.169456.25737-3.332.07576-5.867274 1.71354-7.790546 4.21624-1.704 2.21813-3.10691 4.66573-4.64909 7.00785-1.40909 2.13983-3.36473 3.44955-5.864365 4.09951C6.31738 58.87446 1.2192 54.82642.1912 50.15887c-1.002182-4.552636 2.044-9.750886 6.56909-11.035586 2.092728-.593775 4.120364-.409625 6.178546.108025 3.355637.84426 6.750546 1.42172 10.232 1.32457 2.301818-.06453 4.500728-.62713 6.596-1.51562 2.395637-1.01536 2.870546-3.54996 1.100728-5.49731-1.85491-2.04015-4.251273-3.3031-6.739637-4.3297C20.94611 27.901 17.6752 26.8048 14.459564 25.5723c-.841455-.322264-1.624-.798226-2.429455-1.21184-2.99273-1.53845-2.51746-5.160186-1.04655-6.847624.91745-1.0527 1.97927-1.655537 3.46182-1.647925 2.41927.01233 4.83927-.17508 7.26-.23272 3.47345-.08229 6.05527-1.853823 8.052-4.45295 1.59382-2.07531 2.90763-4.36559 4.32691-6.572123 1.476-2.29535 3.52254-3.676475 6.19745-4.360875 5.46436-1.39816 11.60363 3.35059 11.43782 9.332923" transform="translate(14 11)" fill="url(#a)"/>
  </g>
</svg>
