<svg width="80" height="80" viewBox="0 0 80 80" xmlns="http://www.w3.org/2000/svg">
  <title>
    sprts-sprouts
  </title>
  <g fill="none" fill-rule="evenodd">
    <circle fill="#A8CA27" cx="40" cy="40" r="40"/>
    <path d="M33.724607 26.86011c-.488093 9.827236-.976498 19.654785-1.463346 29.45463-3.37463.709416-7.34132-1.215565-8.96373-4.551907-2.33058-4.79284-2.3007-9.84965-.30474-14.63782 1.74288-4.18148 4.17681-8.078134 6.354865-12.073776 1.45992-2.6786 3.00607-5.310194 4.60171-8.117665.290118.569338.561558 1.130895.8579 1.678755 2.6593 4.917976 5.339455 9.824436 7.979766 14.752685 1.919378 3.582568 2.92327 7.38397 2.76576 11.490116-.201713 5.26319-1.51284 9.780234-7.363736 11.542413 1.15144 3.4316 3.610582 5.38615 6.855095 6.63565-.839533 1.68592-1.615875 3.24452-2.421478 4.86257-4.58397-2.41214-6.832996-6.16062-7.09541-11.07517-.486535-9.111907-.861944-18.23035-1.30739-27.34506-.04171-.85852-.25214-1.70895-.384125-2.563423-.03704-.01712-.074082-.034552-.111125-.051984" fill="#FDFDFC"/>
    <path d="M54.841027 16.940047c.40934 3.981945.856654 7.87922 1.19751 11.786148.282957 3.246692.651206 6.507704.599533 9.755953-.063502 4.0028-1.254475 7.756265-3.712685 11.005447-1.74568 2.307238-4.017743 3.819144-7.162334 4.497432 3.49853-5.35751 2.92794-10.84389 1.54211-16.412762-.11331-.455098.07907-1.062724.30444-1.511285.77385-1.540544 1.625526-3.04249 2.447627-4.558754-.11175-.061012-.22319-.122024-.334942-.183347-.951905 1.27782-1.903812 2.55564-2.915174 3.91377-1.77712-3.38366-3.439377-6.54973-5.23362-9.96638 4.255876-2.67082 8.70101-5.46024 13.26755-8.32623" fill="#FDFDFB"/>
  </g>
</svg>
