<svg width="80" height="80" viewBox="0 0 80 80" xmlns="http://www.w3.org/2000/svg">
  <title>
    srn-sirin-labs-token
  </title>
  <g fill="none" fill-rule="evenodd">
    <circle fill="#000" cx="40" cy="40" r="40"/>
    <path d="M38.690366 33.221916c.803447.317807 1.606894.158904 2.41034 0 .482069 1.589038 1.285515 3.178076 2.249651 3.813691-.482067 3.972596-2.088961 5.561634-3.535165 5.561634-2.41034 0-3.374477-4.767115-3.374477-5.720537 0-.158904 1.606894-1.271231 2.249651-3.654788zm-2.088961 14.61915c.321378 1.271231 1.285514 4.608212 3.374476 4.608212 1.446204 0 3.053098-1.906846 3.374477-4.449307-1.124826-.635616-1.606894-2.224654-2.249651-4.449307-.642758.158904-1.606894.317808-2.41034 0-.32138 2.06575-.964137 3.33698-2.088962 4.290403zM23.585567 52.92599c.803447 1.27123 2.57103 3.495884 4.338613 2.701365.482068-.158904.642757-1.430134.482068-2.701365-1.446205-.794519-2.41034-2.383557-3.213787-4.60821-.32138.158903-.803447.158903-1.285515 0 .16069 2.383557.16069 3.813691-.321379 4.60821zm-7.23102-4.449307c.642757 3.654788.803446 3.972596.642757 4.449307 1.124825 2.224654 2.41034 3.178076 3.856544 3.019173.482068 0 .16069-1.27123-.482068-2.701365 0 0-2.088962-1.589038-3.053098-4.608211-.321378-.158904-.482068-.158904-.964136-.158904zm-4.338613 0c1.606893 6.991768 4.82068 6.67396 4.65999 6.356153-.642757-1.112327-1.285514-1.589038-2.08896-2.224654-1.606894-1.430134-2.57103-4.60821-2.57103-4.131499zm20.246858 4.449307c.803447 3.019173 3.053098 3.019173 4.017234 2.701365 1.124826-.158904 1.606893-1.112327 1.767583-3.019172-1.446204-.953423-2.088962-3.178077-2.41034-4.608211-.482069.158904-1.285515.158904-2.088962 0 0 2.224653-.16069 4.131499-1.285515 4.926018zM17.96144 47.841067c.642757 1.589038 2.731719 4.767114 4.177923 4.767114.642757 0 .964136-1.112326.642757-4.60821-.964136-.635616-1.767583-2.06575-2.41034-4.1315-.321379.158904-.964136.158904-1.446204 0-.321379 1.747943-.482068 3.019173-.964136 3.972596zm-5.302749 0c.482068 1.27123 1.606894 4.1315 3.053098 4.60821.642757.317808.642757-.635615-.16069-4.449306 0 0-1.124825-.953423-2.088961-4.1315h-.642758c0 1.430135-.160689 3.654788-.160689 3.972596zm13.337216 0c.16069.635615 1.767583 3.972595 3.856545 4.449307 2.41034.476711 2.57103-2.542461 2.57103-4.290403-1.124826-.635616-2.088962-2.06575-2.57103-4.1315-.482068.158904-1.285515.317808-2.249651 0-.16069 2.06575-.803447 3.33698-1.606894 3.972596zm-1.446204-.476712c.964136 0 1.767583-1.430134 2.249651-4.290403-.964136-.953422-1.928272-2.383557-2.088961-5.87944-.482069.158903-.964137.158903-1.285515 0-.482068 3.178075-.964136 4.926018-2.088962 6.038344 0 .953423 1.124826 4.1315 3.213787 4.1315zm-10.444808-4.131499c.803447 3.33698 1.606894 4.1315 2.41034 4.1315 1.446205 0 1.124826-2.542462 1.285515-4.290404-.321378-.794519-1.446204-2.54246-1.446204-6.038345H15.5511c-1.124825 5.243826-1.124825 5.40273-1.446204 6.19725zm-3.213787-5.879441c-.321379-.158904-2.088961 6.832864.482068 9.852037.321379.317807.321379-3.813692.321379-3.813692-.642758-1.589038-.321379-5.720537-.803447-6.038345zm19.92548 5.879441c.16069.476712 1.124825 4.1315 3.856545 4.1315 1.606893 0 2.892408-1.906846 3.213786-4.449307-1.285514-1.271231-2.088961-3.178077-2.41034-5.720538-.482068.158904-1.285515.158904-2.088961 0-.642758 3.33698-1.285515 5.084922-2.57103 6.038345zM17.318682 36.7178c.16069 3.019172.803447 6.038345 2.249651 6.038345s2.249651-3.33698 2.73172-6.19725c-.642758-.47671-1.285516-1.430133-1.285516-3.33698-.482068.158904-1.124825.158904-1.446204-.158903-.16069.317808-1.124825 3.019172-2.24965 3.654788zm-4.338612 6.038345c.803446 0 1.606893-6.19725 1.606893-6.19725-.321378-.47671-.642757-1.430133-.482068-3.33698-.16069.158904-.482068 0-.642757 0-.642758 1.906847-1.446204 3.495885-1.446204 3.495885-.32138 1.747942 0 6.038345.964136 6.038345zM25.674529 36.7178c.160689 2.06575 1.124825 6.038345 3.053097 6.038345 2.249651 0 3.053098-3.019173 3.695856-6.038345-1.124826-.635616-1.606894-1.906846-2.088962-3.654788-.803447.158904-1.446204.158904-2.088962-.158904-.482068 1.589038-1.928272 3.495884-2.57103 3.813692zm1.606893-4.449307c-.482068-.635616-1.124825-1.906846-.803447-4.290403H25.35315c-.803447 1.589038-1.767583 3.495884-3.213787 4.60821 0 .317808.16069 3.654788 1.928272 3.654788 1.124826.158904 2.088962-1.430134 3.213787-3.972595zm-8.355846-4.290403h-.642758c0 .158903-2.24965 3.972595-3.053097 4.60821-.482068 1.589039-.482068 3.495884.482068 3.654788.964136 0 1.606893-.794519 2.892408-4.1315-.16069-.635614-.482068-1.747941.321379-4.131498zm-4.82068.158903c-2.410341 1.747943-3.695856 7.627384-3.053099 7.786288.16069.158903 2.088962-2.542462 1.928273-4.290404-.16069-1.112326 1.606893-3.654787 1.124825-3.495884zm23.782023 4.1315c-.642757-.635616-1.446204-1.906846-1.767582-4.290403-.482068.158903-1.285515.158903-1.767583 0-.482068 1.430134-1.285515 3.495884-2.892409 4.60821.16069 1.589039.964137 3.495884 2.57103 3.654788 2.57103.158904 3.374477-2.224653 3.856544-3.972595zm-22.817888-4.608211c-1.606893 2.542461-1.606893 4.60821-.964136 4.60821.803447 0 3.053098-4.131499 3.695855-4.926018-.160689-.794519 1.606894-2.54246.964136-2.701365-.964136 0-3.213787 2.86027-3.695855 3.019173zm41.136475 20.657496c-.482068.158904-.964136.158904-1.285515 0-.642757 2.224654-1.606894 3.813692-3.053098 4.608211-.16069 1.112327-.16069 2.542461.482068 2.701365 1.767583.635615 3.695856-1.27123 4.338613-2.701365-.642757-.794519-.642757-2.224653-.482068-4.60821zm6.748953 0c-1.285515 3.019173-3.053098 4.608211-3.053098 4.608211-.803447 1.430135-1.124826 2.701365-.482068 2.701365 1.446204 0 2.731719-.79452 3.856544-3.019172-.160689-.476712 0-.79452.642758-4.449307-.482068.317807-.803447.317807-.964136.158903zm2.57103 4.290404c-.642758.635615-1.285515.953422-1.767584 2.224653-.160689.317808 2.892409.635615 4.659992-6.356153-.321379-.476711-1.285515 2.701365-2.892409 4.1315zm-19.122034-4.290404c-.642757.158904-1.285515.158904-2.088961 0-.321379 1.430135-.964137 3.495884-2.41034 4.608211.321378 1.589038.642757 2.701365 1.767582 3.019173.803447.158903 3.053098.158903 4.017234-2.701365-.803447-1.112327-1.285515-3.019173-1.285515-4.926019zm14.94411-4.449306c-.642757.317807-1.124825.158903-1.446204 0-.482068 1.906845-1.285515 3.495884-2.41034 4.131499-.32138 3.495884 0 4.60821.642757 4.60821 1.285515 0 3.374477-3.178076 4.177923-4.767114-.803446-.953423-.964136-2.224654-.964136-3.972596zm6.106196.158903h-.642758c-.803447 3.019173-2.088961 4.1315-2.088961 4.1315-.803447 3.654787-.964137 4.60821-.16069 4.449306 1.285515-.476711 2.57103-3.33698 3.053098-4.60821-.16069-.476712-.16069-2.701365-.16069-3.972596zm-14.94411-.158904c-.803447.317808-1.606894.158904-2.249651 0-.482068 2.06575-1.285515 3.495885-2.57103 4.1315 0 1.589038.16069 4.767114 2.57103 4.290403 1.767583-.317808 3.695855-3.654788 3.856544-4.449307-.964136-.635615-1.285515-1.906846-1.606893-3.972596zm6.427574-.635615c-.803447-.953423-1.285515-3.019172-2.088962-6.038345-.482068.158904-.803446.158904-1.285515 0-.160689 3.495884-1.124825 5.084922-2.088961 5.879441.321379 2.701365 1.124825 4.290404 2.24965 4.290404 1.606894 0 3.053099-3.178077 3.213788-4.1315zm5.624127-6.038345c-.321378 0-.482068.158904-.803447 0 0 3.495884-.803446 5.084922-1.446204 5.879441.16069 1.589039-.16069 4.290404 1.285515 4.290404.642758 0 1.446204-.953423 2.41034-4.1315-.321378-.794519-.482068-.953423-1.446204-6.038345zm3.695855 6.038345s0 4.1315.321379 3.813692c2.57103-2.701365.964136-10.01094.482068-9.852037-.321379.476712 0 4.60821-.803447 6.038345zm-21.371684-6.038345c-.803446.158904-1.606893.158904-2.088961 0-.321379 2.542461-1.124826 4.290403-2.41034 5.720538.482068 2.54246 1.446204 4.60821 3.213787 4.449306 2.41034 0 3.695855-3.654787 3.856544-4.131499-1.285515-.953423-2.088962-2.701365-2.57103-6.038345zm13.819285-4.1315c-.482068.317808-.964136.317808-1.446205.158905 0 2.06575-.642757 3.178076-1.124825 3.654787.482068 3.019173 1.124826 6.19725 2.73172 6.19725 1.285514 0 2.24965-3.178077 2.24965-6.038346-1.446204-.953423-2.41034-3.654787-2.41034-3.972595zm7.5524 3.654789s-.803447-1.430135-1.446205-3.654788c-.16069.158904-.482068.158904-.642757 0 .16069 1.747942-.321379 2.701365-.642758 3.495884 0 0 .803447 6.197249 1.606894 6.197249.964136 0 1.285515-4.290403 1.124825-6.038345zm-16.229625-3.654788c-.642758.317808-1.606894.317808-2.249651.158904-.16069 1.589038-.803447 3.019172-1.767583 3.654787.482068 3.178077 1.124825 6.19725 3.695855 6.038346 1.767583 0 2.892408-3.972596 3.053098-6.038346-1.124826-.476711-2.249651-2.383557-2.73172-3.813691zm4.017234 3.019172c1.606893 0 1.767582-3.33698 1.767582-3.813691-1.124825-.79452-2.24965-2.701365-3.053097-4.449307-.32138.158904-.642758.158904-1.124826 0 .321379 2.383557-.16069 3.654788-.803447 4.290403.964137 2.701365 2.088962 4.290403 3.213788 3.972595zm5.302748-3.813691c1.124826 3.178076 1.767583 3.972595 2.73172 3.972595.964135-.158904.964135-2.06575.642757-3.813691-.803447-.476712-3.053098-4.449307-3.053098-4.608211h-.642758c.803447 2.54246.482068 3.654788.32138 4.449307zm5.784817-.635616c-.16069 1.430135 1.606893 4.449307 1.767583 4.290404.482068-.158904-.482068-6.19725-3.053098-7.786288-.321379-.158903 1.446204 2.383558 1.285515 3.495884zm-21.210995 4.449307c1.606894-.158903 2.57103-1.906845 2.73172-3.813691-1.285516-.953423-2.249652-3.019173-2.73172-4.449307-.482068.158904-1.285515.158904-1.767583 0-.160689 2.383557-.964136 3.813692-1.767583 4.290403.32138 1.906846.964137 4.290403 3.535166 3.972595zM61.347565 24.64111c-.642757 0 1.124826 1.906845.964136 2.701364.482068.79452 2.73172 4.926019 3.695855 4.926019.642758 0 .642758-2.06575-1.124825-4.608211-.321379-.158904-2.57103-3.019172-3.535166-3.019172zm-36.958551.47671s.321379-.794518-.16069-.953422c-.803446 0-3.053097 3.178076-4.177923 3.654788-.16069.317808-1.606893 4.1315.16069 4.449307 1.446204.158904 3.053097-2.860269 4.177923-4.608211-.482068-.476711-.321379-1.430134 0-2.542461zm7.873778-.158903c0-.158904 0-.953423-.803447-.953423-.964136 0-2.41034 3.178077-3.856544 3.654788-.321379 1.906846 0 4.290403 1.446204 4.449307 2.249651.158904 3.374477-2.542461 4.177923-4.449307-.803446-.476711-.964136-1.589038-.964136-2.701365zm23.621335 2.701365c.964136 1.906846 2.57103 4.767115 4.177923 4.60821 1.606894-.317807.321379-4.131499.16069-4.449306-.964137-.476712-3.213787-3.654788-4.177923-3.654788-.482069 0-.16069.79452-.16069.953423.321379 1.112327.321379 2.06575 0 2.542461zm-8.837914 0c.642757 1.906846 1.767583 4.767115 4.177923 4.449307 1.606893-.158904 2.088961-2.383557 1.446204-4.449307-1.285515-.476711-2.892408-3.813692-3.856544-3.654788-.803447 0-.803447.79452-.803447.953423-.16069 1.112327-.321379 2.224654-.964136 2.701365zm-6.909643-3.654788c-1.767582 0-1.124825 3.019173-3.053097 3.813692.16069 1.430134.642757 4.449307 2.892408 4.449307 2.73172 0 3.053098-3.654788 3.053098-4.449307-1.446204-.635615-1.446204-3.813692-2.892409-3.813692z" fill="#FFF" fill-rule="nonzero"/>
  </g>
</svg>
