<svg width="80" height="80" xmlns="http://www.w3.org/2000/svg">
  <g fill="none" fill-rule="evenodd">
    <circle fill="#FFF" cx="40" cy="40" r="40"/>
    <g fill="#B61010">
      <path d="M62.591458 38.944646c.014202.291436.039054.582718.04106.874154.031028 4.629174.036893 9.258503.099719 13.88706.023154 1.714504-.41539 3.170913-1.745993 4.332182-1.158027 1.010456-2.179598 2.195033-3.413725 3.093422-.651564.474202-1.62698.695094-2.45853.701114-9.901578.073014-19.803463.077027-29.705195.119168-1.337705.005712-2.454826-.37865-3.372047-1.383859-.95257-1.043953-1.966268-2.031872-2.937362-3.059309-.656504-.694476-1.054141-1.504879-1.055222-2.491718-.011731-9.926738-.0301-19.853476-.044148-29.78006-.000463-.308262.036584-.616832.034578-.92494-.008182-1.327516.413537-2.428892 1.456872-3.329751.872148-.752826 1.669893-1.606141 2.416852-2.486007.889128-1.047503 2.01196-1.484503 3.327745-1.476322 4.834786.029946 9.669417.082584 14.503893.129201.093852.000926.187396.03535.516342.101262-1.462584.302087-2.698255.557094-3.933772.812255-2.48755.51341-4.974946 1.028208-7.46296 1.53961-1.658469.340833-3.323268.652182-4.9751 1.022034-1.392812.311812-1.846792.940994-1.740436 2.368074.286188 3.845013.601705 7.687866.888201 11.53288.368463 4.945925.716705 9.89324 1.080846 14.839476.100027 1.358852.198664 2.718785.347315 4.072698.154517 1.406087.625477 1.764517 2.01798 1.867168 3.408477.251302 6.813249.553852 10.220644.822442 2.332416.183846 4.667457.335276 6.999719.519893 3.535053.27986 7.068255.581946 10.603463.860416.819201.064678 1.643496.109598 2.46455.097557.999497-.01451 1.658933-.623933 1.872262-1.602745.655268-3.00698 1.321496-6.01149 1.977382-9.018315.557403-2.555933 1.105544-5.113718 1.662484-7.669497.028865-.132288.102805-.254698.155751-.381738.052329.004168.104658.008181.156832.012195"/>
      <path d="M53.923947 16.00321c5.729933.024081 10.08249 4.72349 9.965175 10.249048-.111142 5.22316-4.499665 10.25445-11.00249 9.71804-4.979732-.410758-9.133007-4.447027-9.112631-10.070295.020376-5.626665 4.638282-10.036645 10.149946-9.896792m-8.217761 21.704575c-1.409175 1.239376-2.928255 2.57739-4.449651 3.912778-2.857557 2.50839-5.699215 5.035457-8.585946 7.509732-.832168.713309-1.788289 1.28445-2.704893 1.89449-.226604.150966-.514644.235248-.786476.287577-.701115.134604-.992396-.20592-.633813-.87539.529772-.989153 1.083933-1.999456 1.810826-2.842892 2.88488-3.347194 5.840148-6.63357 8.771181-9.94094.937134-1.057536 1.883993-2.106738 2.817423-3.16767.238027-.270598.414617-.414.731215-.060202.965228 1.07884 1.961637 2.129738 3.030134 3.282517m-5.93451-12.334066c.274148 1.806503.551537 3.519617.773356 5.239832.027322.211476-.190329.51943-.379886.684597-2.805382 2.4451-5.60567 4.897302-8.454275 7.291772-.835255.702194-1.806503 1.247403-2.741476 1.822248-.200208.123027-.51341.062363-.774437.086289-.007409-.297457-.12565-.654497-.003241-.882336.521127-.970322 1.000423-1.99714 1.69953-2.832087 3.115805-3.721215 6.301228-7.38439 9.465503-11.065007.111604-.129664.265658-.222745.414926-.345309M54.39111 40.136956c-.55586.49751-1.016168.92494-1.492376 1.333383-3.294866 2.825913-6.565034 5.681772-9.908678 8.448718-.914135.756376-2.043759 1.2579-3.096973 1.83506-.176591.096786-.577007.069463-.67935-.057422-.11855-.147108-.110214-.517732-.003704-.703893.46988-.821825.908423-1.685329 1.514913-2.401107 2.474583-2.919766 5.014617-5.78396 7.50896-8.687208.380503-.442866.738623-.57037 1.327825-.46849 1.414114.244973 2.846443.38467 4.270745.570832.14294.018678.282174.064678.558637.130127"/>
    </g>
  </g>
</svg>
