<svg width="80" height="80" viewBox="0 0 80 80" xmlns="http://www.w3.org/2000/svg">
  <title>
    star-starbase
  </title>
  <defs>
    <linearGradient x1="83.377559%" y1="17.877875%" x2="13.603516%" y2="82.128906%" id="a">
      <stop stop-color="#B3565F" offset="0%"/>
      <stop stop-color="#4B4272" offset="100%"/>
    </linearGradient>
  </defs>
  <g fill="none" fill-rule="evenodd">
    <circle fill="url(#a)" cx="40" cy="40" r="40"/>
    <g fill="#FFF">
      <path d="M39.848123 13.123176c-1.496923-.053401-3.10723.090998-4.693692.386701-3.720308.6933-7.184154 2.062097-10.317077 4.188338-3.64077 2.471048-6.542462 5.630332-8.64923 9.50179-2.156616 3.96353-3.251693 8.196215-3.25077 12.707417.000308 1.370793.643846 2.281381 1.942615 2.715192 1.863077.622557 3.603385.350946 5.146462-.860716 1.227077-.96353 2.413077-1.980768 3.592308-3.00307 2.108-1.82762 4.168461-3.707416 6.112307-5.710895.14123-.145473.29523-.287416.46677-.392685.240615-.147621.597076-.074271.770615.12399.16123.184143.163846.465729-.009231.70757-.073538.102967-.174.187059-.263077.278824-.76677.7889-1.558461 1.55555-2.295692 2.370997-1.801231 1.992583-3.584616 4.001125-5.359539 6.017187-.631384.717238-.978923 1.595908-.930153 2.536266.137538 2.650435 2.447384 4.01647 4.602769 3.988542 1.134461-.014731 2.139538-.445934 3.011692-1.190332.934154-.797494 1.905385-1.552174 2.835385-2.354732 2.518153-2.17289 5.055538-4.325064 7.522307-6.554885 1.84077-1.663887 3.583385-3.435499 5.37-5.158926.12877-.124296.246616-.265473.392462-.365217.364308-.2489.950615-.185064 1.197538.11202.284923.34312.273846.822507-.035384 1.189566-.098616.11693-.216616.217596-.322923.328388-1.859231 1.938875-3.739385 3.858415-5.572154 5.821688-3.056616 3.27422-5.948616 6.691918-8.776 10.163939-1.315539 1.615396-1.431077 3.674885-.312 5.419488 1.016615 1.5844 2.874923 2.273709 4.530308 1.604041.556461-.225115 1.076307-.594322 1.540769-.983478 2.748153-2.301483 5.435077-4.671713 7.937692-7.241892.141846-.145627.296308-.283735.46277-.399745.21323-.148695.438615-.122762.640922.035601.209231.163888.281693.444553.144923.687622-.098154.174322-.237384.332378-.382.473248-3.082461 3.006292-5.892615 6.25826-8.63923 9.56532-1.32077 1.590383-1.667077 3.423069-1.124 5.402608.340769 1.242507.985077 1.706701 2.278769 1.759182 1.619077.065678 3.230154-.083018 4.82123-.335908 4.006924-.636829 7.700308-2.102916 11.027693-4.424348 3.38677-2.36271 6.135538-5.321586 8.184154-8.91775 2.168307-3.805933 3.296769-7.90266 3.487846-12.263324.069384-1.585473-.05277-3.162046-.259692-4.736931-.352924-2.684348-1.129847-5.239795-2.280308-7.682148-1.634308-3.470026-3.903692-6.462046-6.813385-8.97867-1.932-1.670793-4.050615-3.050333-6.368307-4.103632-3.564462-1.619847-7.307847-2.485166-11.366462-2.42624M10.000585 40.078674c-.105847-16.452276 13.346-29.533964 29.152-29.916215 17.036461-.41202 30.670307 13.34532 30.756307 29.640614.08677 16.49954-13.120154 29.77151-29.289384 30.11555-17.065693.36307-30.704-13.421125-30.618923-29.839949"/>
      <path d="M55.014446 31.27735c-.204923-.000153-.410154-.007365-.61477.000921-1.00246.041432-1.837845.401893-2.41846 1.256931-.244155.359386-.50554.70711-.755847 1.062353-.151077.214527-.307692.431816-.612923.369514-.289384-.05908-.39077-.293401-.467538-.551355-.116616-.391612-.259539-.775397-.377539-1.166548-.322923-1.069718-1.041077-1.729105-2.101384-2.042762-.392462-.11601-.790308-.219284-1.171847-.364757-.552307-.210537-.618461-.582506-.170461-.968133.289846-.249207.607384-.469872.928154-.679181 1.177692-.768798 1.613384-1.858773 1.44523-3.226497-.031076-.25243-.044-.512071-.022153-.764654.04923-.571919.421846-.758057.900615-.445474.342308.223274.662154.481228.987692.729361.923077.703427 1.922924.903223 3.028616.48491.382769-.144859.77123-.279744 1.165538-.388235.551693-.151765.838.143172.67877.697443-.155231.53954-.346462 1.068798-.504616 1.60757-.238923.814527-.074308 1.567673.399538 2.257289.289231.421074.608154.8222.894154 1.245269.373693.552583.218154.856112-.442307.884347-.255693.011049-.512154.001842-.768462.001688m-17.398138-.01625c-1.256616-.12798-2.161539.390383-2.827693 1.384143-.113846.169565-.221077.345422-.351384.501637-.308.36982-.630462.33069-.820923-.098363-.072154-.1622-.123231-.335601-.167385-.508236-.320923-1.255243-1.107846-2.037084-2.372-2.341841-.148615-.035908-.29723-.08087-.43723-.141483-.462-.200103-.543232-.614425-.179385-.967827.144769-.140409.324769-.248133.498615-.354936 1.059692-.651253 1.50723-1.62092 1.497385-2.833964-.002-.254885-.01-.512225.020153-.764348.031847-.267314.263385-.39913.502308-.275294.247539.128287.483692.29018.697692.469566.912308.765268 1.914924.901687 3.012462.470639.19-.074732.383538-.147315.582-.192737.452615-.103734.649538.041586.617692.490435-.019538.274834-.07923.561637-.189846.812686-.477846 1.084296-.249538 2.037084.480308 2.91867.146154.17647.29.362608.392461.565473.251385.497954.030462.847212-.528769.865013-.153384.00491-.306923.000767-.426461.000767m17.363431 15.81026c-.016924.31734-.141385.45284-.388616.45775-.30723.006138-.61477.008133-.922154.007212-1.020923-.002915-1.834.39468-2.418461 1.238977-.160154.231253-.309539.472481-.491847.685013-.305538.356777-.625538.297084-.813076-.145473-.089385-.21069-.156923-.432276-.217385-.653555-.286-1.046854-.94723-1.727263-1.986-2.045064-.220308-.067366-.444461-.124604-.659692-.205473-.572308-.21468-.616462-.545064-.126308-.940819.178923-.144245.368923-.275754.558923-.405575.877385-.598772 1.26477-1.442302 1.258-2.485934-.001846-.280971-.017384-.564092.010308-.842608.039077-.393146.311077-.532788.644615-.332225.240154.144399.462154.320716.68277.494885.863692.681636 1.818769.745933 2.832923.428593.219846-.0689.435846-.152685.658769-.20977.516-.132276.742154.08624.606.586803-.073693.270844-.157539.540614-.261539.801177-.367077.919795-.156154 1.752736.368923 2.539335.141693.212378.312.405882.452308.619181.095538.145013.161538.309207.211539.40757"/>
    </g>
  </g>
</svg>
