<svg width="80" height="80" viewBox="0 0 80 80" xmlns="http://www.w3.org/2000/svg" xmlns:xlink="http://www.w3.org/1999/xlink">
  <title>
    stk-stk
  </title>
  <defs>
    <path d="M23.668626 2.55824L12.53763 8.939346c-4.184739 2.399132-7.17815 6.272398-8.428862 10.906614L.782607 32.174002c-1.250711 4.634546-.6091 9.474976 1.80673 13.630222l6.42673 11.052875c2.415829 4.154916 6.316919 7.127231 10.984028 8.369127l12.415545 3.303049c1.558578.414404 3.140047.61996 4.711564.61996 3.134407 0 6.22801-.816621 9.015403-2.414286l11.131327-6.381765c4.184739-2.398473 7.17782-6.27174 8.42853-10.906614l3.326825-12.328042c1.25038-4.633887.608436-9.474976-1.807725-13.629563l-6.426066-11.053204c-2.416493-4.154917-6.31692-7.127561-10.984692-8.368798L37.395592.763585C35.837014.34852 34.255213.143955 32.68436.143955c-3.13474 0-6.228341.81629-9.015734 2.414285m8.851848 65.581666L20.10526 64.836528c-4.562607-1.213566-8.375782-4.11934-10.737868-8.181032L2.940995 45.602292C.579242 41.540929-.048436 36.808548 1.174408 32.278098l3.326824-12.327713c1.22218-4.53045 4.148247-8.31675 8.2391-10.661859L23.87199 2.90742C26.59635 1.344674 29.620284.54716 32.684692.54716c1.536019 0 3.082654.200285 4.605735.605795l12.415545 3.303048c4.562274 1.214225 8.375782 4.119999 10.737535 8.18169l6.42673 11.052217c2.362085 4.06235 2.9891 8.794403 1.76692 13.324853L65.31 49.342145c-1.222512 4.53045-4.148578 8.31708-8.2391 10.662188L45.939574 66.38577c-2.725023 1.561758-5.748957 2.360261-8.813365 2.359932-1.535687 0-3.08199-.200614-4.605734-.605795" id="a"/>
    <path d="M23.656682 2.466004L12.463318 8.882686c-4.18474 2.398803-7.17782 6.2724-8.428531 10.906944L.689716 32.18619c-1.250711 4.634546-.6091 9.474976 1.807061 13.629893l6.462228 11.114805c2.41616 4.154916 6.31725 7.126902 10.984028 8.369127l12.48455 3.321496c1.558578.414734 3.14071.61996 4.711564.61996 3.134408 0 6.228341-.816292 9.015403-2.414286l11.193365-6.417341c4.184739-2.398803 7.17782-6.27174 8.428862-10.906615l3.345071-12.39656c1.25038-4.634216.608768-9.474975-1.807393-13.630221L60.852559 12.3623c-2.416493-4.155246-6.31692-7.127231-10.985023-8.369127L37.383317.671349c-1.558578-.414734-3.139715-.61996-4.711232-.61996-3.134739 0-6.22834.81662-9.015403 2.414615M32.53275 68.23247l-12.48422-3.322153c-4.562939-1.213896-8.376114-4.119669-10.737867-8.181032L2.848104 45.61481C.48602 41.552459-.141327 36.821066 1.081517 32.290616l3.345734-12.39689c1.221849-4.53045 4.148578-8.316751 8.2391-10.66186l11.193365-6.416682C27.950237.469746 32.715545-.153178 37.278152 1.060718l12.485213 3.321495c4.562275 1.214225 8.37545 4.11934 10.737204 8.18169l6.462559 11.114476c2.361754 4.061363 2.9891 8.793744 1.76692 13.324194l-3.345072 12.396231c-1.222843 4.53045-4.149241 8.31708-8.240094 10.662189l-11.193034 6.417012c-2.724692 1.561758-5.74962 2.359932-8.814028 2.359932-1.53602 0-3.081327-.200285-4.605071-.605466" id="b"/>
    <path d="M16.871327 4.287012l-9.257251 7.713262c-3.701706 3.083987-5.971896 7.414482-6.393223 12.1943L.167536 36.14807c-.420996 4.779817 1.05763 9.435775 4.163838 13.111721l7.767678 9.191678c3.105877 3.675617 7.46711 5.929807 12.280521 6.347835l12.038342 1.045894c.537772.046777 1.074218.069507 1.607677.069507 4.24147 0 8.308768-1.463922 11.596778-4.20367l9.25725-7.712933c3.701375-3.083657 5.971897-7.414482 6.393224-12.19397l1.052985-11.953826c.421327-4.779488-1.057298-9.435775-4.163175-13.111062l-7.767346-9.192008C51.2891 3.872278 46.927535 1.6171 42.114123 1.199072L30.075782.153508c-.538768-.046448-1.07455-.069836-1.609005-.069836-4.240805 0-8.308104 1.46491-11.59545 4.20334m19.582417 61.1563l-12.038341-1.045236c-4.705924-.408804-8.969621-2.612923-12.00583-6.205527L4.642228 49.00054C1.60602 45.407607.16057 40.855416.572275 36.182988L1.62526 24.22982c.412038-4.672429 2.631469-8.906075 6.249573-11.920885l9.257251-7.712603C20.346445 1.918515 24.32218.486217 28.468768.486217c.521185 0 1.046019.02306 1.571516.068519l12.038673 1.046223c4.705261.408475 8.968626 2.612264 12.005166 6.205527l7.767346 9.191678c3.03654 3.592934 4.481327 8.144796 4.069953 12.817224l-1.053318 11.953497c-.411042 4.672428-2.630805 8.905745-6.249241 11.920555l-9.257583 7.713262c-3.213697 2.677818-7.189763 4.109128-11.336351 4.109128-.521517 0-1.045687-.0224-1.571185-.068519" id="c"/>
    <path d="M36.701564.13539c-.533791 0-1.0709.023388-1.608673.069836l-11.200995.973093c-4.813744.418357-9.17564 2.672876-12.281185 6.348164L4.38346 16.078766C1.27725 19.754053-.201043 24.410999.220284 29.190158l.98 11.121723c.420996 4.779817 2.691517 9.110641 6.392891 12.194299l8.612986 7.176644c3.288341 2.739748 7.355308 4.204 11.596777 4.204.53346 0 1.069906-.02339 1.60801-.070166l11.200663-.973093c4.813744-.417699 9.174645-2.672218 12.280853-6.347835l7.227252-8.552612c3.105876-3.675288 4.584502-8.331245 4.163175-13.111063l-.979668-11.122052c-.421327-4.779817-2.691849-9.110312-6.392891-12.1943L48.297014 4.33972C45.009337 1.60063 40.943034.13539 36.702559.13539h-.000995zM16.467251 59.374162l-8.613317-7.176644c-3.618436-3.01481-5.837536-7.248457-6.249242-11.920555L.62436 29.15524c-.411042-4.672428 1.034076-9.22429 4.070285-12.817554l7.226919-8.551953c3.03654-3.593263 7.299905-5.797382 12.005498-6.205857L35.128057.606783c4.70526-.408146 9.289431 1.026788 12.908199 4.041598l8.612986 7.176314c3.618104 3.01448 5.837867 7.248128 6.249573 11.920556l.98 11.121722c.411375 4.672758-1.033744 9.22429-4.070284 12.817554l-7.227251 8.552282c-3.035545 3.592934-7.299574 5.796723-12.005166 6.205198l-11.200664.973423c-.52583.04546-1.05.068189-1.571185.068189-4.146587 0-8.122985-1.43131-11.337014-4.109457z" id="d"/>
  </defs>
  <g fill="none" fill-rule="evenodd">
    <circle fill="#FFF" cx="40" cy="40" r="40"/>
    <path d="M29.615981 28.348502c0-1.230366-.309858-2.153059-1.681327-2.153059-1.3718 0-1.681659.922693-1.681659 2.15306v3.339283c0 1.010647.176825 2.020964.66384 2.856032l4.646208 7.908605c.663507 1.0986 1.061943 2.460404 1.061943 3.866348v5.009091c0 3.074105-1.874076 4.752806-4.946777 4.653322-2.522654-.082024-4.522797-2.147459-4.522797-4.653322V49.94827c0-.367298.165545-.71549.450853-.949045l2.469906-2.021293v4.174022c0 1.494229.574929 2.37278 1.858483 2.37278 1.194645 0 1.769905-.878551 1.769905-2.37278V46.7144c0-1.0986-.22128-1.933339-.840995-3.03161l-4.292227-7.425352c-.796209-1.362133-1.238768-2.416592-1.238768-4.042257v-3.822536c0-3.119564 1.637204-4.657604 4.602085-4.657604 3.274408 0 4.601754 1.53804 4.601754 4.437884v1.029753c0 .42264-.192417.82255-.523176 1.088388l-2.39725 1.924115v-3.866678zm8.015199-1.625665h-3.888815v-1.757101c0-.388381.317156-.703302.708294-.703302h10.885166l-1.50981 2.460403h-3.274408v29.2623H37.63118v-29.2623zm15.705976-2.460502h2.920427l-4.20365 14.499548 4.601754 17.223485h-2.920426l-3.937915-15.905494h-.08891v15.905494H46.78801V24.691234c0-.23685.193413-.4289.431944-.4289h2.488483v13.620669h.08891l3.53981-13.620668z" fill="#000"/>
    <use fill="#D8D8D8" xlink:href="#a" transform="translate(5 5.213791)"/>
    <use fill="#D24374" xlink:href="#b" transform="translate(5 5.213791)"/>
    <use fill="#CC477A" xlink:href="#c" transform="translate(6.658768 6.860868)"/>
    <use fill="#CE4777" xlink:href="#d" transform="translate(7.654028 7.849114)"/>
    <path d="M41.707868 8.509592c-1.570522 0-3.15199.204896-4.710237.61963l-10.048484 2.673865c-4.667109 1.241238-8.567867 4.213553-10.984028 8.36847l-5.201564 8.945933c-2.415498 4.154917-3.057773 8.995676-1.807062 13.629892l2.69218 9.977993c1.251043 4.634215 4.244455 8.507482 8.428531 10.906614l9.009432 5.164575c2.787393 1.598323 5.880663 2.414615 9.015402 2.414615 1.570854-.00033 3.153318-.205555 4.711564-.61996l10.048484-2.673535c4.66744-1.241896 8.568199-4.213882 10.98436-8.369128l5.201232-8.945934c2.416161-4.154917 3.05744-8.995017 1.807393-13.629892l-2.692843-9.977334c-1.250711-4.634545-4.243791-8.50814-8.42853-10.906944l-9.0091-5.164904c-2.78673-1.597665-5.879337-2.413956-9.014076-2.413956h-.002654zM29.289337 68.447384l-9.0091-5.164575c-4.09052-2.345108-7.016587-6.131738-8.238767-10.66186l-2.692844-9.977662c-1.222844-4.53045-.595166-9.262503 1.766588-13.324195l5.201564-8.945934c2.361753-4.061692 6.174929-6.967465 10.737535-8.181031L37.103128 9.51859c1.523413-.40551 3.069384-.605794 4.605403-.605794 3.064408 0 6.088673.797844 8.813365 2.359602l9.008768 5.165234c4.090853 2.345108 7.01692 6.131738 8.239431 10.661859l2.692512 9.977663c1.222512 4.53078.595166 9.262502-1.766588 13.324194l-5.201564 8.945605c-2.361753 4.061692-6.17526 6.967465-10.737867 8.181031L42.708105 70.20185c-1.523413.405181-3.069052.605466-4.605403.605466-3.063744 0-6.088341-.797515-8.813365-2.359932z" fill="#B4528C"/>
  </g>
</svg>
