<svg width="80" height="80" viewBox="0 0 80 80" xmlns="http://www.w3.org/2000/svg">
  <title>
    storj-storj
  </title>
  <g fill="none">
    <circle fill="#FFF" cx="40" cy="40" r="40"/>
    <g fill="#2683FF">
      <path d="M18.37185 50.46232c-.91426 0-1.655415.746435-1.655415 1.66721 0 .920776.741154 1.667212 1.655415 1.667212.91426 0 1.655415-.746436 1.655415-1.667212 0-.295702-.080213-.564578-.2137-.833453-.30107-.51437-.848855-.831043-1.441715-.833453M41.75954 14.18942c0-.920775-.741154-1.66721-1.655414-1.66721s-1.655415.746435-1.655415 1.66721c0 .920776.74116 1.667212 1.65542 1.667212.91213-.005164 1.65029-.748583 1.65542-1.667212m20.18552 14.466237c.91426 0 1.65542-.746436 1.65542-1.66721 0-.920777-.74115-1.667213-1.65541-1.667213-.91426 0-1.65541.746436-1.65541 1.667212.00107.282924.07468.560775.2137.806627.28957.52942.84157.858917 1.44172.860584m-42.80045-3.199985c-.80092-.45727-1.7889-.18809-2.24263.618536-.45373.806627-.18676 1.80165.61416 2.258616.80092.456966 1.7889.18809 2.24264-.618536.45404-.7798.18676-1.80165-.61416-2.258616M62.611 50.784848c-.24034-.161265-.53395-.215223-.82756-.24205-.5967-.008126-1.15156.307824-1.45227.826954-.3007.51913-.3007 1.16108 0 1.68021.30071.51913.85557.83508 1.45227.826954.58722 0 1.11996-.322528 1.44172-.833453.45404-.7798.18676-1.80165-.61416-2.258615m-24.16227 13.90105c-.08021.752973.373825 1.478815 1.067894 1.74769.160123.053653.347185.10761.50731.10761.835044-.001373 1.551745-.59915 1.708687-1.42516.12365-.90121-.49683-1.734442-1.39049-1.867258-.89365-.132817-1.72666.484394-1.86676 1.38316-.01446.01447-.02382.033316-.02663.053652"/>
      <path d="M64.239765 47.719605c-.196724-.114597-.402074-.213467-.61416-.295702V31.855337c.240337-.080784.480673-.215222.72101-.322528 2.482062-1.39834 3.390134-4.57119 2.002298-7.07247-1.387837-2.50128-4.538846-3.4143-7.022422-2.01657-.21369.10761-.40046.24205-.58722.37648l-13.61623-7.93213c.02664-.24205.05328-.45727.05328-.69902C45.17601 11.31227 42.85437 9 40.02422 9s-5.20628 2.366227-5.20628 5.216247c0 .24205.026636.45727.053273.699015l-13.50938 7.87848c-1.46245-1.153895-3.42782-1.427164-5.146-.71551-1.718182.711656-2.924016 2.29841-3.157277 4.154653-.23326 1.856243.54205 3.695514 2.030023 4.815826.18676.13444.37382.26888.58722.40332.21806.13442.45101.24266.69407.32253v15.54173c-2.6434 1.07551-3.9253 4.08801-2.8574 6.74902 1.06789 2.66102 4.05817 3.95266 6.70157 2.87716.24033-.08078.45403-.21522.66743-.32253.2137-.13443.4271-.26887.64079-.43014l13.3759 7.77087c-.45404 2.8232 1.46835 5.48513 4.27187 5.9424 2.80352.45727 5.44661-1.47881 5.90035-4.30231.05327-.2957.05327-.56458.05327-.86058-.0035-.25181-.02129-.50321-.05328-.75297l13.29598-7.71691c.2137.16127.4271.32253.66743.45727 2.48206 1.39834 5.63337.51093 7.02242-1.98974 1.33395-2.50097.53304-5.56621-1.81645-7.0182zm.934405 6.506972c-1.09453 1.88213-3.524226 2.52749-5.393038 1.425162-1.494988-.88742-2.242634-2.63511-1.842175-4.32884l-6.247533-3.68378c-1.971394 2.01337-4.950092 2.6383-7.555763 1.58521-.9344.2957-2.93609.48409-2.93609.48409v11.07816c2.18936.67219 3.39014 3.01159 2.72422 5.21625-.66592 2.20465-2.99028 3.41429-5.17964 2.74362-.02664 0-.05327-.02683-.08021-.02683-.18676-.05366-.34718-.13444-.50731-.21523-2.05587-1.02185-2.85679-3.54934-1.84217-5.59273.50731-1.02185 1.41508-1.77452 2.48207-2.12418V49.49412c-.78413-.244093-1.55123-.540554-2.29621-.88741-2.41501.48603-4.91955-.13474-6.83475-1.69404l-7.44891 4.328837c.50827 2.14507-.80611 4.29902-2.93592 4.81125-2.12981.512232-4.26873-.811178-4.77767-2.956088s.80477-4.29928 2.93442-4.81219c1.28159-.32253 2.6431.05365 3.63229.96789L28.038 45.1921c-2.34948-3.33412-1.97566-7.90531.908075-10.80929l-7.930494-4.57119c-1.57399 1.50564-4.05817 1.42516-5.55316-.18809-.71845-.76858-1.10275-1.79407-1.06769-2.84907.03506-1.055.48659-2.05232 1.25445-2.7708 1.60184-1.50564 4.05818-1.42516 5.55316.18809.90808.96789 1.25496 2.31227.96105 3.60299l8.78378 5.08181c1.15081-.623467 2.43154-.964394 3.73793-.995025 1.22862-1.02124 4.37661-2.069917 4.37661-2.069917v-12.0997c-1.94903-.5914-3.04356-2.66193-2.45634-4.62484.58722-1.96291 2.64461-3.038414 4.59364-2.44701 1.94903.591404 3.04356 2.66193 2.45634 4.624843-.35265 1.18874-1.27601 2.11868-2.45633 2.47384v11.85857s5.76686 1.45199 7.5824 3.62982l9.34436-5.35068c-.48067-2.151.82756-4.30231 2.963648-4.78611 2.13609-.48379 4.27187.83346 4.75224 2.98477.48037 2.15131-.827556 4.30231-2.963643 4.78611-1.29102.29291-2.64214-.08008-3.60444-.99502l-9.23751 5.2696c.26697.56458.50731 1.12794.66743 1.72087 2.8568 1.96291 3.87141 5.72717 2.34949 8.8732l6.11435 3.57617c1.265217-1.18767 3.15547-1.39557 4.645395-.51092 1.842173 1.10233 2.48206 3.52251 1.362106 5.43147h-.00061z"/>
      <path d="M47.9538 38.954018c-.026636-.215222-.053273-.403313-.080213-.618536-.02613-.145602-.061825-.289298-.10685-.43014 0-.053653-.026636-.10761-.026636-.161264-.05327-.161264-.10685-.34966-.16012-.510925v-.026826c-.33948-.90204-.85725-1.725288-1.52193-2.41988-.16012-.161265-.29361-.295702-.48067-.457272l-.02664-.026826c-.16012-.13444-.32024-.26888-.50731-.37649l-.02663-.02683c-.16012-.10761-.34718-.24205-.50731-.32253l-.02663-.02683c-.17248-.1003-.35078-.19009-.53394-.26888l-.05327-.02683c-.18676-.08079-.37382-.16127-.58722-.24205l-.02663-.02683c-.2137-.05366-.40046-.13444-.61416-.16127H42.641c-.211238-.04892-.42523-.08486-.6408-.10761h-.02664c-1.13711-.16271-2.296697-.02369-3.364105.40331l-.133486.10761c-.16013.05365-.4271.18809-.58722.26888-.08333.05541-.17296.10055-.26698.13444-.08022.02682-.2137.13443-.29361.18809-.07991.05365-.26698.18809-.37383.26887l-.08021.05365c-.16013.10761-.29361.24205-.45404.37648l-.13349.13444c-.16013.16126-.29361.2957-.4271.45727-.31759-.05358-.63903-.0806-.96105-.08079-.10685 0-.18676 0-.26698.02683-1.22802.05365-2.40276.56457-3.31053 1.39833-.45404.40331-.82756.91454-1.11996 1.45199l-.02846.05487c-.0823.15618-.153703.31794-.2137.4841-.026636.05365-.026636.08078-.05327.13444-.05657.13929-.10123.28319-.133486.43014-.02664.05365-.02664.13443-.053276.18809-.02664.13444-.053278.26887-.080217.43014 0 .05365-.02664.10761-.02664.18809-.0222.20538-.031095.41199-.02664.61853-.004445.170745.00446.34158.02664.51092 0 .05365.02664.10761.02664.18809.02663.10761.02663.21522.05327.32253.02664.107306.02664.13444.053275.21522.030376.07733.04836.159035.053273.24205 0 .080785.053278.161265.08021.24205.02183.06471.04865.127595.08022.18809.04022.0877.07588.17745.10685.268876.02664.053656.053278.08079.053278.13444.3752.88564 1.0085 1.63571 1.81614 2.151006.40046.24205.80092.457274 1.228016.591407.16559.05733.33515.102267.50731.13444l.05328.02683.48067.080787.10685.026827c.18676.026826.37382.026826.58722.026826.72101 0 1.41508-.13443 2.05587-.43014.16012.10761.29361.21523.454033.32253l.05327.02683c.133483.08079.29361.16127.454033.24205h.02603c1.525993.78322 3.28709.96539 4.93931.510925h.02663c.24019-.052225.47324-.1335.69407-.24205l.721003-.322527c.6865.53939 1.53206.8327 2.40276.83345.18676 0 .347187-.02683.533947-.02683l.13348-.02683c.17108-.02565.340484-.06158.50731-.10761.16452-.05093.325163-.11379.48067-.18809l.08021-.02682c.16012-.080782.29361-.161262.454034-.24205.66743-.43014 1.17474-1.0755 1.46835-1.80165.10685-.24205.16012-.4841.2137-.72584v-.08078c.026636-.10761.026636-.21522.05327-.322525 0-.134436.02664-.268874.02664-.40331 0-1.774518-1.09453-3.30729-2.724212-3.818216"/>
    </g>
  </g>
</svg>
