<svg width="80" height="80" xmlns="http://www.w3.org/2000/svg">
  <defs>
    <radialGradient fx="50%" fy="50%" r="43.251953%" id="a">
      <stop stop-color="#000F30" offset="0%"/>
      <stop stop-color="#002372" offset="100%"/>
    </radialGradient>
    <linearGradient x1="50%" y1="0%" x2="50%" y2="100%" id="b">
      <stop stop-color="#FDCF7A" offset="0%"/>
      <stop stop-color="#FD9C00" offset="100%"/>
    </linearGradient>
  </defs>
  <g fill="none" fill-rule="evenodd">
    <circle fill="url(#a)" cx="40" cy="40" r="40"/>
    <path d="M-.00005 57.632641c7.165684-7.048526 14.331619-14.097052 21.632922-21.278623-.544238-.38107-.930716-.675394-1.339335-.93385-5.256949-3.32508-10.520439-6.639728-15.773865-9.97015-1.237935-.78478-1.24951-1.18442-.055606-2.001763C15.70613 15.753843 26.954233 8.067825 38.202086.3813c.135115-.092342.287593-.158737.69747-.381579-6.769645 6.813983-13.330955 13.418351-20.032161 20.163395.693193.479518 1.086213.771298 1.4976 1.033061 5.21342 3.314904 10.43162 6.622176 15.643277 9.939877 1.299078.82701 1.306878 1.217492.044033 2.084948C24.23455 41.337948 12.413523 49.450317.59275 57.562939c-.137381.094123-.284323.174-.426736.260746-.055355-.063596-.11071-.127447-.166064-.191044" transform="translate(20 11)" fill="url(#b)"/>
  </g>
</svg>
