<svg width="80" height="80" xmlns="http://www.w3.org/2000/svg"><g fill="none" fill-rule="evenodd"><circle fill="#2EB6F7" cx="40" cy="40" r="40"/><path d="M10 33.055v1.888h1.826l3.347 6.974c.203.315.71 1.416 1.37 1.311h6.796c.66 0 1.268-.315 1.522-.891l3.398-6.03c.101-.158.203-.316.203-.525 0-.42-.305-.84-.761-.84H13.905l-.76-1.887H10zm9.23 12.952c0 1.259-.608 1.836-1.825 1.836-1.268 0-1.877-.577-1.877-1.836 0-1.258.66-1.783 1.928-1.783 1.268 0 1.825.63 1.825 1.836l-.05-.053zm5.58 0c0 1.259-.609 1.836-1.826 1.836-1.268 0-1.877-.577-1.877-1.836 0-1.258.66-1.783 1.928-1.783 1.268 0 1.876.63 1.876 1.836l-.101-.053zm8.42-3.828a2.789 2.789 0 0 1 1.673.682c.427.424.95.73 1.521.891.203 0 .355 0 .508-.157a.538.538 0 0 0 .101-.472.684.684 0 0 0-.355-.577c-.696-.3-1.407-.562-2.13-.786-2.029-.734-3.145-2.098-3.145-4.09a4.246 4.246 0 0 1 1.674-3.514 5.701 5.701 0 0 1 3.6-1.154 5.884 5.884 0 0 1 3.247.892 2.631 2.631 0 0 1 1.37 2.255c.014.506-.169.998-.508 1.363-.353.39-.853.6-1.37.577a3.237 3.237 0 0 1-1.927-.787 2.005 2.005 0 0 0-1.014-.524.495.495 0 0 0-.406.105.535.535 0 0 0-.152.472c0 .315.507.63 1.42.891a9.057 9.057 0 0 1 3.043 1.521c1.015.787 1.522 2.045 1.471 3.304 0 1.363-.507 2.727-1.623 3.618a5.996 5.996 0 0 1-3.905 1.206 5.95 5.95 0 0 1-3.956-1.258 2.961 2.961 0 0 1-1.268-2.36 2.025 2.025 0 0 1 .609-1.468 2.143 2.143 0 0 1 1.521-.63zm12.628-4.457H44.59a2.626 2.626 0 0 1-1.724-.524 1.967 1.967 0 0 1-.71-1.574c-.02-.424.087-.845.304-1.206.216-.355.536-.63.913-.786.83-.2 1.685-.27 2.536-.21h4.767c.761-.052 1.522 0 2.283.21.355.157.71.42.913.786.202.315.355.734.355 1.154a2.235 2.235 0 0 1-.761 1.73 2.673 2.673 0 0 1-1.826.525h-1.065v7.027a3.34 3.34 0 0 1-.406 1.783c-.406.681-1.166 1.048-1.978 1.048-.76 0-1.522-.314-1.927-.944a3.125 3.125 0 0 1-.406-1.835v-7.184zm23.026 5.82c.66.473 1.015 1.207 1.116 2.046 0 .682-.304 1.363-.862 1.835a2.186 2.186 0 0 1-1.471.525 3.099 3.099 0 0 1-2.029-.944 7.91 7.91 0 0 1-3.6.996c-4.21 0-7.609-3.356-7.609-7.499a7.243 7.243 0 0 1 1.268-4.038c.761-1.258 1.877-2.202 3.246-2.779a7.786 7.786 0 0 1 3.043-.63 7.454 7.454 0 0 1 5.072 1.836c1.623 1.364 2.587 3.409 2.536 5.559a7.708 7.708 0 0 1-.71 3.094z" fill="#FFF" fill-rule="nonzero"/></g></svg>