<svg width="80" height="80" viewBox="0 0 80 80" xmlns="http://www.w3.org/2000/svg"><title>Group 15</title><g fill-rule="nonzero" fill="none"><circle cx="40" cy="40" r="40" fill="#1382C6"/><path d="M14.075 31.81l26.252 16.542c.017.012.04.012.057 0l26.78-16.917c.013-.007.022-.02.024-.033.003-.014 0-.028-.008-.04-.003-.006-.01-.01-.015-.015L40.63 14.437c-.017-.013-.04-.013-.057 0L14.075 31.718c-.012.008-.02.02-.022.036 0 .015.003.03.013.042.002.004.005.008.01.012zm26.252 35.937c-.35 0-.69-.1-.983-.29L11.23 49.352c-.018-.02-.018-.052 0-.072l1.197-1.863c.02-.018.052-.018.073 0l27.814 17.915c.018.012.04.012.058 0l26.36-16.938c.605-.386.97-1.053.968-1.77v-4.17c-.003-.03-.028-.052-.057-.05-.01 0-.017 0-.025.005L40.994 59.364c-.595.378-1.354.378-1.95 0L12.14 42.248c-1.332-.834-2.14-2.295-2.14-3.866v-5.835c0-.47.182-.925.51-1.263l.09-.073.517-.353 28.54-18.6.03-.018c.585-.334 1.306-.317 1.874.045L69.153 29.86c.527.334.846.914.846 1.538 0 .623-.32 1.203-.846 1.537l-27.826 17.57c-.592.368-1.343.368-1.935 0L12.398 33.51c-.025-.015-.057-.007-.072.018-.005.008-.007.018-.006.027v4.824c-.004.773.39 1.495 1.044 1.91l26.63 16.926c.018.012.04.012.058 0l27.16-17.328c.688-.44 1.585-.367 2.19.18.388.368.6.884.585 1.418v5.118c.004 1.51-.762 2.916-2.032 3.73l-26.66 17.13c-.29.18-.625.28-.967.28v.003z" fill="#FFF"/></g></svg>