<svg width="80" height="80" viewBox="0 0 80 80" xmlns="http://www.w3.org/2000/svg">
  <title>
    stx-stox
  </title>
  <g fill="none" fill-rule="evenodd">
    <circle fill="#6D2FD2" cx="40" cy="40" r="40"/>
    <g fill-rule="nonzero" fill="#FFF">
      <path d="M71.976 33.302V32c-4.315.007-7.892 3.438-8.2 7.862-.306-4.424-3.883-7.854-8.197-7.862v1.302c2.495-.014 4.807 1.348 6.06 3.568 1.25 2.22 1.25 4.96 0 7.18-1.253 2.22-3.565 3.58-6.06 3.568v1.3c4.313-.006 7.89-3.437 8.198-7.86.307 4.423 3.884 7.854 8.2 7.86v-1.3c-3.832-.02-6.927-3.22-6.927-7.158 0-3.94 3.096-7.138 6.927-7.158zM27.984 48.91v-.958l-.03-7.492H26.72v8.45M44.45 32c-3.33 0-6.33 2.06-7.603 5.222-1.274 3.16-.57 6.8 1.783 9.22 2.354 2.42 5.893 3.143 8.968 1.833 3.075-1.31 5.08-4.394 5.08-7.816-.006-4.67-3.687-8.455-8.23-8.46zm0 15.618c-3.846 0-6.963-3.205-6.963-7.16 0-3.952 3.117-7.157 6.962-7.157 3.83.022 6.925 3.22 6.925 7.16 0 3.938-3.095 7.137-6.926 7.157zM22.19 32c-4.54.005-8.222 3.79-8.227 8.46-.005 3.95-3.12 7.153-6.963 7.158v1.3c4.543-.003 8.224-3.788 8.23-8.46.004-3.95 3.118-7.152 6.96-7.156H32.76V32H22.19z"/>
    </g>
  </g>
</svg>
