<svg width="80" height="80" viewBox="0 0 80 80" xmlns="http://www.w3.org/2000/svg" xmlns:xlink="http://www.w3.org/1999/xlink">
  <title>
    Page 1
  </title>
  <defs>
    <path id="a" d="M.000032 0H80v80H.000032z"/>
  </defs>
  <g fill="none" fill-rule="evenodd">
    <mask id="b" fill="#fff">
      <use xlink:href="#a"/>
    </mask>
    <path d="M80.000032 39.999936c0 22.09152-17.90848 40.00032-40 40.00032s-40-17.9088-40-40.00032c0-22.0912 17.90848-40 40-40s40 17.9088 40 40" fill="#F13E2C" mask="url(#b)"/>
    <path d="M56.639072 53.346016c.00512.52864.36672.84096.77632.56768.93056-.62016 1.83168-1.29536 2.68032-2.02336.59744-.51264.59168-.86624-.04736-1.40544-1.0912-.92096-2.24544-1.76832-3.38496-2.63104-1.05248-.79712-2.11968-1.5744-3.18144-2.35936-1.10208-.81504-2.2032-1.63104-3.30816-2.44224-.89856-.65984-1.88896-1.22368-2.68224-1.99136-1.0832-1.04832-2.41184-1.75168-3.53792-2.75136-.95744-.85024-2.04384-1.64384-3.17504-2.3152-1.17888-.69952-2.22016-1.60576-3.29568-2.42816-1.82272-1.3936-3.71456-2.70496-5.48288-4.16096-1.85728-1.52928-3.9072-2.78912-5.7344-4.36096-1.37408-1.18176-2.94368-2.13664-4.42592-3.19232-.53728-.3824-.57248-.78912-.0016-1.0976.81376-.43968 1.5392-.96736 2.22944-1.58304.59808-.53344 1.32512-.91968 1.97056-1.40416 1.0208-.76704 2.04736-1.53024 3.02144-2.35424.81984-.69312 1.17504-.73152 1.98848-.03744.5472.46688 1.10656.92064 1.67936 1.3552.30528.23136.80096.07168 1.0896-.29504.30336-.3856-.0304-.57824-.25152-.76832-.5456-.46816-1.1088-.91648-1.67488-1.36032-.39936-.31328-.78464-.66624-1.232-.88928-.40576-.20192-.8592-.2608-1.29728.096-.8688.70752-1.77504 1.36928-2.66976 2.04416-1.57952 1.19104-3.112 2.4416-4.77408 3.52608-.81792.53376-1.52704 1.24256-2.2464 1.91424-.31712.29568-.19808.62368.21824.93472 1.0192.7616 2.03936 1.52256 3.04704 2.29952 1.45728 1.1232 2.85024 2.33888 4.36832 3.37216 2.01504 1.3712 3.90368 2.90592 5.87744 4.32896 1.49152 1.07552 2.85952 2.32576 4.37568 3.36256 1.63616 1.11904 3.18816 2.34336 4.76992 3.53056 1.42848 1.07168 2.78176 2.25216 4.26112 3.24608 1.9808 1.33056 3.8176 2.84864 5.7616 4.22496 1.61376 1.14272 3.10304 2.4544 4.7856 3.50976.6048.37952 1.12576.89312 1.6848 1.3456-.52032.4528-1.04096.90496-1.56064 1.35808-.04032.03488-.07936.11072-.11296.10752-.60608-.05856-.50368.37056-.50816.72736m-31.522016-2.934528c-1.33216 0-2.664-.0096-3.99584.00672-.34848.00416-.67776-.04192-1.04192.19296-.62048.40032-.79744.84576-.24416 1.2176.93344.6272 1.7792 1.37152 2.68832 2.01408 1.61568 1.14208 3.17568 2.35424 4.75872 3.53664 1.1088.8288 2.1536 1.77792 3.2816 2.53632 1.3808.92864 2.6688 1.98048 4.04672 2.9104 1.56352 1.05536 2.98784 2.31584 4.48288 3.47424.68384.52992 1.06496.50816 1.8608-.04512.37312-.25952.74368-.52288 1.11072-.79072 1.07552-.78656 2.06624-1.72128 3.15776-2.4384 2.71104-1.78144 5.12032-3.96448 7.85792-5.6976.50304-.3184.3424-.83488.3408-1.28928-.00032-.06304-.25184-.19424-.3648-.17376-.23776.04352-.49312.12288-.68448.26464-2.1232 1.5712-4.24 3.15104-6.34848 4.74144-.97856.73824-1.92544 1.51776-2.9056 2.2528-.68512.5136-1.42848.95104-2.09888 1.48192-.79648.63136-1.10272.71136-1.86528.1488-.98592-.72768-1.93792-1.50048-2.90464-2.25376-1.45024-1.12992-2.8528-2.32864-4.3616-3.37344-2.08768-1.44608-4.07872-3.01536-6.10912-4.53536-1.01504-.75968-2.03936-1.5072-3.05792-2.26208-.09088-.06752-.17088-.14944-.256-.22464.09344-.03136.18688-.09024.28064-.09056 2.1312-.00512 4.26304.02592 6.39296-.02048.7344-.016 1.29664.11168 1.81056.69152.4336.48896.99904.87968 1.55552 1.23712 2.05152 1.3168 3.91552 2.8864 5.87744 4.3232 1.44 1.05472 2.816 2.19584 4.2496 3.25984.53024.3936.67904-.27616.9888-.48096.43136-.28512.00352-.44288-.13664-.55232-.80032-.62272-1.63904-1.1968-2.43744-1.8224-1.17088-.91776-2.2688-1.9376-3.48896-2.78272-1.91424-1.3264-3.8144-2.66784-5.64864-4.10368-1.05344-.82528-2.11936-1.5472-3.59744-1.37664-1.05152.1216-2.12832.02368-3.19392.02368" fill="#FFF"/>
    <path d="M23.1008 26.091488c-.21376 0-.28-.0208-.31872.00288-1.12256.696-2.27552 1.3632-3.17568 2.344-.23296.25408-.18528.69248.18144.96384 1.38752 1.0272 2.77056 2.06048 4.15744 3.08896 1.91616 1.4208 3.8448 2.82528 5.74848 4.26272 1.4672 1.10816 2.84544 2.34464 4.36928 3.36544 2.06976 1.38624 3.99424 2.95744 5.9872 4.43936 1.43264 1.0656 2.84288 2.16992 4.27424 3.23008 1.99552 1.4784 3.9808 2.97312 5.97664 4.45184.98496.72992 1.88704 1.58144 2.91552 2.23872 1.58336 1.01152 2.968 2.28576 4.54496 3.2992.38208.24544.74272.5248 1.11296.78848-.37472.37472-.69152.85152-1.13536 1.10464-1.15136.65568-2.11904 1.552-3.19808 2.29952-1.33696.92608-2.61824 1.93376-3.90208 2.93376-.39712.30912-.71296.29888-1.10144.01312-.69056-.50688-1.43168-.94848-2.09696-1.48512-.56064-.45184-.53888.23232-.7936.352-.41568.19552-.09312.39712.07872.54784.77952.6848 1.54208 1.39232 2.36032 2.02784.69984.54336.96064.49664 1.74304-.05952 1.112-.79072 2.24448-1.55424 3.32928-2.38016 1.95072-1.4848 3.83968-3.05472 5.83712-4.47232.3584-.25472.4512-.39328.49632-.76032.056-.45536-.19936-.78112-.50656-.89344-.7968-.29216-1.30752-.95264-1.96768-1.41024-1.50912-1.04608-2.86368-2.31712-4.38368-3.34432-2.0192-1.36416-3.90112-2.90528-5.87392-4.32704-1.49088-1.07456-2.85952-2.32192-4.37152-3.36288-2.0928-1.44096-4.09024-3.00352-6.1088-4.54016-.97408-.74144-1.9024-1.54976-2.91872-2.22656-2.02912-1.35168-3.9008-2.91104-5.87808-4.32992-1.1104-.79648-2.23072-1.58048-3.31776-2.408-1.14144-.86912-2.24736-1.78432-3.37024-2.67744-.272-.21664-.43744-.39776-.03936-.68704.58112-.42144 1.1216-.89856 1.68352-1.3472.184-.1472.26432-.2528.0384-.46368-.18336-.17088-.28384-.4304-.37664-.57888m31.837824 3.2c1.70528 0 3.41056.00352 5.11584-.0032.3328-.00128.60288-.5008.41824-.7808-.11424-.17408-.2784-.32096-.43936-.45728-.62912-.53344-1.2208-1.12832-1.90944-1.57088-1.66848-1.072-3.19104-2.33504-4.77184-3.5216-1.4272-1.07168-2.74784-2.31232-4.26592-3.22912-1.62144-.9792-2.95616-2.30368-4.52256-3.33824-1.31168-.86656-2.52832-1.87584-3.79808-2.80704-.60992-.44704-1.06464-.37472-1.64064.09024-.87104.70368-1.77408 1.36736-2.67008 2.03968-.81152.60928-1.67104 1.16064-2.43872 1.81984-1.47008 1.26112-3.12416 2.2656-4.64992 3.44544-.89856.69504-1.7424 1.46048-2.60928 2.19648-.23328.19776-.30656.42048-.05472.65696.21632.2032.384.54016.77472.2304.31392-.2496.67392-.44064.99168-.6864.60864-.47072 1.16672-1.01472 1.80704-1.43488 2.03872-1.33696 3.91232-2.8944 5.87488-4.33216 1.03104-.7552 2-1.59424 3.02336-2.36064.65504-.49024.99488-.44352 1.74592.0832.70176.49184 1.46912.91072 2.096 1.48384 1.32608 1.21248 2.8464 2.16032 4.2496 3.26432 1.04672.82368 2.008 1.78784 3.14336 2.45888 2.50368 1.47936 4.54528 3.56832 6.98816 5.11616.0752.048.1184.1472.17632.22272-.088.04448-.176.128-.264.12832-2.29152.00704-4.58304.01024-6.87424-.00288-.18592-.00128-.39808-.08768-.55232-.19808-1.19424-.85568-2.384-1.71776-3.5616-2.59648-.93984-.70144-1.8512-1.44096-2.79264-2.14048-.68736-.51072-1.41504-.96736-2.10336-1.47648-1.30848-.96768-2.59712-1.96192-3.90368-2.93216-.5008-.37184-1.0208-.3616-1.17248.08288-.12064.35264.03744.69568.48608.97856 1.07168.67616 2.0544 1.49504 3.06144 2.27136 1.456 1.12256 2.85376 2.32864 4.36512 3.36992 1.63072 1.12352 3.20672 2.31616 4.75168 3.54624.37792.3008.7024.38784 1.12928.38592 1.59872-.00672 3.19744-.00256 4.79616-.00256" fill="#FFF"/>
  </g>
</svg>
