<svg width="80" height="80" xmlns="http://www.w3.org/2000/svg">
  <g fill="none">
    <path d="M79.764656 39.876233c0 22.023026-17.856085 39.876148-39.882286 39.876148C17.855958 79.752381 0 61.899259 0 39.876233 0 17.853206 17.855958 0 39.88237 0c22.026201 0 39.882286 17.853206 39.882286 39.876233z" fill="#2D9CDB"/>
    <path d="M46.24635 18.306878H33.676443C24.3818 28.794624 19.865566 33.104635 12.10582 39.563852l33.364614 7.292571-5.7418 6.516741c-7.662094-4.583958-12.908232-5.171979-22.346539-6.05126 7.090328 3.301842 10.773164 5.953355 16.29435 14.11979h12.569904c6.525714-8.195641 11.025185-12.949884 21.41545-21.877842l-33.20944-7.447704 5.276276-6.206391c8.361227 4.434328 13.368423 5.068783 22.241312 6.193058l.105397.013333c-2.656508-.721524-5.324021-2.68728-15.828995-13.80927zm-11.795556-1.548571c2.872584-3.569778 4.047149-5.30687 5.586624-8.06836 1.512254 2.842751 2.682201 4.599577 5.43145 8.06836H34.450794zM45.468783 62.99619c-2.872584 3.569778-4.04715 5.30687-5.586624 8.06836-1.512254-2.842752-2.682201-4.599577-5.43145-8.06836h11.018074z" fill="#FFF"/>
  </g>
</svg>
