<svg width="80" height="80" viewBox="0 0 80 80" xmlns="http://www.w3.org/2000/svg">
  <title>
    swm-swarm-fund
  </title>
  <g fill="none" fill-rule="evenodd">
    <circle fill="#FFF" cx="40" cy="40" r="40"/>
    <path d="M32.223235 53.635258l-9.758543-8.835866 20.07745-18.62918 23.166286-.068388-33.485193 27.533434zm1.886104 1.682371l6.42369-5.389058-.041002 11.899697-6.382688-6.510639zM21.986333 25.18541l8.747152 8.712766L22 42.159575l-.013667-16.974165zm-2.569477 5.25228l-5.234624.027356 5.302962-5.306991-.068338 5.279635zm49.954442-6.483283c-8.378132.041034-27.225512-.259878-27.785877-.041033l-8.993166 8.425532-11.029613-10.955927s-.082004-.355623-.95672-.341946c-.410022 0-.656036.218845-.656036.218845l-9.594533 9.642858s-.382688.410334-.300683.87538c.095672.642857.779043.87538.779043.87538l8.637813.041033s-.205011 12.06383.041002 12.55623c.246014.492402 21.280183 20.120062 21.280183 20.120062s.396355.410334.820045.478723c.874716.136778 1.079727-.779635 1.079727-.779635l.082004-17.12462s18.792711-15.428572 26.569477-21.857143c.232346-.19149.492027.041033.560364-1.039514.068337-.670213-.095672-1.107903-.53303-1.094225z" fill="#F7931D" fill-rule="nonzero"/>
  </g>
</svg>
