<svg width="80" height="80" viewBox="0 0 80 80" xmlns="http://www.w3.org/2000/svg">
  <title>
    swt-swarmcity
  </title>
  <g fill="none" fill-rule="evenodd">
    <circle fill="#EFD96F" cx="40" cy="40" r="40"/>
    <g transform="translate(10 28)" fill-rule="nonzero" fill="#333">
      <path d="M45.697446 0c-8.958743 0-16.345776 7.153094-23.02554 13.094463-1.925344-1.680782-4.086444-3.752443-5.73674-5.70684-.15717-.19544-.392926-.23453-.510804-.156353-.15717.117264-.196464.351792-.039293.508144 1.532412 1.87622 3.575634 4.143322 5.50098 6.058632-3.57564 3.361563-9.03733 7.42671-13.438116 7.42671-8.880157 0-8.91945-12.234528-1.13949-14.540717.353636-.07818.353636-.508147 0-.39088C-2.868368 8.794785-2.31827 23.06189 8.644402 23.06189c5.225934 0 10.019647-3.478828 14.852653-7.583063C28.722985 20.16938 35.324165 24 43.811395 24c21.532416 0 20.903733-24 1.88605-24m-2.04322 22.162866c-6.797643-.039088-13.398822-3.00977-19.174854-7.504886C31.04126 8.99023 37.68173 2.50163 45.500986 2.50163c15.24558 0 15.638507 19.7785-1.846758 19.661236"/>
      <ellipse cx="11.94499" cy="5.042345" rx="2.200393" ry="2.188925"/>
    </g>
  </g>
</svg>
