<svg width="80" height="80" viewBox="0 0 80 80" xmlns="http://www.w3.org/2000/svg" xmlns:xlink="http://www.w3.org/1999/xlink">
  <title>
    sxdt-spectre-dividend
  </title>
  <defs>
    <path id="a" d="M.000066.19868h27.452281v34.31856H.000066z"/>
    <path id="c" d="M.122467.19699h27.35755v34.244305H.122467z"/>
    <path id="e" d="M.154501.009414h36.889236v11.65208H.154501z"/>
  </defs>
  <g fill="none" fill-rule="evenodd">
    <circle fill="#000" cx="40" cy="40" r="40"/>
    <path d="M26.896626 31.69479c.727157-.391759 1.366115-.748035 2.016099-1.08331.957719-.494104 1.929099-.961897 2.883702-1.462035 1.144182-.599828 2.271347-1.232242 3.416009-1.831345 1.005173-.526207 2.026165-1.021759 3.036132-1.538552.371967-.190448.73219-.403586 1.098644-.605138.329546-.181276.647587-.133482.966827.038621.701992.378483 1.407099.751172 2.111727 1.124345 1.266174.67031 2.532587 1.339896 3.799959 2.007793.473587.249586.94957.493862 1.425314.739586 1.59476.823828 3.18976 1.64669 4.78428 2.471242.085323.044172.163935.101862.294794.18369-.120554.095103-.197248.177172-.290959.226172-1.234297.64569-2.469314 1.290172-3.707925 1.927413-.813678.418552-1.619926.85569-2.453736 1.229345-1.15976.519449-2.326231 1.032138-3.520504 1.46107-.77605.278792-1.603149.385723-2.438157.455-.861611.071206-1.700934-.042484-2.527074-.18538-.713496-.123345-1.407818-.413242-2.082967-.696138-1.135314-.475517-2.257926-.984828-3.368794-1.515862-.844355-.40407-1.665702-.85762-2.490884-1.301035-.893008-.479862-1.778587-.973241-2.666562-1.462034-.068066-.037414-.131339-.083759-.285925-.183448" fill="#FEA405"/>
    <g transform="translate(11 26.473345)">
      <mask id="b" fill="#fff">
        <use xlink:href="#a"/>
      </mask>
      <path d="M.029527 4.347507C-.021043 3.07061.008197 1.786714.011073.503783.011313.41423.074106.324679.12132.198679c.133256.04369.249016.063724.34752.116587 1.548025.829862 3.093653 1.66431 4.64024 2.497068.860174.463207 1.722744.92231 2.58124 1.388897 1.227826.666931 2.451818 1.341586 3.680363 2.008035.455132.24669.923207.469724 1.375223.721965.23919.133483.45657.30631.720447.48662 0 .743449-.00024 1.465656.00024 2.187621 0 .301725-.001199.603449.002875.905173.037868 2.692586.019653 5.387586.139967 8.076069.060157 1.34569.012703 2.691138.097785 4.033448.01486.23438.066629.466345.100422.693483.77533.43062 1.504165.842172 2.239231 1.24238 1.278876.69662 2.560868 1.38793 3.84286 2.079 1.828438.98555 3.658074 1.968206 5.486512 2.953275.509777.274931 1.009009.570862 1.527653.826724.39186.193104.552678.486138.548364.912897-.008628.86462-.003116 1.729724-.00048 2.594586.00072.226414.00048.447758-.280892.594758-.221455-.104758-.475265-.213379-.71829-.342517-1.479958-.785207-2.95728-1.574758-4.435322-2.363827-1.303562-.695656-2.607363-1.39131-3.910206-2.089138-2.376562-1.272793-4.753364-2.545104-7.126091-3.82538-.187661-.101138-.344405-.26093-.487248-.371482-.251653-1.164414-.135413-2.294552-.176637-3.415035-.059917-1.625207-.081487-3.25162-.126305-4.87731-.034752-1.264104-.081008-2.527966-.120794-3.79207-.038826-1.224034-.084843-2.447827-.10809-3.672103-.00719-.383069-.219538-.590413-.514091-.740551-.353992-.180552-.725-.32707-1.08115-.503035-.788272-.389586-1.570074-.79293-2.358586-1.182276-1.073-.529827-2.151033-1.049275-3.224752-1.577896C2.01399 5.38592 1.247527 5.001162.481544 4.615438.341098 4.544472.209759 4.45492.029527 4.347507" fill="#FFF" mask="url(#b)"/>
    </g>
    <g transform="translate(41.438017 26.473345)">
      <mask id="d" fill="#fff">
        <use xlink:href="#c"/>
      </mask>
      <path d="M17.020292 25.628472c-.321157.184173-.59462.347587-.874075.499656-.96467.525-1.927421 1.053137-2.898082 1.566551-.914818.483966-1.843538.94138-2.757157 1.428-1.19643.637-2.383992 1.29138-3.57515 1.938759-.12271.06662-.243264.137103-.366214.203724-1.124769.606828-2.246421 1.219448-3.375504 1.818069-.791868.419517-1.592364.82238-2.39238 1.226448-.173042.087138-.350637.20831-.604207.06638-.013421-.126724-.04314-.280724-.044099-.434724-.005033-.864863.013182-1.729966-.010306-2.594104-.012463-.459828.153149-.729448.568496-.94669 1.536281-.804034 3.053149-1.646207 4.576008-2.475827 1.22591-.668138 2.447984-1.342552 3.675091-2.007552.807686-.43762 1.622083-.862207 2.431926-1.295965.651421-.348794 1.298768-.70507 1.95067-1.052897.353032-.188517.49971-.467069.503305-.87838.018215-2.06862.063752-4.137.088678-6.205861.017496-1.447793-.05105-2.900173.044578-4.342173.093232-1.406276.052967-2.809414.084124-4.213517.009827-.452345.204918-.737414.603488-.94838 1.850727-.979275 3.694025-1.97231 5.534206-2.970896 1.75486-.952241 3.50229-1.918724 5.253794-2.877.50786-.278069 1.017157-.553483 1.53005-.821896.102578-.053587.22409-.070242.368611-.113207.051529.092207.13709.173793.13757.255862.008389 1.284379.005992 2.568758.005992 3.906241-.382033.200345-.74657.398035-1.11686.584862-.81919.413483-1.639099.825759-2.462603 1.230793-1.057182.519931-2.118677 1.031655-3.177297 1.548449-.861612.420482-1.71795.851344-2.584116 1.26193-.469752.222552-.590066.621794-.598934 1.085966-.01438.763966-.011504 1.528173-.027562 2.292138-.037388 1.766172-.022769 3.536207-.142124 5.296828-.092512 1.365965-.05728 2.729275-.105455 4.092827-.037628 1.063035-.075975 2.125828-.125826 3.187897-.010066.216517-.07286.43062-.118636.68769" fill="#FFF" mask="url(#d)"/>
    </g>
    <path d="M38.285597 55.18131a414313.47485 414313.47485 0 0 0-11.632595-6.127655c-.01414-.071207-.047215-.167034-.049852-.263827-.042181-1.54338-.083404-3.087-.117677-4.630863-.011265-.50231.05057-1.011862-.011984-1.50669-.136132-1.07993-.017975-2.168792-.129421-3.241723-.14572-1.404587-.063033-2.805552-.076694-4.208449-.00024-.01593.02085-.032344.061595-.091965.083165.011345.204198-.001931.294553.044896.883182.457656 1.770199.908794 2.638042 1.39469 1.006372.563862 2.012264 1.132552 2.986041 1.750483 1.039686.65993 2.071223 1.329034 3.00857 2.148517.846992.739828 1.502967 1.602517 1.94348 2.615345.291917.671759.500669 1.393966.642314 2.114483.153388.779896.179991 1.584413.271066 2.377103.248058 2.163.063991 4.333724.126545 6.499862.005992.217966.057281.434242.07214.652207.008868.128897-.012941.259724-.026123.473586M53.60934 34.973445c.032595.211207.075257.361103.075496.511.001199.984586.056802 1.974965-.027322 2.952793-.113843 1.323724.003355 2.651552-.111926 3.967069-.142363 1.623758-.059677 3.24631-.112644 4.86838-.018934.576172-.093471 1.150654-.14548 1.760378-3.84214 2.027587-7.700578 4.064104-11.597842 6.121138-.162976-.437138-.086281-.825517-.059199-1.214138.020612-.294482.009827-.591137.006471-.886586-.000958-.07869-.046735-.160276-.03571-.235103.220975-1.477966.02205-2.967035.119355-4.447173.0429-.655103.17448-1.305138.208273-1.960724.044578-.868.248057-1.702448.518644-2.512517.512893-1.536138 1.410694-2.820034 2.719769-3.780483.881264-.646414 1.778347-1.272793 2.690768-1.873345.614513-.40431 1.266653-.751413 1.905372-1.117827 1.191876-.683828 2.386149-1.36331 3.580182-2.043276.05129-.029207.109529-.045862.265794-.109586" fill="#FEA405"/>
    <g transform="translate(21.305785 19.231966)">
      <mask id="f" fill="#fff">
        <use xlink:href="#e"/>
      </mask>
      <path d="M3.683671 11.661493C2.43116 11.055148 1.280985 10.387976.156696 9.762321c-.024207-.33769.156025-.437138.33362-.527414 1.673132-.85062 3.351537-1.691104 5.021553-2.548483 1.86415-.957069 3.71967-1.931276 5.581901-2.89269 1.488108-.76831 2.98029-1.529137 4.471033-2.292137.958199-.490483 1.917356-.979035 2.92253-1.492207 6.107255 3.087724 12.209239 6.17231 18.309784 9.260276.104257.052862.1891.144344.24662.189482-.00695.287-.168008.381621-.322834.466828-.925604.50931-1.858877 1.005345-2.779926 1.522862-.328827.184896-.614512.188034-.953645.008448-1.831554-.969862-3.670777-1.924758-5.511198-2.877241-1.291818-.66862-2.591546-1.321552-3.884562-1.987517-1.38505-.713518-2.766984-1.43331-4.149636-2.152138-.755678-.392724-.75376-.392-1.487868-.015207-1.627356.83469-3.253273 1.672034-4.884463 2.499241-2.724083 1.381173-5.45152 2.755345-8.178 4.132173-.389703.196724-.780843.391034-1.207934.604896" fill="#FFF" mask="url(#f)"/>
    </g>
    <path d="M60.538807 40.476724v-3.39162c.14404-.21338.33985-.344932.589107-.459345.846273-.38838 1.671934-.82238 2.504546-1.24069 1.135553-.57038 2.270148-1.14269 3.405942-1.712828.104016-.052379.212107-.096551.321157-.145793.134934.422173.158182 2.883276.044818 3.455345-2.259843 1.150173-4.512975 2.297207-6.86557 3.494931M19.505364 36.75468c.045298.202517.128224.39393.12367.583413-.016298.699276-.06471 1.397828-.09371 2.096862-.010786.256828-.001918.51438-.001918.722448-.067827.060104-.08053.076035-.097066.084725-.017257.00893-.038347.015448-.057521.014965-.039066-.000724-.085083.00531-.11648-.012552-2.141206-1.216069-4.375644-2.25593-6.537462-3.43193v-3.427104c1.179173.54093 2.281653 1.109862 3.388686 1.668896 1.104397.557587 2.21167 1.108897 3.391801 1.700276" fill="#FEA405"/>
  </g>
</svg>
