<svg width="80" height="80" xmlns="http://www.w3.org/2000/svg" xmlns:xlink="http://www.w3.org/1999/xlink">
  <defs>
    <path id="a" d="M0 .000394h64v61.217765H0z"/>
  </defs>
  <g fill="none" fill-rule="evenodd">
    <circle fill="#000" cx="40" cy="40" r="40"/>
    <g transform="translate(8 9)">
      <mask id="b" fill="#fff">
        <use xlink:href="#a"/>
      </mask>
      <path d="M33.82592 32.85519c.6464-.031 10.48 3.091448 11.741867 3.716793-1.485867 2.04493-2.964267 4.080241-4.519467 6.222448-2.448-3.36938-4.824533-6.640414-7.2224-9.939241zm2.955733 15.827103c-1.518933-.492793-3.016533-.978103-4.555733-1.47838V32.229846c.4512-.012828.7968.12293 1.0592.48638 2.498133 3.455965 5.000533 6.907654 7.531733 10.403172-1.339733 1.845034-2.664533 3.672965-4.0352 5.562896zm-4.394666 6.056759c-.052267-.012828-.104534-.026724-.1568-.039552v-7.097931c1.448533.469276 2.821333.913966 4.315733 1.399276-1.4272 1.969034-2.7936 3.85362-4.158933 5.738207zm-.584534-22.083759c.002134 4.677793.001067 9.357724-.002133 14.037655 0 .14431-.020267.288621-.036267.502414-1.931733.628552-3.7984 1.234655-5.76 1.872828-1.184-1.626966-2.3712-3.259276-3.5904-4.935414.570667-.788897 1.134934-1.572448 1.701334-2.352793 2.277333-3.14062 4.5536-6.28231 6.8416-9.415449.139733-.192413.3968-.46393.56-.439344.382933.056655.285866.448965.285866.730103zM31.21152 56.25057c-1.6416-2.260862-3.274667-4.511035-4.978133-6.856345 1.893333-.61893 3.648-1.194034 5.4688-1.78838.037333.235173.094933.422242.094933.61038.004267 2.269414-.011733 4.539897.0064 6.80931.004267.487449-.1664.845552-.592 1.225035zm-.792533.79638c-.261334-.020311-.520534-.088725-.776534-.150725-1.710933-.408345-3.4208-.817758-5.1296-1.233586-.256-.063069-.5088-.143241-.753066-.242655-2.1728-.892586-4.3424-1.78838-6.512-2.68738-.101334-.04169-.1888-.115448-.4352-.26831 3.085866-1.009103 6.0096-1.96262 8.997333-2.938586.184533.228759.373333.445759.541867.676655 1.416533 1.951931 2.829866 3.904931 4.244266 5.859.0864.118655.186667.230897.250667.36131.165333.337794-.043733.654207-.427733.624276zm-.736.818827c-.900267-.38162-1.808-.74507-2.6784-1.223966 1.085866.264035 2.171733.52807 3.332266.810276-.1696.399793-.3232.553724-.653866.41369zm-.7872 1.501896c-.805334.19669-1.6288.322828-2.445867.476759-.011733-.059862-.023467-.117586-.0352-.17638.9632-.311068 1.9264-.623206 2.890667-.934275.030933.04169.0608.084448.091733.126138-.165333.17531-.304.459655-.501333.507758zM27.78752 60.47726c-.6528.014965-1.307733.003207-1.9616.003207-.002133-.033138-.005333-.066276-.008533-.099414.875733-.161414 1.7504-.323897 2.658133-.492793-.2496.563344-.248533.579379-.688.589zm-4.8384-.119724c-.609067.192413-.778667.114379-1.2352-.510966-.9376-1.283828-1.8688-2.573-2.802133-3.861104-.327467-.451103-.6528-.902206-.987734-1.365068.5184-.070552 4.455467.714069 5.854934 1.24962 1.8624.713 3.691733 1.511518 5.534933 2.27369.001067.055586.0032.112241.005333.166759-2.122666.683069-4.244266 1.372551-6.370133 2.047069zm-6.087467-7.166345c.032-.048104.065067-.097276.097067-.14538 1.224533.501345 2.449067 1.00269 3.6736 1.505104-.011733.047034-.024533.094069-.0352.141103-1.018667-.253345-2.049067-.469276-3.048533-.78462-.276267-.087656-.4608-.469276-.686934-.716207zm2.410667 4.282276c-1.053867-1.099966-2.106667-2.201-3.1936-3.33838.8128-.012827 1.002667.03207 1.3056.43507.6848.915034 1.3472 1.846103 2.018133 2.769689-.043733.044896-.087466.088724-.130133.13362zm-9.36-6.04607l.119467-.131482c1.661866.797448 3.3248 1.592758 4.983466 2.39769.1536.074827.292267.198827.411734.324965 1.2768 1.338345 2.5472 2.682034 3.732266 4.134759-3.0816-2.241621-6.164266-4.483242-9.246933-6.725931zm-2.775467-2.091965c-.4096-.142172-.599466-.421172-.597333-.868.010667-2.232.004267-4.465069.004267-6.90231 1.457066 1.602379 2.8128 3.082896 3.981866 4.692758 1.170134 1.608793 2.1152 3.381138 3.2608 5.247552-2.002133-.647793-3.784533-1.225034-5.568-1.804414-.3616-.118655-.722133-.241586-1.0816-.365586zm-.465066-9.415448c.603733.98131 1.208533 1.961551 1.812266 2.942862-.048.045965-.097066.09193-.146133.137896-.548267-.643517-1.138133-1.259241-1.6256-1.946586-.192-.26938-.154667-.70231-.222933-1.061483l.1824-.07269zm-.368-3.775586c-.110934-1.494414-.248534-2.98776-.315734-4.48431-.045866-1.02407-.0352-2.054552.024534-3.078622.1024-1.760586.2624-3.517965.402133-5.276413.0064-.081242.0416-.159276.1184-.432931 1.918933 2.64462 3.7472 5.163103 5.614933 7.737172-1.854933 2.560173-3.6928 5.09469-5.665066 7.816276-.071467-.906483-.129067-1.592759-.1792-2.281172zm-.1536 9.491344c-.036267-.005344-.0736-.01069-.109867-.016034-.238933-1.78731-.477867-3.57569-.725333-5.423931.603733.407276.8768.874414.849066 1.576724-.049066 1.285965-.013866 2.575138-.013866 3.863241zm-.699734-.290758C4.26752 41.695535 3.08352 38.045017 1.900587 34.396638c.045866-.028862.0928-.056655.138666-.085517.893867 1.650482 1.818667 3.286 2.6592 4.964276.24.477827.254934 1.078586.3328 1.626965.200534 1.393931.378667 2.791069.561067 4.186069.0096.073759-.023467.153931-.141867.256552zm-.628266-6.718449c-.837334-1.551068-1.585067-2.937517-2.3328-4.323965l.094933-.073759c.130133.148587.274133.287552.389333.445759.484267.663828.928 1.360793 1.4496 1.990414.449067.544103.603734 1.112793.398934 1.961551zM1.13792 31.474086c-.567467-.783552-.5696-.905414.008533-1.712483 1.149867-1.602379 2.3104-3.198344 3.467734-4.795379.082133-.11331.180266-.218069.341333-.411552.596267 4.079173.5792 8.029.0128 12.055793-.148267-.152862-.2944-.271517-.402133-.419034-1.146667-1.57031-2.290134-3.14169-3.428267-4.717345zm3.218133-6.808241c-.574933.699103-1.076266 1.459138-1.6768 2.155034.580267-1.41531 1.3472-2.729069 2.141867-4.222414.235733.932138-.005333 1.507242-.465067 2.06738zm1.099734-8.795448l.133333.038482c-.2336 1.831138-.464 3.663345-.704 5.494483-.0224.172103-.072533.35062-.1536.503483-.894933 1.679345-1.7984 3.354414-2.8448 4.971758l3.569067-11.008206zm.306133 18.147827c.0896 1.298793.1792 2.597586.277333 4.02038-.522666-.380552-.658133-.740794-.610133-1.228242.091733-.927862.136533-1.861069.200533-2.791069.043734-.001069.088534-.001069.132267-.001069zm-.0064-6.77938c-.037333.002139-.074667.003208-.110933.004277-.077867-1.016586-.152534-2.032104-.234667-3.04869-.0352-.431862.210133-.678793.635733-1.027276-.104533 1.461276-.197333 2.766483-.290133 4.07169zm.2944-11.668827c.034133.004276.0672.00962.101333.014966 0 1.382172-.013866 2.764345.0064 4.146517.007467.612517-.373333.93-.848 1.329793.256-1.897414.498134-3.694345.740267-5.491276zm.957867 4.189276c.465066-.484241.885333-1.01231 1.367466-1.573517-.097066.612517-1.0816 2.285448-1.784533 3.085034-.162133-.59862-.0032-1.07431.417067-1.511517zm-.465067-6.678896c.002133-.916104.045867-.994138.888533-1.275276 1.949867-.65207 3.906134-1.285966 5.861334-1.925207.1024-.033138.206933-.059862.378666-.109035-1.877333 3.656931-4.2336 6.848862-7.096533 9.818449-.016-.319621-.036267-.539828-.036267-.758966-.001066-1.916655-.002133-3.83331.004267-5.749965zM19.184853 3.043879l.114134.09407c-1.314134 1.378965-2.6272 2.760068-3.9456 4.133689-.119467.125069-.270934.229828-.4256.305724-1.6864.817759-3.376 1.628035-5.144534 2.320724 3.133867-2.28438 6.267734-4.569827 9.4016-6.854207zm-.050133 1.216483c-.4928.690552-1.0272 1.35331-1.485867 2.065241-.366933.56976-.824533.866931-1.588266.814552 1.101866-1.16838 2.158933-2.290793 3.216-3.414276.034133.02138.068266.04169.1024.062-.081067.158207-.142934.329242-.244267.472483zm2.573867-2.854138c.529066-.719414.637866-.746138 1.479466-.47569 1.870934.60076 3.739734 1.21007 5.608534 1.816173.1568.05131.309333.117586.464.177448.008533.08231.016.16462.024533.248-2.164267.81562-4.304 1.702862-6.500267 2.421207-1.544533.50562-3.163733.780345-4.8896 1.190828.1664-.305724.2336-.46607.3328-.603966 1.156267-1.593827 2.312534-3.188724 3.480534-4.774zM26.19072.794776h5.92c-.024533.489586-.4064.713-.613333 1.109586a204480.940816 204480.940816 0 0 1-5.378134-1.00269c.023467-.035275.048-.07162.071467-.106896zm3.618133 1.867483c-1.136-.367725-2.270933-.737587-3.405866-1.10531.0192-.059863.039466-.120794.058666-.180656 1.501867.279 3.0048.556931 4.705067.873345-.552533.272586-.88.56762-1.357867.41262zm.314667 1.082862c-.2464.219138-2.053333.613586-2.832.623207 1.056-.48531 1.9936-.872276 2.948267-1.212207.037333.058793.074666.119724.112.179586-.074667.138965-.1184.312138-.228267.409414zm-13.236267 4.464c.254934-.677724.594134-.94069 1.0944-1.046518.845867-.179586 1.685334-.39231 2.571734-.456448-1.170134.478897-2.3392.959931-3.666134 1.502966zm7.781334 3.12031c-2.672-.872276-5.234134-1.708207-7.915734-2.584759.295467-.140034.491734-.242655.695467-.327103 1.949867-.811345 3.879467-1.675069 5.858133-2.40731 1.229867-.456449 2.530134-.724759 3.8048-1.056138.788267-.204173 1.5872-.368793 2.605867-.602897a160061.323756 160061.323756 0 0 1-5.048533 6.978207zm-3.214934 4.429793c-1.5904-2.194586-3.128533-4.314345-4.6656-6.435172.0448-.040621.090667-.081242.135467-.121862 2.468267.80493 4.935467 1.609862 7.506133 2.44793-1.012266 1.399277-1.953066 2.697-2.976 4.109104zM18.58432 18.07888c-.7104.148587-1.392.441483-2.208.709793-.0672-3.088241-.0064-6.098448.133333-9.177069 1.559467 2.143276 3.118934 4.286552 4.658134 6.399897-.528 1.254965-1.412267 1.821517-2.583467 2.06738zm-2.053333 4.475759l-.151467-.069483v-3.294552c1.051733-.344206 2.088533-.685206 3.125333-1.024068.030934.05131.0608.10262.090667.15393-1.0208 1.412104-2.042667 2.823138-3.064533 4.234173zm-.6624.699103c-.061867.546242-.6048 1.039035-.958934 1.606656-2.586666-.846621-5.111466-1.671862-7.637333-2.497104.002133-.07269.004267-.143241.0064-.21593 2.8384-.922518 5.6768-1.845035 8.6336-2.807104 0 1.399276.096 2.669207-.043733 3.913482zm.0096 12.799793v5.822656c-2.9472-.959931-5.826134-1.897414-8.922667-2.905449 3.0848-1.009103 5.966933-1.950862 8.922667-2.917206zm-.056534-.369862c-3.000533.973828-5.854933 1.900621-8.709333 2.827414l-.109867-.141103c1.777067-2.452207 3.554134-4.904414 5.386667-7.432517a27737.571645 27737.571645 0 0 0 3.432533 4.746206zM7.074987 22.70857c2.475733.802793 4.9504 1.605586 7.405866 2.401965.016.097276.050134.164621.029867.195621-.567467.829517-.5536.792104.520533 1.326586-.8608 1.190828-1.713066 2.369897-2.642133 3.658-1.829333-2.525965-3.6128-4.986724-5.397333-7.448551.027733-.044897.055466-.089793.0832-.133621zm8.816-13.38238v9.619621c-2.944.956724-5.888 1.913449-9.0144 2.930035.135466-.307862.1824-.456448.2624-.585793 1.122133-1.83007 2.2208-3.676173 3.387733-5.475242.5248-.809207 1.175467-1.53931 1.7952-2.281172 1.128533-1.352241 2.277333-2.68738 3.569067-4.207448zm-2.5088.119725c-1.0592.303586-2.101334.663827-3.205334.869069 1.441067-.693759 2.882134-1.388586 4.443734-2.141138-.2144.762172-.624 1.09569-1.2384 1.272069zm.852266.315345c.1984-.306793.522667-.440414 1.054934-.352759-.8544 1.018724-1.6384 1.951931-2.4224 2.885138l-.1376-.078035c.4992-.818827.984533-1.649413 1.505066-2.454344zm-3.0816 36.543655c-.500266-.61038-.888533-1.314828-1.306666-1.989345-.992-1.597035-1.970134-3.201552-3.072-4.996345 3.157333 1.026207 6.122666 1.988276 9.1296 2.96531v9.514863c-.210134-.19669-.353067-.307862-.469334-.443621-1.432533-1.679345-2.882133-3.343724-4.2816-5.050862zm3.4912 6.763345c-1.569066-.756828-3.024-1.460207-4.48-2.162518l.052267-.140034c.519467.171034 1.038933.342069 1.559467.510965.501333.163552.9952.359173 1.506133.479966.653867.151793 1.1136.48531 1.362133 1.31162zm-.5664-1.837552c-.420266-.767517-.912-1.49762-1.2608-2.33569.836267.984517 1.674667 1.969035 2.613334 3.073276-.676267-.073759-1.076267-.231965-1.352534-.737586zm1.3888-24.546655c4.592 1.492276 9.154134 2.97493 13.739734 4.466138-.555734.416896-10.747734 3.824758-13.038934 4.364586-1.186133-1.639793-2.353066-3.253931-3.544533-4.901207.952533-1.315897 1.8784-2.595448 2.843733-3.929517zm1.04 24.938965c-.194133-.708724-.224-8.191482-.039466-9.15569 1.781333.581518 3.553066 1.159828 5.406933 1.765932-1.825067 2.511-3.581867 4.931138-5.367467 7.389758zm5.675734-7.168482c1.166933 1.607724 2.264533 3.121379 3.4368 4.736586-2.978134.968482-5.8592 1.904896-8.740267 2.842379-.029867-.042759-.059733-.086586-.0896-.130414 1.7664-2.440448 3.5328-4.879827 5.393067-7.448552zM30.87872 31.82257c-2.900267 4.000069-5.8016 7.999069-8.759467 12.077172-1.879466-.606103-3.7696-1.216482-5.738666-1.850379v-6.100586c.1696-.075897.321066-.158207.482133-.210586 4.187733-1.370414 8.378667-2.734414 12.565333-4.109104.497067-.163552.961067-.240517 1.450667.193483zm15.4528 4.925793c.3744-.523793.331733-.655276-.266667-.870138-.551466-.197759-1.115733-.36238-1.674666-.544103-9.351467-3.045483-18.704-6.092035-28.0544-9.140724-.382934-.12507-.7584-.271518-1.1808-.425449.218666-.327103.389333-.59969.5792-.859448 5.098666-7.02738 10.200533-14.05369 15.301333-21.08.7264-1.000552 1.4592-1.995759 2.173867-3.002724.107733-.151793.235733-.448966.170666-.530207-.122666-.152862-.3776-.199897-.581333-.281138-.0512-.019241-.117333-.001069-.176-.001069-3.293867 0-6.5888.006414-9.883733-.006414-.4608-.001069-.843734.097276-1.224534.376276-4.938666 3.613104-9.882666 7.217655-14.8384 10.806173-.48.348482-.7744.75362-.9504 1.316965-.692266 2.219173-1.4176 4.427655-2.135466 6.639345-1.134934 3.498724-2.260267 7.000655-3.4208 10.490827-.226134.680931-.228267 1.299863.004266 1.972242.548267 1.585276 1.053867 3.185517 1.572267 4.781483 1.3536 4.170034 2.7072 8.341138 4.053333 12.514379.120534.372.267734.683069.608.931069 5.0496 3.661207 10.0896 7.333103 15.125334 11.013552.350933.25762.7008.373069 1.136.367724 1.765333-.019242 3.530666-.023517 5.294933.001069.4576.006414.8-.084449 1.0304-.502414.0992-.178517.242133-.332448.362667-.499207 4.125866-5.697586 8.2528-11.395172 12.378666-17.094896 1.534934-2.121897 3.0688-4.244863 4.596267-6.373173zm16.672-5.536172c-1.2672 1.731724-2.5216 3.473069-3.783467 5.209069-.032.043827-.093866.065207-.202666.141103-.590934-2.182828-.589867-9.697655.007466-11.938207.1504.167828.289067.298242.397867.448966 1.1744 1.617344 2.336 3.24431 3.517867 4.857379.315733.430793.397866.820965.062933 1.28169zm-3.576533 5.592827c.490666-.584724.904533-1.233586 1.357866-1.84931.110934-.150724.245334-.283276.507734-.335655-.682667 1.276345-1.364267 2.550551-2.0768 3.883551-.328534-.685206-.2144-1.189758.2112-1.698586zm-1.042134 8.521793c.0864-.72262.145067-1.271.218667-1.819379.165333-1.222896.334933-2.443655.507733-3.666552.024534-.172103.033067-.36131.112-.508827.853334-1.604518 1.719467-3.202621 2.622934-4.878759.026666.649931-2.871467 9.752173-3.461334 10.873517zm-.395733-.22662c-.039467-.00107-.078933-.003207-.1184-.004276 0-1.26138-.0384-2.522759.023467-3.782.017066-.358104.322133-.70231.493866-1.054l.238934.087655c-.212267 1.583138-.424534 3.168414-.637867 4.75262zm-.510933-6.72807c-2.016-2.653172-3.796267-5.218689-5.666134-7.767103 1.856-2.550552 3.682134-5.06262 5.509334-7.572551.075733.018172.151466.038482.228266.057724.161067 2.730138.4416 5.461344.4448 8.191482.0032 2.28331-.318933 4.56769-.516266 7.090449zm-.250667 2.761139c-.606933.709793-1.213867 1.419586-1.8208 2.12831-.032-.019241-.065067-.038483-.097067-.057724.029867-.075897.050134-.157138.091734-.224483.626133-1.017655 1.2544-2.03638 1.966933-3.190862.148267.56762.1824.968483-.1408 1.344759zm.238933 6.884138c-.0032 1.009103-.104533 1.143793-1.051733 1.45593-1.755733.577242-3.512533 1.150208-5.269333 1.724242-.245334.079103-.491734.151793-.865067.266172 1.9328-3.710379 4.283733-6.903379 7.149867-9.864413.018133.293965.040533.486379.040533.677724 0 1.913448.002133 3.827965-.004267 5.740345zm-12.487466 10.01193c-.045867-.043827-.091734-.086586-.1376-.129344 1.2576-1.316966 2.5152-2.632862 3.777066-3.94662.0992-.102622.2208-.198829.3488-.261898 1.736534-.845551 3.477334-1.68469 5.281067-2.413724-3.089067 2.251242-6.1792 4.500345-9.269333 6.751587zm-.645334-.38269c.187734-.258689.376534-.518447.564267-.778206.464-.643517.957867-1.267793 1.383467-1.935896.378666-.592207.878933-.884035 1.6768-.890449-1.2064 1.273138-2.353067 2.482138-3.498667 3.69007-.0416-.027794-.084267-.055587-.125867-.085518zm-2.046933 2.131518c-.578133.787828-.657067.80707-1.537067.520586-1.870933-.610379-3.741866-1.222896-5.6128-1.835413-.154666-.050242-.305066-.11331-.555733-.20738 3.693867-1.843965 7.463467-3.04762 11.488-3.763827-.126933.217-.1984.369862-.296533.504551-1.159467 1.594897-2.318934 3.190863-3.485867 4.781483zm-10.571733.67131c.256-.39124.4576-.698034.650666-.99093.730667-.049173 4.565334.602896 5.787734.99093h-6.4384zm2.903466-1.747758c1.125334.403 2.2688.75362 3.377067 1.236793-1.6736-.304655-3.3472-.60931-5.153067-.93962.6496-.498139 1.178667-.510966 1.776-.297173zm-.608-1.34262c.8352-.226622 1.681067-.409415 2.523734-.608242.0096.059862.020266.120793.029866.180655-.962133.360241-1.872.868-2.951466 1.12669 0-.403.1504-.631759.397866-.699104zm13.121067-4.36138c-.3168.659552-.6496.989862-1.232 1.085-.6816.11331-1.351467.305724-2.0256.461793-.020267-.065207-.039467-.129345-.059733-.19562 1.058133-.430794 2.117333-.862656 3.317333-1.351173zm-7.832533-3.096793c2.622933.855172 5.1808 1.688965 7.9232 2.58262-4.229334 1.858932-8.280534 3.662276-12.904534 4.291897 1.706667-2.354931 3.3344-4.602965 4.981334-6.874517zm3.1104-4.291897c.546133.384828 4.289066 5.503035 4.6912 6.428759-2.533334-.822035-4.9952-1.620552-7.576534-2.45862 1.026134-1.413173 1.956267-2.691656 2.885334-3.970139zm2.446933-2.305758c.9088-.202035 1.786667-.553724 2.753067-.864793v9.401551c-1.672534-2.30362-3.2416-4.460793-4.816-6.627586.468266-.926793.9888-1.668655 2.062933-1.909172zm2.637867-4.703449l.130133.059862v3.366173c-1.0688.35169-2.138667.70338-3.208533 1.054-.0288-.04062-.056534-.08231-.085334-.124 1.054934-1.451655 2.1088-2.90438 3.163734-4.356035zm.594133-.61893c.069333-.563345.647467-1.063621 1.0016-1.603449 2.626133.861586 5.147733 1.687897 7.669333 2.514207-.005333.055586-.010666.111172-.016.167828-2.8576.927862-5.7152 1.856793-8.701866 2.827413 0-1.401414-.104534-2.670276.046933-3.906zm.4-3.435656c-4.624-1.504034-9.194667-2.990965-13.7664-4.477896l-.0096-.155c4.338133-1.409966 8.677333-2.821 13.0528-4.243793 1.216 1.679344 2.3712 3.276379 3.573333 4.937551-.941866 1.302-1.883733 2.602931-2.850133 3.939138zm-15.4336-5.10538c2.926933-4.032137 5.850667-8.061068 8.795733-12.11993 1.944534.632827 3.834667 1.24962 5.7664 1.878172v6.11662c-1.3248.440415-2.628266.882966-3.938133 1.309484-3.04.99093-6.0864 1.96369-9.121067 2.968517-.510933.168896-.9632.21593-1.502933-.152862zm-.8768-.776068c-.002133-.589 0-1.178.001067-1.767l.005333-11.847345c.001067-.31962 0-.64031 0-1.010172 1.930667-.628552 3.794133-1.236793 5.765333-1.88031 1.185067 1.624827 2.3744 3.256068 3.601067 4.937551-2.9824 4.115517-5.944533 8.20538-8.901333 12.28562-.512-.171034-.4704-.456448-.471467-.718344zm-.421333.333517c-.577067.044897-.919467-.24693-1.208534-.646724-1.8944-2.626448-3.790933-5.251828-5.688533-7.876138-.551467-.76431-1.106133-1.524345-1.710933-2.357069 1.332266-1.841828 2.6688-3.691138 4.033066-5.577862 1.543467.504552 3.0432.994138 4.574934 1.494414v14.96338zm-1.674667-.440414c-3.867733-1.261379-7.7344-2.523827-11.7344-3.829034 1.533867-2.114414 3.009067-4.147586 4.570667-6.301552 2.455466 3.386483 4.856533 6.696 7.256533 10.005517l-.0928.12507zm1.665067-22.296482v7.372655c-1.435734-.470345-2.814934-.922517-4.3264-1.417449 1.458133-2.008586 2.832-3.898517 4.3264-5.955206zm.448-.066276c-.004267-.490655.1408-.848759.56-1.213276 1.634133 2.250172 3.261866 4.491793 4.978133 6.855276-1.902933.61893-3.648 1.18762-5.4752 1.781965-.0288-.286483-.0704-.504551-.0704-.72262.0032-2.234138.0288-4.468276.007467-6.701345zm1.568-1.98507c2.046933.520587 4.1408.890449 6.146133 1.536104 1.952.628552 3.818667 1.524345 5.722667 2.30469.478933.19669.9568.394448 1.633066.674517-3.163733 1.03262-6.109866 1.99469-9.154133 2.988828-1.722667-2.380587-3.412267-4.71307-5.112533-7.063724.1152-.408345.3072-.555863.7648-.440414zm.414933-.875482c.881067.326034 1.744.70338 2.613333 1.060414-.017066.048103-.033066.095138-.0512.143241-1.002666-.248-2.004266-.49493-3.045333-.750414.034133-.337793.164267-.572965.4832-.453241zm5.1488-1.936966c.558933-.181724 1.121067-.35062 1.677867-.539827.443733-.150724.8-.07162 1.0848.32069 1.313066 1.80869 2.631466 3.612034 4.033066 5.535103-4.106666-.63069-7.8304-1.964759-11.617066-3.743517 1.710933-.556931 3.266133-1.065759 4.821333-1.572449zm-4.322133.48531c.855466-.20631 1.7248-.353827 2.589866-.521654.011734.057724.0256.115448.037334.171034-.977067.318552-1.954134.636035-2.9312.954586-.030934-.042758-.061867-.085517-.0928-.127207.130133-.16569.235733-.437206.3968-.476758zm2.769066-.979172c-.746666.14431-1.493333.288621-2.317866.447897.378666-.63069.378666-.63069 2.317866-.447897zm9.3632 7.123587c-.040533.054517-.08.110103-.120533.16569-1.210667-.501346-2.4224-1.00269-3.633067-1.502966.014934-.044897.0288-.088724.042667-.133621.954667.233035 1.9232.421172 2.855467.72369.330666.106896.5728.489586.855466.747207zm-5.357866 8.746275c-1.1808-1.629103-2.264534-3.125655-3.4336-4.737655 2.965333-.964207 5.842133-1.899551 8.72-2.834896.030933.047034.061866.093.093866.140034-1.765333 2.43831-3.530666 4.87769-5.380266 7.432517zm5.6928-7.193069c.045866.018173.091733.036345.136533.054518v9.158896c-1.8336-.595413-3.607467-1.169448-5.522133-1.789448 1.832533-2.525965 3.608533-4.974965 5.3856-7.423966zm.408533-2.463965c-.7744.044897-1.194667-.210586-1.530667-.735448-.4832-.753621-1.0336-1.464483-1.483733-2.254449 1.063467.882966 1.992533 1.889931 3.0144 2.989897zm6.109867 2.64569c-.039467.045965-.078934.093-.119467.140034-1.636267-.783552-3.272533-1.564965-4.907733-2.353862-.129067-.062-.253867-.153931-.353067-.25869-1.2576-1.318034-2.509867-2.642482-3.710933-4.03 3.0784 2.104793 6.078933 4.313276 9.0912 6.502518zm2.750933 2.094103c.474667.156069.722133.484241.7232.985586.001067 2.226655 0 4.45331 0 6.720587-1.623467-1.22076-5.803733-6.908725-7.2-9.820587 1.838933.601828 3.530667 1.155552 5.223467 1.709276.417066.135759.836266.26831 1.253333.405138zm-1.464533 6.205345c.040533-.036345.081066-.07269.1216-.107966.624.732242 1.255466 1.460207 1.869866 2.201.2496.301449.231467.316414.1152 1.311621-.749866-1.211138-1.428266-2.307896-2.106666-3.404655zm-5.906134-9.81631c1.466667.584724 2.744534 1.274206 4.008534 2.026758-.190934-.037414-.3872-.056655-.570667-.11438-.804267-.25655-1.598933-.551585-2.410667-.777137-.539733-.149655-.817066-.48638-1.0272-1.135241zm.6112 1.897413c.321067.606104.711467 1.176931 1.072 1.761655-.0544.038483-.1088.075897-.1632.11331-.765866-.893654-1.531733-1.788378-2.346666-2.739758.706133.024586 1.138133.297173 1.437866.864793zm6.071467 11.404793c-2.453333-.796379-4.903467-1.604517-7.36-2.391275-.401067-.129345-.666667-.257621-.6624-.762173.0224-2.91293.0128-5.825862.018133-8.737724 0-.042759.052267-.085517.088534-.142172 3.517866 3.650517 6.500266 7.680517 8.893866 12.307-.384-.106897-.6848-.177449-.978133-.273656zm-7.885867-2.167862c2.8608.932138 5.712 1.86 8.5632 2.788931.0032.059863.0064.118656.008534.178518-2.832.925724-5.665067 1.851448-8.493867 2.777172-.254933-.53662-.3168-4.613655-.077867-5.74462zm-.024533 6.173276c2.9696-.966345 5.8432-1.90062 8.717867-2.835965l.1024.131482c-1.7728 2.451138-3.546667 4.902276-5.3824 7.44107-1.157334-1.593828-2.253867-3.105345-3.437867-4.736587zM56.884053 38.5175c-2.472533-.802793-4.946133-1.604517-7.4816-2.42869l.478934-.95993c-.337067-.18707-.6304-.349552-.962134-.534483.875734-1.203656 1.735467-2.387 2.660267-3.65907 1.838933 2.542 3.6192 5.00276 5.399467 7.463518l-.094934.118655zm-8.8288 13.271207v-9.502035c2.941867-.955655 5.902934-1.918793 8.992-2.921482-2.413866 4.647862-5.3696 8.691758-8.992 12.423517zm2.2656.089793c1.2256-.380552 2.4416-.79638 3.6608-1.19831.021334.039551.0416.078034.062934.116517-1.501867.719414-3.0016 1.437759-4.6272 2.215965.126933-.641379.376533-.97062.903466-1.134172zm-.7712-.218069c-.264533.156069-.5728.236241-.861866.35169-.026667-.04169-.053334-.084449-.08-.126138.760533-.899 1.522133-1.796931 2.353066-2.77931-.126933.554792-1.125333 2.38593-1.4112 2.553758zm8.8096-17.50431c.072534.893655.1344 1.78731.219734 2.679896.050133.530207-.248534.871207-.688 1.347966.113066-1.457.213333-2.747242.312533-4.036414.052267.003207.104533.005345.155733.008552zm-.004266-7.099c-.049067.002138-.0992.003207-.148267.005344-.101333-1.292379-.203733-2.585827-.312533-3.962655.549333.415828.7456.879759.6848 1.476242-.085334.825241-.151467 1.654758-.224 2.481069zm-.488534-10.879931l.128-.047035c.209067 1.587414.4192 3.173759.648534 4.906552-.5056-.401931-.788267-.725828-.781867-1.254966.014933-1.201517.005333-2.403034.005333-3.604551zm3.575467 10.698207a3.767815 3.767815 0 0 1-.093867.090862c-.0928-.102621-.194133-.198828-.276266-.31107-.555734-.755758-1.109334-1.514723-1.6608-2.274758-.491734-.677724-.4896-.678793-.1888-1.626966.752 1.39607 1.485866 2.759 2.219733 4.121932zm-2.881067-10.835035c1.150934 3.546828 2.3008 7.092586 3.451734 10.640483-.0544.033138-.109867.065207-.165334.098345-.8608-1.60131-1.780266-3.173759-2.554666-4.81569-.312534-.665965-.3264-1.47731-.440534-2.227724-.158933-1.045448-.288-2.094104-.421333-3.143828-.021333-.171034-.0032-.347413.130133-.551586zM63.87072 29.87919c-.6592-1.950862-1.2864-3.913483-1.921067-5.872897-1.278933-3.94769-2.5504-7.898586-3.8464-11.839862-.0928-.283276-.3072-.57831-.5472-.75362C52.495787 7.71312 47.42272 4.03374 42.361387.33619 42.02752.093534 41.696853.006948 41.30112.008017c-1.7952.008552-3.589333.014966-5.384533-.007483-.434134-.005344-.705067.141104-.949334.492794-.757333 1.086069-1.543466 2.152896-2.32 3.226138-4.039466 5.581068-8.077866 11.162137-12.117333 16.742137-.9664 1.335138-1.9424 2.663863-2.898133 4.006483-.3616.508828-.292267.673448.285866.893655.109867.04169.219734.084449.331734.121862 8.404266 2.731207 16.808533 5.462414 25.2128 8.19576 1.755733.571896 3.5072 1.154482 5.3856 1.772344-.9312 1.283828-1.806934 2.492828-2.6816 3.700758-.864 1.192966-1.725867 2.385932-2.589867 3.57676-.881067 1.216482-1.764267 2.430827-2.645333 3.645172-.882134 1.215413-1.764267 2.430827-2.645334 3.64624-.881066 1.215415-1.76 2.435104-2.641066 3.650518-.865067 1.191897-1.748267 2.369897-2.594134 3.57462-.8544 1.217553-1.838933 2.348518-2.645333 3.794828.401067.07269.6688.161414.936533.161414 3.3248.008552 6.6496 0 9.9744.013897.437334.001069.786134-.117586 1.134934-.377345 1.368533-1.019793 2.753066-2.019276 4.132266-3.023035 3.592534-2.617896 7.184-5.233655 10.778667-7.847275.360533-.261897.6464-.53769.7968-1.004828 1.889067-5.884655 3.797333-11.763965 5.719467-17.637931.1664-.504552.161066-.947103-.007467-1.44631z" fill="#FFF" mask="url(#b)"/>
    </g>
  </g>
</svg>
