<svg width="80" height="80" viewBox="0 0 80 80" xmlns="http://www.w3.org/2000/svg">
  <title>
    sys-syscoin
  </title>
  <g fill="none" fill-rule="evenodd">
    <circle fill="#FEFEFE" cx="40" cy="40" r="40"/>
    <g fill-rule="nonzero" fill="#0082C6">
      <path d="M45.797 37.324C75.55 43.012 35.07 74.97 6 46.038c34.286 23.2 51.945 1.4 39.54-8.123-.145-.11-.174-.32-.066-.466.075-.102.2-.15.323-.126z"/>
      <path d="M29.238 24.598c-25.743 8.707 3.75 29.25 6.308 18.873.03-.117-.006-.24-.093-.325-.087-.083-.21-.113-.325-.078-3.786 1.3-24.653-4.867-5.89-18.47z"/>
      <path d="M74 29.83c-22.29-16.81-64.114-2.947-42.538 8.92.077.042.167.05.25.025.084-.026.154-.085.195-.163.048-.092.052-.2.01-.296C23.142 18.712 67.71 24.674 74 29.83z"/>
      <path d="M55.504 54.255c11.782-5.667 2.2-25.055-13.385-21.31-.178.037-.353-.076-.392-.255-.027-.122.017-.25.113-.327 12.13-9.64 34.89 12.858 13.664 21.892z"/>
    </g>
  </g>
</svg>
