<svg width="80" height="80" viewBox="0 0 80 80" xmlns="http://www.w3.org/2000/svg">
  <title>
    taas-taas
  </title>
  <g fill="none" fill-rule="evenodd">
    <circle cx="40" cy="40" r="40" fill="#10314C"/>
    <g fill-rule="nonzero">
      <path fill="#DD0B15" d="M10.08314 32.04174h3.228638v3.241738H10.08314z"/>
      <path fill="#FFF" d="M13.311778 44.716522v-2.949565H19.5612v-3.24174h-9.47806v9.446957h12.623557v-3.255652m34.448037-6.191305v3.24174h9.39492v2.949564H60.30023v3.255657h9.47806V38.52522m-3.1758-3.085415h-9.450347v-3.24174h9.450346zm-40.81958 3.085412v9.446957h9.47806v-3.116522h3.145497v-6.330435H25.78291zm9.39492 6.191305h-6.166282v-2.949565h6.16628v2.949565zM25.78291 32.04174h12.623557v3.241738H25.78291zm15.755196 6.483477v9.446957h9.47806v-3.116522h3.145497v-6.330435H41.538106zm9.381062 6.191305h-6.166282v-2.949565h6.166282v2.949565zM41.538106 32.04174h12.623557v3.241738H41.538106z"/>
    </g>
  </g>
</svg>
