<svg width="80" height="80" viewBox="0 0 80 80" xmlns="http://www.w3.org/2000/svg" xmlns:xlink="http://www.w3.org/1999/xlink">
  <title>
    tau-lamden
  </title>
  <defs>
    <path id="a" d="M0 .9874h12.4638v6.248H0z"/>
    <path id="c" d="M.3061.9837H12.708v6.16H.3061z"/>
    <path id="e" d="M.6494.6521h6.187V13H.6494z"/>
  </defs>
  <g fill="none" fill-rule="evenodd">
    <circle fill="#FFF" cx="40" cy="40" r="40"/>
    <path d="M57.1157 41.8642c2.095 2.09 4.182 4.173 6.245 6.231-2.049 2.039-4.138 4.118-6.245 6.214v-12.445z" fill="#055463"/>
    <path d="M55.5737 41.8393v12.435c-2.056-2.065-4.149-4.166-6.218-6.244 1.979-1.971 4.073-4.055 6.218-6.191" fill="#0F4462"/>
    <path d="M41.8354 57.0898h12.511c-2.123 2.094-4.234 4.175-6.296 6.208-1.997-1.994-4.096-4.091-6.215-6.208" fill="#222F63"/>
    <path d="M54.2661 24.1963c-2.08 2.065-4.167 4.137-6.244 6.199-1.985-2.001-4.06-4.092-6.149-6.199h12.393z" fill="#007C51"/>
    <path d="M57.1089 37.8306v-12.359c2.069 2.067 4.15 4.147 6.214 6.21-2.016 1.994-4.109 4.065-6.214 6.149" fill="#006A5A"/>
    <g transform="translate(9 39.6644)">
      <mask id="b" fill="#fff">
        <use xlink:href="#a"/>
      </mask>
      <path d="M12.4638.9874c-2.109 2.11-4.194 4.196-6.245 6.248-2.051-2.061-4.131-4.151-6.219-6.248h12.464z" fill="#8A176D" mask="url(#b)"/>
    </g>
    <g transform="translate(58 39.6644)">
      <mask id="d" fill="#fff">
        <use xlink:href="#c"/>
      </mask>
      <path d="M6.4931 7.1437c-1.983-1.975-4.075-4.057-6.187-6.16h12.402c-2.058 2.039-4.148 4.112-6.215 6.16" fill="#055463" mask="url(#d)"/>
    </g>
    <path d="M25.6054 24.1904h12.127c-2.031 2.029-4.089 4.085-6.115 6.109-1.936-1.967-3.982-4.046-6.012-6.109" fill="#C9157A"/>
    <path d="M55.5478 25.4214v12.385c-2.079-2.073-4.156-4.145-6.217-6.2 2.02-2.01 4.092-4.071 6.217-6.185" fill="#007E4E"/>
    <path d="M33.0683 15.0425c1.881-1.901 3.898-3.94 5.977-6.042v12.128c-1.941-1.977-3.97-4.043-5.977-6.086" fill="#FA007C"/>
    <path d="M39.1255 58.376v12.179c-1.98-1.98-4.07-4.069-6.119-6.117 1.919-1.901 4.016-3.979 6.119-6.062" fill="#442166"/>
    <path d="M24.2456 25.4917c2.068 2.066 4.131 4.128 6.146 6.141-2.012 2.018-4.068 4.081-6.146 6.166v-12.307z" fill="#D3007A"/>
    <path d="M48.1816 49.3564c1.974 1.988 4.047 4.077 6.135 6.18h-12.328c2.029-2.025 4.124-4.116 6.193-6.18" fill="#0F4464"/>
    <path d="M37.8833 57.1011c-2.095 2.084-4.181 4.16-6.215 6.184-2.014-2.02-4.11-4.124-6.164-6.184h12.379z" fill="#442166"/>
    <path d="M30.3701 48.2129c-1.976 1.965-4.068 4.047-6.166 6.134v-12.423c2.039 2.08 4.097 4.179 6.166 6.289m1.3496 1.2661c1.941 1.925 4.027 3.993 6.118 6.067h-12.23c2.008-1.993 4.087-4.057 6.112-6.067" fill="#68216C"/>
    <g transform="translate(40 57.6644)">
      <mask id="f" fill="#fff">
        <use xlink:href="#e"/>
      </mask>
      <path d="M.6494 13.0001V.6521c2.087 2.108 4.157 4.199 6.187 6.248-2.001 1.973-4.112 4.054-6.187 6.1" fill="#222F63" mask="url(#f)"/>
    </g>
    <path d="M16.5332 48.0679c1.994-2.002 4.052-4.07 6.111-6.138v12.258c-2.032-2.036-4.106-4.112-6.111-6.12" fill="#8D166B"/>
    <path d="M21.2885 39.0654H9.1765c2.002-1.999 4.065-4.058 6.093-6.083 1.912 1.933 3.976 4.018 6.019 6.083" fill="#AE0F72"/>
    <path d="M16.5107 31.5288c1.945-1.947 4.009-4.013 6.111-6.118v12.27c-1.999-2.012-4.048-4.074-6.111-6.152" fill="#AF0F71"/>
    <path d="M31.6836 16.4878c1.993 1.978 4.012 3.98 6.102 6.053h-12.157c2.003-2.002 4.044-4.043 6.055-6.053" fill="#FA007C"/>
    <path d="M40.6743 21.3564V9.2884c1.971 1.969 4.025 4.021 6.058 6.051-1.878 1.865-3.951 3.924-6.058 6.017" fill="#008C41"/>
    <path d="M64.6606 33.0098c1.884 1.891 3.944 3.957 6.019 6.039h-12.122c2.008-1.987 4.089-4.046 6.103-6.039" fill="#006A5A"/>
    <path d="M41.9521 22.582c2.104-2.099 4.152-4.142 6.101-6.086 2.018 1.988 4.073 4.015 6.174 6.086h-12.275z" fill="#008C41"/>
  </g>
</svg>
