<svg width="80" height="80" viewBox="0 0 80 80" xmlns="http://www.w3.org/2000/svg">
  <title>
    tcc-thechampcoin
  </title>
  <g fill="none" fill-rule="evenodd">
    <circle fill="#26252C" cx="40" cy="40" r="39"/>
    <circle stroke="#EACA85" stroke-width="2" cx="40" cy="40" r="39"/>
    <path d="M36.753247 61.282854c.749104.077452 1.50935.118216 2.27922.118216 1.193806 0 2.379-.10242 3.545455-.295032v17.384204h5.064935v-18.86344c2.812052-1.202547 5.378455-2.984968 7.49661-5.26726l-1.850727-1.7386c-3.67613 3.960765-8.872753 6.232357-14.256273 6.232357-10.75235 0-19.5-8.80051-19.5-19.617836s8.74765-19.617834 19.5-19.617834c5.20878 0 10.10556 2.040765 13.788273 5.746243L54.6117 23.5626c-2.034077-2.04688-4.397882-3.640766-6.968843-4.738855V1.999795l-5.064935-1v16.358982c-1.161896-.187516-2.34557-.288917-3.545455-.288917-.76987 0-1.530116.040764-2.27922.118726V.999796l-5.064935 1v16.3414C23.140727 21.39088 17 29.603874 17 39.235466c0 9.6321 6.140727 17.844586 14.688312 20.894777V78.74502h5.064935V61.282853zm13.92344-9.77789c-2.633375-1.198365-4.818343-3.196482-6.243056-5.684378-1.476177 1.15987-3.33605 1.857312-5.363565 1.857312-4.783695 0-8.66242-3.854922-8.66242-8.61039 0-4.755467 3.878725-8.61039 8.66242-8.61039 2.027516 0 3.887388.697442 5.363567 1.857312 1.424714-2.487896 3.609682-4.486013 6.243058-5.684377-3.046115-2.810026-7.123057-4.530077-11.606624-4.530077C29.642802 22.099976 22 29.696872 22 39.067508c0 9.370636 7.642802 16.967533 17.070064 16.967533 4.483567 0 8.56051-1.72005 11.606624-4.530076z" fill="#EACA85"/>
  </g>
</svg>
