<svg width="80" height="80" xmlns="http://www.w3.org/2000/svg"><g fill="none" fill-rule="evenodd"><circle fill="#2870DB" cx="40" cy="40" r="40"/><path d="M40.063 68.37c15.66.105 28.432-12.95 28.374-28.283-.058-15.298-12.81-28.142-28.36-28.176-15.338-.033-28.398 12.68-28.423 28.213-.026 15.502 12.907 28.387 28.41 28.247m.005 3.589C22.337 71.637 8.146 57.737 8.141 40.13 8.135 22.71 22.31 8.443 40.019 8.409c17.499-.034 31.952 14.095 31.928 31.772-.025 17.571-14.187 31.43-31.878 31.78" fill="#FFF"/><path d="M39.743 24.22v-.003c-4.466 0-8.932-.001-13.399.002-.432 0-.87 0-1.297.055-1.485.195-2.464 1.31-2.396 2.693.07 1.376 1.05 2.224 2.636 2.24 1.867.019 3.734-.007 5.6.02 1.036.015 1.305.303 1.33 1.311.017.663.008 1.327.003 1.99-.01 1.407-.196 1.64-1.63 1.591-1.799-.063-3.491.183-5.119 1.025-2.196 1.135-3.768 2.864-4.306 5.19-.408 1.76-.354 3.614.63 5.396 1.337 2.419 3.326 3.782 5.924 4.369.866.195 1.788.16 2.685.19 1.46.049 1.712.272 1.804 1.748.027.43.012.863.014 1.294.005 1.326-.026 2.654.022 3.979.051 1.422 1.027 2.597 2.175 2.722 1.668.18 2.745-.822 2.798-2.707.051-1.823.009-3.648.024-5.472.01-1.25.102-1.34 1.332-1.497.23-.03.464-.045.697-.052 2.77-.083 2.767-.082 2.771 2.686.002 1.559-.01 3.118.031 4.676.023.86.945 2.142 1.656 2.295 1.021.22 2.043.188 2.664-.817.314-.51.605-1.122.633-1.7.084-1.787.018-3.58.047-5.371.026-1.592.23-1.771 1.79-1.773 1.466-.002 2.933.007 4.4-.006.598-.006 1.206.002 1.792-.1 1.643-.288 2.2-1.886 1.238-3.228-.492-.686-1.07-.905-1.858-.9-2.033.016-4.067-.004-6.1-.01-.557-.001-1.191-.035-1.204-.737-.035-2.019 0-4.04.045-6.059.015-.633.42-.916 1.072-.904 1.166.021 2.332.01 3.499.001 1.066-.006 2.138.043 3.196-.057 1.418-.134 2.356-1.796 1.672-2.85-.552-.853-1.244-1.38-2.373-1.336-1.93.076-3.865.027-5.798.015-1.166-.007-1.35-.188-1.374-1.316-.016-.73-.013-1.46-.003-2.189.015-1.225.176-1.394 1.383-1.404 2.1-.017 4.2.025 6.298-.041 1.618-.052 2.59-1.87 1.836-3.296-.626-1.182-1.612-1.676-2.942-1.67-4.633.02-9.266.008-13.898.008m.32 44.15c-15.502.14-28.435-12.745-28.41-28.247C11.68 24.59 24.74 11.877 40.077 11.91c15.55.034 28.302 12.878 28.36 28.176.058 15.334-12.714 28.388-28.374 28.284" fill="#2870DB"/><path d="M42.04 31.71c0-2.567-.004-2.637-2.277-2.471-2.86.209-2.508-.168-2.524 2.597-.014 2.264.03 2.294 2.349 2.297 2.452.004 2.452.004 2.452-2.424zm-.011 10.593h-.022c0-.927.037-1.856-.014-2.781-.029-.525-.145-1.126-.863-1.134-.93-.011-1.862.022-2.789.084-.717.049-1.071.52-1.079 1.2-.02 1.79-.006 3.579-.008 5.368 0 .572.31.854.857.885.929.053 1.859.09 2.788.128.812.033 1.14-.398 1.132-1.165-.009-.861-.002-1.723-.002-2.585zm-9.815.017h.008v-1.39c-.005-2.565-.355-2.89-2.857-2.351-1.994.43-3.437 1.473-3.383 3.615.038 1.48.646 2.362 1.837 3.142.883.577 1.811.602 2.75.696 1.197.12 1.59-.248 1.64-1.427.031-.76.005-1.523.005-2.285zm7.529-18.1c4.633 0 9.265.013 13.898-.007 1.33-.006 2.316.488 2.941 1.67.754 1.425-.217 3.244-1.834 3.296-2.098.066-4.2.024-6.3.041-1.206.01-1.366.18-1.382 1.404-.01.73-.013 1.46.003 2.189.025 1.128.209 1.31 1.374 1.316 1.933.012 3.868.06 5.798-.015 1.13-.044 1.821.483 2.373 1.335.684 1.055-.254 2.717-1.672 2.852-1.058.1-2.13.05-3.196.056-1.166.008-2.333.02-3.5 0-.65-.013-1.056.27-1.07.903-.046 2.019-.081 4.04-.046 6.059.013.702.648.736 1.204.738 2.034.005 4.066.025 6.1.01.788-.006 1.366.213 1.858.9.962 1.34.405 2.94-1.238 3.226-.586.103-1.194.095-1.793.1-1.466.014-2.933.005-4.399.007-1.561.002-1.764.181-1.79 1.772-.03 1.791.037 3.585-.047 5.372-.027.578-.319 1.19-.633 1.7-.621 1.005-1.643 1.038-2.664.817-.712-.153-1.632-1.435-1.656-2.295-.042-1.558-.028-3.117-.03-4.676-.005-2.768-.002-2.77-2.772-2.686a7.16 7.16 0 0 0-.697.052c-1.23.157-1.321.248-1.332 1.497-.015 1.824.027 3.65-.024 5.472-.053 1.885-1.13 2.887-2.798 2.706-1.147-.124-2.124-1.299-2.175-2.721-.048-1.325-.017-2.653-.022-3.98-.002-.43.013-.863-.014-1.293-.092-1.476-.345-1.7-1.804-1.748-.897-.03-1.82.005-2.684-.19-2.598-.587-4.588-1.95-5.924-4.369-.985-1.782-1.038-3.637-.63-5.396.538-2.326 2.11-4.055 4.306-5.19 1.627-.842 3.32-1.088 5.118-1.025 1.434.05 1.62-.184 1.63-1.59.006-.664.014-1.328-.003-1.99-.025-1.01-.293-1.297-1.33-1.311-1.866-.028-3.733-.002-5.6-.022-1.587-.016-2.566-.863-2.635-2.239-.07-1.382.91-2.497 2.396-2.693.427-.056.864-.054 1.296-.055 4.467-.003 8.933-.002 13.399-.002v.004z" fill="#FFF"/><path d="M32.214 42.32c0 .762.026 1.524-.006 2.285-.049 1.179-.443 1.547-1.638 1.427-.94-.094-1.868-.119-2.75-.696-1.192-.78-1.8-1.662-1.838-3.142-.055-2.142 1.389-3.186 3.383-3.615 2.502-.54 2.852-.214 2.857 2.35v1.391h-.008zM42.029 42.303c0 .862-.007 1.724.002 2.585.008.767-.32 1.198-1.132 1.165-.93-.038-1.86-.075-2.788-.128-.547-.031-.858-.313-.857-.885.001-1.79-.013-3.579.008-5.367.008-.681.361-1.152 1.079-1.2.928-.063 1.86-.096 2.788-.085.72.009.835.609.864 1.134.051.924.014 1.854.014 2.781h.022zM42.04 31.71c0 2.427 0 2.427-2.452 2.423-2.32-.003-2.363-.033-2.35-2.297.017-2.765-.336-2.388 2.525-2.597 2.273-.166 2.278-.096 2.277 2.47" fill="#2870DB"/></g></svg>