<svg width="80" height="80" viewBox="0 0 80 80" xmlns="http://www.w3.org/2000/svg" xmlns:xlink="http://www.w3.org/1999/xlink">
  <title>
    tel-telcoin
  </title>
  <defs>
    <path d="M30.370802.359775L8.85891 8.039005c-2.240794.800618-4.41509 3.343835-4.826843 5.657252L.083136 35.88576c-.411752 2.312747.74626 5.4375 2.582019 6.95097l17.562964 14.510273c1.829041 1.51213 5.16135 2.094336 7.401472 1.293048l21.513908-7.68526c2.240794-.800617 4.414419-3.343164 4.826171-5.65591l3.949602-22.190175c.405035-2.308056-.753649-5.43884-2.588064-6.952309L37.772946 1.652823C36.502088.601636 34.503778 0 32.650556 0c-.812087.00067-1.596634.115905-2.279754.359775zm-8.920188 33.42629c.401006-2.061507 1.616784-7.64975 1.616784-7.64975l-3.592256-.0067.755663-3.888523c5.483767-2.157313 7.970403-6.563725 7.970403-6.563725h2.660608l-1.170103 5.94668 8.214902-.0134-.87657 4.508248-8.211544-.00201-1.526104 7.850743c-.47355 2.436022-.603187 3.804776 1.862627 3.804776H34.7026l-1.163386 4.983929h-6.631703c-3.924076 0-6.47654-3.72304-5.456898-8.970268z" id="a"/>
  </defs>
  <g fill="none" fill-rule="evenodd">
    <circle fill="#FFF" cx="40" cy="40" r="40"/>
    <use fill="#00CAFF" xlink:href="#a" transform="translate(11 11)"/>
  </g>
</svg>
