<svg width="80" height="80" viewBox="0 0 80 80" xmlns="http://www.w3.org/2000/svg">
  <title>
    tgt-targetcoin
  </title>
  <g fill="none" fill-rule="evenodd">
    <circle fill="#000" cx="40" cy="40" r="40"/>
    <path d="M39.925292 73.03982c18.420204-.019413 33.295115-14.835902 33.283478-33.152747C73.197312 21.68351 58.273706 6.849567 39.989205 6.866666 21.590483 6.883944 6.69015 21.676386 6.69767 39.916996c.007698 18.271426 14.925576 33.142062 33.227622 33.122825m.08629-67.86152c19.307827.03402 34.931612 15.63547 34.893658 34.84308-.038133 19.18463-15.752864 34.7469-35.047263 34.70682C20.596697 74.68812 4.9457 59.01828 5.000125 39.82848 5.05455 20.68998 20.7623 5.14428 40.011583 5.1783" fill="#FFF"/>
    <path d="M28.512427 67.491137c7.715218 3.028347 15.303325 2.996998 23.016394-.037226-.26066-.58814-.46923-1.0589-.69838-1.5758-7.23363 2.85736-14.40836 2.88924-21.64181.02654-.22826.53542-.43092 1.01135-.67619 1.58649M13.91967 50.79445c-2.900437-7.207506-2.91476-14.346437-.051204-21.538804-.544246-.223536-1.026726-.422136-1.619668-.6658-3.021996 7.673636-3.055296 15.2201.076624 22.881092.566624-.24028 1.021356-.43318 1.594246-.67649M51.3745 12.385642c-7.70967-3.010533-15.29366-3.00412-22.96555.06252.131047.357303.20982.605242.312582.843028.102583.236896.229335.463283.371483.745954 7.222532-2.876055 14.424297-2.85201 21.633402-.059312.23005-.565344.416777-1.023995.648082-1.59219m14.60672 16.703284c2.90079 7.241883 2.91314 14.3801.05084 21.57995.56018.221576 1.06396.42089 1.6467.651373 3.00105-7.7025 3.01841-15.25341-.10581-22.90212-.58686.2474-1.04141.43888-1.59174.67079M34.37327 41.58615c0 1.406053-.02041 2.65127.004298 3.895773.04727 2.371272-.03025 4.75804.22128 7.109186.30077 2.813 1.88499 4.88094 4.59315 5.85132 3.670792 1.31521 7.105447.46809 10.34138-1.46947.148415-.08888.29271-.41252.24366-.56428-.415348-1.28458-.875987-2.55456-1.33215-3.85499-.7589.32969-1.39427.65992-2.065806.88257-.675116.22371-1.378697.39275-2.082994.49409-2.30982.33219-3.879896-.668118-4.154705-2.949085-.25064-2.079697-.150027-4.20196-.18941-6.3057-.0188-.99888-.003226-1.99812-.003226-3.091045h1.078822c2.50603.000178 5.01225.0114 7.51793-.015674.25995-.00285.73562-.22211.74189-.35766.05765-1.25679.03401-2.51715.03401-3.88135h-9.31949v-4.01956c.40066 0 .74941.00018 1.09798 0 2.47631-.001243 4.95263.010156 7.42841-.02155.27982-.00356.77197-.220863.796494-.39168.09435-.65458.038135-1.33071.038135-2.09519h-9.43228v-9.86875h-5.59714v9.932878H30.0782v2.490432h4.241536v4.02259H29.99889c0 1.147074.043684 2.18229-.0145 3.211807-.042967.761808.170792 1.064963.988056 1.012597 1.091535-.07 2.190947-.017274 3.40082-.017274m5.55202 31.45369c-18.302044.01923-33.21992-14.85158-33.22762-33.12301C6.690146 21.676403 21.59048 6.88378 39.9892 6.86668c18.2845-.0171 33.208108 14.816845 33.219566 33.02023.011637 18.316844-14.863274 33.133333-33.283478 33.152926" fill="#000"/>
    <path d="M34.373325 41.58606c-1.209872 0-2.309284-.052722-3.400998.017278-.817084.052545-1.030844-.25061-.987877-1.012595.058184-1.029517.0145-2.064733.0145-3.21163l4.320845.000002V33.35652h-4.241713v-2.490435h4.25532v-9.933053h5.597314v9.868753h9.432276c0 .764657.056215 1.44061-.038133 2.09537-.02471.170813-.51668.387938-.7965.3915-2.47596.031883-4.95228.020306-7.42842.02173-.34875.00018-.69732 0-1.09798 0v4.01939h9.31949c0 1.364377.02345 2.624733-.03402 3.881527-.00627.135547-.48195.35481-.7419.35748-2.50568.027075-5.011898.01603-7.51811.015853-.32046-.000178-.64074 0-1.078645 0 0 1.092748-.015573 2.092163.003225 3.090865.039386 2.103742-.061407 4.226185.18923 6.30588.27481 2.280966 1.845065 3.28127 4.154707 2.949083.704475-.101348 1.408055-.270382 2.08317-.494275.671535-.222468 1.306906-.552697 2.065806-.88257.45616 1.300433.9168 2.570586 1.33215 3.855166.04887.151755-.09525.475216-.24366.564096-3.23611 1.937558-6.67077 2.784682-10.34138 1.469466-2.70816-.970382-4.29256-3.03832-4.59333-5.851323-.251357-2.351145-.17384-4.737735-.2211-7.109186-.024707-1.244325-.0043-2.48972-.0043-3.895776M65.98122 29.089c.550333-.231908 1.004885-.423384 1.59174-.67079 3.12422 7.648703 3.106853 15.19944.105805 22.902113-.582738-.230483-1.086523-.429796-1.6467-.651374 2.8623-7.19985 2.849947-14.33807-.050846-21.57995M51.37444 12.38566c-.231303.568192-.41785 1.026844-.64808 1.59201-7.208927-2.79252-14.41069-2.816566-21.6334.05949-.14197-.28267-.268724-.509058-.371307-.746132-.10294-.237608-.181713-.485725-.312762-.84285 7.67208-3.06664 15.25589-3.073053 22.96555-.06252M13.91972 50.7945c-.57307.243128-1.027802.43603-1.594247.676487-3.131918-7.660992-3.09862-15.207633-.076624-22.881094.59294.243664 1.07542.442087 1.61948.665802-2.86338 7.192366-2.84924 14.331297.05138 21.538804m14.59271 16.69663c.24527-.57514.44793-1.05107.67619-1.58649 7.23345 2.86269 14.40818 2.83081 21.64181-.02654.22915.51689.43772.98765.69839 1.5758-7.71307 3.03422-15.30118 3.06557-23.0164.03722" fill="#FFF"/>
  </g>
</svg>
