<svg width="80" height="80" xmlns="http://www.w3.org/2000/svg">
  <defs>
    <linearGradient x1="0%" y1="50%" y2="50%" id="a">
      <stop stop-color="#5AC383" offset="0%"/>
      <stop stop-color="#447B53" offset="100%"/>
    </linearGradient>
  </defs>
  <g fill="none" fill-rule="evenodd">
    <circle fill="#FFF" cx="40" cy="40" r="40"/>
    <path d="M9.11992 45.915386c-.635249 0-1.27043-.000065-1.905613-.000131-.000066-.085232-.000328-.170463-.000328-.255694 0 .085231.000262.170462.000328.255694.635182.000066 1.270364.000131 1.905612.000131-.000131-.073863-.000328-.147725-.000328-.221523 0 .073798.000197.14766.000328.221523.410182.000395.82043.000657 1.230612.001117-.410182-.00046-.82043-.000722-1.230612-.001117m2.824308-28.997085c-.069927-.003549-.121094-.023-.10817-.110663.005772-.038837.000917-.079317.000917-.119009-.000065-5.500548-.000065-11.001097.000197-16.50158 0-.062363.003083-.124726.004658-.187088H5.954963c.002952.073534.008396.147068.008396.220602.00046 5.477943.000394 10.955886.000394 16.433895 0 .246165 0 .246165-.246582.263777-.453804-.013406-.907609-.01242-1.361414 0-.47637-.01334-.95274-.01242-1.429176 0-.53285-.013997-1.0657-.011697-1.59855-.000526-.428156-.014523-.856246-.01242-1.284468-.00046-.014497-.003088-.02906-.006177-.043556-.009266v5.863358c.011938-.00046.023812-.000855.035816-.001249.155598.032069.31382.014523.470335.01886.274198.007623.549512.026023.823513-.010449.52675.026878 1.05363.018335 1.580445.004732.005313-.000132.010561-.003746.015809-.005717.042638.019517.088163.014851.132835.014917.38788.00046.775758.000657 1.163572.000394.044737 0 .090262.004863.132704-.015443.054052.022869.111057.014457.166815.014589a244.524242 244.524242 0 0 0 1.029817.000394c.055758-.000131.112763.008609.166618-.015048.072551.035288.174162-.022343.224476.041662.052543.066832.020138.164549.020138.2484.000919 7.571666.000853 15.143463.00046 22.715195 0 .056383-.005445.1127-.008397.169148h5.886866c-.00164-.033908-.004723-.067817-.004723-.10166-.000197-7.617337-.000197-15.234674-.000132-22.852011 0-.03404.004658-.068934-.000787-.102054-.014234-.087138.04382-.104552.107318-.118812m0 0c.054643.021554.11191.013472.167996.013472 1.499562.000722 2.99906.001051 4.498622.000854.05602 0 .113353.00874.167733-.014194.06796.011434.116436.0368.104235.120914-.006428.044488-.00105.090686-.00105.13616 0 3.947326-.000065 7.894717.000263 11.842108 0 .219815-.023222.197538.202893.197735 1.201947.000657 2.403893.000657 3.605839.000328.05648 0 .112959-.004928.169439-.007557l1.78478.007492c.005642.000065.01135-.00046.01699-.000066.05543.003943.084425-.020634.08508-.077543.000788-.073797.003674-.147594.003674-.221391.000197-3.906452.000197-7.812903.000197-11.719289 0-.045474-.00105-.090883.000263-.136291.003804-.124069.004198-.124398.120896-.128998.033914-.001314.06796-.000328.101939-.000328 1.037296.000131 2.074526.000197 3.111756.000263.03398 0 .068156.002234.102005-.000263.075175-.00552.111778.019911.117157.103303.038047.58926.114927 1.174248.20578 1.757265.04605.295912.079373.594583.162617.883726.005903.0506.00833.101857.018236.151603.076355.383837.163207.765309.26121 1.144217.412543 1.59482 1.040641 3.093829 1.969963 4.459766.637675.937348 1.391655 1.774943 2.17653 2.589011.618718.6417 1.329928 1.14448 2.127399 1.532063.772544.375426 1.58169.64814 2.412616.858163 1.733222.438051 3.500292.620211 5.281531.674491 1.342981.04094 2.685962.021226 4.025729-.098571.001312-.025366.003149-.050863.004723-.07636-.001574.025497-.003411.050994-.004723.07636.013185.001511.026436.002891.03962.004337v-4.636077l-.039358.00414c-.062252.001511-.124635.001446-.186822.004797-.900328.047643-1.801312.076557-2.702624.087663-1.06629.013143-2.131793-.003877-3.18949-.164286-.698811-.106063-1.372368-.294728-2.006763-.614034-.57608-.289866-1.088856-.672257-1.594614-1.067989-1.138054-.890165-1.988659-1.99732-2.535219-3.33684-.540328-1.324142-.760342-2.703945-.710357-4.130142.007937-.226715-.013054-.206475.219621-.206475 1.639089-.000263 3.278047-.000065 4.91707-.000065.0511 0 .102136-.001906.153105-.000395.063958.001972.094592-.025431.090131-.091211-.002296-.033909-.000197-.068146-.000197-.102252 0-1.82942.000263-3.658774-.000262-5.48826-.000066-.225202.021582-.197537-.202172-.197602-1.7468-.000658-3.493535-.000395-5.240335-.000395-.039687 0-.079701-.002957-.11906.000592-.08167.007425-.123061-.017809-.129228-.109415-.013119-.198128-.046311-.395074-.055233-.593268-.03798-.839369.051429-1.666843.248419-2.482883.35285-1.462011 1.015714-2.775771 1.89892-3.98452.617275-.844823 1.389163-1.508143 2.317566-1.987594 1.097253-.566589 2.275059-.828855 3.498062-.895029 1.385029-.074848 2.750772.067949 4.093557.420572.043425.011434.086064.030622.135852.009988.019024-.0529.010824-.110071.010824-.165994.00046-1.818052.000328-3.636103.000328-5.454154 0-.034106-.001771-.068278.000131-.102252.003083-.056251-.022828-.084377-.078192-.087071-.03398-.001643-.067894-.004272-.101873-.004929-1.133987-.021554-2.26745-.028126-3.400387.050797-1.013221.070577-2.01949.189126-3.015984.385546-1.204504.237426-2.375947.583083-3.495896 1.092894-1.439541.655237-2.696524 1.557955-3.734672 2.759015-.41648.481751-.783105 1.001354-1.16167 1.51202-.16957.228685-.31992.468608-.450196.721411-.289286.561594-.511268 1.150854-.707274 1.749971-.397522 1.21532-.68812 2.457846-.924862 3.713383-.05766.306295-.125029.611603-.148513.923615-.007675.020831-.01922.041137-.0225.062625-.11473.757686-.20847 1.517475-.232412 2.284623-.006232.199443.01699.179597-.189971.179729-1.0657.000591-2.131334.001445-3.196968-.000197-.279708-.00046-.245204.041334-.24527-.240318-.000721-5.070842-.000459-10.141685-.000721-15.212462 0-.153312-.001575-.306623-.004723-.459869-.002624-.127814-.004133-.1311-.135853-.131889-.453477-.002562-.906954-.003942-1.360365-.002957-.129948.000263-.260488-.012814-.389912.01012-.066647-.020765-.135197-.010843-.202762-.010908-1.179315-.00046-2.358696-.000789-3.538076.000525-.272624.000329-.236611-.034105-.236677.2323-.000656 5.191626-.000525 10.383252-.000525 15.574878 0 .051125-.004591.102711.000722.153245.008921.084049-.04782.088517-.105218.095483-.045-.002694-.089935-.007754-.134935-.007754-1.520816-.000132-3.041567.000197-4.562318.000854-.045 0-.090065.0046-.135065.007032" transform="translate(17 18)" fill="url(#a)"/>
  </g>
</svg>
