<svg width="80" height="80" viewBox="0 0 80 80" xmlns="http://www.w3.org/2000/svg">
  <title>
    time-chronobank
  </title>
  <g fill="none" fill-rule="evenodd">
    <circle fill="#5443A2" cx="40" cy="40" r="40"/>
    <g fill-rule="nonzero">
      <path d="M65.017 28.573c-2.458-.493-4.398-2.405-4.9-4.826h3.643c.692 0 1.257.554 1.257 1.237v3.59zm0 20.035c-3.843.545-6.885 3.543-7.44 7.33h-35.38c-.554-3.787-3.596-6.785-7.44-7.33V31.076c3.844-.545 6.886-3.543 7.44-7.33h35.38c.555 3.787 3.597 6.785 7.44 7.33v17.532zm0 6.092c0 .683-.565 1.238-1.257 1.238h-3.642c.5-2.422 2.44-4.333 4.9-4.827v3.59zm-49.003 1.238c-.692 0-1.256-.555-1.256-1.238v-3.59c2.457.495 4.398 2.406 4.898 4.828h-3.642zm-1.256-30.954c0-.683.564-1.237 1.256-1.237h3.642c-.5 2.42-2.44 4.333-4.898 4.826v-3.59zM63.76 21.27H16.014c-2.078 0-3.77 1.666-3.77 3.714V54.7c0 2.048 1.692 3.714 3.77 3.714H63.76c2.08 0 3.77-1.666 3.77-3.714V24.984c0-2.048-1.69-3.714-3.77-3.714z" fill="#D9A162"/>
      <path d="M40.035 27.646c-6.904 0-12.478 5.492-12.478 12.295 0 6.805 5.574 12.298 12.478 12.298 6.905 0 12.478-5.493 12.478-12.297 0-6.802-5.573-12.294-12.478-12.294zm0 2.186c5.657 0 10.26 4.535 10.26 10.11 0 5.574-4.603 10.11-10.26 10.11s-10.26-4.536-10.26-10.11c0-5.575 4.603-10.11 10.26-10.11z" fill="#4B8FB9"/>
      <path d="M44.833 39.668h-4.27v-4.754c0-.6-.5-1.093-1.11-1.093-.61 0-1.11.493-1.11 1.094v5.3c0 .11.03.192.03.274-.03.082-.03.192-.03.273 0 .603.5 1.094 1.11 1.094h5.38c.61 0 1.11-.49 1.11-1.093 0-.6-.5-1.092-1.11-1.092" fill="#4B8FB9"/>
    </g>
  </g>
</svg>
