<svg width="80" height="80" viewBox="0 0 80 80" xmlns="http://www.w3.org/2000/svg">
  <title>
    tio-trade-token
  </title>
  <g fill="none" fill-rule="evenodd">
    <circle fill="#FFF" cx="40" cy="40" r="40"/>
    <path d="M39.885128 24H14.354872c-.964886.013027-1.825448.608902-2.175656 1.506479-.350207.897577-.120078 1.917489.58181 2.578521a7.781824 7.781824 0 0 0 .761025.559l26.377436 18.776667L39.885128 24z" fill="#4896D3"/>
    <path d="M39.885128 65.022V24L26.674872 38.018l10.869743 27.147333c.114046.359734.294211.69512.531282.989.447476.535928 1.110317.845751 1.809231.845667v-1.978z" fill="#94E9F4"/>
    <path fill="#6FD2F2" d="M39.885128 24L26.674872 38.018l13.210256 9.402667z"/>
    <path d="M39.885128 24h25.530257c.967495.007273 1.833354.60105 2.187229 1.499926.353874.898877.124656 1.922231-.579024 2.585074a7.810535 7.810535 0 0 1-.761026.559L39.885128 47.420667V24z" fill="#94E9F4"/>
    <path d="M39.885128 65.022V24l13.224616 14.018L42.24 65.165333c-.114045.359734-.294211.69512-.531282.989-.447476.535928-1.110316.845751-1.80923.845667l-.01436-1.978z" fill="#4896D3"/>
    <path fill="#415369" d="M39.885128 24l13.224616 14.018-13.224616 9.402667z"/>
  </g>
</svg>
