<svg width="80" height="80" viewBox="0 0 80 80" xmlns="http://www.w3.org/2000/svg">
  <title>
    tix-blocktix
  </title>
  <g fill="none" fill-rule="evenodd">
    <circle fill="#ED4B52" cx="40" cy="40" r="40"/>
    <path d="M38.963768 43.168c.235507.464.35326.928.471015 1.392.117753.464.117753 1.044.117753 1.624 0 1.856-.471014 3.48-1.530797 4.64-1.059786 1.276-2.59058 2.204-4.592394 2.784-1.29529.464-2.826087.58-4.474638.58H16.00181c-.35326 0-.706522-.116-.94203-.348-.235507-.232-.35326-.58-.35326-.928v-2.784c0-.348.117753-.696.35326-1.044.235508-.348.58877-.348.94203-.348h13.30616c1.530796 0 2.708332-.232 3.532608-.812.70652-.464.94203-1.16.94203-2.088 0-.928-.353262-1.624-.94203-2.204-.824276-.696-2.119566-1.044-3.768116-1.044h-13.07065c-.35326 0-.706522-.116-.94203-.348-.235507-.232-.35326-.58-.35326-1.044v-2.668c0-.348.117753-.696.35326-.928.235508-.232.58877-.348.94203-.348h12.246376c.706522 0 1.177537-.116 1.64855-.116.471016-.116.824276-.232 1.177537-.348.235508-.232.471015-.348.706522-.58.235507-.232.235507-.348.35326-.58.235508-.348.235508-.696.235508-1.276 0-.464-.117753-.928-.235507-1.276s-.35326-.58-.588768-.928c-.35326-.348-.668026-.314104-1.13904-.430104-.471015-.116-1.09828-.149896-1.8048-.149896H16.00181c-.35326 0-.706522-.116-.94203-.348-.235507-.232-.35326-.58-.35326-1.044v-2.784c0-.348.117753-.696.35326-.928.235508-.232.58877-.348.94203-.348h12.246376c3.414856 0 6.005435.928 7.77174 2.668 1.530797 1.392 2.355072 3.364 2.355072 5.568-.235507 2.088-.94203 3.944-2.472826 5.336 1.413043.812 2.472826 1.972 3.061594 3.48zM64.586956 26c.35326 0 .706522.116.94203.348.235507.232.35326.58.35326 1.044v2.784c0 .348-.117753.696-.35326 1.044-.235508.232-.58877.348-.94203.348H60.46558c-.35326 0-.706522-.116-1.059783-.348-.235507-.232-.35326-.58-.35326-1.044v-2.784c0-.348.117753-.696.35326-1.044C59.641304 26 60.11232 26 60.46558 26h4.121377zm-9.655797 0c.35326 0 .70652.116 1.05978.348.35326.232.35326.58.35326 1.044v25.984c0 .348-.117753.696-.35326.928-.235507.232-.70652.348-1.059783.348h-3.061595c-.35326 0-.706522-.116-.94203-.348-.235506-.232-.35326-.58-.35326-.928V31.568h-8.125c-.35326 0-.70652-.116-.94203-.348-.235506-.232-.35326-.58-.35326-1.044v-2.784c0-.348.117754-.696.35326-1.044.23551-.348.58877-.348.94203-.348H54.93116z" fill-rule="nonzero" fill="#FFF"/>
  </g>
</svg>
