<svg width="80" height="80" xmlns="http://www.w3.org/2000/svg" xmlns:xlink="http://www.w3.org/1999/xlink">
  <defs>
    <path id="a" d="M.0302.7798h51.969785V17H.0302z"/>
  </defs>
  <g fill="none" fill-rule="evenodd">
    <circle fill="#FFF" cx="40" cy="40" r="40"/>
    <path d="M46.924 33.4236c3.403-.254 5.845 1.486 8.007 3.833.875.949 1.738 1.923 2.713 2.762.742.638 1.653 1.08 2.512 1.625-.056.048-.245.233-.455.388-2.811 2.066-5.767 3.844-9.109 4.957-4.079 1.359-8.182-.068-10.005-4.149-.05-.111-.121-.213-.182-.319-.032-.012-.06-.03-.084-.055.006-1.835.012-3.855.019-5.69 2.194-1.179 4.389-2.173 6.584-3.352" fill="#05B169"/>
    <path d="M39.3864 42.6629c-.845 1.59-1.828 3.042-3.483 3.93-1.954 1.048-4.005 1.158-6.074.586-3.54-.98-6.609-2.912-9.593-4.985-.224-.155-.433-.33-.811-.619 2.064-.497 3.176-1.903 4.412-3.161 1.054-1.071 2.121-2.136 3.244-3.133 1.434-1.274 3.176-1.792 5.075-1.834.2-.005.398-.097.597-.149 2.097 1.107 4.195 2.211 6.289 3.325.152.081.269.229.402.347.003 1.83.006 3.659.01 5.489-.023.068-.046.136-.068.204" fill="#5CFC98"/>
    <path d="M40.0739 16.369c.161.004.39-.06.472.022 2.493 2.518 4.835 5.159 6.376 8.394 1.227 2.576 1.013 5.056-.64 7.399-.1.141-.148.319-.22.479-1.948 1.061-3.897 2.123-5.844 3.184-.013-.245-.036-.489-.037-.734-.004-5.854-.004-11.709-.013-17.564-.001-.393-.061-.787-.094-1.18" fill="#06B26A"/>
    <path d="M40.0739 16.369c.033.393.093.787.094 1.18.009 5.855.009 11.71.013 17.564.001.245.024.489.037.734-.18.037-.408.164-.532.098-1.689-.904-3.362-1.835-5.04-2.759-.143-.299-.243-.629-.433-.894-1.896-2.638-1.888-5.384-.392-8.156 1.514-2.807 3.565-5.215 5.799-7.472.124-.125.302-.198.454-.295" fill="#5CFC98"/>
    <path d="M40.1374 35.723c.029-.065-23.432-12.257-23.411-12.349 7.884-3.82 15.57-7.544 23.283-11.281 7.706 3.735 15.394 7.462 23.247 11.269 0-.081-23.09 12.296-23.119 12.361zm23.024 9.11c-7.433 4.291-14.933 8.621-22.532 13.008V36.766s17.19-8.862 22.532-11.697v19.764zm-46.351-.025V24.877c7.558 3.96 14.975 7.921 22.445 12.026.055 6.908.11 13.841.166 20.965-7.668-4.429-15.142-8.746-22.611-13.06zM40.0024 9c-8.705 4.22-17.337 8.403-26.002 12.603v24.8c8.667 5.003 17.321 9.998 26.006 15.011 8.692-5.018 17.343-10.013 25.975-14.997V21.588C57.2964 17.38 48.6394 13.185 40.0024 9z" fill="#1E1A1B"/>
    <path d="M40.1633 64.2127c8.602-4.963 17.144-9.892 25.796-14.883v1.384c-8.54 4.929-17.14 9.893-25.795 14.889-8.704-5.024-17.386-10.037-26.118-15.078v-1.384c8.731 5.039 17.376 10.028 26.117 15.072" fill="#5ABE88"/>
    <path d="M40.1657 68.5193c-8.72-5.036-17.402-10.051-26.117-15.084v-1.378c8.742 5.044 17.388 10.032 26.118 15.069 8.543-4.93 17.088-9.86 25.752-14.86v1.384c-8.525 4.922-17.126 9.888-25.753 14.869" fill="#5ABE88"/>
    <g transform="translate(14 54.2538)">
      <mask id="b" fill="#fff">
        <use xlink:href="#a"/>
      </mask>
      <path d="M51.8972.9418c.055.289.092.407.097.525.01.244.004.488.004.78-1.186.695-2.348 1.383-3.517 2.058-6.686 3.866-13.373 7.729-20.061 11.593-.479.276-.981.519-1.44.827-.553.373-1.039.357-1.615.012-2.009-1.198-4.04-2.356-6.066-3.524-5.917-3.414-11.836-6.824-17.752-10.238-.504-.29-1-.595-1.517-.903V.7798c1.868.926 3.534 1.991 5.247 2.965 1.739.989 3.47 1.991 5.203 2.988 1.734.997 3.47 1.991 5.202 2.992 1.731 1.001 3.458 2.01 5.189 3.011 1.731 1.001 3.464 1.998 5.295 3.054 8.522-4.917 17.064-9.847 25.731-14.848" fill="#5ABE88" mask="url(#b)"/>
    </g>
  </g>
</svg>
