<svg width="80" height="80" xmlns="http://www.w3.org/2000/svg" xmlns:xlink="http://www.w3.org/1999/xlink">
  <defs>
    <path id="a" d="M.02704.144889h26.289507v25.632833H.027039z"/>
    <path id="c" d="M0 .171956h7.831782v4.897333H0z"/>
  </defs>
  <g fill="none" fill-rule="evenodd">
    <circle fill="#FFF" cx="40" cy="40" r="40"/>
    <g transform="translate(44.683453 27.077333)">
      <mask id="b" fill="#fff">
        <use xlink:href="#a"/>
      </mask>
      <path d="M9.595147 10.139178c1.608431 0 3.120518.072444 4.619892-.034667.625575-.044667 1.282374-.383333 1.820748-.743555.984417-.658445 1.301108-1.682667 1.109086-2.818445-.177079-1.046222-1.031028-1.460667-1.936719-1.523333-1.455216-.10089-2.922698-.027111-4.414935-.027111-.389619 1.673777-.78013 3.352-1.198072 5.14711zM7.039988 21.146067c1.916871-.08689 3.692569-.07489 5.441281-.284223.921302-.110222 1.855317-.50111 2.677374-.955555 1.027684-.568222 1.516547-1.988889 1.269439-3.088222-.276324-1.227778-1.17867-1.809111-2.304928-1.923111-1.829892-.18489-3.675619-.216223-5.558813-.314667-.517633 2.229778-.997353 4.295333-1.524353 6.565778zM26.316636 6.624956c-.245547.724222-.491094 1.448444-.76318 2.251555h-1.91464c-1.004712 1.719111-2.610245 2.591778-4.722036 3.295333 2.325.82689 4.14731 1.877112 4.315468 4.452445h2.30738c-.246215.918-.45987 1.714667-.689136 2.568444-.609964.029111-1.15659.055334-1.685374.080667-.069806.063333-.151432.101556-.17128.160444-1.194504 3.535334-4.002569 5.100223-7.384691 5.817334-1.617799.34311-3.30518.45311-4.96446.488-3.412454.071555-6.683734.021555-10.27282.021555-.483289-.058-.341447-.76711-.263612-1.104444 1.855762-8.05 3.735834-16.094222 5.612115-24.139556.025201-.108.05687-.214666.08564-.321777l9.813173-.050223c1.843496.118 3.669374.31489 5.374374 1.109334 1.830115.852666 3.031086 2.175555 3.256784 4.246889.03033.277777.07605.554.124446.901777h1.941849v.222223z" fill="#FBB31D" mask="url(#b)"/>
    </g>
    <g transform="translate(9 27.077333)">
      <mask id="d" fill="#fff">
        <use xlink:href="#c"/>
      </mask>
      <path d="M7.831782.171956c-.321151 1.614-.865324 3.227777-1.197626 4.897333H-.000067c0-.222222.976612-3.46 1.353518-4.856667L7.831782.171956" fill="#FBB31C" mask="url(#d)"/>
    </g>
    <path d="M18.38118 27.286711l17.527043-.029333c1.07251-.001778 2.145022-.002667 3.21731-.003778-.396087 1.874667-.762734 3.756222-1.193612 5.622889-1.452763 6.293111-2.927605 12.581111-4.39687 18.870444-.082073.351334-.189123.697111-.281008 1.033111h-6.084698a1110576.462226 1110576.462226 0 0 0 4.761734-20.526666h-7.974583c-1.576985 6.769555-3.171813 13.616222-4.780244 20.520889h-6.683065c1.973295-8.541556 3.930532-17.014445 5.887993-25.487556" fill="#FBB31C"/>
    <path d="M40.782962 27.757422c.782583 1.783334 1.56695 3.566 2.346856 5.350667.887626 2.030889 1.783727 4.058444 2.64459 6.100667.149647.354888.266288.803333.186446 1.161777-.665496 2.988223-1.38028 5.965556-2.082353 8.945334-.033676.142-.089431.278889-.183546.568444-.900115-2.100222-1.749159-4.078667-2.595748-6.058222-.81336-1.902-1.643893-3.796889-2.4209-5.713556-.170834-.421777-.28569-.952222-.19113-1.381333.6568-2.982889 1.376044-5.952222 2.075216-8.925778.073598-.016.147195-.032.220569-.048" fill="#FBB31E"/>
  </g>
</svg>
