<svg width="80" height="80" viewBox="0 0 80 80" xmlns="http://www.w3.org/2000/svg">
  <title>
    tnc-trinity-network-credit
  </title>
  <g fill="none" fill-rule="evenodd">
    <circle fill="#FFF" cx="40" cy="40" r="40"/>
    <g fill="#D9005D">
      <path d="M33.563291 11.19159c1.832492 3.11092 3.578273 6.074904 5.369914 9.116667-4.10798 6.719348-8.290146 13.470115-12.368838 20.236015.083243.108812.098466.135824.120432.155747.022545.020307.049907.03908.078426.04866.029674.00977.063395.00996.095382.00996 3.915481.000384 7.831156.000384 11.764558.000384 1.664658 2.896743 3.320452 5.778544 4.990698 8.685057-.888113.173372-29.690605.241188-32.61392.08774 1.822278-3.240038 3.693308-6.39521 5.572624-9.545977 1.90822-3.199042 3.81008-6.401916 5.700571-9.611494 1.874499-3.182376 3.72491-6.378927 5.597867-9.56207 1.870452-3.178735 3.755549-6.348658 5.692286-9.620689"/>
      <path d="M68.865174 49.645805c-.389043.051915-.629329.111494-.869615.112069-3.050877.00728-6.101754-.004023-9.152438.016666-.517568.003448-.827223-.166666-1.058452-.62682-.482498-.95977-.995634-1.905172-1.52091-2.84272-1.11125-1.983525-2.237336-3.958812-3.358798-5.93659-.607362-1.071264-1.21376-2.143104-1.82806-3.210536-.929156-1.613985-1.867368-3.222606-2.79691-4.836399-.614684-1.067433-1.22012-2.14023-1.831335-3.20977-.042585-.074138-.100778-.139464-.205794-.282759-.212538.319732-.41525.586016-.577303.874521-1.079262 1.920882-2.150239 3.84636-3.223142 5.77069-.596765 1.070881-1.187363 2.145402-1.791256 3.21226-.175734.310729-.393668.54636-.821827.544253-3.179017-.015708-6.358226-.011877-9.537436-.018007-.05588 0-.111953-.04751-.229495-.100958.154731-.330077.284027-.677011.469396-.99157 5.24582-8.891763 10.497229-17.78027 15.822824-26.796744 7.51996 12.802107 14.96766 25.481417 22.510551 38.322414"/>
      <path d="M47.334765 51.86046c-1.99917-3.547127-4.161356-6.824713-6.104452-10.292529 1.674678-2.813218 3.35687-5.639655 5.115176-8.593487 5.468571 9.354598 10.862957 18.582567 16.294146 27.873372H17.673642c.827222-1.616475 1.762352-3.056897 2.633123-4.532758.865375-1.466859 1.736724-2.930269 2.640445-4.454598h24.387555z"/>
    </g>
  </g>
</svg>
