<svg width="80" height="80" viewBox="0 0 80 80" xmlns="http://www.w3.org/2000/svg">
  <title>
    tnt-tierion
  </title>
  <g fill="none" fill-rule="evenodd">
    <circle fill="#202D85" cx="40" cy="40" r="40"/>
    <path d="M40.495944 39.491255c2.585403-.02229 5.168993.054942 7.751373.162998 1.519585.063615 3.037155.1756 4.55627.252763.232424.011856.275403.101688.261636.310687-.10221 1.553566-.194548 3.10788-.2932 4.661717-.10429 1.643805-.222013 3.286866-.309718 4.93162-.017057.320103-.090458.418132-.42066.394286-4.734364-.341986-9.475445-.47084-14.220958-.391847-2.885787.04803-5.76936.16401-8.649438.36644-.78061.0548-.61474.15039-.66598-.56955-.16339-2.29573-.29186-4.59397-.43664-6.89106-.05245-.83308-.10725-1.66616-.17333-2.4983-.01686-.21246.02894-.29917.25948-.3132 2.55706-.155548 5.11459-.291584 7.67589-.36014 1.55511-.041666 3.11008-.049186 4.66526-.056435" fill="#FE3F82"/>
    <path d="M40.491418 57.64776c1.81332-.019105 3.623956.065172 5.434993.138745.2188.008942.28481.07249.27729.29524-.09751 2.876253-.18938 5.752642-.27285 8.629302-.00772.265973-.15063.24592-.32819.239552-1.81117-.0645-3.62214-.16673-5.43506-.13645-1.59943.02676-3.19839.08583-4.79729.13962-.21496.00725-.3161-.02243-.32342-.27878-.08105-2.83154-.1697-5.66288-.27144-8.49374-.01128-.31421.07837-.38961.38144-.40167 1.77767-.070868 3.55486-.1481 5.33453-.13184" fill="#FE4082"/>
    <path d="M38.42069 21.000244c1.3658-.000068 2.7316-.000136 4.0974-.00027 1.330476.04173 2.661154.080346 3.991496.125737 3.488974.11904 6.967674.38216 10.44053.73932 3.583194.36855 7.148188.86818 10.703243 1.44701.27808.04532.32449.14295.28386.41895-.44793 3.04569-.87906 6.09389-1.31523 9.14133-.13324.93084-.26829 1.86148-.4678 2.80221-.2885-.63079-.57445-1.2628-.86617-1.892093-.33645-.725705-.68465-1.44599-1.0127-2.17555-.08596-.19132-.21201-.26455-.40394-.291787-2.62436-.37227-5.25267-.70985-7.89072-.97115-4.54472-.450176-9.09918-.70714-13.66592-.76581-3.76102-.0483-7.5168.05481-11.27104.276273-2.3229.13705-4.64055.332973-6.95485.571306-2.18039.22458-4.354.505454-6.52513.80727-.187767.02608-.26607.13725-.345917.27647-.75657 1.31862-1.514146 2.63663-2.272058 3.954506-.043788.07601-.092945.14884-.183336.29287-.08703-.588855-.16527-1.105424-.239475-1.622534-.4903-3.41565-.97979-6.831374-1.469086-10.24716-.011215-.07818-.00383-.16171-.028474-.234744-.074676-.221395.019475-.29761.22752-.329315 1.182804-.180344 2.36332-.37593 3.546595-.55329 2.23425-.335008 4.475148-.61995 6.721217-.8593 1.890618-.201546 3.78486-.36461 5.68132-.504238 3.06919-.22607 6.14328-.32864 9.218646-.40601" fill="#FE3F82"/>
  </g>
</svg>
