<svg width="80" height="80" viewBox="0 0 80 80" xmlns="http://www.w3.org/2000/svg" xmlns:xlink="http://www.w3.org/1999/xlink">
  <title>
    toa-toacoin
  </title>
  <defs>
    <path id="a" d="M21.88793.040797V38.82453H.110433V.040796H21.88793z"/>
    <path id="c" d="M40.6846 18.885794H.119676V.082696H40.6846z"/>
    <path id="e" d="M0 17.221664V.093216h14.745528v17.128448H0z"/>
  </defs>
  <g fill="none" fill-rule="evenodd">
    <circle fill="#FFF" cx="40" cy="40" r="40"/>
    <g transform="translate(50.005 28.255)">
      <mask id="b" fill="#fff">
        <use xlink:href="#a"/>
      </mask>
      <path d="M.110434 31.226423c1.294255-.77599 2.630038-1.489136 3.87538-2.339498 3.932007-2.684958 7.141956-6.074374 9.170908-10.467577 2.181275-4.722618 2.91712-9.660668 1.548675-14.781225-.328283-1.228747-.865846-2.399833-1.307223-3.597326 1.622702.09543 3.245076.19972 4.868435.280947.53493.026908 1.07282-.006017 1.60924-.011532.42463 1.273036.90195 2.531197 1.25666 3.824122.2682.977883.37096 2.00223.56743 3.001672.02396.12234.19319 1.859498.18794 3.667855-.00575 1.97449-.18795 4.03371-.20682 4.16725-.27839 1.96463-.72977 3.8527-1.35105 5.66507-1.11058 3.23984-2.76365 6.23766-4.93918 8.99816-3.18861 4.04608-7.12325 7.11844-11.80226 9.1902-.07649-.31888-.09849-.66551-.2385-.95231-.72026-1.4776-1.47941-2.93565-2.20754-4.40958-.36324-.73555-.68922-1.49014-1.03211-2.23622" fill="#1A4FC4" mask="url(#b)"/>
    </g>
    <path d="M69.8809 28.640647c-.536413.005515-1.074304-.03702-1.60924-.06376-1.62336-.081394-3.223223-.109826-4.845925-.205257-.080265-.11014-.205528-.285775-.260187-.407947-1.682614-3.760446-4.337273-6.641616-7.719078-8.867967-3.68202-2.423733-7.745013-3.72819-12.079003-4.16089-6.923813-.691088-13.4376.723675-19.51789 4.15153-3.78379 2.133093-6.994395 4.94574-9.485405 8.57298-.109647.15961-.223233.316714-.343384.468135-.029053.03644-.0911.04546-.280025.13271.085025-.26925.119823-.45844.200745-.62457 2.606894-5.34618 6.412512-9.59164 11.385833-12.73688 5.85165-3.70044 12.24709-5.32061 19.10147-4.80534 7.44382.55956 13.89424 3.49421 19.23376 8.85192 2.56176 2.57048 4.52341 5.5658 5.96523 8.91677.09832.22814.1694.46847.25311.70312" fill="#0A36A3"/>
    <path d="M37.282318 46.09336c-2.660404 2.434763-5.80322 3.059498-9.17173 1.96897-3.305808-1.070308-5.380227-3.435545-6.08505-6.917884-.967614-4.780947 2.31062-9.590307 7.128333-10.52273 2.10216-.406797 4.13374-.183677 6.05124.84.26722.59298-.14329 1.030863-.40723 1.433983-.62718.95782-1.27406 1.94523-2.56241 2.08161-.16266-.0214-.32565-.03894-.48766-.06452-1.90256-.30084-3.69449.56273-4.6232 2.28685-.91098 1.69136-.82661 3.39025.22783 4.97181 1.02589 1.5386 2.52745 2.21482 4.33071 1.93654 1.80063-.27794 3.02086-1.38268 3.59388-3.14307.58664-1.80201.11703-3.39427-1.08235-4.79733 1.43066-.62373 2.86132-1.2473 4.29197-1.87086 2.65401 3.60601 2.16733 8.71069-1.2043 11.7966zm11.613498-8.571093l-.17432.009026c-.407726 1.34323-.815453 2.686295-1.235163 4.06897h2.63562c-.425784-1.415934-.82596-2.746965-1.226137-4.077996m8.290618 10.468747h-4.861376c-.293485-.746072-.585492-1.488802-.89539-2.276992h-5.261554c-.284293.739555-.570556 1.484958-.868308 2.260112H40.42464c2.114143-5.695655 4.204648-11.326964 6.313373-17.00741h4.125037c2.094117 5.637995 4.187905 11.27532 6.323384 17.02429" fill="#2C2A2B"/>
    <g transform="translate(12.91 50.985)">
      <mask id="d" fill="#fff">
        <use xlink:href="#c"/>
      </mask>
      <path d="M38.351786 10.782283c-.36341-.735377-.699303-1.58564-1.042194-2.331713-6.065846 2.886183-12.512404 4.059814-19.164563 3.083603-3.68711-.541003-7.16199-1.729304-10.35782-3.726017C5.93192 6.64927 4.31381 5.21161 2.79288 3.64526c-.299393-.396603-.605025-.788357-.896047-1.190976-.291187-.402785-.571377-.814095-.85009-1.226072C.790685.849492.54316.464758.292025.082696c-.05745.04028-.1149.08039-.17235.12067.604206 1.44685 1.20004 2.897882 2.107413 4.193147.158068.29131.295783.596323.47683.87209 3.147905 4.794985 7.286238 8.39582 12.4498 10.792812 4.04871 1.879387 8.29981 2.779554 12.72654 2.823176 2.606237.02558 5.182436-.32874 7.712512-.97871 1.748762-.44908 3.63676-1.03299 5.24518-1.89589-.07649-.31888-.251835-.58065-.391848-.86761-.720416-1.4776-1.366185-2.88598-2.094316-4.36008z" fill="#2D65E3" mask="url(#d)"/>
    </g>
    <g transform="translate(7 30.762)">
      <mask id="f" fill="#fff">
        <use xlink:href="#e"/>
      </mask>
      <path d="M14.742427.148396c-.301036-.0234-.513927-.05415-.726983-.054318C9.598727.092408 5.181846.09274.76513.098925.554863.09926.344762.154915.134496.18533V.184163L.13023.186167h.002134C.095104.22394.02879.261377.028298.29965c-.014773 1.16557-.03168 2.331307-.02774 3.49671.00164.476658.321225.579276.726326.575265.954646-.00986 1.909457-.002674 2.864103-.002507h1.467425v12.852367c1.54769 0 2.988522.00184 4.429192-.00635.05745-.000335.114242-.09376.171363-.143733.01149-2.76702.028397-5.53404.031844-8.301226.00165-1.355264-.02166-2.710696-.03364-4.066128.11047-.41833.44794-.331588.73568-.332758 1.19971-.00468 2.39926-.003844 3.59897.000168.38738.00117.74044-.062507.74619-.55287.01379-1.212534.00443-2.42557.00443-3.670194" fill="#2C2A2B" mask="url(#f)"/>
    </g>
    <path d="M42.1075 25.95629c-.605352.16713-1.210706.33443-1.81606.501727-.36111.42468-.722057.849526-1.12683 1.32585-.50933-.72769-.390657-1.740502-1.187727-2.221672-.815947-.21894-1.631894-.437883-2.44784-.656824-.791.00686-1.582653-.00284-2.372994.02424-1.49632.05131-3.0074.01839-4.40047.73621-.18827.09711-.42546.09076-.6331.15477-.70319.21711-1.40686.43404-2.10216.67555-.15462.05365-.2756.20775-.412.31555.44515.11048.84122.06368 1.23844.03627.97746-.06685 1.96526-.239 2.93091-.15493 1.00782.08774 1.98611.23683 2.98556-.05699.3053-.08975.65738-.01387.98813-.01387.00443.05649.00903.11282.01346.16931-.38656.115657-.77327.23131-1.22942.36769.65131.864733 1.52848.84117 2.27615.98022-.05253.16429-.16349.32607-.1236.424177.09192.22596.23784.43805.39607.625907.62719.74457.66707 1.38067.12097 2.272143.26722.593142-.143298 1.03086-.407237 1.43415-.627188.957822-1.27407 1.945232-2.562416 2.08161.18909.23031.02725.33426-.1492.43822-.6871.40546-1.373045.812924-2.06917 1.34657.31778-.01471.643927.01237.95153-.05198.795756-.16646 1.579696-.391253 2.37611-.55404.271654-.05549.56596.004347.849924.01153 1.430655-.62373 2.86131-1.247294 4.29197-1.87086.1904-.187353.371614-.38557.57269-.560055.474694-.411643.991083-.778662 1.43328-1.222896 1.303446-1.30981 1.77913-3.07187 2.4288-4.736326.380644-.50206.76145-1.00412 1.17115-1.54445-.665267-.33293-1.32052-.33694-1.98496-.27677" fill="#1E4EC3"/>
    <path d="M39.879807 24.623488c-.857146-.916212-1.84298-1.64741-3.19813-1.523064-1.259458.01521-2.53648-.38858-3.773448.164122-2.18423.346964-2.96752.603343-3.53791 1.219555 1.3929-.0717 2.70144-.13905 4.01014-.20624.31843.10663.63046.26123.9571.30786.39115.05582.79493.01939 1.19314.02307l-.00164.29666c.81594.21894 1.63189.43788 2.44784.65666.79707.48134.67839 1.49399 1.18772 2.22167.40477-.47615.76572-.901 1.12683-1.32568.26279-.70429.04382-1.34741-.41167-1.83459" fill="#93AFFC"/>
  </g>
</svg>
