<svg width="80" height="80" viewBox="0 0 80 80" xmlns="http://www.w3.org/2000/svg">
  <title>
    trac-origintrail
  </title>
  <defs>
    <linearGradient x1="38.967472%" y1="64.137%" x2="50%" y2="39.411%" id="a">
      <stop stop-color="#526173" offset="0%"/>
      <stop stop-color="#F6FAF9" stop-opacity=".069" offset="100%"/>
    </linearGradient>
    <linearGradient x1="45.659661%" y1="89.417%" x2="50%" y2="42.155%" id="b">
      <stop stop-color="#526173" offset="0%"/>
      <stop stop-color="#F6FAF9" stop-opacity=".069" offset="100%"/>
    </linearGradient>
    <linearGradient x1="59.997736%" y1="100%" x2="53.938269%" y2="60.552%" id="c">
      <stop stop-color="#526173" offset="0%"/>
      <stop stop-color="#F6FAF9" stop-opacity=".069" offset="100%"/>
    </linearGradient>
    <linearGradient x1="82.306521%" y1="71.74%" x2="41.059196%" y2="41.318%" id="d">
      <stop stop-color="#526173" offset="0%"/>
      <stop stop-color="#F6FAF9" stop-opacity=".069" offset="100%"/>
    </linearGradient>
  </defs>
  <g fill="none" fill-rule="evenodd">
    <circle fill="#14DA9E" cx="40" cy="40" r="40"/>
    <g fill-rule="nonzero">
      <path d="M36.686083 20.853708l1.113667 6.332084A13.085578 13.085578 0 0 1 40.056875 27V14.13c-1.497708 0-2.992708.13-4.468208.388375l-.016792.001625-.01625.004333a25.887877 25.887877 0 0 0-4.352292 1.16675l1.601167-.429-1.59575.427917 4.391292 12.07375a12.907379 12.907379 0 0 1 2.199708-.5785l-1.113667-6.331542zM20.884042 43.407083l6.316916-1.116916A13.078009 13.078009 0 0 1 27 40.01625H14.170625c0 1.489583.128375 2.977.384583 4.444375l.005417.065 6.323417-1.118542-6.316917 1.117459-.00325-.013.002167.013-.005417.001083.017333.063375a25.887877 25.887877 0 0 0 1.15375 4.280792l-.054166-.203667.053083.19825 12.06075-4.386958a12.90521 12.90521 0 0 1-.590417-2.18725l-6.316375 1.116916h-.000541zm-.005417-6.764333l6.31475 1.110417A13.082326 13.082326 0 0 0 27 40.01625H14.170625c0-1.497708.13-2.992708.388375-4.468208l.001625-.016792.004333-.01625a25.887877 25.887877 0 0 1 1.16675-4.352292l-.433333 1.617959.43225-1.612542 12.050458 4.383167a12.906296 12.906296 0 0 0-.587708 2.202416l-6.315292-1.110958h.000542zm2.312917-6.360792l-5.559667-3.208833.040625-.057958a25.887333 25.887333 0 0 1 2.448333-3.511084l.094792-.135958.010833.009208-.010833-.009208.12025-.12025A25.887875 25.887875 0 0 1 23.2885 20.29525l.12025-.12025.004333.005417-.004333-.005417.135958-.094792a25.887874 25.887874 0 0 1 3.511084-2.448333l.057958-.040625.001625.002708-.001625-.002708.06175-.028708a25.887878 25.887878 0 0 1 4.027833-1.871459l-.694958.323917.700375-.325 4.391292 12.07375a12.936618 12.936618 0 0 0-2.06375.954417l-3.210459-5.56075 3.209917 5.56075a13.032494 13.032494 0 0 0-1.867125 1.301625l-4.125875-4.916709 4.125875 4.916709a13.079615 13.079615 0 0 0-1.612542 1.6055L25.141 27.501042l4.915083 4.12425a13.034125 13.034125 0 0 0-1.310833 1.862791l-5.553167-3.206125-5.554791-3.205583.001625-.00325-.002167.002708-.004875-.002708-.028708.06175a25.887878 25.887878 0 0 0-1.871459 4.027833l.326084-.69875-.327167.704167 12.050458 4.383167a12.9388 12.9388 0 0 1 .96525-2.06375L23.191542 30.2825v-.000542zm4.360416 24.63825l4.132917-4.926458a13.031415 13.031415 0 0 0 1.8655 1.295667l-3.216958 5.57375 3.216958-5.57375a12.935054 12.935054 0 0 0 2.0605.951166L31.20875 64.3425l-.709583-.329333.704166.32825a25.887872 25.887872 0 0 1-4.027833-1.871459l-.06175-.028708.002708-.005417-.002708-.001625.00325.001625 3.216417-5.573208-3.219667 5.578625-.057958-.040083a25.887873 25.887873 0 0 1-3.511084-2.448875l-.135958-.094792.004333-.005417-.004333.005417-.119708-.119708a25.887871 25.887871 0 0 1-2.953709-2.953709l-.119708-.119708.005417-.004333-.005417.004333-.094792-.135958a25.887876 25.887876 0 0 1-2.448333-3.511084l-.040625-.057958.002708-.001625-.002708.001625-.028708-.06175a25.887878 25.887878 0 0 1-1.871459-4.027833l.326625.701458-.327708-.706333 12.06075-4.386959a12.939864 12.939864 0 0 0 .969042 2.058875l-5.561834 3.209917 5.561834-3.209917a13.035204 13.035204 0 0 0 1.312458 1.857917l-4.92375 4.130208 4.92375-4.13075a13.07962 13.07962 0 0 0 1.612542 1.600084l-4.134 4.926458.000541-.000542zm29.148709 4.931875l.004333.005417-.135958.094792a25.887875 25.887875 0 0 1-3.511084 2.448333L53 62.44125l-.001625-.002708L53 62.44125l-.063375.02925a25.887885 25.887885 0 0 1-3.927083 1.834625l-.080167.037375-.002708-.007042-.01625.005417.01625-.007042-4.425959-12.133875a12.940415 12.940415 0 0 0 2.0345-.959291l3.231042 5.597583-3.231042-5.597583a13.035217 13.035217 0 0 0 1.846542-1.30325l4.15675 4.954625-4.15675-4.954625a13.079623 13.079623 0 0 0 1.5925-1.599542l9.923875 8.3265-.119708.119708a25.887867 25.887867 0 0 1-2.953709 2.953709L56.705 59.8575l-.004333-.005417zm-20.011875-.689l1.116375-6.347791a13.086126 13.086126 0 0 0 2.251708.184166V65.9025l-.015167-.001083.015167.001083c-1.497708 0-2.992708-.13-4.46875-.388375l-.01625-.00325v.001625l-.01625-.004333a25.887876 25.887876 0 0 1-4.352292-1.16675l1.664.445791-1.658583-.444708 4.402125-12.101917c.70525.252959 1.438667.446334 2.194292.574709l-1.115834 6.347791h-.000541zM40.056875 53a13.073135 13.073135 0 0 0 2.259833-.205833L44.56625 65.5125l-.065.005417c-1.467917.256208-2.954792.384583-4.444375.384583h.005417-.005417V53zm11.211417-6.513a12.937708 12.937708 0 0 0 .954958-2.050208l12.18425 4.427583-.109417.232917a25.88787 25.88787 0 0 1-1.785875 3.797083l-.030333.065-.005417-.002708-.001625.002708.001625-.00325L51.268292 46.487zm-8.951584 6.307167c.752917-.135417 1.482542-.335834 2.184-.594209L48.929375 64.3425l-.0845.02275a25.887878 25.887878 0 0 1-4.214167 1.129917l-.064458.017333-.001083-.005417-.013.002167.013-.003792-2.247917-12.711291h-.000542zM53 40.01625V40c0-.758333-.065-1.502042-.189583-2.225167l12.74-2.238166-.001084-.015167.002709.014625.024916-.004333.027084.313083c.209083 1.279958.32175 2.574542.336916 3.871292l.026.300625H53v-.000542zm-3.0095-8.335167a13.079635 13.079635 0 0 0-1.5925-1.6055L56.705 20.175l.12025.12025a25.88787 25.88787 0 0 1 2.952625 2.952625l.12025.12025-9.907625 8.312958z" fill="#FFF"/>
      <g opacity=".3">
        <path d="M9.97425 34.337875l9.9125 8.317292.011375.009208.094792-.135958a25.887342 25.887342 0 0 0 2.448333-3.511084l.040625-.057958L11.268292 32.487a13.032498 13.032498 0 0 1-1.294042 1.850875z" fill="url(#a)" transform="translate(40 14)"/>
        <path d="M19.175 29.394083L12.802833 28.2685a12.905753 12.905753 0 0 1-.579583 2.168292l12.162583 4.42-.003791.013.004875-.013.020583.007583.072042-.267583a25.88788 25.88788 0 0 0 1.003166-3.718542l.094792-.352625-.014625-.002708.014625.002708.031417-.362917c.205833-1.271291.317416-2.556666.332583-3.844208l.026-.30225H13a13.079623 13.079623 0 0 1-.197167 2.25225L19.175 29.394083z" fill="url(#b)" transform="translate(40 14)"/>
        <path d="M22.479167 13.07475l.002708-.001625.030875.065a25.887321 25.887321 0 0 1 1.785333 3.797083l.109417.232917-.010833.003792.010833-.003792.070417.262708a25.887888 25.887888 0 0 1 1.018875 3.800334l.080708.300083-12.767083 2.243583a12.906843 12.906843 0 0 0-.576875-2.182916l6.075875-2.207834-6.075875 2.207834a12.936632 12.936632 0 0 0-.951167-2.054542l5.597042-3.2305-5.597042 3.2305A13.03196 13.03196 0 0 0 9.9905 17.681083l9.89625-8.30375.011375-.009208.094792.135958a25.887873 25.887873 0 0 1 2.448333 3.511084l.040625.057958-.002708.001625z" fill="url(#c)" transform="translate(40 14)"/>
        <path d="M3.443917 6.866708l-1.12125 6.340209c.754.135958 1.48525.336916 2.188333.596916L6.718833 7.75125 4.511 13.803833a12.940419 12.940419 0 0 1 2.038292.964167l3.224-5.585667-3.224 5.585667a13.035755 13.035755 0 0 1 1.848166 1.307583l8.298334-9.88975L16.705 6.175l-.135958-.094792a25.887876 25.887876 0 0 0-3.511084-2.448333L13 3.59125l-.001625.002708L13 3.59125l-.063375-.029792a25.887877 25.887877 0 0 0-3.927083-1.834083L8.929375 1.69l-.001083.003792L8.929375 1.69l-.0845-.02275A25.887875 25.887875 0 0 0 4.630708.537333L4.56625.52v.002708V.52l-.065-.005417A25.887875 25.887875 0 0 0 .056875.13V13c.772958.00325 1.530208.074208 2.265792.206917l1.12125-6.340209z" fill="url(#d)" transform="translate(40 14)"/>
      </g>
    </g>
  </g>
</svg>
