<svg width="80" height="80" viewBox="0 0 80 80" xmlns="http://www.w3.org/2000/svg">
  <title>
    trig-triggers
  </title>
  <g fill="none" fill-rule="evenodd">
    <circle fill="#1EBFF3" cx="40" cy="40" r="40"/>
    <path d="M79.999083 39.726274L63.15625 18 39 70.960938l8.74309 8.290187C66.12886 75.64487 80 59.442325 80 40c0-.091314-.000306-.182556-.000917-.273726z" fill="#23A6D4"/>
    <path d="M38.84237 50.496708c0-.04328 0-.086302-.000257-.129584 3.161358 0 6.322716.012255 9.483816-.004693 1.81636-.00938 2.88342-1.00851 2.93222-2.85529.09812-3.68494.1626-7.37145.16799-11.05718.00308-2.17138-.69896-2.91499-2.83025-3.0039-.95635-.03963-1.19216-.39866-1.28181-1.30784-.1585-1.60481-.59827-3.16061-1.65068-4.44029-1.92168-2.33617-4.97746-3.28289-8.14858-2.27568-3.11255.9887-4.62272 3.3898-5.00238 6.58926-.15361 1.29428-.13743 1.29637-1.38764 1.4137-1.58646.14888-2.139.58483-2.1634 2.14584-.0614 3.94724-.09916 7.89866.01541 11.84355.06781 2.33174.89598 3.02268 3.19706 3.0717 2.22171.04772 4.44547.01043 6.66847.01043m23.12749-27.18225c.03134.22345.06267.44664.09376.67009.32186 1.76699.64372 3.53372.96585 5.30045.08631 1.50887.20601 3.01643.25327 4.52659.21654 6.92169-1.14104 13.48174-4.43007 19.58916l-2.0401 3.1494c-.15875.22736-.31776.45472-.4765.68208-.16851.20859-.33677.41743-.50528.62628l.00668-.00261c-.87749.95376-1.75472 1.90753-2.6322 2.86129l-.20062.20468c-.09042.08318-.18059.16661-.27101.25005-.16954.16661-.33908.33322-.50836.50009-.24557.21146-.49115.42291-.73698.63463l.00102-.0013c-.20191.16661-.40355.33322-.60546.50009-2.64376 2.00296-5.40285 3.8114-8.43731 5.15522-.23504.10403-.47085.20755-.70127.32122-1.1824.5843-2.30289.56005-3.55078.01564-3.24664-1.41656-6.20995-3.28732-9.03198-5.41647-.16877-.11889-.33779-.23753-.5063-.35616-.08015-.07483-.16004-.14966-.24018-.22475l-.55485-.51077-.05394-.03598-.06114.02164c-.12818-.08813-.25636-.17626-.38454-.26464l.04084-.0305c-.87209-.93864-1.74418-1.87702-2.61602-2.81566-.15258-.18147-.30542-.36294-.45801-.54441-.17981-.17808-.35963-.35642-.53944-.5345l-.00565.02555c-.09068-.1726-.1811-.34547-.27178-.51781-.07296-.09386-.14616-.18747-.21912-.28133-.0226-.079-.0637-.14653-.12356-.20207-1.66994-2.57344-3.23637-5.20267-4.2893-8.11272-1.45751-4.02781-2.1521-8.18546-2.18035-12.47609-.02466-3.78428.27948-7.52815 1.0537-11.23161.07038-.33608.07295-.68703.10711-1.0312.34319-1.39649.68637-2.79323 1.02956-4.18998l-.00359.00104c1.78091-.57231 3.44674-1.31305 4.40411-3.09281l-.03031-.01669c.09145-.09099.1829-.18225.27434-.27325l-.01515.01226c.08631-.09543.17236-.1906.25841-.28602l.00386.01095c.56795-.99157 1.45751-1.09769 2.49759-1.09404 8.93334.03129 17.86667.04146 26.79975-.00756 1.34705-.0073 2.51121.0996 3.27079 1.37511l-.00026-.00391c.84563 1.50965 2.1801 2.41596 3.73778 2.98044.60391.21876.88134.53607 1.02442 1.15218.23427 1.00852.56718 1.99383.85847 2.98879" fill="#0E7EA9"/>
    <path d="M52.26233 60.944015c.08028-.07755.160333-.155102.240386-.232885.072982-.07269.145737-.14561.21872-.218532.380648-.390302.76107-.780836 1.141718-1.17137l-.002737.002315c.077773-.07871.155316-.157418.23286-.235895l-.004333.005093c.181772-.18982.363544-.37942.545316-.56924l.029193-.03958c.56356-.72875 1.127122-1.4575 1.690684-2.18625l.04607-.08658.238333-.34956-.005473.02107 1.36135-2.10152-.007982.01019c.599368-1.16743 1.198737-2.33463 1.798105-3.50184l.002053-.00578c.156228-.38451.312228-.76949.468228-1.15424.04836-.02037.05999-.0537.03444-.1l1.3276-4.29633c.0187-.10348.03718-.20696.05565-.31043.12749-.59124.25476-1.18271.38248-1.77395.026-.1801.05223-.35997.07823-.53985.17197-1.59917.34371-3.19835.51567-4.79752.0089-.68962.01779-1.37925.02669-2.06865l-.00273-.23103c-.02052-.46091-.04105-.92182-.06157-1.38273.01962-.11251.06249-.22664.05565-.33752-.21666-3.49975-.819-6.93631-1.5381-10.36338-.34552-1.64663-.92551-2.94347-2.64584-3.42452-.17698-.04954-.33435-.17154-.50084-.2602l.00548.00463c-.13593-.10602-.27163-.21205-.40756-.31807l-.01368.07315.02418-.07037c-.24449-.21228-.48898-.42433-.73324-.63638l.013.01968c-.08712-.08079-.17424-.16158-.26114-.24237l.01916.01274c-.28987-.3271-.57952-.65397-.8694-.98131l.01277.02038c-.10582-.13681-.21165-.27386-.31724-.41067l-.18291-.23914c-.2746-.72342-.89768-.44493-1.37663-.44586-8.56289-.01366-17.12579-.0081-25.68891-.00347-.87032.00047-1.74086.02061-2.61118.03172-.156.00162-.312.00301-.468.00463-.19158.17177-.38293.34354-.57428.51531l-.03262.04213c-.29672.35743-.59367.71486-.89039 1.07206l-.04219.05301c-.10354.11783-.20709.23566-.3104.35326l.01164-.0081-.24814.24145s.01665-.0176.01688-.0176l-.25293.24446.01186-.01899c-.299.24076-.59777.48128-.89654.72204l.0016-.00116c-.64065.33127-1.30821.62018-1.91009 1.01257-.26661.17362-.40117.55629-.59572.84404-.02326.10232-.04652.20488-.07001.3072-.20572.82158-.41189 1.64316-.61784 2.46497-.13684.62319-.27368 1.24661-.4103 1.87003l-.17858.87714c-.14277.83246-.31496 1.66122-.42329 2.49831-.75696 5.85801-.64315 11.66787 1.05004 17.37054 1.14833 3.86714 2.88121 7.4345 5.42374 10.56895l-.01072-.01435.34507.4079c.10582.12339.21188.24678.3177.37016-.00821.06436.01893.10395.08119.11876.06888.08102.13776.16205.20663.24307.06158.07802.12339.15603.18497.23404l-.01277-.00555.22784.23405c.24632.273396.49286.54679.73918.82042l.05405.05857.84979.87251c.20253.18936.40505.37896.60758.56832.09328.08218.18702.16436.28053.24631.06112.05417.12225.10857.1836.16274l.3031.28566c3.21579 2.993707 6.92969 5.15125 10.99595 6.704126.28121.10718.67965.08149.96337-.03449 1.04456-.428034 2.06381-.91996 3.09263-1.387585.1503-.07778.30083-.1551.45112-.232886l.00183-.00069c.10058-.054635.20139-.10927.30197-.1639l-.02212.027316c.15509-.08565.3104-.17107.46549-.25673l-.01665.01366c.15144-.09121.30311-.18218.45455-.27339l-.02166.01319c.15463-.08727.30926-.17455.46367-.26159l-.01825.01088.45135-.26367-.00479.00278c.46709-.30002.93418-.60004 1.40104-.90006l-.01756.00926c.10058-.05764.20139-.115284.30197-.17316l-.00137.018985c.136385-.10394.27277-.208346.409156-.31229 0 0-.00821.00972-.00821.00995.23012-.16367.46047-.32733.69059-.491.07344-.05278.14665-.10556.22009-.15834.17607-.12802.352363-.256035.528434-.38405l.06956-.04329 1.473333-1.236885-.01665.01065c.09192-.07709.18383-.153945.27551-.231033l-.02007.025007c.08735-.07848.17448-.15719.26183-.23567l-.01939.02546.38065-.33845-.00182.00139c.07823-.07709.156686-.15417.234686-.23126l-.00479.00509zm10.96972-42.61287c.490578 2.052908 1.024946 4.096324 1.463525 6.160574 1.094737 5.15333 1.556807 10.36037.989597 15.6188-1.000316 9.27581-4.874544 17.08464-11.751772 23.30795-4.042316 3.6581-8.637702 6.3835-13.761754 8.17945-1.214702-.39887-2.429404-.79751-3.643878-1.19661l-.049947-.04329-.06568.00162-3.08579-1.55681c-.02508-.0419-.06112-.05672-.10787-.04491-.11608-.06714-.23217-.1345-.34803-.20164l-.04014-.04283-.05838.00115c-.11403-.06528-.22807-.13033-.3421-.19538l.01141.00417c-.14961-.0882-.299-.1764-.44861-.2646l.01072.00602c-.83246-.5424-1.66468-1.08503-2.49714-1.62765l-.02167.025-.21142-.2227c-.31314-.23265-.62628-.46554-.93942-.69819l.00297.00393-1.30821-1.00006-.00022-.0125c-.8393-.75815-1.67859-1.51653-2.51789-2.27515l-.05246.04653.04676-.05232c-1.23842-1.44107-2.47684-2.8819-3.71549-4.32273l-.00205-.00301c-.88719-1.42902-1.77439-2.85828-2.66158-4.28754.00935-.0514-.00821-.09029-.05268-.11691-.64635-1.58667-1.32372-3.16108-1.92834-4.76419-.45569-1.20841-.81763-2.45316-1.22154-3.68194.03535-.03797.03375-.07431-.00479-.10904-.03216-.34493-.03718-.69542-.10081-1.03456-.71409-3.80626-1.03065-7.63405-.66323-11.50536.08006-.84172.1056-1.68877.15623-2.5335.01574-.14514.03148-.29029.04744-.43544.08735-.45211.19295-.90121.25932-1.35657.50404-3.46318 1.27491-6.8627 2.34183-10.19231.06204-.00185.11974-.01875.17311-.05093.57337-.12663 1.14697-.25303 1.72034-.37966.04516.01481.07846.00115.10081-.04144.54327-.3829 1.08676-.76579 1.63025-1.14868l-.00593-.00185.23879-.23798-.00866.00857c.0764-.08218.15303-.16413.22944-.24632l.00023.00555 1.8517-2.5203c.416-.0213.83178-.06135 1.24778-.06135 10.54004-.00347 21.08007-.00347 31.62034-.00023.416.00023.832.03773 1.248.05787.83565 1.50356 1.76914 2.91893 3.31295 3.7838l.04675.01921c.19067.10857.38111.21691.57177.32548.02737.04283.06592.05927.11518.04885.63518.15001 1.27035.30002 1.90576.45003.07732.0706.15463.14098.23195.21159l-.00524-.00695c-.02417.07848-.00821.14769.0479.20719z" fill="#F2FBFC"/>
    <path d="M38.97234 49.517833c0-.03843 0-.076626-.00023-.115054 2.80686 0 5.61372.01088 8.42035-.00417 1.612686-.00834 2.56009-.89543 2.603423-2.53512.087122-3.27174.144368-6.54486.149157-9.81729.002737-1.9279-.62058-2.58813-2.512877-2.66707-.849105-.03519-1.058473-.35396-1.13807-1.16119-.14072-1.42486-.531175-2.8062-1.46558-3.94238-1.706192-2.07421-4.419315-2.91477-7.23484-2.0205-2.763527.87783-4.104352 3.00968-4.44144 5.85037-.136386 1.14914-.122017 1.151-1.232035 1.25517-1.40856.13218-1.89914.51924-1.920807 1.90521-.0545 3.50462-.08803 7.01294.01369 10.51547.06021 2.07027.79551 2.68373 2.83856 2.72725 1.97258.04236 3.94698.00926 5.9207.00926m20.53407-24.13416c.02783.19839.05565.39655.08325.59494.28577 1.56885.57155 3.13746.85755 4.70608.07663 1.33967.18291 2.67818.22488 4.019.19227 6.14552-1.01308 11.96997-3.9333 17.39253l-1.81133 2.79624c-.14095.20186-.28212.40373-.42307.60559-.14961.18519-.299.37062-.44861.55605l.00593-.00232c-.77908.84681-1.55794 1.69362-2.33703 2.54044l-.17812.18172c-.08028.07384-.16033.14792-.24061.222-.15053.14793-.30105.29585-.45135.44401-.21804.18774-.43607.37549-.65434.56346l.00092-.00116c-.17926.14792-.3583.29585-.53756.44401-2.3473 1.77835-4.797 3.38401-7.49119 4.57714-.20868.09237-.41805.18427-.62263.2852-1.0498.51878-2.04465.49725-3.15261.01389-2.88258-1.25772-5.51359-2.9187-8.01917-4.8091-.14984-.10556-.29991-.21089-.44952-.31622-.07116-.06644-.14209-.13288-.21324-.19955l-.49263-.4535-.04789-.03195-.05428.01921c-.1138-.07825-.22761-.15649-.34142-.23497l.03627-.02708c-.7743-.83339-1.54859-1.66654-2.32266-2.49993-.13547-.16112-.27117-.32224-.40665-.48336-.15965-.15812-.31929-.31646-.47894-.47457l-.00502.02269c-.08051-.15325-.16079-.30673-.2413-.45975-.06477-.08334-.12977-.16645-.19454-.24978-.02007-.07014-.05656-.1301-.1097-.17941-1.48269-2.28487-2.87346-4.61927-3.80832-7.203-1.29407-3.57615-1.91077-7.26759-1.93586-11.07709-.0219-3.35994.24814-6.68399.93554-9.97216.06249-.2984.06477-.60999.09511-.91557.3047-1.2399.6094-2.48002.9141-3.72014l-.00319.00092c1.58121-.50813 3.06025-1.16582 3.91026-2.74601l-.02691-.01481c.0812-.08079.16239-.16181.24358-.24261l-.01345.01088c.07663-.08473.15303-.16923.22944-.25395l.00342.00972c.50426-.88038 1.29407-.9746 2.21752-.97136 7.9316.02778 15.86319.0368 23.79456-.00672 1.196-.00648 2.22961.08843 2.90402 1.22091l-.00022-.00347c.75081 1.34036 1.93563 2.14504 3.31865 2.64623.53619.19423.78251.47596.90954 1.02298.208.89543.50358 1.77025.76221 2.65364" fill="#6AD8FD"/>
    <path fill="#6AD8FD" d="M29.363636 25H51.81818v26.4H29.363637z"/>
    <path d="M39.831126 46.784487c.195195 0 .39039.00167.585352-.00024 1.140836-.011457 1.28194-.163037 1.151184-1.333184-.08772-.785827-.18038-1.57404-.330892-2.349365-.150748-.775563-.126995-1.42652.44989-2.08273.52209-.593904.75609-1.382596.506568-2.223087-.290206-.97846-.961867-1.53799-1.928674-1.67382-.913892-.12818-1.70361.19169-2.242633.97894-.60369.88155-.61522 1.88055.01764 2.66494.64909.80445.73822 1.57715.52491 2.51145-.13122.57553-.16391 1.17421-.24176 1.76238-.23094 1.7483-.23094 1.7483 1.50842 1.74472m.0675-12.56273c.97692 0 1.95384-.00406 2.931.00072 1.9355.00931 1.93526.01122 1.57074-1.87815-.24246-1.25608-.76149-2.3348-1.93008-2.95855-3.27881-1.74973-6.59032-.08927-7.1959 3.59829-.16133.98229.01788 1.22195.98986 1.23484 1.21115.01624 2.42278.00406 3.6344.00287m-.96281 15.64827c-2.03521 0-4.07112.0339-6.10539-.00955-2.10646-.04487-2.86467-.67745-2.92675-2.81246-.10489-3.61141-.07032-7.22903-.01411-10.84283.02234-1.42938.5282-1.82826 1.98065-1.96456 1.1446-.10766 1.12978-.10933 1.27042-1.29428.34759-2.92943 1.73019-5.12745 4.57981-6.03263 2.90325-.92213 5.70089-.05562 7.46024 2.08345.96352 1.17158 1.36614 2.59572 1.51124 4.0652.08208.83214.29773 1.16084 1.17353 1.19736 1.95102.0814 2.59399.7622 2.59117 2.75016-.00494 3.37438-.06396 6.74947-.1538 10.12289-.04492 1.69077-1.0216 2.60574-2.68453 2.61433-2.89407.01552-5.78837.0043-8.68268.0043 0 .03963.00024.07902.00024.11864" fill="#F8FCFD"/>
  </g>
</svg>
