<svg width="80" height="80" viewBox="0 0 80 80" xmlns="http://www.w3.org/2000/svg">
  <title>
    trst-wetrust
  </title>
  <g fill="none" fill-rule="evenodd">
    <circle fill="#FFF" cx="40" cy="40" r="35"/>
    <g fill-rule="nonzero" fill="#63C6BB">
      <path d="M39.99 79.432C18.21 79.432.55 61.774.55 39.992.55 18.207 18.208.55 39.99.55c21.784 0 39.442 17.658 39.442 39.44 0 21.784-17.658 39.442-39.44 39.442zm0-8.334C57.17 71.098 71.1 57.17 71.1 39.99S57.17 8.884 39.99 8.884 8.884 22.81 8.884 39.99 22.81 71.1 39.99 71.1z"/>
      <path d="M22.06 20.848h35.863v8.997H45.39v32.82H34.494V29.88H22.06"/>
    </g>
  </g>
</svg>
