<svg width="80" height="80" viewBox="0 0 80 80" xmlns="http://www.w3.org/2000/svg">
  <title>
    true-true-chain
  </title>
  <g fill="none" fill-rule="evenodd">
    <circle fill="#FFF" cx="40" cy="40" r="40"/>
    <path d="M40.71618 33.160361c.080051.022892.159801.045784.239853.068976 3.509302-3.7 7.018605-7.399698 10.642698-11.22018-.26825.03012-.346187.019578-.404187.048494-3.33198 1.650602-6.66849 3.29277-9.981136 4.981325-.251937.128313-.462187.580723-.47427.890964-.05226 1.326506-.022657 2.656325-.022959 3.98494v1.245481M28.247388 21.988072c-.034438.043675-.068573.087048-.10301.130723 3.54525 3.729217 7.090197 7.458434 10.635145 11.18765.062531-.026204.125365-.052108.187896-.078312.017823-.261747.049844-.522892.05075-.784338.005135-1.40512-.029906-2.810843.015708-4.214458.022656-.696988-.212969-1.087349-.853687-1.396686-3.147709-1.518976-6.272459-3.085241-9.406875-4.631928-.169167-.083434-.350417-.142169-.525927-.21265M65.972763 37.13988c-3.016605-4.80994-5.910563-9.424398-8.804521-14.038856-.069782.03012-.139563.060241-.209344.09006.316583 3.693976.64374 7.387049.937969 11.08223.043802.553313.287583.783734.792062.915662 2.019125.528614 4.030698 1.085843 6.045896 1.630723.33048.089458.66277.171988 1.237938.32018m-43.24323-14.064457c-.067666-.027109-.13503-.053916-.202698-.080723-2.920843 4.653915-5.841385 9.307831-8.86524 14.125903.41023-.065662.602657-.079216.785417-.128614 2.136334-.576205 4.265417-1.180422 6.409605-1.725301.714729-.181326.947937-.56265.994458-1.266868.148625-2.25.363406-4.495482.54798-6.743373.11479-1.393374.220822-2.78735.330478-4.181024m32.293917-2.237049c-4.459958 4.706928-8.755583 9.240362-13.050906 13.773495.036854.075.073708.1503.110562.225602.291813 0 .583323.000301.874834 0 3.997166-.001807 7.99403-.003012 11.991197-.005422 1.243678-.000903 1.262709-.003313 1.164532-1.26988-.19575-2.521686-.410532-5.042168-.625615-7.56265-.140167-1.641265-.295135-3.280723-.464604-5.161145m-30.234615.135543c-.071593.039156-.142885.078012-.214479.117168-.361896 4.341868-.720166 8.684037-1.089312 13.025302-.061625.724698.387573.737048.908968.736144 4.20047-.008735 8.400636-.008132 12.601105-.013855.215385-.000302.430468-.031326.85852-.064458-4.43851-4.688253-8.751656-9.244277-13.064802-13.800301m41.442209 18.018072c-.521698-.15271-.854896-.255723-1.191115-.34729-2.061719-.561144-4.134614-1.085541-6.181229-1.697288-.757927-.226506-1.137042-.10482-1.541833.618072-4.317677 7.705723-8.677344 15.38765-13.02372 23.07741-.120832.213855-.22052.439457-.330176.659638.054979.032229.109656.064458.164333.096386 7.327938-7.428314 14.655875-14.856627 22.10374-22.406928M35.66444 61.544096c.043802-.045783.087906-.091566.131708-.137951-1.280531-2.27229-2.561667-4.544579-3.842198-6.81717-3.228667-5.728614-6.46277-11.454216-9.676937-17.191264-.309032-.551807-.631959-.712952-1.262407-.531928-2.296437.658434-4.609187 1.259639-6.914083 1.88765-.199677.054519-.388781.147591-.698115.266868 7.485625 7.574097 14.87398 15.049097 22.262032 22.523795m20.260427-24.92741c-.251032-.056023-.34649-.096084-.442552-.096084-4.707063-.005421-9.413823-.003614-14.120584-.01506-.570333-.001205-.64827.318073-.647969.776506.005136 8.507831.003928 17.015663.00876 25.523795 0 .136747.056188.273494.11449.538555C45.90295 54.37 50.88642 45.54259 55.924867 36.616687m-32.241052-.041265c5.083156 8.986446 10.102875 17.860542 15.122593 26.73494.190313-.228615.209042-.375.209042-.521988.002417-8.478615-.002417-16.95723.01601-25.435844.001209-.668373-.236229-.859638-.882083-.856928-4.553302.018675-9.107208.006326-13.66051.007832-.215084 0-.430167.03735-.805052.071988m45.175656 1.816265c-.100594.231325-.161313.45241-.283656.631325-.140167.20482-.33048.376807-.507198.55512-5.87099 5.92741-11.746813 11.85-17.613573 17.781928-3.30449 3.340663-6.59448 6.695181-9.889604 10.04488-.517771.526205-.896584.55753-1.413448.033735-5.081042-5.153012-10.153927-10.313554-15.231344-15.469277-1.252136-1.271085-2.515448-2.531326-3.767886-3.801808-2.893052-2.934638-5.77402-5.880722-8.68127-8.801204-.55825-.561145-.614136-1.06747-.202396-1.731326 3.892041-6.273494 7.767469-12.556927 11.65377-18.834036.557344-.9.836771-.97018 1.791959-.494277 4.773823 2.375904 9.550365 4.745783 14.310896 7.148494.583927.294578 1.034635.281024 1.610406-.00994 4.714615-2.381325 9.444635-4.73253 14.17073-7.091265 1.12677-.56235 1.365416-.506626 2.02003.544578 3.861834 6.203916 7.71823 12.410844 11.57251 18.619278.169772.272891.300876.569277.460074.873795" fill="#000"/>
  </g>
</svg>
