<svg width="80" height="80" viewBox="0 0 80 80" xmlns="http://www.w3.org/2000/svg">
  <title>
    tsl-energo
  </title>
  <g fill="none" fill-rule="evenodd">
    <circle fill="#29D6B6" cx="40" cy="40" r="40"/>
    <path d="M30.260641 64.428782v-2.758926c.985011-1.133611 1.91857-1.71767 1.91857-1.71767h15.534576s1.188345.738827 2.298523 2.174869v2.290056h-5.746804v.011671H30.260641zm0-8.92792v-2.558998c1.06862-1.353837 2.156041-2.057143 2.156041-2.057143h15.230316s1.195766.763183 2.312376 2.247432v2.35653h-5.39406v.012178H30.26064zm-2.47628-25.564141c-.981548 1.033138-2.561721 1.019945-3.544753-.018268l-3.491816-3.687534c-.997874-1.053435-.990453-2.714272-.017316-3.742843.980558-1.035676 2.559247-1.02299 3.544753.01776l3.49231 3.687533c.99738 1.053436.987485 2.714272.016822 3.743351zm12.34885-5.402361c-1.387723 0-2.494438-1.190951-2.494438-2.657947v-5.218974C37.638773 15.166594 38.756867 14 40.13321 14c1.388712 0 2.494438 1.190951 2.494438 2.65744v5.218973c0 1.488308-1.118094 2.657947-2.494438 2.657947zm19.401398-2.046386c.982042 1.037706.969674 2.702094-.014347 3.742844l-3.493796 3.687533c-.998863 1.053436-2.570131 1.043288-3.544258.018268-.977095-1.037198-.9672-2.705646.016821-3.743351l3.4933-3.687534c.99639-1.053436 2.567658-1.045824 3.54228-.01776zm-9.5222 20.545554v2.6889H30.26074v-2.836564l2.882307-1.686715h14.014265l2.855097 1.834379zM40.13321 27.168356c8.263504 0 14.962666 7.076187 14.962666 15.800525 0 .843865.067284 1.915568-.039579 2.753852h-4.284376s.115767-2.557475.115767-2.753852c0-5.818763-4.923075-11.499503-10.754478-11.366047-6.122305.139545-10.754477 5.547284-10.754477 11.366047 0 .134977.122198 2.753852.122198 2.753852h-4.258156c-.109335-.838284-.07223-1.909987-.07223-2.753852 0-8.724338 6.700646-15.800525 14.962665-15.800525z" fill="#FFF" fill-rule="nonzero"/>
  </g>
</svg>
