<svg width="80" height="80" xmlns="http://www.w3.org/2000/svg"><g fill="none" fill-rule="evenodd"><circle fill="#009DE3" cx="40" cy="40" r="40"/><path d="M70 30.615c-.15-.788-.34-1.55-.566-2.276L70 30.615z"/><path d="M55.752 24.476c-2.703-1.393-5.66-2.3-8.667-2.718-2.81-.39-5.731-.2-8.562-.184l-9.625.047-4.5.025v18.745h10.751v12.982s4.258-1.25 4.495-7.115c.095-2.362.115-4.56.103-6.342v-4.38H29.718v-8.972h14.58c7.386 0 14.496 3.651 17.765 10.538 2.428 5.111 1.632 10.006 1.31 11.829-.73 4.134-2.635 7.581-5.278 10.36-6.14 6.455-16.272 9.298-24.962 8.727a48.552 48.552 0 0 1-5.057-.624A27.551 27.551 0 0 1 23.585 66c.047.036.094.07.141.104.344.26.703.498 1.075.714.562.322 1.148.598 1.725.89a30.511 30.511 0 0 0 12.833 3.276c.337.01.674.016 1.01.016h.065a28.685 28.685 0 0 0 3.014-.152l.126-.013.283-.033c1.786-.21 3.55-.589 5.266-1.13a28.348 28.348 0 0 0 8.028-3.978c5.3-3.769 7.983-8.362 8.695-9.642 0 0 1.226-2.267 1.947-5.827.88-4.354.999-10.639-2.817-17.085-2.192-3.71-5.408-6.695-9.224-8.664z" fill="#FFF" fill-rule="nonzero"/><path d="M32.001 62.467c1.964.016 3.92-.246 5.81-.776 5.262-1.472 8.458-4.595 9.275-5.432a20.052 20.052 0 0 0 4.28-6.546c1.106-2.77 1.417-5.92 1.47-8.88.003-.16.013-1.117.026-2.194 0-1.397 0-2.683-.003-3.384h-4.575v4.897c0 5.325-1.74 11.207-6.145 14.571-5.49 4.193-14.242 3.703-20.057-.383-7.347-5.162-8.727-15.672-6.226-23.726 2.385-7.687 8.758-13.241 16.34-15.667 6.777-2.17 14.36-1.98 20.992.615 7.1 2.777 12.816 8.2 16.812 14.606l-1.026-2.294c.411.732.754 1.5 1.026 2.294a32.448 32.448 0 0 0-2.426-5.422 33.83 33.83 0 0 0-1.919-3.037c-.068-.108-.489-.74-1.308-1.711a15.088 15.088 0 0 0-.624-.717 32.044 32.044 0 0 0-5.12-4.59C43.032 3.536 20.45 9.43 12.387 26.7c-.048.094-.095.188-.14.283a24.003 24.003 0 0 0-1.237 3.206c-.93 3.132-1.12 6.249-.956 9.025.143 2.365.314 5.943 2.19 10 .626 1.352 4.037 8.374 11.869 11.614 3.736 1.545 7.03 1.63 7.89 1.638z" fill="#FFF" fill-rule="nonzero"/></g></svg>