<svg width="80" height="80" viewBox="0 0 80 80" xmlns="http://www.w3.org/2000/svg" xmlns:xlink="http://www.w3.org/1999/xlink">
  <title>
    tx-transfercoin
  </title>
  <defs>
    <path id="a" d="M.000045.271815h69.76149V69.71767H.000045z"/>
  </defs>
  <g fill="none" fill-rule="evenodd">
    <circle fill="#FFF" cx="40" cy="40" r="40"/>
    <g transform="translate(5 5.01)">
      <mask id="b" fill="#fff">
        <use xlink:href="#a"/>
      </mask>
      <path d="M34.833842 2.401c-18.025425.01016-32.638138 14.58484-32.66846 32.584435-.03061 18.020767 14.64587 32.637218 32.770484 32.636654 17.982915-.00057 32.673847-14.63678 32.71409-32.59206.03996-17.95613-14.72749-32.63919-32.816114-32.62903m.184494-2.12597C55.281494.47233 70.32356 17.26979 69.74542 36.27874 69.179188 54.901 53.30279 69.99136 34.037204 69.7139 15.013074 69.440114-.316644 53.430154.005016 34.17084.31619 15.52233 16.342223.008015 35.018336.27503" fill="#313231" mask="url(#b)"/>
    </g>
    <path d="M64.939725 39.57314c-.319676-10.397257-6.86085-19.432338-16.39587-22.945322-.696033-.25629-1.394616-.768024-1.857976-1.346935-3.58276-4.47633-10.03494-4.43258-13.57179.09992-.40215.51512-1.02138.970685-1.63551 1.19762C21.22005 20.37056 14.63835 30.02943 14.87102 40.935036c.015587.734718-.198097 1.588266-.59514 2.199637-3.39656 5.228267-.481783 11.951654 5.676233 13.079275.672227.123346 1.396883.51371 1.886316.993266 5.74056 5.624838 12.53566 8.372338 20.63072 7.562822 6.11097-.611088 11.25498-3.226774 15.56522-7.56508.518053-.52133 1.282952-.921008 2.00336-1.102218 5.120483-1.289073 8.00664-6.76742 5.81765-11.47859-.584375-1.258023-.962998-2.25778-.963565-3.451168 0-.270686.055545-1.349758.047894-1.59984M39.892194 9.637134c16.943685-.00621 30.548058 13.50492 30.550325 30.34105.00226 16.840644-13.61883 30.468627-30.46191 30.477942C23.116 70.464876 9.45693 56.88911 9.40535 40.067093c-.05158-16.8 13.598138-30.42375 30.48684-30.42996" fill="#158BCF"/>
    <path d="M51.335777 53.144278c1.488705 1.00879 2.877652 1.95012 4.24903 2.879033-6.449354 7.61702-21.90235 9.80396-31.540528-.05278 1.33595-.97181 2.68182-1.95068 4.19688-3.0529 3.14008 2.78222 7.0238 4.43117 11.46498 4.47633 4.46129.04545 8.41728-1.44629 11.62963-4.24967" fill="#2D2E2D"/>
    <path d="M51.12864 47.90362c-.007085-3.877096 3.11826-7.027943 6.976477-7.033305 3.87069-.005363 7.010486 3.117258 7.02069 6.982782.010485 3.892056-3.080568 6.99859-6.969394 7.00367-3.906397.005362-7.020688-3.075767-7.027773-6.953146" fill="#158BCF"/>
    <path d="M28.25964 47.836218c.013886 3.903064-3.052794 7.003387-6.944737 7.02117-3.903846.0175-7.022956-3.057702-7.037692-6.938186-.01473-3.880202 3.09247-7.02992 6.95353-7.04883 3.85907-.018912 7.01531 3.10879 7.02891 6.965846" fill="#148BCF"/>
    <path d="M32.951397 20.42989c-.021822-3.924797 3.005182-7 6.918097-7.028507 3.929636-.028226 7.037692 3.007742 7.057247 6.89387.01984 3.9073-3.02927 7.00875-6.92291 7.042058-3.90838.03331-7.0306-3.02496-7.05243-6.90742" fill="#148ACF"/>
    <path d="M62.413887 40.49559c-1.611984-.377098-3.240122-.758147-5.04652-1.180687-.194695-3.01621-1.075788-6.039758-2.880484-8.752822-1.78486-2.68314-4.152106-4.71145-6.98498-6.12754.332996-1.72036.656923-3.39443.978016-5.05354 7.69915 2.40145 14.68214 11.90424 13.93396 21.1146M31.38385 19.36812c.32591 1.687622.63425 3.284073.971498 5.02984-5.944332 3.142096-9.393887 8.175322-9.841093 14.979153-1.75.302298-3.399393.58738-5.038583.870484-.71757-8.101936 5.36251-18.03488 13.908178-20.879476" fill="#2D2E2D"/>
  </g>
</svg>
