<svg width="80" height="80" viewBox="0 0 80 80" xmlns="http://www.w3.org/2000/svg" xmlns:xlink="http://www.w3.org/1999/xlink">
  <title>
    ucash-ucash
  </title>
  <defs>
    <path id="a" d="M.000547.07728h30.480294V23.92H.000547z"/>
    <path id="c" d="M1.676553 1.8308h12.617v12.820936h-12.617z"/>
  </defs>
  <g fill="none" fill-rule="evenodd">
    <circle fill="#FFF" cx="40" cy="40" r="40"/>
    <path d="M34.274665 52.663432c-1.04306-1.39288-2.166353-2.7324-3.10547-4.1952-.740354-1.15184-1.307471-2.43064-1.852707-3.69472-1.453353-3.3672-.793235-6.42896 1.517177-9.15768 1.07953-1.27328 2.279412-2.44352 3.424588-3.65976 1.76153 1.7756 3.523059 3.55304 5.286412 5.32864-.434.4876-.875294.96784-1.300177 1.4628-1.931117 2.23928-2.05694 4.5632-.297235 6.94784.550706.74888 1.263706 1.37632 1.901941 2.0608 1.522647 2.02216 3.21853 3.84008 5.592765 4.8668 2.366941.82064 4.226941-.01288 5.900941-1.7204 4.09747-4.18048 8.246-8.30944 12.350765-12.48256.510588-.51704.87894-1.17576 1.209-1.62472 1.969411 1.99456 3.645235 3.69104 5.45053 5.52.04194-.06624-.067472.20056-.255295.39008-4.989176 5.04896-9.998412 10.07584-14.980294 15.13216-3.213059 3.25864-6.860118 4.28536-11.112588 2.28896-.984706-.46368-1.922-1.0304-2.868412-1.57504-.565294-.32752-1.103235-.70288-1.655765-1.05616-1.734176-1.61-3.470176-3.22184-5.206176-4.83184" fill="#353535"/>
    <path d="M45.442141 52.622032c-2.374235-1.02488-4.070118-2.84464-5.592764-4.8668.175058-.22264.339176-.45816.528823-.66792 3.501177-3.92288 3.079941-6.87056-.833353-9.80168-1.763353-1.77744-3.524882-3.55488-5.286412-5.33048-2.45994-2.59072-4.921706-5.18144-7.257647-7.64336 1.739647-1.70936 3.481118-3.4224 5.311941-5.22376 2.303118 2.21168 4.92353 4.72512 7.540295 7.23856 1.759705 1.77928 3.521235 3.55672 5.28094 5.33416.911765 1.03776 1.803471 2.09392 2.738942 3.1096 3.876823 4.22096 3.678059 7.54768 1.261882 12.21208-.798706 1.54008-1.956647 2.89248-2.935882 4.3424-.279.414-.505118.8648-.756765 1.2972" fill="#CB9936"/>
    <g transform="translate(9 37.249752)">
      <mask id="b" fill="#fff">
        <use xlink:href="#a"/>
      </mask>
      <path d="M25.274665 15.41368c1.736 1.61 3.472 3.22184 5.206176 4.83184-2.186412 2.04608-4.684647 3.404-7.715353 3.64872-1.898294.15088-3.60694-.36064-5.133235-1.45544-.886235-.63664-1.763353-1.31376-2.534706-2.08288C10.19043 15.44496 5.310665 10.50456.42543 5.56784c-.19694-.19872-.35194-.43976-.424882-.53176 1.626588-1.67072 3.185706-3.27152 4.83053-4.9588.441294.41952.973764.89608 1.477058 1.40208 4.170412 4.20072 8.39006 8.35728 12.478412 12.63712 1.945706 2.03504 4.017235 2.43248 6.488118 1.2972" fill="#CC9B38" mask="url(#b)"/>
    </g>
    <g transform="translate(38.176471 17.009752)">
      <mask id="d" fill="#fff">
        <use xlink:href="#c"/>
      </mask>
      <path d="M6.957494 14.651736l-5.280941-5.33416c2.521941-2.51344 5.043882-5.02688 7.509294-7.48696 1.796176 1.80136 3.479294 3.49048 5.107706 5.12624-2.436235 2.55576-4.885235 5.12624-7.336059 7.69488" fill="#373635" mask="url(#d)"/>
    </g>
  </g>
</svg>
