<svg width="80" height="80" xmlns="http://www.w3.org/2000/svg">
  <g fill="none" fill-rule="evenodd">
    <circle fill="#496165" cx="40" cy="40" r="40"/>
    <path d="M41.183548 74.994629c.006941-.527585-.427868-1.493195-.820823-1.850702-.266149-.242182-.52546-.25174-.760425.020052-.461746.533818-.778866 1.141299-.775136 1.86452.003419.657558.492204 1.077506 1.195234 1.071688.70386-.005818 1.152344-.432727 1.16115-1.105558M18.882486 13.866525c-.224605-.549299-.377311-1.144728-.692152-1.635844-.381145-.594702-1.174618-.58317-1.71251-.074806-.532193.503065-.572494 1.225247.01637 1.658805.45615.335793 1.013208.575793 1.561253.732468.519761.14878.719088-.085195.82704-.680623m55.727738 21.16322c.55768-.057662.993733-.22483 1.231184-.719065.23165-.482181.13468-.948779-.192282-1.356363-.323232-.40322-.805594-.500468-1.21585-.297559-.527429.260676-1.011345.637819-1.45465 1.031896-.297954.264832-.22937.633351.145558.803325.478426.216727.989278.36187 1.48604.537766m-69.304532.007897c.52805-.188052 1.071225-.34265 1.578865-.575481.369335-.16935.434706-.535377.13292-.806857-.403523-.36322-.849625-.698182-1.325668-.955637-.43481-.235012-.907847-.171116-1.28723.198338-.359182.349715-.472935.942753-.265735 1.390442.222533.480727.623672.663896 1.166848.749195m33.515462-30.17361c.075421.58348.341673 1.187636.812329 1.695168.244289.263377.511577.275013.754726.001766.470448-.528415.788397-1.13496.788604-1.857766.000104-.67626-.50909-1.10639-1.233773-1.087792-.689459.017662-1.130795.467117-1.121886 1.248623M50.81152 7.17437c.090754.400415.154779.809454.27941 1.19896.1324.413611.471173.561663.801761.281975.463818-.392312.926703-.822857 1.25843-1.324572.33349-.504415.090858-1.106285-.43512-1.41361-.409738-.239273-.839368-.322597-1.269101-.056623-.482155.298597-.58213.78026-.63538 1.31387m-5.955659-1.769247c.17436.49787.306967 1.016104.534991 1.487896.224709.46504.549495.524364.900907.156883.350893-.367065.657239-.79522.901631-1.241454.251541-.459221.195494-.954286-.208754-1.326442-.381145-.35065-.847345-.454026-1.34245-.26109-.518311.202077-.703652.622025-.786325 1.184207m-21.21668 4.811013c.024347-.004987.048796-.009974.073142-.015065-.100285-.415376-.157058-.848104-.312872-1.24135-.169283-.427637-.523491-.681975-1.011033-.666806-.524424.016416-.924942.259117-1.161461.72935-.221083.439274-.123388.881248.210826 1.189196.386118.35574.826522.675948 1.292826.913974.542346.276779.830665.070234.906397-.547325.014608-.11896.002176-.241247.002176-.361974m27.187257 62.152416c.04258.329766.049003.539117.099249.737246.119554.472416.40114.809767.90132.88.535406.075221.997359-.098597 1.298939-.562285.276923-.425663.22647-.897351-.083295-1.255377-.365294-.422234-.801968-.791065-1.246827-1.131844-.290495-.222338-.584305-.08748-.69868.247273-.131986.386493-.200776.794597-.270706 1.084987m25.657187-32.537247c-.010878-.715637-.565553-1.296624-1.229733-1.136-.584926.141299-1.153173.432623-1.669309.753766-.398342.247792-.38301.620156.029423.877091.474281.29548.996736.561766 1.534214.695169.73442.182234 1.347215-.416624 1.335405-1.190026M7.209656 50.620187c-.003005.01278-.006113.02535-.00922.037922-.189278.010286-.382907-.001455-.567004.03522-.491168.097455-.861746.351585-.976017.873767-.110438.504935.068273.927792.443927 1.250286.383942.329454.864024.362285 1.246205.072208.457913-.347429.879358-.769247 1.229112-1.226182.289873-.37891.156436-.668675-.312458-.82452-.338462-.112415-.702098-.148467-1.054545-.218701m67.177933 1.154494c-.03885-.467845-.259415-.848-.741052-.99387-.699404-.211637-1.398394-.148884-2.06475.148155-.29785.13278-.434188.40613-.214038.673974.366848.446338.734318.928935 1.202487 1.24665.8115.551168 1.806786-.059429 1.817353-1.07491M56.343973 69.496448l-.044237.011013c.082258.38483.130847.780987.255374 1.151584.154468.459948.492722.740156.99943.764156.505672.023896 1.00689-.27574 1.216887-.722182.220668-.469402.108987-.915636-.239834-1.231688-.388915-.352312-.836675-.662753-1.306087-.895896-.491478-.24426-.767676-.044676-.85698.510026-.021756.13548-.017094.27522-.024553.412987m-42.540067-8.61974c-.496141.177246-1.011966.313766-1.48231.543896-.410257.200727-.63766.59522-.576328 1.069922.066719.51709.367159.901402.861228 1.071168.465682.160104.928257.0453 1.201036-.35948.293188-.43491.549391-.91948.701476-1.419117.18358-.602909-.044134-.825974-.705102-.90639M56.315483 10.15037c.016576.002701.033256.005402.049832.008104 0 .120727-.012018.242909.001968.36187.08433.719065.411914.920831 1.048019.575688.401968-.218182.778865-.509299 1.107588-.829195.339498-.330493.461435-.76374.245636-1.233974-.210204-.45787-.747889-.777039-1.25957-.740052-.509298.03678-.821549.34026-.966381.802494-.107123.341714-.153536.70265-.227092 1.055065m4.917483 3.524467c.014814.806338.237451 1.046857.739497.89174.529707-.163532 1.049883-.415792 1.512147-.72322.372339-.247689.527843-.678961.368091-1.147533-.169593-.497454-.519554-.806233-1.037658-.894649-.478943-.081766-.881326.115948-1.083968.527896-.246361.500675-.392437 1.05091-.49811 1.345766m5.170889 5.094961c.26418-.095376.796996-.238545 1.282362-.478337.409635-.202286.626988-.598961.553121-1.078234-.079772-.517403-.38218-.877195-.878736-1.056727-.467133-.168831-.90215-.022234-1.152551.345974-.312251.459428-.570837.982234-.726548 1.514701-.160684.549403.07915.768727.922352.752623M29.166869 7.29146c-.036467-.25652-.051386-.480831-.102668-.696416-.114478-.481558-.421134-.80135-.908884-.872623-.511991-.074702-.956436.111792-1.259052.541506-.292774.416104-.258482.878234.039783 1.253195.316705.39813.684278.775377 1.092773 1.075013.467859.343169.790987.198338.959752-.367896.092515-.310338.124113-.638857.178296-.93278m15.708365 66.961767c.062886.630753.303963 1.061403.758768 1.24478.462263.186493 1.10531.043636 1.430717-.317715.327894-.36426.385807-.865766.075214-1.392831-.232997-.395533-.515515-.77704-.841233-1.098182-.385393-.380052-.712044-.321039-.939964.163948-.208754.444156-.32603.931636-.483502 1.4M35.133924 5.4312c-.069205-.558234-.254856-.974026-.758353-1.199688-.46185-.206961-1.097436-.079793-1.426573.293506-.365502.414546-.382492.894753-.113857 1.342961.253406.423065.549184.83626.896866 1.182442.362393.36083.677027.296311.89811-.173299.216213-.459117.3396-.962182.503807-1.445922m-6.003522 66.995532c-.01264-.090078-.039783-.329454-.081845-.56613-.026936-.15148-.062574-.304311-.11769-.44748-.195804-.508467-.464542-.627948-.905257-.304312-.395545.290286-.750583.653922-1.062626 1.035221-.28749.35148-.354416.792208-.12142 1.21413.245843.44509.647915.652052 1.152551.65091.710076-.001871 1.135147-.540157 1.136287-1.582339m46.831701-26.539324c-.008806-.603429-.45149-1.14265-1.07164-1.09413-.599222.046857-1.201657.245818-1.76721.468675-.408599.16104-.433774.566961-.115203.841143.42445.365403.881947.73704 1.390417.94878.806112.335791 1.576586-.282702 1.563636-1.164468m-6.073142 10.18722c-.27423.048728-.498005.072728-.712768.130702-.317224.085714-.520694.341922-.350272.61974.344367.56135.698575 1.158026 1.187257 1.57787.543797.467117 1.283605.173403 1.624035-.502337.321575-.638338.090029-1.317507-.586584-1.56852-.381766-.141714-.801243-.180987-1.161668-.257454M35.139726 74.34777c-.17871-.51439-.316499-1.048207-.548045-1.53735-.202538-.427533-.554053-.493091-.874592-.149715-.369542.395845-.69868.850598-.94991 1.330078-.232478.443948-.134265.919585.259415 1.270858.39451.352103.872831.419636 1.35167.235116.489304-.188571.674852-.60696.761461-1.148987m37.598032-45.23813c.279202-.039168.485884-.056207.68718-.0987.478528-.100884.814607-.368312.91427-.867949.100182-.502753-.068997-.928415-.4518-1.247896-.390261-.325714-.878218-.34587-1.250453-.058909-.467547.360208-.873038.816312-1.247034 1.278442-.247397.305766-.09697.611948.262419.732467.37182.124468.764258.187325 1.085418.262546m-65.60373-.002702c.400415-.091117.80922-.155844 1.198964-.280727.389537-.124883.536545-.447065.269775-.76613-.380937-.45548-.789225-.923636-1.278736-1.243117-.60575-.395532-1.332919-.06348-1.603315.613299-.369749.925195.263144 1.660987 1.413312 1.676675m6.652681-10.29174c.727273-.06826.947216-.29413.723958-.955117-.167107-.494857-.43481-.977454-.752655-1.392416-.271536-.354597-.70562-.47896-1.16861-.292987-.491582.1973-.794301.564052-.855529 1.078442-.05667.475948.193629.858494.609169 1.052571.460295.214961.960683.343377 1.443667.509507M9.556405 58.60959c.114478-.053195.414608-.101715.560477-.278234.37845-.457974.720435-.954286 1.015695-1.470546.195804-.342441.00808-.596363-.367159-.688935-.699197-.172363-1.376741-.08083-2.003937.251325-.463817.245506-.633929.749403-.49324 1.243013.163792.574753.629578.958338 1.288164.943377m56.859466 2.365506c-.897176-.012675-1.128723.214857-.94017.80852.158093.498078.412017.982857.709246 1.414026.274644.398441.72862.507012 1.204455.357506.456462-.143584.864128-.655792.877389-1.121455.013675-.476155-.217457-.852363-.63911-1.039896-.465163-.20696-.96493-.335792-1.21181-.4187M4.992303 41.048861c.327169-.179428.925666-.46483 1.475265-.825246.322922-.211845.295985-.593351-.028904-.775065-.546491-.30587-1.120125-.622858-1.721627-.754182-.665113-.145143-1.201036.454753-1.203522 1.170182-.002487.699636.476975 1.192 1.478788 1.184311M4.037628 45.9245c.003936.87439.743952 1.470337 1.533695 1.130182.535199-.230442 1.008444-.638754 1.455686-1.029507.283035-.247065.227816-.632935-.128465-.764156-.58679-.215896-1.20435-.423376-1.819943-.463792-.613416-.040208-1.04377.521143-1.040973 1.127273m65.733644-22.232831c.506708-.115221.900285-.171221 1.270033-.297559.444134-.151896.721057-.50078.7338-.972987.013986-.518961-.233722-.93548-.694328-1.189714-.42704-.235637-.85667-.15813-1.201036.148987-.291738.259948-.568247.56696-.754623.906597-.162963.296935-.35742.761455-.234654.982234.138617.249039.61611.308571.880808.422442M18.75972 66.05977c-.004869-.816727-.251852-1.071272-.775032-.906285-.514685.162285-1.017871.415584-1.466149.718233-.371095.250598-.53354.67117-.381973 1.145974.169386.530182.55167.838754 1.079306.92187.472312.074494.871276-.155947 1.069567-.570077.234447-.489559.374307-1.024831.474281-1.309715m42.467755.054442c.100181.264623.251955.796156.499352 1.278441.210205.409767.619425.617143 1.089355.530182.525667-.09735.906916-.406337 1.06128-.943896.138202-.480935-.049936-.888623-.424657-1.132467-.440197-.286338-.932712-.519065-1.433204-.67761-.549288-.17413-.801554.075844-.792126.94535m-51.171407-42.46691c.30759-.056622.565243-.084051.810671-.154389.300648-.086026.45957-.347532.301062-.599688-.351204-.558857-.697021-1.160831-1.184667-1.582857-.534784-.462857-1.288475-.161766-1.6288.509818-.313391.61839-.105155 1.283325.542967 1.547429.375343.152935.795442.19574 1.158767.279688m13.60083 46.04987c-.016991-.272831-.014608-.412364-.03595-.548156-.105154-.668052-.39741-.852363-.996322-.533195-.432841.23065-.841026.540883-1.190987.886234-.340016.335585-.423828.791585-.180886 1.242805.250712.465559.666356.708572 1.183528.699013.496348-.009246.845584-.302649 1.000155-.767688.118312-.35626.167729-.735688.220461-.979013m16.540275-20.427429c.90215-.056519 2.213934-.10109 3.517327-.229818 1.630355-.161246 3.25408-.409247 4.781145-1.041558.468065-.19387.915514-.484572 1.304014-.812468.381248-.32187.38042-.771532.06361-1.100571-.09065-.094026-.347889-.152935-.447655-.09278-1.209428.729663-2.557058 1.027845-3.918053 1.249767-3.584045.58452-7.181973.599688-10.774514.097143-1.585807-.221715-3.168402-.509195-4.574152-1.371429-.08661-.05309-.300544-.014441-.381973.060987-.376898.349403-.373375.926961.125874 1.248935.656513.423273 1.37467.801767 2.118104 1.028468 2.531054.77174 5.152862.892571 8.186273.963324M28.86591 51.77759c-.632375.532156-.670085 1.078649-.054182 1.598857.324268.273974.706241.500779 1.096089.671273 1.725874.7547 3.567366 1.032207 5.419114 1.239272 2.631132.294338 5.269308.30504 7.906138.099637 1.926755-.149923 3.845947-.393974 5.6777-1.043637.655478-.232623 1.30246-.562805 1.862523-.973195.648226-.474805.58762-1.060363.004558-1.55096-.668635.28987-1.297695.615168-1.960632.84-1.907381.646649-3.892877.884779-5.889355 1.035532-2.483294.18774-4.96721.172052-7.441802-.108676-2.29609-.26026-4.589796-.561142-6.62015-1.808103m10.935923 10.083636c1.97586-.150857 3.957627-.248831 5.925822-.468883 1.711267-.191377 3.413106-.514286 4.999223-1.230961.509298-.23013.999637-.54961 1.41984-.918442.456254-.400727.430976-.940675.073348-1.39439-.166589-.21122-.29816-.244051-.557886-.101921-.571562.312727-1.158871.615065-1.77177.829922-1.965811.688935-4.018336.971117-6.080704 1.129662-3.4993.26878-6.998083.249039-10.475939-.295169-1.90821-.298597-3.8101-.636467-5.491116-1.69413-.086195-.05413-.30044-.014441-.386428.060468-.472417.412467-.506708 1.141506.06361 1.526753.759389.513039 1.591194.985039 2.459674 1.256831 3.190883.998753 6.496762 1.186286 9.822326 1.30026m23.542813-30.472208c-.336183-1.49496-1.177312-2.501195-2.209894-3.371325-1.348667-1.136415-2.894794-1.936207-4.520902-2.584311-4.790883-1.909818-9.812898-2.605299-14.922351-2.777559-3.977623-.13413-7.931417.150754-11.843253.914702-2.971459.580363-5.865735 1.407272-8.55654 2.836779-1.41238.750338-2.723129 1.64239-3.700803 2.94535-.436467.58161-.778348 1.210598-.897488 1.995533.515825-.537974.96141-1.066493 1.471122-1.522805 1.660295-1.486338 3.62704-2.445922 5.693343-3.210702 3.947268-1.460779 8.049107-2.145454 12.232375-2.411324 5.034862-.32 10.043202-.123013 14.979332.968312 4.565864 1.00935 8.991764 2.358337 12.275059 6.21735m-35.148719-8.281766c7.910386-1.65361 15.703186-1.637922 23.616059-.004052-.203575-.302234-.318364-.490805-.45066-.665974-.996116-1.319169-2.241182-2.35148-3.693655-3.119169-3.700596-1.95574-7.606527-2.35439-11.648485-1.403636-2.913546.685298-5.44087 2.060571-7.326496 4.46587-.155193.198026-.285315.415896-.496762.72696m12.359492 1.71782c-4.245532-.008105-7.898886.340986-11.662678 1.145142-2.960166.63252-5.829889 1.542234-8.448278 3.117506-1.117638.67252-2.137166 1.466286-2.914685 2.53278-1.228076 1.684675-1.263714 3.513974-.026211 5.18587.457084.617454 1.023569 1.173299 1.614918 1.667325 1.256255 1.04935 2.713805 1.769246 4.22471 2.373194 4.771198 1.907221 9.773633 2.606857 14.864127 2.786494 3.854339.136 7.689407-.118857 11.486455-.820572 3.060554-.565714 6.046205-1.384311 8.82994-2.822441 1.498576-.774234 2.893551-1.696208 3.918467-3.076572 1.296037-1.745454 1.297591-3.631376-.028905-5.355117-.407148-.52935-.891582-1.01548-1.406164-1.441973-1.629837-1.351377-3.529655-2.214234-5.506863-2.909403-5.005232-1.759896-10.197566-2.317299-14.944833-2.382234M39.401834 1.06081c18.059259.002806 33.336027 11.443325 38.217663 28.172364 1.361202 4.664935 1.772288 9.423688 1.344937 14.270857-1.445636 16.39678-13.494846 30.557403-30.274022 34.36239-4.39368.996156-8.835224 1.214753-13.317897.685402C19.726413 76.704343 6.77671 65.7725 2.377747 50.662057 1.068552 46.164914.591785 41.57011.98246 36.906213 2.413385 19.825382 14.580699 5.844291 31.308594 2.026109c2.868997-.654857 5.781714-.952623 8.09324-.965299" fill="#496165"/>
    <path d="M19.566485 33.184208c.305103-.079792.598187-.118753.85439-.237922.14504-.067429.31598-.26587.316706-.40613.000725-.140675-.166485-.339844-.3108-.41361-.568765-.290494-1.162497-.280312-1.726496.015272-.406113.212883-.409428.571117-.003419.775273.266978.13413.577467.180883.86962.267117m40.847241.005922c.31598-.091636.610515-.136104.866408-.260572.41554-.202181.41989-.539844.041854-.78587-.456773-.297142-1.405128-.289662-1.834447.014442-.318467.225662-.332038.565195.012432.740987.282518.144104.610515.198338.913753.291013m-32.440715-4.125195c.368506-.124883.760943-.203013 1.09609-.38639.359595-.196779.336078-.542337.006837-.796779-.51541-.39813-1.725253-.406233-2.260244-.015169-.372338.272104-.37586.64717.043616.856728.328102.164052.708728.222337 1.113701.34161m24.094794-.006234c.37928-.11439.759493-.175376 1.086765-.341298.417612-.21174.407874-.587845.027972-.856624-.532711-.377039-1.684745-.378182-2.219632-.002285-.381663.26826-.394716.6427.021549.856727.32603.167688.706553.228779 1.083346.34348m-12.065682-3.195013c-.453976.147013-.917897.23065-1.313028.442806-.448796.241142-.426936.64322-.02103.952935.61414.468571 2.02621.474285 2.654337.010805.426626-.314805.439369-.735688-.034706-.984416-.383216-.201039-.830769-.278545-1.285573-.42213m-.089821 16.905767c3.977415-.044884 7.856203-.349091 11.65553-1.33361 2.094586-.542858 4.133954-1.232312 5.919916-2.505248.40487-.28852.790676-.623064 1.12085-.994181 1.223828-1.374961 1.210463-2.922494-.022378-4.286338-1.009583-1.116987-2.306449-1.805091-3.672727-2.361247-4.068376-1.655896-8.351826-2.203948-12.69381-2.376727-3.10707-.12374-6.211759-.026078-9.298316.405195-2.686973.375376-5.332505.921974-7.847916 1.976208-1.392696.583688-2.72489 1.278026-3.736959 2.44613-1.123854 1.297038-1.144263 2.782753-.034292 4.088727.343435.404052.752862.766026 1.18042 1.081246 1.263818.93174 2.697229 1.528416 4.179125 2.008832 4.330588 1.403948 8.803315 1.787948 13.250557 1.851013m.643149-17.944416c4.747164.064935 9.939601.622442 14.944833 2.382338 1.977208.695169 3.876923 1.558026 5.506863 2.909298.514479.426598.998913.912728 1.406165 1.441974 1.326495 1.72374 1.324941 3.609767.028904 5.355117-1.02502 1.380468-2.419891 2.302442-3.91857 3.076572-2.783631 1.43813-5.769283 2.256727-8.82994 2.822441-3.797048.701818-7.632013.956572-11.486351.820572-5.090495-.179533-10.093033-.879273-14.864129-2.786494-1.510904-.603948-2.968557-1.323844-4.224812-2.373195-.59135-.493922-1.157731-1.049766-1.614815-1.667324-1.237503-1.671896-1.201865-3.501195.02621-5.185767.777416-1.066597 1.797048-1.860363 2.914686-2.532883 2.61839-1.575272 5.488008-2.484987 8.448278-3.117506 3.763792-.804156 7.417042-1.153247 11.662678-1.145143M28.19595 23.107304c.211447-.311169.341465-.528935.496762-.726961 1.885625-2.405403 4.41295-3.780676 7.326496-4.465974 4.041958-.950753 7.947889-.552104 11.648484 1.403636 1.452474.767689 2.69754 1.800104 3.693655 3.119169.132193.175273.246982.363844.45066.665974-7.912872-1.633766-15.705672-1.649455-23.616058.004156" fill="#FFF"/>
    <path d="M63.344667 31.38906c-3.283294-3.859013-7.709298-5.208-12.275058-6.217455-4.93613-1.09122-9.94447-1.288311-14.979332-.968311-4.183269.26587-8.285107.950545-12.232478 2.411428-2.066201.76478-4.032945 1.724364-5.69324 3.210597-.509713.456312-.955297.984832-1.471122 1.52291.11914-.78504.46102-1.413922.897488-1.995637.97757-1.30296 2.288422-2.195013 3.700803-2.94535 2.690805-1.429403 5.585081-2.256312 8.55654-2.836676 3.911836-.763948 7.86563-1.048935 11.843252-.914805 5.10935.172364 10.131469.86774 14.922352 2.777559 1.626107.648207 3.172235 1.448 4.520798 2.584311 1.032686.87013 1.873711 1.876468 2.209997 3.371429M39.801834 61.861205c-3.325564-.113974-6.631443-.301402-9.82243-1.30026-.868376-.271792-1.700181-.743792-2.45957-1.256727-.570318-.38535-.536027-1.11439-.063714-1.526857.086092-.07491.300337-.114597.386429-.060468 1.681118 1.057663 3.58301 1.395533 5.49122 1.69413 3.477855.544208 6.976638.563948 10.475938.29517 2.062368-.158546 4.114893-.440624 6.080705-1.129663.612898-.214857 1.200207-.517195 1.771769-.829922.259725-.14213.391297-.109299.557886.101922.357628.453714.382906.993662-.073349 1.39439-.420202.368935-.91054.688311-1.419839.918545-1.586117.716571-3.287956 1.039584-4.999223 1.230857-1.968195.220052-3.949961.318026-5.925822.468883M28.865962 51.7776c2.030251 1.246961 4.323958 1.54774 6.620047 1.808104 2.474695.280623 4.958508.296416 7.441802.108675 1.996478-.150753 3.982078-.388883 5.889356-1.035636.66304-.224727 1.2921-.550026 1.960632-.84.58306.490701.643667 1.07626-.004455 1.551065-.560063.410286-1.207045.740571-1.862627.97309-1.831753.649767-3.750841.893819-5.677596 1.043741-2.63683.205403-5.27511.194701-7.906138-.099636-1.851852-.207065-3.69324-.484572-5.419218-1.239273-.389744-.170494-.77182-.397403-1.095986-.671273-.616006-.520208-.578295-1.066701.054183-1.598857m11.331261-2.507813c-3.033514-.070857-5.655322-.191688-8.186273-.963325-.743434-.226701-1.46159-.605298-2.118104-1.028571-.499352-.32187-.502874-.899533-.125874-1.248831.08143-.075429.29526-.114182.38187-.061091 1.40575.862338 2.988345 1.149714 4.574152 1.371532 3.59254.502546 7.190469.487273 10.774618-.097246 1.360995-.221922 2.708521-.520104 3.917949-1.249663.099767-.060156.35711-.00135.447656.09278.316809.329038.317638.7787-.06361 1.100467-.388501.328-.835846.618597-1.304015.812571-1.527066.632312-3.150686.880208-4.781041 1.041455-1.303497.128727-2.615178.173403-3.517328.229922M23.656918 69.697143c-.052733.243428-.10215.622753-.220461.979013-.154571.465039-.503807.758545-1.00026.767688-.517067.009559-.932814-.233454-1.183423-.699013-.242942-.45122-.159233-.907117.180886-1.242805.349857-.34535.758042-.655584 1.190987-.886234.598808-.319065.891168-.134857.996218.533299.021342.135688.019063.27522.036053.548052m-13.60085-46.049818c-.363325-.083948-.783424-.126754-1.158767-.279689-.648122-.264104-.856358-.929039-.542968-1.547428.340326-.671585 1.094017-.972676 1.6288-.509922.487647.422026.833464 1.024104 1.184668 1.58296.158508.252157-.000414.513663-.301062.59969-.245429.070233-.503082.097765-.81067.154389m51.171364 42.46693c-.009324-.869507.242839-1.119481.792127-.945455.500492.15865.993007.391377 1.433204.677714.374825.243844.562859.651429.42476 1.132364-.154468.537662-.535613.84665-1.061383.943896-.46993.087065-.87915-.120312-1.089355-.530078-.247294-.482286-.399171-1.013818-.499353-1.278441m-42.467692-.054484c-.099974.284884-.239834.820156-.474385 1.309715-.198187.41413-.59715.644571-1.069464.570078-.527635-.083117-.90992-.391689-1.079306-.92187-.15167-.474806.010878-.895377.381974-1.145975.448174-.302649.951463-.555948 1.466149-.718233.523077-.164987.770163.089558.775032.906285m51.01152-42.368051c-.264698-.11387-.74219-.173403-.880704-.422546-.12287-.22078.071587-.685195.23455-.98213.18648-.339636.462886-.646753.754624-.906701.34447-.307013.773996-.38452 1.201036-.148883.460606.254234.708314.670753.694327 1.189714-.012742.472208-.289665.82109-.733799.972883-.369749.126442-.763326.182338-1.270034.297663M4.037596 45.924467c-.002693-.606025.427558-1.16748 1.040974-1.127272.615696.040415 1.233152.247896 1.819943.463896.356385.131117.4115.516987.128464.764156-.447138.39065-.920383.79896-1.455581 1.029402-.789744.340156-1.529863-.255688-1.5338-1.130181m.954707-4.875606c-1.001813.007689-1.481275-.484675-1.478788-1.184311.002486-.715429.53841-1.315325 1.203522-1.170182.601502.131324 1.175136.448311 1.721627.754182.32489.181714.351826.56322.028904.775065-.549599.360415-1.148096.645818-1.475265.825246m61.423589 19.926182c.24688.083013.746646.21174 1.21181.418702.421653.187636.652785.56374.63911 1.039896-.013365.465662-.420928.97787-.877493 1.121454-.475732.149507-.929708.04104-1.204351-.357402-.29723-.431273-.551153-.916052-.709247-1.41413-.188552-.593663.042994-.821091.940171-.80852M9.556374 58.60958c-.658482.015064-1.124372-.368624-1.288164-.943377-.140689-.49361.029526-.997507.49324-1.243013.627195-.332156 1.30474-.423689 2.003937-.251325.37524.092571.562963.346493.367159.688935-.29526.51626-.637244 1.012571-1.015592 1.470546-.145972.176519-.446102.225038-.56058.278233M13.786677 18.8152c-.482984-.16613-.983372-.294546-1.443667-.509507-.41554-.193974-.665735-.576623-.609169-1.05257.061228-.51439.363947-.881144.85553-1.078442.463092-.185974.897073-.06161 1.168609.292987.317845.41496.585548.897558.752655 1.392415.223361.660987.003418.886857-.723958.955117m-6.65266 10.29175c-1.150168-.015688-1.783061-.75148-1.413313-1.676675.270397-.676779.997566-1.00883 1.603316-.613402.489614.319584.897798.78774 1.278736 1.24322.26677.319065.119761.641247-.269775.76613-.38964.124884-.79855.18961-1.198964.280728m65.603709.00268c-.32116-.07522-.713597-.138078-1.085418-.262545-.35939-.12052-.509713-.426702-.262316-.732468.373997-.46213.779487-.918234 1.246931-1.278441.372339-.286961.860295-.266806 1.250453.058909.382803.31948.552085.745143.4518 1.247896-.09956.499636-.435742.767065-.91427.867948-.201295.042493-.407978.059532-.68718.098701M35.139684 74.347813c-.08661.542026-.272054.960312-.76146 1.148987-.47884.18452-.957059.116987-1.351671-.235117-.393577-.351273-.491894-.826909-.259311-1.27096.251126-.479481.580367-.934235.949909-1.329975.320539-.343377.672054-.277818.874488.14961.23165.489143.369438 1.023065.548045 1.537455M69.88892 56.074577c.360425.076467.779902.11574 1.161668.257558.676612.251013.908158.930182.586584 1.568416-.34043.67574-1.080239.969454-1.624036.502337-.488681-.419844-.84289-1.016415-1.187257-1.577766-.170422-.277818.033152-.53413.350272-.61974.214763-.058078.438643-.081974.712769-.130805m6.073204-10.18719c.01295.881766-.757524 1.50026-1.563637 1.164468-.508469-.21174-.965967-.583377-1.390417-.948676-.31857-.274182-.293499-.680208.115204-.841246.565553-.222858 1.167987-.421819 1.76721-.468676.62015-.04852 1.062834.490701 1.07164 1.09413M29.13037 72.426753c-.001036 1.042182-.426107 1.580468-1.136286 1.582234-.504636.001247-.906708-.205714-1.152447-.650805-.232997-.422026-.166071-.86265.121316-1.21413.312043-.381403.667184-.745039 1.062626-1.035325.440715-.323532.709557-.204052.905361.304416.055012.143169.09065.296.117586.44748.042165.236676.069205.476052.081844.56613M35.133913 5.43122c-.164102.483741-.287593.986806-.503807 1.445923-.221082.46961-.535716.53413-.89811.173299-.347681-.346286-.64346-.759481-.896865-1.182442-.268635-.448208-.251645-.928416.113856-1.342961.329138-.373299.964724-.500468 1.426574-.293507.503496.225663.689251.641455.758353 1.199689m9.7413 68.822036c.157575-.468364.274747-.955844.483501-1.400104.22792-.484987.554675-.543896.939964-.163948.325719.321247.608236.702753.841233 1.098286.310593.527065.25268 1.028571-.075214 1.392831-.325304.361247-.96835.504104-1.430717.31761-.454701-.183272-.695882-.614026-.758767-1.244675M29.16689 7.29145c-.054183.293921-.085885.62244-.1784.932882-.16866.56613-.491893.710962-.959648.367897-.408495-.29974-.776172-.676987-1.092774-1.075117-.298264-.374961-.33266-.837091-.039782-1.253195.302512-.429714.746957-.616208 1.259052-.541507.487646.071273.794302.391065.908884.872624.051178.215688.066097.439896.102667.696415m37.236965 11.47839c-.843201.016104-1.083036-.203325-.922352-.752623.155711-.532572.414297-1.055273.726548-1.514702.250401-.368208.685418-.514805 1.15255-.345974.496556.179429.798965.539325.878737 1.056728.073867.479168-.143486.875844-.553121 1.078233-.485366.239793-1.018182.382961-1.282362.478338m-5.170857-5.094961c.105672-.294857.251644-.845195.498005-1.34587.202746-.411844.605129-.609663 1.084072-.527896.518104.08852.868065.397298 1.037658.894649.159752.468572.004248.899948-.368194 1.147636-.46216.307429-.98244.559689-1.512044.723221-.502046.155013-.724683-.085506-.739497-.89174m-4.917514-3.524561c.073453-.352416.119969-.713247.227092-1.055065.144832-.462234.457083-.765714.966381-.802494.511578-.036987 1.049366.282182 1.25957.740156.2158.47013.093862.903377-.245636 1.23387-.328723.319897-.70562.611117-1.107588.8293-.636105.345142-.963688.143376-1.048019-.57569-.013986-.119064-.001968-.241142-.001968-.36187-.016576-.0027-.033256-.005506-.049832-.008207m-42.511598 50.72641c.660969.080312.888682.30348.705102.90639-.152085.499636-.408184.984208-.701372 1.419117-.272883.404675-.735354.519584-1.20114.35948-.494069-.169766-.79451-.554078-.861228-1.071168-.061227-.474702.166071-.869195.576328-1.070027.470344-.230025.98617-.366545 1.48231-.543792m42.54013 8.61973c.007459-.137766.002693-.277506.02445-.412987.089302-.554701.365604-.754286.857083-.510026.469308.233143.917171.543585 1.305983.895896.348925.316052.460606.762286.239834 1.231689-.209894.446441-.711215.746077-1.216783.722181-.506708-.024103-.845066-.304207-.999534-.76426-.124527-.370493-.173116-.766649-.255374-1.151584l.04434-.010909zM74.38763 51.77466c-.010567 1.01548-1.005853 1.626078-1.817457 1.075013-.468168-.317819-.835638-.800312-1.202486-1.24665-.220047-.267844-.083709-.541194.214141-.674078.666356-.297038 1.365243-.359792 2.06475-.148052.481637.145767.702202.525923.741052.993767M7.209697 50.620239c.352344.070234.716084.106182 1.054545.218597.468894.155845.602331.445715.312355.82452-.34965.456935-.771096.878753-1.229008 1.226286-.382181.290077-.862368.257142-1.24631-.072312-.375654-.32239-.554364-.745247-.443822-1.250286.11427-.522078.484744-.776208.976016-.873766.184098-.036572.377726-.024831.567004-.03522.003004-.012572.006112-.025144.00922-.037819m69.27397-10.788966c.01181.773402-.601087 1.37226-1.335509 1.190026-.537477-.133403-1.059932-.399689-1.534213-.69517-.412329-.256934-.427765-.629194-.02932-.87709.516137-.321143 1.084383-.612364 1.669206-.753766.664283-.160624 1.218958.420363 1.229836 1.136M50.826397 72.36851c.070034-.29039.13872-.698494.270707-1.084884.114478-.334857.408288-.469714.69868-.247273.444858.340676.881533.70961 1.246827 1.13174.309868.35813.36032.829819.083398 1.255377-.301684.463688-.763637.637507-1.299042.562286-.500078-.07013-.781766-.40748-.90132-.879896-.050143-.198234-.05667-.40748-.09925-.73735M23.63916 10.216114c0 .120831.012536.243013-.002175.361974-.075628.617559-.36405.824104-.906397.547325-.466304-.238026-.906708-.558234-1.292826-.91387-.334214-.308052-.431805-.750026-.210826-1.189299.23652-.470234.637037-.712935 1.16146-.72935.487543-.01517.841752.239272 1.011138.666805.15571.393246.212484.825974.312872 1.24135-.02445.005091-.0489.010078-.073245.015065m21.216721-4.810971c.08257-.562182.268013-.982234.786221-1.184208.495209-.192935.961409-.089558 1.34245.261091.404351.372156.4604.867117.208858 1.326442-.244393.446233-.550738.87439-.901735 1.241454-.351412.36748-.676095.308052-.900803-.156883-.228128-.471792-.360632-.990026-.534991-1.487896M50.81153 7.17442c.053251-.533714.153225-1.015272.63538-1.31387.429733-.266077.859363-.182753 1.269101.056624.525875.30722.76861.90909.43512 1.413507-.331727.501714-.794612.932363-1.25843 1.324675-.330588.279688-.66936.131636-.80176-.281974-.124632-.389507-.18876-.798546-.27941-1.198961M38.821176 4.864c-.00891-.781506.432323-1.230961 1.121885-1.248623.724683-.018494 1.233878.411532 1.23367 1.087896-.000103.722805-.318052 1.329246-.7885 1.857662-.24315.273247-.510438.261714-.754727-.001766-.470759-.507533-.736907-1.111585-.812328-1.695169M5.305734 35.037652c-.543279-.085299-.944418-.268468-1.166848-.749195-.2072-.447792-.093447-1.040727.265631-1.390441.379487-.369455.852525-.433351 1.287231-.198338.476146.257454.922145.592415 1.32577.955636.301684.27148.236313.637507-.133022.806857-.507537.232832-1.050816.387429-1.578762.57548m69.304533-.007864c-.496763-.176-1.007615-.321039-1.48604-.53787-.374929-.16987-.443512-.53839-.145662-.803325.443409-.394078.927325-.771117 1.454753-1.031896.410153-.202805.892515-.105558 1.21585.297559.326859.407688.423829.874181.192179 1.356467-.237452.494234-.6734.661299-1.23108.719065m-55.72776-21.163252c-.107951.595325-.307278.829299-.82704.680623-.548044-.156779-1.105102-.396675-1.561253-.732571-.588863-.433454-.548666-1.15574-.016369-1.658701.537892-.508364 1.331365-.519896 1.71251.074805.314737.491013.467547 1.086545.692152 1.635844m22.301041 61.128094c-.008806.67283-.45729 1.09974-1.16115 1.105558-.70303.005818-1.191815-.41413-1.195234-1.071688-.00373-.723221.31339-1.330702.775136-1.86452.234965-.271792.494276-.262233.760425-.020052.392955.357507.827765 1.323117.820823 1.850702" fill="#FFF"/>
    <path d="M39.654183 41.99762c3.631909-.019012 6.893136-.28187 10.113442-.948155 2.2331-.462026 4.442476-1.035948 6.424139-2.20374.77151-.45465 1.494224-1.065351 2.081844-1.742234.700026-.806753.651955-1.774026-.005595-2.623584-.353898-.457247-.793576-.871897-1.262885-1.21039-1.359751-.980675-2.91624-1.55065-4.50878-2.019844-3.495571-1.029922-7.079202-1.46213-10.710179-1.585455-4.452214-.151273-8.855944.19304-13.184252 1.28478-2.045377.515844-4.047346 1.169142-5.775913 2.437714-2.104015 1.544207-2.089614 3.312104.018026 4.862026 1.181663.868883 2.517379 1.426078 3.89899 1.87574 4.309454 1.402805 8.75887 1.81787 12.911163 1.873143m.258068.771844c-4.447242-.063065-8.91997-.447169-13.250453-1.851013-1.481896-.480416-2.915411-1.077091-4.179125-2.008831-.427558-.315221-.837089-.677195-1.180523-1.081247-1.109868-1.305974-1.089459-2.791688.034291-4.088727 1.012173-1.168208 2.344264-1.862442 3.737063-2.44613 2.515307-1.054234 5.16084-1.600935 7.847812-1.976208 3.086558-.431273 6.191246-.528935 9.298316-.405195 4.342088.17278 8.625538.720832 12.693914 2.376728 1.366278.556155 2.66304 1.24426 3.672623 2.361246 1.232945 1.363845 1.246206 2.911377.022482 4.286338-.330174.371013-.716084.705662-1.12085.994182-1.786066 1.272935-3.825434 1.96239-5.92002 2.505246-3.799224.98452-7.678115 1.288728-11.65553 1.33361m.089862-16.905776c.454805.143585.902357.221091 1.285574.42213.474074.248728.461331.66961.034706.984416-.628127.46348-2.040197.457766-2.654235-.010805-.405905-.309715-.427868-.711793.020928-.952936.395234-.212155.859052-.295792 1.313027-.442805m12.065672 3.195013c-.376793-.114701-.757316-.175792-1.083346-.34348-.416265-.214026-.403211-.588468-.021549-.856727.534888-.375897 1.687024-.374754 2.219633.002285.379901.26878.38964.644883-.027972.856624-.327273.165922-.707485.226909-1.086765.341298m-24.094774.006245c-.404973-.119273-.7856-.177559-1.1137-.34161-.419478-.20956-.415955-.584624-.043617-.856728.534991-.391065 1.744833-.382961 2.260244.015169.329241.254441.352758.6-.006838.796779-.335146.183377-.727583.261506-1.096089.38639m32.440694 4.125194c-.303237-.092675-.631235-.146909-.913753-.291013-.34447-.175792-.330898-.515324-.012328-.740987.429215-.304104 1.37757-.311584 1.834447-.014441.378037.245922.373582.583584-.041958.78587-.255892.124364-.550427.168935-.866408.260571m-40.847221-.005932c-.292152-.086234-.602641-.132987-.869619-.267117-.406009-.204156-.402694-.56239.003419-.775273.563999-.295584 1.157731-.305766 1.726496-.015272.144315.073766.311525.272935.3108.41361-.000725.14026-.171665.338701-.316706.40613-.256203.119169-.549287.15813-.85439.237922" fill="#496165"/>
    <path d="M40.0708 32.80429c-.998601.05039-1.999482.074079-2.99539.157196-1.841077.153662-3.675524.392727-5.380885 1.152-.617043.274597-1.222792.658181-1.710542 1.122285-.747267.710962-.677855 1.501091.06558 2.213403.692048.663065 1.540844 1.046442 2.448277 1.28509 4.479047 1.177767 8.994043 1.244053 13.525719.357507 1.321626-.258597 2.623362-.629818 3.723595-1.460883 1.089665-.823169 1.133903-1.916052.017508-2.694233-.763326-.531948-1.637918-.981923-2.528671-1.236156-2.332453-.665663-4.740637-.862546-7.16519-.896208m-.416577 9.19335c-4.152395-.055272-8.60171-.470337-12.911266-1.873142-1.381611-.449767-2.717327-1.006857-3.898887-1.875845-2.10764-1.549922-2.12204-3.317714-.018026-4.861922 1.728464-1.268571 3.730536-1.921974 5.77581-2.437714 4.328412-1.09174 8.732141-1.436052 13.184356-1.284883 3.630976.123325 7.214607.555636 10.710075 1.585558 1.59254.469195 3.149029 1.03917 4.508884 2.019845.469308.338493.908987.753142 1.262885 1.210285.65755.849663.70562 1.816935.00549 2.623585-.58762.676987-1.310333 1.287688-2.081843 1.742337-1.98156 1.167793-4.191039 1.741715-6.42414 2.20374-3.220305.666286-6.481429.929144-10.113338.948157" fill="#FFF"/>
    <path d="M39.977374 38.890275c2.128153.033767 4.243667-.112104 6.304066-.659428.939031-.249559 1.854545-.624624 2.734421-1.041455.306553-.145246.537063-.560831.676923-.904311.06879-.168832-.103496-.494546-.257239-.6693-.06734-.07657-.379073.00769-.54908.086027-1.536183.707532-3.167988 1.05226-4.828801 1.261402-2.697125.339637-5.40057.341715-8.09811.00104-1.660813-.209767-3.306915-.52239-4.820616-1.275221-.482776-.24-.718052-.04478-.798964.332779-.053561.249558.041854.682701.223258.804052.634862.424623 1.300492.860363 2.018545 1.092156 2.398756.77413 4.88319 1.011636 7.395597.97226m.093447-6.086027c2.424553.033767 4.832738.23065 7.16519.896312.890754.254234 1.765346.704104 2.528672 1.236156 1.116394.778078 1.072157 1.87096-.017509 2.69413-1.100233.831065-2.401968 1.20239-3.723595 1.460883-4.531675.88665-9.046671.82026-13.525718-.357507-.907537-.238545-1.75623-.621922-2.448278-1.28509-.743434-.712312-.812846-1.502442-.065579-2.213403.48775-.464104 1.0935-.847584 1.710542-1.122286 1.70536-.759169 3.539808-.998337 5.380885-1.151896.995908-.08322 1.996789-.106805 2.99539-.157299" fill="#496165"/>
    <path d="M39.977975 38.890275c-2.513028.039377-4.997462-.19813-7.396219-.97226-.718052-.231792-1.383683-.667532-2.018544-1.092155-.181404-.12135-.27682-.554494-.223259-.804052.080912-.377559.316188-.57278.798964-.33278 1.513702.752832 3.159907 1.065455 4.820617 1.275221 2.69754.340676 5.400984.338598 8.09811-.001039 1.660812-.209142 3.292618-.55387 4.8288-1.261402.170008-.078338.48174-.162598.54908-.086026.153743.174753.32603.500467.25724.669298-.13986.343481-.37037.759065-.676923.904312-.879773.416831-1.79539.791896-2.734422 1.041455-2.060295.547324-4.175913.693195-6.303444.659428" fill="#FFF"/>
  </g>
</svg>
