<svg width="80" height="80" viewBox="0 0 80 80" xmlns="http://www.w3.org/2000/svg">
  <title>
    ufr-upfiring
  </title>
  <defs>
    <linearGradient x1="50%" y1=".528141%" x2="50%" y2="99.358259%" id="a">
      <stop stop-color="#F17D60" offset="0%"/>
      <stop stop-color="#D72128" offset="100%"/>
    </linearGradient>
  </defs>
  <g fill="none" fill-rule="evenodd">
    <circle fill="#213764" cx="40" cy="40" r="40"/>
    <path d="M17.082353 53.74946c.168658.141115.242923.249678.339571.276599.635763.177888 1.268055.421231 1.917005.487566 1.522255.155542 2.912813-.337478 4.197872-1.124165 1.042831-.638181 1.922904-1.456363 2.398511-2.633841.583188-1.444223.51916-2.829326-.410365-4.119942-.0878-.121935-.210128-.218357-.316493-.326744-.051187.01566-.102548.03132-.153735.046979-.013534.283636-.043206.567273-.03748.850381.021516 1.043402-.269296 2.005513-.798173 2.879472-1.188585 1.964516-3.028375 2.842522-5.210512 3.121408-.42789.054721-.85769.112082-1.276904.210792-.205616.048563-.389023.194428-.649297.331495m20.822092-19.764633c-.213425-1.075425-.361434-2.172493-.675498-3.217478-.69441-2.310968-1.896703-4.363108-3.349379-6.266393-.716621-.938886-1.462566-1.854897-2.170338-2.800293-.972904-1.299766-1.6222-2.73308-1.663324-4.400059-.002603-.106451-.051708-.211671-.10116-.4017-.137945.15343-.235461.235072-.300009.338181-.462247.739355-.76347 1.5461-.896904 2.408446-.228868 1.479765.146794 2.849208.802685 4.154956.62327 1.240997 1.49085 2.299003 2.450566 3.282404.985744 1.010323 1.990922 2.00129 2.97094 3.017244 1.112932 1.153372 2.003243 2.461407 2.592503 3.969501.050146.12827.126146.245983.190174.368446.045287-.011789.090748-.023754.136036-.035542.006073-.139531.040082-.284692.013708-.417713m-3.178813-.281349c-.671507-.985865-1.512886-1.822522-2.515982-2.455601-2.312447-1.459003-4.81316-1.831496-7.449561-1.170264-1.301717.326393-2.512685.879413-3.56211 1.74915-.147142.121935-.265826.279237-.408283.431436.09526.089209.130137.142874.178721.163637.172822.074076.348941.140762.526274.20305 1.692302.594721 3.207964 1.489267 4.455197 2.799941 2.117242 2.22475 3.143068 4.963812 3.447762 7.982111.15738 1.559473.00347 3.1244-.301223 4.676833-.480466 2.44786-1.467946 4.580059-3.383042 6.221173-1.346657 1.1539-2.825707 2.033138-4.553233 2.444164-2.0723.493373-3.924931-.145337-5.65662-1.219354-1.970275-1.221994-3.424859-2.939472-4.478448-5.022405-.88094-1.741584-1.33989-3.587155-1.360539-5.535132-.014749-1.377009.324302-2.698416.773535-3.990792.95694-2.752082 2.389141-5.242522 4.171844-7.51302 1.998037-2.544458 4.083352-5.018006 6.113315-7.53695 1.226238-1.521819 2.37127-3.101877 3.292987-4.841525 1.33746-2.5244 1.93904-5.192904 1.603808-8.052669-.221407-1.887625-.845544-3.642933-1.769516-5.29091-1.546375-2.757536-3.470493-5.219823-5.689416-7.4495-.108447-.109091-.236328-.198476-.355187-.29701l-.123023.045748c-.00989.151848-.047196.308094-.024292.454663.065068.418417.175078.830147.230776 1.249443.12285.927273.261836 1.854897.324475 2.787273.103242 1.536774-.221753 3.028504-.567744 4.512492-.414356 1.776599-1.058621 3.466276-1.863909 5.096833-1.228493 2.4878-2.837333 4.728387-4.403662 6.996774-1.077534 1.560528-2.206082 3.086745-3.237808 4.677889-1.015416 1.565982-1.954831 3.183695-2.89494 4.79824-.82559 1.418006-1.506814 2.906042-1.877444 4.520763-.133954.584164-.189653 1.191378-.371497 1.7583-.532 1.660116-.826978 3.35472-.801124 5.098064.01232.832962.089361 1.66522.153909 2.496598.120594 1.55648.433443 3.07478.962667 4.54082 1.496228 4.145104 4.372776 7.0061 8.199324 8.950206 2.751616 1.398475 5.7059 1.9522 8.761516 1.996012.922931.013196 1.847424-.045044 2.770356-.087097 1.485297-.067918 2.922183-.399413 4.306146-.930264 2.325635-.89173 4.310831-2.297595 5.96947-4.180997 1.19622-1.358358 2.145179-2.873666 2.819115-4.557185.962493-2.404398 1.458401-4.898885 1.373031-7.507917-.107059-3.269912-.940803-6.303695-2.785625-9.013021m-10.161443-8.144516c-.580931.669677-1.19431 1.310498-1.788256 1.968739-.099424.110146-.172475.24475-.313022.448152.210474 0 .325863.02956.41852-.004574.758959-.279414 1.529196-.535777 2.263343-.872376.398392-.182463.755141-.481935 1.089853-.776129.304174-.267624.435005-.6461.43032-1.06434-.008502-.772962-.322913-1.445455-.671507-2.105806-.028283-.05349-.106018-.080411-.189826-.140235-.045635.105924-.092484.17824-.108448.256892-.175771.86604-.559589 1.630909-1.130977 2.289677m-15.42453-7.24346c-.173516 1.07912-.499205 2.132727-.75358 3.19865-.034009.142874-.049452.290499-.07357.436012.03557.024458.070968.049091.106538.073549.194859-.133549.397352-.25742.583535-.402581 1.199863-.935015 2.00515-2.183402 2.661735-3.53437.659708-1.357478.395096-2.557654-.719397-3.566569-.721306-.652961-1.597736-.98516-2.500713-1.264398-.075653-.023402-.164666-.002992-.353972-.002992.080685.202874.11348.343637.185835.45871.891872 1.419062 1.124384 2.981701.86359 4.603988M4.599786 26.0321c.206831-1.31613.19885-2.625396-.179589-3.91478-.043552-.148329-.114-.288563-.171954-.432317l-.11053.01953c-.016484.096775-.042511.193021-.048237.290323-.061251 1.028446-.198503 2.047918-.559936 3.012493-.435525 1.162698-.902283 2.31519-1.400968 3.451496-.820384 1.869325-1.447297 3.79777-1.8181 5.807859-.323088 1.752668-.34443 3.525572-.283352 5.300586.003643.105044.046849.208505.074785.326921.065936-.040645.10758-.051906.110877-.070557.043552-.243167.081032-.487742.121287-.731789.451315-2.735894 1.332256-5.334018 2.450914-7.855777.746986-1.683871 1.524511-3.357537 1.814803-5.203988" transform="translate(21 9)" fill="url(#a)"/>
  </g>
</svg>
