<svg width="80" height="80" xmlns="http://www.w3.org/2000/svg">
  <g fill="none">
    <path d="M79.387586 39.791733c0 21.784733-17.594483 39.444366-39.315862 39.444366-21.704827 0-39.31862-17.659633-39.31862-39.444366 0-21.765367 17.613793-39.411167 39.31862-39.411167 21.72138 0 39.315862 17.6458 39.315862 39.411167z" fill="#FFD385"/>
    <path d="M79.387586 39.791734c0 21.784733-17.594483 39.444367-39.315862 39.444367-21.704827 0-39.31862-17.659634-39.31862-39.444367h78.634482z" fill="#D2963F"/>
    <path d="M72.477241 39.791734c0 17.9695-14.488276 32.5194-32.405517 32.5194-17.908965 0-32.37793-14.5499-32.37793-32.5194 0-17.950133 14.468965-32.491733 32.37793-32.491733 17.917241 0 32.405517 14.5416 32.405517 32.491733z" fill="#FDC05C"/>
    <path d="M46.92138 40.1846c.030344-1.557633-.532415-3.0212-1.768277-3.3449 0 .841067-.06069 1.814933-.041379 2.656.46069.520133.951724.581 1.809655.6889zm-2.173794-10.493966c-1.608276-5.248367-3.266207-11.431867-4.962758-16.597233-1.906207 6.2167-4.135173 13.401733-6.093793 19.568633 3.495172-.918533 7.473103-2.0086 11.056551-2.9714zm.526897 21.4306c-1.307586-1.245-1.514483-2.656-2.993104-4.055934-1.812413-1.756833-5.031724-2.2825-4.184827-6.161366-2.695173-.616967-7.22207 2.061166-8.38069 4.844433-2.082759 5.970467-4.19862 12.513633-6.286897 18.511767 5.445518-3.914834 11.009656-8.684567 16.477242-12.699 5.32138 3.8595 10.662069 7.990133 15.955862 11.821966.115862.105134.104828.641867.275862.603134-1.437241-4.185967-2.667586-8.7648-4.066207-12.9895-1.291034.1826-2.648276.163233-4.046896.1245-.910345-.027667-1.837242-.027667-2.750345 0zM24.184828 32.7395c-3.569656-.069167-7.475862-.077467-10.907587 0 .231725.370733.44138.791266 1.048276 1.079 3.431724 1.7679 6.673104 4.136166 9.85931 6.3578v-7.4368zm24.510344.210266c-.943448.442667-1.991724 1.106667-2.957241 1.557633.333793 1.405467 2.176552.9545 2.824828 1.920067.173793 2.9548.750344 5.478 1.45931 7.857333 5.324138-3.773733 11.111724-7.2625 16.44138-11.008566.132413-.1162.132413-.6059.03862-.691667-5.928276.127267-11.864828.2407-17.806897.3652z" fill="#462613"/>
    <path d="M46.932414 40.5581c.01931-1.577-.275862-2.8386-1.506207-3.165066 0 .8134-.333793 1.2616-.314483 2.102667.46069.520133.96.957266 1.82069 1.0624zm-2.184828-10.828733c-1.608276-5.2788-3.172414-10.6157-4.888276-15.7451-1.886896 6.194567-3.765517 12.4334-5.73793 18.6003 3.508965-.9379 7.042758-1.881333 10.626206-2.8552zm.526897 21.936901c-1.307586-1.2367-1.514483-2.628334-2.993104-4.053167-1.812413-1.7513-5.031724-2.276967-4.184827-6.1669-2.695173-.592067-7.22207 2.075-8.38069 4.877633-2.082759 5.953867-4.19862 11.938167-6.286897 17.9363 5.445518-3.914833 11.009656-8.139533 16.477242-12.162266 5.32138 3.8761 10.662069 7.998433 15.955862 11.824733.115862.113433.325517.2656.488276.2324-1.448276-4.172133-2.88-8.380233-4.27862-12.593867-1.291035.1577-2.648277.1328-4.046897.105134-.910345-.022134-1.837242-.052567-2.750345 0zM24.184828 33.276232c-3.569656-.060866-7.133793-.088533-10.554483-.011066.20138.401166.65931.545033.982069.774666 3.222069 2.2244 6.386207 4.446034 9.572414 6.6981v-7.4617zm24.510344.207501c-.943448.467567-1.867586.910234-2.811034 1.372267.344828 1.2284 2.030345 1.150933 2.67862 2.097133.173794 2.9631.750345 5.508434 1.459311 7.8767C55.346207 41.0478 60.824828 37.232567 66.148966 33.5031c.16-.1245.446896-.287733.353103-.370733-5.928276.118966-11.864828.246233-17.806897.351366z" fill="#915623"/>
    <path d="M59.77931 5.6732l-5.067586 5.118333c.83862.4399 1.704828.907466 2.526897 1.424833l4.957241-5.010433c-.764138-.517367-1.928276-1.233934-2.416552-1.532734z" fill="#FFDDA1"/>
    <path d="M54.711724 10.791534L42.708966 22.807167c.325517 1.023667.604137 2.055634.885517 3.068234L57.23862 12.216367c-.82207-.517366-1.688276-.984933-2.526897-1.424833z" fill="#FFCF82"/>
    <path d="M42.708965 22.807167l-.044137.063633c.289655 1.018133.612413 2.0169.921379 3.043333l.008276-.038733c-.28138-1.0126-.56-2.044567-.885517-3.068233z" fill="#674A3A"/>
    <path d="M7.224828 61.468567c.135172.2241.231724.3652.353103.550566v-.019366c-.12138-.1743-.24-.345834-.353103-.5312z" fill="#FFF"/>
    <path d="M11.144828 54.474433L6.06069 59.559567c.27862.467566.753103 1.264366 1.164138 1.909.113103.185366.231724.3569.353103.5312l4.987586-4.991067c-.504827-.83-.976551-1.671067-1.42069-2.534267z" fill="#DBAC6B"/>
    <path d="M34.077241 31.4862L11.144828 54.474433c.444138.8632.915862 1.704267 1.42069 2.534267l25.368275-25.4478c-1.255172.345833-2.532414.666767-3.812414 1.023667 0-.019367 0-.038734.057931-.047034-.171034.047034-.336551.077467-.488276.1245.115863-.392866.25931-.782966.386207-1.175833z" fill="#FFCF82"/>
    <path d="M34.667586 30.874767l-.590345.611433c-.126896.392867-.270344.782967-.386207 1.175833.151725-.047033.317242-.077466.488276-.1245.154483-.536733.325518-1.123266.488276-1.662766z" fill="#674A3A"/>
    <path d="M42.664828 22.8708l-7.997242 8.003966c-.162758.5395-.333793 1.126033-.488276 1.662767-.05793.0083-.05793.027666-.05793.047033 1.28-.3569 2.55724-.677833 3.812413-1.023667l5.652414-5.646766c-.308966-1.026434-.631724-2.0252-.92138-3.043334z" fill="#A77448"/>
    <path d="M70.695172 15.057734c.275863.343067.532414.664.769656.998767-.237242-.334767-.493793-.6557-.769656-.998767z" fill="#FFF"/>
    <path d="M67.023448 11.1346l-4.83862 4.902533c1.605517 1.491234 3.067586 3.154 4.344827 4.982767l4.935173-4.9634c-.237242-.334767-.493793-.6557-.769656-.998767-1.404138-1.731933-2.946207-3.2619-3.671724-3.923133z" fill="#FFDDA1"/>
    <path d="M45.111724 39.4957c-.01931-.841066.04138-1.814933.04138-2.656 1.235861.3237 1.79862 1.7679 1.768275 3.3366.011035.118967.011035.260067.011035.3818-.86069-.105133-1.36-.542266-1.82069-1.0624zm17.073104-23.458566L37.451034 40.834767c.217931 0 .435863.038734.645518.069167-.057931.188133-.085518.362433-.104828.5312.033104.011067.046897.011067.104828.011067-.085518.334766-.115862.641866-.124138.899166.124138 2.1414 1.851034 2.932667 3.348965 3.948034l7.415173-7.4617c-.06069-.5893-.115862-1.2284-.173793-1.878567-.648276-.9462-2.325518-.868733-2.678621-2.097133-.055172-.102367-.115862-.2241-.146207-.3486.965517-.450967 2.013793-1.114967 2.957241-1.557634 2.002759-.0415 4.030345-.085766 6.052414-.1245l11.78207-11.805366c-1.277242-1.828767-2.739311-3.491534-4.344828-4.982767z" fill="#FFCF82"/>
    <path d="M45.153103 36.8397c0 .841067-.06069 1.814933-.041379 2.656-.01931-.841067.314483-1.289267.314483-2.102667 1.125517.296034 1.45931 1.3944 1.495172 2.783267.030345-1.5687-.532414-3.0129-1.768276-3.3366zm-7.180689 5.505666c-.151724 2.379333 1.486896 3.259133 3.015172 4.271733l.333793-.3237c-1.49793-1.015366-3.224827-1.806633-3.348965-3.948033zm-.52138-1.5106l-.53793.5561c.107586-.0332.212413-.0332.336551-.0332.27862 0 .52138.0415.74207.077467.01931-.179834.046896-.343067.104827-.5312-.209655-.030434-.427587-.069167-.645518-.069167z" fill="#674A3A"/>
    <path d="M14.515862 69.768567c.604138.498 1.233104 1.023666 1.886897 1.513366-.637242-.478633-1.282759-.996-1.886897-1.513366z" fill="#FFF"/>
    <path d="M16.394483 61.966567l-4.91862 4.877633c.427585.4897 1.591723 1.654467 3.04 2.924367.604137.517366 1.249654 1.034733 1.886896 1.513366l4.946206-4.9551c-1.81793-1.2782-3.470344-2.741766-4.954482-4.360266z" fill="#DBAC6B"/>
    <path d="M28.253793 50.058833l-11.85931 11.907733c1.484138 1.6185 3.136551 3.082067 4.954482 4.360267l2.08-2.102667c1.60276-4.565 3.211035-9.4537 4.824828-14.165333z" fill="#FFCF82"/>
    <path d="M28.507586 49.8043l-.253793.254533c-1.613793 4.711633-3.222069 9.600333-4.824828 14.165333 1.677242-4.816767 3.376552-9.616933 5.078621-14.419867zm26.24-16.979033c-2.022069.027667-4.049655.083-6.052414.1245-.943448.442667-1.991724 1.106667-2.957241 1.557634.030345.1245.091034.246233.146207.3486.943448-.462034 1.867586-.9047 2.811034-1.372267 1.82069-.030433 3.68-.0581 5.52-.105133l.532414-.553334z" fill="#674A3A"/>
    <path d="M45.426207 37.393034c0 .8134-.333793 1.2616-.314483 2.102667.46069.520133.96.957266 1.82069 1.0624 0-.121734 0-.262834-.011035-.3818-.035862-1.388867-.369655-2.487234-1.495172-2.783267zm-8.176552 3.964633c-.124138 0-.228965 0-.336552.0332l-8.405517 8.413434c-1.702069 4.802933-3.40138 9.6031-5.07862 14.419866l17.55862-17.607066c-1.528276-1.0126-3.166896-1.8924-3.015172-4.271734.008276-.2573.03862-.5644.124138-.899166-.057931 0-.063449 0-.104828-.011067-.22069-.035967-.463448-.077467-.742069-.077467zM54.215172 33.3786c-1.84.047033-3.663448.0747-5.52.105133-.943448.467567-1.867586.910234-2.811034 1.372267.353103 1.2284 2.030345 1.150933 2.67862 2.097133.057932.650167.113104 1.289267.173794 1.878567l5.47862-5.4531z" fill="#A77448"/>
  </g>
</svg>
