<svg width="80" height="80" xmlns="http://www.w3.org/2000/svg" xmlns:xlink="http://www.w3.org/1999/xlink">
  <defs>
    <path id="a" d="M0 .133651h79.91282v79.661745H0z"/>
  </defs>
  <g fill="none" fill-rule="evenodd">
    <circle fill="#0E5386" cx="40" cy="40" r="40"/>
    <g transform="translate(0 .070997)">
      <mask id="b" fill="#fff">
        <use xlink:href="#a"/>
      </mask>
      <path d="M39.974072 74.780378c19.008205-.006751 34.649436-15.55294 34.869128-34.243068.224205-19.064758-15.189949-35.345678-34.902154-35.323376C20.568533 5.23562 5.086482 20.811683 5.090174 40.260072c.003488 18.930741 15.764513 34.527263 34.883898 34.520306m-.033846 5.015039C17.857559 79.795212-.010338 62.030507-.000082 40.020277.010585 17.503856 18.47684-.20397 40.58966.138536c21.74913.336779 39.398155 18.110691 39.32308 40.017392-.075283 21.913862-17.896 39.639693-39.972513 39.639489" fill="#105487" mask="url(#b)"/>
    </g>
    <path d="M7.32283 40.093933c.000616 17.99284 14.564308 32.571663 32.552 32.58619 17.949744.014322 32.539078-14.454834 32.708719-32.117647.170666-17.796829-14.054564-32.658005-32.085539-32.9422-18.19159-.28665-33.077333 14.216062-33.17518 32.473658m32.651283 34.757442c-19.119385.006957-34.88041-15.589565-34.883898-34.520307C5.086523 20.88268 20.568575 5.30662 39.941087 5.284931c19.712205-.022302 35.126154 16.258619 34.902154 35.323376-.219692 18.690128-15.861128 34.236317-34.869128 34.243069" fill="#F7F9FA"/>
    <path d="M25.499713 34.918404H18.76761v3.970742h6.638975v2.492685h-6.643077v3.927775h6.789948c0 .824553-.042666 1.5378.00677 2.244706.420718 6.018414 3.740513 9.88358 9.53723 11.077852 2.90441.59826 5.837129.679897 8.76677.212174 6.635282-1.059233 9.909333-4.470384 10.699487-11.121433.094359-.793861.095384-1.598772.14318-2.463631h6.644922v-3.955397h-6.639384v-2.48h6.65764v-3.967059h-6.77641V24.598813h-7.131076V34.86439h-14.84041V24.570783h-7.122462v10.347621zm-18.17682 5.175448c.097845-18.257596 14.98359-32.760307 33.174974-32.473453 18.03118.28399 32.25641 15.14537 32.085538 32.941995-.169436 17.663018-14.75877 32.13197-32.708513 32.117647-17.987692-.014322-32.551384-14.593146-32.552-32.58619z" fill="#0E5386"/>
    <path d="M32.688 41.276522h14.780718v-2.370333H32.688v2.370333zm14.380308 4.047468H32.77846c-.204307 3.41647 1.674052 7.213913 6.611283 7.46087 4.814564.240613 7.949128-2.466497 8.028307-7.145167-.116718-.105166-.23323-.210537-.349743-.315703zM25.499692 34.918466V24.570639h7.122462V34.86445h14.84041V24.598875h7.131077v10.2578h6.77641v3.967264h-6.65764v2.48h6.639384v3.955191h-6.644923c-.047795.865064-.048616 1.66977-.142975 2.463632-.790358 6.651253-4.064205 10.062404-10.699692 11.121637-2.92964.467724-5.862359.385882-8.76677-.212174-5.796717-1.194271-9.116512-5.059437-9.53723-11.077852-.049436-.706905-.00677-1.420153-.00677-2.24491h-6.789948v-3.92757h6.643077v-2.49289H18.76759v-3.970537h6.732102z" fill="#FBFCFD"/>
    <path d="M47.41797 45.639611c-.078975 4.67867-3.213744 7.385985-8.028308 7.145371-4.937231-.246956-6.815385-4.044604-6.611077-7.461074h14.28964c.116514.10537.233231.210537.349744.315703" fill="#158"/>
    <path fill="#125588" d="M32.688 41.276726h14.780718v-2.370332H32.688z"/>
  </g>
</svg>
