<svg width="80" height="80" viewBox="0 0 80 80" xmlns="http://www.w3.org/2000/svg">
  <title>
    unity-supernet
  </title>
  <g fill="none" fill-rule="evenodd">
    <circle fill="#FFF" cx="40" cy="40" r="40"/>
    <path d="M32.423463 60.377938c2.368744.37699 4.842213.578115 7.387772.578115 8.410184 0 16.04199-2.181778 21.65089-5.728686-6.880218-10.036375-17.205173-24.068547-28.018198-28.059-2.545072-.941016-5.170027-1.411767-7.858305-1.411767-2.831484 0-5.160773.55674-7.004915 1.6537-1.83099 1.100363-2.747703 2.475695-2.747703 4.129397 0 .64613.14905 1.249506.441795 1.79313.28884.543136.75402 1.06344 1.35558 1.53759 1.54214 1.1436 4.86803 1.88592 9.99519 2.197326 2.35267.138942 4.18366.27837 5.473.437716 3.80129.42702 6.815434 1.64349 9.04146 3.65524 2.21677 2.01174 3.329293 4.47432 3.329293 7.41396 0 3.489582-1.517788 6.36947-4.568465 8.62655-2.29178 1.693052-5.117908 2.75358-8.477403 3.17672z" fill="#F58634"/>
    <path d="M68.105615 49.03716c1.855833-2.61658 2.89432-5.531933 2.89432-8.607604 0-3.075185-1.038-5.991024-2.89432-8.607117v17.21472z" fill="#96989A"/>
    <path d="M20.331814 54.666255c2.864606 1.073157 5.705345 1.61678 8.51004 1.61678 3.46568 0 6.284013-.728717 8.440383-2.197325 2.16952-1.46812 3.24649-3.35404 3.24649-5.653385 0-1.83005-.774482-3.331208-2.329777-4.510757-4.60792-3.496384-15.821336-1.736776-21.90077-4.48744-1.741366-.84531-3.074058-1.918953-3.97762-3.23793-.73259-1.077044-1.168053-2.25368-1.307362-3.541565-4.87631 8.996253-.556263 18.263102 9.318616 22.011622z" fill="#F58634"/>
    <path d="M63.443628 27.10084c-5.71947-4.347526-14.185184-7.100618-23.632393-7.100618-4.072116 0-7.961083.512045-11.527106 1.441888 2.18121.213757 4.34245.679164 6.48226 1.40205 12.1613 4.10802 22.05615 16.416535 28.67723 26.190085V27.10084z" fill="#96989A"/>
  </g>
</svg>
