<svg width="80" height="80" viewBox="0 0 80 80" xmlns="http://www.w3.org/2000/svg">
  <title>
    uno-unobtanium
  </title>
  <defs>
    <linearGradient x1="49.995586%" y1="0%" x2="49.995586%" y2="99.966718%" id="a">
      <stop stop-color="#383838" offset="0%"/>
      <stop stop-color="#0E0E0E" offset="99.982063%"/>
    </linearGradient>
  </defs>
  <g fill="none" fill-rule="evenodd">
    <circle fill="url(#a)" cx="40" cy="40" r="40"/>
    <path d="M39.94 43.816c0 1.79201-.307997 3.408993-.924 4.851-.616003 1.442007-1.455995 2.666995-2.52 3.675-1.064005 1.008005-2.323993 1.784997-3.78 2.331-1.456007.546003-3.037992.819-4.746.819-1.708008 0-3.289993-.272997-4.746-.819-1.456007-.546003-2.722995-1.322995-3.801-2.331s-1.917997-2.232993-2.52-3.675c-.602003-1.442007-.903-3.05899-.903-4.851V25h5.292v18.648c0 .728004.112 1.490996.336 2.289.224.798004.594997 1.532997 1.113 2.205.518003.672003 1.203996 1.224998 2.058 1.659.854004.434002 1.910994.651 3.171.651 1.260006 0 2.316996-.216998 3.171-.651.854004-.434002 1.539997-.986997 2.058-1.659.518003-.672003.889-1.406996 1.113-2.205.224-.798004.336-1.560996.336-2.289V25h5.292v18.816zm5.148-9.24h4.788v3.234h.084c.476002-1.008005 1.203995-1.882996 2.184-2.625.980005-.742004 2.309992-1.113 3.99-1.113 1.344007 0 2.484995.223998 3.423.672s1.700997 1.035996 2.289 1.764c.588003.728004 1.008 1.567995 1.26 2.52s.378 1.945995.378 2.982v12.726h-5.04V44.53c0-.560003-.028-1.182997-.084-1.869-.056-.686003-.203-1.329997-.441-1.932-.238-.602003-.608997-1.105998-1.113-1.512-.504002-.406002-1.189996-.609-2.058-.609-.840004 0-1.546997.14-2.121.42-.574003.28-1.049998.657998-1.428 1.134-.378002.476002-.651 1.021997-.819 1.638-.168.616003-.252 1.259997-.252 1.932v11.004h-5.04v-20.16z" fill="#CBCBCB"/>
  </g>
</svg>
