<svg width="80" height="80" viewBox="0 0 80 80" xmlns="http://www.w3.org/2000/svg" xmlns:xlink="http://www.w3.org/1999/xlink">
  <title>
    uqc-uquid-coin
  </title>
  <defs>
    <path id="a" d="M.00001.049693h47.85908v45.803342H.00001z"/>
    <path id="c" d="M0 .099262h15.083313v45.303223H0z"/>
    <path id="e" d="M.015685.056435h7.966493v44.452019H.015685z"/>
    <path id="g" d="M.027988.049674h46.670326v45.793621H.027988z"/>
  </defs>
  <g fill="none" fill-rule="evenodd">
    <circle fill="#FFF" cx="40" cy="40" r="40"/>
    <g transform="translate(16 18.097291)">
      <mask id="b" fill="#fff">
        <use xlink:href="#a"/>
      </mask>
      <path d="M31.95871 45.630707s-.004135 0-.00827.000147l.00827-.000294v.000147zM47.82249 1.821512l.000147-.29731.000739-.73306c-.071926.020427-.136911.061724-.196431.114926.038548-.047323.099101-.087297.19643-.114927.005318-.08568-.054202-.285112-.12347-.450447-.046523-.111546-.319163-.247636-.410732-.250134-.096591-.014109-.19333-.040416-.28992-.040416C42.158046.048381 37.316544.05235 32.475338.05235c-.550302 0-.593428.520843-.593428.71425.000443 9.072434.022597 28.193296.033083 28.68122-.154486.04306-.30912.12345-.463754.12345-5.177944.002057-10.356037-.00338-15.533981-.007642.000147-.276882.062326-19.538537.0576-28.530435-.000148-.237348-.057305-.474696-.088025-.712191-.20795-.265272-.537009-.257336-.814227-.258218C10.498722.050144 5.924838.053672 1.350955.056758 1.10682.056905.862832.084534.618845.099378.473812.100848.023498.055729.007104.795256c-.008566 12.148997-.008123 24.297994-.00517 36.44699.000148.389751.036185.77965.055533 1.1694.018757.144026.037514.288198.05627.43237.116678.444863.233207.889726.349736 1.334588.279286.509675.50437 1.058882.847163 1.521968 1.44517 1.951547 3.532505 2.869636 5.801945 3.473221.301145.076128.602141.15255.903138.228677.094228.015138.188456.030128.282683.045265.539668.08377 5.7312.345956 7.565834.374026 1.494203.010875 2.988259.030569 4.482462.031157 3.849304.001322 7.69861-.005879 11.547766-.0097 1.619594.004556 7.267348-.430313 8.085859-.585508l.037218-.02087.07355.006467.070745-.02131c.063065-.013961.12613-.027923.189194-.041738 1.764037-.443393 3.397366-1.175718 4.78715-2.347763 1.252284-1.055943 2.318327-2.268256 2.566893-3.982307.035151-.03292.048296-.073188.039434-.120364l.084185-.610198c.010043-.243815.028652-.48763.0288-.731444.001772-11.416671.002215-22.833195.00059-34.249866-.000147-.438984-.023187-.877821-.035593-1.316805z" fill="#E95B4F" mask="url(#b)"/>
    </g>
    <path d="M48.518538 19.469987c-.10043-.194729-.200714-.389457-.301145-.584186a6239.63403 6239.63403 0 0 0-.069268-.581393h.843471c4.50816-.000147 9.016173.001617 13.524333-.005437.257723-.000441.515446-.072454.773169-.111106.09157.002352.36421.138588.411027.250134.068973.165336.12864.364767.123176.450595-.439385.124185-.15877.491303-.249452.733207-.163053.136972-.387693.242051-.479114.416205-.447656.852984-.845982 1.731393-1.287877 2.587463-.706855 1.368684-1.439262 2.72414-2.151877 4.089885-.712172 1.36501-1.419766 2.732518-2.117022 4.10517-.371594.73159-.698289 1.486108-1.085095 2.209175-.118892.221917-.369822.374026-.560345.558026-.331274-.524518-.699766-1.02949-.986289-1.57708-.703754-1.344876-1.37605-2.706358-2.048935-4.066959-.740234-1.496543-1.465994-3.000434-2.200173-4.499917-.61824-1.262722-1.23648-2.525444-1.865797-3.782581-.043569-.08715-.179741-.128594-.272787-.191201" fill="#E33633"/>
    <g transform="translate(16 18.097291)">
      <mask id="d" fill="#fff">
        <use xlink:href="#c"/>
      </mask>
      <path d="M14.318858.343501c.254917-.00044.509686-.08421.764455-.129182C10.521098.21182 5.958883.210939 1.39652.20212 1.13732.20168.87812.13525.618772.099392.473738.100862.023572.055744.007178.795271c-.008714 12.148997-.00827 24.297994-.00517 36.44699 0 .389751.036185.779502.055385 1.1694.018757.144025.037662.288198.056419.432223.116529.44501.233058.889872.349735 1.334735.279286.509674.50437 1.058882.847163 1.521968 1.445022 1.951546 3.532357 2.869636 5.801945 3.47322.300997.076129.602141.15255.903138.228678l-.14075-.21163c-.007533-.146376-.021711-.292606-.021564-.43913.001034-9.656032.003545-19.312211.00576-28.968243-.524307-1.045067-1.044184-2.092339-1.573661-3.13476-.948332-1.86763-1.908776-3.729234-2.851496-5.599803-.646006-1.281827-1.214326-2.606127-1.926498-3.849597-.38843-.678243-.466708-1.515502-1.107988-2.071764C.271842 1.016894.34303.679022.313935.349233h.86592c4.37952 0 8.759335.002204 13.139003-.005732" fill="#D03036" mask="url(#d)"/>
    </g>
    <g transform="translate(55.876923 18.832115)">
      <mask id="f" fill="#fff">
        <use xlink:href="#e"/>
      </mask>
      <path d="M7.945728.789348l.000738-.732913c-.439532.124185-.637292.975258-.728713 1.149559-.447656.852837-.845687 1.731393-1.28773 2.587316C5.22302 5.161994 4.490614 6.51745 3.778 7.883195c-.712173 1.36501-1.419766 2.732518-2.117022 4.105316-.371446.731444-.698141 1.485962-1.084947 2.209029-.118893.222064-.369822.373879-.560345.558025.050658.333905.145477.667662.145772 1.001566.007976 9.362102.006499 18.724058.005022 28.08616 0 .219565-.016837.43913-.025846.658843l.07355.00632.070745-.02131c.063065-.013962.12613-.027777.189194-.041738 1.76389-.443393 3.397366-1.17572 4.78715-2.347764 1.252284-1.055795 2.318327-2.268109 2.566893-3.982306.03515-.03292.048295-.073189.039434-.120365.028061-.2034.056123-.406652.084184-.610198.009896-.243668.028653-.48763.0288-.731444.001773-11.416524.002216-22.833195.000591-34.249866-.000148-.438837-.023188-.87782-.035594-1.316658l.000148-.297457z" fill="#D03036" mask="url(#f)"/>
    </g>
    <path d="M31.083343 18.31155c.151384.093617.302917.187087.454449.280704-1.0944 2.227252-2.185846 4.456121-3.284086 6.68161-1.331299 2.697246-2.666142 5.392581-4.00763 8.084977-.095115.19076-.256395.348748-.386955.521873-.52416-1.04492-1.044037-2.092192-1.573514-3.13476-.948332-1.86763-1.908923-3.729234-2.851495-5.599656-.646154-1.281827-1.214326-2.606274-1.926498-3.849744-.388431-.678243-.466856-1.515502-1.107988-2.071617-.127754-.110811-.056566-.448536-.085662-.778472h.865773c4.379667 0 8.759335.002351 13.13915-.005732.254917-.000441.509539-.084211.764456-.129182" fill="#E33633"/>
    <path d="M47.93152 63.565102c-.002658-.097438-.005317-.194729-.007975-.292167-.136763-.083476-.341317-.134031-.399951-.254984-.94331-1.940817-1.876726-3.886485-2.79035-5.841265-.209724-.448536-.33733-.935284-.502746-1.404543-2.854744.002352-5.709489.004703-8.564233.006907-.351065.787291-.679385 1.585457-1.060284 2.357905-.316947.642824-.72443 1.241853-1.03872 1.885853-.273821.561552-.463901 1.162933-.708923 1.739035-.148283.348894-.300701.703374-.509833 1.016556-.106487.159604-.342351.233968-.51973.346837.002216.196639.004431.39313.006794.58977l-.043126.006613c.023926.06584.047852.131534.071779.197374 1.494203.010875 2.988258.030569 4.482461.031157 3.849305.001322 7.69861-.00588 11.547914-.009553.015803-.070837.031754-.141527.047704-.212364l.016394-.000294-.027175-.162837z" fill="#D13036"/>
    <path d="M35.66628 55.779124c-.351065.787144-.679385 1.58531-1.060284 2.357904-.316947.642824-.724578 1.241706-1.03872 1.885853-.273821.561406-.464049 1.162786-.708923 1.739035-.148283.348895-.300701.703227-.509834 1.016556-.106634.159604-.34235.233968-.519729.34669-.003101-4.94816-.006203-9.89632-.009452-14.844332.008566-.048058.016985-.095968.059963-.338754a271590.124119 271590.124119 0 0 0 3.786978 7.837048" fill="#E23734"/>
    <path d="M47.923515 63.272906c-.136763-.083329-.341317-.134032-.39995-.254837-.943311-1.940818-1.876727-3.886633-2.790351-5.841265-.209723-.448684-.33733-.935431-.502745-1.40469.067938-.230441.104418-.476166.208837-.688972.589292-1.200555 1.21285-2.384504 1.789587-3.590792.539816-1.12869 1.035914-2.277661 1.551213-3.417815.05125.010582.102646.021163.153895.031892v.908683c.000296 4.654084.000591 9.30802.000739 13.962103-.003693.098466-.007533.19708-.011225.295693" fill="#E23733"/>
    <g transform="translate(16.590769 18.097291)">
      <mask id="h" fill="#fff">
        <use xlink:href="#g"/>
      </mask>
      <path d="M45.925145.20171c.257723-.000442.515446-.072454.773169-.111106-.09659-.014109-.193182-.040416-.28992-.040562-4.841206-.001617-9.68256.002351-14.523766.002351-.550302 0-.593428.520843-.593428.714102.000443 9.072582.02245 28.193444.033083 28.681368-.154634.042913-.30912.123156-.463754.123303-5.178092.002205-10.356037-.003233-15.533981-.007495.000147-.276882.062178-19.538684.0576-28.530435-.000148-.237495-.057453-.474843-.088025-.712191-.20795-.265419-.537157-.257336-.814375-.258218C9.907865.050188 5.333982.053716.760098.056802.516111.056949.272123.084578.027988.099422.287335.135134.546535.201709.805735.20215 5.368098.210968 9.930314.211703 14.49253.214201c.151533.093617.303065.187087.45445.280703-1.0944 2.2274-2.185699 4.456122-3.284087 6.68161-1.331298 2.697246-2.666141 5.392729-4.00763 8.084978-.094967.19076-.256247.348748-.386807.52202-.002215 9.656031-.004726 19.31221-.00576 28.968242-.000147.146377.014031.292607.021563.439131l.140751.21163c.094228.015137.188456.030127.282683.045265.539668.08377 5.7312.345955 7.565686.374025-.023926-.065987-.047852-.13168-.071778-.197374l.043126-.00676c-.002215-.19664-.004578-.393131-.006794-.58977l-.009304-14.844332c.008418-.048058.016984-.095968.059963-.338754 1.308554 2.708268 2.547692 5.272805 3.786978 7.837048 2.854745-.002352 5.70949-.004556 8.564086-.007055.067939-.23044.104419-.476166.208837-.68897.589293-1.20041 1.21285-2.384506 1.789736-3.590793.539667-1.12869 1.035766-2.277662 1.551212-3.417815l.153895.031891v.908684l.000591 13.962102c-.003692.098467-.007385.19708-.011225.295694.002659.097437.005318.194728.007976.292166.00901.05423.018166.108607.027323.162984l-.016394.000294-.047852.212217c1.619594.004409 7.267347-.43046 8.08571-.585508l.037367-.020869c.009009-.219566.025846-.439131.025846-.658696.001477-9.36225.002806-18.724205-.005022-28.08616-.000295-.333904-.095113-.667809-.14592-1.001713-.331274-.52437-.699766-1.029488-.986289-1.576933-.703606-1.345022-1.37605-2.706357-2.048788-4.066958-.740381-1.49669-1.466141-3.000435-2.20032-4.500064-.618092-1.262575-1.236332-2.525297-1.865797-3.782434-.043569-.087298-.179741-.128595-.272787-.191202-.10043-.194728-.200714-.389457-.301145-.584185a6614.854682 6614.854682 0 0 0-.069267-.581393c.320492 0 .581907.000147.84347 0C36.908972.207 41.417132.208764 45.925145.201709" fill="#E95B4F" mask="url(#h)"/>
    </g>
  </g>
</svg>
