<?xml version="1.0" encoding="UTF-8"?>
<svg width="105px" height="105px" viewBox="0 0 105 105" version="1.1" xmlns="http://www.w3.org/2000/svg" xmlns:xlink="http://www.w3.org/1999/xlink">
    <!-- Generator: Sketch 49.2 (51160) - http://www.bohemiancoding.com/sketch -->
    <title>Group</title>
    <desc>Created with Sketch.</desc>
    <defs></defs>
    <g id="Page-1" stroke="none" stroke-width="1" fill="none" fill-rule="evenodd">
        <g id="Group">
            <circle id="Oval" fill="#0057FF" cx="52.5" cy="52.5" r="52.5"></circle>
            <path d="M28.612,65.208 C25.804,65.208 23.5,64.416 21.7,62.832 C19.9,61.248 19,59.124 19,56.46 L19,39.504 L23.932,39.504 L23.932,56.064 C23.932,58.692 25.408,60.348 28.612,60.348 C31.816,60.348 33.292,58.692 33.292,56.064 L33.292,39.504 L38.26,39.504 L38.26,56.46 C38.26,59.124 37.36,61.248 35.56,62.832 C33.76,64.416 31.456,65.208 28.612,65.208 Z M51.328,65.208 C46.324,65.208 42.832,62.832 41.428,58.98 L45.676,56.496 C46.648,59.052 48.592,60.348 51.472,60.348 C54.244,60.348 55.504,59.232 55.504,57.684 C55.504,56.784 55.108,56.1 54.316,55.632 C53.524,55.128 52.12,54.588 50.068,54.012 C47.8,53.328 46.432,52.788 44.848,51.672 C43.3,50.52 42.472,48.792 42.472,46.488 C42.472,44.22 43.264,42.384 44.884,41.052 C46.504,39.684 48.484,39 50.752,39 C54.82,39 58.024,41.088 59.752,44.652 L55.576,47.064 C54.568,44.904 52.948,43.824 50.752,43.824 C48.7,43.824 47.44,44.868 47.44,46.344 C47.44,47.136 47.764,47.784 48.412,48.288 C49.096,48.756 50.356,49.296 52.228,49.872 L53.956,50.448 C54.352,50.556 54.892,50.772 55.576,51.06 C56.26,51.312 56.8,51.564 57.16,51.816 C57.916,52.284 59.068,53.184 59.536,54.048 C60.076,54.912 60.472,56.172 60.472,57.612 C60.472,59.952 59.608,61.788 57.916,63.156 C56.224,64.524 54.028,65.208 51.328,65.208 Z M63.712,39.504 L73.72,39.504 C77.176,39.504 80.056,40.728 82.36,43.14 C84.7,45.552 85.852,48.54 85.852,52.104 C85.852,55.668 84.7,58.656 82.36,61.068 C80.056,63.48 77.176,64.704 73.72,64.704 L63.712,64.704 L63.712,39.504 Z M68.68,59.952 L73.72,59.952 C75.916,59.952 77.68,59.232 79.048,57.792 C80.416,56.316 81.1,54.444 81.1,52.104 C81.1,49.764 80.416,47.892 79.048,46.452 C77.68,44.976 75.916,44.256 73.72,44.256 L68.68,44.256 L68.68,59.952 Z" id="USD" fill="#FFFFFF"></path>
        </g>
    </g>
</svg>