<svg width="80" height="80" viewBox="0 0 80 80" xmlns="http://www.w3.org/2000/svg">
  <title>
    usdt-tetherusd
  </title>
  <g fill-rule="nonzero" fill="none">
    <path d="M40 0c22.09 0 40 17.91 40 40S62.09 80 40 80 0 62.095 0 40 17.907 0 40 0" fill="#53AE94"/>
    <path d="M44.937 34.67v-5.95h13.607v-9.066H21.49v9.066H35.1v5.946c-11.06.508-19.376 2.698-19.376 5.322s8.32 4.814 19.376 5.326v19.06h9.84V45.312c11.04-.51 19.34-2.698 19.34-5.32 0-2.622-8.3-4.81-19.34-5.32m0 9.026v-.005c-.278.017-1.704.103-4.88.103-2.54 0-4.326-.072-4.955-.105v.01c-9.77-.434-17.065-2.135-17.065-4.17 0-2.037 7.294-3.736 17.065-4.17v6.644c.64.044 2.47.152 4.997.152 3.034 0 4.56-.126 4.84-.152V35.36c9.752.434 17.028 2.138 17.028 4.166 0 2.03-7.28 3.733-17.028 4.168" fill="#FFF"/>
  </g>
</svg>
