<svg width="80" height="80" viewBox="0 0 80 80" xmlns="http://www.w3.org/2000/svg" xmlns:xlink="http://www.w3.org/1999/xlink">
  <title>
    usnbt-nubits
  </title>
  <defs>
    <path id="a" d="M.000038.101827H67v66.771695H.000038z"/>
    <path id="c" d="M.110949.101764h36.157202v7.221943H.11095z"/>
    <path id="e" d="M.023532.093095h45.83674V21.11132H.023532z"/>
  </defs>
  <g fill="none" fill-rule="evenodd">
    <circle fill="#FFF" cx="40" cy="40" r="40"/>
    <g transform="translate(7 7.024651)">
      <mask id="b" fill="#fff">
        <use xlink:href="#a"/>
      </mask>
      <path d="M20.455556 17.144858c-.198594-.639155-.354758-1.291457-.547779-1.932508-.198847-.660266-.419098-1.314211-.629977-1.970938a3409.199 3409.199 0 0 1-.03977-.632075h1.283006c.776896 0 1.556199.040453 2.329928-.008344 1.611547-.10189 2.793102.553446 3.610148 1.917212.30283 1.02333.594767 2.050073.911276 3.069105.403013 1.297904.826037 2.589487 1.24045 3.883725.303716 1.043936.595527 2.091538.914315 3.130923.40428 1.318256.830471 2.62994 1.247163 3.944403.120575-.180141.241023-.36041.405926-.606792.000253 0 .000507-.000127.000633-.000127-.164777.246257-.285351.426399-.4058.60654.74878 2.449293 1.497432 4.898585 2.24621 7.348004.028878-.14108.092965-.285572.07992-.422732-.029258-.309717.111075-.544217.333733-.594278-.222405.05044-.362358.284687-.332974.594278.012919.13716-.051041.281526-.079792.422605.222025.764685.433537 1.53253.668354 2.293297.413272 1.339747.840603 2.675196 1.262107 4.012541.339433 1.168455.665314 2.341081 1.021845 3.50448.40542 1.322049.838197 2.636007 1.259069 3.953379.494457 1.688653.989294 3.377052 1.50009 5.120949-.173262.01871-.32778.049049-.482425.049554-1.20068.00392-2.401615.008091-3.602295.000632-1.612306-.009986-2.85567-.922703-3.355953-2.467116-.387181-1.195255-.758658-2.39544-1.137227-3.593476-.394147-1.344804-.778289-2.692642-1.184975-4.03378-.656195-2.16372-1.326828-4.323269-1.993282-6.48383-.03673-.119209-.091444-.232982-.137673-.349284-.293077-1.00323-.573743-2.01038-.881639-3.009185-.79602-2.581017-1.604073-5.158242-2.407313-7.736983-.43493-1.46199-.8672-2.924866-1.30631-4.385593-.156418-.520703-.329301-1.036477-.494584-1.554526-.432524-1.356308-.872014-2.710593-1.294405-4.07006zm8.436047-4.535521c.820465 0 1.644856.05044 2.460762-.010746 1.570004-.117566 2.715336.540804 3.578484 1.79383 1.032484 3.40891 2.064208 6.818199 3.100365 10.226097.053828.176981.146032.342332.220378.513119.653535 2.18597 1.30137 4.37371 1.963391 6.55715.285352.940656.600467 1.872208.902157 2.80806.499904 1.680056.994868 3.36163 1.501864 5.039663.16807.5561.366664 1.103099.551325 1.654142.312582 1.086917.614779 2.176868.940153 3.259866.488125 1.623928.991955 3.243306 1.492112 4.863694.023684.076734.076119.14462.115128.216676.453168 1.528358.906717 3.056843 1.359125 4.585455.058768.198598.112089.39884.16617.592507-.049015.044372-.077385.09241-.105883.092536-1.432077.010492-2.865801.06523-4.295472.00986-1.401427-.054232-2.594129-1.063783-3.011834-2.405805-.32436-1.042293-.649862-2.084333-.974856-3.126372-.119562-.422732-.22975-.848498-.360331-1.267817-.629597-2.022894-1.26502-4.044145-1.898291-6.065902-.639983-2.106707-1.280093-4.213289-1.920076-6.319996-.00038-.000253-.00076-.000632-.001266-.000885-.719015-2.359664-1.43803-4.719202-2.157172-7.07874l-.000887-.000379c-.158444-.542194-.309416-1.086917-.47698-1.62633-.590587-1.902547-1.186874-3.803577-1.780882-5.705113-.079665-.302006-.148438-.607425-.24077-.905638-.637702-2.05867-1.280219-4.115823-1.921341-6.173481-.127414-.47886-.255082-.957847-.40618-1.525451h1.200807zm-7.512739 18.083679c.09499-.294294.184155-.590611.285858-.882504.255715-.734219.517002-1.466415.776136-2.199496l.10221.176223c.014185.082043.019758.166615.043822.245624.726868 2.401634 1.450823 4.80428 2.18643 7.203385.29941.976177.624658 1.944517.938253 2.916396-.026724.226915-.021405.463438-.085491.679355-.412386 1.389302-.84415 2.772915-1.261728 4.1607-.605027 2.009747-1.203214 4.021643-1.804314 6.032528-.999427 3.247351-1.998855 6.494576-2.98359 9.694648.12754.108084.155531.141332.191248.160673 3.648143 1.980545 7.553775 3.105513 11.68751 3.388051 3.04565.208332 6.06787-.030592 9.036894-.787187 5.877129-1.497766 10.824363-4.526419 14.789269-9.09683 1.069467-1.2328 1.925521-2.649787 2.879733-3.982202-.116648-.040958-.184155-.094432-.220505-.157387.03635.062955.103857.116429.220505.157387.960291-1.394232 1.671707-2.91943 2.240637-4.50063.453042-1.259474.77715-2.565089 1.158378-3.850225.024825-.033373.06396-.063586.07232-.100626.720661-3.224343.904183-6.476877.509402-9.759245l-.069026-.386957c-.007346-.082422-.014945-.164845-.022291-.247268-.003547-.146894.010892-.296822-.013172-.440303-.388195-2.305938-.984356-4.553852-1.908804-6.707585-.220251-.51312-.460894-1.01739-.692164-1.52583-.53182 1.333046-.942053 2.6465-1.349372 3.96071-.565384 1.823918-1.128615 3.648593-1.692732 5.473016-.523715 1.656796-1.054648 3.311443-1.56899 4.97102-.476727 1.538599-.935594 3.082759-1.402441 4.624391-.53942 1.679298-1.087325 3.355942-1.615346 5.03878-.358558 1.14216-.689251 2.292916-1.032484 3.43988-.120955.335253-.253561.667093-.360837 1.00677-.41188 1.30334-.808813 2.611483-1.227278 3.912674-.108923.338792-.199734.710326-.586915.954434-.554872-1.754136-1.086439-3.434066-1.617753-5.114123-.060034-.242211-.108922-.487836-.181748-.726255-.411246-1.348722-.853775-2.688975-1.226645-4.04819-.103856-.377981-.076119-.826375.012032-1.215102.17073-.752423.427331-1.48563.648343-2.226675.141852-.491629.272053-.986923.427964-1.474.437083-1.364904.884678-2.726521 1.328094-4.089402.26686-.817274.543346-1.63164.798554-2.45258.385662-1.241016.756505-2.48671 1.133807-3.730509.314989-.94786.644543-1.89117.9418-2.844593.452915-1.452762.883919-2.91235 1.324041-4.369031.461781-1.42609.930275-2.850155 1.382556-4.279278.307896-.973143.592995-1.953492.888352-2.930555.579315-1.7956 1.163317-3.589809 1.728575-5.389707.041795-.132483.003293-.361547-.089545-.451808-.367423-.35687-.771197-.67632-1.24615-1.081986-.696977 2.26106-1.35735 4.40367-2.017725 6.546152-.473053 1.471599-.952819 2.941048-1.417133 4.415427-.344752 1.095134-.669493 2.196588-1.0031 3.295136.061808-.061185.132607-.118578.20176-.176602-.069153.058024-.139952.115417-.20176.176602-.27256.835603-.552971 1.668932-.815905 2.50757-.450635 1.437845-.890631 2.879103-1.33506 4.319098-.425812 1.317877-.858589 2.633605-1.2749 3.954517-.233044.73978-.43911 1.488032-.657335 2.23249l-1.757325 5.56593c-.04319.009355-.086378.018836-.129567.02819-.682792-2.199116-1.365458-4.398233-2.04825-6.59735-.429484-1.351251-.863907-2.700859-1.28022-4.056155-.040782-.132483.00874-.306177.053196-.449405.372743-1.197025.753971-2.391521 1.132667-3.58665.509656-1.59953 1.019438-3.19906 1.529221-4.79859.23811-.720313.484325-1.437972.71281-2.161319.52992-1.678666 1.051228-3.359987 1.575956-5.04017.597933-1.80723 1.19574-3.614587 1.802287-5.448364-.230257-.132357-.401873-.250681-.588941-.335506-1.357605-.616526-2.69102-1.298915-4.084087-1.822652-2.610847-.98174-5.324157-1.546057-8.120806-1.635559-1.1314-.036281-2.266727-.042223-3.397242.008217-1.00576.045004-2.017979.124645-3.00854.297076-4.440998.772649-8.523059 2.422618-12.174875 5.086564-1.361912.993622-2.666322 2.053234-3.781764 3.326234-.19454.189117-.4115.360283-.579696.570384-.823378 1.027882-1.63371 2.066129-2.448603 3.10071-1.16889 1.472736-2.003667 3.139013-2.744214 4.848524-.439362 1.014229-.760304 2.079529-1.13444 3.121821-.138433.46053-.319421.913097-.407193 1.382981-.268633 1.437846-.553731 2.87607-.730034 4.32643-.120701.992991-.07042 2.006714-.096637 3.011082.012032 1.749205.119308 3.488424.546766 5.194017.296497 1.827835.813119 3.593096 1.53834 5.29578.358811.842557.749285 1.671588 1.125448 2.506812.046989-.009734.094104-.019594.141093-.029328.220124-.764938.44139-1.529623.660374-2.29494.30017-1.048613.587928-2.100892.901397-3.14546.23431-.78074.501043-1.551745.753338-2.32705.591348-1.93908 1.182823-3.878035 1.77417-5.817116.41188-1.356181.821859-2.712868 1.236144-4.06829.334367-1.093491.673926-2.185465 1.011206-3.27807.110443-.311235.234817-.618423.32892-.93446.445696-1.498146.883033-2.99882 1.32341-4.498482.335252-1.096777.670632-2.193428 1.005886-3.29008.464187-1.014101.53486-2.182809 1.26388-3.266692.324615 1.043304.60528 1.955389.892405 2.865325.415299 1.316234.835537 2.631077 1.253622 3.946426.316255 1.084768.657208 2.163342.9342 3.258096.087265.344482.069533.74863-.016085 1.097157-.214805.87277-.495977 1.729232-.750552 2.592394-.423784 1.390314-.847695 2.780627-1.271353 4.17094-.423025 1.391072-.845923 2.782017-1.268947 4.172962-.512316 1.643397-1.03223 3.284517-1.534414 4.931074-.33044 1.083883-.63555 2.175477-.952059 3.263658-.079539.216044-.16959.428674-.23697.648383-.762837 2.488229-1.522002 4.977721-2.282686 7.466708-.570576 1.86715-1.145712 3.732785-1.70641 5.602843-.054461.181912-.10905.477344-.015072.570259.389715.384934.83655.712349 1.31657 1.10512.849975-2.791624 1.666767-5.460626 2.474946-8.132283.716736-2.369398 1.424099-4.741703 2.135514-7.112745.150972-.457496.31233-.911706.450889-1.372741.748905-2.490504 1.491985-4.982651 2.23709-7.474166.494332-1.602564.988662-3.205002 1.482993-4.80744zM3.672753 19.822329c.061553-.009607.12488-.014537.187068-.022122-.062188.007585-.125515.012515-.186942.022122-.35843.784406-.718635 1.568053-1.070227 2.355493.351592-.78744.711796-1.571087 1.0701-2.355493zm.10107 19.72164c.000633-.062955.012665-.128185.000506-.188485-.49851-2.484562-.685705-4.991753-.551705-7.522457.010132-.16927.020138-.338666.030144-.507936.011145-.210228.02229-.420456.03331-.630558.151731-.97289.240136-1.960825.469253-2.915132.396047-1.649717.87936-3.278702 1.326195-4.91641.332593-.744964.658474-1.492835.999427-2.23388.322588-.701099.608573-1.426342 1.00462-2.08446.593754-.986922 1.269454-1.924416 1.91045-2.883022.6719-.801092 1.288452-1.657807 2.027731-2.391141 1.362925-1.351757 2.774738-2.65712 4.213781-3.92835.602367-.53208 1.326068-.927254 1.994675-1.38475.13324-.086089.26648-.172304.399847-.258393.076879-.042349.153758-.084571.230764-.12692.128933-.084699.257867-.169397.386801-.254221l.003926.005815c1.272874-.601357 2.528396-1.243166 3.822167-1.795727 2.765745-1.181096 5.669922-1.867277 8.659971-2.110752 1.523649-.12414 3.069968-.11706 4.596403-.019342 1.54556.098857 3.094412.305166 4.61464.60262 2.700392.52829 5.252725 1.506616 7.682203 2.799463.214172.1139.439363.206942.722308.339045.33842-1.054175.649482-2.02302.962318-2.996796-.143626-.092662-.226458-.15587-.317648-.203655C45.286465 1.992112 41.353983.777137 37.181998.342016c-.57501-.060047-1.145966-.159157-1.718822-.240189h-4.179584c-.132987.041212-.26306.100374-.399214.121106-1.615726.245625-3.248043.410723-4.84553.742815-3.318337.6901-6.442007 1.92998-9.350617 3.664647-1.221579.728657-2.357159 1.600668-3.531875 2.407576l.005192.002275c-.123234.088996-.246468.17812-.369576.267115-.053955.031351-.112469.05676-.161104.094812-1.922862 1.503707-3.651057 3.206771-5.16546 5.118041-.634536.800713-1.197894 1.657681-1.793674 2.489113-1.24691 1.709132-2.203274 3.57818-3.017153 5.521559-.29903.713866-.53562 1.453773-.800707 2.181798-.30663.994887-.700524 1.972581-.90013 2.988453C.62077 27.395099.41217 29.113459.151262 30.82158l-.151225.504776v4.424528c.043442.193289.100057.384934.1283.580498.13666.943942.26572 1.888894.397441 2.833468l.033437.249923c.022544.085836.045089.171545.067633.25738.002026.063082-.004433.12768.007093.188865.684185 3.626217 1.955918 7.038034 3.792656 10.236841.508516.885791 1.084538 1.732898 1.629784 2.59783.505983-1.262128.883539-2.481401 1.237157-3.707501.039136-.13615-.021025-.332978-.097904-.46546-1.628518-2.808438-2.725215-5.81737-3.421813-8.97876zm63.10944-7.72333c-.106136-1.006644-.202647-2.014172-.302197-3.021574-.155784-.88478-.276865-1.777522-.474446-2.652947-.47166-2.09002-1.092264-4.134153-2.031278-6.070074-.70217-1.356686-1.396487-2.717292-2.111576-4.067152-.197707-.373178-.456462-.71412-.748526-1.164157-.415932 1.326094-.797287 2.521981-1.159518 3.723683-.044329.14702-.032676.347515.033184.485055.388448.810826.800707 1.610401 1.20486 2.41377.477106 1.408643.992461 2.805909 1.418145 4.229722.30435 1.017515.488378 2.07068.725981 3.108042.025965.249796.051802.499592.07764.749515.019757.08571.039515.171292.0594.257002.229877 2.61477.22785 5.22701-.081565 7.836219-.344246 2.202403-.848202 4.364101-1.659548 6.44641-.29675.761399-.604773 1.518499-.907477 2.277495-.045088.069276-.098157.134506-.134.208206-1.927801 3.958562-4.55296 7.387698-7.967554 10.170473-6.478988 5.27998-13.906616 7.556715-22.249446 6.832989-3.24247-.2814-6.341442-1.106511-9.313633-2.418574-.685832-.30289-1.362671-.625754-2.095365-.963283a40580.14549 40580.14549 0 0 0-.904563 3.030929c.118042.070666.203533.13046.29599.17597 4.411995 2.1708 9.060579 3.388303 13.994135 3.451132.970296.012262 1.940973.009734 2.911397.014032 1.460828-.186336 2.940274-.281274 4.379444-.574178 8.847673-1.80091 15.897111-6.390156 21.118172-13.74663 1.255648-1.769432 2.355132-3.636836 3.137601-5.672877.285985-.673793.617945-1.332289.848456-2.024538.500916-1.50535 1.07048-2.990475 1.211826-4.59974.076879-.874286.311442-1.734794.474826-2.601622.038883-.220089.085871-.439166.114875-.660646.087645-.66646.16807-1.333932.251535-2.000898v-2.781132c-.04015-.13008-.102843-.25776-.116775-.390622z" fill="#FECD4D" mask="url(#b)"/>
    </g>
    <g transform="translate(20.045369 7.024651)">
      <mask id="d" fill="#fff">
        <use xlink:href="#c"/>
      </mask>
      <path d="M.110949 7.038009c1.174716-.806781 2.310423-1.67892 3.532002-2.407576C6.551435 2.895765 9.67523 1.65576 12.993567.965786c1.597488-.332219 3.229679-.49719 4.845531-.742941.136027-.020606.2661-.079768.399087-.121106h4.179584c.572857.081032 1.143813.180268 1.718823.240315 4.172111.43512 8.104593 1.650096 11.814037 3.596383.090938.047785.174023.110992.317522.203655-.312709.973902-.623771 1.942747-.96219 2.996796-.283073-.132104-.508264-.225019-.722309-.338919-2.429478-1.292847-4.98181-2.2713-7.682329-2.799462-1.520229-.297455-3.069081-.503764-4.614514-.602621-1.526561-.097719-3.07288-.104798-4.59653.019342-2.990048.243475-5.8941.929656-8.659844 2.110752-1.293898.55256-2.54942 1.19437-3.822293 1.795727.13628-.268759.27256-.53739.449875-.886802-.23431-.04728-.467227-.138804-.697357-.13261-.752452.020227-1.505664.056382-2.255076.125278-.49547.045383-.990055.135138-1.475393.246762-.380722.08748-.746752.238798-1.119242.361674" fill="#FED876" mask="url(#d)"/>
    </g>
    <path d="M74 42.016994c-.083212.667092-.16389 1.334437-.251408 2.001024-.02913.221353-.07612.44043-.115002.660646-.017352-.011883-.042556-.019595-.051168-.036029-.153885-.294547-.235324-.717152-.477233-.850773-.259514-.143481-.67646.032741-1.012473-.015802-.617438-.08925-.986635.238292-1.329614.662794-.073586.091019-.178962.156376-.269773.233489.309416-2.609081.311442-5.22145.081565-7.836219-.019758-.085583-.039516-.171293-.0594-.257002-.025838-.249796-.051676-.499592-.07764-.749515.04699-.086974.122728-.16965.136154-.261553.091697-.62487.087517-.62133.729654-.631949.375656-.006194.755998.00493 1.125194-.050819.513456-.077619.71547.015802.90583.495927.06168.155617.16313.295432.246342.442579.099677 1.007275.19606 2.01493.302197 3.021573.013932.132736.076752.260416.116775.390497v2.781132z" fill="#FECF54"/>
    <path d="M7 38.350956a2549.71155 2549.71155 0 0 1 .151225-.504649c.111329-.110487.255461-.203023.327907-.334874.215819-.393277.540687-.56103.97701-.551675.209486.004298.419858.01201.628457-.001644.499017-.032741.936607.009355.998034.650785.004053.042855.132734.0737.203533.110234-.011145.210229-.02229.420457-.03331.630559-.333733.150181-.313722.321347-.03027.507936-.134 2.530704.053195 5.037894.551705 7.522456.012159.060427.000253.125657-.000507.188612-.079665-.079515-.15629-.162317-.239756-.23766-.146412-.131978-.300043-.37381-.445315-.370018-.857322.022376-1.74428-.219962-2.562972.228559-.13172-.944574-.26078-1.889527-.397314-2.833468-.028244-.19569-.084858-.38721-.128427-.580625v-4.424528z" fill="#FECE52"/>
    <path d="M65.161054 55.426993c-.954086 1.332415-1.810267 2.749402-2.879607 3.982202-3.965032 4.570411-8.912267 7.599064-14.789395 9.09683-2.968898.756595-5.991244.99552-9.036768.787187-4.133862-.282538-8.03962-1.40738-11.687637-3.387924-.03559-.019468-.063707-.05259-.191248-.1608.984862-3.199946 1.98429-6.447297 2.98359-9.694521.212906-.18444.46558-.33993.627065-.561662.148691-.204034.270026-.326151.543472-.330829 1.67918-.02857 3.358106-.073447 5.036906-.123002.35463-.010492.644289.016055.845922.385693.093597.171672.356405.25144.54246.372672.378442 1.197909.750171 2.398094 1.1371 3.593349.50041 1.544413 1.743773 2.45713 3.355952 2.467117 1.200808.007584 2.401615.003286 3.602422-.000632.154518-.000506.309036-.030846.482299-.049555-.510796-1.74377-1.005507-3.432296-1.500091-5.120823.110569-.284307.221138-.568615.37439-.962904.276358.124898.52422.2345.76993.34878.160723.074964.318154.156754.477105.235637.325121 1.04204.650495 2.083953.974983 3.126372.417579 1.341896 1.61028 2.351574 3.011834 2.40568 1.429544.05537 2.863268.000631 4.295346-.009861.028624-.000126.056867-.048038.10601-.09241-.054209-.193794-.10753-.394035-.166298-.592633-.452408-1.528612-.905956-3.056844-1.359124-4.585329.044455-.08887.10297-.173568.130707-.267494.174782-.590864.283705-.617538.788168-.21756.087645.069654.22899.07193.345639.10543.53144 1.67993 1.06288 3.35986 1.617879 5.113996.387055-.244108.477866-.615515.586915-.954434.418338-1.30119.815272-2.609334 1.227151-3.912674.107403-.339677.24001-.67139.360964-1.00677.14312-.075216.33272-.115164.421505-.231592.35919-.471023.826418-.542068 1.385849-.539666 1.108476.004677 2.217079-.078377 3.326062-.107453.683552-.018077 1.368117-.003287 2.060282-.003287.044709.364582-.273953.72891.19226.89287" fill="#FEC93E"/>
    <path d="M19.76559 20.517174c1.115569-1.273 2.419979-2.332738 3.781764-3.326234 3.651816-2.663945 7.733877-4.314041 12.175001-5.08669.990435-.172304 2.002781-.251946 3.008414-.29695 1.130515-.050565 2.265842-.044498 3.397242-.008216 2.796775.089501 5.509959.653818 8.120932 1.635432 1.393068.523864 2.726356 1.206126 4.084087 1.822779.186942.084824.358685.203149.588815.33538a138423.74798 138423.74798 0 0 1-1.80216 5.44849c-.054715-.060806-.138687-.113142-.159458-.18406-.153125-.521463-.518015-.618676-1.013233-.591244-1.193208.066115-2.388315.11213-3.583043.12907-1.494898.021238-2.990556-.009608-4.485454.012515-.578809.008596-1.156225.10088-1.753652.156881-.016338.184566-.013932.330955-.046102.469253-.030524.13223-.09727.25599-.147932.383543-.863147-1.253026-2.00848-1.911396-3.578484-1.79383-.815905.061185-1.64017.010745-2.460762.010745h-1.200807c.151225.567604.278766 1.046465.406306 1.525451-.136153-.084192-.338293-.136275-.39744-.25776-.332214-.680998-.87974-.514762-1.460322-.443211.077386.393277.596161.660518.221772 1.084388-.816919-1.363892-1.998475-2.019102-3.610148-1.917338-.773603.048923-1.553032.00847-2.329801.00847h-1.283133c.016465.262059.028118.447004.03977.632076-.537393.028822-.307643-.505029-.514722-.728657-.111456-.007711-.215059-.02364-.318029-.020606-1.340886.040074-2.682406.068644-4.021773.139183-.218225.011378-.42657.210608-.63935.322991-.33956.179383-.678865.358766-1.018298.53815" fill="#FED56C"/>
    <g transform="translate(25.238185 52.786915)">
      <mask id="f" fill="#fff">
        <use xlink:href="#e"/>
      </mask>
      <path d="M45.860272 1.11761c-.78247 2.036042-1.881827 3.90332-3.137475 5.672878-5.22106 7.356473-12.2705 11.94572-21.118299 13.74663-1.439043.292904-2.918616.387842-4.379444.574304-.970423-.004425-1.940974-.001896-2.91127-.014285-4.933556-.062828-9.58214-1.280332-13.994261-3.45088-.092458-.045635-.17795-.105303-.29599-.176095.298143-.99868.590967-1.979914.90469-3.031055.732693.337528 1.409532.660645 2.095364.96341 2.972191 1.311935 6.071036 2.137173 9.313507 2.418446 8.34283.723853 15.770584-1.552883 22.249446-6.832862 3.414594-2.782775 6.039879-6.211911 7.967554-10.1706.03597-.073573.089038-.13893.134-.20808.117915-.040326.272053-.046773.347665-.12692.412006-.436638.936607-.39568 1.460068-.38152.168197.004677.33652.000631.504843.000758.854282.001138.852509.001011.757265.872896-.004686.04336.06662.09519.102336.142976" fill="#FEC93F" mask="url(#f)"/>
    </g>
    <path d="M65.161054 55.426993c-.466214-.16396-.147552-.528289-.192261-.89287-.692165 0-1.37673-.01479-2.060282.003287-1.108983.029076-2.217586.11213-3.326062.107453-.559431-.002402-1.026658.068643-1.38585.539666-.088784.116428-.278385.156376-.421504.231593.343106-1.146965.673926-2.297721 1.032357-3.439755.528148-1.682838 1.075927-3.359608 1.615473-5.038906.130707-.112762.329807-.201505.379709-.342711.163637-.46369.478246-.549906.927488-.54131 1.300737.02503 2.602107.010872 3.903225.007332.313595-.000884.627444-.015675.94066-.032868.478245-.026041.955478-.066747 1.43385-.087352.285098-.012136.402253.149296.423278.42842.017985.23766.084098.471655.12906.707166-.381355 1.285136-.705336 2.590878-1.158504 3.850225-.56893 1.581326-1.280346 3.106398-2.240637 4.50063" fill="#FECB47"/>
    <path d="M41.930798 21.417073c.050662-.127427.117409-.251314.147932-.383417.03217-.138425.029764-.284814.046102-.46938.597428-.056002 1.17497-.148158 1.753653-.156754 1.494897-.02225 2.990555.008596 4.485453-.012515 1.194855-.01694 2.389836-.063082 3.583044-.12907.495217-.027432.860107.06978 1.013232.591243.020771.070793.104743.123128.159458.183934-.524855 1.680183-1.046163 3.36163-1.576084 5.04017-.228357.723347-.474699 1.441006-.712682 2.161319-.025584-.209344-.09461-.424502-.067253-.626766.051421-.379751.13818-.750653-.084985-1.19614-.36109.475953-.678486.894134-.996008 1.312568-.053321-.494283-.332087-.639028-.818692-.647624-.60148-.010872-1.200933-.132736-1.80102-.209091-.725221-.09241-1.44791-.214906-2.175917-.271793-.513202-.040073-.759798.245751-.626178.730806.259641.940781.571843 1.867151.862261 2.799462.056994.238546.111456.47785.171616.715763.109936.435879.223291.871.335254 1.3065h-.378316c-.074346-.170787-.166677-.336138-.220505-.51312-1.036157-3.407897-2.06788-6.817186-3.100365-10.226095" fill="#FED363"/>
    <path d="M68.560183 47.07619c-.044836-.235639-.111076-.469633-.12906-.707167-.021026-.279125-.13818-.440683-.423279-.42842-.478372.020605-.955605.06131-1.43385.087352-.313216.017066-.627065.031857-.94066.032742-1.301117.003666-2.602488.017698-3.903225-.007206-.449242-.008723-.76385.077619-.927488.54131-.049902.141205-.249002.229948-.379709.34271.46672-1.541631.925715-3.085792 1.402314-4.624263.514342-1.65983 1.045276-3.314351 1.569117-4.971148.081439-.097466.147046-.220341.249509-.285066.098157-.062196.23469-.064219.354378-.092788-.147805.543585-.289025 1.08894-.444936 1.629996-.186308.646487-.385028 1.289307-.603253 2.0167.192007-.078504.279145-.095823.344246-.143355 1.49591-1.092353 2.91735-2.272311 4.170971-3.638985.135267-.147273.139953-.413883.205306-.625249.451522-.15903.84529-.116175 1.149133.303017.038503.053094.151985.05183.230763.075723.007473.082422.014819.164845.022418.247141-.20366.16927-.200746.30188.069027.386957.39478 3.282494.211259 6.535028-.50953 9.759372-.008232.03704-.047495.067253-.072192.100626" fill="#FECE51"/>
    <path d="M37.155788 55.792788c-.186055-.121232-.448862-.201-.54246-.372545-.201633-.369638-.49129-.396312-.845922-.38582-1.6788.049682-3.357726.094433-5.036905.12313-.273446.004676-.394781.126793-.543346.330827-.161484.221733-.414286.377097-.627191.561536.6011-2.011011 1.19954-4.02278 1.804314-6.032655.417705-1.387784.849342-2.771271 1.261854-4.1607.064087-.215916.058641-.452313.085365-.679354.128174-.221606.256474-.443212.376542-.651038.226711.1206.489265.260162.751692.399725.046356.116301.10107.229949.1378.349158.666454 2.160813 1.337087 4.320236 1.993282 6.483957.406686 1.341137.790828 2.688975 1.184975 4.033779" fill="#FECC48"/>
    <path d="M19.76559 20.517174c.339433-.179383.678739-.358766 1.018299-.538149.212778-.112383.421124-.311613.63935-.32299 1.339366-.07054 2.680886-.09911 4.021772-.139183.10297-.003034.206573.012894.318029.020605.20708.223629-.022671.75748.514722.728657.210879.6566.43113 1.310545.629977 1.970937.19302.641051.349185 1.293227.547779 1.932508.422391 1.359468.86188 2.713627 1.294404 4.07006-.112595-.17875-.226584-.356617-.337533-.536252-.203533-.329438-.278638-.78289-.795134-.843695-.083718.31136-.159964.59453-.236083.877827-.418085-1.315476-.838197-2.630193-1.253622-3.946427-.287125-.909936-.567663-1.82202-.892404-2.865324-.728895 1.083883-.799568 2.25259-1.263755 3.266566-.128427-.223881-.256854-.447762-.414538-.722968h-.459755c-.27028.695536-.521181 1.34139-.772083 1.987245-.204293-.084066-.40238-.216043-.614145-.243728-.826292-.108211-1.667274-.128817-2.4828-.285825-.871127-.167626-1.70869-.349537-2.475707.27685.079032-.183429.130707-.385946.242796-.546493.250142-.357755.112215-.468494-.257868-.469127.814892-1.03458 1.625225-2.072828 2.448603-3.100709.168197-.210102.385155-.381268.579696-.570385" fill="#FED466"/>
    <path d="M7.525728 46.189564c.818692-.44852 1.70565-.206183 2.562972-.228558.145272-.003793.298904.23804.445316.370017.083465.075343.16009.158145.239882.23766.696598 3.161389 1.793295 6.17032 3.421687 8.978632.076879.132483.137166.329438.097903.46546-.353491 1.226227-.731047 2.4455-1.237157 3.707502-.545119-.864932-1.121141-1.71204-1.629784-2.59783C9.58981 53.92364 8.318203 50.51195 7.63389 46.885606c-.011526-.061185-.005066-.125783-.006966-.188738a731.379639 731.379639 0 0 0-.067633-.257381c-.011273-.083434-.022418-.166615-.033564-.249923" fill="#FECC48"/>
    <path d="M12.171539 46.073022c-.427458-1.705592-.534734-3.444811-.54664-5.19389.063961-.135265.157052-.26446.187069-.406804.154771-.734978.293964-.841545 1.044643-.860381 1.230317-.030846 2.460001-.084825 3.690192-.121359.2699-.00809.445443-.09696.460768-.389864.290038.179636.580075.359272.925841.573545.088405-.226536.154138-.395173.219872-.563685.170096.091651.399973.14247.49737.284055.179469.26092.281045.575189.415172.867081-.591474 1.939081-1.182822 3.878163-1.774297 5.817117-.209232-.634098-.683045-.693134-1.270847-.66115-.877966.048037-1.762644.04968-2.640357-.000633-.57615-.03312-1.003987.071172-1.208786.655968" fill="#FECE51"/>
    <path d="M20.156318 14.06266c.37249-.122876.73852-.274195 1.119242-.361674.485338-.111624.979922-.20138 1.475393-.246762.749412-.068896 1.502624-.105051 2.255075-.125278.23013-.006194.463048.08533.697358.13261-.177316.349411-.313596.618043-.449876.886802l-.003926-.005815c-.19454-.014917-.389081-.029581-.386675.25422-.077005.04235-.154011.084572-.23089.126921-.198847-.015043-.404787-.040832-.399847.258393-.66848.457496-1.392181.852796-1.994548 1.384877-1.439044 1.270977-2.850983 2.57634-4.213908 3.928223-.73928.733334-1.355705 1.590049-2.027604 2.391141.075865-.31174.151858-.62348.224937-.923841-.07042-.041338-.103983-.07547-.14122-.080148-.103096-.012515-.207838-.0201-.311568-.01694-1.042996.031857-2.11487-.176222-3.096565.368627.59578-.831432 1.159264-1.6884 1.793801-2.48924 1.514276-1.911143 3.24247-3.614207 5.16546-5.117914.048635-.038051.107149-.063587.161104-.094812.123107-.088996.246215-.178119.36945-.267115l-.005193-.002275z" fill="#FED56C"/>
    <path d="M71.098457 53.904526c-.035717-.047785-.107023-.099615-.102337-.142976.095244-.871885.097017-.871758-.757264-.872896-.168324-.000127-.336647.003919-.504843-.000759-.523462-.014158-1.048063-.055116-1.460069.381521-.075612.080147-.22975.086595-.347665.126921.30283-.758996.610726-1.516096.907476-2.27762.811346-2.082184 1.315303-4.243882 1.659675-6.446286.090685-.07724.19606-.142596.269773-.233615.34298-.424502.712176-.751917 1.329615-.662794.335886.048543.752831-.127553 1.012346.015802.241909.133747.323347.556353.477232.850773.008613.016434.033817.024272.051295.036029-.163384.866701-.398074 1.727335-.474826 2.601622-.141473 1.609265-.711036 3.094389-1.211953 4.59974-.230257.692249-.56247 1.350745-.848455 2.024538" fill="#FECC49"/>
    <path d="M24.207943 51.372027c-.711542 2.371041-1.418779 4.743347-2.13564 7.112745-.80818 2.671657-1.624846 5.340659-2.474948 8.13241-.480019-.392899-.926728-.720314-1.316442-1.105248-.094104-.092915-.039516-.388347.014945-.570258.560824-1.870059 1.13596-3.735693 1.70641-5.602843.760685-2.488987 1.519849-4.978353 2.282813-7.466708.06738-.21971.157431-.43234.236843-.648383.205433-.114153.421378-.212883.61364-.345872.380721-.26307.66088-.177487.843262.25852.039263.093926.150845.157892.229117.235637" fill="#FECA43"/>
    <path d="M12.171539 46.073022c.2048-.584796.632637-.689089 1.208786-.655968.877713.050313 1.762391.04867 2.640357.000632.587802-.031983 1.061615.027053 1.270847.661151-.252295.77543-.518901 1.546436-.753211 2.327176-.313596 1.044568-.601354 2.096847-.901524 3.145334-.218985.765443-.440123 1.530001-.660374 2.295066-.046989.009734-.094104.019468-.141093.029201-.376163-.835098-.766637-1.664128-1.125448-2.506684-.725221-1.702685-1.241843-3.468072-1.53834-5.295908" fill="#FECC4B"/>
    <path d="M10.286141 37.719133c-.0708-.036534-.19948-.067379-.203533-.110234-.061427-.64143-.49889-.683526-.997907-.650785-.208726.013653-.419099.005942-.628585.001644-.436323-.009355-.76119.158398-.977009.551675-.07232.131851-.216578.224387-.327907.334874.261034-1.70812.469633-3.426481.80248-5.12057.199733-1.015745.593627-1.993566.90013-2.988453.268254-.120347.53638-.240694.804507-.361168.22899.50073.45798 1.00146.746626 1.632778.300296-.778844.538026-1.395497.775629-2.01215.221011-.024018.442023-.048163.751312-.081916.012159.17559.014185.358766.040403.538528.02153.146894.071686.289743.109175.434362-.446708 1.637708-.93002 3.266566-1.326068 4.91641-.229117.954307-.317521 1.942241-.469253 2.915005" fill="#FED15C"/>
    <path d="M33.839782 44.925906c-.262554-.139562-.524981-.279124-.751818-.399724-.120068.2077-.248242.429432-.376416.651037-.31347-.971879-.638843-1.940092-.938127-2.91627-.735733-2.399105-1.459688-4.801624-2.186682-7.203384-.023938-.07901-.02951-.163581-.043696-.245625.02799-.05853.055981-.11706.083845-.17559-.061934-.000127-.123994-.00038-.185928-.000633-.259134.732955-.520548 1.465278-.776263 2.199497-.101703.291892-.190868.58821-.285858.882503-.075866-.125024-.153505-.249037-.227344-.375326-.095624-.163455-.206826-.475068-.278513-.465966-.22139.028317-.500283.125278-.62301.293157-.216833.296696-.319422.673792-.499525 1.000954-.13324.241959-.313722.458002-.473052.68555.423784-1.390314.847569-2.780627 1.27148-4.171067.301563-.374441.578049-.773154.910896-1.117509.447595-.462932 1.079979-.373683 1.483879.127047.158697.196702.402253.325393.60718.485181.80324 2.578742 1.611292 5.155966 2.407313 7.736983.308023.99868.588562 2.005829.881639 3.009185" fill="#FED058"/>
    <path d="M9.658317 29.376104c-.268127.120473-.536253.24082-.804507.361168.265087-.728025.501677-1.467932.800707-2.181798.814006-1.943253 1.77037-3.8123 3.017153-5.521432.981696-.54485 2.05357-.336897 3.096566-.368627.10373-.003287.208472.004425.311569.01694.037236.00455.0708.038683.141219.08002-.07308.30049-.149072.612229-.224938.923968-.640996.95848-1.316822 1.8961-1.910576 2.882897-.396048.658243-.681906 1.383486-1.004494 2.084458-.340952.741045-.66696 1.489043-.999554 2.234008-.03749-.14462-.087644-.287468-.109049-.434363-.026344-.179762-.02837-.362937-.04053-.538528-.309288.033753-.5303.057898-.751184.081917l.759164-1.896606c.489138-.850141.989168-1.694341 1.459308-2.554722.10107-.185325.195807-.560778.118422-.619687-.193908-.147526-.495977-.237787-.73966-.211366-.223671.024145-.517508.178877-.625038.365466-.522068.90589-.991828 1.841868-1.48008 2.767226-.35843.784406-.718634 1.567927-1.070226 2.355366-.018491.041465.035463.115038.055728.173695" fill="#FED363"/>
    <path d="M73.581079 35.823767c-.083212-.147148-.184662-.286963-.246342-.442453-.190361-.480251-.392374-.573672-.905957-.496053-.369196.055875-.749538.04475-1.125068.050945-.642263.01062-.638083.00708-.729654.63195-.013552.091777-.089164.174452-.136153.261426-.237603-1.037236-.421631-2.090527-.725981-3.107915-.425684-1.42394-.94104-2.82108-1.418146-4.229723.301817-.042602.463808.1139.578683.374189.133493.302132.292824.592886.440883.888698.237983.771385.475966 1.54277.713949 2.31428.106769.345493.213538.691112.354631 1.14785.553605-.825617 1.24805-1.459842.69457-2.470025-.167942-.306303-.248874-.66014-.369576-.992105-.306376-.866955-.627317-1.729359-.907603-2.604657-.058387-.18229.032804-.41224.055221-.620192.206067.049175.427711.066115.614273.15587.218098.105177.405673.273688.606546.414767.939013 1.936048 1.559618 3.98018 2.031278 6.0702.197454.875425.318661 1.768042.474446 2.652948" fill="#FED15D"/>
    <path d="M17.007584 39.100686c-.015452.292904-.190868.3819-.460768.389864-1.23019.03666-2.460002.09064-3.690193.121359-.750678.018836-.889871.12553-1.044642.86038-.030017.14247-.123108.27154-.187195.406805.026217-1.004368-.024064-2.018091.096637-3.011082.176302-1.450486.4614-2.888585.730034-4.32643.087771-.469885.26876-.92245.407193-1.38298.107529-.108591.209106-.224135.32436-.324003.128048-.110866.26876-.20732.404027-.310096-.051041.223123-.091064.449406-.155024.66861-.198467.679986-.385282 1.364524-.618452 2.032754-.120448.345113-.054841.560777.26496.713234.50345.605908.974477 1.24266 1.51795 1.810264.775882.810321 1.604833 1.56995 2.411113 2.351321" fill="#FED058"/>
    <path d="M71.07533 27.100632c-.200874-.14108-.388322-.30959-.606547-.414768-.186561-.089755-.408206-.106694-.614272-.15587-.022291.207953-.113608.437902-.055221.620193.280412.875298.601227 1.737702.907603 2.604656-.464567-.070286-.929134-.39176-1.393575 0-.148058-.29581-.30739-.586566-.440882-.888698-.114876-.260288-.276866-.416917-.578683-.374188-.404153-.803495-.816412-1.602944-1.20486-2.413897-.06586-.137413-.077512-.337907-.033183-.484928.36223-1.201702.743586-2.397715 1.15939-3.72381.292192.450165.551073.79098.748653 1.164284.715089 1.349734 1.409407 2.710466 2.111577 4.067026" fill="#FED466"/>
    <path d="M24.207943 51.372027c-.078272-.077746-.189854-.141711-.229117-.235638-.182382-.436006-.46254-.521589-.843263-.258519-.19226.132989-.408206.23172-.613639.345872.316509-1.088181.621618-2.179776.952186-3.263659.502183-1.646556 1.021971-3.287677 1.534413-4.931073.120575-.130208.268127-.244487.356912-.393657.351971-.591496.79678-.664564 1.30555-.203528.056614.051324.149071.063081.22481.093294-.745105 2.491515-1.488185 4.983663-2.236837 7.474166-.138686.461036-.30017.915246-.451015 1.372742" fill="#FECD4D"/>
    <path d="M63.99828 36.964284c-.119688.02857-.25622.030592-.354504.092788-.102337.064725-.167943.1876-.249509.28494.564244-1.824296 1.127348-3.648845 1.692732-5.472889.407446-1.314337.817552-2.627664 1.349372-3.960711.23127.508315.471913 1.012711.692165 1.52583.924448 2.153734 1.520608 4.40152 1.908803 6.707585.024191.143481.009626.29341.013172.440304-.078779-.023893-.192387-.022755-.23089-.075723-.303717-.419192-.697484-.462047-1.149133-.303017-.043949-.21086-.08777-.42172-.131593-.632581-.042303-.245498-.063327-.496938-.130454-.735357-.32778-1.16226-.661514-2.32275-1.011966-3.478184-.043062-.141838-.199607-.249291-.390348-.475953-.259134.820307-.478119 1.488537-.680765 2.161445-.240263.797932-.466467 1.599783-.69875 2.39999-.20936.507178-.418972 1.014355-.628332 1.521533" fill="#FED260"/>
    <path d="M53.982224 56.175977c-.116649-.0335-.257995-.035775-.34564-.10543-.504462-.399977-.613385-.373304-.788167.217687-.027738.0938-.086378.178498-.130707.267368-.03901-.072057-.091445-.139942-.115129-.216676-.500157-1.620515-1.00386-3.239766-1.492111-4.86382-.325375-1.082872-.627571-2.17295-.940154-3.25974.131467-.199862.26306-.399725.434044-.659381.1378.057772.29295.144619.459374.185072.118928.028822.253055-.004678.380469-.01024.04319-.009355.086505-.018836.129567-.02819.020898.000252.04319.005309.062694-.000127.297637-.081917.608573-.259783.888478-.220215.253942.036028.474066.308958.709263.477343-.221011.741172-.477613 1.474253-.648216 2.226802-.088277.388727-.115888.83712-.012158 1.215102.37287 1.359215.815399 2.699342 1.226644 4.04819.072826.23842.121715.483918.181749.726255" fill="#FECB47"/>
    <path d="M45.25163 32.156313h.378316c.43265 1.3266.8653 2.6532 1.29795 3.979674.046356.002149.092585.004045.138813.006067.239376-.744837.475206-1.490813.718889-2.234386.20556-.627272.419858-1.251636.630357-1.87739.061934 0 .123741-.00076.185548 0 .621492.009354.61326.008975.584129.623984-.00608.126794.074979.257887.116015.386957-.378822 1.195128-.759925 2.389498-1.132667 3.586649-.044456.143102-.093978.316796-.053322.449405.416312 1.355297.850862 2.704904 1.280346 4.056155-.339686-.322105-.679372-.644211-1.056675-1.002092-.079918.500224-.150971.945205-.22215 1.390187-.30169-.935725-.616806-1.867404-.902158-2.808059-.662274-2.183315-1.309856-4.371181-1.963391-6.557151" fill="#FED058"/>
    <path d="M61.459398 21.789845c-.295357.977063-.580455 1.957285-.888351 2.930429-.452282 1.429122-.920775 2.853189-1.382556 4.279404-.13172-.279504-.263314-.559134-.401747-.85267-.438603-.149044-.70103.045762-.891264.479871-.086505.197587-.316382.332725-.481159.49618.333607-1.098674.658348-2.200129 1.0031-3.295263.464314-1.474379.94408-2.943828 1.417133-4.4153.15971-.142975.298903-.32792.484325-.417928.22405-.10859.497623-.20555.729147-.170913.118548.017824.20366.328806.282692.516153.060287.142722.087011.299477.12868.450038" fill="#FED363"/>
    <path d="M57.414258 29.12302c.164903-.163454.394654-.298465.481285-.496052.190234-.434236.452535-.629042.891265-.479998.138433.293662.270026.573166.401746.85267-.44025 1.45668-.871126 2.91627-1.324168 4.368905-.297257.953423-.62681 1.896859-.9418 2.84472a1472.523093 1472.523093 0 0 0-.247861-.849005c-.66734-.07901-.662528-.07471-1.096445.418814-.073206.083307-.208472.112383-.314862.166488.444303-1.439868.884299-2.881253 1.33506-4.319098.262935-.838638.543347-1.67184.81578-2.507443" fill="#FED15C"/>
    <path d="M55.263368 35.949562c.106516-.054105.241656-.08318.314862-.166488.433917-.493525.429104-.497823 1.09657-.418814.082452.282538.165157.565834.247863.849004-.377303 1.243672-.748146 2.489366-1.133934 3.73051-.255082.82094-.531567 1.635179-.798427 2.452579-.145653-.194806-.291178-.389612-.469254-.62803-.385788.119462-.787788.243854-1.189915.368373.218225-.744458.424291-1.492836.657461-2.23249.416186-1.321038.848963-2.636766 1.274774-3.954644" fill="#FECF54"/>
    <path d="M61.459398 21.789845c-.041669-.15056-.068393-.307315-.12868-.450037-.079032-.187347-.164144-.498329-.282692-.516153-.231524-.034638-.505096.062322-.729147.170913-.185422.090008-.324615.274953-.484326.417928.660375-2.142609 1.32075-4.285092 2.017726-6.546279.474953.405666.878726.725117 1.24615 1.082113.092837.090134.13134.319198.089544.451682-.565257 1.800024-1.149259 3.594107-1.728575 5.389833" fill="#FED66D"/>
    <path d="M48.117178 41.52146c.07118-.444982.142233-.889963.222151-1.390187.377303.35788.716989.679986 1.056675 1.002218l2.04825 6.597351c-.127414.005562-.261541.039063-.38047.01024-.16655-.040453-.321574-.127426-.459373-.185198-.170983.259783-.302577.459645-.434044.659507-.184661-.55117-.383255-1.098041-.551452-1.654268-.506996-1.677907-1.002087-3.35948-1.501737-5.039664m5.213968.615225c.402127-.124393.804127-.248912 1.189915-.368374.178075.238419.323601.433225.469253.62803-.443416 1.362881-.891138 2.724372-1.328221 4.089402-.155784.487077-.286111.982372-.427964 1.474-.23507-.168511-.455195-.441441-.709136-.477343-.279906-.039695-.590841.138171-.888605.220088-.019378.005436-.04167.00038-.062567.000127l1.757325-5.56593z" fill="#FECD4D"/>
    <path d="M30.550855 34.179688c-.204927-.159662-.448482-.288353-.60718-.485181-.4039-.50073-1.036283-.589853-1.483879-.126921-.332974.344228-.609333.742941-.911023 1.11751.254575-.863163.535747-1.719625.750552-2.592395.085618-.3484.10335-.75255.016085-1.097157-.276992-1.094754-.617945-2.173202-.9342-3.258096.07612-.28317.152365-.566466.235957-.8777.516622.06068.591727.51413.79526.843694.11095.17951.224938.357502.337533.536127.165284.518049.338167 1.033822.494711 1.554526.438983 1.460727.871254 2.923602 1.306184 4.385593" fill="#FED15D"/>
    <path d="M26.895758 42.525069c-.07574-.030087-.168197-.04197-.224811-.093295-.50877-.461035-.953579-.387841-1.30555.203655-.088658.14917-.236337.26345-.356912.393657.422898-1.391072.845923-2.782017 1.268947-4.172963.159331-.227673.339687-.443717.473053-.685675.179976-.327036.282566-.704259.499524-1.000828.122728-.16788.40162-.26484.623011-.293157.07156-.009102.182889.302511.278513.465966.073839.126162.151478.250302.227344.375326-.494331 1.602438-.988788 3.204876-1.48312 4.807314" fill="#FECF56"/>
    <path d="M19.065839 40.261746c-.134127-.29202-.235703-.60616-.415172-.867082-.097397-.141585-.327274-.192403-.49737-.284054.25128-.851659.504336-1.702812.753084-2.555229.132354-.453324.257108-.908671.385282-1.36326.294217-.885158.588308-1.770443.882399-2.655602.254448-.041085.508896-.08217.698497-.112636.173896.193921.307263.342712.44063.491502-.33728 1.092606-.677093 2.18458-1.011333 3.278196-.414286 1.355297-.824265 2.711983-1.236017 4.068165" fill="#FED058"/>
    <path d="M21.31315 32.91536a2761.869226 2761.869226 0 0 0-.440629-.491502c-.189601.030592-.443923.07155-.69837.112636l.130073-1.010942c.091064-.13855.221265-.265471.266987-.417675.299537-.995772.580835-1.99698.868087-2.99629a6131.42647 6131.42647 0 0 0 .506236-1.390567c.12792-.111245.261668-.216802.382496-.335253.154138-.151445.298143-.313256.446455-.470643.055348.034132.11057.068264.16579.10227-.016085.153089-.050408.306936-.044709.45914.012666.335758.045343.670632.069787 1.005884-.44025 1.499789-.877713 3.000336-1.323409 4.498481-.093977.316165-.218351.623227-.328793.93446m27.988445.125797c-.040909-.12907-.122094-.260036-.116015-.386957.02913-.614883.03749-.61463-.584002-.623859-.061934-.000885-.12374-.000126-.185548-.000126l.379962-1.516981c.29561-.927002.591095-1.854004.886705-2.781006.317522-.418307.63479-.836615.996008-1.312441.223164.44536.13628.816262.084985 1.196013-.027358.202264.041669.417549.067126.626892-.509782 1.599404-1.019565 3.198934-1.52922 4.798464" fill="#FED260"/>
    <path d="M13.587 31.52454c-.135267.10265-.275853.199231-.404027.310097-.115255.099742-.216705.215411-.324361.324002.374136-1.042292.695077-2.107592 1.13444-3.12182.740673-1.709512 1.57545-3.375916 2.74434-4.848525.369957.000632.507883.111372.257741.469126-.112088.16042-.163637.362938-.242669.546366-.081945.14462-.164903.28848-.245455.43373-.340826.61362-.680893 1.227744-1.021339 1.841616l-1.644856 3.54076-.253815.504649zm9.378403-4.042134c-.024444-.335253-.057247-.670127-.069786-1.005885-.0057-.152204.028497-.306051.044709-.45914-.055221-.034005-.11057-.068138-.16579-.102143-.148439.15726-.292318.319071-.446582.470517-.120828.11845-.254448.224007-.38237.335252.126528-.421467.253056-.842935.379456-1.264403.250902-.645855.501804-1.29171.772084-1.987372h.459627c.157811.275332.286238.499213.414539.723094l-1.005887 3.29008z" fill="#FED365"/>
    <path d="M48.117178 41.52146c.49965 1.680182.994741 3.361756 1.501737 5.039663.168197.556227.36679 1.103098.551452 1.654268.312582 1.08679.614652 2.176742.940153 3.25974.488125 1.624055.991955 3.243306 1.492112 4.86382.023684.076608.076119.144493.115128.216676.453042 1.528485.90659 3.056717 1.359125 4.585328.058768.198725.111962.39884.16617.592634-.049142.044372-.077385.092284-.10601.09241-1.43195.010492-2.8658.06523-4.295345.00986-1.401427-.054105-2.594129-1.063783-3.011834-2.405679-.324488-1.042419-.649862-2.084332-.974856-3.126372-.119562-.422858-.22975-.848498-.360331-1.267943-.629724-2.022894-1.264894-4.044019-1.898291-6.065902-.64011-2.106581-1.280093-4.213289-1.920076-6.319996-.719775-2.35979-1.43955-4.719708-2.159072-7.079498-.15857-.542448-.309669-1.08717-.477105-1.62671-.590715-1.902673-1.187002-3.803577-1.78101-5.705113-.079665-.302132-.148438-.60755-.24077-.905638-.637702-2.05867-1.280345-4.115822-1.921341-6.173607-.127541-.47886-.255082-.957721-.40618-1.525325h1.20068c.820592 0 1.644857.050313 2.460762-.010871 1.57013-.117566 2.715463.540803 3.578484 1.79383 1.03261 3.409036 2.064208 6.818198 3.100492 10.226096.053828.176981.146032.342332.220378.513119.653535 2.18597 1.301117 4.373836 1.963391 6.557277.285352.940655.600467 1.872208.902157 2.807932m-17.566323-7.341771c-.43493-1.46199-.8672-2.924866-1.306184-4.385593-.156544-.520703-.329427-1.036477-.49471-1.554526-.432524-1.356308-.872014-2.710593-1.294405-4.07006-.198594-.639155-.354758-1.291457-.547779-1.932508-.198847-.660266-.419098-1.314211-.629977-1.970938a3409.199 3409.199 0 0 1-.03977-.632075h1.283133c.77677 0 1.556072.040579 2.329801-.008344 1.611547-.10189 2.793102.553446 3.610148 1.917212.30283 1.02333.594767 2.050073.911276 3.069232.403013 1.297777.826038 2.58936 1.24045 3.883598.303843 1.043936.595527 2.091664.914315 3.130923.40428 1.318256.830471 2.62994 1.247163 3.944403l2.247856 7.347498c.222025.764685.433537 1.53253.668354 2.293297.413145 1.339747.840603 2.675322 1.262108 4.012541.339432 1.168455.665313 2.341208 1.021844 3.504353.405294 1.322302.838197 2.636008 1.258942 3.953506.49471 1.688652.989421 3.377052 1.500217 5.120949-.173262.01871-.32778.049049-.482425.049554-1.20068.00392-2.401614.00809-3.602295.000633-1.61218-.009987-2.85567-.922704-3.355953-2.467117-.387054-1.195255-.758658-2.39544-1.137227-3.593476-.394147-1.344677-.778289-2.692641-1.184975-4.033653-.656195-2.163847-1.326828-4.32327-1.993282-6.483956-.03673-.11921-.091444-.232983-.137673-.349285-.293077-1.00323-.573742-2.01038-.881639-3.009185-.79602-2.58089-1.604073-5.158242-2.407313-7.736983" fill="#FEFEFD"/>
    <path d="M44.233445 56.682257c-.420745-1.317498-.853648-2.631204-1.258941-3.953505-.356531-1.163272-.682412-2.335899-1.021845-3.504353.07004-.312878.140206-.625755.210499-.940402.700397-.130587.691784-.124772 1.057688.407941.083338.121359.248242.186842.37553.278113.633396 2.021757 1.268566 4.043008 1.89829 6.065902.13058.41932.24077.844959.360331 1.267817-.15895-.078756-.316382-.160673-.477232-.23551-.245583-.114407-.493445-.224009-.76993-.348907-.153252.39429-.26382.678597-.37439.962904" fill="#FECB47"/>
    <path d="M35.612876 28.495648c-.414413-1.294238-.837437-2.58582-1.24045-3.883598-.316509-1.019159-.608446-2.045776-.911403-3.069232.374516-.42387-.144259-.690985-.221645-1.084389.580456-.071424 1.127981-.23766 1.460195.443338.059274.121485.261414.173568.39744.257634.640997 2.057785 1.28364 4.114937 1.921343 6.173607.09233.298087.161104.603506.24077.905638-.373757.058025-.376417-.313383-.563865-.46546-.184028-.149423-.467733-.27685-.690898-.253589-.295357.030972-.240769.288226-.176935.538655.030523.119968-.136787.289996-.214552.437396" fill="#FED365"/>
    <path d="M49.682673 27.732215c-.29561.927001-.591095 1.854003-.886705 2.781005-1.198908-.371534-2.432518-.407056-3.672841-.379245-.290418-.932311-.60262-1.858681-.862261-2.799462-.13362-.484929.112975-.77088.626177-.730806.728008.056887 1.450696.17951 2.175917.271792.600087.076482 1.19954.198346 1.801021.209091.486605.008723.76537.153341.818692.647625" fill="#FED56C"/>
    <path d="M45.123127 30.133975c1.240323-.027811 2.473934.007711 3.67284.379245l-.379961 1.516981c-.2105.625755-.424798 1.250246-.630484 1.877517-.243556.743447-.479512 1.489423-.718762 2.234387a1160.281323 1160.281323 0 0 1-.138813-.006068c-.43265-1.3266-.8653-2.6532-1.29795-3.979673-.111963-.4355-.225318-.870621-.33538-1.3065-.060035-.237914-.114496-.477217-.17149-.71589" fill="#FED877"/>
    <path d="M67.538908 35.570747c.043822.21086.087644.42172.131593.63258-.065353.211367-.07004.477976-.20518.625376-1.253621 1.366548-2.67506 2.546506-4.171098 3.638859-.064973.047532-.152238.064977-.344119.143355.218098-.727393.416945-1.370214.603127-2.0167.156038-.541057.297257-1.086412.445062-1.629997.20936-.507177.418972-1.014354.628331-1.521532.970803.042729 1.94148.085457 2.912284.128059" fill="#FEDB82"/>
    <path d="M22.325078 25.456616l-.379582 1.264404c-.168703.463438-.337406.927002-.506236 1.39044-.402507-.087606-.80134-.202896-1.208406-.257887-1.574184-.21301-3.146087-.469-4.745095-.374441.34032-.613872.680512-1.227997 1.021212-1.841616.080678-.14525.16351-.28911.245455-.43373.76689-.626387 1.604454-.444349 2.475707-.276722.8154.157007 1.656509.177486 2.482673.285698.211893.027811.40998.159788.614272.243854" fill="#FED56C"/>
    <path d="M19.291688 35.192184c-.128174.454462-.253055.909936-.385281 1.36326-.248749.852291-.501804 1.703444-.753085 2.555102a1486.51643 1486.51643 0 0 1-.219872.563685c-.345892-.214273-.635803-.39391-.925841-.573545-.80628-.781372-1.63523-1.541-2.411114-2.35132-.543472-.567605-1.014625-1.204357-1.517949-1.810265.140207-.482526.53942-.248785.795515-.233615 1.60496.094685 3.20764.231213 4.810448.362306.20442.01656.404913.081664.60718.124392" fill="#FEDE8C"/>
    <path d="M11.939812 27.10014l-.759164 1.896605c-.23773.616653-.47546 1.233305-.775756 2.012149a19782.564554 19782.564554 0 0 0-.746626-1.632778c-.020138-.058656-.07422-.13223-.055728-.173694.351719-.78744.711923-1.57096 1.070227-2.355366.123108-.019341.253182-.019468.36793-.061185.391361-.14247.698877-.074332.899117.314268" fill="#FED876"/>
    <path d="M11.939812 27.10014c-.20024-.3886-.507756-.456739-.899117-.314269-.114748.041717-.244822.041843-.36793.061185.488378-.925358.958138-1.861336 1.480206-2.767353.107403-.186462.401367-.341194.625038-.36534.243556-.02642.545626.06384.73966.211367.077259.058783-.017352.434362-.118548.619686-.47014.860381-.970044 1.704581-1.459309 2.554723" fill="#FED56C"/>
    <path d="M69.313306 29.754793c.46444-.39176.929007-.07016 1.393574 0 .120702.331966.20176.685802.369577.992106.553478 1.010183-.14084 1.644407-.694444 2.47015-.14122-.456864-.247989-.802356-.354632-1.147975-.23811-.771385-.476092-1.54277-.714075-2.314281" fill="#FED66D"/>
    <path d="M19.291688 35.192184c-.202266-.042728-.40276-.107832-.60718-.124392-1.602806-.131093-3.205487-.267621-4.810447-.362306-.256095-.01517-.655308-.248911-.795514.233615-.319929-.152456-.385535-.36812-.26496-.713234.23317-.66823.419984-1.352768.618451-2.032754.06396-.219204.103983-.445487.154898-.66861l.253815-.504523c.915455.046268 1.83281.070414 2.745986.144366 1.24083.1005 2.478494.239051 3.717424.361295l-.130074 1.010815a21711.39088 21711.39088 0 0 1-.882399 2.655728" fill="#FEDB82"/>
    <path d="M67.538908 35.570747c-.970804-.042602-1.94148-.08533-2.912284-.128059.232284-.80008.458488-1.602058.698624-2.399864.202773-.673034.421758-1.341138.680765-2.161572.190868.226663.347413.334242.390348.475953.350579 1.155434.684312 2.316051 1.012093 3.478185.067126.23842.088151.489985.130454.735357" fill="#FED877"/>
    <path d="M20.304186 31.52559c-1.23893-.122243-2.476593-.260794-3.717423-.361294-.913303-.073953-1.830531-.098098-2.745987-.144366l1.644983-3.54076c1.599008-.09456 3.170911.161431 4.745095.37444.407066.054991.8059.170282 1.208406.257888-.287251.999437-.568423 2.000645-.868087 2.996417-.045722.152204-.175923.278998-.266987.417675" fill="#FED876"/>
    <path d="M35.612876 28.495648c.077765-.1474.245075-.317428.214552-.437396-.063834-.250429-.118422-.507683.176935-.538655.223165-.02326.50687.104166.690898.253589.187448.152077.190108.523485.563864.46546.594008 1.901536 1.190295 3.80244 1.78101 5.705113.167436.53954.318535 1.084263.477105 1.62671-.122347-.07231-.305743-.115544-.356404-.221732-.240136-.505155-.636437-.448521-.980556-.384555-.164903.24651-.285352.42665-.405926.606792-.416692-1.314464-.842883-2.62602-1.24729-3.944277-.318661-1.039385-.610472-2.087113-.914188-3.13105" fill="#FED15D"/>
    <path d="M37.775088 35.570633a977.124306 977.124306 0 0 1 .405927-.606666c.344245-.064093.740546-.120474.980555.384681.050535.106189.234057.149423.356278.221732.719142 2.360044 1.43841 4.71996 2.157679 7.080004-.295737-.235638-.563357-.527277-.894431-.692755-.406433-.203275-.722561.087859-.679879.538276.013045.13716-.051042.281652-.079792.422732a525901.58599 525901.58599 0 0 0-2.246337-7.348004" fill="#FECF56"/>
    <path d="M40.022197 42.918574c.028751-.14108.092711-.285572.079666-.422733-.042683-.450416.27332-.74155.679752-.538528.331074.165478.59882.457117.894685.692628.639983 2.106708 1.279966 4.213416 1.920075 6.320123-.127287-.091271-.29219-.156755-.37553-.278113-.365903-.532713-.35729-.538528-1.057687-.407942-.070293.314648-.14046.627525-.2105.940402-.421504-1.337345-.848961-2.672794-1.262234-4.012668-.23469-.76064-.446202-1.528484-.668227-2.29317" fill="#FECD4D"/>
  </g>
</svg>
