<svg width="80" height="80" viewBox="0 0 80 80" xmlns="http://www.w3.org/2000/svg">
  <title>
    utk-utrust
  </title>
  <defs>
    <linearGradient x1="85.355%" y1="20.595144%" x2="14.645%" y2="79.404856%" id="a">
      <stop stop-color="#C79DFC" offset="0%"/>
      <stop stop-color="#40BEFD" offset="100%"/>
    </linearGradient>
    <linearGradient x1="85.355%" y1="19.21978%" x2="14.645%" y2="80.78022%" id="b">
      <stop stop-color="#AC9DFC" offset="0%"/>
      <stop stop-color="#40BEFD" offset="100%"/>
    </linearGradient>
    <linearGradient x1="46.278346%" y1="8.42%" x2="50%" y2="118.985%" id="c">
      <stop stop-color="#71B5FF" offset="0%"/>
      <stop stop-color="#84F1E2" offset="100%"/>
    </linearGradient>
    <linearGradient x1="46.62051%" y1="8.42%" x2="50%" y2="118.985%" id="d">
      <stop stop-color="#71B5FF" offset="0%"/>
      <stop stop-color="#84F1E2" offset="100%"/>
    </linearGradient>
  </defs>
  <g fill="none" fill-rule="evenodd">
    <circle fill="#FFF" cx="40" cy="40" r="40"/>
    <g fill-rule="nonzero">
      <path d="M10.69542 58.469881C1.619843 54.508545-4.2974 33.127931 8.422926 14.891314 21.144357-3.345855 38.622962-2.935528 47.906289 5.986177c9.283327 8.922257 11.887667 24.584806.811051 38.793816C37.64128 58.989555 19.771 62.430113 10.69542 58.46988zm2.660848-.886372c8.626287 3.18873 17.988281.520778 31.659265-16.06901 13.67209-16.589787 9.11325-27.89448 2.412656-33.875418-6.700593-5.980939-23.572017-4.773154-36.29234 13.464015C-1.584477 39.339714 4.72998 54.39478 13.356267 57.58351z" fill="url(#a)" opacity=".6" transform="translate(12 10)"/>
      <path d="M28.226445 57.496803c-4.102976 1.586327-7.831246 1.705521-11.297554.960145-2.164231-.210375-4.038867-.686602-5.47303-1.401768-7.530044-3.755992-15.131935-20.173489-2.441668-38.312436C21.705012.604895 38.512623-1.62574 47.774163 7.247365c9.260988 8.874204 10.832211 24.258501.861603 37.489612-5.19725 6.896787-13.032365 10.971363-20.409874 12.759826h.000553zm0 0c5.274623-2.040034 11.17044-6.506248 17.92786-14.681765C59.792944 26.3146 53.49313 13.092278 48.329039 8.35417 39.924127.642246 22.74623 4.449322 10.62355 21.92144c-12.122128 17.472668-5.446502 32.442257 3.159026 35.613813 1.025445.381021 2.076873.689031 3.146315.921695 3.276744.318584 7.216684.028563 11.297001-.960145h.000553z" fill="url(#b)" opacity=".2" style="mix-blend-mode:multiply" transform="translate(12 10)"/>
      <path d="M20.993239 56.621464C5.14721 52.153713-2.078658 35.359129.517455 24.363314 3.113016 13.3675 21.420762 2.394134 35.68501 9.317506c14.263693 6.924467 22.108447 20.750953 18.2093 31.800972-3.89915 11.050019-17.055042 19.97019-32.90107 15.502987zm1.632664-4.47925c13.721684 4.009479 26.146417-1.999537 30.088152-11.838445 3.942288-9.838908-5.69884-21.776455-18.589812-25.831924-12.890972-4.05547-29.903426 1.044665-32.527747 9.890374-2.623767 8.846257 7.308277 23.76997 21.029407 27.779996z" fill="url(#c)" opacity=".8" transform="translate(12 10)"/>
      <path d="M1.109223 30.223824c1.435928 9.011414 10.650737 20.789024 21.99563 24.099452 13.43331 3.919463 24.960432-2.955112 29.638395-11.83143-3.921822 11.07906-20.39914 17.227075-32.08738 12.711758-10.461525-4.04193-19.608554-14.848598-19.546645-24.97978zM8.336492 17.37697c7.823087-6.01896 20.480254-9.208569 29.328382-5.001888 9.363148 4.451614 15.200601 12.585447 16.117304 20.972999-1.821739-7.592896-9.35037-15.445002-18.803521-18.527522-8.737013-2.84967-19.58522-1.368544-26.642165 2.55641z" fill="url(#d)" opacity=".2" style="mix-blend-mode:multiply" transform="translate(12 10)"/>
      <g fill="#2F347C">
        <path d="M37.96903 49.896147h4.06194V33.806239h4.752792V30.13578H33.216238v3.669908h4.752792z"/>
        <path d="M36.874535 54.91633h6.296396c2.451802 0 3.612831-1.160367 3.612831-3.610458V35.246239h-3.71596v15.750275c0 .386973-.129188.51578-.515644.51578h-5.058297c-.38701 0-.515643-.128807-.515643-.51578V35.246239h-3.716515v16.060183c0 2.449542 1.161584 3.610459 3.612832 3.610459v-.00055z"/>
      </g>
    </g>
  </g>
</svg>
