<svg width="80" height="80" viewBox="0 0 80 80" xmlns="http://www.w3.org/2000/svg" xmlns:xlink="http://www.w3.org/1999/xlink">
  <title>
    utnp-universa
  </title>
  <defs>
    <path id="a" d="M0 .036425h50.921971v55.864108H0z"/>
  </defs>
  <g fill="none" fill-rule="evenodd">
    <circle fill="#FFF" cx="40" cy="40" r="40"/>
    <g transform="translate(14 12.063062)">
      <mask id="b" fill="#fff">
        <use xlink:href="#a"/>
      </mask>
      <path d="M18.034429 32.610421c.093812.065052.156452.117371.22659.155865 2.257909 1.24125 4.518876 2.476931 6.772247 3.726437.317246.175958.570372.133983.868282-.03909 1.916101-1.113833 3.840192-2.213741 5.76083-3.319517.33658-.193762.669314-.394188 1.040519-.613215-2.365828-1.30312-4.678289-2.580974-6.998838-3.843709-.129226-.070423-.358874-.078678-.485141-.010046-2.391081 1.300035-4.773679 2.615986-7.18449 3.943275zm-8.734712 3.693414c.080594-.018202.11443-.0185.14067-.032924 2.290659-1.259253 4.58339-2.514529 6.86379-3.792284.138598-.077584.252435-.333811.253422-.50758.014698-2.650104.003946-5.300405.013613-7.950608.001184-.305662-.096081-.473364-.365385-.619282-1.72009-.931809-3.428837-1.884604-5.14439-2.824867-.571063-.313023-1.151003-.609535-1.76172-.931908v16.659453zm-8.35532 4.663219c2.447014-1.34778 4.823299-2.649705 7.186266-3.976.133665-.074999.222446-.34923.222742-.530956.01164-5.652519.007202-11.305236.015882-16.957755.000494-.306558-.097758-.46839-.36578-.614408-2.236403-1.218473-4.46383-2.454153-6.695007-3.682373-.10703-.058984-.225011-.097677-.364102-.15696v25.918452zm40.474567-21.38464c-.160694.061173-.25352.083553-.33362.12901-2.18935 1.242841-4.375445 2.491651-6.567952 3.728823-.324348.18302-.385312.443524-.384226.784796.008582 2.63558-.003453 5.271261.012232 7.906742.002762.473862-.167008.760626-.574613.992484-2.403116 1.36638-4.798933 2.74589-7.187942 4.137335-.63173.368029-1.21887.373897-1.858393.018501-2.358528-1.31038-4.730472-2.595993-7.090184-3.904284-.29288-.16233-.521246-.155865-.810574.00577-2.125724 1.187537-4.260128 2.35936-6.390981 3.537548-.125774.069627-.244544.151986-.399122.248767.135836.084945.228168.149102.326025.202814 4.916913 2.701328 9.836687 5.397485 14.747385 8.110053.395472.21843.697822.211567 1.089151-.010046 4.982513-2.821783 9.97193-5.631133 14.968056-8.428547.351673-.196945.464426-.417862.46344-.814338-.012923-5.354018-.008682-10.708035-.008682-16.062153v-.583275zm-39.962396 22.1761c.139485.084746.23537.147907.335396.203112 7.768573 4.286437 15.538428 8.570287 23.302364 12.86508.292091.161534.498458.113293.764112-.033422 7.724182-4.265449 15.452211-8.523836 23.179056-12.784312.130608-.072114.254211-.15696.412637-.25563-2.411107-1.324406-4.777033-2.613699-7.129347-3.927859-.33224-.185605-.5682-.17536-.89314.008455-4.934078 2.792839-9.884136 5.55703-14.807954 8.368071-.825372.471176-1.49646.480924-2.33219.015418-5.009837-2.790054-10.04414-5.535446-15.077356-8.282729-.183284-.100063-.49254-.163225-.654122-.075893-2.355963 1.272284-4.696735 2.573314-7.099456 3.899709zm16.019623-9.936668c.213371-.10633.357592-.17178.495992-.247972 2.187574-1.203751 4.370414-2.416653 6.565979-3.605485.33372-.180731.447853-.377278.44726-.762614-.012922-8.468334-.009864-16.936668-.009864-25.405002v-.571538c-7.88093 4.34552-15.684423 8.648469-23.524613 12.97151.180818.103346.319416.185108.460282.262692 4.918788 2.71028 9.834813 5.425734 14.7609 8.122388.575205.314913.81965.723325.813632 1.385577-.023477 2.584753-.009568 5.169804-.009568 7.850444zm32.513733 9.141229v-.394586c.000098-8.553776-.003157-17.107453.010752-25.66113.000592-.378174-.175096-.512455-.451108-.66454-7.729509-4.256895-15.45596-8.519659-23.183495-12.780234-.122913-.067737-.254408-.11946-.419246-.19605-.009569.166409-.021603.27801-.021603.389513-.000888 8.553677.000986 17.107453-.00809 25.66113-.000394.313222.11147.46113.37377.604064 2.16459 1.179183 4.320203 2.374877 6.47917 3.564305.122519.06744.250463.124334.429703.212661v-.610032c.000098-2.304256.004242-4.608412-.002565-6.912568-.001677-.604064.155762-1.133528.695454-1.443865 2.45096-1.408952 4.907246-2.808654 7.37093-4.194927.534761-.300889 1.034009.016412 1.068535.633008.008286.148803.002663.298402.002663.447603.000099 5.53664.005623 11.073378-.010752 16.610017-.001283.427212.13692.631816.502799.828562 2.156007 1.159687 4.295837 2.350309 6.441586 3.529193.212385.116675.42911.224995.721497.377876zM25.754664.036425c3.947026 2.183304 7.89277 4.368895 11.841373 6.549215 4.156845 2.295304 8.311323 4.594884 12.480104 6.867709.616045.3359.84737.759133.84589 1.460674-.017953 8.735404-.017263 17.470807-.000888 26.20611.001283.668022-.237835 1.065691-.81156 1.380903-7.978393 4.382323-15.950571 8.776085-23.916929 13.18049-.517596.286167-.950948.295417-1.471898.007062-7.99309-4.4239-15.992396-8.836462-23.99624-13.240767-.507533-.279304-.725245-.643155-.724554-1.22822.010456-8.81816.010357-17.63642.000197-26.454679-.00069-.581485.204197-.952199.715282-1.233293C8.719678 9.128915 16.717405 4.714265 24.716316.301704c.151422-.083553.297714-.176654.446472-.26528h.591877z" fill="#272323" mask="url(#b)"/>
    </g>
    <path d="M55.418984 31.645466v.583276c0 5.354117-.004242 10.708135.008681 16.062153.000987.396575-.111766.617392-.46344.814337-4.996125 2.797414-9.985543 5.606764-14.968055 8.428547-.391329.221613-.69368.228476-1.089151.010046-4.910698-2.712568-9.830472-5.408724-14.747385-8.110053-.097857-.053712-.19019-.117869-.326025-.202814.154578-.096781.273348-.17914.399122-.248767 2.130853-1.178188 4.265257-2.35001 6.39098-3.537549.28933-.161634.517695-.1681.810575-.005769 2.359712 1.308291 4.731656 2.593904 7.090184 3.904284.639522.355397 1.226663.349528 1.858392-.0185 2.388911-1.391446 4.784826-2.770956 7.187844-4.137336.407704-.231858.577474-.518622.574711-.992483-.015783-2.635482-.00365-5.271162-.012232-7.906743-.001085-.341272.059878-.601776.384227-.784795 2.192506-1.237173 4.378601-2.485983 6.567951-3.728825.0801-.045456.172927-.067836.333621-.129009M23.299677 48.366877V31.707424c.610718.322374 1.190757.618885 1.761819.931908 1.715454.940263 3.4243 1.893158 5.144292 2.824867.269402.145918.366568.31362.365385.619282-.009668 2.650203.001085 5.300505-.013614 7.950608-.000986.173769-.114824.429996-.253421.50758-2.2804 1.277855-4.573132 2.53303-6.863693 3.792285-.02624.014423-.060174.014721-.140768.032923" fill="#FD5050"/>
  </g>
</svg>
