<svg width="80" height="80" xmlns="http://www.w3.org/2000/svg">
  <g fill="none" fill-rule="evenodd">
    <circle fill="#00517D" cx="40" cy="40" r="40"/>
    <path d="M35.414461 46.116862c.343195.871793.610734 1.550867.900543 2.286176 2.936526-.983046 5.746757-1.924145 8.519465-2.852477.362719-1.018915.673272-1.891012 1.03538-2.908104-3.52438 1.171206-6.860233 2.279793-10.455388 3.474405m1.849286 4.935904c.919457 2.41202 1.7779 4.663848 2.739151 7.184995 1.219943-3.221803 2.326403-6.144194 3.508823-9.266902-2.172347.724062-4.079289 1.359364-6.247974 2.081907m-2.822433-7.56405c4.06739-1.338998 8.00452-2.645775 11.951107-3.923675.665645-.215516.923117-.659316 1.151913-1.272125 1.679367-4.50031 3.39961-8.986031 5.103382-13.477831.64551-1.70255 1.273328-3.411786 1.927381-5.111296.19768-.513713.455458-1.004325.66473-1.45998 1.514023-.335889 5.61253-.292725 6.760173.083593-2.285524 5.986128-4.569523 11.968913-6.89196 18.052616.927389.221292 1.608287-.3137 2.343791-.503682.778213-.20123 1.527446-.513713 2.406024-.81799.290419.840788.563755 1.633852.894747 2.592885-2.375518.822853-4.654636 1.61227-7.015815 2.429955-.34838.855378-.703778 1.728387-1.172963 2.880747 2.453003-.79732 4.635416-1.506488 6.939244-2.255476.32245.884256.606463 1.663641.921592 2.528139-3.140918 1.087005-6.140897 2.125375-9.151553 3.167392C48.760617 52.956241 46.26582 59.463986 43.760347 66h-7.495983c-1.651606-4.278715-3.304126-8.559559-4.999965-12.952872-3.003945.987303-5.923388 1.946336-8.98438 2.952484a9548.492559 9548.492559 0 0 1-.977113-2.6017c2.975574-1.000069 5.847732-1.965789 8.893776-2.989568-.278522-.803703-.517385-1.493112-.795297-2.294384-2.574113.884256-5.041759 1.731427-7.676884 2.636353a13274.188086 13274.188086 0 0 1-.930744-2.483454c1.186386-.742605 2.499068-.948394 3.705588-1.403137 1.2294-.463254 2.46246-.91526 3.856898-1.432622C24.889519 36.376067 21.444149 27.377268 18 18.381205c.995417-.421914 4.747984-.517969 6.803492-.164753 3.30504 8.302094 6.323019 16.818184 9.637822 25.272265" fill="#FFF"/>
  </g>
</svg>
