<svg width="80" height="80" xmlns="http://www.w3.org/2000/svg" xmlns:xlink="http://www.w3.org/1999/xlink">
  <defs>
    <path id="a" d="M0 37.74088h49.86039V0H0z"/>
  </defs>
  <g fill="none" fill-rule="evenodd">
    <circle fill="#000" cx="40" cy="40" r="40"/>
    <g transform="translate(18 23)">
      <path d="M34.280292 28.470845c2.983117-4.464345 5.861364-8.682673 8.626624-12.974707.68409-1.062035 1.428896-1.44531 2.628571-1.361776 1.323377.092052 2.658117.020966 4.324675.020966C44.586136 22.127793 39.50237 29.81231 34.25724 37.740879c-5.225324-7.891224-10.308441-15.567224-15.601298-23.56 2.091558 0 3.888311-.049793 5.677272.042587.355195.018017.76039.530034 1.011364.904137 2.69578 4.021776 5.36461 8.062225 8.043831 12.095466.235714.354448.49448.693828.891883 1.247776" fill="#FFF"/>
      <path d="M21.130617.026338C17.821526 5.08132 14.70659 9.83951 11.568604 14.633407c3.07013 4.714293 6.10974 9.381741 9.348701 14.355155-2.219805 0-4.08409.04619-5.942857-.039638-.367208-.017362-.812987-.478276-1.049675-.847465-2.669806-4.163949-5.288312-8.36131-7.967857-12.518707-.452598-.702345-.427598-1.193397.021103-1.873793 2.7513-4.174431 5.480195-8.364259 8.16526-12.582587.528896-.830758 1.11461-1.173413 2.093507-1.121 1.50487.080259 3.017532.020966 4.89383.020966" fill="#FFF"/>
      <mask id="b" fill="#fff">
        <use xlink:href="#a"/>
      </mask>
      <path fill="#FFF" mask="url(#b)" d="M0 28.861655h4.991558V.094017H0z"/>
    </g>
  </g>
</svg>
