<svg width="80" height="80" viewBox="0 0 80 80" xmlns="http://www.w3.org/2000/svg">
  <title>
    ven-vechain
  </title>
  <defs>
    <linearGradient x1="0%" y1="50%" y2="50%" id="a">
      <stop stop-color="#A475D3" offset="0%"/>
      <stop stop-color="#00B5FE" offset="64.38337%"/>
      <stop stop-color="#16BADC" offset="100%"/>
    </linearGradient>
  </defs>
  <g fill="none" fill-rule="evenodd">
    <circle fill="#FFF" cx="40" cy="40" r="40"/>
    <path d="M47.915527.332033c-.208902.547334-.359324 1.064334-.59493 1.540667-6.667606 13.466-13.353127 26.923333-20.004507 40.397-.756845 1.533-1.78648 2.572333-3.59155 2.545333-1.735774-.025666-2.717746-1.079666-3.434027-2.536-6.63245-13.481-13.286198-26.952-19.927437-40.428333C-.323797.457367-.090896.0977 1.53502.0677 3.33671.034367 5.146175.142367 6.938738.010033c1.246648-.092 1.795606.449 2.296563 1.454 4.76451 9.563 9.57837 19.102 14.34761 28.662667.75617 1.515667 1.78783 2.568 3.584113 2.578333 1.88552.010667 2.93138-1.134 3.70141-2.689333 4.691154-9.475333 9.41138-18.936667 14.09645-28.414667.599662-1.213666 1.23955-2.108666 2.95065-1.269" transform="translate(16 21)" fill="url(#a)"/>
  </g>
</svg>
