<svg width="80" height="80" viewBox="0 0 80 80" xmlns="http://www.w3.org/2000/svg">
  <title>
    veri-veritaseum
  </title>
  <g fill="none" fill-rule="evenodd">
    <circle fill="#FFF" cx="40" cy="40" r="40"/>
    <g fill-rule="nonzero" fill="#F93">
      <path d="M13 19c3.037.005 6.073.006 9.11.002l5.75 30.043c.088.443.198.882.316 1.318.452-1.745.735-3.53 1.11-5.294 1.748-8.69 3.493-17.38 5.24-26.07 2.936.003 5.873.003 8.81.003l-9.7 42.185H22.7c-3.237-14.053-6.47-28.106-9.7-42.16V19zM46.862 32.253c1.917-2.353 4.98-3.42 7.935-3.607 2.912-.2 6.055.058 8.525 1.758 2.186 1.494 3.384 4.02 3.954 6.532.69 3.15.726 6.387.722 9.594-5.38.002-10.76.003-16.14.002.013 2.37-.14 4.82.673 7.092.394 1.118 1.127 2.23 2.294 2.638 1.242.396 2.74.137 3.646-.842 1.21-1.337 1.462-3.215 1.726-4.93h7.327c-.165 2.848-.704 5.857-2.613 8.096-1.913 2.327-5 3.28-7.92 3.395-3.173.12-6.62-.302-9.15-2.39-2.35-1.92-3.376-4.955-3.783-7.864-.407-3.352-.43-6.743-.24-10.11.258-3.284.866-6.76 3.043-9.364m6.257 3.35c-1.25 1.757-1.28 4.02-1.26 6.09 2.777.002 5.556.002 8.337 0-.13-1.968-.115-4.05-1.023-5.854-1.125-2.224-4.69-2.233-6.05-.236"/>
    </g>
  </g>
</svg>
