<svg width="80" height="80" viewBox="0 0 80 80" xmlns="http://www.w3.org/2000/svg" xmlns:xlink="http://www.w3.org/1999/xlink">
  <title>
    vibe-vibe
  </title>
  <defs>
    <path id="a" d="M.000068 0h54.744014v44.660175H.000068z"/>
  </defs>
  <g fill="none" fill-rule="evenodd">
    <circle fill="#000" cx="40" cy="40" r="40"/>
    <g transform="translate(13 21)">
      <mask id="b" fill="#fff">
        <use xlink:href="#a"/>
      </mask>
      <path d="M45.102806 28.26555c-1.12694.742125-2.39568 1.332-3.678265 1.75725-1.63466.5415-3.34676.84825-5.02595 1.256625l-.15714-.309c1.23208-1.899 2.46378-3.798375 3.69697-5.696625.32252-.4965.71874-.9585.95932-1.491375.41531-.920625 1.02106-.955125 1.79068-.53175.84184.463125 1.74728.84525 2.50269 1.4235 1.47752 1.130625 1.47228 2.5635-.0883 3.591375m-26.67201 3.0525c-1.38024-.276-2.77469-.423375-4.07973-.8475-1.81986-.590625-3.67452-1.207875-5.32789-2.14425-1.96391-1.11225-1.92949-2.816625-.02544-4.021125 1.08878-.6885 2.34405-1.1205 3.54806-1.6095.19868-.08025.64728.057375.76402.235875 1.73381 2.659875 3.432075 5.343 5.13408 8.0235.02619.041625-.00187.118125-.013095.363m32.719383-6.973125c-1.85017-.874875-3.787143-1.571625-5.714762-2.27025-.89347-.323625-1.8468-.48-2.91949-.7485 4.09133-6.28725 8.10371-12.451875 12.228338-18.78975-2.708844 0-5.137823.027375-7.56568-.016875-.738946-.013125-1.171463.220125-1.57891.850875-5.824764 9.022875-11.67796 18.027-17.526295 27.0345-.209894.323625-.44112.63375-.712 1.021125-.24619-.358125-.408574-.582375-.55786-.8145C20.98587 21.547425 15.16223 12.487425 9.36815 3.407925c-.425035-.665625-.882246-.90825-1.658606-.8895-2.11881.05175-4.239864.015375-6.359796.020625-.291463.00075-.58255.039-1.04126.072 3.979083 6.20775 7.864627 12.2685 11.83847 18.468-.448605.102-.779353.177375-1.109727.252-2.80201.633-5.58718 1.33125-8.096976 2.7945-.71874.41925-1.412415.935625-1.990102 1.5315-1.2766 1.317375-1.26013 2.7285.00973 4.061625 1.57854 1.657875 3.64983 2.472 5.75068 3.188625 4.548167 1.5525 9.27667 2.133 14.03099 2.58075.36068.03375.80592.3135 1.01544.615375.905818 1.308 1.73755 2.667375 2.59922 4.006125.95296 1.480875 1.90891 2.9595 2.935953 4.550625.278365-.413625.46993-.691125.654386-.973125 1.60323-2.45775 3.21918-4.90725 4.796596-7.381875.34796-.545625.71949-.819 1.397075-.873375 1.89357-.151875 3.787144-.3495 5.66575-.6315 3.79986-.570375 7.560816-1.342125 10.98129-3.1935.966056-.52275 1.87187-1.252875 2.62017-2.060625.95109-1.026375.94323-2.257875.02245-3.3165-.642414-.738375-1.41279-1.474875-2.279693-1.88475m-8.816464-24.345h-30.14075c5.06711 8.139375 10.063505 16.16475 15.165784 24.36 5.03306-8.187375 9.965475-16.21125 14.974965-24.36" fill="#FFF" mask="url(#b)"/>
    </g>
  </g>
</svg>
