<svg width="80" height="80" viewBox="0 0 80 80" xmlns="http://www.w3.org/2000/svg">
  <title>
    voise-voise
  </title>
  <defs>
    <linearGradient x1="6.120751%" y1="81.541506%" y2="0%" id="a">
      <stop stop-color="#7C00F6" offset="0%"/>
      <stop stop-color="#FB006D" offset="100%"/>
    </linearGradient>
    <linearGradient x1="16.118764%" y1="78.998979%" y2="0%" id="b">
      <stop stop-color="#FF8702" offset="0%"/>
      <stop stop-color="#FF0348" offset="100%"/>
    </linearGradient>
  </defs>
  <g fill="none" fill-rule="evenodd">
    <circle fill="#FFF" cx="40" cy="40" r="40"/>
    <path d="M7.56124 28.349876c-.406164-.026276-.739704.42869-.631788.835862.041004.154552.221952.271034.300084.360207.43962-.042207.930444-.553242.824976-.838138-.060588-.16469-.315588-.346345-.493272-.35793M30.398428 8.05022c-.5355-.013654-1.087116-.120413-1.596504-.29131-1.036728-.348413-1.32192-1.101103-.701352-2.00255.44064-.640346 1.023672-1.19007 1.589976-1.729657.717264-.683172 1.494708-1.30138 2.219928-1.97669.2703-.251792.496332-.56669.6885-.886344.205428-.34221.289068-.73635-.11424-1.00697-.41514-.27869-.705024.03269-.959412.30724-.184212.19882-.320688.4442-.47328.6722-.919428 1.37358-1.944528 2.65696-3.157512 3.77689-.300492.27765-.613224.54827-.94962.77814-.556512.38089-1.0659.39931-1.29336.09269-.224808-.30311-.064872-.75352.45084-1.24386.123624-.11752.268464-.21166.39576-.32525.280704-.25055.567324-.495518.831504-.76303.477768-.483728.590172-.85531.305592-1.040487-.446148-.29007-.704004.1229-.927588.379037-.92208 1.05724-1.821108 2.136-2.702388 3.22862-.209712.260276-.399228.591104-.453084.914276-.07038.42207-.156876.980274.047124 1.28317.531216.788275.437784 1.536827.210528 2.36317-.232968.847037-.023868 1.23331.837012 1.414347.758676.15952 1.54632.177727 2.321112.25738.313752.032278.627708.062278 1.127712.11152-6.204252 10.8747-12.305076 21.567736-18.46404 32.36298-.180948-.251795-.287436-.3749-.366588-.51414-1.47696-2.59717-2.940252-5.202207-4.429656-7.792138-.696252-1.210344-.705636-2.3251.229092-3.42517.279276-.328967.468588-.757243.617304-1.170415.0663-.184965.000816-.52924-.13464-.64469-.11832-.100757-.440028-.03186-.6324.053587-.209304.09269-.371484.29276-.55692.44276-.185232.15-.354552.343036-.565692.43014-.1989.082136-.540396.15062-.644844.046136-.15912-.15931-.240312-.47876-.220932-.71938.020808-.25945.157896-.53276.310284-.753106.350268-.50586.688908-1.03738 1.124856-1.46089.980016-.95193 2.02674-1.8331 3.024096-2.76745.34374-.32213.64872-.69765.914532-1.08848.088332-.12972.073848-.47027-.027336-.56048-.1479-.13241-.438192-.20896-.627912-.15765-.246432.06641-.483888.25076-.671772.439035-.482868.484344-.948192.988137-1.399236 1.503103-1.308252 1.49297-2.562852 3.03704-3.920064 4.48242C.279664 32.53229-.205856 34.200498.39574 36.09753c.38148 1.203725.894132 2.387794 1.5096 3.487656 2.31438 4.135862 4.697712 8.232 7.045548 12.34862.183192.32131.290496.686897.433092 1.031794h.408c.143208-.345103.251736-.710276.43452-1.032 2.79888-4.927655 5.606124-9.850345 8.413572-14.773035 4.72974-8.294068 9.457848-16.589172 14.194524-24.87931.73032-1.278414 1.501236-2.533034 2.253384-3.798414v-.41379c-1.563252-.00186-3.12732.02049-4.689552-.01882" transform="translate(28.912 19.034)" fill="url(#a)"/>
    <path d="M28.814694 20.739455c-.511224.05669-1.088544.706138-1.063452 1.208276.021012.41938.265812.5998.623016.60373.566304-.02751 1.168104-.63269 1.16994-1.13896.001428-.38751-.353124-.71482-.729504-.67303M47.939898-.00006h-.816c-.706248.831517-1.435752 1.644207-2.11344 2.49869-1.020408 1.286896-1.981248 2.62262-3.009816 3.902275-1.695444 2.108897-3.48534 4.134414-5.515752 5.920966-.689316.60641-1.455132 1.12551-2.201772 1.662-.297228.21351-.635664.41896-1.09446-.03994.209916-.26255.40494-.51497.609348-.75972.20706-.24786.391476-.513102.174828-.82986-.219708-.3209-.561816-.409654-.902904-.253034-.366384.168413-.72522.37448-1.046724.619034-.928608.705724-1.897812 1.32083-3.001044 1.717862-1.626696.585726-3.304596.703864-5.011872.701174-7.571052-.011793-15.141696-.005586-22.712544.006-.432684.00062-.865164.107586-1.297848.164897v.2069c.13362.15.29886.28138.396168.45248 2.94984 5.194556 5.877852 10.40214 8.847684 15.585107.74766 1.30469 1.51062 2.632345 2.471664 3.77131 1.23828 1.46752 3.238296 1.63407 4.80216.521587.798048-.567725 1.51062-1.28131 2.182596-2.004828 2.096304-2.256 4.159152-4.54386 6.222204-6.83131.294168-.326278.566916-.694347.753576-1.089726.092208-.19531.053448-.60538-.08568-.72145-.148512-.12393-.543252-.108-.72726.01117-.332316.21497-.623424.52407-.866184.84497-.350472.46345-.586296 1.024966-.971652 1.450966-.776832.859035-1.561416 1.731517-2.455548 2.455035-.856188.692485-1.193808.60166-2.063052-.047584-.048144-.036-.129744-.026064-.298656-.05503-.52224.48993-1.087524 1.027038-1.659744 1.55628-.791112.73117-2.299284.65855-2.83458-.387515-.123828-.242277-.32334-.444-.458592-.68152-1.971048-3.46076-3.938424-6.92338-5.899476-10.38993-.091392-.16138-.115872-.36145-.210936-.67262.505104 0 .90678-.00021 1.30866 0 5.234028.00248 10.467852-.006623 15.70188.01386 1.881492.00745 3.64956-.298966 5.177928-1.514897.40188-.31986.857412-.42207 1.309068-.057517.67422.544346 1.3566.384208 1.976148-.05607.580788-.412964 1.140564-.874964 1.6371-1.387446 1.57182-1.621657 3.101616-3.285106 4.66242-4.91793 2.4123-2.5229 4.845612-5.02552 7.25016-7.55607.587112-.617795 1.124856-1.289795 1.634652-1.97545.41412-.55738.533256-1.188208.137292-1.833104m-11.1996 9.51393c.417792-.011586.842112-.486828.806004-1.04255-.100368-.07469-.259488-.28345-.446352-.313036-.38148-.06062-.889032.455586-.87516.84786.011016.315727.177888.517037.515508.507727" fill="url(#b)" transform="translate(13 12)"/>
  </g>
</svg>
