<svg width="80" height="80" viewBox="0 0 80 80" xmlns="http://www.w3.org/2000/svg">
  <title>
    vrc-vericoin
  </title>
  <g fill="none" fill-rule="evenodd">
    <circle fill="#FFF" cx="40" cy="40" r="32.12"/>
    <path d="M40 0C17.908 0 0 17.908 0 40s17.908 40 40 40 40-17.908 40-40S62.092 0 40 0zm0 26.05c2.123 0 3.844 1.72 3.844 3.844 0 2.123-1.72 3.844-3.843 3.844-2.122 0-3.844-1.72-3.844-3.843S37.876 26.05 40 26.05zm17.418 25.98c-1.555 0-2.957-.935-3.552-2.372-.595-1.437-.266-3.09.833-4.19 1.1-1.1 2.752-1.428 4.19-.833 1.436.595 2.372 1.997 2.372 3.552 0 2.123-1.72 3.843-3.844 3.844zM40 67.96L15.75 20.728h12.675l11.66 23.912L51.49 20.728h12.76L40 67.96z" fill-rule="nonzero" fill="#418BCA"/>
  </g>
</svg>
