<svg width="80" height="80" viewBox="0 0 80 80" xmlns="http://www.w3.org/2000/svg">
  <title>
    vsl-vslice
  </title>
  <g fill="none" fill-rule="evenodd">
    <circle fill="#FFF" cx="40" cy="40" r="40"/>
    <g fill="#0A549A">
      <path d="M67.33792 48.072777H54.78819c-.021487-.34152-.05446-.623-.054595-.904616-.003244-3.67917-.015946-7.35848.012567-11.03751.004595-.60509-.18-.74846-.763784-.74523-4.07608.02396-8.152432.01212-12.228648.01441-.201487.00014-.459865-.04698-.592703.05546-.297432.22898-.717567.52473-.739865.81941-.021892.28808.338784.67214.62554.89291.19946.15346.557568.13448.84527.13704 1.41865.01225 2.83757.00202 4.256352.00714 1.873784.00673 3.561217.53214 5.116622 1.61633 2.58446 1.80183 2.137297 5.57496.194595 7.21633-1.43702 1.2141-3.10797 1.864695-4.94527 1.877618-7.31878.051556-14.63824.02665-21.95743.02867-.08108 0-.16216-.01669-.35432-.03769 1.1027-1.413326 2.13014-2.76621 3.21176-4.074403.1519-.18402.56987-.20717.86487-.207844 5.72014-.012116 11.44054-.00579 17.16068-.01777.5119-.001076 1.05703-.01265 1.52352-.187115.31568-.11819.71716-.527823.72081-.811592.00365-.29373-.37094-.69677-.68189-.862347-.35487-.18887-.82108-.22212-1.24054-.22952-1.48595-.02585-2.97311.01252-4.45878-.01885-2.23338-.047118-4.2-.750618-5.67365-2.502368-2.00378-2.382153-1.39675-5.51573 1.33379-7.02019 1.334597-.73554 2.77946-1.00625 4.28473-1.01029 2.74743-.007265 5.495.00108 8.24257-.00646 3.265-.00875 6.530136-.01521 9.794865-.05263.56689-.00646.733244.175403.730135.72827-.019597 3.477114.00905 6.954633-.02595 10.431614-.006755.67052.20257.81321.8373.80675 4.32284-.04375 8.64608-.04954 12.969323-.064342.28635-.00094.5727.02571.99851.046177-1.47338 11.951278-7.09757 21.28174-17.62581 27.08393-12.65744 6.975635-25.41825 6.400693-37.30906-1.81542C9.05441 60.76284 4.47603 50.00155 5.04738 37.033915c.06-.032577.12-.06502.180136-.097597.738108 1.00598 1.478648 2.01021 2.213783 3.01834 1.41541 1.94075 2.83473 3.87881 4.23406 5.831.21567.301.38797.65571.48986 1.01136 3.17987 11.093115 10.34419 18.261385 21.61135 20.85233 9.63094 2.214554 18.27364-.30356 25.63054-6.902 3.64986-3.273446 6.18797-7.31312 7.73256-11.963138.06878-.20704.11784-.42054.19824-.711444"/>
      <path d="M41.558446 4.999933c1.447567.182942 2.902838.319307 4.34135.557038 6.010542.99333 11.381353 3.43472 16.083785 7.27812 6.62068 5.41113 10.72987 12.3379 12.3273 20.72013.27838 1.46085.38487 2.95414.58365 4.53493-1.40621 0-2.63784 0-3.86959-.00013-.65311 0-1.30675-.01602-1.95905.00593-.38635.01293-.55175-.09692-.58905-.51598-1.1169-12.56756-9.71244-22.60758-22.02514-25.5247-12.72162-3.0139-25.87527 2.99856-31.95 14.70377-.62729 1.20858-1.10878 2.49416-1.61581 3.76075-.08865.22185-.06365.59554.07122.78373 2.40608 3.35785 4.83716 6.69806 7.26419 10.04083.03824.05264.09541.09181.20892.1987.16824-.21067.33541-.40439.48568-.61008 2.25014-3.08296 4.50743-6.16081 6.73635-9.25898.32662-.45419.67581-.62542 1.22906-.6164 1.86541.03029 3.73149.01158 5.75419.01158-.18297.2831-.28419.46254-.40676.6261-3.64838 4.87038-7.29675 9.7409-10.95284 14.60563-.295672.393344-.61892.77471-.9773 1.11098-1.30608 1.22554-2.743642 1.23644-3.983912-.05156-.727974-.755594-1.34581-1.622113-1.969595-2.470594-3.271352-4.45012-6.525136-8.91302-9.797433-13.36246-.28946-.39375-.38702-.74429-.2304-1.22945 4.34674-13.462898 13.44728-21.71293 27.32322-24.6952 1.53041-.32887 3.11514-.40775 4.67473-.602676h3.24325z"/>
    </g>
  </g>
</svg>
