<svg width="78" height="79" viewBox="0 0 78 79" xmlns="http://www.w3.org/2000/svg" xmlns:xlink="http://www.w3.org/1999/xlink">
  <title>
    vtc-vertcoin
  </title>
  <defs>
    <path id="a" d="M0 78.427V.787h77.94v77.64z"/>
  </defs>
  <g fill="none" fill-rule="evenodd">
    <path d="M64.2 10.03l-32.64 46.5 5.423 7.16c.52.586 1.254.94 2.038.974.727.002 1.41-.342 1.84-.924l31.4-44.288c-2.174-3.554-4.893-6.74-8.06-9.422" fill="#FFF"/>
    <path fill="#FF25DA" d="M14.233 33.72L30.62 55.265l7.514-10.714L29.72 33.63H14.31"/>
    <g>
      <mask id="b" fill="#fff">
        <use xlink:href="#a"/>
      </mask>
      <path d="M72.273 19.446v-.007h-.003l-31.412 44.3c-.43.582-1.112.926-1.837.925-.783-.036-1.518-.388-2.037-.976l-5.422-7.16 32.644-46.505C47.802-3.857 23.206-1.865 9.274 14.473-4.664 30.81-2.667 55.31 13.736 69.19 30.14 83.07 54.735 81.08 68.67 64.743c10.872-12.75 12.325-31.005 3.603-45.297" fill="#1B5C2E" mask="url(#b)"/>
    </g>
    <path fill="#FFF" d="M9.815 38.65l3.424-3.79 2.87 3.793M14.234 33.72l.078-.09H29.72l8.415 10.922-7.514 10.714"/>
  </g>
</svg>
