<svg width="80" height="80" viewBox="0 0 80 80" xmlns="http://www.w3.org/2000/svg">
  <title>
    vzt-vezt
  </title>
  <g fill="none" fill-rule="evenodd">
    <circle fill="#FFF" cx="40" cy="40" r="40"/>
    <path d="M25.536884 29.36777c0 .964777-.001796 1.929718.000654 2.89466.00147.545934.483736 1.04041 1.030349 1.063934.734587.031854 1.248537-.478958 1.249517-1.253264.00245-1.796093.001307-3.59186-.00196-5.387791-.000326-.13967-.014698-.282605-.046218-.418517-.131467-.56521-.682163-.924593-1.285446-.847979-.54008.068446-.945426.536623-.94608 1.096606-.001142.950729-.000326 1.901458-.000816 2.85235m29.07516-.017968H54.6109c0-.943705.00588-1.88741-.00245-2.830788-.004083-.468014-.216391-.83295-.640518-1.038941-.411552-.199948-.820817-.164173-1.19693.108304-.359781.260552-.469692.642968-.471325 1.057564-.006533 1.788743-.00588 3.577323-.00147 5.366066.00098.3272.05618.64656.281717.908746.317157.36853.80318.50673 1.242658.352358.470345-.165152.785705-.592817.787991-1.092522.004736-.943541.00147-1.887083.00147-2.830787m-22.345306 3.505446h-.001633c0-2.140774.00147-4.281549-.001143-6.422486-.00049-.49611-.339857-.942725-.801547-1.07537-.483573-.139015-1.009118.048517-1.286262.457233-.161682.238335-.197447.506728-.197447.78574 0 3.422461-.000817 6.844923-.00147 10.267548 0 .774468-.00392 1.5491.002123 2.323732.00294.375718.121832.710923.433436.943705.382155.285382.801546.341903 1.232042.124477.422168-.213342.62288-.570601.622554-1.045475-.00147-2.119702-.000653-4.239403-.000653-6.359104m15.57985-.004574h-.001469c0 2.084743-.00196 4.16965.003266 6.254393.00049.186715.015025.385845.079698.557859.190587.506892.743733.804199 1.257846.705206.559351-.107652.948366-.560146.951305-1.130257.005716-1.077493.002123-2.15515.00196-3.232806-.00049-3.176285-.000327-6.352733-.00245-9.529181-.000326-.51114-.307357-.976213-.768066-1.100853-.557229-.150777-.950326-.02728-1.287243.38748-.186832.230167-.23697.500357-.23648.79162.00343 2.098955.001634 4.197747.001634 6.296539m-2.181388 7.06823c0-1.98575 0-3.9715-.000164-5.95725 0-.18312.006043-.366732-.003756-.5492-.046544-.84994-1.015978-1.343763-1.733907-.887184-.410409.261205-.556085.648684-.555922 1.115881.00147 4.175857.000817 8.351551.000817 12.527409 0 .04917-.00098.098666.002123.147673.046381.751435.711724 1.260124 1.420834 1.08664.54008-.13199.868505-.559819.868995-1.146428.001796-2.112514.000653-4.225027.00098-6.337541m-11.215605-.021563c0 2.119701.003103 4.239403-.002776 6.359104-.001143.407899.152862.731016.476714.959714.382319.270026.799423.29796 1.217998.079717.408775-.213179.5943-.575011.597076-1.020482.008493-1.33102.003757-2.661878.003757-3.9929-.000164-2.908544-.000164-5.816926-.001144-8.725308-.000163-.555082-.321402-1.00676-.816734-1.156883-.734098-.22249-1.472115.331448-1.473421 1.116861-.003756 2.126726-.001307 4.253451-.00147 6.380177m6.767905 7.14321h.002613v-4.036025c0-.78182.00539-1.563639-.00196-2.345295-.0049-.492027-.303764-.914954-.741936-1.08468-.45042-.174464-.918643-.068937-1.256867.289792-.25232.26774-.324178.600005-.324178.955303.001306 4.148577.00245 8.297154.005226 12.44573 0 .112063.010452.225268.028743.33586.0828.498234.428373.860883.897248.948115.509704.094746.985439-.09589 1.219305-.548057.108114-.209096.16315-.468994.16462-.70635.012249-2.084743.007186-4.16965.007186-6.254393m22.780702-7.018243c0 5.184904.000163 10.369809 0 15.554713-.000163 4.06788-2.923978 7.569241-6.931546 8.27608-.544653.096217-1.1058.139996-1.659436.140487-10.261523.008167-20.523046.006697-30.784569.00539-2.411171-.000326-4.499797-.816287-6.197938-2.539851-1.348812-1.369246-2.142356-3.022241-2.346499-4.942158-.046708-.44008-.073491-.884407-.073818-1.326774-.00392-10.20776-.007676-20.41552.000327-30.62328.00196-2.442328.860012-4.547818 2.635238-6.242304 1.339993-1.27891 2.940146-2.042108 4.789353-2.246302.467405-.05162.940527-.07351 1.410872-.073674 10.240455-.004083 20.48091-.007514 30.721366-.00098 3.874467.002614 7.062034 2.557168 8.09957 6.046442.22766.76532.339366 1.55155.338876 2.354116-.00343 5.20614-.001796 10.412118-.001796 15.618095" fill="#00DDB9"/>
  </g>
</svg>
