<svg width="80" height="80" xmlns="http://www.w3.org/2000/svg">
  <g fill="none" fill-rule="evenodd">
    <circle fill="#2AA424" cx="40" cy="40" r="40"/>
    <path d="M18.39938 30.882722c.313987.215017.670642.379768 1.027102.521966.56708.226102 1.160922.388942 1.72063.629952.281407.121365.552146.321666.7552.549106.208292.233748.100461.517188-.20286.58714-.274424.063263-.567079.065556-.851588.065365-.51549-.000573-1.032921-.056382-1.545697-.025993-.438497.025993-.700703.375945-.672582.779795.024437.35645.290328.616956.70788.64467.221478.014716.451878-.012424.670254-.058294.44063-.092506.89057-.172205 1.309866-.327209.677237-.250184 1.18691-.024655 1.655855.437488.56766.559236 1.153551 1.100506 1.71171 1.668533.35743.363713.689454.753229 1.014884 1.145802.631273.761256 1.208048 1.571058 1.885479 2.288928.654933.694171 1.292024.636833 1.89343-.071672 1.000727-1.178485 1.778618-2.4963 2.410667-3.894963.139248-.308286.24029-.680982.205575-1.008382-.083006-.781324-.257551-1.553283-.434424-2.550962-.920242 1.482184-1.699297 2.761583-2.503757 4.02512-.550206.864081-.91171.910716-1.644606.177747-.427249-.427359-.802522-.91282-1.152388-1.405734-1.092849-1.539713-1.233843-3.153966-.33823-4.839317.147587-.277516.276363-.580069.333963-.885488.11423-.60568-.03491-1.008383-.335903-1.090376-.29789-.081037-.711564.169911-.951273.675823-.20286.428122-.307394.900587-.476897 1.345529-.082036.215017-.0896.519863-.557576.518716-.066327-.454307-.13789-.91473-.199757-1.3763-.079903-.595932-.10337-1.204096-.241455-1.786266-.137696-.581597-.500751-1.02826-1.138036-1.181925-.44509-.107413-.732509.042812-.72417.48699.00931.497501.072922 1.014307.23234 1.48333.161357.475714.493188.89256.70206 1.356233.126255.28019.222837.600519.223806.903263.00291.808846-.576387 1.178293-1.29183.788395-.615564-.335426-1.168873-.783617-1.741382-1.1932-.233697-.167045-.428606-.39028-.671224-.540697-.431127-.267386-.760436-.198963-1.004024.162075-.228849.339249-.171055.727618.218957.994812m18.435491 20.2634c-1.279224-.140096-2.562909-.253052-3.833988-.445707-2.07263-.314212-4.150303-.505911-6.248533-.539358-1.786764-.028478-2.076703.141242-2.649406 2.072764-.026958.090785-.02754.188642-.041697.283058-.281988 1.890621-.417552 3.792328-.3776 5.701488.034521 1.653243.124315 3.305147.189867 4.957816.022497.574143-.018812 1.133761-.482715 1.803085-.293237-.557324-.5376-.963276-.726885-1.392928-.545552-1.237352-.738522-2.56931-.919273-3.885215-.137115-.997106-.178424-2.035877.365188-2.980614.110545-.191891.207321-.404806.249212-.619632.127418-.65155.270933-1.305392.318449-1.964587.036072-.499222-.219928-.784191-.589188-.870007-.405334-.094225-.820364.095181-1.041455.514512-.117721.223236-.225551.469024-.257745.714621-.090376.69073-.139055 1.387004-.2048 2.080983-.020946.220751-.012025.450485-.073503.66015-.111322.379769-.417746.484888-.75171.275605-.1344-.084287-.251345-.198963-.366545-.309434-.57154-.547194-.739879-1.252833-.782545-1.998798-.07583-1.332533-.135564-2.665639-.211588-3.998171-.012412-.216928-.02308-.458703-.12451-.640082-.176872-.31555-.993357-.474949-1.436508-.32912-.39137.12901-.730376.61753-.680146 1.055591.036073.313638.114618.629188.222642.926962.470885 1.297174.633213 2.656465.846352 4.005243.019976.12729-.071758.27159-.15263.548341-.406885-.338676-.755006-.564014-1.021673-.860642-1.373673-1.528054-2.657358-3.122047-3.473455-5.024327-.238545-.556369-.672-.739659-1.23772-.716533-.458667.01873-.951855.04759-1.181092.503427-.243588.483932.091928.865802.416776 1.173515.580849.550444 1.160727 1.115604 1.812558 1.576219 1.07423.758771 1.695224 1.81398 2.20257 2.962075.08766.198771.134981.42774.143127.644669.015903.434239-.24068.6397-.682085.564396-.155734-.026758-.316315-.081611-.451685-.161502-.470303-.277324-.955733-.538403-1.388606-.866184-.740267-.560956-1.466376-1.144273-2.156606-1.763331-.400679-.3597-.826376-.497884-1.32674-.372123-.361309.090785-.64097.340587-.713697.70946-.077187.39181.146425.68041.492413.846117.317478.152136.65377.268914.987151.385692 1.755152.615236 3.334012 1.527673 4.727273 2.743427.276363.241201.491248.551017.737745.832928-.367127.448574-.750157.324342-1.130472.286116-.509867-.051413-1.024194-.090785-1.53503-.076259-.142546.003823-.361892.196669-.395055.337338-.032194.13761.084945.381488.213333.46826.261818.176982.562618.330839.869624.403658 1.001891.237188 2.01503.427932 3.021188.647727 1.171394.255918 2.333673.55675 3.274279 1.34228 1.409358 1.177146 2.67229 2.491713 3.700945 4.012123.331055.489665.576.628996 1.010619.542034.435975-.087154.756363-.432901.832775-.9197.098522-.627468.153406-1.262962.284703-1.883167.370037-1.746894.88126-3.455181 1.599613-5.095045.733284-1.674457.854884-3.374525.328533-5.121993-.080485-.267003-.221673-.538402.048097-.876123 1.972751.607973 4.004848.718253 6.071854.368683 2.323394-.392956 5.197964-1.256273 5.965576-1.863672-.534497-.831017-1.300364-1.268314-2.285576-1.37611m11.831273-7.04415c.035103-1.458867-.090957-2.846826-.597915-4.175344-.433067-1.13529-.722618-2.304601-.897552-3.50086-.073503-.50228-.059539-1.016601-.113842-1.522704-.166012-1.544491-.373721-3.08516-.513358-4.631945-.160194-1.772505-.381284-3.531822-.776145-5.27088-.092703-.407673-.314376-.608738-.669091-.722458-.181915-.058293-.380897-.06288-.569018-.105502-1.132024-.256682-1.645382-.858348-1.719467-1.998798-.030836-.473993-.055079-.949324-.111903-1.42045-.094254-.782854-.589382-1.244806-1.311806-1.49824-.619248-.217501-1.254012-.280764-1.90623-.165324-.664824.117734-1.337018.199727-1.996606.339823-1.037576.220368-2.10851.370976-3.089843.743863-1.228412.466922-2.371103 1.14886-3.568097 1.701215-1.172557.54127-1.671951 1.5357-1.958788 2.684942-.153212.613516-.064387.783045.474182 1.08617.391758.22056.808146.407482 1.172364.665694.643103.455454 1.001503 1.07757.896582 1.884314-.044606.343836-.11326.693024-.23486 1.0166-.18114.481639-.143516.914348.077963 1.376874 1.15297 2.405707 2.526448 4.659276 4.578133 6.43828.888824.770621 1.187103 1.711727.982885 2.831345-.142352.780368-.33726 1.55271-.449358 2.3369-.197818 1.385857-.373527 2.80994-.012606 4.164069.609746 2.287781 1.782303 4.26269 3.723443 5.766662 2.395345 1.855836 6.463806.801966 7.491879-2.113474.681503-1.93267 1.172945-3.895727 1.099054-5.910772m.868655-14.009174c1.183806-.116396 2.363539-.276177 3.547345-.392955.670836-.066321 1.122715-.405953 1.478594-.947031.847903-1.288956 1.470255-2.683795 2.067006-4.095836.495321-1.17256 1.016243-2.336519 1.575564-3.48041.346957-.709652.935175-1.21002 1.695224-1.492314.603733-.22419 1.2096-.44284 1.8112-.672955.330279-.126144.660751-.2563.977648-.411304.304097-.148505.3904-.414935.288776-.726662-.109963-.337338-.399515-.427359-.698957-.358362-.306619.070526-.599661.21387-.885528.35129-.260072.125379-.488145.335427-.758303.412833-.175903.050457-.448581-.014908-.58977-.131877-.101042-.083714-.108024-.353393-.061672-.513557.049648-.172204.189285-.335235.326594-.464245.51394-.482403 1.04029-.952 1.567418-1.420833.287418-.255536.610133-.47667.872921-.753802.432873-.45641.233697-1.000929-.394472-1.124587-.571152-.112574-1.017794.08983-1.32771.569174-.242812.375372-.438303.78419-.710981 1.135863-.251152.32396-.539734.64658-.879128.871154-.487757.322621-.863418.095945-.88766-.496928-.03491-.85854-.04034-1.71555.249212-2.547523.08223-.236423.144485-.49712.134788-.743672-.020364-.518143-.470497-.788778-.957867-.596123-.452267.178703-.753067.469597-.740848 1.001884.017648.763932.01726 1.528437.010666 2.29256-.003103.375945.00543.771003-.51103 1.015263-.177067-.216929-.3584-.42583-.524994-.645434-.250764-.330266-.466812-.689775-.743176-.996914-.305066-.339059-.557188-.352437-.837818-.127864-.359758.288218-.412703.63817-.131685.99768.117334.150224.26783.275412.40417.411112 1.55869 1.55099 1.922715 3.751618.938473 5.699768-1.037382 2.05327-2.021043 4.126607-2.524703 6.385146-.01823.081803-.101043.149652-.189867.275031-1.94211-1.151727-4.049649-1.47301-6.292752-1.31686.219346 1.118662.41891 2.136219.609358 3.106758.770133.267385 1.428558-.002102 2.093964-.067468m22.17852 21.283632c-.210617-.260314-.468169-.426594-.819975-.445133-.527515-.027523-1.012945.084286-1.50109.292614-1.331977.56841-2.6752 1.112737-4.025795 1.636805-.322133.124997-.689454.175645-1.038157.186157-.521891.015482-.711564-.280955-.443346-.74004.203443-.348424.488146-.677734.807176-.929065.806206-.63473 1.6576-1.213652 2.478933-1.830226.254643-.191126.483491-.420286.701673-.652314.203055-.216164.174933-.450675.010085-.6957-.526352-.781897-1.149479-.919126-1.85697-.27503-.587636.53458-1.073454 1.17944-1.589915 1.787604-.309721.364478-.548848.796997-.895418 1.119809-.701673.654225-1.488485 1.176-2.54371 1.122484-.13789-.525979.194134-.839426.387104-1.184218.374109-.667986.788751-1.313802 1.170812-1.977775.109964-.190744.19394-.40576.239903-.620204.060121-.28153.09309-.596314-.21411-.769284-.301575-.16972-.647757-.166662-.91229.053707-.240485.200109-.47457.449529-.605091.726088-.173964.367919-.269382.778267-.35394 1.17944-.131878.62422-.235442 1.25207-.610715 1.794868-1.630448 2.35869-3.886933 3.802266-6.798933 4.508095.142546-.238525.215273-.40557.327564-.540696 1.20572-1.451795 2.404266-2.909706 3.632097-4.343154.978036-1.141406 1.992145-2.252805 2.993454-3.374907.532946-.59727 1.09886-1.168355 1.600194-1.79009.296921-.368108.565915-.787822.724752-1.227221.227297-.629188-.178812-1.060178-.859152-1.000737-.095224.00841-.18657.052368-.2816.069379-3.3152.592491-6.358109 1.870935-9.236751 3.561256-1.114958.654416-2.153503 1.407453-3.001212 2.386785-.359758.415508-.734449.833692-.882813 1.483713 1.2608-.476096 2.402716-.916642 3.551807-1.338649 1.130666-.415126 2.240775-.900204 3.505842-1.173133-.037042.211577-.032194.305802-.069624.379004-.898715 1.760846-1.778812 3.53144-2.71457 5.273174-.416776.775781-.803879 1.571822-1.627927 2.090348-.50366.316696-.23331 1.098976.372557 1.249775.153406.038034.32291.051221.479612.032682 1.182837-.139522 2.367613-.26662 3.545213-.441884 1.858133-.276368 3.660994-.206416 5.378715.645434.778472.386075 1.56897.75017 2.368775 1.090949.318837.13589.674522.23241 1.018182.24789.170279.007645.392146-.176792.516655-.331795.165236-.206225.066521-.443604-.136146-.582362-.342303-.23413-.70749-.435576-1.063175-.650594-.343855-.207945-.796897-.284204-.983661-.805597.202473-.109324.377988-.233174.573479-.305228.865745-.31899 1.729163-.048738 2.575709.081802 1.080048.16647 2.149818.41761 3.207951.693023.595976.155195 1.00131-.037078 1.352534-.463099.292654-.35473.253866-.676204-.161746-.848027-.316315-.13073-.682472-.192846-1.027685-.197816-1.033697-.014525-2.068363.034785-3.101866.01529-.377988-.007262-.77537-.084477-1.125237-.223808-.492024-.196096-.530812-.588478-.067103-.831017.534885-.28 1.114182-.506103 1.70046-.655755 1.247613-.318416 2.516753-.554648 3.767662-.861788.46526-.114102.922763-.296437 1.350594-.511645.51646-.25974.568436-.647727.21023-1.090184m-27.225406-28.02542c.18657-.782089.171248-1.572587.070012-2.356205-.06051-.469406-.341721-.814007-1.025746-.938621-.095224.707932-.298084 1.342089-.233115 2.015809.069237.718443.44063 1.12516 1.188849 1.279017m-13.87617 5.193665c.319418-.525788.203055-.927535-.098327-1.23219-.645237-.652315-1.367273-1.215564-2.279758-1.575646-.205188.529229-.16543.960027.221867 1.336929.617115.600327 1.336436 1.050238 2.156218 1.470907" fill="#16570D"/>
    <path d="M18.39938 29.882722c.313987.215017.670642.379768 1.027102.521966.56708.226102 1.160922.388942 1.72063.629952.281407.121365.552146.321666.7552.549106.208292.233747.100461.517188-.20286.58714-.274424.063263-.567079.065556-.851588.065365-.51549-.000573-1.032921-.056382-1.545697-.025993-.438497.025993-.700703.375945-.672582.779795.024437.35645.290328.616956.70788.64467.221478.014716.451878-.012424.670254-.058294.44063-.092506.89057-.172205 1.309866-.327209.677237-.250184 1.18691-.024655 1.655855.437488.56766.559236 1.153551 1.100506 1.71171 1.668533.35743.363713.689454.753229 1.014884 1.145802.631273.761256 1.208048 1.571058 1.885479 2.288928.654933.694171 1.292024.636833 1.89343-.071672 1.000727-1.178485 1.778618-2.4963 2.410667-3.894963.139248-.308286.24029-.680982.205575-1.008382-.083006-.781324-.257551-1.553283-.434424-2.550962-.920242 1.482184-1.699297 2.761583-2.503757 4.02512-.550206.864081-.91171.910716-1.644606.177747-.427249-.427359-.802522-.91282-1.152388-1.405734-1.092849-1.539713-1.233843-3.153966-.33823-4.839317.147587-.277516.276363-.580069.333963-.885489.11423-.605679-.03491-1.008382-.335903-1.090375-.29789-.081038-.711564.169911-.951273.675823-.20286.428122-.307394.900587-.476897 1.345529-.082036.215017-.0896.519863-.557576.518716-.066327-.454307-.13789-.91473-.199757-1.3763-.079903-.595932-.10337-1.204096-.241455-1.786266-.137696-.581598-.500751-1.02826-1.138036-1.181925-.44509-.107413-.732509.042812-.72417.48699.00931.497501.072922 1.014307.23234 1.48333.161357.475714.493188.89256.70206 1.356233.126255.28019.222837.600518.223806.903263.00291.808846-.576387 1.178293-1.29183.788395-.615564-.335426-1.168873-.783617-1.741382-1.1932-.233697-.167045-.428606-.39028-.671224-.540697-.431127-.267386-.760436-.198963-1.004024.162075-.228849.339249-.171055.727618.218957.994812m18.435491 20.2634c-1.279224-.140096-2.562909-.253052-3.833988-.445707-2.07263-.314212-4.150303-.505911-6.248533-.539358-1.786764-.028478-2.076703.141242-2.649406 2.072764-.026958.090785-.02754.188642-.041697.283058-.281988 1.890621-.417552 3.792328-.3776 5.701488.034521 1.653243.124315 3.305147.189867 4.957816.022497.574143-.018812 1.133761-.482715 1.803085-.293237-.557324-.5376-.963276-.726885-1.392928-.545552-1.237352-.738522-2.56931-.919273-3.885215-.137115-.997106-.178424-2.035877.365188-2.980614.110545-.191891.207321-.404806.249212-.619632.127418-.65155.270933-1.305392.318449-1.964587.036072-.499222-.219928-.784191-.589188-.870007-.405334-.094225-.820364.095181-1.041455.514512-.117721.223236-.225551.469024-.257745.714621-.090376.69073-.139055 1.387004-.2048 2.080983-.020946.220751-.012025.450485-.073503.66015-.111322.379769-.417746.484888-.75171.275605-.1344-.084287-.251345-.198963-.366545-.309434-.57154-.547194-.739879-1.252833-.782545-1.998798-.07583-1.332533-.135564-2.665639-.211588-3.998171-.012412-.216928-.02308-.458703-.12451-.640082-.176872-.31555-.993357-.474949-1.436508-.32912-.39137.12901-.730376.61753-.680146 1.055591.036073.313638.114618.629188.222642.926962.470885 1.297174.633213 2.656465.846352 4.005243.019976.12729-.071758.27159-.15263.548341-.406885-.338676-.755006-.564014-1.021673-.860642-1.373673-1.528054-2.657358-3.122047-3.473455-5.024327-.238545-.556369-.672-.739659-1.23772-.716533-.458667.01873-.951855.04759-1.181092.503427-.243588.483932.091928.865802.416776 1.173515.580849.550444 1.160727 1.115604 1.812558 1.576219 1.07423.758771 1.695224 1.81398 2.20257 2.962075.08766.198771.134981.42774.143127.644669.015903.434239-.24068.6397-.682085.564396-.155734-.026758-.316315-.081611-.451685-.161502-.470303-.277324-.955733-.538403-1.388606-.866184-.740267-.560956-1.466376-1.144273-2.156606-1.763331-.400679-.3597-.826376-.497884-1.32674-.372123-.361309.090785-.64097.340587-.713697.70946-.077187.39181.146425.68041.492413.846117.317478.152136.65377.268914.987151.385692 1.755152.615236 3.334012 1.527673 4.727273 2.743427.276363.241201.491248.551017.737745.832928-.367127.448574-.750157.324342-1.130472.286116-.509867-.051413-1.024194-.090785-1.53503-.076259-.142546.003823-.361892.196669-.395055.337338-.032194.13761.084945.381488.213333.46826.261818.176982.562618.330839.869624.403658 1.001891.237188 2.01503.427932 3.021188.647727 1.171394.255918 2.333673.55675 3.274279 1.34228 1.409358 1.177146 2.67229 2.491713 3.700945 4.012123.331055.489665.576.628996 1.010619.542034.435975-.087154.756363-.432901.832775-.9197.098522-.627468.153406-1.262962.284703-1.883167.370037-1.746894.88126-3.455181 1.599613-5.095045.733284-1.674457.854884-3.374525.328533-5.121993-.080485-.267003-.221673-.538402.048097-.876123 1.972751.607973 4.004848.718253 6.071854.368683 2.323394-.392956 5.197964-1.256273 5.965576-1.863672-.534497-.831017-1.300364-1.268314-2.285576-1.37611m11.831273-7.04415c.035103-1.458867-.090957-2.846826-.597915-4.175344-.433067-1.13529-.722618-2.304601-.897552-3.50086-.073503-.50228-.059539-1.016601-.113842-1.522704-.166012-1.544491-.373721-3.08516-.513358-4.631945-.160194-1.772505-.381284-3.531822-.776145-5.27088-.092703-.407673-.314376-.608738-.669091-.722458-.181915-.058293-.380897-.06288-.569018-.105502-1.132024-.256682-1.645382-.858348-1.719467-1.998798-.030836-.473993-.055079-.949324-.111903-1.42045-.094254-.782854-.589382-1.244806-1.311806-1.49824-.619248-.217501-1.254012-.280764-1.90623-.165324-.664824.117734-1.337018.199727-1.996606.339823-1.037576.220368-2.10851.370976-3.089843.743863-1.228412.466922-2.371103 1.14886-3.568097 1.701215-1.172557.54127-1.671951 1.5357-1.958788 2.684942-.153212.613516-.064387.783045.474182 1.08617.391758.22056.808146.407482 1.172364.665694.643103.455454 1.001503 1.07757.896582 1.884314-.044606.343836-.11326.693024-.23486 1.0166-.18114.481639-.143516.914348.077963 1.376874 1.15297 2.405707 2.526448 4.659276 4.578133 6.43828.888824.770621 1.187103 1.711727.982885 2.831345-.142352.780368-.33726 1.55271-.449358 2.3369-.197818 1.385857-.373527 2.80994-.012606 4.164069.609746 2.287781 1.782303 4.26269 3.723443 5.766662 2.395345 1.855836 6.463806.801966 7.491879-2.113474.681503-1.93267 1.172945-3.895727 1.099054-5.910772m.868655-14.009174c1.183806-.116396 2.363539-.276177 3.547345-.392955.670836-.066321 1.122715-.405953 1.478594-.947031.847903-1.288956 1.470255-2.683795 2.067006-4.095836.495321-1.17256 1.016243-2.336519 1.575564-3.48041.346957-.709652.935175-1.21002 1.695224-1.492314.603733-.22419 1.2096-.44284 1.8112-.672955.330279-.126144.660751-.2563.977648-.411304.304097-.148505.3904-.414935.288776-.726662-.109963-.337338-.399515-.427359-.698957-.358362-.306619.070526-.599661.21387-.885528.35129-.260072.125379-.488145.335427-.758303.412833-.175903.050457-.448581-.014908-.58977-.131877-.101042-.083714-.108024-.353393-.061672-.513557.049648-.172204.189285-.335235.326594-.464245.51394-.482403 1.04029-.952 1.567418-1.420833.287418-.255536.610133-.47667.872921-.753802.432873-.45641.233697-1.000929-.394472-1.124587-.571152-.112574-1.017794.08983-1.32771.569174-.242812.375372-.438303.78419-.710981 1.135863-.251152.32396-.539734.64658-.879128.871154-.487757.322621-.863418.095945-.88766-.496928-.03491-.85854-.04034-1.71555.249212-2.547523.08223-.236423.144485-.49712.134788-.743672-.020364-.518143-.470497-.788778-.957867-.596123-.452267.178703-.753067.469597-.740848 1.001884.017648.763932.01726 1.528437.010666 2.29256-.003103.375945.00543.771003-.51103 1.015263-.177067-.216929-.3584-.42583-.524994-.645434-.250764-.330266-.466812-.689775-.743176-.996914-.305066-.339059-.557188-.352437-.837818-.127864-.359758.288218-.412703.63817-.131685.99768.117334.150224.26783.275412.40417.411112 1.55869 1.55099 1.922715 3.751618.938473 5.699768-1.037382 2.05327-2.021043 4.126607-2.524703 6.385146-.01823.081803-.101043.149652-.189867.275031-1.94211-1.151727-4.049649-1.47301-6.292752-1.31686.219346 1.118662.41891 2.136219.609358 3.106758.770133.267385 1.428558-.002103 2.093964-.067468m22.17852 21.283632c-.210617-.260314-.468169-.426594-.819975-.445133-.527515-.027523-1.012945.084286-1.50109.292614-1.331977.56841-2.6752 1.112737-4.025795 1.636805-.322133.124997-.689454.175645-1.038157.186157-.521891.015482-.711564-.280955-.443346-.74004.203443-.348424.488146-.677734.807176-.929065.806206-.63473 1.6576-1.213652 2.478933-1.830226.254643-.191126.483491-.420286.701673-.652314.203055-.216164.174933-.450676.010085-.6957-.526352-.781897-1.149479-.919126-1.85697-.27503-.587636.53458-1.073454 1.17944-1.589915 1.787604-.309721.364478-.548848.796997-.895418 1.119809-.701673.654225-1.488485 1.176-2.54371 1.122484-.13789-.525979.194134-.839426.387104-1.184218.374109-.667986.788751-1.313802 1.170812-1.977775.109964-.190744.19394-.40576.239903-.620204.060121-.28153.09309-.596314-.21411-.769284-.301575-.16972-.647757-.166662-.91229.053707-.240485.200109-.47457.449529-.605091.726088-.173964.367919-.269382.778267-.35394 1.17944-.131878.62422-.235442 1.25207-.610715 1.794868-1.630448 2.35869-3.886933 3.802266-6.798933 4.508095.142546-.238525.215273-.40557.327564-.540696 1.20572-1.451795 2.404266-2.909707 3.632097-4.343154.978036-1.141406 1.992145-2.252805 2.993454-3.374907.532946-.59727 1.09886-1.168355 1.600194-1.79009.296921-.368108.565915-.787822.724752-1.227221.227297-.629188-.178812-1.060178-.859152-1.000737-.095224.00841-.18657.052368-.2816.069379-3.3152.592491-6.358109 1.870935-9.236751 3.561256-1.114958.654416-2.153503 1.407453-3.001212 2.386785-.359758.415508-.734449.833692-.882813 1.483713 1.2608-.476096 2.402716-.916642 3.551807-1.338649 1.130666-.415126 2.240775-.900204 3.505842-1.173133-.037042.211577-.032194.305802-.069624.379004-.898715 1.760846-1.778812 3.53144-2.71457 5.273174-.416776.775781-.803879 1.571822-1.627927 2.090348-.50366.316696-.23331 1.098976.372557 1.249775.153406.038034.32291.051221.479612.032682 1.182837-.139522 2.367613-.26662 3.545213-.441884 1.858133-.276368 3.660994-.206416 5.378715.645434.778472.386075 1.56897.75017 2.368775 1.090949.318837.13589.674522.23241 1.018182.24789.170279.007645.392146-.176792.516655-.331795.165236-.206225.066521-.443604-.136146-.582362-.342303-.23413-.70749-.435576-1.063175-.650594-.343855-.207945-.796897-.284204-.983661-.805597.202473-.109324.377988-.233174.573479-.305228.865745-.31899 1.729163-.048738 2.575709.081802 1.080048.16647 2.149818.41761 3.207951.693023.595976.155195 1.00131-.037078 1.352534-.463099.292654-.35473.253866-.676204-.161746-.848027-.316315-.13073-.682472-.192846-1.027685-.197816-1.033697-.014525-2.068363.034785-3.101866.01529-.377988-.007262-.77537-.084477-1.125237-.223808-.492024-.196096-.530812-.588478-.067103-.831017.534885-.28 1.114182-.506103 1.70046-.655755 1.247613-.318416 2.516753-.554648 3.767662-.861788.46526-.114102.922763-.296437 1.350594-.511645.51646-.25974.568436-.647727.21023-1.090184m-27.225406-28.02542c.18657-.782089.171248-1.572587.070012-2.356205-.06051-.469406-.341721-.814007-1.025746-.938621-.095224.707932-.298084 1.342089-.233115 2.015809.069237.718443.44063 1.12516 1.188849 1.279017m-13.87617 5.193665c.319418-.525788.203055-.927535-.098327-1.23219-.645237-.652315-1.367273-1.215564-2.279758-1.575646-.205188.529229-.16543.960027.221867 1.336929.617115.600327 1.336436 1.050238 2.156218 1.470907" fill="#FFF"/>
  </g>
</svg>
