<svg width="80" height="80" viewBox="0 0 80 80" xmlns="http://www.w3.org/2000/svg" xmlns:xlink="http://www.w3.org/1999/xlink">
  <title>
    wax-wax
  </title>
  <defs>
    <path id="a" d="M0 .08231h65.859435V21.8307H0z"/>
  </defs>
  <g fill="none" fill-rule="evenodd">
    <circle fill="#000" cx="40" cy="40" r="40"/>
    <g transform="translate(7 30.086985)">
      <mask id="b" fill="#fff">
        <use xlink:href="#a"/>
      </mask>
      <path d="M27.425368 4.356152C25.88755 8.62466 24.360147 12.8644 22.832742 17.104137c.02519.016077.050382.032154.075572.048061.449573-.524953.90536-1.045 1.34771-1.576046 1.312107-1.574523 2.617665-3.154461 3.928092-4.730338 1.43571-1.72683 2.873771-3.45163 4.31116-5.177108.296413-.355723.611634-.697061.885206-1.069538.180535-.245893.388107-.316293.678306-.313923 1.525221.011677 3.050778.0132 4.576168.001353.322442-.002369.525145.102047.736916.361985 1.402122 1.71803 2.830107 3.414739 4.248183 5.11957 1.17574 1.413584 2.34997 2.828353 3.523695 4.2438.143923.1738.259297.394815.531358.161107 1.20194-1.032139 2.407909-2.05937 3.611527-3.089815.029725-.025554.046351-.067185.097237-.14317C47.192284 7.36863 43.0012 3.797522 38.810116.226583c.017466-.038246.0351-.076492.052565-.114738.16139-.007277.322778-.020308.484168-.020477 1.777298-.001693 3.554763.007954 5.331893-.00897.376687-.003723.66487.109662.946.350816 1.713145 1.46977 3.435023 2.929384 5.154718 4.391538 2.435114 2.0702 4.87258 4.137862 7.306183 6.210262 2.017786 1.7182 4.029862 3.443338 6.047817 5.161707.539755.4598 1.091938.905216 1.726076 1.429662-.190443.02217-.298428.045523-.40658.045692-1.945237.00237-3.890642.006431-5.835878-.005754-.163908-.000846-.358718-.075984-.485847-.181753-1.33545-1.112523-2.659985-2.238246-3.988046-3.360416-.127802-.108138-.256275-.21543-.421191-.353861-.680993.57403-1.354092 1.139769-2.025176 1.708215-.781084.661523-1.552595 1.335062-2.347282 1.98017-.157527.127938-.399527.209169-.603573.211369-1.567206.017092-3.134748.005754-4.702122.0132-.257618.001184-.431939-.070739-.603404-.285493-.736413-.921123-1.489619-1.829554-2.26197-2.720384-.112519-.129462-.362244-.193431-.548824-.194277-2.687023-.012185-5.374046-.008462-8.061069-.008462h-.56058c.473756-.580969.867405-1.066323 1.264244-1.5488.178351-.216784.396504-.407846.538412-.645954.299771-.502615.724657-.606184 1.274489-.584354 1.020229.040278 2.04281.012693 3.06455.011.148793-.000338.29742-.013707.542274-.026061-1.13493-1.372123-2.211084-2.67283-3.327374-4.022615-.388275.462677-.745984.887446-1.102015 1.313569-1.512458 1.8106-3.026427 3.619508-4.535863 5.432477-1.275328 1.531538-2.544442 3.068492-3.81826 4.601384-.71777.863923-1.433022 1.730047-2.165572 2.581277-.104626.121677-.29893.232016-.45293.23337-1.651344.016246-3.302688.009815-4.9542.007953-.053404 0-.106976-.016584-.255602-.04163a72555.964684 72555.964684 0 0 1 3.38061-4.080154c-.236458-.012523-.37887-.02657-.52145-.026739-1.567374-.001523-3.134748-.009984-4.702122.005923-.343603.003385-.51003-.093077-.631787-.44-.881007-2.509353-1.788213-5.00923-2.689542-7.511307-.046183-.127939-.115541-.247416-.220168-.467585-.178687.462846-.329496.830416-.46351 1.204077-.793512 2.212015-1.590886 4.423015-2.367604 6.641123-.145603.41563-.342092.5874-.809633.577246-1.608688-.034523-3.21855-.022846-4.827909-.006261-.335038.003553-.487359-.101708-.601893-.426123-.796534-2.255508-1.617252-4.502046-2.4289-6.752139C1.508528 8.597583.822328 6.690183.136802 4.782783.09062 4.654506.05636 4.52183-.000067 4.336522c.172641-.0154.305145-.036893.437649-.037231 1.20345-.003046 2.407068.001861 3.610687-.006093.249557-.001523.40255.047385.498778.323231.476443 1.3684.9811 2.726985 1.472489 4.090308.515404 1.43017 1.026275 2.861861 1.542687 4.291523.031572.087661.09203.16483.166091.293954.204046-.547292.394153-1.04297.574352-1.542539.859847-2.382938 1.719358-4.765877 2.571145-7.151692.078595-.22.193297-.30817.426732-.306985 1.60936.007277 3.218886-.003892 4.828077.017431.142748.001862.361908.163308.412458.300385.754717 2.046846 1.48626 4.102492 2.224687 6.15543.289863.805878.58342 1.610231.917282 2.531016.162901-.408015.291878-.705185.401542-1.00963.910565-2.529493 1.818443-5.06 2.72481-7.591185.078595-.219831.145603-.409539.446885-.406662 1.287252.012354 2.574672.004908 3.862092.008123.07893.00017.157862.029954.306992.060246" fill="#FFF" mask="url(#b)"/>
    </g>
    <path d="M72.68896 34.462886c-1.72658 1.459954-3.372381 2.85103-5.017175 4.242785-.331176.280415-.66403.5588-.98681.848692-.185572.166692-.341587.1914-.54513.016585-.891755-.766616-1.791908-1.523246-2.691556-2.280554-.180199-.151462-.143252-.278723.01629-.412246.901832-.755446 1.800977-1.514277 2.707007-2.264646.090855-.075477.221848-.143847.334535-.144354 2.025175-.008631 4.050519-.006262 6.18284-.006262" fill="#FC8A33"/>
  </g>
</svg>
