<svg width="80" height="80" viewBox="0 0 80 80" xmlns="http://www.w3.org/2000/svg">
  <title>
    Group 52
  </title>
  <g fill="none" fill-rule="evenodd">
    <circle fill="#D20924" cx="40" cy="40" r="40"/>
    <path d="M68.690528 27.128943C68.249848 26.36641 67.538753 26 66.607318 26c-5.708794.019806-11.41759.059418-17.126384.009903-1.44222-.009903-2.303548.544665-2.974582 1.752833-1.442222 2.574782-2.964567 5.109952-4.456866 7.664928-.630972 1.079428-1.241913 2.16876-1.86287 3.248187-.050077.07923-.120185.14855-.200308.20797-.070108-.06932-.150232-.12874-.20031-.20796-.63097-1.079427-1.241912-2.16876-1.86287-3.248185-1.482282-2.554977-3.014643-5.080244-4.456865-7.66493-.671033-1.20817-1.53236-1.76274-2.974583-1.752835-5.708794.049514-11.41759.009902-17.126383-.009904-.911404 0-1.6225.36641-2.06318 1.128947-.450693.772435-.380585 1.58448.100156 2.37672.661018 1.07943 1.29199 2.17866 1.932977 3.267994 1.762716 3.020418 3.515416 6.040836 5.278132 9.061253 1.852854 3.178866 3.715724 6.34783 5.578594 9.526695 1.66256 2.842163 3.315107 5.674424 4.987683 8.506684.46071.772432 1.15177 1.168552 2.06317 1.12894.891372-.039613 1.522344-.485248 1.942992-1.257683.430664-.772434.88136-1.54487 1.332052-2.3074 1.482283-2.53517 2.964566-5.080244 4.44685-7.615415.33051-.574375.68105-1.138847 1.05162-1.77264.380586.633793.72111 1.198265 1.05162 1.77264 1.482283 2.53517 2.964567 5.080243 4.44685 7.615413.450695.772435.90139 1.534967 1.332053 2.3074.42065.772436 1.05162 1.21807 1.942993 1.257683.911404.03961 1.60247-.346607 2.063178-1.128945 1.66256-2.83226 3.325125-5.674424 4.987686-8.506684 1.86287-3.178867 3.715725-6.34783 5.578595-9.526696 1.762716-3.020417 3.515416-6.040834 5.27813-9.061252.64099-1.08933 1.261945-2.188564 1.93298-3.267992.450693-.79224.510786-1.604286.060092-2.37672zm-31.448448 16.7856c-1.672577 2.901582-3.365184 5.79326-5.057792 8.68494-.320494.554567-.661018 1.08933-1.061635 1.762734-4.657175-7.991728-9.264272-15.904232-13.91143-23.876154.2604-.019806.440677-.049515.620955-.049515 3.805863-.009903 7.611726-.009903 11.41759-.02971.420648 0 .661018.12874.871342.485248 2.033132 3.51557 4.07628 7.01133 6.119427 10.516996.340525.584277.72111 1.14875 1.011558 1.74293.100155.207963.11017.56447-.010015.76253zm11.627913 10.447674c-.400617-.6635-.74114-1.208167-1.061635-1.762735-1.692608-2.89168-3.385215-5.783357-5.057792-8.68494-.11017-.19806-.11017-.554567 0-.76253.300463-.604084.671034-1.168556 1.011558-1.74293 2.043148-3.505665 4.086295-7.01133 6.119428-10.516996.210324-.356508.450694-.485247.871342-.485247 3.805863.0198 7.611726.0198 11.41759.0297.180277 0 .35054.02971.620956.049514-4.657175 7.971922-9.264272 15.884426-13.921447 23.876154z" fill="#FFF" fill-rule="nonzero"/>
  </g>
</svg>
