<svg width="80" height="80" viewBox="0 0 80 80" xmlns="http://www.w3.org/2000/svg" xmlns:xlink="http://www.w3.org/1999/xlink">
  <title>
    wild-wild-crypto
  </title>
  <defs>
    <path id="a" d="M0 .017298h56.96921v65.805283H0z"/>
  </defs>
  <g fill="none" fill-rule="evenodd">
    <circle fill="#FFF" cx="40" cy="40" r="40"/>
    <g transform="translate(12 7.16021)">
      <mask id="b" fill="#fff">
        <use xlink:href="#a"/>
      </mask>
      <path d="M21.985415 42.982411c-.217346-.08729-.443215-.158435-.650972-.264532-2.02572-1.033823-4.050019-2.071016-6.070766-3.114774-.310748-.160565-.601608-.359984-.901524-.541484.056645-.281742.162122-.56313.162477-.845048.008878-7.620162.007458-15.2405.00444-22.860662-.000178-.162338-.038711-.3245-.05931-.487016-.037111.003194-.074046.006387-.11098.009403v24.18084c-.053094-.335146-.151645-.670469-.152-1.005791-.008346-7.446823-.005683-14.893468-.00515-22.34029v-1.22171c-2.925112 1.646097-5.69485 3.20508-8.371542 4.711548v26.99471c.30471.18487.504476.311016.708682.429177 4.502822 2.605936 9.004224 5.214178 13.510065 7.814613 2.713094 1.565903 5.433113 3.119387 8.149935 4.678726.427411.384468.712589-.040806 1.006645-.209887 7.049-4.052968 14.08344-8.131307 21.14558-12.16121.748457-.427048 1.007532-.887274 1.005046-1.734274-.024505-8.334806-.010121-16.669613.009944-25.00442.001243-.535983-.150402-.863322-.641738-1.125193-2.478701-1.321597-4.938047-2.678855-7.407514-4.017661-.19444-.105565-.413739-.16571-.740645-.293807v24.48529c-2.642066 1.393097-5.219673 2.751952-7.97272 4.20342v-1.313613l-.001065-30.857129c0-.177242-.017757-.356613.00284-.531548.05487-.466436-.12927-.773194-.535373-1.015371-.812205-.48471-1.600262-1.009694-2.399505-1.515694-.92443-.585129-1.849925-1.168306-2.77542-1.751484-.224094-.141048-.4473-.3355-.694477-.034951-1.939065 1.245484-3.87813 2.49079-5.817196 3.736274-.071916.391564-.206159.782774-.206514 1.174339-.011542 10.147677-.006748 20.295354-.017047 30.443032-.000355.462177-.113467.924177-.174196 1.386177zm34.983794 6.42329c-9.470345 5.46079-18.945486 10.924242-28.47141 16.416968C18.989807 60.342185 9.492292 54.867734-.000072 49.3963V16.48288c.15644-.107693.319449-.228516.490804-.336387 1.388243-.873968 2.76441-1.768339 4.173607-2.607355.625047-.372226 1.343673-.586016 1.975645-.948839C13.615471 8.58417 20.582079 4.562605 27.551882.54654c.305243-.176.617234-.340113.96172-.529242 9.490766 5.471081 18.96644 10.933468 28.455607 16.404017v32.984387z" fill="#BF1E2D" mask="url(#b)"/>
    </g>
    <path d="M40.200457 13.40287c.247178-.300549.470383-.106275.6943.034951.925672.583 1.851167 1.166355 2.77542 1.751306.79942.506178 1.587299 1.031162 2.399682 1.515694.405925.242355.590243.549113.535196 1.01537-.020598.174936-.002841.354485-.002841.531727.000533 10.28571.000888 20.57142.001243 30.857129v1.313435c2.75287-1.45129 5.330477-2.810322 7.97272-4.203242V21.73395c.326906.12792.546028.188242.740645.293807 2.46929 1.338806 4.928813 2.696064 7.407514 4.017483.491158.261871.64298.58921.641738 1.125194-.020066 8.334806-.034449 16.66979-.010122 25.00442.002664.847177-.256588 1.307225-1.005046 1.73445-7.061963 4.029727-14.09658 8.108243-21.145402 12.16121-.294234.169081-.579234.594178-1.006645.20971.59113-.241468.343776-.7645.34413-1.158903.013319-16.546484.01172-33.092968.00959-49.639452 0-.500677.004972-1.00437-.049543-1.500613-.022018-.20137-.197102-.386064-.302579-.578387" fill="#D1D2D4"/>
    <path d="M40.200457 13.40287c.105477.192322.28056.377015.30258.578386.054514.496242.049542.999936.049542 1.500613.00213 16.546484.003728 33.092968-.00959 49.639452-.000354.394403.247.917436-.34413 1.158903-2.717-1.559161-5.437019-3.112822-8.149935-4.678548-4.50584-2.600436-9.007243-5.208855-13.510065-7.814613-.204383-.118161-.403972-.244307-.708682-.429178V26.362998c2.676691-1.506467 5.446252-3.065274 8.371364-4.711548v1.221887c-.000533 7.446823-.003196 14.893468.00515 22.340113.000355.3355.099084.670645.152 1.005968l.003373.002484c.300094.181322.590776.380741.901524.541483 2.020747 1.043758 4.045047 2.080775 6.070944 3.114775.207757.106096.433448.177064.650972.264532.096243.045951.192663.091903.416402.19871v-1.31929c-.000178-10.185114 0-20.370227-.001243-30.55534 0-.442483-.011365-.885145-.017402-1.327629 1.939065-1.245483 3.87813-2.49079 5.817196-3.736274" fill="#FEFEFE"/>
  </g>
</svg>
