<svg width="80" height="80" xmlns="http://www.w3.org/2000/svg" xmlns:xlink="http://www.w3.org/1999/xlink">
  <defs>
    <path id="a" d="M0 .769688h46.079532v41.171346H0z"/>
    <path id="c" d="M.013385.316588H46.09319v41.172436H.013385z"/>
  </defs>
  <g fill="none" fill-rule="evenodd">
    <circle fill="#FFF" cx="40" cy="40" r="40"/>
    <g transform="translate(12 20.742371)">
      <mask id="b" fill="#fff">
        <use xlink:href="#a"/>
      </mask>
      <path d="M41.4848 30.045982c-2.537756 0-4.594732-2.030764-4.594732-4.535058V14.311277c0-2.504295-2.056975-4.53506-4.593366-4.53506-2.537756 0-4.144 2.030765-4.144 4.53506v11.199646c0 2.504295-2.507707 4.53506-5.044097 4.53506-2.537756 0-4.594732-2.030765-4.594732-4.53506V15.113572c-.045073-.024353-.091512-.047353-.136585-.071706v-.730588c0-2.504295-1.645854-4.53506-4.18361-4.53506s-4.593366 2.030765-4.593366 4.53506v.928117s.136586 10.603.685659 13.586235c.547707 2.98053 2.331512 4.817824 4.661658 7.257177 2.331513 2.439353-1.233366 8.056765-5.89639 4.939588-4.663024-3.117176-7.028683-7.07453-7.81678-12.196765C.432702 23.610041-.000273 14.410041-.000273 14.410041s.183024-3.295764.613268-4.033117C2.350361 4.812276 7.589775.769687 13.782556.769687c3.563512 0 6.810146 1.33806 9.25639 3.533883C25.486556 2.107747 28.73319.769688 32.296702.769688c6.19278 0 11.43083 4.042588 13.169561 9.607235.430244.737354.613269 4.033118.613269 4.033118v11.100883c0 2.504294-2.056976 4.535058-4.594732 4.535058" fill="#4D525D" mask="url(#b)"/>
    </g>
    <g transform="translate(21.560976 18.036488)">
      <mask id="d" fill="#fff">
        <use xlink:href="#c"/>
      </mask>
      <path d="M4.608117 12.211377c2.537756 0 4.594732 2.030764 4.594732 4.535058v11.199647c0 2.504295 2.056975 4.53506 4.593366 4.53506 2.537756 0 4.594731-2.030765 4.594731-4.53506V16.746435c0-2.504294 2.056976-4.535059 4.593366-4.535059 2.537756 0 4.594732 2.030765 4.594732 4.53506v10.397352c.045073.024353.091512.047353.137951.071706v.730588c0 2.504295 1.644488 4.53506 4.182244 4.53506s4.593366-2.030765 4.593366-4.53506v-.928117s-.136585-10.603-.685659-13.584883c-.547707-2.981882-2.331512-4.819176-4.661658-7.25853-2.331512-2.439352 1.233366-8.056764 5.89639-4.939587 4.663024 3.117176 7.030049 7.075882 7.81678 12.198117.801757 5.215589 1.234732 14.414236 1.234732 14.414236s-.183024 3.295764-.613268 4.033117c-1.737366 5.564647-6.97678 9.608589-13.169561 9.608589-3.563512 0-6.810146-1.339412-9.25639-3.535236-2.44761 2.195824-5.694244 3.535235-9.257756 3.535235-6.19278 0-11.43083-4.04394-13.169561-9.608588-.430244-.737353-.613269-4.033117-.613269-4.033117V16.746435c0-2.504294 2.056976-4.535059 4.594732-4.535059" fill="#FCD600" mask="url(#d)"/>
    </g>
  </g>
</svg>
