<svg width="80" height="80" viewBox="0 0 80 80" xmlns="http://www.w3.org/2000/svg" xmlns:xlink="http://www.w3.org/1999/xlink">
  <title>
    wpr-wepower
  </title>
  <defs>
    <path id="a" d="M.000093.057133h67.286446v67.919746H.000093z"/>
    <path id="c" d="M.20786.166012h61.515502v61.519976H.207861z"/>
  </defs>
  <g fill="none" fill-rule="evenodd">
    <g transform="translate(0 11.85711)">
      <mask id="b" fill="#fff">
        <use xlink:href="#a"/>
      </mask>
      <path d="M67.28654 57.017595c-1.983305 2.075607-4.263885 3.79029-6.751769 5.189133-2.008116 1.129249-4.166029 1.990983-6.208 3.064509-1.683246.885087-3.485217 1.38289-5.313391 1.74844-4.130783.825664-8.308406 1.18497-12.52174.806936-6.531014-.586127-12.594318-2.619191-18.105043-6.142197-4.412985-2.821272-8.133797-6.400693-11.152927-10.70867C3.490829 45.635399 1.198655 39.73112.3488 33.306613c-.975536-7.374104.10458-14.503122 3.12974-21.30844C5.480393 7.494821 8.241205 3.496671 11.794132.057133c.796754 2.430289 1.593508 4.860347 2.390261 7.290636.60545 1.92948 1.210899 3.85919 1.816116 5.788901.69658 2.308671 1.373218 4.623816 2.094609 6.924856 1.30597 4.167399 2.638609 8.326474 3.960116 12.489017.14655.461272.29287.922544.439188 1.383815l.004174.01503c.050087.13364.100406.267283.150725.400924-.010899.034451-.03942.075376-.02945.102197.024116.065664.066087.125086.10087.18682l.45426 1.403931-.003014-.00578c.280812.935722.561392 1.871214.841971 2.806936-.02342.083006.002087.146127.076754.189827l.656232 2.111445c-.029218.081156-.008812.14682.061217.197457.167652.628208.295884 1.271445.526145 1.876069.073276.192832.417623.283237.638145.420578 2.625391.000925 5.250783.001618 7.876406.002543h1.551536c.16255-.670289.304464-1.256185.446609-1.84208.799768-2.935492 1.599536-5.870752 2.399536-8.806243l.070493-.06289-.03942-.076764c.04568-.17341.091362-.34682.137043-.520462.250667-.928324.501333-1.856879.751768-2.785202.112464-.588209.224696-1.176417.33716-1.764393.333913.231676.49484.539653.59571.866127.181797.587745.325797 1.187052.488116 1.780809 1.138087 4.155838 2.285449 8.309364 3.404985 12.470289.149797.556532.304928.962775.989913.741734h.932174c2.548174-.000925 5.09658-.00208 7.644754-.003006.234666-.15237.600116-.255491.678956-.465664.22029-.58659.321855-1.217573.470261-1.830752.061218-.043468.073276-.09734.035942-.162312.293334-1.024509.586435-2.049248.88-3.073526 1.037913-3.618035 2.075594-7.235838 3.113507-10.853642.06145.006474.122899.012948.18458.019191.223305.682312.446377 1.364393.66945 2.046474.071188.24.142608.48.213565.719769l-.005566-.008093c.06516.236301.13032.47237.19571.70844-.031304.080462-.011826.145896.058203.196763.521508 1.827052 1.042783 3.654104 1.56429 5.481156.041044.263121.056348.53341.127305.787977 1.843478 6.604855 3.692753 13.208092 5.541101 19.81156" fill="#FBEE06" mask="url(#b)"/>
    </g>
    <g transform="translate(18.086957 .065202)">
      <mask id="d" fill="#fff">
        <use xlink:href="#c"/>
      </mask>
      <path d="M.20786 6.691306c1.54829-.911214 3.034668-1.95422 4.655305-2.711445C12.765774.287145 21.047513-.733896 29.596846.959283c6.773566 1.341503 12.851479 4.203468 18.110841 8.754451.782377.676994 1.492638 1.431214 2.302145 2.074682l2.387246 2.516763c2.193855 2.785665 4.160696 5.71607 5.643594 8.944509 2.77774 6.047861 3.995363 12.393295 3.61461 19.04185-.39258 6.853641-2.46887 13.162543-6.124059 18.966011-.098782.156763-.24116.286012-.363362.42844-.06655-.13526-.156522-.264047-.196406-.406475-2.70516-9.677687-5.404522-19.356763-8.10829-29.034682-.555362-1.987977-1.125101-3.971792-1.669101-5.890173h-8.895536c-1.28974 4.208555-2.252058 8.42289-3.566145 12.53896-.400232 1.254335-.650435 2.556069-.969276 3.836069-.208695.644855-.38771 1.301965-.64116 1.928786-.09739.241156-.364753.413873-.554666.617804-.034782-.149596-.069333-.29896-.104116-.448324l-.109217-.473757c-.035478-.15815-.070957-.316301-.106203-.474451-.02829-.090636-.05658-.181272-.08487-.27214.034087-.065433.024348-.123236-.029217-.173872-.075594-.308902-.15142-.617572-.227014-.926243l-.000464-.002312c-.013218-.077919-.026667-.155607-.040116-.233526-.048928-.167861-.097855-.335954-.147015-.503815.014609-.022196.046377-.05156.04058-.06474-.01971-.045318-.052638-.084855-.080464-.126705-.47026-2.098497-.92568-4.200462-1.414493-6.294566-.697043-2.985665-1.418666-5.96555-2.127304-8.937341H17.25505c-.969043 4.090635-1.926029 8.126242-2.880232 12.162774-.486492 2.057572-.961623 4.11815-1.459246 6.17318-.077217.318612-.085565.907976-.676174.377572-.121739-.362313-.243246-.724625-.364985-1.086706l-.007884-.076763c-.40603-1.298034-.812058-2.5963-1.217856-3.894335-.234202-.80763-.44939-1.62104-.705855-2.421272-1.227362-3.83052-2.465623-7.65734-3.700405-11.485549-.361276-1.134104-.722783-2.268208-1.08429-3.402543l-.070957-.296185c-.270377-.863584-.54029-1.727399-.810435-2.591214-.092753-.332948-.176695-.668902-.279652-.998613C2.73563 14.766451 1.471398 10.728994.207861 6.691306" fill="#FBEE06" mask="url(#d)"/>
    </g>
    <path d="M22.882226 26.071792c.070493-.055029.140986-.110058.211478-.164856-.070492.054798-.140985.109827-.211478.164856m.072348-.293873l.000232.000231c-.039189.027746-.097855.052023-.128464.081388.030609-.029365.089275-.053642.128232-.081619m50.103652 35.566705c-2.704927-9.677456-5.40429-19.356763-8.10829-29.034682-.55513-1.987745-1.12487-3.97156-1.66887-5.890173H54.38553c-1.289739 4.208555-2.252057 8.423121-3.566145 12.53919-.400231 1.254105-.650434 2.555839-.969507 3.835839-.208463.645086-.387478 1.301965-.640927 1.928786-.097392.241156-.364754.413873-.554667.617803-.034783-.149364-.069333-.29896-.104116-.448323l-.109217-.473758c-.035478-.15815-.070957-.316069-.106203-.47422-.02829-.090635-.05658-.181271-.08487-.272138.034087-.065433.024348-.123468-.029217-.174104-.075594-.30867-.15142-.617341-.227015-.926243l-.000463-.002312-.040116-.233526c-.048928-.167861-.098087-.335722-.147247-.503815.014609-.021965.046609-.05156.040812-.064509-.01971-.045318-.052638-.084855-.080464-.126705-.010203.035376-.011826.068902-.005101.10081-.006725-.031908-.005102-.065434.005101-.10081-.47026-2.098497-.925681-4.200462-1.414724-6.294798-.696812-2.985433-1.418435-5.965549-2.127073-8.937572h-8.882319c-.969043 4.090867-1.926029 8.126705-2.880232 12.163006-.486724 2.057572-.961623 4.11815-1.459246 6.17318-.077217.318843-.085797.908207-.676174.377571-.12174-.36208-.243246-.724393-.364985-1.086705l-.007885-.076532c-.406029-1.298265-.812058-2.5963-1.217855-3.894566-.234203-.807399-.44939-1.62081-.705855-2.421272-1.227362-3.83052-2.465855-7.65734-3.700406-11.485549-.361275-1.134104-.722782-2.268208-1.08429-3.402312-.023651-.09896-.047536-.197457-.071188-.296416-.270145-.863584-.540058-1.7274-.810203-2.591214-.092753-.332948-.176695-.66867-.279652-.998613-1.26145-4.038381-2.525681-8.075838-3.789217-12.113526-2.470957 1.338497-4.560464 3.154682-6.500638 5.15792l2.390261 7.290404c.60545 1.92971 1.210667 3.859422 1.816116 5.788902.69658 2.308901 1.373217 4.623815 2.094377 6.925086 1.306203 4.1674 2.63884 8.326474 3.960348 12.489018l.439188 1.383584.003942.01526.150956.400693c-.01113.034682-.039652.075607-.02968.102428.024115.065665.066086.124856.1011.18659.150957.46659.301682.932948.452638 1.399075-.000463-.000231-.000927-.000694-.00139-.000925l.841738 2.807168c-.023188.082774.00232.146127.076986.189595l.656232 2.111445c-.029218.081387-.009044.147052.061217.197688.167652.627977.295884 1.271445.526145 1.87607.073275.192832.417623.283005.637913.420346l7.876406.002775h1.551768c.16255-.67052.304464-1.256417.446377-1.842313.8-2.93526 1.599768-5.87052 2.399768-8.806011l.070493-.063122-.03942-.076531c.04568-.173642.091362-.347052.13681-.520463.250668-.928555.501566-1.856878.752-2.785433.112233-.587977.224697-1.176185.336929-1.764393.334144.231907.495072.539653.595941.866127.181566.587746.325566 1.187052.488116 1.78081 1.138087 4.156068 2.285218 8.309594 3.404986 12.47052.149797.556531.304928.962543.989913.741733h.931942c2.548406-.000924 5.096812-.00208 7.644986-.003237.033159-.173872.06655-.347745.099942-.523699-.033392.175954-.066783.349827-.099942.5237.234666-.15214.599884-.25526.678956-.465665.220058-.58659.321855-1.217341.47026-1.830752.061218-.043237.073276-.09711.035943-.162312.293101-1.024277.586435-2.049017.88-3.073757 1.037681-3.617572 2.075594-7.235607 3.113275-10.85341.061682.006473.12313.012947.18458.019421.223304.682313.446609 1.364394.669681 2.046474.070493.237688.140986.475607.21171.713295-.001391-.000462-.00255-.001156-.00371-.001618.06516.23607.130319.47237.195478.708439-.031072.080231-.011826.145896.058203.196532.521508 1.827052 1.042783 3.654104 1.56429 5.481387.041276.26289.05658.53318.127536.787977 1.843247 6.604624 3.692754 13.207861 5.541102 19.81156 2.349217-2.074913 4.353391-4.436993 5.968232-7.123699-.066551-.13526-.156522-.264046-.196638-.406474" fill="#000"/>
  </g>
</svg>
