<svg width="80" height="80" viewBox="0 0 80 80" xmlns="http://www.w3.org/2000/svg">
  <title>
    wrc-worldcore
  </title>
  <g fill="none" fill-rule="evenodd">
    <circle fill="#FFF" cx="40" cy="40" r="40"/>
    <g fill="#00C8C3">
      <path d="M67.098116 27.702926c.98166 1.721652 1.496266 3.373636 1.887386 5.049421.355768 1.523802.749129 3.065703.804896 4.6319.06025 1.689422.738672 7.501489-1.923734 13.723885-2.478672 5.792975-6.132946 10.560992-11.425892 14.010496-4.830374 3.148265-10.133527 4.770744-15.948797 4.862231-7.088465.111819-13.38946-1.993636-18.97693-6.271735-1.179336-.902975-2.2317-1.970827-3.335103-2.970496-.58083-.526116-.735436-1.047769-.317427-1.842645 1.699419-3.23157 2.440082-6.76314 2.82971-10.341074.455352-4.181653.68614-8.387603 1.028215-12.5819.073942-.904216.161328-1.811902.32888-2.701984.120746-.63967.289543-1.341075 1.123319-1.455868.609212-.083802 1.170622.39124 1.326224 1.373306.290042 1.830744.501162 3.677603.657012 5.524958.343071 4.070331.627635 8.145868.94332 12.218678.105062 1.357686.253195 2.712397.344066 4.070827.253693 3.792396 2.487635 6.64909 5.951204 7.31752 3.791452.731901 7.555518-.63 8.707718-4.996363.377178-1.428595.60697-2.909752.754854-4.381736.635353-6.323058 1.228631-12.65033 1.808714-18.978595.207137-2.259174.313942-4.527273.50863-6.787686.059752-.691983.237013-1.377273.403071-2.055124.126722-.516942.447884-.915868 1.021992-.933967.602739-.01909.865643.455207 1.032697.92653.192448.541487.380415 1.105536.432697 1.672561.371452 4.026446.68166 8.058347 1.064564 12.083554.253693 2.66628.397843 5.364793.93859 7.977273 1.20473 5.821487 7.395933 6.79562 11.192365 4.76628 1.932199-1.032892 2.883485-2.825702 3.28332-4.88157.622157-3.20033 1.133028-6.421735 1.704398-9.631983.52083-2.926364 1.057842-5.85 1.592365-8.773885.021162-.114793.089377-.220909.257676-.62281"/>
      <path d="M12.925037 53.002347c-1.214937-2.43471-1.966556-4.81909-2.402738-7.304132-1.581909-9.016364.415767-17.194959 6.180996-24.297273 4.970788-6.123719 11.460746-9.788925 19.38448-10.759835 1.311785-.16066 2.633528-.42843 3.942822-.389256 6.867635.206281 13.1039 2.270083 18.540996 6.529091.812863.636942 1.52166 1.407025 2.341992 2.033058.934855.713058 1.021743 1.62124.843735 2.657107-.3361 1.95248-.634855 3.911405-.98888 5.860414-1.039668 5.725289-2.09527 11.447603-3.154108 17.169421-.231286 1.249091-.700332 1.883306-1.363568 1.783884-.987137-.148016-1.162656-1.02124-1.2722-1.772727-.249958-1.71248-.42-3.438843-.559419-5.16471-.288797-3.577439-.474772-7.164298-.824315-10.735538-.207884-2.120826-.173527-4.289256-1.076515-6.31438-1.421327-3.187686-4.213195-4.585041-7.50946-4.374793-2.398755.152975-4.50498.996694-5.672116 3.224876-.563652 1.076033-.956515 2.310496-1.114357 3.513967-.369959 2.820248-.5522 5.665041-.809129 8.500165-.398091 4.396364-.79693 8.79248-1.191784 13.18909-.19942 2.218265-.36249 4.440249-.601245 6.654298-.087635.813471-.26863 1.637852-.561162 2.398513-.13195.343388-.619917.709339-.985394.754959-.293776.036694-.831286-.32876-.937593-.629257-.312697-.88314-.585063-1.81314-.659751-2.741653-.469046-5.839338-.862407-11.684876-1.323486-17.52471-.106805-1.35372-.285311-2.716116-.592282-4.037356-.997095-4.29124-4.650373-6.188182-8.65444-5.590165-3.321162.495868-5.372116 2.557686-5.890705 5.984132-.437926 2.893885-.652531 5.820744-1.044399 8.722562-.546722 4.04529-1.165394 8.081157-1.759917 12.12-.016431.111075-.108298.210744-.286058.540248"/>
    </g>
  </g>
</svg>
