<svg width="80" height="80" viewBox="0 0 80 80" xmlns="http://www.w3.org/2000/svg" xmlns:xlink="http://www.w3.org/1999/xlink">
  <title>
    wtc-waltonchain
  </title>
  <defs>
    <path id="a" d="M.060438.076119h12.365405v26.52709H.060438z"/>
  </defs>
  <g fill="none" fill-rule="evenodd">
    <circle fill="#000" cx="40" cy="40" r="40"/>
    <g transform="translate(53.539171 24.005466)">
      <mask id="b" fill="#fff">
        <use xlink:href="#a"/>
      </mask>
      <path d="M.063958 14.494683c0-3.439709.002396-6.879417-.003515-10.319126-.000719-.373088.074525-.714848.264793-1.028625.29195-.481433.747889-.723088 1.263735-.855093 1.606808-.411107 3.215454-.814464 4.823939-1.218228C7.666182.759019 8.920253.448179 10.174004.136035c.59812-.148893 1.153345-.018438 1.615434.369825.365518.307168.586298.735816.62464 1.236993.008786.114954.007428.230886.007428.34641.00032 6.757122-.001837 13.514243.004393 20.271364.00048.531772-.11654 1.002191-.444835 1.421865-.21471.274615-.497156.434032-.811073.524184-.607944.174755-1.223477.322343-1.836694.477844-1.265493.320874-2.530986.641585-3.797358.958706-1.07898.270128-2.15812.539849-3.239336.800431-.616971.14873-1.179466.022763-1.65138-.421795-.365038-.34388-.584061-.755559-.582304-1.287575.007988-2.318077.002716-4.636154.002317-6.954231-.00016-1.128403 0-2.256888 0-3.385373H.063958z" fill="#A03CF5" mask="url(#b)"/>
    </g>
    <path d="M33.554053 38.3955c0-3.419068.008147-6.838135-.005671-10.257121-.003515-.874919.64301-1.617424 1.400325-1.800175 1.054618-.254545 2.103005-.535688 3.155226-.800513 1.174353-.295501 2.349985-.5857 3.525217-.877855.678316-.168555 1.356952-.335886 2.035268-.504767.596123-.148485 1.146157-.03451 1.614477.360769.419834.354406.613376.843916.651797 1.396084.007109.101492.005112.2038.005112.30578.00024 1.937157.00032 3.874476-.00016 5.811714-.00008.10859-.002476.217424-.008946.325932-.009905.16676-.083551.276248-.254249.318264-.329653.081095-.654832.18169-.985284.259277-1.144958.268823-1.97544.94655-2.48362 2.02021-.218703.46218-.302653.965315-.302174 1.484604.003514 3.670513.001278 7.341107.001038 11.01162-.00008.414452.002636.828823.001039 1.243275-.001119.288566-.043773.34078-.31272.40768-1.389062.346003-2.778365.690945-4.167028 1.038742-.496996.124417-.991355.25993-1.48859.383123-.816424.202168-1.520221.029534-2.046132-.677645-.219103-.294686-.321745-.639056-.331091-1.008392-.007349-.292156-.003754-.584557-.003754-.876795-.00016-3.187937-.00008-6.375874-.00008-9.563811m-19.553558.301645c0-3.09958-.001597-6.19908.001598-9.29866.000479-.48225.004633-.965723.038021-1.44634.052879-.759476.541647-1.37781 1.395214-1.61049.693892-.189114 1.394734-.352121 2.091901-.52908 1.271724-.32275 2.542808-.648437 3.814692-.97078.90373-.22901 1.808418-.454021 2.712547-.681643.596122-.150035 1.160055-.07302 1.648663.312307.349143.275431.588934.646317.661462 1.104336.028517.180384.042815.365012.043134.547762.003515 1.991655.003195 3.983229.003195 5.974884 0 .370967-.02564.406946-.385567.497505-.439324.110385-.878568.221749-1.320768.318509-1.70945.374149-2.875176 1.835011-2.875496 3.620338-.000719 4.030792.001119 8.061503.002237 12.092296.00016.56718-.003195.548333-.54644.676748-.920184.217506-1.833898.463322-2.751207.693636-.768657.193112-1.535877.393811-2.308688.567996-.918906.207063-1.823275-.324627-2.118421-1.233485-.05136-.158194-.06494-.333765-.070452-.502156-.018132-.56359-.033468-1.127588-.034107-1.691422-.003275-2.814115-.001518-5.628147-.001518-8.442261" fill="#A03CF5"/>
    <path d="M23.48821 46.731562c.00024-3.39859.012781-6.797261-.007428-10.19577-.00599-1.008962.681831-1.786958 1.517506-1.97191 1.21485-.268905 2.414764-.607973 3.622187-.91204.98792-.248835 1.977518-.490327 2.966396-.735082.261039-.064615.303693-.031655.308645.247529.003355.190256.001997.380676.001997.570932.0004 4.927984.004154 9.855968-.002556 14.78387-.001198.841795.168062 1.627051.666735 2.302739.702918.952669 1.6378 1.466818 2.825652 1.45564.569604-.005465.531343-.070978.531583.526633.00032.679766-.01318 1.359696.001837 2.039055.020049.909266-.694212 1.675269-1.454403 1.848229-1.447293.329196-2.880288.723823-4.320473 1.086142-1.149511.2893-2.30094.570361-3.45117.85648-.277733.069103-.554587.141795-.830882.216364-1.265253.341433-2.378261-.544254-2.376983-1.88225.003275-3.412214.001118-6.824347.001358-10.236561m20.047278-.01422c0-3.378112.014138-6.756387-.008547-10.134336-.00679-1.011247.646046-1.816655 1.555048-2.029266 2.061788-.48233 4.110636-1.022587 6.164675-1.539184.142022-.035734.283804-.072366.426305-.105897.213032-.050094.261597-.013054.269026.215384.005591.169697.002236.339802.002236.509662.00056 5.002634 0 10.005268.002636 15.007902.00064 1.36753.573997 2.42275 1.704338 3.14894.596363.383205 1.26054.53275 1.965616.488857.346906-.02162.354415-.013216.355054.349266.001358.72725-.007828 1.454662.002077 2.181748.011662.861947-.560897 1.668579-1.48891 1.882413-1.310623.302028-2.609665.656189-3.914298.985303-.930089.234557-1.861296.464953-2.792184.696165-.697727.173369-1.390181.376434-2.095177.510234-1.149032.217995-2.147256-.668345-2.147656-1.869604-.001118-2.800408-.00032-5.600816-.00024-8.401224v-1.896363z" fill="#7CFAE2"/>
  </g>
</svg>
