<svg width="80" height="80" viewBox="0 0 80 80" xmlns="http://www.w3.org/2000/svg">
  <title>
    xas-asch
  </title>
  <defs>
    <linearGradient x1="16.772461%" y1="0%" x2="75.714111%" y2="71.464844%" id="a">
      <stop stop-color="#FFBC00" offset="0%"/>
      <stop stop-color="#FF6100" offset="100%"/>
    </linearGradient>
  </defs>
  <g fill="none" fill-rule="evenodd">
    <circle fill="#FFF" cx="40" cy="40" r="40"/>
    <path d="M20.17561 13L8 35.2089 39.843902 73h.312508L72 35.2089 59.824702 13H20.17561zm22.47805 4.066418h14.67348l9.053346 16.578474h-14.67286l-9.05397-16.578474zm-19.98049 0h14.673484l-9.05397 16.578474H13.61951l9.05366-16.578474zM40 19.543805l7.64878 14.101087H32.351533L40 19.543805zm13.892683 17.54159h11.551532l-7.1808 8.445638-4.370732-8.445638zm-29.97042 11.26085l6.555786-11.26085h19.0439l6.5561 11.26085L40 67.24414 23.922263 48.346246zm-9.366165-11.26085h11.55153l-4.371043 8.445638-7.180487-8.445638z" fill="url(#a)"/>
  </g>
</svg>
