<svg width="80" height="80" viewBox="0 0 80 80" xmlns="http://www.w3.org/2000/svg">
  <title>
    xaur-xaurum
  </title>
  <g fill="none" fill-rule="evenodd">
    <circle fill="#000" cx="40" cy="40" r="40"/>
    <path d="M32.502 33.738v-1.443m16.402 0v1.443" stroke="#1D1D1B" stroke-width=".5"/>
    <path fill="#AF8E58" fill-rule="nonzero" d="M28.324 39.524l3.772 1.443v1.203h-4.87v2.96h-5.3v3.153H18.01v12.034H14V62h16.234v-1.683h-6.947v-9.58h3.557v-3.03h5.252v-1.444h6.208l2.315 5.583 1.885-5.583h5.993v1.443h5.324v3.008h3.842v9.577h-6.757V62H67v-1.71h-4.035V48.236h-3.63v-3.032h-5.513v-3.008h-4.918v-1.252l3.748-1.443.024-.024-3.772-1.443v-1.205h4.87v-2.96h5.3v-3.152h3.915V18.683H67V17H50.766v1.683h6.947v9.58h-3.557v3.03h-5.252v1.444h-6.208l-2.315-5.583-1.886 5.584h-5.992v-1.443h-5.324v-3.01h-3.842V18.71h6.757V17H14v1.71h4.035v12.055h3.63v3.032h5.513v3.008h4.918v1.252L28.348 39.5"/>
  </g>
</svg>
