<svg width="80" height="80" viewBox="0 0 80 80" xmlns="http://www.w3.org/2000/svg">
  <title>
    xby-xtrabytes
  </title>
  <g fill="none" fill-rule="evenodd">
    <circle fill="#000" cx="40" cy="40" r="40"/>
    <path d="M65 22.10238c-.270693.460127-.543223.919203-.811692 1.380557-.799224 1.373415-1.596016 2.748212-2.395344 4.121524-.799327 1.37334-1.601552 2.74499-2.400698 4.11841-.708924 1.21839-1.414123 2.4389-2.123254 3.65715-.696198 1.19612-1.396612 2.3898-2.09268 3.58597-.743378 1.27743-1.482876 2.55707-2.225866 3.83468-.63562 1.09297-1.27478 2.18394-1.910632 3.27676-.67452 1.15934-1.346973 2.31983-2.020356 3.4798-.06433.11083-.128376.22181-.19299.33249-.065158.11157-.11314.11434-.180885.00049-.297103-.49929-.591723-.99998-.886446-1.50065-.383575-.6516-.766865-1.30338-1.149457-1.95553-.488515-.83269-.975634-1.6662-1.46446-2.49868-.40882-.69621-.819917-1.39113-1.22871-2.08737-.486628-.82885-.971807-1.65852-1.457787-2.48773-.125272-.21379-.25057-.42751-.37734-.64044-.014176-.02383-.037947-.04208-.068806-.07535-.099172.16832-.1925.32473-.28391.48224-.325945.56148-.64964 1.12432-.978558 1.68409-.04628.07873-.0372.1363.00641.21019.57961.98227 1.15626 1.96636 1.73432 2.94957.50447.85798 1.01065 1.71504 1.51456 2.57335.54715.93203 1.09174 1.86554 1.63905 2.79749.46942.79932.94118 1.5973 1.41174 2.39597.09757.16563.20313.32752.28693.49972.0276.05677.02294.15452-.00882.21006-.35836.62655-.72574 1.24803-1.08898 1.87188-.4148.71245-.82732 1.42619-1.24186 2.13879-.40383.69415-.80939 1.38726-1.21345 2.08128-.41265.70878-.82416 1.41818-1.23658 2.12709-.40597.69781-.81332 1.39484-1.21847 2.09313-.43303.74636-.86422 1.49376-1.29622 2.24074h-.0776c-.36128-.62501-.7217-1.2505-1.08404-1.8749-.47814-.82391-.9574-1.64718-1.43694-2.4703-.4387-.75296-.87933-1.50482-1.31746-2.25811-.44884-.7718-.89493-1.54513-1.34356-2.31706-.4014-.69063-.80489-1.38009-1.20698-2.07037-.27954-.47983-.55745-.96061-.83815-1.43978-.04656-.07952-.04235-.14953.00315-.22749.44118-.75649.8808-1.5138 1.32061-2.27106.45269-.779454.90496-1.55906 1.35755-2.33854.44402-.76468.88836-1.52924 1.33238-2.29392.45261-.77945.90447-1.55931 1.35771-2.338403.47252-.81234.94707-1.62356 1.41929-2.43608.42072-.72391.83934-1.449 1.2591-2.173447.4112-.709658.822063-1.41949 1.234143-2.128658.44426-.76451.89012-1.52814 1.33461-2.29254.463866-.79763.92706-1.595636 1.390327-2.39359.46971-.80907.93916-1.61826 1.40874-2.4274.73761-1.27096 1.474626-2.54225 2.21296-3.81277.64604-1.11173 1.29356-2.222565 1.94022-3.33391.01935-.03325.03647-.06775.054658-.101665H65v.10238z" fill="#00D9D3"/>
    <path d="M47.669426 22c-.099974.187332-.19462.377683-.30088.561483-.446792.772925-.897517 1.543623-1.34594 2.315627-.405482.698135-.809595 1.397064-1.214794 2.09538-.428816.738934-.85838 1.477433-1.287248 2.216342-.771935 1.330057-1.54312 2.660523-2.31552 3.990323-.748758 1.289156-1.499353 2.577236-2.247853 3.86657-.68202 1.17477-1.36145 2.35105-2.04358 3.525796-.64568 1.11189-1.29431 2.22213-1.93999 3.33404-.68215 1.17472-1.36182 2.35085-2.04356 3.52585-.49306.84982-.98745 1.69886-1.48192 2.54791-.09071.15572-.12656.15693-.21904-.00128-.45051-.7708-.89873-1.54293-1.34785-2.3145-.40833-.70143-.81722-1.40257-1.22504-2.10428-.45077-.77561-.9001-1.55202-1.35095-2.32753-.43587-.74968-.87312-1.4986-1.30936-2.24808-.4792-.82327-.95784-1.6469-1.43696-2.47024-.46839-.80489-.93722-1.60955-1.40558-2.41447-.5135-.88242-1.02656-1.76507-1.54007-2.64749-.43399-.74582-.86865-1.49128-1.3024-2.23725-.4552-.78285-.90921-1.56643-1.36461-2.34918-.39953-.68679-.80064-1.37267-1.20044-2.05934-.44707-.76785-.89325-1.53622-1.34025-2.30413-.41045-.70515-.82126-1.41009-1.23254-2.11478-.05589-.0958-.11526-.18961-.17302-.28434V22h14.58872c.30549.519174.61146 1.038066.91635 1.557573.49085.83635.98058 1.673365 1.47155 2.509664.40662.692633.8147 1.384446 1.22145 2.077002.51275.87305 1.02455 1.74667 1.5373 2.61975.44351.75518.88831 1.50963 1.33161 2.26492.60768 1.0353 1.21436 2.07119 1.82201 3.10652.0438.07456.09224.14645.14028.22234.01937-.01833.02726-.02306.03132-.03003.41995-.71941.8409-1.43825 1.25587-2.16045.02344-.04083.01604-.11902-.00807-.16325-.1247-.22862-.25869-.45232-.39092-.67687-.62646-1.06392-1.25483-2.12674-1.87987-3.19147-.85647-1.45898-1.70931-2.91998-2.56598-4.37884-.68572-1.16784-1.37548-2.33334-2.06091-3.50133-.046275-.07888-.071133-.1701-.105975-.25557h15.36471z" fill="#4CF4F2"/>
  </g>
</svg>
