<svg width="80" height="80" viewBox="0 0 80 80" xmlns="http://www.w3.org/2000/svg">
  <title>
    xcp-counterparty
  </title>
  <g fill="none" fill-rule="evenodd">
    <circle fill="#FEFEFE" cx="40" cy="40" r="40"/>
    <path d="M70 44.8l-8.733 8.738H52.97c-.937.002-1.697.762-1.7 1.7v4.98c-.008.545-.454.982-1 .982h-6.335c-.265 0-.52-.105-.707-.293-.188-.188-.294-.442-.293-.708V48.1l5.185-5.184c.393-.37 1.008-.362 1.39.018l2.29 2.29h6l3.87-3.868V36.28l-3.965-3.983H52.37L31.167 53.502H18.808L10 44.7V32.823l8.817-8.817H30.87l5.225 5.225c.372.39.372 1 0 1.39l-4.442 4.425c-.354.41-.972.454-1.382.1-.023-.02-.047-.045-.07-.066l-2.77-2.76h-5.172l-3.946 3.944v5l3.934 3.94h5.476L48.932 24H61.15L70 32.85V44.8z" fill-rule="nonzero" fill="#EC1550"/>
  </g>
</svg>
