<svg width="80" height="80" viewBox="0 0 80 80" xmlns="http://www.w3.org/2000/svg">
  <title>
    xdn-digitalnote
  </title>
  <g fill="none" fill-rule="evenodd">
    <circle fill="#4D7AA4" cx="40" cy="40" r="40"/>
    <path d="M53.70711 30h3.0372l11.306353 16.963593h.060137V30h2.706446v20.918852H67.68984L56.473426 34.131037h-.060138v16.787815h-2.70618M37.139884 46.23103h2.64631c4.239948-.08789 5.923793-1.699186 5.923793-5.888815 0-3.808778-2.105073-5.654445-5.923794-5.654445h-2.64631v11.54326zm-5.593038-16.230926h9.231613c6.585302 0 10.524564 3.896407 10.524564 10.371148 0 6.855852-3.9994 10.547444-10.524567 10.547444h-9.231615V30.000104zM9 35.44587h5.321888v-5.185185H9m7.450644 5.185185h5.321888v-5.185185h-5.321888m7.450644 5.185185h5.321888v-5.185185h-5.321888m0 12.703705h5.321888v-5.185186h-5.321888m0 12.703703h5.321888v-5.185185h-5.321888m-7.450644-2.333332h5.321888v-5.185186h-5.321888" fill="#FFF"/>
  </g>
</svg>
