<svg width="80" height="80" viewBox="0 0 80 80" xmlns="http://www.w3.org/2000/svg" xmlns:xlink="http://www.w3.org/1999/xlink">
  <title>
    xel-elastic
  </title>
  <defs>
    <path id="a" d="M58.333.236v50.166H.103V.236h58.23z"/>
    <path id="c" d="M0 13.336V.046h13.022v13.29z"/>
  </defs>
  <g fill="none" fill-rule="evenodd">
    <circle fill="#FFF" cx="40" cy="40" r="40"/>
    <g transform="translate(11.404 10.22)">
      <mask id="b" fill="#fff">
        <use xlink:href="#a"/>
      </mask>
      <path d="M8.835 33.4c.463.05 1.332.178 2.206.235 3.488.226 6.31-2.163 6.183-5.645-.14-3.846.645-7.254 2.81-10.477 1.514-2.252.615-4.808-1.765-6.115-.82-.45-1.714-.762-2.523-1.226-2.413-1.386-3.322-4.342-2.155-6.866C14.734.836 17.55-.37 20.055.538c2.74.994 4.107 3.5 3.422 6.29-.112.456-.273.9-.38 1.355-.76 3.217 1.043 5.97 4.305 6.06 3.47.092 6.28 1.33 8.907 3.533 3.128 2.628 6.913 2.16 9.995-1.07 1.877-1.966 4.006-3.018 6.74-2.44 3.657.776 5.908 4.292 5.137 7.972-.753 3.594-4.38 5.885-8.02 5.003-.898-.217-1.745-.653-2.615-.99-3.888-1.512-7.348-.273-9.408 3.37-3.194 5.643-7.032 7.37-13.268 5.965-4.504-1.014-7.55 1.29-7.83 5.98-.228 3.763-1.696 6.73-5.337 8.165-3.204 1.264-6.218.738-8.85-1.527-2.6-2.238-3.452-6.126-2.152-9.52C1.98 35.35 4.983 33.29 8.835 33.4" fill="#373736" mask="url(#b)"/>
    </g>
    <path d="M39.454 71.87c-5.16-.025-9.35-4.277-9.303-9.44.048-5.142 4.305-9.326 9.465-9.3 5.136.023 9.322 4.292 9.283 9.464-.04 5.19-4.225 9.3-9.444 9.275" fill="#25B34E"/>
    <path d="M67.933 52.107c.403 4.484-3.272 8.65-8.38 8.667-5.14.015-8.376-3.843-8.48-8.465-.103-4.643 3.775-8.667 8.326-8.66 4.785.006 8.895 3.704 8.533 8.457" fill="#CDCCCC"/>
    <g transform="translate(10 24.312)">
      <mask id="d" fill="#fff">
        <use xlink:href="#c"/>
      </mask>
      <path d="M13.02 6.72c.002 3.804-2.694 6.584-6.415 6.615C2.78 13.367.013 10.59 0 6.702-.012 3.122 2.98-.12 6.477.052c3.503.176 6.66 2.196 6.542 6.67" fill="#CDCCCC" mask="url(#d)"/>
    </g>
    <path d="M44.328 15.722c-.008-2.946 2.276-5.335 5.133-5.37 2.964-.035 5.43 2.37 5.44 5.303.01 2.95-2.457 5.418-5.372 5.373-2.902-.045-5.193-2.38-5.2-5.306" fill="#27B350"/>
  </g>
</svg>
