<svg width="80" height="80" viewBox="0 0 80 80" xmlns="http://www.w3.org/2000/svg">
  <title>
    Group 35
  </title>
  <g fill="none" fill-rule="evenodd">
    <circle fill="#FFF" cx="40" cy="40" r="40"/>
    <g fill-rule="nonzero">
      <path d="M40.025 67.975l-.286-.143c-11.164-6.544-19.608-17.34-23.043-30.237-.548-2.03-.954-4.107-1.24-6.21-.263-2.107-.406-4.23-.43-6.353 0-.358-.047-.31.287-.478 5.725-3.265 12.04-5.36 18.58-6.16 2.43-.287 4.878-.407 7.324-.36 1.384.026 2.743.12 4.103.264 6.847.74 13.272 2.794 19.274 6.162.096.048.167.096.263.143.095.048.143.12.143.24v.357c-.025 1.242-.072 2.46-.167 3.702-.143 1.764-.382 3.518-.716 5.256-.715 3.75-1.836 7.356-3.387 10.82-2.457 5.516-5.812 10.428-10.066 14.735-3.047 3.103-6.487 5.793-10.233 8-.142.096-.26.168-.405.263z" fill="#000"/>
      <path d="M17.317 26.25c3.03-1.758 6.257-3.153 9.613-4.155 4.58-1.36 9.23-2.006 14.002-1.91 2.218.047 5.916.406 6.536.645.025.047-.025.07-.072.07-.214.097-.453.168-.668.264-3.935 1.648-6.726 5.11-7.537 9.314-.118.687-.19 1.38-.214 2.077-.025 1.05-.12 2.102-.43 3.128-1.05 3.702-4.078 6.592-7.823 7.452-4.914 1.124-9.876-1.31-12.022-5.874-.12-.262-.214-.524-.262-.787-.353-1.545-.624-3.107-.81-4.68-.215-1.744-.335-3.488-.335-5.23.02-.103.03-.208.025-.312z" fill="#F7A800"/>
      <path d="M52.5 54.863c.048-.454.096-.86.12-1.29.12-2.364-.382-4.61-1.503-6.687-1.074-1.982-2.576-3.558-4.508-4.753-.168-.12-.36-.215-.526-.334-2.648-1.673-4.27-4.037-4.842-7.118-1.025-5.54 2.457-10.89 7.92-12.204 1.93-.454 3.816-.406 5.7.19 1.55.478 3.03 1.123 4.508 1.816 1.025.477 2.004 1.003 2.982 1.55.12.073.215.12.358.216 0 .096.025.167.025.263 0 1.266-.072 2.556-.167 3.82-.17 1.863-.448 3.713-.835 5.542-1.17 5.398-3.244 10.39-6.25 15.023-.834 1.29-1.74 2.53-2.695 3.725-.096.073-.144.17-.287.24" fill="#67B2E8"/>
      <path d="M40.025 65.54c-.357-.145-1.455-.813-2.623-1.6-2.6-1.746-5.015-3.755-7.204-5.996-2.194-2.24-4.145-4.705-5.82-7.356-1.57-2.448-2.89-5.05-3.936-7.763-.03-.078-.054-.157-.07-.24.118.073.165.097.237.144.834.644 1.717 1.194 2.67 1.6 1.218.525 2.482.883 3.817 1.003 2.696.262 5.224-.287 7.61-1.625 1.232-.692 2.583-1.146 3.983-1.337 4.985-.62 9.947 2.342 11.497 7.5.788 2.652.55 5.23-.668 7.74-.167.333-.31.644-.478.954-.095.19-.214.382-.38.525-2.53 2.388-5.296 4.49-8.302 6.256-.12.07-.24.143-.334.19v.003z" fill="#00C4B3"/>
    </g>
  </g>
</svg>
