<svg width="80" height="80" viewBox="0 0 80 80" xmlns="http://www.w3.org/2000/svg">
  <title>
    Group 22
  </title>
  <defs>
    <linearGradient x1="50%" y1="0%" x2="50%" y2="100%" id="a">
      <stop stop-color="#FFF" offset="0%"/>
      <stop stop-color="#E3E0E7" offset="100%"/>
    </linearGradient>
  </defs>
  <g fill="none" fill-rule="evenodd">
    <circle fill="url(#a)" cx="40" cy="40" r="40"/>
    <g fill-rule="nonzero">
      <path d="M31.89 51.827c2.193 1.53 6.216-.378 9.068-4.26.04-.05.083-.1.12-.153 1.57-2.203 1.03-5.25-1.204-6.807-2.233-1.557-5.315-1.034-6.88 1.17-.04.053-.07.11-.107.165-2.733 3.965-3.192 8.356-.998 9.885" fill="#ED8117"/>
      <path d="M34.133 48.892c1.527 1.04 4.346-.284 6.355-2.954.03-.036.06-.07.087-.106.53-.72.743-1.62.59-2.498-.154-.877-.66-1.656-1.405-2.162-1.555-1.06-3.71-.688-4.816.828-.028.037-.05.076-.074.113-1.926 2.728-2.265 5.74-.737 6.78" fill="#EEBB18"/>
      <g fill="#5B6A72">
        <path d="M24.65 36.28c-.23.292-.343.73.283.54 1.785-.546 5.832-1.183 10.53 2.02 6.344 4.324 5.828-6.885 5.828-6.885-1.505-1.026-9.086-5.19-16.64 4.326M48.77 53.18c.026.632.406.383.606.077 6.53-10.03.028-15.556-1.454-16.587 0 0-10.84 3.242-4.6 7.588 4.62 3.217 5.37 7.114 5.447 8.92"/>
      </g>
      <path d="M42.18 45.958c1.237.9 1.987 1.047 2.887-.046.9-1.093 5.635-6.55 10.365-12.568 4.73-6.017 1.845-16.37 1.277-16.784l-.008.01.005-.012c-.568-.412-11 .274-14.905 6.89-3.904 6.617-7.296 13.05-7.99 14.29-.696 1.242-.31 1.922.928 2.82l3.72 2.7 3.72 2.7" fill="#DCF2F9"/>
      <path d="M43.575 47.287h-.052c-.565-.015-1.155-.263-1.97-.83-.575-.4-2.173-1.51-3.767-2.62l-.094-.066-2.508-1.743-1.353-.94c-.814-.57-1.25-1.032-1.454-1.552-.32-.813.025-1.56.31-2.05.15-.256.425-.742.804-1.413 1.395-2.47 4.296-7.61 7.502-12.814 1.154-1.874 2.918-3.446 5.244-4.675 1.23-.65 3.284-1.543 6.08-2.114 1.106-.227 2.24-.38 3.192-.433 1.46-.08 1.718.1 1.843.187l.012.008c.128.09.385.294.79 1.648.272.908.508 2.018.664 3.126.43 3.04.655 8.744-2.664 12.787-3.885 4.734-7.81 9.162-9.694 11.29-.514.58-.885.997-1.08 1.223-.282.33-.56.567-.85.728-.29.165-.618.253-.953.253M56.2 17.227c-1.02 0-3.255.207-5.773.965-2.73.82-6.4 2.475-8.38 5.692-3.196 5.185-6.09 10.31-7.48 12.774-.383.677-.66 1.165-.813 1.43-.333.57-.297.84-.23 1.012.107.273.43.59 1.017 1l1.355.94 2.508 1.743.094.066 3.766 2.62c1.21.84 1.568.762 2.176.056.2-.232.573-.655 1.09-1.237 1.88-2.123 5.794-6.54 9.663-11.255 2.402-2.926 2.744-6.898 2.608-9.714-.147-3.05-.886-5.476-1.182-6.076-.14-.013-.278-.02-.418-.018" fill="#5B6A72"/>
      <path d="M45.998 31.12c1.977 1.368 4.708.903 6.098-1.04 1.39-1.943.918-4.628-1.06-5.997-1.975-1.37-4.706-.905-6.096 1.04-1.39 1.943-.918 4.626 1.058 5.996" fill="#FEFEFE"/>
      <path d="M48.51 32.513c-1.864-.006-3.57-1.03-4.426-2.656-.856-1.627-.72-3.586.352-5.084.762-1.065 1.924-1.788 3.23-2.01 1.304-.223 2.646.073 3.73.824 2.25 1.56 2.792 4.63 1.206 6.842-.76 1.066-1.922 1.79-3.23 2.01-.284.048-.573.072-.863.073m.015-8.61c-.218 0-.436.018-.65.055-.984.165-1.858.71-2.43 1.513-1.192 1.667-.785 3.978.91 5.153.814.564 1.824.788 2.806.62.984-.167 1.858-.71 2.432-1.513 1.195-1.666.787-3.976-.91-5.15-.63-.44-1.384-.677-2.157-.677" fill="#5B6A72"/>
      <g fill="#979797">
        <path d="M21.038 63.586l7.216-10.153.476.338-7.216 10.155M25.175 62.22l4.22-5.968.48.338-4.22 5.968"/>
      </g>
    </g>
  </g>
</svg>
