<svg width="80" height="80" xmlns="http://www.w3.org/2000/svg">
  <g fill="none" fill-rule="evenodd">
    <circle fill="#FFD523" cx="40" cy="40" r="40"/>
    <g fill="#000" fill-rule="nonzero">
      <path d="M68.446336 15.354981C68.64767 15.253558 68.798668 15.101423 69 15c-7.952622 7.403891-15.854912 14.757071-23.807534 22.160963.956328-.456405 1.912656-.91281 2.868984-1.318502 1.459658-.608539 2.96965-1.064943 4.529975-1.26779 1.00666-.152134 2.063655-.152134 3.019983.152135.956328.253558 1.862323.811386 2.516652 1.622771.65433.811386 1.006661 1.876329 1.006661 2.941272.050334 1.217078-.301998 2.484868-1.056994 3.448388-.553663.709962-1.308659 1.26779-2.214654 1.470636-.956328.202846-2.013322.202846-2.96965-.152135-.704663-.253558-1.358992-.709962-1.862323-1.26779-.402665-.456404-.65433-1.014231-.65433-1.62277 0-.811386.452998-1.521348 1.056994-1.977752.402665-.253558.905995-.456404 1.409326-.405693.553664.101423.905995.557828 1.056994 1.064943.100666.354982-.050333.760674-.301998 1.014232-.100666.101423-.251666.253558-.251666.405693.050334.152135.251666.202846.402665.253558.50333.202846 1.056994.30427 1.560325.152134.402664-.152134.754995-.507115.956328-.912808.301998-.65925.452997-1.470636.201332-2.129887-.201332-.608539-.65433-1.064943-1.207994-1.26779-1.00666-.405692-2.063655-.253557-3.070316-.05071-2.868984.608538-5.43597 2.028463-7.952622 3.499099-.352332.202846-.754996.405692-1.056994.65925-.151.152135-.301999.354981-.251666.60854.050333.507115.251666.96352.402665 1.419924.805329 2.535579.956328 5.274004.452997 7.911007-.754995 4.107638-3.12065 7.911007-6.44263 10.345163-3.170983 2.383444-7.197627 3.4991-11.123605 3.19483-2.415987-.202847-4.78164-.912809-6.895629-2.129887-1.962989-1.115655-3.674313-2.637002-5.033305-4.46262-1.459659-1.977751-2.516653-4.310484-2.96965-6.693928-.50333-2.53558-.402665-5.223294.251665-7.708161.704663-2.637003 2.113988-5.12187 4.026644-7.099622 2.365654-2.53558 5.536636-4.209062 8.959284-4.868312 2.063655-.405693 4.227976-.405693 6.291631 0 1.81199.35498 3.523314 1.014232 5.083639 1.977752.151.101423.352331.050711.452997-.050712 2.415987-1.977752 4.831974-4.056927 6.643964-6.592506.65433-.912809 1.207993-1.92704 1.459658-3.042695.100666-.456404.100666-.96352-.050333-1.419924-.151-.507116-.603997-.912809-1.056994-1.166367-.603997-.30427-1.358993-.405693-2.013322-.253558-.452998.152135-.80533.557828-1.006661.96352-.201333.456405-.352332.96352-.151 1.419925.050333.101423.100667.202846.251666.152134.352331-.152134.754995-.253557 1.107327-.202846.603997.101423 1.006661.709962.956328 1.26779 0 .405692-.251665.709962-.50333 1.014231-.503331.507116-1.15766.862097-1.862324.862097-.603996 0-1.207993-.30427-1.610657-.760673-.50333-.557828-.754996-1.318502-.905995-2.079175-.201333-1.26779.100666-2.637003.855662-3.701946.50333-.65925 1.207993-1.166366 2.013322-1.419924 1.258326-.405693 2.717985-.30427 3.925978.253558.956328.456404 1.761657 1.166366 2.214654 2.079174.452998.862097.603997 1.825618.50333 2.789138-.100665 1.115654-.50333 2.129886-1.00666 3.093406-.553664 1.014232-1.207994 1.977752-1.96299 2.89056-.754995.91281-1.560324 1.825618-2.31532 2.789138 8.808285-5.831833 17.666902-11.663665 26.575852-17.495497zM26.317571 34.321114c-3.12065.253558-6.0903 1.62277-8.355287 3.752657-1.761657 1.62277-3.070316 3.752657-3.77498 6.034678-.805328 2.53558-.855661 5.324717-.150998 7.860296.603996 2.23131 1.81199 4.361196 3.422647 6.034679 1.459659 1.521347 3.271649 2.738425 5.234638 3.499099 2.516653.96352 5.28497 1.115655 7.851956.557827 2.31532-.507115 4.429309-1.673482 6.190966-3.24554 1.560324-1.419925 2.81865-3.19483 3.62398-5.172583 1.056994-2.58629 1.358992-5.527562.805329-8.265988-.452998-2.079175-1.358993-4.056927-2.667652-5.730409-1.409326-1.774905-3.271649-3.245541-5.335304-4.15835-2.164321-.96352-4.529975-1.369213-6.845295-1.166366z"/>
      <path d="M26.419177 46.049067c.699426-.107846 1.452654-.053923 2.098279.323535.699426.377458 1.183644 1.078452 1.398852 1.833368.161406.808839.107604 1.6716-.322812 2.372594-.430416.754916-1.237446 1.294142-2.15208 1.401987-.538021.053923-1.129843 0-1.667863-.21569-.80703-.377458-1.452655-1.132374-1.667863-1.995136-.215208-.808839-.107604-1.725523.376614-2.426516.430416-.647071 1.183645-1.132375 1.936873-1.294142z"/>
    </g>
  </g>
</svg>
