<svg width="80" height="80" xmlns="http://www.w3.org/2000/svg" xmlns:xlink="http://www.w3.org/1999/xlink">
  <defs>
    <path id="a" d="M.00009.00003h61.96564v47.727864H.00009z"/>
  </defs>
  <g fill="none" fill-rule="evenodd">
    <circle fill="#FFF" cx="40" cy="40" r="40"/>
    <g transform="translate(9 16)">
      <mask id="b" fill="#fff">
        <use xlink:href="#a"/>
      </mask>
      <path d="M30.947409 37.948641c.066362-.107444.104372-.164026.137709-.223152 1.967799-3.476027 3.933728-6.953325 5.907447-10.425855.09191-.162119.05203-.266701-.024302-.4018-1.86218-3.285935-3.721869-6.573458-5.58218-9.860345-.134905-.23841-.27199-.475868-.427458-.747338-.0701.109351-.118703.177695-.16014.25049-1.959076 3.461086-3.91597 6.923444-5.880654 10.381351-.09596.168795-.058884.279417.023678.425325 1.777438 3.133986 3.551136 6.270198 5.32577 9.405457.217467.384635.436803.768.68013 1.195867m8.754462-15.468715c.075397-.123974.121508-.195497.163568-.269563.596322-1.052503 1.192332-2.105643 1.78803-3.158464 1.989297-3.51449 3.977035-7.030251 5.971317-10.541563.094713-.167205.092533-.285457-.00187-.449483-.628411-1.094146-1.251527-2.19147-1.863115-3.295788-.10811-.195815-.230241-.257166-.445528-.25653-2.470965.00763-4.94224.00763-7.413517-.000318-.21591-.000636-.33586.063894-.444593.257484-1.240312 2.208953-2.486231 4.414092-3.742744 6.613192-.117457.20535-.106241.345536.004362.54008 1.639105 2.88286 3.270734 5.769854 4.904543 8.655575.350502.61955.701628 1.238464 1.079547 1.905378m-17.509859-.01049c.066673-.1049.114342-.173245.155467-.245722.395679-.695523.790423-1.392 1.184543-2.088477 1.563709-2.763338 3.127106-5.526993 4.69206-8.289695.066674-.117298.109046-.211391.026794-.356027-1.286422-2.260768-2.566301-4.525033-3.843377-6.791205-.078512-.139232-.171668-.188186-.327758-.187868-2.521437.004133-5.042875.004769-7.564312-.000953-.170422-.000318-.259528.059443-.341779.20694-.615015 1.101457-1.233145 2.201325-1.864362 3.293245-.113718.196768-.125246.334729-.008412.540398 2.49994 4.40233 4.990845 8.810066 7.484242 13.21653.126804.224105.257658.445986.406894.702834m-9.01804 15.930914c.058573-.085828.095025-.13192.123688-.182464 2.062201-3.64355 4.122533-7.287735 6.188784-10.928742.084432-.148768.0539-.248582-.020251-.379231-2.595588-4.581616-5.188372-9.164822-7.782402-13.747391-.040191-.070888-.088794-.136689-.148613-.22792-.079759.133827-.139266.229191-.194724.327099-2.02388 3.574887-4.04589 7.151046-6.076 10.722437-.103125.181828-.080382.306755.013709.472688 2.16408 3.815842 4.323487 7.634543 6.483829 11.452292.462663.817271.92595 1.633907 1.41198 2.491232m35.599528.109986c.06013-.09886.092844-.149721.12213-.201854 2.60213-4.59751 5.202704-9.195655 7.81013-13.789987.093468-.164344.074463-.275602-.01028-.424688-2.064383-3.64196-4.125026-7.28551-6.186915-10.92906-.03988-.07057-.086925-.136689-.145186-.228238-.05608.088053-.090663.137006-.11995.18882-2.603065 4.597193-5.204573 9.19502-7.812 13.789352-.092533.163708-.068854.277828.015266.42596 1.803297 3.179444 3.602543 6.36143 5.402724 9.542464.299096.528317.599437 1.055682.92408 1.627231m-.02025 9.21759c-3.01401-5.326729-6.012131-10.625166-9.046081-15.986225-2.925216 5.168741-5.82613 10.294887-8.754774 15.469669-2.923347-5.164928-5.822704-10.287577-8.755397-15.469352a906183.734306 906183.734306 0 0 0-8.994362 15.89404c-.239276-.420238-.458301-.802967-.675769-1.186967C8.37754 39.116217 4.228836 31.783025.075148 24.452694c-.098141-.173245-.101568-.296583-.001246-.473325 3.781065-6.671046 7.556834-13.345271 11.332914-20.019178.702875-1.242596 1.408864-2.482967 2.105196-3.72906.091598-.164026.188181-.230463.378543-.230146 4.28205.005722 8.563789.005722 12.845527-.000953.191609-.000318.287257.068662.378543.230463 1.221307 2.169219 2.449156 4.334623 3.675759 6.500663.042372.075337.08786.14845.159517.269245.067608-.109987.120885-.190729.168553-.274967 1.222242-2.158729 2.445729-4.316186 3.660804-6.479047.103437-.184053.217468-.246675.423096-.246357 4.264603.006357 8.528894.006993 12.793497.000318.200332-.000318.303458.065801.400975.23841 3.995106 7.069987 7.994885 14.13743 11.99404 21.205192.501608.886252.998855 1.775365 1.508252 2.656848.090975.157351.087236.270834-.001558.427232-4.337508 7.65584-8.670342 15.314543-13.004422 22.97261-.037387.066118-.079448.129694-.13989.227284" fill="#FB0044" mask="url(#b)"/>
    </g>
  </g>
</svg>
