<svg width="80" height="80" xmlns="http://www.w3.org/2000/svg" xmlns:xlink="http://www.w3.org/1999/xlink">
  <defs>
    <path id="a" d="M0 0h35.835793v43.956447H0z"/>
  </defs>
  <g fill="none" fill-rule="evenodd">
    <circle fill="#1D62F0" cx="40" cy="40" r="40"/>
    <g transform="translate(22 18)">
      <mask id="b" fill="#fff">
        <use xlink:href="#a"/>
      </mask>
      <path d="M15.965 7.874928c1.125333 2.071797 2.142 3.951736 3.167111 5.827208.811111 1.48394 1.662667 2.946213 2.440222 4.44735.684223 1.321117.659334 2.579026-.292222 3.852122-2.060444 2.756589-4.030889 5.581523-6.050444 8.369604-.258445.35669-.616.639675-.883111.991005-.590667.776142-.380445 1.264386.594444 1.420731.181111.029036.369333.017198.554444.017198 2.925334.000894 5.85089.016305 8.776223-.00402 2.202-.015635 2.952222-.647716 3.42711-2.818457.150667-.689035.270223-1.384995.389112-2.080508.231778-1.353949.94-2.054152 2.291111-2.10865 1.070444-.043553 2.150444-.041096 3.216889.050925 1.491333.128426 2.258667.987878 2.239555 2.508-.047333 3.79405-.245555 7.589441-.18511 11.381035.062222 3.887858-.89489 4.253929-4.319778 4.22668-9.368-.074599-18.737334-.023898-28.106-.025238-2.39-.000224-2.887112-.756934-3.171778-3.115066-.397334-3.29263 1.519333-5.40731 3.243778-7.695087.736666-.977604 1.446888-1.97531 2.166-2.966314 1.576666-2.172752 3.150444-4.348183 4.727777-6.520711.61089-.841584.626445-1.653239.094-2.581706-1.672666-2.916954-3.283555-5.869868-4.922-8.8067C4.334556 10.401913 3.361 8.524877 2.249444 6.734725 1.351 5.287639 1.158334 3.755455 1.309 2.132146 1.419667.93901 2.095889.237466 3.275889.059232c.436222-.065888.886222-.055167 1.329778-.05539C13.122777.000268 21.639889-.001072 30.157.000715c2.306222.000446 2.99.716954 3.031333 3.05208.054667 3.084691.156667 6.168488.216445 9.253179.026444 1.353279-.759778 2.259634-2.104667 2.34272-1.180222.072813-2.370222.053828-3.552889.004244-1.087333-.04534-1.817778-.656426-2.036889-1.725604-.166444-.811431-.224-1.651452-.263333-2.482091-.091111-1.929523-.672222-2.524975-2.557556-2.556467-1.847777-.0306-3.695555-.076386-5.543333-.102295-.386-.00536-.773111.047574-1.381111.088447" fill="#FFF" mask="url(#b)"/>
    </g>
  </g>
</svg>
