<?xml version="1.0" encoding="UTF-8"?>
<svg width="140px" height="140px" viewBox="0 0 140 140" version="1.1" xmlns="http://www.w3.org/2000/svg" xmlns:xlink="http://www.w3.org/1999/xlink">
    <!-- Generator: Sketch 49.3 (51167) - http://www.bohemiancoding.com/sketch -->
    <title>monero_original</title>
    <desc>Created with Sketch.</desc>
    <defs>
        <circle id="path-1" cx="70" cy="70" r="70"></circle>
    </defs>
    <g id="Page-1" stroke="none" stroke-width="1" fill="none" fill-rule="evenodd">
        <g id="monero_original">
            <mask id="mask-2" fill="white">
                <use xlink:href="#path-1"></use>
            </mask>
            <use id="Mask" fill="#FF5700" xlink:href="#path-1"></use>
            <path d="M70,109.26756 C91.8152476,109.26756 109.5,91.5828078 109.5,69.7675602 C109.5,59.2448986 105.385378,49.6832583 98.6772855,42.6037896 C96.9196538,40.7488513 78.535474,66.8460706 70,66.8460706 C62.2580468,66.8460706 43.40912,40.3613931 41.088426,42.8531907 C34.5189426,49.9070382 30.5,59.367962 30.5,69.7675602 C30.5,91.5828078 48.1847524,109.26756 70,109.26756 Z" id="Oval-5" fill="#3D3D3D" mask="url(#mask-2)"></path>
            <path d="M45.8507756,46.1576344 C47.0991447,47.3173565 48.5831446,48.8536311 50.204692,50.5696143 C57.2883206,57.5477322 64.8441847,63.8574219 70,63.8574219 C81.6670812,63.8574219 106.521561,30.0862584 108.823261,32.4665532 C118.218851,42.1829714 124,55.4163559 124,70 C124,99.8233765 99.8233765,124 70,124 C40.1766235,124 16,99.8233765 16,70 C16,55.3757732 21.8133685,42.1093314 31.2552601,32.3855198 C32.2677504,31.3427982 38.4095476,38.4408375 45.8507756,46.1576344 Z M45.8507756,46.1576344 C44.0178224,44.4548397 42.6928517,43.563832 42.1863338,44.1076952 C35.8663246,50.893675 32,59.9953233 32,70 C32,90.9868205 49.0131795,108 70,108 C90.9868205,108 108,90.9868205 108,70 C108,59.8769331 104.04163,50.6783932 97.5882746,43.867765 C95.8973884,42.0832674 78.211342,67.1894531 70,67.1894531 C65.3926653,67.1894531 56.6964195,57.4394081 50.204692,50.5696143 C48.7240088,49.1109859 47.263959,47.6231518 45.8507756,46.1576344 Z" id="Combined-Shape" fill="#FFFFFF" mask="url(#mask-2)"></path>
            <polygon id="Path-8" fill="#FFFFFF" mask="url(#mask-2)" points="12 24.8255441 69.7460329 82.5715769 127.938669 24.3789407 117.052252 13.4925239 69.8644959 60.6802803 22.1842155 13"></polygon>
        </g>
    </g>
</svg>