<svg width="80" height="80" viewBox="0 0 80 80" xmlns="http://www.w3.org/2000/svg">
  <title>
    xmr-monero
  </title>
  <g fill="none" fill-rule="evenodd">
    <path d="M65.907 52.105v-33.32l-25.963 25.74-25.964-25.74v33.32H2.107c.963 2.844 2.223 5.555 3.777 8.07h16.79V39.21L34.01 50.45h.002l5.968 5.918 5.967-5.918L57.272 39.21v20.965h16.73c1.556-2.515 2.816-5.226 3.778-8.07H65.907z" fill="#FFF"/>
    <path d="M34.01 50.45L22.675 39.21v20.965H5.844c7.013 11.404 19.674 19.023 34.134 19.023s27.122-7.62 34.13-19.023H57.272V39.21L45.947 50.45l-5.967 5.915-5.97-5.916z" fill="#4C4C4C"/>
    <path d="M39.943 0C17.886 0 0 17.732 0 39.6c-.007 4.248.682 8.473 2.038 12.505H13.98v-33.32l25.963 25.74 25.965-25.74v33.32h11.94c1.354-4.035 2.043-8.257 2.04-12.506C79.888 17.73 62 0 39.943 0" fill="#FA6800"/>
  </g>
</svg>
