<svg width="80" height="80" xmlns="http://www.w3.org/2000/svg">
  <g fill="none" fill-rule="evenodd">
    <circle fill="#FFF" cx="40" cy="40" r="40"/>
    <path d="M76.574055 39.50853c.131213-3.783547-.53239-7.432054-1.87501-10.96598.027408-.274858-.05824-.51084-.248037-.710673-.544722-2.40824-1.930166-4.448867-2.937046-6.654885-2.754444-4.27495-6.238269-7.880148-10.223648-11.024295-.483056-.288839-.967139-.576655-1.44951-.866516-2.229935-1.340185-4.426296-2.749595-6.999851-3.385245-3.069287-1.467041-6.335565-2.090414-9.710787-2.245576-.631056-.3434-1.328917-.26258-2.00314-.290543-1.93325-.08082-3.856907.048424-5.77474.301797-4.243694.561309-8.317463 1.662442-12.089407 3.73376-.915408.34306-1.739.912553-2.719843 1.094996-.127102.179714-.213435.437861-.387472.527548-2.254945 1.163198-4.220398 2.713106-5.951861 4.53753-1.355297 1.427825-2.597537 2.961705-3.889797 4.448525-.308675.472986-.580694.974618-.931509 1.413844-1.59237 1.992884-2.660231 4.251419-3.534185 6.631695.654352.31578 1.286778.172895 1.896935.174259 6.319463.012276 12.639269.033078 18.95839-.009549 1.665-.011253 3.010703.45048 3.970647 1.842157.065435.268378.054472.568129.400148.82764.91164-.574949 1.7575-1.319041 2.760269-1.822036 2.995287-1.502507 5.921028-1.183318 8.816963.274516.81126.986553 1.714676 1.896719 2.462898 3.134599 1.498157-1.532857 3.183028-2.62683 4.923398-3.642369 1.92263-.541189 3.859648-.906756 5.87889-.684415 3.413592.376139 5.70862 2.481558 6.468832 5.808148.54301 2.37482-.037342 4.607438-.604675 6.857106-.587547 2.329465-1.213463 4.649723-1.848288 7.071944 1.722899.068203 3.250862.110489 4.780195-.017732 2.055555.119014 4.111111.115262 6.166324.00341h5.336222c.298056-2.238415.60776-4.284157.358695-6.36366M59.241268 54.172467c-1.19462-.022165-2.388556-.062064-3.583176-.062064-1.252519 0-2.510861.073318-3.642445-.617917-1.193935-1.16354-1.516315-2.524526-1.098352-4.142636.207269-.802406.558426-1.593899.49025-2.457005 1.09664-3.078673 1.969565-6.22623 2.582806-9.426986.510806-2.66707-.611185-3.904608-3.31938-4.030101-.225083-.004775-.458046-.049788-.674222-.007844-2.86613.55483-4.074796 2.647632-4.772657 5.175226-1.05176 3.809125-2.069945 7.627115-3.104917 11.441014-.704713 2.596138-2.113796 3.812193-4.756556 4.112968-1.513916-.208019-2.65749-.904028-3.195703-2.399714-.11237-1.667558.245639-3.257365.703685-4.852627.797898-2.777558 1.557768-5.568074 2.23062-8.377346.337797-1.40941.707111-2.903733-.484426-4.17401-1.712277-1.408727-4.139203-1.298239-5.85936.28236-1.035316.951088-1.620806 2.16612-2.056584 3.480728-.730408 2.20329-1.036343 4.529346-1.966139 6.674323-.10449.241097.0555.42695.273389.547327-.14663.293954-.465583.512203-.397065.899936-.595426 1.341548-.834213 2.789493-1.24875 4.18458-.882176 2.967844-3.794213 4.776922-6.898787 2.942268-1.132954-1.341549-1.196676-2.846102-.782481-4.47683.87738-3.453106 1.969907-6.85165 2.662287-10.352157.626601-1.270958.845518-2.643198 1.131926-4.097622-1.653695-.096507-3.185084-.102986-4.718186-.000682H3.485694c-.172325 1.206166-.474149 2.245576-.350473 3.333751-.145944 2.170894-.282296 4.341788.208982 6.492904.318268 4.414765 1.58963 8.544101 3.75036 12.407106 1.083621 2.49929 2.586575 4.725428 4.425955 6.732295 2.273101 3.043207 5.151564 5.433373 8.32363 7.470248 5.415703 3.476977 11.316175 5.52954 17.803166 5.752904 3.561592.233935 7.09201.108101 10.541574-.924148.448796-.072295.90924-.102304 1.344676-.222682 6.646296-1.835336 12.358342-5.242746 17.087148-10.23212 2.272074-2.396986 4.309815-4.985622 5.666139-8.03599.685528-.89141 1.175093-1.864664 1.365917-3.043208H63.001907c-1.253547-.103668-2.507436-.108783-3.76064.003751" fill="#02A9A6"/>
    <path d="M10.313838 18.009007c1.29226-1.48682 2.5345-3.0207 3.889796-4.448525 1.731806-1.824424 3.696917-3.374332 5.952204-4.53753.173694-.089687.260028-.347834.38713-.527548.981185-.182443 1.804435-.751936 2.719842-1.094996.398778.015687.774945.07366 1.15351.246894 5.415703 2.477807 10.818046 4.986304 16.269037 7.385337 2.847972 1.253226 5.603101 2.733567 8.595648 3.65328.016444.106738.015759.213476-.002741.319872-2.865445 1.37258-5.687722 2.846101-8.61038 4.084663-2.194305.930286-4.26699 2.103715-6.484935 2.986258-1.235389.491742-2.57013.923807-3.50849 1.985042-.960288-1.392018-2.305991-1.854092-3.970991-1.842498-6.31912.042627-12.638926.021825-18.95839.009549-.609814-.001364-1.242583.14152-1.896934-.174258.874296-2.380277 1.941814-4.638811 3.534185-6.631696.351157-.439226.623176-.940857.931509-1.413844" fill="#FCCC12"/>
    <path d="M48.188888 75.702647c-3.449565 1.032249-6.979982 1.158083-10.541574.924148-.186713-.438544-.57213-.681005-.924658-.968139-3.01824-2.460755-6.028601-4.9314-9.038963-7.401364-2.44337-2.00482-4.932305-3.958488-7.309212-6.038332-1.778741-1.556387-3.925084-2.699124-5.341362-4.664728 2.45776.03376 4.768547.848443 7.13038 1.366443 7.599732 1.666193 15.178222 3.429576 22.778639 5.095087 2.360805.517318 4.68324 1.269595 7.130037 1.347687l-.02124-.004433c.041796.185852.154508.308617.333342.372387.066805.428654-.201445.756368-.354926 1.112046-1.27376 2.955908-2.558824 5.9067-3.840463 8.859198" fill="#CC1684"/>
    <path d="M61.290382 10.152697c3.98538 3.144147 7.469204 6.749345 10.223649 11.024295 1.00688 2.206018 2.392324 4.246645 2.937046 6.654885-1.72187-.189945-3.228935-1.02884-4.823019-1.599014-4.644527-1.66176-9.25788-3.412526-13.923648-5.012562-1.973333-.676913-3.878833-1.595945-5.974472-1.90047l-.139778.02353c.112713-.607005.195278-1.221171.34362-1.81931.960973-3.876304 1.936334-7.749198 2.906899-11.623115 2.573898.63565 4.770259 2.04506 7.000194 3.385245.48237.289861.966111.577677 1.44951.866516" fill="#1FAAE1"/>
    <path d="M52.072312 65.363312c-2.446796-.078092-4.769574-.830368-7.130037-1.347686-7.600417-1.66517-15.178907-3.428553-22.778982-5.095088-2.361833-.518-4.67262-1.332682-7.130036-1.366101l.006166.001705c-.126074-.315438-.39775-.345447-.684842-.34613-.02364-.106054-.037-.213133-.040426-.321916 1.423814-1.12671 2.532102-2.622055 4.149139-3.523355 3.104574 1.834654 6.01661.025917 6.898787-2.941926.414537-1.395088.653324-2.843032 1.249092-4.18458 2.518398 1.839769 5.037139 3.679538 7.55588 5.519308.53787 1.495687 1.681787 2.191355 3.195704 2.399373 1.480342 1.133871 2.965824 2.260922 4.440342 3.402636 3.399204 2.632286 6.976213 5.033023 10.269213 7.80376" fill="#EA1176"/>
    <path d="M55.704342 21.220096c4.665768 1.600378 9.27912 3.351143 13.92399 5.012562 1.593741.570516 3.100806 1.40907 4.822676 1.599355.189797.199834.275787.435475.248037.710673-2.475574 4.145023-4.866527 8.33847-7.412333 12.444276-.958917 1.546157-2.16176 3.025816-2.573898 4.881954-1.529333.128221-3.057296.085595-4.780195.017392.634825-2.422221 1.261084-4.741797 1.848287-7.071604.567334-2.249668 1.147686-4.482286.605019-6.857106-.760556-3.32693-3.055583-5.43201-6.469176-5.808147-2.01924-.222341-3.95626.142885-5.878889.684414.128472-2.513953-.450167-4.999262-.30799-7.513898 2.095638.304525 4.001138 1.223216 5.974472 1.900129z" fill="#02A9A6"/>
    <path d="M52.072312 65.363312c-3.293-2.770737-6.87001-5.171474-10.269213-7.80376-1.474518-1.141714-2.96-2.268765-4.440342-3.402636 2.642759-.300774 4.051842-1.51683 4.756555-4.112968 1.034972-3.813557 2.052815-7.631889 3.104574-11.440672.697861-2.527595 1.906528-4.620397 4.773-5.175226.215833-.041945.448796.003069.67388.007843-.022269 4.500019.563222 8.9673.736574 13.456747.068518.863447-.28264 1.65494-.489908 2.457345-.417963 1.61777-.095925 2.978756 1.09801 4.142295-.164787 3.53529.457703 7.038525.441601 10.569042-.002055.435133.189454.870949.291547 1.306765-.091472.038875-.187056.0607-.286408.065815-.137037-.025235-.274074-.049788-.41111-.075023l.02124.004433z" fill="#8F9990"/>
    <path d="M15.033188 57.5543c1.416278 1.965604 3.56262 3.108342 5.341361 4.664729 2.376908 2.079843 4.865843 4.03317 7.309213 6.03799 3.010361 2.470304 6.020722 4.94095 9.038963 7.401705.352185.287134.737944.529595.924657.968139-6.48699-.223364-12.387463-2.275927-17.803509-5.752904-3.171722-2.036875-6.050185-4.427041-8.323287-7.470248.78625-.9013.958917-2.080526 1.434778-3.122323.425157-.930627.436805-2.074728 1.396065-2.735613.229537.00341.458731.007161.687926.010571l-.006167-.002046z" fill="#B9214B"/>
    <path d="M52.46225 65.433766c.099353-.004774.194936-.02694.286066-.065816.205555-.109124.410768-.218249.616324-.327032.534102.07093.995231-.13436 1.46801-.347493 4.494814-2.023235 8.977295-4.074433 13.503286-6.025714 1.281639-.552443 2.48688-1.37224 3.950778-1.455788-1.355982 3.050368-3.394065 5.639004-5.665796 8.036331-4.729149 4.989033-10.441195 8.396443-17.087491 10.23212-.435093.120037-.89588.150046-1.344676.222341 1.281981-2.952497 2.567046-5.90329 3.840463-8.859198.153481-.356018.421731-.683392.354926-1.112046.064065-.089346.090102-.18858.07811-.297705" fill="#0E7392"/>
    <path d="M18.463465 53.364877c-1.617037.9013-2.725324 2.396305-4.14914 3.523355-.555342-.28577-.703-.865152-.952407-1.356553-1.423814-2.804838-2.823648-5.621954-4.243694-8.428838-.223028-.44059-.350815-.972913-.910611-1.158424-.00137-.116286-.003083-.23223-.004796-.348517.591314.052176.73212-.462755.980157-.806838 1.479657-2.052903 2.887028-4.160369 4.427667-6.166553 1.01613-1.323475 1.638278-2.970572 3.135065-3.913134 1.269648 1.209917 2.082963 2.845079 3.597564 3.826857-.69238 3.500166-1.784907 6.89871-2.662287 10.352157-.414194 1.630387-.350472 3.13494.782482 4.476488" fill="#EF5B28"/>
    <path d="M64.71295 45.868746c.411797-1.856139 1.614982-3.335798 2.573557-4.881613 2.545805-4.105807 4.937101-8.299595 7.412675-12.444618 1.34262 3.533926 2.006223 7.182433 1.87501 10.965982-.221658.245189-.42276.495493-.68039.722608-1.900018 1.674037-3.588657 3.544157-5.014184 5.64105-2.055556.111853-4.111111.115946-6.166667-.00341" fill="#0A8FA4"/>
    <path d="M16.745808 34.709546c-1.496787.942562-2.118935 2.589318-3.135065 3.913133-1.540638 2.006185-2.948009 4.113309-4.428009 6.166212-.247694.344083-.3885.859014-.979815.806839-.115796-.108784-.23125-.217567-.347046-.326691-1.306648-2.665705-2.897648-5.154083-4.720583-7.49753-.123676-1.088175.178148-2.127586.350472-3.333751h13.271352c-.000685.09071-.004454.181078-.011306.271788" fill="#F79922"/>
    <path d="M72.286782 57.211786c-1.463898.083549-2.669481.903346-3.950777 1.455788-4.525991 1.951622-9.008815 4.00282-13.503287 6.025714-.47312.213134-.933908.418765-1.46801.347494.12676-.230867.253519-.461392.380278-.691917 1.035657-.475033 1.37825-1.586397 2.150454-2.322305 2.560537-2.440977 4.746963-5.229106 7.106398-7.85764h10.650861c-.190824 1.178203-.680389 2.151456-1.365917 3.042866" fill="#0F6089"/>
    <path d="M34.167018 51.757577c-2.51874-1.83977-5.037481-3.67954-7.55588-5.519309-.068518-.387732.250436-.606322.397066-.900276.64613-.301457 1.029833-.889705 1.466296-1.39918 2.72875-3.182682 5.43112-6.38753 8.142398-9.585217 1.191537 1.270277.82188 2.7646.484426 4.17401-.672852 2.809272-1.433065 5.599788-2.23062 8.377345-.458047 1.594922-.816056 3.184728-.703686 4.852627" fill="#8F9990"/>
    <path d="M8.20775 45.944348c.559796.185512.687583.717835.910269 1.158424 1.420046 2.806885 2.81988 5.624 4.244037 8.42918.249407.491401.397064 1.070443.952064 1.356212.003426.108783.01713.215862.040426.321917a3.66055 3.66055 0 0 0-.003083.335899c-.95926.660544-.970907 1.804645-1.396065 2.735272-.475861 1.041797-.64887 2.221023-1.43512 3.122322-1.839037-2.006866-3.341991-4.232663-4.425611-6.731954.132583-.371364.386102-.745115.378222-1.11341-.066463-3.230083.871213-6.381733.734861-9.613862" fill="#AB2026"/>
    <path d="M53.744952 64.348762c-.12676.230526-.253519.461392-.380278.691917-.205556.109125-.410768.21825-.616324.327374-.10175-.435816-.293602-.871632-.291546-1.306765.016444-3.530517-.60639-7.033752-.44126-10.5687 1.131584.690893 2.389926.617916 3.642445.617916 1.19462 0 2.388898.039899 3.583176.062406-.086676.264967-.127787.556875-.26688.791152-1.465268 2.470304-2.926426 4.943677-4.436574 7.3867-.39124.633263-.834898 1.209917-.79276 1.998" fill="#02A9A6"/>
    <path d="M36.61683 34.353527c-2.711278 3.197687-5.413649 6.402535-8.142398 9.585217-.436463.509474-.820167 1.097723-1.466297 1.39918-.217889-.120378-.37788-.30589-.273389-.546987.929797-2.145318 1.235732-4.471032 1.96614-6.674322.435777-1.314609 1.021268-2.52964 2.056583-3.480728 1.720157-1.5806 4.147083-1.691088 5.85936-.28236m-5.942508-6.291944c.938704-1.061235 2.273102-1.4933 3.508491-1.9847 2.218287-.882544 4.29063-2.056313 6.484935-2.986258 2.922658-1.238903 5.744935-2.712424 8.61038-4.085005.022611.108102.035972.217226.039398.327374-2.222056 2.669456-4.444111 5.339253-6.666167 8.00871-2.895935-1.458176-5.821333-1.777024-8.816963-.274858-1.002768.502995-1.84863 1.247429-2.759926 1.822378-.345676-.259853-.335055-.559263-.400148-.82764" fill="#F6A822"/>
    <path d="M42.65153 27.3416c2.222055-2.669455 4.44411-5.339253 6.666166-8.008709l.136352-.000682.13601.011254.139777-.02353c-.141833 2.514636.436806 4.999944.308333 7.513898-1.740712 1.015199-3.42524 2.109512-4.92374 3.642028-.748222-1.23754-1.65164-2.147705-2.462898-3.134258" fill="#8F9990"/>
    <path d="M8.20775 45.944348c.136352 3.23213-.801324 6.38378-.734861 9.613862.00788.368295-.245639.742046-.378222 1.11341-2.161074-3.863004-3.432436-7.99234-3.750361-12.407447.64887-.146295 1.193592.223023 1.773601.382618.904787.24928 1.750306.735908 2.738.62235.115797.108783.23125.217908.347047.326691.001713.116286.003083.23223.004796.348516" fill="#D12134"/>
    <path d="M51.407374 46.892776c-.173352-4.489788-.758843-8.956728-.736574-13.457087 2.708537.125493 3.830528 1.363373 3.31938 4.0301-.612899 3.200757-1.486167 6.348655-2.582806 9.426987" fill="#02A9A6"/>
    <path d="M53.744952 64.348762c-.042139-.788083.401518-1.364737.79276-1.998 1.510147-2.443023 2.971305-4.916396 4.436573-7.3867.139093-.234277.180204-.526185.26688-.791152 1.253546-.112876 2.507092-.108102 3.760981-.004092-2.359777 2.628534-4.546203 5.416663-7.10674 7.85764-.772204.736249-1.114797 1.847272-2.150454 2.322304" fill="#0A8FA4"/>
    <path d="M70.879446 45.872088c1.42587-2.096553 3.11451-3.966673 5.014528-5.641051.25763-.227115.458732-.477078.680046-.722608.249065 2.079502-.060639 4.125585-.358694 6.363659h-5.33588z" fill="#0F6089"/>
    <path d="M7.855805 45.26897c-.987695.113558-1.833213-.372728-2.738-.622009-.58001-.159935-1.12439-.528912-1.773602-.382617-.491278-2.151115-.354926-4.32201-.208982-6.492903 1.822935 2.343447 3.413935 4.831824 4.720584 7.49753" fill="#ED4826"/>
    <path d="M16.745808 34.709546c.006852-.09071.01062-.181079.011306-.271788 1.533102-.102646 3.06449-.095825 4.718185.000682-.286407 1.454424-.505324 2.826663-1.132268 4.097622-1.51426-.981438-2.327574-2.61694-3.597223-3.826516" fill="#F6A822"/>
    <path d="M49.281073 18.685886c-2.992546-.919715-5.747676-2.400056-8.595648-3.653281-5.45099-2.399033-10.853333-4.90753-16.269037-7.385337-.378907-.173235-.754732-.231207-1.15351-.246894 3.771945-2.071318 7.846056-3.172451 12.089408-3.73342 1.917833-.253713 3.84149-.382958 5.77474-.302137.674566.027963 1.372084-.052858 2.00314.290543.805777 2.657521 2.152509 5.094406 3.15836 7.670424.963029 2.467235 2.298455 4.784424 2.992547 7.360102" fill="#DFE125"/>
    <path d="M49.281073 18.685886c-.694092-2.575678-2.029518-4.892867-2.992546-7.360102-1.005852-2.576018-2.352584-5.012903-3.158361-7.670424 3.375222.155162 6.6415.778535 9.710787 2.245576-.970565 3.873917-1.946269 7.746811-2.907241 11.623116-.148.598138-.230907 1.212304-.34362 1.819308l-.13601-.011253-.136694.000682c-.003426-.110147-.016444-.219272-.039056-.327032.018158-.106397.019186-.213134.002741-.319871" fill="#AACE3C"/>
  </g>
</svg>
