<?xml version="1.0" encoding="UTF-8"?>
<svg width="140px" height="140px" viewBox="0 0 140 140" version="1.1" xmlns="http://www.w3.org/2000/svg" xmlns:xlink="http://www.w3.org/1999/xlink">
    <!-- Generator: Sketch 49.3 (51167) - http://www.bohemiancoding.com/sketch -->
    <title>monero_zero</title>
    <desc>Created with Sketch.</desc>
    <defs>
        <circle id="path-1" cx="70" cy="70" r="70"></circle>
    </defs>
    <g id="Page-1" stroke="none" stroke-width="1" fill="none" fill-rule="evenodd">
        <g id="monero_zero">
            <mask id="mask-2" fill="white">
                <use xlink:href="#path-1"></use>
            </mask>
            <use id="Mask" fill="#00953D" xlink:href="#path-1"></use>
            <polygon id="Path-7" fill="#3D3D3D" mask="url(#mask-2)" points="12.8779297 110.354492 43.7529297 111.475586 63.5507812 98.7177734 55.2910156 58.6220703 68.2958984 33.9208984 83.0351563 54.3056641 78.2148438 98.7177734 99.5224609 110.354492 137.214844 108.314453 112.620117 143.962891 35.5380859 146.470703"></polygon>
            <path d="M3,90.9365234 C11.9557292,99.195638 22.5413411,103.325195 34.7568359,103.325195 C43.7386068,103.325195 50.6119792,101.749023 55.3769531,98.5966797 C49.8326823,94.5888672 47.0605469,82.616862 47.0605469,62.6806641 C47.0605469,32.7763672 60.9306641,27 69.9599609,27 C78.9892578,27 93.2363281,33.75 93.2363281,62.6806641 C93.2363281,81.9677734 90.4192708,93.9397786 84.7851562,98.5966797 C88.9238281,101.749023 95.8382161,103.325195 105.52832,103.325195 C117.955404,103.325195 128.597982,99.195638 137.456055,90.9365234 C135.375977,100.660482 133.226562,106.876628 131.007812,109.584961 C127.679688,113.647461 122.230469,118.728516 105.52832,118.728516 C94.3935547,118.728516 82.5374349,115.295247 69.9599609,108.428711 C60.757487,115.295247 49.023112,118.728516 34.7568359,118.728516 C20.4905599,118.728516 9.90494792,114.129557 3,104.931641 L3,90.9365234 Z M70,90 C75.4511719,90 77,79.9264069 77,67.5 C77,55.0735931 76.0517578,43 70,43 C63.9482422,43 63,55.0735931 63,67.5 C63,79.9264069 64.5488281,90 70,90 Z" id="Combined-Shape" fill="#FFFFFF" mask="url(#mask-2)"></path>
        </g>
    </g>
</svg>