<svg width="80" height="80" viewBox="0 0 80 80" xmlns="http://www.w3.org/2000/svg" xmlns:xlink="http://www.w3.org/1999/xlink">
  <title>
    xnk-ink-protocol
  </title>
  <defs>
    <path id="a" d="M0 .173178h53.977601v59.651895H0z"/>
    <path id="c" d="M.040648.07074h27.02377v26.86793H.040648z"/>
    <path id="e" d="M0 .13144h26.961835v26.632303H0z"/>
  </defs>
  <g fill="none" fill-rule="evenodd">
    <circle fill="#FFF" cx="40" cy="40" r="40"/>
    <g transform="translate(13 10.001749)">
      <mask id="b" fill="#fff">
        <use xlink:href="#a"/>
      </mask>
      <path d="M43.261414 38.750379c.819897.385714 1.633544.785248 2.450315 1.178134-.816771-.392886-1.630418-.79242-2.450315-1.178134m10.62984 4.811895C53.803741 43.3814 28.271812.646006 28.015355.197668c-.16061.196618-.17346.308221-.17346.419825.000348 8.58105.00191 17.162099.003126 25.743148.000173.145365-.054174.330613.014238.427697.125016.177726.322958.303499.490514.450962 1.552804.626764 2.604155 1.728105 2.859396 3.40933.113035.74554-.074836 1.537434-.126232 2.308338-.877543 1.675102-2.190212 2.702449-4.12119 2.80933-1.78582-.126298-3.085292-1.010205-3.94825-2.573703-.595042-1.721983-.492077-3.366822.801318-4.716735.600077-.626239 1.431955-1.026997 2.200978-1.559475V.173178c-.158354.221108-.231975.30997-.29049.40793-8.04218 13.4407-16.08436 26.8814-24.121157 40.325423-.48843.81691-.931543 1.661282-1.395839 2.49306-.557363.61347.15193.657377.404913.808689 7.275762 4.350787 14.559338 8.688455 21.846733 13.0193 1.487518.884082 2.99535 1.732478 4.493981 2.597493.330424-.159359.675087-.294228.989363-.48105 6.536779-3.885306 13.070431-7.77621 19.604258-11.666764 1.987234-1.183032 3.977247-2.36169 5.95198-3.565539.169814-.103382.679602-.07347.391717-.549446" fill="#203D62" mask="url(#b)"/>
    </g>
    <path d="M13.20829 53.401376c.464296-.831778.907583-1.676151 1.396014-2.493061C22.640927 37.46429 30.68328 24.023592 38.725288 10.582892c.058514-.09796.132134-.186647.290488-.40793V36.91817c-.769022.532303-1.6009.933236-2.200804 1.559475-1.293569 1.349913-1.396533 2.994753-.801492 4.716735-1.544816.716152-3.085987 1.440175-4.635318 2.146356-2.547897 1.16134-5.103955 2.30414-7.651157 3.467055-2.703647 1.234636-5.394097 2.498134-8.104862 3.716677-.77892.350204-1.607846.587755-2.413852.87691" fill="#4182B1"/>
    <g transform="translate(39.913183 42.888047)">
      <mask id="d" fill="#fff">
        <use xlink:href="#c"/>
      </mask>
      <path d="M4.169824.07074c.347267.7793 1.187827.754811 1.801447 1.070554 1.709595.879184 3.461557 1.677901 5.213344 2.470846 1.435602.64968 2.906103 1.221166 4.341184 1.871895 1.467029.664898 2.904366 1.395394 4.364276 2.076735 1.950946.91067 3.908315 1.808046 5.870026 2.695452.389807.176326.811215.281632 1.217865.41965.288058.476151-.221904.446064-.391543.54962-1.974907 1.20385-3.96492 2.382333-5.952155 3.56554-6.533826 3.890554-13.067305 7.781283-19.604257 11.666589-.314277.186997-.658765.321866-.989363.48105C.043252 18.919137.04603 10.899778.048635 2.88007c1.930804-.10688 3.243472-1.134402 4.12119-2.80933" fill="#162944" mask="url(#d)"/>
    </g>
    <g transform="translate(13 43.062974)">
      <mask id="f" fill="#fff">
        <use xlink:href="#e"/>
      </mask>
      <path d="M26.961835 2.705143c-.002604 8.019708-.005382 16.039067-.007987 24.0586-1.498456-.86484-3.006463-1.71341-4.493807-2.597317-7.287395-4.330846-14.571145-8.668514-21.846733-13.0193-.252984-.151313-.962276-.19522-.405087-.808689.80618-.28933 1.634933-.526705 2.414026-.87691 2.710592-1.218542 5.401215-2.48204 8.104862-3.716676 2.547029-1.162915 5.103086-2.305889 7.650984-3.467055 1.54933-.70618 3.090675-1.43038 4.635492-2.146356.862958 1.563499 2.16243 2.44723 3.94825 2.573703" fill="#2E4C68" mask="url(#f)"/>
    </g>
    <path d="M41.015426 10.199417c-.160611.196793-.17346.308221-.17346.419825.000347 8.58105.001736 17.1621.003125 25.743149.000174.145364-.054173.330612.014238.427696.125016.177726.322785.303499.490341.450963 1.552978.626763 2.604328 1.728104 2.85957 3.409329.113035.74554-.07501 1.537434-.126232 2.308338.347267.7793 1.187826.754986 1.801447 1.070554 1.709595.879359 3.461556 1.678076 5.213344 2.47102 1.435601.64968 2.906103 1.220992 4.341183 1.87172 1.467029.664899 2.90454 1.39557 4.364103 2.076735 1.951119.91067 3.908489 1.808047 5.8702 2.695452.389806.176327.811215.281808 1.217864.419825-.087511-.180874-25.619267-42.916268-25.875723-43.364606" fill="#203D62"/>
  </g>
</svg>
