<svg width="80" height="80" xmlns="http://www.w3.org/2000/svg">
  <g fill="none" fill-rule="evenodd">
    <circle fill="#FFF" cx="40" cy="40" r="40"/>
    <path d="M19.670102 59.863132l-.565986.849902h-.015306s.061224.054976.016326 0h8.222109c1.188435-1.213902 3.493877-3.585024 3.493877-3.585024s2.193198-2.410049 3.556803-3.39722c2.382993 2.353366 4.679252 4.621366 7.069388 6.982244h8.062925L34.318742 45.1464l-14.64864 14.716732zm26.885714-40.863269v7.502293c-.443197-.373902-7.20102-7.157756-7.482993-7.502293h-8.503401c1.72347 1.716537 22.50204 21.96361 22.791496 22.13639V25.023279h5.080613l.289455 29.146293c-.497619-.45483-34.929932-34.152488-35.984693-35.169708h-7.482994C25.56432 29.266985 57.526905 60.500985 57.74051 60.670351c1.172109 0 5.884694-.034146 7.182653-.053268v-41.61722H46.555816zm-31.555782 7.772732v8.149366c2.262245 2.17717 4.665306 4.489561 7.168708 6.898927-2.460205 2.535366-4.758844 4.889414-7.168708 7.372878v7.796975c15.213265-15.04078.013946 0 15.22721-15.04078l-15.22721-15.177366z" fill="#00ACF2"/>
  </g>
</svg>
