<svg width="80" height="80" xmlns="http://www.w3.org/2000/svg" xmlns:xlink="http://www.w3.org/1999/xlink">
  <defs>
    <path id="a" d="M.096348.029314h42.905101V26.57143H.096348z"/>
    <path id="c" d="M0 .0624h11.86229v6.767713H0z"/>
  </defs>
  <g fill="none" fill-rule="evenodd">
    <circle fill="#FFF" cx="40" cy="40" r="40"/>
    <path d="M38.747044 39.073371V27.069943c-.073334-.024286-.146957-.048857-.22058-.073143-.19913.180286-.432464.334857-.592174.544571-2.895362 3.801715-5.772174 7.617143-8.68029 11.409715-.474493.618571-.606667 1.123714-.042319 1.754.410435.458571.723478 1.001714 1.174493 1.642-4.851884 1.958857-9.624638 3.886-14.397391 5.813143-.043769-.056-.087826-.111715-.132174-.167429.083768-.148286.152174-.307714.253043-.443429 1.714783-2.298 3.415073-4.607428 5.165797-6.878857.40174-.521428.366377-.872-.003768-1.368571-2.955362-3.965143-5.888985-7.945429-8.828406-11.922-.77739-1.052286-1.550724-2.107429-2.404347-3.268.29971-.044857.471884-.092857.644347-.093143 1.883768-.005429 3.768406.02 5.651595-.018286.550434-.011428.76058.32 1.013623.659429 2.412753 3.238286 4.824348 6.477143 7.234203 9.717143.615652.827714.744058.830571 1.349855.000285 2.323478-3.184285 4.653623-6.363714 6.96058-9.559428.301449-.417429.635652-.579714 1.144057-.579429 10.072174.009715 20.144348.007143 30.216232.009143 1.489855.000286 2.793334.480286 3.834203 1.548.596812.612572.547247.846-.22029 1.178857-1.693913.734286-3.390434 1.463429-5.10029 2.160286-.31942.13-.705797.135429-1.061739.137143-5.264927.027428-10.529855.044-15.794782.063428-1.108406.004286-1.155073.046572-1.156812 1.114858-.003188 1.809428.012464 3.619142-.017391 5.428285-.004348.260857-.148116.666-.343768.754572-1.805508.818571-3.637102 1.582-5.645508 2.440285" fill="#000"/>
    <g transform="translate(26.811594 29.349714)">
      <mask id="b" fill="#fff">
        <use xlink:href="#a"/>
      </mask>
      <path d="M42.937217.029314c.024058.250286.056232.433143.056522.616.003189 2.427429.017391 4.855143-.002898 7.282857-.02145 2.59-1.71913 4.866858-4.229566 5.588286-.67942.195143-1.433623.185429-2.153623.187143-5.722319.013714-11.444638.007429-17.166956.007714-1.424058.000286-1.424928.000857-1.424928 1.371429-.00029 3.498571.00087 6.996857-.002319 10.495428-.00029.303429-.030724.606858-.049275.950572-.263478.016-.473623.039714-.683478.04-3.38029.002286-6.76058.008286-10.14087-.011143-.271884-.001714-.654783-.104286-.797681-.296-2.068696-2.778857-4.105217-5.580857-6.146667-8.379143-.03942-.054-.044927-.131714-.09913-.302286.972174-.425428 1.947536-.858 2.927826-1.278857.616522-.264857 1.266087-.466 1.853333-.782285.495363-.266572.684348-.010858.926667.32C7.314609 17.8996 8.83026 19.95617 10.35229 22.007886c.397681.536571.824348 1.052285 1.237681 1.577428.082609-.035714.164928-.071428.247536-.107143.033334-.289142.095363-.578571.096232-.868.007247-3.07.02-6.140285-.008406-9.210285-.005797-.627429.226957-.918286.808986-1.147715 3.105217-1.224 6.189855-2.498 9.290145-3.734.321449-.128285.69826-.168285 1.049855-.169428 4.249275-.011143 8.49884-.021714 12.748406.006857.714492.004857.986087-.174.95855-.916286-.053333-1.45-.005217-2.903428-.02058-4.354857-.004637-.438286.14-.673714.58174-.845714C38.95171 1.611314 40.538667.927886 42.137507.273314c.23942-.098.497102-.153143.79971-.244" fill="#00B000" mask="url(#b)"/>
    </g>
    <g transform="translate(10 49.064)">
      <mask id="d" fill="#fff">
        <use xlink:href="#c"/>
      </mask>
      <path d="M11.86229.0624c-1.647246 2.284286-3.157391 4.392-4.693044 6.481714-.11768.160286-.412174.271715-.626087.273715-2.023768.019428-4.047536.011714-6.071594.004571-.109565-.000286-.21855-.064857-.471594-.145429.95884-1.212285 1.543478-2.577714 3.112464-3.173714C5.798232 2.483543 8.435333 1.339543 11.095333.252971c.170435-.069428.36087-.091428.766957-.190571" fill="#00B000" mask="url(#d)"/>
    </g>
  </g>
</svg>
