<svg width="80" height="80" viewBox="0 0 80 80" xmlns="http://www.w3.org/2000/svg">
  <title>
    xpm-primecoin
  </title>
  <g fill="none" fill-rule="evenodd">
    <circle fill="#000" cx="40.5" cy="40.5" r="37.5"/>
    <path d="M39.973894 74.893386c19.13649.040007 34.851472-15.558164 34.915879-34.656018.065905-19.42861-15.524112-35.071281-35.000615-35.118777-19.009815-.046426-34.735281 15.706213-34.771871 34.83188-.036805 19.223652 15.603498 34.902908 34.856607 34.942915m.006847 5.10661C17.988712 80.009196.000641 62.173393 0 40.357818-.000642 17.705084 17.70241.002568 40.358626 0c21.769492-.002353 39.647792 17.983852 39.641372 39.88051-.00642 22.352787-17.719528 40.110287-40.019257 40.119486" fill="#FFE500"/>
    <path d="M34.633519 50.671168v-1.474773l-.000642-18.34304c0-.07104-.000428-.142294-.000856-.213334-.024599-3.676373-.995508-4.887893-4.58909-5.655466v-1.20512h19.239572v1.17888c-.070589.044586-.125776.10688-.187808.11456-2.89262.363093-3.862032 1.314346-4.286845 4.23808-.07123.49088-.128984.989013-.129625 1.483733-.009198 6.25664-.007487 12.513067-.00492 18.769707.000214.2784.035936.557013.054331.826453 3.733904.45824 8.040642-2.157653 8.279573-5.957973.142887-2.27072-.291765-4.578987-.484065-6.868694-.186738-2.22208-.680855-4.461013-.536256-6.659413.309732-4.7072 3.771337-7.812693 8.522566-8.03264 3.972407-.183893 7.859252 3.691947 7.659038 7.729707-.031658.634453-.3677 1.619413-.806631 1.780053-.606203.221867-1.521284-.036693-2.15893-.36736-.55829-.289493-.947594-.93888-1.35722-1.470933-1.383101-1.796694-3.99508-2.2592-5.79294-.889814-.423103.322347-.841926 1.109334-.740108 1.566934.2477 1.114453.728128 2.198826 1.254118 3.224106.500107.975147 1.209412 1.84064 1.770909 2.787414 2.967059 5.002453 1.619465 9.84128-3.51401 12.602666-3.31444 1.782827-6.930054 2.298027-10.628236 2.410454-1.691337.051413-1.512086-.14592-1.52278 1.586133-.006846 1.066453.025026 2.133547-.007274 3.199147-.018395.609493.229733.817066.817327.802133 1.02738-.026453 2.056042-.007467 3.15786-.007467v1.68896h-3.83893c-.13476 2.56832.410267 4.652587 4.712513 5.024214v1.193173H29.846353v-.88256c1.334545-.591147 2.799358-.86272 3.654973-1.731413.767059-.779094.863957-2.214827 1.333476-3.58528h-4.115936v-1.70688c1.05476 0 2.075936-.021547 3.095615.00832.594867.01728.831444-.204374.81968-.804267-.025027-1.279147-.04385-2.560853.008983-3.838293.0323-.78016-.313583-.884694-1.005775-.96128-2.610053-.28864-5.258182-.477227-7.79508-1.097387-1.714653-.4192-3.37861-1.33056-4.871016-2.314453-4.383744-2.890027-4.087487-8.014294-2.337326-11.0528.691123-1.2 1.494331-2.33536 2.223743-3.514454.334973-.54144.661176-1.097173.912085-1.68064 1.134974-2.64128-.75508-3.61472-2.7523-3.709866-1.588234-.075734-2.827165.715093-3.821817 1.986773-.502246.64192-1.185669 1.2448-1.918289 1.58208-1.120428.51584-1.9677-.057387-2.095829-1.300053-.068235-.66048-.054973-1.362347.092406-2.006614.789947-3.450453 3.695615-6.189226 6.570054-6.261546 4.482139-.112854 8.108235 2.336 9.259037 6.264533.681926 2.327893.279145 4.64512-.06738 6.968747-.31401 2.105386-.647914 4.212906-.829518 6.331733-.326417 3.808213 1.767914 6.72 5.467807 7.70624.90738.24192 1.852835.34176 2.959573.53888" fill="#FFE500"/>
  </g>
</svg>
