<svg width="80" height="80" viewBox="0 0 80 80" xmlns="http://www.w3.org/2000/svg">
  <title>
    Group 31
  </title>
  <g fill="none" fill-rule="evenodd">
    <circle fill="#1277A8" cx="40" cy="40" r="40"/>
    <path d="M43.425 18.25c-3.055 1.795-4.863 5.035-4.863 8.452 0 1.795.72 3.603 1.623 5.216.72 1.442 1.073 3.957-1.442 5.216-1.794 1.074-4.142.358-5.216-1.44-1.074-1.442-2.334-2.883-3.956-3.957-3.054-1.794-6.657-1.794-9.71 0-3.056 1.795-4.86 5.043-4.86 8.46 0 3.42 1.795 6.658 4.858 8.457 3.054 1.795 6.657 1.795 9.712 0 1.623-.902 2.882-2.333 3.775-3.956.72-1.26 2.7-2.882 5.216-1.44 1.796 1.073 2.335 3.42 1.443 5.215-.902 1.622-1.442 3.422-1.442 5.216 0 3.42 1.796 6.656 4.864 8.45 3.055 1.795 6.658 1.795 9.713 0C56.19 60.347 58 57.107 58 53.69c0-3.418-1.8-6.658-4.863-8.457-1.623-.902-3.422-1.26-5.398-1.26-1.623 0-3.776-1.074-3.776-3.775 0-2.162 1.623-3.775 3.775-3.775 1.794 0 3.774-.358 5.397-1.26C56.19 33.37 58 30.128 58 26.713c0-3.418-1.8-6.658-4.863-8.453C51.697 17.358 49.9 17 48.28 17c-1.614-.01-3.423.358-4.854 1.25" fill-rule="nonzero" fill="#FFF"/>
  </g>
</svg>
