<svg width="80" height="80" xmlns="http://www.w3.org/2000/svg">
  <g fill="none" fill-rule="evenodd">
    <circle fill="#FFF" cx="40" cy="40" r="40"/>
    <path d="M59.903004 21.239132c-.509437-.033956-.82761-.073653-1.145947-.073817-12.166373-.003937-24.33291-.00443-36.499283-.004921-.190447-.000164-.381057.004593-.571504.005741-.588326.003445-.71491.27952-.471053.788694.790043 1.649893 1.542847 3.319634 2.391853 4.938196.185057.352517.675874.639911 1.08388.762776 4.299424 1.29311 8.610607 2.54718 12.918687 3.81142 4.854593 1.424668 9.708697 2.850485 14.564107 4.271873 1.33084.38959 2.666253.762776 3.998563 1.147609.894577.25836.950273.36925.560723 1.18304-2.840693 5.933578-5.686776 11.864695-8.526326 17.798764-1.614714 3.374259-3.218974 6.753275-4.831074 10.128846-.21168.443394-.441163.878094-.66297 1.316567-.47628.942562-1.18286 1.599698-2.28242 1.58477-1.12014-.015091-1.85416-.664845-2.329623-1.654322-1.371837-2.854914-2.757067-5.703432-4.128577-8.558675-3.132733-6.521817-6.260893-13.04593-9.389053-19.56988-.12642-.263445-.234547-.535911-.34055-.779672.102737-.089728.152553-.161085.179993-.153375 1.64297.4721 3.293617.9214 4.916824 1.454688.30037.09875.563173.50294.71932.826586 3.311583 6.860063 6.605363 13.728985 9.903553 20.595445.103063.21489.216907.424366.413233.807066.24745-.411735.442144-.682397.58359-.97865 2.621337-5.494775 5.23467-10.993488 7.853884-16.489249.645656-1.354624 1.28233-2.714498 1.970616-4.046978.31654-.612517.174767-.84299-.46452-1.02983-5.09208-1.487987-10.171746-3.018296-15.26301-4.508908-4.489706-1.314435-8.985456-2.608694-13.48823-3.877199-.807356-.22752-1.27596-.662384-1.621573-1.429425-1.07653-2.38954-2.229827-4.74414-3.353887-7.112026-.478076-1.007028-.79625-2.024719-.439203-3.160681.480527-1.528833 1.325123-2.181703 2.93608-2.182031 10.152147-.001149 20.30462-.000165 30.456767 0 3.946623 0 7.89978.137627 11.837746-.046915 2.882507-.135003 4.117797 2.641337 3.15413 4.770549-1.249173 2.760757-2.61905 5.466233-3.92245 8.202548-.232423.488177-.54341.61383-1.047946.452253-.828917-.265413-1.67188-.486536-2.50586-.73653-.97853-.293628-.986534-.302814-.562194-1.199445.980817-2.07311 1.972904-4.140643 2.95666-6.212278.13622-.286574.251044-.583482.447044-1.042624" fill="#E3A534"/>
  </g>
</svg>
