<svg width="80" height="80" viewBox="0 0 80 80" xmlns="http://www.w3.org/2000/svg">
  <title>
    xspec-spectrecoin
  </title>
  <g fill="none" fill-rule="evenodd">
    <circle fill="#FFF" cx="40" cy="40" r="40"/>
    <g fill="#197DD2">
      <path d="M38.677877 5c-1.003632 1.44738-1.819642 2.673715-2.70207 3.85089-.157367.21018-.583096.2499-.896216.311705-12.99064 2.56257-21.64486 10.06593-25.27626 22.745013-5.02514 17.544886 7.0376 35.921043 25.15292 38.75364.38295.059846.7743.08318 1.14883.175444.54711.134835 1.48683.222468 1.55092.49481.23829 1.014376.20213 2.095725.21018 3.152493.00054.06911-.50002.22407-.75514.201272-5.68253-.507277-11.02742-2.12369-15.7867-5.27369C9.89642 61.847837 4.26832 51.159212 5.07627 37.532902 6.04284 21.225395 18.171813 8.228194 34.43437 5.50033c1.33108-.223358 2.683636-.31972 4.243508-.50033m2.69774 69.614377c.82138-1.192138 1.618414-2.40262 2.48509-3.561273.17509-.234046.603682-.33005.93399-.392035 11.981456-2.25408 20.333477-9.0024 24.56427-20.34863C76.245284 31.84491 63.57206 11.41132 43.94449 8.9957c-1.808183-.222468-1.808183-.222468-1.998848-2.057965-.003043-.029567-.00734-.058956-.010205-.088524-.158978-1.69139.00734-1.85669 1.687697-1.67821 15.42596 1.63779 27.980846 13.27097 30.78389 28.52402 3.25849 17.72942-7.83266 35.20555-25.36041 39.84015-2.487954.65797-5.076343.93922-7.618184 1.39484-.017724-.10509-.03527-.21035-.052814-.31562"/>
      <path d="M46.057972 64.06511c-.306496-1.20995-.49-2.264403-.840358-3.26061-1.496496-4.254327-4.34197-7.54789-7.760154-10.36873-2.24716-1.854376-4.68606-3.47916-6.929463-5.33781-2.687212-2.226464-4.909846-4.852087-6.153196-8.177176-1.11695-2.987023-1.02869-5.874835.76929-8.604122.71218-1.08135 1.44458-2.149695 2.30929-3.434097.24205 1.09631.36934 1.905674.60136 2.684046 1.20146 4.02955 3.67527 7.2442 6.76082 9.98988 1.86208 1.65685 3.90031 3.12204 5.90005 4.61947 2.78658 2.08682 5.33057 4.40021 7.15146 7.39649 1.45407 2.39211 2.36246 4.95807 1.86064 7.79636-.4533 2.56453-1.98596 4.58367-3.66972 6.69631"/>
      <path d="M52.28996 54.633438c-1.054835-6.42397-5.156906-10.793537-10.003556-14.641934-1.86243-1.479084-3.84051-2.815496-5.679488-4.32112-2.062225-1.68837-3.795218-3.689516-5.06578-6.048142-2.086573-3.87369-2.250026-7.686998.426803-11.38738.5045-.697506 1.02493-1.383434 1.54572-2.069007.06355-.083537.17419-.131272.34946-.258092.45759 3.875827 2.32342 7.00855 4.73135 9.853435 2.10483 2.48687 4.59547 4.561222 7.27677 6.41257 3.30718 2.28346 6.36928 4.832316 8.39928 8.362774.68729 1.195165 1.21847 2.51626 1.59389 3.843588.63734 2.25229.43056 4.481247-.81028 6.52603-.79274 1.306667-1.65709 2.57023-2.48939 3.853028l-.27481-.12575z"/>
      <path d="M36.851146 69.419415c-11.324246-.54967-26.39734-10.723893-26.7767-28.87598-.368262-17.618448 13.667186-28.38028 24.833707-29.701196-.199437.65422-.331202 1.33106-.62266 1.93168-.13051.26877-.55785.47183-.888874.55697-6.84121 1.7589-12.34525 5.47229-16.30213 11.29244-9.29998 13.67868-4.54427 32.17631 10.23772 39.72046 2.15138 1.09791 4.52135 1.89766 6.88291 2.41918 1.66299.36692 2.05811 1.42369 2.63601 2.65644m8.04235-.26841c.1946-.65761.32816-1.33018.60547-1.93738.11332-.24776.5181-.42944.8255-.51387 10.51163-2.88105 17.43429-9.48901 20.26688-19.95659 4.089-15.10967-5.94714-30.74443-21.37256-33.65362-1.21005-.22817-1.61466-.68201-2.18343-2.44947 4.79259-1.06887 15.90935 4.89983 20.66738 11.47288 7.262452 10.032795 8.111583 20.778063 2.52519 31.81081-4.70772 9.297533-14.063018 14.477-21.334426 15.22723"/>
      <path d="M27.970974 56.959913c1.5656-2.305725 3.108645-4.577964 4.787034-7.049872 1.851867 1.50741 3.744552 2.81995 5.34775 4.41944 1.500434 1.49743 2.891124 3.18135 3.9823 4.99049 2.36335 3.91769 2.322354 7.87937-.442378 11.67077-.520255.71372-1.045703 1.42369-1.719028 2.33957-1.224194-7.591-6.275294-12.14741-11.955678-16.37039M39.886926 6.70986c1.182302 7.27537 5.886087 11.773715 11.347877 15.89089-1.5511 2.299314-3.086266 4.57476-4.70862 6.979518-.959948-.71567-1.87299-1.35956-2.745574-2.05404-2.53791-2.01967-4.76627-4.317556-6.29463-7.20733-1.10658-2.09216-1.75502-4.30901-1.35417-6.68901.44864-2.66285 2.02302-4.741473 3.75511-6.920023"/>
    </g>
  </g>
</svg>
