<svg width="80" height="80" xmlns="http://www.w3.org/2000/svg">
  <g fill="none" fill-rule="evenodd">
    <circle fill="#00ADE4" cx="40" cy="40" r="40"/>
    <path d="M44.323822 63.270533c-.021608-.03553-.043217-.070762-.06453-.105995 3.245161-6.480469 6.490322-12.961234 9.786396-19.543256.163102.215838.313475.36269.40287.540631 1.453411 2.896789 2.901494 5.796242 4.341288 8.69984.089987.181198.100051.402069.144453.593036-4.915843 3.30241-9.763012 6.55893-14.610477 9.815744m-4.430386 1.041588c-4.05978-8.101474-8.119266-16.202949-12.194144-24.334919.293642-.62442 10.746654-21.525472 11.891918-23.788366.10538-.20814.16547-.478456.514762-.53471.08525.126128.192998.253144.26552.397924 3.9843 7.965872 7.965934 15.93293 11.958225 23.921303-4.081982 8.134635-8.147092 16.235517-12.2122 24.3364-.074596.000888-.149486.00148-.22408.002368m-4.218443-1.049286c-4.829112-3.24734-9.657928-6.494385-14.492664-9.74587-.160438-.235675-.069563-.448552.047953-.681858 1.191738-2.368297 4.054157-8.128122 4.31435-8.628783.0965-.185934.23296-.351144.413823-.618203 3.29785 6.599491 6.545083 13.097133 9.792316 19.594774-.025457.026646-.050618.053293-.075778.07994m-14.546538-36.44198c-.03049-.061287-.019833-.143003-.037594-.292225 1.116551-.899769 13.273694-8.980814 14.611365-9.847423-.068675.240708-.083771.360914-.134981.463356-3.13771 6.264039-6.278379 12.526597-9.421416 18.787675-.041145.08231-.118404.146853-.165766.203996-.058314-.00385-.082883-.001777-.105675-.007698-.023385-.005922-.05269-.013916-.065715-.031088-.074002-.097409-.158661-.190376-.212831-.298443-1.491892-2.991236-2.98112-5.983953-4.467387-8.97815m37.831891-.180309c-.37386.77453-4.314942 8.801394-4.866705 9.646981-.973874-1.673706-9.043114-17.820697-9.840862-19.577304.790643.34611 14.330746 9.49391 14.707567 9.930323m3.72233 26.959024c-1.252716-2.507452-5.626564-11.206403-6.552484-13.052425-.202471-.40355-.166358-.79111.041145-1.198508.803668-1.578075 5.154132-10.293015 6.532356-13.068709.126692-.25492.181454-.54596.28121-.85743-.259602-.188007-.471545-.350552-.692073-.499773-.837117-.566094-19.756319-13.333695-21.657-14.611551-.2152-.144484-.487234-.204883-.750091-.311174C32.255187 15.138957 24.655714 20.256598 17 25.411839c.129357.35144.21224.655212.348108.93293.637902 1.303317 5.66623 11.411582 6.509266 13.07996.195663.386968.186487.746994-.004144 1.129522-.593204 1.191106-5.015894 10.03987-6.635366 13.273-.094132.188007-.120477.410358-.197735.686003C20.841029 57.136174 36.144169 67.40195 40.002664 70c7.58556-5.102244 15.113102-10.16511 22.637091-15.232122.117517-.079052.198327-.212581.360245-.391706-.114852-.283639-.198623-.538855-.317323-.776602" fill="#FFF"/>
  </g>
</svg>
