<svg width="80" height="80" xmlns="http://www.w3.org/2000/svg" xmlns:xlink="http://www.w3.org/1999/xlink"><defs><path id="a" d="M0 .063h59.75V60.97H0z"/><path id="c" d="M.213.255h3.921v.841H.213z"/></defs><g fill="none" fill-rule="evenodd"><circle fill="#FFF" cx="40" cy="40" r="40"/><g transform="translate(10 9.774)"><mask id="b" fill="#fff"><use xlink:href="#a"/></mask><path d="M45.282 57.617l-.134-.222-3.492 1.6.109.235 3.517-1.613M43.39 39.18l-.539-.644c-2.197-2.64-5.868-2.922-8.435-.647-2.26 2.001-2.53 5.372-.687 7.796 1.936 2.547 5.658 2.745 7.84 1.255 1.402-.956 2.15-2.305 2.447-3.93.377-2.063.726-4.132 1.104-6.195.583-3.18 1.186-6.357 1.768-9.537.063-.346.2-.516.569-.564 2.42-.307 4.63.128 6.514 1.768.18.156.388.278.642.458 0-.868-.509-1.867-1.242-2.56-1.901-1.794-4.29-2.034-6.735-2.055-.167-.001-.434.274-.489.467-.151.534-.21 1.092-.313 1.639-.745 3.978-1.491 7.956-2.24 11.933-.04.218-.107.432-.204.816M28.356 53.16l.136-.249c-.417-.475-.841-.945-1.25-1.428-1.65-1.95-2.76-4.18-2.99-6.715-.571-6.27 2.08-11.13 6.905-14.955 1.681-1.333 3.467-2.529 4.862-4.2 1.707-2.046 3.004-4.28 3.071-6.988.132-5.337-3.64-10.766-10.31-10.92-5.767-.133-10.633 2.053-14.713 6-2.805 2.713-4.614 6.02-5.647 9.796-1.241 4.533-1.09 8.995.378 13.419.878 2.644 2.252 5.052 3.99 7.233 3.257 4.086 7.42 6.855 12.458 8.299 1.02.292 2.073.475 3.11.708m19.29.349c1.744-.73 3.093-2.078 4.647-3.105l.15.15-1.119 1.246.062.074 1.044-.463c.093.916-.033 1.62-.857 2.084-.478.27-.884.665-1.335.993l1.341-1.209-.28-.31a59648.3 59648.3 0 0 1-4.897 3.616l.097.246 1.164-.142c-.374.305-.604.537-.874.705-1.86 1.16-3.901 1.892-6 2.48-.161.046-.378.09-.507.021-.667-.36-1.24-.006-1.849.172-1.713.502-3.43.961-5.249.897-1.42-.05-2.844.003-4.266-.019-2.257-.034-4.49-.37-6.539-1.295-2.56-1.154-5.063-2.453-7.523-3.81-2.887-1.594-5.289-3.811-7.524-6.206-.273-.293-.603-.556-.466-1.053.034-.122-.098-.32-.2-.446-.589-.72-1.103-1.469-1.97-1.977-.574-.338-.94-1.096-1.295-1.725-.882-1.56-1.925-3.061-2.314-4.845C.68 37.729.359 35.852 0 33.983c.712-1-.046-2.1.236-3.17.273-1.039.195-2.168.292-3.255.17-1.898.293-3.803.925-5.627 1.344-3.876 3.164-7.488 5.818-10.665 1.434-1.717 2.862-3.423 4.638-4.81 2.287-1.788 4.8-3.182 7.496-4.242C22.462 1.012 25.59.101 28.922.064c3.068-.033 6.058.337 8.904 1.548.195.083.355.258.554.319.143.043.334-.006.485-.063.233-.087.47-.34.672-.308 1.499.234 2.885.59 3.93 1.916.761.968 1.855 1.606 3.152 1.965.945.26 1.744 1.04 2.608 1.588.54 1.632 2.137 2.332 3.178 3.526 2.93 3.36 5.132 7.113 6.296 11.386 1.303 4.785 1.398 9.629.26 14.501-.747 3.195-2.047 6.114-3.777 8.881-1.879 3.006-4.302 5.492-7.133 7.607-.18.135-.354.279-.531.418l.125.162" fill="#000" mask="url(#b)"/></g><path d="M69.325 49.442c.194 2.09-4.793 9.321-6.283 9.185 2.203-2.956 4.642-5.694 6.283-9.185M25.604 67.333c.654.315 1.29.672 1.965.935.731.286 1.501.473 2.246.727.38.13.743.31 1.058.594-1.99-.218-3.825-.795-5.269-2.256" fill="#000"/><g transform="translate(43.62 9.003)"><mask id="d" fill="#fff"><use xlink:href="#c"/></mask><path d="M.26.364C1.33.066 3.354.4 4.133 1.096L.213.591.259.364" fill="#000" mask="url(#d)"/></g><path d="M34.986 23.95c-3.211.004-5.755 2.567-5.745 5.786.01 3.117 2.536 5.659 5.648 5.683 3.197.025 5.833-2.528 5.832-5.649-.002-3.218-2.569-5.823-5.735-5.82m3.37 38.985c-1.037-.233-2.09-.416-3.11-.708-5.037-1.444-9.201-4.213-12.457-8.298-1.739-2.182-3.113-4.59-3.99-7.234-1.47-4.424-1.62-8.885-.38-13.418 1.034-3.776 2.843-7.084 5.648-9.797 4.08-3.946 8.946-6.132 14.713-6 6.67.154 10.442 5.583 10.31 10.92-.067 2.707-1.364 4.942-3.07 6.988-1.396 1.671-3.182 2.867-4.863 4.2-4.825 3.825-7.476 8.685-6.905 14.955.23 2.536 1.34 4.765 2.99 6.715.409.483.833.953 1.25 1.429l-.136.248" fill="#FFF"/><path d="M53.39 48.954c.097-.384.163-.597.204-.815.749-3.978 1.495-7.956 2.24-11.934.102-.547.162-1.105.313-1.638.055-.194.322-.47.49-.468 2.444.021 4.833.262 6.734 2.056.733.692 1.243 1.69 1.242 2.559-.254-.18-.463-.302-.642-.458-1.885-1.64-4.094-2.075-6.514-1.767-.369.047-.506.217-.569.564-.582 3.18-1.184 6.356-1.768 9.536-.379 2.063-.727 4.132-1.104 6.196-.297 1.624-1.045 2.973-2.447 3.93-2.182 1.489-5.904 1.291-7.84-1.255-1.842-2.425-1.572-5.796.687-7.797 2.567-2.274 6.238-1.992 8.435.647l.539.644M55.282 67.392l-3.517 1.612-.109-.235 3.492-1.6.134.223" fill="#FFF"/><path d="M34.986 23.95c3.166-.003 5.733 2.602 5.735 5.82.001 3.12-2.635 5.674-5.832 5.65-3.112-.025-5.638-2.567-5.648-5.684-.01-3.22 2.534-5.782 5.745-5.785" fill="#000"/></g></svg>