<svg width="80" height="80" viewBox="0 0 80 80" xmlns="http://www.w3.org/2000/svg" xmlns:xlink="http://www.w3.org/1999/xlink">
  <title>
    xtz-tezos
  </title>
  <defs>
    <path id="a" d="M.000033 0h39.871342v53.86376H.000033z"/>
  </defs>
  <g fill="none" fill-rule="evenodd">
    <circle fill="#000" cx="40" cy="40" r="40"/>
    <g transform="translate(18 13)">
      <mask id="b" fill="#fff">
        <use xlink:href="#a"/>
      </mask>
      <path d="M.04294 14.098194c-.062884-1.169815-.045768-2.201196-.017303-3.317753 2.877582-.108 5.655814.010206 8.459163-.069773.05972-.18631.143628-.327711.144372-.469485.004837-1.015237-.006325-2.030845-.013953-3.046082-.006698-.896474-.04335-1.794062-.01321-2.689237.018977-.56765-.107907-1.027299-.56614-1.389155-.217116-.17165-.398139-.388948-.595348-.58565-.876465-.874391-.928744-1.064597-.637768-2.463401.245954-.017444.514605-.051031.783442-.052516 1.30214-.007051 2.604838.012619 3.906419-.014288.642047-.013361 1.221023.120247 1.774512.441278.452279.262206.928186.484144 1.47014.763237v9.470412c.369673.02301.641115.055114.912371.054928 6.914047-.010948 13.828093-.020598 20.74214-.050103.408558-.00167.693767.081279.97507.386165.585674.635196 1.216372 1.229567 1.893395 1.905588-2.136186 2.260948-4.409675 4.343752-6.589395 6.518783-2.168187 2.16297-4.352559 4.309608-6.643535 6.575938.26586.026722.37414.067547.463255.041939 1.619535-.465217 3.177489-.218042 4.727814.342742 2.104745.761381 4.024558 1.817443 5.448372 3.571422 1.403535 1.729114 2.325582 3.714867 2.784559 5.902145.633674 3.021588.57972 6.01998-.362791 8.974577-.839442 2.63097-2.226047 4.899526-4.566698 6.47165-1.720372 1.155525-3.64093 1.86365-5.674976 2.212886-2.560373.439423-5.109582.368907-7.647442-.272227-3.743442-.945463-6.224-4.342639-6.629768-7.476494-.092651-.71629-.044837-1.427196.17693-2.109897.549396-1.692557 1.980652-2.510908 3.828652-2.45598.306976.009279.617488.066804.917395.139361 2.224186.539072 2.839628 2.733402 2.624744 4.234083-.189581 1.32402-.888 2.282103-2.165023 2.928618.371535.561712.884837.897217 1.455442 1.083711.879442.287258 1.776186.572104 2.688.701073 2.007256.283546 3.952.094082 5.728-1.029155 1.246883-.78866 2.15107-1.851588 2.736186-3.189526.624-1.427752.921116-2.932144 1.118511-4.475505.234233-1.834515.074605-3.638783-.228837-5.436742-.205953-1.221031-.595349-2.394-1.19907-3.491258-1.410418-2.562495-3.669581-3.654928-6.499906-3.751423-1.05507-.036-1.996652.391547-2.920187.83301-.95014.454083-1.88372.94231-2.826604 1.411423-.187721.09334-.38493.167939-.628837.273155-.312559-.72798-.23014-1.336082.222325-1.927485 1.184186-1.548 2.355907-3.105649 3.529116-4.662 1.657117-2.198597 3.309396-4.400907 4.967256-6.599134.949954-1.259443 1.907907-2.513133 2.860651-3.770536.073117-.096494.134512-.201897.20614-.310639-.699163-.167938-15.355163-.195587-16.366512-.026907-.017674.191876-.053209.399526-.053395.60699-.002233 5.350082-.003163 10.700165.00186 16.050062.001117 1.067195.237954 2.075938.766884 3.01769.55479.987031 1.440558 1.421072 2.510884 1.517196 1.452651.130454 2.680744-.447587 3.72279-1.388041.638512-.576 1.201675-1.245155 1.739163-1.91969.639628-.802578 1.509024-.728351 1.952.209319.273303.578412.198884 1.159794-.035348 1.708144-1.273303 2.979835-3.931908 4.737712-6.820838 4.793196-1.525395.029505-3.028279-.117278-4.516279-.45501-3.392558-.769547-5.048744-3.311073-5.325767-6.336186-.131721-1.437216-.050605-2.893546-.073303-4.341155-.017488-1.111917-.068837-2.223649-.06493-3.335195.006326-1.761402.067907-3.522619.065489-5.283835-.002047-1.598846-.058047-3.197691-.090605-4.812495-.748837-.256825-1.463256-.10299-2.162233-.131567-.68093-.02802-1.363907-.004454-2.04614-.004268-.713115.000185-1.426232-.000743-2.139162-.000928H.04294" fill="#FFF" mask="url(#b)"/>
    </g>
  </g>
</svg>
