<svg width="80" height="80" xmlns="http://www.w3.org/2000/svg" xmlns:xlink="http://www.w3.org/1999/xlink">
  <defs>
    <path d="M30.045405 2.422895c0-.833684.667676-1.50758 1.497946-1.50758.82854 0 1.503135.673896 1.503135 1.50758 0 .069473-.012108.133737-.020756.199737l18.544432 7.76021c.046703-.067737.096865-.132.153946-.189316.589838-.587052 1.53946-.587052 2.122378 0 .588109.587053.588109 1.544053 0 2.132842-.053621.06079-.12108.105948-.18681.15458l7.728432 18.620684c.064-.010421.12973-.020842.19719-.020842.82854 0 1.503134.677368 1.503134 1.507578 0 .825-.659027 1.488474-1.47027 1.504106l-7.944648 18.61721c.06054.043421.12108.086842.172973.142421.588108.58879.588108 1.54579 0 2.132842-.290595.295264-.674595.442895-1.060325.442895-.384 0-.768-.147631-1.062054-.442895-.06227-.062526-.117621-.133736-.166054-.204947l-18.604973 7.475368c.057081.15458.093406.326527.093406.50021 0 .828475-.674595 1.50758-1.503136 1.50758-.83027 0-1.497946-.679105-1.497946-1.50758 0-.250104.06054-.488052.171244-.694736l-18.675892-7.293c-.051892.076421-.108973.151105-.176433.217105-.294054.295264-.678054.442895-1.063783.442895-.38573 0-.76973-.147631-1.062055-.442895-.584648-.587052-.584648-1.544052 0-2.132842.057082-.055579.117622-.099.178163-.14242L1.47027 34.092473C.655568 34.076842 0 33.413368 0 32.588368c0-.81979.655568-1.486736 1.47027-1.504105l7.94638-18.613737c-.06054-.045158-.121081-.090315-.178163-.144158-.584648-.58879-.584648-1.54579 0-2.132842.586379-.587052 1.53946-.587052 2.125838 0 .057081.057316.103784.12158.153946.189316l18.540973-7.76021c-.005189-.066-.013838-.130264-.013838-.199737zm2.705298.891l6.016 6.042473c.275027-.361263.70227-.59921 1.190054-.59921.82854 0 1.499675.677368 1.499675 1.509316 0 .053842-.010378.10421-.013837.156315l9.899243.453316c.008648-.029526.017297-.06079.024216-.090316L32.89946 3.060316c-.039784.090316-.091676.17542-.148757.253579zm-21.028325 7.471894c.00692.029527.017298.06079.024217.090316l10.49773-.479368c-.00346-.043421-.013838-.086842-.013838-.130263 0-.831948.676324-1.509316 1.503135-1.509316.19546 0 .38054.041684.551783.10942l6.026379-5.583946c-.048433-.069474-.088216-.144158-.12454-.222316l-18.464866 7.725473zm13.51092-.519315c0 .026052-.00346.050368-.00692.074684H38.46227c-.00346-.024316-.008648-.048632-.008648-.074684 0-.173685.034594-.338685.091675-.495l-6.114594-6.134527c-.249081.182369-.553514.295264-.887352.295264-.345946 0-.664216-.123316-.918486-.32479l-5.938162 5.504053c.332108.277894.546594.68779.546594 1.155zm-.249082.83542L30.91719 16.632c.25254-.204947.576-.333474.928865-.333474.332108 0 .63481.114632.885622.298737l5.780756-5.80279h-13.37773c-.039783.111159-.088216.211895-.150486.307422zM10.43892 12.753633v9.285158c.025946-.003474.051892-.006948.076108-.006948.349405 0 .664216.125053.920216.32479l11.366054-10.91779c-.197189-.156316-.356324-.35779-.454919-.594l-10.551351.479368c-.015567.363-.157405.722527-.430703 1.002158-.25946.25879-.588108.394264-.925405.427264zm30.72-1.596158l11.12735 11.171367c.112433-.081632.230054-.149368.361514-.198v-9.37721c-.333838-.033-.667676-.168474-.923676-.427264-.273297-.279631-.416865-.639157-.432432-1.002158l-9.961514-.451578c-.044973.100736-.103784.196263-.171243.284842zm-7.882378 6.224842L51.91265 22.72658c.017297-.026053.038054-.052105.055351-.078158L40.840649 11.477053c-.249081.184105-.551784.30221-.883892.30221-.487784 0-.915027-.24142-1.190054-.600947l-5.715027 5.738526c.100324.138948.174702.295263.224865.465474zm-8.601946-5.950421c-.25773.211894-.58292.347368-.940973.347368-.186811 0-.363244-.04342-.525838-.10421L11.748324 22.68142c.083027.119842.143568.253579.18854.396l18.466596-5.669053c.043243-.15979.107243-.312631.200648-.448105l-5.929513-5.528368zM1.932108 31.152c.166054.048632.31827.125053.456649.22579l6.918919-6.947369c-.183352-.250105-.295784-.55579-.295784-.891 0-.646105.406486-1.19321.979027-1.408579v-9.39979c-.06054-.012157-.117622-.031263-.176433-.052105L1.932108 31.152zm51.167135-18.420947v9.307737c.024217-.003474.048433-.006948.077838-.006948.825081 0 1.499676.675632 1.499676 1.50758 0 .33521-.114162.640894-.297514.891l6.432865 6.455841-7.55373-18.200368c-.055351.013894-.105513.033-.159135.045158zm-20.047567 5.96779l12.621837 12.678946c.249082-.185842.558703-.297.890811-.297.209298 0 .401298.041685.58292.118106l4.73254-6.907421c-.12973-.222316-.205838-.475895-.205838-.752053 0-.13721.024216-.26921.055351-.394263l-18.390486-5.276526c-.008649.310894-.115892.595736-.287135.83021zm-21.512649 5.938262l4.93146 6.6c.202378-.097263.418594-.156315.653837-.156315.31827 0 .612325.102473.857946.27442l12.460973-13.014157c-.051892-.138948-.079567-.28658-.091675-.441158l-18.336865 5.625631c0 .006948.00173.010421.00173.013895 0 .43421-.185082.823263-.477406 1.097684zm6.768432 7.032474c.089946.119842.164325.248368.217946.39079h11.71373c.07092-.724264.653838-1.293948 1.378595-1.346053V19.292842c-.378811-.057316-.70746-.257053-.937514-.543632L18.30746 31.66958zm13.76346-.922263c.612324.147631 1.075892.67042 1.143351 1.313052h11.950703c.046703-.130263.112432-.251842.19373-.361263L32.731676 19.020158c-.192.140684-.415135.23621-.660757.272684v11.454474zm15.648865 2.792842l4.627027 5.031632c.091676-.06079.19546-.111158.300973-.151106V24.948c-.176433-.067737-.332108-.166737-.472216-.290053l-4.646054 6.784106c.326918.277894.539675.686052.539675 1.146315 0 .363-.136648.691264-.349405.95179zM54.060973 24.75c-.249081.184105-.555243.300474-.883892.300474-.029405 0-.053621-.008685-.077838-.013895v13.290316c.024217 0 .048433-.006948.077838-.006948.37881 0 .726487.147632.991135.387316l6.137081-5.34079c-.138378-.227526-.221405-.491526-.221405-.778105 0-.48979.235243-.91879.595027-1.191473L54.060973 24.75zM2.848865 33.244895l6.97427 5.253947c.051892-.029526.108973-.053842.167784-.078158V24.948c-.12973-.050368-.25427-.114632-.363243-.198l-6.91892 6.949105c.183352.250106.294055.557527.294055.889263 0 .234474-.057081.45679-.153946.656527zm8.32173-8.35421c-.204109.097262-.422054.159789-.655568.159789-.024216 0-.050162-.008685-.076108-.013895v13.290316c.025946 0 .051892-.006948.076108-.006948.302703 0 .588108.095527.82681.251843l4.625298-5.031632c-.214486-.260526-.345946-.58879-.345946-.95179 0-.432473.186811-.81979.477406-1.09421l-4.928-6.603474zm20.900324 20.994947c.245621.034736.468757.132.660757.272684l12.627027-12.678948c-.181622-.250105-.297514-.55579-.297514-.891 0-.024315.00692-.050368.010379-.074684H33.196973c-.115892.574895-.560432 1.026474-1.126054 1.163684v12.208264zm-13.716757-12.43579L31.330595 45.95858c.095135-.034737.18854-.059053.287135-.072947v-12.177c-.676325-.045158-1.231568-.541895-1.363027-1.194948H18.61881c.00173.024316.006919.050369.006919.074684 0 .321316-.102054.61658-.271568.861474zm-16.422054.576632L9.814486 52.49779c.058811-.019106.115892-.038211.176433-.050369V41.236105c-.57254-.213631-.979027-.762473-.979027-1.406842 0-.409895.164324-.781579.430703-1.054263l-6.848-5.158421c-.178163.19279-.408217.331737-.662487.409895zm51.229405 18.440052c.038055.008685.074379.019106.108973.031264l7.885838-18.471316c-.211027-.062527-.401297-.17021-.562162-.314369l-6.13881 5.34079c.136648.227526.221405.491526.221405.776368 0 .672158-.442811 1.236632-1.049946 1.432895l-.465297 11.204368zM18.041081 33.774632c-.25427.199736-.57081.328263-.916757.328263-.304432 0-.589838-.099-.82681-.257053l-4.625298 5.031632c.214487.260526.344216.590526.344216.95179 0 .187578-.038054.363-.100324.528l.147027.152841 18.449297 6.17621c.100325-.194525.240433-.361262.408217-.496736L18.04108 33.774632zm15.010595 12.706736c.034594.048632.06746.10421.100324.158053l18.528865-6.910895c.022486-.321316.143567-.614842.337297-.851052l-4.627027-5.031632c-.238703.158053-.518919.257053-.82681.257053-.332109 0-.64173-.118105-.890811-.30221L33.051676 46.481367zM33.21427 47.982l5.94854 3.845368c.231785-.147631.503352-.234473.793947-.234473.18681 0 .363243.03821.524108.100737l11.46119-11.008106c-.103785-.144158-.172974-.309158-.219677-.488052L33.314595 47.06321c.020756.099.029405.201474.029405.307422 0 .220579-.044973.42379-.12973.611368zm-21.593946-7.141895c-.273297.30221-.665946.498474-1.105297.498474-.024216 0-.050162-.006947-.076108-.010421v11.096684c.337297.031263.665946.17021.925405.427263.221406.224053.359784.501948.413406.792l10.506378-.91879c.051892-.196262.140108-.376894.25946-.53321L11.812324 40.902632l-.192-.062527zm29.76173 11.812263l10.139676.462c.05708-.092052.12281-.180631.202378-.262263.275027-.27442.631352-.415105.991135-.43421l.456649-11.079316c-.344216 0-.664216-.125053-.918487-.326526L40.889081 51.928105c.230054.185842.403027.432474.492973.724263zM12.725622 41.210053l10.139675 10.66421c.245622-.173684.548325-.281368.868325-.281368.44627 0 .844108.20321 1.119135.515842l5.657946-4.059c-.103784-.206684-.167784-.43421-.167784-.679105 0-.086843.010378-.17021.024216-.257053l-17.641513-5.903526zm20.241297 7.154052c-.275027.312632-.676324.515842-1.120865.515842-.422054 0-.806054-.178894-1.075892-.460263l-5.670054 4.065948c.013838.029526.024216.06079.034595.088578h13.420973c.05881-.161526.147027-.30742.25427-.437684l-5.843027-3.77242zm-8.152216 5.781948l5.932973 7.334684c.231784-.147632.503351-.234474.795675-.234474.159135 0 .306162.031263.448.076421l6.796108-7.282579c-.202378-.257052-.333837-.581842-.333837-.937894 0-.026053.005189-.050369.008648-.076421H25.226378c.00346.026052.00692.050368.00692.07642 0 .406422-.159136.774632-.418595 1.043843zm16.64173-1.036895c-.00346.828474-.672865 1.502368-1.499676 1.502368-.311352 0-.601946-.097263-.83892-.260526l-6.702702 7.178368c.12281.090316.231784.198.32173.317843l18.624-7.477106c-.081297-.262263-.089946-.541895-.027676-.807631l-9.876757-.453316zm-29.727136 1.250526l18.527135 7.228737-5.806702-7.169684c-.212757.118105-.45492.19279-.716108.19279-.804325 0-1.451244-.635685-1.494487-1.427685l-10.452757.910105c-.010378.090316-.029405.177158-.05708.265737z" id="a"/>
  </defs>
  <g fill="none" fill-rule="evenodd">
    <circle fill="#0D4388" cx="40" cy="40" r="40"/>
    <use fill="#8D95C0" xlink:href="#a" transform="translate(8 7.821526)"/>
    <path d="M53.998357 40.25549c0 7.99642-6.455351 14.478315-14.419027 14.478315-7.963676 0-14.420757-6.481895-14.420757-14.478316 0-7.99642 6.457081-14.478316 14.420757-14.478316s14.419027 6.481895 14.419027 14.478316" fill="#FFF"/>
    <path d="M33.354725 37.794384c.975567-2.487158 3.38681-4.250053 6.21146-4.250053 2.824648 0 5.234161 1.762895 6.211459 4.250053h-12.42292zm15.704216 2.916158c.008649-.165 0 0 0-.166737 0-4.748526-3.494054-8.96558-8.025946-9.67421v-2.763316l-2.935351.917052v1.846263c-4.530162.708632-8 4.633895-8 9.378948 0 4.857947 3.632432 8.857894 8.31654 9.431052v2.721632l2.937081-.917053v-1.903579c3.321081-.639157 6.02292-3.018631 7.131676-6.160579h-3.044324c-1.126054 2.103316-3.328 3.534474-5.872433 3.534474-3.525189 0-6.405189-2.74421-6.65427-6.219632l16.147027-.024315z" fill="#0D4388"/>
  </g>
</svg>
