<svg width="80" height="80" viewBox="0 0 80 80" xmlns="http://www.w3.org/2000/svg">
  <title>
    xvc-vcash
  </title>
  <g fill="none" fill-rule="evenodd">
    <path d="M40.153846 79.076923c-21.66655 0-39.23077-17.56422-39.23077-39.23077S18.487296.615386 40.153846.615386c13.038696 0 25.113254 6.089397 32.24677 15.87731 4.72033 6.476775 6.984 14.725604 6.984 23.35346 0 21.66655-17.56422 39.230768-39.23077 39.230768z" fill="#FFF"/>
    <path d="M16.844715 24.681397h6.550462V65.55432c.60246.044308 1.00646.099077 1.41077.099693 4.064615.00646 8.129538-.02523 12.193538.02523.959077.012 1.488923-.356615 2.017846-1.115077C49.10656 50.09832 59.22287 35.65186 69.33426 21.201706c1.011692-1.445846 2.11077-3.15723 3.136923-4.618462 1.08123 1.309847 1.99446 3.051693 2.884615 4.658462 6.785846 12.249538 7.430462 32.267077-6.92523 46.868923C52.16133 84.65832 25.121945 83.727853 9.74902 66.12109c-15.16246-17.366154-12.296922-44.264 6.21754-58.14923C34.372715-5.83245 59.96902-.87368 72.351484 16.41832c-.600923-.024615-1.032308-.02523-1.412-.024-3.439385.009846-6.879077.030462-10.317847-.010154-.912923-.01046-1.511076.247077-2.083384 1.014154-7.496923 10.052308-15.03354 20.075385-22.562462 30.104308-.244302.32554-.51046.634154-.99477 1.232308V16.55986c-.544302-.064924-.93784-.151694-1.332-.152924-3.54338-.01077-7.08738.02123-10.63015-.025846-.892614-.011693-1.420922.271692-1.870153 1.048615-1.224 2.115077-2.53446 4.180308-3.804307 6.26923-.155386.255385-.27323.533847-.499694.982462" fill="#B80022"/>
  </g>
</svg>
