<svg width="80" height="80" viewBox="0 0 80 80" xmlns="http://www.w3.org/2000/svg">
  <title>
    xzc-zerocoin
  </title>
  <g fill="none" fill-rule="evenodd">
    <circle fill="#09091B" cx="40" cy="40" r="40"/>
    <path d="M47.313 48.369367h8.473275v7.410818H30.3282l31.60305-31.63002c1.0305-1.031398 1.335825-2.59762.80145-3.93457-.571283-1.347416-1.89506-2.22068-3.358575-2.215573h-37.74825C19.603125 18.000022 18 19.604496 18 21.629044v26.740323l15.687-15.69936h-8.473275v-7.450192H50.63355l-31.5648 31.63002c-1.0305 1.031398-1.335825 2.59762-.80145 3.93457.571283 1.347416 1.89506 2.22068 3.358575 2.215573h37.74825C61.35885 62.999978 63 61.395504 63 59.370956V32.670008l-15.687 15.69936z" fill-rule="nonzero" fill="#23B852"/>
  </g>
</svg>
