<svg width="80" height="80" viewBox="0 0 80 80" xmlns="http://www.w3.org/2000/svg">
  <title>
    zap-zap
  </title>
  <defs>
    <linearGradient x1="50%" y1="0%" x2="50%" y2="97.938494%" id="a">
      <stop stop-color="#02B1FF" offset="0%"/>
      <stop stop-color="#0278FE" offset="100%"/>
    </linearGradient>
  </defs>
  <g fill="none" fill-rule="evenodd">
    <circle fill="#FFF" cx="40" cy="40" r="40"/>
    <path d="M45.83254 34.90288v-.0016c-.974193 0-1.948185.0002-2.922379-.0002-.909475-.0002-.90887-.0006-.818145-.9208.011492-.1158.0125-.2328.019557-.3492.089717-1.495.185685-2.9896.267741-4.485.083065-1.5122.174194-3.0246.219154-4.5382.028629-.9586-.754234-1.5796-1.68992-1.4374-.611088.0928-.905645.5346-1.187298.9896-.710887 1.149-1.403226 2.3092-2.11008 3.4608-2.627218 4.28-5.257259 8.5582-7.885686 12.8374-.725605 1.1812-.20121 2.1598 1.198387 2.2374.167339.0092.335686.0064.503629.0044 1.846573-.0204 3.693145-.0452 5.53992-.061.592137-.005.658064.0404.600604.6294-.144153 1.4736-.320161 2.9442-.489516 4.4152-.282258 2.4468-.564113 4.8936-.857661 7.339-.08488.7068.189718 1.2668.789718 1.5118.637903.2604 1.34012.062 1.731048-.5218.315323-.4712.600806-.9622.89133-1.4494 2.409073-4.0412 4.81613-8.0836 7.223993-12.1256 1.084072-1.8202 2.187701-3.6296 3.24516-5.4648.628025-1.0902.027622-2.0546-1.24637-2.0678-1.007661-.0106-2.015524-.0022-3.023186-.0022m-5.99758 29.6868c-4.065121-.0004-8.131452.057-12.194758-.024-2.14254-.0426-4.30484-.2356-6.287299-1.1796-2.949597-1.405-4.919355-3.6548-5.72742-6.825-.454031-1.7814-.614515-3.609-.615322-5.4444-.00383-7.5986-.034677-15.1976.03488-22.7958.017943-1.9512.211895-3.9228.832257-5.8096.368146-1.1198.934275-2.1456 1.685283-3.0492 1.317338-1.5848 2.924193-2.7704 4.936492-3.38 1.424395-.4318 2.884072-.5904 4.359475-.663 8.086694-.399 16.178831-.1298 24.267742-.1352 2.104033-.0014 4.254839.151 6.296573.8376 1.28367.4316 2.450403 1.0726 3.462903 1.9764 1.254234 1.1196 2.25363 2.4186 2.848992 3.9986.528024 1.4008.768347 2.8594.840524 4.3462.414718 8.5396.139315 17.0846.15242 25.6266.003225 2.0992-.22984 4.2338-1.163307 6.192-1.298387 2.7244-3.364516 4.616-6.272177 5.5528-1.70746.5504-3.485887.7372-5.261895.7596-4.064517.0514-8.13004.0164-12.195363.016" fill="url(#a)"/>
    <path d="M45.83254 34.90288c1.007662 0 2.015524-.0084 3.023186.0022 1.273992.0132 1.874395.9776 1.24637 2.0678-1.057459 1.8352-2.161088 3.6446-3.24516 5.4648-2.407863 4.042-4.81492 8.0844-7.223992 12.1256-.290525.4872-.576009.9782-.891331 1.4494-.390928.5838-1.093145.7822-1.731048.5218-.6-.245-.874597-.805-.789718-1.5118.293548-2.4454.575403-4.8922.857661-7.339.169355-1.471.345363-2.9416.489516-4.4152.05746-.589-.008468-.6344-.600605-.6294-1.846774.0158-3.693346.0406-5.539919.061-.167943.002-.33629.0048-.503629-.0044-1.399597-.0776-1.923992-1.0562-1.198387-2.2374 2.628427-4.2792 5.258468-8.5574 7.885685-12.8374.706855-1.1516 1.399194-2.3118 2.110081-3.4608.281653-.455.57621-.8968 1.187298-.9896.935686-.1422 1.718549.4788 1.68992 1.4374-.04496 1.5136-.136089 3.026-.219153 4.5382-.082057 1.4954-.178025 2.99-.267742 4.485-.007057.1164-.008065.2334-.019557.3492-.090726.9202-.09133.9206.818145.9208.974194.0004 1.948186.0002 2.92238.0002v.0016z" fill="#FFF"/>
  </g>
</svg>
