<?xml version="1.0" encoding="UTF-8"?>
<svg width="105px" height="105px" viewBox="0 0 105 105" version="1.1" xmlns="http://www.w3.org/2000/svg" xmlns:xlink="http://www.w3.org/1999/xlink">
    <!-- Generator: Sketch 49.2 (51160) - http://www.bohemiancoding.com/sketch -->
    <title>Group</title>
    <desc>Created with Sketch.</desc>
    <defs></defs>
    <g id="Page-1" stroke="none" stroke-width="1" fill="none" fill-rule="evenodd">
        <g id="Group">
            <circle id="Oval" fill="#0057FF" cx="52.5" cy="52.5" r="52.5"></circle>
            <path d="M37.812,43.924 L27.336,60.448 L38.028,60.448 L38.028,65.2 L21,65.2 L21,61.24 L31.476,44.752 L21.252,44.752 L21.252,40 L37.812,40 L37.812,43.924 Z M62.904,65.2 L57.504,65.2 L55.992,60.664 L45.948,60.664 L44.436,65.2 L39.072,65.2 L47.892,40 L54.048,40 L62.904,65.2 Z M50.988,45.724 L47.532,56.02 L54.444,56.02 L50.988,45.724 Z M84.54,65.2 L79.176,65.2 L74.1,56.452 L70.32,56.452 L70.32,65.2 L65.352,65.2 L65.352,40 L75.432,40 C77.772,40 79.752,40.828 81.372,42.448 C82.992,44.068 83.82,46.048 83.82,48.352 C83.82,51.484 81.876,54.364 78.96,55.696 L84.54,65.2 Z M75.432,44.644 L70.32,44.644 L70.32,52.096 L75.432,52.096 C77.304,52.096 78.852,50.404 78.852,48.352 C78.852,46.3 77.304,44.644 75.432,44.644 Z" id="ZAR" fill="#FFFFFF"></path>
        </g>
    </g>
</svg>