<svg width="80" height="80" xmlns="http://www.w3.org/2000/svg">
  <g fill="none" fill-rule="evenodd">
    <circle fill="#BF6520" cx="40" cy="40" r="40"/>
    <path d="M62.1388 58.5376c10.301-11.882 7.841-28.98-.004-37.027-1.257 1.232-2.513 2.464-3.767 3.694 7.155 8.792 6.828 21.473.058 29.357 1.227 1.314 2.446 2.62 3.713 3.976zm-34.477-4.888c.283-.613.44-1.036.663-1.423 1.643-2.858 3.309-5.703 4.948-8.564 3.168-5.529 6.33-11.062 9.472-16.606.296-.522.624-.744 1.228-.736 2.421.029 4.842.009 7.262.017.271.001.542.061.971.114-3.776 6.662-7.472 13.181-11.22 19.793h20.674c3.146-10.01-1.667-22.912-13.878-27.273-5.835-2.083-11.638-1.76-17.25.888-3.112 1.469-5.777 3.536-7.963 6.452 6.565.026 12.915-.025 19.414.057-.233.452-.355.713-.496.963-1.044 1.85-2.118 3.684-3.122 5.554-.328.609-.723.789-1.391.786-5.691-.025-11.383-.013-17.075-.013-.383.001-.765 0-1.106 0-3.239 10.243 1.35 21.626 12.03 26.609 10.016 4.673 21.494.915 26.884-6.618h-30.045zm12.392 16.134c-16.626.304-29.772-13.61-30.048-28.89-.156-8.647 2.792-16.234 9.038-22.34 5.614-5.489 12.42-8.343 20.278-8.544 16.773-.428 30.675 13.036 30.678 29.895.003 16.796-13.865 30.131-29.946 29.879z" fill="#FFF"/>
  </g>
</svg>
