<svg width="80" height="80" viewBox="0 0 80 80" xmlns="http://www.w3.org/2000/svg">
  <title>
    Group 37
  </title>
  <defs>
    <linearGradient x1="100%" y1="50%" x2="0%" y2="50%" id="a">
      <stop stop-color="#F8C646" offset="0%"/>
      <stop stop-color="#D79118" offset="100%"/>
    </linearGradient>
  </defs>
  <g fill="none" fill-rule="evenodd">
    <circle fill="url(#a)" cx="40.5" cy="40.5" r="32.5"/>
    <g fill-rule="nonzero" fill="#000">
      <path d="M40.004 80c-5.4 0-10.637-1.06-15.57-3.143C14.85 72.792 7.217 65.16 3.153 55.574 1.06 50.634 0 45.397 0 39.996c0-5.402 1.06-10.636 3.143-15.57C9.393 9.61 23.916-.014 39.996 0c5.392 0 10.644 1.05 15.578 3.135C70.39 9.385 80.014 23.907 80 39.987c0 5.4-1.06 10.637-3.143 15.57-4.064 9.586-11.696 17.22-21.283 21.283C50.64 78.94 45.406 80 40.004 80zm0-71.117c-8.31 0-16.125 3.24-22.003 9.11-5.88 5.88-9.108 13.693-9.108 22.003S12.132 56.12 18 62c5.88 5.87 13.694 9.11 22.004 9.11S56.13 67.87 62.007 62c5.87-5.88 9.11-13.694 9.11-22.004s-3.24-16.125-9.11-22.003c-5.88-5.87-13.693-9.11-22.003-9.11z"/>
      <path d="M37.6 49.956h17.332v8.71H44.26c.174 2.49.27 4.8.443 7.284h-8.98v-7.2h-10.67c0-2.848-.357-5.687.172-8.353.27-1.424 1.867-2.666 2.848-3.908 3.378-4.004 6.756-7.91 10.22-11.914 1.338-1.51 2.666-2.935 4.177-4.62H25.85v-8.708h9.865v-7.285h8.622v7.11h10.76c0 2.936.356 5.776-.173 8.45-.27 1.424-1.867 2.666-2.935 3.908-3.38 4.004-6.757 7.91-10.222 11.914-1.32 1.59-2.648 3.005-4.168 4.61"/>
    </g>
  </g>
</svg>
