<svg width="80" height="80" viewBox="0 0 80 80" xmlns="http://www.w3.org/2000/svg">
  <title>
    zen-zencash
  </title>
  <g fill="none" fill-rule="evenodd">
    <circle fill="#FFF" cx="40" cy="40" r="40"/>
    <g fill-rule="nonzero">
      <path fill="#234871" d="M32.482382 18.645956L47.21985 10l14.692596 8.581985-14.711201 8.626103z"/>
      <path fill="#1B2E58" d="M61.912446 18.581985v17.38125L47.201245 44.61581V27.20809l14.711201-8.626104"/>
      <path fill="#69FFBC" d="M32.482382 18.645956v6.418015l9.480966 5.536764V41.48125l5.237897 3.134559v-17.40772l-14.718863-8.562133"/>
      <path fill="#1B2E58" d="M25.692597 22.830515l14.800944 8.652573-14.749507 8.664706L11 31.489706l14.692597-8.659191"/>
      <path fill="#234871" d="M11 31.489706V48.83897l14.744034 8.5875V40.147794L11 31.489706"/>
      <g fill="#69FFBC">
        <path d="M25.744034 40.147794l14.749507-8.664706v6.006618l-9.646223 5.664706v11.221324l-5.103284 3.050735V40.147794"/>
        <path d="M32.4003 44.036765l5.537769-3.199632 9.263176 5.516911 9.326652-5.516911 5.38455 3.218382-14.756074 8.691176L32.4003 44.036765"/>
      </g>
      <path fill="#1B2E58" d="M32.4003 44.036765v17.291911L47.156373 70V52.746691L32.4003 44.036765"/>
      <path fill="#234871" d="M47.156373 52.746691l14.756073-8.691176v17.318382L47.156373 70V52.746691"/>
    </g>
  </g>
</svg>
