<svg width="80" height="80" viewBox="0 0 80 80" xmlns="http://www.w3.org/2000/svg" xmlns:xlink="http://www.w3.org/1999/xlink">
  <title>
    zil-zilliqa
  </title>
  <defs>
    <path id="a" d="M0 .185131h40.846543v57.619583H0z"/>
    <path id="c" d="M.192524.185131h40.055243V19.30492H.192524z"/>
    <path id="e" d="M.008727.172516H8.43702v12.318067H.008727z"/>
    <path id="g" d="M.174152.02445H8.60063v29.659052H.174152z"/>
  </defs>
  <g fill="none" fill-rule="evenodd">
    <circle fill="#FFF" cx="40" cy="40" r="40"/>
    <g transform="translate(20 11.010155)">
      <mask id="b" fill="#fff">
        <use xlink:href="#a"/>
      </mask>
      <path d="M25.356391 31.415046c2.369605-1.207845 4.716172-2.46002 7.073281-3.692276l8.198439-3.624122c.070676-.096276.202461-.192356.203047-.289218.015033-2.632263.028114-5.26472-.006248-7.896593-.002342-.171852-.38618-.338821-.592742-.50794-.55389-.319097-1.090796-.673346-1.664405-.951238-3.09921-1.501751-6.207986-2.983778-9.312467-4.474202C22.605877 6.787113 15.959777 3.58813 9.301182.415706 8.930425.239167 8.383758.10188 8.043849.244244 5.4095 1.348002 2.805806 2.524992.192544 3.679134c-.057205.071279-.164195.142558-.16439.214228C.019757 6.6551.02093 9.416837.02093 12.255517c7.36438 3.54132 14.712947 7.075219 22.258509 10.703832C14.685849 26.664319 7.360906 30.23825.00492 33.82722c0 2.707838-.023233 5.341077.030848 7.972559.006442.312067.368219.753414.677476.902808C9.523168 46.956312 18.345 51.185625 27.171715 55.404783c1.724734.824303 3.476996 1.590997 5.216762 2.384445l.02499.015622c.072824-.00039.145844-.000585.218667-.00078.716915-.32066 7.214829-3.15563 8.18282-3.55499V28.145564c-.576148.275354-1.06112.506963-1.545896.738768-.136471.05507-.272943.110141-.409219.165212-.092348.239421-.213786.41557-.358652.539576.144866-.124007.266304-.300155.358652-.539576-.533976.244498-1.068148.488801-1.602124.733104l.004686-.009178c-.133348.061515-.26689.12303-.400043.184545l-.010738-.003515c-1.45999.608317-2.919981 1.216438-4.321986 1.800734-.04881.209347-.089614.302694-.089419.396236.00742 5.677165.018353 11.35433.02909 17.031495l-.02499.02773c-.36529-.120686-.748543-.204073-1.093333-.36831-4.196057-1.998558-8.387624-4.006881-12.578214-6.017353-2.661486-1.276976-5.319262-2.561764-8.095938-3.89967.330733-.202511.536319-.34878.7585-.461461 4.640028-2.350465 9.287085-4.686869 13.921061-7.048855" fill="#2F8C94" mask="url(#b)"/>
    </g>
    <path d="M52.42977 38.732983c-2.35711 1.232256-4.703871 2.484431-7.073281 3.692276-4.634171 2.361792-9.281229 4.698196-13.920867 7.04866-.222571.112876-.428157.259145-.75889.461657 2.776871 1.337906 5.434647 2.622693 8.096133 3.899475 4.19059 2.01047 8.381962 4.01899 12.578214 6.017548.344596.164236.727848.247623 1.093139.36831-.018548 2.85938-.037096 5.718956-.055839 8.578337-1.73957-.793253-3.492028-1.559946-5.216761-2.384445-8.826715-4.218963-17.648353-8.448276-26.458472-12.702-.309062-.149394-.671033-.59074-.677476-.903003-.053886-2.631482-.030652-5.264525-.030652-7.972559 7.355985-3.58897 14.680733-7.162707 22.274519-10.867677-7.545757-3.628808-14.894324-7.162512-22.25851-10.704027 0-2.838484-.001367-5.600222.007224-8.36196.000195-.07167.107186-.142949.16439-.214423.145453.121272.273334.278478.4387.358154 5.823953 2.802553 11.651615 5.597098 17.47791 8.394377 4.770252 2.290122 9.539529 4.582196 14.309 6.873489.003905 2.805872.007614 5.611744.011519 8.417811" fill="#4CC0BE"/>
    <g transform="translate(20 11.010155)">
      <mask id="d" fill="#fff">
        <use xlink:href="#c"/>
      </mask>
      <path d="M32.418329 19.30492c-4.769667-2.291099-9.538748-4.583368-14.309-6.873489-5.82649-2.79728-11.653957-5.591825-17.47791-8.394377-.165366-.079482-.293247-.236882-.438895-.35796C2.805786 2.524758 5.409481 1.347963 8.04383.244205c.33991-.142363.886771-.005077 1.257333.171462 6.658596 3.17262 13.304696 6.371407 19.954115 9.56375 3.10448 1.490425 6.213257 2.972452 9.312466 4.474203.573805.278087 1.11071.632336 1.664405.951239.005271.125569.010348.251333.01562.376902-2.609944 1.174451-5.219691 2.348707-7.829439 3.523158" fill="#077A8D" mask="url(#d)"/>
    </g>
    <g transform="translate(52.409524 26.242478)">
      <mask id="f" fill="#fff">
        <use xlink:href="#e"/>
      </mask>
      <path d="M8.415289.680455C8.412946.508603 8.02911.34183 7.822741.172515c.005077.12557.010348.251334.015424.377098C5.228418 1.72387 2.61867 2.898321.008727 4.072576c.003905 2.806068.007614 5.61194.01152 8.418007l8.198242-3.624316c.070676-.096276.202462-.192357.203048-.289024.015033-2.632263.02831-5.264916-.006248-7.896788" fill="#2F8C94" mask="url(#f)"/>
    </g>
    <g transform="translate(52.214286 39.131367)">
      <mask id="h" fill="#fff">
        <use xlink:href="#g"/>
      </mask>
      <path d="M7.054733.763022a358.666138 358.666138 0 0 0-.409219.165408c-.092152.23942-.21359.415373-.358652.539575.145062-.124202.2665-.300154.358652-.539575-.533976.244303-1.067952.488606-1.602124.732909l.004881-.008983c-.133542.061515-.267085.12303-.400238.184545l-.010738-.00371C3.1775 2.441507 1.717315 3.049824.31531 3.63412c-.04881.209347-.089615.302693-.08942.39604.007615 5.677165.018353 11.354525.029091 17.03169l-.02499.027536c-.018743 2.859576-.037096 5.719151-.055839 8.578532l.02499.015623c.072825-.00039.145648-.000586.218668-.000781.717109-.320465 7.214828-3.15563 8.182819-3.55499V.02445c-.576148.275158-1.06112.506963-1.545896.738572" fill="#2F8C94" mask="url(#h)"/>
    </g>
  </g>
</svg>
