<svg width="80" height="80" xmlns="http://www.w3.org/2000/svg" xmlns:xlink="http://www.w3.org/1999/xlink">
  <defs>
    <path id="a" d="M0 .000015h47.941773v47.93031H0z"/>
  </defs>
  <g fill="none" fill-rule="evenodd">
    <circle fill="#A6A6A6" cx="40" cy="40" r="40"/>
    <g transform="translate(16 16)">
      <mask id="b" fill="#fff">
        <use xlink:href="#a"/>
      </mask>
      <path d="M6.878408 44.768197h.545815c.989525 0 1.979711-.0186 2.968495.008749.42136.011744.666721-.11933.892865-.466365 4.875052-7.479566 9.763052-14.951409 14.649155-22.424433 4.026804-6.15874 8.054763-12.316769 12.078433-18.47732.082804-.126818.119258-.2813.17732-.422858-.166103-.0346-.331959-.097497-.498392-.099152-.975753-.009458-1.952.010798-2.927258-.012453-.375752-.008986-.593484.11129-.793732.417812-8.914391 13.646818-17.837608 27.288355-26.759175 40.930995-.093278.14266-.178062.290365-.333526.545025m-6.878433 3.118818C9.825707 32.79996 19.592553 17.80331 29.4088 2.730837c-.251711-.020413-.407835-.04461-.563794-.044137-3.353402.010088-6.706886.015054-10.060206.03736-3.040907.020176-5.79035.90995-8.199588 2.673575-1.819051 1.331626-3.098639 3.083823-3.93435 5.11275-.421526 1.023526-.743175 2.08591-1.078268 3.13994-.096495.303764-.230268.424512-.567175.424434-.950186-.000473-.97196.010404-.88767-.893794.225484-2.418285.47233-4.834758.708783-7.252177.175093-1.790187.35035-3.580295.518515-5.371034.051794-.552119.042475-.55732.594557-.5574 12.837279-.000551 25.674557-.000472 38.511918.000552.147381 0 .294763.013872.570144.027744-9.811629 15.05931-19.574103 30.043271-29.38532 45.101951.221361.016394.36165.035862.501939.035862 3.573278-.000236 7.147134.031606 10.71967-.016788 2.291628-.031054 4.593896-.089695 6.840412-.596256 2.992083-.674601 5.545072-2.110897 7.708041-4.189872 2.594722-2.493793 4.019382-5.56666 4.852371-8.93596.24-.97072.011382-.88473 1.202722-.881104.474144.001418.516289.057616.461938.515625-.45402 3.83401-.910598 7.667784-1.364453 11.501794-.192825 1.629793-.393155 3.258955-.562145 4.891034-.039917.385025-.218062.500256-.579876.471094-.109113-.00875-.219794.000078-.329732.000078-14.73402.00008-29.468041.000237-44.202062-.00134-.255175 0-.51035-.021202-.885196-.037753" fill="#FFF" mask="url(#b)"/>
    </g>
  </g>
</svg>
