<svg width="80" height="80" xmlns="http://www.w3.org/2000/svg" xmlns:xlink="http://www.w3.org/1999/xlink">
  <defs>
    <path id="a" d="M0 0h51.999796v32.99995H0z"/>
  </defs>
  <g fill="none" fill-rule="evenodd">
    <circle fill="#4C188B" cx="40" cy="40" r="40"/>
    <g transform="translate(14 23)">
      <mask id="b" fill="#fff">
        <use xlink:href="#a"/>
      </mask>
      <path d="M49.450777 25.611891h-7.64706s10.19608-7.38806 10.19608-15.761194-10.19608-9.850746-10.19608-9.850746h-39.2549s-2.54902.985074-2.54902 3.44776c0 2.462688 3.058824 3.447762 3.058824 3.447762h7.647058S-.000204 13.298458-.000204 22.16413s11.72549 10.83582 11.72549 10.83582H49.96058s2.039216-.492537 2.039216-3.44776c0-2.955224-2.54902-3.940299-2.54902-3.940299M26.5096 25.119354c-4.588235 1.477612-9.17647.985074-12.235294 0-3.058824-.985075-3.568628-3.940299-3.568628-4.432836C11.725286 8.865622 29.568424 6.895473 29.568424 6.895473h2.54902s8.156862.492537 8.666666 5.910448c.509804 5.41791-9.686275 10.83582-14.27451 12.313433" fill="#FFF" mask="url(#b)"/>
    </g>
  </g>
</svg>
