<svg width="80" height="80" xmlns="http://www.w3.org/2000/svg" xmlns:xlink="http://www.w3.org/1999/xlink">
  <defs>
    <linearGradient x1="0%" y1="7.34375%" y2="100%" id="a">
      <stop stop-color="#4EA262" offset="0%"/>
      <stop stop-color="#32622B" offset="64.204102%"/>
      <stop stop-color="#223F0D" offset="100%"/>
    </linearGradient>
    <filter x="-4.8%" y="-2%" width="109.5%" height="108.2%" filterUnits="objectBoundingBox" id="b">
      <feOffset dy="1" in="SourceAlpha" result="shadowOffsetOuter1"/>
      <feGaussianBlur stdDeviation=".5" in="shadowOffsetOuter1" result="shadowBlurOuter1"/>
      <feColorMatrix values="0 0 0 0 0 0 0 0 0 0 0 0 0 0 0 0 0 0 0.5 0" in="shadowBlurOuter1" result="shadowMatrixOuter1"/>
      <feMerge>
        <feMergeNode in="shadowMatrixOuter1"/>
        <feMergeNode in="SourceGraphic"/>
      </feMerge>
    </filter>
    <path id="c" d="M0 .118486h23.468716v31.077968H0z"/>
  </defs>
  <g fill="none" fill-rule="evenodd">
    <circle fill="url(#a)" cx="40" cy="40" r="40"/>
    <g filter="url(#b)" transform="translate(19 15)">
      <g transform="translate(0 .09773)">
        <mask id="d" fill="#fff">
          <use xlink:href="#c"/>
        </mask>
        <path d="M6.341558 27.06521c5.783842 0 11.338231-.000215 16.89262.004541.063 0 .12578.06746.234538.129946v3.996757H.006189c0-1.262703-.022326-2.474378.017685-3.684324.00862-.258379.211105-.532757.379326-.761298C4.728758 20.875805 9.060726 15.00532 13.393358 9.13505c1.034526-1.40173 2.076126-2.79827 3.109105-4.201081.079358-.107676.115169-.246054.235642-.513082H.037358V.351914C.836242.053319 22.088905.029319 23.239042.348454c0 1.150919.050842 2.335135-.028737 3.510919-.026084.385946-.352579.776432-.60502 1.12-3.438917 4.679784-6.890211 9.350703-10.335759 14.025514-1.915863 2.599567-3.826642 5.202594-5.927968 8.060324" fill="#FFF" mask="url(#d)"/>
      </g>
      <path d="M33.392763 31.28867h-4.18939c-.267473-.752216-.355894-20.999351-.088862-22.359135h4.234926v3.062054c2.146863-2.226162 4.398505-3.708108 7.479537-3.736865v4.268973c-.328042 0-.60679.013838-.88399-.002162-2.286347-.134054-4.13921.794162-5.788926 2.23719-.557495.48735-.773021 1.060107-.76838 1.810162.028296 4.465945.008622 8.932324.005085 13.398486-.00022.393297 0 .786595 0 1.321297m-2.43978 8.490508c-.572747-.046054-.971084-.077838-1.452979-.11654v-1.663352c1.14439 0 2.306905-.038054 3.46301.031352.235864.01427.446306.432.729474.727351.256643-.112648.607232-.32281.987885-.422054.8106-.21081 1.632694-.48973 2.457442-.515892 1.90039-.05946 3.050305.987676 3.16061 2.858811.099695 1.686919.0714 3.38119.096821 5.072216.005969.392217.000884.784216.000884 1.252757.521464.071351.977495.133838 1.414295.19373.326937 1.195675.217516 1.383351-.891505 1.570162-.1806.030486-.3654.041513-.548874.05254-1.92802.115892-2.4612-.363891-2.47402-2.24281-.011274-1.691676.012378-3.384-.024096-5.075027-.032273-1.493622-.68681-1.986379-2.193947-1.722379-.21641.038054-.428842.102703-.638842.168-1.616779.504216-1.614568.505298-1.614347 2.172757.00022 1.835676-.003316 3.671568-.005084 5.50746-.000443.315243 0 .630702 0 1.014486h-2.466727v-8.863568zm-17.344762 3.599027c.110747.788757.1344 1.40692.292895 1.989622.322737 1.186378 1.09421 1.714595 2.338516 1.702486 1.149915-.011243 1.943936-.57535 2.2554-1.685405.366726-1.30746.344842-2.634162-.011716-3.939243-.2898-1.060973-1.010653-1.635676-2.014232-1.707027-1.105042-.078487-2.032137.438054-2.406158 1.500757-.257968.733405-.330915 1.529297-.454705 2.13881m7.761379.103568c-.134842.75654-.1848 1.484973-.401653 2.162162-.53561 1.674379-1.678452 2.81081-3.476715 3.092757-2.806264.440432-5.045969-.168216-5.9556-2.768216-.35678-1.01946-.2856-2.183784-.393916-3.283676-.017021-.173622.04841-.355027.076042-.53254.641274-4.122595 4.598337-4.852109 7.255168-3.803892 1.32101.521297 2.13161 1.523243 2.502537 2.832648.213316.753946.27079 1.550487.394137 2.300757M8.864653 46.666205c.147442.44692.290242.880217.435252 1.319568-.190105.125838-.299084.230054-.429726.279567-1.76599.668541-3.583926.797406-5.416674.365406-1.258231-.296433-2.165652-1.095135-2.620137-2.27654-.726157-1.887784-.710463-3.819028-.003536-5.70292.64282-1.712432 2.004284-2.689297 3.825979-2.836324 1.114768-.090162 2.25982.138379 3.38741.257081.5922.062487.899242.383352.859232 1.022054-.044432.707892-.010169 1.420757-.010169 2.206703H7.117011c-.051285-.49881-.097927-.949838-.14258-1.384-2.897778-.624216-4.004589.921081-4.027357 2.673946-.011937.924973.01879 1.878703.23719 2.771027.273883 1.119351 1.092 1.699676 2.273304 1.671784 1.088685-.02573 2.172948-.226811 3.407085-.367352m17.888441.344605c.627347.076541 1.05619.128866 1.463368.178595.246916 1.24865.14678 1.403892-.96821 1.588108-.072506.012109-.145453.023352-.218622.02919-2.265789.178378-2.787031-.246054-2.728452-2.348757.058137-2.082378.01282-4.167351.01282-6.288-.357441-.089081-.666694-.16627-1.04602-.260973v-1.55027h3.485116v8.652108zm.249436-11.80722c.003757.843242-.661832 1.491026-1.527474 1.48627-.861663-.004541-1.517969-.666595-1.500063-1.512433.01702-.795243.64879-1.412324 1.47199-1.437838.847073-.026594 1.551789.636757 1.555547 1.464" fill="#FFF"/>
    </g>
  </g>
</svg>
