<svg width="80" height="80" viewBox="0 0 80 80" xmlns="http://www.w3.org/2000/svg">
  <title>
    zrx-0x
  </title>
  <g fill="none" fill-rule="evenodd">
    <circle fill="#FFF" cx="40" cy="40" r="40"/>
    <g fill-rule="nonzero" fill="#1D2227">
      <path d="M38.96 10h1.797c1.127.074 2.256.14 3.376.3 3.832.54 7.57 1.815 10.903 3.788-.767.61-1.59 1.146-2.376 1.73-5.317 3.807-10.62 7.634-15.943 11.432-.432-.358-.805-.777-1.214-1.16-1.215-1.163-2.396-2.36-3.62-3.51-.448.16-.856.408-1.273.632-2.78 1.553-5.147 3.815-6.87 6.49-2.244-2.833-4.394-5.74-6.517-8.662-.066-.097-.126-.2-.186-.3.8-.958 1.663-1.864 2.58-2.712 4.596-4.278 10.563-7.07 16.805-7.802.842-.115 1.693-.136 2.538-.226zM53.528 21.218c1.882-1.42 3.766-2.836 5.692-4.193 3.955 3.29 7.023 7.632 8.836 12.445 2.296 6.043 2.53 12.837.683 19.03-.647 2.18-1.543 4.28-2.67 6.257-.176-.15-.3-.348-.437-.53l-10.89-14.393c-.705-.943-1.43-1.87-2.125-2.82 1.59-1.708 3.247-3.356 4.842-5.06-1.112-2.402-2.703-4.55-4.676-6.31-.776-.708-1.63-1.316-2.494-1.907 1.053-.872 2.155-1.684 3.238-2.52M12.105 29.008c.54-1.336 1.14-2.655 1.89-3.888 1.056 1.33 2.065 2.702 3.102 4.05 3.29 4.31 6.576 8.62 9.86 12.93.217.284.448.556.633.86-1.66 1.734-3.362 3.426-5.014 5.166.4.942.938 1.818 1.502 2.67.855 1.258 1.855 2.41 2.98 3.435.81.758 1.713 1.402 2.622 2.033-.792.665-1.628 1.277-2.445 1.91-1.455 1.116-2.922 2.214-4.4 3.297-.7.496-1.372 1.033-2.094 1.497-4.655-3.893-8.08-9.233-9.673-15.09-.647-2.32-.962-4.722-1.067-7.127v-1.5c.035-.52.067-1.04.103-1.56.23-2.978.904-5.904 2.002-8.682zM54.263 52.894c.742-.803 1.376-1.695 1.995-2.593.67.825 1.308 1.675 1.957 2.515 1.608 2.115 3.2 4.242 4.74 6.406-.44.614-.983 1.145-1.5 1.694-4.308 4.437-10.015 7.5-16.106 8.597-1.44.277-2.905.394-4.367.49H38.81c-.643-.082-1.293-.095-1.937-.17-4.19-.44-8.295-1.762-11.923-3.91 1.242-.947 2.502-1.87 3.75-2.81 4.763-3.556 9.525-7.114 14.285-10.674.808.745 1.57 1.538 2.365 2.298.93.89 1.823 1.822 2.772 2.693 2.33-1.066 4.42-2.64 6.14-4.533"/>
    </g>
  </g>
</svg>
