<svg width="80" height="80" viewBox="0 0 80 80" xmlns="http://www.w3.org/2000/svg">
  <title>
    zsc-zeusshield
  </title>
  <g fill="none" fill-rule="evenodd">
    <circle fill="#FFF" cx="40" cy="40" r="40"/>
    <path d="M32.390232 40.629343c-.784723.59761-1.514872 1.157895-2.249426 1.712245-.734553.554158-1.478106 1.09664-2.209595 1.654818-.72.549564-1.430043 1.112337-2.144298 1.669558.016085.033115.032362.06623.048638.099346 3.752426-.91728 7.505043-1.83456 11.264936-2.753756.158362-.49635.315-.986957.490788-1.538244-.698362-.83765-1.434256-1.720284-2.169958-2.602917-.090766.187782-.10666.35604-.091532.521425.067596.740601-.565468 1.340509-1.083064 1.538436-.489638.187208-.99268.204819-1.457042-.12557-.111639-.07944-.255256-.113704-.399447-.17534zm15.252894.102984a420940.068193 420940.068193 0 0 0 4.029319-10.442106c-.031979-.01895-.063958-.0379-.095745-.057043-3.114957 3.771149-6.229915 7.542106-9.307915 11.268462.18651.528508.35866 1.016053.526404 1.490964.54249.144139 1.076745.294785 1.615405.426865.550149.13495 1.104702.251524 1.684723.382264-1.199298-1.41076-.24683-3.259103 1.547808-3.069406zm6.026936 6.294244c.010149-.034838.020298-.069677.030638-.104515-.068362-.042112-.131936-.106046-.205851-.122317-.417447-.091498-.838915-.163472-1.255787-.257267-.850979-.19161-1.696979-.405809-2.550064-.586317-.899617-.190462-1.807851-.339769-2.707277-.530805-1.178425-.250568-2.35168-.525637-3.527617-.788073-.338553-.075419-.678638-.143755-1.063149-.224917-.402702.654079-.998617 1.087452-1.680319 1.356396-.08617.881293-.05917 3.126831.045 3.475023.372064-.633023.931596-.9213 1.631298-.90235.720191.019525 1.165596.501327 1.534596 1.04132 3.279638-.792667 6.514085-1.574422 9.748532-2.356178zM39.239998 58.788129l.103979-.006891c0-.172469.003638-.344746-.000383-.517215-.052085-2.228884.029489-4.458152-.077937-6.688568-.085787-1.78192-.030638-3.570924-.027-5.356673.000766-.309142-.085404-.487161-.399063-.611201-.287043-.113129-.544405-.325413-.782426-.531571-.225-.194482-.40768-.437584-.616596-.667861-1.138978.24693-2.275468.493478-3.481276.754957 1.327021.502092 2.019064 1.78192.676915 3.284943 1.530957 3.438271 3.067276 6.889175 4.603787 10.34008zm1.725127-23.023703c-.061468-.067954-.078127-.09973-.104553-.113895-1.945149-1.054528-3.890872-2.107716-5.837361-3.159947-.055532-.029861-.121788-.039624-.176554-.07025-.56968-.31699-1.137063-.637618-1.707319-.953268-.11049-.061254-.235149-.096667-.34583-.157346-1.170191-.642595-2.33885-1.28806-3.507893-1.932377-.055915-.030818-.112213-.060871-.170043-.08767-.043085-.020099-.088276-.036178-.13366-.050151-.010914-.003446-.029872.004785-.039446.013782-.009575.009188-.012064.02565-.036766.083076 3.267957 3.735161 6.549702 7.485828 9.845425 11.252574.784341-.284066 1.559107-.318522 2.40683.013973.088468-.115808.179426-.247696.283022-.368673.620042-.723564 1.24334-1.444257 1.862425-2.16897.022021-.02565.009383-.081162.018575-.188165-.722681.332686-1.334107.142224-1.866639-.329432-.553021-.490033-.61966-1.140859-.490212-1.783261zm-.735127 31.626653c1.210021.554541 1.639532 1.209004 1.382936 2.190792-.212553.81334-.792574 1.260495-1.674383 1.316581-.721532.04594-1.562553-.665756-1.728191-1.410567-.181532-.815638.342-1.612707 1.395-2.097572V63.11267c-.23017-.090924-.49366-.15926-.717703-.293446-.224808-.134376-.410553-.334217-.648574-.534825-1.497638.824825-3.009638 1.65769-4.53983 2.500126 0 .255736-.01034.493096.001915.729307.036766.709399-.406915 1.13569-.944808 1.424158-.39332.210944-.858447.289043-1.328554.076568-.701617-.316607-1.126723-.809895-1.161-1.546667-.030063-.645848.244724-1.196752.840064-1.553558.778213-.466488 1.502809-.326944 2.057936.197736.067788.064126.143426.119446.226724.188357 1.539574-.847413 3.06651-1.688126 4.56434-2.512568-.044808-.41806-.084447-.787881-.132319-1.233313-1.61866-.595505-3.297447-1.213406-4.985234-1.83437-.164106.155815-.29949.28732-.437936.41538-.482936.446772-1.223043.543247-1.825085.274686-.667532-.29804-1.023894-.835545-1.058362-1.522356-.026426-.529466.199149-1.032515.64283-1.379367.556468-.434713 1.160234-.585742 1.823744-.236402.64034.33728 1.023894.840521 1.035 1.58763.00115.079247.00766.158878.01915.237168.004404.029096.030446.054938.061659.10777a25654.245176 25654.245176 0 0 1 4.843915 1.780963c.34832-.293446.613723-.51664.889085-.748449-1.584383-3.538191-3.159957-7.056667-4.756021-10.621082-.17617 0-.347553-.006317-.51817.001148-.426256.019142-.78817-.158878-1.085362-.42629-.585766-.526977-.855383-1.485221-.254873-2.272337.111064-.14567.233234-.282726.36517-.441604-.077553-.008422-.126765-.026224-.169467-.016462-.896362.205776-1.789086.427056-2.688128.620007-1.162723.249802-2.330234.47893-3.496213.714184-.253915.0513-.338553.13476-.381638.408297-.024702.156198-.04749.31278-.081192.536357.757915.633214 1.64298 1.165742 2.474809 1.768521.820915.59474 1.667872 1.15311 2.481893 1.712627 1.284128-.79458 1.958554-.545927 2.613064.159261.525447.566027.572936 1.445597.091915 2.112693-.457276.634172-1.453213.885314-2.146596.566027-.447893-.206159-.724404-.57043-.909765-1.00208-.184022-.429353-.123894-.870382.06702-1.330937-1.687403-1.1734-3.364659-2.339525-5.04402-3.507373-.302554.208838-.57466.396812-.885447.611584 0 .116766-.020681.259948.003064.395472.203936 1.155023.42434 2.307175.621957 3.463347.096128.562198.142851 1.132627.232851 1.696356.094979.594548.223468 1.183928.32132 1.778284.123701.750363.228829 1.503789.34736 2.254918.024512.155623.072767.307419.114512.478547.565276.105855 1.053.32503 1.41434.800132.286468.37633.313851.785585.287617 1.221446-.042128.701551-.67232 1.356013-1.416255 1.469333-.827234.126337-1.552405-.263201-1.870468-1.004567-.197809-.460938-.20815-.926852-.012256-1.388172.188426-.444092.538085-.738878 1.001107-.958053-.034085-.264732-.058405-.512812-.099-.75802-.144958-.875934-.300064-1.749953-.442915-2.626079-.178468-1.095109-.342575-2.192515-.523915-3.28705-.19149-1.15598-.396-2.310045-.603-3.51235-.211596-.017801-.407872-.034455-.63651-.053596-.666384 1.466653-1.321277 2.908422-1.982107 4.363399.395617.414997.747574.835736.751021 1.448469.002298.384178-.09383.735815-.312128 1.0306-.568914.767974-1.348085.890482-2.078617.606416-.678063-.263776-1.168085-.914218-1.06851-1.837815.037149-.346277.196468-.632832.411893-.895459.20949-.255353.485426-.432607.790852-.5153.315957-.085373.654127-.088244.979276-.126911.634787-1.177228 1.871043-3.973479 1.923128-4.364548-.446553-.341683-.749873-.794964-.884107-1.356205-.377042-.101835-4.923766-.104323-5.351744.00402-.121022.480462-.377426.882634-.844851 1.127268-.364022.190462-.747383.298422-1.152192.207306-.841404-.189505-1.521574-.90254-1.421234-1.871122.085404-.824633.702383-1.421287 1.466809-1.544178.867446-.139353 1.745808.44907 1.950319 1.353142.087319.022587.19034.072356.293744.07274 1.627469.004402 3.255128.002488 4.882596.000574.045958 0 .091532-.01876.095362-.019525.216574-.418442.418979-.808937.657383-1.2693-.996702-1.395063-2.037447-2.851763-3.094851-4.331624-.097468.034838-.201638.06221-.297.107769-1.116958.53425-2.447043-.210561-2.485724-1.543987-.026425-.90369.594192-1.610027 1.522724-1.7333 1.041127-.138014 1.848447.617326 1.978276 1.63223.031788.249037-.059361.541717-.174638.774291-.136532.27507-.089808.45194.084638.687578.77515 1.047062 1.52732 2.111353 2.287915 3.169326.23017.320436.459958.641063.680362.9481.387574-.096285.73551-.182806 1.090149-.270859.276894-1.414013.55551-2.794336.815553-4.178105.260426-1.385492.502085-2.77462.759638-4.204713-.11202-.078482-.236872-.171129-.366702-.25612-.580787-.380349-.803298-.947332-.736468-1.601412.072383-.706528.485617-1.241736 1.158894-1.444066 1.265553-.380158 2.23468.493096 2.287915 1.584377.035425.719927-.594383 1.694059-1.39749 1.72794-.132319.005743-.261.096284-.377808.142033-.528702 2.790126-1.050702 5.543116-1.579596 8.333241.254298.167492.515106.339578.823021.54229 2.243298-1.71435 4.483915-3.426976 6.748085-5.157405-.327446-.760317-.261383-1.451532.306766-2.043591.560873-.584403 1.261724-.577895 2.074022-.370588-2.289064-2.744185-4.513405-5.410653-6.736788-8.075973-.873766.196396-1.685297.219749-2.353787-.384561-.441957.167683-3.030127 2.084363-4.37151 3.225604.173489.527742.252383 1.061227-.048639 1.594904-.196468.348383-.452106.606416-.81651.77027-.832596.374416-1.675915.102984-2.188915-.62594-.36134-.513195-.431234-1.446937.208915-2.115564.65968-.68911 1.442106-.72969 2.485149-.09705 1.403042-1.096449 2.893212-2.09623 4.264276-3.266759-.076596-.345129-.144574-.6514-.223276-1.00629-1.176128-.21573-2.35666-.31029-3.539873-.504964-.111255.165195-.207957.307802-.304085.450792-.62885.937762-1.897276.989446-2.633553.28043-.822064-.792093-.711-2.2174.458617-2.808311 1.119255-.56526 2.338085.27124 2.488596 1.33132.00651.045558.02566.089393.049021.167874 1.163298.16443 2.335404.330007 3.51766.496925.105319-.173618.203361-.335367.314234-.51798-.16315-.353169-.517405-.530614-.786639-.788265-.07985-.076567-.177893-.133802-.261-.207115-.833936-.736964-1.668446-1.473545-2.498936-2.214528-.415532-.370779-.818808-.75534-1.234915-1.125736-.616595-.549182-1.239319-1.091472-1.890574-1.663815-.138064.062785-.281107.123082-.420128.191802-.684383.338812-1.304808.178977-1.861276-.274304-.523915-.427056-.742788-1.295333-.50515-1.8627.298341-.712845 1.035-1.250158 1.74198-1.184884 1.016425.094178 1.844808.94963 1.590318 2.154614-.035808.169214-.103978.331538-.173872.549373 2.21649 1.960706 4.439681 3.927346 6.678192 5.907386.139787-.070251.263106-.13227.39083-.196396.008616-.097815.040978-.183571.018382-.25076-.43851-1.30969-.882383-2.617465-1.32702-3.925049-.23515-.690831-.474129-1.380323-.705448-2.05297-.354255-.092838-.684574-.147201-.989808-.265498-.801192-.310865-1.334873-1.396403-.851553-2.341248.36785-.71897 1.07234-1.042086 1.867787-.91728.443106.069485.840447.283874 1.089191.701168.532724.892779.44732 1.563129-.306766 2.304303-.079276.0781-.167361.147393-.285127.250185a46732.808034 46732.808034 0 0 1 2.089149 6.184561h.603383c.387766-1.206706.622723-2.452845.942702-3.675821.32017-1.22336.661212-2.442317.901532-3.683862-.499405-.328092-.87434-.699063-.979277-1.244607-.07583-.39375-.016085-.775056.166596-1.157894.332234-.696 1.274744-1.058166 1.890191-.897948.857681.223386 1.375851.867703 1.379681 1.715499.002298.514726-.23266.901392-.575425 1.2626-.348894.367142-.80598.409637-1.298681.488502-.617553 2.441934-1.234532 4.882337-1.854383 7.332885.17349.123656.30734.096475.42166-.052066.330127-.428205.657957-.857941.986553-1.287294.791234-1.034812 1.583042-2.069241 2.37351-3.104819.742021-.972218 1.481553-1.946541 2.223766-2.918567.62617-.819849 1.254447-1.638165 1.880234-2.455334-.71234-.877465-.481787-1.866528.027958-2.39561.595532-.617518 1.459915-.653122 2.143532-.274113.741638.411169 1.021212 1.396403.712914 2.11365-.395234.919578-1.120595 1.210152-2.46485.938146-2.521341 3.293749-5.049 6.596112-7.573788 9.894264.21217.3926.405958.750937.607787 1.124396.604915-.04843 1.20217-.104898 1.800766-.140885.397724-.024118.798128-.00421 1.19566-.029478.728234-.046515 1.454936-.117723 2.18317-.16596.283596-.018568.569298-.002872.88315-.002872.136914-.625175.440616-1.107168.981-1.378409.342382-.171703.73034-.239082 1.116765-.14031.854043.218218 1.378532.807789 1.390596 1.657115.013021.910964-.508787 1.480627-1.313043 1.726984-.84983.260138-1.597596-.19697-2.15483-1.287677-.29566 0-.611234-.00938-.926042.003063-.252766.010145-.504192.057234-.757149.069676-.826468.040199-1.65351.068337-2.479979.108152-.491744.023736-.982532.06738-1.474276.089967-.485426.022396-.55532.096667-.52334.65427 4.11319 2.229651 8.244957 4.469255 12.40736 6.725704.667916-.607947 1.410512-.951545 2.277575-.407531.720383.45194.98234 1.125353.801 2.037465.147639-.145096.243192-.225492.323043-.319479 2.18068-2.561953 4.419-5.074904 6.613468-7.654468-.124085-.183954-.219064-.324647-.310404-.460172-2.175894.431459-4.318851.856218-6.484979 1.285762-.050553.1807-.103021.34513-.142277.51243-.18402.784052-1.011638 1.30586-1.754808 1.264132-.810575-.04575-1.422192-.564496-1.597596-1.333235-.178085-.781181.15549-1.47029.810575-1.864614.797361-.479887 1.524638-.24406 2.07268.219175.199724.16864.327447.42208.484277.632066.509362-.097815 1.005702-.189313 1.50051-.28866 1.322043-.26569 2.641213-.545927 3.96632-.794772.35751-.066997.724213-.077525 1.072532-.237551.034468-.225492.067596-.442178.10934-.715716-3.532596-1.701334-7.080319-3.410324-10.621915-5.11606-.343915.231809-.596298.519703-.985212.62728-.84466.233723-1.795213-.23085-2.088192-1.058739-.256021-.723755-.036383-1.56332.517787-1.9787.628085-.470508 1.566766-.47089 2.194085-.000765.478532.35872.734362 1.111571.602426 1.844323.184596.112555.376468.252674.587106.353743 1.100107.528891 2.206532 1.044574 3.307788 1.570977 1.575191.753043 3.148468 1.509914 4.72117 2.267934.515872.248462 1.025808.509175 1.541872.757254.139213.066997.290681.108726.455936.169215.110107-.12404.200681-.225875.319979-.36006-2.29232-3.271162-4.570468-6.522416-6.879255-9.81693-.119681.017801-.255447.031584-.388724.058574-1.242766.251525-2.213425-.709017-2.149468-1.79934.038681-.662693.40883-1.142198.979277-1.42435.553978-.274112 1.13266-.270667 1.679744.085756.485426.316416.789128.761657.834511 1.325769.022979.283683-.103596.585934-.194745.869234-.052085.16175-.168893.302442-.276127.486588.064532.129973.117383.280046.204893.40619.75083 1.08171 1.506256 2.159975 2.263405 3.237281 1.151808 1.638931 2.307447 3.275182 3.458106 4.914878.228255.325604.432383.668245.665426.990212.104553.14433.197042.341683.436404.305887.147255-.138204.107042-.309333.083106-.455577-.109915-.672647-.239362-1.341848-.357319-2.013155-.10417-.5934-.20183-1.187948-.30351-1.781921-.077362-.45328-.155873-.906178-.234958-1.359076-.081575-.467637-.177894-.93336-.241851-1.403294-.035426-.259373-.147255-.382647-.405383-.447538-.601085-.15122-1.047255-.49233-1.305-1.086878-.266553-.61522-.072-1.41229.396-1.844897.81383-.752086 1.974064-.653505 2.649447.222046.346595.449452.530425 1.443875-.155107 2.156528-.19666.204436-.429319.373842-.67634.585934.418021 2.381446.83949 4.782799 1.265936 7.212482.160085.029095.327447.05934.540575.097815.08483-.138396.193595-.274495.259468-.428779.54785-1.284805 1.088042-2.572673 1.629957-3.859967.216-.513195.434106-1.025432.643021-1.541307.069702-.172086.11432-.354317.170234-.53157-.126-.135143-.224425-.237552-.319212-.342832-.675383-.750172-.552256-1.707076.130595-2.38336.472405-.467446 1.044958-.533868 1.640681-.42878.881234.155242 1.49649 1.343572 1.19834 2.17816-.27651.773907-1.042467 1.280593-1.791 1.245564-.078701-.003637-.157978.00823-.286659.015887-.914362 2.057182-1.755383 4.160496-2.658255 6.279697.113936.117148.217915.224152.310787.319478.42166-.186825 7.39417-5.45353 7.693085-5.813208-.388149-.451366-.515106-1.006099-.368042-1.585333.08866-.349723.259276-.695234.586531-.906178.882958-.568898 1.488256-.54229 2.23966.028521.59668.45309.765766 1.391235.419362 2.084555-.216.432416-.578681.70672-1.023128.885888-.460149.185676-.902106.066422-1.36149-.092264-2.562893 1.943287-5.118893 3.881214-7.714914 5.849769.049021.16194.096319.317564.15683.517405 1.577106-.12289 3.10366-.403511 4.659893-.535016.050745-.13495.106851-.248653.136724-.368865.182298-.73103.689361-1.147175 1.384276-1.285188.613724-.121934 1.180532.111023 1.587064.582106.458234.531762.594 1.145835.269617 1.819439-.16468.341874-.382787.635511-.712149.813531-.778979.421505-1.764191.287703-2.373893-.638957-.060511-.092073-.108383-.192568-.18766-.334792-1.54283.115426-3.072638.366759-4.62083.533294-.093447.274495-.179234.526594-.265213.778118.254298.2967 4.897915 3.340647 5.342362 3.494931.435255-.361782.952085-.537505 1.531915-.468402.376277.044792.688787.238125.949979.507643.536936.554733.666957 1.397934.257744 2.064456-.458425.747491-1.299638 1.052805-2.154446.751511-.842937-.297082-1.147022-1.017584-.990383-2.340099-.128873-.093412-.264639-.200799-.409213-.294977-1.491702-.972983-2.984936-1.944244-4.477979-2.915122-.369191-.239848-.36249-.22932-.698744.02699-.198958.151604-.425298.267413-.662362.413657.138064.84301.285319 1.683914.411319 2.527881.14534.972218.270383 1.947498.40749 2.920865.063957.455386.134425.909815.203361 1.364627.035234.232957.17234.365993.403277.410594.81651.157155 1.217872.738686 1.374893 1.476033.125043.58804-.179042 1.093195-.594766 1.488284-.57485.546119-1.426978.511089-1.92217.254396-.66332-.343789-1.028872-.912495-.984638-1.666878.034468-.59072.372255-1.035386.865723-1.356779.117-.076185.238404-.146053.35732-.21841a90415.23745 90415.23745 0 0 0-1.076362-7.111795c-.36115-.164046-.506107-.133227-.621383.157538-.363256.916515-.715788 1.837241-1.071383 2.756819-.452873 1.171294-.90632 2.342205-1.35632 3.514647-.472212 1.23025-.941744 2.461841-1.41051 3.693432-.112404.295168-.218107.593017-.335873.9146.116426.129017.212362.253823.32649.358912.972957.895458.397149 2.61134-.792192 2.836831-.030064.005743-.05783.022588-.109149.043261.170426.073122.320362.163855.482554.203096 1.91317.463617 3.827872.91996 5.743149 1.374772.057446.01359.124085-.01225.17502-.018376.730533-.993274 1.833894-1.306244 3.035873-.631875 1.538426-1.467419 2.941277-3.090079 4.494064-4.5753-.261-.519895-.484277-1.00897-.280532-1.574997.140936-.39107.372638-.727775.710043-.938337.692042-.432033 1.299446-.461128 2.121893.132845.555128.401023.741447 1.271598.45651 1.953241-.216574.518172-.625403.847604-1.14185 1.014522-.504383.16328-1.002447-.002871-1.48883-.201756-1.492851 1.538053-2.952383 3.042033-4.424936 4.559413.15185.348574.296042.679155.446936 1.025815h5.435617c.15951-.588614.515298-1.026772 1.075979-1.297822.367276-.177637.780127-.205201 1.119064-.07293.856914.334026 1.365127.749788 1.229936 2.03019-.06932.657334-.638809 1.251882-1.404575 1.354483-.753893.100686-1.678404-.204819-2.017532-1.391235h-5.425468c-.125617.262627-.231127.566027-.405191.822528-.166596.245974-.404617.443518-.634213.68643.636702 1.487135 1.27034 2.966805 1.917766 4.478824.527745-.251716 1.022745-.246165 1.497447.012443.561638.306079.960702.76759.993255 1.415927.034468.692554-.243957 1.267003-.882766 1.627637-1.074638.606607-2.450106-.007083-2.603298-1.398891-.038872-.352977.061085-.734092.291447-1.035578.179426-.23468.166787-.425907.040213-.695042-.324192-.688918-.590745-1.404634-.88966-2.105611-.255447-.59895-.525447-1.191967-.785298-1.789195-.036957-.085373-.05266-.180125-.08502-.293828h-.531575c-.03734.121934-.081575.22262-.098234.327518-.097085.610244-.18766 1.221446-.28015 1.832264-.066638.438733-.130404.87804-.199914 1.31639-.119298.75132-.247979 1.5013-.362107 2.253386-.169085 1.111953-.325914 2.226013-.494042 3.337967-.054192.358145-.12734.71361-.19666 1.097406.138064.083841.257936.154858.376277.228554.541723.337855.841213.842244.856532 1.463208.019149.779076-.665043 1.545135-1.432724 1.693868-1.098766.21305-2.151-.676667-2.075744-1.7913.045-.663842.403085-1.159426 1.00666-1.453829.211978-.103366.442723-.167874.725935-.272772.119681-.807023.242809-1.649268.369383-2.490937.125043-.83076.251043-1.661327.380681-2.491512.131936-.84569.273256-1.690231.402894-2.536304.126957-.827313.244723-1.656158.371106-2.517544-.572936-.28866-1.087276-.630152-1.35-1.269492-3.296298.796686-6.561191 1.585716-9.831064 2.376086-.087702.919386-.478723 1.59567-1.363212 1.804125-.893107.21037-1.584-.15639-2.069809-1.071755-.022021.21171-.040787.310099-.041362.40887-.004978.861387.00134 1.722773-.011297 2.583968-.022788 1.576336-.056681 3.152482-.085022 4.728627-.003064.174191-.000383.348191-.000383.560666.221362.130548.435447.256694.60683.357954 2.040894-2.023491 4.049809-4.014825 6.081894-6.02932-.069702-.223577-.162-.47472-.225575-.732944-.144766-.587848.127532-1.291888.620426-1.64295.724787-.516258 1.410702-.527551 2.121702-.044218.719808.489267.958787 1.61175.38068 2.361155-.400595.51932-.934084.830568-1.61502.737538-.260234-.035795-.507064-.170554-.821298-.281769-1.006851.97375-2.007958 1.99631-3.015575 3.011597-1.006276 1.01414-2.049702 1.993248-2.984936 3.078403.084064.250568.226149.245208.418021.168066.546128-.218792 1.09666-.42629 1.646043-.637234.63766-.244825 1.276277-.487162 1.91317-.734093.13117-.050726.256404-.11734.383362-.176297.067596-.561815.111638-1.111762.539234-1.51221.323808-.3034.715021-.4841 1.15851-.503433.853277-.036944 1.418362.42227 1.737575 1.170145.272298.638-.055723 1.558152-.683809 1.981954-.423766.28598-.914553.384944-1.414723.249802-.473936-.127868-.827425-.460938-1.139936-.814871-.715404.264924-1.399596.513003-2.08015.771227-.682659.25899-1.361871.527743-2.065786.801472-.031213.40064-.063.806449-.099958 1.279254a39035.767155 39035.767155 0 0 1 4.448107 2.451505c.305234-.166917.599553-.346086.909383-.493096.625404-.297082 1.19968-.123082 1.679553.30072.574468.50726.748915 1.166125.500745 1.904812-.38317 1.140092-1.909341 1.502449-2.788852.679538-.397723-.371928-.621766-.796878-.567574-1.352568.01666-.17266.00249-.348191.00249-.544587-1.492277-.819466-2.977086-1.63472-4.434511-2.435043-.489256.295934-.95898.58-1.47083.889716v4.182508z" fill="#1E5EA0"/>
  </g>
</svg>
