<svg xmlns="http://www.w3.org/2000/svg" width="48" height="48" viewBox="0 0 48 48" xmlns:xlink="http://www.w3.org/1999/xlink">
  <defs>
    <path id="a" d="M48 24c0 13.254-10.745 24-24 24C10.745 48 0 37.254 0 24S10.746 0 24 0c13.255 0 24 10.746 24 24z"/>
  </defs>
  <g fill="none" fill-rule="evenodd">
    <mask id="b" fill="#fff">
      <use xlink:href="#a"/>
    </mask>
    <g mask="url(#b)">
      <path fill="#0437A0" d="M-3.255 51h54V-3h-54"/>
      <path fill="#FFF" d="M3.207-.05h5.898v6.9l10.488-6.9h4.415v2.906l-7.536 4.96h7.536v7.76h-7.536l7.536 4.958v2.907h-4.415L9.105 16.543v6.9H3.207v-6.9l-10.488 6.9H-11.7v-2.908l7.537-4.957H-11.7v-7.76h7.537l-7.538-4.96V-.05h4.417l10.487 6.9v-6.9"/>
      <path fill="#FF1612" d="M8.006-.038v9.322h16.012v4.845H8.006v9.322H4.324V14.13h-16.012V9.283H4.324V-.038h3.682zm16.012 22.4L13.72 15.588h-3.312l11.955 7.864h1.655v-1.09zM13.72 7.827l10.298-6.774v-1.09h-1.655L10.408 7.826h3.312zm-11.798 0L-10.03-.038h-1.658v1.09l10.3 6.775h3.31zm-3.31 7.76l-10.3 6.775v1.09h1.657L1.92 15.588h-3.31z"/>
      <path fill="#FFF" d="M41.944 31.2l.492 1.51 1.503-.562-.89 1.32 1.38.81-1.6.137.22 1.57-1.106-1.15-1.106 1.15.22-1.57-1.6-.137 1.382-.81-.89-1.32 1.502.562.492-1.51M33.017 17.254l.492 1.51 1.5-.562-.887 1.32 1.38.81-1.6.137.22 1.568-1.106-1.15-1.106 1.15.222-1.57-1.6-.137 1.38-.808-.888-1.32 1.502.562.49-1.51M41.944 7.71l.492 1.51 1.503-.56-.89 1.32 1.38.808-1.6.138.22 1.57-1.106-1.15-1.106 1.15.22-1.57-1.6-.138 1.382-.81-.89-1.32 1.502.562.492-1.51M45.513 21.973l.39.94 1.028.074-.787.656.246.986-.877-.536-.873.535.246-.987-.787-.656 1.025-.074.388-.94M6.238 30.162l1.032 3.17 3.154-1.18-1.867 2.772 2.9 1.7-3.36.287.464 3.3-2.322-2.413-2.325 2.412.462-3.3-3.36-.287 2.9-1.7-1.866-2.77 3.154 1.178 1.034-3.168"/>
    </g>
  </g>
</svg>
