<svg xmlns="http://www.w3.org/2000/svg" width="48" height="48" viewBox="0 0 48 48" xmlns:xlink="http://www.w3.org/1999/xlink">
  <defs>
    <path id="a" d="M48 24c0 13.254-10.745 24-24 24S0 37.253 0 24C0 10.746 10.745 0 24 0s24 10.745 24 24z"/>
  </defs>
  <g fill="none" fill-rule="evenodd">
    <mask id="b" fill="#fff">
      <use xlink:href="#a"/>
    </mask>
    <path fill="#FFF200" d="M48 24c0 13.254-10.745 24-24 24S0 37.253 0 24C0 10.746 10.745 0 24 0s24 10.745 24 24z" mask="url(#b)"/>
    <path fill="#47B71D" d="M47.947 27.45C46.257 39.07 36.157 48 23.952 48 11.987 48 2.047 39.42.066 28.14L23.47 43.233 47.947 27.45zM0 20.255C1.817 8.778 11.848 0 23.952 0 36.292 0 46.48 9.127 48 20.935L23.47 5.118 0 20.254z" mask="url(#b)"/>
    <path fill="#0F33AF" d="M11.747 20.78c-.25.994-.38 2.033-.38 3.103 0 6.88 5.466 12.46 12.208 12.46 5.472 0 10.104-3.676 11.654-8.74C33.912 26.36 29.99 23.04 24 21.34c-5.572-1.532-10.474-.906-12.253-.557zm23.913 4.89c.08-.584.124-1.18.124-1.787 0-6.882-5.465-12.46-12.21-12.46-4.994 0-9.287 3.06-11.178 7.445 1.578-.258 6.475-.83 12.048.78 6.065 1.757 9.52 4.53 11.216 6.022z" mask="url(#b)"/>
    <path fill="#FFF" d="M12.396 18.868c-.265.614-.484 1.253-.65 1.916 1.78-.352 6.682-.978 12.254.554 5.99 1.702 9.913 5.02 11.23 6.266.192-.626.336-1.27.43-1.934-1.696-1.492-5.15-4.265-11.216-6.02-5.573-1.613-10.47-1.04-12.048-.782z" mask="url(#b)"/>
    <path fill="#26B516" d="M13.08 19.04c.082-.01.16-.003.234.026.073.025.14.066.196.123.054.053.1.12.136.198.036.08.057.166.066.258.007.094 0 .176-.02.25-.02.075-.055.14-.1.19-.045.056-.102.1-.168.134-.066.033-.14.055-.22.064-.082.01-.158.01-.23-.008-.07-.016-.133-.045-.188-.085-.055-.04-.103-.09-.14-.157-.034-.067-.058-.145-.07-.237-.014-.093-.01-.184.008-.27.02-.086.05-.165.096-.233.046-.07.103-.127.17-.17.067-.045.144-.072.23-.082zm22.015 6.474c-.038-.073-.092-.137-.16-.19-.066-.055-.138-.09-.212-.11-.075-.016-.15-.017-.224 0-.075.016-.147.05-.214.1-.07.047-.132.11-.187.192-.055.08-.095.16-.117.244-.023.083-.032.165-.024.243.004.08.027.155.063.224.037.07.086.132.152.186.066.052.135.088.21.106.072.017.145.018.22.004.074-.015.144-.044.215-.09.07-.045.133-.106.19-.184.06-.076.1-.157.125-.243.026-.084.034-.166.03-.25-.01-.08-.03-.16-.07-.233zm-.173.41c-.018.057-.048.114-.09.17-.04.054-.084.1-.13.132-.047.032-.092.054-.138.066-.045.01-.092.01-.137 0-.046-.01-.087-.032-.128-.062-.04-.033-.07-.07-.09-.115-.024-.042-.035-.09-.037-.14-.002-.05.007-.103.023-.158.02-.055.047-.11.087-.17.038-.054.08-.1.125-.133.046-.034.092-.058.138-.07.048-.01.094-.01.14 0 .047.01.09.03.13.062.04.035.07.072.09.117.026.042.037.09.04.143.004.05-.006.104-.024.16zm-1.108-1.44c-.038-.054-.083-.1-.14-.142-.056-.04-.11-.067-.167-.082-.054-.017-.107-.02-.157-.014s-.096.02-.137.047c-.04.026-.076.06-.105.107-.026.042-.043.084-.05.125-.008.04-.005.08.005.125.01.043.03.088.06.134.03.048.07.1.116.153.04.045.077.086.105.12.025.036.046.066.058.093.013.028.018.053.018.073 0 .024-.008.045-.022.066-.013.02-.032.036-.053.045-.02.01-.042.016-.068.015-.026 0-.053-.008-.08-.018-.03-.014-.057-.028-.088-.05-.032-.024-.058-.05-.08-.078-.023-.028-.04-.06-.047-.092-.01-.035-.013-.07-.01-.11.003-.036.016-.075.037-.113-.072-.053-.107-.08-.18-.13-.034.06-.06.122-.07.182-.015.063-.016.123-.002.186.01.06.038.12.076.177.04.057.094.113.163.165.05.037.107.066.162.08.055.02.11.026.16.02.052-.006.1-.02.146-.047.045-.027.084-.064.116-.112.028-.04.047-.078.056-.12.01-.04.012-.076.006-.112-.004-.038-.014-.075-.03-.11-.015-.034-.034-.07-.056-.102-.022-.03-.047-.064-.072-.095l-.077-.087c-.03-.032-.055-.06-.075-.085-.017-.025-.03-.048-.04-.07-.01-.02-.014-.037-.014-.054 0-.016.005-.033.016-.047.024-.04.06-.058.105-.057.05 0 .1.022.16.065.124.09.153.204.088.333.07.052.106.08.176.13.037-.056.06-.114.07-.175.01-.06.01-.12-.006-.178-.012-.056-.04-.112-.074-.162zm-1.235-.858c-.04-.05-.088-.094-.148-.13-.055-.038-.113-.063-.17-.076-.054-.014-.108-.017-.157-.01-.05.007-.097.024-.136.052-.04.026-.076.063-.102.108-.023.042-.04.083-.045.123-.005.04-.002.082.01.123.013.043.035.086.067.13.03.045.072.095.123.146.043.042.08.083.108.113.03.035.052.063.065.09.014.028.02.05.02.073 0 .02-.006.043-.017.065-.015.02-.032.038-.05.047-.023.01-.045.016-.07.016-.025 0-.053-.005-.083-.016-.03-.01-.057-.025-.088-.044-.033-.02-.06-.047-.084-.074-.024-.03-.04-.057-.05-.09-.012-.032-.017-.068-.014-.104 0-.037.012-.076.03-.116-.073-.047-.11-.072-.185-.116-.033.057-.054.118-.065.18-.01.062-.008.122.008.18.015.06.043.117.084.173.042.055.1.106.17.153.054.037.11.062.166.078.057.016.112.02.163.01.053-.005.1-.022.144-.05.045-.027.082-.065.113-.114.026-.04.043-.082.05-.12.008-.04.008-.077.002-.114-.008-.035-.02-.07-.037-.105-.016-.034-.036-.066-.06-.098-.024-.033-.05-.063-.077-.092-.028-.03-.054-.057-.08-.082l-.077-.082c-.02-.024-.035-.048-.046-.066-.01-.02-.016-.037-.016-.053 0-.017.005-.034.014-.048.02-.038.057-.06.103-.06.046 0 .1.02.163.06.13.083.162.19.102.322.073.047.11.07.18.12.035-.057.057-.117.064-.175.008-.06.003-.118-.012-.173-.017-.055-.044-.108-.083-.156zm-1.21-.482c.044-.074.065-.112.107-.19-.314-.185-.473-.275-.793-.45-.233.436-.35.637-.585 1.066.315.182.473.277.784.468l.107-.183c-.236-.146-.356-.218-.596-.356l.154-.276c.22.125.328.19.544.32.044-.073.062-.11.105-.18-.217-.132-.328-.196-.547-.323l.135-.24c.236.134.353.203.585.344zm-1.308-.893c-.01-.026-.027-.05-.042-.072-.018-.02-.037-.04-.06-.058-.022-.018-.044-.033-.07-.047-.027-.017-.054-.03-.082-.045-.198-.1-.296-.15-.493-.246-.214.435-.32.645-.534 1.076l.2.1.217-.433c.085.045.13.067.215.11.022.01.04.026.055.043.016.016.03.035.04.055.01.02.017.044.02.068.003.023.003.046 0 .07-.02.137-.03.208-.053.345.084.044.127.067.21.114l.057-.377c.012-.09-.028-.218-.023-.223 0-.002.13-.01.187-.038.056-.03.1-.078.134-.142.014-.023.024-.047.03-.072.007-.024.012-.05.015-.074 0-.026 0-.05-.003-.077-.002-.026-.01-.05-.018-.076zm-.228.19c-.013.027-.03.048-.046.06-.018.015-.036.023-.06.027-.02.002-.047 0-.076-.01-.026-.006-.058-.022-.095-.04l-.267-.135c.057-.113.086-.168.14-.28.118.056.176.085.293.145.063.033.103.066.123.105.016.038.012.08-.012.128zm-1.272-1.016c-.05-.044-.108-.082-.175-.11-.08-.036-.16-.055-.237-.056-.08-.002-.152.012-.22.042-.07.028-.132.073-.186.13-.056.06-.104.134-.14.22-.035.085-.054.17-.06.25-.004.08.007.154.032.223.024.07.064.13.115.184.054.057.118.1.195.133.067.03.13.048.186.053.06.008.114.003.167-.012-.005.037-.007.056-.01.093.06.026.09.04.153.07l.274-.585c-.187-.087-.28-.13-.472-.213l-.083.19c.106.045.16.068.267.12-.02.044-.03.066-.053.11-.05.03-.106.04-.164.04-.057-.002-.117-.018-.185-.046-.046-.022-.085-.05-.116-.083-.032-.035-.056-.075-.068-.12-.014-.045-.018-.092-.014-.15.006-.05.02-.108.047-.17.026-.06.06-.11.095-.15.036-.043.075-.073.12-.093.04-.02.086-.03.135-.03.046 0 .094.01.142.032.04.018.076.038.105.062.026.026.05.053.065.08.016.03.023.06.026.092.002.033-.004.067-.016.1.084.04.126.058.21.097.023-.063.033-.123.028-.184-.004-.06-.02-.117-.047-.172-.03-.05-.068-.102-.116-.146zm-1.414-.556c-.057-.054-.127-.095-.206-.125-.08-.03-.158-.044-.236-.04-.078.002-.15.02-.218.054-.066.032-.127.08-.178.143-.054.062-.095.137-.126.225-.03.087-.044.17-.043.252.002.08.018.154.046.22.03.07.07.13.125.18.055.05.12.09.198.12.078.03.155.042.23.037.075-.004.146-.02.21-.053.068-.032.13-.08.182-.14.054-.058.1-.13.132-.216.034-.085.053-.17.054-.25 0-.08-.013-.157-.04-.226-.03-.066-.073-.128-.128-.18zm-.098.574c-.024.062-.053.112-.087.155-.035.042-.073.075-.115.097-.04.022-.084.036-.13.038-.047.003-.093-.003-.14-.02-.046-.018-.086-.044-.12-.075-.032-.033-.055-.072-.072-.114-.015-.045-.024-.094-.022-.148 0-.056.013-.113.034-.175.023-.06.052-.114.086-.155.034-.044.07-.077.113-.1.04-.022.085-.035.134-.04.048 0 .095.01.144.025.047.018.087.042.12.075.034.032.06.07.075.115.016.044.024.093.02.148-.002.054-.017.112-.04.174zm-1.27-1.026c-.013-.024-.032-.046-.05-.064-.023-.018-.046-.034-.07-.048-.024-.012-.05-.023-.078-.034l-.088-.03-.524-.16-.33 1.15.21.063c.054-.185.08-.276.136-.462.09.03.137.043.227.07.024.01.045.02.064.035.02.013.034.028.046.047.015.02.024.04.032.06.006.022.01.047.012.07.003.138.006.207.008.345l.224.072-.01-.377c-.005-.09-.067-.205-.063-.213 0 0 .126-.03.176-.07.05-.04.084-.092.11-.16.006-.025.01-.048.014-.074.002-.025.003-.05 0-.075 0-.024-.006-.05-.013-.074-.01-.025-.02-.048-.033-.07zm-.187.223c-.01.026-.022.048-.035.065-.015.017-.032.027-.054.036-.02.006-.045.01-.075.005-.03-.002-.063-.01-.1-.023l-.286-.086.09-.302c.124.037.185.056.31.096.066.02.113.047.136.082.025.033.027.075.013.127zm-1.255-.703c-.025-.023-.056-.047-.09-.067-.034-.02-.07-.037-.112-.05-.04-.015-.082-.025-.126-.037-.195-.047-.294-.068-.49-.11-.112.465-.17.697-.284 1.163.092.02.137.032.227.052l.11-.437c.104.024.154.035.256.06.156.037.283.035.38-.007.098-.042.163-.123.2-.245.012-.048.018-.09.014-.13 0-.038-.01-.072-.025-.105-.016-.03-.037-.06-.062-.086zm-.17.263c-.006.028-.018.05-.032.07-.015.017-.032.033-.057.042-.022.01-.05.015-.082.015s-.07-.005-.112-.015c-.105-.026-.156-.037-.26-.06l.083-.328c.102.025.153.036.257.06l.093.028c.03.012.05.026.07.044.02.016.033.036.042.06.008.023.006.05-.003.084zm-2.323.343c-.328-.06-.494-.088-.826-.14l.165-1.055c.335.053.5.083.834.143-.015.072-.02.11-.034.182-.248-.045-.372-.068-.622-.108-.015.095-.023.143-.04.238.232.037.347.058.577.097-.013.072-.02.108-.03.18-.23-.042-.345-.062-.573-.1-.02.11-.027.164-.045.275.25.04.376.062.627.11-.014.07-.02.107-.035.178zm-2.182-.327l-.21-.024.07-.752c-.13.294-.19.44-.316.726-.073-.006-.11-.01-.18-.018-.076-.303-.115-.455-.198-.77l-.05.75-.21-.017c.03-.456.04-.693.07-1.19l.29.025c.09.36.132.535.214.878.134-.324.202-.49.344-.823l.29.033-.115 1.183zm-1.602-.108c-.355-.018-.533-.025-.89-.033.012-.446.012-.682.022-1.198.358.008.537.017.895.038l-.01.214c-.265-.015-.4-.022-.664-.028-.004.112-.005.168-.007.278.248.005.372.01.618.023l-.007.203c-.247-.012-.37-.015-.616-.023-.002.124-.003.184-.008.304.272.007.408.01.677.026l-.01.195zm-1.418-.624c0 .404-.204.58-.602.586l-.384.01c-.007-.434-.017-.67-.028-1.207.16-.005.24-.006.397-.008.41-.005.618.223.617.62zm-.227 0c0-.06-.006-.116-.018-.164-.012-.05-.034-.09-.063-.125-.03-.035-.07-.062-.12-.08-.048-.02-.11-.026-.187-.026-.067 0-.103 0-.17.003.006.338.01.495.014.79.068 0 .1-.002.17-.003.072-.003.132-.012.18-.03.05-.018.087-.043.117-.078.03-.032.05-.07.06-.12.013-.05.018-.104.018-.167zm-1.238.615c-.094.003-.142.007-.234.01-.05-.11-.076-.17-.127-.29-.01-.022-.02-.04-.034-.058-.015-.018-.03-.033-.05-.046-.018-.01-.04-.02-.06-.025-.024-.006-.046-.008-.07-.007l-.24.02c.014.187.02.276.028.445-.087.008-.13.012-.218.018-.024-.418-.048-.652-.08-1.208.217-.018.327-.027.543-.04.033-.002.063-.002.092-.002.03 0 .058 0 .084.005.03.006.054.014.08.025.024.01.05.026.074.045.02.018.036.038.054.062.015.02.03.044.038.07.01.024.018.05.026.076.006.027.01.054.01.08.004.078-.012.143-.044.197-.032.056-.14.13-.14.13 0 .01.095.093.13.173.058.132.085.197.14.32zm-.826-.604l.296-.023c.04-.003.074-.007.102-.016.03-.006.053-.02.068-.033.02-.014.03-.03.037-.054.008-.022.01-.05.01-.08-.003-.056-.02-.097-.056-.12-.035-.026-.087-.038-.154-.033l-.322.023c.007.14.013.206.02.336zm-1.032.574c.04-.022.074-.052.1-.09.028-.035.048-.08.06-.13.01-.052.014-.11.008-.176-.007-.068-.02-.128-.044-.18-.02-.053-.05-.097-.084-.13-.034-.037-.073-.063-.117-.08-.043-.014-.09-.02-.14-.013-.05.008-.097.025-.14.05-.04.028-.074.063-.1.107-.027.044-.045.095-.057.15-.01.058-.01.12-.004.186.007.067.023.122.045.17.024.044.05.083.085.11.033.03.073.05.117.062.042.012.088.014.137.01.05-.008.094-.023.134-.045z" mask="url(#b)"/>
    <path fill="#FFF" d="M14.685 26.345l.12.374h.384l-.312.23.118.374-.31-.232-.31.232.117-.374-.312-.23h.387l.118-.375zm8.89 7.106l.04.128h.132l-.106.078.04.126-.105-.077-.105.077.04-.126-.103-.078h.128l.04-.127zm2.69-2.927l.074.236h.242l-.198.146.077.235-.196-.145-.197.146.075-.234-.196-.147h.242l.076-.237zm2.004.32l.074.236h.244l-.198.143.076.238-.197-.146-.198.147.075-.237-.195-.144h.242l.075-.238zm1.362-.434l.075.233h.242l-.198.146.076.236-.196-.146-.198.146.073-.237-.194-.147h.243l.076-.234zm4.188-2.38l.073.235h.244l-.198.145.074.236-.194-.146-.198.146.076-.236-.2-.145h.246l.076-.236zm-4.16 4.865l.077.236h.243l-.196.147.074.236-.197-.147-.196.147.076-.236-.196-.146h.244l.073-.235zm1.24-2.24l.074.237h.244l-.196.145.075.238-.198-.146-.196.145.075-.238-.2-.145h.244l.075-.236zm-4.008-7.724l.075.238h.242l-.195.146.073.236-.196-.146-.197.146.075-.236-.197-.146h.243l.076-.237zm-4.548 3.734l.075.237h.242l-.198.147.076.235-.196-.146-.2.146.076-.235-.195-.146h.244l.074-.236zm-9.142.982l.076.236h.242l-.196.145.074.236-.196-.145-.197.145.076-.236-.197-.145h.245l.074-.236zm19.422 1.28l.096.304h.31l-.25.187.096.304-.252-.187-.253.188.096-.303-.252-.187h.313l.097-.304zm-.753 1.008l.098.302h.31l-.252.188.1.302-.255-.187-.25.186.094-.302-.25-.188h.31l.097-.302zm-4.645 1.9l.096.303h.313l-.253.188.096.3-.25-.186-.254.185.097-.3-.254-.188h.313l.095-.304zm2.466-.294l.098.303h.312l-.252.187.094.302-.25-.186-.253.186.097-.302-.253-.187h.31l.097-.303zm-12.833-2.61l.096.303h.312l-.25.186.093.303-.25-.188-.254.188.097-.304-.25-.187h.31l.097-.303zm8.124-2.362l.097.303h.312l-.255.188.098.304-.252-.188-.252.188.097-.304-.252-.187h.31l.098-.302zm-1.403-1.113l.097.302h.31l-.25.188.095.303-.253-.187-.252.188.095-.303-.252-.188h.312l.097-.302zm-4.65-1.514l.095.303h.312l-.252.188.097.304-.254-.186-.252.186.096-.303-.252-.187h.31l.098-.302zm-1.7 3.76l.096.3h.312l-.253.188.098.302-.252-.188-.252.188.097-.302L16.82 28h.31l.098-.3zm5.733-.07l.053.165h.17l-.138.102.054.165-.14-.102-.138.102.054-.165-.138-.102h.17l.052-.166zm-7.064-1.745l.053.164h.17l-.14.1.054.167-.138-.103-.14.103.055-.166-.137-.1h.17l.053-.165zM27.38 19.48l.115.372h.386l-.31.233.118.372-.31-.23-.31.23.118-.372-.31-.233h.383l.12-.372zm4.746 8.235l.12.373h.384l-.312.23.12.373-.312-.228-.31.23.117-.374-.31-.23h.384l.12-.373zm-18.52-6.6l.12.372h.384l-.31.23.118.374-.312-.23-.31.23.12-.373-.312-.23h.384l.118-.373zm9.967 7.823l.12.37h.385l-.312.23.12.375-.313-.23-.31.23.118-.374-.31-.232h.386l.117-.37zm-4.785 1.39h.386l-.31.232.117.37-.31-.23-.31.23.12-.37-.313-.232h.384l.12-.374.118.374z" mask="url(#b)"/>
  </g>
</svg>
