<svg xmlns="http://www.w3.org/2000/svg" width="48" height="48" viewBox="0 0 48 48" xmlns:xlink="http://www.w3.org/1999/xlink">
  <defs>
    <path id="a" d="M48 24c0 13.255-10.745 24-24 24S0 37.255 0 24C0 10.743 10.745 0 24 0s24 10.744 24 24z"/>
  </defs>
  <g fill="none" fill-rule="evenodd">
    <mask id="b" fill="#fff">
      <use xlink:href="#a"/>
    </mask>
    <use fill="#D8D8D8" xlink:href="#a"/>
    <path fill="#FFF" d="M3 48h42V0H3" mask="url(#b)"/>
    <path fill="#FF1612" d="M-3 42h9V6h-9M42 42h9V6h-9M24.14 8.688s2.112 3.982 2.414 4.492c.304.51.607.582 1.34.24.734-.343 1.793-.925 1.793-.925s-1.182 6.182-1.366 7.18c-.184.994.48 1.34 1.132.588.654-.748 3.07-3.443 3.07-3.443s.35 1.235.447 1.627c.095.39.3.653 1.018.517.718-.135 3.672-.785 3.672-.785s-1.04 3.694-1.143 4.18c-.105.487-.216.68.38.973.6.296 1.34.63 1.34.63s-6.07 5.004-6.588 5.393c-.52.39-.623.623-.37 1.435.256.815.464 1.612.464 1.612s-6-.84-6.66-.928c-.662-.088-.598.614-.582.98.016.367.177 6.696.177 6.696H23.6s.16-6.33.177-6.696c.014-.366.08-1.068-.583-.98-.662.087-6.66.928-6.66.928s.205-.797.46-1.61c.257-.813.153-1.046-.365-1.436-.52-.39-6.59-5.393-6.59-5.393s.74-.334 1.34-.63c.597-.294.485-.486.382-.972-.104-.486-1.145-4.18-1.145-4.18s2.953.65 3.672.784c.715.136.924-.127 1.02-.517.094-.392.445-1.627.445-1.627s2.416 2.695 3.07 3.443c.655.752 1.316.406 1.133-.59-.184-.996-1.368-7.178-1.368-7.178s1.06.582 1.793.924c.735.342 1.038.27 1.34-.24.303-.51 2.416-4.492 2.416-4.492" mask="url(#b)"/>
  </g>
</svg>
