<svg xmlns="http://www.w3.org/2000/svg" width="48" height="48" viewBox="0 0 48 48" xmlns:xlink="http://www.w3.org/1999/xlink">
  <defs>
    <path id="a" d="M48 24c0 13.255-10.745 24-24 24S0 37.255 0 24 10.745 0 24 0s24 10.745 24 24z"/>
  </defs>
  <g fill="none" fill-rule="evenodd">
    <mask id="b" fill="#fff">
      <use xlink:href="#a"/>
    </mask>
    <path fill="#FF1612" d="M0 48h48V0H0" mask="url(#b)"/>
    <path fill="#FEDF00" d="M24.855 7l-1.013 1.37-1.613-.548.986 1.388-1.02 1.364 1.626-.51.983 1.39.015-1.703 1.63-.504-1.617-.542L24.855 7zm5.612 5.37l-1.613.553-1.02-1.366.03 1.704-1.615.548 1.63.5.02 1.704.98-1.395 1.626.506-1.025-1.362.987-1.39zm.4 7.577l-1.703-.027-.495-1.63-.554 1.61-1.703-.032 1.363 1.023-.558 1.612 1.393-.98 1.36 1.028-.5-1.628 1.398-.975zm-4.48 5.256l-1.63-.5L24.734 23l-.978 1.394-1.628-.507 1.023 1.362-.985 1.39 1.612-.553 1.02 1.366-.03-1.703 1.616-.547zM12.63 9.2l-1.56 4.828L6 14.018l4.11 2.974-1.577 4.82 4.1-2.988 4.097 2.99-1.578-4.822 4.11-2.974-5.073.01L12.63 9.2z" mask="url(#b)"/>
  </g>
</svg>
