<svg xmlns="http://www.w3.org/2000/svg" width="48" height="48" viewBox="0 0 48 48" xmlns:xlink="http://www.w3.org/1999/xlink">
  <defs>
    <circle id="a" cx="24" cy="24" r="24"/>
  </defs>
  <g fill="none" fill-rule="evenodd">
    <circle cx="24" cy="24" r="24" fill="#D8D8D8" fill-rule="nonzero"/>
    <mask id="b" fill="#fff">
      <use xlink:href="#a"/>
    </mask>
    <g mask="url(#b)">
      <path fill="#C60B1E" fill-rule="nonzero" d="M0 0h48v48H0"/>
      <path fill="#FFC400" fill-rule="nonzero" d="M0 12h48v24H0"/>
      <path fill="#AD1519" fill-rule="nonzero" d="M15.31 21.07s-.055 0-.084-.018c-.03-.017-.12-.102-.12-.102l-.07-.05-.066-.092s-.078-.123-.042-.22c.035-.095.095-.13.15-.158.053-.028.166-.062.166-.062s.09-.04.12-.045c.03-.006.137-.034.137-.034s.03-.018.06-.03c.03-.01.072-.01.096-.017.024-.005.083-.024.12-.026.055-.002.142.01.172.01s.132.006.173.006c.043 0 .192-.012.234-.012.04 0 .072-.004.12 0 .047.007.13.035.155.046.022.012.166.063.22.08.053.016.184.04.244.067.06.028.096.076.126.116.03.038.035.08.047.11.012.028.012.09 0 .117-.01.028-.054.086-.054.086l-.065.107-.084.068s-.06.057-.107.05c-.048-.004-.53-.09-.842-.09-.31 0-.806.09-.806.09"/>
      <path stroke="#000" stroke-width=".1" d="M15.31 21.07s-.055 0-.084-.018c-.03-.017-.12-.102-.12-.102l-.07-.05-.066-.092s-.078-.123-.042-.22c.035-.095.095-.13.15-.158.053-.028.166-.062.166-.062s.09-.04.12-.045c.03-.006.137-.034.137-.034s.03-.018.06-.03c.03-.01.072-.01.096-.017.024-.005.083-.024.12-.026.055-.002.142.01.172.01s.132.006.173.006c.043 0 .192-.012.234-.012.04 0 .072-.004.12 0 .047.007.13.035.155.046.022.012.166.063.22.08.053.016.184.04.244.067.06.028.096.076.126.116.03.038.035.08.047.11.012.028.012.09 0 .117-.01.028-.054.086-.054.086l-.065.107-.084.068s-.06.057-.107.05c-.048-.004-.53-.09-.842-.09-.31 0-.806.09-.806.09z" stroke-linejoin="round"/>
      <path fill="#C8B100" fill-rule="nonzero" d="M16.12 21.052h-.506l-.012-.125-.024-.13-.025-.16c-.14-.186-.27-.307-.312-.28.01-.035.024-.06.05-.076.125-.073.382.104.574.395l.05.08h.418l.05-.08c.192-.29.45-.468.573-.395.027.016.04.042.05.076-.044-.026-.172.095-.313.28l-.024.16-.024.13-.012.126h-.51"/>
      <path stroke="#000" stroke-width=".1" d="M16.12 21.052h-.506l-.012-.125-.024-.13-.025-.16c-.14-.186-.27-.307-.312-.28.01-.035.024-.06.05-.076.125-.073.382.104.574.395l.05.08h.418l.05-.08c.192-.29.45-.468.573-.395.027.016.04.042.05.076-.044-.026-.172.095-.313.28l-.024.16-.024.13-.012.126h-.51z"/>
      <path fill="#C8B100" fill-rule="nonzero" d="M14.95 22.138h2.353v-.617H14.95"/>
      <path stroke="#000" stroke-width=".1" d="M14.95 22.138h2.353v-.617H14.95z"/>
      <path fill="#C8B100" fill-rule="nonzero" d="M14.917 32.434h2.415v-.617h-2.415"/>
      <path stroke="#000" stroke-width=".1" d="M14.917 32.434h2.415v-.617h-2.415z"/>
      <path fill="#AD1519" fill-rule="nonzero" d="M14.728 29.134c-.24.138-.402.28-.375.35.013.065.09.113.197.185.17.118.275.33.193.428.142-.114.23-.284.23-.473 0-.198-.093-.377-.245-.49"/>
      <path stroke="#000" stroke-width=".1" d="M14.728 29.134c-.24.138-.402.28-.375.35.013.065.09.113.197.185.17.118.275.33.193.428.142-.114.23-.284.23-.473 0-.198-.093-.377-.245-.49z"/>
      <path fill="#CCC" fill-rule="nonzero" d="M15.263 31.215h1.716v-8.41h-1.717"/>
      <path stroke="#000" stroke-width=".1" d="M16.486 22.817v8.39-8.39zm.193 0v8.39-8.39zm-1.417 8.398h1.716v-8.41h-1.717v8.41z"/>
      <path fill="#AD1519" fill-rule="nonzero" d="M18.732 25.95c-.374-.154-1.01-.27-1.74-.293-.253.002-.534.026-.824.074-1.027.172-1.81.582-1.746.916 0 .007.003.022.005.028 0 0-.385-.867-.39-.9-.07-.37.798-.826 1.937-1.016.334-.055.67-.082 1.01-.08.728 0 1.362.093 1.743.235l.005 1.038"/>
      <path stroke="#000" stroke-width=".1" d="M18.732 25.95c-.374-.154-1.01-.27-1.74-.293-.253.002-.534.026-.824.074-1.027.172-1.81.582-1.746.916 0 .007.003.022.005.028 0 0-.385-.867-.39-.9-.07-.37.798-.826 1.937-1.016.334-.055.67-.082 1.01-.08.728 0 1.362.093 1.743.235l.005 1.038" stroke-linejoin="round"/>
      <path fill="#AD1519" fill-rule="nonzero" d="M15.26 27.006c-.476-.034-.8-.16-.84-.36-.028-.16.133-.334.42-.493.13.013.273.03.423.03l-.003.823"/>
      <path stroke="#000" stroke-width=".1" d="M15.26 27.006c-.476-.034-.8-.16-.84-.36-.028-.16.133-.334.42-.493.13.013.273.03.423.03l-.003.823"/>
      <path fill="#AD1519" fill-rule="nonzero" d="M16.982 26.364c.298.045.52.12.632.21l.01.018c.053.11-.208.34-.645.598l.002-.826"/>
      <path stroke="#000" stroke-width=".1" d="M16.982 26.364c.298.045.52.12.632.21l.01.018c.053.11-.208.34-.645.598l.002-.826"/>
      <path fill="#AD1519" fill-rule="nonzero" d="M14.193 28.63c-.045-.137.42-.41 1.076-.65.298-.107.546-.22.853-.354.91-.403 1.584-.865 1.5-1.034l-.008-.017c.05.04.124.87.124.87.082.154-.534.61-1.373 1.012-.268.128-.835.338-1.103.432-.48.165-.955.478-.91.594l-.16-.855"/>
      <path stroke="#000" stroke-width=".1" d="M14.193 28.63c-.045-.137.42-.41 1.076-.65.298-.107.546-.22.853-.354.91-.403 1.584-.865 1.5-1.034l-.008-.017c.05.04.124.87.124.87.082.154-.534.61-1.373 1.012-.268.128-.835.338-1.103.432-.48.165-.955.478-.91.594l-.16-.855z" stroke-linejoin="round"/>
      <path fill="#C8B100" fill-rule="nonzero" d="M15.144 25.547c.21-.076.348-.167.28-.332-.042-.105-.15-.125-.313-.066l-.286.103.26.638c.027-.012.055-.025.084-.036.03-.01.06-.02.09-.027l-.114-.28zm-.125-.307l.072-.026c.06-.022.128.01.158.084.023.056.017.12-.052.163-.024.015-.05.027-.075.036l-.104-.256zm.795-.267c-.03.01-.06.018-.09.023-.03.007-.063.01-.093.014l.148.663.463-.093c-.005-.013-.012-.027-.015-.04-.003-.015-.003-.03-.004-.044-.08.023-.17.05-.276.07l-.133-.593zm.927.572c.087-.24.193-.47.297-.704-.04.007-.077.01-.115.008-.055.17-.124.34-.197.507-.087-.16-.183-.316-.257-.477-.035.005-.07.01-.108.013-.036.003-.073.003-.11.003.134.217.263.434.385.66.017-.004.034-.01.053-.01h.052v.002zm.968-.51c.016-.032.032-.064.05-.094-.025-.022-.1-.057-.19-.066-.19-.02-.298.065-.31.18-.027.238.35.217.332.375-.008.068-.08.095-.157.088-.086-.01-.148-.056-.16-.126l-.023-.002c-.012.04-.03.08-.05.12.055.037.127.057.196.064.192.02.34-.058.353-.185.026-.227-.354-.24-.34-.374.007-.056.05-.093.148-.083.07.007.114.045.133.1l.02.002z"/>
      <path fill="#AD1519" fill-rule="nonzero" d="M31.874 20.877s-.078.08-.135.093c-.057.01-.13-.05-.13-.05s-.05.052-.113.066c-.062.015-.15-.07-.15-.07s-.06.085-.112.105c-.054.02-.12-.025-.12-.025s-.023.042-.068.065c-.02.01-.05-.006-.05-.006l-.064-.04-.07-.076-.067-.025s-.03-.096-.033-.113l-.01-.06c-.012-.068.094-.148.245-.182.086-.02.162-.018.217 0 .06-.052.188-.088.338-.088.136 0 .255.03.32.073.066-.044.185-.073.32-.073.15 0 .278.036.338.087.057-.017.132-.018.22 0 .15.035.256.115.242.184 0 0-.006.043-.01.06-.002.017-.03.113-.03.113l-.067.026-.072.075-.062.04s-.03.014-.05.006c-.045-.022-.07-.065-.07-.065s-.064.046-.118.026c-.054-.02-.113-.104-.113-.104s-.088.085-.15.07c-.063-.014-.114-.067-.114-.067s-.072.06-.128.05c-.057-.012-.134-.093-.134-.093"/>
      <path stroke="#000" stroke-width=".1" d="M31.874 20.877s-.078.08-.135.093c-.057.01-.13-.05-.13-.05s-.05.052-.113.066c-.062.015-.15-.07-.15-.07s-.06.085-.112.105c-.054.02-.12-.025-.12-.025s-.023.042-.068.065c-.02.01-.05-.006-.05-.006l-.064-.04-.07-.076-.067-.025s-.03-.096-.033-.113l-.01-.06c-.012-.068.094-.148.245-.182.086-.02.162-.018.217 0 .06-.052.188-.088.338-.088.136 0 .255.03.32.073.066-.044.185-.073.32-.073.15 0 .278.036.338.087.057-.017.132-.018.22 0 .15.035.256.115.242.184 0 0-.006.043-.01.06-.002.017-.03.113-.03.113l-.067.026-.072.075-.062.04s-.03.014-.05.006c-.045-.022-.07-.065-.07-.065s-.064.046-.118.026c-.054-.02-.113-.104-.113-.104s-.088.085-.15.07c-.063-.014-.114-.067-.114-.067s-.072.06-.128.05c-.057-.012-.134-.093-.134-.093z"/>
      <path fill="#C8B100" fill-rule="nonzero" d="M30.698 22.138h2.353v-.617H30.7"/>
      <path stroke="#000" stroke-width=".1" d="M30.698 22.138h2.353v-.617H30.7z"/>
      <path fill="#C8B100" fill-rule="nonzero" d="M30.668 32.434h2.416v-.617h-2.416"/>
      <path stroke="#000" stroke-width=".1" d="M30.668 32.434h2.416v-.617h-2.416z"/>
      <path fill="#AD1519" fill-rule="nonzero" d="M33.273 29.134c.24.138.4.28.375.35-.013.065-.09.113-.198.185-.17.118-.274.33-.193.428-.14-.114-.23-.284-.23-.473 0-.198.094-.377.246-.49"/>
      <path stroke="#000" stroke-width=".1" d="M33.273 29.134c.24.138.4.28.375.35-.013.065-.09.113-.198.185-.17.118-.274.33-.193.428-.14-.114-.23-.284-.23-.473 0-.198.094-.377.246-.49z"/>
      <path fill="#CCC" fill-rule="nonzero" d="M31.02 31.215h1.718v-8.41H31.02"/>
      <path stroke="#000" stroke-width=".1" d="M32.267 22.802v8.392-8.392zm.192 0v8.392-8.392zm-1.44 8.413h1.718v-8.41H31.02v8.41z"/>
      <path fill="#AD1519" fill-rule="nonzero" d="M29.268 25.95c.375-.154 1.012-.27 1.742-.293.252.002.533.026.823.074 1.026.172 1.808.582 1.746.916l-.006.028s.385-.867.39-.9c.07-.37-.798-.826-1.937-1.016-.334-.055-.672-.082-1.01-.08-.73 0-1.363.093-1.744.235l-.005 1.038"/>
      <path stroke="#000" stroke-width=".1" d="M29.268 25.95c.375-.154 1.012-.27 1.742-.293.252.002.533.026.823.074 1.026.172 1.808.582 1.746.916l-.006.028s.385-.867.39-.9c.07-.37-.798-.826-1.937-1.016-.334-.055-.672-.082-1.01-.08-.73 0-1.363.093-1.744.235l-.005 1.038" stroke-linejoin="round"/>
      <path fill="#AD1519" fill-rule="nonzero" d="M32.74 27.006c.477-.034.802-.16.84-.36.03-.16-.133-.334-.42-.493-.128.013-.273.03-.422.03l.003.823"/>
      <path stroke="#000" stroke-width=".1" d="M32.74 27.006c.477-.034.802-.16.84-.36.03-.16-.133-.334-.42-.493-.128.013-.273.03-.422.03l.003.823"/>
      <path fill="#AD1519" fill-rule="nonzero" d="M31.02 26.364c-.3.045-.522.12-.634.21l-.01.018c-.053.11.21.34.645.598v-.826"/>
      <path stroke="#000" stroke-width=".1" d="M31.02 26.364c-.3.045-.522.12-.634.21l-.01.018c-.053.11.21.34.645.598v-.826"/>
      <path fill="#AD1519" fill-rule="nonzero" d="M33.807 28.63c.045-.137-.42-.41-1.075-.65-.3-.107-.547-.22-.854-.354-.91-.403-1.584-.865-1.5-1.034l.008-.017c-.048.04-.123.87-.123.87-.084.154.533.61 1.37 1.012.27.128.836.338 1.104.432.48.165.954.478.91.594l.16-.855"/>
      <path stroke="#000" stroke-width=".1" d="M33.807 28.63c.045-.137-.42-.41-1.075-.65-.3-.107-.547-.22-.854-.354-.91-.403-1.584-.865-1.5-1.034l.008-.017c-.048.04-.123.87-.123.87-.084.154.533.61 1.37 1.012.27.128.836.338 1.104.432.48.165.954.478.91.594l.16-.855z" stroke-linejoin="round"/>
      <path fill="#C8B100" fill-rule="nonzero" d="M30.338 25.582c.065-.246.15-.484.23-.725-.017.005-.036.008-.055.01-.02.004-.038.006-.057.006-.04.174-.093.348-.15.522-.1-.152-.212-.3-.3-.454-.035.008-.07.017-.107.022-.036.005-.074.008-.11.01.153.206.3.414.443.626.017-.005.033-.01.052-.013.017-.002.035-.002.053-.003zm.653-.72l-.093.003c-.032 0-.063-.004-.094-.006l-.012.676.474.008c-.002-.014-.006-.03-.005-.044 0-.013.003-.028.005-.042-.095.007-.19.01-.285.01l.01-.606zm.744.11c.076.007.148.02.22.034 0-.015-.002-.03 0-.044 0-.013.005-.027.01-.04l-.642-.054c.002.014.004.028.003.042-.002.015-.007.028-.01.042.065 0 .144-.002.232.006l-.056.61c.033 0 .064 0 .095.002.03.002.062.008.093.012l.056-.61zm.262.668l.093.016c.03.006.06.016.09.025l.075-.31h.008l.053.126.095.235c.038.007.075.012.112.02.037.008.073.02.11.03l-.034-.072c-.05-.106-.105-.21-.15-.32.12.006.21-.036.233-.13.018-.067-.008-.12-.07-.163-.046-.033-.135-.05-.193-.063l-.258-.057-.164.665zm.332-.572c.074.016.167.028.167.113 0 .018-.002.034-.006.05-.025.1-.1.135-.225.097l.063-.26zm.89.775c-.007.074-.02.145-.034.222.032.016.065.03.096.047.03.017.06.036.09.055l.063-.764c-.03-.01-.057-.026-.082-.045l-.672.428c.018.008.036.016.054.026l.05.03c.056-.048.115-.087.183-.137l.252.138zm-.192-.174l.225-.146-.026.253-.198-.108z"/>
      <path fill="#AD1519" fill-rule="nonzero" stroke="#000" stroke-width=".1" d="M23.933 16.896c.7 0 1.326.103 1.732.265.233.106.546.183.888.23.26.034.508.04.723.024.288-.005.704.08 1.12.263.346.153.634.34.825.52l-.165.146-.048.418-.453.52-.227.194-.537.43-.275.022-.084.238-3.475-.408-3.486.408-.085-.238-.275-.022-.537-.43-.227-.193-.453-.52-.048-.417-.166-.147c.19-.18.48-.366.823-.52.417-.183.833-.267 1.12-.26.216.015.464.008.724-.027.343-.047.655-.124.888-.23.407-.16.996-.264 1.697-.264z"/>
      <path fill="#C8B100" fill-rule="nonzero" stroke="#000" stroke-width=".1" d="M23.986 21.484c-1.295 0-2.455-.155-3.283-.404-.06-.018-.092-.074-.09-.13 0-.057.03-.108.09-.125.828-.25 1.988-.403 3.283-.405 1.295.002 2.454.156 3.282.405.06.017.09.068.088.124.004.056-.028.112-.088.13-.828.25-1.987.403-3.282.405"/>
      <path fill="#AD1519" fill-rule="nonzero" d="M23.983 21.315c-1.17-.002-2.225-.137-3.03-.345.805-.208 1.86-.335 3.03-.337 1.168.002 2.23.13 3.034.337-.804.208-1.866.343-3.034.345"/>
      <path stroke="#000" stroke-width=".1" d="M24.82 21.284v-.635m-.32.655l.004-.673m-.237.68v-.684"/>
      <path fill="#C8B100" fill-rule="nonzero" stroke="#000" stroke-width=".1" d="M23.977 20.42c-1.31.002-2.487.166-3.315.42.07-.032.063-.116-.023-.337-.104-.266-.265-.255-.265-.255.915-.27 2.19-.44 3.607-.44 1.42 0 2.704.17 3.62.44 0 0-.162-.012-.265.255-.086.22-.092.305-.023.338-.828-.254-2.027-.418-3.337-.42"/>
      <path fill="#C8B100" fill-rule="nonzero" stroke="#000" stroke-width=".1" d="M23.982 19.807c-1.418.003-2.692.17-3.607.442-.06.017-.126-.007-.146-.064-.02-.058.012-.125.073-.143.92-.282 2.227-.46 3.68-.462 1.453.003 2.765.18 3.685.463.06.018.093.085.074.143-.02.057-.085.08-.146.063-.915-.272-2.195-.44-3.614-.443"/>
      <path stroke="#000" stroke-width=".1" d="M23.983 21.315c-1.17-.002-2.225-.137-3.03-.345.805-.208 1.86-.335 3.03-.337 1.168.002 2.23.13 3.034.337-.804.208-1.866.343-3.034.345z" stroke-linejoin="round"/>
      <path fill="#C8B100" fill-rule="nonzero" d="M21.365 17.814l.147.117.22-.357c-.24-.146-.402-.4-.402-.69 0-.032.002-.063.006-.095.023-.458.58-.836 1.29-.836.366 0 .698.1.932.262.006-.07.012-.132.022-.196-.257-.15-.59-.24-.955-.24-.815 0-1.452.462-1.483 1.01-.003.032-.004.064-.004.096 0 .292.133.555.344.74l-.117.19"/>
      <path stroke="#000" stroke-width=".1" d="M21.365 17.814l.147.117.22-.357c-.24-.146-.402-.4-.402-.69 0-.032.002-.063.006-.095.023-.458.58-.836 1.29-.836.366 0 .698.1.932.262.006-.07.012-.132.022-.196-.257-.15-.59-.24-.955-.24-.815 0-1.452.462-1.483 1.01-.003.032-.004.064-.004.096 0 .292.133.555.344.74l-.117.19"/>
      <path fill="#C8B100" fill-rule="nonzero" d="M21.375 17.818c-.278-.207-.45-.49-.45-.8 0-.358.233-.677.59-.888-.22.176-.354.404-.372.658-.004.032-.005.064-.005.096 0 .292.133.555.344.74l-.107.194"/>
      <path stroke="#000" stroke-width=".1" d="M21.375 17.818c-.278-.207-.45-.49-.45-.8 0-.358.233-.677.59-.888-.22.176-.354.404-.372.658-.004.032-.005.064-.005.096 0 .292.133.555.344.74l-.107.194"/>
      <path fill="#C8B100" fill-rule="nonzero" d="M18.923 18.18c-.156-.174-.25-.4-.25-.646 0-.148.033-.29.095-.417.225-.463.93-.8 1.77-.8.228 0 .447.025.648.07-.044.05-.08.104-.114.158-.176-.034-.355-.05-.535-.05-.767 0-1.41.298-1.596.7-.05.107-.076.222-.076.34 0 .244.115.464.295.614l-.28.453-.148-.118.19-.304"/>
      <path stroke="#000" stroke-width=".1" d="M18.923 18.18c-.156-.174-.25-.4-.25-.646 0-.148.033-.29.095-.417.225-.463.93-.8 1.77-.8.228 0 .447.025.648.07-.044.05-.08.104-.114.158-.176-.034-.355-.05-.535-.05-.767 0-1.41.298-1.596.7-.05.107-.076.222-.076.34 0 .244.115.464.295.614l-.28.453-.148-.118.19-.304z"/>
      <path fill="#C8B100" fill-rule="nonzero" d="M19.207 16.66c-.202.126-.354.283-.44.457-.062.13-.095.272-.095.417 0 .247.095.472.25.646l-.168.274c-.16-.207-.255-.45-.255-.707 0-.444.28-.83.707-1.088"/>
      <path stroke="#000" stroke-width=".1" d="M19.207 16.66c-.202.126-.354.283-.44.457-.062.13-.095.272-.095.417 0 .247.095.472.25.646l-.168.274c-.16-.207-.255-.45-.255-.707 0-.444.28-.83.707-1.088z"/>
      <path fill="#C8B100" fill-rule="nonzero" d="M23.974 15.686c.186 0 .346.123.384.288.025.146.04.312.044.49v.053l.003.065c.007.37.06.7.135.9l-.566.542-.573-.542c.077-.2.13-.53.136-.9 0-.02.005-.044.005-.065v-.054c.003-.177.018-.343.043-.49.038-.164.205-.287.39-.287"/>
      <path stroke="#000" stroke-width=".1" d="M23.974 15.686c.186 0 .346.123.384.288.025.146.04.312.044.49v.053l.003.065c.007.37.06.7.135.9l-.566.542-.573-.542c.077-.2.13-.53.136-.9 0-.02.005-.044.005-.065v-.054c.003-.177.018-.343.043-.49.038-.164.205-.287.39-.287z"/>
      <path fill="#C8B100" fill-rule="nonzero" d="M23.974 15.862c.096 0 .178.062.198.147.025.152.04.307.04.46v.053c0 .02.004.04.004.062.006.35.057.66.13.85l-.375.354-.373-.355c.07-.19.12-.5.128-.85 0-.02.004-.042.004-.062l-.002-.052c.003-.165.018-.323.042-.46.02-.086.107-.148.204-.148"/>
      <path stroke="#000" stroke-width=".1" d="M23.974 15.862c.096 0 .178.062.198.147.025.152.04.307.04.46v.053c0 .02.004.04.004.062.006.35.057.66.13.85l-.375.354-.373-.355c.07-.19.12-.5.128-.85 0-.02.004-.042.004-.062l-.002-.052c.003-.165.018-.323.042-.46.02-.086.107-.148.204-.148z"/>
      <path fill="#C8B100" fill-rule="nonzero" d="M26.578 17.814l-.147.117-.218-.357c.238-.146.402-.4.402-.69 0-.032-.002-.063-.006-.095-.023-.458-.58-.836-1.29-.836-.367 0-.7.1-.933.262-.005-.066-.012-.13-.022-.196.257-.15.59-.24.956-.24.813 0 1.45.462 1.48 1.01.004.032.006.064.006.096 0 .292-.134.555-.345.74l.118.19"/>
      <path stroke="#000" stroke-width=".1" d="M26.578 17.814l-.147.117-.218-.357c.238-.146.402-.4.402-.69 0-.032-.002-.063-.006-.095-.023-.458-.58-.836-1.29-.836-.367 0-.7.1-.933.262-.005-.066-.012-.13-.022-.196.257-.15.59-.24.956-.24.813 0 1.45.462 1.48 1.01.004.032.006.064.006.096 0 .292-.134.555-.345.74l.118.19"/>
      <path fill="#C8B100" fill-rule="nonzero" d="M26.57 17.818c.276-.207.45-.49.45-.8 0-.358-.235-.677-.59-.888.22.176.352.404.37.658.004.032.006.064.006.096 0 .292-.134.555-.345.74l.108.194"/>
      <path stroke="#000" stroke-width=".1" d="M26.57 17.818c.276-.207.45-.49.45-.8 0-.358-.235-.677-.59-.888.22.176.352.404.37.658.004.032.006.064.006.096 0 .292-.134.555-.345.74l.108.194"/>
      <path fill="#C8B100" fill-rule="nonzero" d="M29.02 18.18c.156-.174.252-.4.252-.646 0-.148-.035-.29-.096-.417-.226-.463-.93-.8-1.77-.8-.218 0-.436.023-.65.07.046.05.08.104.115.158.168-.033.35-.05.535-.05.768 0 1.41.298 1.597.7.05.104.077.22.077.34 0 .244-.116.464-.296.614l.278.453.15-.118-.19-.304"/>
      <path stroke="#000" stroke-width=".1" d="M29.02 18.18c.156-.174.252-.4.252-.646 0-.148-.035-.29-.096-.417-.226-.463-.93-.8-1.77-.8-.218 0-.436.023-.65.07.046.05.08.104.115.158.168-.033.35-.05.535-.05.768 0 1.41.298 1.597.7.05.104.077.22.077.34 0 .244-.116.464-.296.614l.278.453.15-.118-.19-.304z"/>
      <path fill="#C8B100" fill-rule="nonzero" d="M28.736 16.66c.202.126.355.283.44.457.062.13.095.273.095.417 0 .247-.094.472-.25.646l.17.274c.16-.207.254-.45.254-.707 0-.444-.28-.83-.708-1.088"/>
      <path stroke="#000" stroke-width=".1" d="M28.736 16.66c.202.126.355.283.44.457.062.13.095.273.095.417 0 .247-.094.472-.25.646l.17.274c.16-.207.254-.45.254-.707 0-.444-.28-.83-.708-1.088z"/>
      <path fill="#C8B100" fill-rule="nonzero" stroke="#000" stroke-width=".1" d="M23.99 18.696l.13.025c-.02.053-.024.11-.024.172 0 .27.233.492.52.492.23 0 .425-.143.492-.34.008.005.05-.178.072-.175.018 0 .016.19.023.185.033.248.26.416.515.416.286 0 .518-.218.518-.49 0-.02 0-.04-.004-.06l.163-.16.087.204c-.035.065-.048.137-.048.215 0 .258.22.467.495.467.17 0 .322-.083.41-.208l.105-.134v.163c0 .162.068.308.228.334 0 0 .182.01.425-.18.242-.19.375-.346.375-.346l.02.19s-.2.31-.42.438c-.118.07-.3.142-.445.12-.153-.026-.262-.15-.318-.29-.113.067-.243.102-.375.102-.296 0-.562-.163-.668-.407-.136.148-.326.238-.548.238-.237 0-.454-.106-.59-.27-.14.128-.325.198-.515.197-.26 0-.495-.13-.627-.322-.132.193-.366.322-.627.322-.2 0-.38-.075-.514-.197-.135.164-.352.27-.59.27-.22 0-.41-.09-.547-.237-.106.245-.372.407-.67.407-.13 0-.26-.034-.374-.1-.056.14-.165.263-.318.288-.144.023-.326-.05-.446-.12-.22-.126-.42-.437-.42-.437l.02-.19s.135.157.377.347c.24.19.424.18.424.18.16-.027.227-.174.227-.337v-.162l.105.132c.09.126.24.21.412.21.274 0 .496-.21.496-.47 0-.077-.014-.15-.05-.214l.088-.206.164.16c-.002.02-.004.04-.004.06 0 .273.232.492.518.492.256 0 .482-.167.515-.415.007.003.005-.185.023-.187.022-.002.064.18.07.176.07.196.265.34.496.34.286 0 .518-.222.518-.493 0-.06-.003-.117-.025-.17l.136-.024"/>
      <path fill="#FFF" fill-rule="nonzero" stroke="#000" stroke-width=".1" d="M27.556 19.344c.03-.088.003-.175-.06-.194-.064-.02-.14.036-.17.124-.03.087-.003.174.06.194.063.02.14-.036.17-.124m-2.258-.437c.012-.092-.032-.172-.098-.18-.066-.007-.13.06-.14.152-.013.09.03.17.097.18.066.006.13-.06.14-.153m-2.62 0c-.01-.092.033-.172.1-.18.065-.007.128.06.14.152.012.09-.032.17-.098.18-.067.006-.13-.06-.142-.153m-2.257.437c-.03-.088-.003-.175.06-.194.064-.02.14.036.17.124.03.087.003.174-.06.194-.064.02-.14-.036-.17-.124"/>
      <path fill="#C8B100" fill-rule="nonzero" stroke="#000" stroke-width=".1" d="M21.4 17.838c.113.07.21.19.245.32 0 0 .013-.027.075-.062s.114-.034.114-.034-.017.102-.026.14c-.01.035-.01.145-.034.244-.023.1-.067.178-.067.178-.046-.038-.107-.054-.166-.044-.06.01-.11.047-.14.095 0 0-.068-.06-.126-.145-.058-.086-.098-.188-.12-.22-.022-.03-.075-.122-.075-.122s.048-.018.12-.005c.07.013.092.035.092.035-.015-.136.03-.277.11-.38"/>
      <path fill="#C8B100" fill-rule="nonzero" stroke="#000" stroke-width=".1" d="M21.448 18.916c-.036-.028-.06-.068-.07-.114-.01-.044 0-.09.024-.13 0 0-.094-.046-.194-.073-.076-.02-.21-.02-.25-.022l-.12-.003s.006.02.03.06c.026.047.05.077.05.077-.133.03-.247.12-.32.22.106.074.245.118.38.104 0 0-.01.036-.02.09-.007.046-.006.065-.006.065l.113-.04c.037-.014.163-.058.227-.1.085-.06.157-.133.157-.133m.3-.05c.023-.04.032-.086.024-.13-.008-.046-.033-.086-.07-.115 0 0 .07-.074.155-.132.064-.043.19-.087.227-.1l.113-.043s0 .02-.007.065c-.008.055-.02.09-.02.09.136-.013.276.033.38.105-.072.102-.187.188-.32.22.022.048.05.094.082.137l-.12-.003c-.04 0-.176 0-.25-.02-.1-.027-.196-.073-.196-.073M23.982 17.49c.11.1.195.25.205.404 0 0 .02-.028.097-.056.076-.028.134-.017.134-.017s-.04.113-.058.152c-.018.04-.04.16-.088.266-.03.067-.067.13-.11.186-.046-.05-.11-.08-.178-.08-.07 0-.134.032-.176.08 0 0-.065-.08-.11-.186-.05-.105-.072-.227-.09-.266-.017-.04-.058-.15-.058-.15s.06-.012.135.016c.076.028.096.056.096.056.012-.154.092-.303.202-.403"/>
      <path fill="#C8B100" fill-rule="nonzero" stroke="#000" stroke-width=".1" d="M23.81 18.702c-.034-.038-.054-.088-.055-.14 0-.053.02-.102.055-.14 0 0-.095-.07-.2-.118-.08-.037-.23-.062-.275-.07l-.135-.026s.004.02.02.07c.022.06.043.098.043.098-.155.01-.3.087-.403.187.102.1.247.175.403.185 0 0-.02.038-.042.098-.016.048-.02.07-.02.07l.135-.025c.044-.008.194-.033.274-.07.105-.048.2-.117.2-.117m.346 0c.034-.04.056-.088.056-.14 0-.053-.02-.103-.054-.14 0 0 .094-.07.2-.12.08-.036.23-.06.275-.07l.133-.025s-.003.02-.02.07c-.012.034-.026.067-.042.098.155.01.3.087.402.187-.1.1-.246.175-.402.185 0 0 .02.038.042.098.017.048.02.07.02.07l-.133-.025c-.045-.008-.194-.033-.275-.07-.07-.033-.138-.072-.202-.117m2.42-.865c-.113.07-.21.19-.245.32 0 0-.012-.027-.074-.062s-.115-.034-.115-.034l.028.14c.01.035.01.145.033.244.025.1.068.178.068.178.047-.038.107-.054.167-.044.058.01.11.045.14.095 0 0 .07-.06.127-.145.058-.086.098-.188.12-.22.02-.03.075-.122.075-.122s-.05-.018-.12-.005c-.07.013-.094.035-.094.035.016-.136-.03-.277-.108-.38"/>
      <path fill="#C8B100" fill-rule="nonzero" stroke="#000" stroke-width=".1" d="M26.528 18.916c.035-.028.062-.067.07-.114.01-.044 0-.09-.024-.13 0 0 .093-.046.194-.073.076-.02.21-.02.25-.022l.12-.003s-.005.02-.03.06c-.027.047-.05.077-.05.077.133.03.247.12.32.22-.105.074-.244.118-.38.104 0 0 .01.036.02.09.006.046.006.065.006.065l-.113-.04c-.036-.014-.162-.058-.226-.1-.056-.04-.108-.085-.156-.133m-.3-.05c-.025-.04-.034-.086-.027-.13.01-.047.036-.087.072-.115 0 0-.07-.074-.156-.132-.064-.043-.19-.087-.227-.1-.04-.014-.114-.043-.114-.043s0 .02.007.065c.008.055.02.09.02.09-.136-.013-.276.033-.38.105.072.102.186.188.32.22 0 0-.024.03-.052.078l-.03.06.122-.004c.04 0 .175 0 .25-.02.1-.027.195-.073.195-.073"/>
      <path fill="#AD1519" fill-rule="nonzero" stroke="#000" stroke-width=".1" d="M26.167 18.767c0-.12.103-.217.23-.217.126 0 .23.097.23.217s-.104.217-.23.217c-.127 0-.23-.097-.23-.217m2.56.482c-.054-.058-.165-.046-.25.025-.082.07-.107.175-.053.232.054.057.166.044.25-.026.083-.07.107-.175.053-.23"/>
      <path fill="#C8B100" fill-rule="nonzero" stroke="#000" stroke-width=".1" d="M28.402 19.387c.012-.04.038-.08.076-.112.084-.07.195-.083.25-.026.006.006.013.016.018.025 0 0 .116-.22.253-.293.137-.074.37-.055.37-.055 0-.17-.14-.305-.317-.305-.105 0-.204.043-.262.117l-.023-.114s-.143.028-.21.192c-.065.164.007.402.007.402s-.036-.102-.09-.17c-.053-.068-.19-.142-.262-.175-.072-.034-.145-.084-.145-.084s-.003.02-.006.065c-.002.054.003.088.003.088-.132-.018-.285.004-.405.05.05.1.15.195.276.243 0 0-.046.038-.088.08-.035.035-.046.052-.046.052l.135.02c.045.005.194.03.283.023.062-.004.123-.012.184-.023m-8.828 0c-.012-.04-.038-.08-.076-.112-.084-.07-.195-.083-.25-.026-.007.007-.013.016-.018.025 0 0-.116-.22-.254-.293-.137-.074-.37-.055-.37-.055 0-.17.14-.305.317-.305.105 0 .203.043.262.117l.024-.114s.142.028.208.192-.006.402-.006.402.036-.102.09-.17c.053-.068.19-.142.262-.175.072-.034.145-.084.145-.084l.005.065c.003.054-.002.088-.002.088.13-.018.285.004.405.05-.052.1-.15.195-.276.243 0 0 .046.038.087.08.034.035.046.052.046.052l-.135.02c-.045.005-.193.03-.282.023-.062-.004-.124-.012-.185-.023"/>
      <path fill="#AD1519" fill-rule="nonzero" stroke="#000" stroke-width=".1" d="M19.25 19.25c.053-.058.164-.046.248.025.084.07.107.175.054.232-.054.057-.166.044-.25-.026-.083-.07-.107-.175-.053-.23m4.505-.688c0-.12.103-.217.23-.217.125 0 .228.097.228.217s-.102.217-.23.217c-.125 0-.228-.098-.228-.218"/>
      <path fill="#005BBF" fill-rule="nonzero" stroke="#000" stroke-width=".1" d="M23.508 15.267c0-.245.21-.443.467-.443.26 0 .468.198.468.443 0 .244-.21.442-.468.442s-.467-.2-.467-.443"/>
      <path fill="#C8B100" fill-rule="nonzero" stroke="#000" stroke-width=".1" d="M23.853 14.025v.24h-.256v.24h.256v.7h-.322c-.003.022-.023.04-.023.063 0 .06.013.12.037.172 0 .002.002.002.003.004h.857c0-.002.003-.002.004-.004.024-.054.036-.113.036-.172 0-.024-.02-.04-.023-.064h-.312v-.698h.256v-.242h-.255v-.24h-.257z"/>
      <path fill="#CCC" fill-rule="nonzero" d="M24.022 33.962c-1.382 0-2.75-.34-3.902-.902-.848-.42-1.41-1.268-1.41-2.238v-3.516h10.604v3.516c0 .97-.563 1.817-1.412 2.238-1.15.563-2.498.902-3.88.902"/>
      <path stroke="#000" stroke-width=".1" d="M24.022 33.962c-1.382 0-2.75-.34-3.902-.902-.848-.42-1.41-1.268-1.41-2.238v-3.516h10.604v3.516c0 .97-.563 1.817-1.412 2.238-1.15.563-2.498.902-3.88.902z"/>
      <path fill="#CCC" fill-rule="nonzero" d="M24 27.3h5.313v-5.884H24"/>
      <path stroke="#000" stroke-width=".1" d="M24 27.3h5.313v-5.884H24z"/>
      <path fill="#AD1519" fill-rule="nonzero" d="M24.003 30.818c0 1.39-1.178 2.516-2.644 2.516-1.47 0-2.658-1.126-2.658-2.516v-3.522h5.3v3.522"/>
      <path fill="#C8B100" fill-rule="nonzero" stroke="#000" stroke-width=".1" d="M19.86 32.895c.166.088.393.234.636.292l-.015-6.015h-.62v5.723z"/>
      <path fill="#C8B100" fill-rule="nonzero" stroke="#000" stroke-width=".1" d="M18.693 30.77c.016.743.31 1.295.606 1.656v-5.224h-.6l-.007 3.57z" stroke-linejoin="round"/>
      <path fill="#C7B500" fill-rule="nonzero" stroke="#000" stroke-width=".1" d="M21.042 33.32c.243.024.424.02.62 0V27.17h-.62v6.147z"/>
      <path fill="#C8B100" fill-rule="nonzero" stroke="#000" stroke-width=".1" d="M22.21 33.187c.242-.048.516-.2.635-.278V27.17h-.62l-.016 6.015z"/>
      <path fill="#AD1519" fill-rule="nonzero" d="M18.702 27.3h5.3v-5.884h-5.3"/>
      <path stroke="#000" stroke-width=".1" d="M18.702 27.3h5.3v-5.884h-5.3z"/>
      <path fill="#C8B100" fill-rule="nonzero" stroke="#000" stroke-width=".1" d="M23.422 32.367c.26-.23.5-.752.59-1.347l.015-3.848h-.62l.015 5.195z"/>
      <path stroke="#000" stroke-width=".1" d="M24.003 30.818c0 1.39-1.178 2.516-2.644 2.516-1.47 0-2.658-1.126-2.658-2.516v-3.522h5.3v3.522"/>
      <path fill="#AD1519" fill-rule="nonzero" d="M29.318 27.296v3.522c0 1.39-1.19 2.516-2.658 2.516-1.467 0-2.657-1.126-2.657-2.516v-3.522h5.315"/>
      <path stroke="#000" stroke-width=".1" d="M29.318 27.296v3.522c0 1.39-1.19 2.516-2.658 2.516-1.467 0-2.657-1.126-2.657-2.516v-3.522h5.315"/>
      <path fill="#C8B100" fill-rule="nonzero" d="M24.97 29.954c.008.018.013.037.013.056 0 .065-.055.116-.124.116-.07 0-.124-.05-.124-.116 0-.02.005-.037.014-.053l-.173-.002c-.004.017-.006.036-.006.055 0 .122.086.226.202.26v.424h.18v-.425c.084-.028.15-.09.18-.172h.486v-.143h-.648zm2.384 0v.144h-.437c-.007.02-.017.038-.028.055l.507.576-.136.11-.505-.578c-.01.003-.014.007-.024.01v.954h-.18v-.96c-.007 0-.013-.004-.02-.008l-.526.582-.136-.11.525-.584c-.01-.015-.016-.03-.02-.048h-.453v-.143h1.435zm.29 0v.144h.488c.03.08.094.143.18.17v.427h.18v-.425c.116-.034.2-.138.2-.26 0-.02 0-.038-.005-.055h-.172c.008.018.013.036.013.055 0 .065-.055.116-.124.116-.068 0-.123-.05-.123-.116 0-.02.006-.037.014-.053l-.648-.002zm-.733 2.434c.14-.022.274-.06.402-.116l.09.15c-.153.066-.312.112-.476.136-.028.123-.143.216-.28.216-.14 0-.255-.092-.283-.214-.172-.023-.34-.07-.5-.137l.09-.15c.135.057.28.095.43.116.032-.07.093-.125.166-.148v-.74h.18v.737c.08.023.147.077.18.148zm-1.213-.248l-.088.15c-.15-.092-.285-.206-.402-.338-.092.027-.196.01-.274-.053-.12-.1-.136-.27-.032-.386l.015-.016c-.075-.167-.122-.346-.14-.528h.18c.015.156.054.31.117.452.052-.007.104 0 .153.017l.452-.5.135.11-.448.498c.06.093.057.214-.012.302.1.112.216.21.342.29zm-.67-.524c.046-.05.122-.056.175-.014.052.042.058.117.014.165-.046.05-.122.055-.175.013-.023-.02-.04-.048-.042-.08-.002-.03.008-.06.03-.085zm-.227-.495l-.186-.04-.026-.47.184-.06v.268c0 .105.01.204.028.303zm.154-.582l.185.044s.008.302.004.234c-.005-.08.02.236.02.236l-.186.062c-.02-.096-.025-.194-.025-.296v-.28zm.61 1.505c.16.124.34.22.532.282l.04-.18c-.157-.048-.306-.122-.44-.22l-.133.117zm-.09.154c.16.12.34.215.532.28l-.138.13c-.153-.057-.3-.132-.435-.224l.04-.186zm.24-1.037l.178.075.323-.358-.106-.153-.395.437zm-.136-.11l-.106-.154.324-.358.176.075-.394.437zm1.99 1.09l.087.15c.15-.092.285-.207.4-.338.093.027.197.01.275-.053.122-.1.136-.272.032-.386l-.015-.016c.073-.165.123-.343.14-.53l-.18.002c-.015.156-.054.308-.116.452-.05-.007-.104 0-.153.017l-.452-.5-.136.11.448.498c-.06.092-.057.214.01.302-.1.11-.215.21-.34.29zm.668-.525c-.045-.05-.12-.055-.173-.013-.025.02-.04.048-.043.08-.003.03.008.062.03.085.043.05.12.055.173.013.052-.042.058-.116.013-.165zm.228-.494l.186-.04.026-.47-.184-.062v.27c0 .104-.01.204-.028.303zm-.153-.582l-.184.043s-.01.303-.006.236c.005-.08-.02.236-.02.236l.186.06c.02-.095.025-.193.025-.294v-.28zm-.61 1.504c-.16.125-.34.22-.53.283l-.043-.18c.158-.048.307-.123.44-.22l.134.117zm.09.154c-.16.12-.34.216-.532.28l.138.13c.154-.057.3-.132.436-.223l-.042-.187zm-.24-1.036l-.177.075-.323-.358.106-.153.393.436zm.136-.11l.106-.154-.323-.358-.177.075.393.436zm-2.21-.952l.053.176h.497l.053-.176h-.605zm2.324 0l-.055.176h-.497l-.054-.176h.606zM26.52 32.5c0-.065.057-.118.125-.118s.123.053.123.118c0 .064-.055.116-.123.116s-.124-.052-.124-.116zm.21-.853l.186-.052v-.47l-.185-.052v.574zm-.18 0l-.185-.052v-.47l.186-.052v.574z"/>
      <path fill="#C8B100" fill-rule="nonzero" d="M24.577 29.96c.02-.1.098-.18.197-.21l-.002-.58h.18v.584c.088.028.156.093.183.178h.483v.027h-.648c-.023-.04-.065-.064-.11-.064-.046 0-.09.025-.11.065h-.173zm1.342 0v-.027h.448c.005-.015.012-.03.02-.043l-.554-.617.136-.11.547.607c.01-.005.02-.01.03-.013v-.808h.178v.803l.028.006.534-.608.137.108-.536.606c.014.02.024.043.03.067h.436v.026H25.92zm2.374 0c.023-.04.065-.064.11-.063.05 0 .09.026.11.064h.173c-.022-.1-.098-.18-.197-.208v-.58h-.177v.583c-.09.028-.157.093-.184.177h-.485v.027h.65zm-3.314-1.642l.666.747.137-.11-.67-.745c.013-.02.023-.04.03-.064h.488v-.17h-.486c-.038-.11-.147-.19-.276-.19-.16 0-.29.123-.29.274 0 .12.083.222.196.26v.575h.178v-.572c.007-.002.02-.002.028-.005zm3.514.004l-.002.573h-.18v-.576l-.04-.017-.66.748-.138-.108.675-.762c-.007-.01-.013-.023-.017-.034h-.49v-.17h.488c.04-.11.147-.19.276-.19.16 0 .288.123.288.274 0 .123-.083.227-.2.262zm-1.767-.003v.353h-.18v-.35c-.088-.026-.158-.092-.188-.178h-.438v-.17h.437c.037-.11.144-.188.272-.188.13 0 .237.08.275.19h.445v.168h-.446c-.03.083-.095.148-.18.174zm-1.953.428l-.185.052v.472l.184.05v-.574zm.18 0l.186.052v.472l-.185.05v-.574zm3.357 0l-.184.052v.472l.185.05v-.574zm.182 0l.185.052v.472l-.185.05v-.574zm-2.81.093l.176-.074.323.36-.105.152-.394-.437h.002zm-.137.112l-.106.154.322.36.176-.076-.393-.438zm2.028-.125l-.177-.073-.32.36.108.154.39-.44zm.138.11l.11.153-.32.362-.178-.074.39-.44zm-2.236.995l.055-.176h.497l.053.176h-.605zm-.73-1.872c0-.064.056-.117.125-.117.067 0 .122.053.122.117 0 .065-.055.117-.123.117-.07 0-.125-.052-.125-.117zm1.332.086l-.055.176h-.496l-.054-.176h.606zm0-.17l-.055-.177h-.496l-.054.175h.606zM27.8 29.93l-.055-.176h-.497l-.054.176h.606zm.482-1.87c0-.066.055-.12.124-.12.068 0 .123.054.123.12 0 .063-.056.115-.124.115-.07 0-.124-.052-.124-.116zm-1.773 0c0-.066.054-.12.122-.12.07 0 .124.054.124.12 0 .063-.055.115-.124.115-.068 0-.123-.052-.123-.116zm.688.084l.055.177h.497l.054-.177h-.606zm0-.17l.055-.177h.497l.054.175h-.606zm-.65.55l-.184.053v.47l.185.052v-.576zm.18 0l.184.053v.47l-.185.052v-.576z"/>
      <path stroke="#C8B100" stroke-width=".1" d="M26.91 32.388c.14-.022.274-.06.402-.116l.09.15c-.153.066-.312.11-.476.136-.028.123-.143.216-.28.216-.14 0-.255-.092-.283-.214-.172-.023-.34-.07-.5-.137l.09-.15c.135.056.28.095.43.115.032-.07.093-.123.166-.146v-.74h.18v.737c.08.023.147.077.18.148zm-.517-2.242c-.01-.015-.016-.03-.022-.048h-.45v-.17h.448c.005-.014.013-.028.02-.042l-.554-.616.136-.11.547.605.03-.012v-.807h.178v.802l.028.008.534-.608.137.11-.535.603c.012.022.022.044.03.068h.434v.17h-.437c-.006.02-.018.038-.028.054l.507.578-.136.11-.505-.578c-.01.003-.014.007-.024.01v.954h-.18v-.958l-.02-.01-.526.582-.136-.11.525-.584zm-1.413-1.83l.666.746.136-.11-.67-.743c.014-.02.024-.042.032-.066h.487v-.17h-.487c-.037-.11-.146-.188-.275-.188-.16 0-.29.123-.29.274 0 .12.082.22.196.258v.575h.178v-.572c.007 0 .02 0 .028-.003zm.717 3.823l-.088.15c-.15-.092-.285-.206-.402-.338-.092.027-.196.01-.274-.053-.12-.1-.136-.272-.032-.386l.015-.016c-.075-.167-.122-.346-.14-.53l.18.002c.015.16.055.31.117.452.052-.007.104 0 .153.017l.452-.5.135.11-.45.498c.063.092.058.214-.01.302.1.11.216.21.342.29zm-.925-1.446v-.424c-.116-.034-.2-.138-.2-.26s.085-.227.202-.263l-.002-.58h.18v.584c.088.03.156.093.183.177h.483v.17h-.486c-.03.082-.096.145-.18.17v.428h-.18zm.255.92c.046-.048.122-.054.174-.012.053.042.06.116.015.165-.045.05-.12.055-.174.013-.024-.02-.04-.048-.042-.08-.003-.03.008-.062.03-.085zm-.228-.493l-.186-.04-.026-.47.184-.062v.27c0 .104.01.203.027.303zm.153-.582l.185.043s.01.303.006.236c-.005-.08.02.236.02.236l-.186.06c-.02-.095-.025-.193-.025-.294v-.28zm.61 1.504c.16.125.34.22.532.283l.042-.18c-.158-.048-.307-.123-.44-.22l-.134.117zm-.09.154c.162.12.342.216.533.28l-.138.13c-.154-.057-.3-.132-.435-.223l.04-.186z"/>
      <path stroke="#C8B100" stroke-width=".1" d="M25.715 31.16l.177.075.323-.358-.106-.153-.395.437zm-.137-.11l-.106-.154.324-.358.176.075-.394.437zm-.842-1.04c0-.065.055-.118.123-.118s.123.053.123.118-.055.116-.124.116c-.07 0-.124-.05-.124-.116zm2.83 2.13l.09.15c.15-.092.284-.207.4-.338.092.027.196.01.274-.053.122-.1.136-.272.032-.386l-.015-.016c.073-.165.123-.343.14-.53l-.18.002c-.015.156-.054.308-.116.452-.05-.007-.104 0-.153.017l-.452-.5-.136.11.448.498c-.06.092-.057.214.01.302-.1.11-.215.21-.34.29zm.926-1.446v-.424c.117-.034.2-.138.2-.26s-.084-.227-.2-.263v-.58h-.18v.584c-.088.03-.156.093-.183.177h-.485v.17h.487c.03.08.094.144.18.17v.428h.18zm-.255.92c-.046-.048-.122-.054-.174-.012-.025.02-.04.048-.043.08-.003.03.008.062.03.085.043.05.12.055.173.013.052-.042.058-.116.013-.165zm.227-.493l.186-.04.026-.47-.184-.062v.27c0 .104-.01.204-.028.303zm-.153-.582l-.184.043s-.01.303-.006.236c.005-.08-.02.236-.02.236l.186.06c.02-.095.025-.193.025-.294v-.28zm.184-2.218l-.002.572h-.18v-.574c-.013-.004-.026-.01-.04-.016l-.66.746-.138-.11.675-.76c-.007-.01-.012-.022-.017-.034h-.49v-.17h.49c.036-.11.144-.188.273-.188.16 0 .288.122.288.273 0 .122-.083.225-.2.26zm-1.767-.002v.352h-.18v-.35c-.087-.024-.158-.09-.188-.176h-.438v-.17h.437c.037-.11.144-.188.273-.188.128 0 .236.08.274.19h.446v.168h-.447c-.03.083-.095.147-.178.174zm.974 3.724c-.158.125-.34.22-.53.283l-.042-.18c.158-.048.306-.123.44-.22l.133.117zm.09.154c-.16.12-.34.216-.532.28l.14.13c.152-.057.298-.132.434-.223l-.04-.187zm-3.015-3.45l-.186.052v.47l.185.052v-.574zm.18 0l.185.052v.47l-.185.052v-.574zm3.357 0l-.186.052v.47l.186.052v-.574z"/>
      <path stroke="#C8B100" stroke-width=".1" d="M28.492 28.746l.185.052v.47l-.185.052v-.574zm-.943 2.414l-.177.075-.323-.358.106-.153.393.437zm.136-.11l.106-.154-.323-.358-.177.075.393.437zm-2.004-2.21l.176-.076.323.358-.105.153-.394-.436h.002zm-.137.11l-.106.153.322.358.176-.074-.393-.436zm2.028-.125l-.176-.073-.32.36.107.153.39-.44zm.138.11l.11.152-.32.36-.178-.073.39-.44zm-2.235.993l.054-.176h.497l.053.176h-.605zm0 .17l.054.177h.497l.053-.177h-.605zm-.73-2.038c0-.065.055-.117.124-.117.067 0 .122.052.122.117 0 .064-.055.116-.123.116-.07 0-.125-.052-.125-.116zm1.33.085l-.054.176h-.496l-.054-.175h.606zm0-.17l-.054-.176h-.496l-.054.174h.606zm2.206 2.035c0-.065.057-.118.125-.118s.123.053.123.118-.055.116-.123.116-.124-.05-.124-.116zm-.48-.082l-.055-.176h-.497l-.054.176h.606zm0 .17l-.055.177h-.497l-.054-.177h.606zM26.52 32.5c0-.065.057-.117.125-.117s.123.052.123.117-.055.117-.123.117-.124-.052-.124-.117zm.21-.852l.186-.052v-.47l-.185-.052v.574zm-.18 0l-.185-.053v-.47l.186-.05v.572zm1.733-3.588c0-.065.055-.117.123-.117s.123.052.123.117c0 .064-.056.116-.124.116s-.123-.052-.123-.116zm-1.774 0c0-.065.055-.117.123-.117s.123.052.123.117c0 .064-.055.116-.124.116-.068 0-.123-.052-.123-.116zm.688.085l.055.176h.498l.054-.175h-.607zm0-.17l.055-.177h.498l.054.176H27.2zm-.65.55l-.185.05v.472l.185.05v-.573zm.18 0l.184.05v.472l-.185.05v-.573z"/>
      <path fill="#058E6E" fill-rule="nonzero" d="M26.355 30.013c0-.152.13-.274.29-.274.16 0 .288.12.288.273 0 .15-.13.273-.288.273-.16 0-.29-.123-.29-.273"/>
      <path fill="#ED72AA" fill-rule="nonzero" stroke="#000" stroke-width=".1" d="M27.503 22.627s0 .076.008.15c.008.068-.02.13-.01.168.01.04.017.07.032.098.014.028.022.1.022.1l-.078-.058c-.037-.028-.064-.046-.064-.046l.01.108c.005.033.024.094.055.13.03.036.092.094.11.14.02.05.016.153.016.153s-.05-.078-.092-.092c-.04-.015-.133-.066-.133-.066s.084.083.084.163-.033.17-.033.17-.038-.072-.087-.12c-.05-.046-.12-.093-.12-.093s.055.122.055.205c0 .084-.015.26-.015.26s-.042-.067-.084-.1c-.043-.033-.092-.062-.108-.083-.015-.022.05.068.057.122.008.055.034.25.203.496.1.145.253.398.58.315.33-.083.207-.525.14-.73-.07-.207-.105-.435-.1-.515.003-.08.06-.314.053-.358-.007-.043-.025-.21.016-.347.042-.14.077-.195.1-.253.022-.058.04-.09.05-.142.006-.05.006-.145.006-.145s.06.113.076.153c.016.04.016.16.016.16s.01-.12.103-.178c.092-.06.2-.12.225-.152.027-.033.035-.055.035-.055s-.008.203-.065.283c-.038.052-.188.22-.188.22s.077-.03.13-.032c.054-.004.092 0 .092 0s-.065.05-.15.174c-.083.123-.048.133-.11.235-.06.1-.11.105-.187.166-.116.093-.054.46-.04.515.016.053.215.503.22.61.002.11.022.352-.17.508-.123.1-.324.1-.37.13-.046.03-.137.12-.137.308 0 .19.068.218.12.265.055.047.124.02.14.058.015.036.022.058.045.08.023.02.04.046.03.085-.007.04-.095.13-.125.197-.03.064-.092.235-.092.26 0 .026-.006.105.02.145 0 0 .095.112.03.133-.042.014-.083-.026-.102-.02-.057.014-.087.05-.104.046-.038-.008-.038-.027-.042-.08-.003-.055 0-.077-.018-.077-.023 0-.035.02-.04.047-.003.03-.003.094-.03.094-.026 0-.064-.047-.087-.057-.023-.01-.088-.022-.092-.05-.004-.03.038-.09.08-.102.042-.01.08-.032.054-.054-.028-.02-.055-.02-.08 0-.028.023-.085.004-.082-.028.004-.033.012-.073.008-.09-.004-.018-.05-.055.01-.088.062-.032.09.03.15.02.06-.012.092-.034.115-.07.024-.036.02-.112-.022-.16-.042-.046-.084-.054-.1-.083-.015-.028-.038-.096-.038-.096s.01.126.004.145c-.007.017-.004.092-.004.092l-.076-.083c-.034-.037-.07-.145-.07-.145l-.002.14c0 .04.045.077.03.09-.015.016-.087-.075-.107-.09-.02-.013-.08-.06-.107-.11-.027-.052-.046-.124-.053-.15-.008-.025-.02-.138-.008-.166.02-.045.05-.12.05-.12h-.15c-.08 0-.137-.026-.167.028-.03.055-.016.163.022.304.04.14.06.21.05.235-.01.026-.06.084-.08.094-.02.012-.073.01-.096-.002-.022-.01-.06-.03-.133-.03-.073 0-.12.004-.145-.002-.027-.007-.092-.04-.123-.033-.03.007-.083.034-.07.076.025.064-.02.08-.052.075-.03-.004-.057-.014-.096-.025-.038-.01-.095 0-.087-.044.007-.043.022-.047.04-.08.02-.032.028-.053.007-.055-.027-.002-.054-.005-.075.012-.02.017-.053.054-.08.04-.027-.014-.048-.045-.048-.114 0-.067-.072-.127-.006-.124.066.003.15.05.164.015.015-.038.006-.055-.03-.084-.036-.028-.08-.045-.032-.082.047-.036.06-.036.077-.056.018-.02.044-.083.077-.068.066.03.003.077.07.15.065.073.106.1.217.088.11-.012.14-.026.14-.057 0-.03-.008-.086-.01-.11-.004-.022.014-.104.014-.104s-.05.032-.066.062c-.014.03-.044.085-.044.085s-.012-.064-.01-.115c.003-.03.014-.084.013-.094-.003-.028-.024-.1-.024-.1s-.018.077-.03.1c-.01.022-.017.113-.017.113s-.07-.06-.05-.164c.013-.08-.013-.183.01-.218.024-.034.08-.172.218-.178.137-.005.245.006.293.003.048-.003.218-.034.218-.034s-.314-.16-.385-.21c-.072-.047-.182-.17-.218-.228-.036-.057-.07-.166-.07-.166s-.055.002-.106.03c-.05.028-.093.063-.13.104-.032.035-.08.11-.08.11s.01-.098.01-.13c0-.03-.006-.09-.006-.09s-.036.136-.108.187c-.07.05-.155.12-.155.12s.01-.074.01-.09c0-.018.017-.106.017-.106s-.05.076-.128.09c-.078.015-.19.012-.2.06-.01.047.02.113.003.146-.02.034-.058.057-.058.057s-.045-.037-.083-.04c-.04-.003-.076.018-.076.018s-.033-.043-.02-.07c.01-.03.07-.072.056-.09-.015-.016-.063.007-.093.02-.03.015-.092.03-.086-.02.007-.047.02-.075.007-.11-.015-.032-.006-.055.018-.064.023-.008.12.003.128-.02.01-.022-.024-.05-.087-.064-.062-.014-.092-.05-.06-.082.034-.032.042-.04.057-.068.015-.03.02-.08.078-.054.057.025.045.088.106.107.058.02.2-.008.23-.025s.124-.087.157-.105c.033-.016.17-.118.17-.118s-.08-.056-.11-.085c-.03-.028-.084-.096-.11-.11-.027-.015-.16-.065-.203-.068-.045-.003-.182-.05-.182-.05s.062-.02.083-.037c.022-.017.07-.06.094-.057l.03.003s-.13-.005-.156-.013c-.027-.01-.104-.057-.134-.057-.03 0-.09.012-.09.012s.08-.05.147-.063c.066-.012.117-.01.117-.01s-.1-.028-.125-.06c-.024-.035-.048-.086-.066-.11-.018-.02-.03-.058-.063-.06-.033-.004-.09.04-.122.036-.032-.002-.056-.023-.06-.07 0-.05 0-.032-.01-.057-.012-.027-.06-.086-.015-.1.045-.014.14.008.15-.01.008-.015-.052-.066-.09-.086-.04-.02-.102-.054-.07-.082.034-.028.066-.04.084-.065.017-.025.038-.096.077-.074.04.023.093.134.122.125.03-.01.032-.088.026-.12-.006-.036 0-.095.03-.09.03.006.053.046.1.05.05.002.12-.012.115.02-.005.035-.032.077-.065.114-.032.037-.047.11-.027.158.02.05.075.125.123.156.048.03.138.054.195.09.056.038.188.142.233.153.044.01.09.033.09.033s.05-.022.12-.022c.067 0 .225.012.285-.014.06-.026.137-.067.113-.12-.023-.055-.155-.103-.143-.145.012-.04.06-.044.14-.048.08-.002.19.015.212-.1.02-.11.027-.177-.086-.202-.115-.025-.198-.028-.22-.11-.02-.082-.04-.102-.017-.124.024-.023.066-.034.15-.04.083-.005.178-.005.205-.026.027-.02.033-.073.065-.096.033-.022.162-.042.162-.042s.153.075.296.18c.128.096.244.237.244.237"/>
      <path stroke="#000" stroke-width=".1" d="M25.976 23.302s-.085.024-.116.07c-.04.057-.036.113-.036.113s.072-.06.164-.034c.093.027.102.035.14.033.04-.003.135-.037.135-.037s-.077.09-.07.153c.01.06.022.09.02.12-.007.077-.064.17-.064.17s.032-.02.11-.037c.067-.016.13-.044.185-.085.04-.03.095-.107.095-.107s-.017.105 0 .15c.018.046.024.176.024.176s.05-.044.09-.065c.02-.01.074-.04.095-.072.014-.025.032-.113.032-.113s.012.095.042.14c.03.046.074.185.074.185s.03-.09.063-.127c.034-.037.073-.085.075-.113.003-.03-.008-.09-.008-.09l.04.09m-1.204.064s.05-.087.098-.116c.05-.028.115-.08.133-.084.017-.006.095-.05.095-.05m.105.547s.115-.057.15-.078c.07-.042.122-.12.122-.12M25.2 24.642s-.004.084.036.135c.042.054.12.063.12.063s-.026-.057-.03-.085c-.006-.043.035-.08.035-.08s-.037-.04-.076-.04c-.04 0-.083.007-.083.007zm1.762.14s.215.134.21.244c-.008.11-.12.255-.12.255l-.09-.497z"/>
      <path fill="#FFD691" fill-rule="nonzero" stroke="#000" stroke-width=".1" d="M24.277 32.4c.22.067.333.232.333.424 0 .25-.244.442-.56.442-.316 0-.572-.19-.572-.442 0-.19.105-.4.325-.417 0 0-.007-.02-.026-.052-.022-.025-.067-.07-.067-.07s.084-.016.132.003c.05.018.08.05.08.05s.024-.046.056-.08c.032-.036.074-.057.074-.057s.05.042.065.07c.016.027.026.06.026.06s.045-.036.084-.05c.038-.017.088-.03.088-.03s-.014.05-.024.074c-.008.025-.013.077-.013.077"/>
      <path fill="#FFF" fill-rule="nonzero" stroke="#000" stroke-width=".1" d="M26.798 16.436c0-.06.052-.11.116-.11s.115.05.115.11-.052.11-.116.11-.116-.05-.116-.11m.073.338c0-.06.052-.11.116-.11s.116.05.116.11-.052.11-.116.11-.115-.05-.115-.11m.014.336c0-.06.052-.11.116-.11s.115.05.115.11-.05.11-.115.11c-.064 0-.116-.05-.116-.11m-.106.306c0-.06.052-.11.116-.11s.116.05.116.11-.052.11-.116.11-.116-.05-.116-.11m-.196.28c0-.06.052-.11.115-.11.064 0 .116.05.116.11 0 .062-.052.11-.116.11-.063 0-.115-.048-.115-.11M20.914 16.436c0-.06.052-.11.115-.11.064 0 .116.05.116.11s-.052.11-.116.11-.116-.05-.116-.11m-.073.338c0-.06.053-.11.117-.11s.116.05.116.11-.052.11-.116.11-.116-.05-.116-.11m-.012.336c0-.06.052-.11.116-.11s.116.05.116.11-.052.11-.116.11-.116-.05-.116-.11m.106.306c0-.06.052-.11.115-.11.064 0 .115.05.115.11s-.05.11-.116.11c-.064 0-.116-.05-.116-.11m.196.28c0-.06.053-.11.116-.11.064 0 .116.05.116.11 0 .062-.052.11-.116.11-.063 0-.115-.048-.115-.11"/>
      <path fill="#C8B100" fill-rule="nonzero" stroke="#000" stroke-width=".1" d="M20.52 22.776h-.097v-.097h-.17v.39h.17v.267h-.366v.78h.196v1.563h-.39v.805h3v-.805h-.39v-1.56h.195v-.782h-.366v-.27h.17v-.39h-.17v.1h-.097v-.1h-.17v.1h-.123v-.1h-.17v.39h.17v.27h-.366v-.854h.195v-.39h-.194v.097h-.098v-.097h-.17v.098h-.098v-.097h-.195v.39h.195v.854h-.366v-.268h.17v-.39h-.17v.096h-.098v-.097h-.195v.096zm-.658 3.71h3-3zm0-.196h3-3zm0-.195h3-3zm0-.195h3-3zm0-.22h3-3zm.39-.17h2.22-2.22zm0-.196h2.22-2.22zm0-.22h2.22-2.22zm0-.195h2.22-2.22zm0-.196h2.22-2.22zm0-.195h2.22-2.22zm0-.197h2.22-2.22zm-.195-.195h2.61-2.61zm0-.195h2.61-2.61zm0-.195h2.61-2.61zm0-.195h2.61-2.61zm.366-.196h1.88-1.88zm.757-.195h.366-.366zm0-.195h.366-.366zm0-.195h.366-.366zm0-.195h.366-.366zm-.195-.244h.756-.755zm-.562.83h.39-.39zm-.17-.245h.732-.732zm0 3.587v-.195.195zm0-.39V25.9v.195zm-.196 0v.195-.195zm.367.195v-.195.195zm.195.195v-.195.195zm0-.39V25.9v.195zm0-.415v-.17.17zm0-.366v-.22.22zm-.197.586v-.22.22zm-.366 0v-.22.22zm.757-.22v.22-.22zm.17 0v-.17.17zm-.56-.366v.195-.196zm.39 0v.195-.196zm.366 0v.195-.196zm-.195 0v-.22.22zm.195-.415v.194-.195zm0-.39v.194-.195zm-.196-.197v.196-.197zm.196-.195v.195-.195zm-.367 0v.195-.195zm-.39 0v.195-.195zm-.17-.195v.195-.195zm.365 0v.195-.195zm.367 0v.195-.195zm.195-.195v.195-.195zm-.366 0v.195-.195zm-.39 0v.195-.195zm-.172-.195v.195-.195zm.733 0v.195-.195zm-.366-.39v.194-.195zm1.682 0h-.39.39zm.17-.245h-.73.73zm0 3.587v-.195.195zm0-.39v-.196.194zm.196 0v.195-.195zm-.366.195v-.195.195zm-.195.195v-.195.195zm0-.39V25.9v.195zm0-.415v-.17.17zm0-.366v-.22.22zm.195.586v-.22.22zm.366 0v-.22.22zm-.756-.22v.22-.22zm-.17 0v-.17.17zm.56-.366v.195-.196zm-.39 0v.195-.196zm-.366 0v.195-.196zm.195 0v-.22.22zm-.194-.415v.194-.195zm0-.39v.194-.195zm.195-.197v.196-.197zm-.194-.195v.195-.195zm.366 0v.195-.195zm.39 0v.195-.195zm.172-.195v.195-.195zm-.367 0v.195-.195zm-.366 0v.195-.195zm-.194-.195v.195-.195zm.366 0v.195-.195zm.39 0v.195-.195zm.172-.195v.195-.195zm-.733 0v.195-.196zm.368-.39v.194-.195zm-.757 2.17v-.22.22zm0-.805v-.195.195zm0 .39v-.194.195zm0-.78v-.195.195zm0-.39v-.196.196zm0-.586v-.195.195zm0-.39v-.196.195zm-.926.317h.39-.39zm.756-.587h.366-.366zm.732.586h.39-.39z"/>
      <path fill="#C8B100" fill-rule="nonzero" stroke="#000" stroke-width=".1" d="M21.863 26.485v-.512c0-.098-.05-.39-.512-.39-.44 0-.487.292-.487.39v.512h1z"/>
      <path fill="#C8B100" fill-rule="nonzero" stroke="#000" stroke-width=".1" d="M21.033 25.997l-.244-.024c0-.098.024-.244.097-.293l.22.17c-.025.025-.074.098-.074.147zm.66 0l.243-.024c0-.098-.024-.244-.097-.293l-.22.17c.023.025.072.098.072.147zm-.245-.244l.122-.22c-.05-.024-.146-.048-.22-.048-.048 0-.146.024-.195.05l.122.218h.17zm-.463-.61v-.537c0-.146-.098-.268-.27-.268-.17 0-.267.122-.267.268v.537h.537zm.756 0v-.537c0-.146.1-.268.27-.268s.268.122.268.268v.537h-.537zm-.194-1.317l.05-.49h-.465l.025.49h.39zm.366 0l-.05-.49h.49l-.05.49h-.39zm-1.098 0l.024-.49h-.464l.05.49h.39z"/>
      <path fill="#0039F0" fill-rule="nonzero" d="M21.692 26.485v-.44c0-.072-.05-.292-.34-.292-.27 0-.32.22-.32.293v.44h.66zm-.756-1.39v-.464c0-.12-.073-.243-.22-.243-.146 0-.22.122-.22.244v.464h.44zm.854 0v-.464c0-.12.073-.243.22-.243.146 0 .22.122.22.244v.464h-.44z"/>
      <path fill="#AD1519" fill-rule="nonzero" d="M22.3 27.274c0-1.067.767-1.93 1.715-1.93.948 0 1.717.863 1.717 1.93s-.77 1.932-1.717 1.932c-.948 0-1.716-.865-1.716-1.932"/>
      <path stroke="#000" stroke-width=".1" d="M22.3 27.274c0-1.067.767-1.93 1.715-1.93.948 0 1.717.863 1.717 1.93s-.77 1.932-1.717 1.932c-.948 0-1.716-.865-1.716-1.932z"/>
      <path fill="#005BBF" fill-rule="nonzero" d="M22.808 27.27c0-.782.54-1.416 1.208-1.416.667 0 1.207.634 1.207 1.417s-.54 1.417-1.207 1.417c-.668 0-1.208-.634-1.208-1.416"/>
      <path stroke="#000" stroke-width=".1" d="M22.808 27.27c0-.782.54-1.416 1.208-1.416.667 0 1.207.634 1.207 1.417s-.54 1.417-1.207 1.417c-.668 0-1.208-.634-1.208-1.416z"/>
      <path fill="#C8B100" fill-rule="nonzero" d="M23.445 26.296s-.143.157-.143.302c0 .146.06.268.06.268-.02-.058-.08-.1-.15-.1-.086 0-.157.067-.157.15 0 .024.015.062.026.082l.053.104c.016-.038.057-.06.103-.06.063 0 .113.048.113.107 0 .008-.002.017-.004.026h-.13v.11h.116l-.085.17.113-.045.085.097.09-.096.112.045-.085-.17h.115v-.11h-.13c-.002-.008-.002-.017-.002-.026 0-.06.05-.108.112-.108.047 0 .087.022.104.06l.052-.104c.012-.02.026-.058.026-.082 0-.083-.07-.15-.158-.15-.07 0-.127.042-.15.1 0 0 .062-.122.062-.268 0-.146-.147-.303-.147-.303"/>
      <path stroke="#000" stroke-width=".1" d="M23.445 26.296s-.143.157-.143.302c0 .146.06.268.06.268-.02-.058-.08-.1-.15-.1-.086 0-.157.067-.157.15 0 .024.015.062.026.082l.053.104c.016-.038.057-.06.103-.06.063 0 .113.048.113.107 0 .008-.002.017-.004.026h-.13v.11h.116l-.085.17.113-.045.085.097.09-.096.112.045-.085-.17h.115v-.11h-.13c-.002-.008-.002-.017-.002-.026 0-.06.05-.108.112-.108.047 0 .087.022.104.06l.052-.104c.012-.02.026-.058.026-.082 0-.083-.07-.15-.158-.15-.07 0-.127.042-.15.1 0 0 .062-.122.062-.268 0-.146-.147-.303-.147-.303z" stroke-linejoin="round"/>
      <path fill="#C8B100" fill-rule="nonzero" d="M24.568 26.296s-.144.157-.144.302c0 .146.06.268.06.268-.02-.058-.08-.1-.148-.1-.088 0-.158.067-.158.15 0 .024.014.062.025.082l.05.104c.02-.038.06-.06.106-.06.06 0 .11.048.11.107.002.008 0 .017-.002.026h-.13v.11h.116l-.085.17.112-.045.086.097.088-.096.113.045-.086-.17h.114v-.11h-.128c-.002-.008-.003-.017-.003-.026 0-.06.05-.108.113-.108.046 0 .086.022.103.06l.052-.104c.01-.02.025-.058.025-.082 0-.083-.07-.15-.158-.15-.068 0-.127.042-.15.1 0 0 .062-.122.062-.268 0-.146-.147-.303-.147-.303"/>
      <path stroke="#000" stroke-width=".1" d="M24.568 26.296s-.144.157-.144.302c0 .146.06.268.06.268-.02-.058-.08-.1-.148-.1-.088 0-.158.067-.158.15 0 .024.014.062.025.082l.05.104c.02-.038.06-.06.106-.06.06 0 .11.048.11.107.002.008 0 .017-.002.026h-.13v.11h.116l-.085.17.112-.045.086.097.088-.096.113.045-.086-.17h.114v-.11h-.128c-.002-.008-.003-.017-.003-.026 0-.06.05-.108.113-.108.046 0 .086.022.103.06l.052-.104c.01-.02.025-.058.025-.082 0-.083-.07-.15-.158-.15-.068 0-.127.042-.15.1 0 0 .062-.122.062-.268 0-.146-.147-.303-.147-.303z" stroke-linejoin="round"/>
      <path fill="#C8B100" fill-rule="nonzero" d="M24.006 27.26s-.143.158-.143.304.06.267.06.267c-.02-.056-.08-.098-.15-.098-.086 0-.157.067-.157.15 0 .024.015.06.026.082l.05.103c.02-.038.058-.06.105-.06.063 0 .113.048.113.108 0 .01 0 .018-.003.026l-.13.002v.11h.116l-.085.17.113-.046.086.096.09-.096.112.045-.086-.17h.115v-.108h-.128c-.004-.01-.005-.018-.005-.027 0-.06.05-.108.113-.108.047 0 .087.022.104.06l.052-.104c.01-.02.025-.057.025-.082 0-.08-.072-.148-.16-.148-.064 0-.123.038-.148.1 0 0 .06-.122.06-.268 0-.146-.146-.303-.146-.303"/>
      <path stroke="#000" stroke-width=".1" d="M24.006 27.26s-.143.158-.143.304.06.267.06.267c-.02-.056-.08-.098-.15-.098-.086 0-.157.067-.157.15 0 .024.015.06.026.082l.05.103c.02-.038.058-.06.105-.06.063 0 .113.048.113.108 0 .01 0 .018-.003.026l-.13.002v.11h.116l-.085.17.113-.046.086.096.09-.096.112.045-.086-.17h.115v-.108h-.128c-.004-.01-.005-.018-.005-.027 0-.06.05-.108.113-.108.047 0 .087.022.104.06l.052-.104c.01-.02.025-.057.025-.082 0-.08-.072-.148-.16-.148-.064 0-.123.038-.148.1 0 0 .06-.122.06-.268 0-.146-.146-.303-.146-.303z" stroke-linejoin="round"/>
      <path fill="#C8B100" fill-rule="nonzero" d="M27.442 22.174l-.03.002c-.008.014-.017.026-.03.038-.026.025-.066.028-.09.007-.01-.01-.016-.027-.014-.043-.017.01-.037.01-.054 0-.027-.016-.034-.053-.014-.085.003-.006.006-.014.01-.018v-.034l-.038.01-.01.02c-.023.025-.058.03-.075.016-.007-.008-.01-.018-.013-.028 0 0-.01.01-.02.01-.055.015-.078-.11-.08-.14l-.018.025s.017.074.01.138c-.008.043-.018.086-.032.127.08.02.197.084.314.174.117.09.21.188.248.256 0 0 .06-.033.124-.054.063-.02.143-.02.143-.02l.023-.023c-.034.004-.167.01-.164-.046 0-.01.007-.02.008-.02-.01 0-.022-.002-.032-.006-.02-.013-.02-.046.003-.073l.02-.013v-.036l-.035.005c-.003.005-.012.01-.016.015-.03.024-.07.026-.092.003-.013-.012-.018-.032-.012-.05-.016.006-.033.004-.047-.004-.03-.016-.034-.055-.013-.085.01-.014.02-.025.033-.035l-.007-.03"/>
      <path stroke="#000" stroke-width=".1" d="M27.442 22.174l-.03.002c-.008.014-.017.026-.03.038-.026.025-.066.028-.09.007-.01-.01-.016-.027-.014-.043-.017.01-.037.01-.054 0-.027-.016-.034-.053-.014-.085.003-.006.006-.014.01-.018v-.034l-.038.01-.01.02c-.023.025-.058.03-.075.016-.007-.008-.01-.018-.013-.028 0 0-.01.01-.02.01-.055.015-.078-.11-.08-.14l-.018.025s.017.074.01.138c-.008.043-.018.086-.032.127.08.02.197.084.314.174.117.09.21.188.248.256 0 0 .06-.033.124-.054.063-.02.143-.02.143-.02l.023-.023c-.034.004-.167.01-.164-.046 0-.01.007-.02.008-.02-.01 0-.022-.002-.032-.006-.02-.013-.02-.046.003-.073l.02-.013v-.036l-.035.005c-.003.005-.012.01-.016.015-.03.024-.07.026-.092.003-.013-.012-.018-.032-.012-.05-.016.006-.033.004-.047-.004-.03-.016-.034-.055-.013-.085.01-.014.02-.025.033-.035l-.007-.03z"/>
    </g>
  </g>
</svg>
