<svg xmlns="http://www.w3.org/2000/svg" width="48" height="48" viewBox="0 0 48 48" xmlns:xlink="http://www.w3.org/1999/xlink">
  <defs>
    <path id="a" d="M48 24c0 13.256-10.744 24-24 24C10.745 48 0 37.256 0 24 0 10.747 10.745 0 24 0c13.256 0 24 10.746 24 24z"/>
  </defs>
  <g fill="none" fill-rule="evenodd">
    <mask id="b" fill="#fff">
      <use xlink:href="#a"/>
    </mask>
    <path fill="#0437A0" d="M-6 48h60V0H-6" mask="url(#b)"/>
    <path fill="#FFDE27" d="M23.77 4.342l.623 1.873 1.974.015-1.588 1.172.596 1.88-1.606-1.148-1.605 1.15.596-1.882-1.588-1.172 1.974-.015.624-1.873zM15.357 35.91l.623 1.872 1.974.013-1.59 1.173.597 1.882-1.603-1.15-1.607 1.15.598-1.882-1.59-1.173 1.975-.013.624-1.873zm-6.19-6.188l.622 1.873 1.975.014-1.59 1.17.596 1.882-1.604-1.15-1.605 1.15.597-1.88-1.588-1.173 1.973-.015.623-1.873zm-2.29-8.466L7.5 23.13l1.974.014-1.588 1.172.598 1.88-1.607-1.148-1.604 1.15.596-1.882-1.59-1.172 1.974-.014.623-1.874zm2.29-8.456l.622 1.873 1.975.014-1.59 1.17.596 1.884-1.604-1.147L7.56 17.74l.597-1.882-1.588-1.17 1.973-.015.623-1.873zm6.184-6.194l.625 1.873 1.974.013-1.59 1.17.596 1.884-1.605-1.15-1.605 1.15.598-1.883-1.59-1.17 1.975-.015.623-1.874zm16.89.01l.624 1.874 1.974.014-1.588 1.172.595 1.882-1.605-1.15-1.605 1.15.596-1.882-1.587-1.172 1.974-.014.623-1.873zm6.167 6.172l.624 1.874 1.975.014-1.59 1.17.598 1.883-1.606-1.15-1.605 1.15.597-1.883-1.59-1.17 1.974-.015.623-1.874zm2.263 8.458l.624 1.873 1.974.012-1.59 1.17.6 1.885-1.608-1.15-1.605 1.15.596-1.884-1.588-1.17 1.974-.014.624-1.874zm-2.247 8.436l.623 1.873 1.975.015-1.59 1.17.6 1.882-1.607-1.15-1.605 1.15.596-1.88-1.59-1.172 1.977-.015.623-1.873zm-6.187 6.19l.623 1.874 1.973.015-1.59 1.172.598 1.882-1.604-1.15-1.606 1.15.597-1.882-1.59-1.17 1.975-.016.624-1.873zm-8.466 2.28l.623 1.875 1.974.014-1.588 1.173.596 1.882-1.606-1.15-1.605 1.15.596-1.882-1.588-1.172 1.974-.013.624-1.874z" mask="url(#b)"/>
  </g>
</svg>
