<svg xmlns="http://www.w3.org/2000/svg" width="48" height="48" viewBox="0 0 48 48" xmlns:xlink="http://www.w3.org/1999/xlink">
  <defs>
    <path id="a" d="M48 23.998c0 13.256-10.747 24-24 24C10.747 48 0 37.255 0 24 0 10.745 10.746 0 24 0c13.253 0 24 10.745 24 23.998z"/>
  </defs>
  <g fill="none" fill-rule="evenodd">
    <mask id="b" fill="#fff">
      <use xlink:href="#a"/>
    </mask>
    <path fill="#FFF" d="M0 32h48V16H0" mask="url(#b)"/>
    <path fill="#F39229" d="M0 16h48V0H0" mask="url(#b)"/>
    <path fill="#47B71D" d="M0 48h48V32H0" mask="url(#b)"/>
    <path fill="#0437A0" d="M24.046 22.96c.062.003.12.01.178.024l.16-1.095.952-2.88-.613 2.97-.408 1.027c.056.018.112.04.165.07l.438-1.016 1.664-2.532-1.362 2.71-.66.884c.05.033.098.068.143.11l.686-.87 2.262-2.014-2.016 2.264-.867.685c.038.044.077.09.107.143l.888-.66 2.707-1.362-2.533 1.665-1.016.438c.027.053.05.11.07.166l1.027-.407 2.968-.616-2.877.95-1.093.162c.012.057.02.117.023.177l1.098-.128 3.026.175-3.026.175-1.098-.128c-.003.06-.01.12-.023.177l1.094.16 2.878.953-2.967-.615-1.027-.407c-.018.057-.042.112-.07.166l1.016.438 2.532 1.664-2.707-1.36-.888-.66c-.03.048-.07.097-.108.14l.866.686 2.016 2.265-2.263-2.018-.687-.867c-.045.04-.092.078-.143.11l.66.887 1.362 2.708-1.664-2.535-.438-1.014c-.053.028-.11.05-.165.07l.408 1.026.613 2.97-.95-2.88-.162-1.094c-.057.013-.116.022-.178.025l.13 1.098L24 29.165l-.175-3.027.128-1.097c-.06-.002-.12-.01-.177-.024l-.16 1.095-.952 2.88.614-2.97.407-1.026c-.056-.02-.112-.042-.165-.07l-.438 1.014-1.665 2.535 1.363-2.708.66-.887c-.05-.032-.098-.07-.144-.11l-.685.867-2.262 2.018 2.016-2.265.866-.685c-.04-.044-.077-.093-.108-.142l-.887.66-2.708 1.362 2.534-1.664 1.016-.437c-.028-.053-.05-.108-.07-.165l-1.027.407-2.97.615 2.878-.952 1.095-.16c-.013-.058-.02-.118-.024-.178l-1.1.128L18.837 24l3.025-.175 1.1.128c.002-.06.01-.12.023-.177l-1.095-.16-2.877-.952 2.97.615 1.027.406c.02-.057.04-.113.068-.165l-1.014-.437-2.533-1.665 2.708 1.362.887.66c.03-.052.07-.1.108-.143l-.866-.685-2.016-2.264 2.263 2.015.686.868c.046-.04.093-.075.144-.108l-.66-.885-1.363-2.71 1.665 2.534.438 1.016c.053-.028.11-.05.165-.07l-.407-1.027-.614-2.97.95 2.88.162 1.094c.056-.013.116-.02.177-.025l-.128-1.098.175-3.026.175 3.026-.13 1.097zm-.467-4.195c.014.143-.09.273-.23.292-.145.018-.278-.08-.3-.223-.278.05-.55.125-.812.22.052.132-.01.285-.147.34-.132.055-.285-.006-.343-.14-.256.122-.5.264-.73.423.086.117.063.28-.052.368-.115.088-.28.068-.368-.044-.108.09-.212.187-.312.287-.098.1-.193.202-.284.31.112.09.132.254.043.367-.086.116-.25.14-.366.054-.16.23-.3.474-.422.73.132.057.194.21.14.343-.057.136-.21.2-.344.147-.092.264-.165.535-.216.815.142.022.24.155.222.297-.018.142-.15.244-.29.228-.013.14-.02.28-.02.422 0 .14.007.283.02.422.14-.016.272.086.29.23.02.142-.08.274-.222.296.05.28.124.552.217.815.136-.053.288.01.344.145.055.135-.007.288-.14.345.122.255.263.5.423.73.116-.086.28-.062.366.053.09.113.07.278-.042.37.092.106.187.21.285.308.1.1.204.194.312.286.09-.11.253-.132.368-.044.115.088.138.25.052.368.23.158.474.3.73.42.058-.13.21-.193.344-.137.137.056.2.208.148.34.262.095.534.168.813.22.022-.143.155-.242.3-.223.14.018.244.148.23.292.138.01.278.017.42.017.14 0 .282-.006.42-.017-.015-.144.087-.274.23-.292.144-.02.276.08.298.222.28-.05.553-.124.814-.218-.054-.133.01-.285.146-.34.133-.057.287.005.346.136.255-.12.497-.262.728-.42-.085-.118-.062-.28.053-.368.114-.088.278-.067.368.044.108-.092.21-.187.31-.286.1-.1.195-.202.288-.31-.11-.09-.133-.255-.044-.368.088-.115.25-.14.367-.054.158-.23.3-.474.42-.73-.13-.056-.192-.21-.136-.344.054-.134.207-.198.342-.145.093-.263.165-.535.216-.815-.142-.022-.242-.154-.223-.297.018-.142.15-.244.292-.228.01-.14.017-.28.017-.422 0-.142-.006-.282-.017-.422-.143.016-.274-.086-.292-.23-.02-.14.08-.274.223-.296-.05-.28-.123-.55-.217-.815-.136.054-.29-.01-.343-.146-.056-.132.006-.285.137-.343-.12-.255-.263-.5-.42-.73-.117.086-.28.063-.368-.053-.09-.113-.067-.277.045-.368-.092-.107-.187-.21-.286-.31-.1-.1-.203-.195-.31-.285-.09.113-.255.133-.37.045-.114-.09-.137-.25-.052-.368-.23-.16-.473-.3-.728-.422-.06.133-.213.194-.346.14-.135-.056-.2-.21-.146-.342-.26-.094-.535-.17-.814-.22-.022.143-.154.242-.298.224-.143-.02-.245-.15-.23-.292-.138-.01-.28-.017-.42-.017-.142 0-.282.006-.42.017zM24 18c1.657 0 3.156.67 4.242 1.758C29.33 20.843 30 22.344 30 24c0 1.656-.67 3.158-1.758 4.243C27.156 29.328 25.657 30 24 30s-3.157-.672-4.242-1.757C18.67 27.158 18 25.656 18 24c0-1.656.672-3.157 1.758-4.242C20.843 18.67 22.343 18 24 18z" mask="url(#b)"/>
  </g>
</svg>
