<svg xmlns="http://www.w3.org/2000/svg" width="48" height="48" viewBox="0 0 48 48" xmlns:xlink="http://www.w3.org/1999/xlink">
  <defs>
    <path id="a" d="M48 24c0 13.255-10.745 24-24 24C10.747 48 0 37.255 0 24S10.746 0 24 0c13.255 0 24 10.745 24 24z"/>
  </defs>
  <g fill="none" fill-rule="evenodd">
    <mask id="b" fill="#fff">
      <use xlink:href="#a"/>
    </mask>
    <path fill="#FFF" d="M48 24c0 13.255-10.745 24-24 24C10.747 48 0 37.255 0 24S10.746 0 24 0c13.255 0 24 10.745 24 24z" mask="url(#b)"/>
    <path fill="#FF1612" d="M0 44.273l48 .504V41.36l-48-.504v3.417zm0-6.835l48 .504v-3.418L0 34.02v3.418zm0-6.835l48 .504V27.69l-48-.505v3.418zm24.06-6.68l23.94.35v-3.418l-23.94-.35v3.418zm0-6.834l23.94.35v-3.42l-23.94-.35v3.42zm0-6.838l23.94.35V7.184l-23.94-.35v3.418zm0-6.834l23.94.35V.35L24.06 0v3.418z" mask="url(#b)"/>
    <path fill="#0437A0" d="M.003 27.424H24.06V0H.004" mask="url(#b)"/>
    <path fill="#FFDE27" d="M14.677 10.45c-3.733-1.805-8.154.943-8.154 5.233 0 4.292 4.42 7.04 8.154 5.235C10.437 24.343 4 21.333 4 15.683c0-5.648 6.437-8.66 10.677-5.234zm4.874 10.143l-1.014-3.206 2.93 1.694-2.32-2.45 3.383.266-3.166-1.213 3.165-1.213-3.383.268 2.32-2.452-2.93 1.694 1.014-3.206-1.896 2.784-.49-3.323-.488 3.323-1.9-2.784 1.015 3.206-2.928-1.694 2.32 2.452-3.383-.268 3.163 1.213-3.164 1.213 3.38-.267-2.318 2.45 2.93-1.693-1.017 3.206 1.9-2.784.49 3.322.49-3.323 1.896 2.783z" mask="url(#b)"/>
  </g>
</svg>
