<svg xmlns="http://www.w3.org/2000/svg" width="48" height="48" viewBox="0 0 48 48" xmlns:xlink="http://www.w3.org/1999/xlink">
  <defs>
    <path id="a" d="M48 24c0 13.254-10.745 24-24 24C10.745 48 0 37.254 0 24S10.746 0 24 0c13.255 0 24 10.746 24 24z"/>
  </defs>
  <g fill="none" fill-rule="evenodd">
    <mask id="b" fill="#fff">
      <use xlink:href="#a"/>
    </mask>
    <use fill="#0437A0" xlink:href="#a"/>
    <path fill="#FFF" d="M23.053 21.894c.474.267 1.204.545 2.192.833.988.288 1.8.577 2.44.865.637.288 1.183.72 1.636 1.297.454.575.68 1.336.68 2.283 0 1.208-.408 2.19-1.225 2.944-.816.754-1.897 1.214-3.242 1.38v2.983h-2.367v-2.984c-.974-.124-1.907-.378-2.8-.762-.89-.384-1.68-.87-2.366-1.46l1.297-2.657c.727.66 1.564 1.187 2.51 1.585.948.398 1.812.597 2.594.597.674 0 1.2-.124 1.576-.37.377-.248.566-.605.566-1.072 0-.37-.127-.675-.38-.915-.255-.24-.577-.436-.968-.587-.39-.15-.93-.323-1.616-.515-.988-.273-1.794-.548-2.418-.822-.625-.274-1.163-.693-1.616-1.256-.453-.562-.68-1.31-.68-2.243 0-1.126.388-2.063 1.163-2.81.776-.75 1.822-1.22 3.14-1.41V14h2.366v2.78c.824.095 1.613.273 2.368.534.755.26 1.428.59 2.018.988l-1.256 2.696c-.74-.453-1.526-.813-2.357-1.08-.83-.268-1.54-.402-2.13-.402-.563 0-1.01.103-1.338.31-.33.205-.494.507-.494.905 0 .508.237.896.71 1.164z" mask="url(#b)"/>
  </g>
</svg>
