<svg xmlns="http://www.w3.org/2000/svg" width="48" height="48" viewBox="0 0 48 48" xmlns:xlink="http://www.w3.org/1999/xlink">
  <defs>
    <path id="a" d="M48 24c0 13.257-10.744 24-24 24C10.745 48 0 37.257 0 24 0 10.746 10.745 0 24 0c13.256 0 24 10.745 24 24z"/>
  </defs>
  <g fill="none" fill-rule="evenodd">
    <mask id="b" fill="#fff">
      <use xlink:href="#a"/>
    </mask>
    <path fill="#0437A0" d="M0 48h48V0H0" mask="url(#b)"/>
    <g mask="url(#b)">
      <path fill="#FFF" d="M3.59-.203h1.084v9.265h-15.702v-1.45h7.392l-7.392-4.926V.88L-.93 7.614h3.25L-9.404-.203h2.708L3.59 6.654V-.203zm4.696 0h1.087v6.857L19.657-.203h2.708L10.642 7.613h3.247L23.99.88v1.806l-7.392 4.927h7.392v1.45H8.286V-.204zm15.704 14.08v1.45h-7.392l7.392 4.928v1.804l-10.1-6.734H10.64l11.723 7.818h-2.708L9.373 16.286v6.858H8.286v-9.266H23.99zM4.674 23.145H3.59v-6.858l-10.286 6.858h-2.708L2.32 15.326H-.93l-10.098 6.733v-1.805l7.392-4.93h-7.392V13.88H4.674v9.266z"/>
      <path fill="#FF1612" d="M8.286-.203v9.265H23.99v4.816H8.286v9.266H4.674v-9.266h-15.702V9.062H4.674V-.203h3.612zM23.99 22.06l-10.1-6.734H10.64l11.723 7.818h1.625V22.06zM13.89 7.612L23.99.88V-.202h-1.625L10.642 7.613h3.247zm-11.57 0L-9.404-.203h-1.624V.88L-.93 7.614h3.25zm-3.25 7.713l-10.098 6.733v1.084h1.624L2.32 15.326H-.93z"/>
    </g>
    <path fill="#FF1612" d="M39.007 31.387l.456 1.41 1.48-.005-1.2.866.46 1.408-1.196-.873-1.194.873.46-1.408-1.2-.866 1.482.004M46.678 15.687l.453 1.41 1.48-.005-1.198.87.46 1.404-1.194-.87-1.196.87.46-1.405-1.198-.868 1.478.004M30.515 17.9l.455 1.41 1.48-.004-1.2.868.46 1.407-1.195-.872-1.195.873.46-1.406-1.2-.868 1.48.004M39.162 9.255l.455 1.408 1.48-.004-1.2.866.46 1.406-1.195-.87-1.196.87.46-1.406-1.197-.867 1.478.003" mask="url(#b)"/>
    <path stroke="#FFF" stroke-width=".08" d="M39.007 31.387l.456 1.41 1.48-.005-1.2.866.46 1.408-1.196-.873-1.194.873.46-1.408-1.2-.866 1.482.004zM46.678 15.687l.453 1.41 1.48-.005-1.198.87.46 1.404-1.194-.87-1.196.87.46-1.405-1.198-.868 1.478.004zM30.515 17.9l.455 1.41 1.48-.004-1.2.868.46 1.407-1.195-.872-1.195.873.46-1.406-1.2-.868 1.48.004zM39.162 9.255l.455 1.408 1.48-.004-1.2.866.46 1.406-1.195-.87-1.196.87.46-1.406-1.197-.867 1.478.003z" mask="url(#b)"/>
  </g>
</svg>
