<svg xmlns="http://www.w3.org/2000/svg" width="48" height="48" viewBox="0 0 48 48" xmlns:xlink="http://www.w3.org/1999/xlink">
  <defs>
    <path id="a" d="M48 24c0 13.255-10.745 24-24 24S0 37.255 0 24 10.745 0 24 0s24 10.745 24 24z"/>
  </defs>
  <g fill="none" fill-rule="evenodd">
    <mask id="b" fill="#fff">
      <use xlink:href="#a"/>
    </mask>
    <path fill="#FF1612" d="M0 48h48V0H0" mask="url(#b)"/>
    <path fill="#FFF" d="M18.024 12c4.17 0 7.84 2.116 9.996 5.328-1.758-1.775-4.213-2.874-6.93-2.874-5.35 0-9.69 4.273-9.69 9.545 0 5.273 4.34 9.547 9.69 9.547 2.717 0 5.172-1.102 6.93-2.877-2.157 3.212-5.827 5.33-9.996 5.33C11.384 36 6 30.626 6 24c0-6.627 5.384-12 12.024-12zm14.41 6.287l2.48 3.49L39 20.483l-2.557 3.433 2.494 3.48-4.062-1.368-2.546 3.443.047-4.276-4.067-1.35 4.093-1.28.03-4.277z" mask="url(#b)"/>
  </g>
</svg>
