<svg xmlns="http://www.w3.org/2000/svg" width="48" height="48" viewBox="0 0 48 48" xmlns:xlink="http://www.w3.org/1999/xlink">
  <defs>
    <path id="a" d="M48 24c0 13.255-10.746 24-24 24C10.744 48 0 37.255 0 24 0 10.745 10.745 0 24 0c13.254 0 24 10.746 24 24z"/>
  </defs>
  <g fill="none" fill-rule="evenodd">
    <mask id="b" fill="#fff">
      <use xlink:href="#a"/>
    </mask>
    <path fill="#0437A0" d="M-3.092 0h21.146v14.097L-3.092 0zm33.04 0h21.146L29.948 14.097V0zM60 5.937V16.07H44.8L60 5.938zm0 25.99v10.136L44.8 31.928H60zM51.094 48H29.948V33.902L51.094 48zm-33.04 0H-3.092l21.146-14.098V48zM-12 42.063V31.928H3.2L-12 42.063zm0-25.992V5.938L3.2 16.07H-12z" mask="url(#b)"/>
    <path fill="#FFF" d="M60 42.064L44.8 31.93H60V16.07H44.8L60 5.938V0h-8.906L29.948 14.098V0H18.053v14.098L-3.092 0H-12v5.937L3.2 16.07H-12v15.86H3.2L-12 42.063V48h8.908l21.145-14.098V48h11.895V33.902L51.094 48H60v-5.936" mask="url(#b)"/>
    <path fill="#FF1612" d="M27.714 0v19.05H60v9.9H27.714V48h-7.427V28.95H-12v-9.9h32.287V0h7.427zM60 45.772L39.234 31.928h-6.68L56.66 48H60v-2.228zm-20.766-29.7L60 2.226V0h-3.34L32.554 16.07h6.68zm-23.79 0L-8.66 0H-12v2.227L8.766 16.07h6.68zM8.767 31.927L-12 45.772V48h3.34l24.105-16.072h-6.68z" mask="url(#b)"/>
  </g>
</svg>
