<svg xmlns="http://www.w3.org/2000/svg" width="48" height="48" viewBox="0 0 48 48" xmlns:xlink="http://www.w3.org/1999/xlink">
  <defs>
    <path id="a" d="M48 24c0 13.256-10.743 24-24 24C10.747 48 0 37.256 0 24 0 10.747 10.746 0 24 0c13.257 0 24 10.746 24 24z"/>
  </defs>
  <g fill="none" fill-rule="evenodd">
    <mask id="b" fill="#fff">
      <use xlink:href="#a"/>
    </mask>
    <use fill="#FFF" xlink:href="#a"/>
    <path fill="#FF1612" d="M0 3.693h48V0H0v3.693zM0 48h48v-3.693H0V48zm0-7.383h48v-3.693H0v3.693zm0-7.386h48v-3.69H0v3.69zm0-7.384h48v-3.69H0v3.69zm0-7.385h48v-3.69H0v3.69zm0-7.384h48v-3.69H0v3.69z" mask="url(#b)"/>
    <path fill="#0437A0" d="M-8.886 25.826h36v-27h-36" mask="url(#b)"/>
    <path fill="#F4F4F4" d="M24.615.484l.328 1.056 1.07-.003-.866.65.332 1.053-.865-.655-.863.655.333-1.053-.867-.65 1.067.003.33-1.056zM-5.6 11.104l.33 1.057h1.067l-.865.648.332 1.053-.864-.65-.864.65.334-1.052-.866-.65 1.068.003.328-1.055zm3.023 2.656l.327 1.055h1.07l-.866.648.33 1.052-.86-.65-.864.65.332-1.052-.866-.65 1.068.002.33-1.055zm24.17 0l.33 1.055h1.066l-.864.648.33 1.052-.862-.65-.864.65.332-1.052-.864-.65 1.068.002.328-1.055zm-6.042 0l.33 1.055h1.067l-.865.648.332 1.052-.863-.65-.863.65.333-1.052-.866-.65 1.068.002.33-1.055zm-6.042 0l.328 1.055h1.067l-.862.648.33 1.052-.862-.65-.865.65.335-1.052-.868-.65 1.07.002.328-1.055zm-6.043 0l.328 1.055h1.07l-.866.648.33 1.052-.862-.65-.863.65.33-1.052-.864-.65 1.07.002.327-1.055zm-3.02-2.655l.328 1.056H1.84l-.865.648.332 1.053-.863-.65-.863.65.334-1.052-.87-.65 1.07.003.33-1.055zm18.128 0l.33 1.056h1.066l-.866.648.33 1.053-.86-.65-.865.65.332-1.052-.867-.65 1.07.003.328-1.055zm6.042 0l.328 1.056h1.07l-.866.648.332 1.053-.865-.65-.863.65.333-1.052-.867-.65 1.067.003.33-1.055zm0 5.312l.328 1.053h1.07l-.866.648.332 1.054-.865-.654-.863.654.333-1.054-.867-.65 1.067.002.33-1.053zm-6.042 0l.33 1.053h1.066l-.866.648.33 1.054-.86-.654-.865.654.332-1.054-.867-.65 1.07.002.328-1.053zm-18.13 0l.33 1.053H1.84l-.865.648.332 1.054-.863-.654-.863.654.334-1.054-.87-.65 1.07.002.33-1.053zm-3.02 2.655l.327 1.054 1.07-.002-.866.65.33 1.052-.86-.65-.864.65.332-1.053-.866-.65 1.068.003.33-1.054zm24.17 0l.33 1.054 1.066-.002-.864.65.33 1.052-.862-.65-.864.65.332-1.053-.864-.65 1.068.003.328-1.054zm-6.042 0l.33 1.054 1.067-.002-.865.65.332 1.052-.863-.65-.863.65.333-1.053-.866-.65 1.068.003.33-1.054zm-6.042 0l.328 1.054 1.067-.002-.862.65.33 1.052-.862-.65-.865.65.335-1.053-.868-.65 1.07.003.328-1.054zm-6.043 0l.328 1.054 1.07-.002-.866.65.33 1.052-.862-.65-.863.65.33-1.053-.864-.65 1.07.003.327-1.054zM-5.6 16.417l.33 1.053h1.067l-.865.648.332 1.054-.864-.654-.864.654.334-1.054-.866-.65 1.068.002.328-1.053zm0 5.31l.33 1.056 1.067-.005-.865.652.332 1.054-.864-.656-.864.656.334-1.054-.866-.652 1.068.005.328-1.056zm6.044 0l.33 1.056 1.066-.005-.865.652.332 1.054-.863-.656-.863.656.334-1.054-.87-.652 1.07.005.33-1.056zm18.13 0l.328 1.056 1.067-.005-.866.652.33 1.054-.86-.656-.865.656.332-1.054-.867-.652 1.07.005.328-1.056zm6.04 0l.33 1.056 1.068-.005-.865.652.332 1.054-.865-.656-.863.656.333-1.054-.867-.652 1.067.005.33-1.056zM-2.575 8.45l.326 1.055 1.07-.002-.866.65.33 1.053-.86-.652-.864.652.332-1.054-.866-.65 1.068.003.33-1.056zm0-5.31l.326 1.054 1.07-.003-.866.653.33 1.05-.86-.652-.864.654.332-1.05-.866-.653 1.068.004.33-1.055zm24.17 0l.33 1.054 1.065-.003-.864.653.33 1.05-.862-.652-.864.654.332-1.05-.864-.653 1.068.004.328-1.055zm-6.043 0l.33 1.054 1.067-.003-.865.653.332 1.05-.863-.652-.863.654.333-1.05-.866-.653 1.068.004.33-1.055zm-6.042 0l.328 1.054 1.067-.003-.862.653.33 1.05-.862-.652-.865.654.335-1.05-.868-.653 1.07.004.328-1.055zm-6.043 0l.328 1.054 1.07-.003-.866.653.33 1.05-.862-.652-.863.654.33-1.05-.864-.653 1.07.004.327-1.055zM-5.6 5.794l.33 1.055h1.067l-.865.647.332 1.054-.864-.653-.864.654.334-1.053-.866-.648h1.068l.328-1.055zM21.594 8.45l.33 1.055 1.065-.002-.864.65.33 1.053-.862-.652-.864.652.332-1.054-.864-.65 1.068.003.328-1.056zm-6.043 0l.33 1.055 1.067-.002-.865.65.332 1.053-.863-.652-.863.652.333-1.054-.866-.65 1.068.003.33-1.056zm-6.042 0l.328 1.055 1.067-.002-.862.65.33 1.053-.862-.652-.865.652.335-1.054-.868-.65 1.07.003.328-1.056zm-6.043 0l.328 1.055 1.07-.002-.866.65.33 1.053-.862-.652-.863.652.33-1.054-.864-.65 1.07.003.327-1.056zM.445 5.794L.772 6.85H1.84l-.865.647.332 1.054-.863-.653-.863.654.334-1.053-.87-.648h1.07l.33-1.055zm0-5.31L.772 1.54l1.067-.003-.865.65.332 1.053-.863-.655-.863.655.334-1.053-.87-.65 1.07.003.33-1.056zm-6.045 0l.33 1.055 1.067-.003-.865.65.332 1.053-.864-.655-.864.655.334-1.053-.866-.65 1.068.003L-5.6.484zM6.486 21.726l.33 1.056 1.066-.005-.863.652.33 1.054-.864-.656-.863.656.332-1.054-.866-.652 1.07.005.326-1.056zm0-5.31l.33 1.053H7.88l-.863.648.33 1.054-.864-.654-.863.654.332-1.054-.866-.65 1.07.002.326-1.053zm0-5.312l.33 1.056H7.88l-.863.648.33 1.053-.864-.65-.863.65.332-1.052-.866-.65 1.07.003.326-1.055zm0-5.31l.33 1.055H7.88l-.863.647.33 1.054-.864-.653-.863.654.332-1.053-.866-.648h1.07l.326-1.055zm0-5.31l.33 1.055 1.066-.003-.863.65.33 1.053-.864-.655-.863.655.332-1.053-.866-.65 1.07.003.326-1.056zm6.043 21.242l.328 1.056 1.07-.005-.868.652.333 1.054-.864-.656-.864.656.332-1.054-.865-.652 1.07.005.326-1.056zm0-5.31l.328 1.053h1.07l-.868.648.333 1.054-.864-.654-.864.654.332-1.054-.865-.65 1.07.002.326-1.053zm0-5.312l.328 1.056h1.07l-.868.648.333 1.053-.864-.65-.864.65.332-1.052-.865-.65 1.07.003.326-1.055zm0-5.31l.328 1.055h1.07l-.868.647.333 1.054-.864-.653-.864.654.332-1.053-.865-.648h1.07l.326-1.055zm0-5.31l.328 1.055 1.07-.003-.868.65.333 1.053-.864-.655-.864.655.332-1.053-.865-.65 1.07.003.326-1.056zm6.043 5.31l.33 1.055h1.066l-.866.647.33 1.054-.86-.653-.865.654.332-1.053-.867-.648h1.07l.328-1.055zm0-5.31l.33 1.055 1.066-.003-.866.65.33 1.053-.86-.655-.865.655.332-1.053-.867-.65 1.07.003.328-1.056zm6.042 5.31l.328 1.055h1.07l-.866.647.332 1.054-.865-.653-.863.654.333-1.053-.867-.648h1.067l.33-1.055z" mask="url(#b)"/>
  </g>
</svg>
